<?xml version="1.0" encoding="utf-8" standalone="no"?>
<!DOCTYPE svg PUBLIC "-//W3C//DTD SVG 1.1//EN"
  "http://www.w3.org/Graphics/SVG/1.1/DTD/svg11.dtd">
<svg xmlns:xlink="http://www.w3.org/1999/xlink" width="512.593438pt" height="339.01pt" viewBox="0 0 512.593438 339.01" xmlns="http://www.w3.org/2000/svg" version="1.1">
 <metadata>
  <rdf:RDF xmlns:dc="http://purl.org/dc/elements/1.1/" xmlns:cc="http://creativecommons.org/ns#" xmlns:rdf="http://www.w3.org/1999/02/22-rdf-syntax-ns#">
   <cc:Work>
    <dc:type rdf:resource="http://purl.org/dc/dcmitype/StillImage"/>
    <dc:date>2024-08-05T22:53:17.471581</dc:date>
    <dc:format>image/svg+xml</dc:format>
    <dc:creator>
     <cc:Agent>
      <dc:title>Matplotlib v3.9.0, https://matplotlib.org/</dc:title>
     </cc:Agent>
    </dc:creator>
   </cc:Work>
  </rdf:RDF>
 </metadata>
 <defs>
  <style type="text/css">*{stroke-linejoin: round; stroke-linecap: butt}</style>
 </defs>
 <g id="figure_1">
  <g id="patch_1">
   <path d="M 0 339.01 
L 512.593438 339.01 
L 512.593438 0 
L 0 0 
z
" style="fill: #ffffff"/>
  </g>
  <g id="axes_1">
   <g id="patch_2">
    <path d="M 58.993437 299.518125 
L 505.393438 299.518125 
L 505.393438 22.318125 
L 58.993437 22.318125 
z
" style="fill: #ffffff"/>
   </g>
   <g id="PolyCollection_1">
    <defs>
     <path id="m1970711ada" d="M 80.41571 -297.991553 
L 80.41571 -300.742197 
L 83.991511 -310.546921 
L 87.567312 -313.226875 
L 91.143112 -304.336939 
L 94.718913 -301.487339 
L 98.294714 -300.691502 
L 101.870515 -300.322715 
L 105.446316 -300.129948 
L 109.022117 -299.959573 
L 112.597918 -299.756858 
L 116.173718 -299.647416 
L 119.749519 -299.605274 
L 123.32532 -299.569509 
L 126.901121 -299.533721 
L 130.476922 -299.497058 
L 134.052723 -299.440219 
L 137.628523 -299.426348 
L 141.204324 -299.438645 
L 144.780125 -299.431254 
L 148.355926 -299.412021 
L 151.931727 -299.391496 
L 155.507528 -299.391511 
L 159.083328 -299.390135 
L 162.659129 -299.374511 
L 166.23493 -299.3676 
L 169.810731 -299.370444 
L 173.386532 -299.37693 
L 176.962333 -299.372868 
L 180.538134 -299.36753 
L 184.113934 -299.366885 
L 187.689735 -299.366875 
L 191.265536 -299.366875 
L 194.841337 -299.366875 
L 198.417138 -299.366875 
L 201.992939 -299.366875 
L 205.568739 -299.366875 
L 209.14454 -299.366925 
L 212.720341 -299.368416 
L 216.296142 -299.372685 
L 219.871943 -299.369565 
L 223.447744 -299.367028 
L 227.023545 -299.366876 
L 230.599345 -299.366875 
L 234.175146 -299.366875 
L 237.750947 -299.366875 
L 241.326748 -299.366927 
L 244.902549 -299.368686 
L 248.47835 -299.376228 
L 252.05415 -299.374968 
L 255.629951 -299.368038 
L 259.205752 -299.367357 
L 262.781553 -299.371124 
L 266.357354 -299.371716 
L 269.933155 -299.367553 
L 273.508955 -299.366887 
L 277.084756 -299.366875 
L 280.660557 -299.366875 
L 284.236358 -299.366875 
L 287.812159 -299.366875 
L 291.38796 -299.366875 
L 294.963761 -299.366875 
L 298.539561 -299.366875 
L 302.115362 -299.366875 
L 305.691163 -299.366875 
L 309.266964 -299.366875 
L 312.842765 -299.366875 
L 316.418566 -299.366875 
L 319.994366 -299.366875 
L 323.570167 -299.366875 
L 327.145968 -299.366875 
L 330.721769 -299.366878 
L 334.29757 -299.367166 
L 337.873371 -299.370442 
L 341.449171 -299.372243 
L 345.024972 -299.367867 
L 348.600773 -299.366898 
L 352.176574 -299.366875 
L 355.752375 -299.366875 
L 359.328176 -299.366875 
L 362.903977 -299.366875 
L 366.479777 -299.366875 
L 370.055578 -299.366875 
L 373.631379 -299.366875 
L 377.20718 -299.366875 
L 380.782981 -299.366875 
L 384.358782 -299.366875 
L 387.934582 -299.366875 
L 391.510383 -299.366875 
L 395.086184 -299.366875 
L 398.661985 -299.366875 
L 402.237786 -299.366875 
L 405.813587 -299.366875 
L 409.389388 -299.366875 
L 412.965188 -299.366875 
L 416.540989 -299.366875 
L 420.11679 -299.366879 
L 423.692591 -299.367254 
L 427.268392 -299.370836 
L 430.844193 -299.371957 
L 434.419993 -299.367676 
L 434.419993 -299.366074 
L 434.419993 -299.366074 
L 430.844193 -299.361793 
L 427.268392 -299.362914 
L 423.692591 -299.366496 
L 420.11679 -299.366871 
L 416.540989 -299.366875 
L 412.965188 -299.366875 
L 409.389388 -299.366875 
L 405.813587 -299.366875 
L 402.237786 -299.366875 
L 398.661985 -299.366875 
L 395.086184 -299.366875 
L 391.510383 -299.366875 
L 387.934582 -299.366875 
L 384.358782 -299.366875 
L 380.782981 -299.366875 
L 377.20718 -299.366875 
L 373.631379 -299.366875 
L 370.055578 -299.366875 
L 366.479777 -299.366875 
L 362.903977 -299.366875 
L 359.328176 -299.366875 
L 355.752375 -299.366875 
L 352.176574 -299.366875 
L 348.600773 -299.366852 
L 345.024972 -299.365883 
L 341.449171 -299.361507 
L 337.873371 -299.363308 
L 334.29757 -299.366584 
L 330.721769 -299.366872 
L 327.145968 -299.366875 
L 323.570167 -299.366875 
L 319.994366 -299.366875 
L 316.418566 -299.366875 
L 312.842765 -299.366875 
L 309.266964 -299.366875 
L 305.691163 -299.366875 
L 302.115362 -299.366875 
L 298.539561 -299.366875 
L 294.963761 -299.366875 
L 291.38796 -299.366875 
L 287.812159 -299.366875 
L 284.236358 -299.366875 
L 280.660557 -299.366875 
L 277.084756 -299.366875 
L 273.508955 -299.366863 
L 269.933155 -299.366197 
L 266.357354 -299.362034 
L 262.781553 -299.362626 
L 259.205752 -299.366393 
L 255.629951 -299.365712 
L 252.05415 -299.358782 
L 248.47835 -299.357522 
L 244.902549 -299.365064 
L 241.326748 -299.366823 
L 237.750947 -299.366875 
L 234.175146 -299.366875 
L 230.599345 -299.366875 
L 227.023545 -299.366874 
L 223.447744 -299.366722 
L 219.871943 -299.364185 
L 216.296142 -299.361065 
L 212.720341 -299.365334 
L 209.14454 -299.366825 
L 205.568739 -299.366875 
L 201.992939 -299.366875 
L 198.417138 -299.366875 
L 194.841337 -299.366875 
L 191.265536 -299.366875 
L 187.689735 -299.366875 
L 184.113934 -299.366865 
L 180.538134 -299.36622 
L 176.962333 -299.360882 
L 173.386532 -299.35682 
L 169.810731 -299.363306 
L 166.23493 -299.36615 
L 162.659129 -299.359239 
L 159.083328 -299.343615 
L 155.507528 -299.342239 
L 151.931727 -299.342254 
L 148.355926 -299.321729 
L 144.780125 -299.302496 
L 141.204324 -299.295105 
L 137.628523 -299.307402 
L 134.052723 -299.293531 
L 130.476922 -299.236692 
L 126.901121 -299.200029 
L 123.32532 -299.164241 
L 119.749519 -299.128476 
L 116.173718 -299.086334 
L 112.597918 -298.976892 
L 109.022117 -298.774177 
L 105.446316 -298.603802 
L 101.870515 -298.411035 
L 98.294714 -298.042248 
L 94.718913 -297.246411 
L 91.143112 -294.396811 
L 87.567312 -285.506875 
L 83.991511 -288.186829 
L 80.41571 -297.991553 
z
" style="stroke: #3d3d3d; stroke-width: 1.25"/>
    </defs>
    <g clip-path="url(#pdfc662a2c9)">
     <use xlink:href="#m1970711ada" x="0" y="339.01" style="fill: #3274a1; stroke: #3d3d3d; stroke-width: 1.25"/>
    </g>
   </g>
   <g id="PolyCollection_2">
    <defs>
     <path id="mb927a571d6" d="M 80.909338 -263.49836 
L 80.909338 -265.93539 
L 83.249746 -271.560747 
L 85.590153 -278.576875 
L 87.930561 -276.153602 
L 90.270969 -270.244261 
L 92.611376 -267.659242 
L 94.951784 -266.543139 
L 97.292191 -265.775145 
L 99.632599 -265.430069 
L 101.973007 -265.358168 
L 104.313414 -265.318784 
L 106.653822 -265.260349 
L 108.994229 -265.199259 
L 111.334637 -265.063128 
L 113.675045 -264.920216 
L 116.015452 -264.861232 
L 118.35586 -264.842142 
L 120.696268 -264.809062 
L 123.036675 -264.779798 
L 125.377083 -264.784427 
L 127.71749 -264.794737 
L 130.057898 -264.79304 
L 132.398306 -264.792397 
L 134.738713 -264.788427 
L 137.079121 -264.774854 
L 139.419528 -264.762426 
L 141.759936 -264.754125 
L 144.100344 -264.741087 
L 146.440751 -264.732301 
L 148.781159 -264.730628 
L 151.121566 -264.723827 
L 153.461974 -264.718216 
L 155.802382 -264.718496 
L 158.142789 -264.725584 
L 160.483197 -264.736228 
L 162.823605 -264.736433 
L 165.164012 -264.725887 
L 167.50442 -264.718522 
L 169.844827 -264.716982 
L 172.185235 -264.716877 
L 174.525643 -264.716875 
L 176.86605 -264.716875 
L 179.206458 -264.716875 
L 181.546865 -264.716875 
L 183.887273 -264.716875 
L 186.227681 -264.716875 
L 188.568088 -264.716875 
L 190.908496 -264.716875 
L 193.248903 -264.716875 
L 195.589311 -264.716875 
L 197.929719 -264.716875 
L 200.270126 -264.716875 
L 202.610534 -264.716875 
L 204.950942 -264.716875 
L 207.291349 -264.716875 
L 209.631757 -264.716875 
L 211.972164 -264.716875 
L 214.312572 -264.716875 
L 216.65298 -264.716875 
L 218.993387 -264.716875 
L 221.333795 -264.716875 
L 223.674202 -264.716875 
L 226.01461 -264.716875 
L 228.355018 -264.716875 
L 230.695425 -264.716875 
L 233.035833 -264.716875 
L 235.376241 -264.716875 
L 237.716648 -264.716875 
L 240.057056 -264.716875 
L 242.397463 -264.716875 
L 244.737871 -264.716875 
L 247.078279 -264.716875 
L 249.418686 -264.716875 
L 251.759094 -264.716875 
L 254.099501 -264.716875 
L 256.439909 -264.716875 
L 258.780317 -264.716875 
L 261.120724 -264.716875 
L 263.461132 -264.716875 
L 265.801539 -264.716875 
L 268.141947 -264.716875 
L 270.482355 -264.716875 
L 272.822762 -264.716875 
L 275.16317 -264.716875 
L 277.503578 -264.716875 
L 279.843985 -264.716875 
L 282.184393 -264.716875 
L 284.5248 -264.716875 
L 286.865208 -264.716875 
L 289.205616 -264.716875 
L 291.546023 -264.716875 
L 293.886431 -264.716875 
L 296.226838 -264.716875 
L 298.567246 -264.716876 
L 300.907654 -264.716936 
L 303.248061 -264.717967 
L 305.588469 -264.723316 
L 307.928876 -264.729414 
L 310.269284 -264.724929 
L 312.609692 -264.718582 
L 312.609692 -264.715168 
L 312.609692 -264.715168 
L 310.269284 -264.708821 
L 307.928876 -264.704336 
L 305.588469 -264.710434 
L 303.248061 -264.715783 
L 300.907654 -264.716814 
L 298.567246 -264.716874 
L 296.226838 -264.716875 
L 293.886431 -264.716875 
L 291.546023 -264.716875 
L 289.205616 -264.716875 
L 286.865208 -264.716875 
L 284.5248 -264.716875 
L 282.184393 -264.716875 
L 279.843985 -264.716875 
L 277.503578 -264.716875 
L 275.16317 -264.716875 
L 272.822762 -264.716875 
L 270.482355 -264.716875 
L 268.141947 -264.716875 
L 265.801539 -264.716875 
L 263.461132 -264.716875 
L 261.120724 -264.716875 
L 258.780317 -264.716875 
L 256.439909 -264.716875 
L 254.099501 -264.716875 
L 251.759094 -264.716875 
L 249.418686 -264.716875 
L 247.078279 -264.716875 
L 244.737871 -264.716875 
L 242.397463 -264.716875 
L 240.057056 -264.716875 
L 237.716648 -264.716875 
L 235.376241 -264.716875 
L 233.035833 -264.716875 
L 230.695425 -264.716875 
L 228.355018 -264.716875 
L 226.01461 -264.716875 
L 223.674202 -264.716875 
L 221.333795 -264.716875 
L 218.993387 -264.716875 
L 216.65298 -264.716875 
L 214.312572 -264.716875 
L 211.972164 -264.716875 
L 209.631757 -264.716875 
L 207.291349 -264.716875 
L 204.950942 -264.716875 
L 202.610534 -264.716875 
L 200.270126 -264.716875 
L 197.929719 -264.716875 
L 195.589311 -264.716875 
L 193.248903 -264.716875 
L 190.908496 -264.716875 
L 188.568088 -264.716875 
L 186.227681 -264.716875 
L 183.887273 -264.716875 
L 181.546865 -264.716875 
L 179.206458 -264.716875 
L 176.86605 -264.716875 
L 174.525643 -264.716875 
L 172.185235 -264.716873 
L 169.844827 -264.716768 
L 167.50442 -264.715228 
L 165.164012 -264.707863 
L 162.823605 -264.697317 
L 160.483197 -264.697522 
L 158.142789 -264.708166 
L 155.802382 -264.715254 
L 153.461974 -264.715534 
L 151.121566 -264.709923 
L 148.781159 -264.703122 
L 146.440751 -264.701449 
L 144.100344 -264.692663 
L 141.759936 -264.679625 
L 139.419528 -264.671324 
L 137.079121 -264.658896 
L 134.738713 -264.645323 
L 132.398306 -264.641353 
L 130.057898 -264.64071 
L 127.71749 -264.639013 
L 125.377083 -264.649323 
L 123.036675 -264.653952 
L 120.696268 -264.624688 
L 118.35586 -264.591608 
L 116.015452 -264.572518 
L 113.675045 -264.513534 
L 111.334637 -264.370622 
L 108.994229 -264.234491 
L 106.653822 -264.173401 
L 104.313414 -264.114966 
L 101.973007 -264.075582 
L 99.632599 -264.003681 
L 97.292191 -263.658605 
L 94.951784 -262.890611 
L 92.611376 -261.774508 
L 90.270969 -259.189489 
L 87.930561 -253.280148 
L 85.590153 -250.856875 
L 83.249746 -257.873003 
L 80.909338 -263.49836 
z
" style="stroke: #3d3d3d; stroke-width: 1.25"/>
    </defs>
    <g clip-path="url(#pdfc662a2c9)">
     <use xlink:href="#mb927a571d6" x="0" y="339.01" style="fill: #e1812c; stroke: #3d3d3d; stroke-width: 1.25"/>
    </g>
   </g>
   <g id="PolyCollection_3">
    <defs>
     <path id="m50afe03916" d="M 80.686787 -228.81349 
L 80.686787 -231.32026 
L 83.503959 -238.218259 
L 86.321131 -243.926875 
L 89.138303 -237.935659 
L 91.955475 -233.241491 
L 94.772648 -231.887188 
L 97.58982 -231.38841 
L 100.406992 -231.10188 
L 103.224164 -230.849978 
L 106.041336 -230.659789 
L 108.858509 -230.576641 
L 111.675681 -230.491575 
L 114.492853 -230.39489 
L 117.310025 -230.319077 
L 120.127197 -230.272668 
L 122.94437 -230.244405 
L 125.761542 -230.207932 
L 128.578714 -230.213071 
L 131.395886 -230.231624 
L 134.213058 -230.194288 
L 137.030231 -230.155538 
L 139.847403 -230.136953 
L 142.664575 -230.132163 
L 145.481747 -230.115512 
L 148.298919 -230.109666 
L 151.116092 -230.106525 
L 153.933264 -230.08236 
L 156.750436 -230.076185 
L 159.567608 -230.087454 
L 162.38478 -230.083247 
L 165.201953 -230.071347 
L 168.019125 -230.067466 
L 170.836297 -230.069138 
L 173.653469 -230.073689 
L 176.470641 -230.075138 
L 179.287814 -230.072853 
L 182.104986 -230.068401 
L 184.922158 -230.06705 
L 187.73933 -230.068193 
L 190.556502 -230.072107 
L 193.373675 -230.071716 
L 196.190847 -230.067918 
L 199.008019 -230.066927 
L 201.825191 -230.066876 
L 204.642363 -230.066875 
L 207.459536 -230.066875 
L 210.276708 -230.066882 
L 213.09388 -230.067173 
L 215.911052 -230.069657 
L 218.728224 -230.072921 
L 221.545397 -230.069936 
L 224.362569 -230.067236 
L 227.179741 -230.066885 
L 229.996913 -230.066875 
L 232.814085 -230.066875 
L 235.631258 -230.066875 
L 238.44843 -230.066875 
L 241.265602 -230.066875 
L 244.082774 -230.066891 
L 246.899946 -230.067376 
L 249.717119 -230.070452 
L 252.534291 -230.072827 
L 255.351463 -230.069181 
L 258.168635 -230.067083 
L 260.985807 -230.066879 
L 263.80298 -230.066875 
L 266.620152 -230.066875 
L 269.437324 -230.066875 
L 272.254496 -230.066875 
L 275.071668 -230.066875 
L 277.888841 -230.066875 
L 280.706013 -230.066875 
L 283.523185 -230.066875 
L 286.340357 -230.066875 
L 289.157529 -230.066875 
L 291.974702 -230.066875 
L 294.791874 -230.066875 
L 297.609046 -230.066875 
L 300.426218 -230.066875 
L 303.24339 -230.066875 
L 306.060563 -230.066875 
L 308.877735 -230.066875 
L 311.694907 -230.066875 
L 314.512079 -230.066875 
L 317.329251 -230.066875 
L 320.146424 -230.066875 
L 322.963596 -230.066875 
L 325.780768 -230.066875 
L 328.59794 -230.066875 
L 331.415112 -230.066875 
L 334.232285 -230.066875 
L 337.049457 -230.066875 
L 339.866629 -230.066875 
L 342.683801 -230.066875 
L 345.500973 -230.066877 
L 348.318146 -230.066986 
L 351.135318 -230.0685 
L 353.95249 -230.072428 
L 356.769662 -230.071294 
L 359.586834 -230.067694 
L 359.586834 -230.066056 
L 359.586834 -230.066056 
L 356.769662 -230.062456 
L 353.95249 -230.061322 
L 351.135318 -230.06525 
L 348.318146 -230.066764 
L 345.500973 -230.066873 
L 342.683801 -230.066875 
L 339.866629 -230.066875 
L 337.049457 -230.066875 
L 334.232285 -230.066875 
L 331.415112 -230.066875 
L 328.59794 -230.066875 
L 325.780768 -230.066875 
L 322.963596 -230.066875 
L 320.146424 -230.066875 
L 317.329251 -230.066875 
L 314.512079 -230.066875 
L 311.694907 -230.066875 
L 308.877735 -230.066875 
L 306.060563 -230.066875 
L 303.24339 -230.066875 
L 300.426218 -230.066875 
L 297.609046 -230.066875 
L 294.791874 -230.066875 
L 291.974702 -230.066875 
L 289.157529 -230.066875 
L 286.340357 -230.066875 
L 283.523185 -230.066875 
L 280.706013 -230.066875 
L 277.888841 -230.066875 
L 275.071668 -230.066875 
L 272.254496 -230.066875 
L 269.437324 -230.066875 
L 266.620152 -230.066875 
L 263.80298 -230.066875 
L 260.985807 -230.066871 
L 258.168635 -230.066667 
L 255.351463 -230.064569 
L 252.534291 -230.060923 
L 249.717119 -230.063298 
L 246.899946 -230.066374 
L 244.082774 -230.066859 
L 241.265602 -230.066875 
L 238.44843 -230.066875 
L 235.631258 -230.066875 
L 232.814085 -230.066875 
L 229.996913 -230.066875 
L 227.179741 -230.066865 
L 224.362569 -230.066514 
L 221.545397 -230.063814 
L 218.728224 -230.060829 
L 215.911052 -230.064093 
L 213.09388 -230.066577 
L 210.276708 -230.066868 
L 207.459536 -230.066875 
L 204.642363 -230.066875 
L 201.825191 -230.066874 
L 199.008019 -230.066823 
L 196.190847 -230.065832 
L 193.373675 -230.062034 
L 190.556502 -230.061643 
L 187.73933 -230.065557 
L 184.922158 -230.0667 
L 182.104986 -230.065349 
L 179.287814 -230.060897 
L 176.470641 -230.058612 
L 173.653469 -230.060061 
L 170.836297 -230.064612 
L 168.019125 -230.066284 
L 165.201953 -230.062403 
L 162.38478 -230.050503 
L 159.567608 -230.046296 
L 156.750436 -230.057565 
L 153.933264 -230.05139 
L 151.116092 -230.027225 
L 148.298919 -230.024084 
L 145.481747 -230.018238 
L 142.664575 -230.001587 
L 139.847403 -229.996797 
L 137.030231 -229.978212 
L 134.213058 -229.939462 
L 131.395886 -229.902126 
L 128.578714 -229.920679 
L 125.761542 -229.925818 
L 122.94437 -229.889345 
L 120.127197 -229.861082 
L 117.310025 -229.814673 
L 114.492853 -229.73886 
L 111.675681 -229.642175 
L 108.858509 -229.557109 
L 106.041336 -229.473961 
L 103.224164 -229.283772 
L 100.406992 -229.03187 
L 97.58982 -228.74534 
L 94.772648 -228.246562 
L 91.955475 -226.892259 
L 89.138303 -222.198091 
L 86.321131 -216.206875 
L 83.503959 -221.915491 
L 80.686787 -228.81349 
z
" style="stroke: #3d3d3d; stroke-width: 1.25"/>
    </defs>
    <g clip-path="url(#pdfc662a2c9)">
     <use xlink:href="#m50afe03916" x="0" y="339.01" style="fill: #3a923a; stroke: #3d3d3d; stroke-width: 1.25"/>
    </g>
   </g>
   <g id="PolyCollection_4">
    <defs>
     <path id="m5ced03d985" d="M 81.660933 -194.229285 
L 81.660933 -196.604465 
L 83.089845 -200.128163 
L 84.518756 -206.016818 
L 85.947668 -209.276875 
L 87.37658 -206.563702 
L 88.805492 -201.729547 
L 90.234404 -198.658938 
L 91.663316 -197.311123 
L 93.092227 -196.717749 
L 94.521139 -196.419568 
L 95.950051 -196.234445 
L 97.378963 -196.100793 
L 98.807875 -196.000069 
L 100.236787 -195.923109 
L 101.665698 -195.864045 
L 103.09461 -195.819906 
L 104.523522 -195.788265 
L 105.952434 -195.760233 
L 107.381346 -195.724664 
L 108.810258 -195.67896 
L 110.239169 -195.639619 
L 111.668081 -195.626978 
L 113.096993 -195.629503 
L 114.525905 -195.618354 
L 115.954817 -195.587236 
L 117.383729 -195.554276 
L 118.81264 -195.533062 
L 120.241552 -195.521518 
L 121.670464 -195.516085 
L 123.099376 -195.512265 
L 124.528288 -195.499967 
L 125.957199 -195.476346 
L 127.386111 -195.454224 
L 128.815023 -195.44402 
L 130.243935 -195.442541 
L 131.672847 -195.445113 
L 133.101759 -195.449837 
L 134.53067 -195.454774 
L 135.959582 -195.457839 
L 137.388494 -195.454078 
L 138.817406 -195.445421 
L 140.246318 -195.442027 
L 141.67523 -195.444332 
L 143.104141 -195.445489 
L 144.533053 -195.444097 
L 145.961965 -195.440867 
L 147.390877 -195.435402 
L 148.819789 -195.429979 
L 150.248701 -195.426725 
L 151.677612 -195.426116 
L 153.106524 -195.427185 
L 154.535436 -195.427553 
L 155.964348 -195.42623 
L 157.39326 -195.424741 
L 158.822172 -195.425489 
L 160.251083 -195.427258 
L 161.679995 -195.427244 
L 163.108907 -195.424547 
L 164.537819 -195.420603 
L 165.966731 -195.417968 
L 167.395643 -195.417252 
L 168.824554 -195.418292 
L 170.253466 -195.422258 
L 171.682378 -195.428294 
L 173.11129 -195.430255 
L 174.540202 -195.425534 
L 175.969114 -195.41997 
L 177.398025 -195.417486 
L 178.826937 -195.416942 
L 180.255849 -195.416879 
L 181.684761 -195.416875 
L 183.113673 -195.416875 
L 184.542585 -195.416875 
L 185.971496 -195.416875 
L 187.400408 -195.416875 
L 188.82932 -195.416875 
L 190.258232 -195.416875 
L 191.687144 -195.416875 
L 193.116056 -195.416875 
L 194.544967 -195.416875 
L 195.973879 -195.416875 
L 197.402791 -195.416875 
L 198.831703 -195.416875 
L 200.260615 -195.416875 
L 201.689527 -195.416875 
L 203.118438 -195.416875 
L 204.54735 -195.416875 
L 205.976262 -195.416875 
L 207.405174 -195.416875 
L 208.834086 -195.416876 
L 210.262997 -195.41689 
L 211.691909 -195.417046 
L 213.120821 -195.417925 
L 214.549733 -195.420523 
L 215.978645 -195.424375 
L 217.407557 -195.426984 
L 218.836468 -195.426882 
L 220.26538 -195.42411 
L 221.694292 -195.420274 
L 223.123204 -195.417815 
L 223.123204 -195.415935 
L 223.123204 -195.415935 
L 221.694292 -195.413476 
L 220.26538 -195.40964 
L 218.836468 -195.406868 
L 217.407557 -195.406766 
L 215.978645 -195.409375 
L 214.549733 -195.413227 
L 213.120821 -195.415825 
L 211.691909 -195.416704 
L 210.262997 -195.41686 
L 208.834086 -195.416874 
L 207.405174 -195.416875 
L 205.976262 -195.416875 
L 204.54735 -195.416875 
L 203.118438 -195.416875 
L 201.689527 -195.416875 
L 200.260615 -195.416875 
L 198.831703 -195.416875 
L 197.402791 -195.416875 
L 195.973879 -195.416875 
L 194.544967 -195.416875 
L 193.116056 -195.416875 
L 191.687144 -195.416875 
L 190.258232 -195.416875 
L 188.82932 -195.416875 
L 187.400408 -195.416875 
L 185.971496 -195.416875 
L 184.542585 -195.416875 
L 183.113673 -195.416875 
L 181.684761 -195.416875 
L 180.255849 -195.416871 
L 178.826937 -195.416808 
L 177.398025 -195.416264 
L 175.969114 -195.41378 
L 174.540202 -195.408216 
L 173.11129 -195.403495 
L 171.682378 -195.405456 
L 170.253466 -195.411492 
L 168.824554 -195.415458 
L 167.395643 -195.416498 
L 165.966731 -195.415782 
L 164.537819 -195.413147 
L 163.108907 -195.409203 
L 161.679995 -195.406506 
L 160.251083 -195.406492 
L 158.822172 -195.408261 
L 157.39326 -195.409009 
L 155.964348 -195.40752 
L 154.535436 -195.406197 
L 153.106524 -195.406565 
L 151.677612 -195.407634 
L 150.248701 -195.407025 
L 148.819789 -195.403771 
L 147.390877 -195.398348 
L 145.961965 -195.392883 
L 144.533053 -195.389653 
L 143.104141 -195.388261 
L 141.67523 -195.389418 
L 140.246318 -195.391723 
L 138.817406 -195.388329 
L 137.388494 -195.379672 
L 135.959582 -195.375911 
L 134.53067 -195.378976 
L 133.101759 -195.383913 
L 131.672847 -195.388637 
L 130.243935 -195.391209 
L 128.815023 -195.38973 
L 127.386111 -195.379526 
L 125.957199 -195.357404 
L 124.528288 -195.333783 
L 123.099376 -195.321485 
L 121.670464 -195.317665 
L 120.241552 -195.312232 
L 118.81264 -195.300688 
L 117.383729 -195.279474 
L 115.954817 -195.246514 
L 114.525905 -195.215396 
L 113.096993 -195.204247 
L 111.668081 -195.206772 
L 110.239169 -195.194131 
L 108.810258 -195.15479 
L 107.381346 -195.109086 
L 105.952434 -195.073517 
L 104.523522 -195.045485 
L 103.09461 -195.013844 
L 101.665698 -194.969705 
L 100.236787 -194.910641 
L 98.807875 -194.833681 
L 97.378963 -194.732957 
L 95.950051 -194.599305 
L 94.521139 -194.414182 
L 93.092227 -194.116001 
L 91.663316 -193.522627 
L 90.234404 -192.174812 
L 88.805492 -189.104203 
L 87.37658 -184.270048 
L 85.947668 -181.556875 
L 84.518756 -184.816932 
L 83.089845 -190.705587 
L 81.660933 -194.229285 
z
" style="stroke: #3d3d3d; stroke-width: 1.25"/>
    </defs>
    <g clip-path="url(#pdfc662a2c9)">
     <use xlink:href="#m5ced03d985" x="0" y="339.01" style="fill: #c03d3e; stroke: #3d3d3d; stroke-width: 1.25"/>
    </g>
   </g>
   <g id="PolyCollection_5">
    <defs>
     <path id="m4d5bf712aa" d="M 79.284347 -159.408515 
L 79.284347 -162.125235 
L 83.38352 -170.742485 
L 87.482694 -174.626875 
L 91.581867 -166.385842 
L 95.681041 -162.980928 
L 99.780214 -161.930136 
L 103.879388 -161.511825 
L 107.978561 -161.431974 
L 112.077735 -161.339855 
L 116.176909 -161.216777 
L 120.276082 -161.036783 
L 124.375256 -160.935655 
L 128.474429 -160.933909 
L 132.573603 -160.901561 
L 136.672776 -160.848296 
L 140.77195 -160.830817 
L 144.871123 -160.816368 
L 148.970297 -160.797993 
L 153.069471 -160.810724 
L 157.168644 -160.813604 
L 161.267818 -160.782215 
L 165.366991 -160.767916 
L 169.466165 -160.766888 
L 173.565338 -160.766875 
L 177.664512 -160.766876 
L 181.763685 -160.766974 
L 185.862859 -160.769151 
L 189.962033 -160.775307 
L 194.061206 -160.771975 
L 198.16038 -160.769092 
L 202.259553 -160.774829 
L 206.358727 -160.772759 
L 210.4579 -160.767578 
L 214.557074 -160.766891 
L 218.656247 -160.7671 
L 222.755421 -160.770379 
L 226.854595 -160.775679 
L 230.953768 -160.770474 
L 235.052942 -160.768255 
L 239.152115 -160.773919 
L 243.251289 -160.773852 
L 247.350462 -160.76799 
L 251.449636 -160.766904 
L 255.548809 -160.766875 
L 259.647983 -160.766875 
L 263.747157 -160.766875 
L 267.84633 -160.766875 
L 271.945504 -160.766875 
L 276.044677 -160.766875 
L 280.143851 -160.766875 
L 284.243024 -160.766875 
L 288.342198 -160.76688 
L 292.441371 -160.767229 
L 296.540545 -160.771241 
L 300.639718 -160.775559 
L 304.738892 -160.769662 
L 308.838066 -160.767019 
L 312.937239 -160.766876 
L 317.036413 -160.766875 
L 321.135586 -160.766875 
L 325.23476 -160.766875 
L 329.333933 -160.766875 
L 333.433107 -160.766875 
L 337.53228 -160.766875 
L 341.631454 -160.766875 
L 345.730628 -160.766875 
L 349.829801 -160.766875 
L 353.928975 -160.766875 
L 358.028148 -160.766875 
L 362.127322 -160.766875 
L 366.226495 -160.766875 
L 370.325669 -160.766875 
L 374.424842 -160.766875 
L 378.524016 -160.766875 
L 382.62319 -160.766875 
L 386.722363 -160.766875 
L 390.821537 -160.766875 
L 394.92071 -160.766875 
L 399.019884 -160.766875 
L 403.119057 -160.766875 
L 407.218231 -160.766875 
L 411.317404 -160.766875 
L 415.416578 -160.766875 
L 419.515752 -160.766875 
L 423.614925 -160.766875 
L 427.714099 -160.766875 
L 431.813272 -160.766875 
L 435.912446 -160.766875 
L 440.011619 -160.766875 
L 444.110793 -160.766875 
L 448.209966 -160.766875 
L 452.30914 -160.766875 
L 456.408314 -160.766875 
L 460.507487 -160.766875 
L 464.606661 -160.766875 
L 468.705834 -160.766902 
L 472.805008 -160.767948 
L 476.904181 -160.77376 
L 481.003355 -160.774006 
L 485.102528 -160.768067 
L 485.102528 -160.765683 
L 485.102528 -160.765683 
L 481.003355 -160.759744 
L 476.904181 -160.75999 
L 472.805008 -160.765802 
L 468.705834 -160.766848 
L 464.606661 -160.766875 
L 460.507487 -160.766875 
L 456.408314 -160.766875 
L 452.30914 -160.766875 
L 448.209966 -160.766875 
L 444.110793 -160.766875 
L 440.011619 -160.766875 
L 435.912446 -160.766875 
L 431.813272 -160.766875 
L 427.714099 -160.766875 
L 423.614925 -160.766875 
L 419.515752 -160.766875 
L 415.416578 -160.766875 
L 411.317404 -160.766875 
L 407.218231 -160.766875 
L 403.119057 -160.766875 
L 399.019884 -160.766875 
L 394.92071 -160.766875 
L 390.821537 -160.766875 
L 386.722363 -160.766875 
L 382.62319 -160.766875 
L 378.524016 -160.766875 
L 374.424842 -160.766875 
L 370.325669 -160.766875 
L 366.226495 -160.766875 
L 362.127322 -160.766875 
L 358.028148 -160.766875 
L 353.928975 -160.766875 
L 349.829801 -160.766875 
L 345.730628 -160.766875 
L 341.631454 -160.766875 
L 337.53228 -160.766875 
L 333.433107 -160.766875 
L 329.333933 -160.766875 
L 325.23476 -160.766875 
L 321.135586 -160.766875 
L 317.036413 -160.766875 
L 312.937239 -160.766874 
L 308.838066 -160.766731 
L 304.738892 -160.764088 
L 300.639718 -160.758191 
L 296.540545 -160.762509 
L 292.441371 -160.766521 
L 288.342198 -160.76687 
L 284.243024 -160.766875 
L 280.143851 -160.766875 
L 276.044677 -160.766875 
L 271.945504 -160.766875 
L 267.84633 -160.766875 
L 263.747157 -160.766875 
L 259.647983 -160.766875 
L 255.548809 -160.766875 
L 251.449636 -160.766846 
L 247.350462 -160.76576 
L 243.251289 -160.759898 
L 239.152115 -160.759831 
L 235.052942 -160.765495 
L 230.953768 -160.763276 
L 226.854595 -160.758071 
L 222.755421 -160.763371 
L 218.656247 -160.76665 
L 214.557074 -160.766859 
L 210.4579 -160.766172 
L 206.358727 -160.760991 
L 202.259553 -160.758921 
L 198.16038 -160.764658 
L 194.061206 -160.761775 
L 189.962033 -160.758443 
L 185.862859 -160.764599 
L 181.763685 -160.766776 
L 177.664512 -160.766874 
L 173.565338 -160.766875 
L 169.466165 -160.766862 
L 165.366991 -160.765834 
L 161.267818 -160.751535 
L 157.168644 -160.720146 
L 153.069471 -160.723026 
L 148.970297 -160.735757 
L 144.871123 -160.717382 
L 140.77195 -160.702933 
L 136.672776 -160.685454 
L 132.573603 -160.632189 
L 128.474429 -160.599841 
L 124.375256 -160.598095 
L 120.276082 -160.496967 
L 116.176909 -160.316973 
L 112.077735 -160.193895 
L 107.978561 -160.101776 
L 103.879388 -160.021925 
L 99.780214 -159.603614 
L 95.681041 -158.552822 
L 91.581867 -155.147908 
L 87.482694 -146.906875 
L 83.38352 -150.791265 
L 79.284347 -159.408515 
z
" style="stroke: #3d3d3d; stroke-width: 1.25"/>
    </defs>
    <g clip-path="url(#pdfc662a2c9)">
     <use xlink:href="#m4d5bf712aa" x="0" y="339.01" style="fill: #9372b2; stroke: #3d3d3d; stroke-width: 1.25"/>
    </g>
   </g>
   <g id="PolyCollection_6">
    <defs>
     <path id="m28cf6bcddb" d="M 81.585976 -124.887827 
L 81.585976 -127.345923 
L 82.958562 -130.636895 
L 84.331147 -136.182672 
L 85.703733 -139.976875 
L 87.076319 -138.471059 
L 88.448904 -134.030089 
L 89.82149 -130.566944 
L 91.194076 -128.84074 
L 92.566662 -128.024293 
L 93.939247 -127.546376 
L 95.311833 -127.180517 
L 96.684419 -126.878242 
L 98.057004 -126.681786 
L 99.42959 -126.613212 
L 100.802176 -126.608946 
L 102.174762 -126.586563 
L 103.547347 -126.54418 
L 104.919933 -126.507673 
L 106.292519 -126.462963 
L 107.665104 -126.402786 
L 109.03769 -126.35423 
L 110.410276 -126.33365 
L 111.782862 -126.31474 
L 113.155447 -126.275887 
L 114.528033 -126.24153 
L 115.900619 -126.232305 
L 117.273204 -126.226893 
L 118.64579 -126.203842 
L 120.018376 -126.172358 
L 121.390962 -126.153634 
L 122.763547 -126.15547 
L 124.136133 -126.166477 
L 125.508719 -126.168907 
L 126.881305 -126.156084 
L 128.25389 -126.141079 
L 129.626476 -126.138766 
L 130.999062 -126.14637 
L 132.371647 -126.153071 
L 133.744233 -126.156835 
L 135.116819 -126.160956 
L 136.489405 -126.162198 
L 137.86199 -126.157484 
L 139.234576 -126.151453 
L 140.607162 -126.146747 
L 141.979747 -126.141951 
L 143.352333 -126.14202 
L 144.724919 -126.150379 
L 146.097505 -126.156092 
L 147.47009 -126.150592 
L 148.842676 -126.142714 
L 150.215262 -126.141872 
L 151.587847 -126.143427 
L 152.960433 -126.140139 
L 154.333019 -126.132537 
L 155.705605 -126.124597 
L 157.07819 -126.11944 
L 158.450776 -126.117411 
L 159.823362 -126.116943 
L 161.195947 -126.11688 
L 162.568533 -126.116875 
L 163.941119 -126.116875 
L 165.313705 -126.116875 
L 166.68629 -126.116875 
L 168.058876 -126.116875 
L 169.431462 -126.116875 
L 170.804047 -126.116875 
L 172.176633 -126.116875 
L 173.549219 -126.116875 
L 174.921805 -126.116875 
L 176.29439 -126.116875 
L 177.666976 -126.116875 
L 179.039562 -126.116875 
L 180.412148 -126.116875 
L 181.784733 -126.116875 
L 183.157319 -126.116875 
L 184.529905 -126.116875 
L 185.90249 -126.116875 
L 187.275076 -126.116876 
L 188.647662 -126.116898 
L 190.020248 -126.117103 
L 191.392833 -126.118186 
L 192.765419 -126.121305 
L 194.138005 -126.12568 
L 195.51059 -126.127168 
L 196.883176 -126.123952 
L 198.255762 -126.119737 
L 199.628348 -126.117556 
L 201.000933 -126.11697 
L 202.373519 -126.116883 
L 203.746105 -126.116875 
L 205.11869 -126.116875 
L 206.491276 -126.116882 
L 207.863862 -126.11696 
L 209.236448 -126.117501 
L 210.609033 -126.119577 
L 211.981619 -126.12373 
L 213.354205 -126.127106 
L 214.72679 -126.125857 
L 216.099376 -126.121513 
L 217.471962 -126.118284 
L 217.471962 -126.115466 
L 217.471962 -126.115466 
L 216.099376 -126.112237 
L 214.72679 -126.107893 
L 213.354205 -126.106644 
L 211.981619 -126.11002 
L 210.609033 -126.114173 
L 209.236448 -126.116249 
L 207.863862 -126.11679 
L 206.491276 -126.116868 
L 205.11869 -126.116875 
L 203.746105 -126.116875 
L 202.373519 -126.116867 
L 201.000933 -126.11678 
L 199.628348 -126.116194 
L 198.255762 -126.114013 
L 196.883176 -126.109798 
L 195.51059 -126.106582 
L 194.138005 -126.10807 
L 192.765419 -126.112445 
L 191.392833 -126.115564 
L 190.020248 -126.116647 
L 188.647662 -126.116852 
L 187.275076 -126.116874 
L 185.90249 -126.116875 
L 184.529905 -126.116875 
L 183.157319 -126.116875 
L 181.784733 -126.116875 
L 180.412148 -126.116875 
L 179.039562 -126.116875 
L 177.666976 -126.116875 
L 176.29439 -126.116875 
L 174.921805 -126.116875 
L 173.549219 -126.116875 
L 172.176633 -126.116875 
L 170.804047 -126.116875 
L 169.431462 -126.116875 
L 168.058876 -126.116875 
L 166.68629 -126.116875 
L 165.313705 -126.116875 
L 163.941119 -126.116875 
L 162.568533 -126.116875 
L 161.195947 -126.11687 
L 159.823362 -126.116807 
L 158.450776 -126.116339 
L 157.07819 -126.11431 
L 155.705605 -126.109153 
L 154.333019 -126.101213 
L 152.960433 -126.093611 
L 151.587847 -126.090323 
L 150.215262 -126.091878 
L 148.842676 -126.091036 
L 147.47009 -126.083158 
L 146.097505 -126.077658 
L 144.724919 -126.083371 
L 143.352333 -126.09173 
L 141.979747 -126.091799 
L 140.607162 -126.087003 
L 139.234576 -126.082297 
L 137.86199 -126.076266 
L 136.489405 -126.071552 
L 135.116819 -126.072794 
L 133.744233 -126.076915 
L 132.371647 -126.080679 
L 130.999062 -126.08738 
L 129.626476 -126.094984 
L 128.25389 -126.092671 
L 126.881305 -126.077666 
L 125.508719 -126.064843 
L 124.136133 -126.067273 
L 122.763547 -126.07828 
L 121.390962 -126.080116 
L 120.018376 -126.061392 
L 118.64579 -126.029908 
L 117.273204 -126.006857 
L 115.900619 -126.001445 
L 114.528033 -125.99222 
L 113.155447 -125.957863 
L 111.782862 -125.91901 
L 110.410276 -125.9001 
L 109.03769 -125.87952 
L 107.665104 -125.830964 
L 106.292519 -125.770787 
L 104.919933 -125.726077 
L 103.547347 -125.68957 
L 102.174762 -125.647187 
L 100.802176 -125.624804 
L 99.42959 -125.620538 
L 98.057004 -125.551964 
L 96.684419 -125.355508 
L 95.311833 -125.053233 
L 93.939247 -124.687374 
L 92.566662 -124.209457 
L 91.194076 -123.39301 
L 89.82149 -121.666806 
L 88.448904 -118.203661 
L 87.076319 -113.762691 
L 85.703733 -112.256875 
L 84.331147 -116.051078 
L 82.958562 -121.596855 
L 81.585976 -124.887827 
z
" style="stroke: #3d3d3d; stroke-width: 1.25"/>
    </defs>
    <g clip-path="url(#pdfc662a2c9)">
     <use xlink:href="#m28cf6bcddb" x="0" y="339.01" style="fill: #845b53; stroke: #3d3d3d; stroke-width: 1.25"/>
    </g>
   </g>
   <g id="PolyCollection_7">
    <defs>
     <path id="m5e2d488e5b" d="M 79.58449 -90.222938 
L 79.58449 -92.710812 
L 81.14066 -94.90114 
L 82.69683 -98.638568 
L 84.253 -102.851993 
L 85.809171 -105.326875 
L 87.365341 -104.6154 
L 88.921511 -101.489582 
L 90.477682 -97.961004 
L 92.033852 -95.368829 
L 93.590022 -93.854295 
L 95.146192 -93.045439 
L 96.702363 -92.622767 
L 98.258533 -92.397315 
L 99.814703 -92.246779 
L 101.370873 -92.106539 
L 102.927044 -91.972687 
L 104.483214 -91.869805 
L 106.039384 -91.809614 
L 107.595554 -91.779724 
L 109.151725 -91.761482 
L 110.707895 -91.747095 
L 112.264065 -91.73689 
L 113.820235 -91.726698 
L 115.376406 -91.706191 
L 116.932576 -91.669202 
L 118.488746 -91.620351 
L 120.044917 -91.571275 
L 121.601087 -91.533151 
L 123.157257 -91.5123 
L 124.713427 -91.509057 
L 126.269598 -91.518527 
L 127.825768 -91.533718 
L 129.381938 -91.548824 
L 130.938108 -91.55922 
L 132.494279 -91.560045 
L 134.050449 -91.547991 
L 135.606619 -91.52583 
L 137.162789 -91.503038 
L 138.71896 -91.489304 
L 140.27513 -91.487316 
L 141.8313 -91.491713 
L 143.38747 -91.494131 
L 144.943641 -91.490096 
L 146.499811 -91.481763 
L 148.055981 -91.474019 
L 149.612152 -91.469439 
L 151.168322 -91.467569 
L 152.724492 -91.467066 
L 154.280662 -91.467205 
L 155.836833 -91.46822 
L 157.393003 -91.471228 
L 158.949173 -91.477421 
L 160.505343 -91.485977 
L 162.061514 -91.49274 
L 163.617684 -91.493055 
L 165.173854 -91.48669 
L 166.730024 -91.478135 
L 168.286195 -91.471935 
L 169.842365 -91.469762 
L 171.398535 -91.471698 
L 172.954706 -91.477686 
L 174.510876 -91.486208 
L 176.067046 -91.492862 
L 177.623216 -91.493086 
L 179.179387 -91.487094 
L 180.735557 -91.480257 
L 182.291727 -91.478255 
L 183.847897 -91.482671 
L 185.404068 -91.489965 
L 186.960238 -91.493899 
L 188.516408 -91.490774 
L 190.072578 -91.482699 
L 191.628749 -91.47471 
L 193.184919 -91.469775 
L 194.741089 -91.467677 
L 196.297259 -91.467041 
L 197.85343 -91.466901 
L 199.4096 -91.466878 
L 200.96577 -91.466875 
L 202.521941 -91.466875 
L 204.078111 -91.466875 
L 205.634281 -91.466875 
L 207.190451 -91.466875 
L 208.746622 -91.466875 
L 210.302792 -91.466875 
L 211.858962 -91.466875 
L 213.415132 -91.466875 
L 214.971303 -91.466876 
L 216.527473 -91.466887 
L 218.083643 -91.46696 
L 219.639813 -91.467334 
L 221.195984 -91.468725 
L 222.752154 -91.472452 
L 224.308324 -91.479442 
L 225.864495 -91.488045 
L 227.420665 -91.493534 
L 228.976835 -91.49197 
L 230.533005 -91.484534 
L 232.089176 -91.476165 
L 233.645346 -91.470528 
L 233.645346 -91.463222 
L 233.645346 -91.463222 
L 232.089176 -91.457585 
L 230.533005 -91.449216 
L 228.976835 -91.44178 
L 227.420665 -91.440216 
L 225.864495 -91.445705 
L 224.308324 -91.454308 
L 222.752154 -91.461298 
L 221.195984 -91.465025 
L 219.639813 -91.466416 
L 218.083643 -91.46679 
L 216.527473 -91.466863 
L 214.971303 -91.466874 
L 213.415132 -91.466875 
L 211.858962 -91.466875 
L 210.302792 -91.466875 
L 208.746622 -91.466875 
L 207.190451 -91.466875 
L 205.634281 -91.466875 
L 204.078111 -91.466875 
L 202.521941 -91.466875 
L 200.96577 -91.466875 
L 199.4096 -91.466872 
L 197.85343 -91.466849 
L 196.297259 -91.466709 
L 194.741089 -91.466073 
L 193.184919 -91.463975 
L 191.628749 -91.45904 
L 190.072578 -91.451051 
L 188.516408 -91.442976 
L 186.960238 -91.439851 
L 185.404068 -91.443785 
L 183.847897 -91.451079 
L 182.291727 -91.455495 
L 180.735557 -91.453493 
L 179.179387 -91.446656 
L 177.623216 -91.440664 
L 176.067046 -91.440888 
L 174.510876 -91.447542 
L 172.954706 -91.456064 
L 171.398535 -91.462052 
L 169.842365 -91.463988 
L 168.286195 -91.461815 
L 166.730024 -91.455615 
L 165.173854 -91.44706 
L 163.617684 -91.440695 
L 162.061514 -91.44101 
L 160.505343 -91.447773 
L 158.949173 -91.456329 
L 157.393003 -91.462522 
L 155.836833 -91.46553 
L 154.280662 -91.466545 
L 152.724492 -91.466684 
L 151.168322 -91.466181 
L 149.612152 -91.464311 
L 148.055981 -91.459731 
L 146.499811 -91.451987 
L 144.943641 -91.443654 
L 143.38747 -91.439619 
L 141.8313 -91.442037 
L 140.27513 -91.446434 
L 138.71896 -91.444446 
L 137.162789 -91.430712 
L 135.606619 -91.40792 
L 134.050449 -91.385759 
L 132.494279 -91.373705 
L 130.938108 -91.37453 
L 129.381938 -91.384926 
L 127.825768 -91.400032 
L 126.269598 -91.415223 
L 124.713427 -91.424693 
L 123.157257 -91.42145 
L 121.601087 -91.400599 
L 120.044917 -91.362475 
L 118.488746 -91.313399 
L 116.932576 -91.264548 
L 115.376406 -91.227559 
L 113.820235 -91.207052 
L 112.264065 -91.19686 
L 110.707895 -91.186655 
L 109.151725 -91.172268 
L 107.595554 -91.154026 
L 106.039384 -91.124136 
L 104.483214 -91.063945 
L 102.927044 -90.961063 
L 101.370873 -90.827211 
L 99.814703 -90.686971 
L 98.258533 -90.536435 
L 96.702363 -90.310983 
L 95.146192 -89.888311 
L 93.590022 -89.079455 
L 92.033852 -87.564921 
L 90.477682 -84.972746 
L 88.921511 -81.444168 
L 87.365341 -78.31835 
L 85.809171 -77.606875 
L 84.253 -80.081757 
L 82.69683 -84.295182 
L 81.14066 -88.03261 
L 79.58449 -90.222938 
z
" style="stroke: #3d3d3d; stroke-width: 1.25"/>
    </defs>
    <g clip-path="url(#pdfc662a2c9)">
     <use xlink:href="#m5e2d488e5b" x="0" y="339.01" style="fill: #d684bd; stroke: #3d3d3d; stroke-width: 1.25"/>
    </g>
   </g>
   <g id="PolyCollection_8">
    <defs>
     <path id="maaac2edc05" d="M 79.537701 -55.796503 
L 79.537701 -57.837247 
L 79.934975 -58.174053 
L 80.332249 -58.59166 
L 80.729523 -59.098844 
L 81.126797 -59.701942 
L 81.524071 -60.403732 
L 81.921345 -61.202351 
L 82.318619 -62.090392 
L 82.715893 -63.054295 
L 83.113167 -64.074174 
L 83.510442 -65.124171 
L 83.907716 -66.173373 
L 84.30499 -67.187294 
L 84.702264 -68.129809 
L 85.099538 -68.965404 
L 85.496812 -69.661544 
L 85.894086 -70.190903 
L 86.29136 -70.533264 
L 86.688634 -70.676875 
L 87.085908 -70.619133 
L 87.483182 -70.366552 
L 87.880457 -69.934027 
L 88.277731 -69.34351 
L 88.675005 -68.622252 
L 89.072279 -67.800804 
L 89.469553 -66.910983 
L 89.866827 -65.983978 
L 90.264101 -65.048745 
L 90.661375 -64.130767 
L 91.058649 -63.251243 
L 91.455923 -62.42668 
L 91.853197 -61.668855 
L 92.250472 -60.985073 
L 92.647746 -60.378653 
L 93.04502 -59.849561 
L 93.442294 -59.395105 
L 93.839568 -59.01066 
L 94.236842 -58.69034 
L 94.634116 -58.427609 
L 95.03139 -58.215786 
L 95.428664 -58.048432 
L 95.825938 -57.919625 
L 96.223213 -57.824094 
L 96.620487 -57.757257 
L 97.017761 -57.715165 
L 97.415035 -57.694368 
L 97.812309 -57.691762 
L 98.209583 -57.704414 
L 98.606857 -57.729427 
L 99.004131 -57.763838 
L 99.401405 -57.80458 
L 99.798679 -57.848514 
L 100.195953 -57.892506 
L 100.593228 -57.933552 
L 100.990502 -57.968917 
L 101.387776 -57.996276 
L 101.78505 -58.013822 
L 102.182324 -58.020346 
L 102.579598 -58.015256 
L 102.976872 -57.998563 
L 103.374146 -57.970816 
L 103.77142 -57.933018 
L 104.168694 -57.886527 
L 104.565968 -57.832955 
L 104.963243 -57.77408 
L 105.360517 -57.711771 
L 105.757791 -57.647928 
L 106.155065 -57.58443 
L 106.552339 -57.523093 
L 106.949613 -57.465619 
L 107.346887 -57.413539 
L 107.744161 -57.368156 
L 108.141435 -57.33047 
L 108.538709 -57.301114 
L 108.935983 -57.280299 
L 109.333258 -57.267768 
L 109.730532 -57.262797 
L 110.127806 -57.264217 
L 110.52508 -57.270476 
L 110.922354 -57.279742 
L 111.319628 -57.29003 
L 111.716902 -57.299347 
L 112.114176 -57.30584 
L 112.51145 -57.307932 
L 112.908724 -57.30444 
L 113.305998 -57.294644 
L 113.703273 -57.278323 
L 114.100547 -57.255743 
L 114.497821 -57.2276 
L 114.895095 -57.194932 
L 115.292369 -57.159011 
L 115.689643 -57.121218 
L 116.086917 -57.08293 
L 116.484191 -57.045418 
L 116.881465 -57.009766 
L 117.278739 -56.976822 
L 117.676013 -56.947173 
L 118.073288 -56.921151 
L 118.470562 -56.898854 
L 118.867836 -56.880187 
L 118.867836 -56.753563 
L 118.867836 -56.753563 
L 118.470562 -56.734896 
L 118.073288 -56.712599 
L 117.676013 -56.686577 
L 117.278739 -56.656928 
L 116.881465 -56.623984 
L 116.484191 -56.588332 
L 116.086917 -56.55082 
L 115.689643 -56.512532 
L 115.292369 -56.474739 
L 114.895095 -56.438818 
L 114.497821 -56.40615 
L 114.100547 -56.378007 
L 113.703273 -56.355427 
L 113.305998 -56.339106 
L 112.908724 -56.32931 
L 112.51145 -56.325818 
L 112.114176 -56.32791 
L 111.716902 -56.334403 
L 111.319628 -56.34372 
L 110.922354 -56.354008 
L 110.52508 -56.363274 
L 110.127806 -56.369533 
L 109.730532 -56.370953 
L 109.333258 -56.365982 
L 108.935983 -56.353451 
L 108.538709 -56.332636 
L 108.141435 -56.30328 
L 107.744161 -56.265594 
L 107.346887 -56.220211 
L 106.949613 -56.168131 
L 106.552339 -56.110657 
L 106.155065 -56.04932 
L 105.757791 -55.985822 
L 105.360517 -55.921979 
L 104.963243 -55.85967 
L 104.565968 -55.800795 
L 104.168694 -55.747223 
L 103.77142 -55.700732 
L 103.374146 -55.662934 
L 102.976872 -55.635187 
L 102.579598 -55.618494 
L 102.182324 -55.613404 
L 101.78505 -55.619928 
L 101.387776 -55.637474 
L 100.990502 -55.664833 
L 100.593228 -55.700198 
L 100.195953 -55.741244 
L 99.798679 -55.785236 
L 99.401405 -55.82917 
L 99.004131 -55.869912 
L 98.606857 -55.904323 
L 98.209583 -55.929336 
L 97.812309 -55.941988 
L 97.415035 -55.939382 
L 97.017761 -55.918585 
L 96.620487 -55.876493 
L 96.223213 -55.809656 
L 95.825938 -55.714125 
L 95.428664 -55.585318 
L 95.03139 -55.417964 
L 94.634116 -55.206141 
L 94.236842 -54.94341 
L 93.839568 -54.62309 
L 93.442294 -54.238645 
L 93.04502 -53.784189 
L 92.647746 -53.255097 
L 92.250472 -52.648677 
L 91.853197 -51.964895 
L 91.455923 -51.20707 
L 91.058649 -50.382507 
L 90.661375 -49.502983 
L 90.264101 -48.585005 
L 89.866827 -47.649772 
L 89.469553 -46.722767 
L 89.072279 -45.832946 
L 88.675005 -45.011498 
L 88.277731 -44.29024 
L 87.880457 -43.699723 
L 87.483182 -43.267198 
L 87.085908 -43.014617 
L 86.688634 -42.956875 
L 86.29136 -43.100486 
L 85.894086 -43.442847 
L 85.496812 -43.972206 
L 85.099538 -44.668346 
L 84.702264 -45.503941 
L 84.30499 -46.446456 
L 83.907716 -47.460377 
L 83.510442 -48.509579 
L 83.113167 -49.559576 
L 82.715893 -50.579455 
L 82.318619 -51.543358 
L 81.921345 -52.431399 
L 81.524071 -53.230018 
L 81.126797 -53.931808 
L 80.729523 -54.534906 
L 80.332249 -55.04209 
L 79.934975 -55.459697 
L 79.537701 -55.796503 
z
" style="stroke: #3d3d3d; stroke-width: 1.25"/>
    </defs>
    <g clip-path="url(#pdfc662a2c9)">
     <use xlink:href="#maaac2edc05" x="0" y="339.01" style="fill: #7f7f7f; stroke: #3d3d3d; stroke-width: 1.25"/>
    </g>
   </g>
   <g id="matplotlib.axis_1">
    <g id="xtick_1">
     <g id="line2d_1">
      <defs>
       <path id="m1012246355" d="M 0 0 
L 0 3.5 
" style="stroke: #000000; stroke-width: 0.8"/>
      </defs>
      <g>
       <use xlink:href="#m1012246355" x="85.354334" y="299.518125" style="stroke: #000000; stroke-width: 0.8"/>
      </g>
     </g>
     <g id="text_1">
      <!-- 0 -->
      <g transform="translate(82.173084 314.116563) scale(0.1 -0.1)">
       <defs>
        <path id="DejaVuSans-30" d="M 2034 4250 
Q 1547 4250 1301 3770 
Q 1056 3291 1056 2328 
Q 1056 1369 1301 889 
Q 1547 409 2034 409 
Q 2525 409 2770 889 
Q 3016 1369 3016 2328 
Q 3016 3291 2770 3770 
Q 2525 4250 2034 4250 
z
M 2034 4750 
Q 2819 4750 3233 4129 
Q 3647 3509 3647 2328 
Q 3647 1150 3233 529 
Q 2819 -91 2034 -91 
Q 1250 -91 836 529 
Q 422 1150 422 2328 
Q 422 3509 836 4129 
Q 1250 4750 2034 4750 
z
" transform="scale(0.015625)"/>
       </defs>
       <use xlink:href="#DejaVuSans-30"/>
      </g>
     </g>
    </g>
    <g id="xtick_2">
     <g id="line2d_2">
      <g>
       <use xlink:href="#m1012246355" x="150.615568" y="299.518125" style="stroke: #000000; stroke-width: 0.8"/>
      </g>
     </g>
     <g id="text_2">
      <!-- 10000 -->
      <g transform="translate(134.709318 314.116563) scale(0.1 -0.1)">
       <defs>
        <path id="DejaVuSans-31" d="M 794 531 
L 1825 531 
L 1825 4091 
L 703 3866 
L 703 4441 
L 1819 4666 
L 2450 4666 
L 2450 531 
L 3481 531 
L 3481 0 
L 794 0 
L 794 531 
z
" transform="scale(0.015625)"/>
       </defs>
       <use xlink:href="#DejaVuSans-31"/>
       <use xlink:href="#DejaVuSans-30" x="63.623047"/>
       <use xlink:href="#DejaVuSans-30" x="127.246094"/>
       <use xlink:href="#DejaVuSans-30" x="190.869141"/>
       <use xlink:href="#DejaVuSans-30" x="254.492188"/>
      </g>
     </g>
    </g>
    <g id="xtick_3">
     <g id="line2d_3">
      <g>
       <use xlink:href="#m1012246355" x="215.876802" y="299.518125" style="stroke: #000000; stroke-width: 0.8"/>
      </g>
     </g>
     <g id="text_3">
      <!-- 20000 -->
      <g transform="translate(199.970552 314.116563) scale(0.1 -0.1)">
       <defs>
        <path id="DejaVuSans-32" d="M 1228 531 
L 3431 531 
L 3431 0 
L 469 0 
L 469 531 
Q 828 903 1448 1529 
Q 2069 2156 2228 2338 
Q 2531 2678 2651 2914 
Q 2772 3150 2772 3378 
Q 2772 3750 2511 3984 
Q 2250 4219 1831 4219 
Q 1534 4219 1204 4116 
Q 875 4013 500 3803 
L 500 4441 
Q 881 4594 1212 4672 
Q 1544 4750 1819 4750 
Q 2544 4750 2975 4387 
Q 3406 4025 3406 3419 
Q 3406 3131 3298 2873 
Q 3191 2616 2906 2266 
Q 2828 2175 2409 1742 
Q 1991 1309 1228 531 
z
" transform="scale(0.015625)"/>
       </defs>
       <use xlink:href="#DejaVuSans-32"/>
       <use xlink:href="#DejaVuSans-30" x="63.623047"/>
       <use xlink:href="#DejaVuSans-30" x="127.246094"/>
       <use xlink:href="#DejaVuSans-30" x="190.869141"/>
       <use xlink:href="#DejaVuSans-30" x="254.492188"/>
      </g>
     </g>
    </g>
    <g id="xtick_4">
     <g id="line2d_4">
      <g>
       <use xlink:href="#m1012246355" x="281.138037" y="299.518125" style="stroke: #000000; stroke-width: 0.8"/>
      </g>
     </g>
     <g id="text_4">
      <!-- 30000 -->
      <g transform="translate(265.231787 314.116563) scale(0.1 -0.1)">
       <defs>
        <path id="DejaVuSans-33" d="M 2597 2516 
Q 3050 2419 3304 2112 
Q 3559 1806 3559 1356 
Q 3559 666 3084 287 
Q 2609 -91 1734 -91 
Q 1441 -91 1130 -33 
Q 819 25 488 141 
L 488 750 
Q 750 597 1062 519 
Q 1375 441 1716 441 
Q 2309 441 2620 675 
Q 2931 909 2931 1356 
Q 2931 1769 2642 2001 
Q 2353 2234 1838 2234 
L 1294 2234 
L 1294 2753 
L 1863 2753 
Q 2328 2753 2575 2939 
Q 2822 3125 2822 3475 
Q 2822 3834 2567 4026 
Q 2313 4219 1838 4219 
Q 1578 4219 1281 4162 
Q 984 4106 628 3988 
L 628 4550 
Q 988 4650 1302 4700 
Q 1616 4750 1894 4750 
Q 2613 4750 3031 4423 
Q 3450 4097 3450 3541 
Q 3450 3153 3228 2886 
Q 3006 2619 2597 2516 
z
" transform="scale(0.015625)"/>
       </defs>
       <use xlink:href="#DejaVuSans-33"/>
       <use xlink:href="#DejaVuSans-30" x="63.623047"/>
       <use xlink:href="#DejaVuSans-30" x="127.246094"/>
       <use xlink:href="#DejaVuSans-30" x="190.869141"/>
       <use xlink:href="#DejaVuSans-30" x="254.492188"/>
      </g>
     </g>
    </g>
    <g id="xtick_5">
     <g id="line2d_5">
      <g>
       <use xlink:href="#m1012246355" x="346.399271" y="299.518125" style="stroke: #000000; stroke-width: 0.8"/>
      </g>
     </g>
     <g id="text_5">
      <!-- 40000 -->
      <g transform="translate(330.493021 314.116563) scale(0.1 -0.1)">
       <defs>
        <path id="DejaVuSans-34" d="M 2419 4116 
L 825 1625 
L 2419 1625 
L 2419 4116 
z
M 2253 4666 
L 3047 4666 
L 3047 1625 
L 3713 1625 
L 3713 1100 
L 3047 1100 
L 3047 0 
L 2419 0 
L 2419 1100 
L 313 1100 
L 313 1709 
L 2253 4666 
z
" transform="scale(0.015625)"/>
       </defs>
       <use xlink:href="#DejaVuSans-34"/>
       <use xlink:href="#DejaVuSans-30" x="63.623047"/>
       <use xlink:href="#DejaVuSans-30" x="127.246094"/>
       <use xlink:href="#DejaVuSans-30" x="190.869141"/>
       <use xlink:href="#DejaVuSans-30" x="254.492188"/>
      </g>
     </g>
    </g>
    <g id="xtick_6">
     <g id="line2d_6">
      <g>
       <use xlink:href="#m1012246355" x="411.660505" y="299.518125" style="stroke: #000000; stroke-width: 0.8"/>
      </g>
     </g>
     <g id="text_6">
      <!-- 50000 -->
      <g transform="translate(395.754255 314.116563) scale(0.1 -0.1)">
       <defs>
        <path id="DejaVuSans-35" d="M 691 4666 
L 3169 4666 
L 3169 4134 
L 1269 4134 
L 1269 2991 
Q 1406 3038 1543 3061 
Q 1681 3084 1819 3084 
Q 2600 3084 3056 2656 
Q 3513 2228 3513 1497 
Q 3513 744 3044 326 
Q 2575 -91 1722 -91 
Q 1428 -91 1123 -41 
Q 819 9 494 109 
L 494 744 
Q 775 591 1075 516 
Q 1375 441 1709 441 
Q 2250 441 2565 725 
Q 2881 1009 2881 1497 
Q 2881 1984 2565 2268 
Q 2250 2553 1709 2553 
Q 1456 2553 1204 2497 
Q 953 2441 691 2322 
L 691 4666 
z
" transform="scale(0.015625)"/>
       </defs>
       <use xlink:href="#DejaVuSans-35"/>
       <use xlink:href="#DejaVuSans-30" x="63.623047"/>
       <use xlink:href="#DejaVuSans-30" x="127.246094"/>
       <use xlink:href="#DejaVuSans-30" x="190.869141"/>
       <use xlink:href="#DejaVuSans-30" x="254.492188"/>
      </g>
     </g>
    </g>
    <g id="xtick_7">
     <g id="line2d_7">
      <g>
       <use xlink:href="#m1012246355" x="476.921739" y="299.518125" style="stroke: #000000; stroke-width: 0.8"/>
      </g>
     </g>
     <g id="text_7">
      <!-- 60000 -->
      <g transform="translate(461.015489 314.116563) scale(0.1 -0.1)">
       <defs>
        <path id="DejaVuSans-36" d="M 2113 2584 
Q 1688 2584 1439 2293 
Q 1191 2003 1191 1497 
Q 1191 994 1439 701 
Q 1688 409 2113 409 
Q 2538 409 2786 701 
Q 3034 994 3034 1497 
Q 3034 2003 2786 2293 
Q 2538 2584 2113 2584 
z
M 3366 4563 
L 3366 3988 
Q 3128 4100 2886 4159 
Q 2644 4219 2406 4219 
Q 1781 4219 1451 3797 
Q 1122 3375 1075 2522 
Q 1259 2794 1537 2939 
Q 1816 3084 2150 3084 
Q 2853 3084 3261 2657 
Q 3669 2231 3669 1497 
Q 3669 778 3244 343 
Q 2819 -91 2113 -91 
Q 1303 -91 875 529 
Q 447 1150 447 2328 
Q 447 3434 972 4092 
Q 1497 4750 2381 4750 
Q 2619 4750 2861 4703 
Q 3103 4656 3366 4563 
z
" transform="scale(0.015625)"/>
       </defs>
       <use xlink:href="#DejaVuSans-36"/>
       <use xlink:href="#DejaVuSans-30" x="63.623047"/>
       <use xlink:href="#DejaVuSans-30" x="127.246094"/>
       <use xlink:href="#DejaVuSans-30" x="190.869141"/>
       <use xlink:href="#DejaVuSans-30" x="254.492188"/>
      </g>
     </g>
    </g>
    <g id="text_8">
     <!-- ACR -->
     <g transform="translate(269.835312 329.314375) scale(0.12 -0.12)">
      <defs>
       <path id="DejaVuSans-41" d="M 2188 4044 
L 1331 1722 
L 3047 1722 
L 2188 4044 
z
M 1831 4666 
L 2547 4666 
L 4325 0 
L 3669 0 
L 3244 1197 
L 1141 1197 
L 716 0 
L 50 0 
L 1831 4666 
z
" transform="scale(0.015625)"/>
       <path id="DejaVuSans-43" d="M 4122 4306 
L 4122 3641 
Q 3803 3938 3442 4084 
Q 3081 4231 2675 4231 
Q 1875 4231 1450 3742 
Q 1025 3253 1025 2328 
Q 1025 1406 1450 917 
Q 1875 428 2675 428 
Q 3081 428 3442 575 
Q 3803 722 4122 1019 
L 4122 359 
Q 3791 134 3420 21 
Q 3050 -91 2638 -91 
Q 1578 -91 968 557 
Q 359 1206 359 2328 
Q 359 3453 968 4101 
Q 1578 4750 2638 4750 
Q 3056 4750 3426 4639 
Q 3797 4528 4122 4306 
z
" transform="scale(0.015625)"/>
       <path id="DejaVuSans-52" d="M 2841 2188 
Q 3044 2119 3236 1894 
Q 3428 1669 3622 1275 
L 4263 0 
L 3584 0 
L 2988 1197 
Q 2756 1666 2539 1819 
Q 2322 1972 1947 1972 
L 1259 1972 
L 1259 0 
L 628 0 
L 628 4666 
L 2053 4666 
Q 2853 4666 3247 4331 
Q 3641 3997 3641 3322 
Q 3641 2881 3436 2590 
Q 3231 2300 2841 2188 
z
M 1259 4147 
L 1259 2491 
L 2053 2491 
Q 2509 2491 2742 2702 
Q 2975 2913 2975 3322 
Q 2975 3731 2742 3939 
Q 2509 4147 2053 4147 
L 1259 4147 
z
" transform="scale(0.015625)"/>
      </defs>
      <use xlink:href="#DejaVuSans-41"/>
      <use xlink:href="#DejaVuSans-43" x="66.658203"/>
      <use xlink:href="#DejaVuSans-52" x="136.482422"/>
     </g>
    </g>
   </g>
   <g id="matplotlib.axis_2">
    <g id="ytick_1">
     <g id="line2d_8">
      <defs>
       <path id="m634f65114f" d="M 0 0 
L -3.5 0 
" style="stroke: #000000; stroke-width: 0.8"/>
      </defs>
      <g>
       <use xlink:href="#m634f65114f" x="58.993437" y="39.643125" style="stroke: #000000; stroke-width: 0.8"/>
      </g>
     </g>
     <g id="text_9">
      <!-- 60-69 -->
      <g transform="translate(22.935625 43.442344) scale(0.1 -0.1)">
       <defs>
        <path id="DejaVuSans-2d" d="M 313 2009 
L 1997 2009 
L 1997 1497 
L 313 1497 
L 313 2009 
z
" transform="scale(0.015625)"/>
        <path id="DejaVuSans-39" d="M 703 97 
L 703 672 
Q 941 559 1184 500 
Q 1428 441 1663 441 
Q 2288 441 2617 861 
Q 2947 1281 2994 2138 
Q 2813 1869 2534 1725 
Q 2256 1581 1919 1581 
Q 1219 1581 811 2004 
Q 403 2428 403 3163 
Q 403 3881 828 4315 
Q 1253 4750 1959 4750 
Q 2769 4750 3195 4129 
Q 3622 3509 3622 2328 
Q 3622 1225 3098 567 
Q 2575 -91 1691 -91 
Q 1453 -91 1209 -44 
Q 966 3 703 97 
z
M 1959 2075 
Q 2384 2075 2632 2365 
Q 2881 2656 2881 3163 
Q 2881 3666 2632 3958 
Q 2384 4250 1959 4250 
Q 1534 4250 1286 3958 
Q 1038 3666 1038 3163 
Q 1038 2656 1286 2365 
Q 1534 2075 1959 2075 
z
" transform="scale(0.015625)"/>
       </defs>
       <use xlink:href="#DejaVuSans-36"/>
       <use xlink:href="#DejaVuSans-30" x="63.623047"/>
       <use xlink:href="#DejaVuSans-2d" x="127.246094"/>
       <use xlink:href="#DejaVuSans-36" x="163.330078"/>
       <use xlink:href="#DejaVuSans-39" x="226.953125"/>
      </g>
     </g>
    </g>
    <g id="ytick_2">
     <g id="line2d_9">
      <g>
       <use xlink:href="#m634f65114f" x="58.993437" y="74.293125" style="stroke: #000000; stroke-width: 0.8"/>
      </g>
     </g>
     <g id="text_10">
      <!-- 30-39 -->
      <g transform="translate(22.935625 78.092344) scale(0.1 -0.1)">
       <use xlink:href="#DejaVuSans-33"/>
       <use xlink:href="#DejaVuSans-30" x="63.623047"/>
       <use xlink:href="#DejaVuSans-2d" x="127.246094"/>
       <use xlink:href="#DejaVuSans-33" x="163.330078"/>
       <use xlink:href="#DejaVuSans-39" x="226.953125"/>
      </g>
     </g>
    </g>
    <g id="ytick_3">
     <g id="line2d_10">
      <g>
       <use xlink:href="#m634f65114f" x="58.993437" y="108.943125" style="stroke: #000000; stroke-width: 0.8"/>
      </g>
     </g>
     <g id="text_11">
      <!-- 50-59 -->
      <g transform="translate(22.935625 112.742344) scale(0.1 -0.1)">
       <use xlink:href="#DejaVuSans-35"/>
       <use xlink:href="#DejaVuSans-30" x="63.623047"/>
       <use xlink:href="#DejaVuSans-2d" x="127.246094"/>
       <use xlink:href="#DejaVuSans-35" x="163.330078"/>
       <use xlink:href="#DejaVuSans-39" x="226.953125"/>
      </g>
     </g>
    </g>
    <g id="ytick_4">
     <g id="line2d_11">
      <g>
       <use xlink:href="#m634f65114f" x="58.993437" y="143.593125" style="stroke: #000000; stroke-width: 0.8"/>
      </g>
     </g>
     <g id="text_12">
      <!-- 70-79 -->
      <g transform="translate(22.935625 147.392344) scale(0.1 -0.1)">
       <defs>
        <path id="DejaVuSans-37" d="M 525 4666 
L 3525 4666 
L 3525 4397 
L 1831 0 
L 1172 0 
L 2766 4134 
L 525 4134 
L 525 4666 
z
" transform="scale(0.015625)"/>
       </defs>
       <use xlink:href="#DejaVuSans-37"/>
       <use xlink:href="#DejaVuSans-30" x="63.623047"/>
       <use xlink:href="#DejaVuSans-2d" x="127.246094"/>
       <use xlink:href="#DejaVuSans-37" x="163.330078"/>
       <use xlink:href="#DejaVuSans-39" x="226.953125"/>
      </g>
     </g>
    </g>
    <g id="ytick_5">
     <g id="line2d_12">
      <g>
       <use xlink:href="#m634f65114f" x="58.993437" y="178.243125" style="stroke: #000000; stroke-width: 0.8"/>
      </g>
     </g>
     <g id="text_13">
      <!-- 40-49 -->
      <g transform="translate(22.935625 182.042344) scale(0.1 -0.1)">
       <use xlink:href="#DejaVuSans-34"/>
       <use xlink:href="#DejaVuSans-30" x="63.623047"/>
       <use xlink:href="#DejaVuSans-2d" x="127.246094"/>
       <use xlink:href="#DejaVuSans-34" x="163.330078"/>
       <use xlink:href="#DejaVuSans-39" x="226.953125"/>
      </g>
     </g>
    </g>
    <g id="ytick_6">
     <g id="line2d_13">
      <g>
       <use xlink:href="#m634f65114f" x="58.993437" y="212.893125" style="stroke: #000000; stroke-width: 0.8"/>
      </g>
     </g>
     <g id="text_14">
      <!-- 18-29 -->
      <g transform="translate(22.935625 216.692344) scale(0.1 -0.1)">
       <defs>
        <path id="DejaVuSans-38" d="M 2034 2216 
Q 1584 2216 1326 1975 
Q 1069 1734 1069 1313 
Q 1069 891 1326 650 
Q 1584 409 2034 409 
Q 2484 409 2743 651 
Q 3003 894 3003 1313 
Q 3003 1734 2745 1975 
Q 2488 2216 2034 2216 
z
M 1403 2484 
Q 997 2584 770 2862 
Q 544 3141 544 3541 
Q 544 4100 942 4425 
Q 1341 4750 2034 4750 
Q 2731 4750 3128 4425 
Q 3525 4100 3525 3541 
Q 3525 3141 3298 2862 
Q 3072 2584 2669 2484 
Q 3125 2378 3379 2068 
Q 3634 1759 3634 1313 
Q 3634 634 3220 271 
Q 2806 -91 2034 -91 
Q 1263 -91 848 271 
Q 434 634 434 1313 
Q 434 1759 690 2068 
Q 947 2378 1403 2484 
z
M 1172 3481 
Q 1172 3119 1398 2916 
Q 1625 2713 2034 2713 
Q 2441 2713 2670 2916 
Q 2900 3119 2900 3481 
Q 2900 3844 2670 4047 
Q 2441 4250 2034 4250 
Q 1625 4250 1398 4047 
Q 1172 3844 1172 3481 
z
" transform="scale(0.015625)"/>
       </defs>
       <use xlink:href="#DejaVuSans-31"/>
       <use xlink:href="#DejaVuSans-38" x="63.623047"/>
       <use xlink:href="#DejaVuSans-2d" x="127.246094"/>
       <use xlink:href="#DejaVuSans-32" x="163.330078"/>
       <use xlink:href="#DejaVuSans-39" x="226.953125"/>
      </g>
     </g>
    </g>
    <g id="ytick_7">
     <g id="line2d_14">
      <g>
       <use xlink:href="#m634f65114f" x="58.993437" y="247.543125" style="stroke: #000000; stroke-width: 0.8"/>
      </g>
     </g>
     <g id="text_15">
      <!-- 80-89 -->
      <g transform="translate(22.935625 251.342344) scale(0.1 -0.1)">
       <use xlink:href="#DejaVuSans-38"/>
       <use xlink:href="#DejaVuSans-30" x="63.623047"/>
       <use xlink:href="#DejaVuSans-2d" x="127.246094"/>
       <use xlink:href="#DejaVuSans-38" x="163.330078"/>
       <use xlink:href="#DejaVuSans-39" x="226.953125"/>
      </g>
     </g>
    </g>
    <g id="ytick_8">
     <g id="line2d_15">
      <g>
       <use xlink:href="#m634f65114f" x="58.993437" y="282.193125" style="stroke: #000000; stroke-width: 0.8"/>
      </g>
     </g>
     <g id="text_16">
      <!-- 90-99 -->
      <g transform="translate(22.935625 285.992344) scale(0.1 -0.1)">
       <use xlink:href="#DejaVuSans-39"/>
       <use xlink:href="#DejaVuSans-30" x="63.623047"/>
       <use xlink:href="#DejaVuSans-2d" x="127.246094"/>
       <use xlink:href="#DejaVuSans-39" x="163.330078"/>
       <use xlink:href="#DejaVuSans-39" x="226.953125"/>
      </g>
     </g>
    </g>
    <g id="text_17">
     <!-- Age_Group -->
     <g transform="translate(16.10625 193.786875) rotate(-90) scale(0.12 -0.12)">
      <defs>
       <path id="DejaVuSans-67" d="M 2906 1791 
Q 2906 2416 2648 2759 
Q 2391 3103 1925 3103 
Q 1463 3103 1205 2759 
Q 947 2416 947 1791 
Q 947 1169 1205 825 
Q 1463 481 1925 481 
Q 2391 481 2648 825 
Q 2906 1169 2906 1791 
z
M 3481 434 
Q 3481 -459 3084 -895 
Q 2688 -1331 1869 -1331 
Q 1566 -1331 1297 -1286 
Q 1028 -1241 775 -1147 
L 775 -588 
Q 1028 -725 1275 -790 
Q 1522 -856 1778 -856 
Q 2344 -856 2625 -561 
Q 2906 -266 2906 331 
L 2906 616 
Q 2728 306 2450 153 
Q 2172 0 1784 0 
Q 1141 0 747 490 
Q 353 981 353 1791 
Q 353 2603 747 3093 
Q 1141 3584 1784 3584 
Q 2172 3584 2450 3431 
Q 2728 3278 2906 2969 
L 2906 3500 
L 3481 3500 
L 3481 434 
z
" transform="scale(0.015625)"/>
       <path id="DejaVuSans-65" d="M 3597 1894 
L 3597 1613 
L 953 1613 
Q 991 1019 1311 708 
Q 1631 397 2203 397 
Q 2534 397 2845 478 
Q 3156 559 3463 722 
L 3463 178 
Q 3153 47 2828 -22 
Q 2503 -91 2169 -91 
Q 1331 -91 842 396 
Q 353 884 353 1716 
Q 353 2575 817 3079 
Q 1281 3584 2069 3584 
Q 2775 3584 3186 3129 
Q 3597 2675 3597 1894 
z
M 3022 2063 
Q 3016 2534 2758 2815 
Q 2500 3097 2075 3097 
Q 1594 3097 1305 2825 
Q 1016 2553 972 2059 
L 3022 2063 
z
" transform="scale(0.015625)"/>
       <path id="DejaVuSans-5f" d="M 3263 -1063 
L 3263 -1509 
L -63 -1509 
L -63 -1063 
L 3263 -1063 
z
" transform="scale(0.015625)"/>
       <path id="DejaVuSans-47" d="M 3809 666 
L 3809 1919 
L 2778 1919 
L 2778 2438 
L 4434 2438 
L 4434 434 
Q 4069 175 3628 42 
Q 3188 -91 2688 -91 
Q 1594 -91 976 548 
Q 359 1188 359 2328 
Q 359 3472 976 4111 
Q 1594 4750 2688 4750 
Q 3144 4750 3555 4637 
Q 3966 4525 4313 4306 
L 4313 3634 
Q 3963 3931 3569 4081 
Q 3175 4231 2741 4231 
Q 1884 4231 1454 3753 
Q 1025 3275 1025 2328 
Q 1025 1384 1454 906 
Q 1884 428 2741 428 
Q 3075 428 3337 486 
Q 3600 544 3809 666 
z
" transform="scale(0.015625)"/>
       <path id="DejaVuSans-72" d="M 2631 2963 
Q 2534 3019 2420 3045 
Q 2306 3072 2169 3072 
Q 1681 3072 1420 2755 
Q 1159 2438 1159 1844 
L 1159 0 
L 581 0 
L 581 3500 
L 1159 3500 
L 1159 2956 
Q 1341 3275 1631 3429 
Q 1922 3584 2338 3584 
Q 2397 3584 2469 3576 
Q 2541 3569 2628 3553 
L 2631 2963 
z
" transform="scale(0.015625)"/>
       <path id="DejaVuSans-6f" d="M 1959 3097 
Q 1497 3097 1228 2736 
Q 959 2375 959 1747 
Q 959 1119 1226 758 
Q 1494 397 1959 397 
Q 2419 397 2687 759 
Q 2956 1122 2956 1747 
Q 2956 2369 2687 2733 
Q 2419 3097 1959 3097 
z
M 1959 3584 
Q 2709 3584 3137 3096 
Q 3566 2609 3566 1747 
Q 3566 888 3137 398 
Q 2709 -91 1959 -91 
Q 1206 -91 779 398 
Q 353 888 353 1747 
Q 353 2609 779 3096 
Q 1206 3584 1959 3584 
z
" transform="scale(0.015625)"/>
       <path id="DejaVuSans-75" d="M 544 1381 
L 544 3500 
L 1119 3500 
L 1119 1403 
Q 1119 906 1312 657 
Q 1506 409 1894 409 
Q 2359 409 2629 706 
Q 2900 1003 2900 1516 
L 2900 3500 
L 3475 3500 
L 3475 0 
L 2900 0 
L 2900 538 
Q 2691 219 2414 64 
Q 2138 -91 1772 -91 
Q 1169 -91 856 284 
Q 544 659 544 1381 
z
M 1991 3584 
L 1991 3584 
z
" transform="scale(0.015625)"/>
       <path id="DejaVuSans-70" d="M 1159 525 
L 1159 -1331 
L 581 -1331 
L 581 3500 
L 1159 3500 
L 1159 2969 
Q 1341 3281 1617 3432 
Q 1894 3584 2278 3584 
Q 2916 3584 3314 3078 
Q 3713 2572 3713 1747 
Q 3713 922 3314 415 
Q 2916 -91 2278 -91 
Q 1894 -91 1617 61 
Q 1341 213 1159 525 
z
M 3116 1747 
Q 3116 2381 2855 2742 
Q 2594 3103 2138 3103 
Q 1681 3103 1420 2742 
Q 1159 2381 1159 1747 
Q 1159 1113 1420 752 
Q 1681 391 2138 391 
Q 2594 391 2855 752 
Q 3116 1113 3116 1747 
z
" transform="scale(0.015625)"/>
      </defs>
      <use xlink:href="#DejaVuSans-41"/>
      <use xlink:href="#DejaVuSans-67" x="68.408203"/>
      <use xlink:href="#DejaVuSans-65" x="131.884766"/>
      <use xlink:href="#DejaVuSans-5f" x="193.408203"/>
      <use xlink:href="#DejaVuSans-47" x="243.408203"/>
      <use xlink:href="#DejaVuSans-72" x="320.898438"/>
      <use xlink:href="#DejaVuSans-6f" x="359.761719"/>
      <use xlink:href="#DejaVuSans-75" x="420.943359"/>
      <use xlink:href="#DejaVuSans-70" x="484.322266"/>
     </g>
    </g>
   </g>
   <g id="line2d_16">
    <path d="M 85.354334 39.643125 
L 97.176042 39.643125 
" clip-path="url(#pdfc662a2c9)" style="fill: none; stroke: #3d3d3d; stroke-width: 1.875; stroke-linecap: square"/>
   </g>
   <g id="line2d_17">
    <path d="M 85.543223 39.643125 
L 90.20009 39.643125 
" clip-path="url(#pdfc662a2c9)" style="fill: none; stroke: #3d3d3d; stroke-width: 5.625; stroke-linecap: square"/>
   </g>
   <g id="line2d_18">
    <path d="M 86.233765 39.643125 
" clip-path="url(#pdfc662a2c9)" style="fill: none; stroke: #3d3d3d; stroke-width: 1.5; stroke-linecap: square"/>
    <defs>
     <path id="mf2f496dd62" d="M 0 2.34375 
L 0 -2.34375 
" style="stroke: #ffffff; stroke-width: 1.125"/>
    </defs>
    <g clip-path="url(#pdfc662a2c9)">
     <use xlink:href="#mf2f496dd62" x="86.233765" y="39.643125" style="fill: #ffffff; stroke: #ffffff; stroke-width: 1.125"/>
    </g>
   </g>
   <g id="line2d_19">
    <path d="M 85.354334 74.293125 
L 95.972337 74.293125 
" clip-path="url(#pdfc662a2c9)" style="fill: none; stroke: #3d3d3d; stroke-width: 1.875; stroke-linecap: square"/>
   </g>
   <g id="line2d_20">
    <path d="M 85.510961 74.293125 
L 89.745929 74.293125 
" clip-path="url(#pdfc662a2c9)" style="fill: none; stroke: #3d3d3d; stroke-width: 5.625; stroke-linecap: square"/>
   </g>
   <g id="line2d_21">
    <path d="M 86.305971 74.293125 
" clip-path="url(#pdfc662a2c9)" style="fill: none; stroke: #3d3d3d; stroke-width: 1.5; stroke-linecap: square"/>
    <g clip-path="url(#pdfc662a2c9)">
     <use xlink:href="#mf2f496dd62" x="86.305971" y="74.293125" style="fill: #ffffff; stroke: #ffffff; stroke-width: 1.125"/>
    </g>
   </g>
   <g id="line2d_22">
    <path d="M 85.354334 108.943125 
L 98.217418 108.943125 
" clip-path="url(#pdfc662a2c9)" style="fill: none; stroke: #3d3d3d; stroke-width: 1.875; stroke-linecap: square"/>
   </g>
   <g id="line2d_23">
    <path d="M 85.517487 108.943125 
L 90.601338 108.943125 
" clip-path="url(#pdfc662a2c9)" style="fill: none; stroke: #3d3d3d; stroke-width: 5.625; stroke-linecap: square"/>
   </g>
   <g id="line2d_24">
    <path d="M 86.219845 108.943125 
" clip-path="url(#pdfc662a2c9)" style="fill: none; stroke: #3d3d3d; stroke-width: 1.5; stroke-linecap: square"/>
    <g clip-path="url(#pdfc662a2c9)">
     <use xlink:href="#mf2f496dd62" x="86.219845" y="108.943125" style="fill: #ffffff; stroke: #ffffff; stroke-width: 1.125"/>
    </g>
   </g>
   <g id="line2d_25">
    <path d="M 85.354334 143.593125 
L 92.769267 143.593125 
" clip-path="url(#pdfc662a2c9)" style="fill: none; stroke: #3d3d3d; stroke-width: 1.875; stroke-linecap: square"/>
   </g>
   <g id="line2d_26">
    <path d="M 85.53054 143.593125 
L 88.431098 143.593125 
" clip-path="url(#pdfc662a2c9)" style="fill: none; stroke: #3d3d3d; stroke-width: 5.625; stroke-linecap: square"/>
   </g>
   <g id="line2d_27">
    <path d="M 85.949897 143.593125 
" clip-path="url(#pdfc662a2c9)" style="fill: none; stroke: #3d3d3d; stroke-width: 1.5; stroke-linecap: square"/>
    <g clip-path="url(#pdfc662a2c9)">
     <use xlink:href="#mf2f496dd62" x="85.949897" y="143.593125" style="fill: #ffffff; stroke: #ffffff; stroke-width: 1.125"/>
    </g>
   </g>
   <g id="line2d_28">
    <path d="M 85.354334 178.243125 
L 96.881264 178.243125 
" clip-path="url(#pdfc662a2c9)" style="fill: none; stroke: #3d3d3d; stroke-width: 1.875; stroke-linecap: square"/>
   </g>
   <g id="line2d_29">
    <path d="M 85.504753 178.243125 
L 90.059669 178.243125 
" clip-path="url(#pdfc662a2c9)" style="fill: none; stroke: #3d3d3d; stroke-width: 5.625; stroke-linecap: square"/>
   </g>
   <g id="line2d_30">
    <path d="M 86.183152 178.243125 
" clip-path="url(#pdfc662a2c9)" style="fill: none; stroke: #3d3d3d; stroke-width: 1.5; stroke-linecap: square"/>
    <g clip-path="url(#pdfc662a2c9)">
     <use xlink:href="#mf2f496dd62" x="86.183152" y="178.243125" style="fill: #ffffff; stroke: #ffffff; stroke-width: 1.125"/>
    </g>
   </g>
   <g id="line2d_31">
    <path d="M 85.354334 212.893125 
L 93.452562 212.893125 
" clip-path="url(#pdfc662a2c9)" style="fill: none; stroke: #3d3d3d; stroke-width: 1.875; stroke-linecap: square"/>
   </g>
   <g id="line2d_32">
    <path d="M 85.4821 212.893125 
L 88.679551 212.893125 
" clip-path="url(#pdfc662a2c9)" style="fill: none; stroke: #3d3d3d; stroke-width: 5.625; stroke-linecap: square"/>
   </g>
   <g id="line2d_33">
    <path d="M 86.038557 212.893125 
" clip-path="url(#pdfc662a2c9)" style="fill: none; stroke: #3d3d3d; stroke-width: 1.5; stroke-linecap: square"/>
    <g clip-path="url(#pdfc662a2c9)">
     <use xlink:href="#mf2f496dd62" x="86.038557" y="212.893125" style="fill: #ffffff; stroke: #ffffff; stroke-width: 1.125"/>
    </g>
   </g>
   <g id="line2d_34">
    <path d="M 85.354334 247.543125 
L 92.61791 247.543125 
" clip-path="url(#pdfc662a2c9)" style="fill: none; stroke: #3d3d3d; stroke-width: 1.875; stroke-linecap: square"/>
   </g>
   <g id="line2d_35">
    <path d="M 85.556644 247.543125 
L 88.400203 247.543125 
" clip-path="url(#pdfc662a2c9)" style="fill: none; stroke: #3d3d3d; stroke-width: 5.625; stroke-linecap: square"/>
   </g>
   <g id="line2d_36">
    <path d="M 86.063515 247.543125 
" clip-path="url(#pdfc662a2c9)" style="fill: none; stroke: #3d3d3d; stroke-width: 1.5; stroke-linecap: square"/>
    <g clip-path="url(#pdfc662a2c9)">
     <use xlink:href="#mf2f496dd62" x="86.063515" y="247.543125" style="fill: #ffffff; stroke: #ffffff; stroke-width: 1.125"/>
    </g>
   </g>
   <g id="line2d_37">
    <path d="M 85.484857 282.193125 
L 91.01225 282.193125 
" clip-path="url(#pdfc662a2c9)" style="fill: none; stroke: #3d3d3d; stroke-width: 1.875; stroke-linecap: square"/>
   </g>
   <g id="line2d_38">
    <path d="M 85.939963 282.193125 
L 89.136848 282.193125 
" clip-path="url(#pdfc662a2c9)" style="fill: none; stroke: #3d3d3d; stroke-width: 5.625; stroke-linecap: square"/>
   </g>
   <g id="line2d_39">
    <path d="M 86.730753 282.193125 
" clip-path="url(#pdfc662a2c9)" style="fill: none; stroke: #3d3d3d; stroke-width: 1.5; stroke-linecap: square"/>
    <g clip-path="url(#pdfc662a2c9)">
     <use xlink:href="#mf2f496dd62" x="86.730753" y="282.193125" style="fill: #ffffff; stroke: #ffffff; stroke-width: 1.125"/>
    </g>
   </g>
   <g id="patch_3">
    <path d="M 58.993437 299.518125 
L 58.993437 22.318125 
" style="fill: none; stroke: #000000; stroke-width: 0.8; stroke-linejoin: miter; stroke-linecap: square"/>
   </g>
   <g id="patch_4">
    <path d="M 505.393438 299.518125 
L 505.393438 22.318125 
" style="fill: none; stroke: #000000; stroke-width: 0.8; stroke-linejoin: miter; stroke-linecap: square"/>
   </g>
   <g id="patch_5">
    <path d="M 58.993437 299.518125 
L 505.393438 299.518125 
" style="fill: none; stroke: #000000; stroke-width: 0.8; stroke-linejoin: miter; stroke-linecap: square"/>
   </g>
   <g id="patch_6">
    <path d="M 58.993437 22.318125 
L 505.393438 22.318125 
" style="fill: none; stroke: #000000; stroke-width: 0.8; stroke-linejoin: miter; stroke-linecap: square"/>
   </g>
   <g id="text_18">
    <!-- Distribution of ACR by Age_Group -->
    <g transform="translate(181.192812 16.318125) scale(0.12 -0.12)">
     <defs>
      <path id="DejaVuSans-44" d="M 1259 4147 
L 1259 519 
L 2022 519 
Q 2988 519 3436 956 
Q 3884 1394 3884 2338 
Q 3884 3275 3436 3711 
Q 2988 4147 2022 4147 
L 1259 4147 
z
M 628 4666 
L 1925 4666 
Q 3281 4666 3915 4102 
Q 4550 3538 4550 2338 
Q 4550 1131 3912 565 
Q 3275 0 1925 0 
L 628 0 
L 628 4666 
z
" transform="scale(0.015625)"/>
      <path id="DejaVuSans-69" d="M 603 3500 
L 1178 3500 
L 1178 0 
L 603 0 
L 603 3500 
z
M 603 4863 
L 1178 4863 
L 1178 4134 
L 603 4134 
L 603 4863 
z
" transform="scale(0.015625)"/>
      <path id="DejaVuSans-73" d="M 2834 3397 
L 2834 2853 
Q 2591 2978 2328 3040 
Q 2066 3103 1784 3103 
Q 1356 3103 1142 2972 
Q 928 2841 928 2578 
Q 928 2378 1081 2264 
Q 1234 2150 1697 2047 
L 1894 2003 
Q 2506 1872 2764 1633 
Q 3022 1394 3022 966 
Q 3022 478 2636 193 
Q 2250 -91 1575 -91 
Q 1294 -91 989 -36 
Q 684 19 347 128 
L 347 722 
Q 666 556 975 473 
Q 1284 391 1588 391 
Q 1994 391 2212 530 
Q 2431 669 2431 922 
Q 2431 1156 2273 1281 
Q 2116 1406 1581 1522 
L 1381 1569 
Q 847 1681 609 1914 
Q 372 2147 372 2553 
Q 372 3047 722 3315 
Q 1072 3584 1716 3584 
Q 2034 3584 2315 3537 
Q 2597 3491 2834 3397 
z
" transform="scale(0.015625)"/>
      <path id="DejaVuSans-74" d="M 1172 4494 
L 1172 3500 
L 2356 3500 
L 2356 3053 
L 1172 3053 
L 1172 1153 
Q 1172 725 1289 603 
Q 1406 481 1766 481 
L 2356 481 
L 2356 0 
L 1766 0 
Q 1100 0 847 248 
Q 594 497 594 1153 
L 594 3053 
L 172 3053 
L 172 3500 
L 594 3500 
L 594 4494 
L 1172 4494 
z
" transform="scale(0.015625)"/>
      <path id="DejaVuSans-62" d="M 3116 1747 
Q 3116 2381 2855 2742 
Q 2594 3103 2138 3103 
Q 1681 3103 1420 2742 
Q 1159 2381 1159 1747 
Q 1159 1113 1420 752 
Q 1681 391 2138 391 
Q 2594 391 2855 752 
Q 3116 1113 3116 1747 
z
M 1159 2969 
Q 1341 3281 1617 3432 
Q 1894 3584 2278 3584 
Q 2916 3584 3314 3078 
Q 3713 2572 3713 1747 
Q 3713 922 3314 415 
Q 2916 -91 2278 -91 
Q 1894 -91 1617 61 
Q 1341 213 1159 525 
L 1159 0 
L 581 0 
L 581 4863 
L 1159 4863 
L 1159 2969 
z
" transform="scale(0.015625)"/>
      <path id="DejaVuSans-6e" d="M 3513 2113 
L 3513 0 
L 2938 0 
L 2938 2094 
Q 2938 2591 2744 2837 
Q 2550 3084 2163 3084 
Q 1697 3084 1428 2787 
Q 1159 2491 1159 1978 
L 1159 0 
L 581 0 
L 581 3500 
L 1159 3500 
L 1159 2956 
Q 1366 3272 1645 3428 
Q 1925 3584 2291 3584 
Q 2894 3584 3203 3211 
Q 3513 2838 3513 2113 
z
" transform="scale(0.015625)"/>
      <path id="DejaVuSans-20" transform="scale(0.015625)"/>
      <path id="DejaVuSans-66" d="M 2375 4863 
L 2375 4384 
L 1825 4384 
Q 1516 4384 1395 4259 
Q 1275 4134 1275 3809 
L 1275 3500 
L 2222 3500 
L 2222 3053 
L 1275 3053 
L 1275 0 
L 697 0 
L 697 3053 
L 147 3053 
L 147 3500 
L 697 3500 
L 697 3744 
Q 697 4328 969 4595 
Q 1241 4863 1831 4863 
L 2375 4863 
z
" transform="scale(0.015625)"/>
      <path id="DejaVuSans-79" d="M 2059 -325 
Q 1816 -950 1584 -1140 
Q 1353 -1331 966 -1331 
L 506 -1331 
L 506 -850 
L 844 -850 
Q 1081 -850 1212 -737 
Q 1344 -625 1503 -206 
L 1606 56 
L 191 3500 
L 800 3500 
L 1894 763 
L 2988 3500 
L 3597 3500 
L 2059 -325 
z
" transform="scale(0.015625)"/>
     </defs>
     <use xlink:href="#DejaVuSans-44"/>
     <use xlink:href="#DejaVuSans-69" x="77.001953"/>
     <use xlink:href="#DejaVuSans-73" x="104.785156"/>
     <use xlink:href="#DejaVuSans-74" x="156.884766"/>
     <use xlink:href="#DejaVuSans-72" x="196.09375"/>
     <use xlink:href="#DejaVuSans-69" x="237.207031"/>
     <use xlink:href="#DejaVuSans-62" x="264.990234"/>
     <use xlink:href="#DejaVuSans-75" x="328.466797"/>
     <use xlink:href="#DejaVuSans-74" x="391.845703"/>
     <use xlink:href="#DejaVuSans-69" x="431.054688"/>
     <use xlink:href="#DejaVuSans-6f" x="458.837891"/>
     <use xlink:href="#DejaVuSans-6e" x="520.019531"/>
     <use xlink:href="#DejaVuSans-20" x="583.398438"/>
     <use xlink:href="#DejaVuSans-6f" x="615.185547"/>
     <use xlink:href="#DejaVuSans-66" x="676.367188"/>
     <use xlink:href="#DejaVuSans-20" x="711.572266"/>
     <use xlink:href="#DejaVuSans-41" x="743.359375"/>
     <use xlink:href="#DejaVuSans-43" x="810.017578"/>
     <use xlink:href="#DejaVuSans-52" x="879.841797"/>
     <use xlink:href="#DejaVuSans-20" x="949.324219"/>
     <use xlink:href="#DejaVuSans-62" x="981.111328"/>
     <use xlink:href="#DejaVuSans-79" x="1044.587891"/>
     <use xlink:href="#DejaVuSans-20" x="1103.767578"/>
     <use xlink:href="#DejaVuSans-41" x="1135.554688"/>
     <use xlink:href="#DejaVuSans-67" x="1203.962891"/>
     <use xlink:href="#DejaVuSans-65" x="1267.439453"/>
     <use xlink:href="#DejaVuSans-5f" x="1328.962891"/>
     <use xlink:href="#DejaVuSans-47" x="1378.962891"/>
     <use xlink:href="#DejaVuSans-72" x="1456.453125"/>
     <use xlink:href="#DejaVuSans-6f" x="1495.316406"/>
     <use xlink:href="#DejaVuSans-75" x="1556.498047"/>
     <use xlink:href="#DejaVuSans-70" x="1619.876953"/>
    </g>
   </g>
  </g>
 </g>
 <defs>
  <clipPath id="pdfc662a2c9">
   <rect x="58.993437" y="22.318125" width="446.4" height="277.2"/>
  </clipPath>
 </defs>
</svg>
