<?xml version="1.0" encoding="utf-8" standalone="no"?>
<!DOCTYPE svg PUBLIC "-//W3C//DTD SVG 1.1//EN"
  "http://www.w3.org/Graphics/SVG/1.1/DTD/svg11.dtd">
<svg xmlns:xlink="http://www.w3.org/1999/xlink" width="512.593437pt" height="339.01pt" viewBox="0 0 512.593437 339.01" xmlns="http://www.w3.org/2000/svg" version="1.1">
 <metadata>
  <rdf:RDF xmlns:dc="http://purl.org/dc/elements/1.1/" xmlns:cc="http://creativecommons.org/ns#" xmlns:rdf="http://www.w3.org/1999/02/22-rdf-syntax-ns#">
   <cc:Work>
    <dc:type rdf:resource="http://purl.org/dc/dcmitype/StillImage"/>
    <dc:date>2024-08-05T22:53:23.777136</dc:date>
    <dc:format>image/svg+xml</dc:format>
    <dc:creator>
     <cc:Agent>
      <dc:title>Matplotlib v3.9.0, https://matplotlib.org/</dc:title>
     </cc:Agent>
    </dc:creator>
   </cc:Work>
  </rdf:RDF>
 </metadata>
 <defs>
  <style type="text/css">*{stroke-linejoin: round; stroke-linecap: butt}</style>
 </defs>
 <g id="figure_1">
  <g id="patch_1">
   <path d="M 0 339.01 
L 512.593437 339.01 
L 512.593437 0 
L 0 0 
z
" style="fill: #ffffff"/>
  </g>
  <g id="axes_1">
   <g id="patch_2">
    <path d="M 58.993437 299.518125 
L 505.393438 299.518125 
L 505.393438 22.318125 
L 58.993437 22.318125 
z
" style="fill: #ffffff"/>
   </g>
   <g id="PolyCollection_1">
    <defs>
     <path id="mba77a20fc0" d="M 143.454507 -299.36481 
L 143.454507 -299.36894 
L 146.774083 -299.371646 
L 150.093659 -299.376234 
L 153.413235 -299.382686 
L 156.732811 -299.390336 
L 160.052387 -299.398162 
L 163.371963 -299.405225 
L 166.69154 -299.410933 
L 170.011116 -299.415383 
L 173.330692 -299.419843 
L 176.650268 -299.426358 
L 179.969844 -299.435696 
L 183.28942 -299.445641 
L 186.608996 -299.452753 
L 189.928572 -299.45668 
L 193.248149 -299.461886 
L 196.567725 -299.474579 
L 199.887301 -299.499051 
L 203.206877 -299.537714 
L 206.526453 -299.592923 
L 209.846029 -299.665971 
L 213.165605 -299.753114 
L 216.485181 -299.843347 
L 219.804757 -299.922033 
L 223.124334 -299.979139 
L 226.44391 -300.015847 
L 229.763486 -300.043873 
L 233.083062 -300.077874 
L 236.402638 -300.126827 
L 239.722214 -300.190051 
L 243.04179 -300.259236 
L 246.361366 -300.323643 
L 249.680943 -300.374783 
L 253.000519 -300.409015 
L 256.320095 -300.428558 
L 259.639671 -300.441002 
L 262.959247 -300.456426 
L 266.278823 -300.482532 
L 269.598399 -300.520782 
L 272.917975 -300.566693 
L 276.237551 -300.614709 
L 279.557128 -300.664964 
L 282.876704 -300.727563 
L 286.19628 -300.82039 
L 289.515856 -300.959732 
L 292.835432 -301.148928 
L 296.155008 -301.374269 
L 299.474584 -301.61294 
L 302.79416 -301.847111 
L 306.113736 -302.073459 
L 309.433313 -302.303644 
L 312.752889 -302.559019 
L 316.072465 -302.863659 
L 319.392041 -303.237394 
L 322.711617 -303.69105 
L 326.031193 -304.227468 
L 329.350769 -304.848977 
L 332.670345 -305.565251 
L 335.989922 -306.391665 
L 339.309498 -307.333704 
L 342.629074 -308.367008 
L 345.94865 -309.431402 
L 349.268226 -310.447572 
L 352.587802 -311.345041 
L 355.907378 -312.081532 
L 359.226954 -312.642876 
L 362.54653 -313.027309 
L 365.866107 -313.226875 
L 369.185683 -313.21869 
L 372.505259 -312.971385 
L 375.824835 -312.461076 
L 379.144411 -311.684558 
L 382.463987 -310.663085 
L 385.783563 -309.442565 
L 389.103139 -308.09638 
L 392.422716 -306.722479 
L 395.742292 -305.422036 
L 399.061868 -304.267117 
L 402.381444 -303.282537 
L 405.70102 -302.455135 
L 409.020596 -301.758125 
L 412.340172 -301.170702 
L 415.659748 -300.68445 
L 418.979324 -300.299033 
L 422.298901 -300.0128 
L 425.618477 -299.814658 
L 428.938053 -299.683265 
L 432.257629 -299.594314 
L 435.577205 -299.529399 
L 438.896781 -299.479344 
L 442.216357 -299.441435 
L 445.535933 -299.415021 
L 448.85551 -299.398826 
L 452.175086 -299.39021 
L 455.494662 -299.385703 
L 458.814238 -299.382261 
L 462.133814 -299.378422 
L 465.45339 -299.374374 
L 468.772966 -299.370973 
L 472.092542 -299.368738 
L 472.092542 -299.365012 
L 472.092542 -299.365012 
L 468.772966 -299.362777 
L 465.45339 -299.359376 
L 462.133814 -299.355328 
L 458.814238 -299.351489 
L 455.494662 -299.348047 
L 452.175086 -299.34354 
L 448.85551 -299.334924 
L 445.535933 -299.318729 
L 442.216357 -299.292315 
L 438.896781 -299.254406 
L 435.577205 -299.204351 
L 432.257629 -299.139436 
L 428.938053 -299.050485 
L 425.618477 -298.919092 
L 422.298901 -298.72095 
L 418.979324 -298.434717 
L 415.659748 -298.0493 
L 412.340172 -297.563048 
L 409.020596 -296.975625 
L 405.70102 -296.278615 
L 402.381444 -295.451213 
L 399.061868 -294.466633 
L 395.742292 -293.311714 
L 392.422716 -292.011271 
L 389.103139 -290.63737 
L 385.783563 -289.291185 
L 382.463987 -288.070665 
L 379.144411 -287.049192 
L 375.824835 -286.272674 
L 372.505259 -285.762365 
L 369.185683 -285.51506 
L 365.866107 -285.506875 
L 362.54653 -285.706441 
L 359.226954 -286.090874 
L 355.907378 -286.652218 
L 352.587802 -287.388709 
L 349.268226 -288.286178 
L 345.94865 -289.302348 
L 342.629074 -290.366742 
L 339.309498 -291.400046 
L 335.989922 -292.342085 
L 332.670345 -293.168499 
L 329.350769 -293.884773 
L 326.031193 -294.506282 
L 322.711617 -295.0427 
L 319.392041 -295.496356 
L 316.072465 -295.870091 
L 312.752889 -296.174731 
L 309.433313 -296.430106 
L 306.113736 -296.660291 
L 302.79416 -296.886639 
L 299.474584 -297.12081 
L 296.155008 -297.359481 
L 292.835432 -297.584822 
L 289.515856 -297.774018 
L 286.19628 -297.91336 
L 282.876704 -298.006187 
L 279.557128 -298.068786 
L 276.237551 -298.119041 
L 272.917975 -298.167057 
L 269.598399 -298.212968 
L 266.278823 -298.251218 
L 262.959247 -298.277324 
L 259.639671 -298.292748 
L 256.320095 -298.305192 
L 253.000519 -298.324735 
L 249.680943 -298.358967 
L 246.361366 -298.410107 
L 243.04179 -298.474514 
L 239.722214 -298.543699 
L 236.402638 -298.606923 
L 233.083062 -298.655876 
L 229.763486 -298.689877 
L 226.44391 -298.717903 
L 223.124334 -298.754611 
L 219.804757 -298.811717 
L 216.485181 -298.890403 
L 213.165605 -298.980636 
L 209.846029 -299.067779 
L 206.526453 -299.140827 
L 203.206877 -299.196036 
L 199.887301 -299.234699 
L 196.567725 -299.259171 
L 193.248149 -299.271864 
L 189.928572 -299.27707 
L 186.608996 -299.280997 
L 183.28942 -299.288109 
L 179.969844 -299.298054 
L 176.650268 -299.307392 
L 173.330692 -299.313907 
L 170.011116 -299.318367 
L 166.69154 -299.322817 
L 163.371963 -299.328525 
L 160.052387 -299.335588 
L 156.732811 -299.343414 
L 153.413235 -299.351064 
L 150.093659 -299.357516 
L 146.774083 -299.362104 
L 143.454507 -299.36481 
z
" style="stroke: #3d3d3d; stroke-width: 1.25"/>
    </defs>
    <g clip-path="url(#p9ebbedee38)">
     <use xlink:href="#mba77a20fc0" x="0" y="339.01" style="fill: #3274a1; stroke: #3d3d3d; stroke-width: 1.25"/>
    </g>
   </g>
   <g id="PolyCollection_2">
    <defs>
     <path id="mc5839e466e" d="M 125.122661 -264.712653 
L 125.122661 -264.721097 
L 128.532186 -264.725227 
L 131.94171 -264.731685 
L 135.351235 -264.740497 
L 138.76076 -264.75095 
L 142.170285 -264.761687 
L 145.579809 -264.771242 
L 148.989334 -264.778735 
L 152.398859 -264.784204 
L 155.808384 -264.788299 
L 159.217909 -264.791635 
L 162.627433 -264.794499 
L 166.036958 -264.797339 
L 169.446483 -264.801653 
L 172.856008 -264.810398 
L 176.265532 -264.827238 
L 179.675057 -264.854752 
L 183.084582 -264.892395 
L 186.494107 -264.935377 
L 189.903632 -264.975426 
L 193.313156 -265.00366 
L 196.722681 -265.014503 
L 200.132206 -265.008556 
L 203.541731 -264.99268 
L 206.951256 -264.977236 
L 210.36078 -264.972288 
L 213.770305 -264.985004 
L 217.17983 -265.019126 
L 220.589355 -265.07543 
L 223.998879 -265.151526 
L 227.408404 -265.240758 
L 230.817929 -265.332064 
L 234.227454 -265.412799 
L 237.636979 -265.473978 
L 241.046503 -265.51457 
L 244.456028 -265.541514 
L 247.865553 -265.565136 
L 251.275078 -265.592953 
L 254.684603 -265.625625 
L 258.094127 -265.657296 
L 261.503652 -265.679996 
L 264.913177 -265.689621 
L 268.322702 -265.689942 
L 271.732226 -265.692212 
L 275.141751 -265.710756 
L 278.551276 -265.75751 
L 281.960801 -265.838672 
L 285.370326 -265.954538 
L 288.77985 -266.101364 
L 292.189375 -266.273603 
L 295.5989 -266.465905 
L 299.008425 -266.67489 
L 302.41795 -266.900082 
L 305.827474 -267.142535 
L 309.236999 -267.400914 
L 312.646524 -267.667752 
L 316.056049 -267.930257 
L 319.465573 -268.177357 
L 322.875098 -268.409268 
L 326.284623 -268.643051 
L 329.694148 -268.910358 
L 333.103673 -269.248892 
L 336.513197 -269.691987 
L 339.922722 -270.259961 
L 343.332247 -270.955149 
L 346.741772 -271.761791 
L 350.151297 -272.651099 
L 353.560821 -273.589462 
L 356.970346 -274.545033 
L 360.379871 -275.488194 
L 363.789396 -276.385839 
L 367.19892 -277.195027 
L 370.608445 -277.863211 
L 374.01797 -278.33739 
L 377.427495 -278.576875 
L 380.83702 -278.560832 
L 384.246544 -278.286578 
L 387.656069 -277.763417 
L 391.065594 -277.010756 
L 394.475119 -276.063438 
L 397.884644 -274.977027 
L 401.294168 -273.822539 
L 404.703693 -272.66869 
L 408.113218 -271.562389 
L 411.522743 -270.52183 
L 414.932267 -269.546751 
L 418.341792 -268.636585 
L 421.751317 -267.802091 
L 425.160842 -267.063469 
L 428.570367 -266.439572 
L 431.979891 -265.938153 
L 435.389416 -265.553399 
L 438.798941 -265.269915 
L 442.208466 -265.068615 
L 445.617991 -264.93095 
L 449.027515 -264.840733 
L 452.43704 -264.784513 
L 455.846565 -264.751486 
L 459.25609 -264.733352 
L 462.665614 -264.724122 
L 462.665614 -264.709628 
L 462.665614 -264.709628 
L 459.25609 -264.700398 
L 455.846565 -264.682264 
L 452.43704 -264.649237 
L 449.027515 -264.593017 
L 445.617991 -264.5028 
L 442.208466 -264.365135 
L 438.798941 -264.163835 
L 435.389416 -263.880351 
L 431.979891 -263.495597 
L 428.570367 -262.994178 
L 425.160842 -262.370281 
L 421.751317 -261.631659 
L 418.341792 -260.797165 
L 414.932267 -259.886999 
L 411.522743 -258.91192 
L 408.113218 -257.871361 
L 404.703693 -256.76506 
L 401.294168 -255.611211 
L 397.884644 -254.456723 
L 394.475119 -253.370312 
L 391.065594 -252.422994 
L 387.656069 -251.670333 
L 384.246544 -251.147172 
L 380.83702 -250.872918 
L 377.427495 -250.856875 
L 374.01797 -251.09636 
L 370.608445 -251.570539 
L 367.19892 -252.238723 
L 363.789396 -253.047911 
L 360.379871 -253.945556 
L 356.970346 -254.888717 
L 353.560821 -255.844288 
L 350.151297 -256.782651 
L 346.741772 -257.671959 
L 343.332247 -258.478601 
L 339.922722 -259.173789 
L 336.513197 -259.741763 
L 333.103673 -260.184858 
L 329.694148 -260.523392 
L 326.284623 -260.790699 
L 322.875098 -261.024482 
L 319.465573 -261.256393 
L 316.056049 -261.503493 
L 312.646524 -261.765998 
L 309.236999 -262.032836 
L 305.827474 -262.291215 
L 302.41795 -262.533668 
L 299.008425 -262.75886 
L 295.5989 -262.967845 
L 292.189375 -263.160147 
L 288.77985 -263.332386 
L 285.370326 -263.479212 
L 281.960801 -263.595078 
L 278.551276 -263.67624 
L 275.141751 -263.722994 
L 271.732226 -263.741538 
L 268.322702 -263.743808 
L 264.913177 -263.744129 
L 261.503652 -263.753754 
L 258.094127 -263.776454 
L 254.684603 -263.808125 
L 251.275078 -263.840797 
L 247.865553 -263.868614 
L 244.456028 -263.892236 
L 241.046503 -263.91918 
L 237.636979 -263.959772 
L 234.227454 -264.020951 
L 230.817929 -264.101686 
L 227.408404 -264.192992 
L 223.998879 -264.282224 
L 220.589355 -264.35832 
L 217.17983 -264.414624 
L 213.770305 -264.448746 
L 210.36078 -264.461462 
L 206.951256 -264.456514 
L 203.541731 -264.44107 
L 200.132206 -264.425194 
L 196.722681 -264.419247 
L 193.313156 -264.43009 
L 189.903632 -264.458324 
L 186.494107 -264.498373 
L 183.084582 -264.541355 
L 179.675057 -264.578998 
L 176.265532 -264.606512 
L 172.856008 -264.623352 
L 169.446483 -264.632097 
L 166.036958 -264.636411 
L 162.627433 -264.639251 
L 159.217909 -264.642115 
L 155.808384 -264.645451 
L 152.398859 -264.649546 
L 148.989334 -264.655015 
L 145.579809 -264.662508 
L 142.170285 -264.672063 
L 138.76076 -264.6828 
L 135.351235 -264.693253 
L 131.94171 -264.702065 
L 128.532186 -264.708523 
L 125.122661 -264.712653 
z
" style="stroke: #3d3d3d; stroke-width: 1.25"/>
    </defs>
    <g clip-path="url(#p9ebbedee38)">
     <use xlink:href="#mc5839e466e" x="0" y="339.01" style="fill: #e1812c; stroke: #3d3d3d; stroke-width: 1.25"/>
    </g>
   </g>
   <g id="PolyCollection_3">
    <defs>
     <path id="m836a082b89" d="M 79.284347 -230.064681 
L 79.284347 -230.069069 
L 83.059115 -230.072003 
L 86.833883 -230.076863 
L 90.608651 -230.08317 
L 94.383419 -230.089253 
L 98.158187 -230.092892 
L 101.932955 -230.092709 
L 105.707723 -230.089271 
L 109.482491 -230.084862 
L 113.257259 -230.081933 
L 117.032027 -230.081357 
L 120.806795 -230.08195 
L 124.581563 -230.08167 
L 128.356331 -230.079411 
L 132.131099 -230.075726 
L 135.905867 -230.072042 
L 139.680635 -230.069467 
L 143.455403 -230.068398 
L 147.230171 -230.069004 
L 151.004939 -230.07185 
L 154.779707 -230.077973 
L 158.554475 -230.088158 
L 162.329243 -230.10177 
L 166.104011 -230.116302 
L 169.878779 -230.128955 
L 173.653547 -230.139774 
L 177.428315 -230.153208 
L 181.203083 -230.175141 
L 184.977851 -230.207156 
L 188.752619 -230.244189 
L 192.527387 -230.279244 
L 196.302155 -230.310874 
L 200.076923 -230.344946 
L 203.851691 -230.388276 
L 207.626459 -230.441389 
L 211.401227 -230.49842 
L 215.175995 -230.553153 
L 218.950763 -230.603973 
L 222.725531 -230.653831 
L 226.500299 -230.707624 
L 230.275067 -230.769815 
L 234.049835 -230.841733 
L 237.824603 -230.918746 
L 241.599372 -230.99153 
L 245.37414 -231.053157 
L 249.148908 -231.105669 
L 252.923676 -231.159239 
L 256.698444 -231.225622 
L 260.473212 -231.311723 
L 264.24798 -231.415341 
L 268.022748 -231.523419 
L 271.797516 -231.615806 
L 275.572284 -231.676344 
L 279.347052 -231.706445 
L 283.12182 -231.730996 
L 286.896588 -231.788394 
L 290.671356 -231.907696 
L 294.446124 -232.090347 
L 298.220892 -232.314217 
L 301.99566 -232.555679 
L 305.770428 -232.805652 
L 309.545196 -233.06602 
L 313.319964 -233.338302 
L 317.094732 -233.621809 
L 320.8695 -233.923464 
L 324.644268 -234.268779 
L 328.419036 -234.700769 
L 332.193804 -235.261018 
L 335.968572 -235.966431 
L 339.74334 -236.805474 
L 343.518108 -237.754692 
L 347.292876 -238.788794 
L 351.067644 -239.871509 
L 354.842412 -240.946918 
L 358.61718 -241.947027 
L 362.391948 -242.803929 
L 366.166716 -243.453918 
L 369.941484 -243.840883 
L 373.716252 -243.926875 
L 377.49102 -243.699056 
L 381.265788 -243.160259 
L 385.040556 -242.314501 
L 388.815324 -241.173096 
L 392.590092 -239.782609 
L 396.36486 -238.242263 
L 400.139628 -236.684291 
L 403.914396 -235.230066 
L 407.689164 -233.957803 
L 411.463932 -232.900944 
L 415.2387 -232.065118 
L 419.013469 -231.440622 
L 422.788237 -231.002684 
L 426.563005 -230.710169 
L 430.337773 -230.514178 
L 434.112541 -230.373819 
L 437.887309 -230.266436 
L 441.662077 -230.185156 
L 445.436845 -230.129004 
L 449.211613 -230.095245 
L 452.986381 -230.077983 
L 452.986381 -230.055767 
L 452.986381 -230.055767 
L 449.211613 -230.038505 
L 445.436845 -230.004746 
L 441.662077 -229.948594 
L 437.887309 -229.867314 
L 434.112541 -229.759931 
L 430.337773 -229.619572 
L 426.563005 -229.423581 
L 422.788237 -229.131066 
L 419.013469 -228.693128 
L 415.2387 -228.068632 
L 411.463932 -227.232806 
L 407.689164 -226.175947 
L 403.914396 -224.903684 
L 400.139628 -223.449459 
L 396.36486 -221.891487 
L 392.590092 -220.351141 
L 388.815324 -218.960654 
L 385.040556 -217.819249 
L 381.265788 -216.973491 
L 377.49102 -216.434694 
L 373.716252 -216.206875 
L 369.941484 -216.292867 
L 366.166716 -216.679832 
L 362.391948 -217.329821 
L 358.61718 -218.186723 
L 354.842412 -219.186832 
L 351.067644 -220.262241 
L 347.292876 -221.344956 
L 343.518108 -222.379058 
L 339.74334 -223.328276 
L 335.968572 -224.167319 
L 332.193804 -224.872732 
L 328.419036 -225.432981 
L 324.644268 -225.864971 
L 320.8695 -226.210286 
L 317.094732 -226.511941 
L 313.319964 -226.795448 
L 309.545196 -227.06773 
L 305.770428 -227.328098 
L 301.99566 -227.578071 
L 298.220892 -227.819533 
L 294.446124 -228.043403 
L 290.671356 -228.226054 
L 286.896588 -228.345356 
L 283.12182 -228.402754 
L 279.347052 -228.427305 
L 275.572284 -228.457406 
L 271.797516 -228.517944 
L 268.022748 -228.610331 
L 264.24798 -228.718409 
L 260.473212 -228.822027 
L 256.698444 -228.908128 
L 252.923676 -228.974511 
L 249.148908 -229.028081 
L 245.37414 -229.080593 
L 241.599372 -229.14222 
L 237.824603 -229.215004 
L 234.049835 -229.292017 
L 230.275067 -229.363935 
L 226.500299 -229.426126 
L 222.725531 -229.479919 
L 218.950763 -229.529777 
L 215.175995 -229.580597 
L 211.401227 -229.63533 
L 207.626459 -229.692361 
L 203.851691 -229.745474 
L 200.076923 -229.788804 
L 196.302155 -229.822876 
L 192.527387 -229.854506 
L 188.752619 -229.889561 
L 184.977851 -229.926594 
L 181.203083 -229.958609 
L 177.428315 -229.980542 
L 173.653547 -229.993976 
L 169.878779 -230.004795 
L 166.104011 -230.017448 
L 162.329243 -230.03198 
L 158.554475 -230.045592 
L 154.779707 -230.055777 
L 151.004939 -230.0619 
L 147.230171 -230.064746 
L 143.455403 -230.065352 
L 139.680635 -230.064283 
L 135.905867 -230.061708 
L 132.131099 -230.058024 
L 128.356331 -230.054339 
L 124.581563 -230.05208 
L 120.806795 -230.0518 
L 117.032027 -230.052393 
L 113.257259 -230.051817 
L 109.482491 -230.048888 
L 105.707723 -230.044479 
L 101.932955 -230.041041 
L 98.158187 -230.040858 
L 94.383419 -230.044497 
L 90.608651 -230.05058 
L 86.833883 -230.056887 
L 83.059115 -230.061747 
L 79.284347 -230.064681 
z
" style="stroke: #3d3d3d; stroke-width: 1.25"/>
    </defs>
    <g clip-path="url(#p9ebbedee38)">
     <use xlink:href="#m836a082b89" x="0" y="339.01" style="fill: #3a923a; stroke: #3d3d3d; stroke-width: 1.25"/>
    </g>
   </g>
   <g id="PolyCollection_4">
    <defs>
     <path id="md07c04d8fe" d="M 144.323908 -195.414478 
L 144.323908 -195.419272 
L 147.766116 -195.422509 
L 151.208324 -195.427446 
L 154.650533 -195.432914 
L 158.092741 -195.437219 
L 161.534949 -195.440094 
L 164.977157 -195.443619 
L 168.419366 -195.450367 
L 171.861574 -195.460625 
L 175.303782 -195.471972 
L 178.745991 -195.481917 
L 182.188199 -195.490995 
L 185.630407 -195.502976 
L 189.072615 -195.521364 
L 192.514824 -195.545407 
L 195.957032 -195.5699 
L 199.39924 -195.589417 
L 202.841449 -195.60281 
L 206.283657 -195.612649 
L 209.725865 -195.620139 
L 213.168073 -195.623826 
L 216.610282 -195.626153 
L 220.05249 -195.637496 
L 223.494698 -195.667722 
L 226.936907 -195.715285 
L 230.379115 -195.769687 
L 233.821323 -195.822386 
L 237.263532 -195.869566 
L 240.70574 -195.906347 
L 244.147948 -195.925872 
L 247.590156 -195.927081 
L 251.032365 -195.921246 
L 254.474573 -195.928205 
L 257.916781 -195.963654 
L 261.35899 -196.027368 
L 264.801198 -196.102209 
L 268.243406 -196.165009 
L 271.685614 -196.201528 
L 275.127823 -196.215634 
L 278.570031 -196.227638 
L 282.012239 -196.264652 
L 285.454448 -196.349824 
L 288.896656 -196.494609 
L 292.338864 -196.695399 
L 295.781072 -196.936496 
L 299.223281 -197.199942 
L 302.665489 -197.475989 
L 306.107697 -197.765855 
L 309.549906 -198.077247 
L 312.992114 -198.420515 
L 316.434322 -198.80875 
L 319.87653 -199.257717 
L 323.318739 -199.782647 
L 326.760947 -200.395161 
L 330.203155 -201.10499 
L 333.645364 -201.922112 
L 337.087572 -202.844578 
L 340.52978 -203.833533 
L 343.971989 -204.816637 
L 347.414197 -205.747438 
L 350.856405 -206.652147 
L 354.298613 -207.568275 
L 357.740822 -208.428186 
L 361.18303 -209.052007 
L 364.625238 -209.276875 
L 368.067447 -209.067402 
L 371.509655 -208.499435 
L 374.951863 -207.672494 
L 378.394071 -206.652636 
L 381.83628 -205.478855 
L 385.278488 -204.197057 
L 388.720696 -202.873201 
L 392.162905 -201.576759 
L 395.605113 -200.363319 
L 399.047321 -199.274293 
L 402.489529 -198.341138 
L 405.931738 -197.580803 
L 409.373946 -196.98878 
L 412.816154 -196.541063 
L 416.258363 -196.205312 
L 419.700571 -195.953149 
L 423.142779 -195.766108 
L 426.584987 -195.633729 
L 430.027196 -195.547834 
L 433.469404 -195.498206 
L 436.911612 -195.472296 
L 440.353821 -195.458166 
L 443.796029 -195.447774 
L 447.238237 -195.438085 
L 450.680446 -195.42965 
L 454.122654 -195.4241 
L 457.564862 -195.422416 
L 461.00707 -195.424452 
L 464.449279 -195.428861 
L 467.891487 -195.433108 
L 471.333695 -195.434498 
L 474.775904 -195.432051 
L 478.218112 -195.427225 
L 481.66032 -195.422464 
L 485.102528 -195.419264 
L 485.102528 -195.414486 
L 485.102528 -195.414486 
L 481.66032 -195.411286 
L 478.218112 -195.406525 
L 474.775904 -195.401699 
L 471.333695 -195.399252 
L 467.891487 -195.400642 
L 464.449279 -195.404889 
L 461.00707 -195.409298 
L 457.564862 -195.411334 
L 454.122654 -195.40965 
L 450.680446 -195.4041 
L 447.238237 -195.395665 
L 443.796029 -195.385976 
L 440.353821 -195.375584 
L 436.911612 -195.361454 
L 433.469404 -195.335544 
L 430.027196 -195.285916 
L 426.584987 -195.200021 
L 423.142779 -195.067642 
L 419.700571 -194.880601 
L 416.258363 -194.628438 
L 412.816154 -194.292687 
L 409.373946 -193.84497 
L 405.931738 -193.252947 
L 402.489529 -192.492612 
L 399.047321 -191.559457 
L 395.605113 -190.470431 
L 392.162905 -189.256991 
L 388.720696 -187.960549 
L 385.278488 -186.636693 
L 381.83628 -185.354895 
L 378.394071 -184.181114 
L 374.951863 -183.161256 
L 371.509655 -182.334315 
L 368.067447 -181.766348 
L 364.625238 -181.556875 
L 361.18303 -181.781743 
L 357.740822 -182.405564 
L 354.298613 -183.265475 
L 350.856405 -184.181603 
L 347.414197 -185.086312 
L 343.971989 -186.017113 
L 340.52978 -187.000217 
L 337.087572 -187.989172 
L 333.645364 -188.911638 
L 330.203155 -189.72876 
L 326.760947 -190.438589 
L 323.318739 -191.051103 
L 319.87653 -191.576033 
L 316.434322 -192.025 
L 312.992114 -192.413235 
L 309.549906 -192.756503 
L 306.107697 -193.067895 
L 302.665489 -193.357761 
L 299.223281 -193.633808 
L 295.781072 -193.897254 
L 292.338864 -194.138351 
L 288.896656 -194.339141 
L 285.454448 -194.483926 
L 282.012239 -194.569098 
L 278.570031 -194.606112 
L 275.127823 -194.618116 
L 271.685614 -194.632222 
L 268.243406 -194.668741 
L 264.801198 -194.731541 
L 261.35899 -194.806382 
L 257.916781 -194.870096 
L 254.474573 -194.905545 
L 251.032365 -194.912504 
L 247.590156 -194.906669 
L 244.147948 -194.907878 
L 240.70574 -194.927403 
L 237.263532 -194.964184 
L 233.821323 -195.011364 
L 230.379115 -195.064063 
L 226.936907 -195.118465 
L 223.494698 -195.166028 
L 220.05249 -195.196254 
L 216.610282 -195.207597 
L 213.168073 -195.209924 
L 209.725865 -195.213611 
L 206.283657 -195.221101 
L 202.841449 -195.23094 
L 199.39924 -195.244333 
L 195.957032 -195.26385 
L 192.514824 -195.288343 
L 189.072615 -195.312386 
L 185.630407 -195.330774 
L 182.188199 -195.342755 
L 178.745991 -195.351833 
L 175.303782 -195.361778 
L 171.861574 -195.373125 
L 168.419366 -195.383383 
L 164.977157 -195.390131 
L 161.534949 -195.393656 
L 158.092741 -195.396531 
L 154.650533 -195.400836 
L 151.208324 -195.406304 
L 147.766116 -195.411241 
L 144.323908 -195.414478 
z
" style="stroke: #3d3d3d; stroke-width: 1.25"/>
    </defs>
    <g clip-path="url(#p9ebbedee38)">
     <use xlink:href="#md07c04d8fe" x="0" y="339.01" style="fill: #c03d3e; stroke: #3d3d3d; stroke-width: 1.25"/>
    </g>
   </g>
   <g id="PolyCollection_5">
    <defs>
     <path id="m06bc94368c" d="M 126.152243 -160.764151 
L 126.152243 -160.769599 
L 129.611066 -160.772298 
L 133.069889 -160.776354 
L 136.528712 -160.781507 
L 139.987535 -160.787028 
L 143.446358 -160.792038 
L 146.905181 -160.796026 
L 150.364004 -160.799164 
L 153.822827 -160.802229 
L 157.28165 -160.806249 
L 160.740473 -160.812153 
L 164.199296 -160.82054 
L 167.65812 -160.831625 
L 171.116943 -160.845561 
L 174.575766 -160.863071 
L 178.034589 -160.885788 
L 181.493412 -160.915594 
L 184.952235 -160.953135 
L 188.411058 -160.99679 
L 191.869881 -161.043244 
L 195.328704 -161.089474 
L 198.787527 -161.134547 
L 202.24635 -161.179807 
L 205.705173 -161.227476 
L 209.163996 -161.278851 
L 212.622819 -161.333064 
L 216.081642 -161.386568 
L 219.540465 -161.433478 
L 222.999289 -161.467548 
L 226.458112 -161.485948 
L 229.916935 -161.492766 
L 233.375758 -161.498727 
L 236.834581 -161.515939 
L 240.293404 -161.551236 
L 243.752227 -161.603426 
L 247.21105 -161.666113 
L 250.669873 -161.732541 
L 254.128696 -161.797991 
L 257.587519 -161.859146 
L 261.046342 -161.913522 
L 264.505165 -161.961314 
L 267.963988 -162.008047 
L 271.422811 -162.064015 
L 274.881634 -162.138996 
L 278.340457 -162.235755 
L 281.799281 -162.348111 
L 285.258104 -162.465916 
L 288.716927 -162.583088 
L 292.17575 -162.701937 
L 295.634573 -162.830428 
L 299.093396 -162.975302 
L 302.552219 -163.137347 
L 306.011042 -163.312714 
L 309.469865 -163.499118 
L 312.928688 -163.702358 
L 316.387511 -163.938662 
L 319.846334 -164.230609 
L 323.305157 -164.597761 
L 326.76398 -165.047251 
L 330.222803 -165.571832 
L 333.681626 -166.159091 
L 337.14045 -166.806057 
L 340.599273 -167.526138 
L 344.058096 -168.33898 
L 347.516919 -169.247589 
L 350.975742 -170.21983 
L 354.434565 -171.191005 
L 357.893388 -172.088908 
L 361.352211 -172.864155 
L 364.811034 -173.502767 
L 368.269857 -174.011746 
L 371.72868 -174.390552 
L 375.187503 -174.612109 
L 378.646326 -174.626875 
L 382.105149 -174.383739 
L 385.563972 -173.851214 
L 389.022795 -173.028591 
L 392.481618 -171.948439 
L 395.940442 -170.675011 
L 399.399265 -169.297448 
L 402.858088 -167.913766 
L 406.316911 -166.608514 
L 409.775734 -165.435538 
L 413.234557 -164.415875 
L 416.69338 -163.549398 
L 420.152203 -162.82918 
L 423.611026 -162.24849 
L 427.069849 -161.799137 
L 430.528672 -161.467219 
L 433.987495 -161.232377 
L 437.446318 -161.071513 
L 440.905141 -160.963648 
L 444.363964 -160.89254 
L 447.822787 -160.846509 
L 451.281611 -160.817131 
L 454.740434 -160.798337 
L 458.199257 -160.786078 
L 461.65808 -160.777998 
L 465.116903 -160.772822 
L 468.575726 -160.769745 
L 468.575726 -160.764005 
L 468.575726 -160.764005 
L 465.116903 -160.760928 
L 461.65808 -160.755752 
L 458.199257 -160.747672 
L 454.740434 -160.735413 
L 451.281611 -160.716619 
L 447.822787 -160.687241 
L 444.363964 -160.64121 
L 440.905141 -160.570102 
L 437.446318 -160.462237 
L 433.987495 -160.301373 
L 430.528672 -160.066531 
L 427.069849 -159.734613 
L 423.611026 -159.28526 
L 420.152203 -158.70457 
L 416.69338 -157.984352 
L 413.234557 -157.117875 
L 409.775734 -156.098212 
L 406.316911 -154.925236 
L 402.858088 -153.619984 
L 399.399265 -152.236302 
L 395.940442 -150.858739 
L 392.481618 -149.585311 
L 389.022795 -148.505159 
L 385.563972 -147.682536 
L 382.105149 -147.150011 
L 378.646326 -146.906875 
L 375.187503 -146.921641 
L 371.72868 -147.143198 
L 368.269857 -147.522004 
L 364.811034 -148.030983 
L 361.352211 -148.669595 
L 357.893388 -149.444842 
L 354.434565 -150.342745 
L 350.975742 -151.31392 
L 347.516919 -152.286161 
L 344.058096 -153.19477 
L 340.599273 -154.007612 
L 337.14045 -154.727693 
L 333.681626 -155.374659 
L 330.222803 -155.961918 
L 326.76398 -156.486499 
L 323.305157 -156.935989 
L 319.846334 -157.303141 
L 316.387511 -157.595088 
L 312.928688 -157.831392 
L 309.469865 -158.034632 
L 306.011042 -158.221036 
L 302.552219 -158.396403 
L 299.093396 -158.558448 
L 295.634573 -158.703322 
L 292.17575 -158.831813 
L 288.716927 -158.950662 
L 285.258104 -159.067834 
L 281.799281 -159.185639 
L 278.340457 -159.297995 
L 274.881634 -159.394754 
L 271.422811 -159.469735 
L 267.963988 -159.525703 
L 264.505165 -159.572436 
L 261.046342 -159.620228 
L 257.587519 -159.674604 
L 254.128696 -159.735759 
L 250.669873 -159.801209 
L 247.21105 -159.867637 
L 243.752227 -159.930324 
L 240.293404 -159.982514 
L 236.834581 -160.017811 
L 233.375758 -160.035023 
L 229.916935 -160.040984 
L 226.458112 -160.047802 
L 222.999289 -160.066202 
L 219.540465 -160.100272 
L 216.081642 -160.147182 
L 212.622819 -160.200686 
L 209.163996 -160.254899 
L 205.705173 -160.306274 
L 202.24635 -160.353943 
L 198.787527 -160.399203 
L 195.328704 -160.444276 
L 191.869881 -160.490506 
L 188.411058 -160.53696 
L 184.952235 -160.580615 
L 181.493412 -160.618156 
L 178.034589 -160.647962 
L 174.575766 -160.670679 
L 171.116943 -160.688189 
L 167.65812 -160.702125 
L 164.199296 -160.71321 
L 160.740473 -160.721597 
L 157.28165 -160.727501 
L 153.822827 -160.731521 
L 150.364004 -160.734586 
L 146.905181 -160.737724 
L 143.446358 -160.741712 
L 139.987535 -160.746722 
L 136.528712 -160.752243 
L 133.069889 -160.757396 
L 129.611066 -160.761452 
L 126.152243 -160.764151 
z
" style="stroke: #3d3d3d; stroke-width: 1.25"/>
    </defs>
    <g clip-path="url(#p9ebbedee38)">
     <use xlink:href="#m06bc94368c" x="0" y="339.01" style="fill: #9372b2; stroke: #3d3d3d; stroke-width: 1.25"/>
    </g>
   </g>
   <g id="PolyCollection_6">
    <defs>
     <path id="meac311df8d" d="M 128.201921 -126.107012 
L 128.201921 -126.126738 
L 131.689435 -126.13553 
L 135.176948 -126.149584 
L 138.664461 -126.170175 
L 142.151975 -126.197859 
L 145.639488 -126.232152 
L 149.127001 -126.271642 
L 152.614515 -126.314645 
L 156.102028 -126.36018 
L 159.589541 -126.408677 
L 163.077055 -126.461836 
L 166.564568 -126.521501 
L 170.052081 -126.588066 
L 173.539595 -126.659412 
L 177.027108 -126.731115 
L 180.514621 -126.797901 
L 184.002135 -126.855491 
L 187.489648 -126.90177 
L 190.977161 -126.936736 
L 194.464675 -126.961482 
L 197.952188 -126.977009 
L 201.439701 -126.983599 
L 204.927214 -126.981019 
L 208.414728 -126.969314 
L 211.902241 -126.949726 
L 215.389754 -126.925278 
L 218.877268 -126.900747 
L 222.364781 -126.882041 
L 225.852294 -126.875174 
L 229.339808 -126.88509 
L 232.827321 -126.914505 
L 236.314834 -126.962868 
L 239.802348 -127.02571 
L 243.289861 -127.094819 
L 246.777374 -127.159601 
L 250.264888 -127.209569 
L 253.752401 -127.237257 
L 257.239914 -127.240456 
L 260.727428 -127.222927 
L 264.214941 -127.193322 
L 267.702454 -127.162831 
L 271.189968 -127.142407 
L 274.677481 -127.14047 
L 278.164994 -127.161762 
L 281.652508 -127.207658 
L 285.140021 -127.277715 
L 288.627534 -127.371653 
L 292.115048 -127.490629 
L 295.602561 -127.636992 
L 299.090074 -127.812655 
L 302.577588 -128.017265 
L 306.065101 -128.247642 
L 309.552614 -128.499186 
L 313.040128 -128.768559 
L 316.527641 -129.056002 
L 320.015154 -129.365891 
L 323.502668 -129.705358 
L 326.990181 -130.081991 
L 330.477694 -130.501966 
L 333.965208 -130.969234 
L 337.452721 -131.485538 
L 340.940234 -132.05067 
L 344.427748 -132.662671 
L 347.915261 -133.317982 
L 351.402774 -134.011589 
L 354.890288 -134.736977 
L 358.377801 -135.485673 
L 361.865314 -136.246327 
L 365.352828 -137.003501 
L 368.840341 -137.736484 
L 372.327854 -138.418606 
L 375.815368 -139.017757 
L 379.302881 -139.498798 
L 382.790394 -139.827802 
L 386.277908 -139.976875 
L 389.765421 -139.927563 
L 393.252934 -139.671482 
L 396.740448 -139.208622 
L 400.227961 -138.545433 
L 403.715474 -137.694958 
L 407.202988 -136.679555 
L 410.690501 -135.534452 
L 414.178014 -134.30904 
L 417.665528 -133.063436 
L 421.153041 -131.860209 
L 424.640554 -130.753753 
L 428.128068 -129.781329 
L 431.615581 -128.959134 
L 435.103094 -128.284444 
L 438.590608 -127.742095 
L 442.078121 -127.312037 
L 445.565634 -126.974983 
L 449.053148 -126.714916 
L 452.540661 -126.518978 
L 456.028174 -126.37622 
L 459.515688 -126.276529 
L 463.003201 -126.21028 
L 466.490714 -126.168612 
L 469.978228 -126.143913 
L 473.465741 -126.130163 
L 473.465741 -126.103587 
L 473.465741 -126.103587 
L 469.978228 -126.089837 
L 466.490714 -126.065138 
L 463.003201 -126.02347 
L 459.515688 -125.957221 
L 456.028174 -125.85753 
L 452.540661 -125.714772 
L 449.053148 -125.518834 
L 445.565634 -125.258767 
L 442.078121 -124.921713 
L 438.590608 -124.491655 
L 435.103094 -123.949306 
L 431.615581 -123.274616 
L 428.128068 -122.452421 
L 424.640554 -121.479997 
L 421.153041 -120.373541 
L 417.665528 -119.170314 
L 414.178014 -117.92471 
L 410.690501 -116.699298 
L 407.202988 -115.554195 
L 403.715474 -114.538792 
L 400.227961 -113.688317 
L 396.740448 -113.025128 
L 393.252934 -112.562268 
L 389.765421 -112.306187 
L 386.277908 -112.256875 
L 382.790394 -112.405948 
L 379.302881 -112.734952 
L 375.815368 -113.215993 
L 372.327854 -113.815144 
L 368.840341 -114.497266 
L 365.352828 -115.230249 
L 361.865314 -115.987423 
L 358.377801 -116.748077 
L 354.890288 -117.496773 
L 351.402774 -118.222161 
L 347.915261 -118.915768 
L 344.427748 -119.571079 
L 340.940234 -120.18308 
L 337.452721 -120.748212 
L 333.965208 -121.264516 
L 330.477694 -121.731784 
L 326.990181 -122.151759 
L 323.502668 -122.528392 
L 320.015154 -122.867859 
L 316.527641 -123.177748 
L 313.040128 -123.465191 
L 309.552614 -123.734564 
L 306.065101 -123.986108 
L 302.577588 -124.216485 
L 299.090074 -124.421095 
L 295.602561 -124.596758 
L 292.115048 -124.743121 
L 288.627534 -124.862097 
L 285.140021 -124.956035 
L 281.652508 -125.026092 
L 278.164994 -125.071988 
L 274.677481 -125.09328 
L 271.189968 -125.091343 
L 267.702454 -125.070919 
L 264.214941 -125.040428 
L 260.727428 -125.010823 
L 257.239914 -124.993294 
L 253.752401 -124.996493 
L 250.264888 -125.024181 
L 246.777374 -125.074149 
L 243.289861 -125.138931 
L 239.802348 -125.20804 
L 236.314834 -125.270882 
L 232.827321 -125.319245 
L 229.339808 -125.34866 
L 225.852294 -125.358576 
L 222.364781 -125.351709 
L 218.877268 -125.333003 
L 215.389754 -125.308472 
L 211.902241 -125.284024 
L 208.414728 -125.264436 
L 204.927214 -125.252731 
L 201.439701 -125.250151 
L 197.952188 -125.256741 
L 194.464675 -125.272268 
L 190.977161 -125.297014 
L 187.489648 -125.33198 
L 184.002135 -125.378259 
L 180.514621 -125.435849 
L 177.027108 -125.502635 
L 173.539595 -125.574338 
L 170.052081 -125.645684 
L 166.564568 -125.712249 
L 163.077055 -125.771914 
L 159.589541 -125.825073 
L 156.102028 -125.87357 
L 152.614515 -125.919105 
L 149.127001 -125.962108 
L 145.639488 -126.001598 
L 142.151975 -126.035891 
L 138.664461 -126.063575 
L 135.176948 -126.084166 
L 131.689435 -126.09822 
L 128.201921 -126.107012 
z
" style="stroke: #3d3d3d; stroke-width: 1.25"/>
    </defs>
    <g clip-path="url(#p9ebbedee38)">
     <use xlink:href="#meac311df8d" x="0" y="339.01" style="fill: #845b53; stroke: #3d3d3d; stroke-width: 1.25"/>
    </g>
   </g>
   <g id="PolyCollection_7">
    <defs>
     <path id="m75308c5d59" d="M 148.538694 -91.458661 
L 148.538694 -91.475089 
L 151.755559 -91.483191 
L 154.972425 -91.494947 
L 158.18929 -91.508708 
L 161.406155 -91.52087 
L 164.62302 -91.527245 
L 167.839886 -91.525363 
L 171.056751 -91.516057 
L 174.273616 -91.503048 
L 177.490481 -91.490961 
L 180.707347 -91.483411 
L 183.924212 -91.482271 
L 187.141077 -91.487815 
L 190.357942 -91.498825 
L 193.574808 -91.512492 
L 196.791673 -91.524969 
L 200.008538 -91.533238 
L 203.225403 -91.537407 
L 206.442269 -91.54136 
L 209.659134 -91.550448 
L 212.875999 -91.567492 
L 216.092865 -91.59033 
L 219.30973 -91.61318 
L 222.526595 -91.630699 
L 225.74346 -91.640955 
L 228.960326 -91.64491 
L 232.177191 -91.644014 
L 235.394056 -91.639411 
L 238.610921 -91.633692 
L 241.827787 -91.632583 
L 245.044652 -91.644185 
L 248.261517 -91.676319 
L 251.478382 -91.734001 
L 254.695248 -91.817878 
L 257.912113 -91.923358 
L 261.128978 -92.040838 
L 264.345843 -92.157956 
L 267.562709 -92.263707 
L 270.779574 -92.352877 
L 273.996439 -92.42868 
L 277.213305 -92.501767 
L 280.43017 -92.584825 
L 283.647035 -92.685262 
L 286.8639 -92.802059 
L 290.080766 -92.93133 
L 293.297631 -93.076702 
L 296.514496 -93.254056 
L 299.731361 -93.484825 
L 302.948227 -93.783753 
L 306.165092 -94.151878 
L 309.381957 -94.578315 
L 312.598822 -95.045781 
L 315.815688 -95.535372 
L 319.032553 -96.032647 
L 322.249418 -96.538276 
L 325.466284 -97.078529 
L 328.683149 -97.703202 
L 331.900014 -98.46416 
L 335.116879 -99.385119 
L 338.333745 -100.443932 
L 341.55061 -101.577984 
L 344.767475 -102.702445 
L 347.98434 -103.724934 
L 351.201206 -104.553339 
L 354.418071 -105.105779 
L 357.634936 -105.326875 
L 360.851801 -105.201762 
L 364.068667 -104.756212 
L 367.285532 -104.04127 
L 370.502397 -103.112748 
L 373.719262 -102.019262 
L 376.936128 -100.805509 
L 380.152993 -99.525085 
L 383.369858 -98.248183 
L 386.586724 -97.052343 
L 389.803589 -95.999308 
L 393.020454 -95.115235 
L 396.237319 -94.389744 
L 399.454185 -93.792735 
L 402.67105 -93.294115 
L 405.887915 -92.873709 
L 409.10478 -92.520569 
L 412.321646 -92.228508 
L 415.538511 -91.993079 
L 418.755376 -91.810401 
L 421.972241 -91.676246 
L 425.189107 -91.584954 
L 428.405972 -91.529048 
L 431.622837 -91.500119 
L 434.839702 -91.490354 
L 438.056568 -91.493374 
L 441.273433 -91.503793 
L 444.490298 -91.51626 
L 447.707164 -91.525412 
L 450.924029 -91.527256 
L 454.140894 -91.520872 
L 457.357759 -91.508708 
L 460.574625 -91.494947 
L 463.79149 -91.483191 
L 467.008355 -91.475089 
L 467.008355 -91.458661 
L 467.008355 -91.458661 
L 463.79149 -91.450559 
L 460.574625 -91.438803 
L 457.357759 -91.425042 
L 454.140894 -91.412878 
L 450.924029 -91.406494 
L 447.707164 -91.408338 
L 444.490298 -91.41749 
L 441.273433 -91.429957 
L 438.056568 -91.440376 
L 434.839702 -91.443396 
L 431.622837 -91.433631 
L 428.405972 -91.404702 
L 425.189107 -91.348796 
L 421.972241 -91.257504 
L 418.755376 -91.123349 
L 415.538511 -90.940671 
L 412.321646 -90.705242 
L 409.10478 -90.413181 
L 405.887915 -90.060041 
L 402.67105 -89.639635 
L 399.454185 -89.141015 
L 396.237319 -88.544006 
L 393.020454 -87.818515 
L 389.803589 -86.934442 
L 386.586724 -85.881407 
L 383.369858 -84.685567 
L 380.152993 -83.408665 
L 376.936128 -82.128241 
L 373.719262 -80.914488 
L 370.502397 -79.821002 
L 367.285532 -78.89248 
L 364.068667 -78.177538 
L 360.851801 -77.731988 
L 357.634936 -77.606875 
L 354.418071 -77.827971 
L 351.201206 -78.380411 
L 347.98434 -79.208816 
L 344.767475 -80.231305 
L 341.55061 -81.355766 
L 338.333745 -82.489818 
L 335.116879 -83.548631 
L 331.900014 -84.46959 
L 328.683149 -85.230548 
L 325.466284 -85.855221 
L 322.249418 -86.395474 
L 319.032553 -86.901103 
L 315.815688 -87.398378 
L 312.598822 -87.887969 
L 309.381957 -88.355435 
L 306.165092 -88.781872 
L 302.948227 -89.149997 
L 299.731361 -89.448925 
L 296.514496 -89.679694 
L 293.297631 -89.857048 
L 290.080766 -90.00242 
L 286.8639 -90.131691 
L 283.647035 -90.248488 
L 280.43017 -90.348925 
L 277.213305 -90.431983 
L 273.996439 -90.50507 
L 270.779574 -90.580873 
L 267.562709 -90.670043 
L 264.345843 -90.775794 
L 261.128978 -90.892912 
L 257.912113 -91.010392 
L 254.695248 -91.115872 
L 251.478382 -91.199749 
L 248.261517 -91.257431 
L 245.044652 -91.289565 
L 241.827787 -91.301167 
L 238.610921 -91.300058 
L 235.394056 -91.294339 
L 232.177191 -91.289736 
L 228.960326 -91.28884 
L 225.74346 -91.292795 
L 222.526595 -91.303051 
L 219.30973 -91.32057 
L 216.092865 -91.34342 
L 212.875999 -91.366258 
L 209.659134 -91.383302 
L 206.442269 -91.39239 
L 203.225403 -91.396343 
L 200.008538 -91.400512 
L 196.791673 -91.408781 
L 193.574808 -91.421258 
L 190.357942 -91.434925 
L 187.141077 -91.445935 
L 183.924212 -91.451479 
L 180.707347 -91.450339 
L 177.490481 -91.442789 
L 174.273616 -91.430702 
L 171.056751 -91.417693 
L 167.839886 -91.408387 
L 164.62302 -91.406505 
L 161.406155 -91.41288 
L 158.18929 -91.425042 
L 154.972425 -91.438803 
L 151.755559 -91.450559 
L 148.538694 -91.458661 
z
" style="stroke: #3d3d3d; stroke-width: 1.25"/>
    </defs>
    <g clip-path="url(#p9ebbedee38)">
     <use xlink:href="#m75308c5d59" x="0" y="339.01" style="fill: #d684bd; stroke: #3d3d3d; stroke-width: 1.25"/>
    </g>
   </g>
   <g id="PolyCollection_8">
    <defs>
     <path id="m324ece258a" d="M 208.106372 -56.712618 
L 208.106372 -56.921132 
L 210.610536 -56.956001 
L 213.114699 -56.99862 
L 215.618862 -57.049337 
L 218.123025 -57.108075 
L 220.627188 -57.174247 
L 223.131352 -57.246724 
L 225.635515 -57.323869 
L 228.139678 -57.403637 
L 230.643841 -57.483749 
L 233.148005 -57.561917 
L 235.652168 -57.6361 
L 238.156331 -57.704748 
L 240.660494 -57.76701 
L 243.164657 -57.822867 
L 245.668821 -57.873171 
L 248.172984 -57.919604 
L 250.677147 -57.964548 
L 253.18131 -58.010919 
L 255.685474 -58.06198 
L 258.189637 -58.121179 
L 260.6938 -58.192013 
L 263.197963 -58.277953 
L 265.702126 -58.382392 
L 268.20629 -58.508613 
L 270.710453 -58.659741 
L 273.214616 -58.838671 
L 275.718779 -59.047952 
L 278.222942 -59.289638 
L 280.727106 -59.565125 
L 283.231269 -59.875017 
L 285.735432 -60.21903 
L 288.239595 -60.59598 
L 290.743759 -61.003846 
L 293.247922 -61.439916 
L 295.752085 -61.900986 
L 298.256248 -62.383572 
L 300.760411 -62.88412 
L 303.264575 -63.399166 
L 305.768738 -63.925431 
L 308.272901 -64.459852 
L 310.777064 -64.999534 
L 313.281228 -65.541647 
L 315.785391 -66.083269 
L 318.289554 -66.621195 
L 320.793717 -67.151722 
L 323.29788 -67.670446 
L 325.802044 -68.172078 
L 328.306207 -68.650333 
L 330.81037 -69.097918 
L 333.314533 -69.506665 
L 335.818697 -69.867815 
L 338.32286 -70.172475 
L 340.827023 -70.412185 
L 343.331186 -70.579569 
L 345.835349 -70.668952 
L 348.339513 -70.676875 
L 350.843676 -70.602395 
L 353.347839 -70.447132 
L 355.852002 -70.215031 
L 358.356166 -69.911859 
L 360.860329 -69.544537 
L 363.364492 -69.120399 
L 365.868655 -68.646511 
L 368.372818 -68.12918 
L 370.876982 -67.573741 
L 373.381145 -66.984639 
L 375.885308 -66.365818 
L 378.389471 -65.721302 
L 380.893635 -65.055845 
L 383.397798 -64.375519 
L 385.901961 -63.688068 
L 388.406124 -63.002955 
L 390.910287 -62.331046 
L 393.414451 -61.683958 
L 395.918614 -61.073168 
L 398.422777 -60.509016 
L 400.92694 -59.99976 
L 403.431104 -59.550832 
L 405.935267 -59.1644 
L 408.43943 -58.8393 
L 410.943593 -58.571329 
L 413.447756 -58.353853 
L 415.95192 -58.17862 
L 418.456083 -58.036664 
L 420.960246 -57.919179 
L 423.464409 -57.818262 
L 425.968573 -57.727446 
L 428.472736 -57.641987 
L 430.976899 -57.558915 
L 433.481062 -57.476881 
L 435.985225 -57.395842 
L 438.489389 -57.31668 
L 440.993552 -57.240784 
L 443.497715 -57.169686 
L 446.001878 -57.104762 
L 448.506042 -57.047038 
L 451.010205 -56.997085 
L 453.514368 -56.955012 
L 456.018531 -56.920515 
L 456.018531 -56.713235 
L 456.018531 -56.713235 
L 453.514368 -56.678738 
L 451.010205 -56.636665 
L 448.506042 -56.586712 
L 446.001878 -56.528988 
L 443.497715 -56.464064 
L 440.993552 -56.392966 
L 438.489389 -56.31707 
L 435.985225 -56.237908 
L 433.481062 -56.156869 
L 430.976899 -56.074835 
L 428.472736 -55.991763 
L 425.968573 -55.906304 
L 423.464409 -55.815488 
L 420.960246 -55.714571 
L 418.456083 -55.597086 
L 415.95192 -55.45513 
L 413.447756 -55.279897 
L 410.943593 -55.062421 
L 408.43943 -54.79445 
L 405.935267 -54.46935 
L 403.431104 -54.082918 
L 400.92694 -53.63399 
L 398.422777 -53.124734 
L 395.918614 -52.560582 
L 393.414451 -51.949792 
L 390.910287 -51.302704 
L 388.406124 -50.630795 
L 385.901961 -49.945682 
L 383.397798 -49.258231 
L 380.893635 -48.577905 
L 378.389471 -47.912448 
L 375.885308 -47.267932 
L 373.381145 -46.649111 
L 370.876982 -46.060009 
L 368.372818 -45.50457 
L 365.868655 -44.987239 
L 363.364492 -44.513351 
L 360.860329 -44.089213 
L 358.356166 -43.721891 
L 355.852002 -43.418719 
L 353.347839 -43.186618 
L 350.843676 -43.031355 
L 348.339513 -42.956875 
L 345.835349 -42.964798 
L 343.331186 -43.054181 
L 340.827023 -43.221565 
L 338.32286 -43.461275 
L 335.818697 -43.765935 
L 333.314533 -44.127085 
L 330.81037 -44.535832 
L 328.306207 -44.983417 
L 325.802044 -45.461672 
L 323.29788 -45.963304 
L 320.793717 -46.482028 
L 318.289554 -47.012555 
L 315.785391 -47.550481 
L 313.281228 -48.092103 
L 310.777064 -48.634216 
L 308.272901 -49.173898 
L 305.768738 -49.708319 
L 303.264575 -50.234584 
L 300.760411 -50.74963 
L 298.256248 -51.250178 
L 295.752085 -51.732764 
L 293.247922 -52.193834 
L 290.743759 -52.629904 
L 288.239595 -53.03777 
L 285.735432 -53.41472 
L 283.231269 -53.758733 
L 280.727106 -54.068625 
L 278.222942 -54.344112 
L 275.718779 -54.585798 
L 273.214616 -54.795079 
L 270.710453 -54.974009 
L 268.20629 -55.125137 
L 265.702126 -55.251358 
L 263.197963 -55.355797 
L 260.6938 -55.441737 
L 258.189637 -55.512571 
L 255.685474 -55.57177 
L 253.18131 -55.622831 
L 250.677147 -55.669202 
L 248.172984 -55.714146 
L 245.668821 -55.760579 
L 243.164657 -55.810883 
L 240.660494 -55.86674 
L 238.156331 -55.929002 
L 235.652168 -55.99765 
L 233.148005 -56.071833 
L 230.643841 -56.150001 
L 228.139678 -56.230113 
L 225.635515 -56.309881 
L 223.131352 -56.387026 
L 220.627188 -56.459503 
L 218.123025 -56.525675 
L 215.618862 -56.584413 
L 213.114699 -56.63513 
L 210.610536 -56.677749 
L 208.106372 -56.712618 
z
" style="stroke: #3d3d3d; stroke-width: 1.25"/>
    </defs>
    <g clip-path="url(#p9ebbedee38)">
     <use xlink:href="#m324ece258a" x="0" y="339.01" style="fill: #7f7f7f; stroke: #3d3d3d; stroke-width: 1.25"/>
    </g>
   </g>
   <g id="matplotlib.axis_1">
    <g id="xtick_1">
     <g id="line2d_1">
      <defs>
       <path id="mf8c1126409" d="M 0 0 
L 0 3.5 
" style="stroke: #000000; stroke-width: 0.8"/>
      </defs>
      <g>
       <use xlink:href="#mf8c1126409" x="75.293793" y="299.518125" style="stroke: #000000; stroke-width: 0.8"/>
      </g>
     </g>
     <g id="text_1">
      <!-- 0 -->
      <g transform="translate(72.112543 314.116563) scale(0.1 -0.1)">
       <defs>
        <path id="DejaVuSans-30" d="M 2034 4250 
Q 1547 4250 1301 3770 
Q 1056 3291 1056 2328 
Q 1056 1369 1301 889 
Q 1547 409 2034 409 
Q 2525 409 2770 889 
Q 3016 1369 3016 2328 
Q 3016 3291 2770 3770 
Q 2525 4250 2034 4250 
z
M 2034 4750 
Q 2819 4750 3233 4129 
Q 3647 3509 3647 2328 
Q 3647 1150 3233 529 
Q 2819 -91 2034 -91 
Q 1250 -91 836 529 
Q 422 1150 422 2328 
Q 422 3509 836 4129 
Q 1250 4750 2034 4750 
z
" transform="scale(0.015625)"/>
       </defs>
       <use xlink:href="#DejaVuSans-30"/>
      </g>
     </g>
    </g>
    <g id="xtick_2">
     <g id="line2d_2">
      <g>
       <use xlink:href="#mf8c1126409" x="144.690728" y="299.518125" style="stroke: #000000; stroke-width: 0.8"/>
      </g>
     </g>
     <g id="text_2">
      <!-- 1 -->
      <g transform="translate(141.509478 314.116563) scale(0.1 -0.1)">
       <defs>
        <path id="DejaVuSans-31" d="M 794 531 
L 1825 531 
L 1825 4091 
L 703 3866 
L 703 4441 
L 1819 4666 
L 2450 4666 
L 2450 531 
L 3481 531 
L 3481 0 
L 794 0 
L 794 531 
z
" transform="scale(0.015625)"/>
       </defs>
       <use xlink:href="#DejaVuSans-31"/>
      </g>
     </g>
    </g>
    <g id="xtick_3">
     <g id="line2d_3">
      <g>
       <use xlink:href="#mf8c1126409" x="214.087663" y="299.518125" style="stroke: #000000; stroke-width: 0.8"/>
      </g>
     </g>
     <g id="text_3">
      <!-- 2 -->
      <g transform="translate(210.906413 314.116563) scale(0.1 -0.1)">
       <defs>
        <path id="DejaVuSans-32" d="M 1228 531 
L 3431 531 
L 3431 0 
L 469 0 
L 469 531 
Q 828 903 1448 1529 
Q 2069 2156 2228 2338 
Q 2531 2678 2651 2914 
Q 2772 3150 2772 3378 
Q 2772 3750 2511 3984 
Q 2250 4219 1831 4219 
Q 1534 4219 1204 4116 
Q 875 4013 500 3803 
L 500 4441 
Q 881 4594 1212 4672 
Q 1544 4750 1819 4750 
Q 2544 4750 2975 4387 
Q 3406 4025 3406 3419 
Q 3406 3131 3298 2873 
Q 3191 2616 2906 2266 
Q 2828 2175 2409 1742 
Q 1991 1309 1228 531 
z
" transform="scale(0.015625)"/>
       </defs>
       <use xlink:href="#DejaVuSans-32"/>
      </g>
     </g>
    </g>
    <g id="xtick_4">
     <g id="line2d_4">
      <g>
       <use xlink:href="#mf8c1126409" x="283.484597" y="299.518125" style="stroke: #000000; stroke-width: 0.8"/>
      </g>
     </g>
     <g id="text_4">
      <!-- 3 -->
      <g transform="translate(280.303347 314.116563) scale(0.1 -0.1)">
       <defs>
        <path id="DejaVuSans-33" d="M 2597 2516 
Q 3050 2419 3304 2112 
Q 3559 1806 3559 1356 
Q 3559 666 3084 287 
Q 2609 -91 1734 -91 
Q 1441 -91 1130 -33 
Q 819 25 488 141 
L 488 750 
Q 750 597 1062 519 
Q 1375 441 1716 441 
Q 2309 441 2620 675 
Q 2931 909 2931 1356 
Q 2931 1769 2642 2001 
Q 2353 2234 1838 2234 
L 1294 2234 
L 1294 2753 
L 1863 2753 
Q 2328 2753 2575 2939 
Q 2822 3125 2822 3475 
Q 2822 3834 2567 4026 
Q 2313 4219 1838 4219 
Q 1578 4219 1281 4162 
Q 984 4106 628 3988 
L 628 4550 
Q 988 4650 1302 4700 
Q 1616 4750 1894 4750 
Q 2613 4750 3031 4423 
Q 3450 4097 3450 3541 
Q 3450 3153 3228 2886 
Q 3006 2619 2597 2516 
z
" transform="scale(0.015625)"/>
       </defs>
       <use xlink:href="#DejaVuSans-33"/>
      </g>
     </g>
    </g>
    <g id="xtick_5">
     <g id="line2d_5">
      <g>
       <use xlink:href="#mf8c1126409" x="352.881532" y="299.518125" style="stroke: #000000; stroke-width: 0.8"/>
      </g>
     </g>
     <g id="text_5">
      <!-- 4 -->
      <g transform="translate(349.700282 314.116563) scale(0.1 -0.1)">
       <defs>
        <path id="DejaVuSans-34" d="M 2419 4116 
L 825 1625 
L 2419 1625 
L 2419 4116 
z
M 2253 4666 
L 3047 4666 
L 3047 1625 
L 3713 1625 
L 3713 1100 
L 3047 1100 
L 3047 0 
L 2419 0 
L 2419 1100 
L 313 1100 
L 313 1709 
L 2253 4666 
z
" transform="scale(0.015625)"/>
       </defs>
       <use xlink:href="#DejaVuSans-34"/>
      </g>
     </g>
    </g>
    <g id="xtick_6">
     <g id="line2d_6">
      <g>
       <use xlink:href="#mf8c1126409" x="422.278467" y="299.518125" style="stroke: #000000; stroke-width: 0.8"/>
      </g>
     </g>
     <g id="text_6">
      <!-- 5 -->
      <g transform="translate(419.097217 314.116563) scale(0.1 -0.1)">
       <defs>
        <path id="DejaVuSans-35" d="M 691 4666 
L 3169 4666 
L 3169 4134 
L 1269 4134 
L 1269 2991 
Q 1406 3038 1543 3061 
Q 1681 3084 1819 3084 
Q 2600 3084 3056 2656 
Q 3513 2228 3513 1497 
Q 3513 744 3044 326 
Q 2575 -91 1722 -91 
Q 1428 -91 1123 -41 
Q 819 9 494 109 
L 494 744 
Q 775 591 1075 516 
Q 1375 441 1709 441 
Q 2250 441 2565 725 
Q 2881 1009 2881 1497 
Q 2881 1984 2565 2268 
Q 2250 2553 1709 2553 
Q 1456 2553 1204 2497 
Q 953 2441 691 2322 
L 691 4666 
z
" transform="scale(0.015625)"/>
       </defs>
       <use xlink:href="#DejaVuSans-35"/>
      </g>
     </g>
    </g>
    <g id="xtick_7">
     <g id="line2d_7">
      <g>
       <use xlink:href="#mf8c1126409" x="491.675402" y="299.518125" style="stroke: #000000; stroke-width: 0.8"/>
      </g>
     </g>
     <g id="text_7">
      <!-- 6 -->
      <g transform="translate(488.494152 314.116563) scale(0.1 -0.1)">
       <defs>
        <path id="DejaVuSans-36" d="M 2113 2584 
Q 1688 2584 1439 2293 
Q 1191 2003 1191 1497 
Q 1191 994 1439 701 
Q 1688 409 2113 409 
Q 2538 409 2786 701 
Q 3034 994 3034 1497 
Q 3034 2003 2786 2293 
Q 2538 2584 2113 2584 
z
M 3366 4563 
L 3366 3988 
Q 3128 4100 2886 4159 
Q 2644 4219 2406 4219 
Q 1781 4219 1451 3797 
Q 1122 3375 1075 2522 
Q 1259 2794 1537 2939 
Q 1816 3084 2150 3084 
Q 2853 3084 3261 2657 
Q 3669 2231 3669 1497 
Q 3669 778 3244 343 
Q 2819 -91 2113 -91 
Q 1303 -91 875 529 
Q 447 1150 447 2328 
Q 447 3434 972 4092 
Q 1497 4750 2381 4750 
Q 2619 4750 2861 4703 
Q 3103 4656 3366 4563 
z
" transform="scale(0.015625)"/>
       </defs>
       <use xlink:href="#DejaVuSans-36"/>
      </g>
     </g>
    </g>
    <g id="text_8">
     <!-- Alb -->
     <g transform="translate(272.613125 329.314375) scale(0.12 -0.12)">
      <defs>
       <path id="DejaVuSans-41" d="M 2188 4044 
L 1331 1722 
L 3047 1722 
L 2188 4044 
z
M 1831 4666 
L 2547 4666 
L 4325 0 
L 3669 0 
L 3244 1197 
L 1141 1197 
L 716 0 
L 50 0 
L 1831 4666 
z
" transform="scale(0.015625)"/>
       <path id="DejaVuSans-6c" d="M 603 4863 
L 1178 4863 
L 1178 0 
L 603 0 
L 603 4863 
z
" transform="scale(0.015625)"/>
       <path id="DejaVuSans-62" d="M 3116 1747 
Q 3116 2381 2855 2742 
Q 2594 3103 2138 3103 
Q 1681 3103 1420 2742 
Q 1159 2381 1159 1747 
Q 1159 1113 1420 752 
Q 1681 391 2138 391 
Q 2594 391 2855 752 
Q 3116 1113 3116 1747 
z
M 1159 2969 
Q 1341 3281 1617 3432 
Q 1894 3584 2278 3584 
Q 2916 3584 3314 3078 
Q 3713 2572 3713 1747 
Q 3713 922 3314 415 
Q 2916 -91 2278 -91 
Q 1894 -91 1617 61 
Q 1341 213 1159 525 
L 1159 0 
L 581 0 
L 581 4863 
L 1159 4863 
L 1159 2969 
z
" transform="scale(0.015625)"/>
      </defs>
      <use xlink:href="#DejaVuSans-41"/>
      <use xlink:href="#DejaVuSans-6c" x="68.408203"/>
      <use xlink:href="#DejaVuSans-62" x="96.191406"/>
     </g>
    </g>
   </g>
   <g id="matplotlib.axis_2">
    <g id="ytick_1">
     <g id="line2d_8">
      <defs>
       <path id="m44ed7549a4" d="M 0 0 
L -3.5 0 
" style="stroke: #000000; stroke-width: 0.8"/>
      </defs>
      <g>
       <use xlink:href="#m44ed7549a4" x="58.993437" y="39.643125" style="stroke: #000000; stroke-width: 0.8"/>
      </g>
     </g>
     <g id="text_9">
      <!-- 60-69 -->
      <g transform="translate(22.935625 43.442344) scale(0.1 -0.1)">
       <defs>
        <path id="DejaVuSans-2d" d="M 313 2009 
L 1997 2009 
L 1997 1497 
L 313 1497 
L 313 2009 
z
" transform="scale(0.015625)"/>
        <path id="DejaVuSans-39" d="M 703 97 
L 703 672 
Q 941 559 1184 500 
Q 1428 441 1663 441 
Q 2288 441 2617 861 
Q 2947 1281 2994 2138 
Q 2813 1869 2534 1725 
Q 2256 1581 1919 1581 
Q 1219 1581 811 2004 
Q 403 2428 403 3163 
Q 403 3881 828 4315 
Q 1253 4750 1959 4750 
Q 2769 4750 3195 4129 
Q 3622 3509 3622 2328 
Q 3622 1225 3098 567 
Q 2575 -91 1691 -91 
Q 1453 -91 1209 -44 
Q 966 3 703 97 
z
M 1959 2075 
Q 2384 2075 2632 2365 
Q 2881 2656 2881 3163 
Q 2881 3666 2632 3958 
Q 2384 4250 1959 4250 
Q 1534 4250 1286 3958 
Q 1038 3666 1038 3163 
Q 1038 2656 1286 2365 
Q 1534 2075 1959 2075 
z
" transform="scale(0.015625)"/>
       </defs>
       <use xlink:href="#DejaVuSans-36"/>
       <use xlink:href="#DejaVuSans-30" x="63.623047"/>
       <use xlink:href="#DejaVuSans-2d" x="127.246094"/>
       <use xlink:href="#DejaVuSans-36" x="163.330078"/>
       <use xlink:href="#DejaVuSans-39" x="226.953125"/>
      </g>
     </g>
    </g>
    <g id="ytick_2">
     <g id="line2d_9">
      <g>
       <use xlink:href="#m44ed7549a4" x="58.993437" y="74.293125" style="stroke: #000000; stroke-width: 0.8"/>
      </g>
     </g>
     <g id="text_10">
      <!-- 30-39 -->
      <g transform="translate(22.935625 78.092344) scale(0.1 -0.1)">
       <use xlink:href="#DejaVuSans-33"/>
       <use xlink:href="#DejaVuSans-30" x="63.623047"/>
       <use xlink:href="#DejaVuSans-2d" x="127.246094"/>
       <use xlink:href="#DejaVuSans-33" x="163.330078"/>
       <use xlink:href="#DejaVuSans-39" x="226.953125"/>
      </g>
     </g>
    </g>
    <g id="ytick_3">
     <g id="line2d_10">
      <g>
       <use xlink:href="#m44ed7549a4" x="58.993437" y="108.943125" style="stroke: #000000; stroke-width: 0.8"/>
      </g>
     </g>
     <g id="text_11">
      <!-- 50-59 -->
      <g transform="translate(22.935625 112.742344) scale(0.1 -0.1)">
       <use xlink:href="#DejaVuSans-35"/>
       <use xlink:href="#DejaVuSans-30" x="63.623047"/>
       <use xlink:href="#DejaVuSans-2d" x="127.246094"/>
       <use xlink:href="#DejaVuSans-35" x="163.330078"/>
       <use xlink:href="#DejaVuSans-39" x="226.953125"/>
      </g>
     </g>
    </g>
    <g id="ytick_4">
     <g id="line2d_11">
      <g>
       <use xlink:href="#m44ed7549a4" x="58.993437" y="143.593125" style="stroke: #000000; stroke-width: 0.8"/>
      </g>
     </g>
     <g id="text_12">
      <!-- 70-79 -->
      <g transform="translate(22.935625 147.392344) scale(0.1 -0.1)">
       <defs>
        <path id="DejaVuSans-37" d="M 525 4666 
L 3525 4666 
L 3525 4397 
L 1831 0 
L 1172 0 
L 2766 4134 
L 525 4134 
L 525 4666 
z
" transform="scale(0.015625)"/>
       </defs>
       <use xlink:href="#DejaVuSans-37"/>
       <use xlink:href="#DejaVuSans-30" x="63.623047"/>
       <use xlink:href="#DejaVuSans-2d" x="127.246094"/>
       <use xlink:href="#DejaVuSans-37" x="163.330078"/>
       <use xlink:href="#DejaVuSans-39" x="226.953125"/>
      </g>
     </g>
    </g>
    <g id="ytick_5">
     <g id="line2d_12">
      <g>
       <use xlink:href="#m44ed7549a4" x="58.993437" y="178.243125" style="stroke: #000000; stroke-width: 0.8"/>
      </g>
     </g>
     <g id="text_13">
      <!-- 40-49 -->
      <g transform="translate(22.935625 182.042344) scale(0.1 -0.1)">
       <use xlink:href="#DejaVuSans-34"/>
       <use xlink:href="#DejaVuSans-30" x="63.623047"/>
       <use xlink:href="#DejaVuSans-2d" x="127.246094"/>
       <use xlink:href="#DejaVuSans-34" x="163.330078"/>
       <use xlink:href="#DejaVuSans-39" x="226.953125"/>
      </g>
     </g>
    </g>
    <g id="ytick_6">
     <g id="line2d_13">
      <g>
       <use xlink:href="#m44ed7549a4" x="58.993437" y="212.893125" style="stroke: #000000; stroke-width: 0.8"/>
      </g>
     </g>
     <g id="text_14">
      <!-- 18-29 -->
      <g transform="translate(22.935625 216.692344) scale(0.1 -0.1)">
       <defs>
        <path id="DejaVuSans-38" d="M 2034 2216 
Q 1584 2216 1326 1975 
Q 1069 1734 1069 1313 
Q 1069 891 1326 650 
Q 1584 409 2034 409 
Q 2484 409 2743 651 
Q 3003 894 3003 1313 
Q 3003 1734 2745 1975 
Q 2488 2216 2034 2216 
z
M 1403 2484 
Q 997 2584 770 2862 
Q 544 3141 544 3541 
Q 544 4100 942 4425 
Q 1341 4750 2034 4750 
Q 2731 4750 3128 4425 
Q 3525 4100 3525 3541 
Q 3525 3141 3298 2862 
Q 3072 2584 2669 2484 
Q 3125 2378 3379 2068 
Q 3634 1759 3634 1313 
Q 3634 634 3220 271 
Q 2806 -91 2034 -91 
Q 1263 -91 848 271 
Q 434 634 434 1313 
Q 434 1759 690 2068 
Q 947 2378 1403 2484 
z
M 1172 3481 
Q 1172 3119 1398 2916 
Q 1625 2713 2034 2713 
Q 2441 2713 2670 2916 
Q 2900 3119 2900 3481 
Q 2900 3844 2670 4047 
Q 2441 4250 2034 4250 
Q 1625 4250 1398 4047 
Q 1172 3844 1172 3481 
z
" transform="scale(0.015625)"/>
       </defs>
       <use xlink:href="#DejaVuSans-31"/>
       <use xlink:href="#DejaVuSans-38" x="63.623047"/>
       <use xlink:href="#DejaVuSans-2d" x="127.246094"/>
       <use xlink:href="#DejaVuSans-32" x="163.330078"/>
       <use xlink:href="#DejaVuSans-39" x="226.953125"/>
      </g>
     </g>
    </g>
    <g id="ytick_7">
     <g id="line2d_14">
      <g>
       <use xlink:href="#m44ed7549a4" x="58.993437" y="247.543125" style="stroke: #000000; stroke-width: 0.8"/>
      </g>
     </g>
     <g id="text_15">
      <!-- 80-89 -->
      <g transform="translate(22.935625 251.342344) scale(0.1 -0.1)">
       <use xlink:href="#DejaVuSans-38"/>
       <use xlink:href="#DejaVuSans-30" x="63.623047"/>
       <use xlink:href="#DejaVuSans-2d" x="127.246094"/>
       <use xlink:href="#DejaVuSans-38" x="163.330078"/>
       <use xlink:href="#DejaVuSans-39" x="226.953125"/>
      </g>
     </g>
    </g>
    <g id="ytick_8">
     <g id="line2d_15">
      <g>
       <use xlink:href="#m44ed7549a4" x="58.993437" y="282.193125" style="stroke: #000000; stroke-width: 0.8"/>
      </g>
     </g>
     <g id="text_16">
      <!-- 90-99 -->
      <g transform="translate(22.935625 285.992344) scale(0.1 -0.1)">
       <use xlink:href="#DejaVuSans-39"/>
       <use xlink:href="#DejaVuSans-30" x="63.623047"/>
       <use xlink:href="#DejaVuSans-2d" x="127.246094"/>
       <use xlink:href="#DejaVuSans-39" x="163.330078"/>
       <use xlink:href="#DejaVuSans-39" x="226.953125"/>
      </g>
     </g>
    </g>
    <g id="text_17">
     <!-- Age_Group -->
     <g transform="translate(16.10625 193.786875) rotate(-90) scale(0.12 -0.12)">
      <defs>
       <path id="DejaVuSans-67" d="M 2906 1791 
Q 2906 2416 2648 2759 
Q 2391 3103 1925 3103 
Q 1463 3103 1205 2759 
Q 947 2416 947 1791 
Q 947 1169 1205 825 
Q 1463 481 1925 481 
Q 2391 481 2648 825 
Q 2906 1169 2906 1791 
z
M 3481 434 
Q 3481 -459 3084 -895 
Q 2688 -1331 1869 -1331 
Q 1566 -1331 1297 -1286 
Q 1028 -1241 775 -1147 
L 775 -588 
Q 1028 -725 1275 -790 
Q 1522 -856 1778 -856 
Q 2344 -856 2625 -561 
Q 2906 -266 2906 331 
L 2906 616 
Q 2728 306 2450 153 
Q 2172 0 1784 0 
Q 1141 0 747 490 
Q 353 981 353 1791 
Q 353 2603 747 3093 
Q 1141 3584 1784 3584 
Q 2172 3584 2450 3431 
Q 2728 3278 2906 2969 
L 2906 3500 
L 3481 3500 
L 3481 434 
z
" transform="scale(0.015625)"/>
       <path id="DejaVuSans-65" d="M 3597 1894 
L 3597 1613 
L 953 1613 
Q 991 1019 1311 708 
Q 1631 397 2203 397 
Q 2534 397 2845 478 
Q 3156 559 3463 722 
L 3463 178 
Q 3153 47 2828 -22 
Q 2503 -91 2169 -91 
Q 1331 -91 842 396 
Q 353 884 353 1716 
Q 353 2575 817 3079 
Q 1281 3584 2069 3584 
Q 2775 3584 3186 3129 
Q 3597 2675 3597 1894 
z
M 3022 2063 
Q 3016 2534 2758 2815 
Q 2500 3097 2075 3097 
Q 1594 3097 1305 2825 
Q 1016 2553 972 2059 
L 3022 2063 
z
" transform="scale(0.015625)"/>
       <path id="DejaVuSans-5f" d="M 3263 -1063 
L 3263 -1509 
L -63 -1509 
L -63 -1063 
L 3263 -1063 
z
" transform="scale(0.015625)"/>
       <path id="DejaVuSans-47" d="M 3809 666 
L 3809 1919 
L 2778 1919 
L 2778 2438 
L 4434 2438 
L 4434 434 
Q 4069 175 3628 42 
Q 3188 -91 2688 -91 
Q 1594 -91 976 548 
Q 359 1188 359 2328 
Q 359 3472 976 4111 
Q 1594 4750 2688 4750 
Q 3144 4750 3555 4637 
Q 3966 4525 4313 4306 
L 4313 3634 
Q 3963 3931 3569 4081 
Q 3175 4231 2741 4231 
Q 1884 4231 1454 3753 
Q 1025 3275 1025 2328 
Q 1025 1384 1454 906 
Q 1884 428 2741 428 
Q 3075 428 3337 486 
Q 3600 544 3809 666 
z
" transform="scale(0.015625)"/>
       <path id="DejaVuSans-72" d="M 2631 2963 
Q 2534 3019 2420 3045 
Q 2306 3072 2169 3072 
Q 1681 3072 1420 2755 
Q 1159 2438 1159 1844 
L 1159 0 
L 581 0 
L 581 3500 
L 1159 3500 
L 1159 2956 
Q 1341 3275 1631 3429 
Q 1922 3584 2338 3584 
Q 2397 3584 2469 3576 
Q 2541 3569 2628 3553 
L 2631 2963 
z
" transform="scale(0.015625)"/>
       <path id="DejaVuSans-6f" d="M 1959 3097 
Q 1497 3097 1228 2736 
Q 959 2375 959 1747 
Q 959 1119 1226 758 
Q 1494 397 1959 397 
Q 2419 397 2687 759 
Q 2956 1122 2956 1747 
Q 2956 2369 2687 2733 
Q 2419 3097 1959 3097 
z
M 1959 3584 
Q 2709 3584 3137 3096 
Q 3566 2609 3566 1747 
Q 3566 888 3137 398 
Q 2709 -91 1959 -91 
Q 1206 -91 779 398 
Q 353 888 353 1747 
Q 353 2609 779 3096 
Q 1206 3584 1959 3584 
z
" transform="scale(0.015625)"/>
       <path id="DejaVuSans-75" d="M 544 1381 
L 544 3500 
L 1119 3500 
L 1119 1403 
Q 1119 906 1312 657 
Q 1506 409 1894 409 
Q 2359 409 2629 706 
Q 2900 1003 2900 1516 
L 2900 3500 
L 3475 3500 
L 3475 0 
L 2900 0 
L 2900 538 
Q 2691 219 2414 64 
Q 2138 -91 1772 -91 
Q 1169 -91 856 284 
Q 544 659 544 1381 
z
M 1991 3584 
L 1991 3584 
z
" transform="scale(0.015625)"/>
       <path id="DejaVuSans-70" d="M 1159 525 
L 1159 -1331 
L 581 -1331 
L 581 3500 
L 1159 3500 
L 1159 2969 
Q 1341 3281 1617 3432 
Q 1894 3584 2278 3584 
Q 2916 3584 3314 3078 
Q 3713 2572 3713 1747 
Q 3713 922 3314 415 
Q 2916 -91 2278 -91 
Q 1894 -91 1617 61 
Q 1341 213 1159 525 
z
M 3116 1747 
Q 3116 2381 2855 2742 
Q 2594 3103 2138 3103 
Q 1681 3103 1420 2742 
Q 1159 2381 1159 1747 
Q 1159 1113 1420 752 
Q 1681 391 2138 391 
Q 2594 391 2855 752 
Q 3116 1113 3116 1747 
z
" transform="scale(0.015625)"/>
      </defs>
      <use xlink:href="#DejaVuSans-41"/>
      <use xlink:href="#DejaVuSans-67" x="68.408203"/>
      <use xlink:href="#DejaVuSans-65" x="131.884766"/>
      <use xlink:href="#DejaVuSans-5f" x="193.408203"/>
      <use xlink:href="#DejaVuSans-47" x="243.408203"/>
      <use xlink:href="#DejaVuSans-72" x="320.898438"/>
      <use xlink:href="#DejaVuSans-6f" x="359.761719"/>
      <use xlink:href="#DejaVuSans-75" x="420.943359"/>
      <use xlink:href="#DejaVuSans-70" x="484.322266"/>
     </g>
    </g>
   </g>
   <g id="line2d_16">
    <path d="M 276.544904 39.643125 
L 443.097548 39.643125 
" clip-path="url(#p9ebbedee38)" style="fill: none; stroke: #3d3d3d; stroke-width: 1.875; stroke-linecap: square"/>
   </g>
   <g id="line2d_17">
    <path d="M 339.002145 39.643125 
L 380.640306 39.643125 
" clip-path="url(#p9ebbedee38)" style="fill: none; stroke: #3d3d3d; stroke-width: 5.625; stroke-linecap: square"/>
   </g>
   <g id="line2d_18">
    <path d="M 359.821226 39.643125 
" clip-path="url(#p9ebbedee38)" style="fill: none; stroke: #3d3d3d; stroke-width: 1.5; stroke-linecap: square"/>
    <defs>
     <path id="mc8a9ce733a" d="M 0 2.34375 
L 0 -2.34375 
" style="stroke: #ffffff; stroke-width: 1.125"/>
    </defs>
    <g clip-path="url(#p9ebbedee38)">
     <use xlink:href="#mc8a9ce733a" x="359.821226" y="39.643125" style="fill: #ffffff; stroke: #ffffff; stroke-width: 1.125"/>
    </g>
   </g>
   <g id="line2d_19">
    <path d="M 283.484597 74.293125 
L 443.097548 74.293125 
" clip-path="url(#p9ebbedee38)" style="fill: none; stroke: #3d3d3d; stroke-width: 1.875; stroke-linecap: square"/>
   </g>
   <g id="line2d_20">
    <path d="M 345.941839 74.293125 
L 387.58 74.293125 
" clip-path="url(#p9ebbedee38)" style="fill: none; stroke: #3d3d3d; stroke-width: 5.625; stroke-linecap: square"/>
   </g>
   <g id="line2d_21">
    <path d="M 373.700613 74.293125 
" clip-path="url(#p9ebbedee38)" style="fill: none; stroke: #3d3d3d; stroke-width: 1.5; stroke-linecap: square"/>
    <g clip-path="url(#p9ebbedee38)">
     <use xlink:href="#mc8a9ce733a" x="373.700613" y="74.293125" style="fill: #ffffff; stroke: #ffffff; stroke-width: 1.125"/>
    </g>
   </g>
   <g id="line2d_22">
    <path d="M 276.544904 108.943125 
L 436.157854 108.943125 
" clip-path="url(#p9ebbedee38)" style="fill: none; stroke: #3d3d3d; stroke-width: 1.875; stroke-linecap: square"/>
   </g>
   <g id="line2d_23">
    <path d="M 339.002145 108.943125 
L 380.640306 108.943125 
" clip-path="url(#p9ebbedee38)" style="fill: none; stroke: #3d3d3d; stroke-width: 5.625; stroke-linecap: square"/>
   </g>
   <g id="line2d_24">
    <path d="M 366.760919 108.943125 
" clip-path="url(#p9ebbedee38)" style="fill: none; stroke: #3d3d3d; stroke-width: 1.5; stroke-linecap: square"/>
    <g clip-path="url(#p9ebbedee38)">
     <use xlink:href="#mc8a9ce733a" x="366.760919" y="108.943125" style="fill: #ffffff; stroke: #ffffff; stroke-width: 1.125"/>
    </g>
   </g>
   <g id="line2d_25">
    <path d="M 290.424291 143.593125 
L 422.278467 143.593125 
" clip-path="url(#p9ebbedee38)" style="fill: none; stroke: #3d3d3d; stroke-width: 1.875; stroke-linecap: square"/>
   </g>
   <g id="line2d_26">
    <path d="M 339.002145 143.593125 
L 373.700613 143.593125 
" clip-path="url(#p9ebbedee38)" style="fill: none; stroke: #3d3d3d; stroke-width: 5.625; stroke-linecap: square"/>
   </g>
   <g id="line2d_27">
    <path d="M 359.821226 143.593125 
" clip-path="url(#p9ebbedee38)" style="fill: none; stroke: #3d3d3d; stroke-width: 1.5; stroke-linecap: square"/>
    <g clip-path="url(#p9ebbedee38)">
     <use xlink:href="#mc8a9ce733a" x="359.821226" y="143.593125" style="fill: #ffffff; stroke: #ffffff; stroke-width: 1.125"/>
    </g>
   </g>
   <g id="line2d_28">
    <path d="M 269.60521 178.243125 
L 450.037241 178.243125 
" clip-path="url(#p9ebbedee38)" style="fill: none; stroke: #3d3d3d; stroke-width: 1.875; stroke-linecap: square"/>
   </g>
   <g id="line2d_29">
    <path d="M 339.002145 178.243125 
L 387.58 178.243125 
" clip-path="url(#p9ebbedee38)" style="fill: none; stroke: #3d3d3d; stroke-width: 5.625; stroke-linecap: square"/>
   </g>
   <g id="line2d_30">
    <path d="M 366.760919 178.243125 
" clip-path="url(#p9ebbedee38)" style="fill: none; stroke: #3d3d3d; stroke-width: 1.5; stroke-linecap: square"/>
    <g clip-path="url(#p9ebbedee38)">
     <use xlink:href="#mc8a9ce733a" x="366.760919" y="178.243125" style="fill: #ffffff; stroke: #ffffff; stroke-width: 1.125"/>
    </g>
   </g>
   <g id="line2d_31">
    <path d="M 276.544904 212.893125 
L 450.037241 212.893125 
" clip-path="url(#p9ebbedee38)" style="fill: none; stroke: #3d3d3d; stroke-width: 1.875; stroke-linecap: square"/>
   </g>
   <g id="line2d_32">
    <path d="M 345.941839 212.893125 
L 394.519693 212.893125 
" clip-path="url(#p9ebbedee38)" style="fill: none; stroke: #3d3d3d; stroke-width: 5.625; stroke-linecap: square"/>
   </g>
   <g id="line2d_33">
    <path d="M 373.700613 212.893125 
" clip-path="url(#p9ebbedee38)" style="fill: none; stroke: #3d3d3d; stroke-width: 1.5; stroke-linecap: square"/>
    <g clip-path="url(#p9ebbedee38)">
     <use xlink:href="#mc8a9ce733a" x="373.700613" y="212.893125" style="fill: #ffffff; stroke: #ffffff; stroke-width: 1.125"/>
    </g>
   </g>
   <g id="line2d_34">
    <path d="M 297.363984 247.543125 
L 408.39908 247.543125 
" clip-path="url(#p9ebbedee38)" style="fill: none; stroke: #3d3d3d; stroke-width: 1.875; stroke-linecap: square"/>
   </g>
   <g id="line2d_35">
    <path d="M 339.002145 247.543125 
L 366.760919 247.543125 
" clip-path="url(#p9ebbedee38)" style="fill: none; stroke: #3d3d3d; stroke-width: 5.625; stroke-linecap: square"/>
   </g>
   <g id="line2d_36">
    <path d="M 352.881532 247.543125 
" clip-path="url(#p9ebbedee38)" style="fill: none; stroke: #3d3d3d; stroke-width: 1.5; stroke-linecap: square"/>
    <g clip-path="url(#p9ebbedee38)">
     <use xlink:href="#mc8a9ce733a" x="352.881532" y="247.543125" style="fill: #ffffff; stroke: #ffffff; stroke-width: 1.125"/>
    </g>
   </g>
   <g id="line2d_37">
    <path d="M 290.424291 282.193125 
L 387.58 282.193125 
" clip-path="url(#p9ebbedee38)" style="fill: none; stroke: #3d3d3d; stroke-width: 1.875; stroke-linecap: square"/>
   </g>
   <g id="line2d_38">
    <path d="M 325.122758 282.193125 
L 359.821226 282.193125 
" clip-path="url(#p9ebbedee38)" style="fill: none; stroke: #3d3d3d; stroke-width: 5.625; stroke-linecap: square"/>
   </g>
   <g id="line2d_39">
    <path d="M 345.941839 282.193125 
" clip-path="url(#p9ebbedee38)" style="fill: none; stroke: #3d3d3d; stroke-width: 1.5; stroke-linecap: square"/>
    <g clip-path="url(#p9ebbedee38)">
     <use xlink:href="#mc8a9ce733a" x="345.941839" y="282.193125" style="fill: #ffffff; stroke: #ffffff; stroke-width: 1.125"/>
    </g>
   </g>
   <g id="patch_3">
    <path d="M 58.993437 299.518125 
L 58.993437 22.318125 
" style="fill: none; stroke: #000000; stroke-width: 0.8; stroke-linejoin: miter; stroke-linecap: square"/>
   </g>
   <g id="patch_4">
    <path d="M 505.393438 299.518125 
L 505.393438 22.318125 
" style="fill: none; stroke: #000000; stroke-width: 0.8; stroke-linejoin: miter; stroke-linecap: square"/>
   </g>
   <g id="patch_5">
    <path d="M 58.993438 299.518125 
L 505.393438 299.518125 
" style="fill: none; stroke: #000000; stroke-width: 0.8; stroke-linejoin: miter; stroke-linecap: square"/>
   </g>
   <g id="patch_6">
    <path d="M 58.993438 22.318125 
L 505.393438 22.318125 
" style="fill: none; stroke: #000000; stroke-width: 0.8; stroke-linejoin: miter; stroke-linecap: square"/>
   </g>
   <g id="text_18">
    <!-- Distribution of Alb by Age_Group -->
    <g transform="translate(183.970625 16.318125) scale(0.12 -0.12)">
     <defs>
      <path id="DejaVuSans-44" d="M 1259 4147 
L 1259 519 
L 2022 519 
Q 2988 519 3436 956 
Q 3884 1394 3884 2338 
Q 3884 3275 3436 3711 
Q 2988 4147 2022 4147 
L 1259 4147 
z
M 628 4666 
L 1925 4666 
Q 3281 4666 3915 4102 
Q 4550 3538 4550 2338 
Q 4550 1131 3912 565 
Q 3275 0 1925 0 
L 628 0 
L 628 4666 
z
" transform="scale(0.015625)"/>
      <path id="DejaVuSans-69" d="M 603 3500 
L 1178 3500 
L 1178 0 
L 603 0 
L 603 3500 
z
M 603 4863 
L 1178 4863 
L 1178 4134 
L 603 4134 
L 603 4863 
z
" transform="scale(0.015625)"/>
      <path id="DejaVuSans-73" d="M 2834 3397 
L 2834 2853 
Q 2591 2978 2328 3040 
Q 2066 3103 1784 3103 
Q 1356 3103 1142 2972 
Q 928 2841 928 2578 
Q 928 2378 1081 2264 
Q 1234 2150 1697 2047 
L 1894 2003 
Q 2506 1872 2764 1633 
Q 3022 1394 3022 966 
Q 3022 478 2636 193 
Q 2250 -91 1575 -91 
Q 1294 -91 989 -36 
Q 684 19 347 128 
L 347 722 
Q 666 556 975 473 
Q 1284 391 1588 391 
Q 1994 391 2212 530 
Q 2431 669 2431 922 
Q 2431 1156 2273 1281 
Q 2116 1406 1581 1522 
L 1381 1569 
Q 847 1681 609 1914 
Q 372 2147 372 2553 
Q 372 3047 722 3315 
Q 1072 3584 1716 3584 
Q 2034 3584 2315 3537 
Q 2597 3491 2834 3397 
z
" transform="scale(0.015625)"/>
      <path id="DejaVuSans-74" d="M 1172 4494 
L 1172 3500 
L 2356 3500 
L 2356 3053 
L 1172 3053 
L 1172 1153 
Q 1172 725 1289 603 
Q 1406 481 1766 481 
L 2356 481 
L 2356 0 
L 1766 0 
Q 1100 0 847 248 
Q 594 497 594 1153 
L 594 3053 
L 172 3053 
L 172 3500 
L 594 3500 
L 594 4494 
L 1172 4494 
z
" transform="scale(0.015625)"/>
      <path id="DejaVuSans-6e" d="M 3513 2113 
L 3513 0 
L 2938 0 
L 2938 2094 
Q 2938 2591 2744 2837 
Q 2550 3084 2163 3084 
Q 1697 3084 1428 2787 
Q 1159 2491 1159 1978 
L 1159 0 
L 581 0 
L 581 3500 
L 1159 3500 
L 1159 2956 
Q 1366 3272 1645 3428 
Q 1925 3584 2291 3584 
Q 2894 3584 3203 3211 
Q 3513 2838 3513 2113 
z
" transform="scale(0.015625)"/>
      <path id="DejaVuSans-20" transform="scale(0.015625)"/>
      <path id="DejaVuSans-66" d="M 2375 4863 
L 2375 4384 
L 1825 4384 
Q 1516 4384 1395 4259 
Q 1275 4134 1275 3809 
L 1275 3500 
L 2222 3500 
L 2222 3053 
L 1275 3053 
L 1275 0 
L 697 0 
L 697 3053 
L 147 3053 
L 147 3500 
L 697 3500 
L 697 3744 
Q 697 4328 969 4595 
Q 1241 4863 1831 4863 
L 2375 4863 
z
" transform="scale(0.015625)"/>
      <path id="DejaVuSans-79" d="M 2059 -325 
Q 1816 -950 1584 -1140 
Q 1353 -1331 966 -1331 
L 506 -1331 
L 506 -850 
L 844 -850 
Q 1081 -850 1212 -737 
Q 1344 -625 1503 -206 
L 1606 56 
L 191 3500 
L 800 3500 
L 1894 763 
L 2988 3500 
L 3597 3500 
L 2059 -325 
z
" transform="scale(0.015625)"/>
     </defs>
     <use xlink:href="#DejaVuSans-44"/>
     <use xlink:href="#DejaVuSans-69" x="77.001953"/>
     <use xlink:href="#DejaVuSans-73" x="104.785156"/>
     <use xlink:href="#DejaVuSans-74" x="156.884766"/>
     <use xlink:href="#DejaVuSans-72" x="196.09375"/>
     <use xlink:href="#DejaVuSans-69" x="237.207031"/>
     <use xlink:href="#DejaVuSans-62" x="264.990234"/>
     <use xlink:href="#DejaVuSans-75" x="328.466797"/>
     <use xlink:href="#DejaVuSans-74" x="391.845703"/>
     <use xlink:href="#DejaVuSans-69" x="431.054688"/>
     <use xlink:href="#DejaVuSans-6f" x="458.837891"/>
     <use xlink:href="#DejaVuSans-6e" x="520.019531"/>
     <use xlink:href="#DejaVuSans-20" x="583.398438"/>
     <use xlink:href="#DejaVuSans-6f" x="615.185547"/>
     <use xlink:href="#DejaVuSans-66" x="676.367188"/>
     <use xlink:href="#DejaVuSans-20" x="711.572266"/>
     <use xlink:href="#DejaVuSans-41" x="743.359375"/>
     <use xlink:href="#DejaVuSans-6c" x="811.767578"/>
     <use xlink:href="#DejaVuSans-62" x="839.550781"/>
     <use xlink:href="#DejaVuSans-20" x="903.027344"/>
     <use xlink:href="#DejaVuSans-62" x="934.814453"/>
     <use xlink:href="#DejaVuSans-79" x="998.291016"/>
     <use xlink:href="#DejaVuSans-20" x="1057.470703"/>
     <use xlink:href="#DejaVuSans-41" x="1089.257812"/>
     <use xlink:href="#DejaVuSans-67" x="1157.666016"/>
     <use xlink:href="#DejaVuSans-65" x="1221.142578"/>
     <use xlink:href="#DejaVuSans-5f" x="1282.666016"/>
     <use xlink:href="#DejaVuSans-47" x="1332.666016"/>
     <use xlink:href="#DejaVuSans-72" x="1410.15625"/>
     <use xlink:href="#DejaVuSans-6f" x="1449.019531"/>
     <use xlink:href="#DejaVuSans-75" x="1510.201172"/>
     <use xlink:href="#DejaVuSans-70" x="1573.580078"/>
    </g>
   </g>
  </g>
 </g>
 <defs>
  <clipPath id="p9ebbedee38">
   <rect x="58.993437" y="22.318125" width="446.4" height="277.2"/>
  </clipPath>
 </defs>
</svg>
