<?xml version="1.0" encoding="utf-8" standalone="no"?>
<!DOCTYPE svg PUBLIC "-//W3C//DTD SVG 1.1//EN"
  "http://www.w3.org/Graphics/SVG/1.1/DTD/svg11.dtd">
<svg xmlns:xlink="http://www.w3.org/1999/xlink" width="512.593437pt" height="339.01pt" viewBox="0 0 512.593437 339.01" xmlns="http://www.w3.org/2000/svg" version="1.1">
 <metadata>
  <rdf:RDF xmlns:dc="http://purl.org/dc/elements/1.1/" xmlns:cc="http://creativecommons.org/ns#" xmlns:rdf="http://www.w3.org/1999/02/22-rdf-syntax-ns#">
   <cc:Work>
    <dc:type rdf:resource="http://purl.org/dc/dcmitype/StillImage"/>
    <dc:date>2024-08-05T22:53:19.547039</dc:date>
    <dc:format>image/svg+xml</dc:format>
    <dc:creator>
     <cc:Agent>
      <dc:title>Matplotlib v3.9.0, https://matplotlib.org/</dc:title>
     </cc:Agent>
    </dc:creator>
   </cc:Work>
  </rdf:RDF>
 </metadata>
 <defs>
  <style type="text/css">*{stroke-linejoin: round; stroke-linecap: butt}</style>
 </defs>
 <g id="figure_1">
  <g id="patch_1">
   <path d="M 0 339.01 
L 512.593437 339.01 
L 512.593437 0 
L 0 0 
z
" style="fill: #ffffff"/>
  </g>
  <g id="axes_1">
   <g id="patch_2">
    <path d="M 58.993437 299.518125 
L 505.393438 299.518125 
L 505.393438 22.318125 
L 58.993437 22.318125 
z
" style="fill: #ffffff"/>
   </g>
   <g id="PolyCollection_1">
    <defs>
     <path id="m8709fb1d48" d="M 143.46699 -299.364649 
L 143.46699 -299.369101 
L 146.917854 -299.375936 
L 150.368718 -299.387943 
L 153.819582 -299.398084 
L 157.270447 -299.406214 
L 160.721311 -299.423168 
L 164.172175 -299.444591 
L 167.623039 -299.45123 
L 171.073903 -299.439425 
L 174.524767 -299.427218 
L 177.975631 -299.42185 
L 181.426495 -299.417675 
L 184.877359 -299.418643 
L 188.328223 -299.432657 
L 191.779087 -299.457245 
L 195.229951 -299.478103 
L 198.680815 -299.499434 
L 202.131679 -299.539656 
L 205.582543 -299.588359 
L 209.033407 -299.6237 
L 212.484271 -299.642959 
L 215.935135 -299.676043 
L 219.385999 -299.741138 
L 222.836863 -299.825141 
L 226.287727 -299.950336 
L 229.738591 -300.13178 
L 233.189455 -300.334129 
L 236.640319 -300.55193 
L 240.091183 -300.853522 
L 243.542047 -301.215558 
L 246.992911 -301.526315 
L 250.443775 -301.850501 
L 253.894639 -302.313405 
L 257.345503 -302.96856 
L 260.796367 -303.827145 
L 264.247231 -304.882034 
L 267.698095 -306.159433 
L 271.148959 -307.631809 
L 274.599823 -309.113494 
L 278.050687 -310.425414 
L 281.501551 -311.633927 
L 284.952415 -312.73188 
L 288.403279 -313.226875 
L 291.854143 -312.561902 
L 295.305007 -310.959446 
L 298.755871 -309.076757 
L 302.206735 -307.183174 
L 305.657599 -305.416301 
L 309.108463 -303.89474 
L 312.559327 -302.601946 
L 316.010191 -301.55779 
L 319.461055 -300.805634 
L 322.911919 -300.333713 
L 326.362783 -300.047814 
L 329.813648 -299.850317 
L 333.264512 -299.698797 
L 336.715376 -299.569524 
L 340.16624 -299.473217 
L 343.617104 -299.430735 
L 347.067968 -299.41765 
L 350.518832 -299.40255 
L 353.969696 -299.394108 
L 357.42056 -299.39994 
L 360.871424 -299.406805 
L 364.322288 -299.405293 
L 367.773152 -299.395355 
L 371.224016 -299.384999 
L 374.67488 -299.383309 
L 378.125744 -299.38667 
L 381.576608 -299.387654 
L 385.027472 -299.384041 
L 388.478336 -299.376467 
L 391.9292 -299.371081 
L 395.380064 -299.372697 
L 398.830928 -299.379039 
L 402.281792 -299.382202 
L 405.732656 -299.380936 
L 409.18352 -299.381733 
L 412.634384 -299.381283 
L 416.085248 -299.375273 
L 419.536112 -299.369484 
L 422.986976 -299.367298 
L 426.43784 -299.366911 
L 429.888704 -299.366877 
L 433.339568 -299.366875 
L 436.790432 -299.366875 
L 440.241296 -299.366875 
L 443.69216 -299.366875 
L 447.143024 -299.366875 
L 450.593888 -299.366875 
L 454.044752 -299.366875 
L 457.495616 -299.366876 
L 460.94648 -299.366893 
L 464.397344 -299.367124 
L 467.848208 -299.368666 
L 471.299072 -299.373589 
L 474.749936 -299.379978 
L 478.2008 -299.380188 
L 481.651664 -299.373917 
L 485.102528 -299.368815 
L 485.102528 -299.364935 
L 485.102528 -299.364935 
L 481.651664 -299.359833 
L 478.2008 -299.353562 
L 474.749936 -299.353772 
L 471.299072 -299.360161 
L 467.848208 -299.365084 
L 464.397344 -299.366626 
L 460.94648 -299.366857 
L 457.495616 -299.366874 
L 454.044752 -299.366875 
L 450.593888 -299.366875 
L 447.143024 -299.366875 
L 443.69216 -299.366875 
L 440.241296 -299.366875 
L 436.790432 -299.366875 
L 433.339568 -299.366875 
L 429.888704 -299.366873 
L 426.43784 -299.366839 
L 422.986976 -299.366452 
L 419.536112 -299.364266 
L 416.085248 -299.358477 
L 412.634384 -299.352467 
L 409.18352 -299.352017 
L 405.732656 -299.352814 
L 402.281792 -299.351548 
L 398.830928 -299.354711 
L 395.380064 -299.361053 
L 391.9292 -299.362669 
L 388.478336 -299.357283 
L 385.027472 -299.349709 
L 381.576608 -299.346096 
L 378.125744 -299.34708 
L 374.67488 -299.350441 
L 371.224016 -299.348751 
L 367.773152 -299.338395 
L 364.322288 -299.328457 
L 360.871424 -299.326945 
L 357.42056 -299.33381 
L 353.969696 -299.339642 
L 350.518832 -299.3312 
L 347.067968 -299.3161 
L 343.617104 -299.303015 
L 340.16624 -299.260533 
L 336.715376 -299.164226 
L 333.264512 -299.034953 
L 329.813648 -298.883433 
L 326.362783 -298.685936 
L 322.911919 -298.400037 
L 319.461055 -297.928116 
L 316.010191 -297.17596 
L 312.559327 -296.131804 
L 309.108463 -294.83901 
L 305.657599 -293.317449 
L 302.206735 -291.550576 
L 298.755871 -289.656993 
L 295.305007 -287.774304 
L 291.854143 -286.171848 
L 288.403279 -285.506875 
L 284.952415 -286.00187 
L 281.501551 -287.099823 
L 278.050687 -288.308336 
L 274.599823 -289.620256 
L 271.148959 -291.101941 
L 267.698095 -292.574317 
L 264.247231 -293.851716 
L 260.796367 -294.906605 
L 257.345503 -295.76519 
L 253.894639 -296.420345 
L 250.443775 -296.883249 
L 246.992911 -297.207435 
L 243.542047 -297.518192 
L 240.091183 -297.880228 
L 236.640319 -298.18182 
L 233.189455 -298.399621 
L 229.738591 -298.60197 
L 226.287727 -298.783414 
L 222.836863 -298.908609 
L 219.385999 -298.992612 
L 215.935135 -299.057707 
L 212.484271 -299.090791 
L 209.033407 -299.11005 
L 205.582543 -299.145391 
L 202.131679 -299.194094 
L 198.680815 -299.234316 
L 195.229951 -299.255647 
L 191.779087 -299.276505 
L 188.328223 -299.301093 
L 184.877359 -299.315107 
L 181.426495 -299.316075 
L 177.975631 -299.3119 
L 174.524767 -299.306532 
L 171.073903 -299.294325 
L 167.623039 -299.28252 
L 164.172175 -299.289159 
L 160.721311 -299.310582 
L 157.270447 -299.327536 
L 153.819582 -299.335666 
L 150.368718 -299.345807 
L 146.917854 -299.357814 
L 143.46699 -299.364649 
z
" style="stroke: #3d3d3d; stroke-width: 1.25"/>
    </defs>
    <g clip-path="url(#p53511d93b3)">
     <use xlink:href="#m8709fb1d48" x="0" y="339.01" style="fill: #3274a1; stroke: #3d3d3d; stroke-width: 1.25"/>
    </g>
   </g>
   <g id="PolyCollection_2">
    <defs>
     <path id="m3f58716703" d="M 79.284347 -264.713198 
L 79.284347 -264.720552 
L 82.030356 -264.725549 
L 84.776365 -264.732989 
L 87.522374 -264.740443 
L 90.268384 -264.744016 
L 93.014393 -264.741485 
L 95.760402 -264.734455 
L 98.506411 -264.726822 
L 101.252421 -264.721591 
L 103.99843 -264.719697 
L 106.744439 -264.721142 
L 109.490449 -264.725945 
L 112.236458 -264.733385 
L 114.982467 -264.740736 
L 117.728476 -264.744072 
L 120.474486 -264.74142 
L 123.220495 -264.734918 
L 125.966504 -264.729429 
L 128.712513 -264.729545 
L 131.458523 -264.737809 
L 134.204532 -264.754004 
L 136.950541 -264.774586 
L 139.69655 -264.79331 
L 142.44256 -264.803818 
L 145.188569 -264.802705 
L 147.934578 -264.79144 
L 150.680588 -264.776682 
L 153.426597 -264.768175 
L 156.172606 -264.773648 
L 158.918615 -264.79333 
L 161.664625 -264.819039 
L 164.410634 -264.839618 
L 167.156643 -264.84824 
L 169.902652 -264.845276 
L 172.648662 -264.835267 
L 175.394671 -264.822387 
L 178.14068 -264.809203 
L 180.886689 -264.798549 
L 183.632699 -264.794646 
L 186.378708 -264.801727 
L 189.124717 -264.821736 
L 191.870727 -264.852757 
L 194.616736 -264.889027 
L 197.362745 -264.923382 
L 200.108754 -264.951592 
L 202.854764 -264.975509 
L 205.600773 -265.002417 
L 208.346782 -265.041122 
L 211.092791 -265.095969 
L 213.838801 -265.161727 
L 216.58481 -265.225965 
L 219.330819 -265.27861 
L 222.076828 -265.318495 
L 224.822838 -265.354701 
L 227.568847 -265.408703 
L 230.314856 -265.50926 
L 233.060865 -265.670146 
L 235.806875 -265.871922 
L 238.552884 -266.07745 
L 241.298893 -266.267204 
L 244.044903 -266.45266 
L 246.790912 -266.659647 
L 249.536921 -266.910114 
L 252.28293 -267.217963 
L 255.02894 -267.588828 
L 257.774949 -268.02051 
L 260.520958 -268.51679 
L 263.266967 -269.111954 
L 266.012977 -269.874773 
L 268.758986 -270.867022 
L 271.504995 -272.079262 
L 274.251004 -273.40779 
L 276.997014 -274.710209 
L 279.743023 -275.888975 
L 282.489032 -276.912026 
L 285.235042 -277.754922 
L 287.981051 -278.344495 
L 290.72706 -278.576875 
L 293.473069 -278.386996 
L 296.219079 -277.78659 
L 298.965088 -276.836643 
L 301.711097 -275.602902 
L 304.457106 -274.153056 
L 307.203116 -272.591246 
L 309.949125 -271.065627 
L 312.695134 -269.708841 
L 315.441143 -268.569658 
L 318.187153 -267.623551 
L 320.933162 -266.843527 
L 323.679171 -266.231513 
L 326.425181 -265.78402 
L 329.17119 -265.464737 
L 331.917199 -265.22715 
L 334.663208 -265.045881 
L 337.409218 -264.915085 
L 340.155227 -264.82941 
L 342.901236 -264.777299 
L 345.647245 -264.746845 
L 348.393255 -264.730024 
L 351.139264 -264.721769 
L 351.139264 -264.711981 
L 351.139264 -264.711981 
L 348.393255 -264.703726 
L 345.647245 -264.686905 
L 342.901236 -264.656451 
L 340.155227 -264.60434 
L 337.409218 -264.518665 
L 334.663208 -264.387869 
L 331.917199 -264.2066 
L 329.17119 -263.969013 
L 326.425181 -263.64973 
L 323.679171 -263.202237 
L 320.933162 -262.590223 
L 318.187153 -261.810199 
L 315.441143 -260.864092 
L 312.695134 -259.724909 
L 309.949125 -258.368123 
L 307.203116 -256.842504 
L 304.457106 -255.280694 
L 301.711097 -253.830848 
L 298.965088 -252.597107 
L 296.219079 -251.64716 
L 293.473069 -251.046754 
L 290.72706 -250.856875 
L 287.981051 -251.089255 
L 285.235042 -251.678828 
L 282.489032 -252.521724 
L 279.743023 -253.544775 
L 276.997014 -254.723541 
L 274.251004 -256.02596 
L 271.504995 -257.354488 
L 268.758986 -258.566728 
L 266.012977 -259.558977 
L 263.266967 -260.321796 
L 260.520958 -260.91696 
L 257.774949 -261.41324 
L 255.02894 -261.844922 
L 252.28293 -262.215787 
L 249.536921 -262.523636 
L 246.790912 -262.774103 
L 244.044903 -262.98109 
L 241.298893 -263.166546 
L 238.552884 -263.3563 
L 235.806875 -263.561828 
L 233.060865 -263.763604 
L 230.314856 -263.92449 
L 227.568847 -264.025047 
L 224.822838 -264.079049 
L 222.076828 -264.115255 
L 219.330819 -264.15514 
L 216.58481 -264.207785 
L 213.838801 -264.272023 
L 211.092791 -264.337781 
L 208.346782 -264.392628 
L 205.600773 -264.431333 
L 202.854764 -264.458241 
L 200.108754 -264.482158 
L 197.362745 -264.510368 
L 194.616736 -264.544723 
L 191.870727 -264.580993 
L 189.124717 -264.612014 
L 186.378708 -264.632023 
L 183.632699 -264.639104 
L 180.886689 -264.635201 
L 178.14068 -264.624547 
L 175.394671 -264.611363 
L 172.648662 -264.598483 
L 169.902652 -264.588474 
L 167.156643 -264.58551 
L 164.410634 -264.594132 
L 161.664625 -264.614711 
L 158.918615 -264.64042 
L 156.172606 -264.660102 
L 153.426597 -264.665575 
L 150.680588 -264.657068 
L 147.934578 -264.64231 
L 145.188569 -264.631045 
L 142.44256 -264.629932 
L 139.69655 -264.64044 
L 136.950541 -264.659164 
L 134.204532 -264.679746 
L 131.458523 -264.695941 
L 128.712513 -264.704205 
L 125.966504 -264.704321 
L 123.220495 -264.698832 
L 120.474486 -264.69233 
L 117.728476 -264.689678 
L 114.982467 -264.693014 
L 112.236458 -264.700365 
L 109.490449 -264.707805 
L 106.744439 -264.712608 
L 103.99843 -264.714053 
L 101.252421 -264.712159 
L 98.506411 -264.706928 
L 95.760402 -264.699295 
L 93.014393 -264.692265 
L 90.268384 -264.689734 
L 87.522374 -264.693307 
L 84.776365 -264.700761 
L 82.030356 -264.708201 
L 79.284347 -264.713198 
z
" style="stroke: #3d3d3d; stroke-width: 1.25"/>
    </defs>
    <g clip-path="url(#p53511d93b3)">
     <use xlink:href="#m3f58716703" x="0" y="339.01" style="fill: #e1812c; stroke: #3d3d3d; stroke-width: 1.25"/>
    </g>
   </g>
   <g id="PolyCollection_3">
    <defs>
     <path id="m0d202a6f6c" d="M 136.137537 -230.064741 
L 136.137537 -230.069009 
L 139.356881 -230.073759 
L 142.576224 -230.080285 
L 145.795568 -230.082986 
L 149.014912 -230.080838 
L 152.234256 -230.082368 
L 155.4536 -230.091899 
L 158.672944 -230.098874 
L 161.892288 -230.094137 
L 165.111632 -230.088115 
L 168.330976 -230.094993 
L 171.55032 -230.109902 
L 174.769664 -230.118616 
L 177.989008 -230.123601 
L 181.208352 -230.136564 
L 184.427696 -230.150193 
L 187.647039 -230.151833 
L 190.866383 -230.152623 
L 194.085727 -230.170901 
L 197.305071 -230.2119 
L 200.524415 -230.274019 
L 203.743759 -230.343293 
L 206.963103 -230.397666 
L 210.182447 -230.442795 
L 213.401791 -230.502857 
L 216.621135 -230.576568 
L 219.840479 -230.657237 
L 223.059823 -230.761028 
L 226.279167 -230.916283 
L 229.498511 -231.128833 
L 232.717855 -231.34903 
L 235.937198 -231.556694 
L 239.156542 -231.805748 
L 242.375886 -232.082322 
L 245.59523 -232.323229 
L 248.814574 -232.576535 
L 252.033918 -232.902833 
L 255.253262 -233.294416 
L 258.472606 -233.812916 
L 261.69195 -234.545477 
L 264.911294 -235.471202 
L 268.130638 -236.520095 
L 271.349982 -237.693727 
L 274.569326 -239.062121 
L 277.78867 -240.593906 
L 281.008014 -242.092379 
L 284.227357 -243.294956 
L 287.446701 -243.926875 
L 290.666045 -243.83869 
L 293.885389 -243.077121 
L 297.104733 -241.754479 
L 300.324077 -240.059374 
L 303.543421 -238.252868 
L 306.762765 -236.505621 
L 309.982109 -234.932034 
L 313.201453 -233.654642 
L 316.420797 -232.678486 
L 319.640141 -231.887468 
L 322.859485 -231.224532 
L 326.078829 -230.748273 
L 329.298173 -230.484697 
L 332.517516 -230.356705 
L 335.73686 -230.276829 
L 338.956204 -230.212982 
L 342.175548 -230.162732 
L 345.394892 -230.125833 
L 348.614236 -230.10655 
L 351.83358 -230.102661 
L 355.052924 -230.098019 
L 358.272268 -230.085753 
L 361.491612 -230.075702 
L 364.710956 -230.075034 
L 367.9303 -230.080251 
L 371.149644 -230.082791 
L 374.368988 -230.079522 
L 377.588331 -230.076939 
L 380.807675 -230.079813 
L 384.027019 -230.082952 
L 387.246363 -230.080734 
L 390.465707 -230.077929 
L 393.685051 -230.082421 
L 396.904395 -230.092141 
L 400.123739 -230.096159 
L 403.343083 -230.089063 
L 406.562427 -230.077694 
L 409.781771 -230.070224 
L 413.001115 -230.067524 
L 416.220459 -230.066953 
L 419.439803 -230.066881 
L 422.659147 -230.066875 
L 425.87849 -230.066876 
L 429.097834 -230.066892 
L 432.317178 -230.067058 
L 435.536522 -230.068065 
L 438.755866 -230.071536 
L 441.97521 -230.077872 
L 445.194554 -230.082497 
L 448.413898 -230.080237 
L 451.633242 -230.073757 
L 454.852586 -230.069009 
L 454.852586 -230.064741 
L 454.852586 -230.064741 
L 451.633242 -230.059993 
L 448.413898 -230.053513 
L 445.194554 -230.051253 
L 441.97521 -230.055878 
L 438.755866 -230.062214 
L 435.536522 -230.065685 
L 432.317178 -230.066692 
L 429.097834 -230.066858 
L 425.87849 -230.066874 
L 422.659147 -230.066875 
L 419.439803 -230.066869 
L 416.220459 -230.066797 
L 413.001115 -230.066226 
L 409.781771 -230.063526 
L 406.562427 -230.056056 
L 403.343083 -230.044687 
L 400.123739 -230.037591 
L 396.904395 -230.041609 
L 393.685051 -230.051329 
L 390.465707 -230.055821 
L 387.246363 -230.053016 
L 384.027019 -230.050798 
L 380.807675 -230.053937 
L 377.588331 -230.056811 
L 374.368988 -230.054228 
L 371.149644 -230.050959 
L 367.9303 -230.053499 
L 364.710956 -230.058716 
L 361.491612 -230.058048 
L 358.272268 -230.047997 
L 355.052924 -230.035731 
L 351.83358 -230.031089 
L 348.614236 -230.0272 
L 345.394892 -230.007917 
L 342.175548 -229.971018 
L 338.956204 -229.920768 
L 335.73686 -229.856921 
L 332.517516 -229.777045 
L 329.298173 -229.649053 
L 326.078829 -229.385477 
L 322.859485 -228.909218 
L 319.640141 -228.246282 
L 316.420797 -227.455264 
L 313.201453 -226.479108 
L 309.982109 -225.201716 
L 306.762765 -223.628129 
L 303.543421 -221.880882 
L 300.324077 -220.074376 
L 297.104733 -218.379271 
L 293.885389 -217.056629 
L 290.666045 -216.29506 
L 287.446701 -216.206875 
L 284.227357 -216.838794 
L 281.008014 -218.041371 
L 277.78867 -219.539844 
L 274.569326 -221.071629 
L 271.349982 -222.440023 
L 268.130638 -223.613655 
L 264.911294 -224.662548 
L 261.69195 -225.588273 
L 258.472606 -226.320834 
L 255.253262 -226.839334 
L 252.033918 -227.230917 
L 248.814574 -227.557215 
L 245.59523 -227.810521 
L 242.375886 -228.051428 
L 239.156542 -228.328002 
L 235.937198 -228.577056 
L 232.717855 -228.78472 
L 229.498511 -229.004917 
L 226.279167 -229.217467 
L 223.059823 -229.372722 
L 219.840479 -229.476513 
L 216.621135 -229.557182 
L 213.401791 -229.630893 
L 210.182447 -229.690955 
L 206.963103 -229.736084 
L 203.743759 -229.790457 
L 200.524415 -229.859731 
L 197.305071 -229.92185 
L 194.085727 -229.962849 
L 190.866383 -229.981127 
L 187.647039 -229.981917 
L 184.427696 -229.983557 
L 181.208352 -229.997186 
L 177.989008 -230.010149 
L 174.769664 -230.015134 
L 171.55032 -230.023848 
L 168.330976 -230.038757 
L 165.111632 -230.045635 
L 161.892288 -230.039613 
L 158.672944 -230.034876 
L 155.4536 -230.041851 
L 152.234256 -230.051382 
L 149.014912 -230.052912 
L 145.795568 -230.050764 
L 142.576224 -230.053465 
L 139.356881 -230.059991 
L 136.137537 -230.064741 
z
" style="stroke: #3d3d3d; stroke-width: 1.25"/>
    </defs>
    <g clip-path="url(#p53511d93b3)">
     <use xlink:href="#m0d202a6f6c" x="0" y="339.01" style="fill: #3a923a; stroke: #3d3d3d; stroke-width: 1.25"/>
    </g>
   </g>
   <g id="PolyCollection_4">
    <defs>
     <path id="m3926a3f7a6" d="M 130.06194 -195.414122 
L 130.06194 -195.419628 
L 133.127958 -195.426076 
L 136.193976 -195.434651 
L 139.259994 -195.436727 
L 142.326012 -195.429691 
L 145.39203 -195.421657 
L 148.458048 -195.417907 
L 151.524066 -195.417004 
L 154.590084 -195.416884 
L 157.656101 -195.416877 
L 160.722119 -195.416899 
L 163.788137 -195.417153 
L 166.854155 -195.418724 
L 169.920173 -195.423987 
L 172.986191 -195.432692 
L 176.052209 -195.437208 
L 179.118227 -195.431984 
L 182.184245 -195.423368 
L 185.250263 -195.418531 
L 188.31628 -195.417595 
L 191.382298 -195.420163 
L 194.448316 -195.430706 
L 197.514334 -195.45617 
L 200.580352 -195.498418 
L 203.64637 -195.551924 
L 206.712388 -195.605384 
L 209.778406 -195.644128 
L 212.844424 -195.673539 
L 215.910441 -195.728758 
L 218.976459 -195.819282 
L 222.042477 -195.905989 
L 225.108495 -195.974969 
L 228.174513 -196.054649 
L 231.240531 -196.147829 
L 234.306549 -196.263779 
L 237.372567 -196.443207 
L 240.438585 -196.657116 
L 243.504602 -196.833542 
L 246.57062 -196.992163 
L 249.636638 -197.249437 
L 252.702656 -197.742954 
L 255.768674 -198.535438 
L 258.834692 -199.552895 
L 261.90071 -200.701963 
L 264.966728 -201.98104 
L 268.032746 -203.390837 
L 271.098764 -204.827295 
L 274.164781 -206.193281 
L 277.230799 -207.493958 
L 280.296817 -208.604925 
L 283.362835 -209.259868 
L 286.428853 -209.276875 
L 289.494871 -208.664063 
L 292.560889 -207.66955 
L 295.626907 -206.560294 
L 298.692925 -205.318041 
L 301.758942 -203.802086 
L 304.82496 -202.092283 
L 307.890978 -200.457491 
L 310.956996 -199.101395 
L 314.023014 -198.069717 
L 317.089032 -197.315266 
L 320.15505 -196.765034 
L 323.221068 -196.370923 
L 326.287086 -196.098858 
L 329.353104 -195.90758 
L 332.419121 -195.784636 
L 335.485139 -195.716371 
L 338.551157 -195.660754 
L 341.617175 -195.590215 
L 344.683193 -195.513804 
L 347.749211 -195.456155 
L 350.815229 -195.427901 
L 353.881247 -195.421138 
L 356.947265 -195.428265 
L 360.013282 -195.447993 
L 363.0793 -195.469249 
L 366.145318 -195.471758 
L 369.211336 -195.455239 
L 372.277354 -195.440859 
L 375.343372 -195.438513 
L 378.40939 -195.437336 
L 381.475408 -195.429727 
L 384.541426 -195.421651 
L 387.607444 -195.417981 
L 390.673461 -195.417713 
L 393.739479 -195.42056 
L 396.805497 -195.427867 
L 399.871515 -195.435877 
L 402.937533 -195.435864 
L 406.003551 -195.427844 
L 409.069569 -195.420547 
L 412.135587 -195.417711 
L 415.201605 -195.417986 
L 418.267622 -195.421663 
L 421.33364 -195.429691 
L 424.399658 -195.436727 
L 427.465676 -195.434651 
L 430.531694 -195.426076 
L 433.597712 -195.419628 
L 433.597712 -195.414122 
L 433.597712 -195.414122 
L 430.531694 -195.407674 
L 427.465676 -195.399099 
L 424.399658 -195.397023 
L 421.33364 -195.404059 
L 418.267622 -195.412087 
L 415.201605 -195.415764 
L 412.135587 -195.416039 
L 409.069569 -195.413203 
L 406.003551 -195.405906 
L 402.937533 -195.397886 
L 399.871515 -195.397873 
L 396.805497 -195.405883 
L 393.739479 -195.41319 
L 390.673461 -195.416037 
L 387.607444 -195.415769 
L 384.541426 -195.412099 
L 381.475408 -195.404023 
L 378.40939 -195.396414 
L 375.343372 -195.395237 
L 372.277354 -195.392891 
L 369.211336 -195.378511 
L 366.145318 -195.361992 
L 363.0793 -195.364501 
L 360.013282 -195.385757 
L 356.947265 -195.405485 
L 353.881247 -195.412612 
L 350.815229 -195.405849 
L 347.749211 -195.377595 
L 344.683193 -195.319946 
L 341.617175 -195.243535 
L 338.551157 -195.172996 
L 335.485139 -195.117379 
L 332.419121 -195.049114 
L 329.353104 -194.92617 
L 326.287086 -194.734892 
L 323.221068 -194.462827 
L 320.15505 -194.068716 
L 317.089032 -193.518484 
L 314.023014 -192.764033 
L 310.956996 -191.732355 
L 307.890978 -190.376259 
L 304.82496 -188.741467 
L 301.758942 -187.031664 
L 298.692925 -185.515709 
L 295.626907 -184.273456 
L 292.560889 -183.1642 
L 289.494871 -182.169687 
L 286.428853 -181.556875 
L 283.362835 -181.573882 
L 280.296817 -182.228825 
L 277.230799 -183.339792 
L 274.164781 -184.640469 
L 271.098764 -186.006455 
L 268.032746 -187.442913 
L 264.966728 -188.85271 
L 261.90071 -190.131787 
L 258.834692 -191.280855 
L 255.768674 -192.298312 
L 252.702656 -193.090796 
L 249.636638 -193.584313 
L 246.57062 -193.841587 
L 243.504602 -194.000208 
L 240.438585 -194.176634 
L 237.372567 -194.390543 
L 234.306549 -194.569971 
L 231.240531 -194.685921 
L 228.174513 -194.779101 
L 225.108495 -194.858781 
L 222.042477 -194.927761 
L 218.976459 -195.014468 
L 215.910441 -195.104992 
L 212.844424 -195.160211 
L 209.778406 -195.189622 
L 206.712388 -195.228366 
L 203.64637 -195.281826 
L 200.580352 -195.335332 
L 197.514334 -195.37758 
L 194.448316 -195.403044 
L 191.382298 -195.413587 
L 188.31628 -195.416155 
L 185.250263 -195.415219 
L 182.184245 -195.410382 
L 179.118227 -195.401766 
L 176.052209 -195.396542 
L 172.986191 -195.401058 
L 169.920173 -195.409763 
L 166.854155 -195.415026 
L 163.788137 -195.416597 
L 160.722119 -195.416851 
L 157.656101 -195.416873 
L 154.590084 -195.416866 
L 151.524066 -195.416746 
L 148.458048 -195.415843 
L 145.39203 -195.412093 
L 142.326012 -195.404059 
L 139.259994 -195.397023 
L 136.193976 -195.399099 
L 133.127958 -195.407674 
L 130.06194 -195.414122 
z
" style="stroke: #3d3d3d; stroke-width: 1.25"/>
    </defs>
    <g clip-path="url(#p53511d93b3)">
     <use xlink:href="#m3926a3f7a6" x="0" y="339.01" style="fill: #c03d3e; stroke: #3d3d3d; stroke-width: 1.25"/>
    </g>
   </g>
   <g id="PolyCollection_5">
    <defs>
     <path id="m70fe36499f" d="M 80.611624 -160.763886 
L 80.611624 -160.769864 
L 83.434344 -160.774819 
L 86.257064 -160.782133 
L 89.079785 -160.788051 
L 91.902505 -160.788113 
L 94.725225 -160.782267 
L 97.547945 -160.774936 
L 100.370665 -160.769926 
L 103.193385 -160.767709 
L 106.016105 -160.767041 
L 108.838825 -160.76691 
L 111.661545 -160.766967 
L 114.484265 -160.767381 
L 117.306985 -160.768936 
L 120.129705 -160.772958 
L 122.952426 -160.779931 
L 125.775146 -160.787546 
L 128.597866 -160.792033 
L 131.420586 -160.79282 
L 134.243306 -160.792811 
L 137.066026 -160.792798 
L 139.888746 -160.790637 
L 142.711466 -160.787558 
L 145.534186 -160.790023 
L 148.356906 -160.802514 
L 151.179626 -160.820009 
L 154.002346 -160.829821 
L 156.825067 -160.823429 
L 159.647787 -160.806035 
L 162.470507 -160.79208 
L 165.293227 -160.793252 
L 168.115947 -160.811233 
L 170.938667 -160.836071 
L 173.761387 -160.851083 
L 176.584107 -160.846966 
L 179.406827 -160.832384 
L 182.229547 -160.825216 
L 185.052267 -160.834209 
L 187.874987 -160.854812 
L 190.697708 -160.880819 
L 193.520428 -160.910376 
L 196.343148 -160.940181 
L 199.165868 -160.965832 
L 201.988588 -160.988607 
L 204.811308 -161.012025 
L 207.634028 -161.037943 
L 210.456748 -161.073687 
L 213.279468 -161.130618 
L 216.102188 -161.209786 
L 218.924908 -161.301417 
L 221.747628 -161.401495 
L 224.570349 -161.516412 
L 227.393069 -161.646936 
L 230.215789 -161.781613 
L 233.038509 -161.917709 
L 235.861229 -162.077202 
L 238.683949 -162.285115 
L 241.506669 -162.54197 
L 244.329389 -162.837084 
L 247.152109 -163.174258 
L 249.974829 -163.56059 
L 252.797549 -163.981713 
L 255.620269 -164.407919 
L 258.44299 -164.82511 
L 261.26571 -165.266329 
L 264.08843 -165.829558 
L 266.91115 -166.642644 
L 269.73387 -167.759241 
L 272.55659 -169.09651 
L 275.37931 -170.51477 
L 278.20203 -171.911163 
L 281.02475 -173.172501 
L 283.84747 -174.11386 
L 286.67019 -174.586584 
L 289.49291 -174.626875 
L 292.315631 -174.388584 
L 295.138351 -173.907956 
L 297.961071 -173.02771 
L 300.783791 -171.629035 
L 303.606511 -169.874558 
L 306.429231 -168.114664 
L 309.251951 -166.596833 
L 312.074671 -165.351511 
L 314.897391 -164.2942 
L 317.720111 -163.353116 
L 320.542831 -162.533605 
L 323.365551 -161.901162 
L 326.188272 -161.497222 
L 329.010992 -161.281743 
L 331.833712 -161.16426 
L 334.656432 -161.071476 
L 337.479152 -160.981002 
L 340.301872 -160.906378 
L 343.124592 -160.861018 
L 345.947312 -160.839035 
L 348.770032 -160.824489 
L 351.592752 -160.807957 
L 354.415472 -160.790683 
L 357.238192 -160.777592 
L 360.060913 -160.770531 
L 360.060913 -160.763219 
L 360.060913 -160.763219 
L 357.238192 -160.756158 
L 354.415472 -160.743067 
L 351.592752 -160.725793 
L 348.770032 -160.709261 
L 345.947312 -160.694715 
L 343.124592 -160.672732 
L 340.301872 -160.627372 
L 337.479152 -160.552748 
L 334.656432 -160.462274 
L 331.833712 -160.36949 
L 329.010992 -160.252007 
L 326.188272 -160.036528 
L 323.365551 -159.632588 
L 320.542831 -159.000145 
L 317.720111 -158.180634 
L 314.897391 -157.23955 
L 312.074671 -156.182239 
L 309.251951 -154.936917 
L 306.429231 -153.419086 
L 303.606511 -151.659192 
L 300.783791 -149.904715 
L 297.961071 -148.50604 
L 295.138351 -147.625794 
L 292.315631 -147.145166 
L 289.49291 -146.906875 
L 286.67019 -146.947166 
L 283.84747 -147.41989 
L 281.02475 -148.361249 
L 278.20203 -149.622587 
L 275.37931 -151.01898 
L 272.55659 -152.43724 
L 269.73387 -153.774509 
L 266.91115 -154.891106 
L 264.08843 -155.704192 
L 261.26571 -156.267421 
L 258.44299 -156.70864 
L 255.620269 -157.125831 
L 252.797549 -157.552037 
L 249.974829 -157.97316 
L 247.152109 -158.359492 
L 244.329389 -158.696666 
L 241.506669 -158.99178 
L 238.683949 -159.248635 
L 235.861229 -159.456548 
L 233.038509 -159.616041 
L 230.215789 -159.752137 
L 227.393069 -159.886814 
L 224.570349 -160.017338 
L 221.747628 -160.132255 
L 218.924908 -160.232333 
L 216.102188 -160.323964 
L 213.279468 -160.403132 
L 210.456748 -160.460063 
L 207.634028 -160.495807 
L 204.811308 -160.521725 
L 201.988588 -160.545143 
L 199.165868 -160.567918 
L 196.343148 -160.593569 
L 193.520428 -160.623374 
L 190.697708 -160.652931 
L 187.874987 -160.678938 
L 185.052267 -160.699541 
L 182.229547 -160.708534 
L 179.406827 -160.701366 
L 176.584107 -160.686784 
L 173.761387 -160.682667 
L 170.938667 -160.697679 
L 168.115947 -160.722517 
L 165.293227 -160.740498 
L 162.470507 -160.74167 
L 159.647787 -160.727715 
L 156.825067 -160.710321 
L 154.002346 -160.703929 
L 151.179626 -160.713741 
L 148.356906 -160.731236 
L 145.534186 -160.743727 
L 142.711466 -160.746192 
L 139.888746 -160.743113 
L 137.066026 -160.740952 
L 134.243306 -160.740939 
L 131.420586 -160.74093 
L 128.597866 -160.741717 
L 125.775146 -160.746204 
L 122.952426 -160.753819 
L 120.129705 -160.760792 
L 117.306985 -160.764814 
L 114.484265 -160.766369 
L 111.661545 -160.766783 
L 108.838825 -160.76684 
L 106.016105 -160.766709 
L 103.193385 -160.766041 
L 100.370665 -160.763824 
L 97.547945 -160.758814 
L 94.725225 -160.751483 
L 91.902505 -160.745637 
L 89.079785 -160.745699 
L 86.257064 -160.751617 
L 83.434344 -160.758931 
L 80.611624 -160.763886 
z
" style="stroke: #3d3d3d; stroke-width: 1.25"/>
    </defs>
    <g clip-path="url(#p53511d93b3)">
     <use xlink:href="#m70fe36499f" x="0" y="339.01" style="fill: #9372b2; stroke: #3d3d3d; stroke-width: 1.25"/>
    </g>
   </g>
   <g id="PolyCollection_6">
    <defs>
     <path id="m0841c73bce" d="M 141.105329 -126.110329 
L 141.105329 -126.123421 
L 143.465134 -126.131041 
L 145.824939 -126.142294 
L 148.184743 -126.154694 
L 150.544548 -126.163531 
L 152.904353 -126.164601 
L 155.264158 -126.157356 
L 157.623962 -126.145346 
L 159.983767 -126.133479 
L 162.343572 -126.124907 
L 164.703377 -126.120116 
L 167.063181 -126.11806 
L 169.422986 -126.11766 
L 171.782791 -126.118701 
L 174.142596 -126.122197 
L 176.5024 -126.130435 
L 178.862205 -126.146357 
L 181.22201 -126.171976 
L 183.581815 -126.20641 
L 185.94162 -126.245117 
L 188.301424 -126.281364 
L 190.661229 -126.309266 
L 193.021034 -126.326694 
L 195.380839 -126.336708 
L 197.740643 -126.346971 
L 200.100448 -126.367186 
L 202.460253 -126.405276 
L 204.820058 -126.463576 
L 207.179862 -126.536791 
L 209.539667 -126.613879 
L 211.899472 -126.684975 
L 214.259277 -126.749835 
L 216.619081 -126.819697 
L 218.978886 -126.908433 
L 221.338691 -127.020606 
L 223.698496 -127.148061 
L 226.058301 -127.275549 
L 228.418105 -127.385826 
L 230.77791 -127.460968 
L 233.137715 -127.487386 
L 235.49752 -127.46746 
L 237.857324 -127.426765 
L 240.217129 -127.405818 
L 242.576934 -127.441024 
L 244.936739 -127.549146 
L 247.296543 -127.722196 
L 249.656348 -127.930489 
L 252.016153 -128.133056 
L 254.375958 -128.296774 
L 256.735762 -128.416769 
L 259.095567 -128.522251 
L 261.455372 -128.661683 
L 263.815177 -128.882142 
L 266.174981 -129.222594 
L 268.534786 -129.720858 
L 270.894591 -130.414954 
L 273.254396 -131.327094 
L 275.614201 -132.441534 
L 277.974005 -133.694695 
L 280.33381 -134.984279 
L 282.693615 -136.196142 
L 285.05342 -137.244043 
L 287.413224 -138.101584 
L 289.773029 -138.795105 
L 292.132834 -139.355067 
L 294.492639 -139.7687 
L 296.852443 -139.976875 
L 299.212248 -139.909799 
L 301.572053 -139.522115 
L 303.931858 -138.803939 
L 306.291662 -137.777092 
L 308.651467 -136.493479 
L 311.011272 -135.037539 
L 313.371077 -133.522613 
L 315.730882 -132.072411 
L 318.090686 -130.79016 
L 320.450491 -129.731714 
L 322.810296 -128.900208 
L 325.170101 -128.262443 
L 327.529905 -127.771144 
L 329.88971 -127.38155 
L 332.249515 -127.062287 
L 334.60932 -126.800136 
L 336.969124 -126.594712 
L 339.328929 -126.445885 
L 341.688734 -126.345062 
L 344.048539 -126.277018 
L 346.408343 -126.22773 
L 348.768148 -126.189694 
L 351.127953 -126.161362 
L 353.487758 -126.143376 
L 355.847562 -126.135422 
L 358.207367 -126.135119 
L 360.567172 -126.138452 
L 362.926977 -126.141115 
L 365.286782 -126.140293 
L 367.646586 -126.135802 
L 370.006391 -126.129588 
L 372.366196 -126.123959 
L 374.726001 -126.120148 
L 374.726001 -126.113602 
L 374.726001 -126.113602 
L 372.366196 -126.109791 
L 370.006391 -126.104162 
L 367.646586 -126.097948 
L 365.286782 -126.093457 
L 362.926977 -126.092635 
L 360.567172 -126.095298 
L 358.207367 -126.098631 
L 355.847562 -126.098328 
L 353.487758 -126.090374 
L 351.127953 -126.072388 
L 348.768148 -126.044056 
L 346.408343 -126.00602 
L 344.048539 -125.956732 
L 341.688734 -125.888688 
L 339.328929 -125.787865 
L 336.969124 -125.639038 
L 334.60932 -125.433614 
L 332.249515 -125.171463 
L 329.88971 -124.8522 
L 327.529905 -124.462606 
L 325.170101 -123.971307 
L 322.810296 -123.333542 
L 320.450491 -122.502036 
L 318.090686 -121.44359 
L 315.730882 -120.161339 
L 313.371077 -118.711137 
L 311.011272 -117.196211 
L 308.651467 -115.740271 
L 306.291662 -114.456658 
L 303.931858 -113.429811 
L 301.572053 -112.711635 
L 299.212248 -112.323951 
L 296.852443 -112.256875 
L 294.492639 -112.46505 
L 292.132834 -112.878683 
L 289.773029 -113.438645 
L 287.413224 -114.132166 
L 285.05342 -114.989707 
L 282.693615 -116.037608 
L 280.33381 -117.249471 
L 277.974005 -118.539055 
L 275.614201 -119.792216 
L 273.254396 -120.906656 
L 270.894591 -121.818796 
L 268.534786 -122.512892 
L 266.174981 -123.011156 
L 263.815177 -123.351608 
L 261.455372 -123.572067 
L 259.095567 -123.711499 
L 256.735762 -123.816981 
L 254.375958 -123.936976 
L 252.016153 -124.100694 
L 249.656348 -124.303261 
L 247.296543 -124.511554 
L 244.936739 -124.684604 
L 242.576934 -124.792726 
L 240.217129 -124.827932 
L 237.857324 -124.806985 
L 235.49752 -124.76629 
L 233.137715 -124.746364 
L 230.77791 -124.772782 
L 228.418105 -124.847924 
L 226.058301 -124.958201 
L 223.698496 -125.085689 
L 221.338691 -125.213144 
L 218.978886 -125.325317 
L 216.619081 -125.414053 
L 214.259277 -125.483915 
L 211.899472 -125.548775 
L 209.539667 -125.619871 
L 207.179862 -125.696959 
L 204.820058 -125.770174 
L 202.460253 -125.828474 
L 200.100448 -125.866564 
L 197.740643 -125.886779 
L 195.380839 -125.897042 
L 193.021034 -125.907056 
L 190.661229 -125.924484 
L 188.301424 -125.952386 
L 185.94162 -125.988633 
L 183.581815 -126.02734 
L 181.22201 -126.061774 
L 178.862205 -126.087393 
L 176.5024 -126.103315 
L 174.142596 -126.111553 
L 171.782791 -126.115049 
L 169.422986 -126.11609 
L 167.063181 -126.11569 
L 164.703377 -126.113634 
L 162.343572 -126.108843 
L 159.983767 -126.100271 
L 157.623962 -126.088404 
L 155.264158 -126.076394 
L 152.904353 -126.069149 
L 150.544548 -126.070219 
L 148.184743 -126.079056 
L 145.824939 -126.091456 
L 143.465134 -126.102709 
L 141.105329 -126.110329 
z
" style="stroke: #3d3d3d; stroke-width: 1.25"/>
    </defs>
    <g clip-path="url(#p53511d93b3)">
     <use xlink:href="#m0841c73bce" x="0" y="339.01" style="fill: #845b53; stroke: #3d3d3d; stroke-width: 1.25"/>
    </g>
   </g>
   <g id="PolyCollection_7">
    <defs>
     <path id="mb11c8d0a8c" d="M 202.998366 -91.456903 
L 202.998366 -91.476847 
L 204.728953 -91.485451 
L 206.459541 -91.498215 
L 208.190128 -91.515029 
L 209.920716 -91.53484 
L 211.651303 -91.556187 
L 213.381891 -91.578373 
L 215.112478 -91.602727 
L 216.843065 -91.633148 
L 218.573653 -91.675242 
L 220.30424 -91.733959 
L 222.034828 -91.810394 
L 223.765415 -91.899375 
L 225.496003 -91.989845 
L 227.22659 -92.069155 
L 228.957177 -92.129929 
L 230.687765 -92.175656 
L 232.418352 -92.221068 
L 234.14894 -92.286488 
L 235.879527 -92.389735 
L 237.610115 -92.540887 
L 239.340702 -92.74248 
L 241.071289 -92.992766 
L 242.801877 -93.287283 
L 244.532464 -93.616815 
L 246.263052 -93.965102 
L 247.993639 -94.311774 
L 249.724227 -94.641981 
L 251.454814 -94.957402 
L 253.185401 -95.280273 
L 254.915989 -95.64608 
L 256.646576 -96.088354 
L 258.377164 -96.624193 
L 260.107751 -97.248175 
L 261.838339 -97.936967 
L 263.568926 -98.661772 
L 265.299513 -99.402964 
L 267.030101 -100.160045 
L 268.760688 -100.949932 
L 270.491276 -101.79031 
L 272.221863 -102.674062 
L 273.952451 -103.550774 
L 275.683038 -104.331634 
L 277.413625 -104.92032 
L 279.144213 -105.253594 
L 280.8748 -105.326875 
L 282.605388 -105.189661 
L 284.335975 -104.915461 
L 286.066563 -104.565787 
L 287.79715 -104.168239 
L 289.527737 -103.71718 
L 291.258325 -103.191696 
L 292.988912 -102.577907 
L 294.7195 -101.883619 
L 296.450087 -101.139608 
L 298.180675 -100.389014 
L 299.911262 -99.671134 
L 301.641849 -99.007292 
L 303.372437 -98.394678 
L 305.103024 -97.810295 
L 306.833612 -97.22295 
L 308.564199 -96.608172 
L 310.294787 -95.959914 
L 312.025374 -95.294349 
L 313.755961 -94.644422 
L 315.486549 -94.047821 
L 317.217136 -93.53388 
L 318.947724 -93.115138 
L 320.678311 -92.786712 
L 322.408899 -92.532607 
L 324.139486 -92.33465 
L 325.870073 -92.178964 
L 327.600661 -92.057264 
L 329.331248 -91.964063 
L 331.061836 -91.893337 
L 332.792423 -91.837611 
L 334.523011 -91.789693 
L 336.253598 -91.745014 
L 337.984185 -91.702397 
L 339.714773 -91.662774 
L 341.44536 -91.627183 
L 343.175948 -91.595646 
L 344.906535 -91.567473 
L 346.637123 -91.542267 
L 348.36771 -91.520548 
L 350.098297 -91.503563 
L 351.828885 -91.492634 
L 353.559472 -91.488582 
L 355.29006 -91.491421 
L 357.020647 -91.50016 
L 358.751235 -91.512626 
L 360.481822 -91.525523 
L 362.212409 -91.535076 
L 363.942997 -91.538248 
L 365.673584 -91.533941 
L 367.404172 -91.523425 
L 369.134759 -91.509656 
L 370.865347 -91.49591 
L 372.595934 -91.484554 
L 374.326521 -91.476532 
L 374.326521 -91.457218 
L 374.326521 -91.457218 
L 372.595934 -91.449196 
L 370.865347 -91.43784 
L 369.134759 -91.424094 
L 367.404172 -91.410325 
L 365.673584 -91.399809 
L 363.942997 -91.395502 
L 362.212409 -91.398674 
L 360.481822 -91.408227 
L 358.751235 -91.421124 
L 357.020647 -91.43359 
L 355.29006 -91.442329 
L 353.559472 -91.445168 
L 351.828885 -91.441116 
L 350.098297 -91.430187 
L 348.36771 -91.413202 
L 346.637123 -91.391483 
L 344.906535 -91.366277 
L 343.175948 -91.338104 
L 341.44536 -91.306567 
L 339.714773 -91.270976 
L 337.984185 -91.231353 
L 336.253598 -91.188736 
L 334.523011 -91.144057 
L 332.792423 -91.096139 
L 331.061836 -91.040413 
L 329.331248 -90.969687 
L 327.600661 -90.876486 
L 325.870073 -90.754786 
L 324.139486 -90.5991 
L 322.408899 -90.401143 
L 320.678311 -90.147038 
L 318.947724 -89.818612 
L 317.217136 -89.39987 
L 315.486549 -88.885929 
L 313.755961 -88.289328 
L 312.025374 -87.639401 
L 310.294787 -86.973836 
L 308.564199 -86.325578 
L 306.833612 -85.7108 
L 305.103024 -85.123455 
L 303.372437 -84.539072 
L 301.641849 -83.926458 
L 299.911262 -83.262616 
L 298.180675 -82.544736 
L 296.450087 -81.794142 
L 294.7195 -81.050131 
L 292.988912 -80.355843 
L 291.258325 -79.742054 
L 289.527737 -79.21657 
L 287.79715 -78.765511 
L 286.066563 -78.367963 
L 284.335975 -78.018289 
L 282.605388 -77.744089 
L 280.8748 -77.606875 
L 279.144213 -77.680156 
L 277.413625 -78.01343 
L 275.683038 -78.602116 
L 273.952451 -79.382976 
L 272.221863 -80.259688 
L 270.491276 -81.14344 
L 268.760688 -81.983818 
L 267.030101 -82.773705 
L 265.299513 -83.530786 
L 263.568926 -84.271978 
L 261.838339 -84.996783 
L 260.107751 -85.685575 
L 258.377164 -86.309557 
L 256.646576 -86.845396 
L 254.915989 -87.28767 
L 253.185401 -87.653477 
L 251.454814 -87.976348 
L 249.724227 -88.291769 
L 247.993639 -88.621976 
L 246.263052 -88.968648 
L 244.532464 -89.316935 
L 242.801877 -89.646467 
L 241.071289 -89.940984 
L 239.340702 -90.19127 
L 237.610115 -90.392863 
L 235.879527 -90.544015 
L 234.14894 -90.647262 
L 232.418352 -90.712682 
L 230.687765 -90.758094 
L 228.957177 -90.803821 
L 227.22659 -90.864595 
L 225.496003 -90.943905 
L 223.765415 -91.034375 
L 222.034828 -91.123356 
L 220.30424 -91.199791 
L 218.573653 -91.258508 
L 216.843065 -91.300602 
L 215.112478 -91.331023 
L 213.381891 -91.355377 
L 211.651303 -91.377563 
L 209.920716 -91.39891 
L 208.190128 -91.418721 
L 206.459541 -91.435535 
L 204.728953 -91.448299 
L 202.998366 -91.456903 
z
" style="stroke: #3d3d3d; stroke-width: 1.25"/>
    </defs>
    <g clip-path="url(#p53511d93b3)">
     <use xlink:href="#mb11c8d0a8c" x="0" y="339.01" style="fill: #d684bd; stroke: #3d3d3d; stroke-width: 1.25"/>
    </g>
   </g>
   <g id="PolyCollection_8">
    <defs>
     <path id="mb66770a23c" d="M 222.410068 -56.632287 
L 222.410068 -57.001463 
L 223.403418 -57.061594 
L 224.396768 -57.135983 
L 225.390118 -57.226162 
L 226.383468 -57.333237 
L 227.376819 -57.457698 
L 228.370169 -57.59923 
L 229.363519 -57.756569 
L 230.356869 -57.927405 
L 231.350219 -58.108382 
L 232.343569 -58.295192 
L 233.336919 -58.482788 
L 234.33027 -58.665717 
L 235.32362 -58.838543 
L 236.31697 -58.996341 
L 237.31032 -59.135214 
L 238.30367 -59.252783 
L 239.29702 -59.348583 
L 240.29037 -59.424328 
L 241.283721 -59.483996 
L 242.277071 -59.533705 
L 243.270421 -59.58139 
L 244.263771 -59.636282 
L 245.257121 -59.708254 
L 246.250471 -59.807071 
L 247.243821 -59.941623 
L 248.237172 -60.119227 
L 249.230522 -60.345037 
L 250.223872 -60.621657 
L 251.217222 -60.948958 
L 252.210572 -61.324147 
L 253.203922 -61.742045 
L 254.197272 -62.195577 
L 255.190623 -62.676383 
L 256.183973 -63.175509 
L 257.177323 -63.684094 
L 258.170673 -64.193985 
L 259.164023 -64.698214 
L 260.157373 -65.191306 
L 261.150723 -65.669395 
L 262.144074 -66.130151 
L 263.137424 -66.572554 
L 264.130774 -66.996553 
L 265.124124 -67.402663 
L 266.117474 -67.791566 
L 267.110824 -68.163748 
L 268.104174 -68.51922 
L 269.097525 -68.857327 
L 270.090875 -69.176666 
L 271.084225 -69.475073 
L 272.077575 -69.749689 
L 273.070925 -69.997055 
L 274.064275 -70.213229 
L 275.057625 -70.393904 
L 276.050976 -70.534528 
L 277.044326 -70.630415 
L 278.037676 -70.676875 
L 279.031026 -70.669357 
L 280.024376 -70.603627 
L 281.017726 -70.475983 
L 282.011076 -70.283507 
L 283.004426 -70.024342 
L 283.997777 -69.697969 
L 284.991127 -69.305461 
L 285.984477 -68.849687 
L 286.977827 -68.335413 
L 287.971177 -67.769304 
L 288.964527 -67.159783 
L 289.957877 -66.516761 
L 290.951228 -65.851239 
L 291.944578 -65.174814 
L 292.937928 -64.49912 
L 293.931278 -63.835261 
L 294.924628 -63.193274 
L 295.917978 -62.581671 
L 296.911328 -62.007111 
L 297.904679 -61.474203 
L 298.898029 -60.985475 
L 299.891379 -60.541491 
L 300.884729 -60.141094 
L 301.878079 -59.781748 
L 302.871429 -59.45994 
L 303.864779 -59.171598 
L 304.85813 -58.912483 
L 305.85148 -58.678531 
L 306.84483 -58.466112 
L 307.83818 -58.272194 
L 308.83153 -58.094424 
L 309.82488 -57.931115 
L 310.81823 -57.781166 
L 311.811581 -57.643947 
L 312.804931 -57.519139 
L 313.798281 -57.406594 
L 314.791631 -57.306194 
L 315.784981 -57.217746 
L 316.778331 -57.140908 
L 317.771681 -57.075159 
L 318.765032 -57.01979 
L 319.758382 -56.973931 
L 320.751732 -56.936594 
L 320.751732 -56.697156 
L 320.751732 -56.697156 
L 319.758382 -56.659819 
L 318.765032 -56.61396 
L 317.771681 -56.558591 
L 316.778331 -56.492842 
L 315.784981 -56.416004 
L 314.791631 -56.327556 
L 313.798281 -56.227156 
L 312.804931 -56.114611 
L 311.811581 -55.989803 
L 310.81823 -55.852584 
L 309.82488 -55.702635 
L 308.83153 -55.539326 
L 307.83818 -55.361556 
L 306.84483 -55.167638 
L 305.85148 -54.955219 
L 304.85813 -54.721267 
L 303.864779 -54.462152 
L 302.871429 -54.17381 
L 301.878079 -53.852002 
L 300.884729 -53.492656 
L 299.891379 -53.092259 
L 298.898029 -52.648275 
L 297.904679 -52.159547 
L 296.911328 -51.626639 
L 295.917978 -51.052079 
L 294.924628 -50.440476 
L 293.931278 -49.798489 
L 292.937928 -49.13463 
L 291.944578 -48.458936 
L 290.951228 -47.782511 
L 289.957877 -47.116989 
L 288.964527 -46.473967 
L 287.971177 -45.864446 
L 286.977827 -45.298337 
L 285.984477 -44.784063 
L 284.991127 -44.328289 
L 283.997777 -43.935781 
L 283.004426 -43.609408 
L 282.011076 -43.350243 
L 281.017726 -43.157767 
L 280.024376 -43.030123 
L 279.031026 -42.964393 
L 278.037676 -42.956875 
L 277.044326 -43.003335 
L 276.050976 -43.099222 
L 275.057625 -43.239846 
L 274.064275 -43.420521 
L 273.070925 -43.636695 
L 272.077575 -43.884061 
L 271.084225 -44.158677 
L 270.090875 -44.457084 
L 269.097525 -44.776423 
L 268.104174 -45.11453 
L 267.110824 -45.470002 
L 266.117474 -45.842184 
L 265.124124 -46.231087 
L 264.130774 -46.637197 
L 263.137424 -47.061196 
L 262.144074 -47.503599 
L 261.150723 -47.964355 
L 260.157373 -48.442444 
L 259.164023 -48.935536 
L 258.170673 -49.439765 
L 257.177323 -49.949656 
L 256.183973 -50.458241 
L 255.190623 -50.957367 
L 254.197272 -51.438173 
L 253.203922 -51.891705 
L 252.210572 -52.309603 
L 251.217222 -52.684792 
L 250.223872 -53.012093 
L 249.230522 -53.288713 
L 248.237172 -53.514523 
L 247.243821 -53.692127 
L 246.250471 -53.826679 
L 245.257121 -53.925496 
L 244.263771 -53.997468 
L 243.270421 -54.05236 
L 242.277071 -54.100045 
L 241.283721 -54.149754 
L 240.29037 -54.209422 
L 239.29702 -54.285167 
L 238.30367 -54.380967 
L 237.31032 -54.498536 
L 236.31697 -54.637409 
L 235.32362 -54.795207 
L 234.33027 -54.968033 
L 233.336919 -55.150962 
L 232.343569 -55.338558 
L 231.350219 -55.525368 
L 230.356869 -55.706345 
L 229.363519 -55.877181 
L 228.370169 -56.03452 
L 227.376819 -56.176052 
L 226.383468 -56.300513 
L 225.390118 -56.407588 
L 224.396768 -56.497767 
L 223.403418 -56.572156 
L 222.410068 -56.632287 
z
" style="stroke: #3d3d3d; stroke-width: 1.25"/>
    </defs>
    <g clip-path="url(#p53511d93b3)">
     <use xlink:href="#mb66770a23c" x="0" y="339.01" style="fill: #7f7f7f; stroke: #3d3d3d; stroke-width: 1.25"/>
    </g>
   </g>
   <g id="matplotlib.axis_1">
    <g id="xtick_1">
     <g id="line2d_1">
      <defs>
       <path id="m3d5a002abf" d="M 0 0 
L 0 3.5 
" style="stroke: #000000; stroke-width: 0.8"/>
      </defs>
      <g>
       <use xlink:href="#m3d5a002abf" x="107.598079" y="299.518125" style="stroke: #000000; stroke-width: 0.8"/>
      </g>
     </g>
     <g id="text_1">
      <!-- 4 -->
      <g transform="translate(104.416829 314.116563) scale(0.1 -0.1)">
       <defs>
        <path id="DejaVuSans-34" d="M 2419 4116 
L 825 1625 
L 2419 1625 
L 2419 4116 
z
M 2253 4666 
L 3047 4666 
L 3047 1625 
L 3713 1625 
L 3713 1100 
L 3047 1100 
L 3047 0 
L 2419 0 
L 2419 1100 
L 313 1100 
L 313 1709 
L 2253 4666 
z
" transform="scale(0.015625)"/>
       </defs>
       <use xlink:href="#DejaVuSans-34"/>
      </g>
     </g>
    </g>
    <g id="xtick_2">
     <g id="line2d_2">
      <g>
       <use xlink:href="#m3d5a002abf" x="175.924254" y="299.518125" style="stroke: #000000; stroke-width: 0.8"/>
      </g>
     </g>
     <g id="text_2">
      <!-- 6 -->
      <g transform="translate(172.743004 314.116563) scale(0.1 -0.1)">
       <defs>
        <path id="DejaVuSans-36" d="M 2113 2584 
Q 1688 2584 1439 2293 
Q 1191 2003 1191 1497 
Q 1191 994 1439 701 
Q 1688 409 2113 409 
Q 2538 409 2786 701 
Q 3034 994 3034 1497 
Q 3034 2003 2786 2293 
Q 2538 2584 2113 2584 
z
M 3366 4563 
L 3366 3988 
Q 3128 4100 2886 4159 
Q 2644 4219 2406 4219 
Q 1781 4219 1451 3797 
Q 1122 3375 1075 2522 
Q 1259 2794 1537 2939 
Q 1816 3084 2150 3084 
Q 2853 3084 3261 2657 
Q 3669 2231 3669 1497 
Q 3669 778 3244 343 
Q 2819 -91 2113 -91 
Q 1303 -91 875 529 
Q 447 1150 447 2328 
Q 447 3434 972 4092 
Q 1497 4750 2381 4750 
Q 2619 4750 2861 4703 
Q 3103 4656 3366 4563 
z
" transform="scale(0.015625)"/>
       </defs>
       <use xlink:href="#DejaVuSans-36"/>
      </g>
     </g>
    </g>
    <g id="xtick_3">
     <g id="line2d_3">
      <g>
       <use xlink:href="#m3d5a002abf" x="244.25043" y="299.518125" style="stroke: #000000; stroke-width: 0.8"/>
      </g>
     </g>
     <g id="text_3">
      <!-- 8 -->
      <g transform="translate(241.06918 314.116563) scale(0.1 -0.1)">
       <defs>
        <path id="DejaVuSans-38" d="M 2034 2216 
Q 1584 2216 1326 1975 
Q 1069 1734 1069 1313 
Q 1069 891 1326 650 
Q 1584 409 2034 409 
Q 2484 409 2743 651 
Q 3003 894 3003 1313 
Q 3003 1734 2745 1975 
Q 2488 2216 2034 2216 
z
M 1403 2484 
Q 997 2584 770 2862 
Q 544 3141 544 3541 
Q 544 4100 942 4425 
Q 1341 4750 2034 4750 
Q 2731 4750 3128 4425 
Q 3525 4100 3525 3541 
Q 3525 3141 3298 2862 
Q 3072 2584 2669 2484 
Q 3125 2378 3379 2068 
Q 3634 1759 3634 1313 
Q 3634 634 3220 271 
Q 2806 -91 2034 -91 
Q 1263 -91 848 271 
Q 434 634 434 1313 
Q 434 1759 690 2068 
Q 947 2378 1403 2484 
z
M 1172 3481 
Q 1172 3119 1398 2916 
Q 1625 2713 2034 2713 
Q 2441 2713 2670 2916 
Q 2900 3119 2900 3481 
Q 2900 3844 2670 4047 
Q 2441 4250 2034 4250 
Q 1625 4250 1398 4047 
Q 1172 3844 1172 3481 
z
" transform="scale(0.015625)"/>
       </defs>
       <use xlink:href="#DejaVuSans-38"/>
      </g>
     </g>
    </g>
    <g id="xtick_4">
     <g id="line2d_4">
      <g>
       <use xlink:href="#m3d5a002abf" x="312.576605" y="299.518125" style="stroke: #000000; stroke-width: 0.8"/>
      </g>
     </g>
     <g id="text_4">
      <!-- 10 -->
      <g transform="translate(306.214105 314.116563) scale(0.1 -0.1)">
       <defs>
        <path id="DejaVuSans-31" d="M 794 531 
L 1825 531 
L 1825 4091 
L 703 3866 
L 703 4441 
L 1819 4666 
L 2450 4666 
L 2450 531 
L 3481 531 
L 3481 0 
L 794 0 
L 794 531 
z
" transform="scale(0.015625)"/>
        <path id="DejaVuSans-30" d="M 2034 4250 
Q 1547 4250 1301 3770 
Q 1056 3291 1056 2328 
Q 1056 1369 1301 889 
Q 1547 409 2034 409 
Q 2525 409 2770 889 
Q 3016 1369 3016 2328 
Q 3016 3291 2770 3770 
Q 2525 4250 2034 4250 
z
M 2034 4750 
Q 2819 4750 3233 4129 
Q 3647 3509 3647 2328 
Q 3647 1150 3233 529 
Q 2819 -91 2034 -91 
Q 1250 -91 836 529 
Q 422 1150 422 2328 
Q 422 3509 836 4129 
Q 1250 4750 2034 4750 
z
" transform="scale(0.015625)"/>
       </defs>
       <use xlink:href="#DejaVuSans-31"/>
       <use xlink:href="#DejaVuSans-30" x="63.623047"/>
      </g>
     </g>
    </g>
    <g id="xtick_5">
     <g id="line2d_5">
      <g>
       <use xlink:href="#m3d5a002abf" x="380.90278" y="299.518125" style="stroke: #000000; stroke-width: 0.8"/>
      </g>
     </g>
     <g id="text_5">
      <!-- 12 -->
      <g transform="translate(374.54028 314.116563) scale(0.1 -0.1)">
       <defs>
        <path id="DejaVuSans-32" d="M 1228 531 
L 3431 531 
L 3431 0 
L 469 0 
L 469 531 
Q 828 903 1448 1529 
Q 2069 2156 2228 2338 
Q 2531 2678 2651 2914 
Q 2772 3150 2772 3378 
Q 2772 3750 2511 3984 
Q 2250 4219 1831 4219 
Q 1534 4219 1204 4116 
Q 875 4013 500 3803 
L 500 4441 
Q 881 4594 1212 4672 
Q 1544 4750 1819 4750 
Q 2544 4750 2975 4387 
Q 3406 4025 3406 3419 
Q 3406 3131 3298 2873 
Q 3191 2616 2906 2266 
Q 2828 2175 2409 1742 
Q 1991 1309 1228 531 
z
" transform="scale(0.015625)"/>
       </defs>
       <use xlink:href="#DejaVuSans-31"/>
       <use xlink:href="#DejaVuSans-32" x="63.623047"/>
      </g>
     </g>
    </g>
    <g id="xtick_6">
     <g id="line2d_6">
      <g>
       <use xlink:href="#m3d5a002abf" x="449.228956" y="299.518125" style="stroke: #000000; stroke-width: 0.8"/>
      </g>
     </g>
     <g id="text_6">
      <!-- 14 -->
      <g transform="translate(442.866456 314.116563) scale(0.1 -0.1)">
       <use xlink:href="#DejaVuSans-31"/>
       <use xlink:href="#DejaVuSans-34" x="63.623047"/>
      </g>
     </g>
    </g>
    <g id="text_7">
     <!-- Ca -->
     <g transform="translate(274.326875 329.314375) scale(0.12 -0.12)">
      <defs>
       <path id="DejaVuSans-43" d="M 4122 4306 
L 4122 3641 
Q 3803 3938 3442 4084 
Q 3081 4231 2675 4231 
Q 1875 4231 1450 3742 
Q 1025 3253 1025 2328 
Q 1025 1406 1450 917 
Q 1875 428 2675 428 
Q 3081 428 3442 575 
Q 3803 722 4122 1019 
L 4122 359 
Q 3791 134 3420 21 
Q 3050 -91 2638 -91 
Q 1578 -91 968 557 
Q 359 1206 359 2328 
Q 359 3453 968 4101 
Q 1578 4750 2638 4750 
Q 3056 4750 3426 4639 
Q 3797 4528 4122 4306 
z
" transform="scale(0.015625)"/>
       <path id="DejaVuSans-61" d="M 2194 1759 
Q 1497 1759 1228 1600 
Q 959 1441 959 1056 
Q 959 750 1161 570 
Q 1363 391 1709 391 
Q 2188 391 2477 730 
Q 2766 1069 2766 1631 
L 2766 1759 
L 2194 1759 
z
M 3341 1997 
L 3341 0 
L 2766 0 
L 2766 531 
Q 2569 213 2275 61 
Q 1981 -91 1556 -91 
Q 1019 -91 701 211 
Q 384 513 384 1019 
Q 384 1609 779 1909 
Q 1175 2209 1959 2209 
L 2766 2209 
L 2766 2266 
Q 2766 2663 2505 2880 
Q 2244 3097 1772 3097 
Q 1472 3097 1187 3025 
Q 903 2953 641 2809 
L 641 3341 
Q 956 3463 1253 3523 
Q 1550 3584 1831 3584 
Q 2591 3584 2966 3190 
Q 3341 2797 3341 1997 
z
" transform="scale(0.015625)"/>
      </defs>
      <use xlink:href="#DejaVuSans-43"/>
      <use xlink:href="#DejaVuSans-61" x="69.824219"/>
     </g>
    </g>
   </g>
   <g id="matplotlib.axis_2">
    <g id="ytick_1">
     <g id="line2d_7">
      <defs>
       <path id="m0b5f0b7807" d="M 0 0 
L -3.5 0 
" style="stroke: #000000; stroke-width: 0.8"/>
      </defs>
      <g>
       <use xlink:href="#m0b5f0b7807" x="58.993437" y="39.643125" style="stroke: #000000; stroke-width: 0.8"/>
      </g>
     </g>
     <g id="text_8">
      <!-- 60-69 -->
      <g transform="translate(22.935625 43.442344) scale(0.1 -0.1)">
       <defs>
        <path id="DejaVuSans-2d" d="M 313 2009 
L 1997 2009 
L 1997 1497 
L 313 1497 
L 313 2009 
z
" transform="scale(0.015625)"/>
        <path id="DejaVuSans-39" d="M 703 97 
L 703 672 
Q 941 559 1184 500 
Q 1428 441 1663 441 
Q 2288 441 2617 861 
Q 2947 1281 2994 2138 
Q 2813 1869 2534 1725 
Q 2256 1581 1919 1581 
Q 1219 1581 811 2004 
Q 403 2428 403 3163 
Q 403 3881 828 4315 
Q 1253 4750 1959 4750 
Q 2769 4750 3195 4129 
Q 3622 3509 3622 2328 
Q 3622 1225 3098 567 
Q 2575 -91 1691 -91 
Q 1453 -91 1209 -44 
Q 966 3 703 97 
z
M 1959 2075 
Q 2384 2075 2632 2365 
Q 2881 2656 2881 3163 
Q 2881 3666 2632 3958 
Q 2384 4250 1959 4250 
Q 1534 4250 1286 3958 
Q 1038 3666 1038 3163 
Q 1038 2656 1286 2365 
Q 1534 2075 1959 2075 
z
" transform="scale(0.015625)"/>
       </defs>
       <use xlink:href="#DejaVuSans-36"/>
       <use xlink:href="#DejaVuSans-30" x="63.623047"/>
       <use xlink:href="#DejaVuSans-2d" x="127.246094"/>
       <use xlink:href="#DejaVuSans-36" x="163.330078"/>
       <use xlink:href="#DejaVuSans-39" x="226.953125"/>
      </g>
     </g>
    </g>
    <g id="ytick_2">
     <g id="line2d_8">
      <g>
       <use xlink:href="#m0b5f0b7807" x="58.993437" y="74.293125" style="stroke: #000000; stroke-width: 0.8"/>
      </g>
     </g>
     <g id="text_9">
      <!-- 30-39 -->
      <g transform="translate(22.935625 78.092344) scale(0.1 -0.1)">
       <defs>
        <path id="DejaVuSans-33" d="M 2597 2516 
Q 3050 2419 3304 2112 
Q 3559 1806 3559 1356 
Q 3559 666 3084 287 
Q 2609 -91 1734 -91 
Q 1441 -91 1130 -33 
Q 819 25 488 141 
L 488 750 
Q 750 597 1062 519 
Q 1375 441 1716 441 
Q 2309 441 2620 675 
Q 2931 909 2931 1356 
Q 2931 1769 2642 2001 
Q 2353 2234 1838 2234 
L 1294 2234 
L 1294 2753 
L 1863 2753 
Q 2328 2753 2575 2939 
Q 2822 3125 2822 3475 
Q 2822 3834 2567 4026 
Q 2313 4219 1838 4219 
Q 1578 4219 1281 4162 
Q 984 4106 628 3988 
L 628 4550 
Q 988 4650 1302 4700 
Q 1616 4750 1894 4750 
Q 2613 4750 3031 4423 
Q 3450 4097 3450 3541 
Q 3450 3153 3228 2886 
Q 3006 2619 2597 2516 
z
" transform="scale(0.015625)"/>
       </defs>
       <use xlink:href="#DejaVuSans-33"/>
       <use xlink:href="#DejaVuSans-30" x="63.623047"/>
       <use xlink:href="#DejaVuSans-2d" x="127.246094"/>
       <use xlink:href="#DejaVuSans-33" x="163.330078"/>
       <use xlink:href="#DejaVuSans-39" x="226.953125"/>
      </g>
     </g>
    </g>
    <g id="ytick_3">
     <g id="line2d_9">
      <g>
       <use xlink:href="#m0b5f0b7807" x="58.993437" y="108.943125" style="stroke: #000000; stroke-width: 0.8"/>
      </g>
     </g>
     <g id="text_10">
      <!-- 50-59 -->
      <g transform="translate(22.935625 112.742344) scale(0.1 -0.1)">
       <defs>
        <path id="DejaVuSans-35" d="M 691 4666 
L 3169 4666 
L 3169 4134 
L 1269 4134 
L 1269 2991 
Q 1406 3038 1543 3061 
Q 1681 3084 1819 3084 
Q 2600 3084 3056 2656 
Q 3513 2228 3513 1497 
Q 3513 744 3044 326 
Q 2575 -91 1722 -91 
Q 1428 -91 1123 -41 
Q 819 9 494 109 
L 494 744 
Q 775 591 1075 516 
Q 1375 441 1709 441 
Q 2250 441 2565 725 
Q 2881 1009 2881 1497 
Q 2881 1984 2565 2268 
Q 2250 2553 1709 2553 
Q 1456 2553 1204 2497 
Q 953 2441 691 2322 
L 691 4666 
z
" transform="scale(0.015625)"/>
       </defs>
       <use xlink:href="#DejaVuSans-35"/>
       <use xlink:href="#DejaVuSans-30" x="63.623047"/>
       <use xlink:href="#DejaVuSans-2d" x="127.246094"/>
       <use xlink:href="#DejaVuSans-35" x="163.330078"/>
       <use xlink:href="#DejaVuSans-39" x="226.953125"/>
      </g>
     </g>
    </g>
    <g id="ytick_4">
     <g id="line2d_10">
      <g>
       <use xlink:href="#m0b5f0b7807" x="58.993437" y="143.593125" style="stroke: #000000; stroke-width: 0.8"/>
      </g>
     </g>
     <g id="text_11">
      <!-- 70-79 -->
      <g transform="translate(22.935625 147.392344) scale(0.1 -0.1)">
       <defs>
        <path id="DejaVuSans-37" d="M 525 4666 
L 3525 4666 
L 3525 4397 
L 1831 0 
L 1172 0 
L 2766 4134 
L 525 4134 
L 525 4666 
z
" transform="scale(0.015625)"/>
       </defs>
       <use xlink:href="#DejaVuSans-37"/>
       <use xlink:href="#DejaVuSans-30" x="63.623047"/>
       <use xlink:href="#DejaVuSans-2d" x="127.246094"/>
       <use xlink:href="#DejaVuSans-37" x="163.330078"/>
       <use xlink:href="#DejaVuSans-39" x="226.953125"/>
      </g>
     </g>
    </g>
    <g id="ytick_5">
     <g id="line2d_11">
      <g>
       <use xlink:href="#m0b5f0b7807" x="58.993437" y="178.243125" style="stroke: #000000; stroke-width: 0.8"/>
      </g>
     </g>
     <g id="text_12">
      <!-- 40-49 -->
      <g transform="translate(22.935625 182.042344) scale(0.1 -0.1)">
       <use xlink:href="#DejaVuSans-34"/>
       <use xlink:href="#DejaVuSans-30" x="63.623047"/>
       <use xlink:href="#DejaVuSans-2d" x="127.246094"/>
       <use xlink:href="#DejaVuSans-34" x="163.330078"/>
       <use xlink:href="#DejaVuSans-39" x="226.953125"/>
      </g>
     </g>
    </g>
    <g id="ytick_6">
     <g id="line2d_12">
      <g>
       <use xlink:href="#m0b5f0b7807" x="58.993437" y="212.893125" style="stroke: #000000; stroke-width: 0.8"/>
      </g>
     </g>
     <g id="text_13">
      <!-- 18-29 -->
      <g transform="translate(22.935625 216.692344) scale(0.1 -0.1)">
       <use xlink:href="#DejaVuSans-31"/>
       <use xlink:href="#DejaVuSans-38" x="63.623047"/>
       <use xlink:href="#DejaVuSans-2d" x="127.246094"/>
       <use xlink:href="#DejaVuSans-32" x="163.330078"/>
       <use xlink:href="#DejaVuSans-39" x="226.953125"/>
      </g>
     </g>
    </g>
    <g id="ytick_7">
     <g id="line2d_13">
      <g>
       <use xlink:href="#m0b5f0b7807" x="58.993437" y="247.543125" style="stroke: #000000; stroke-width: 0.8"/>
      </g>
     </g>
     <g id="text_14">
      <!-- 80-89 -->
      <g transform="translate(22.935625 251.342344) scale(0.1 -0.1)">
       <use xlink:href="#DejaVuSans-38"/>
       <use xlink:href="#DejaVuSans-30" x="63.623047"/>
       <use xlink:href="#DejaVuSans-2d" x="127.246094"/>
       <use xlink:href="#DejaVuSans-38" x="163.330078"/>
       <use xlink:href="#DejaVuSans-39" x="226.953125"/>
      </g>
     </g>
    </g>
    <g id="ytick_8">
     <g id="line2d_14">
      <g>
       <use xlink:href="#m0b5f0b7807" x="58.993437" y="282.193125" style="stroke: #000000; stroke-width: 0.8"/>
      </g>
     </g>
     <g id="text_15">
      <!-- 90-99 -->
      <g transform="translate(22.935625 285.992344) scale(0.1 -0.1)">
       <use xlink:href="#DejaVuSans-39"/>
       <use xlink:href="#DejaVuSans-30" x="63.623047"/>
       <use xlink:href="#DejaVuSans-2d" x="127.246094"/>
       <use xlink:href="#DejaVuSans-39" x="163.330078"/>
       <use xlink:href="#DejaVuSans-39" x="226.953125"/>
      </g>
     </g>
    </g>
    <g id="text_16">
     <!-- Age_Group -->
     <g transform="translate(16.10625 193.786875) rotate(-90) scale(0.12 -0.12)">
      <defs>
       <path id="DejaVuSans-41" d="M 2188 4044 
L 1331 1722 
L 3047 1722 
L 2188 4044 
z
M 1831 4666 
L 2547 4666 
L 4325 0 
L 3669 0 
L 3244 1197 
L 1141 1197 
L 716 0 
L 50 0 
L 1831 4666 
z
" transform="scale(0.015625)"/>
       <path id="DejaVuSans-67" d="M 2906 1791 
Q 2906 2416 2648 2759 
Q 2391 3103 1925 3103 
Q 1463 3103 1205 2759 
Q 947 2416 947 1791 
Q 947 1169 1205 825 
Q 1463 481 1925 481 
Q 2391 481 2648 825 
Q 2906 1169 2906 1791 
z
M 3481 434 
Q 3481 -459 3084 -895 
Q 2688 -1331 1869 -1331 
Q 1566 -1331 1297 -1286 
Q 1028 -1241 775 -1147 
L 775 -588 
Q 1028 -725 1275 -790 
Q 1522 -856 1778 -856 
Q 2344 -856 2625 -561 
Q 2906 -266 2906 331 
L 2906 616 
Q 2728 306 2450 153 
Q 2172 0 1784 0 
Q 1141 0 747 490 
Q 353 981 353 1791 
Q 353 2603 747 3093 
Q 1141 3584 1784 3584 
Q 2172 3584 2450 3431 
Q 2728 3278 2906 2969 
L 2906 3500 
L 3481 3500 
L 3481 434 
z
" transform="scale(0.015625)"/>
       <path id="DejaVuSans-65" d="M 3597 1894 
L 3597 1613 
L 953 1613 
Q 991 1019 1311 708 
Q 1631 397 2203 397 
Q 2534 397 2845 478 
Q 3156 559 3463 722 
L 3463 178 
Q 3153 47 2828 -22 
Q 2503 -91 2169 -91 
Q 1331 -91 842 396 
Q 353 884 353 1716 
Q 353 2575 817 3079 
Q 1281 3584 2069 3584 
Q 2775 3584 3186 3129 
Q 3597 2675 3597 1894 
z
M 3022 2063 
Q 3016 2534 2758 2815 
Q 2500 3097 2075 3097 
Q 1594 3097 1305 2825 
Q 1016 2553 972 2059 
L 3022 2063 
z
" transform="scale(0.015625)"/>
       <path id="DejaVuSans-5f" d="M 3263 -1063 
L 3263 -1509 
L -63 -1509 
L -63 -1063 
L 3263 -1063 
z
" transform="scale(0.015625)"/>
       <path id="DejaVuSans-47" d="M 3809 666 
L 3809 1919 
L 2778 1919 
L 2778 2438 
L 4434 2438 
L 4434 434 
Q 4069 175 3628 42 
Q 3188 -91 2688 -91 
Q 1594 -91 976 548 
Q 359 1188 359 2328 
Q 359 3472 976 4111 
Q 1594 4750 2688 4750 
Q 3144 4750 3555 4637 
Q 3966 4525 4313 4306 
L 4313 3634 
Q 3963 3931 3569 4081 
Q 3175 4231 2741 4231 
Q 1884 4231 1454 3753 
Q 1025 3275 1025 2328 
Q 1025 1384 1454 906 
Q 1884 428 2741 428 
Q 3075 428 3337 486 
Q 3600 544 3809 666 
z
" transform="scale(0.015625)"/>
       <path id="DejaVuSans-72" d="M 2631 2963 
Q 2534 3019 2420 3045 
Q 2306 3072 2169 3072 
Q 1681 3072 1420 2755 
Q 1159 2438 1159 1844 
L 1159 0 
L 581 0 
L 581 3500 
L 1159 3500 
L 1159 2956 
Q 1341 3275 1631 3429 
Q 1922 3584 2338 3584 
Q 2397 3584 2469 3576 
Q 2541 3569 2628 3553 
L 2631 2963 
z
" transform="scale(0.015625)"/>
       <path id="DejaVuSans-6f" d="M 1959 3097 
Q 1497 3097 1228 2736 
Q 959 2375 959 1747 
Q 959 1119 1226 758 
Q 1494 397 1959 397 
Q 2419 397 2687 759 
Q 2956 1122 2956 1747 
Q 2956 2369 2687 2733 
Q 2419 3097 1959 3097 
z
M 1959 3584 
Q 2709 3584 3137 3096 
Q 3566 2609 3566 1747 
Q 3566 888 3137 398 
Q 2709 -91 1959 -91 
Q 1206 -91 779 398 
Q 353 888 353 1747 
Q 353 2609 779 3096 
Q 1206 3584 1959 3584 
z
" transform="scale(0.015625)"/>
       <path id="DejaVuSans-75" d="M 544 1381 
L 544 3500 
L 1119 3500 
L 1119 1403 
Q 1119 906 1312 657 
Q 1506 409 1894 409 
Q 2359 409 2629 706 
Q 2900 1003 2900 1516 
L 2900 3500 
L 3475 3500 
L 3475 0 
L 2900 0 
L 2900 538 
Q 2691 219 2414 64 
Q 2138 -91 1772 -91 
Q 1169 -91 856 284 
Q 544 659 544 1381 
z
M 1991 3584 
L 1991 3584 
z
" transform="scale(0.015625)"/>
       <path id="DejaVuSans-70" d="M 1159 525 
L 1159 -1331 
L 581 -1331 
L 581 3500 
L 1159 3500 
L 1159 2969 
Q 1341 3281 1617 3432 
Q 1894 3584 2278 3584 
Q 2916 3584 3314 3078 
Q 3713 2572 3713 1747 
Q 3713 922 3314 415 
Q 2916 -91 2278 -91 
Q 1894 -91 1617 61 
Q 1341 213 1159 525 
z
M 3116 1747 
Q 3116 2381 2855 2742 
Q 2594 3103 2138 3103 
Q 1681 3103 1420 2742 
Q 1159 2381 1159 1747 
Q 1159 1113 1420 752 
Q 1681 391 2138 391 
Q 2594 391 2855 752 
Q 3116 1113 3116 1747 
z
" transform="scale(0.015625)"/>
      </defs>
      <use xlink:href="#DejaVuSans-41"/>
      <use xlink:href="#DejaVuSans-67" x="68.408203"/>
      <use xlink:href="#DejaVuSans-65" x="131.884766"/>
      <use xlink:href="#DejaVuSans-5f" x="193.408203"/>
      <use xlink:href="#DejaVuSans-47" x="243.408203"/>
      <use xlink:href="#DejaVuSans-72" x="320.898438"/>
      <use xlink:href="#DejaVuSans-6f" x="359.761719"/>
      <use xlink:href="#DejaVuSans-75" x="420.943359"/>
      <use xlink:href="#DejaVuSans-70" x="484.322266"/>
     </g>
    </g>
   </g>
   <g id="line2d_15">
    <path d="M 237.417812 39.643125 
L 329.658149 39.643125 
" clip-path="url(#p53511d93b3)" style="fill: none; stroke: #3d3d3d; stroke-width: 1.875; stroke-linecap: square"/>
   </g>
   <g id="line2d_16">
    <path d="M 271.5809 39.643125 
L 295.495061 39.643125 
" clip-path="url(#p53511d93b3)" style="fill: none; stroke: #3d3d3d; stroke-width: 5.625; stroke-linecap: square"/>
   </g>
   <g id="line2d_17">
    <path d="M 285.246135 39.643125 
" clip-path="url(#p53511d93b3)" style="fill: none; stroke: #3d3d3d; stroke-width: 1.5; stroke-linecap: square"/>
    <defs>
     <path id="m97e871240a" d="M 0 2.34375 
L 0 -2.34375 
" style="stroke: #ffffff; stroke-width: 1.125"/>
    </defs>
    <g clip-path="url(#p53511d93b3)">
     <use xlink:href="#m97e871240a" x="285.246135" y="39.643125" style="fill: #ffffff; stroke: #ffffff; stroke-width: 1.125"/>
    </g>
   </g>
   <g id="line2d_18">
    <path d="M 240.834121 74.293125 
L 333.074458 74.293125 
" clip-path="url(#p53511d93b3)" style="fill: none; stroke: #3d3d3d; stroke-width: 1.875; stroke-linecap: square"/>
   </g>
   <g id="line2d_19">
    <path d="M 274.997209 74.293125 
L 298.91137 74.293125 
" clip-path="url(#p53511d93b3)" style="fill: none; stroke: #3d3d3d; stroke-width: 5.625; stroke-linecap: square"/>
   </g>
   <g id="line2d_20">
    <path d="M 288.662444 74.293125 
" clip-path="url(#p53511d93b3)" style="fill: none; stroke: #3d3d3d; stroke-width: 1.5; stroke-linecap: square"/>
    <g clip-path="url(#p53511d93b3)">
     <use xlink:href="#m97e871240a" x="288.662444" y="74.293125" style="fill: #ffffff; stroke: #ffffff; stroke-width: 1.125"/>
    </g>
   </g>
   <g id="line2d_21">
    <path d="M 237.417812 108.943125 
L 329.658149 108.943125 
" clip-path="url(#p53511d93b3)" style="fill: none; stroke: #3d3d3d; stroke-width: 1.875; stroke-linecap: square"/>
   </g>
   <g id="line2d_22">
    <path d="M 271.5809 108.943125 
L 295.495061 108.943125 
" clip-path="url(#p53511d93b3)" style="fill: none; stroke: #3d3d3d; stroke-width: 5.625; stroke-linecap: square"/>
   </g>
   <g id="line2d_23">
    <path d="M 285.246135 108.943125 
" clip-path="url(#p53511d93b3)" style="fill: none; stroke: #3d3d3d; stroke-width: 1.5; stroke-linecap: square"/>
    <g clip-path="url(#p53511d93b3)">
     <use xlink:href="#m97e871240a" x="285.246135" y="108.943125" style="fill: #ffffff; stroke: #ffffff; stroke-width: 1.125"/>
    </g>
   </g>
   <g id="line2d_24">
    <path d="M 237.417812 143.593125 
L 329.658149 143.593125 
" clip-path="url(#p53511d93b3)" style="fill: none; stroke: #3d3d3d; stroke-width: 1.875; stroke-linecap: square"/>
   </g>
   <g id="line2d_25">
    <path d="M 271.5809 143.593125 
L 295.495061 143.593125 
" clip-path="url(#p53511d93b3)" style="fill: none; stroke: #3d3d3d; stroke-width: 5.625; stroke-linecap: square"/>
   </g>
   <g id="line2d_26">
    <path d="M 285.246135 143.593125 
" clip-path="url(#p53511d93b3)" style="fill: none; stroke: #3d3d3d; stroke-width: 1.5; stroke-linecap: square"/>
    <g clip-path="url(#p53511d93b3)">
     <use xlink:href="#m97e871240a" x="285.246135" y="143.593125" style="fill: #ffffff; stroke: #ffffff; stroke-width: 1.125"/>
    </g>
   </g>
   <g id="line2d_27">
    <path d="M 234.001503 178.243125 
L 336.490766 178.243125 
" clip-path="url(#p53511d93b3)" style="fill: none; stroke: #3d3d3d; stroke-width: 1.875; stroke-linecap: square"/>
   </g>
   <g id="line2d_28">
    <path d="M 271.5809 178.243125 
L 298.91137 178.243125 
" clip-path="url(#p53511d93b3)" style="fill: none; stroke: #3d3d3d; stroke-width: 5.625; stroke-linecap: square"/>
   </g>
   <g id="line2d_29">
    <path d="M 285.246135 178.243125 
" clip-path="url(#p53511d93b3)" style="fill: none; stroke: #3d3d3d; stroke-width: 1.5; stroke-linecap: square"/>
    <g clip-path="url(#p53511d93b3)">
     <use xlink:href="#m97e871240a" x="285.246135" y="178.243125" style="fill: #ffffff; stroke: #ffffff; stroke-width: 1.125"/>
    </g>
   </g>
   <g id="line2d_30">
    <path d="M 237.417812 212.893125 
L 346.739693 212.893125 
" clip-path="url(#p53511d93b3)" style="fill: none; stroke: #3d3d3d; stroke-width: 1.875; stroke-linecap: square"/>
   </g>
   <g id="line2d_31">
    <path d="M 278.413517 212.893125 
L 305.743988 212.893125 
" clip-path="url(#p53511d93b3)" style="fill: none; stroke: #3d3d3d; stroke-width: 5.625; stroke-linecap: square"/>
   </g>
   <g id="line2d_32">
    <path d="M 292.078752 212.893125 
" clip-path="url(#p53511d93b3)" style="fill: none; stroke: #3d3d3d; stroke-width: 1.5; stroke-linecap: square"/>
    <g clip-path="url(#p53511d93b3)">
     <use xlink:href="#m97e871240a" x="292.078752" y="212.893125" style="fill: #ffffff; stroke: #ffffff; stroke-width: 1.125"/>
    </g>
   </g>
   <g id="line2d_33">
    <path d="M 227.168886 247.543125 
L 336.490766 247.543125 
" clip-path="url(#p53511d93b3)" style="fill: none; stroke: #3d3d3d; stroke-width: 1.875; stroke-linecap: square"/>
   </g>
   <g id="line2d_34">
    <path d="M 268.164591 247.543125 
L 295.495061 247.543125 
" clip-path="url(#p53511d93b3)" style="fill: none; stroke: #3d3d3d; stroke-width: 5.625; stroke-linecap: square"/>
   </g>
   <g id="line2d_35">
    <path d="M 281.829826 247.543125 
" clip-path="url(#p53511d93b3)" style="fill: none; stroke: #3d3d3d; stroke-width: 1.5; stroke-linecap: square"/>
    <g clip-path="url(#p53511d93b3)">
     <use xlink:href="#m97e871240a" x="281.829826" y="247.543125" style="fill: #ffffff; stroke: #ffffff; stroke-width: 1.125"/>
    </g>
   </g>
   <g id="line2d_36">
    <path d="M 237.417812 282.193125 
L 305.743988 282.193125 
" clip-path="url(#p53511d93b3)" style="fill: none; stroke: #3d3d3d; stroke-width: 1.875; stroke-linecap: square"/>
   </g>
   <g id="line2d_37">
    <path d="M 263.040128 282.193125 
L 285.246135 282.193125 
" clip-path="url(#p53511d93b3)" style="fill: none; stroke: #3d3d3d; stroke-width: 5.625; stroke-linecap: square"/>
   </g>
   <g id="line2d_38">
    <path d="M 274.997209 282.193125 
" clip-path="url(#p53511d93b3)" style="fill: none; stroke: #3d3d3d; stroke-width: 1.5; stroke-linecap: square"/>
    <g clip-path="url(#p53511d93b3)">
     <use xlink:href="#m97e871240a" x="274.997209" y="282.193125" style="fill: #ffffff; stroke: #ffffff; stroke-width: 1.125"/>
    </g>
   </g>
   <g id="patch_3">
    <path d="M 58.993437 299.518125 
L 58.993437 22.318125 
" style="fill: none; stroke: #000000; stroke-width: 0.8; stroke-linejoin: miter; stroke-linecap: square"/>
   </g>
   <g id="patch_4">
    <path d="M 505.393438 299.518125 
L 505.393438 22.318125 
" style="fill: none; stroke: #000000; stroke-width: 0.8; stroke-linejoin: miter; stroke-linecap: square"/>
   </g>
   <g id="patch_5">
    <path d="M 58.993437 299.518125 
L 505.393437 299.518125 
" style="fill: none; stroke: #000000; stroke-width: 0.8; stroke-linejoin: miter; stroke-linecap: square"/>
   </g>
   <g id="patch_6">
    <path d="M 58.993437 22.318125 
L 505.393437 22.318125 
" style="fill: none; stroke: #000000; stroke-width: 0.8; stroke-linejoin: miter; stroke-linecap: square"/>
   </g>
   <g id="text_17">
    <!-- Distribution of Ca by Age_Group -->
    <g transform="translate(185.684375 16.318125) scale(0.12 -0.12)">
     <defs>
      <path id="DejaVuSans-44" d="M 1259 4147 
L 1259 519 
L 2022 519 
Q 2988 519 3436 956 
Q 3884 1394 3884 2338 
Q 3884 3275 3436 3711 
Q 2988 4147 2022 4147 
L 1259 4147 
z
M 628 4666 
L 1925 4666 
Q 3281 4666 3915 4102 
Q 4550 3538 4550 2338 
Q 4550 1131 3912 565 
Q 3275 0 1925 0 
L 628 0 
L 628 4666 
z
" transform="scale(0.015625)"/>
      <path id="DejaVuSans-69" d="M 603 3500 
L 1178 3500 
L 1178 0 
L 603 0 
L 603 3500 
z
M 603 4863 
L 1178 4863 
L 1178 4134 
L 603 4134 
L 603 4863 
z
" transform="scale(0.015625)"/>
      <path id="DejaVuSans-73" d="M 2834 3397 
L 2834 2853 
Q 2591 2978 2328 3040 
Q 2066 3103 1784 3103 
Q 1356 3103 1142 2972 
Q 928 2841 928 2578 
Q 928 2378 1081 2264 
Q 1234 2150 1697 2047 
L 1894 2003 
Q 2506 1872 2764 1633 
Q 3022 1394 3022 966 
Q 3022 478 2636 193 
Q 2250 -91 1575 -91 
Q 1294 -91 989 -36 
Q 684 19 347 128 
L 347 722 
Q 666 556 975 473 
Q 1284 391 1588 391 
Q 1994 391 2212 530 
Q 2431 669 2431 922 
Q 2431 1156 2273 1281 
Q 2116 1406 1581 1522 
L 1381 1569 
Q 847 1681 609 1914 
Q 372 2147 372 2553 
Q 372 3047 722 3315 
Q 1072 3584 1716 3584 
Q 2034 3584 2315 3537 
Q 2597 3491 2834 3397 
z
" transform="scale(0.015625)"/>
      <path id="DejaVuSans-74" d="M 1172 4494 
L 1172 3500 
L 2356 3500 
L 2356 3053 
L 1172 3053 
L 1172 1153 
Q 1172 725 1289 603 
Q 1406 481 1766 481 
L 2356 481 
L 2356 0 
L 1766 0 
Q 1100 0 847 248 
Q 594 497 594 1153 
L 594 3053 
L 172 3053 
L 172 3500 
L 594 3500 
L 594 4494 
L 1172 4494 
z
" transform="scale(0.015625)"/>
      <path id="DejaVuSans-62" d="M 3116 1747 
Q 3116 2381 2855 2742 
Q 2594 3103 2138 3103 
Q 1681 3103 1420 2742 
Q 1159 2381 1159 1747 
Q 1159 1113 1420 752 
Q 1681 391 2138 391 
Q 2594 391 2855 752 
Q 3116 1113 3116 1747 
z
M 1159 2969 
Q 1341 3281 1617 3432 
Q 1894 3584 2278 3584 
Q 2916 3584 3314 3078 
Q 3713 2572 3713 1747 
Q 3713 922 3314 415 
Q 2916 -91 2278 -91 
Q 1894 -91 1617 61 
Q 1341 213 1159 525 
L 1159 0 
L 581 0 
L 581 4863 
L 1159 4863 
L 1159 2969 
z
" transform="scale(0.015625)"/>
      <path id="DejaVuSans-6e" d="M 3513 2113 
L 3513 0 
L 2938 0 
L 2938 2094 
Q 2938 2591 2744 2837 
Q 2550 3084 2163 3084 
Q 1697 3084 1428 2787 
Q 1159 2491 1159 1978 
L 1159 0 
L 581 0 
L 581 3500 
L 1159 3500 
L 1159 2956 
Q 1366 3272 1645 3428 
Q 1925 3584 2291 3584 
Q 2894 3584 3203 3211 
Q 3513 2838 3513 2113 
z
" transform="scale(0.015625)"/>
      <path id="DejaVuSans-20" transform="scale(0.015625)"/>
      <path id="DejaVuSans-66" d="M 2375 4863 
L 2375 4384 
L 1825 4384 
Q 1516 4384 1395 4259 
Q 1275 4134 1275 3809 
L 1275 3500 
L 2222 3500 
L 2222 3053 
L 1275 3053 
L 1275 0 
L 697 0 
L 697 3053 
L 147 3053 
L 147 3500 
L 697 3500 
L 697 3744 
Q 697 4328 969 4595 
Q 1241 4863 1831 4863 
L 2375 4863 
z
" transform="scale(0.015625)"/>
      <path id="DejaVuSans-79" d="M 2059 -325 
Q 1816 -950 1584 -1140 
Q 1353 -1331 966 -1331 
L 506 -1331 
L 506 -850 
L 844 -850 
Q 1081 -850 1212 -737 
Q 1344 -625 1503 -206 
L 1606 56 
L 191 3500 
L 800 3500 
L 1894 763 
L 2988 3500 
L 3597 3500 
L 2059 -325 
z
" transform="scale(0.015625)"/>
     </defs>
     <use xlink:href="#DejaVuSans-44"/>
     <use xlink:href="#DejaVuSans-69" x="77.001953"/>
     <use xlink:href="#DejaVuSans-73" x="104.785156"/>
     <use xlink:href="#DejaVuSans-74" x="156.884766"/>
     <use xlink:href="#DejaVuSans-72" x="196.09375"/>
     <use xlink:href="#DejaVuSans-69" x="237.207031"/>
     <use xlink:href="#DejaVuSans-62" x="264.990234"/>
     <use xlink:href="#DejaVuSans-75" x="328.466797"/>
     <use xlink:href="#DejaVuSans-74" x="391.845703"/>
     <use xlink:href="#DejaVuSans-69" x="431.054688"/>
     <use xlink:href="#DejaVuSans-6f" x="458.837891"/>
     <use xlink:href="#DejaVuSans-6e" x="520.019531"/>
     <use xlink:href="#DejaVuSans-20" x="583.398438"/>
     <use xlink:href="#DejaVuSans-6f" x="615.185547"/>
     <use xlink:href="#DejaVuSans-66" x="676.367188"/>
     <use xlink:href="#DejaVuSans-20" x="711.572266"/>
     <use xlink:href="#DejaVuSans-43" x="743.359375"/>
     <use xlink:href="#DejaVuSans-61" x="813.183594"/>
     <use xlink:href="#DejaVuSans-20" x="874.462891"/>
     <use xlink:href="#DejaVuSans-62" x="906.25"/>
     <use xlink:href="#DejaVuSans-79" x="969.726562"/>
     <use xlink:href="#DejaVuSans-20" x="1028.90625"/>
     <use xlink:href="#DejaVuSans-41" x="1060.693359"/>
     <use xlink:href="#DejaVuSans-67" x="1129.101562"/>
     <use xlink:href="#DejaVuSans-65" x="1192.578125"/>
     <use xlink:href="#DejaVuSans-5f" x="1254.101562"/>
     <use xlink:href="#DejaVuSans-47" x="1304.101562"/>
     <use xlink:href="#DejaVuSans-72" x="1381.591797"/>
     <use xlink:href="#DejaVuSans-6f" x="1420.455078"/>
     <use xlink:href="#DejaVuSans-75" x="1481.636719"/>
     <use xlink:href="#DejaVuSans-70" x="1545.015625"/>
    </g>
   </g>
  </g>
 </g>
 <defs>
  <clipPath id="p53511d93b3">
   <rect x="58.993437" y="22.318125" width="446.4" height="277.2"/>
  </clipPath>
 </defs>
</svg>
