<?xml version="1.0" encoding="utf-8" standalone="no"?>
<!DOCTYPE svg PUBLIC "-//W3C//DTD SVG 1.1//EN"
  "http://www.w3.org/Graphics/SVG/1.1/DTD/svg11.dtd">
<svg xmlns:xlink="http://www.w3.org/1999/xlink" width="424.495625pt" height="279.674688pt" viewBox="0 0 424.495625 279.674688" xmlns="http://www.w3.org/2000/svg" version="1.1">
 <metadata>
  <rdf:RDF xmlns:dc="http://purl.org/dc/elements/1.1/" xmlns:cc="http://creativecommons.org/ns#" xmlns:rdf="http://www.w3.org/1999/02/22-rdf-syntax-ns#">
   <cc:Work>
    <dc:type rdf:resource="http://purl.org/dc/dcmitype/StillImage"/>
    <dc:date>2024-08-05T23:55:50.928640</dc:date>
    <dc:format>image/svg+xml</dc:format>
    <dc:creator>
     <cc:Agent>
      <dc:title>Matplotlib v3.9.0, https://matplotlib.org/</dc:title>
     </cc:Agent>
    </dc:creator>
   </cc:Work>
  </rdf:RDF>
 </metadata>
 <defs>
  <style type="text/css">*{stroke-linejoin: round; stroke-linecap: butt}</style>
 </defs>
 <g id="figure_1">
  <g id="patch_1">
   <path d="M 0 279.674688 
L 424.495625 279.674688 
L 424.495625 0 
L 0 0 
z
" style="fill: #ffffff"/>
  </g>
  <g id="axes_1">
   <g id="patch_2">
    <path d="M 46.965625 242.118437 
L 417.295625 242.118437 
L 417.295625 20.798437 
L 46.965625 20.798437 
z
" style="fill: #ffffff"/>
   </g>
   <g id="patch_3">
    <path d="M 63.798807 242.118437 
L 66.238398 242.118437 
L 66.238398 217.013631 
L 63.798807 217.013631 
z
" clip-path="url(#pf4f92a29aa)" style="fill: #808080; stroke: #000000; stroke-width: 0.220553; stroke-linejoin: miter"/>
   </g>
   <g id="patch_4">
    <path d="M 66.238398 242.118437 
L 68.67799 242.118437 
L 68.67799 191.163137 
L 66.238398 191.163137 
z
" clip-path="url(#pf4f92a29aa)" style="fill: #808080; stroke: #000000; stroke-width: 0.220553; stroke-linejoin: miter"/>
   </g>
   <g id="patch_5">
    <path d="M 68.67799 242.118437 
L 71.117582 242.118437 
L 71.117582 175.503703 
L 68.67799 175.503703 
z
" clip-path="url(#pf4f92a29aa)" style="fill: #808080; stroke: #000000; stroke-width: 0.220553; stroke-linejoin: miter"/>
   </g>
   <g id="patch_6">
    <path d="M 71.117582 242.118437 
L 73.557173 242.118437 
L 73.557173 173.266641 
L 71.117582 173.266641 
z
" clip-path="url(#pf4f92a29aa)" style="fill: #808080; stroke: #000000; stroke-width: 0.220553; stroke-linejoin: miter"/>
   </g>
   <g id="patch_7">
    <path d="M 73.557173 242.118437 
L 75.996765 242.118437 
L 75.996765 177.492202 
L 73.557173 177.492202 
z
" clip-path="url(#pf4f92a29aa)" style="fill: #808080; stroke: #000000; stroke-width: 0.220553; stroke-linejoin: miter"/>
   </g>
   <g id="patch_8">
    <path d="M 75.996765 242.118437 
L 78.436356 242.118437 
L 78.436356 189.174637 
L 75.996765 189.174637 
z
" clip-path="url(#pf4f92a29aa)" style="fill: #808080; stroke: #000000; stroke-width: 0.220553; stroke-linejoin: miter"/>
   </g>
   <g id="patch_9">
    <path d="M 78.436356 242.118437 
L 80.875948 242.118437 
L 80.875948 187.683262 
L 78.436356 187.683262 
z
" clip-path="url(#pf4f92a29aa)" style="fill: #808080; stroke: #000000; stroke-width: 0.220553; stroke-linejoin: miter"/>
   </g>
   <g id="patch_10">
    <path d="M 80.875948 242.118437 
L 83.315539 242.118437 
L 83.315539 178.983577 
L 80.875948 178.983577 
z
" clip-path="url(#pf4f92a29aa)" style="fill: #808080; stroke: #000000; stroke-width: 0.220553; stroke-linejoin: miter"/>
   </g>
   <g id="patch_11">
    <path d="M 83.315539 242.118437 
L 85.755131 242.118437 
L 85.755131 176.24939 
L 83.315539 176.24939 
z
" clip-path="url(#pf4f92a29aa)" style="fill: #808080; stroke: #000000; stroke-width: 0.220553; stroke-linejoin: miter"/>
   </g>
   <g id="patch_12">
    <path d="M 85.755131 242.118437 
L 88.194722 242.118437 
L 88.194722 174.012328 
L 85.755131 174.012328 
z
" clip-path="url(#pf4f92a29aa)" style="fill: #808080; stroke: #000000; stroke-width: 0.220553; stroke-linejoin: miter"/>
   </g>
   <g id="patch_13">
    <path d="M 88.194722 242.118437 
L 90.634314 242.118437 
L 90.634314 159.347144 
L 88.194722 159.347144 
z
" clip-path="url(#pf4f92a29aa)" style="fill: #808080; stroke: #000000; stroke-width: 0.220553; stroke-linejoin: miter"/>
   </g>
   <g id="patch_14">
    <path d="M 90.634314 242.118437 
L 93.073906 242.118437 
L 93.073906 152.635958 
L 90.634314 152.635958 
z
" clip-path="url(#pf4f92a29aa)" style="fill: #808080; stroke: #000000; stroke-width: 0.220553; stroke-linejoin: miter"/>
   </g>
   <g id="patch_15">
    <path d="M 93.073906 242.118437 
L 95.513497 242.118437 
L 95.513497 163.572705 
L 93.073906 163.572705 
z
" clip-path="url(#pf4f92a29aa)" style="fill: #808080; stroke: #000000; stroke-width: 0.220553; stroke-linejoin: miter"/>
   </g>
   <g id="patch_16">
    <path d="M 95.513497 242.118437 
L 97.953089 242.118437 
L 97.953089 143.68771 
L 95.513497 143.68771 
z
" clip-path="url(#pf4f92a29aa)" style="fill: #808080; stroke: #000000; stroke-width: 0.220553; stroke-linejoin: miter"/>
   </g>
   <g id="patch_17">
    <path d="M 97.953089 242.118437 
L 100.39268 242.118437 
L 100.39268 132.005275 
L 97.953089 132.005275 
z
" clip-path="url(#pf4f92a29aa)" style="fill: #808080; stroke: #000000; stroke-width: 0.220553; stroke-linejoin: miter"/>
   </g>
   <g id="patch_18">
    <path d="M 100.39268 242.118437 
L 102.832272 242.118437 
L 102.832272 117.091528 
L 100.39268 117.091528 
z
" clip-path="url(#pf4f92a29aa)" style="fill: #808080; stroke: #000000; stroke-width: 0.220553; stroke-linejoin: miter"/>
   </g>
   <g id="patch_19">
    <path d="M 102.832272 242.118437 
L 105.271863 242.118437 
L 105.271863 116.842966 
L 102.832272 116.842966 
z
" clip-path="url(#pf4f92a29aa)" style="fill: #808080; stroke: #000000; stroke-width: 0.220553; stroke-linejoin: miter"/>
   </g>
   <g id="patch_20">
    <path d="M 105.271863 242.118437 
L 107.711455 242.118437 
L 107.711455 117.588653 
L 105.271863 117.588653 
z
" clip-path="url(#pf4f92a29aa)" style="fill: #808080; stroke: #000000; stroke-width: 0.220553; stroke-linejoin: miter"/>
   </g>
   <g id="patch_21">
    <path d="M 107.711455 242.118437 
L 110.151047 242.118437 
L 110.151047 64.893415 
L 107.711455 64.893415 
z
" clip-path="url(#pf4f92a29aa)" style="fill: #808080; stroke: #000000; stroke-width: 0.220553; stroke-linejoin: miter"/>
   </g>
   <g id="patch_22">
    <path d="M 110.151047 242.118437 
L 112.590638 242.118437 
L 112.590638 110.13178 
L 110.151047 110.13178 
z
" clip-path="url(#pf4f92a29aa)" style="fill: #808080; stroke: #000000; stroke-width: 0.220553; stroke-linejoin: miter"/>
   </g>
   <g id="patch_23">
    <path d="M 112.590638 242.118437 
L 115.03023 242.118437 
L 115.03023 46.996919 
L 112.590638 46.996919 
z
" clip-path="url(#pf4f92a29aa)" style="fill: #808080; stroke: #000000; stroke-width: 0.220553; stroke-linejoin: miter"/>
   </g>
   <g id="patch_24">
    <path d="M 115.03023 242.118437 
L 117.469821 242.118437 
L 117.469821 85.026973 
L 115.03023 85.026973 
z
" clip-path="url(#pf4f92a29aa)" style="fill: #808080; stroke: #000000; stroke-width: 0.220553; stroke-linejoin: miter"/>
   </g>
   <g id="patch_25">
    <path d="M 117.469821 242.118437 
L 119.909413 242.118437 
L 119.909413 31.337485 
L 117.469821 31.337485 
z
" clip-path="url(#pf4f92a29aa)" style="fill: #808080; stroke: #000000; stroke-width: 0.220553; stroke-linejoin: miter"/>
   </g>
   <g id="patch_26">
    <path d="M 119.909413 242.118437 
L 122.349004 242.118437 
L 122.349004 70.361789 
L 119.909413 70.361789 
z
" clip-path="url(#pf4f92a29aa)" style="fill: #808080; stroke: #000000; stroke-width: 0.220553; stroke-linejoin: miter"/>
   </g>
   <g id="patch_27">
    <path d="M 122.349004 242.118437 
L 124.788596 242.118437 
L 124.788596 62.159228 
L 122.349004 62.159228 
z
" clip-path="url(#pf4f92a29aa)" style="fill: #808080; stroke: #000000; stroke-width: 0.220553; stroke-linejoin: miter"/>
   </g>
   <g id="patch_28">
    <path d="M 124.788596 242.118437 
L 127.228188 242.118437 
L 127.228188 42.274233 
L 124.788596 42.274233 
z
" clip-path="url(#pf4f92a29aa)" style="fill: #808080; stroke: #000000; stroke-width: 0.220553; stroke-linejoin: miter"/>
   </g>
   <g id="patch_29">
    <path d="M 127.228188 242.118437 
L 129.667779 242.118437 
L 129.667779 70.610351 
L 127.228188 70.610351 
z
" clip-path="url(#pf4f92a29aa)" style="fill: #808080; stroke: #000000; stroke-width: 0.220553; stroke-linejoin: miter"/>
   </g>
   <g id="patch_30">
    <path d="M 129.667779 242.118437 
L 132.107371 242.118437 
L 132.107371 110.877467 
L 129.667779 110.877467 
z
" clip-path="url(#pf4f92a29aa)" style="fill: #808080; stroke: #000000; stroke-width: 0.220553; stroke-linejoin: miter"/>
   </g>
   <g id="patch_31">
    <path d="M 132.107371 242.118437 
L 134.546962 242.118437 
L 134.546962 101.183532 
L 132.107371 101.183532 
z
" clip-path="url(#pf4f92a29aa)" style="fill: #808080; stroke: #000000; stroke-width: 0.220553; stroke-linejoin: miter"/>
   </g>
   <g id="patch_32">
    <path d="M 134.546962 242.118437 
L 136.986554 242.118437 
L 136.986554 105.657656 
L 134.546962 105.657656 
z
" clip-path="url(#pf4f92a29aa)" style="fill: #808080; stroke: #000000; stroke-width: 0.220553; stroke-linejoin: miter"/>
   </g>
   <g id="patch_33">
    <path d="M 136.986554 242.118437 
L 139.426145 242.118437 
L 139.426145 132.750962 
L 136.986554 132.750962 
z
" clip-path="url(#pf4f92a29aa)" style="fill: #808080; stroke: #000000; stroke-width: 0.220553; stroke-linejoin: miter"/>
   </g>
   <g id="patch_34">
    <path d="M 139.426145 242.118437 
L 141.865737 242.118437 
L 141.865737 163.07558 
L 139.426145 163.07558 
z
" clip-path="url(#pf4f92a29aa)" style="fill: #808080; stroke: #000000; stroke-width: 0.220553; stroke-linejoin: miter"/>
   </g>
   <g id="patch_35">
    <path d="M 141.865737 242.118437 
L 144.305329 242.118437 
L 144.305329 174.26089 
L 141.865737 174.26089 
z
" clip-path="url(#pf4f92a29aa)" style="fill: #808080; stroke: #000000; stroke-width: 0.220553; stroke-linejoin: miter"/>
   </g>
   <g id="patch_36">
    <path d="M 144.305329 242.118437 
L 146.74492 242.118437 
L 146.74492 161.832768 
L 144.305329 161.832768 
z
" clip-path="url(#pf4f92a29aa)" style="fill: #808080; stroke: #000000; stroke-width: 0.220553; stroke-linejoin: miter"/>
   </g>
   <g id="patch_37">
    <path d="M 146.74492 242.118437 
L 149.184512 242.118437 
L 149.184512 183.954826 
L 146.74492 183.954826 
z
" clip-path="url(#pf4f92a29aa)" style="fill: #808080; stroke: #000000; stroke-width: 0.220553; stroke-linejoin: miter"/>
   </g>
   <g id="patch_38">
    <path d="M 149.184512 242.118437 
L 151.624103 242.118437 
L 151.624103 198.371447 
L 149.184512 198.371447 
z
" clip-path="url(#pf4f92a29aa)" style="fill: #808080; stroke: #000000; stroke-width: 0.220553; stroke-linejoin: miter"/>
   </g>
   <g id="patch_39">
    <path d="M 151.624103 242.118437 
L 154.063695 242.118437 
L 154.063695 207.071133 
L 151.624103 207.071133 
z
" clip-path="url(#pf4f92a29aa)" style="fill: #808080; stroke: #000000; stroke-width: 0.220553; stroke-linejoin: miter"/>
   </g>
   <g id="patch_40">
    <path d="M 154.063695 242.118437 
L 156.503286 242.118437 
L 156.503286 204.834071 
L 154.063695 204.834071 
z
" clip-path="url(#pf4f92a29aa)" style="fill: #808080; stroke: #000000; stroke-width: 0.220553; stroke-linejoin: miter"/>
   </g>
   <g id="patch_41">
    <path d="M 156.503286 242.118437 
L 158.942878 242.118437 
L 158.942878 212.788069 
L 156.503286 212.788069 
z
" clip-path="url(#pf4f92a29aa)" style="fill: #808080; stroke: #000000; stroke-width: 0.220553; stroke-linejoin: miter"/>
   </g>
   <g id="patch_42">
    <path d="M 158.942878 242.118437 
L 161.38247 242.118437 
L 161.38247 218.00788 
L 158.942878 218.00788 
z
" clip-path="url(#pf4f92a29aa)" style="fill: #808080; stroke: #000000; stroke-width: 0.220553; stroke-linejoin: miter"/>
   </g>
   <g id="patch_43">
    <path d="M 161.38247 242.118437 
L 163.822061 242.118437 
L 163.822061 221.98488 
L 161.38247 221.98488 
z
" clip-path="url(#pf4f92a29aa)" style="fill: #808080; stroke: #000000; stroke-width: 0.220553; stroke-linejoin: miter"/>
   </g>
   <g id="patch_44">
    <path d="M 163.822061 242.118437 
L 166.261653 242.118437 
L 166.261653 225.961879 
L 163.822061 225.961879 
z
" clip-path="url(#pf4f92a29aa)" style="fill: #808080; stroke: #000000; stroke-width: 0.220553; stroke-linejoin: miter"/>
   </g>
   <g id="patch_45">
    <path d="M 166.261653 242.118437 
L 168.701244 242.118437 
L 168.701244 226.210441 
L 166.261653 226.210441 
z
" clip-path="url(#pf4f92a29aa)" style="fill: #808080; stroke: #000000; stroke-width: 0.220553; stroke-linejoin: miter"/>
   </g>
   <g id="patch_46">
    <path d="M 168.701244 242.118437 
L 171.140836 242.118437 
L 171.140836 221.98488 
L 168.701244 221.98488 
z
" clip-path="url(#pf4f92a29aa)" style="fill: #808080; stroke: #000000; stroke-width: 0.220553; stroke-linejoin: miter"/>
   </g>
   <g id="patch_47">
    <path d="M 171.140836 242.118437 
L 173.580427 242.118437 
L 173.580427 235.407252 
L 171.140836 235.407252 
z
" clip-path="url(#pf4f92a29aa)" style="fill: #808080; stroke: #000000; stroke-width: 0.220553; stroke-linejoin: miter"/>
   </g>
   <g id="patch_48">
    <path d="M 173.580427 242.118437 
L 176.020019 242.118437 
L 176.020019 234.413002 
L 173.580427 234.413002 
z
" clip-path="url(#pf4f92a29aa)" style="fill: #808080; stroke: #000000; stroke-width: 0.220553; stroke-linejoin: miter"/>
   </g>
   <g id="patch_49">
    <path d="M 176.020019 242.118437 
L 178.459611 242.118437 
L 178.459611 235.904376 
L 176.020019 235.904376 
z
" clip-path="url(#pf4f92a29aa)" style="fill: #808080; stroke: #000000; stroke-width: 0.220553; stroke-linejoin: miter"/>
   </g>
   <g id="patch_50">
    <path d="M 178.459611 242.118437 
L 180.899202 242.118437 
L 180.899202 237.147189 
L 178.459611 237.147189 
z
" clip-path="url(#pf4f92a29aa)" style="fill: #808080; stroke: #000000; stroke-width: 0.220553; stroke-linejoin: miter"/>
   </g>
   <g id="patch_51">
    <path d="M 180.899202 242.118437 
L 183.338794 242.118437 
L 183.338794 238.638563 
L 180.899202 238.638563 
z
" clip-path="url(#pf4f92a29aa)" style="fill: #808080; stroke: #000000; stroke-width: 0.220553; stroke-linejoin: miter"/>
   </g>
   <g id="patch_52">
    <path d="M 183.338794 242.118437 
L 185.778385 242.118437 
L 185.778385 236.650064 
L 183.338794 236.650064 
z
" clip-path="url(#pf4f92a29aa)" style="fill: #808080; stroke: #000000; stroke-width: 0.220553; stroke-linejoin: miter"/>
   </g>
   <g id="patch_53">
    <path d="M 185.778385 242.118437 
L 188.217977 242.118437 
L 188.217977 232.17594 
L 185.778385 232.17594 
z
" clip-path="url(#pf4f92a29aa)" style="fill: #808080; stroke: #000000; stroke-width: 0.220553; stroke-linejoin: miter"/>
   </g>
   <g id="patch_54">
    <path d="M 188.217977 242.118437 
L 190.657568 242.118437 
L 190.657568 236.152939 
L 188.217977 236.152939 
z
" clip-path="url(#pf4f92a29aa)" style="fill: #808080; stroke: #000000; stroke-width: 0.220553; stroke-linejoin: miter"/>
   </g>
   <g id="patch_55">
    <path d="M 190.657568 242.118437 
L 193.09716 242.118437 
L 193.09716 240.3785 
L 190.657568 240.3785 
z
" clip-path="url(#pf4f92a29aa)" style="fill: #808080; stroke: #000000; stroke-width: 0.220553; stroke-linejoin: miter"/>
   </g>
   <g id="patch_56">
    <path d="M 193.09716 242.118437 
L 195.536751 242.118437 
L 195.536751 241.37275 
L 193.09716 241.37275 
z
" clip-path="url(#pf4f92a29aa)" style="fill: #808080; stroke: #000000; stroke-width: 0.220553; stroke-linejoin: miter"/>
   </g>
   <g id="patch_57">
    <path d="M 195.536751 242.118437 
L 197.976343 242.118437 
L 197.976343 240.627063 
L 195.536751 240.627063 
z
" clip-path="url(#pf4f92a29aa)" style="fill: #808080; stroke: #000000; stroke-width: 0.220553; stroke-linejoin: miter"/>
   </g>
   <g id="patch_58">
    <path d="M 197.976343 242.118437 
L 200.415935 242.118437 
L 200.415935 240.3785 
L 197.976343 240.3785 
z
" clip-path="url(#pf4f92a29aa)" style="fill: #808080; stroke: #000000; stroke-width: 0.220553; stroke-linejoin: miter"/>
   </g>
   <g id="patch_59">
    <path d="M 200.415935 242.118437 
L 202.855526 242.118437 
L 202.855526 241.37275 
L 200.415935 241.37275 
z
" clip-path="url(#pf4f92a29aa)" style="fill: #808080; stroke: #000000; stroke-width: 0.220553; stroke-linejoin: miter"/>
   </g>
   <g id="patch_60">
    <path d="M 202.855526 242.118437 
L 205.295118 242.118437 
L 205.295118 241.37275 
L 202.855526 241.37275 
z
" clip-path="url(#pf4f92a29aa)" style="fill: #808080; stroke: #000000; stroke-width: 0.220553; stroke-linejoin: miter"/>
   </g>
   <g id="patch_61">
    <path d="M 205.295118 242.118437 
L 207.734709 242.118437 
L 207.734709 241.124188 
L 205.295118 241.124188 
z
" clip-path="url(#pf4f92a29aa)" style="fill: #808080; stroke: #000000; stroke-width: 0.220553; stroke-linejoin: miter"/>
   </g>
   <g id="patch_62">
    <path d="M 207.734709 242.118437 
L 210.174301 242.118437 
L 210.174301 240.875625 
L 207.734709 240.875625 
z
" clip-path="url(#pf4f92a29aa)" style="fill: #808080; stroke: #000000; stroke-width: 0.220553; stroke-linejoin: miter"/>
   </g>
   <g id="patch_63">
    <path d="M 210.174301 242.118437 
L 212.613892 242.118437 
L 212.613892 238.141438 
L 210.174301 238.141438 
z
" clip-path="url(#pf4f92a29aa)" style="fill: #808080; stroke: #000000; stroke-width: 0.220553; stroke-linejoin: miter"/>
   </g>
   <g id="patch_64">
    <path d="M 212.613892 242.118437 
L 215.053484 242.118437 
L 215.053484 239.881376 
L 212.613892 239.881376 
z
" clip-path="url(#pf4f92a29aa)" style="fill: #808080; stroke: #000000; stroke-width: 0.220553; stroke-linejoin: miter"/>
   </g>
   <g id="patch_65">
    <path d="M 215.053484 242.118437 
L 217.493076 242.118437 
L 217.493076 241.869875 
L 215.053484 241.869875 
z
" clip-path="url(#pf4f92a29aa)" style="fill: #808080; stroke: #000000; stroke-width: 0.220553; stroke-linejoin: miter"/>
   </g>
   <g id="patch_66">
    <path d="M 217.493076 242.118437 
L 219.932667 242.118437 
L 219.932667 242.118437 
L 217.493076 242.118437 
z
" clip-path="url(#pf4f92a29aa)" style="fill: #808080; stroke: #000000; stroke-width: 0.220553; stroke-linejoin: miter"/>
   </g>
   <g id="patch_67">
    <path d="M 219.932667 242.118437 
L 222.372259 242.118437 
L 222.372259 241.869875 
L 219.932667 241.869875 
z
" clip-path="url(#pf4f92a29aa)" style="fill: #808080; stroke: #000000; stroke-width: 0.220553; stroke-linejoin: miter"/>
   </g>
   <g id="patch_68">
    <path d="M 222.372259 242.118437 
L 224.81185 242.118437 
L 224.81185 241.869875 
L 222.372259 241.869875 
z
" clip-path="url(#pf4f92a29aa)" style="fill: #808080; stroke: #000000; stroke-width: 0.220553; stroke-linejoin: miter"/>
   </g>
   <g id="patch_69">
    <path d="M 224.81185 242.118437 
L 227.251442 242.118437 
L 227.251442 242.118437 
L 224.81185 242.118437 
z
" clip-path="url(#pf4f92a29aa)" style="fill: #808080; stroke: #000000; stroke-width: 0.220553; stroke-linejoin: miter"/>
   </g>
   <g id="patch_70">
    <path d="M 227.251442 242.118437 
L 229.691033 242.118437 
L 229.691033 242.118437 
L 227.251442 242.118437 
z
" clip-path="url(#pf4f92a29aa)" style="fill: #808080; stroke: #000000; stroke-width: 0.220553; stroke-linejoin: miter"/>
   </g>
   <g id="patch_71">
    <path d="M 229.691033 242.118437 
L 232.130625 242.118437 
L 232.130625 242.118437 
L 229.691033 242.118437 
z
" clip-path="url(#pf4f92a29aa)" style="fill: #808080; stroke: #000000; stroke-width: 0.220553; stroke-linejoin: miter"/>
   </g>
   <g id="patch_72">
    <path d="M 232.130625 242.118437 
L 234.570217 242.118437 
L 234.570217 241.869875 
L 232.130625 241.869875 
z
" clip-path="url(#pf4f92a29aa)" style="fill: #808080; stroke: #000000; stroke-width: 0.220553; stroke-linejoin: miter"/>
   </g>
   <g id="patch_73">
    <path d="M 234.570217 242.118437 
L 237.009808 242.118437 
L 237.009808 241.869875 
L 234.570217 241.869875 
z
" clip-path="url(#pf4f92a29aa)" style="fill: #808080; stroke: #000000; stroke-width: 0.220553; stroke-linejoin: miter"/>
   </g>
   <g id="patch_74">
    <path d="M 237.009808 242.118437 
L 239.4494 242.118437 
L 239.4494 241.869875 
L 237.009808 241.869875 
z
" clip-path="url(#pf4f92a29aa)" style="fill: #808080; stroke: #000000; stroke-width: 0.220553; stroke-linejoin: miter"/>
   </g>
   <g id="patch_75">
    <path d="M 239.4494 242.118437 
L 241.888991 242.118437 
L 241.888991 241.621313 
L 239.4494 241.621313 
z
" clip-path="url(#pf4f92a29aa)" style="fill: #808080; stroke: #000000; stroke-width: 0.220553; stroke-linejoin: miter"/>
   </g>
   <g id="patch_76">
    <path d="M 241.888991 242.118437 
L 244.328583 242.118437 
L 244.328583 241.124188 
L 241.888991 241.124188 
z
" clip-path="url(#pf4f92a29aa)" style="fill: #808080; stroke: #000000; stroke-width: 0.220553; stroke-linejoin: miter"/>
   </g>
   <g id="patch_77">
    <path d="M 244.328583 242.118437 
L 246.768174 242.118437 
L 246.768174 240.627063 
L 244.328583 240.627063 
z
" clip-path="url(#pf4f92a29aa)" style="fill: #808080; stroke: #000000; stroke-width: 0.220553; stroke-linejoin: miter"/>
   </g>
   <g id="patch_78">
    <path d="M 246.768174 242.118437 
L 249.207766 242.118437 
L 249.207766 240.875625 
L 246.768174 240.875625 
z
" clip-path="url(#pf4f92a29aa)" style="fill: #808080; stroke: #000000; stroke-width: 0.220553; stroke-linejoin: miter"/>
   </g>
   <g id="patch_79">
    <path d="M 249.207766 242.118437 
L 251.647358 242.118437 
L 251.647358 241.124188 
L 249.207766 241.124188 
z
" clip-path="url(#pf4f92a29aa)" style="fill: #808080; stroke: #000000; stroke-width: 0.220553; stroke-linejoin: miter"/>
   </g>
   <g id="patch_80">
    <path d="M 251.647358 242.118437 
L 254.086949 242.118437 
L 254.086949 242.118437 
L 251.647358 242.118437 
z
" clip-path="url(#pf4f92a29aa)" style="fill: #808080; stroke: #000000; stroke-width: 0.220553; stroke-linejoin: miter"/>
   </g>
   <g id="patch_81">
    <path d="M 254.086949 242.118437 
L 256.526541 242.118437 
L 256.526541 242.118437 
L 254.086949 242.118437 
z
" clip-path="url(#pf4f92a29aa)" style="fill: #808080; stroke: #000000; stroke-width: 0.220553; stroke-linejoin: miter"/>
   </g>
   <g id="patch_82">
    <path d="M 256.526541 242.118437 
L 258.966132 242.118437 
L 258.966132 242.118437 
L 256.526541 242.118437 
z
" clip-path="url(#pf4f92a29aa)" style="fill: #808080; stroke: #000000; stroke-width: 0.220553; stroke-linejoin: miter"/>
   </g>
   <g id="patch_83">
    <path d="M 258.966132 242.118437 
L 261.405724 242.118437 
L 261.405724 241.869875 
L 258.966132 241.869875 
z
" clip-path="url(#pf4f92a29aa)" style="fill: #808080; stroke: #000000; stroke-width: 0.220553; stroke-linejoin: miter"/>
   </g>
   <g id="patch_84">
    <path d="M 261.405724 242.118437 
L 263.845315 242.118437 
L 263.845315 242.118437 
L 261.405724 242.118437 
z
" clip-path="url(#pf4f92a29aa)" style="fill: #808080; stroke: #000000; stroke-width: 0.220553; stroke-linejoin: miter"/>
   </g>
   <g id="patch_85">
    <path d="M 263.845315 242.118437 
L 266.284907 242.118437 
L 266.284907 242.118437 
L 263.845315 242.118437 
z
" clip-path="url(#pf4f92a29aa)" style="fill: #808080; stroke: #000000; stroke-width: 0.220553; stroke-linejoin: miter"/>
   </g>
   <g id="patch_86">
    <path d="M 266.284907 242.118437 
L 268.724499 242.118437 
L 268.724499 242.118437 
L 266.284907 242.118437 
z
" clip-path="url(#pf4f92a29aa)" style="fill: #808080; stroke: #000000; stroke-width: 0.220553; stroke-linejoin: miter"/>
   </g>
   <g id="patch_87">
    <path d="M 268.724499 242.118437 
L 271.16409 242.118437 
L 271.16409 242.118437 
L 268.724499 242.118437 
z
" clip-path="url(#pf4f92a29aa)" style="fill: #808080; stroke: #000000; stroke-width: 0.220553; stroke-linejoin: miter"/>
   </g>
   <g id="patch_88">
    <path d="M 271.16409 242.118437 
L 273.603682 242.118437 
L 273.603682 242.118437 
L 271.16409 242.118437 
z
" clip-path="url(#pf4f92a29aa)" style="fill: #808080; stroke: #000000; stroke-width: 0.220553; stroke-linejoin: miter"/>
   </g>
   <g id="patch_89">
    <path d="M 273.603682 242.118437 
L 276.043273 242.118437 
L 276.043273 242.118437 
L 273.603682 242.118437 
z
" clip-path="url(#pf4f92a29aa)" style="fill: #808080; stroke: #000000; stroke-width: 0.220553; stroke-linejoin: miter"/>
   </g>
   <g id="patch_90">
    <path d="M 276.043273 242.118437 
L 278.482865 242.118437 
L 278.482865 242.118437 
L 276.043273 242.118437 
z
" clip-path="url(#pf4f92a29aa)" style="fill: #808080; stroke: #000000; stroke-width: 0.220553; stroke-linejoin: miter"/>
   </g>
   <g id="patch_91">
    <path d="M 278.482865 242.118437 
L 280.922456 242.118437 
L 280.922456 242.118437 
L 278.482865 242.118437 
z
" clip-path="url(#pf4f92a29aa)" style="fill: #808080; stroke: #000000; stroke-width: 0.220553; stroke-linejoin: miter"/>
   </g>
   <g id="patch_92">
    <path d="M 280.922456 242.118437 
L 283.362048 242.118437 
L 283.362048 242.118437 
L 280.922456 242.118437 
z
" clip-path="url(#pf4f92a29aa)" style="fill: #808080; stroke: #000000; stroke-width: 0.220553; stroke-linejoin: miter"/>
   </g>
   <g id="patch_93">
    <path d="M 283.362048 242.118437 
L 285.801639 242.118437 
L 285.801639 242.118437 
L 283.362048 242.118437 
z
" clip-path="url(#pf4f92a29aa)" style="fill: #808080; stroke: #000000; stroke-width: 0.220553; stroke-linejoin: miter"/>
   </g>
   <g id="patch_94">
    <path d="M 285.801639 242.118437 
L 288.241231 242.118437 
L 288.241231 242.118437 
L 285.801639 242.118437 
z
" clip-path="url(#pf4f92a29aa)" style="fill: #808080; stroke: #000000; stroke-width: 0.220553; stroke-linejoin: miter"/>
   </g>
   <g id="patch_95">
    <path d="M 288.241231 242.118437 
L 290.680823 242.118437 
L 290.680823 242.118437 
L 288.241231 242.118437 
z
" clip-path="url(#pf4f92a29aa)" style="fill: #808080; stroke: #000000; stroke-width: 0.220553; stroke-linejoin: miter"/>
   </g>
   <g id="patch_96">
    <path d="M 290.680823 242.118437 
L 293.120414 242.118437 
L 293.120414 242.118437 
L 290.680823 242.118437 
z
" clip-path="url(#pf4f92a29aa)" style="fill: #808080; stroke: #000000; stroke-width: 0.220553; stroke-linejoin: miter"/>
   </g>
   <g id="patch_97">
    <path d="M 293.120414 242.118437 
L 295.560006 242.118437 
L 295.560006 242.118437 
L 293.120414 242.118437 
z
" clip-path="url(#pf4f92a29aa)" style="fill: #808080; stroke: #000000; stroke-width: 0.220553; stroke-linejoin: miter"/>
   </g>
   <g id="patch_98">
    <path d="M 295.560006 242.118437 
L 297.999597 242.118437 
L 297.999597 241.621313 
L 295.560006 241.621313 
z
" clip-path="url(#pf4f92a29aa)" style="fill: #808080; stroke: #000000; stroke-width: 0.220553; stroke-linejoin: miter"/>
   </g>
   <g id="patch_99">
    <path d="M 297.999597 242.118437 
L 300.439189 242.118437 
L 300.439189 241.37275 
L 297.999597 241.37275 
z
" clip-path="url(#pf4f92a29aa)" style="fill: #808080; stroke: #000000; stroke-width: 0.220553; stroke-linejoin: miter"/>
   </g>
   <g id="patch_100">
    <path d="M 300.439189 242.118437 
L 302.87878 242.118437 
L 302.87878 241.621313 
L 300.439189 241.621313 
z
" clip-path="url(#pf4f92a29aa)" style="fill: #808080; stroke: #000000; stroke-width: 0.220553; stroke-linejoin: miter"/>
   </g>
   <g id="patch_101">
    <path d="M 302.87878 242.118437 
L 305.318372 242.118437 
L 305.318372 241.869875 
L 302.87878 241.869875 
z
" clip-path="url(#pf4f92a29aa)" style="fill: #808080; stroke: #000000; stroke-width: 0.220553; stroke-linejoin: miter"/>
   </g>
   <g id="patch_102">
    <path d="M 305.318372 242.118437 
L 307.757964 242.118437 
L 307.757964 242.118437 
L 305.318372 242.118437 
z
" clip-path="url(#pf4f92a29aa)" style="fill: #808080; stroke: #000000; stroke-width: 0.220553; stroke-linejoin: miter"/>
   </g>
   <g id="patch_103">
    <path d="M 307.757964 242.118437 
L 310.197555 242.118437 
L 310.197555 242.118437 
L 307.757964 242.118437 
z
" clip-path="url(#pf4f92a29aa)" style="fill: #808080; stroke: #000000; stroke-width: 0.220553; stroke-linejoin: miter"/>
   </g>
   <g id="patch_104">
    <path d="M 310.197555 242.118437 
L 312.637147 242.118437 
L 312.637147 242.118437 
L 310.197555 242.118437 
z
" clip-path="url(#pf4f92a29aa)" style="fill: #808080; stroke: #000000; stroke-width: 0.220553; stroke-linejoin: miter"/>
   </g>
   <g id="patch_105">
    <path d="M 312.637147 242.118437 
L 315.076738 242.118437 
L 315.076738 242.118437 
L 312.637147 242.118437 
z
" clip-path="url(#pf4f92a29aa)" style="fill: #808080; stroke: #000000; stroke-width: 0.220553; stroke-linejoin: miter"/>
   </g>
   <g id="patch_106">
    <path d="M 315.076738 242.118437 
L 317.51633 242.118437 
L 317.51633 242.118437 
L 315.076738 242.118437 
z
" clip-path="url(#pf4f92a29aa)" style="fill: #808080; stroke: #000000; stroke-width: 0.220553; stroke-linejoin: miter"/>
   </g>
   <g id="patch_107">
    <path d="M 317.51633 242.118437 
L 319.955921 242.118437 
L 319.955921 242.118437 
L 317.51633 242.118437 
z
" clip-path="url(#pf4f92a29aa)" style="fill: #808080; stroke: #000000; stroke-width: 0.220553; stroke-linejoin: miter"/>
   </g>
   <g id="patch_108">
    <path d="M 319.955921 242.118437 
L 322.395513 242.118437 
L 322.395513 242.118437 
L 319.955921 242.118437 
z
" clip-path="url(#pf4f92a29aa)" style="fill: #808080; stroke: #000000; stroke-width: 0.220553; stroke-linejoin: miter"/>
   </g>
   <g id="patch_109">
    <path d="M 322.395513 242.118437 
L 324.835105 242.118437 
L 324.835105 242.118437 
L 322.395513 242.118437 
z
" clip-path="url(#pf4f92a29aa)" style="fill: #808080; stroke: #000000; stroke-width: 0.220553; stroke-linejoin: miter"/>
   </g>
   <g id="patch_110">
    <path d="M 324.835105 242.118437 
L 327.274696 242.118437 
L 327.274696 242.118437 
L 324.835105 242.118437 
z
" clip-path="url(#pf4f92a29aa)" style="fill: #808080; stroke: #000000; stroke-width: 0.220553; stroke-linejoin: miter"/>
   </g>
   <g id="patch_111">
    <path d="M 327.274696 242.118437 
L 329.714288 242.118437 
L 329.714288 242.118437 
L 327.274696 242.118437 
z
" clip-path="url(#pf4f92a29aa)" style="fill: #808080; stroke: #000000; stroke-width: 0.220553; stroke-linejoin: miter"/>
   </g>
   <g id="patch_112">
    <path d="M 329.714288 242.118437 
L 332.153879 242.118437 
L 332.153879 242.118437 
L 329.714288 242.118437 
z
" clip-path="url(#pf4f92a29aa)" style="fill: #808080; stroke: #000000; stroke-width: 0.220553; stroke-linejoin: miter"/>
   </g>
   <g id="patch_113">
    <path d="M 332.153879 242.118437 
L 334.593471 242.118437 
L 334.593471 242.118437 
L 332.153879 242.118437 
z
" clip-path="url(#pf4f92a29aa)" style="fill: #808080; stroke: #000000; stroke-width: 0.220553; stroke-linejoin: miter"/>
   </g>
   <g id="patch_114">
    <path d="M 334.593471 242.118437 
L 337.033062 242.118437 
L 337.033062 242.118437 
L 334.593471 242.118437 
z
" clip-path="url(#pf4f92a29aa)" style="fill: #808080; stroke: #000000; stroke-width: 0.220553; stroke-linejoin: miter"/>
   </g>
   <g id="patch_115">
    <path d="M 337.033062 242.118437 
L 339.472654 242.118437 
L 339.472654 242.118437 
L 337.033062 242.118437 
z
" clip-path="url(#pf4f92a29aa)" style="fill: #808080; stroke: #000000; stroke-width: 0.220553; stroke-linejoin: miter"/>
   </g>
   <g id="patch_116">
    <path d="M 339.472654 242.118437 
L 341.912246 242.118437 
L 341.912246 242.118437 
L 339.472654 242.118437 
z
" clip-path="url(#pf4f92a29aa)" style="fill: #808080; stroke: #000000; stroke-width: 0.220553; stroke-linejoin: miter"/>
   </g>
   <g id="patch_117">
    <path d="M 341.912246 242.118437 
L 344.351837 242.118437 
L 344.351837 242.118437 
L 341.912246 242.118437 
z
" clip-path="url(#pf4f92a29aa)" style="fill: #808080; stroke: #000000; stroke-width: 0.220553; stroke-linejoin: miter"/>
   </g>
   <g id="patch_118">
    <path d="M 344.351837 242.118437 
L 346.791429 242.118437 
L 346.791429 242.118437 
L 344.351837 242.118437 
z
" clip-path="url(#pf4f92a29aa)" style="fill: #808080; stroke: #000000; stroke-width: 0.220553; stroke-linejoin: miter"/>
   </g>
   <g id="patch_119">
    <path d="M 346.791429 242.118437 
L 349.23102 242.118437 
L 349.23102 242.118437 
L 346.791429 242.118437 
z
" clip-path="url(#pf4f92a29aa)" style="fill: #808080; stroke: #000000; stroke-width: 0.220553; stroke-linejoin: miter"/>
   </g>
   <g id="patch_120">
    <path d="M 349.23102 242.118437 
L 351.670612 242.118437 
L 351.670612 242.118437 
L 349.23102 242.118437 
z
" clip-path="url(#pf4f92a29aa)" style="fill: #808080; stroke: #000000; stroke-width: 0.220553; stroke-linejoin: miter"/>
   </g>
   <g id="patch_121">
    <path d="M 351.670612 242.118437 
L 354.110203 242.118437 
L 354.110203 242.118437 
L 351.670612 242.118437 
z
" clip-path="url(#pf4f92a29aa)" style="fill: #808080; stroke: #000000; stroke-width: 0.220553; stroke-linejoin: miter"/>
   </g>
   <g id="patch_122">
    <path d="M 354.110203 242.118437 
L 356.549795 242.118437 
L 356.549795 242.118437 
L 354.110203 242.118437 
z
" clip-path="url(#pf4f92a29aa)" style="fill: #808080; stroke: #000000; stroke-width: 0.220553; stroke-linejoin: miter"/>
   </g>
   <g id="patch_123">
    <path d="M 356.549795 242.118437 
L 358.989387 242.118437 
L 358.989387 242.118437 
L 356.549795 242.118437 
z
" clip-path="url(#pf4f92a29aa)" style="fill: #808080; stroke: #000000; stroke-width: 0.220553; stroke-linejoin: miter"/>
   </g>
   <g id="patch_124">
    <path d="M 358.989387 242.118437 
L 361.428978 242.118437 
L 361.428978 242.118437 
L 358.989387 242.118437 
z
" clip-path="url(#pf4f92a29aa)" style="fill: #808080; stroke: #000000; stroke-width: 0.220553; stroke-linejoin: miter"/>
   </g>
   <g id="patch_125">
    <path d="M 361.428978 242.118437 
L 363.86857 242.118437 
L 363.86857 242.118437 
L 361.428978 242.118437 
z
" clip-path="url(#pf4f92a29aa)" style="fill: #808080; stroke: #000000; stroke-width: 0.220553; stroke-linejoin: miter"/>
   </g>
   <g id="patch_126">
    <path d="M 363.86857 242.118437 
L 366.308161 242.118437 
L 366.308161 242.118437 
L 363.86857 242.118437 
z
" clip-path="url(#pf4f92a29aa)" style="fill: #808080; stroke: #000000; stroke-width: 0.220553; stroke-linejoin: miter"/>
   </g>
   <g id="patch_127">
    <path d="M 366.308161 242.118437 
L 368.747753 242.118437 
L 368.747753 242.118437 
L 366.308161 242.118437 
z
" clip-path="url(#pf4f92a29aa)" style="fill: #808080; stroke: #000000; stroke-width: 0.220553; stroke-linejoin: miter"/>
   </g>
   <g id="patch_128">
    <path d="M 368.747753 242.118437 
L 371.187344 242.118437 
L 371.187344 242.118437 
L 368.747753 242.118437 
z
" clip-path="url(#pf4f92a29aa)" style="fill: #808080; stroke: #000000; stroke-width: 0.220553; stroke-linejoin: miter"/>
   </g>
   <g id="patch_129">
    <path d="M 371.187344 242.118437 
L 373.626936 242.118437 
L 373.626936 242.118437 
L 371.187344 242.118437 
z
" clip-path="url(#pf4f92a29aa)" style="fill: #808080; stroke: #000000; stroke-width: 0.220553; stroke-linejoin: miter"/>
   </g>
   <g id="patch_130">
    <path d="M 373.626936 242.118437 
L 376.066528 242.118437 
L 376.066528 242.118437 
L 373.626936 242.118437 
z
" clip-path="url(#pf4f92a29aa)" style="fill: #808080; stroke: #000000; stroke-width: 0.220553; stroke-linejoin: miter"/>
   </g>
   <g id="patch_131">
    <path d="M 376.066528 242.118437 
L 378.506119 242.118437 
L 378.506119 242.118437 
L 376.066528 242.118437 
z
" clip-path="url(#pf4f92a29aa)" style="fill: #808080; stroke: #000000; stroke-width: 0.220553; stroke-linejoin: miter"/>
   </g>
   <g id="patch_132">
    <path d="M 378.506119 242.118437 
L 380.945711 242.118437 
L 380.945711 242.118437 
L 378.506119 242.118437 
z
" clip-path="url(#pf4f92a29aa)" style="fill: #808080; stroke: #000000; stroke-width: 0.220553; stroke-linejoin: miter"/>
   </g>
   <g id="patch_133">
    <path d="M 380.945711 242.118437 
L 383.385302 242.118437 
L 383.385302 242.118437 
L 380.945711 242.118437 
z
" clip-path="url(#pf4f92a29aa)" style="fill: #808080; stroke: #000000; stroke-width: 0.220553; stroke-linejoin: miter"/>
   </g>
   <g id="patch_134">
    <path d="M 383.385302 242.118437 
L 385.824894 242.118437 
L 385.824894 242.118437 
L 383.385302 242.118437 
z
" clip-path="url(#pf4f92a29aa)" style="fill: #808080; stroke: #000000; stroke-width: 0.220553; stroke-linejoin: miter"/>
   </g>
   <g id="patch_135">
    <path d="M 385.824894 242.118437 
L 388.264485 242.118437 
L 388.264485 242.118437 
L 385.824894 242.118437 
z
" clip-path="url(#pf4f92a29aa)" style="fill: #808080; stroke: #000000; stroke-width: 0.220553; stroke-linejoin: miter"/>
   </g>
   <g id="patch_136">
    <path d="M 388.264485 242.118437 
L 390.704077 242.118437 
L 390.704077 242.118437 
L 388.264485 242.118437 
z
" clip-path="url(#pf4f92a29aa)" style="fill: #808080; stroke: #000000; stroke-width: 0.220553; stroke-linejoin: miter"/>
   </g>
   <g id="patch_137">
    <path d="M 390.704077 242.118437 
L 393.143668 242.118437 
L 393.143668 242.118437 
L 390.704077 242.118437 
z
" clip-path="url(#pf4f92a29aa)" style="fill: #808080; stroke: #000000; stroke-width: 0.220553; stroke-linejoin: miter"/>
   </g>
   <g id="patch_138">
    <path d="M 393.143668 242.118437 
L 395.58326 242.118437 
L 395.58326 242.118437 
L 393.143668 242.118437 
z
" clip-path="url(#pf4f92a29aa)" style="fill: #808080; stroke: #000000; stroke-width: 0.220553; stroke-linejoin: miter"/>
   </g>
   <g id="patch_139">
    <path d="M 395.58326 242.118437 
L 398.022852 242.118437 
L 398.022852 241.869875 
L 395.58326 241.869875 
z
" clip-path="url(#pf4f92a29aa)" style="fill: #808080; stroke: #000000; stroke-width: 0.220553; stroke-linejoin: miter"/>
   </g>
   <g id="patch_140">
    <path d="M 398.022852 242.118437 
L 400.462443 242.118437 
L 400.462443 241.869875 
L 398.022852 241.869875 
z
" clip-path="url(#pf4f92a29aa)" style="fill: #808080; stroke: #000000; stroke-width: 0.220553; stroke-linejoin: miter"/>
   </g>
   <g id="matplotlib.axis_1">
    <g id="xtick_1">
     <g id="line2d_1">
      <defs>
       <path id="md51bc79837" d="M 0 0 
L 0 3.5 
" style="stroke: #000000; stroke-width: 0.8"/>
      </defs>
      <g>
       <use xlink:href="#md51bc79837" x="61.973749" y="242.118437" style="stroke: #000000; stroke-width: 0.8"/>
      </g>
     </g>
     <g id="text_1">
      <!-- 0 -->
      <g transform="translate(58.792499 256.716875) scale(0.1 -0.1)">
       <defs>
        <path id="DejaVuSans-30" d="M 2034 4250 
Q 1547 4250 1301 3770 
Q 1056 3291 1056 2328 
Q 1056 1369 1301 889 
Q 1547 409 2034 409 
Q 2525 409 2770 889 
Q 3016 1369 3016 2328 
Q 3016 3291 2770 3770 
Q 2525 4250 2034 4250 
z
M 2034 4750 
Q 2819 4750 3233 4129 
Q 3647 3509 3647 2328 
Q 3647 1150 3233 529 
Q 2819 -91 2034 -91 
Q 1250 -91 836 529 
Q 422 1150 422 2328 
Q 422 3509 836 4129 
Q 1250 4750 2034 4750 
z
" transform="scale(0.015625)"/>
       </defs>
       <use xlink:href="#DejaVuSans-30"/>
      </g>
     </g>
    </g>
    <g id="xtick_2">
     <g id="line2d_2">
      <g>
       <use xlink:href="#md51bc79837" x="143.528538" y="242.118437" style="stroke: #000000; stroke-width: 0.8"/>
      </g>
     </g>
     <g id="text_2">
      <!-- 100 -->
      <g transform="translate(133.984788 256.716875) scale(0.1 -0.1)">
       <defs>
        <path id="DejaVuSans-31" d="M 794 531 
L 1825 531 
L 1825 4091 
L 703 3866 
L 703 4441 
L 1819 4666 
L 2450 4666 
L 2450 531 
L 3481 531 
L 3481 0 
L 794 0 
L 794 531 
z
" transform="scale(0.015625)"/>
       </defs>
       <use xlink:href="#DejaVuSans-31"/>
       <use xlink:href="#DejaVuSans-30" x="63.623047"/>
       <use xlink:href="#DejaVuSans-30" x="127.246094"/>
      </g>
     </g>
    </g>
    <g id="xtick_3">
     <g id="line2d_3">
      <g>
       <use xlink:href="#md51bc79837" x="225.083327" y="242.118437" style="stroke: #000000; stroke-width: 0.8"/>
      </g>
     </g>
     <g id="text_3">
      <!-- 200 -->
      <g transform="translate(215.539577 256.716875) scale(0.1 -0.1)">
       <defs>
        <path id="DejaVuSans-32" d="M 1228 531 
L 3431 531 
L 3431 0 
L 469 0 
L 469 531 
Q 828 903 1448 1529 
Q 2069 2156 2228 2338 
Q 2531 2678 2651 2914 
Q 2772 3150 2772 3378 
Q 2772 3750 2511 3984 
Q 2250 4219 1831 4219 
Q 1534 4219 1204 4116 
Q 875 4013 500 3803 
L 500 4441 
Q 881 4594 1212 4672 
Q 1544 4750 1819 4750 
Q 2544 4750 2975 4387 
Q 3406 4025 3406 3419 
Q 3406 3131 3298 2873 
Q 3191 2616 2906 2266 
Q 2828 2175 2409 1742 
Q 1991 1309 1228 531 
z
" transform="scale(0.015625)"/>
       </defs>
       <use xlink:href="#DejaVuSans-32"/>
       <use xlink:href="#DejaVuSans-30" x="63.623047"/>
       <use xlink:href="#DejaVuSans-30" x="127.246094"/>
      </g>
     </g>
    </g>
    <g id="xtick_4">
     <g id="line2d_4">
      <g>
       <use xlink:href="#md51bc79837" x="306.638117" y="242.118437" style="stroke: #000000; stroke-width: 0.8"/>
      </g>
     </g>
     <g id="text_4">
      <!-- 300 -->
      <g transform="translate(297.094367 256.716875) scale(0.1 -0.1)">
       <defs>
        <path id="DejaVuSans-33" d="M 2597 2516 
Q 3050 2419 3304 2112 
Q 3559 1806 3559 1356 
Q 3559 666 3084 287 
Q 2609 -91 1734 -91 
Q 1441 -91 1130 -33 
Q 819 25 488 141 
L 488 750 
Q 750 597 1062 519 
Q 1375 441 1716 441 
Q 2309 441 2620 675 
Q 2931 909 2931 1356 
Q 2931 1769 2642 2001 
Q 2353 2234 1838 2234 
L 1294 2234 
L 1294 2753 
L 1863 2753 
Q 2328 2753 2575 2939 
Q 2822 3125 2822 3475 
Q 2822 3834 2567 4026 
Q 2313 4219 1838 4219 
Q 1578 4219 1281 4162 
Q 984 4106 628 3988 
L 628 4550 
Q 988 4650 1302 4700 
Q 1616 4750 1894 4750 
Q 2613 4750 3031 4423 
Q 3450 4097 3450 3541 
Q 3450 3153 3228 2886 
Q 3006 2619 2597 2516 
z
" transform="scale(0.015625)"/>
       </defs>
       <use xlink:href="#DejaVuSans-33"/>
       <use xlink:href="#DejaVuSans-30" x="63.623047"/>
       <use xlink:href="#DejaVuSans-30" x="127.246094"/>
      </g>
     </g>
    </g>
    <g id="xtick_5">
     <g id="line2d_5">
      <g>
       <use xlink:href="#md51bc79837" x="388.192906" y="242.118437" style="stroke: #000000; stroke-width: 0.8"/>
      </g>
     </g>
     <g id="text_5">
      <!-- 400 -->
      <g transform="translate(378.649156 256.716875) scale(0.1 -0.1)">
       <defs>
        <path id="DejaVuSans-34" d="M 2419 4116 
L 825 1625 
L 2419 1625 
L 2419 4116 
z
M 2253 4666 
L 3047 4666 
L 3047 1625 
L 3713 1625 
L 3713 1100 
L 3047 1100 
L 3047 0 
L 2419 0 
L 2419 1100 
L 313 1100 
L 313 1709 
L 2253 4666 
z
" transform="scale(0.015625)"/>
       </defs>
       <use xlink:href="#DejaVuSans-34"/>
       <use xlink:href="#DejaVuSans-30" x="63.623047"/>
       <use xlink:href="#DejaVuSans-30" x="127.246094"/>
      </g>
     </g>
    </g>
    <g id="text_6">
     <!-- GFR -->
     <g transform="translate(221.906406 270.395) scale(0.1 -0.1)">
      <defs>
       <path id="DejaVuSans-47" d="M 3809 666 
L 3809 1919 
L 2778 1919 
L 2778 2438 
L 4434 2438 
L 4434 434 
Q 4069 175 3628 42 
Q 3188 -91 2688 -91 
Q 1594 -91 976 548 
Q 359 1188 359 2328 
Q 359 3472 976 4111 
Q 1594 4750 2688 4750 
Q 3144 4750 3555 4637 
Q 3966 4525 4313 4306 
L 4313 3634 
Q 3963 3931 3569 4081 
Q 3175 4231 2741 4231 
Q 1884 4231 1454 3753 
Q 1025 3275 1025 2328 
Q 1025 1384 1454 906 
Q 1884 428 2741 428 
Q 3075 428 3337 486 
Q 3600 544 3809 666 
z
" transform="scale(0.015625)"/>
       <path id="DejaVuSans-46" d="M 628 4666 
L 3309 4666 
L 3309 4134 
L 1259 4134 
L 1259 2759 
L 3109 2759 
L 3109 2228 
L 1259 2228 
L 1259 0 
L 628 0 
L 628 4666 
z
" transform="scale(0.015625)"/>
       <path id="DejaVuSans-52" d="M 2841 2188 
Q 3044 2119 3236 1894 
Q 3428 1669 3622 1275 
L 4263 0 
L 3584 0 
L 2988 1197 
Q 2756 1666 2539 1819 
Q 2322 1972 1947 1972 
L 1259 1972 
L 1259 0 
L 628 0 
L 628 4666 
L 2053 4666 
Q 2853 4666 3247 4331 
Q 3641 3997 3641 3322 
Q 3641 2881 3436 2590 
Q 3231 2300 2841 2188 
z
M 1259 4147 
L 1259 2491 
L 2053 2491 
Q 2509 2491 2742 2702 
Q 2975 2913 2975 3322 
Q 2975 3731 2742 3939 
Q 2509 4147 2053 4147 
L 1259 4147 
z
" transform="scale(0.015625)"/>
      </defs>
      <use xlink:href="#DejaVuSans-47"/>
      <use xlink:href="#DejaVuSans-46" x="77.490234"/>
      <use xlink:href="#DejaVuSans-52" x="135.009766"/>
     </g>
    </g>
   </g>
   <g id="matplotlib.axis_2">
    <g id="ytick_1">
     <g id="line2d_6">
      <defs>
       <path id="md00e3946be" d="M 0 0 
L -3.5 0 
" style="stroke: #000000; stroke-width: 0.8"/>
      </defs>
      <g>
       <use xlink:href="#md00e3946be" x="46.965625" y="242.118437" style="stroke: #000000; stroke-width: 0.8"/>
      </g>
     </g>
     <g id="text_7">
      <!-- 0 -->
      <g transform="translate(33.603125 245.917656) scale(0.1 -0.1)">
       <use xlink:href="#DejaVuSans-30"/>
      </g>
     </g>
    </g>
    <g id="ytick_2">
     <g id="line2d_7">
      <g>
       <use xlink:href="#md00e3946be" x="46.965625" y="217.262193" style="stroke: #000000; stroke-width: 0.8"/>
      </g>
     </g>
     <g id="text_8">
      <!-- 100 -->
      <g transform="translate(20.878125 221.061412) scale(0.1 -0.1)">
       <use xlink:href="#DejaVuSans-31"/>
       <use xlink:href="#DejaVuSans-30" x="63.623047"/>
       <use xlink:href="#DejaVuSans-30" x="127.246094"/>
      </g>
     </g>
    </g>
    <g id="ytick_3">
     <g id="line2d_8">
      <g>
       <use xlink:href="#md00e3946be" x="46.965625" y="192.405949" style="stroke: #000000; stroke-width: 0.8"/>
      </g>
     </g>
     <g id="text_9">
      <!-- 200 -->
      <g transform="translate(20.878125 196.205167) scale(0.1 -0.1)">
       <use xlink:href="#DejaVuSans-32"/>
       <use xlink:href="#DejaVuSans-30" x="63.623047"/>
       <use xlink:href="#DejaVuSans-30" x="127.246094"/>
      </g>
     </g>
    </g>
    <g id="ytick_4">
     <g id="line2d_9">
      <g>
       <use xlink:href="#md00e3946be" x="46.965625" y="167.549704" style="stroke: #000000; stroke-width: 0.8"/>
      </g>
     </g>
     <g id="text_10">
      <!-- 300 -->
      <g transform="translate(20.878125 171.348923) scale(0.1 -0.1)">
       <use xlink:href="#DejaVuSans-33"/>
       <use xlink:href="#DejaVuSans-30" x="63.623047"/>
       <use xlink:href="#DejaVuSans-30" x="127.246094"/>
      </g>
     </g>
    </g>
    <g id="ytick_5">
     <g id="line2d_10">
      <g>
       <use xlink:href="#md00e3946be" x="46.965625" y="142.69346" style="stroke: #000000; stroke-width: 0.8"/>
      </g>
     </g>
     <g id="text_11">
      <!-- 400 -->
      <g transform="translate(20.878125 146.492679) scale(0.1 -0.1)">
       <use xlink:href="#DejaVuSans-34"/>
       <use xlink:href="#DejaVuSans-30" x="63.623047"/>
       <use xlink:href="#DejaVuSans-30" x="127.246094"/>
      </g>
     </g>
    </g>
    <g id="ytick_6">
     <g id="line2d_11">
      <g>
       <use xlink:href="#md00e3946be" x="46.965625" y="117.837216" style="stroke: #000000; stroke-width: 0.8"/>
      </g>
     </g>
     <g id="text_12">
      <!-- 500 -->
      <g transform="translate(20.878125 121.636434) scale(0.1 -0.1)">
       <defs>
        <path id="DejaVuSans-35" d="M 691 4666 
L 3169 4666 
L 3169 4134 
L 1269 4134 
L 1269 2991 
Q 1406 3038 1543 3061 
Q 1681 3084 1819 3084 
Q 2600 3084 3056 2656 
Q 3513 2228 3513 1497 
Q 3513 744 3044 326 
Q 2575 -91 1722 -91 
Q 1428 -91 1123 -41 
Q 819 9 494 109 
L 494 744 
Q 775 591 1075 516 
Q 1375 441 1709 441 
Q 2250 441 2565 725 
Q 2881 1009 2881 1497 
Q 2881 1984 2565 2268 
Q 2250 2553 1709 2553 
Q 1456 2553 1204 2497 
Q 953 2441 691 2322 
L 691 4666 
z
" transform="scale(0.015625)"/>
       </defs>
       <use xlink:href="#DejaVuSans-35"/>
       <use xlink:href="#DejaVuSans-30" x="63.623047"/>
       <use xlink:href="#DejaVuSans-30" x="127.246094"/>
      </g>
     </g>
    </g>
    <g id="ytick_7">
     <g id="line2d_12">
      <g>
       <use xlink:href="#md00e3946be" x="46.965625" y="92.980971" style="stroke: #000000; stroke-width: 0.8"/>
      </g>
     </g>
     <g id="text_13">
      <!-- 600 -->
      <g transform="translate(20.878125 96.78019) scale(0.1 -0.1)">
       <defs>
        <path id="DejaVuSans-36" d="M 2113 2584 
Q 1688 2584 1439 2293 
Q 1191 2003 1191 1497 
Q 1191 994 1439 701 
Q 1688 409 2113 409 
Q 2538 409 2786 701 
Q 3034 994 3034 1497 
Q 3034 2003 2786 2293 
Q 2538 2584 2113 2584 
z
M 3366 4563 
L 3366 3988 
Q 3128 4100 2886 4159 
Q 2644 4219 2406 4219 
Q 1781 4219 1451 3797 
Q 1122 3375 1075 2522 
Q 1259 2794 1537 2939 
Q 1816 3084 2150 3084 
Q 2853 3084 3261 2657 
Q 3669 2231 3669 1497 
Q 3669 778 3244 343 
Q 2819 -91 2113 -91 
Q 1303 -91 875 529 
Q 447 1150 447 2328 
Q 447 3434 972 4092 
Q 1497 4750 2381 4750 
Q 2619 4750 2861 4703 
Q 3103 4656 3366 4563 
z
" transform="scale(0.015625)"/>
       </defs>
       <use xlink:href="#DejaVuSans-36"/>
       <use xlink:href="#DejaVuSans-30" x="63.623047"/>
       <use xlink:href="#DejaVuSans-30" x="127.246094"/>
      </g>
     </g>
    </g>
    <g id="ytick_8">
     <g id="line2d_13">
      <g>
       <use xlink:href="#md00e3946be" x="46.965625" y="68.124727" style="stroke: #000000; stroke-width: 0.8"/>
      </g>
     </g>
     <g id="text_14">
      <!-- 700 -->
      <g transform="translate(20.878125 71.923946) scale(0.1 -0.1)">
       <defs>
        <path id="DejaVuSans-37" d="M 525 4666 
L 3525 4666 
L 3525 4397 
L 1831 0 
L 1172 0 
L 2766 4134 
L 525 4134 
L 525 4666 
z
" transform="scale(0.015625)"/>
       </defs>
       <use xlink:href="#DejaVuSans-37"/>
       <use xlink:href="#DejaVuSans-30" x="63.623047"/>
       <use xlink:href="#DejaVuSans-30" x="127.246094"/>
      </g>
     </g>
    </g>
    <g id="ytick_9">
     <g id="line2d_14">
      <g>
       <use xlink:href="#md00e3946be" x="46.965625" y="43.268482" style="stroke: #000000; stroke-width: 0.8"/>
      </g>
     </g>
     <g id="text_15">
      <!-- 800 -->
      <g transform="translate(20.878125 47.067701) scale(0.1 -0.1)">
       <defs>
        <path id="DejaVuSans-38" d="M 2034 2216 
Q 1584 2216 1326 1975 
Q 1069 1734 1069 1313 
Q 1069 891 1326 650 
Q 1584 409 2034 409 
Q 2484 409 2743 651 
Q 3003 894 3003 1313 
Q 3003 1734 2745 1975 
Q 2488 2216 2034 2216 
z
M 1403 2484 
Q 997 2584 770 2862 
Q 544 3141 544 3541 
Q 544 4100 942 4425 
Q 1341 4750 2034 4750 
Q 2731 4750 3128 4425 
Q 3525 4100 3525 3541 
Q 3525 3141 3298 2862 
Q 3072 2584 2669 2484 
Q 3125 2378 3379 2068 
Q 3634 1759 3634 1313 
Q 3634 634 3220 271 
Q 2806 -91 2034 -91 
Q 1263 -91 848 271 
Q 434 634 434 1313 
Q 434 1759 690 2068 
Q 947 2378 1403 2484 
z
M 1172 3481 
Q 1172 3119 1398 2916 
Q 1625 2713 2034 2713 
Q 2441 2713 2670 2916 
Q 2900 3119 2900 3481 
Q 2900 3844 2670 4047 
Q 2441 4250 2034 4250 
Q 1625 4250 1398 4047 
Q 1172 3844 1172 3481 
z
" transform="scale(0.015625)"/>
       </defs>
       <use xlink:href="#DejaVuSans-38"/>
       <use xlink:href="#DejaVuSans-30" x="63.623047"/>
       <use xlink:href="#DejaVuSans-30" x="127.246094"/>
      </g>
     </g>
    </g>
    <g id="text_16">
     <!-- Count -->
     <g transform="translate(14.798437 146.306875) rotate(-90) scale(0.1 -0.1)">
      <defs>
       <path id="DejaVuSans-43" d="M 4122 4306 
L 4122 3641 
Q 3803 3938 3442 4084 
Q 3081 4231 2675 4231 
Q 1875 4231 1450 3742 
Q 1025 3253 1025 2328 
Q 1025 1406 1450 917 
Q 1875 428 2675 428 
Q 3081 428 3442 575 
Q 3803 722 4122 1019 
L 4122 359 
Q 3791 134 3420 21 
Q 3050 -91 2638 -91 
Q 1578 -91 968 557 
Q 359 1206 359 2328 
Q 359 3453 968 4101 
Q 1578 4750 2638 4750 
Q 3056 4750 3426 4639 
Q 3797 4528 4122 4306 
z
" transform="scale(0.015625)"/>
       <path id="DejaVuSans-6f" d="M 1959 3097 
Q 1497 3097 1228 2736 
Q 959 2375 959 1747 
Q 959 1119 1226 758 
Q 1494 397 1959 397 
Q 2419 397 2687 759 
Q 2956 1122 2956 1747 
Q 2956 2369 2687 2733 
Q 2419 3097 1959 3097 
z
M 1959 3584 
Q 2709 3584 3137 3096 
Q 3566 2609 3566 1747 
Q 3566 888 3137 398 
Q 2709 -91 1959 -91 
Q 1206 -91 779 398 
Q 353 888 353 1747 
Q 353 2609 779 3096 
Q 1206 3584 1959 3584 
z
" transform="scale(0.015625)"/>
       <path id="DejaVuSans-75" d="M 544 1381 
L 544 3500 
L 1119 3500 
L 1119 1403 
Q 1119 906 1312 657 
Q 1506 409 1894 409 
Q 2359 409 2629 706 
Q 2900 1003 2900 1516 
L 2900 3500 
L 3475 3500 
L 3475 0 
L 2900 0 
L 2900 538 
Q 2691 219 2414 64 
Q 2138 -91 1772 -91 
Q 1169 -91 856 284 
Q 544 659 544 1381 
z
M 1991 3584 
L 1991 3584 
z
" transform="scale(0.015625)"/>
       <path id="DejaVuSans-6e" d="M 3513 2113 
L 3513 0 
L 2938 0 
L 2938 2094 
Q 2938 2591 2744 2837 
Q 2550 3084 2163 3084 
Q 1697 3084 1428 2787 
Q 1159 2491 1159 1978 
L 1159 0 
L 581 0 
L 581 3500 
L 1159 3500 
L 1159 2956 
Q 1366 3272 1645 3428 
Q 1925 3584 2291 3584 
Q 2894 3584 3203 3211 
Q 3513 2838 3513 2113 
z
" transform="scale(0.015625)"/>
       <path id="DejaVuSans-74" d="M 1172 4494 
L 1172 3500 
L 2356 3500 
L 2356 3053 
L 1172 3053 
L 1172 1153 
Q 1172 725 1289 603 
Q 1406 481 1766 481 
L 2356 481 
L 2356 0 
L 1766 0 
Q 1100 0 847 248 
Q 594 497 594 1153 
L 594 3053 
L 172 3053 
L 172 3500 
L 594 3500 
L 594 4494 
L 1172 4494 
z
" transform="scale(0.015625)"/>
      </defs>
      <use xlink:href="#DejaVuSans-43"/>
      <use xlink:href="#DejaVuSans-6f" x="69.824219"/>
      <use xlink:href="#DejaVuSans-75" x="131.005859"/>
      <use xlink:href="#DejaVuSans-6e" x="194.384766"/>
      <use xlink:href="#DejaVuSans-74" x="257.763672"/>
     </g>
    </g>
   </g>
   <g id="patch_141">
    <path d="M 46.965625 242.118437 
L 46.965625 20.798437 
" style="fill: none; stroke: #000000; stroke-width: 0.8; stroke-linejoin: miter; stroke-linecap: square"/>
   </g>
   <g id="patch_142">
    <path d="M 417.295625 242.118437 
L 417.295625 20.798437 
" style="fill: none; stroke: #000000; stroke-width: 0.8; stroke-linejoin: miter; stroke-linecap: square"/>
   </g>
   <g id="patch_143">
    <path d="M 46.965625 242.118437 
L 417.295625 242.118437 
" style="fill: none; stroke: #000000; stroke-width: 0.8; stroke-linejoin: miter; stroke-linecap: square"/>
   </g>
   <g id="patch_144">
    <path d="M 46.965625 20.798437 
L 417.295625 20.798437 
" style="fill: none; stroke: #000000; stroke-width: 0.8; stroke-linejoin: miter; stroke-linecap: square"/>
   </g>
   <g id="text_17">
    <!-- Distribution of GFR -->
    <g transform="translate(184.74 14.798437) scale(0.1 -0.1)">
     <defs>
      <path id="DejaVuSans-44" d="M 1259 4147 
L 1259 519 
L 2022 519 
Q 2988 519 3436 956 
Q 3884 1394 3884 2338 
Q 3884 3275 3436 3711 
Q 2988 4147 2022 4147 
L 1259 4147 
z
M 628 4666 
L 1925 4666 
Q 3281 4666 3915 4102 
Q 4550 3538 4550 2338 
Q 4550 1131 3912 565 
Q 3275 0 1925 0 
L 628 0 
L 628 4666 
z
" transform="scale(0.015625)"/>
      <path id="DejaVuSans-69" d="M 603 3500 
L 1178 3500 
L 1178 0 
L 603 0 
L 603 3500 
z
M 603 4863 
L 1178 4863 
L 1178 4134 
L 603 4134 
L 603 4863 
z
" transform="scale(0.015625)"/>
      <path id="DejaVuSans-73" d="M 2834 3397 
L 2834 2853 
Q 2591 2978 2328 3040 
Q 2066 3103 1784 3103 
Q 1356 3103 1142 2972 
Q 928 2841 928 2578 
Q 928 2378 1081 2264 
Q 1234 2150 1697 2047 
L 1894 2003 
Q 2506 1872 2764 1633 
Q 3022 1394 3022 966 
Q 3022 478 2636 193 
Q 2250 -91 1575 -91 
Q 1294 -91 989 -36 
Q 684 19 347 128 
L 347 722 
Q 666 556 975 473 
Q 1284 391 1588 391 
Q 1994 391 2212 530 
Q 2431 669 2431 922 
Q 2431 1156 2273 1281 
Q 2116 1406 1581 1522 
L 1381 1569 
Q 847 1681 609 1914 
Q 372 2147 372 2553 
Q 372 3047 722 3315 
Q 1072 3584 1716 3584 
Q 2034 3584 2315 3537 
Q 2597 3491 2834 3397 
z
" transform="scale(0.015625)"/>
      <path id="DejaVuSans-72" d="M 2631 2963 
Q 2534 3019 2420 3045 
Q 2306 3072 2169 3072 
Q 1681 3072 1420 2755 
Q 1159 2438 1159 1844 
L 1159 0 
L 581 0 
L 581 3500 
L 1159 3500 
L 1159 2956 
Q 1341 3275 1631 3429 
Q 1922 3584 2338 3584 
Q 2397 3584 2469 3576 
Q 2541 3569 2628 3553 
L 2631 2963 
z
" transform="scale(0.015625)"/>
      <path id="DejaVuSans-62" d="M 3116 1747 
Q 3116 2381 2855 2742 
Q 2594 3103 2138 3103 
Q 1681 3103 1420 2742 
Q 1159 2381 1159 1747 
Q 1159 1113 1420 752 
Q 1681 391 2138 391 
Q 2594 391 2855 752 
Q 3116 1113 3116 1747 
z
M 1159 2969 
Q 1341 3281 1617 3432 
Q 1894 3584 2278 3584 
Q 2916 3584 3314 3078 
Q 3713 2572 3713 1747 
Q 3713 922 3314 415 
Q 2916 -91 2278 -91 
Q 1894 -91 1617 61 
Q 1341 213 1159 525 
L 1159 0 
L 581 0 
L 581 4863 
L 1159 4863 
L 1159 2969 
z
" transform="scale(0.015625)"/>
      <path id="DejaVuSans-20" transform="scale(0.015625)"/>
      <path id="DejaVuSans-66" d="M 2375 4863 
L 2375 4384 
L 1825 4384 
Q 1516 4384 1395 4259 
Q 1275 4134 1275 3809 
L 1275 3500 
L 2222 3500 
L 2222 3053 
L 1275 3053 
L 1275 0 
L 697 0 
L 697 3053 
L 147 3053 
L 147 3500 
L 697 3500 
L 697 3744 
Q 697 4328 969 4595 
Q 1241 4863 1831 4863 
L 2375 4863 
z
" transform="scale(0.015625)"/>
     </defs>
     <use xlink:href="#DejaVuSans-44"/>
     <use xlink:href="#DejaVuSans-69" x="77.001953"/>
     <use xlink:href="#DejaVuSans-73" x="104.785156"/>
     <use xlink:href="#DejaVuSans-74" x="156.884766"/>
     <use xlink:href="#DejaVuSans-72" x="196.09375"/>
     <use xlink:href="#DejaVuSans-69" x="237.207031"/>
     <use xlink:href="#DejaVuSans-62" x="264.990234"/>
     <use xlink:href="#DejaVuSans-75" x="328.466797"/>
     <use xlink:href="#DejaVuSans-74" x="391.845703"/>
     <use xlink:href="#DejaVuSans-69" x="431.054688"/>
     <use xlink:href="#DejaVuSans-6f" x="458.837891"/>
     <use xlink:href="#DejaVuSans-6e" x="520.019531"/>
     <use xlink:href="#DejaVuSans-20" x="583.398438"/>
     <use xlink:href="#DejaVuSans-6f" x="615.185547"/>
     <use xlink:href="#DejaVuSans-66" x="676.367188"/>
     <use xlink:href="#DejaVuSans-20" x="711.572266"/>
     <use xlink:href="#DejaVuSans-47" x="743.359375"/>
     <use xlink:href="#DejaVuSans-46" x="820.849609"/>
     <use xlink:href="#DejaVuSans-52" x="878.369141"/>
    </g>
   </g>
  </g>
 </g>
 <defs>
  <clipPath id="pf4f92a29aa">
   <rect x="46.965625" y="20.798437" width="370.33" height="221.32"/>
  </clipPath>
 </defs>
</svg>
