<?xml version="1.0" encoding="utf-8" standalone="no"?>
<!DOCTYPE svg PUBLIC "-//W3C//DTD SVG 1.1//EN"
  "http://www.w3.org/Graphics/SVG/1.1/DTD/svg11.dtd">
<svg xmlns:xlink="http://www.w3.org/1999/xlink" width="856.558125pt" height="423.034375pt" viewBox="0 0 856.558125 423.034375" xmlns="http://www.w3.org/2000/svg" version="1.1">
 <metadata>
  <rdf:RDF xmlns:dc="http://purl.org/dc/elements/1.1/" xmlns:cc="http://creativecommons.org/ns#" xmlns:rdf="http://www.w3.org/1999/02/22-rdf-syntax-ns#">
   <cc:Work>
    <dc:type rdf:resource="http://purl.org/dc/dcmitype/StillImage"/>
    <dc:date>2024-07-19T13:46:13.217901</dc:date>
    <dc:format>image/svg+xml</dc:format>
    <dc:creator>
     <cc:Agent>
      <dc:title>Matplotlib v3.9.0, https://matplotlib.org/</dc:title>
     </cc:Agent>
    </dc:creator>
   </cc:Work>
  </rdf:RDF>
 </metadata>
 <defs>
  <style type="text/css">*{stroke-linejoin: round; stroke-linecap: butt}</style>
 </defs>
 <g id="figure_1">
  <g id="patch_1">
   <path d="M 0 423.034375 
L 856.558125 423.034375 
L 856.558125 0 
L 0 0 
z
" style="fill: #ffffff"/>
  </g>
  <g id="axes_1">
   <g id="patch_2">
    <path d="M 53.328125 385.478125 
L 849.358125 385.478125 
L 849.358125 22.318125 
L 53.328125 22.318125 
z
" style="fill: #ffffff"/>
   </g>
   <g id="patch_3">
    <path d="M 106.940447 385.478125 
L 110.746001 385.478125 
L 110.746001 384.963825 
L 106.940447 384.963825 
z
" clip-path="url(#p5d0588942f)" style="fill: #1f77b4; fill-opacity: 0.5; stroke: #000000; stroke-width: 0.336313; stroke-linejoin: miter"/>
   </g>
   <g id="patch_4">
    <path d="M 110.746001 385.478125 
L 114.551555 385.478125 
L 114.551555 385.478125 
L 110.746001 385.478125 
z
" clip-path="url(#p5d0588942f)" style="fill: #1f77b4; fill-opacity: 0.5; stroke: #000000; stroke-width: 0.336313; stroke-linejoin: miter"/>
   </g>
   <g id="patch_5">
    <path d="M 114.551555 385.478125 
L 118.35711 385.478125 
L 118.35711 385.478125 
L 114.551555 385.478125 
z
" clip-path="url(#p5d0588942f)" style="fill: #1f77b4; fill-opacity: 0.5; stroke: #000000; stroke-width: 0.336313; stroke-linejoin: miter"/>
   </g>
   <g id="patch_6">
    <path d="M 118.35711 385.478125 
L 122.162664 385.478125 
L 122.162664 385.478125 
L 118.35711 385.478125 
z
" clip-path="url(#p5d0588942f)" style="fill: #1f77b4; fill-opacity: 0.5; stroke: #000000; stroke-width: 0.336313; stroke-linejoin: miter"/>
   </g>
   <g id="patch_7">
    <path d="M 122.162664 385.478125 
L 125.968219 385.478125 
L 125.968219 385.478125 
L 122.162664 385.478125 
z
" clip-path="url(#p5d0588942f)" style="fill: #1f77b4; fill-opacity: 0.5; stroke: #000000; stroke-width: 0.336313; stroke-linejoin: miter"/>
   </g>
   <g id="patch_8">
    <path d="M 125.968219 385.478125 
L 129.773773 385.478125 
L 129.773773 385.478125 
L 125.968219 385.478125 
z
" clip-path="url(#p5d0588942f)" style="fill: #1f77b4; fill-opacity: 0.5; stroke: #000000; stroke-width: 0.336313; stroke-linejoin: miter"/>
   </g>
   <g id="patch_9">
    <path d="M 129.773773 385.478125 
L 133.579328 385.478125 
L 133.579328 385.478125 
L 129.773773 385.478125 
z
" clip-path="url(#p5d0588942f)" style="fill: #1f77b4; fill-opacity: 0.5; stroke: #000000; stroke-width: 0.336313; stroke-linejoin: miter"/>
   </g>
   <g id="patch_10">
    <path d="M 133.579328 385.478125 
L 137.384882 385.478125 
L 137.384882 385.478125 
L 133.579328 385.478125 
z
" clip-path="url(#p5d0588942f)" style="fill: #1f77b4; fill-opacity: 0.5; stroke: #000000; stroke-width: 0.336313; stroke-linejoin: miter"/>
   </g>
   <g id="patch_11">
    <path d="M 137.384882 385.478125 
L 141.190437 385.478125 
L 141.190437 385.478125 
L 137.384882 385.478125 
z
" clip-path="url(#p5d0588942f)" style="fill: #1f77b4; fill-opacity: 0.5; stroke: #000000; stroke-width: 0.336313; stroke-linejoin: miter"/>
   </g>
   <g id="patch_12">
    <path d="M 141.190437 385.478125 
L 144.995991 385.478125 
L 144.995991 385.478125 
L 141.190437 385.478125 
z
" clip-path="url(#p5d0588942f)" style="fill: #1f77b4; fill-opacity: 0.5; stroke: #000000; stroke-width: 0.336313; stroke-linejoin: miter"/>
   </g>
   <g id="patch_13">
    <path d="M 144.995991 385.478125 
L 148.801546 385.478125 
L 148.801546 385.478125 
L 144.995991 385.478125 
z
" clip-path="url(#p5d0588942f)" style="fill: #1f77b4; fill-opacity: 0.5; stroke: #000000; stroke-width: 0.336313; stroke-linejoin: miter"/>
   </g>
   <g id="patch_14">
    <path d="M 148.801546 385.478125 
L 152.6071 385.478125 
L 152.6071 385.478125 
L 148.801546 385.478125 
z
" clip-path="url(#p5d0588942f)" style="fill: #1f77b4; fill-opacity: 0.5; stroke: #000000; stroke-width: 0.336313; stroke-linejoin: miter"/>
   </g>
   <g id="patch_15">
    <path d="M 152.6071 385.478125 
L 156.412654 385.478125 
L 156.412654 385.220975 
L 152.6071 385.220975 
z
" clip-path="url(#p5d0588942f)" style="fill: #1f77b4; fill-opacity: 0.5; stroke: #000000; stroke-width: 0.336313; stroke-linejoin: miter"/>
   </g>
   <g id="patch_16">
    <path d="M 156.412654 385.478125 
L 160.218209 385.478125 
L 160.218209 385.478125 
L 156.412654 385.478125 
z
" clip-path="url(#p5d0588942f)" style="fill: #1f77b4; fill-opacity: 0.5; stroke: #000000; stroke-width: 0.336313; stroke-linejoin: miter"/>
   </g>
   <g id="patch_17">
    <path d="M 160.218209 385.478125 
L 164.023763 385.478125 
L 164.023763 385.478125 
L 160.218209 385.478125 
z
" clip-path="url(#p5d0588942f)" style="fill: #1f77b4; fill-opacity: 0.5; stroke: #000000; stroke-width: 0.336313; stroke-linejoin: miter"/>
   </g>
   <g id="patch_18">
    <path d="M 164.023763 385.478125 
L 167.829318 385.478125 
L 167.829318 385.478125 
L 164.023763 385.478125 
z
" clip-path="url(#p5d0588942f)" style="fill: #1f77b4; fill-opacity: 0.5; stroke: #000000; stroke-width: 0.336313; stroke-linejoin: miter"/>
   </g>
   <g id="patch_19">
    <path d="M 167.829318 385.478125 
L 171.634872 385.478125 
L 171.634872 385.478125 
L 167.829318 385.478125 
z
" clip-path="url(#p5d0588942f)" style="fill: #1f77b4; fill-opacity: 0.5; stroke: #000000; stroke-width: 0.336313; stroke-linejoin: miter"/>
   </g>
   <g id="patch_20">
    <path d="M 171.634872 385.478125 
L 175.440427 385.478125 
L 175.440427 385.220975 
L 171.634872 385.220975 
z
" clip-path="url(#p5d0588942f)" style="fill: #1f77b4; fill-opacity: 0.5; stroke: #000000; stroke-width: 0.336313; stroke-linejoin: miter"/>
   </g>
   <g id="patch_21">
    <path d="M 175.440427 385.478125 
L 179.245981 385.478125 
L 179.245981 385.478125 
L 175.440427 385.478125 
z
" clip-path="url(#p5d0588942f)" style="fill: #1f77b4; fill-opacity: 0.5; stroke: #000000; stroke-width: 0.336313; stroke-linejoin: miter"/>
   </g>
   <g id="patch_22">
    <path d="M 179.245981 385.478125 
L 183.051536 385.478125 
L 183.051536 385.478125 
L 179.245981 385.478125 
z
" clip-path="url(#p5d0588942f)" style="fill: #1f77b4; fill-opacity: 0.5; stroke: #000000; stroke-width: 0.336313; stroke-linejoin: miter"/>
   </g>
   <g id="patch_23">
    <path d="M 183.051536 385.478125 
L 186.85709 385.478125 
L 186.85709 385.478125 
L 183.051536 385.478125 
z
" clip-path="url(#p5d0588942f)" style="fill: #1f77b4; fill-opacity: 0.5; stroke: #000000; stroke-width: 0.336313; stroke-linejoin: miter"/>
   </g>
   <g id="patch_24">
    <path d="M 186.85709 385.478125 
L 190.662645 385.478125 
L 190.662645 385.478125 
L 186.85709 385.478125 
z
" clip-path="url(#p5d0588942f)" style="fill: #1f77b4; fill-opacity: 0.5; stroke: #000000; stroke-width: 0.336313; stroke-linejoin: miter"/>
   </g>
   <g id="patch_25">
    <path d="M 190.662645 385.478125 
L 194.468199 385.478125 
L 194.468199 384.706675 
L 190.662645 384.706675 
z
" clip-path="url(#p5d0588942f)" style="fill: #1f77b4; fill-opacity: 0.5; stroke: #000000; stroke-width: 0.336313; stroke-linejoin: miter"/>
   </g>
   <g id="patch_26">
    <path d="M 194.468199 385.478125 
L 198.273754 385.478125 
L 198.273754 385.478125 
L 194.468199 385.478125 
z
" clip-path="url(#p5d0588942f)" style="fill: #1f77b4; fill-opacity: 0.5; stroke: #000000; stroke-width: 0.336313; stroke-linejoin: miter"/>
   </g>
   <g id="patch_27">
    <path d="M 198.273754 385.478125 
L 202.079308 385.478125 
L 202.079308 385.220975 
L 198.273754 385.220975 
z
" clip-path="url(#p5d0588942f)" style="fill: #1f77b4; fill-opacity: 0.5; stroke: #000000; stroke-width: 0.336313; stroke-linejoin: miter"/>
   </g>
   <g id="patch_28">
    <path d="M 202.079308 385.478125 
L 205.884862 385.478125 
L 205.884862 384.963825 
L 202.079308 384.963825 
z
" clip-path="url(#p5d0588942f)" style="fill: #1f77b4; fill-opacity: 0.5; stroke: #000000; stroke-width: 0.336313; stroke-linejoin: miter"/>
   </g>
   <g id="patch_29">
    <path d="M 205.884862 385.478125 
L 209.690417 385.478125 
L 209.690417 385.478125 
L 205.884862 385.478125 
z
" clip-path="url(#p5d0588942f)" style="fill: #1f77b4; fill-opacity: 0.5; stroke: #000000; stroke-width: 0.336313; stroke-linejoin: miter"/>
   </g>
   <g id="patch_30">
    <path d="M 209.690417 385.478125 
L 213.495971 385.478125 
L 213.495971 385.220975 
L 209.690417 385.220975 
z
" clip-path="url(#p5d0588942f)" style="fill: #1f77b4; fill-opacity: 0.5; stroke: #000000; stroke-width: 0.336313; stroke-linejoin: miter"/>
   </g>
   <g id="patch_31">
    <path d="M 213.495971 385.478125 
L 217.301526 385.478125 
L 217.301526 384.449525 
L 213.495971 384.449525 
z
" clip-path="url(#p5d0588942f)" style="fill: #1f77b4; fill-opacity: 0.5; stroke: #000000; stroke-width: 0.336313; stroke-linejoin: miter"/>
   </g>
   <g id="patch_32">
    <path d="M 217.301526 385.478125 
L 221.10708 385.478125 
L 221.10708 385.478125 
L 217.301526 385.478125 
z
" clip-path="url(#p5d0588942f)" style="fill: #1f77b4; fill-opacity: 0.5; stroke: #000000; stroke-width: 0.336313; stroke-linejoin: miter"/>
   </g>
   <g id="patch_33">
    <path d="M 221.10708 385.478125 
L 224.912635 385.478125 
L 224.912635 384.706675 
L 221.10708 384.706675 
z
" clip-path="url(#p5d0588942f)" style="fill: #1f77b4; fill-opacity: 0.5; stroke: #000000; stroke-width: 0.336313; stroke-linejoin: miter"/>
   </g>
   <g id="patch_34">
    <path d="M 224.912635 385.478125 
L 228.718189 385.478125 
L 228.718189 385.478125 
L 224.912635 385.478125 
z
" clip-path="url(#p5d0588942f)" style="fill: #1f77b4; fill-opacity: 0.5; stroke: #000000; stroke-width: 0.336313; stroke-linejoin: miter"/>
   </g>
   <g id="patch_35">
    <path d="M 228.718189 385.478125 
L 232.523744 385.478125 
L 232.523744 384.963825 
L 228.718189 384.963825 
z
" clip-path="url(#p5d0588942f)" style="fill: #1f77b4; fill-opacity: 0.5; stroke: #000000; stroke-width: 0.336313; stroke-linejoin: miter"/>
   </g>
   <g id="patch_36">
    <path d="M 232.523744 385.478125 
L 236.329298 385.478125 
L 236.329298 384.449525 
L 232.523744 384.449525 
z
" clip-path="url(#p5d0588942f)" style="fill: #1f77b4; fill-opacity: 0.5; stroke: #000000; stroke-width: 0.336313; stroke-linejoin: miter"/>
   </g>
   <g id="patch_37">
    <path d="M 236.329298 385.478125 
L 240.134853 385.478125 
L 240.134853 385.478125 
L 236.329298 385.478125 
z
" clip-path="url(#p5d0588942f)" style="fill: #1f77b4; fill-opacity: 0.5; stroke: #000000; stroke-width: 0.336313; stroke-linejoin: miter"/>
   </g>
   <g id="patch_38">
    <path d="M 240.134853 385.478125 
L 243.940407 385.478125 
L 243.940407 384.706675 
L 240.134853 384.706675 
z
" clip-path="url(#p5d0588942f)" style="fill: #1f77b4; fill-opacity: 0.5; stroke: #000000; stroke-width: 0.336313; stroke-linejoin: miter"/>
   </g>
   <g id="patch_39">
    <path d="M 243.940407 385.478125 
L 247.745961 385.478125 
L 247.745961 384.192375 
L 243.940407 384.192375 
z
" clip-path="url(#p5d0588942f)" style="fill: #1f77b4; fill-opacity: 0.5; stroke: #000000; stroke-width: 0.336313; stroke-linejoin: miter"/>
   </g>
   <g id="patch_40">
    <path d="M 247.745961 385.478125 
L 251.551516 385.478125 
L 251.551516 385.478125 
L 247.745961 385.478125 
z
" clip-path="url(#p5d0588942f)" style="fill: #1f77b4; fill-opacity: 0.5; stroke: #000000; stroke-width: 0.336313; stroke-linejoin: miter"/>
   </g>
   <g id="patch_41">
    <path d="M 251.551516 385.478125 
L 255.35707 385.478125 
L 255.35707 384.449525 
L 251.551516 384.449525 
z
" clip-path="url(#p5d0588942f)" style="fill: #1f77b4; fill-opacity: 0.5; stroke: #000000; stroke-width: 0.336313; stroke-linejoin: miter"/>
   </g>
   <g id="patch_42">
    <path d="M 255.35707 385.478125 
L 259.162625 385.478125 
L 259.162625 385.478125 
L 255.35707 385.478125 
z
" clip-path="url(#p5d0588942f)" style="fill: #1f77b4; fill-opacity: 0.5; stroke: #000000; stroke-width: 0.336313; stroke-linejoin: miter"/>
   </g>
   <g id="patch_43">
    <path d="M 259.162625 385.478125 
L 262.968179 385.478125 
L 262.968179 383.420925 
L 259.162625 383.420925 
z
" clip-path="url(#p5d0588942f)" style="fill: #1f77b4; fill-opacity: 0.5; stroke: #000000; stroke-width: 0.336313; stroke-linejoin: miter"/>
   </g>
   <g id="patch_44">
    <path d="M 262.968179 385.478125 
L 266.773734 385.478125 
L 266.773734 385.220975 
L 262.968179 385.220975 
z
" clip-path="url(#p5d0588942f)" style="fill: #1f77b4; fill-opacity: 0.5; stroke: #000000; stroke-width: 0.336313; stroke-linejoin: miter"/>
   </g>
   <g id="patch_45">
    <path d="M 266.773734 385.478125 
L 270.579288 385.478125 
L 270.579288 385.478125 
L 266.773734 385.478125 
z
" clip-path="url(#p5d0588942f)" style="fill: #1f77b4; fill-opacity: 0.5; stroke: #000000; stroke-width: 0.336313; stroke-linejoin: miter"/>
   </g>
   <g id="patch_46">
    <path d="M 270.579288 385.478125 
L 274.384843 385.478125 
L 274.384843 384.449525 
L 270.579288 384.449525 
z
" clip-path="url(#p5d0588942f)" style="fill: #1f77b4; fill-opacity: 0.5; stroke: #000000; stroke-width: 0.336313; stroke-linejoin: miter"/>
   </g>
   <g id="patch_47">
    <path d="M 274.384843 385.478125 
L 278.190397 385.478125 
L 278.190397 383.678075 
L 274.384843 383.678075 
z
" clip-path="url(#p5d0588942f)" style="fill: #1f77b4; fill-opacity: 0.5; stroke: #000000; stroke-width: 0.336313; stroke-linejoin: miter"/>
   </g>
   <g id="patch_48">
    <path d="M 278.190397 385.478125 
L 281.995952 385.478125 
L 281.995952 385.478125 
L 278.190397 385.478125 
z
" clip-path="url(#p5d0588942f)" style="fill: #1f77b4; fill-opacity: 0.5; stroke: #000000; stroke-width: 0.336313; stroke-linejoin: miter"/>
   </g>
   <g id="patch_49">
    <path d="M 281.995952 385.478125 
L 285.801506 385.478125 
L 285.801506 383.935225 
L 281.995952 383.935225 
z
" clip-path="url(#p5d0588942f)" style="fill: #1f77b4; fill-opacity: 0.5; stroke: #000000; stroke-width: 0.336313; stroke-linejoin: miter"/>
   </g>
   <g id="patch_50">
    <path d="M 285.801506 385.478125 
L 289.607061 385.478125 
L 289.607061 385.478125 
L 285.801506 385.478125 
z
" clip-path="url(#p5d0588942f)" style="fill: #1f77b4; fill-opacity: 0.5; stroke: #000000; stroke-width: 0.336313; stroke-linejoin: miter"/>
   </g>
   <g id="patch_51">
    <path d="M 289.607061 385.478125 
L 293.412615 385.478125 
L 293.412615 383.163776 
L 289.607061 383.163776 
z
" clip-path="url(#p5d0588942f)" style="fill: #1f77b4; fill-opacity: 0.5; stroke: #000000; stroke-width: 0.336313; stroke-linejoin: miter"/>
   </g>
   <g id="patch_52">
    <path d="M 293.412615 385.478125 
L 297.218169 385.478125 
L 297.218169 382.135176 
L 293.412615 382.135176 
z
" clip-path="url(#p5d0588942f)" style="fill: #1f77b4; fill-opacity: 0.5; stroke: #000000; stroke-width: 0.336313; stroke-linejoin: miter"/>
   </g>
   <g id="patch_53">
    <path d="M 297.218169 385.478125 
L 301.023724 385.478125 
L 301.023724 385.478125 
L 297.218169 385.478125 
z
" clip-path="url(#p5d0588942f)" style="fill: #1f77b4; fill-opacity: 0.5; stroke: #000000; stroke-width: 0.336313; stroke-linejoin: miter"/>
   </g>
   <g id="patch_54">
    <path d="M 301.023724 385.478125 
L 304.829278 385.478125 
L 304.829278 382.392326 
L 301.023724 382.392326 
z
" clip-path="url(#p5d0588942f)" style="fill: #1f77b4; fill-opacity: 0.5; stroke: #000000; stroke-width: 0.336313; stroke-linejoin: miter"/>
   </g>
   <g id="patch_55">
    <path d="M 304.829278 385.478125 
L 308.634833 385.478125 
L 308.634833 380.849426 
L 304.829278 380.849426 
z
" clip-path="url(#p5d0588942f)" style="fill: #1f77b4; fill-opacity: 0.5; stroke: #000000; stroke-width: 0.336313; stroke-linejoin: miter"/>
   </g>
   <g id="patch_56">
    <path d="M 308.634833 385.478125 
L 312.440387 385.478125 
L 312.440387 385.478125 
L 308.634833 385.478125 
z
" clip-path="url(#p5d0588942f)" style="fill: #1f77b4; fill-opacity: 0.5; stroke: #000000; stroke-width: 0.336313; stroke-linejoin: miter"/>
   </g>
   <g id="patch_57">
    <path d="M 312.440387 385.478125 
L 316.245942 385.478125 
L 316.245942 378.020777 
L 312.440387 378.020777 
z
" clip-path="url(#p5d0588942f)" style="fill: #1f77b4; fill-opacity: 0.5; stroke: #000000; stroke-width: 0.336313; stroke-linejoin: miter"/>
   </g>
   <g id="patch_58">
    <path d="M 316.245942 385.478125 
L 320.051496 385.478125 
L 320.051496 385.478125 
L 316.245942 385.478125 
z
" clip-path="url(#p5d0588942f)" style="fill: #1f77b4; fill-opacity: 0.5; stroke: #000000; stroke-width: 0.336313; stroke-linejoin: miter"/>
   </g>
   <g id="patch_59">
    <path d="M 320.051496 385.478125 
L 323.857051 385.478125 
L 323.857051 379.049377 
L 320.051496 379.049377 
z
" clip-path="url(#p5d0588942f)" style="fill: #1f77b4; fill-opacity: 0.5; stroke: #000000; stroke-width: 0.336313; stroke-linejoin: miter"/>
   </g>
   <g id="patch_60">
    <path d="M 323.857051 385.478125 
L 327.662605 385.478125 
L 327.662605 376.220727 
L 323.857051 376.220727 
z
" clip-path="url(#p5d0588942f)" style="fill: #1f77b4; fill-opacity: 0.5; stroke: #000000; stroke-width: 0.336313; stroke-linejoin: miter"/>
   </g>
   <g id="patch_61">
    <path d="M 327.662605 385.478125 
L 331.46816 385.478125 
L 331.46816 385.478125 
L 327.662605 385.478125 
z
" clip-path="url(#p5d0588942f)" style="fill: #1f77b4; fill-opacity: 0.5; stroke: #000000; stroke-width: 0.336313; stroke-linejoin: miter"/>
   </g>
   <g id="patch_62">
    <path d="M 331.46816 385.478125 
L 335.273714 385.478125 
L 335.273714 376.220727 
L 331.46816 376.220727 
z
" clip-path="url(#p5d0588942f)" style="fill: #1f77b4; fill-opacity: 0.5; stroke: #000000; stroke-width: 0.336313; stroke-linejoin: miter"/>
   </g>
   <g id="patch_63">
    <path d="M 335.273714 385.478125 
L 339.079268 385.478125 
L 339.079268 372.620628 
L 335.273714 372.620628 
z
" clip-path="url(#p5d0588942f)" style="fill: #1f77b4; fill-opacity: 0.5; stroke: #000000; stroke-width: 0.336313; stroke-linejoin: miter"/>
   </g>
   <g id="patch_64">
    <path d="M 339.079268 385.478125 
L 342.884823 385.478125 
L 342.884823 385.478125 
L 339.079268 385.478125 
z
" clip-path="url(#p5d0588942f)" style="fill: #1f77b4; fill-opacity: 0.5; stroke: #000000; stroke-width: 0.336313; stroke-linejoin: miter"/>
   </g>
   <g id="patch_65">
    <path d="M 342.884823 385.478125 
L 346.690377 385.478125 
L 346.690377 370.306279 
L 342.884823 370.306279 
z
" clip-path="url(#p5d0588942f)" style="fill: #1f77b4; fill-opacity: 0.5; stroke: #000000; stroke-width: 0.336313; stroke-linejoin: miter"/>
   </g>
   <g id="patch_66">
    <path d="M 346.690377 385.478125 
L 350.495932 385.478125 
L 350.495932 385.478125 
L 346.690377 385.478125 
z
" clip-path="url(#p5d0588942f)" style="fill: #1f77b4; fill-opacity: 0.5; stroke: #000000; stroke-width: 0.336313; stroke-linejoin: miter"/>
   </g>
   <g id="patch_67">
    <path d="M 350.495932 385.478125 
L 354.301486 385.478125 
L 354.301486 368.763379 
L 350.495932 368.763379 
z
" clip-path="url(#p5d0588942f)" style="fill: #1f77b4; fill-opacity: 0.5; stroke: #000000; stroke-width: 0.336313; stroke-linejoin: miter"/>
   </g>
   <g id="patch_68">
    <path d="M 354.301486 385.478125 
L 358.107041 385.478125 
L 358.107041 361.820331 
L 354.301486 361.820331 
z
" clip-path="url(#p5d0588942f)" style="fill: #1f77b4; fill-opacity: 0.5; stroke: #000000; stroke-width: 0.336313; stroke-linejoin: miter"/>
   </g>
   <g id="patch_69">
    <path d="M 358.107041 385.478125 
L 361.912595 385.478125 
L 361.912595 385.478125 
L 358.107041 385.478125 
z
" clip-path="url(#p5d0588942f)" style="fill: #1f77b4; fill-opacity: 0.5; stroke: #000000; stroke-width: 0.336313; stroke-linejoin: miter"/>
   </g>
   <g id="patch_70">
    <path d="M 361.912595 385.478125 
L 365.71815 385.478125 
L 365.71815 357.705932 
L 361.912595 357.705932 
z
" clip-path="url(#p5d0588942f)" style="fill: #1f77b4; fill-opacity: 0.5; stroke: #000000; stroke-width: 0.336313; stroke-linejoin: miter"/>
   </g>
   <g id="patch_71">
    <path d="M 365.71815 385.478125 
L 369.523704 385.478125 
L 369.523704 358.220232 
L 365.71815 358.220232 
z
" clip-path="url(#p5d0588942f)" style="fill: #1f77b4; fill-opacity: 0.5; stroke: #000000; stroke-width: 0.336313; stroke-linejoin: miter"/>
   </g>
   <g id="patch_72">
    <path d="M 369.523704 385.478125 
L 373.329259 385.478125 
L 373.329259 385.478125 
L 369.523704 385.478125 
z
" clip-path="url(#p5d0588942f)" style="fill: #1f77b4; fill-opacity: 0.5; stroke: #000000; stroke-width: 0.336313; stroke-linejoin: miter"/>
   </g>
   <g id="patch_73">
    <path d="M 373.329259 385.478125 
L 377.134813 385.478125 
L 377.134813 348.448534 
L 373.329259 348.448534 
z
" clip-path="url(#p5d0588942f)" style="fill: #1f77b4; fill-opacity: 0.5; stroke: #000000; stroke-width: 0.336313; stroke-linejoin: miter"/>
   </g>
   <g id="patch_74">
    <path d="M 377.134813 385.478125 
L 380.940368 385.478125 
L 380.940368 385.478125 
L 377.134813 385.478125 
z
" clip-path="url(#p5d0588942f)" style="fill: #1f77b4; fill-opacity: 0.5; stroke: #000000; stroke-width: 0.336313; stroke-linejoin: miter"/>
   </g>
   <g id="patch_75">
    <path d="M 380.940368 385.478125 
L 384.745922 385.478125 
L 384.745922 337.905386 
L 380.940368 337.905386 
z
" clip-path="url(#p5d0588942f)" style="fill: #1f77b4; fill-opacity: 0.5; stroke: #000000; stroke-width: 0.336313; stroke-linejoin: miter"/>
   </g>
   <g id="patch_76">
    <path d="M 384.745922 385.478125 
L 388.551476 385.478125 
L 388.551476 341.505486 
L 384.745922 341.505486 
z
" clip-path="url(#p5d0588942f)" style="fill: #1f77b4; fill-opacity: 0.5; stroke: #000000; stroke-width: 0.336313; stroke-linejoin: miter"/>
   </g>
   <g id="patch_77">
    <path d="M 388.551476 385.478125 
L 392.357031 385.478125 
L 392.357031 385.478125 
L 388.551476 385.478125 
z
" clip-path="url(#p5d0588942f)" style="fill: #1f77b4; fill-opacity: 0.5; stroke: #000000; stroke-width: 0.336313; stroke-linejoin: miter"/>
   </g>
   <g id="patch_78">
    <path d="M 392.357031 385.478125 
L 396.162585 385.478125 
L 396.162585 324.79074 
L 392.357031 324.79074 
z
" clip-path="url(#p5d0588942f)" style="fill: #1f77b4; fill-opacity: 0.5; stroke: #000000; stroke-width: 0.336313; stroke-linejoin: miter"/>
   </g>
   <g id="patch_79">
    <path d="M 396.162585 385.478125 
L 399.96814 385.478125 
L 399.96814 316.561942 
L 396.162585 316.561942 
z
" clip-path="url(#p5d0588942f)" style="fill: #1f77b4; fill-opacity: 0.5; stroke: #000000; stroke-width: 0.336313; stroke-linejoin: miter"/>
   </g>
   <g id="patch_80">
    <path d="M 399.96814 385.478125 
L 403.773694 385.478125 
L 403.773694 385.478125 
L 399.96814 385.478125 
z
" clip-path="url(#p5d0588942f)" style="fill: #1f77b4; fill-opacity: 0.5; stroke: #000000; stroke-width: 0.336313; stroke-linejoin: miter"/>
   </g>
   <g id="patch_81">
    <path d="M 403.773694 385.478125 
L 407.579249 385.478125 
L 407.579249 302.932995 
L 403.773694 302.932995 
z
" clip-path="url(#p5d0588942f)" style="fill: #1f77b4; fill-opacity: 0.5; stroke: #000000; stroke-width: 0.336313; stroke-linejoin: miter"/>
   </g>
   <g id="patch_82">
    <path d="M 407.579249 385.478125 
L 411.384803 385.478125 
L 411.384803 385.478125 
L 407.579249 385.478125 
z
" clip-path="url(#p5d0588942f)" style="fill: #1f77b4; fill-opacity: 0.5; stroke: #000000; stroke-width: 0.336313; stroke-linejoin: miter"/>
   </g>
   <g id="patch_83">
    <path d="M 411.384803 385.478125 
L 415.190358 385.478125 
L 415.190358 281.3324 
L 411.384803 281.3324 
z
" clip-path="url(#p5d0588942f)" style="fill: #1f77b4; fill-opacity: 0.5; stroke: #000000; stroke-width: 0.336313; stroke-linejoin: miter"/>
   </g>
   <g id="patch_84">
    <path d="M 415.190358 385.478125 
L 418.995912 385.478125 
L 418.995912 264.103354 
L 415.190358 264.103354 
z
" clip-path="url(#p5d0588942f)" style="fill: #1f77b4; fill-opacity: 0.5; stroke: #000000; stroke-width: 0.336313; stroke-linejoin: miter"/>
   </g>
   <g id="patch_85">
    <path d="M 418.995912 385.478125 
L 422.801467 385.478125 
L 422.801467 385.478125 
L 418.995912 385.478125 
z
" clip-path="url(#p5d0588942f)" style="fill: #1f77b4; fill-opacity: 0.5; stroke: #000000; stroke-width: 0.336313; stroke-linejoin: miter"/>
   </g>
   <g id="patch_86">
    <path d="M 422.801467 385.478125 
L 426.607021 385.478125 
L 426.607021 233.245362 
L 422.801467 233.245362 
z
" clip-path="url(#p5d0588942f)" style="fill: #1f77b4; fill-opacity: 0.5; stroke: #000000; stroke-width: 0.336313; stroke-linejoin: miter"/>
   </g>
   <g id="patch_87">
    <path d="M 426.607021 385.478125 
L 430.412575 385.478125 
L 430.412575 202.387369 
L 426.607021 202.387369 
z
" clip-path="url(#p5d0588942f)" style="fill: #1f77b4; fill-opacity: 0.5; stroke: #000000; stroke-width: 0.336313; stroke-linejoin: miter"/>
   </g>
   <g id="patch_88">
    <path d="M 430.412575 385.478125 
L 434.21813 385.478125 
L 434.21813 385.478125 
L 430.412575 385.478125 
z
" clip-path="url(#p5d0588942f)" style="fill: #1f77b4; fill-opacity: 0.5; stroke: #000000; stroke-width: 0.336313; stroke-linejoin: miter"/>
   </g>
   <g id="patch_89">
    <path d="M 434.21813 385.478125 
L 438.023684 385.478125 
L 438.023684 153.528881 
L 434.21813 153.528881 
z
" clip-path="url(#p5d0588942f)" style="fill: #1f77b4; fill-opacity: 0.5; stroke: #000000; stroke-width: 0.336313; stroke-linejoin: miter"/>
   </g>
   <g id="patch_90">
    <path d="M 438.023684 385.478125 
L 441.829239 385.478125 
L 441.829239 385.478125 
L 438.023684 385.478125 
z
" clip-path="url(#p5d0588942f)" style="fill: #1f77b4; fill-opacity: 0.5; stroke: #000000; stroke-width: 0.336313; stroke-linejoin: miter"/>
   </g>
   <g id="patch_91">
    <path d="M 441.829239 385.478125 
L 445.634793 385.478125 
L 445.634793 116.24214 
L 441.829239 116.24214 
z
" clip-path="url(#p5d0588942f)" style="fill: #1f77b4; fill-opacity: 0.5; stroke: #000000; stroke-width: 0.336313; stroke-linejoin: miter"/>
   </g>
   <g id="patch_92">
    <path d="M 445.634793 385.478125 
L 449.440348 385.478125 
L 449.440348 84.612697 
L 445.634793 84.612697 
z
" clip-path="url(#p5d0588942f)" style="fill: #1f77b4; fill-opacity: 0.5; stroke: #000000; stroke-width: 0.336313; stroke-linejoin: miter"/>
   </g>
   <g id="patch_93">
    <path d="M 449.440348 385.478125 
L 453.245902 385.478125 
L 453.245902 385.478125 
L 449.440348 385.478125 
z
" clip-path="url(#p5d0588942f)" style="fill: #1f77b4; fill-opacity: 0.5; stroke: #000000; stroke-width: 0.336313; stroke-linejoin: miter"/>
   </g>
   <g id="patch_94">
    <path d="M 453.245902 385.478125 
L 457.051457 385.478125 
L 457.051457 49.897456 
L 453.245902 49.897456 
z
" clip-path="url(#p5d0588942f)" style="fill: #1f77b4; fill-opacity: 0.5; stroke: #000000; stroke-width: 0.336313; stroke-linejoin: miter"/>
   </g>
   <g id="patch_95">
    <path d="M 457.051457 385.478125 
L 460.857011 385.478125 
L 460.857011 39.611458 
L 457.051457 39.611458 
z
" clip-path="url(#p5d0588942f)" style="fill: #1f77b4; fill-opacity: 0.5; stroke: #000000; stroke-width: 0.336313; stroke-linejoin: miter"/>
   </g>
   <g id="patch_96">
    <path d="M 460.857011 385.478125 
L 464.662566 385.478125 
L 464.662566 385.478125 
L 460.857011 385.478125 
z
" clip-path="url(#p5d0588942f)" style="fill: #1f77b4; fill-opacity: 0.5; stroke: #000000; stroke-width: 0.336313; stroke-linejoin: miter"/>
   </g>
   <g id="patch_97">
    <path d="M 464.662566 385.478125 
L 468.46812 385.478125 
L 468.46812 61.726353 
L 464.662566 61.726353 
z
" clip-path="url(#p5d0588942f)" style="fill: #1f77b4; fill-opacity: 0.5; stroke: #000000; stroke-width: 0.336313; stroke-linejoin: miter"/>
   </g>
   <g id="patch_98">
    <path d="M 468.46812 385.478125 
L 472.273675 385.478125 
L 472.273675 385.478125 
L 468.46812 385.478125 
z
" clip-path="url(#p5d0588942f)" style="fill: #1f77b4; fill-opacity: 0.5; stroke: #000000; stroke-width: 0.336313; stroke-linejoin: miter"/>
   </g>
   <g id="patch_99">
    <path d="M 472.273675 385.478125 
L 476.079229 385.478125 
L 476.079229 88.727096 
L 472.273675 88.727096 
z
" clip-path="url(#p5d0588942f)" style="fill: #1f77b4; fill-opacity: 0.5; stroke: #000000; stroke-width: 0.336313; stroke-linejoin: miter"/>
   </g>
   <g id="patch_100">
    <path d="M 476.079229 385.478125 
L 479.884783 385.478125 
L 479.884783 107.241892 
L 476.079229 107.241892 
z
" clip-path="url(#p5d0588942f)" style="fill: #1f77b4; fill-opacity: 0.5; stroke: #000000; stroke-width: 0.336313; stroke-linejoin: miter"/>
   </g>
   <g id="patch_101">
    <path d="M 479.884783 385.478125 
L 483.690338 385.478125 
L 483.690338 385.478125 
L 479.884783 385.478125 
z
" clip-path="url(#p5d0588942f)" style="fill: #1f77b4; fill-opacity: 0.5; stroke: #000000; stroke-width: 0.336313; stroke-linejoin: miter"/>
   </g>
   <g id="patch_102">
    <path d="M 483.690338 385.478125 
L 487.495892 385.478125 
L 487.495892 168.186427 
L 483.690338 168.186427 
z
" clip-path="url(#p5d0588942f)" style="fill: #1f77b4; fill-opacity: 0.5; stroke: #000000; stroke-width: 0.336313; stroke-linejoin: miter"/>
   </g>
   <g id="patch_103">
    <path d="M 487.495892 385.478125 
L 491.301447 385.478125 
L 491.301447 207.787518 
L 487.495892 207.787518 
z
" clip-path="url(#p5d0588942f)" style="fill: #1f77b4; fill-opacity: 0.5; stroke: #000000; stroke-width: 0.336313; stroke-linejoin: miter"/>
   </g>
   <g id="patch_104">
    <path d="M 491.301447 385.478125 
L 495.107001 385.478125 
L 495.107001 385.478125 
L 491.301447 385.478125 
z
" clip-path="url(#p5d0588942f)" style="fill: #1f77b4; fill-opacity: 0.5; stroke: #000000; stroke-width: 0.336313; stroke-linejoin: miter"/>
   </g>
   <g id="patch_105">
    <path d="M 495.107001 385.478125 
L 498.912556 385.478125 
L 498.912556 254.845956 
L 495.107001 254.845956 
z
" clip-path="url(#p5d0588942f)" style="fill: #1f77b4; fill-opacity: 0.5; stroke: #000000; stroke-width: 0.336313; stroke-linejoin: miter"/>
   </g>
   <g id="patch_106">
    <path d="M 498.912556 385.478125 
L 502.71811 385.478125 
L 502.71811 385.478125 
L 498.912556 385.478125 
z
" clip-path="url(#p5d0588942f)" style="fill: #1f77b4; fill-opacity: 0.5; stroke: #000000; stroke-width: 0.336313; stroke-linejoin: miter"/>
   </g>
   <g id="patch_107">
    <path d="M 502.71811 385.478125 
L 506.523665 385.478125 
L 506.523665 294.189897 
L 502.71811 294.189897 
z
" clip-path="url(#p5d0588942f)" style="fill: #1f77b4; fill-opacity: 0.5; stroke: #000000; stroke-width: 0.336313; stroke-linejoin: miter"/>
   </g>
   <g id="patch_108">
    <path d="M 506.523665 385.478125 
L 510.329219 385.478125 
L 510.329219 319.647741 
L 506.523665 319.647741 
z
" clip-path="url(#p5d0588942f)" style="fill: #1f77b4; fill-opacity: 0.5; stroke: #000000; stroke-width: 0.336313; stroke-linejoin: miter"/>
   </g>
   <g id="patch_109">
    <path d="M 510.329219 385.478125 
L 514.134774 385.478125 
L 514.134774 385.478125 
L 510.329219 385.478125 
z
" clip-path="url(#p5d0588942f)" style="fill: #1f77b4; fill-opacity: 0.5; stroke: #000000; stroke-width: 0.336313; stroke-linejoin: miter"/>
   </g>
   <g id="patch_110">
    <path d="M 514.134774 385.478125 
L 517.940328 385.478125 
L 517.940328 341.762636 
L 514.134774 341.762636 
z
" clip-path="url(#p5d0588942f)" style="fill: #1f77b4; fill-opacity: 0.5; stroke: #000000; stroke-width: 0.336313; stroke-linejoin: miter"/>
   </g>
   <g id="patch_111">
    <path d="M 517.940328 385.478125 
L 521.745882 385.478125 
L 521.745882 362.84893 
L 517.940328 362.84893 
z
" clip-path="url(#p5d0588942f)" style="fill: #1f77b4; fill-opacity: 0.5; stroke: #000000; stroke-width: 0.336313; stroke-linejoin: miter"/>
   </g>
   <g id="patch_112">
    <path d="M 521.745882 385.478125 
L 525.551437 385.478125 
L 525.551437 385.478125 
L 521.745882 385.478125 
z
" clip-path="url(#p5d0588942f)" style="fill: #1f77b4; fill-opacity: 0.5; stroke: #000000; stroke-width: 0.336313; stroke-linejoin: miter"/>
   </g>
   <g id="patch_113">
    <path d="M 525.551437 385.478125 
L 529.356991 385.478125 
L 529.356991 369.020529 
L 525.551437 369.020529 
z
" clip-path="url(#p5d0588942f)" style="fill: #1f77b4; fill-opacity: 0.5; stroke: #000000; stroke-width: 0.336313; stroke-linejoin: miter"/>
   </g>
   <g id="patch_114">
    <path d="M 529.356991 385.478125 
L 533.162546 385.478125 
L 533.162546 385.478125 
L 529.356991 385.478125 
z
" clip-path="url(#p5d0588942f)" style="fill: #1f77b4; fill-opacity: 0.5; stroke: #000000; stroke-width: 0.336313; stroke-linejoin: miter"/>
   </g>
   <g id="patch_115">
    <path d="M 533.162546 385.478125 
L 536.9681 385.478125 
L 536.9681 372.877778 
L 533.162546 372.877778 
z
" clip-path="url(#p5d0588942f)" style="fill: #1f77b4; fill-opacity: 0.5; stroke: #000000; stroke-width: 0.336313; stroke-linejoin: miter"/>
   </g>
   <g id="patch_116">
    <path d="M 536.9681 385.478125 
L 540.773655 385.478125 
L 540.773655 376.220727 
L 536.9681 376.220727 
z
" clip-path="url(#p5d0588942f)" style="fill: #1f77b4; fill-opacity: 0.5; stroke: #000000; stroke-width: 0.336313; stroke-linejoin: miter"/>
   </g>
   <g id="patch_117">
    <path d="M 540.773655 385.478125 
L 544.579209 385.478125 
L 544.579209 385.478125 
L 540.773655 385.478125 
z
" clip-path="url(#p5d0588942f)" style="fill: #1f77b4; fill-opacity: 0.5; stroke: #000000; stroke-width: 0.336313; stroke-linejoin: miter"/>
   </g>
   <g id="patch_118">
    <path d="M 544.579209 385.478125 
L 548.384764 385.478125 
L 548.384764 380.592276 
L 544.579209 380.592276 
z
" clip-path="url(#p5d0588942f)" style="fill: #1f77b4; fill-opacity: 0.5; stroke: #000000; stroke-width: 0.336313; stroke-linejoin: miter"/>
   </g>
   <g id="patch_119">
    <path d="M 548.384764 385.478125 
L 552.190318 385.478125 
L 552.190318 382.906626 
L 548.384764 382.906626 
z
" clip-path="url(#p5d0588942f)" style="fill: #1f77b4; fill-opacity: 0.5; stroke: #000000; stroke-width: 0.336313; stroke-linejoin: miter"/>
   </g>
   <g id="patch_120">
    <path d="M 552.190318 385.478125 
L 555.995873 385.478125 
L 555.995873 385.478125 
L 552.190318 385.478125 
z
" clip-path="url(#p5d0588942f)" style="fill: #1f77b4; fill-opacity: 0.5; stroke: #000000; stroke-width: 0.336313; stroke-linejoin: miter"/>
   </g>
   <g id="patch_121">
    <path d="M 555.995873 385.478125 
L 559.801427 385.478125 
L 559.801427 383.420925 
L 555.995873 383.420925 
z
" clip-path="url(#p5d0588942f)" style="fill: #1f77b4; fill-opacity: 0.5; stroke: #000000; stroke-width: 0.336313; stroke-linejoin: miter"/>
   </g>
   <g id="patch_122">
    <path d="M 559.801427 385.478125 
L 563.606982 385.478125 
L 563.606982 385.478125 
L 559.801427 385.478125 
z
" clip-path="url(#p5d0588942f)" style="fill: #1f77b4; fill-opacity: 0.5; stroke: #000000; stroke-width: 0.336313; stroke-linejoin: miter"/>
   </g>
   <g id="patch_123">
    <path d="M 563.606982 385.478125 
L 567.412536 385.478125 
L 567.412536 384.192375 
L 563.606982 384.192375 
z
" clip-path="url(#p5d0588942f)" style="fill: #1f77b4; fill-opacity: 0.5; stroke: #000000; stroke-width: 0.336313; stroke-linejoin: miter"/>
   </g>
   <g id="patch_124">
    <path d="M 567.412536 385.478125 
L 571.21809 385.478125 
L 571.21809 385.220975 
L 567.412536 385.220975 
z
" clip-path="url(#p5d0588942f)" style="fill: #1f77b4; fill-opacity: 0.5; stroke: #000000; stroke-width: 0.336313; stroke-linejoin: miter"/>
   </g>
   <g id="patch_125">
    <path d="M 571.21809 385.478125 
L 575.023645 385.478125 
L 575.023645 385.478125 
L 571.21809 385.478125 
z
" clip-path="url(#p5d0588942f)" style="fill: #1f77b4; fill-opacity: 0.5; stroke: #000000; stroke-width: 0.336313; stroke-linejoin: miter"/>
   </g>
   <g id="patch_126">
    <path d="M 575.023645 385.478125 
L 578.829199 385.478125 
L 578.829199 384.963825 
L 575.023645 384.963825 
z
" clip-path="url(#p5d0588942f)" style="fill: #1f77b4; fill-opacity: 0.5; stroke: #000000; stroke-width: 0.336313; stroke-linejoin: miter"/>
   </g>
   <g id="patch_127">
    <path d="M 578.829199 385.478125 
L 582.634754 385.478125 
L 582.634754 385.220975 
L 578.829199 385.220975 
z
" clip-path="url(#p5d0588942f)" style="fill: #1f77b4; fill-opacity: 0.5; stroke: #000000; stroke-width: 0.336313; stroke-linejoin: miter"/>
   </g>
   <g id="patch_128">
    <path d="M 582.634754 385.478125 
L 586.440308 385.478125 
L 586.440308 385.478125 
L 582.634754 385.478125 
z
" clip-path="url(#p5d0588942f)" style="fill: #1f77b4; fill-opacity: 0.5; stroke: #000000; stroke-width: 0.336313; stroke-linejoin: miter"/>
   </g>
   <g id="patch_129">
    <path d="M 586.440308 385.478125 
L 590.245863 385.478125 
L 590.245863 385.220975 
L 586.440308 385.220975 
z
" clip-path="url(#p5d0588942f)" style="fill: #1f77b4; fill-opacity: 0.5; stroke: #000000; stroke-width: 0.336313; stroke-linejoin: miter"/>
   </g>
   <g id="patch_130">
    <path d="M 590.245863 385.478125 
L 594.051417 385.478125 
L 594.051417 385.478125 
L 590.245863 385.478125 
z
" clip-path="url(#p5d0588942f)" style="fill: #1f77b4; fill-opacity: 0.5; stroke: #000000; stroke-width: 0.336313; stroke-linejoin: miter"/>
   </g>
   <g id="patch_131">
    <path d="M 594.051417 385.478125 
L 597.856972 385.478125 
L 597.856972 384.192375 
L 594.051417 384.192375 
z
" clip-path="url(#p5d0588942f)" style="fill: #1f77b4; fill-opacity: 0.5; stroke: #000000; stroke-width: 0.336313; stroke-linejoin: miter"/>
   </g>
   <g id="patch_132">
    <path d="M 597.856972 385.478125 
L 601.662526 385.478125 
L 601.662526 384.963825 
L 597.856972 384.963825 
z
" clip-path="url(#p5d0588942f)" style="fill: #1f77b4; fill-opacity: 0.5; stroke: #000000; stroke-width: 0.336313; stroke-linejoin: miter"/>
   </g>
   <g id="patch_133">
    <path d="M 601.662526 385.478125 
L 605.468081 385.478125 
L 605.468081 385.478125 
L 601.662526 385.478125 
z
" clip-path="url(#p5d0588942f)" style="fill: #1f77b4; fill-opacity: 0.5; stroke: #000000; stroke-width: 0.336313; stroke-linejoin: miter"/>
   </g>
   <g id="patch_134">
    <path d="M 605.468081 385.478125 
L 609.273635 385.478125 
L 609.273635 385.220975 
L 605.468081 385.220975 
z
" clip-path="url(#p5d0588942f)" style="fill: #1f77b4; fill-opacity: 0.5; stroke: #000000; stroke-width: 0.336313; stroke-linejoin: miter"/>
   </g>
   <g id="patch_135">
    <path d="M 609.273635 385.478125 
L 613.079189 385.478125 
L 613.079189 385.478125 
L 609.273635 385.478125 
z
" clip-path="url(#p5d0588942f)" style="fill: #1f77b4; fill-opacity: 0.5; stroke: #000000; stroke-width: 0.336313; stroke-linejoin: miter"/>
   </g>
   <g id="patch_136">
    <path d="M 613.079189 385.478125 
L 616.884744 385.478125 
L 616.884744 385.478125 
L 613.079189 385.478125 
z
" clip-path="url(#p5d0588942f)" style="fill: #1f77b4; fill-opacity: 0.5; stroke: #000000; stroke-width: 0.336313; stroke-linejoin: miter"/>
   </g>
   <g id="patch_137">
    <path d="M 616.884744 385.478125 
L 620.690298 385.478125 
L 620.690298 384.963825 
L 616.884744 384.963825 
z
" clip-path="url(#p5d0588942f)" style="fill: #1f77b4; fill-opacity: 0.5; stroke: #000000; stroke-width: 0.336313; stroke-linejoin: miter"/>
   </g>
   <g id="patch_138">
    <path d="M 620.690298 385.478125 
L 624.495853 385.478125 
L 624.495853 385.478125 
L 620.690298 385.478125 
z
" clip-path="url(#p5d0588942f)" style="fill: #1f77b4; fill-opacity: 0.5; stroke: #000000; stroke-width: 0.336313; stroke-linejoin: miter"/>
   </g>
   <g id="patch_139">
    <path d="M 624.495853 385.478125 
L 628.301407 385.478125 
L 628.301407 385.478125 
L 624.495853 385.478125 
z
" clip-path="url(#p5d0588942f)" style="fill: #1f77b4; fill-opacity: 0.5; stroke: #000000; stroke-width: 0.336313; stroke-linejoin: miter"/>
   </g>
   <g id="patch_140">
    <path d="M 628.301407 385.478125 
L 632.106962 385.478125 
L 632.106962 384.963825 
L 628.301407 384.963825 
z
" clip-path="url(#p5d0588942f)" style="fill: #1f77b4; fill-opacity: 0.5; stroke: #000000; stroke-width: 0.336313; stroke-linejoin: miter"/>
   </g>
   <g id="patch_141">
    <path d="M 632.106962 385.478125 
L 635.912516 385.478125 
L 635.912516 385.478125 
L 632.106962 385.478125 
z
" clip-path="url(#p5d0588942f)" style="fill: #1f77b4; fill-opacity: 0.5; stroke: #000000; stroke-width: 0.336313; stroke-linejoin: miter"/>
   </g>
   <g id="patch_142">
    <path d="M 635.912516 385.478125 
L 639.718071 385.478125 
L 639.718071 385.478125 
L 635.912516 385.478125 
z
" clip-path="url(#p5d0588942f)" style="fill: #1f77b4; fill-opacity: 0.5; stroke: #000000; stroke-width: 0.336313; stroke-linejoin: miter"/>
   </g>
   <g id="patch_143">
    <path d="M 639.718071 385.478125 
L 643.523625 385.478125 
L 643.523625 385.478125 
L 639.718071 385.478125 
z
" clip-path="url(#p5d0588942f)" style="fill: #1f77b4; fill-opacity: 0.5; stroke: #000000; stroke-width: 0.336313; stroke-linejoin: miter"/>
   </g>
   <g id="patch_144">
    <path d="M 643.523625 385.478125 
L 647.32918 385.478125 
L 647.32918 385.478125 
L 643.523625 385.478125 
z
" clip-path="url(#p5d0588942f)" style="fill: #1f77b4; fill-opacity: 0.5; stroke: #000000; stroke-width: 0.336313; stroke-linejoin: miter"/>
   </g>
   <g id="patch_145">
    <path d="M 647.32918 385.478125 
L 651.134734 385.478125 
L 651.134734 385.478125 
L 647.32918 385.478125 
z
" clip-path="url(#p5d0588942f)" style="fill: #1f77b4; fill-opacity: 0.5; stroke: #000000; stroke-width: 0.336313; stroke-linejoin: miter"/>
   </g>
   <g id="patch_146">
    <path d="M 651.134734 385.478125 
L 654.940289 385.478125 
L 654.940289 385.478125 
L 651.134734 385.478125 
z
" clip-path="url(#p5d0588942f)" style="fill: #1f77b4; fill-opacity: 0.5; stroke: #000000; stroke-width: 0.336313; stroke-linejoin: miter"/>
   </g>
   <g id="patch_147">
    <path d="M 654.940289 385.478125 
L 658.745843 385.478125 
L 658.745843 385.220975 
L 654.940289 385.220975 
z
" clip-path="url(#p5d0588942f)" style="fill: #1f77b4; fill-opacity: 0.5; stroke: #000000; stroke-width: 0.336313; stroke-linejoin: miter"/>
   </g>
   <g id="patch_148">
    <path d="M 658.745843 385.478125 
L 662.551397 385.478125 
L 662.551397 384.706675 
L 658.745843 384.706675 
z
" clip-path="url(#p5d0588942f)" style="fill: #1f77b4; fill-opacity: 0.5; stroke: #000000; stroke-width: 0.336313; stroke-linejoin: miter"/>
   </g>
   <g id="patch_149">
    <path d="M 662.551397 385.478125 
L 666.356952 385.478125 
L 666.356952 385.478125 
L 662.551397 385.478125 
z
" clip-path="url(#p5d0588942f)" style="fill: #1f77b4; fill-opacity: 0.5; stroke: #000000; stroke-width: 0.336313; stroke-linejoin: miter"/>
   </g>
   <g id="patch_150">
    <path d="M 666.356952 385.478125 
L 670.162506 385.478125 
L 670.162506 385.478125 
L 666.356952 385.478125 
z
" clip-path="url(#p5d0588942f)" style="fill: #1f77b4; fill-opacity: 0.5; stroke: #000000; stroke-width: 0.336313; stroke-linejoin: miter"/>
   </g>
   <g id="patch_151">
    <path d="M 670.162506 385.478125 
L 673.968061 385.478125 
L 673.968061 385.478125 
L 670.162506 385.478125 
z
" clip-path="url(#p5d0588942f)" style="fill: #1f77b4; fill-opacity: 0.5; stroke: #000000; stroke-width: 0.336313; stroke-linejoin: miter"/>
   </g>
   <g id="patch_152">
    <path d="M 673.968061 385.478125 
L 677.773615 385.478125 
L 677.773615 385.478125 
L 673.968061 385.478125 
z
" clip-path="url(#p5d0588942f)" style="fill: #1f77b4; fill-opacity: 0.5; stroke: #000000; stroke-width: 0.336313; stroke-linejoin: miter"/>
   </g>
   <g id="patch_153">
    <path d="M 677.773615 385.478125 
L 681.57917 385.478125 
L 681.57917 385.220975 
L 677.773615 385.220975 
z
" clip-path="url(#p5d0588942f)" style="fill: #1f77b4; fill-opacity: 0.5; stroke: #000000; stroke-width: 0.336313; stroke-linejoin: miter"/>
   </g>
   <g id="patch_154">
    <path d="M 681.57917 385.478125 
L 685.384724 385.478125 
L 685.384724 385.478125 
L 681.57917 385.478125 
z
" clip-path="url(#p5d0588942f)" style="fill: #1f77b4; fill-opacity: 0.5; stroke: #000000; stroke-width: 0.336313; stroke-linejoin: miter"/>
   </g>
   <g id="patch_155">
    <path d="M 685.384724 385.478125 
L 689.190279 385.478125 
L 689.190279 385.478125 
L 685.384724 385.478125 
z
" clip-path="url(#p5d0588942f)" style="fill: #1f77b4; fill-opacity: 0.5; stroke: #000000; stroke-width: 0.336313; stroke-linejoin: miter"/>
   </g>
   <g id="patch_156">
    <path d="M 689.190279 385.478125 
L 692.995833 385.478125 
L 692.995833 385.478125 
L 689.190279 385.478125 
z
" clip-path="url(#p5d0588942f)" style="fill: #1f77b4; fill-opacity: 0.5; stroke: #000000; stroke-width: 0.336313; stroke-linejoin: miter"/>
   </g>
   <g id="patch_157">
    <path d="M 692.995833 385.478125 
L 696.801388 385.478125 
L 696.801388 385.478125 
L 692.995833 385.478125 
z
" clip-path="url(#p5d0588942f)" style="fill: #1f77b4; fill-opacity: 0.5; stroke: #000000; stroke-width: 0.336313; stroke-linejoin: miter"/>
   </g>
   <g id="patch_158">
    <path d="M 696.801388 385.478125 
L 700.606942 385.478125 
L 700.606942 385.478125 
L 696.801388 385.478125 
z
" clip-path="url(#p5d0588942f)" style="fill: #1f77b4; fill-opacity: 0.5; stroke: #000000; stroke-width: 0.336313; stroke-linejoin: miter"/>
   </g>
   <g id="patch_159">
    <path d="M 700.606942 385.478125 
L 704.412496 385.478125 
L 704.412496 385.220975 
L 700.606942 385.220975 
z
" clip-path="url(#p5d0588942f)" style="fill: #1f77b4; fill-opacity: 0.5; stroke: #000000; stroke-width: 0.336313; stroke-linejoin: miter"/>
   </g>
   <g id="patch_160">
    <path d="M 704.412496 385.478125 
L 708.218051 385.478125 
L 708.218051 385.478125 
L 704.412496 385.478125 
z
" clip-path="url(#p5d0588942f)" style="fill: #1f77b4; fill-opacity: 0.5; stroke: #000000; stroke-width: 0.336313; stroke-linejoin: miter"/>
   </g>
   <g id="patch_161">
    <path d="M 708.218051 385.478125 
L 712.023605 385.478125 
L 712.023605 385.478125 
L 708.218051 385.478125 
z
" clip-path="url(#p5d0588942f)" style="fill: #1f77b4; fill-opacity: 0.5; stroke: #000000; stroke-width: 0.336313; stroke-linejoin: miter"/>
   </g>
   <g id="patch_162">
    <path d="M 712.023605 385.478125 
L 715.82916 385.478125 
L 715.82916 385.478125 
L 712.023605 385.478125 
z
" clip-path="url(#p5d0588942f)" style="fill: #1f77b4; fill-opacity: 0.5; stroke: #000000; stroke-width: 0.336313; stroke-linejoin: miter"/>
   </g>
   <g id="patch_163">
    <path d="M 715.82916 385.478125 
L 719.634714 385.478125 
L 719.634714 385.478125 
L 715.82916 385.478125 
z
" clip-path="url(#p5d0588942f)" style="fill: #1f77b4; fill-opacity: 0.5; stroke: #000000; stroke-width: 0.336313; stroke-linejoin: miter"/>
   </g>
   <g id="patch_164">
    <path d="M 719.634714 385.478125 
L 723.440269 385.478125 
L 723.440269 385.478125 
L 719.634714 385.478125 
z
" clip-path="url(#p5d0588942f)" style="fill: #1f77b4; fill-opacity: 0.5; stroke: #000000; stroke-width: 0.336313; stroke-linejoin: miter"/>
   </g>
   <g id="patch_165">
    <path d="M 723.440269 385.478125 
L 727.245823 385.478125 
L 727.245823 385.478125 
L 723.440269 385.478125 
z
" clip-path="url(#p5d0588942f)" style="fill: #1f77b4; fill-opacity: 0.5; stroke: #000000; stroke-width: 0.336313; stroke-linejoin: miter"/>
   </g>
   <g id="patch_166">
    <path d="M 727.245823 385.478125 
L 731.051378 385.478125 
L 731.051378 385.478125 
L 727.245823 385.478125 
z
" clip-path="url(#p5d0588942f)" style="fill: #1f77b4; fill-opacity: 0.5; stroke: #000000; stroke-width: 0.336313; stroke-linejoin: miter"/>
   </g>
   <g id="patch_167">
    <path d="M 731.051378 385.478125 
L 734.856932 385.478125 
L 734.856932 385.478125 
L 731.051378 385.478125 
z
" clip-path="url(#p5d0588942f)" style="fill: #1f77b4; fill-opacity: 0.5; stroke: #000000; stroke-width: 0.336313; stroke-linejoin: miter"/>
   </g>
   <g id="patch_168">
    <path d="M 734.856932 385.478125 
L 738.662487 385.478125 
L 738.662487 385.478125 
L 734.856932 385.478125 
z
" clip-path="url(#p5d0588942f)" style="fill: #1f77b4; fill-opacity: 0.5; stroke: #000000; stroke-width: 0.336313; stroke-linejoin: miter"/>
   </g>
   <g id="patch_169">
    <path d="M 738.662487 385.478125 
L 742.468041 385.478125 
L 742.468041 385.220975 
L 738.662487 385.220975 
z
" clip-path="url(#p5d0588942f)" style="fill: #1f77b4; fill-opacity: 0.5; stroke: #000000; stroke-width: 0.336313; stroke-linejoin: miter"/>
   </g>
   <g id="patch_170">
    <path d="M 742.468041 385.478125 
L 746.273596 385.478125 
L 746.273596 385.478125 
L 742.468041 385.478125 
z
" clip-path="url(#p5d0588942f)" style="fill: #1f77b4; fill-opacity: 0.5; stroke: #000000; stroke-width: 0.336313; stroke-linejoin: miter"/>
   </g>
   <g id="patch_171">
    <path d="M 746.273596 385.478125 
L 750.07915 385.478125 
L 750.07915 385.478125 
L 746.273596 385.478125 
z
" clip-path="url(#p5d0588942f)" style="fill: #1f77b4; fill-opacity: 0.5; stroke: #000000; stroke-width: 0.336313; stroke-linejoin: miter"/>
   </g>
   <g id="patch_172">
    <path d="M 750.07915 385.478125 
L 753.884704 385.478125 
L 753.884704 385.478125 
L 750.07915 385.478125 
z
" clip-path="url(#p5d0588942f)" style="fill: #1f77b4; fill-opacity: 0.5; stroke: #000000; stroke-width: 0.336313; stroke-linejoin: miter"/>
   </g>
   <g id="patch_173">
    <path d="M 753.884704 385.478125 
L 757.690259 385.478125 
L 757.690259 385.478125 
L 753.884704 385.478125 
z
" clip-path="url(#p5d0588942f)" style="fill: #1f77b4; fill-opacity: 0.5; stroke: #000000; stroke-width: 0.336313; stroke-linejoin: miter"/>
   </g>
   <g id="patch_174">
    <path d="M 757.690259 385.478125 
L 761.495813 385.478125 
L 761.495813 385.478125 
L 757.690259 385.478125 
z
" clip-path="url(#p5d0588942f)" style="fill: #1f77b4; fill-opacity: 0.5; stroke: #000000; stroke-width: 0.336313; stroke-linejoin: miter"/>
   </g>
   <g id="patch_175">
    <path d="M 761.495813 385.478125 
L 765.301368 385.478125 
L 765.301368 385.478125 
L 761.495813 385.478125 
z
" clip-path="url(#p5d0588942f)" style="fill: #1f77b4; fill-opacity: 0.5; stroke: #000000; stroke-width: 0.336313; stroke-linejoin: miter"/>
   </g>
   <g id="patch_176">
    <path d="M 765.301368 385.478125 
L 769.106922 385.478125 
L 769.106922 385.478125 
L 765.301368 385.478125 
z
" clip-path="url(#p5d0588942f)" style="fill: #1f77b4; fill-opacity: 0.5; stroke: #000000; stroke-width: 0.336313; stroke-linejoin: miter"/>
   </g>
   <g id="patch_177">
    <path d="M 769.106922 385.478125 
L 772.912477 385.478125 
L 772.912477 385.478125 
L 769.106922 385.478125 
z
" clip-path="url(#p5d0588942f)" style="fill: #1f77b4; fill-opacity: 0.5; stroke: #000000; stroke-width: 0.336313; stroke-linejoin: miter"/>
   </g>
   <g id="patch_178">
    <path d="M 772.912477 385.478125 
L 776.718031 385.478125 
L 776.718031 385.478125 
L 772.912477 385.478125 
z
" clip-path="url(#p5d0588942f)" style="fill: #1f77b4; fill-opacity: 0.5; stroke: #000000; stroke-width: 0.336313; stroke-linejoin: miter"/>
   </g>
   <g id="patch_179">
    <path d="M 776.718031 385.478125 
L 780.523586 385.478125 
L 780.523586 385.478125 
L 776.718031 385.478125 
z
" clip-path="url(#p5d0588942f)" style="fill: #1f77b4; fill-opacity: 0.5; stroke: #000000; stroke-width: 0.336313; stroke-linejoin: miter"/>
   </g>
   <g id="patch_180">
    <path d="M 780.523586 385.478125 
L 784.32914 385.478125 
L 784.32914 385.478125 
L 780.523586 385.478125 
z
" clip-path="url(#p5d0588942f)" style="fill: #1f77b4; fill-opacity: 0.5; stroke: #000000; stroke-width: 0.336313; stroke-linejoin: miter"/>
   </g>
   <g id="patch_181">
    <path d="M 784.32914 385.478125 
L 788.134695 385.478125 
L 788.134695 385.478125 
L 784.32914 385.478125 
z
" clip-path="url(#p5d0588942f)" style="fill: #1f77b4; fill-opacity: 0.5; stroke: #000000; stroke-width: 0.336313; stroke-linejoin: miter"/>
   </g>
   <g id="patch_182">
    <path d="M 788.134695 385.478125 
L 791.940249 385.478125 
L 791.940249 385.478125 
L 788.134695 385.478125 
z
" clip-path="url(#p5d0588942f)" style="fill: #1f77b4; fill-opacity: 0.5; stroke: #000000; stroke-width: 0.336313; stroke-linejoin: miter"/>
   </g>
   <g id="patch_183">
    <path d="M 791.940249 385.478125 
L 795.745803 385.478125 
L 795.745803 385.220975 
L 791.940249 385.220975 
z
" clip-path="url(#p5d0588942f)" style="fill: #1f77b4; fill-opacity: 0.5; stroke: #000000; stroke-width: 0.336313; stroke-linejoin: miter"/>
   </g>
   <g id="matplotlib.axis_1">
    <g id="xtick_1">
     <g id="line2d_1">
      <defs>
       <path id="mb6e5a39a94" d="M 0 0 
L 0 3.5 
" style="stroke: #000000; stroke-width: 0.8"/>
      </defs>
      <g>
       <use xlink:href="#mb6e5a39a94" x="137.41856" y="385.478125" style="stroke: #000000; stroke-width: 0.8"/>
      </g>
     </g>
     <g id="text_1">
      <!-- 4 -->
      <g transform="translate(134.23731 400.076562) scale(0.1 -0.1)">
       <defs>
        <path id="DejaVuSans-34" d="M 2419 4116 
L 825 1625 
L 2419 1625 
L 2419 4116 
z
M 2253 4666 
L 3047 4666 
L 3047 1625 
L 3713 1625 
L 3713 1100 
L 3047 1100 
L 3047 0 
L 2419 0 
L 2419 1100 
L 313 1100 
L 313 1709 
L 2253 4666 
z
" transform="scale(0.015625)"/>
       </defs>
       <use xlink:href="#DejaVuSans-34"/>
      </g>
     </g>
    </g>
    <g id="xtick_2">
     <g id="line2d_2">
      <g>
       <use xlink:href="#mb6e5a39a94" x="259.331012" y="385.478125" style="stroke: #000000; stroke-width: 0.8"/>
      </g>
     </g>
     <g id="text_2">
      <!-- 6 -->
      <g transform="translate(256.149762 400.076562) scale(0.1 -0.1)">
       <defs>
        <path id="DejaVuSans-36" d="M 2113 2584 
Q 1688 2584 1439 2293 
Q 1191 2003 1191 1497 
Q 1191 994 1439 701 
Q 1688 409 2113 409 
Q 2538 409 2786 701 
Q 3034 994 3034 1497 
Q 3034 2003 2786 2293 
Q 2538 2584 2113 2584 
z
M 3366 4563 
L 3366 3988 
Q 3128 4100 2886 4159 
Q 2644 4219 2406 4219 
Q 1781 4219 1451 3797 
Q 1122 3375 1075 2522 
Q 1259 2794 1537 2939 
Q 1816 3084 2150 3084 
Q 2853 3084 3261 2657 
Q 3669 2231 3669 1497 
Q 3669 778 3244 343 
Q 2819 -91 2113 -91 
Q 1303 -91 875 529 
Q 447 1150 447 2328 
Q 447 3434 972 4092 
Q 1497 4750 2381 4750 
Q 2619 4750 2861 4703 
Q 3103 4656 3366 4563 
z
" transform="scale(0.015625)"/>
       </defs>
       <use xlink:href="#DejaVuSans-36"/>
      </g>
     </g>
    </g>
    <g id="xtick_3">
     <g id="line2d_3">
      <g>
       <use xlink:href="#mb6e5a39a94" x="381.243465" y="385.478125" style="stroke: #000000; stroke-width: 0.8"/>
      </g>
     </g>
     <g id="text_3">
      <!-- 8 -->
      <g transform="translate(378.062215 400.076562) scale(0.1 -0.1)">
       <defs>
        <path id="DejaVuSans-38" d="M 2034 2216 
Q 1584 2216 1326 1975 
Q 1069 1734 1069 1313 
Q 1069 891 1326 650 
Q 1584 409 2034 409 
Q 2484 409 2743 651 
Q 3003 894 3003 1313 
Q 3003 1734 2745 1975 
Q 2488 2216 2034 2216 
z
M 1403 2484 
Q 997 2584 770 2862 
Q 544 3141 544 3541 
Q 544 4100 942 4425 
Q 1341 4750 2034 4750 
Q 2731 4750 3128 4425 
Q 3525 4100 3525 3541 
Q 3525 3141 3298 2862 
Q 3072 2584 2669 2484 
Q 3125 2378 3379 2068 
Q 3634 1759 3634 1313 
Q 3634 634 3220 271 
Q 2806 -91 2034 -91 
Q 1263 -91 848 271 
Q 434 634 434 1313 
Q 434 1759 690 2068 
Q 947 2378 1403 2484 
z
M 1172 3481 
Q 1172 3119 1398 2916 
Q 1625 2713 2034 2713 
Q 2441 2713 2670 2916 
Q 2900 3119 2900 3481 
Q 2900 3844 2670 4047 
Q 2441 4250 2034 4250 
Q 1625 4250 1398 4047 
Q 1172 3844 1172 3481 
z
" transform="scale(0.015625)"/>
       </defs>
       <use xlink:href="#DejaVuSans-38"/>
      </g>
     </g>
    </g>
    <g id="xtick_4">
     <g id="line2d_4">
      <g>
       <use xlink:href="#mb6e5a39a94" x="503.155917" y="385.478125" style="stroke: #000000; stroke-width: 0.8"/>
      </g>
     </g>
     <g id="text_4">
      <!-- 10 -->
      <g transform="translate(496.793417 400.076562) scale(0.1 -0.1)">
       <defs>
        <path id="DejaVuSans-31" d="M 794 531 
L 1825 531 
L 1825 4091 
L 703 3866 
L 703 4441 
L 1819 4666 
L 2450 4666 
L 2450 531 
L 3481 531 
L 3481 0 
L 794 0 
L 794 531 
z
" transform="scale(0.015625)"/>
        <path id="DejaVuSans-30" d="M 2034 4250 
Q 1547 4250 1301 3770 
Q 1056 3291 1056 2328 
Q 1056 1369 1301 889 
Q 1547 409 2034 409 
Q 2525 409 2770 889 
Q 3016 1369 3016 2328 
Q 3016 3291 2770 3770 
Q 2525 4250 2034 4250 
z
M 2034 4750 
Q 2819 4750 3233 4129 
Q 3647 3509 3647 2328 
Q 3647 1150 3233 529 
Q 2819 -91 2034 -91 
Q 1250 -91 836 529 
Q 422 1150 422 2328 
Q 422 3509 836 4129 
Q 1250 4750 2034 4750 
z
" transform="scale(0.015625)"/>
       </defs>
       <use xlink:href="#DejaVuSans-31"/>
       <use xlink:href="#DejaVuSans-30" x="63.623047"/>
      </g>
     </g>
    </g>
    <g id="xtick_5">
     <g id="line2d_5">
      <g>
       <use xlink:href="#mb6e5a39a94" x="625.06837" y="385.478125" style="stroke: #000000; stroke-width: 0.8"/>
      </g>
     </g>
     <g id="text_5">
      <!-- 12 -->
      <g transform="translate(618.70587 400.076562) scale(0.1 -0.1)">
       <defs>
        <path id="DejaVuSans-32" d="M 1228 531 
L 3431 531 
L 3431 0 
L 469 0 
L 469 531 
Q 828 903 1448 1529 
Q 2069 2156 2228 2338 
Q 2531 2678 2651 2914 
Q 2772 3150 2772 3378 
Q 2772 3750 2511 3984 
Q 2250 4219 1831 4219 
Q 1534 4219 1204 4116 
Q 875 4013 500 3803 
L 500 4441 
Q 881 4594 1212 4672 
Q 1544 4750 1819 4750 
Q 2544 4750 2975 4387 
Q 3406 4025 3406 3419 
Q 3406 3131 3298 2873 
Q 3191 2616 2906 2266 
Q 2828 2175 2409 1742 
Q 1991 1309 1228 531 
z
" transform="scale(0.015625)"/>
       </defs>
       <use xlink:href="#DejaVuSans-31"/>
       <use xlink:href="#DejaVuSans-32" x="63.623047"/>
      </g>
     </g>
    </g>
    <g id="xtick_6">
     <g id="line2d_6">
      <g>
       <use xlink:href="#mb6e5a39a94" x="746.980822" y="385.478125" style="stroke: #000000; stroke-width: 0.8"/>
      </g>
     </g>
     <g id="text_6">
      <!-- 14 -->
      <g transform="translate(740.618322 400.076562) scale(0.1 -0.1)">
       <use xlink:href="#DejaVuSans-31"/>
       <use xlink:href="#DejaVuSans-34" x="63.623047"/>
      </g>
     </g>
    </g>
    <g id="text_7">
     <!-- Ca -->
     <g transform="translate(444.787656 413.754687) scale(0.1 -0.1)">
      <defs>
       <path id="DejaVuSans-43" d="M 4122 4306 
L 4122 3641 
Q 3803 3938 3442 4084 
Q 3081 4231 2675 4231 
Q 1875 4231 1450 3742 
Q 1025 3253 1025 2328 
Q 1025 1406 1450 917 
Q 1875 428 2675 428 
Q 3081 428 3442 575 
Q 3803 722 4122 1019 
L 4122 359 
Q 3791 134 3420 21 
Q 3050 -91 2638 -91 
Q 1578 -91 968 557 
Q 359 1206 359 2328 
Q 359 3453 968 4101 
Q 1578 4750 2638 4750 
Q 3056 4750 3426 4639 
Q 3797 4528 4122 4306 
z
" transform="scale(0.015625)"/>
       <path id="DejaVuSans-61" d="M 2194 1759 
Q 1497 1759 1228 1600 
Q 959 1441 959 1056 
Q 959 750 1161 570 
Q 1363 391 1709 391 
Q 2188 391 2477 730 
Q 2766 1069 2766 1631 
L 2766 1759 
L 2194 1759 
z
M 3341 1997 
L 3341 0 
L 2766 0 
L 2766 531 
Q 2569 213 2275 61 
Q 1981 -91 1556 -91 
Q 1019 -91 701 211 
Q 384 513 384 1019 
Q 384 1609 779 1909 
Q 1175 2209 1959 2209 
L 2766 2209 
L 2766 2266 
Q 2766 2663 2505 2880 
Q 2244 3097 1772 3097 
Q 1472 3097 1187 3025 
Q 903 2953 641 2809 
L 641 3341 
Q 956 3463 1253 3523 
Q 1550 3584 1831 3584 
Q 2591 3584 2966 3190 
Q 3341 2797 3341 1997 
z
" transform="scale(0.015625)"/>
      </defs>
      <use xlink:href="#DejaVuSans-43"/>
      <use xlink:href="#DejaVuSans-61" x="69.824219"/>
     </g>
    </g>
   </g>
   <g id="matplotlib.axis_2">
    <g id="ytick_1">
     <g id="line2d_7">
      <defs>
       <path id="m092c945e5e" d="M 0 0 
L -3.5 0 
" style="stroke: #000000; stroke-width: 0.8"/>
      </defs>
      <g>
       <use xlink:href="#m092c945e5e" x="53.328125" y="385.478125" style="stroke: #000000; stroke-width: 0.8"/>
      </g>
     </g>
     <g id="text_8">
      <!-- 0 -->
      <g transform="translate(39.965625 389.277344) scale(0.1 -0.1)">
       <use xlink:href="#DejaVuSans-30"/>
      </g>
     </g>
    </g>
    <g id="ytick_2">
     <g id="line2d_8">
      <g>
       <use xlink:href="#m092c945e5e" x="53.328125" y="334.048137" style="stroke: #000000; stroke-width: 0.8"/>
      </g>
     </g>
     <g id="text_9">
      <!-- 200 -->
      <g transform="translate(27.240625 337.847356) scale(0.1 -0.1)">
       <use xlink:href="#DejaVuSans-32"/>
       <use xlink:href="#DejaVuSans-30" x="63.623047"/>
       <use xlink:href="#DejaVuSans-30" x="127.246094"/>
      </g>
     </g>
    </g>
    <g id="ytick_3">
     <g id="line2d_9">
      <g>
       <use xlink:href="#m092c945e5e" x="53.328125" y="282.61815" style="stroke: #000000; stroke-width: 0.8"/>
      </g>
     </g>
     <g id="text_10">
      <!-- 400 -->
      <g transform="translate(27.240625 286.417369) scale(0.1 -0.1)">
       <use xlink:href="#DejaVuSans-34"/>
       <use xlink:href="#DejaVuSans-30" x="63.623047"/>
       <use xlink:href="#DejaVuSans-30" x="127.246094"/>
      </g>
     </g>
    </g>
    <g id="ytick_4">
     <g id="line2d_10">
      <g>
       <use xlink:href="#m092c945e5e" x="53.328125" y="231.188162" style="stroke: #000000; stroke-width: 0.8"/>
      </g>
     </g>
     <g id="text_11">
      <!-- 600 -->
      <g transform="translate(27.240625 234.987381) scale(0.1 -0.1)">
       <use xlink:href="#DejaVuSans-36"/>
       <use xlink:href="#DejaVuSans-30" x="63.623047"/>
       <use xlink:href="#DejaVuSans-30" x="127.246094"/>
      </g>
     </g>
    </g>
    <g id="ytick_5">
     <g id="line2d_11">
      <g>
       <use xlink:href="#m092c945e5e" x="53.328125" y="179.758175" style="stroke: #000000; stroke-width: 0.8"/>
      </g>
     </g>
     <g id="text_12">
      <!-- 800 -->
      <g transform="translate(27.240625 183.557393) scale(0.1 -0.1)">
       <use xlink:href="#DejaVuSans-38"/>
       <use xlink:href="#DejaVuSans-30" x="63.623047"/>
       <use xlink:href="#DejaVuSans-30" x="127.246094"/>
      </g>
     </g>
    </g>
    <g id="ytick_6">
     <g id="line2d_12">
      <g>
       <use xlink:href="#m092c945e5e" x="53.328125" y="128.328187" style="stroke: #000000; stroke-width: 0.8"/>
      </g>
     </g>
     <g id="text_13">
      <!-- 1000 -->
      <g transform="translate(20.878125 132.127406) scale(0.1 -0.1)">
       <use xlink:href="#DejaVuSans-31"/>
       <use xlink:href="#DejaVuSans-30" x="63.623047"/>
       <use xlink:href="#DejaVuSans-30" x="127.246094"/>
       <use xlink:href="#DejaVuSans-30" x="190.869141"/>
      </g>
     </g>
    </g>
    <g id="ytick_7">
     <g id="line2d_13">
      <g>
       <use xlink:href="#m092c945e5e" x="53.328125" y="76.898199" style="stroke: #000000; stroke-width: 0.8"/>
      </g>
     </g>
     <g id="text_14">
      <!-- 1200 -->
      <g transform="translate(20.878125 80.697418) scale(0.1 -0.1)">
       <use xlink:href="#DejaVuSans-31"/>
       <use xlink:href="#DejaVuSans-32" x="63.623047"/>
       <use xlink:href="#DejaVuSans-30" x="127.246094"/>
       <use xlink:href="#DejaVuSans-30" x="190.869141"/>
      </g>
     </g>
    </g>
    <g id="ytick_8">
     <g id="line2d_14">
      <g>
       <use xlink:href="#m092c945e5e" x="53.328125" y="25.468212" style="stroke: #000000; stroke-width: 0.8"/>
      </g>
     </g>
     <g id="text_15">
      <!-- 1400 -->
      <g transform="translate(20.878125 29.26743) scale(0.1 -0.1)">
       <use xlink:href="#DejaVuSans-31"/>
       <use xlink:href="#DejaVuSans-34" x="63.623047"/>
       <use xlink:href="#DejaVuSans-30" x="127.246094"/>
       <use xlink:href="#DejaVuSans-30" x="190.869141"/>
      </g>
     </g>
    </g>
    <g id="text_16">
     <!-- Count -->
     <g transform="translate(14.798438 218.746562) rotate(-90) scale(0.1 -0.1)">
      <defs>
       <path id="DejaVuSans-6f" d="M 1959 3097 
Q 1497 3097 1228 2736 
Q 959 2375 959 1747 
Q 959 1119 1226 758 
Q 1494 397 1959 397 
Q 2419 397 2687 759 
Q 2956 1122 2956 1747 
Q 2956 2369 2687 2733 
Q 2419 3097 1959 3097 
z
M 1959 3584 
Q 2709 3584 3137 3096 
Q 3566 2609 3566 1747 
Q 3566 888 3137 398 
Q 2709 -91 1959 -91 
Q 1206 -91 779 398 
Q 353 888 353 1747 
Q 353 2609 779 3096 
Q 1206 3584 1959 3584 
z
" transform="scale(0.015625)"/>
       <path id="DejaVuSans-75" d="M 544 1381 
L 544 3500 
L 1119 3500 
L 1119 1403 
Q 1119 906 1312 657 
Q 1506 409 1894 409 
Q 2359 409 2629 706 
Q 2900 1003 2900 1516 
L 2900 3500 
L 3475 3500 
L 3475 0 
L 2900 0 
L 2900 538 
Q 2691 219 2414 64 
Q 2138 -91 1772 -91 
Q 1169 -91 856 284 
Q 544 659 544 1381 
z
M 1991 3584 
L 1991 3584 
z
" transform="scale(0.015625)"/>
       <path id="DejaVuSans-6e" d="M 3513 2113 
L 3513 0 
L 2938 0 
L 2938 2094 
Q 2938 2591 2744 2837 
Q 2550 3084 2163 3084 
Q 1697 3084 1428 2787 
Q 1159 2491 1159 1978 
L 1159 0 
L 581 0 
L 581 3500 
L 1159 3500 
L 1159 2956 
Q 1366 3272 1645 3428 
Q 1925 3584 2291 3584 
Q 2894 3584 3203 3211 
Q 3513 2838 3513 2113 
z
" transform="scale(0.015625)"/>
       <path id="DejaVuSans-74" d="M 1172 4494 
L 1172 3500 
L 2356 3500 
L 2356 3053 
L 1172 3053 
L 1172 1153 
Q 1172 725 1289 603 
Q 1406 481 1766 481 
L 2356 481 
L 2356 0 
L 1766 0 
Q 1100 0 847 248 
Q 594 497 594 1153 
L 594 3053 
L 172 3053 
L 172 3500 
L 594 3500 
L 594 4494 
L 1172 4494 
z
" transform="scale(0.015625)"/>
      </defs>
      <use xlink:href="#DejaVuSans-43"/>
      <use xlink:href="#DejaVuSans-6f" x="69.824219"/>
      <use xlink:href="#DejaVuSans-75" x="131.005859"/>
      <use xlink:href="#DejaVuSans-6e" x="194.384766"/>
      <use xlink:href="#DejaVuSans-74" x="257.763672"/>
     </g>
    </g>
   </g>
   <g id="line2d_15">
    <path d="M 106.940447 385.343728 
L 141.553781 385.474666 
L 190.012449 385.259743 
L 200.39645 385.213828 
L 210.78045 385.142103 
L 221.16445 384.997295 
L 231.548451 384.994163 
L 259.239118 384.672976 
L 266.161785 384.870642 
L 273.084452 384.72472 
L 290.391119 383.946315 
L 304.236453 382.930753 
L 318.081787 381.072629 
L 325.004454 380.265009 
L 331.927121 379.163784 
L 335.388454 378.42078 
L 345.772455 375.725681 
L 349.233788 374.605255 
L 352.695122 373.189674 
L 359.617789 370.094168 
L 366.540455 367.58079 
L 370.001789 365.886015 
L 373.463122 363.561654 
L 376.924456 360.956314 
L 380.385789 358.623393 
L 383.847123 356.64461 
L 387.308456 354.424533 
L 390.76979 351.403084 
L 394.231123 347.682484 
L 397.692456 343.599485 
L 401.15379 339.10142 
L 404.615123 333.879377 
L 408.076457 327.818084 
L 411.53779 321.054664 
L 414.999124 313.617813 
L 418.460457 305.22933 
L 421.921791 295.590728 
L 425.383124 284.591065 
L 428.844458 272.169165 
L 432.305791 258.454505 
L 439.228458 230.158456 
L 442.689791 217.107211 
L 446.151125 205.024409 
L 449.612458 194.02767 
L 453.073792 184.894652 
L 456.535125 178.956839 
L 459.996459 177.298835 
L 463.457792 179.99106 
L 466.919126 186.003816 
L 470.380459 193.964693 
L 473.841792 203.251733 
L 477.303126 214.404325 
L 480.764459 228.109611 
L 484.225793 243.824745 
L 491.14846 276.08086 
L 494.609793 291.526334 
L 498.071127 306.182303 
L 501.53246 319.501368 
L 504.993794 331.095343 
L 508.455127 341.038587 
L 511.91646 349.714688 
L 515.377794 357.400731 
L 518.839127 363.996992 
L 522.300461 369.17618 
L 525.761794 372.828907 
L 529.223128 375.273714 
L 532.684461 377.014838 
L 539.607128 379.780173 
L 543.068461 381.048248 
L 546.529795 382.173325 
L 549.991128 383.056659 
L 553.452462 383.672744 
L 560.375129 384.397586 
L 567.297796 384.915239 
L 574.220463 385.184815 
L 584.604463 385.230004 
L 598.449797 385.042515 
L 612.295131 385.343677 
L 633.063131 385.343582 
L 646.908465 385.444368 
L 664.215132 385.271553 
L 674.599133 385.416933 
L 712.673801 385.454275 
L 733.441801 385.44855 
L 747.287135 385.441508 
L 771.516469 385.478114 
L 795.745803 385.410926 
L 795.745803 385.410926 
" clip-path="url(#p5d0588942f)" style="fill: none; stroke: #1f77b4; stroke-width: 1.5; stroke-linecap: square"/>
   </g>
   <g id="line2d_16">
    <path d="M 89.511307 385.478124 
L 427.705871 385.373006 
L 474.980379 385.305784 
L 558.619895 385.476938 
L 813.174943 385.478124 
L 813.174943 385.478124 
" clip-path="url(#p5d0588942f)" style="fill: none; stroke: #1f77b4; stroke-width: 1.5; stroke-linecap: square"/>
   </g>
   <g id="patch_184">
    <path d="M 53.328125 385.478125 
L 53.328125 22.318125 
" style="fill: none; stroke: #000000; stroke-width: 0.8; stroke-linejoin: miter; stroke-linecap: square"/>
   </g>
   <g id="patch_185">
    <path d="M 849.358125 385.478125 
L 849.358125 22.318125 
" style="fill: none; stroke: #000000; stroke-width: 0.8; stroke-linejoin: miter; stroke-linecap: square"/>
   </g>
   <g id="patch_186">
    <path d="M 53.328125 385.478125 
L 849.358125 385.478125 
" style="fill: none; stroke: #000000; stroke-width: 0.8; stroke-linejoin: miter; stroke-linecap: square"/>
   </g>
   <g id="patch_187">
    <path d="M 53.328125 22.318125 
L 849.358125 22.318125 
" style="fill: none; stroke: #000000; stroke-width: 0.8; stroke-linejoin: miter; stroke-linecap: square"/>
   </g>
   <g id="text_17">
    <!-- Distribution of Ca -->
    <g transform="translate(398.876875 16.318125) scale(0.12 -0.12)">
     <defs>
      <path id="DejaVuSans-44" d="M 1259 4147 
L 1259 519 
L 2022 519 
Q 2988 519 3436 956 
Q 3884 1394 3884 2338 
Q 3884 3275 3436 3711 
Q 2988 4147 2022 4147 
L 1259 4147 
z
M 628 4666 
L 1925 4666 
Q 3281 4666 3915 4102 
Q 4550 3538 4550 2338 
Q 4550 1131 3912 565 
Q 3275 0 1925 0 
L 628 0 
L 628 4666 
z
" transform="scale(0.015625)"/>
      <path id="DejaVuSans-69" d="M 603 3500 
L 1178 3500 
L 1178 0 
L 603 0 
L 603 3500 
z
M 603 4863 
L 1178 4863 
L 1178 4134 
L 603 4134 
L 603 4863 
z
" transform="scale(0.015625)"/>
      <path id="DejaVuSans-73" d="M 2834 3397 
L 2834 2853 
Q 2591 2978 2328 3040 
Q 2066 3103 1784 3103 
Q 1356 3103 1142 2972 
Q 928 2841 928 2578 
Q 928 2378 1081 2264 
Q 1234 2150 1697 2047 
L 1894 2003 
Q 2506 1872 2764 1633 
Q 3022 1394 3022 966 
Q 3022 478 2636 193 
Q 2250 -91 1575 -91 
Q 1294 -91 989 -36 
Q 684 19 347 128 
L 347 722 
Q 666 556 975 473 
Q 1284 391 1588 391 
Q 1994 391 2212 530 
Q 2431 669 2431 922 
Q 2431 1156 2273 1281 
Q 2116 1406 1581 1522 
L 1381 1569 
Q 847 1681 609 1914 
Q 372 2147 372 2553 
Q 372 3047 722 3315 
Q 1072 3584 1716 3584 
Q 2034 3584 2315 3537 
Q 2597 3491 2834 3397 
z
" transform="scale(0.015625)"/>
      <path id="DejaVuSans-72" d="M 2631 2963 
Q 2534 3019 2420 3045 
Q 2306 3072 2169 3072 
Q 1681 3072 1420 2755 
Q 1159 2438 1159 1844 
L 1159 0 
L 581 0 
L 581 3500 
L 1159 3500 
L 1159 2956 
Q 1341 3275 1631 3429 
Q 1922 3584 2338 3584 
Q 2397 3584 2469 3576 
Q 2541 3569 2628 3553 
L 2631 2963 
z
" transform="scale(0.015625)"/>
      <path id="DejaVuSans-62" d="M 3116 1747 
Q 3116 2381 2855 2742 
Q 2594 3103 2138 3103 
Q 1681 3103 1420 2742 
Q 1159 2381 1159 1747 
Q 1159 1113 1420 752 
Q 1681 391 2138 391 
Q 2594 391 2855 752 
Q 3116 1113 3116 1747 
z
M 1159 2969 
Q 1341 3281 1617 3432 
Q 1894 3584 2278 3584 
Q 2916 3584 3314 3078 
Q 3713 2572 3713 1747 
Q 3713 922 3314 415 
Q 2916 -91 2278 -91 
Q 1894 -91 1617 61 
Q 1341 213 1159 525 
L 1159 0 
L 581 0 
L 581 4863 
L 1159 4863 
L 1159 2969 
z
" transform="scale(0.015625)"/>
      <path id="DejaVuSans-20" transform="scale(0.015625)"/>
      <path id="DejaVuSans-66" d="M 2375 4863 
L 2375 4384 
L 1825 4384 
Q 1516 4384 1395 4259 
Q 1275 4134 1275 3809 
L 1275 3500 
L 2222 3500 
L 2222 3053 
L 1275 3053 
L 1275 0 
L 697 0 
L 697 3053 
L 147 3053 
L 147 3500 
L 697 3500 
L 697 3744 
Q 697 4328 969 4595 
Q 1241 4863 1831 4863 
L 2375 4863 
z
" transform="scale(0.015625)"/>
     </defs>
     <use xlink:href="#DejaVuSans-44"/>
     <use xlink:href="#DejaVuSans-69" x="77.001953"/>
     <use xlink:href="#DejaVuSans-73" x="104.785156"/>
     <use xlink:href="#DejaVuSans-74" x="156.884766"/>
     <use xlink:href="#DejaVuSans-72" x="196.09375"/>
     <use xlink:href="#DejaVuSans-69" x="237.207031"/>
     <use xlink:href="#DejaVuSans-62" x="264.990234"/>
     <use xlink:href="#DejaVuSans-75" x="328.466797"/>
     <use xlink:href="#DejaVuSans-74" x="391.845703"/>
     <use xlink:href="#DejaVuSans-69" x="431.054688"/>
     <use xlink:href="#DejaVuSans-6f" x="458.837891"/>
     <use xlink:href="#DejaVuSans-6e" x="520.019531"/>
     <use xlink:href="#DejaVuSans-20" x="583.398438"/>
     <use xlink:href="#DejaVuSans-6f" x="615.185547"/>
     <use xlink:href="#DejaVuSans-66" x="676.367188"/>
     <use xlink:href="#DejaVuSans-20" x="711.572266"/>
     <use xlink:href="#DejaVuSans-43" x="743.359375"/>
     <use xlink:href="#DejaVuSans-61" x="813.183594"/>
    </g>
   </g>
  </g>
 </g>
 <defs>
  <clipPath id="p5d0588942f">
   <rect x="53.328125" y="22.318125" width="796.03" height="363.16"/>
  </clipPath>
 </defs>
</svg>
