<?xml version="1.0" encoding="utf-8" standalone="no"?>
<!DOCTYPE svg PUBLIC "-//W3C//DTD SVG 1.1//EN"
  "http://www.w3.org/Graphics/SVG/1.1/DTD/svg11.dtd">
<svg xmlns:xlink="http://www.w3.org/1999/xlink" width="424.558125pt" height="279.674688pt" viewBox="0 0 424.558125 279.674688" xmlns="http://www.w3.org/2000/svg" version="1.1">
 <metadata>
  <rdf:RDF xmlns:dc="http://purl.org/dc/elements/1.1/" xmlns:cc="http://creativecommons.org/ns#" xmlns:rdf="http://www.w3.org/1999/02/22-rdf-syntax-ns#">
   <cc:Work>
    <dc:type rdf:resource="http://purl.org/dc/dcmitype/StillImage"/>
    <dc:date>2024-08-08T20:37:33.584660</dc:date>
    <dc:format>image/svg+xml</dc:format>
    <dc:creator>
     <cc:Agent>
      <dc:title>Matplotlib v3.9.0, https://matplotlib.org/</dc:title>
     </cc:Agent>
    </dc:creator>
   </cc:Work>
  </rdf:RDF>
 </metadata>
 <defs>
  <style type="text/css">*{stroke-linejoin: round; stroke-linecap: butt}</style>
 </defs>
 <g id="figure_1">
  <g id="patch_1">
   <path d="M 0 279.674688 
L 424.558125 279.674688 
L 424.558125 0 
L 0 0 
z
" style="fill: #ffffff"/>
  </g>
  <g id="axes_1">
   <g id="patch_2">
    <path d="M 53.328125 242.118437 
L 417.358125 242.118437 
L 417.358125 20.798437 
L 53.328125 20.798437 
z
" style="fill: #ffffff"/>
   </g>
   <g id="patch_3">
    <path d="M 69.874943 242.118437 
L 71.703321 242.118437 
L 71.703321 241.805009 
L 69.874943 241.805009 
z
" clip-path="url(#p3bf94da828)" style="fill: #808080; stroke: #000000; stroke-width: 0.168157; stroke-linejoin: miter"/>
   </g>
   <g id="patch_4">
    <path d="M 71.703321 242.118437 
L 73.531699 242.118437 
L 73.531699 242.118437 
L 71.703321 242.118437 
z
" clip-path="url(#p3bf94da828)" style="fill: #808080; stroke: #000000; stroke-width: 0.168157; stroke-linejoin: miter"/>
   </g>
   <g id="patch_5">
    <path d="M 73.531699 242.118437 
L 75.360076 242.118437 
L 75.360076 242.118437 
L 73.531699 242.118437 
z
" clip-path="url(#p3bf94da828)" style="fill: #808080; stroke: #000000; stroke-width: 0.168157; stroke-linejoin: miter"/>
   </g>
   <g id="patch_6">
    <path d="M 75.360076 242.118437 
L 77.188454 242.118437 
L 77.188454 242.118437 
L 75.360076 242.118437 
z
" clip-path="url(#p3bf94da828)" style="fill: #808080; stroke: #000000; stroke-width: 0.168157; stroke-linejoin: miter"/>
   </g>
   <g id="patch_7">
    <path d="M 77.188454 242.118437 
L 79.016832 242.118437 
L 79.016832 242.118437 
L 77.188454 242.118437 
z
" clip-path="url(#p3bf94da828)" style="fill: #808080; stroke: #000000; stroke-width: 0.168157; stroke-linejoin: miter"/>
   </g>
   <g id="patch_8">
    <path d="M 79.016832 242.118437 
L 80.845209 242.118437 
L 80.845209 242.118437 
L 79.016832 242.118437 
z
" clip-path="url(#p3bf94da828)" style="fill: #808080; stroke: #000000; stroke-width: 0.168157; stroke-linejoin: miter"/>
   </g>
   <g id="patch_9">
    <path d="M 80.845209 242.118437 
L 82.673587 242.118437 
L 82.673587 242.118437 
L 80.845209 242.118437 
z
" clip-path="url(#p3bf94da828)" style="fill: #808080; stroke: #000000; stroke-width: 0.168157; stroke-linejoin: miter"/>
   </g>
   <g id="patch_10">
    <path d="M 82.673587 242.118437 
L 84.501965 242.118437 
L 84.501965 242.118437 
L 82.673587 242.118437 
z
" clip-path="url(#p3bf94da828)" style="fill: #808080; stroke: #000000; stroke-width: 0.168157; stroke-linejoin: miter"/>
   </g>
   <g id="patch_11">
    <path d="M 84.501965 242.118437 
L 86.330342 242.118437 
L 86.330342 242.118437 
L 84.501965 242.118437 
z
" clip-path="url(#p3bf94da828)" style="fill: #808080; stroke: #000000; stroke-width: 0.168157; stroke-linejoin: miter"/>
   </g>
   <g id="patch_12">
    <path d="M 86.330342 242.118437 
L 88.15872 242.118437 
L 88.15872 242.118437 
L 86.330342 242.118437 
z
" clip-path="url(#p3bf94da828)" style="fill: #808080; stroke: #000000; stroke-width: 0.168157; stroke-linejoin: miter"/>
   </g>
   <g id="patch_13">
    <path d="M 88.15872 242.118437 
L 89.987098 242.118437 
L 89.987098 242.118437 
L 88.15872 242.118437 
z
" clip-path="url(#p3bf94da828)" style="fill: #808080; stroke: #000000; stroke-width: 0.168157; stroke-linejoin: miter"/>
   </g>
   <g id="patch_14">
    <path d="M 89.987098 242.118437 
L 91.815476 242.118437 
L 91.815476 242.118437 
L 89.987098 242.118437 
z
" clip-path="url(#p3bf94da828)" style="fill: #808080; stroke: #000000; stroke-width: 0.168157; stroke-linejoin: miter"/>
   </g>
   <g id="patch_15">
    <path d="M 91.815476 242.118437 
L 93.643853 242.118437 
L 93.643853 241.961723 
L 91.815476 241.961723 
z
" clip-path="url(#p3bf94da828)" style="fill: #808080; stroke: #000000; stroke-width: 0.168157; stroke-linejoin: miter"/>
   </g>
   <g id="patch_16">
    <path d="M 93.643853 242.118437 
L 95.472231 242.118437 
L 95.472231 242.118437 
L 93.643853 242.118437 
z
" clip-path="url(#p3bf94da828)" style="fill: #808080; stroke: #000000; stroke-width: 0.168157; stroke-linejoin: miter"/>
   </g>
   <g id="patch_17">
    <path d="M 95.472231 242.118437 
L 97.300609 242.118437 
L 97.300609 242.118437 
L 95.472231 242.118437 
z
" clip-path="url(#p3bf94da828)" style="fill: #808080; stroke: #000000; stroke-width: 0.168157; stroke-linejoin: miter"/>
   </g>
   <g id="patch_18">
    <path d="M 97.300609 242.118437 
L 99.128986 242.118437 
L 99.128986 242.118437 
L 97.300609 242.118437 
z
" clip-path="url(#p3bf94da828)" style="fill: #808080; stroke: #000000; stroke-width: 0.168157; stroke-linejoin: miter"/>
   </g>
   <g id="patch_19">
    <path d="M 99.128986 242.118437 
L 100.957364 242.118437 
L 100.957364 242.118437 
L 99.128986 242.118437 
z
" clip-path="url(#p3bf94da828)" style="fill: #808080; stroke: #000000; stroke-width: 0.168157; stroke-linejoin: miter"/>
   </g>
   <g id="patch_20">
    <path d="M 100.957364 242.118437 
L 102.785742 242.118437 
L 102.785742 241.961723 
L 100.957364 241.961723 
z
" clip-path="url(#p3bf94da828)" style="fill: #808080; stroke: #000000; stroke-width: 0.168157; stroke-linejoin: miter"/>
   </g>
   <g id="patch_21">
    <path d="M 102.785742 242.118437 
L 104.614119 242.118437 
L 104.614119 242.118437 
L 102.785742 242.118437 
z
" clip-path="url(#p3bf94da828)" style="fill: #808080; stroke: #000000; stroke-width: 0.168157; stroke-linejoin: miter"/>
   </g>
   <g id="patch_22">
    <path d="M 104.614119 242.118437 
L 106.442497 242.118437 
L 106.442497 242.118437 
L 104.614119 242.118437 
z
" clip-path="url(#p3bf94da828)" style="fill: #808080; stroke: #000000; stroke-width: 0.168157; stroke-linejoin: miter"/>
   </g>
   <g id="patch_23">
    <path d="M 106.442497 242.118437 
L 108.270875 242.118437 
L 108.270875 242.118437 
L 106.442497 242.118437 
z
" clip-path="url(#p3bf94da828)" style="fill: #808080; stroke: #000000; stroke-width: 0.168157; stroke-linejoin: miter"/>
   </g>
   <g id="patch_24">
    <path d="M 108.270875 242.118437 
L 110.099253 242.118437 
L 110.099253 242.118437 
L 108.270875 242.118437 
z
" clip-path="url(#p3bf94da828)" style="fill: #808080; stroke: #000000; stroke-width: 0.168157; stroke-linejoin: miter"/>
   </g>
   <g id="patch_25">
    <path d="M 110.099253 242.118437 
L 111.92763 242.118437 
L 111.92763 241.648294 
L 110.099253 241.648294 
z
" clip-path="url(#p3bf94da828)" style="fill: #808080; stroke: #000000; stroke-width: 0.168157; stroke-linejoin: miter"/>
   </g>
   <g id="patch_26">
    <path d="M 111.92763 242.118437 
L 113.756008 242.118437 
L 113.756008 242.118437 
L 111.92763 242.118437 
z
" clip-path="url(#p3bf94da828)" style="fill: #808080; stroke: #000000; stroke-width: 0.168157; stroke-linejoin: miter"/>
   </g>
   <g id="patch_27">
    <path d="M 113.756008 242.118437 
L 115.584386 242.118437 
L 115.584386 241.961723 
L 113.756008 241.961723 
z
" clip-path="url(#p3bf94da828)" style="fill: #808080; stroke: #000000; stroke-width: 0.168157; stroke-linejoin: miter"/>
   </g>
   <g id="patch_28">
    <path d="M 115.584386 242.118437 
L 117.412763 242.118437 
L 117.412763 241.805009 
L 115.584386 241.805009 
z
" clip-path="url(#p3bf94da828)" style="fill: #808080; stroke: #000000; stroke-width: 0.168157; stroke-linejoin: miter"/>
   </g>
   <g id="patch_29">
    <path d="M 117.412763 242.118437 
L 119.241141 242.118437 
L 119.241141 242.118437 
L 117.412763 242.118437 
z
" clip-path="url(#p3bf94da828)" style="fill: #808080; stroke: #000000; stroke-width: 0.168157; stroke-linejoin: miter"/>
   </g>
   <g id="patch_30">
    <path d="M 119.241141 242.118437 
L 121.069519 242.118437 
L 121.069519 241.961723 
L 119.241141 241.961723 
z
" clip-path="url(#p3bf94da828)" style="fill: #808080; stroke: #000000; stroke-width: 0.168157; stroke-linejoin: miter"/>
   </g>
   <g id="patch_31">
    <path d="M 121.069519 242.118437 
L 122.897896 242.118437 
L 122.897896 241.49158 
L 121.069519 241.49158 
z
" clip-path="url(#p3bf94da828)" style="fill: #808080; stroke: #000000; stroke-width: 0.168157; stroke-linejoin: miter"/>
   </g>
   <g id="patch_32">
    <path d="M 122.897896 242.118437 
L 124.726274 242.118437 
L 124.726274 242.118437 
L 122.897896 242.118437 
z
" clip-path="url(#p3bf94da828)" style="fill: #808080; stroke: #000000; stroke-width: 0.168157; stroke-linejoin: miter"/>
   </g>
   <g id="patch_33">
    <path d="M 124.726274 242.118437 
L 126.554652 242.118437 
L 126.554652 241.648294 
L 124.726274 241.648294 
z
" clip-path="url(#p3bf94da828)" style="fill: #808080; stroke: #000000; stroke-width: 0.168157; stroke-linejoin: miter"/>
   </g>
   <g id="patch_34">
    <path d="M 126.554652 242.118437 
L 128.38303 242.118437 
L 128.38303 242.118437 
L 126.554652 242.118437 
z
" clip-path="url(#p3bf94da828)" style="fill: #808080; stroke: #000000; stroke-width: 0.168157; stroke-linejoin: miter"/>
   </g>
   <g id="patch_35">
    <path d="M 128.38303 242.118437 
L 130.211407 242.118437 
L 130.211407 241.805009 
L 128.38303 241.805009 
z
" clip-path="url(#p3bf94da828)" style="fill: #808080; stroke: #000000; stroke-width: 0.168157; stroke-linejoin: miter"/>
   </g>
   <g id="patch_36">
    <path d="M 130.211407 242.118437 
L 132.039785 242.118437 
L 132.039785 241.49158 
L 130.211407 241.49158 
z
" clip-path="url(#p3bf94da828)" style="fill: #808080; stroke: #000000; stroke-width: 0.168157; stroke-linejoin: miter"/>
   </g>
   <g id="patch_37">
    <path d="M 132.039785 242.118437 
L 133.868163 242.118437 
L 133.868163 242.118437 
L 132.039785 242.118437 
z
" clip-path="url(#p3bf94da828)" style="fill: #808080; stroke: #000000; stroke-width: 0.168157; stroke-linejoin: miter"/>
   </g>
   <g id="patch_38">
    <path d="M 133.868163 242.118437 
L 135.69654 242.118437 
L 135.69654 241.648294 
L 133.868163 241.648294 
z
" clip-path="url(#p3bf94da828)" style="fill: #808080; stroke: #000000; stroke-width: 0.168157; stroke-linejoin: miter"/>
   </g>
   <g id="patch_39">
    <path d="M 135.69654 242.118437 
L 137.524918 242.118437 
L 137.524918 241.334865 
L 135.69654 241.334865 
z
" clip-path="url(#p3bf94da828)" style="fill: #808080; stroke: #000000; stroke-width: 0.168157; stroke-linejoin: miter"/>
   </g>
   <g id="patch_40">
    <path d="M 137.524918 242.118437 
L 139.353296 242.118437 
L 139.353296 242.118437 
L 137.524918 242.118437 
z
" clip-path="url(#p3bf94da828)" style="fill: #808080; stroke: #000000; stroke-width: 0.168157; stroke-linejoin: miter"/>
   </g>
   <g id="patch_41">
    <path d="M 139.353296 242.118437 
L 141.181673 242.118437 
L 141.181673 241.49158 
L 139.353296 241.49158 
z
" clip-path="url(#p3bf94da828)" style="fill: #808080; stroke: #000000; stroke-width: 0.168157; stroke-linejoin: miter"/>
   </g>
   <g id="patch_42">
    <path d="M 141.181673 242.118437 
L 143.010051 242.118437 
L 143.010051 242.118437 
L 141.181673 242.118437 
z
" clip-path="url(#p3bf94da828)" style="fill: #808080; stroke: #000000; stroke-width: 0.168157; stroke-linejoin: miter"/>
   </g>
   <g id="patch_43">
    <path d="M 143.010051 242.118437 
L 144.838429 242.118437 
L 144.838429 240.864722 
L 143.010051 240.864722 
z
" clip-path="url(#p3bf94da828)" style="fill: #808080; stroke: #000000; stroke-width: 0.168157; stroke-linejoin: miter"/>
   </g>
   <g id="patch_44">
    <path d="M 144.838429 242.118437 
L 146.666807 242.118437 
L 146.666807 241.961723 
L 144.838429 241.961723 
z
" clip-path="url(#p3bf94da828)" style="fill: #808080; stroke: #000000; stroke-width: 0.168157; stroke-linejoin: miter"/>
   </g>
   <g id="patch_45">
    <path d="M 146.666807 242.118437 
L 148.495184 242.118437 
L 148.495184 242.118437 
L 146.666807 242.118437 
z
" clip-path="url(#p3bf94da828)" style="fill: #808080; stroke: #000000; stroke-width: 0.168157; stroke-linejoin: miter"/>
   </g>
   <g id="patch_46">
    <path d="M 148.495184 242.118437 
L 150.323562 242.118437 
L 150.323562 241.49158 
L 148.495184 241.49158 
z
" clip-path="url(#p3bf94da828)" style="fill: #808080; stroke: #000000; stroke-width: 0.168157; stroke-linejoin: miter"/>
   </g>
   <g id="patch_47">
    <path d="M 150.323562 242.118437 
L 152.15194 242.118437 
L 152.15194 241.021436 
L 150.323562 241.021436 
z
" clip-path="url(#p3bf94da828)" style="fill: #808080; stroke: #000000; stroke-width: 0.168157; stroke-linejoin: miter"/>
   </g>
   <g id="patch_48">
    <path d="M 152.15194 242.118437 
L 153.980317 242.118437 
L 153.980317 242.118437 
L 152.15194 242.118437 
z
" clip-path="url(#p3bf94da828)" style="fill: #808080; stroke: #000000; stroke-width: 0.168157; stroke-linejoin: miter"/>
   </g>
   <g id="patch_49">
    <path d="M 153.980317 242.118437 
L 155.808695 242.118437 
L 155.808695 241.178151 
L 153.980317 241.178151 
z
" clip-path="url(#p3bf94da828)" style="fill: #808080; stroke: #000000; stroke-width: 0.168157; stroke-linejoin: miter"/>
   </g>
   <g id="patch_50">
    <path d="M 155.808695 242.118437 
L 157.637073 242.118437 
L 157.637073 242.118437 
L 155.808695 242.118437 
z
" clip-path="url(#p3bf94da828)" style="fill: #808080; stroke: #000000; stroke-width: 0.168157; stroke-linejoin: miter"/>
   </g>
   <g id="patch_51">
    <path d="M 157.637073 242.118437 
L 159.46545 242.118437 
L 159.46545 240.708007 
L 157.637073 240.708007 
z
" clip-path="url(#p3bf94da828)" style="fill: #808080; stroke: #000000; stroke-width: 0.168157; stroke-linejoin: miter"/>
   </g>
   <g id="patch_52">
    <path d="M 159.46545 242.118437 
L 161.293828 242.118437 
L 161.293828 240.081149 
L 159.46545 240.081149 
z
" clip-path="url(#p3bf94da828)" style="fill: #808080; stroke: #000000; stroke-width: 0.168157; stroke-linejoin: miter"/>
   </g>
   <g id="patch_53">
    <path d="M 161.293828 242.118437 
L 163.122206 242.118437 
L 163.122206 242.118437 
L 161.293828 242.118437 
z
" clip-path="url(#p3bf94da828)" style="fill: #808080; stroke: #000000; stroke-width: 0.168157; stroke-linejoin: miter"/>
   </g>
   <g id="patch_54">
    <path d="M 163.122206 242.118437 
L 164.950584 242.118437 
L 164.950584 240.237864 
L 163.122206 240.237864 
z
" clip-path="url(#p3bf94da828)" style="fill: #808080; stroke: #000000; stroke-width: 0.168157; stroke-linejoin: miter"/>
   </g>
   <g id="patch_55">
    <path d="M 164.950584 242.118437 
L 166.778961 242.118437 
L 166.778961 239.297577 
L 164.950584 239.297577 
z
" clip-path="url(#p3bf94da828)" style="fill: #808080; stroke: #000000; stroke-width: 0.168157; stroke-linejoin: miter"/>
   </g>
   <g id="patch_56">
    <path d="M 166.778961 242.118437 
L 168.607339 242.118437 
L 168.607339 242.118437 
L 166.778961 242.118437 
z
" clip-path="url(#p3bf94da828)" style="fill: #808080; stroke: #000000; stroke-width: 0.168157; stroke-linejoin: miter"/>
   </g>
   <g id="patch_57">
    <path d="M 168.607339 242.118437 
L 170.435717 242.118437 
L 170.435717 237.573718 
L 168.607339 237.573718 
z
" clip-path="url(#p3bf94da828)" style="fill: #808080; stroke: #000000; stroke-width: 0.168157; stroke-linejoin: miter"/>
   </g>
   <g id="patch_58">
    <path d="M 170.435717 242.118437 
L 172.264094 242.118437 
L 172.264094 242.118437 
L 170.435717 242.118437 
z
" clip-path="url(#p3bf94da828)" style="fill: #808080; stroke: #000000; stroke-width: 0.168157; stroke-linejoin: miter"/>
   </g>
   <g id="patch_59">
    <path d="M 172.264094 242.118437 
L 174.092472 242.118437 
L 174.092472 238.200576 
L 172.264094 238.200576 
z
" clip-path="url(#p3bf94da828)" style="fill: #808080; stroke: #000000; stroke-width: 0.168157; stroke-linejoin: miter"/>
   </g>
   <g id="patch_60">
    <path d="M 174.092472 242.118437 
L 175.92085 242.118437 
L 175.92085 236.476717 
L 174.092472 236.476717 
z
" clip-path="url(#p3bf94da828)" style="fill: #808080; stroke: #000000; stroke-width: 0.168157; stroke-linejoin: miter"/>
   </g>
   <g id="patch_61">
    <path d="M 175.92085 242.118437 
L 177.749227 242.118437 
L 177.749227 242.118437 
L 175.92085 242.118437 
z
" clip-path="url(#p3bf94da828)" style="fill: #808080; stroke: #000000; stroke-width: 0.168157; stroke-linejoin: miter"/>
   </g>
   <g id="patch_62">
    <path d="M 177.749227 242.118437 
L 179.577605 242.118437 
L 179.577605 236.476717 
L 177.749227 236.476717 
z
" clip-path="url(#p3bf94da828)" style="fill: #808080; stroke: #000000; stroke-width: 0.168157; stroke-linejoin: miter"/>
   </g>
   <g id="patch_63">
    <path d="M 179.577605 242.118437 
L 181.405983 242.118437 
L 181.405983 234.282714 
L 179.577605 234.282714 
z
" clip-path="url(#p3bf94da828)" style="fill: #808080; stroke: #000000; stroke-width: 0.168157; stroke-linejoin: miter"/>
   </g>
   <g id="patch_64">
    <path d="M 181.405983 242.118437 
L 183.234361 242.118437 
L 183.234361 242.118437 
L 181.405983 242.118437 
z
" clip-path="url(#p3bf94da828)" style="fill: #808080; stroke: #000000; stroke-width: 0.168157; stroke-linejoin: miter"/>
   </g>
   <g id="patch_65">
    <path d="M 183.234361 242.118437 
L 185.062738 242.118437 
L 185.062738 232.872284 
L 183.234361 232.872284 
z
" clip-path="url(#p3bf94da828)" style="fill: #808080; stroke: #000000; stroke-width: 0.168157; stroke-linejoin: miter"/>
   </g>
   <g id="patch_66">
    <path d="M 185.062738 242.118437 
L 186.891116 242.118437 
L 186.891116 242.118437 
L 185.062738 242.118437 
z
" clip-path="url(#p3bf94da828)" style="fill: #808080; stroke: #000000; stroke-width: 0.168157; stroke-linejoin: miter"/>
   </g>
   <g id="patch_67">
    <path d="M 186.891116 242.118437 
L 188.719494 242.118437 
L 188.719494 231.931997 
L 186.891116 231.931997 
z
" clip-path="url(#p3bf94da828)" style="fill: #808080; stroke: #000000; stroke-width: 0.168157; stroke-linejoin: miter"/>
   </g>
   <g id="patch_68">
    <path d="M 188.719494 242.118437 
L 190.547871 242.118437 
L 190.547871 227.700707 
L 188.719494 227.700707 
z
" clip-path="url(#p3bf94da828)" style="fill: #808080; stroke: #000000; stroke-width: 0.168157; stroke-linejoin: miter"/>
   </g>
   <g id="patch_69">
    <path d="M 190.547871 242.118437 
L 192.376249 242.118437 
L 192.376249 242.118437 
L 190.547871 242.118437 
z
" clip-path="url(#p3bf94da828)" style="fill: #808080; stroke: #000000; stroke-width: 0.168157; stroke-linejoin: miter"/>
   </g>
   <g id="patch_70">
    <path d="M 192.376249 242.118437 
L 194.204627 242.118437 
L 194.204627 225.193276 
L 192.376249 225.193276 
z
" clip-path="url(#p3bf94da828)" style="fill: #808080; stroke: #000000; stroke-width: 0.168157; stroke-linejoin: miter"/>
   </g>
   <g id="patch_71">
    <path d="M 194.204627 242.118437 
L 196.033004 242.118437 
L 196.033004 225.506704 
L 194.204627 225.506704 
z
" clip-path="url(#p3bf94da828)" style="fill: #808080; stroke: #000000; stroke-width: 0.168157; stroke-linejoin: miter"/>
   </g>
   <g id="patch_72">
    <path d="M 196.033004 242.118437 
L 197.861382 242.118437 
L 197.861382 242.118437 
L 196.033004 242.118437 
z
" clip-path="url(#p3bf94da828)" style="fill: #808080; stroke: #000000; stroke-width: 0.168157; stroke-linejoin: miter"/>
   </g>
   <g id="patch_73">
    <path d="M 197.861382 242.118437 
L 199.68976 242.118437 
L 199.68976 219.551555 
L 197.861382 219.551555 
z
" clip-path="url(#p3bf94da828)" style="fill: #808080; stroke: #000000; stroke-width: 0.168157; stroke-linejoin: miter"/>
   </g>
   <g id="patch_74">
    <path d="M 199.68976 242.118437 
L 201.518138 242.118437 
L 201.518138 242.118437 
L 199.68976 242.118437 
z
" clip-path="url(#p3bf94da828)" style="fill: #808080; stroke: #000000; stroke-width: 0.168157; stroke-linejoin: miter"/>
   </g>
   <g id="patch_75">
    <path d="M 201.518138 242.118437 
L 203.346515 242.118437 
L 203.346515 213.126262 
L 201.518138 213.126262 
z
" clip-path="url(#p3bf94da828)" style="fill: #808080; stroke: #000000; stroke-width: 0.168157; stroke-linejoin: miter"/>
   </g>
   <g id="patch_76">
    <path d="M 203.346515 242.118437 
L 205.174893 242.118437 
L 205.174893 215.320264 
L 203.346515 215.320264 
z
" clip-path="url(#p3bf94da828)" style="fill: #808080; stroke: #000000; stroke-width: 0.168157; stroke-linejoin: miter"/>
   </g>
   <g id="patch_77">
    <path d="M 205.174893 242.118437 
L 207.003271 242.118437 
L 207.003271 242.118437 
L 205.174893 242.118437 
z
" clip-path="url(#p3bf94da828)" style="fill: #808080; stroke: #000000; stroke-width: 0.168157; stroke-linejoin: miter"/>
   </g>
   <g id="patch_78">
    <path d="M 207.003271 242.118437 
L 208.831648 242.118437 
L 208.831648 205.133824 
L 207.003271 205.133824 
z
" clip-path="url(#p3bf94da828)" style="fill: #808080; stroke: #000000; stroke-width: 0.168157; stroke-linejoin: miter"/>
   </g>
   <g id="patch_79">
    <path d="M 208.831648 242.118437 
L 210.660026 242.118437 
L 210.660026 200.118961 
L 208.831648 200.118961 
z
" clip-path="url(#p3bf94da828)" style="fill: #808080; stroke: #000000; stroke-width: 0.168157; stroke-linejoin: miter"/>
   </g>
   <g id="patch_80">
    <path d="M 210.660026 242.118437 
L 212.488404 242.118437 
L 212.488404 242.118437 
L 210.660026 242.118437 
z
" clip-path="url(#p3bf94da828)" style="fill: #808080; stroke: #000000; stroke-width: 0.168157; stroke-linejoin: miter"/>
   </g>
   <g id="patch_81">
    <path d="M 212.488404 242.118437 
L 214.316781 242.118437 
L 214.316781 191.813095 
L 212.488404 191.813095 
z
" clip-path="url(#p3bf94da828)" style="fill: #808080; stroke: #000000; stroke-width: 0.168157; stroke-linejoin: miter"/>
   </g>
   <g id="patch_82">
    <path d="M 214.316781 242.118437 
L 216.145159 242.118437 
L 216.145159 242.118437 
L 214.316781 242.118437 
z
" clip-path="url(#p3bf94da828)" style="fill: #808080; stroke: #000000; stroke-width: 0.168157; stroke-linejoin: miter"/>
   </g>
   <g id="patch_83">
    <path d="M 216.145159 242.118437 
L 217.973537 242.118437 
L 217.973537 178.64908 
L 216.145159 178.64908 
z
" clip-path="url(#p3bf94da828)" style="fill: #808080; stroke: #000000; stroke-width: 0.168157; stroke-linejoin: miter"/>
   </g>
   <g id="patch_84">
    <path d="M 217.973537 242.118437 
L 219.801915 242.118437 
L 219.801915 168.149211 
L 217.973537 168.149211 
z
" clip-path="url(#p3bf94da828)" style="fill: #808080; stroke: #000000; stroke-width: 0.168157; stroke-linejoin: miter"/>
   </g>
   <g id="patch_85">
    <path d="M 219.801915 242.118437 
L 221.630292 242.118437 
L 221.630292 242.118437 
L 219.801915 242.118437 
z
" clip-path="url(#p3bf94da828)" style="fill: #808080; stroke: #000000; stroke-width: 0.168157; stroke-linejoin: miter"/>
   </g>
   <g id="patch_86">
    <path d="M 221.630292 242.118437 
L 223.45867 242.118437 
L 223.45867 149.343476 
L 221.630292 149.343476 
z
" clip-path="url(#p3bf94da828)" style="fill: #808080; stroke: #000000; stroke-width: 0.168157; stroke-linejoin: miter"/>
   </g>
   <g id="patch_87">
    <path d="M 223.45867 242.118437 
L 225.287048 242.118437 
L 225.287048 130.53774 
L 223.45867 130.53774 
z
" clip-path="url(#p3bf94da828)" style="fill: #808080; stroke: #000000; stroke-width: 0.168157; stroke-linejoin: miter"/>
   </g>
   <g id="patch_88">
    <path d="M 225.287048 242.118437 
L 227.115425 242.118437 
L 227.115425 242.118437 
L 225.287048 242.118437 
z
" clip-path="url(#p3bf94da828)" style="fill: #808080; stroke: #000000; stroke-width: 0.168157; stroke-linejoin: miter"/>
   </g>
   <g id="patch_89">
    <path d="M 227.115425 242.118437 
L 228.943803 242.118437 
L 228.943803 100.761992 
L 227.115425 100.761992 
z
" clip-path="url(#p3bf94da828)" style="fill: #808080; stroke: #000000; stroke-width: 0.168157; stroke-linejoin: miter"/>
   </g>
   <g id="patch_90">
    <path d="M 228.943803 242.118437 
L 230.772181 242.118437 
L 230.772181 242.118437 
L 228.943803 242.118437 
z
" clip-path="url(#p3bf94da828)" style="fill: #808080; stroke: #000000; stroke-width: 0.168157; stroke-linejoin: miter"/>
   </g>
   <g id="patch_91">
    <path d="M 230.772181 242.118437 
L 232.600558 242.118437 
L 232.600558 78.038395 
L 230.772181 78.038395 
z
" clip-path="url(#p3bf94da828)" style="fill: #808080; stroke: #000000; stroke-width: 0.168157; stroke-linejoin: miter"/>
   </g>
   <g id="patch_92">
    <path d="M 232.600558 242.118437 
L 234.428936 242.118437 
L 234.428936 58.762516 
L 232.600558 58.762516 
z
" clip-path="url(#p3bf94da828)" style="fill: #808080; stroke: #000000; stroke-width: 0.168157; stroke-linejoin: miter"/>
   </g>
   <g id="patch_93">
    <path d="M 234.428936 242.118437 
L 236.257314 242.118437 
L 236.257314 242.118437 
L 234.428936 242.118437 
z
" clip-path="url(#p3bf94da828)" style="fill: #808080; stroke: #000000; stroke-width: 0.168157; stroke-linejoin: miter"/>
   </g>
   <g id="patch_94">
    <path d="M 236.257314 242.118437 
L 238.085692 242.118437 
L 238.085692 37.606064 
L 236.257314 37.606064 
z
" clip-path="url(#p3bf94da828)" style="fill: #808080; stroke: #000000; stroke-width: 0.168157; stroke-linejoin: miter"/>
   </g>
   <g id="patch_95">
    <path d="M 238.085692 242.118437 
L 239.914069 242.118437 
L 239.914069 31.337485 
L 238.085692 31.337485 
z
" clip-path="url(#p3bf94da828)" style="fill: #808080; stroke: #000000; stroke-width: 0.168157; stroke-linejoin: miter"/>
   </g>
   <g id="patch_96">
    <path d="M 239.914069 242.118437 
L 241.742447 242.118437 
L 241.742447 242.118437 
L 239.914069 242.118437 
z
" clip-path="url(#p3bf94da828)" style="fill: #808080; stroke: #000000; stroke-width: 0.168157; stroke-linejoin: miter"/>
   </g>
   <g id="patch_97">
    <path d="M 241.742447 242.118437 
L 243.570825 242.118437 
L 243.570825 44.814929 
L 241.742447 44.814929 
z
" clip-path="url(#p3bf94da828)" style="fill: #808080; stroke: #000000; stroke-width: 0.168157; stroke-linejoin: miter"/>
   </g>
   <g id="patch_98">
    <path d="M 243.570825 242.118437 
L 245.399202 242.118437 
L 245.399202 242.118437 
L 243.570825 242.118437 
z
" clip-path="url(#p3bf94da828)" style="fill: #808080; stroke: #000000; stroke-width: 0.168157; stroke-linejoin: miter"/>
   </g>
   <g id="patch_99">
    <path d="M 245.399202 242.118437 
L 247.22758 242.118437 
L 247.22758 61.269948 
L 245.399202 61.269948 
z
" clip-path="url(#p3bf94da828)" style="fill: #808080; stroke: #000000; stroke-width: 0.168157; stroke-linejoin: miter"/>
   </g>
   <g id="patch_100">
    <path d="M 247.22758 242.118437 
L 249.055958 242.118437 
L 249.055958 72.553389 
L 247.22758 72.553389 
z
" clip-path="url(#p3bf94da828)" style="fill: #808080; stroke: #000000; stroke-width: 0.168157; stroke-linejoin: miter"/>
   </g>
   <g id="patch_101">
    <path d="M 249.055958 242.118437 
L 250.884335 242.118437 
L 250.884335 242.118437 
L 249.055958 242.118437 
z
" clip-path="url(#p3bf94da828)" style="fill: #808080; stroke: #000000; stroke-width: 0.168157; stroke-linejoin: miter"/>
   </g>
   <g id="patch_102">
    <path d="M 250.884335 242.118437 
L 252.712713 242.118437 
L 252.712713 109.694716 
L 250.884335 109.694716 
z
" clip-path="url(#p3bf94da828)" style="fill: #808080; stroke: #000000; stroke-width: 0.168157; stroke-linejoin: miter"/>
   </g>
   <g id="patch_103">
    <path d="M 252.712713 242.118437 
L 254.541091 242.118437 
L 254.541091 133.828744 
L 252.712713 133.828744 
z
" clip-path="url(#p3bf94da828)" style="fill: #808080; stroke: #000000; stroke-width: 0.168157; stroke-linejoin: miter"/>
   </g>
   <g id="patch_104">
    <path d="M 254.541091 242.118437 
L 256.369469 242.118437 
L 256.369469 242.118437 
L 254.541091 242.118437 
z
" clip-path="url(#p3bf94da828)" style="fill: #808080; stroke: #000000; stroke-width: 0.168157; stroke-linejoin: miter"/>
   </g>
   <g id="patch_105">
    <path d="M 256.369469 242.118437 
L 258.197846 242.118437 
L 258.197846 162.50749 
L 256.369469 162.50749 
z
" clip-path="url(#p3bf94da828)" style="fill: #808080; stroke: #000000; stroke-width: 0.168157; stroke-linejoin: miter"/>
   </g>
   <g id="patch_106">
    <path d="M 258.197846 242.118437 
L 260.026224 242.118437 
L 260.026224 242.118437 
L 258.197846 242.118437 
z
" clip-path="url(#p3bf94da828)" style="fill: #808080; stroke: #000000; stroke-width: 0.168157; stroke-linejoin: miter"/>
   </g>
   <g id="patch_107">
    <path d="M 260.026224 242.118437 
L 261.854602 242.118437 
L 261.854602 186.484803 
L 260.026224 186.484803 
z
" clip-path="url(#p3bf94da828)" style="fill: #808080; stroke: #000000; stroke-width: 0.168157; stroke-linejoin: miter"/>
   </g>
   <g id="patch_108">
    <path d="M 261.854602 242.118437 
L 263.682979 242.118437 
L 263.682979 201.999535 
L 261.854602 201.999535 
z
" clip-path="url(#p3bf94da828)" style="fill: #808080; stroke: #000000; stroke-width: 0.168157; stroke-linejoin: miter"/>
   </g>
   <g id="patch_109">
    <path d="M 263.682979 242.118437 
L 265.511357 242.118437 
L 265.511357 242.118437 
L 263.682979 242.118437 
z
" clip-path="url(#p3bf94da828)" style="fill: #808080; stroke: #000000; stroke-width: 0.168157; stroke-linejoin: miter"/>
   </g>
   <g id="patch_110">
    <path d="M 265.511357 242.118437 
L 267.339735 242.118437 
L 267.339735 215.476979 
L 265.511357 215.476979 
z
" clip-path="url(#p3bf94da828)" style="fill: #808080; stroke: #000000; stroke-width: 0.168157; stroke-linejoin: miter"/>
   </g>
   <g id="patch_111">
    <path d="M 267.339735 242.118437 
L 269.168112 242.118437 
L 269.168112 228.327565 
L 267.339735 228.327565 
z
" clip-path="url(#p3bf94da828)" style="fill: #808080; stroke: #000000; stroke-width: 0.168157; stroke-linejoin: miter"/>
   </g>
   <g id="patch_112">
    <path d="M 269.168112 242.118437 
L 270.99649 242.118437 
L 270.99649 242.118437 
L 269.168112 242.118437 
z
" clip-path="url(#p3bf94da828)" style="fill: #808080; stroke: #000000; stroke-width: 0.168157; stroke-linejoin: miter"/>
   </g>
   <g id="patch_113">
    <path d="M 270.99649 242.118437 
L 272.824868 242.118437 
L 272.824868 232.088712 
L 270.99649 232.088712 
z
" clip-path="url(#p3bf94da828)" style="fill: #808080; stroke: #000000; stroke-width: 0.168157; stroke-linejoin: miter"/>
   </g>
   <g id="patch_114">
    <path d="M 272.824868 242.118437 
L 274.653246 242.118437 
L 274.653246 242.118437 
L 272.824868 242.118437 
z
" clip-path="url(#p3bf94da828)" style="fill: #808080; stroke: #000000; stroke-width: 0.168157; stroke-linejoin: miter"/>
   </g>
   <g id="patch_115">
    <path d="M 274.653246 242.118437 
L 276.481623 242.118437 
L 276.481623 234.439429 
L 274.653246 234.439429 
z
" clip-path="url(#p3bf94da828)" style="fill: #808080; stroke: #000000; stroke-width: 0.168157; stroke-linejoin: miter"/>
   </g>
   <g id="patch_116">
    <path d="M 276.481623 242.118437 
L 278.310001 242.118437 
L 278.310001 236.476717 
L 276.481623 236.476717 
z
" clip-path="url(#p3bf94da828)" style="fill: #808080; stroke: #000000; stroke-width: 0.168157; stroke-linejoin: miter"/>
   </g>
   <g id="patch_117">
    <path d="M 278.310001 242.118437 
L 280.138379 242.118437 
L 280.138379 242.118437 
L 278.310001 242.118437 
z
" clip-path="url(#p3bf94da828)" style="fill: #808080; stroke: #000000; stroke-width: 0.168157; stroke-linejoin: miter"/>
   </g>
   <g id="patch_118">
    <path d="M 280.138379 242.118437 
L 281.966756 242.118437 
L 281.966756 239.140863 
L 280.138379 239.140863 
z
" clip-path="url(#p3bf94da828)" style="fill: #808080; stroke: #000000; stroke-width: 0.168157; stroke-linejoin: miter"/>
   </g>
   <g id="patch_119">
    <path d="M 281.966756 242.118437 
L 283.795134 242.118437 
L 283.795134 240.551293 
L 281.966756 240.551293 
z
" clip-path="url(#p3bf94da828)" style="fill: #808080; stroke: #000000; stroke-width: 0.168157; stroke-linejoin: miter"/>
   </g>
   <g id="patch_120">
    <path d="M 283.795134 242.118437 
L 285.623512 242.118437 
L 285.623512 242.118437 
L 283.795134 242.118437 
z
" clip-path="url(#p3bf94da828)" style="fill: #808080; stroke: #000000; stroke-width: 0.168157; stroke-linejoin: miter"/>
   </g>
   <g id="patch_121">
    <path d="M 285.623512 242.118437 
L 287.451889 242.118437 
L 287.451889 240.864722 
L 285.623512 240.864722 
z
" clip-path="url(#p3bf94da828)" style="fill: #808080; stroke: #000000; stroke-width: 0.168157; stroke-linejoin: miter"/>
   </g>
   <g id="patch_122">
    <path d="M 287.451889 242.118437 
L 289.280267 242.118437 
L 289.280267 242.118437 
L 287.451889 242.118437 
z
" clip-path="url(#p3bf94da828)" style="fill: #808080; stroke: #000000; stroke-width: 0.168157; stroke-linejoin: miter"/>
   </g>
   <g id="patch_123">
    <path d="M 289.280267 242.118437 
L 291.108645 242.118437 
L 291.108645 241.334865 
L 289.280267 241.334865 
z
" clip-path="url(#p3bf94da828)" style="fill: #808080; stroke: #000000; stroke-width: 0.168157; stroke-linejoin: miter"/>
   </g>
   <g id="patch_124">
    <path d="M 291.108645 242.118437 
L 292.937023 242.118437 
L 292.937023 241.961723 
L 291.108645 241.961723 
z
" clip-path="url(#p3bf94da828)" style="fill: #808080; stroke: #000000; stroke-width: 0.168157; stroke-linejoin: miter"/>
   </g>
   <g id="patch_125">
    <path d="M 292.937023 242.118437 
L 294.7654 242.118437 
L 294.7654 242.118437 
L 292.937023 242.118437 
z
" clip-path="url(#p3bf94da828)" style="fill: #808080; stroke: #000000; stroke-width: 0.168157; stroke-linejoin: miter"/>
   </g>
   <g id="patch_126">
    <path d="M 294.7654 242.118437 
L 296.593778 242.118437 
L 296.593778 241.805009 
L 294.7654 241.805009 
z
" clip-path="url(#p3bf94da828)" style="fill: #808080; stroke: #000000; stroke-width: 0.168157; stroke-linejoin: miter"/>
   </g>
   <g id="patch_127">
    <path d="M 296.593778 242.118437 
L 298.422156 242.118437 
L 298.422156 241.961723 
L 296.593778 241.961723 
z
" clip-path="url(#p3bf94da828)" style="fill: #808080; stroke: #000000; stroke-width: 0.168157; stroke-linejoin: miter"/>
   </g>
   <g id="patch_128">
    <path d="M 298.422156 242.118437 
L 300.250533 242.118437 
L 300.250533 242.118437 
L 298.422156 242.118437 
z
" clip-path="url(#p3bf94da828)" style="fill: #808080; stroke: #000000; stroke-width: 0.168157; stroke-linejoin: miter"/>
   </g>
   <g id="patch_129">
    <path d="M 300.250533 242.118437 
L 302.078911 242.118437 
L 302.078911 241.961723 
L 300.250533 241.961723 
z
" clip-path="url(#p3bf94da828)" style="fill: #808080; stroke: #000000; stroke-width: 0.168157; stroke-linejoin: miter"/>
   </g>
   <g id="patch_130">
    <path d="M 302.078911 242.118437 
L 303.907289 242.118437 
L 303.907289 242.118437 
L 302.078911 242.118437 
z
" clip-path="url(#p3bf94da828)" style="fill: #808080; stroke: #000000; stroke-width: 0.168157; stroke-linejoin: miter"/>
   </g>
   <g id="patch_131">
    <path d="M 303.907289 242.118437 
L 305.735666 242.118437 
L 305.735666 241.334865 
L 303.907289 241.334865 
z
" clip-path="url(#p3bf94da828)" style="fill: #808080; stroke: #000000; stroke-width: 0.168157; stroke-linejoin: miter"/>
   </g>
   <g id="patch_132">
    <path d="M 305.735666 242.118437 
L 307.564044 242.118437 
L 307.564044 241.805009 
L 305.735666 241.805009 
z
" clip-path="url(#p3bf94da828)" style="fill: #808080; stroke: #000000; stroke-width: 0.168157; stroke-linejoin: miter"/>
   </g>
   <g id="patch_133">
    <path d="M 307.564044 242.118437 
L 309.392422 242.118437 
L 309.392422 242.118437 
L 307.564044 242.118437 
z
" clip-path="url(#p3bf94da828)" style="fill: #808080; stroke: #000000; stroke-width: 0.168157; stroke-linejoin: miter"/>
   </g>
   <g id="patch_134">
    <path d="M 309.392422 242.118437 
L 311.2208 242.118437 
L 311.2208 241.961723 
L 309.392422 241.961723 
z
" clip-path="url(#p3bf94da828)" style="fill: #808080; stroke: #000000; stroke-width: 0.168157; stroke-linejoin: miter"/>
   </g>
   <g id="patch_135">
    <path d="M 311.2208 242.118437 
L 313.049177 242.118437 
L 313.049177 242.118437 
L 311.2208 242.118437 
z
" clip-path="url(#p3bf94da828)" style="fill: #808080; stroke: #000000; stroke-width: 0.168157; stroke-linejoin: miter"/>
   </g>
   <g id="patch_136">
    <path d="M 313.049177 242.118437 
L 314.877555 242.118437 
L 314.877555 242.118437 
L 313.049177 242.118437 
z
" clip-path="url(#p3bf94da828)" style="fill: #808080; stroke: #000000; stroke-width: 0.168157; stroke-linejoin: miter"/>
   </g>
   <g id="patch_137">
    <path d="M 314.877555 242.118437 
L 316.705933 242.118437 
L 316.705933 241.805009 
L 314.877555 241.805009 
z
" clip-path="url(#p3bf94da828)" style="fill: #808080; stroke: #000000; stroke-width: 0.168157; stroke-linejoin: miter"/>
   </g>
   <g id="patch_138">
    <path d="M 316.705933 242.118437 
L 318.53431 242.118437 
L 318.53431 242.118437 
L 316.705933 242.118437 
z
" clip-path="url(#p3bf94da828)" style="fill: #808080; stroke: #000000; stroke-width: 0.168157; stroke-linejoin: miter"/>
   </g>
   <g id="patch_139">
    <path d="M 318.53431 242.118437 
L 320.362688 242.118437 
L 320.362688 242.118437 
L 318.53431 242.118437 
z
" clip-path="url(#p3bf94da828)" style="fill: #808080; stroke: #000000; stroke-width: 0.168157; stroke-linejoin: miter"/>
   </g>
   <g id="patch_140">
    <path d="M 320.362688 242.118437 
L 322.191066 242.118437 
L 322.191066 241.805009 
L 320.362688 241.805009 
z
" clip-path="url(#p3bf94da828)" style="fill: #808080; stroke: #000000; stroke-width: 0.168157; stroke-linejoin: miter"/>
   </g>
   <g id="patch_141">
    <path d="M 322.191066 242.118437 
L 324.019443 242.118437 
L 324.019443 242.118437 
L 322.191066 242.118437 
z
" clip-path="url(#p3bf94da828)" style="fill: #808080; stroke: #000000; stroke-width: 0.168157; stroke-linejoin: miter"/>
   </g>
   <g id="patch_142">
    <path d="M 324.019443 242.118437 
L 325.847821 242.118437 
L 325.847821 242.118437 
L 324.019443 242.118437 
z
" clip-path="url(#p3bf94da828)" style="fill: #808080; stroke: #000000; stroke-width: 0.168157; stroke-linejoin: miter"/>
   </g>
   <g id="patch_143">
    <path d="M 325.847821 242.118437 
L 327.676199 242.118437 
L 327.676199 242.118437 
L 325.847821 242.118437 
z
" clip-path="url(#p3bf94da828)" style="fill: #808080; stroke: #000000; stroke-width: 0.168157; stroke-linejoin: miter"/>
   </g>
   <g id="patch_144">
    <path d="M 327.676199 242.118437 
L 329.504577 242.118437 
L 329.504577 242.118437 
L 327.676199 242.118437 
z
" clip-path="url(#p3bf94da828)" style="fill: #808080; stroke: #000000; stroke-width: 0.168157; stroke-linejoin: miter"/>
   </g>
   <g id="patch_145">
    <path d="M 329.504577 242.118437 
L 331.332954 242.118437 
L 331.332954 242.118437 
L 329.504577 242.118437 
z
" clip-path="url(#p3bf94da828)" style="fill: #808080; stroke: #000000; stroke-width: 0.168157; stroke-linejoin: miter"/>
   </g>
   <g id="patch_146">
    <path d="M 331.332954 242.118437 
L 333.161332 242.118437 
L 333.161332 242.118437 
L 331.332954 242.118437 
z
" clip-path="url(#p3bf94da828)" style="fill: #808080; stroke: #000000; stroke-width: 0.168157; stroke-linejoin: miter"/>
   </g>
   <g id="patch_147">
    <path d="M 333.161332 242.118437 
L 334.98971 242.118437 
L 334.98971 241.961723 
L 333.161332 241.961723 
z
" clip-path="url(#p3bf94da828)" style="fill: #808080; stroke: #000000; stroke-width: 0.168157; stroke-linejoin: miter"/>
   </g>
   <g id="patch_148">
    <path d="M 334.98971 242.118437 
L 336.818087 242.118437 
L 336.818087 241.648294 
L 334.98971 241.648294 
z
" clip-path="url(#p3bf94da828)" style="fill: #808080; stroke: #000000; stroke-width: 0.168157; stroke-linejoin: miter"/>
   </g>
   <g id="patch_149">
    <path d="M 336.818087 242.118437 
L 338.646465 242.118437 
L 338.646465 242.118437 
L 336.818087 242.118437 
z
" clip-path="url(#p3bf94da828)" style="fill: #808080; stroke: #000000; stroke-width: 0.168157; stroke-linejoin: miter"/>
   </g>
   <g id="patch_150">
    <path d="M 338.646465 242.118437 
L 340.474843 242.118437 
L 340.474843 242.118437 
L 338.646465 242.118437 
z
" clip-path="url(#p3bf94da828)" style="fill: #808080; stroke: #000000; stroke-width: 0.168157; stroke-linejoin: miter"/>
   </g>
   <g id="patch_151">
    <path d="M 340.474843 242.118437 
L 342.30322 242.118437 
L 342.30322 242.118437 
L 340.474843 242.118437 
z
" clip-path="url(#p3bf94da828)" style="fill: #808080; stroke: #000000; stroke-width: 0.168157; stroke-linejoin: miter"/>
   </g>
   <g id="patch_152">
    <path d="M 342.30322 242.118437 
L 344.131598 242.118437 
L 344.131598 242.118437 
L 342.30322 242.118437 
z
" clip-path="url(#p3bf94da828)" style="fill: #808080; stroke: #000000; stroke-width: 0.168157; stroke-linejoin: miter"/>
   </g>
   <g id="patch_153">
    <path d="M 344.131598 242.118437 
L 345.959976 242.118437 
L 345.959976 241.961723 
L 344.131598 241.961723 
z
" clip-path="url(#p3bf94da828)" style="fill: #808080; stroke: #000000; stroke-width: 0.168157; stroke-linejoin: miter"/>
   </g>
   <g id="patch_154">
    <path d="M 345.959976 242.118437 
L 347.788354 242.118437 
L 347.788354 242.118437 
L 345.959976 242.118437 
z
" clip-path="url(#p3bf94da828)" style="fill: #808080; stroke: #000000; stroke-width: 0.168157; stroke-linejoin: miter"/>
   </g>
   <g id="patch_155">
    <path d="M 347.788354 242.118437 
L 349.616731 242.118437 
L 349.616731 242.118437 
L 347.788354 242.118437 
z
" clip-path="url(#p3bf94da828)" style="fill: #808080; stroke: #000000; stroke-width: 0.168157; stroke-linejoin: miter"/>
   </g>
   <g id="patch_156">
    <path d="M 349.616731 242.118437 
L 351.445109 242.118437 
L 351.445109 242.118437 
L 349.616731 242.118437 
z
" clip-path="url(#p3bf94da828)" style="fill: #808080; stroke: #000000; stroke-width: 0.168157; stroke-linejoin: miter"/>
   </g>
   <g id="patch_157">
    <path d="M 351.445109 242.118437 
L 353.273487 242.118437 
L 353.273487 242.118437 
L 351.445109 242.118437 
z
" clip-path="url(#p3bf94da828)" style="fill: #808080; stroke: #000000; stroke-width: 0.168157; stroke-linejoin: miter"/>
   </g>
   <g id="patch_158">
    <path d="M 353.273487 242.118437 
L 355.101864 242.118437 
L 355.101864 242.118437 
L 353.273487 242.118437 
z
" clip-path="url(#p3bf94da828)" style="fill: #808080; stroke: #000000; stroke-width: 0.168157; stroke-linejoin: miter"/>
   </g>
   <g id="patch_159">
    <path d="M 355.101864 242.118437 
L 356.930242 242.118437 
L 356.930242 241.961723 
L 355.101864 241.961723 
z
" clip-path="url(#p3bf94da828)" style="fill: #808080; stroke: #000000; stroke-width: 0.168157; stroke-linejoin: miter"/>
   </g>
   <g id="patch_160">
    <path d="M 356.930242 242.118437 
L 358.75862 242.118437 
L 358.75862 242.118437 
L 356.930242 242.118437 
z
" clip-path="url(#p3bf94da828)" style="fill: #808080; stroke: #000000; stroke-width: 0.168157; stroke-linejoin: miter"/>
   </g>
   <g id="patch_161">
    <path d="M 358.75862 242.118437 
L 360.586997 242.118437 
L 360.586997 242.118437 
L 358.75862 242.118437 
z
" clip-path="url(#p3bf94da828)" style="fill: #808080; stroke: #000000; stroke-width: 0.168157; stroke-linejoin: miter"/>
   </g>
   <g id="patch_162">
    <path d="M 360.586997 242.118437 
L 362.415375 242.118437 
L 362.415375 242.118437 
L 360.586997 242.118437 
z
" clip-path="url(#p3bf94da828)" style="fill: #808080; stroke: #000000; stroke-width: 0.168157; stroke-linejoin: miter"/>
   </g>
   <g id="patch_163">
    <path d="M 362.415375 242.118437 
L 364.243753 242.118437 
L 364.243753 242.118437 
L 362.415375 242.118437 
z
" clip-path="url(#p3bf94da828)" style="fill: #808080; stroke: #000000; stroke-width: 0.168157; stroke-linejoin: miter"/>
   </g>
   <g id="patch_164">
    <path d="M 364.243753 242.118437 
L 366.072131 242.118437 
L 366.072131 242.118437 
L 364.243753 242.118437 
z
" clip-path="url(#p3bf94da828)" style="fill: #808080; stroke: #000000; stroke-width: 0.168157; stroke-linejoin: miter"/>
   </g>
   <g id="patch_165">
    <path d="M 366.072131 242.118437 
L 367.900508 242.118437 
L 367.900508 242.118437 
L 366.072131 242.118437 
z
" clip-path="url(#p3bf94da828)" style="fill: #808080; stroke: #000000; stroke-width: 0.168157; stroke-linejoin: miter"/>
   </g>
   <g id="patch_166">
    <path d="M 367.900508 242.118437 
L 369.728886 242.118437 
L 369.728886 242.118437 
L 367.900508 242.118437 
z
" clip-path="url(#p3bf94da828)" style="fill: #808080; stroke: #000000; stroke-width: 0.168157; stroke-linejoin: miter"/>
   </g>
   <g id="patch_167">
    <path d="M 369.728886 242.118437 
L 371.557264 242.118437 
L 371.557264 242.118437 
L 369.728886 242.118437 
z
" clip-path="url(#p3bf94da828)" style="fill: #808080; stroke: #000000; stroke-width: 0.168157; stroke-linejoin: miter"/>
   </g>
   <g id="patch_168">
    <path d="M 371.557264 242.118437 
L 373.385641 242.118437 
L 373.385641 242.118437 
L 371.557264 242.118437 
z
" clip-path="url(#p3bf94da828)" style="fill: #808080; stroke: #000000; stroke-width: 0.168157; stroke-linejoin: miter"/>
   </g>
   <g id="patch_169">
    <path d="M 373.385641 242.118437 
L 375.214019 242.118437 
L 375.214019 241.961723 
L 373.385641 241.961723 
z
" clip-path="url(#p3bf94da828)" style="fill: #808080; stroke: #000000; stroke-width: 0.168157; stroke-linejoin: miter"/>
   </g>
   <g id="patch_170">
    <path d="M 375.214019 242.118437 
L 377.042397 242.118437 
L 377.042397 242.118437 
L 375.214019 242.118437 
z
" clip-path="url(#p3bf94da828)" style="fill: #808080; stroke: #000000; stroke-width: 0.168157; stroke-linejoin: miter"/>
   </g>
   <g id="patch_171">
    <path d="M 377.042397 242.118437 
L 378.870774 242.118437 
L 378.870774 242.118437 
L 377.042397 242.118437 
z
" clip-path="url(#p3bf94da828)" style="fill: #808080; stroke: #000000; stroke-width: 0.168157; stroke-linejoin: miter"/>
   </g>
   <g id="patch_172">
    <path d="M 378.870774 242.118437 
L 380.699152 242.118437 
L 380.699152 242.118437 
L 378.870774 242.118437 
z
" clip-path="url(#p3bf94da828)" style="fill: #808080; stroke: #000000; stroke-width: 0.168157; stroke-linejoin: miter"/>
   </g>
   <g id="patch_173">
    <path d="M 380.699152 242.118437 
L 382.52753 242.118437 
L 382.52753 242.118437 
L 380.699152 242.118437 
z
" clip-path="url(#p3bf94da828)" style="fill: #808080; stroke: #000000; stroke-width: 0.168157; stroke-linejoin: miter"/>
   </g>
   <g id="patch_174">
    <path d="M 382.52753 242.118437 
L 384.355908 242.118437 
L 384.355908 242.118437 
L 382.52753 242.118437 
z
" clip-path="url(#p3bf94da828)" style="fill: #808080; stroke: #000000; stroke-width: 0.168157; stroke-linejoin: miter"/>
   </g>
   <g id="patch_175">
    <path d="M 384.355908 242.118437 
L 386.184285 242.118437 
L 386.184285 242.118437 
L 384.355908 242.118437 
z
" clip-path="url(#p3bf94da828)" style="fill: #808080; stroke: #000000; stroke-width: 0.168157; stroke-linejoin: miter"/>
   </g>
   <g id="patch_176">
    <path d="M 386.184285 242.118437 
L 388.012663 242.118437 
L 388.012663 242.118437 
L 386.184285 242.118437 
z
" clip-path="url(#p3bf94da828)" style="fill: #808080; stroke: #000000; stroke-width: 0.168157; stroke-linejoin: miter"/>
   </g>
   <g id="patch_177">
    <path d="M 388.012663 242.118437 
L 389.841041 242.118437 
L 389.841041 242.118437 
L 388.012663 242.118437 
z
" clip-path="url(#p3bf94da828)" style="fill: #808080; stroke: #000000; stroke-width: 0.168157; stroke-linejoin: miter"/>
   </g>
   <g id="patch_178">
    <path d="M 389.841041 242.118437 
L 391.669418 242.118437 
L 391.669418 242.118437 
L 389.841041 242.118437 
z
" clip-path="url(#p3bf94da828)" style="fill: #808080; stroke: #000000; stroke-width: 0.168157; stroke-linejoin: miter"/>
   </g>
   <g id="patch_179">
    <path d="M 391.669418 242.118437 
L 393.497796 242.118437 
L 393.497796 242.118437 
L 391.669418 242.118437 
z
" clip-path="url(#p3bf94da828)" style="fill: #808080; stroke: #000000; stroke-width: 0.168157; stroke-linejoin: miter"/>
   </g>
   <g id="patch_180">
    <path d="M 393.497796 242.118437 
L 395.326174 242.118437 
L 395.326174 242.118437 
L 393.497796 242.118437 
z
" clip-path="url(#p3bf94da828)" style="fill: #808080; stroke: #000000; stroke-width: 0.168157; stroke-linejoin: miter"/>
   </g>
   <g id="patch_181">
    <path d="M 395.326174 242.118437 
L 397.154551 242.118437 
L 397.154551 242.118437 
L 395.326174 242.118437 
z
" clip-path="url(#p3bf94da828)" style="fill: #808080; stroke: #000000; stroke-width: 0.168157; stroke-linejoin: miter"/>
   </g>
   <g id="patch_182">
    <path d="M 397.154551 242.118437 
L 398.982929 242.118437 
L 398.982929 242.118437 
L 397.154551 242.118437 
z
" clip-path="url(#p3bf94da828)" style="fill: #808080; stroke: #000000; stroke-width: 0.168157; stroke-linejoin: miter"/>
   </g>
   <g id="patch_183">
    <path d="M 398.982929 242.118437 
L 400.811307 242.118437 
L 400.811307 241.961723 
L 398.982929 241.961723 
z
" clip-path="url(#p3bf94da828)" style="fill: #808080; stroke: #000000; stroke-width: 0.168157; stroke-linejoin: miter"/>
   </g>
   <g id="matplotlib.axis_1">
    <g id="xtick_1">
     <g id="line2d_1">
      <defs>
       <path id="me17a25a524" d="M 0 0 
L 0 3.5 
" style="stroke: #000000; stroke-width: 0.8"/>
      </defs>
      <g>
       <use xlink:href="#me17a25a524" x="84.518145" y="242.118437" style="stroke: #000000; stroke-width: 0.8"/>
      </g>
     </g>
     <g id="text_1">
      <!-- 4 -->
      <g transform="translate(81.336895 256.716875) scale(0.1 -0.1)">
       <defs>
        <path id="DejaVuSans-34" d="M 2419 4116 
L 825 1625 
L 2419 1625 
L 2419 4116 
z
M 2253 4666 
L 3047 4666 
L 3047 1625 
L 3713 1625 
L 3713 1100 
L 3047 1100 
L 3047 0 
L 2419 0 
L 2419 1100 
L 313 1100 
L 313 1709 
L 2253 4666 
z
" transform="scale(0.015625)"/>
       </defs>
       <use xlink:href="#DejaVuSans-34"/>
      </g>
     </g>
    </g>
    <g id="xtick_2">
     <g id="line2d_2">
      <g>
       <use xlink:href="#me17a25a524" x="143.090953" y="242.118437" style="stroke: #000000; stroke-width: 0.8"/>
      </g>
     </g>
     <g id="text_2">
      <!-- 6 -->
      <g transform="translate(139.909703 256.716875) scale(0.1 -0.1)">
       <defs>
        <path id="DejaVuSans-36" d="M 2113 2584 
Q 1688 2584 1439 2293 
Q 1191 2003 1191 1497 
Q 1191 994 1439 701 
Q 1688 409 2113 409 
Q 2538 409 2786 701 
Q 3034 994 3034 1497 
Q 3034 2003 2786 2293 
Q 2538 2584 2113 2584 
z
M 3366 4563 
L 3366 3988 
Q 3128 4100 2886 4159 
Q 2644 4219 2406 4219 
Q 1781 4219 1451 3797 
Q 1122 3375 1075 2522 
Q 1259 2794 1537 2939 
Q 1816 3084 2150 3084 
Q 2853 3084 3261 2657 
Q 3669 2231 3669 1497 
Q 3669 778 3244 343 
Q 2819 -91 2113 -91 
Q 1303 -91 875 529 
Q 447 1150 447 2328 
Q 447 3434 972 4092 
Q 1497 4750 2381 4750 
Q 2619 4750 2861 4703 
Q 3103 4656 3366 4563 
z
" transform="scale(0.015625)"/>
       </defs>
       <use xlink:href="#DejaVuSans-36"/>
      </g>
     </g>
    </g>
    <g id="xtick_3">
     <g id="line2d_3">
      <g>
       <use xlink:href="#me17a25a524" x="201.663761" y="242.118437" style="stroke: #000000; stroke-width: 0.8"/>
      </g>
     </g>
     <g id="text_3">
      <!-- 8 -->
      <g transform="translate(198.482511 256.716875) scale(0.1 -0.1)">
       <defs>
        <path id="DejaVuSans-38" d="M 2034 2216 
Q 1584 2216 1326 1975 
Q 1069 1734 1069 1313 
Q 1069 891 1326 650 
Q 1584 409 2034 409 
Q 2484 409 2743 651 
Q 3003 894 3003 1313 
Q 3003 1734 2745 1975 
Q 2488 2216 2034 2216 
z
M 1403 2484 
Q 997 2584 770 2862 
Q 544 3141 544 3541 
Q 544 4100 942 4425 
Q 1341 4750 2034 4750 
Q 2731 4750 3128 4425 
Q 3525 4100 3525 3541 
Q 3525 3141 3298 2862 
Q 3072 2584 2669 2484 
Q 3125 2378 3379 2068 
Q 3634 1759 3634 1313 
Q 3634 634 3220 271 
Q 2806 -91 2034 -91 
Q 1263 -91 848 271 
Q 434 634 434 1313 
Q 434 1759 690 2068 
Q 947 2378 1403 2484 
z
M 1172 3481 
Q 1172 3119 1398 2916 
Q 1625 2713 2034 2713 
Q 2441 2713 2670 2916 
Q 2900 3119 2900 3481 
Q 2900 3844 2670 4047 
Q 2441 4250 2034 4250 
Q 1625 4250 1398 4047 
Q 1172 3844 1172 3481 
z
" transform="scale(0.015625)"/>
       </defs>
       <use xlink:href="#DejaVuSans-38"/>
      </g>
     </g>
    </g>
    <g id="xtick_4">
     <g id="line2d_4">
      <g>
       <use xlink:href="#me17a25a524" x="260.236568" y="242.118437" style="stroke: #000000; stroke-width: 0.8"/>
      </g>
     </g>
     <g id="text_4">
      <!-- 10 -->
      <g transform="translate(253.874068 256.716875) scale(0.1 -0.1)">
       <defs>
        <path id="DejaVuSans-31" d="M 794 531 
L 1825 531 
L 1825 4091 
L 703 3866 
L 703 4441 
L 1819 4666 
L 2450 4666 
L 2450 531 
L 3481 531 
L 3481 0 
L 794 0 
L 794 531 
z
" transform="scale(0.015625)"/>
        <path id="DejaVuSans-30" d="M 2034 4250 
Q 1547 4250 1301 3770 
Q 1056 3291 1056 2328 
Q 1056 1369 1301 889 
Q 1547 409 2034 409 
Q 2525 409 2770 889 
Q 3016 1369 3016 2328 
Q 3016 3291 2770 3770 
Q 2525 4250 2034 4250 
z
M 2034 4750 
Q 2819 4750 3233 4129 
Q 3647 3509 3647 2328 
Q 3647 1150 3233 529 
Q 2819 -91 2034 -91 
Q 1250 -91 836 529 
Q 422 1150 422 2328 
Q 422 3509 836 4129 
Q 1250 4750 2034 4750 
z
" transform="scale(0.015625)"/>
       </defs>
       <use xlink:href="#DejaVuSans-31"/>
       <use xlink:href="#DejaVuSans-30" x="63.623047"/>
      </g>
     </g>
    </g>
    <g id="xtick_5">
     <g id="line2d_5">
      <g>
       <use xlink:href="#me17a25a524" x="318.809376" y="242.118437" style="stroke: #000000; stroke-width: 0.8"/>
      </g>
     </g>
     <g id="text_5">
      <!-- 12 -->
      <g transform="translate(312.446876 256.716875) scale(0.1 -0.1)">
       <defs>
        <path id="DejaVuSans-32" d="M 1228 531 
L 3431 531 
L 3431 0 
L 469 0 
L 469 531 
Q 828 903 1448 1529 
Q 2069 2156 2228 2338 
Q 2531 2678 2651 2914 
Q 2772 3150 2772 3378 
Q 2772 3750 2511 3984 
Q 2250 4219 1831 4219 
Q 1534 4219 1204 4116 
Q 875 4013 500 3803 
L 500 4441 
Q 881 4594 1212 4672 
Q 1544 4750 1819 4750 
Q 2544 4750 2975 4387 
Q 3406 4025 3406 3419 
Q 3406 3131 3298 2873 
Q 3191 2616 2906 2266 
Q 2828 2175 2409 1742 
Q 1991 1309 1228 531 
z
" transform="scale(0.015625)"/>
       </defs>
       <use xlink:href="#DejaVuSans-31"/>
       <use xlink:href="#DejaVuSans-32" x="63.623047"/>
      </g>
     </g>
    </g>
    <g id="xtick_6">
     <g id="line2d_6">
      <g>
       <use xlink:href="#me17a25a524" x="377.382184" y="242.118437" style="stroke: #000000; stroke-width: 0.8"/>
      </g>
     </g>
     <g id="text_6">
      <!-- 14 -->
      <g transform="translate(371.019684 256.716875) scale(0.1 -0.1)">
       <use xlink:href="#DejaVuSans-31"/>
       <use xlink:href="#DejaVuSans-34" x="63.623047"/>
      </g>
     </g>
    </g>
    <g id="text_7">
     <!-- Ca -->
     <g transform="translate(228.787656 270.395) scale(0.1 -0.1)">
      <defs>
       <path id="DejaVuSans-43" d="M 4122 4306 
L 4122 3641 
Q 3803 3938 3442 4084 
Q 3081 4231 2675 4231 
Q 1875 4231 1450 3742 
Q 1025 3253 1025 2328 
Q 1025 1406 1450 917 
Q 1875 428 2675 428 
Q 3081 428 3442 575 
Q 3803 722 4122 1019 
L 4122 359 
Q 3791 134 3420 21 
Q 3050 -91 2638 -91 
Q 1578 -91 968 557 
Q 359 1206 359 2328 
Q 359 3453 968 4101 
Q 1578 4750 2638 4750 
Q 3056 4750 3426 4639 
Q 3797 4528 4122 4306 
z
" transform="scale(0.015625)"/>
       <path id="DejaVuSans-61" d="M 2194 1759 
Q 1497 1759 1228 1600 
Q 959 1441 959 1056 
Q 959 750 1161 570 
Q 1363 391 1709 391 
Q 2188 391 2477 730 
Q 2766 1069 2766 1631 
L 2766 1759 
L 2194 1759 
z
M 3341 1997 
L 3341 0 
L 2766 0 
L 2766 531 
Q 2569 213 2275 61 
Q 1981 -91 1556 -91 
Q 1019 -91 701 211 
Q 384 513 384 1019 
Q 384 1609 779 1909 
Q 1175 2209 1959 2209 
L 2766 2209 
L 2766 2266 
Q 2766 2663 2505 2880 
Q 2244 3097 1772 3097 
Q 1472 3097 1187 3025 
Q 903 2953 641 2809 
L 641 3341 
Q 956 3463 1253 3523 
Q 1550 3584 1831 3584 
Q 2591 3584 2966 3190 
Q 3341 2797 3341 1997 
z
" transform="scale(0.015625)"/>
      </defs>
      <use xlink:href="#DejaVuSans-43"/>
      <use xlink:href="#DejaVuSans-61" x="69.824219"/>
     </g>
    </g>
   </g>
   <g id="matplotlib.axis_2">
    <g id="ytick_1">
     <g id="line2d_7">
      <defs>
       <path id="m74764069a8" d="M 0 0 
L -3.5 0 
" style="stroke: #000000; stroke-width: 0.8"/>
      </defs>
      <g>
       <use xlink:href="#m74764069a8" x="53.328125" y="242.118437" style="stroke: #000000; stroke-width: 0.8"/>
      </g>
     </g>
     <g id="text_8">
      <!-- 0 -->
      <g transform="translate(39.965625 245.917656) scale(0.1 -0.1)">
       <use xlink:href="#DejaVuSans-30"/>
      </g>
     </g>
    </g>
    <g id="ytick_2">
     <g id="line2d_8">
      <g>
       <use xlink:href="#m74764069a8" x="53.328125" y="210.775545" style="stroke: #000000; stroke-width: 0.8"/>
      </g>
     </g>
     <g id="text_9">
      <!-- 200 -->
      <g transform="translate(27.240625 214.574764) scale(0.1 -0.1)">
       <use xlink:href="#DejaVuSans-32"/>
       <use xlink:href="#DejaVuSans-30" x="63.623047"/>
       <use xlink:href="#DejaVuSans-30" x="127.246094"/>
      </g>
     </g>
    </g>
    <g id="ytick_3">
     <g id="line2d_9">
      <g>
       <use xlink:href="#m74764069a8" x="53.328125" y="179.432652" style="stroke: #000000; stroke-width: 0.8"/>
      </g>
     </g>
     <g id="text_10">
      <!-- 400 -->
      <g transform="translate(27.240625 183.231871) scale(0.1 -0.1)">
       <use xlink:href="#DejaVuSans-34"/>
       <use xlink:href="#DejaVuSans-30" x="63.623047"/>
       <use xlink:href="#DejaVuSans-30" x="127.246094"/>
      </g>
     </g>
    </g>
    <g id="ytick_4">
     <g id="line2d_10">
      <g>
       <use xlink:href="#m74764069a8" x="53.328125" y="148.08976" style="stroke: #000000; stroke-width: 0.8"/>
      </g>
     </g>
     <g id="text_11">
      <!-- 600 -->
      <g transform="translate(27.240625 151.888979) scale(0.1 -0.1)">
       <use xlink:href="#DejaVuSans-36"/>
       <use xlink:href="#DejaVuSans-30" x="63.623047"/>
       <use xlink:href="#DejaVuSans-30" x="127.246094"/>
      </g>
     </g>
    </g>
    <g id="ytick_5">
     <g id="line2d_11">
      <g>
       <use xlink:href="#m74764069a8" x="53.328125" y="116.746867" style="stroke: #000000; stroke-width: 0.8"/>
      </g>
     </g>
     <g id="text_12">
      <!-- 800 -->
      <g transform="translate(27.240625 120.546086) scale(0.1 -0.1)">
       <use xlink:href="#DejaVuSans-38"/>
       <use xlink:href="#DejaVuSans-30" x="63.623047"/>
       <use xlink:href="#DejaVuSans-30" x="127.246094"/>
      </g>
     </g>
    </g>
    <g id="ytick_6">
     <g id="line2d_12">
      <g>
       <use xlink:href="#m74764069a8" x="53.328125" y="85.403975" style="stroke: #000000; stroke-width: 0.8"/>
      </g>
     </g>
     <g id="text_13">
      <!-- 1000 -->
      <g transform="translate(20.878125 89.203194) scale(0.1 -0.1)">
       <use xlink:href="#DejaVuSans-31"/>
       <use xlink:href="#DejaVuSans-30" x="63.623047"/>
       <use xlink:href="#DejaVuSans-30" x="127.246094"/>
       <use xlink:href="#DejaVuSans-30" x="190.869141"/>
      </g>
     </g>
    </g>
    <g id="ytick_7">
     <g id="line2d_13">
      <g>
       <use xlink:href="#m74764069a8" x="53.328125" y="54.061082" style="stroke: #000000; stroke-width: 0.8"/>
      </g>
     </g>
     <g id="text_14">
      <!-- 1200 -->
      <g transform="translate(20.878125 57.860301) scale(0.1 -0.1)">
       <use xlink:href="#DejaVuSans-31"/>
       <use xlink:href="#DejaVuSans-32" x="63.623047"/>
       <use xlink:href="#DejaVuSans-30" x="127.246094"/>
       <use xlink:href="#DejaVuSans-30" x="190.869141"/>
      </g>
     </g>
    </g>
    <g id="ytick_8">
     <g id="line2d_14">
      <g>
       <use xlink:href="#m74764069a8" x="53.328125" y="22.71819" style="stroke: #000000; stroke-width: 0.8"/>
      </g>
     </g>
     <g id="text_15">
      <!-- 1400 -->
      <g transform="translate(20.878125 26.517408) scale(0.1 -0.1)">
       <use xlink:href="#DejaVuSans-31"/>
       <use xlink:href="#DejaVuSans-34" x="63.623047"/>
       <use xlink:href="#DejaVuSans-30" x="127.246094"/>
       <use xlink:href="#DejaVuSans-30" x="190.869141"/>
      </g>
     </g>
    </g>
    <g id="text_16">
     <!-- Count -->
     <g transform="translate(14.798438 146.306875) rotate(-90) scale(0.1 -0.1)">
      <defs>
       <path id="DejaVuSans-6f" d="M 1959 3097 
Q 1497 3097 1228 2736 
Q 959 2375 959 1747 
Q 959 1119 1226 758 
Q 1494 397 1959 397 
Q 2419 397 2687 759 
Q 2956 1122 2956 1747 
Q 2956 2369 2687 2733 
Q 2419 3097 1959 3097 
z
M 1959 3584 
Q 2709 3584 3137 3096 
Q 3566 2609 3566 1747 
Q 3566 888 3137 398 
Q 2709 -91 1959 -91 
Q 1206 -91 779 398 
Q 353 888 353 1747 
Q 353 2609 779 3096 
Q 1206 3584 1959 3584 
z
" transform="scale(0.015625)"/>
       <path id="DejaVuSans-75" d="M 544 1381 
L 544 3500 
L 1119 3500 
L 1119 1403 
Q 1119 906 1312 657 
Q 1506 409 1894 409 
Q 2359 409 2629 706 
Q 2900 1003 2900 1516 
L 2900 3500 
L 3475 3500 
L 3475 0 
L 2900 0 
L 2900 538 
Q 2691 219 2414 64 
Q 2138 -91 1772 -91 
Q 1169 -91 856 284 
Q 544 659 544 1381 
z
M 1991 3584 
L 1991 3584 
z
" transform="scale(0.015625)"/>
       <path id="DejaVuSans-6e" d="M 3513 2113 
L 3513 0 
L 2938 0 
L 2938 2094 
Q 2938 2591 2744 2837 
Q 2550 3084 2163 3084 
Q 1697 3084 1428 2787 
Q 1159 2491 1159 1978 
L 1159 0 
L 581 0 
L 581 3500 
L 1159 3500 
L 1159 2956 
Q 1366 3272 1645 3428 
Q 1925 3584 2291 3584 
Q 2894 3584 3203 3211 
Q 3513 2838 3513 2113 
z
" transform="scale(0.015625)"/>
       <path id="DejaVuSans-74" d="M 1172 4494 
L 1172 3500 
L 2356 3500 
L 2356 3053 
L 1172 3053 
L 1172 1153 
Q 1172 725 1289 603 
Q 1406 481 1766 481 
L 2356 481 
L 2356 0 
L 1766 0 
Q 1100 0 847 248 
Q 594 497 594 1153 
L 594 3053 
L 172 3053 
L 172 3500 
L 594 3500 
L 594 4494 
L 1172 4494 
z
" transform="scale(0.015625)"/>
      </defs>
      <use xlink:href="#DejaVuSans-43"/>
      <use xlink:href="#DejaVuSans-6f" x="69.824219"/>
      <use xlink:href="#DejaVuSans-75" x="131.005859"/>
      <use xlink:href="#DejaVuSans-6e" x="194.384766"/>
      <use xlink:href="#DejaVuSans-74" x="257.763672"/>
     </g>
    </g>
   </g>
   <g id="patch_184">
    <path d="M 53.328125 242.118437 
L 53.328125 20.798438 
" style="fill: none; stroke: #000000; stroke-width: 0.8; stroke-linejoin: miter; stroke-linecap: square"/>
   </g>
   <g id="patch_185">
    <path d="M 417.358125 242.118437 
L 417.358125 20.798438 
" style="fill: none; stroke: #000000; stroke-width: 0.8; stroke-linejoin: miter; stroke-linecap: square"/>
   </g>
   <g id="patch_186">
    <path d="M 53.328125 242.118437 
L 417.358125 242.118437 
" style="fill: none; stroke: #000000; stroke-width: 0.8; stroke-linejoin: miter; stroke-linecap: square"/>
   </g>
   <g id="patch_187">
    <path d="M 53.328125 20.798437 
L 417.358125 20.798437 
" style="fill: none; stroke: #000000; stroke-width: 0.8; stroke-linejoin: miter; stroke-linecap: square"/>
   </g>
   <g id="text_17">
    <!-- Distribution of Ca -->
    <g transform="translate(191.62125 14.798437) scale(0.1 -0.1)">
     <defs>
      <path id="DejaVuSans-44" d="M 1259 4147 
L 1259 519 
L 2022 519 
Q 2988 519 3436 956 
Q 3884 1394 3884 2338 
Q 3884 3275 3436 3711 
Q 2988 4147 2022 4147 
L 1259 4147 
z
M 628 4666 
L 1925 4666 
Q 3281 4666 3915 4102 
Q 4550 3538 4550 2338 
Q 4550 1131 3912 565 
Q 3275 0 1925 0 
L 628 0 
L 628 4666 
z
" transform="scale(0.015625)"/>
      <path id="DejaVuSans-69" d="M 603 3500 
L 1178 3500 
L 1178 0 
L 603 0 
L 603 3500 
z
M 603 4863 
L 1178 4863 
L 1178 4134 
L 603 4134 
L 603 4863 
z
" transform="scale(0.015625)"/>
      <path id="DejaVuSans-73" d="M 2834 3397 
L 2834 2853 
Q 2591 2978 2328 3040 
Q 2066 3103 1784 3103 
Q 1356 3103 1142 2972 
Q 928 2841 928 2578 
Q 928 2378 1081 2264 
Q 1234 2150 1697 2047 
L 1894 2003 
Q 2506 1872 2764 1633 
Q 3022 1394 3022 966 
Q 3022 478 2636 193 
Q 2250 -91 1575 -91 
Q 1294 -91 989 -36 
Q 684 19 347 128 
L 347 722 
Q 666 556 975 473 
Q 1284 391 1588 391 
Q 1994 391 2212 530 
Q 2431 669 2431 922 
Q 2431 1156 2273 1281 
Q 2116 1406 1581 1522 
L 1381 1569 
Q 847 1681 609 1914 
Q 372 2147 372 2553 
Q 372 3047 722 3315 
Q 1072 3584 1716 3584 
Q 2034 3584 2315 3537 
Q 2597 3491 2834 3397 
z
" transform="scale(0.015625)"/>
      <path id="DejaVuSans-72" d="M 2631 2963 
Q 2534 3019 2420 3045 
Q 2306 3072 2169 3072 
Q 1681 3072 1420 2755 
Q 1159 2438 1159 1844 
L 1159 0 
L 581 0 
L 581 3500 
L 1159 3500 
L 1159 2956 
Q 1341 3275 1631 3429 
Q 1922 3584 2338 3584 
Q 2397 3584 2469 3576 
Q 2541 3569 2628 3553 
L 2631 2963 
z
" transform="scale(0.015625)"/>
      <path id="DejaVuSans-62" d="M 3116 1747 
Q 3116 2381 2855 2742 
Q 2594 3103 2138 3103 
Q 1681 3103 1420 2742 
Q 1159 2381 1159 1747 
Q 1159 1113 1420 752 
Q 1681 391 2138 391 
Q 2594 391 2855 752 
Q 3116 1113 3116 1747 
z
M 1159 2969 
Q 1341 3281 1617 3432 
Q 1894 3584 2278 3584 
Q 2916 3584 3314 3078 
Q 3713 2572 3713 1747 
Q 3713 922 3314 415 
Q 2916 -91 2278 -91 
Q 1894 -91 1617 61 
Q 1341 213 1159 525 
L 1159 0 
L 581 0 
L 581 4863 
L 1159 4863 
L 1159 2969 
z
" transform="scale(0.015625)"/>
      <path id="DejaVuSans-20" transform="scale(0.015625)"/>
      <path id="DejaVuSans-66" d="M 2375 4863 
L 2375 4384 
L 1825 4384 
Q 1516 4384 1395 4259 
Q 1275 4134 1275 3809 
L 1275 3500 
L 2222 3500 
L 2222 3053 
L 1275 3053 
L 1275 0 
L 697 0 
L 697 3053 
L 147 3053 
L 147 3500 
L 697 3500 
L 697 3744 
Q 697 4328 969 4595 
Q 1241 4863 1831 4863 
L 2375 4863 
z
" transform="scale(0.015625)"/>
     </defs>
     <use xlink:href="#DejaVuSans-44"/>
     <use xlink:href="#DejaVuSans-69" x="77.001953"/>
     <use xlink:href="#DejaVuSans-73" x="104.785156"/>
     <use xlink:href="#DejaVuSans-74" x="156.884766"/>
     <use xlink:href="#DejaVuSans-72" x="196.09375"/>
     <use xlink:href="#DejaVuSans-69" x="237.207031"/>
     <use xlink:href="#DejaVuSans-62" x="264.990234"/>
     <use xlink:href="#DejaVuSans-75" x="328.466797"/>
     <use xlink:href="#DejaVuSans-74" x="391.845703"/>
     <use xlink:href="#DejaVuSans-69" x="431.054688"/>
     <use xlink:href="#DejaVuSans-6f" x="458.837891"/>
     <use xlink:href="#DejaVuSans-6e" x="520.019531"/>
     <use xlink:href="#DejaVuSans-20" x="583.398438"/>
     <use xlink:href="#DejaVuSans-6f" x="615.185547"/>
     <use xlink:href="#DejaVuSans-66" x="676.367188"/>
     <use xlink:href="#DejaVuSans-20" x="711.572266"/>
     <use xlink:href="#DejaVuSans-43" x="743.359375"/>
     <use xlink:href="#DejaVuSans-61" x="813.183594"/>
    </g>
   </g>
  </g>
 </g>
 <defs>
  <clipPath id="p3bf94da828">
   <rect x="53.328125" y="20.798437" width="364.03" height="221.32"/>
  </clipPath>
 </defs>
</svg>
