<?xml version="1.0" encoding="utf-8" standalone="no"?>
<!DOCTYPE svg PUBLIC "-//W3C//DTD SVG 1.1//EN"
  "http://www.w3.org/Graphics/SVG/1.1/DTD/svg11.dtd">
<svg xmlns:xlink="http://www.w3.org/1999/xlink" width="424.468125pt" height="279.674688pt" viewBox="0 0 424.468125 279.674688" xmlns="http://www.w3.org/2000/svg" version="1.1">
 <metadata>
  <rdf:RDF xmlns:dc="http://purl.org/dc/elements/1.1/" xmlns:cc="http://creativecommons.org/ns#" xmlns:rdf="http://www.w3.org/1999/02/22-rdf-syntax-ns#">
   <cc:Work>
    <dc:type rdf:resource="http://purl.org/dc/dcmitype/StillImage"/>
    <dc:date>2024-08-05T23:55:53.836340</dc:date>
    <dc:format>image/svg+xml</dc:format>
    <dc:creator>
     <cc:Agent>
      <dc:title>Matplotlib v3.9.0, https://matplotlib.org/</dc:title>
     </cc:Agent>
    </dc:creator>
   </cc:Work>
  </rdf:RDF>
 </metadata>
 <defs>
  <style type="text/css">*{stroke-linejoin: round; stroke-linecap: butt}</style>
 </defs>
 <g id="figure_1">
  <g id="patch_1">
   <path d="M 0 279.674688 
L 424.468125 279.674688 
L 424.468125 0 
L 0 0 
z
" style="fill: #ffffff"/>
  </g>
  <g id="axes_1">
   <g id="patch_2">
    <path d="M 53.328125 242.118437 
L 417.268125 242.118437 
L 417.268125 20.798437 
L 53.328125 20.798437 
z
" style="fill: #ffffff"/>
   </g>
   <g id="patch_3">
    <path d="M 69.870852 242.118437 
L 72.747848 242.118437 
L 72.747848 241.985871 
L 69.870852 241.985871 
z
" clip-path="url(#p56a6aee85a)" style="fill: #808080; stroke: #000000; stroke-width: 0.264664; stroke-linejoin: miter"/>
   </g>
   <g id="patch_4">
    <path d="M 72.747848 242.118437 
L 75.624844 242.118437 
L 75.624844 242.118437 
L 72.747848 242.118437 
z
" clip-path="url(#p56a6aee85a)" style="fill: #808080; stroke: #000000; stroke-width: 0.264664; stroke-linejoin: miter"/>
   </g>
   <g id="patch_5">
    <path d="M 75.624844 242.118437 
L 78.50184 242.118437 
L 78.50184 241.985871 
L 75.624844 241.985871 
z
" clip-path="url(#p56a6aee85a)" style="fill: #808080; stroke: #000000; stroke-width: 0.264664; stroke-linejoin: miter"/>
   </g>
   <g id="patch_6">
    <path d="M 78.50184 242.118437 
L 81.378836 242.118437 
L 81.378836 242.118437 
L 78.50184 242.118437 
z
" clip-path="url(#p56a6aee85a)" style="fill: #808080; stroke: #000000; stroke-width: 0.264664; stroke-linejoin: miter"/>
   </g>
   <g id="patch_7">
    <path d="M 81.378836 242.118437 
L 84.255833 242.118437 
L 84.255833 242.118437 
L 81.378836 242.118437 
z
" clip-path="url(#p56a6aee85a)" style="fill: #808080; stroke: #000000; stroke-width: 0.264664; stroke-linejoin: miter"/>
   </g>
   <g id="patch_8">
    <path d="M 84.255833 242.118437 
L 87.132829 242.118437 
L 87.132829 242.118437 
L 84.255833 242.118437 
z
" clip-path="url(#p56a6aee85a)" style="fill: #808080; stroke: #000000; stroke-width: 0.264664; stroke-linejoin: miter"/>
   </g>
   <g id="patch_9">
    <path d="M 87.132829 242.118437 
L 90.009825 242.118437 
L 90.009825 242.118437 
L 87.132829 242.118437 
z
" clip-path="url(#p56a6aee85a)" style="fill: #808080; stroke: #000000; stroke-width: 0.264664; stroke-linejoin: miter"/>
   </g>
   <g id="patch_10">
    <path d="M 90.009825 242.118437 
L 92.886821 242.118437 
L 92.886821 242.118437 
L 90.009825 242.118437 
z
" clip-path="url(#p56a6aee85a)" style="fill: #808080; stroke: #000000; stroke-width: 0.264664; stroke-linejoin: miter"/>
   </g>
   <g id="patch_11">
    <path d="M 92.886821 242.118437 
L 95.763817 242.118437 
L 95.763817 241.985871 
L 92.886821 241.985871 
z
" clip-path="url(#p56a6aee85a)" style="fill: #808080; stroke: #000000; stroke-width: 0.264664; stroke-linejoin: miter"/>
   </g>
   <g id="patch_12">
    <path d="M 95.763817 242.118437 
L 98.640813 242.118437 
L 98.640813 242.118437 
L 95.763817 242.118437 
z
" clip-path="url(#p56a6aee85a)" style="fill: #808080; stroke: #000000; stroke-width: 0.264664; stroke-linejoin: miter"/>
   </g>
   <g id="patch_13">
    <path d="M 98.640813 242.118437 
L 101.517809 242.118437 
L 101.517809 242.118437 
L 98.640813 242.118437 
z
" clip-path="url(#p56a6aee85a)" style="fill: #808080; stroke: #000000; stroke-width: 0.264664; stroke-linejoin: miter"/>
   </g>
   <g id="patch_14">
    <path d="M 101.517809 242.118437 
L 104.394805 242.118437 
L 104.394805 242.118437 
L 101.517809 242.118437 
z
" clip-path="url(#p56a6aee85a)" style="fill: #808080; stroke: #000000; stroke-width: 0.264664; stroke-linejoin: miter"/>
   </g>
   <g id="patch_15">
    <path d="M 104.394805 242.118437 
L 107.271801 242.118437 
L 107.271801 242.118437 
L 104.394805 242.118437 
z
" clip-path="url(#p56a6aee85a)" style="fill: #808080; stroke: #000000; stroke-width: 0.264664; stroke-linejoin: miter"/>
   </g>
   <g id="patch_16">
    <path d="M 107.271801 242.118437 
L 110.148797 242.118437 
L 110.148797 242.118437 
L 107.271801 242.118437 
z
" clip-path="url(#p56a6aee85a)" style="fill: #808080; stroke: #000000; stroke-width: 0.264664; stroke-linejoin: miter"/>
   </g>
   <g id="patch_17">
    <path d="M 110.148797 242.118437 
L 113.025793 242.118437 
L 113.025793 241.853304 
L 110.148797 241.853304 
z
" clip-path="url(#p56a6aee85a)" style="fill: #808080; stroke: #000000; stroke-width: 0.264664; stroke-linejoin: miter"/>
   </g>
   <g id="patch_18">
    <path d="M 113.025793 242.118437 
L 115.902789 242.118437 
L 115.902789 242.118437 
L 113.025793 242.118437 
z
" clip-path="url(#p56a6aee85a)" style="fill: #808080; stroke: #000000; stroke-width: 0.264664; stroke-linejoin: miter"/>
   </g>
   <g id="patch_19">
    <path d="M 115.902789 242.118437 
L 118.779785 242.118437 
L 118.779785 242.118437 
L 115.902789 242.118437 
z
" clip-path="url(#p56a6aee85a)" style="fill: #808080; stroke: #000000; stroke-width: 0.264664; stroke-linejoin: miter"/>
   </g>
   <g id="patch_20">
    <path d="M 118.779785 242.118437 
L 121.656781 242.118437 
L 121.656781 241.720738 
L 118.779785 241.720738 
z
" clip-path="url(#p56a6aee85a)" style="fill: #808080; stroke: #000000; stroke-width: 0.264664; stroke-linejoin: miter"/>
   </g>
   <g id="patch_21">
    <path d="M 121.656781 242.118437 
L 124.533777 242.118437 
L 124.533777 242.118437 
L 121.656781 242.118437 
z
" clip-path="url(#p56a6aee85a)" style="fill: #808080; stroke: #000000; stroke-width: 0.264664; stroke-linejoin: miter"/>
   </g>
   <g id="patch_22">
    <path d="M 124.533777 242.118437 
L 127.410773 242.118437 
L 127.410773 241.057904 
L 124.533777 241.057904 
z
" clip-path="url(#p56a6aee85a)" style="fill: #808080; stroke: #000000; stroke-width: 0.264664; stroke-linejoin: miter"/>
   </g>
   <g id="patch_23">
    <path d="M 127.410773 242.118437 
L 130.287769 242.118437 
L 130.287769 242.118437 
L 127.410773 242.118437 
z
" clip-path="url(#p56a6aee85a)" style="fill: #808080; stroke: #000000; stroke-width: 0.264664; stroke-linejoin: miter"/>
   </g>
   <g id="patch_24">
    <path d="M 130.287769 242.118437 
L 133.164765 242.118437 
L 133.164765 241.190471 
L 130.287769 241.190471 
z
" clip-path="url(#p56a6aee85a)" style="fill: #808080; stroke: #000000; stroke-width: 0.264664; stroke-linejoin: miter"/>
   </g>
   <g id="patch_25">
    <path d="M 133.164765 242.118437 
L 136.041761 242.118437 
L 136.041761 242.118437 
L 133.164765 242.118437 
z
" clip-path="url(#p56a6aee85a)" style="fill: #808080; stroke: #000000; stroke-width: 0.264664; stroke-linejoin: miter"/>
   </g>
   <g id="patch_26">
    <path d="M 136.041761 242.118437 
L 138.918757 242.118437 
L 138.918757 240.660204 
L 136.041761 240.660204 
z
" clip-path="url(#p56a6aee85a)" style="fill: #808080; stroke: #000000; stroke-width: 0.264664; stroke-linejoin: miter"/>
   </g>
   <g id="patch_27">
    <path d="M 138.918757 242.118437 
L 141.795753 242.118437 
L 141.795753 242.118437 
L 138.918757 242.118437 
z
" clip-path="url(#p56a6aee85a)" style="fill: #808080; stroke: #000000; stroke-width: 0.264664; stroke-linejoin: miter"/>
   </g>
   <g id="patch_28">
    <path d="M 141.795753 242.118437 
L 144.67275 242.118437 
L 144.67275 239.997371 
L 141.795753 239.997371 
z
" clip-path="url(#p56a6aee85a)" style="fill: #808080; stroke: #000000; stroke-width: 0.264664; stroke-linejoin: miter"/>
   </g>
   <g id="patch_29">
    <path d="M 144.67275 242.118437 
L 147.549746 242.118437 
L 147.549746 242.118437 
L 144.67275 242.118437 
z
" clip-path="url(#p56a6aee85a)" style="fill: #808080; stroke: #000000; stroke-width: 0.264664; stroke-linejoin: miter"/>
   </g>
   <g id="patch_30">
    <path d="M 147.549746 242.118437 
L 150.426742 242.118437 
L 150.426742 239.467105 
L 147.549746 239.467105 
z
" clip-path="url(#p56a6aee85a)" style="fill: #808080; stroke: #000000; stroke-width: 0.264664; stroke-linejoin: miter"/>
   </g>
   <g id="patch_31">
    <path d="M 150.426742 242.118437 
L 153.303738 242.118437 
L 153.303738 242.118437 
L 150.426742 242.118437 
z
" clip-path="url(#p56a6aee85a)" style="fill: #808080; stroke: #000000; stroke-width: 0.264664; stroke-linejoin: miter"/>
   </g>
   <g id="patch_32">
    <path d="M 153.303738 242.118437 
L 156.180734 242.118437 
L 156.180734 237.876305 
L 153.303738 237.876305 
z
" clip-path="url(#p56a6aee85a)" style="fill: #808080; stroke: #000000; stroke-width: 0.264664; stroke-linejoin: miter"/>
   </g>
   <g id="patch_33">
    <path d="M 156.180734 242.118437 
L 159.05773 242.118437 
L 159.05773 242.118437 
L 156.180734 242.118437 
z
" clip-path="url(#p56a6aee85a)" style="fill: #808080; stroke: #000000; stroke-width: 0.264664; stroke-linejoin: miter"/>
   </g>
   <g id="patch_34">
    <path d="M 159.05773 242.118437 
L 161.934726 242.118437 
L 161.934726 237.743738 
L 159.05773 237.743738 
z
" clip-path="url(#p56a6aee85a)" style="fill: #808080; stroke: #000000; stroke-width: 0.264664; stroke-linejoin: miter"/>
   </g>
   <g id="patch_35">
    <path d="M 161.934726 242.118437 
L 164.811722 242.118437 
L 164.811722 242.118437 
L 161.934726 242.118437 
z
" clip-path="url(#p56a6aee85a)" style="fill: #808080; stroke: #000000; stroke-width: 0.264664; stroke-linejoin: miter"/>
   </g>
   <g id="patch_36">
    <path d="M 164.811722 242.118437 
L 167.688718 242.118437 
L 167.688718 242.118437 
L 164.811722 242.118437 
z
" clip-path="url(#p56a6aee85a)" style="fill: #808080; stroke: #000000; stroke-width: 0.264664; stroke-linejoin: miter"/>
   </g>
   <g id="patch_37">
    <path d="M 167.688718 242.118437 
L 170.565714 242.118437 
L 170.565714 237.743738 
L 167.688718 237.743738 
z
" clip-path="url(#p56a6aee85a)" style="fill: #808080; stroke: #000000; stroke-width: 0.264664; stroke-linejoin: miter"/>
   </g>
   <g id="patch_38">
    <path d="M 170.565714 242.118437 
L 173.44271 242.118437 
L 173.44271 242.118437 
L 170.565714 242.118437 
z
" clip-path="url(#p56a6aee85a)" style="fill: #808080; stroke: #000000; stroke-width: 0.264664; stroke-linejoin: miter"/>
   </g>
   <g id="patch_39">
    <path d="M 173.44271 242.118437 
L 176.319706 242.118437 
L 176.319706 235.224972 
L 173.44271 235.224972 
z
" clip-path="url(#p56a6aee85a)" style="fill: #808080; stroke: #000000; stroke-width: 0.264664; stroke-linejoin: miter"/>
   </g>
   <g id="patch_40">
    <path d="M 176.319706 242.118437 
L 179.196702 242.118437 
L 179.196702 242.118437 
L 176.319706 242.118437 
z
" clip-path="url(#p56a6aee85a)" style="fill: #808080; stroke: #000000; stroke-width: 0.264664; stroke-linejoin: miter"/>
   </g>
   <g id="patch_41">
    <path d="M 179.196702 242.118437 
L 182.073698 242.118437 
L 182.073698 234.959839 
L 179.196702 234.959839 
z
" clip-path="url(#p56a6aee85a)" style="fill: #808080; stroke: #000000; stroke-width: 0.264664; stroke-linejoin: miter"/>
   </g>
   <g id="patch_42">
    <path d="M 182.073698 242.118437 
L 184.950694 242.118437 
L 184.950694 242.118437 
L 182.073698 242.118437 
z
" clip-path="url(#p56a6aee85a)" style="fill: #808080; stroke: #000000; stroke-width: 0.264664; stroke-linejoin: miter"/>
   </g>
   <g id="patch_43">
    <path d="M 184.950694 242.118437 
L 187.82769 242.118437 
L 187.82769 232.97134 
L 184.950694 232.97134 
z
" clip-path="url(#p56a6aee85a)" style="fill: #808080; stroke: #000000; stroke-width: 0.264664; stroke-linejoin: miter"/>
   </g>
   <g id="patch_44">
    <path d="M 187.82769 242.118437 
L 190.704686 242.118437 
L 190.704686 242.118437 
L 187.82769 242.118437 
z
" clip-path="url(#p56a6aee85a)" style="fill: #808080; stroke: #000000; stroke-width: 0.264664; stroke-linejoin: miter"/>
   </g>
   <g id="patch_45">
    <path d="M 190.704686 242.118437 
L 193.581682 242.118437 
L 193.581682 233.236473 
L 190.704686 233.236473 
z
" clip-path="url(#p56a6aee85a)" style="fill: #808080; stroke: #000000; stroke-width: 0.264664; stroke-linejoin: miter"/>
   </g>
   <g id="patch_46">
    <path d="M 193.581682 242.118437 
L 196.458678 242.118437 
L 196.458678 242.118437 
L 193.581682 242.118437 
z
" clip-path="url(#p56a6aee85a)" style="fill: #808080; stroke: #000000; stroke-width: 0.264664; stroke-linejoin: miter"/>
   </g>
   <g id="patch_47">
    <path d="M 196.458678 242.118437 
L 199.335674 242.118437 
L 199.335674 229.78974 
L 196.458678 229.78974 
z
" clip-path="url(#p56a6aee85a)" style="fill: #808080; stroke: #000000; stroke-width: 0.264664; stroke-linejoin: miter"/>
   </g>
   <g id="patch_48">
    <path d="M 199.335674 242.118437 
L 202.21267 242.118437 
L 202.21267 242.118437 
L 199.335674 242.118437 
z
" clip-path="url(#p56a6aee85a)" style="fill: #808080; stroke: #000000; stroke-width: 0.264664; stroke-linejoin: miter"/>
   </g>
   <g id="patch_49">
    <path d="M 202.21267 242.118437 
L 205.089667 242.118437 
L 205.089667 228.596641 
L 202.21267 228.596641 
z
" clip-path="url(#p56a6aee85a)" style="fill: #808080; stroke: #000000; stroke-width: 0.264664; stroke-linejoin: miter"/>
   </g>
   <g id="patch_50">
    <path d="M 205.089667 242.118437 
L 207.966663 242.118437 
L 207.966663 242.118437 
L 205.089667 242.118437 
z
" clip-path="url(#p56a6aee85a)" style="fill: #808080; stroke: #000000; stroke-width: 0.264664; stroke-linejoin: miter"/>
   </g>
   <g id="patch_51">
    <path d="M 207.966663 242.118437 
L 210.843659 242.118437 
L 210.843659 228.331507 
L 207.966663 228.331507 
z
" clip-path="url(#p56a6aee85a)" style="fill: #808080; stroke: #000000; stroke-width: 0.264664; stroke-linejoin: miter"/>
   </g>
   <g id="patch_52">
    <path d="M 210.843659 242.118437 
L 213.720655 242.118437 
L 213.720655 242.118437 
L 210.843659 242.118437 
z
" clip-path="url(#p56a6aee85a)" style="fill: #808080; stroke: #000000; stroke-width: 0.264664; stroke-linejoin: miter"/>
   </g>
   <g id="patch_53">
    <path d="M 213.720655 242.118437 
L 216.597651 242.118437 
L 216.597651 242.118437 
L 213.720655 242.118437 
z
" clip-path="url(#p56a6aee85a)" style="fill: #808080; stroke: #000000; stroke-width: 0.264664; stroke-linejoin: miter"/>
   </g>
   <g id="patch_54">
    <path d="M 216.597651 242.118437 
L 219.474647 242.118437 
L 219.474647 226.475574 
L 216.597651 226.475574 
z
" clip-path="url(#p56a6aee85a)" style="fill: #808080; stroke: #000000; stroke-width: 0.264664; stroke-linejoin: miter"/>
   </g>
   <g id="patch_55">
    <path d="M 219.474647 242.118437 
L 222.351643 242.118437 
L 222.351643 242.118437 
L 219.474647 242.118437 
z
" clip-path="url(#p56a6aee85a)" style="fill: #808080; stroke: #000000; stroke-width: 0.264664; stroke-linejoin: miter"/>
   </g>
   <g id="patch_56">
    <path d="M 222.351643 242.118437 
L 225.228639 242.118437 
L 225.228639 224.619641 
L 222.351643 224.619641 
z
" clip-path="url(#p56a6aee85a)" style="fill: #808080; stroke: #000000; stroke-width: 0.264664; stroke-linejoin: miter"/>
   </g>
   <g id="patch_57">
    <path d="M 225.228639 242.118437 
L 228.105635 242.118437 
L 228.105635 242.118437 
L 225.228639 242.118437 
z
" clip-path="url(#p56a6aee85a)" style="fill: #808080; stroke: #000000; stroke-width: 0.264664; stroke-linejoin: miter"/>
   </g>
   <g id="patch_58">
    <path d="M 228.105635 242.118437 
L 230.982631 242.118437 
L 230.982631 224.884775 
L 228.105635 224.884775 
z
" clip-path="url(#p56a6aee85a)" style="fill: #808080; stroke: #000000; stroke-width: 0.264664; stroke-linejoin: miter"/>
   </g>
   <g id="patch_59">
    <path d="M 230.982631 242.118437 
L 233.859627 242.118437 
L 233.859627 242.118437 
L 230.982631 242.118437 
z
" clip-path="url(#p56a6aee85a)" style="fill: #808080; stroke: #000000; stroke-width: 0.264664; stroke-linejoin: miter"/>
   </g>
   <g id="patch_60">
    <path d="M 233.859627 242.118437 
L 236.736623 242.118437 
L 236.736623 222.763709 
L 233.859627 222.763709 
z
" clip-path="url(#p56a6aee85a)" style="fill: #808080; stroke: #000000; stroke-width: 0.264664; stroke-linejoin: miter"/>
   </g>
   <g id="patch_61">
    <path d="M 236.736623 242.118437 
L 239.613619 242.118437 
L 239.613619 242.118437 
L 236.736623 242.118437 
z
" clip-path="url(#p56a6aee85a)" style="fill: #808080; stroke: #000000; stroke-width: 0.264664; stroke-linejoin: miter"/>
   </g>
   <g id="patch_62">
    <path d="M 239.613619 242.118437 
L 242.490615 242.118437 
L 242.490615 221.305476 
L 239.613619 221.305476 
z
" clip-path="url(#p56a6aee85a)" style="fill: #808080; stroke: #000000; stroke-width: 0.264664; stroke-linejoin: miter"/>
   </g>
   <g id="patch_63">
    <path d="M 242.490615 242.118437 
L 245.367611 242.118437 
L 245.367611 242.118437 
L 242.490615 242.118437 
z
" clip-path="url(#p56a6aee85a)" style="fill: #808080; stroke: #000000; stroke-width: 0.264664; stroke-linejoin: miter"/>
   </g>
   <g id="patch_64">
    <path d="M 245.367611 242.118437 
L 248.244607 242.118437 
L 248.244607 212.688644 
L 245.367611 212.688644 
z
" clip-path="url(#p56a6aee85a)" style="fill: #808080; stroke: #000000; stroke-width: 0.264664; stroke-linejoin: miter"/>
   </g>
   <g id="patch_65">
    <path d="M 248.244607 242.118437 
L 251.121603 242.118437 
L 251.121603 242.118437 
L 248.244607 242.118437 
z
" clip-path="url(#p56a6aee85a)" style="fill: #808080; stroke: #000000; stroke-width: 0.264664; stroke-linejoin: miter"/>
   </g>
   <g id="patch_66">
    <path d="M 251.121603 242.118437 
L 253.998599 242.118437 
L 253.998599 206.192879 
L 251.121603 206.192879 
z
" clip-path="url(#p56a6aee85a)" style="fill: #808080; stroke: #000000; stroke-width: 0.264664; stroke-linejoin: miter"/>
   </g>
   <g id="patch_67">
    <path d="M 253.998599 242.118437 
L 256.875595 242.118437 
L 256.875595 242.118437 
L 253.998599 242.118437 
z
" clip-path="url(#p56a6aee85a)" style="fill: #808080; stroke: #000000; stroke-width: 0.264664; stroke-linejoin: miter"/>
   </g>
   <g id="patch_68">
    <path d="M 256.875595 242.118437 
L 259.752591 242.118437 
L 259.752591 242.118437 
L 256.875595 242.118437 
z
" clip-path="url(#p56a6aee85a)" style="fill: #808080; stroke: #000000; stroke-width: 0.264664; stroke-linejoin: miter"/>
   </g>
   <g id="patch_69">
    <path d="M 259.752591 242.118437 
L 262.629587 242.118437 
L 262.629587 198.238881 
L 259.752591 198.238881 
z
" clip-path="url(#p56a6aee85a)" style="fill: #808080; stroke: #000000; stroke-width: 0.264664; stroke-linejoin: miter"/>
   </g>
   <g id="patch_70">
    <path d="M 262.629587 242.118437 
L 265.506583 242.118437 
L 265.506583 242.118437 
L 262.629587 242.118437 
z
" clip-path="url(#p56a6aee85a)" style="fill: #808080; stroke: #000000; stroke-width: 0.264664; stroke-linejoin: miter"/>
   </g>
   <g id="patch_71">
    <path d="M 265.506583 242.118437 
L 268.38358 242.118437 
L 268.38358 188.82665 
L 265.506583 188.82665 
z
" clip-path="url(#p56a6aee85a)" style="fill: #808080; stroke: #000000; stroke-width: 0.264664; stroke-linejoin: miter"/>
   </g>
   <g id="patch_72">
    <path d="M 268.38358 242.118437 
L 271.260576 242.118437 
L 271.260576 242.118437 
L 268.38358 242.118437 
z
" clip-path="url(#p56a6aee85a)" style="fill: #808080; stroke: #000000; stroke-width: 0.264664; stroke-linejoin: miter"/>
   </g>
   <g id="patch_73">
    <path d="M 271.260576 242.118437 
L 274.137572 242.118437 
L 274.137572 179.149285 
L 271.260576 179.149285 
z
" clip-path="url(#p56a6aee85a)" style="fill: #808080; stroke: #000000; stroke-width: 0.264664; stroke-linejoin: miter"/>
   </g>
   <g id="patch_74">
    <path d="M 274.137572 242.118437 
L 277.014568 242.118437 
L 277.014568 242.118437 
L 274.137572 242.118437 
z
" clip-path="url(#p56a6aee85a)" style="fill: #808080; stroke: #000000; stroke-width: 0.264664; stroke-linejoin: miter"/>
   </g>
   <g id="patch_75">
    <path d="M 277.014568 242.118437 
L 279.891564 242.118437 
L 279.891564 163.506422 
L 277.014568 163.506422 
z
" clip-path="url(#p56a6aee85a)" style="fill: #808080; stroke: #000000; stroke-width: 0.264664; stroke-linejoin: miter"/>
   </g>
   <g id="patch_76">
    <path d="M 279.891564 242.118437 
L 282.76856 242.118437 
L 282.76856 242.118437 
L 279.891564 242.118437 
z
" clip-path="url(#p56a6aee85a)" style="fill: #808080; stroke: #000000; stroke-width: 0.264664; stroke-linejoin: miter"/>
   </g>
   <g id="patch_77">
    <path d="M 282.76856 242.118437 
L 285.645556 242.118437 
L 285.645556 140.174694 
L 282.76856 140.174694 
z
" clip-path="url(#p56a6aee85a)" style="fill: #808080; stroke: #000000; stroke-width: 0.264664; stroke-linejoin: miter"/>
   </g>
   <g id="patch_78">
    <path d="M 285.645556 242.118437 
L 288.522552 242.118437 
L 288.522552 242.118437 
L 285.645556 242.118437 
z
" clip-path="url(#p56a6aee85a)" style="fill: #808080; stroke: #000000; stroke-width: 0.264664; stroke-linejoin: miter"/>
   </g>
   <g id="patch_79">
    <path d="M 288.522552 242.118437 
L 291.399548 242.118437 
L 291.399548 108.226134 
L 288.522552 108.226134 
z
" clip-path="url(#p56a6aee85a)" style="fill: #808080; stroke: #000000; stroke-width: 0.264664; stroke-linejoin: miter"/>
   </g>
   <g id="patch_80">
    <path d="M 291.399548 242.118437 
L 294.276544 242.118437 
L 294.276544 242.118437 
L 291.399548 242.118437 
z
" clip-path="url(#p56a6aee85a)" style="fill: #808080; stroke: #000000; stroke-width: 0.264664; stroke-linejoin: miter"/>
   </g>
   <g id="patch_81">
    <path d="M 294.276544 242.118437 
L 297.15354 242.118437 
L 297.15354 78.000941 
L 294.276544 78.000941 
z
" clip-path="url(#p56a6aee85a)" style="fill: #808080; stroke: #000000; stroke-width: 0.264664; stroke-linejoin: miter"/>
   </g>
   <g id="patch_82">
    <path d="M 297.15354 242.118437 
L 300.030536 242.118437 
L 300.030536 242.118437 
L 297.15354 242.118437 
z
" clip-path="url(#p56a6aee85a)" style="fill: #808080; stroke: #000000; stroke-width: 0.264664; stroke-linejoin: miter"/>
   </g>
   <g id="patch_83">
    <path d="M 300.030536 242.118437 
L 302.907532 242.118437 
L 302.907532 44.461582 
L 300.030536 44.461582 
z
" clip-path="url(#p56a6aee85a)" style="fill: #808080; stroke: #000000; stroke-width: 0.264664; stroke-linejoin: miter"/>
   </g>
   <g id="patch_84">
    <path d="M 302.907532 242.118437 
L 305.784528 242.118437 
L 305.784528 242.118437 
L 302.907532 242.118437 
z
" clip-path="url(#p56a6aee85a)" style="fill: #808080; stroke: #000000; stroke-width: 0.264664; stroke-linejoin: miter"/>
   </g>
   <g id="patch_85">
    <path d="M 305.784528 242.118437 
L 308.661524 242.118437 
L 308.661524 242.118437 
L 305.784528 242.118437 
z
" clip-path="url(#p56a6aee85a)" style="fill: #808080; stroke: #000000; stroke-width: 0.264664; stroke-linejoin: miter"/>
   </g>
   <g id="patch_86">
    <path d="M 308.661524 242.118437 
L 311.53852 242.118437 
L 311.53852 35.447051 
L 308.661524 35.447051 
z
" clip-path="url(#p56a6aee85a)" style="fill: #808080; stroke: #000000; stroke-width: 0.264664; stroke-linejoin: miter"/>
   </g>
   <g id="patch_87">
    <path d="M 311.53852 242.118437 
L 314.415516 242.118437 
L 314.415516 242.118437 
L 311.53852 242.118437 
z
" clip-path="url(#p56a6aee85a)" style="fill: #808080; stroke: #000000; stroke-width: 0.264664; stroke-linejoin: miter"/>
   </g>
   <g id="patch_88">
    <path d="M 314.415516 242.118437 
L 317.292512 242.118437 
L 317.292512 31.337485 
L 314.415516 31.337485 
z
" clip-path="url(#p56a6aee85a)" style="fill: #808080; stroke: #000000; stroke-width: 0.264664; stroke-linejoin: miter"/>
   </g>
   <g id="patch_89">
    <path d="M 317.292512 242.118437 
L 320.169508 242.118437 
L 320.169508 242.118437 
L 317.292512 242.118437 
z
" clip-path="url(#p56a6aee85a)" style="fill: #808080; stroke: #000000; stroke-width: 0.264664; stroke-linejoin: miter"/>
   </g>
   <g id="patch_90">
    <path d="M 320.169508 242.118437 
L 323.046504 242.118437 
L 323.046504 44.329016 
L 320.169508 44.329016 
z
" clip-path="url(#p56a6aee85a)" style="fill: #808080; stroke: #000000; stroke-width: 0.264664; stroke-linejoin: miter"/>
   </g>
   <g id="patch_91">
    <path d="M 323.046504 242.118437 
L 325.9235 242.118437 
L 325.9235 242.118437 
L 323.046504 242.118437 
z
" clip-path="url(#p56a6aee85a)" style="fill: #808080; stroke: #000000; stroke-width: 0.264664; stroke-linejoin: miter"/>
   </g>
   <g id="patch_92">
    <path d="M 325.9235 242.118437 
L 328.800497 242.118437 
L 328.800497 73.626242 
L 325.9235 73.626242 
z
" clip-path="url(#p56a6aee85a)" style="fill: #808080; stroke: #000000; stroke-width: 0.264664; stroke-linejoin: miter"/>
   </g>
   <g id="patch_93">
    <path d="M 328.800497 242.118437 
L 331.677493 242.118437 
L 331.677493 242.118437 
L 328.800497 242.118437 
z
" clip-path="url(#p56a6aee85a)" style="fill: #808080; stroke: #000000; stroke-width: 0.264664; stroke-linejoin: miter"/>
   </g>
   <g id="patch_94">
    <path d="M 331.677493 242.118437 
L 334.554489 242.118437 
L 334.554489 113.793933 
L 331.677493 113.793933 
z
" clip-path="url(#p56a6aee85a)" style="fill: #808080; stroke: #000000; stroke-width: 0.264664; stroke-linejoin: miter"/>
   </g>
   <g id="patch_95">
    <path d="M 334.554489 242.118437 
L 337.431485 242.118437 
L 337.431485 242.118437 
L 334.554489 242.118437 
z
" clip-path="url(#p56a6aee85a)" style="fill: #808080; stroke: #000000; stroke-width: 0.264664; stroke-linejoin: miter"/>
   </g>
   <g id="patch_96">
    <path d="M 337.431485 242.118437 
L 340.308481 242.118437 
L 340.308481 158.336323 
L 337.431485 158.336323 
z
" clip-path="url(#p56a6aee85a)" style="fill: #808080; stroke: #000000; stroke-width: 0.264664; stroke-linejoin: miter"/>
   </g>
   <g id="patch_97">
    <path d="M 340.308481 242.118437 
L 343.185477 242.118437 
L 343.185477 242.118437 
L 340.308481 242.118437 
z
" clip-path="url(#p56a6aee85a)" style="fill: #808080; stroke: #000000; stroke-width: 0.264664; stroke-linejoin: miter"/>
   </g>
   <g id="patch_98">
    <path d="M 343.185477 242.118437 
L 346.062473 242.118437 
L 346.062473 185.512484 
L 343.185477 185.512484 
z
" clip-path="url(#p56a6aee85a)" style="fill: #808080; stroke: #000000; stroke-width: 0.264664; stroke-linejoin: miter"/>
   </g>
   <g id="patch_99">
    <path d="M 346.062473 242.118437 
L 348.939469 242.118437 
L 348.939469 242.118437 
L 346.062473 242.118437 
z
" clip-path="url(#p56a6aee85a)" style="fill: #808080; stroke: #000000; stroke-width: 0.264664; stroke-linejoin: miter"/>
   </g>
   <g id="patch_100">
    <path d="M 348.939469 242.118437 
L 351.816465 242.118437 
L 351.816465 206.192879 
L 348.939469 206.192879 
z
" clip-path="url(#p56a6aee85a)" style="fill: #808080; stroke: #000000; stroke-width: 0.264664; stroke-linejoin: miter"/>
   </g>
   <g id="patch_101">
    <path d="M 351.816465 242.118437 
L 354.693461 242.118437 
L 354.693461 242.118437 
L 351.816465 242.118437 
z
" clip-path="url(#p56a6aee85a)" style="fill: #808080; stroke: #000000; stroke-width: 0.264664; stroke-linejoin: miter"/>
   </g>
   <g id="patch_102">
    <path d="M 354.693461 242.118437 
L 357.570457 242.118437 
L 357.570457 242.118437 
L 354.693461 242.118437 
z
" clip-path="url(#p56a6aee85a)" style="fill: #808080; stroke: #000000; stroke-width: 0.264664; stroke-linejoin: miter"/>
   </g>
   <g id="patch_103">
    <path d="M 357.570457 242.118437 
L 360.447453 242.118437 
L 360.447453 228.464074 
L 357.570457 228.464074 
z
" clip-path="url(#p56a6aee85a)" style="fill: #808080; stroke: #000000; stroke-width: 0.264664; stroke-linejoin: miter"/>
   </g>
   <g id="patch_104">
    <path d="M 360.447453 242.118437 
L 363.324449 242.118437 
L 363.324449 242.118437 
L 360.447453 242.118437 
z
" clip-path="url(#p56a6aee85a)" style="fill: #808080; stroke: #000000; stroke-width: 0.264664; stroke-linejoin: miter"/>
   </g>
   <g id="patch_105">
    <path d="M 363.324449 242.118437 
L 366.201445 242.118437 
L 366.201445 233.899306 
L 363.324449 233.899306 
z
" clip-path="url(#p56a6aee85a)" style="fill: #808080; stroke: #000000; stroke-width: 0.264664; stroke-linejoin: miter"/>
   </g>
   <g id="patch_106">
    <path d="M 366.201445 242.118437 
L 369.078441 242.118437 
L 369.078441 242.118437 
L 366.201445 242.118437 
z
" clip-path="url(#p56a6aee85a)" style="fill: #808080; stroke: #000000; stroke-width: 0.264664; stroke-linejoin: miter"/>
   </g>
   <g id="patch_107">
    <path d="M 369.078441 242.118437 
L 371.955437 242.118437 
L 371.955437 237.478605 
L 369.078441 237.478605 
z
" clip-path="url(#p56a6aee85a)" style="fill: #808080; stroke: #000000; stroke-width: 0.264664; stroke-linejoin: miter"/>
   </g>
   <g id="patch_108">
    <path d="M 371.955437 242.118437 
L 374.832433 242.118437 
L 374.832433 242.118437 
L 371.955437 242.118437 
z
" clip-path="url(#p56a6aee85a)" style="fill: #808080; stroke: #000000; stroke-width: 0.264664; stroke-linejoin: miter"/>
   </g>
   <g id="patch_109">
    <path d="M 374.832433 242.118437 
L 377.709429 242.118437 
L 377.709429 240.925338 
L 374.832433 240.925338 
z
" clip-path="url(#p56a6aee85a)" style="fill: #808080; stroke: #000000; stroke-width: 0.264664; stroke-linejoin: miter"/>
   </g>
   <g id="patch_110">
    <path d="M 377.709429 242.118437 
L 380.586425 242.118437 
L 380.586425 242.118437 
L 377.709429 242.118437 
z
" clip-path="url(#p56a6aee85a)" style="fill: #808080; stroke: #000000; stroke-width: 0.264664; stroke-linejoin: miter"/>
   </g>
   <g id="patch_111">
    <path d="M 380.586425 242.118437 
L 383.463421 242.118437 
L 383.463421 241.588171 
L 380.586425 241.588171 
z
" clip-path="url(#p56a6aee85a)" style="fill: #808080; stroke: #000000; stroke-width: 0.264664; stroke-linejoin: miter"/>
   </g>
   <g id="patch_112">
    <path d="M 383.463421 242.118437 
L 386.340417 242.118437 
L 386.340417 242.118437 
L 383.463421 242.118437 
z
" clip-path="url(#p56a6aee85a)" style="fill: #808080; stroke: #000000; stroke-width: 0.264664; stroke-linejoin: miter"/>
   </g>
   <g id="patch_113">
    <path d="M 386.340417 242.118437 
L 389.217414 242.118437 
L 389.217414 241.985871 
L 386.340417 241.985871 
z
" clip-path="url(#p56a6aee85a)" style="fill: #808080; stroke: #000000; stroke-width: 0.264664; stroke-linejoin: miter"/>
   </g>
   <g id="patch_114">
    <path d="M 389.217414 242.118437 
L 392.09441 242.118437 
L 392.09441 242.118437 
L 389.217414 242.118437 
z
" clip-path="url(#p56a6aee85a)" style="fill: #808080; stroke: #000000; stroke-width: 0.264664; stroke-linejoin: miter"/>
   </g>
   <g id="patch_115">
    <path d="M 392.09441 242.118437 
L 394.971406 242.118437 
L 394.971406 242.118437 
L 392.09441 242.118437 
z
" clip-path="url(#p56a6aee85a)" style="fill: #808080; stroke: #000000; stroke-width: 0.264664; stroke-linejoin: miter"/>
   </g>
   <g id="patch_116">
    <path d="M 394.971406 242.118437 
L 397.848402 242.118437 
L 397.848402 242.118437 
L 394.971406 242.118437 
z
" clip-path="url(#p56a6aee85a)" style="fill: #808080; stroke: #000000; stroke-width: 0.264664; stroke-linejoin: miter"/>
   </g>
   <g id="patch_117">
    <path d="M 397.848402 242.118437 
L 400.725398 242.118437 
L 400.725398 241.985871 
L 397.848402 241.985871 
z
" clip-path="url(#p56a6aee85a)" style="fill: #808080; stroke: #000000; stroke-width: 0.264664; stroke-linejoin: miter"/>
   </g>
   <g id="matplotlib.axis_1">
    <g id="xtick_1">
     <g id="line2d_1">
      <defs>
       <path id="meb39178c1e" d="M 0 0 
L 0 3.5 
" style="stroke: #000000; stroke-width: 0.8"/>
      </defs>
      <g>
       <use xlink:href="#meb39178c1e" x="112.759404" y="242.118437" style="stroke: #000000; stroke-width: 0.8"/>
      </g>
     </g>
     <g id="text_1">
      <!-- 1 -->
      <g transform="translate(109.578154 256.716875) scale(0.1 -0.1)">
       <defs>
        <path id="DejaVuSans-31" d="M 794 531 
L 1825 531 
L 1825 4091 
L 703 3866 
L 703 4441 
L 1819 4666 
L 2450 4666 
L 2450 531 
L 3481 531 
L 3481 0 
L 794 0 
L 794 531 
z
" transform="scale(0.015625)"/>
       </defs>
       <use xlink:href="#DejaVuSans-31"/>
      </g>
     </g>
    </g>
    <g id="xtick_2">
     <g id="line2d_2">
      <g>
       <use xlink:href="#meb39178c1e" x="174.028765" y="242.118437" style="stroke: #000000; stroke-width: 0.8"/>
      </g>
     </g>
     <g id="text_2">
      <!-- 2 -->
      <g transform="translate(170.847515 256.716875) scale(0.1 -0.1)">
       <defs>
        <path id="DejaVuSans-32" d="M 1228 531 
L 3431 531 
L 3431 0 
L 469 0 
L 469 531 
Q 828 903 1448 1529 
Q 2069 2156 2228 2338 
Q 2531 2678 2651 2914 
Q 2772 3150 2772 3378 
Q 2772 3750 2511 3984 
Q 2250 4219 1831 4219 
Q 1534 4219 1204 4116 
Q 875 4013 500 3803 
L 500 4441 
Q 881 4594 1212 4672 
Q 1544 4750 1819 4750 
Q 2544 4750 2975 4387 
Q 3406 4025 3406 3419 
Q 3406 3131 3298 2873 
Q 3191 2616 2906 2266 
Q 2828 2175 2409 1742 
Q 1991 1309 1228 531 
z
" transform="scale(0.015625)"/>
       </defs>
       <use xlink:href="#DejaVuSans-32"/>
      </g>
     </g>
    </g>
    <g id="xtick_3">
     <g id="line2d_3">
      <g>
       <use xlink:href="#meb39178c1e" x="235.298125" y="242.118437" style="stroke: #000000; stroke-width: 0.8"/>
      </g>
     </g>
     <g id="text_3">
      <!-- 3 -->
      <g transform="translate(232.116875 256.716875) scale(0.1 -0.1)">
       <defs>
        <path id="DejaVuSans-33" d="M 2597 2516 
Q 3050 2419 3304 2112 
Q 3559 1806 3559 1356 
Q 3559 666 3084 287 
Q 2609 -91 1734 -91 
Q 1441 -91 1130 -33 
Q 819 25 488 141 
L 488 750 
Q 750 597 1062 519 
Q 1375 441 1716 441 
Q 2309 441 2620 675 
Q 2931 909 2931 1356 
Q 2931 1769 2642 2001 
Q 2353 2234 1838 2234 
L 1294 2234 
L 1294 2753 
L 1863 2753 
Q 2328 2753 2575 2939 
Q 2822 3125 2822 3475 
Q 2822 3834 2567 4026 
Q 2313 4219 1838 4219 
Q 1578 4219 1281 4162 
Q 984 4106 628 3988 
L 628 4550 
Q 988 4650 1302 4700 
Q 1616 4750 1894 4750 
Q 2613 4750 3031 4423 
Q 3450 4097 3450 3541 
Q 3450 3153 3228 2886 
Q 3006 2619 2597 2516 
z
" transform="scale(0.015625)"/>
       </defs>
       <use xlink:href="#DejaVuSans-33"/>
      </g>
     </g>
    </g>
    <g id="xtick_4">
     <g id="line2d_4">
      <g>
       <use xlink:href="#meb39178c1e" x="296.567485" y="242.118437" style="stroke: #000000; stroke-width: 0.8"/>
      </g>
     </g>
     <g id="text_4">
      <!-- 4 -->
      <g transform="translate(293.386235 256.716875) scale(0.1 -0.1)">
       <defs>
        <path id="DejaVuSans-34" d="M 2419 4116 
L 825 1625 
L 2419 1625 
L 2419 4116 
z
M 2253 4666 
L 3047 4666 
L 3047 1625 
L 3713 1625 
L 3713 1100 
L 3047 1100 
L 3047 0 
L 2419 0 
L 2419 1100 
L 313 1100 
L 313 1709 
L 2253 4666 
z
" transform="scale(0.015625)"/>
       </defs>
       <use xlink:href="#DejaVuSans-34"/>
      </g>
     </g>
    </g>
    <g id="xtick_5">
     <g id="line2d_5">
      <g>
       <use xlink:href="#meb39178c1e" x="357.836846" y="242.118437" style="stroke: #000000; stroke-width: 0.8"/>
      </g>
     </g>
     <g id="text_5">
      <!-- 5 -->
      <g transform="translate(354.655596 256.716875) scale(0.1 -0.1)">
       <defs>
        <path id="DejaVuSans-35" d="M 691 4666 
L 3169 4666 
L 3169 4134 
L 1269 4134 
L 1269 2991 
Q 1406 3038 1543 3061 
Q 1681 3084 1819 3084 
Q 2600 3084 3056 2656 
Q 3513 2228 3513 1497 
Q 3513 744 3044 326 
Q 2575 -91 1722 -91 
Q 1428 -91 1123 -41 
Q 819 9 494 109 
L 494 744 
Q 775 591 1075 516 
Q 1375 441 1709 441 
Q 2250 441 2565 725 
Q 2881 1009 2881 1497 
Q 2881 1984 2565 2268 
Q 2250 2553 1709 2553 
Q 1456 2553 1204 2497 
Q 953 2441 691 2322 
L 691 4666 
z
" transform="scale(0.015625)"/>
       </defs>
       <use xlink:href="#DejaVuSans-35"/>
      </g>
     </g>
    </g>
    <g id="text_6">
     <!-- Alb -->
     <g transform="translate(227.314531 270.395) scale(0.1 -0.1)">
      <defs>
       <path id="DejaVuSans-41" d="M 2188 4044 
L 1331 1722 
L 3047 1722 
L 2188 4044 
z
M 1831 4666 
L 2547 4666 
L 4325 0 
L 3669 0 
L 3244 1197 
L 1141 1197 
L 716 0 
L 50 0 
L 1831 4666 
z
" transform="scale(0.015625)"/>
       <path id="DejaVuSans-6c" d="M 603 4863 
L 1178 4863 
L 1178 0 
L 603 0 
L 603 4863 
z
" transform="scale(0.015625)"/>
       <path id="DejaVuSans-62" d="M 3116 1747 
Q 3116 2381 2855 2742 
Q 2594 3103 2138 3103 
Q 1681 3103 1420 2742 
Q 1159 2381 1159 1747 
Q 1159 1113 1420 752 
Q 1681 391 2138 391 
Q 2594 391 2855 752 
Q 3116 1113 3116 1747 
z
M 1159 2969 
Q 1341 3281 1617 3432 
Q 1894 3584 2278 3584 
Q 2916 3584 3314 3078 
Q 3713 2572 3713 1747 
Q 3713 922 3314 415 
Q 2916 -91 2278 -91 
Q 1894 -91 1617 61 
Q 1341 213 1159 525 
L 1159 0 
L 581 0 
L 581 4863 
L 1159 4863 
L 1159 2969 
z
" transform="scale(0.015625)"/>
      </defs>
      <use xlink:href="#DejaVuSans-41"/>
      <use xlink:href="#DejaVuSans-6c" x="68.408203"/>
      <use xlink:href="#DejaVuSans-62" x="96.191406"/>
     </g>
    </g>
   </g>
   <g id="matplotlib.axis_2">
    <g id="ytick_1">
     <g id="line2d_6">
      <defs>
       <path id="m23a0f1e51e" d="M 0 0 
L -3.5 0 
" style="stroke: #000000; stroke-width: 0.8"/>
      </defs>
      <g>
       <use xlink:href="#m23a0f1e51e" x="53.328125" y="242.118437" style="stroke: #000000; stroke-width: 0.8"/>
      </g>
     </g>
     <g id="text_7">
      <!-- 0 -->
      <g transform="translate(39.965625 245.917656) scale(0.1 -0.1)">
       <defs>
        <path id="DejaVuSans-30" d="M 2034 4250 
Q 1547 4250 1301 3770 
Q 1056 3291 1056 2328 
Q 1056 1369 1301 889 
Q 1547 409 2034 409 
Q 2525 409 2770 889 
Q 3016 1369 3016 2328 
Q 3016 3291 2770 3770 
Q 2525 4250 2034 4250 
z
M 2034 4750 
Q 2819 4750 3233 4129 
Q 3647 3509 3647 2328 
Q 3647 1150 3233 529 
Q 2819 -91 2034 -91 
Q 1250 -91 836 529 
Q 422 1150 422 2328 
Q 422 3509 836 4129 
Q 1250 4750 2034 4750 
z
" transform="scale(0.015625)"/>
       </defs>
       <use xlink:href="#DejaVuSans-30"/>
      </g>
     </g>
    </g>
    <g id="ytick_2">
     <g id="line2d_7">
      <g>
       <use xlink:href="#m23a0f1e51e" x="53.328125" y="215.60511" style="stroke: #000000; stroke-width: 0.8"/>
      </g>
     </g>
     <g id="text_8">
      <!-- 200 -->
      <g transform="translate(27.240625 219.404329) scale(0.1 -0.1)">
       <use xlink:href="#DejaVuSans-32"/>
       <use xlink:href="#DejaVuSans-30" x="63.623047"/>
       <use xlink:href="#DejaVuSans-30" x="127.246094"/>
      </g>
     </g>
    </g>
    <g id="ytick_3">
     <g id="line2d_8">
      <g>
       <use xlink:href="#m23a0f1e51e" x="53.328125" y="189.091783" style="stroke: #000000; stroke-width: 0.8"/>
      </g>
     </g>
     <g id="text_9">
      <!-- 400 -->
      <g transform="translate(27.240625 192.891002) scale(0.1 -0.1)">
       <use xlink:href="#DejaVuSans-34"/>
       <use xlink:href="#DejaVuSans-30" x="63.623047"/>
       <use xlink:href="#DejaVuSans-30" x="127.246094"/>
      </g>
     </g>
    </g>
    <g id="ytick_4">
     <g id="line2d_9">
      <g>
       <use xlink:href="#m23a0f1e51e" x="53.328125" y="162.578455" style="stroke: #000000; stroke-width: 0.8"/>
      </g>
     </g>
     <g id="text_10">
      <!-- 600 -->
      <g transform="translate(27.240625 166.377674) scale(0.1 -0.1)">
       <defs>
        <path id="DejaVuSans-36" d="M 2113 2584 
Q 1688 2584 1439 2293 
Q 1191 2003 1191 1497 
Q 1191 994 1439 701 
Q 1688 409 2113 409 
Q 2538 409 2786 701 
Q 3034 994 3034 1497 
Q 3034 2003 2786 2293 
Q 2538 2584 2113 2584 
z
M 3366 4563 
L 3366 3988 
Q 3128 4100 2886 4159 
Q 2644 4219 2406 4219 
Q 1781 4219 1451 3797 
Q 1122 3375 1075 2522 
Q 1259 2794 1537 2939 
Q 1816 3084 2150 3084 
Q 2853 3084 3261 2657 
Q 3669 2231 3669 1497 
Q 3669 778 3244 343 
Q 2819 -91 2113 -91 
Q 1303 -91 875 529 
Q 447 1150 447 2328 
Q 447 3434 972 4092 
Q 1497 4750 2381 4750 
Q 2619 4750 2861 4703 
Q 3103 4656 3366 4563 
z
" transform="scale(0.015625)"/>
       </defs>
       <use xlink:href="#DejaVuSans-36"/>
       <use xlink:href="#DejaVuSans-30" x="63.623047"/>
       <use xlink:href="#DejaVuSans-30" x="127.246094"/>
      </g>
     </g>
    </g>
    <g id="ytick_5">
     <g id="line2d_10">
      <g>
       <use xlink:href="#m23a0f1e51e" x="53.328125" y="136.065128" style="stroke: #000000; stroke-width: 0.8"/>
      </g>
     </g>
     <g id="text_11">
      <!-- 800 -->
      <g transform="translate(27.240625 139.864347) scale(0.1 -0.1)">
       <defs>
        <path id="DejaVuSans-38" d="M 2034 2216 
Q 1584 2216 1326 1975 
Q 1069 1734 1069 1313 
Q 1069 891 1326 650 
Q 1584 409 2034 409 
Q 2484 409 2743 651 
Q 3003 894 3003 1313 
Q 3003 1734 2745 1975 
Q 2488 2216 2034 2216 
z
M 1403 2484 
Q 997 2584 770 2862 
Q 544 3141 544 3541 
Q 544 4100 942 4425 
Q 1341 4750 2034 4750 
Q 2731 4750 3128 4425 
Q 3525 4100 3525 3541 
Q 3525 3141 3298 2862 
Q 3072 2584 2669 2484 
Q 3125 2378 3379 2068 
Q 3634 1759 3634 1313 
Q 3634 634 3220 271 
Q 2806 -91 2034 -91 
Q 1263 -91 848 271 
Q 434 634 434 1313 
Q 434 1759 690 2068 
Q 947 2378 1403 2484 
z
M 1172 3481 
Q 1172 3119 1398 2916 
Q 1625 2713 2034 2713 
Q 2441 2713 2670 2916 
Q 2900 3119 2900 3481 
Q 2900 3844 2670 4047 
Q 2441 4250 2034 4250 
Q 1625 4250 1398 4047 
Q 1172 3844 1172 3481 
z
" transform="scale(0.015625)"/>
       </defs>
       <use xlink:href="#DejaVuSans-38"/>
       <use xlink:href="#DejaVuSans-30" x="63.623047"/>
       <use xlink:href="#DejaVuSans-30" x="127.246094"/>
      </g>
     </g>
    </g>
    <g id="ytick_6">
     <g id="line2d_11">
      <g>
       <use xlink:href="#m23a0f1e51e" x="53.328125" y="109.551801" style="stroke: #000000; stroke-width: 0.8"/>
      </g>
     </g>
     <g id="text_12">
      <!-- 1000 -->
      <g transform="translate(20.878125 113.35102) scale(0.1 -0.1)">
       <use xlink:href="#DejaVuSans-31"/>
       <use xlink:href="#DejaVuSans-30" x="63.623047"/>
       <use xlink:href="#DejaVuSans-30" x="127.246094"/>
       <use xlink:href="#DejaVuSans-30" x="190.869141"/>
      </g>
     </g>
    </g>
    <g id="ytick_7">
     <g id="line2d_12">
      <g>
       <use xlink:href="#m23a0f1e51e" x="53.328125" y="83.038473" style="stroke: #000000; stroke-width: 0.8"/>
      </g>
     </g>
     <g id="text_13">
      <!-- 1200 -->
      <g transform="translate(20.878125 86.837692) scale(0.1 -0.1)">
       <use xlink:href="#DejaVuSans-31"/>
       <use xlink:href="#DejaVuSans-32" x="63.623047"/>
       <use xlink:href="#DejaVuSans-30" x="127.246094"/>
       <use xlink:href="#DejaVuSans-30" x="190.869141"/>
      </g>
     </g>
    </g>
    <g id="ytick_8">
     <g id="line2d_13">
      <g>
       <use xlink:href="#m23a0f1e51e" x="53.328125" y="56.525146" style="stroke: #000000; stroke-width: 0.8"/>
      </g>
     </g>
     <g id="text_14">
      <!-- 1400 -->
      <g transform="translate(20.878125 60.324365) scale(0.1 -0.1)">
       <use xlink:href="#DejaVuSans-31"/>
       <use xlink:href="#DejaVuSans-34" x="63.623047"/>
       <use xlink:href="#DejaVuSans-30" x="127.246094"/>
       <use xlink:href="#DejaVuSans-30" x="190.869141"/>
      </g>
     </g>
    </g>
    <g id="ytick_9">
     <g id="line2d_14">
      <g>
       <use xlink:href="#m23a0f1e51e" x="53.328125" y="30.011819" style="stroke: #000000; stroke-width: 0.8"/>
      </g>
     </g>
     <g id="text_15">
      <!-- 1600 -->
      <g transform="translate(20.878125 33.811038) scale(0.1 -0.1)">
       <use xlink:href="#DejaVuSans-31"/>
       <use xlink:href="#DejaVuSans-36" x="63.623047"/>
       <use xlink:href="#DejaVuSans-30" x="127.246094"/>
       <use xlink:href="#DejaVuSans-30" x="190.869141"/>
      </g>
     </g>
    </g>
    <g id="text_16">
     <!-- Count -->
     <g transform="translate(14.798438 146.306875) rotate(-90) scale(0.1 -0.1)">
      <defs>
       <path id="DejaVuSans-43" d="M 4122 4306 
L 4122 3641 
Q 3803 3938 3442 4084 
Q 3081 4231 2675 4231 
Q 1875 4231 1450 3742 
Q 1025 3253 1025 2328 
Q 1025 1406 1450 917 
Q 1875 428 2675 428 
Q 3081 428 3442 575 
Q 3803 722 4122 1019 
L 4122 359 
Q 3791 134 3420 21 
Q 3050 -91 2638 -91 
Q 1578 -91 968 557 
Q 359 1206 359 2328 
Q 359 3453 968 4101 
Q 1578 4750 2638 4750 
Q 3056 4750 3426 4639 
Q 3797 4528 4122 4306 
z
" transform="scale(0.015625)"/>
       <path id="DejaVuSans-6f" d="M 1959 3097 
Q 1497 3097 1228 2736 
Q 959 2375 959 1747 
Q 959 1119 1226 758 
Q 1494 397 1959 397 
Q 2419 397 2687 759 
Q 2956 1122 2956 1747 
Q 2956 2369 2687 2733 
Q 2419 3097 1959 3097 
z
M 1959 3584 
Q 2709 3584 3137 3096 
Q 3566 2609 3566 1747 
Q 3566 888 3137 398 
Q 2709 -91 1959 -91 
Q 1206 -91 779 398 
Q 353 888 353 1747 
Q 353 2609 779 3096 
Q 1206 3584 1959 3584 
z
" transform="scale(0.015625)"/>
       <path id="DejaVuSans-75" d="M 544 1381 
L 544 3500 
L 1119 3500 
L 1119 1403 
Q 1119 906 1312 657 
Q 1506 409 1894 409 
Q 2359 409 2629 706 
Q 2900 1003 2900 1516 
L 2900 3500 
L 3475 3500 
L 3475 0 
L 2900 0 
L 2900 538 
Q 2691 219 2414 64 
Q 2138 -91 1772 -91 
Q 1169 -91 856 284 
Q 544 659 544 1381 
z
M 1991 3584 
L 1991 3584 
z
" transform="scale(0.015625)"/>
       <path id="DejaVuSans-6e" d="M 3513 2113 
L 3513 0 
L 2938 0 
L 2938 2094 
Q 2938 2591 2744 2837 
Q 2550 3084 2163 3084 
Q 1697 3084 1428 2787 
Q 1159 2491 1159 1978 
L 1159 0 
L 581 0 
L 581 3500 
L 1159 3500 
L 1159 2956 
Q 1366 3272 1645 3428 
Q 1925 3584 2291 3584 
Q 2894 3584 3203 3211 
Q 3513 2838 3513 2113 
z
" transform="scale(0.015625)"/>
       <path id="DejaVuSans-74" d="M 1172 4494 
L 1172 3500 
L 2356 3500 
L 2356 3053 
L 1172 3053 
L 1172 1153 
Q 1172 725 1289 603 
Q 1406 481 1766 481 
L 2356 481 
L 2356 0 
L 1766 0 
Q 1100 0 847 248 
Q 594 497 594 1153 
L 594 3053 
L 172 3053 
L 172 3500 
L 594 3500 
L 594 4494 
L 1172 4494 
z
" transform="scale(0.015625)"/>
      </defs>
      <use xlink:href="#DejaVuSans-43"/>
      <use xlink:href="#DejaVuSans-6f" x="69.824219"/>
      <use xlink:href="#DejaVuSans-75" x="131.005859"/>
      <use xlink:href="#DejaVuSans-6e" x="194.384766"/>
      <use xlink:href="#DejaVuSans-74" x="257.763672"/>
     </g>
    </g>
   </g>
   <g id="patch_118">
    <path d="M 53.328125 242.118437 
L 53.328125 20.798437 
" style="fill: none; stroke: #000000; stroke-width: 0.8; stroke-linejoin: miter; stroke-linecap: square"/>
   </g>
   <g id="patch_119">
    <path d="M 417.268125 242.118437 
L 417.268125 20.798437 
" style="fill: none; stroke: #000000; stroke-width: 0.8; stroke-linejoin: miter; stroke-linecap: square"/>
   </g>
   <g id="patch_120">
    <path d="M 53.328125 242.118437 
L 417.268125 242.118437 
" style="fill: none; stroke: #000000; stroke-width: 0.8; stroke-linejoin: miter; stroke-linecap: square"/>
   </g>
   <g id="patch_121">
    <path d="M 53.328125 20.798437 
L 417.268125 20.798437 
" style="fill: none; stroke: #000000; stroke-width: 0.8; stroke-linejoin: miter; stroke-linecap: square"/>
   </g>
   <g id="text_17">
    <!-- Distribution of Alb -->
    <g transform="translate(190.148125 14.798437) scale(0.1 -0.1)">
     <defs>
      <path id="DejaVuSans-44" d="M 1259 4147 
L 1259 519 
L 2022 519 
Q 2988 519 3436 956 
Q 3884 1394 3884 2338 
Q 3884 3275 3436 3711 
Q 2988 4147 2022 4147 
L 1259 4147 
z
M 628 4666 
L 1925 4666 
Q 3281 4666 3915 4102 
Q 4550 3538 4550 2338 
Q 4550 1131 3912 565 
Q 3275 0 1925 0 
L 628 0 
L 628 4666 
z
" transform="scale(0.015625)"/>
      <path id="DejaVuSans-69" d="M 603 3500 
L 1178 3500 
L 1178 0 
L 603 0 
L 603 3500 
z
M 603 4863 
L 1178 4863 
L 1178 4134 
L 603 4134 
L 603 4863 
z
" transform="scale(0.015625)"/>
      <path id="DejaVuSans-73" d="M 2834 3397 
L 2834 2853 
Q 2591 2978 2328 3040 
Q 2066 3103 1784 3103 
Q 1356 3103 1142 2972 
Q 928 2841 928 2578 
Q 928 2378 1081 2264 
Q 1234 2150 1697 2047 
L 1894 2003 
Q 2506 1872 2764 1633 
Q 3022 1394 3022 966 
Q 3022 478 2636 193 
Q 2250 -91 1575 -91 
Q 1294 -91 989 -36 
Q 684 19 347 128 
L 347 722 
Q 666 556 975 473 
Q 1284 391 1588 391 
Q 1994 391 2212 530 
Q 2431 669 2431 922 
Q 2431 1156 2273 1281 
Q 2116 1406 1581 1522 
L 1381 1569 
Q 847 1681 609 1914 
Q 372 2147 372 2553 
Q 372 3047 722 3315 
Q 1072 3584 1716 3584 
Q 2034 3584 2315 3537 
Q 2597 3491 2834 3397 
z
" transform="scale(0.015625)"/>
      <path id="DejaVuSans-72" d="M 2631 2963 
Q 2534 3019 2420 3045 
Q 2306 3072 2169 3072 
Q 1681 3072 1420 2755 
Q 1159 2438 1159 1844 
L 1159 0 
L 581 0 
L 581 3500 
L 1159 3500 
L 1159 2956 
Q 1341 3275 1631 3429 
Q 1922 3584 2338 3584 
Q 2397 3584 2469 3576 
Q 2541 3569 2628 3553 
L 2631 2963 
z
" transform="scale(0.015625)"/>
      <path id="DejaVuSans-20" transform="scale(0.015625)"/>
      <path id="DejaVuSans-66" d="M 2375 4863 
L 2375 4384 
L 1825 4384 
Q 1516 4384 1395 4259 
Q 1275 4134 1275 3809 
L 1275 3500 
L 2222 3500 
L 2222 3053 
L 1275 3053 
L 1275 0 
L 697 0 
L 697 3053 
L 147 3053 
L 147 3500 
L 697 3500 
L 697 3744 
Q 697 4328 969 4595 
Q 1241 4863 1831 4863 
L 2375 4863 
z
" transform="scale(0.015625)"/>
     </defs>
     <use xlink:href="#DejaVuSans-44"/>
     <use xlink:href="#DejaVuSans-69" x="77.001953"/>
     <use xlink:href="#DejaVuSans-73" x="104.785156"/>
     <use xlink:href="#DejaVuSans-74" x="156.884766"/>
     <use xlink:href="#DejaVuSans-72" x="196.09375"/>
     <use xlink:href="#DejaVuSans-69" x="237.207031"/>
     <use xlink:href="#DejaVuSans-62" x="264.990234"/>
     <use xlink:href="#DejaVuSans-75" x="328.466797"/>
     <use xlink:href="#DejaVuSans-74" x="391.845703"/>
     <use xlink:href="#DejaVuSans-69" x="431.054688"/>
     <use xlink:href="#DejaVuSans-6f" x="458.837891"/>
     <use xlink:href="#DejaVuSans-6e" x="520.019531"/>
     <use xlink:href="#DejaVuSans-20" x="583.398438"/>
     <use xlink:href="#DejaVuSans-6f" x="615.185547"/>
     <use xlink:href="#DejaVuSans-66" x="676.367188"/>
     <use xlink:href="#DejaVuSans-20" x="711.572266"/>
     <use xlink:href="#DejaVuSans-41" x="743.359375"/>
     <use xlink:href="#DejaVuSans-6c" x="811.767578"/>
     <use xlink:href="#DejaVuSans-62" x="839.550781"/>
    </g>
   </g>
  </g>
 </g>
 <defs>
  <clipPath id="p56a6aee85a">
   <rect x="53.328125" y="20.798437" width="363.94" height="221.32"/>
  </clipPath>
 </defs>
</svg>
