<?xml version="1.0" encoding="utf-8" standalone="no"?>
<!DOCTYPE svg PUBLIC "-//W3C//DTD SVG 1.1//EN"
  "http://www.w3.org/Graphics/SVG/1.1/DTD/svg11.dtd">
<svg xmlns:xlink="http://www.w3.org/1999/xlink" width="424.075141pt" height="279.674688pt" viewBox="0 0 424.075141 279.674688" xmlns="http://www.w3.org/2000/svg" version="1.1">
 <metadata>
  <rdf:RDF xmlns:dc="http://purl.org/dc/elements/1.1/" xmlns:cc="http://creativecommons.org/ns#" xmlns:rdf="http://www.w3.org/1999/02/22-rdf-syntax-ns#">
   <cc:Work>
    <dc:type rdf:resource="http://purl.org/dc/dcmitype/StillImage"/>
    <dc:date>2024-08-08T20:37:34.015342</dc:date>
    <dc:format>image/svg+xml</dc:format>
    <dc:creator>
     <cc:Agent>
      <dc:title>Matplotlib v3.9.0, https://matplotlib.org/</dc:title>
     </cc:Agent>
    </dc:creator>
   </cc:Work>
  </rdf:RDF>
 </metadata>
 <defs>
  <style type="text/css">*{stroke-linejoin: round; stroke-linecap: butt}</style>
 </defs>
 <g id="figure_1">
  <g id="patch_1">
   <path d="M 0 279.674688 
L 424.075141 279.674688 
L 424.075141 0 
L 0 0 
z
" style="fill: #ffffff"/>
  </g>
  <g id="axes_1">
   <g id="patch_2">
    <path d="M 53.328125 242.118437 
L 416.368125 242.118437 
L 416.368125 20.798437 
L 53.328125 20.798437 
z
" style="fill: #ffffff"/>
   </g>
   <g id="patch_3">
    <path d="M 69.829943 242.118437 
L 71.330108 242.118437 
L 71.330108 241.929057 
L 69.829943 241.929057 
z
" clip-path="url(#p91e43d3c55)" style="fill: #808080; stroke: #000000; stroke-width: 0.138347; stroke-linejoin: miter"/>
   </g>
   <g id="patch_4">
    <path d="M 71.330108 242.118437 
L 72.830274 242.118437 
L 72.830274 242.118437 
L 71.330108 242.118437 
z
" clip-path="url(#p91e43d3c55)" style="fill: #808080; stroke: #000000; stroke-width: 0.138347; stroke-linejoin: miter"/>
   </g>
   <g id="patch_5">
    <path d="M 72.830274 242.118437 
L 74.330439 242.118437 
L 74.330439 241.929057 
L 72.830274 241.929057 
z
" clip-path="url(#p91e43d3c55)" style="fill: #808080; stroke: #000000; stroke-width: 0.138347; stroke-linejoin: miter"/>
   </g>
   <g id="patch_6">
    <path d="M 74.330439 242.118437 
L 75.830604 242.118437 
L 75.830604 242.118437 
L 74.330439 242.118437 
z
" clip-path="url(#p91e43d3c55)" style="fill: #808080; stroke: #000000; stroke-width: 0.138347; stroke-linejoin: miter"/>
   </g>
   <g id="patch_7">
    <path d="M 75.830604 242.118437 
L 77.33077 242.118437 
L 77.33077 242.118437 
L 75.830604 242.118437 
z
" clip-path="url(#p91e43d3c55)" style="fill: #808080; stroke: #000000; stroke-width: 0.138347; stroke-linejoin: miter"/>
   </g>
   <g id="patch_8">
    <path d="M 77.33077 242.118437 
L 78.830935 242.118437 
L 78.830935 242.118437 
L 77.33077 242.118437 
z
" clip-path="url(#p91e43d3c55)" style="fill: #808080; stroke: #000000; stroke-width: 0.138347; stroke-linejoin: miter"/>
   </g>
   <g id="patch_9">
    <path d="M 78.830935 242.118437 
L 80.3311 242.118437 
L 80.3311 242.118437 
L 78.830935 242.118437 
z
" clip-path="url(#p91e43d3c55)" style="fill: #808080; stroke: #000000; stroke-width: 0.138347; stroke-linejoin: miter"/>
   </g>
   <g id="patch_10">
    <path d="M 80.3311 242.118437 
L 81.831265 242.118437 
L 81.831265 241.929057 
L 80.3311 241.929057 
z
" clip-path="url(#p91e43d3c55)" style="fill: #808080; stroke: #000000; stroke-width: 0.138347; stroke-linejoin: miter"/>
   </g>
   <g id="patch_11">
    <path d="M 81.831265 242.118437 
L 83.331431 242.118437 
L 83.331431 241.929057 
L 81.831265 241.929057 
z
" clip-path="url(#p91e43d3c55)" style="fill: #808080; stroke: #000000; stroke-width: 0.138347; stroke-linejoin: miter"/>
   </g>
   <g id="patch_12">
    <path d="M 83.331431 242.118437 
L 84.831596 242.118437 
L 84.831596 241.929057 
L 83.331431 241.929057 
z
" clip-path="url(#p91e43d3c55)" style="fill: #808080; stroke: #000000; stroke-width: 0.138347; stroke-linejoin: miter"/>
   </g>
   <g id="patch_13">
    <path d="M 84.831596 242.118437 
L 86.331761 242.118437 
L 86.331761 242.118437 
L 84.831596 242.118437 
z
" clip-path="url(#p91e43d3c55)" style="fill: #808080; stroke: #000000; stroke-width: 0.138347; stroke-linejoin: miter"/>
   </g>
   <g id="patch_14">
    <path d="M 86.331761 242.118437 
L 87.831927 242.118437 
L 87.831927 242.118437 
L 86.331761 242.118437 
z
" clip-path="url(#p91e43d3c55)" style="fill: #808080; stroke: #000000; stroke-width: 0.138347; stroke-linejoin: miter"/>
   </g>
   <g id="patch_15">
    <path d="M 87.831927 242.118437 
L 89.332092 242.118437 
L 89.332092 241.739676 
L 87.831927 241.739676 
z
" clip-path="url(#p91e43d3c55)" style="fill: #808080; stroke: #000000; stroke-width: 0.138347; stroke-linejoin: miter"/>
   </g>
   <g id="patch_16">
    <path d="M 89.332092 242.118437 
L 90.832257 242.118437 
L 90.832257 242.118437 
L 89.332092 242.118437 
z
" clip-path="url(#p91e43d3c55)" style="fill: #808080; stroke: #000000; stroke-width: 0.138347; stroke-linejoin: miter"/>
   </g>
   <g id="patch_17">
    <path d="M 90.832257 242.118437 
L 92.332423 242.118437 
L 92.332423 241.550295 
L 90.832257 241.550295 
z
" clip-path="url(#p91e43d3c55)" style="fill: #808080; stroke: #000000; stroke-width: 0.138347; stroke-linejoin: miter"/>
   </g>
   <g id="patch_18">
    <path d="M 92.332423 242.118437 
L 93.832588 242.118437 
L 93.832588 241.360914 
L 92.332423 241.360914 
z
" clip-path="url(#p91e43d3c55)" style="fill: #808080; stroke: #000000; stroke-width: 0.138347; stroke-linejoin: miter"/>
   </g>
   <g id="patch_19">
    <path d="M 93.832588 242.118437 
L 95.332753 242.118437 
L 95.332753 242.118437 
L 93.832588 242.118437 
z
" clip-path="url(#p91e43d3c55)" style="fill: #808080; stroke: #000000; stroke-width: 0.138347; stroke-linejoin: miter"/>
   </g>
   <g id="patch_20">
    <path d="M 95.332753 242.118437 
L 96.832918 242.118437 
L 96.832918 241.360914 
L 95.332753 241.360914 
z
" clip-path="url(#p91e43d3c55)" style="fill: #808080; stroke: #000000; stroke-width: 0.138347; stroke-linejoin: miter"/>
   </g>
   <g id="patch_21">
    <path d="M 96.832918 242.118437 
L 98.333084 242.118437 
L 98.333084 240.60339 
L 96.832918 240.60339 
z
" clip-path="url(#p91e43d3c55)" style="fill: #808080; stroke: #000000; stroke-width: 0.138347; stroke-linejoin: miter"/>
   </g>
   <g id="patch_22">
    <path d="M 98.333084 242.118437 
L 99.833249 242.118437 
L 99.833249 240.982152 
L 98.333084 240.982152 
z
" clip-path="url(#p91e43d3c55)" style="fill: #808080; stroke: #000000; stroke-width: 0.138347; stroke-linejoin: miter"/>
   </g>
   <g id="patch_23">
    <path d="M 99.833249 242.118437 
L 101.333414 242.118437 
L 101.333414 242.118437 
L 99.833249 242.118437 
z
" clip-path="url(#p91e43d3c55)" style="fill: #808080; stroke: #000000; stroke-width: 0.138347; stroke-linejoin: miter"/>
   </g>
   <g id="patch_24">
    <path d="M 101.333414 242.118437 
L 102.83358 242.118437 
L 102.83358 240.414009 
L 101.333414 240.414009 
z
" clip-path="url(#p91e43d3c55)" style="fill: #808080; stroke: #000000; stroke-width: 0.138347; stroke-linejoin: miter"/>
   </g>
   <g id="patch_25">
    <path d="M 102.83358 242.118437 
L 104.333745 242.118437 
L 104.333745 238.709581 
L 102.83358 238.709581 
z
" clip-path="url(#p91e43d3c55)" style="fill: #808080; stroke: #000000; stroke-width: 0.138347; stroke-linejoin: miter"/>
   </g>
   <g id="patch_26">
    <path d="M 104.333745 242.118437 
L 105.83391 242.118437 
L 105.83391 242.118437 
L 104.333745 242.118437 
z
" clip-path="url(#p91e43d3c55)" style="fill: #808080; stroke: #000000; stroke-width: 0.138347; stroke-linejoin: miter"/>
   </g>
   <g id="patch_27">
    <path d="M 105.83391 242.118437 
L 107.334075 242.118437 
L 107.334075 237.762677 
L 105.83391 237.762677 
z
" clip-path="url(#p91e43d3c55)" style="fill: #808080; stroke: #000000; stroke-width: 0.138347; stroke-linejoin: miter"/>
   </g>
   <g id="patch_28">
    <path d="M 107.334075 242.118437 
L 108.834241 242.118437 
L 108.834241 237.573296 
L 107.334075 237.573296 
z
" clip-path="url(#p91e43d3c55)" style="fill: #808080; stroke: #000000; stroke-width: 0.138347; stroke-linejoin: miter"/>
   </g>
   <g id="patch_29">
    <path d="M 108.834241 242.118437 
L 110.334406 242.118437 
L 110.334406 234.921963 
L 108.834241 234.921963 
z
" clip-path="url(#p91e43d3c55)" style="fill: #808080; stroke: #000000; stroke-width: 0.138347; stroke-linejoin: miter"/>
   </g>
   <g id="patch_30">
    <path d="M 110.334406 242.118437 
L 111.834571 242.118437 
L 111.834571 242.118437 
L 110.334406 242.118437 
z
" clip-path="url(#p91e43d3c55)" style="fill: #808080; stroke: #000000; stroke-width: 0.138347; stroke-linejoin: miter"/>
   </g>
   <g id="patch_31">
    <path d="M 111.834571 242.118437 
L 113.334737 242.118437 
L 113.334737 233.975058 
L 111.834571 233.975058 
z
" clip-path="url(#p91e43d3c55)" style="fill: #808080; stroke: #000000; stroke-width: 0.138347; stroke-linejoin: miter"/>
   </g>
   <g id="patch_32">
    <path d="M 113.334737 242.118437 
L 114.834902 242.118437 
L 114.834902 231.513107 
L 113.334737 231.513107 
z
" clip-path="url(#p91e43d3c55)" style="fill: #808080; stroke: #000000; stroke-width: 0.138347; stroke-linejoin: miter"/>
   </g>
   <g id="patch_33">
    <path d="M 114.834902 242.118437 
L 116.335067 242.118437 
L 116.335067 242.118437 
L 114.834902 242.118437 
z
" clip-path="url(#p91e43d3c55)" style="fill: #808080; stroke: #000000; stroke-width: 0.138347; stroke-linejoin: miter"/>
   </g>
   <g id="patch_34">
    <path d="M 116.335067 242.118437 
L 117.835232 242.118437 
L 117.835232 227.157346 
L 116.335067 227.157346 
z
" clip-path="url(#p91e43d3c55)" style="fill: #808080; stroke: #000000; stroke-width: 0.138347; stroke-linejoin: miter"/>
   </g>
   <g id="patch_35">
    <path d="M 117.835232 242.118437 
L 119.335398 242.118437 
L 119.335398 221.665299 
L 117.835232 221.665299 
z
" clip-path="url(#p91e43d3c55)" style="fill: #808080; stroke: #000000; stroke-width: 0.138347; stroke-linejoin: miter"/>
   </g>
   <g id="patch_36">
    <path d="M 119.335398 242.118437 
L 120.835563 242.118437 
L 120.835563 242.118437 
L 119.335398 242.118437 
z
" clip-path="url(#p91e43d3c55)" style="fill: #808080; stroke: #000000; stroke-width: 0.138347; stroke-linejoin: miter"/>
   </g>
   <g id="patch_37">
    <path d="M 120.835563 242.118437 
L 122.335728 242.118437 
L 122.335728 217.120157 
L 120.835563 217.120157 
z
" clip-path="url(#p91e43d3c55)" style="fill: #808080; stroke: #000000; stroke-width: 0.138347; stroke-linejoin: miter"/>
   </g>
   <g id="patch_38">
    <path d="M 122.335728 242.118437 
L 123.835894 242.118437 
L 123.835894 199.886495 
L 122.335728 199.886495 
z
" clip-path="url(#p91e43d3c55)" style="fill: #808080; stroke: #000000; stroke-width: 0.138347; stroke-linejoin: miter"/>
   </g>
   <g id="patch_39">
    <path d="M 123.835894 242.118437 
L 125.336059 242.118437 
L 125.336059 190.228068 
L 123.835894 190.228068 
z
" clip-path="url(#p91e43d3c55)" style="fill: #808080; stroke: #000000; stroke-width: 0.138347; stroke-linejoin: miter"/>
   </g>
   <g id="patch_40">
    <path d="M 125.336059 242.118437 
L 126.836224 242.118437 
L 126.836224 242.118437 
L 125.336059 242.118437 
z
" clip-path="url(#p91e43d3c55)" style="fill: #808080; stroke: #000000; stroke-width: 0.138347; stroke-linejoin: miter"/>
   </g>
   <g id="patch_41">
    <path d="M 126.836224 242.118437 
L 128.336389 242.118437 
L 128.336389 166.934216 
L 126.836224 166.934216 
z
" clip-path="url(#p91e43d3c55)" style="fill: #808080; stroke: #000000; stroke-width: 0.138347; stroke-linejoin: miter"/>
   </g>
   <g id="patch_42">
    <path d="M 128.336389 242.118437 
L 129.836555 242.118437 
L 129.836555 143.261603 
L 128.336389 143.261603 
z
" clip-path="url(#p91e43d3c55)" style="fill: #808080; stroke: #000000; stroke-width: 0.138347; stroke-linejoin: miter"/>
   </g>
   <g id="patch_43">
    <path d="M 129.836555 242.118437 
L 131.33672 242.118437 
L 131.33672 242.118437 
L 129.836555 242.118437 
z
" clip-path="url(#p91e43d3c55)" style="fill: #808080; stroke: #000000; stroke-width: 0.138347; stroke-linejoin: miter"/>
   </g>
   <g id="patch_44">
    <path d="M 131.33672 242.118437 
L 132.836885 242.118437 
L 132.836885 119.967751 
L 131.33672 119.967751 
z
" clip-path="url(#p91e43d3c55)" style="fill: #808080; stroke: #000000; stroke-width: 0.138347; stroke-linejoin: miter"/>
   </g>
   <g id="patch_45">
    <path d="M 132.836885 242.118437 
L 134.337051 242.118437 
L 134.337051 91.181853 
L 132.836885 91.181853 
z
" clip-path="url(#p91e43d3c55)" style="fill: #808080; stroke: #000000; stroke-width: 0.138347; stroke-linejoin: miter"/>
   </g>
   <g id="patch_46">
    <path d="M 134.337051 242.118437 
L 135.837216 242.118437 
L 135.837216 242.118437 
L 134.337051 242.118437 
z
" clip-path="url(#p91e43d3c55)" style="fill: #808080; stroke: #000000; stroke-width: 0.138347; stroke-linejoin: miter"/>
   </g>
   <g id="patch_47">
    <path d="M 135.837216 242.118437 
L 137.337381 242.118437 
L 137.337381 79.250855 
L 135.837216 79.250855 
z
" clip-path="url(#p91e43d3c55)" style="fill: #808080; stroke: #000000; stroke-width: 0.138347; stroke-linejoin: miter"/>
   </g>
   <g id="patch_48">
    <path d="M 137.337381 242.118437 
L 138.837546 242.118437 
L 138.837546 51.601242 
L 137.337381 51.601242 
z
" clip-path="url(#p91e43d3c55)" style="fill: #808080; stroke: #000000; stroke-width: 0.138347; stroke-linejoin: miter"/>
   </g>
   <g id="patch_49">
    <path d="M 138.837546 242.118437 
L 140.337712 242.118437 
L 140.337712 40.995912 
L 138.837546 40.995912 
z
" clip-path="url(#p91e43d3c55)" style="fill: #808080; stroke: #000000; stroke-width: 0.138347; stroke-linejoin: miter"/>
   </g>
   <g id="patch_50">
    <path d="M 140.337712 242.118437 
L 141.837877 242.118437 
L 141.837877 242.118437 
L 140.337712 242.118437 
z
" clip-path="url(#p91e43d3c55)" style="fill: #808080; stroke: #000000; stroke-width: 0.138347; stroke-linejoin: miter"/>
   </g>
   <g id="patch_51">
    <path d="M 141.837877 242.118437 
L 143.338042 242.118437 
L 143.338042 31.337485 
L 141.837877 31.337485 
z
" clip-path="url(#p91e43d3c55)" style="fill: #808080; stroke: #000000; stroke-width: 0.138347; stroke-linejoin: miter"/>
   </g>
   <g id="patch_52">
    <path d="M 143.338042 242.118437 
L 144.838208 242.118437 
L 144.838208 40.995912 
L 143.338042 40.995912 
z
" clip-path="url(#p91e43d3c55)" style="fill: #808080; stroke: #000000; stroke-width: 0.138347; stroke-linejoin: miter"/>
   </g>
   <g id="patch_53">
    <path d="M 144.838208 242.118437 
L 146.338373 242.118437 
L 146.338373 242.118437 
L 144.838208 242.118437 
z
" clip-path="url(#p91e43d3c55)" style="fill: #808080; stroke: #000000; stroke-width: 0.138347; stroke-linejoin: miter"/>
   </g>
   <g id="patch_54">
    <path d="M 146.338373 242.118437 
L 147.838538 242.118437 
L 147.838538 41.374673 
L 146.338373 41.374673 
z
" clip-path="url(#p91e43d3c55)" style="fill: #808080; stroke: #000000; stroke-width: 0.138347; stroke-linejoin: miter"/>
   </g>
   <g id="patch_55">
    <path d="M 147.838538 242.118437 
L 149.338704 242.118437 
L 149.338704 48.003005 
L 147.838538 48.003005 
z
" clip-path="url(#p91e43d3c55)" style="fill: #808080; stroke: #000000; stroke-width: 0.138347; stroke-linejoin: miter"/>
   </g>
   <g id="patch_56">
    <path d="M 149.338704 242.118437 
L 150.838869 242.118437 
L 150.838869 69.971191 
L 149.338704 69.971191 
z
" clip-path="url(#p91e43d3c55)" style="fill: #808080; stroke: #000000; stroke-width: 0.138347; stroke-linejoin: miter"/>
   </g>
   <g id="patch_57">
    <path d="M 150.838869 242.118437 
L 152.339034 242.118437 
L 152.339034 242.118437 
L 150.838869 242.118437 
z
" clip-path="url(#p91e43d3c55)" style="fill: #808080; stroke: #000000; stroke-width: 0.138347; stroke-linejoin: miter"/>
   </g>
   <g id="patch_58">
    <path d="M 152.339034 242.118437 
L 153.839199 242.118437 
L 153.839199 95.537613 
L 152.339034 95.537613 
z
" clip-path="url(#p91e43d3c55)" style="fill: #808080; stroke: #000000; stroke-width: 0.138347; stroke-linejoin: miter"/>
   </g>
   <g id="patch_59">
    <path d="M 153.839199 242.118437 
L 155.339365 242.118437 
L 155.339365 113.5288 
L 153.839199 113.5288 
z
" clip-path="url(#p91e43d3c55)" style="fill: #808080; stroke: #000000; stroke-width: 0.138347; stroke-linejoin: miter"/>
   </g>
   <g id="patch_60">
    <path d="M 155.339365 242.118437 
L 156.83953 242.118437 
L 156.83953 242.118437 
L 155.339365 242.118437 
z
" clip-path="url(#p91e43d3c55)" style="fill: #808080; stroke: #000000; stroke-width: 0.138347; stroke-linejoin: miter"/>
   </g>
   <g id="patch_61">
    <path d="M 156.83953 242.118437 
L 158.339695 242.118437 
L 158.339695 130.383701 
L 156.83953 130.383701 
z
" clip-path="url(#p91e43d3c55)" style="fill: #808080; stroke: #000000; stroke-width: 0.138347; stroke-linejoin: miter"/>
   </g>
   <g id="patch_62">
    <path d="M 158.339695 242.118437 
L 159.839861 242.118437 
L 159.839861 144.966031 
L 158.339695 144.966031 
z
" clip-path="url(#p91e43d3c55)" style="fill: #808080; stroke: #000000; stroke-width: 0.138347; stroke-linejoin: miter"/>
   </g>
   <g id="patch_63">
    <path d="M 159.839861 242.118437 
L 161.340026 242.118437 
L 161.340026 242.118437 
L 159.839861 242.118437 
z
" clip-path="url(#p91e43d3c55)" style="fill: #808080; stroke: #000000; stroke-width: 0.138347; stroke-linejoin: miter"/>
   </g>
   <g id="patch_64">
    <path d="M 161.340026 242.118437 
L 162.840191 242.118437 
L 162.840191 165.60855 
L 161.340026 165.60855 
z
" clip-path="url(#p91e43d3c55)" style="fill: #808080; stroke: #000000; stroke-width: 0.138347; stroke-linejoin: miter"/>
   </g>
   <g id="patch_65">
    <path d="M 162.840191 242.118437 
L 164.340356 242.118437 
L 164.340356 179.622737 
L 162.840191 179.622737 
z
" clip-path="url(#p91e43d3c55)" style="fill: #808080; stroke: #000000; stroke-width: 0.138347; stroke-linejoin: miter"/>
   </g>
   <g id="patch_66">
    <path d="M 164.340356 242.118437 
L 165.840522 242.118437 
L 165.840522 188.52364 
L 164.340356 188.52364 
z
" clip-path="url(#p91e43d3c55)" style="fill: #808080; stroke: #000000; stroke-width: 0.138347; stroke-linejoin: miter"/>
   </g>
   <g id="patch_67">
    <path d="M 165.840522 242.118437 
L 167.340687 242.118437 
L 167.340687 242.118437 
L 165.840522 242.118437 
z
" clip-path="url(#p91e43d3c55)" style="fill: #808080; stroke: #000000; stroke-width: 0.138347; stroke-linejoin: miter"/>
   </g>
   <g id="patch_68">
    <path d="M 167.340687 242.118437 
L 168.840852 242.118437 
L 168.840852 201.780304 
L 167.340687 201.780304 
z
" clip-path="url(#p91e43d3c55)" style="fill: #808080; stroke: #000000; stroke-width: 0.138347; stroke-linejoin: miter"/>
   </g>
   <g id="patch_69">
    <path d="M 168.840852 242.118437 
L 170.341018 242.118437 
L 170.341018 211.628111 
L 168.840852 211.628111 
z
" clip-path="url(#p91e43d3c55)" style="fill: #808080; stroke: #000000; stroke-width: 0.138347; stroke-linejoin: miter"/>
   </g>
   <g id="patch_70">
    <path d="M 170.341018 242.118437 
L 171.841183 242.118437 
L 171.841183 242.118437 
L 170.341018 242.118437 
z
" clip-path="url(#p91e43d3c55)" style="fill: #808080; stroke: #000000; stroke-width: 0.138347; stroke-linejoin: miter"/>
   </g>
   <g id="patch_71">
    <path d="M 171.841183 242.118437 
L 173.341348 242.118437 
L 173.341348 212.006873 
L 171.841183 212.006873 
z
" clip-path="url(#p91e43d3c55)" style="fill: #808080; stroke: #000000; stroke-width: 0.138347; stroke-linejoin: miter"/>
   </g>
   <g id="patch_72">
    <path d="M 173.341348 242.118437 
L 174.841513 242.118437 
L 174.841513 217.877681 
L 173.341348 217.877681 
z
" clip-path="url(#p91e43d3c55)" style="fill: #808080; stroke: #000000; stroke-width: 0.138347; stroke-linejoin: miter"/>
   </g>
   <g id="patch_73">
    <path d="M 174.841513 242.118437 
L 176.341679 242.118437 
L 176.341679 223.369727 
L 174.841513 223.369727 
z
" clip-path="url(#p91e43d3c55)" style="fill: #808080; stroke: #000000; stroke-width: 0.138347; stroke-linejoin: miter"/>
   </g>
   <g id="patch_74">
    <path d="M 176.341679 242.118437 
L 177.841844 242.118437 
L 177.841844 242.118437 
L 176.341679 242.118437 
z
" clip-path="url(#p91e43d3c55)" style="fill: #808080; stroke: #000000; stroke-width: 0.138347; stroke-linejoin: miter"/>
   </g>
   <g id="patch_75">
    <path d="M 177.841844 242.118437 
L 179.342009 242.118437 
L 179.342009 226.399822 
L 177.841844 226.399822 
z
" clip-path="url(#p91e43d3c55)" style="fill: #808080; stroke: #000000; stroke-width: 0.138347; stroke-linejoin: miter"/>
   </g>
   <g id="patch_76">
    <path d="M 179.342009 242.118437 
L 180.842175 242.118437 
L 180.842175 226.210441 
L 179.342009 226.210441 
z
" clip-path="url(#p91e43d3c55)" style="fill: #808080; stroke: #000000; stroke-width: 0.138347; stroke-linejoin: miter"/>
   </g>
   <g id="patch_77">
    <path d="M 180.842175 242.118437 
L 182.34234 242.118437 
L 182.34234 242.118437 
L 180.842175 242.118437 
z
" clip-path="url(#p91e43d3c55)" style="fill: #808080; stroke: #000000; stroke-width: 0.138347; stroke-linejoin: miter"/>
   </g>
   <g id="patch_78">
    <path d="M 182.34234 242.118437 
L 183.842505 242.118437 
L 183.842505 229.429917 
L 182.34234 229.429917 
z
" clip-path="url(#p91e43d3c55)" style="fill: #808080; stroke: #000000; stroke-width: 0.138347; stroke-linejoin: miter"/>
   </g>
   <g id="patch_79">
    <path d="M 183.842505 242.118437 
L 185.34267 242.118437 
L 185.34267 231.513107 
L 183.842505 231.513107 
z
" clip-path="url(#p91e43d3c55)" style="fill: #808080; stroke: #000000; stroke-width: 0.138347; stroke-linejoin: miter"/>
   </g>
   <g id="patch_80">
    <path d="M 185.34267 242.118437 
L 186.842836 242.118437 
L 186.842836 242.118437 
L 185.34267 242.118437 
z
" clip-path="url(#p91e43d3c55)" style="fill: #808080; stroke: #000000; stroke-width: 0.138347; stroke-linejoin: miter"/>
   </g>
   <g id="patch_81">
    <path d="M 186.842836 242.118437 
L 188.343001 242.118437 
L 188.343001 229.808678 
L 186.842836 229.808678 
z
" clip-path="url(#p91e43d3c55)" style="fill: #808080; stroke: #000000; stroke-width: 0.138347; stroke-linejoin: miter"/>
   </g>
   <g id="patch_82">
    <path d="M 188.343001 242.118437 
L 189.843166 242.118437 
L 189.843166 234.732582 
L 188.343001 234.732582 
z
" clip-path="url(#p91e43d3c55)" style="fill: #808080; stroke: #000000; stroke-width: 0.138347; stroke-linejoin: miter"/>
   </g>
   <g id="patch_83">
    <path d="M 189.843166 242.118437 
L 191.343332 242.118437 
L 191.343332 233.028154 
L 189.843166 233.028154 
z
" clip-path="url(#p91e43d3c55)" style="fill: #808080; stroke: #000000; stroke-width: 0.138347; stroke-linejoin: miter"/>
   </g>
   <g id="patch_84">
    <path d="M 191.343332 242.118437 
L 192.843497 242.118437 
L 192.843497 242.118437 
L 191.343332 242.118437 
z
" clip-path="url(#p91e43d3c55)" style="fill: #808080; stroke: #000000; stroke-width: 0.138347; stroke-linejoin: miter"/>
   </g>
   <g id="patch_85">
    <path d="M 192.843497 242.118437 
L 194.343662 242.118437 
L 194.343662 236.43701 
L 192.843497 236.43701 
z
" clip-path="url(#p91e43d3c55)" style="fill: #808080; stroke: #000000; stroke-width: 0.138347; stroke-linejoin: miter"/>
   </g>
   <g id="patch_86">
    <path d="M 194.343662 242.118437 
L 195.843827 242.118437 
L 195.843827 237.005153 
L 194.343662 237.005153 
z
" clip-path="url(#p91e43d3c55)" style="fill: #808080; stroke: #000000; stroke-width: 0.138347; stroke-linejoin: miter"/>
   </g>
   <g id="patch_87">
    <path d="M 195.843827 242.118437 
L 197.343993 242.118437 
L 197.343993 242.118437 
L 195.843827 242.118437 
z
" clip-path="url(#p91e43d3c55)" style="fill: #808080; stroke: #000000; stroke-width: 0.138347; stroke-linejoin: miter"/>
   </g>
   <g id="patch_88">
    <path d="M 197.343993 242.118437 
L 198.844158 242.118437 
L 198.844158 238.330819 
L 197.343993 238.330819 
z
" clip-path="url(#p91e43d3c55)" style="fill: #808080; stroke: #000000; stroke-width: 0.138347; stroke-linejoin: miter"/>
   </g>
   <g id="patch_89">
    <path d="M 198.844158 242.118437 
L 200.344323 242.118437 
L 200.344323 237.005153 
L 198.844158 237.005153 
z
" clip-path="url(#p91e43d3c55)" style="fill: #808080; stroke: #000000; stroke-width: 0.138347; stroke-linejoin: miter"/>
   </g>
   <g id="patch_90">
    <path d="M 200.344323 242.118437 
L 201.844489 242.118437 
L 201.844489 242.118437 
L 200.344323 242.118437 
z
" clip-path="url(#p91e43d3c55)" style="fill: #808080; stroke: #000000; stroke-width: 0.138347; stroke-linejoin: miter"/>
   </g>
   <g id="patch_91">
    <path d="M 201.844489 242.118437 
L 203.344654 242.118437 
L 203.344654 238.898962 
L 201.844489 238.898962 
z
" clip-path="url(#p91e43d3c55)" style="fill: #808080; stroke: #000000; stroke-width: 0.138347; stroke-linejoin: miter"/>
   </g>
   <g id="patch_92">
    <path d="M 203.344654 242.118437 
L 204.844819 242.118437 
L 204.844819 238.141438 
L 203.344654 238.141438 
z
" clip-path="url(#p91e43d3c55)" style="fill: #808080; stroke: #000000; stroke-width: 0.138347; stroke-linejoin: miter"/>
   </g>
   <g id="patch_93">
    <path d="M 204.844819 242.118437 
L 206.344985 242.118437 
L 206.344985 239.277724 
L 204.844819 239.277724 
z
" clip-path="url(#p91e43d3c55)" style="fill: #808080; stroke: #000000; stroke-width: 0.138347; stroke-linejoin: miter"/>
   </g>
   <g id="patch_94">
    <path d="M 206.344985 242.118437 
L 207.84515 242.118437 
L 207.84515 242.118437 
L 206.344985 242.118437 
z
" clip-path="url(#p91e43d3c55)" style="fill: #808080; stroke: #000000; stroke-width: 0.138347; stroke-linejoin: miter"/>
   </g>
   <g id="patch_95">
    <path d="M 207.84515 242.118437 
L 209.345315 242.118437 
L 209.345315 240.035247 
L 207.84515 240.035247 
z
" clip-path="url(#p91e43d3c55)" style="fill: #808080; stroke: #000000; stroke-width: 0.138347; stroke-linejoin: miter"/>
   </g>
   <g id="patch_96">
    <path d="M 209.345315 242.118437 
L 210.84548 242.118437 
L 210.84548 240.414009 
L 209.345315 240.414009 
z
" clip-path="url(#p91e43d3c55)" style="fill: #808080; stroke: #000000; stroke-width: 0.138347; stroke-linejoin: miter"/>
   </g>
   <g id="patch_97">
    <path d="M 210.84548 242.118437 
L 212.345646 242.118437 
L 212.345646 242.118437 
L 210.84548 242.118437 
z
" clip-path="url(#p91e43d3c55)" style="fill: #808080; stroke: #000000; stroke-width: 0.138347; stroke-linejoin: miter"/>
   </g>
   <g id="patch_98">
    <path d="M 212.345646 242.118437 
L 213.845811 242.118437 
L 213.845811 240.224628 
L 212.345646 240.224628 
z
" clip-path="url(#p91e43d3c55)" style="fill: #808080; stroke: #000000; stroke-width: 0.138347; stroke-linejoin: miter"/>
   </g>
   <g id="patch_99">
    <path d="M 213.845811 242.118437 
L 215.345976 242.118437 
L 215.345976 239.277724 
L 213.845811 239.277724 
z
" clip-path="url(#p91e43d3c55)" style="fill: #808080; stroke: #000000; stroke-width: 0.138347; stroke-linejoin: miter"/>
   </g>
   <g id="patch_100">
    <path d="M 215.345976 242.118437 
L 216.846142 242.118437 
L 216.846142 239.845867 
L 215.345976 239.845867 
z
" clip-path="url(#p91e43d3c55)" style="fill: #808080; stroke: #000000; stroke-width: 0.138347; stroke-linejoin: miter"/>
   </g>
   <g id="patch_101">
    <path d="M 216.846142 242.118437 
L 218.346307 242.118437 
L 218.346307 242.118437 
L 216.846142 242.118437 
z
" clip-path="url(#p91e43d3c55)" style="fill: #808080; stroke: #000000; stroke-width: 0.138347; stroke-linejoin: miter"/>
   </g>
   <g id="patch_102">
    <path d="M 218.346307 242.118437 
L 219.846472 242.118437 
L 219.846472 240.035247 
L 218.346307 240.035247 
z
" clip-path="url(#p91e43d3c55)" style="fill: #808080; stroke: #000000; stroke-width: 0.138347; stroke-linejoin: miter"/>
   </g>
   <g id="patch_103">
    <path d="M 219.846472 242.118437 
L 221.346637 242.118437 
L 221.346637 240.792771 
L 219.846472 240.792771 
z
" clip-path="url(#p91e43d3c55)" style="fill: #808080; stroke: #000000; stroke-width: 0.138347; stroke-linejoin: miter"/>
   </g>
   <g id="patch_104">
    <path d="M 221.346637 242.118437 
L 222.846803 242.118437 
L 222.846803 242.118437 
L 221.346637 242.118437 
z
" clip-path="url(#p91e43d3c55)" style="fill: #808080; stroke: #000000; stroke-width: 0.138347; stroke-linejoin: miter"/>
   </g>
   <g id="patch_105">
    <path d="M 222.846803 242.118437 
L 224.346968 242.118437 
L 224.346968 241.550295 
L 222.846803 241.550295 
z
" clip-path="url(#p91e43d3c55)" style="fill: #808080; stroke: #000000; stroke-width: 0.138347; stroke-linejoin: miter"/>
   </g>
   <g id="patch_106">
    <path d="M 224.346968 242.118437 
L 225.847133 242.118437 
L 225.847133 240.792771 
L 224.346968 240.792771 
z
" clip-path="url(#p91e43d3c55)" style="fill: #808080; stroke: #000000; stroke-width: 0.138347; stroke-linejoin: miter"/>
   </g>
   <g id="patch_107">
    <path d="M 225.847133 242.118437 
L 227.347299 242.118437 
L 227.347299 242.118437 
L 225.847133 242.118437 
z
" clip-path="url(#p91e43d3c55)" style="fill: #808080; stroke: #000000; stroke-width: 0.138347; stroke-linejoin: miter"/>
   </g>
   <g id="patch_108">
    <path d="M 227.347299 242.118437 
L 228.847464 242.118437 
L 228.847464 240.982152 
L 227.347299 240.982152 
z
" clip-path="url(#p91e43d3c55)" style="fill: #808080; stroke: #000000; stroke-width: 0.138347; stroke-linejoin: miter"/>
   </g>
   <g id="patch_109">
    <path d="M 228.847464 242.118437 
L 230.347629 242.118437 
L 230.347629 241.739676 
L 228.847464 241.739676 
z
" clip-path="url(#p91e43d3c55)" style="fill: #808080; stroke: #000000; stroke-width: 0.138347; stroke-linejoin: miter"/>
   </g>
   <g id="patch_110">
    <path d="M 230.347629 242.118437 
L 231.847794 242.118437 
L 231.847794 240.792771 
L 230.347629 240.792771 
z
" clip-path="url(#p91e43d3c55)" style="fill: #808080; stroke: #000000; stroke-width: 0.138347; stroke-linejoin: miter"/>
   </g>
   <g id="patch_111">
    <path d="M 231.847794 242.118437 
L 233.34796 242.118437 
L 233.34796 242.118437 
L 231.847794 242.118437 
z
" clip-path="url(#p91e43d3c55)" style="fill: #808080; stroke: #000000; stroke-width: 0.138347; stroke-linejoin: miter"/>
   </g>
   <g id="patch_112">
    <path d="M 233.34796 242.118437 
L 234.848125 242.118437 
L 234.848125 240.60339 
L 233.34796 240.60339 
z
" clip-path="url(#p91e43d3c55)" style="fill: #808080; stroke: #000000; stroke-width: 0.138347; stroke-linejoin: miter"/>
   </g>
   <g id="patch_113">
    <path d="M 234.848125 242.118437 
L 236.34829 242.118437 
L 236.34829 240.982152 
L 234.848125 240.982152 
z
" clip-path="url(#p91e43d3c55)" style="fill: #808080; stroke: #000000; stroke-width: 0.138347; stroke-linejoin: miter"/>
   </g>
   <g id="patch_114">
    <path d="M 236.34829 242.118437 
L 237.848456 242.118437 
L 237.848456 242.118437 
L 236.34829 242.118437 
z
" clip-path="url(#p91e43d3c55)" style="fill: #808080; stroke: #000000; stroke-width: 0.138347; stroke-linejoin: miter"/>
   </g>
   <g id="patch_115">
    <path d="M 237.848456 242.118437 
L 239.348621 242.118437 
L 239.348621 241.360914 
L 237.848456 241.360914 
z
" clip-path="url(#p91e43d3c55)" style="fill: #808080; stroke: #000000; stroke-width: 0.138347; stroke-linejoin: miter"/>
   </g>
   <g id="patch_116">
    <path d="M 239.348621 242.118437 
L 240.848786 242.118437 
L 240.848786 241.171533 
L 239.348621 241.171533 
z
" clip-path="url(#p91e43d3c55)" style="fill: #808080; stroke: #000000; stroke-width: 0.138347; stroke-linejoin: miter"/>
   </g>
   <g id="patch_117">
    <path d="M 240.848786 242.118437 
L 242.348951 242.118437 
L 242.348951 241.739676 
L 240.848786 241.739676 
z
" clip-path="url(#p91e43d3c55)" style="fill: #808080; stroke: #000000; stroke-width: 0.138347; stroke-linejoin: miter"/>
   </g>
   <g id="patch_118">
    <path d="M 242.348951 242.118437 
L 243.849117 242.118437 
L 243.849117 242.118437 
L 242.348951 242.118437 
z
" clip-path="url(#p91e43d3c55)" style="fill: #808080; stroke: #000000; stroke-width: 0.138347; stroke-linejoin: miter"/>
   </g>
   <g id="patch_119">
    <path d="M 243.849117 242.118437 
L 245.349282 242.118437 
L 245.349282 241.739676 
L 243.849117 241.739676 
z
" clip-path="url(#p91e43d3c55)" style="fill: #808080; stroke: #000000; stroke-width: 0.138347; stroke-linejoin: miter"/>
   </g>
   <g id="patch_120">
    <path d="M 245.349282 242.118437 
L 246.849447 242.118437 
L 246.849447 240.982152 
L 245.349282 240.982152 
z
" clip-path="url(#p91e43d3c55)" style="fill: #808080; stroke: #000000; stroke-width: 0.138347; stroke-linejoin: miter"/>
   </g>
   <g id="patch_121">
    <path d="M 246.849447 242.118437 
L 248.349613 242.118437 
L 248.349613 242.118437 
L 246.849447 242.118437 
z
" clip-path="url(#p91e43d3c55)" style="fill: #808080; stroke: #000000; stroke-width: 0.138347; stroke-linejoin: miter"/>
   </g>
   <g id="patch_122">
    <path d="M 248.349613 242.118437 
L 249.849778 242.118437 
L 249.849778 241.929057 
L 248.349613 241.929057 
z
" clip-path="url(#p91e43d3c55)" style="fill: #808080; stroke: #000000; stroke-width: 0.138347; stroke-linejoin: miter"/>
   </g>
   <g id="patch_123">
    <path d="M 249.849778 242.118437 
L 251.349943 242.118437 
L 251.349943 241.929057 
L 249.849778 241.929057 
z
" clip-path="url(#p91e43d3c55)" style="fill: #808080; stroke: #000000; stroke-width: 0.138347; stroke-linejoin: miter"/>
   </g>
   <g id="patch_124">
    <path d="M 251.349943 242.118437 
L 252.850108 242.118437 
L 252.850108 242.118437 
L 251.349943 242.118437 
z
" clip-path="url(#p91e43d3c55)" style="fill: #808080; stroke: #000000; stroke-width: 0.138347; stroke-linejoin: miter"/>
   </g>
   <g id="patch_125">
    <path d="M 252.850108 242.118437 
L 254.350274 242.118437 
L 254.350274 241.739676 
L 252.850108 241.739676 
z
" clip-path="url(#p91e43d3c55)" style="fill: #808080; stroke: #000000; stroke-width: 0.138347; stroke-linejoin: miter"/>
   </g>
   <g id="patch_126">
    <path d="M 254.350274 242.118437 
L 255.850439 242.118437 
L 255.850439 242.118437 
L 254.350274 242.118437 
z
" clip-path="url(#p91e43d3c55)" style="fill: #808080; stroke: #000000; stroke-width: 0.138347; stroke-linejoin: miter"/>
   </g>
   <g id="patch_127">
    <path d="M 255.850439 242.118437 
L 257.350604 242.118437 
L 257.350604 242.118437 
L 255.850439 242.118437 
z
" clip-path="url(#p91e43d3c55)" style="fill: #808080; stroke: #000000; stroke-width: 0.138347; stroke-linejoin: miter"/>
   </g>
   <g id="patch_128">
    <path d="M 257.350604 242.118437 
L 258.85077 242.118437 
L 258.85077 242.118437 
L 257.350604 242.118437 
z
" clip-path="url(#p91e43d3c55)" style="fill: #808080; stroke: #000000; stroke-width: 0.138347; stroke-linejoin: miter"/>
   </g>
   <g id="patch_129">
    <path d="M 258.85077 242.118437 
L 260.350935 242.118437 
L 260.350935 241.739676 
L 258.85077 241.739676 
z
" clip-path="url(#p91e43d3c55)" style="fill: #808080; stroke: #000000; stroke-width: 0.138347; stroke-linejoin: miter"/>
   </g>
   <g id="patch_130">
    <path d="M 260.350935 242.118437 
L 261.8511 242.118437 
L 261.8511 241.550295 
L 260.350935 241.550295 
z
" clip-path="url(#p91e43d3c55)" style="fill: #808080; stroke: #000000; stroke-width: 0.138347; stroke-linejoin: miter"/>
   </g>
   <g id="patch_131">
    <path d="M 261.8511 242.118437 
L 263.351265 242.118437 
L 263.351265 242.118437 
L 261.8511 242.118437 
z
" clip-path="url(#p91e43d3c55)" style="fill: #808080; stroke: #000000; stroke-width: 0.138347; stroke-linejoin: miter"/>
   </g>
   <g id="patch_132">
    <path d="M 263.351265 242.118437 
L 264.851431 242.118437 
L 264.851431 241.739676 
L 263.351265 241.739676 
z
" clip-path="url(#p91e43d3c55)" style="fill: #808080; stroke: #000000; stroke-width: 0.138347; stroke-linejoin: miter"/>
   </g>
   <g id="patch_133">
    <path d="M 264.851431 242.118437 
L 266.351596 242.118437 
L 266.351596 241.739676 
L 264.851431 241.739676 
z
" clip-path="url(#p91e43d3c55)" style="fill: #808080; stroke: #000000; stroke-width: 0.138347; stroke-linejoin: miter"/>
   </g>
   <g id="patch_134">
    <path d="M 266.351596 242.118437 
L 267.851761 242.118437 
L 267.851761 242.118437 
L 266.351596 242.118437 
z
" clip-path="url(#p91e43d3c55)" style="fill: #808080; stroke: #000000; stroke-width: 0.138347; stroke-linejoin: miter"/>
   </g>
   <g id="patch_135">
    <path d="M 267.851761 242.118437 
L 269.351927 242.118437 
L 269.351927 242.118437 
L 267.851761 242.118437 
z
" clip-path="url(#p91e43d3c55)" style="fill: #808080; stroke: #000000; stroke-width: 0.138347; stroke-linejoin: miter"/>
   </g>
   <g id="patch_136">
    <path d="M 269.351927 242.118437 
L 270.852092 242.118437 
L 270.852092 241.550295 
L 269.351927 241.550295 
z
" clip-path="url(#p91e43d3c55)" style="fill: #808080; stroke: #000000; stroke-width: 0.138347; stroke-linejoin: miter"/>
   </g>
   <g id="patch_137">
    <path d="M 270.852092 242.118437 
L 272.352257 242.118437 
L 272.352257 241.929057 
L 270.852092 241.929057 
z
" clip-path="url(#p91e43d3c55)" style="fill: #808080; stroke: #000000; stroke-width: 0.138347; stroke-linejoin: miter"/>
   </g>
   <g id="patch_138">
    <path d="M 272.352257 242.118437 
L 273.852423 242.118437 
L 273.852423 242.118437 
L 272.352257 242.118437 
z
" clip-path="url(#p91e43d3c55)" style="fill: #808080; stroke: #000000; stroke-width: 0.138347; stroke-linejoin: miter"/>
   </g>
   <g id="patch_139">
    <path d="M 273.852423 242.118437 
L 275.352588 242.118437 
L 275.352588 241.739676 
L 273.852423 241.739676 
z
" clip-path="url(#p91e43d3c55)" style="fill: #808080; stroke: #000000; stroke-width: 0.138347; stroke-linejoin: miter"/>
   </g>
   <g id="patch_140">
    <path d="M 275.352588 242.118437 
L 276.852753 242.118437 
L 276.852753 242.118437 
L 275.352588 242.118437 
z
" clip-path="url(#p91e43d3c55)" style="fill: #808080; stroke: #000000; stroke-width: 0.138347; stroke-linejoin: miter"/>
   </g>
   <g id="patch_141">
    <path d="M 276.852753 242.118437 
L 278.352918 242.118437 
L 278.352918 242.118437 
L 276.852753 242.118437 
z
" clip-path="url(#p91e43d3c55)" style="fill: #808080; stroke: #000000; stroke-width: 0.138347; stroke-linejoin: miter"/>
   </g>
   <g id="patch_142">
    <path d="M 278.352918 242.118437 
L 279.853084 242.118437 
L 279.853084 241.929057 
L 278.352918 241.929057 
z
" clip-path="url(#p91e43d3c55)" style="fill: #808080; stroke: #000000; stroke-width: 0.138347; stroke-linejoin: miter"/>
   </g>
   <g id="patch_143">
    <path d="M 279.853084 242.118437 
L 281.353249 242.118437 
L 281.353249 241.739676 
L 279.853084 241.739676 
z
" clip-path="url(#p91e43d3c55)" style="fill: #808080; stroke: #000000; stroke-width: 0.138347; stroke-linejoin: miter"/>
   </g>
   <g id="patch_144">
    <path d="M 281.353249 242.118437 
L 282.853414 242.118437 
L 282.853414 242.118437 
L 281.353249 242.118437 
z
" clip-path="url(#p91e43d3c55)" style="fill: #808080; stroke: #000000; stroke-width: 0.138347; stroke-linejoin: miter"/>
   </g>
   <g id="patch_145">
    <path d="M 282.853414 242.118437 
L 284.35358 242.118437 
L 284.35358 242.118437 
L 282.853414 242.118437 
z
" clip-path="url(#p91e43d3c55)" style="fill: #808080; stroke: #000000; stroke-width: 0.138347; stroke-linejoin: miter"/>
   </g>
   <g id="patch_146">
    <path d="M 284.35358 242.118437 
L 285.853745 242.118437 
L 285.853745 241.739676 
L 284.35358 241.739676 
z
" clip-path="url(#p91e43d3c55)" style="fill: #808080; stroke: #000000; stroke-width: 0.138347; stroke-linejoin: miter"/>
   </g>
   <g id="patch_147">
    <path d="M 285.853745 242.118437 
L 287.35391 242.118437 
L 287.35391 242.118437 
L 285.853745 242.118437 
z
" clip-path="url(#p91e43d3c55)" style="fill: #808080; stroke: #000000; stroke-width: 0.138347; stroke-linejoin: miter"/>
   </g>
   <g id="patch_148">
    <path d="M 287.35391 242.118437 
L 288.854075 242.118437 
L 288.854075 242.118437 
L 287.35391 242.118437 
z
" clip-path="url(#p91e43d3c55)" style="fill: #808080; stroke: #000000; stroke-width: 0.138347; stroke-linejoin: miter"/>
   </g>
   <g id="patch_149">
    <path d="M 288.854075 242.118437 
L 290.354241 242.118437 
L 290.354241 242.118437 
L 288.854075 242.118437 
z
" clip-path="url(#p91e43d3c55)" style="fill: #808080; stroke: #000000; stroke-width: 0.138347; stroke-linejoin: miter"/>
   </g>
   <g id="patch_150">
    <path d="M 290.354241 242.118437 
L 291.854406 242.118437 
L 291.854406 241.929057 
L 290.354241 241.929057 
z
" clip-path="url(#p91e43d3c55)" style="fill: #808080; stroke: #000000; stroke-width: 0.138347; stroke-linejoin: miter"/>
   </g>
   <g id="patch_151">
    <path d="M 291.854406 242.118437 
L 293.354571 242.118437 
L 293.354571 242.118437 
L 291.854406 242.118437 
z
" clip-path="url(#p91e43d3c55)" style="fill: #808080; stroke: #000000; stroke-width: 0.138347; stroke-linejoin: miter"/>
   </g>
   <g id="patch_152">
    <path d="M 293.354571 242.118437 
L 294.854737 242.118437 
L 294.854737 242.118437 
L 293.354571 242.118437 
z
" clip-path="url(#p91e43d3c55)" style="fill: #808080; stroke: #000000; stroke-width: 0.138347; stroke-linejoin: miter"/>
   </g>
   <g id="patch_153">
    <path d="M 294.854737 242.118437 
L 296.354902 242.118437 
L 296.354902 242.118437 
L 294.854737 242.118437 
z
" clip-path="url(#p91e43d3c55)" style="fill: #808080; stroke: #000000; stroke-width: 0.138347; stroke-linejoin: miter"/>
   </g>
   <g id="patch_154">
    <path d="M 296.354902 242.118437 
L 297.855067 242.118437 
L 297.855067 241.929057 
L 296.354902 241.929057 
z
" clip-path="url(#p91e43d3c55)" style="fill: #808080; stroke: #000000; stroke-width: 0.138347; stroke-linejoin: miter"/>
   </g>
   <g id="patch_155">
    <path d="M 297.855067 242.118437 
L 299.355232 242.118437 
L 299.355232 242.118437 
L 297.855067 242.118437 
z
" clip-path="url(#p91e43d3c55)" style="fill: #808080; stroke: #000000; stroke-width: 0.138347; stroke-linejoin: miter"/>
   </g>
   <g id="patch_156">
    <path d="M 299.355232 242.118437 
L 300.855398 242.118437 
L 300.855398 242.118437 
L 299.355232 242.118437 
z
" clip-path="url(#p91e43d3c55)" style="fill: #808080; stroke: #000000; stroke-width: 0.138347; stroke-linejoin: miter"/>
   </g>
   <g id="patch_157">
    <path d="M 300.855398 242.118437 
L 302.355563 242.118437 
L 302.355563 242.118437 
L 300.855398 242.118437 
z
" clip-path="url(#p91e43d3c55)" style="fill: #808080; stroke: #000000; stroke-width: 0.138347; stroke-linejoin: miter"/>
   </g>
   <g id="patch_158">
    <path d="M 302.355563 242.118437 
L 303.855728 242.118437 
L 303.855728 242.118437 
L 302.355563 242.118437 
z
" clip-path="url(#p91e43d3c55)" style="fill: #808080; stroke: #000000; stroke-width: 0.138347; stroke-linejoin: miter"/>
   </g>
   <g id="patch_159">
    <path d="M 303.855728 242.118437 
L 305.355894 242.118437 
L 305.355894 241.929057 
L 303.855728 241.929057 
z
" clip-path="url(#p91e43d3c55)" style="fill: #808080; stroke: #000000; stroke-width: 0.138347; stroke-linejoin: miter"/>
   </g>
   <g id="patch_160">
    <path d="M 305.355894 242.118437 
L 306.856059 242.118437 
L 306.856059 241.929057 
L 305.355894 241.929057 
z
" clip-path="url(#p91e43d3c55)" style="fill: #808080; stroke: #000000; stroke-width: 0.138347; stroke-linejoin: miter"/>
   </g>
   <g id="patch_161">
    <path d="M 306.856059 242.118437 
L 308.356224 242.118437 
L 308.356224 242.118437 
L 306.856059 242.118437 
z
" clip-path="url(#p91e43d3c55)" style="fill: #808080; stroke: #000000; stroke-width: 0.138347; stroke-linejoin: miter"/>
   </g>
   <g id="patch_162">
    <path d="M 308.356224 242.118437 
L 309.856389 242.118437 
L 309.856389 242.118437 
L 308.356224 242.118437 
z
" clip-path="url(#p91e43d3c55)" style="fill: #808080; stroke: #000000; stroke-width: 0.138347; stroke-linejoin: miter"/>
   </g>
   <g id="patch_163">
    <path d="M 309.856389 242.118437 
L 311.356555 242.118437 
L 311.356555 241.929057 
L 309.856389 241.929057 
z
" clip-path="url(#p91e43d3c55)" style="fill: #808080; stroke: #000000; stroke-width: 0.138347; stroke-linejoin: miter"/>
   </g>
   <g id="patch_164">
    <path d="M 311.356555 242.118437 
L 312.85672 242.118437 
L 312.85672 242.118437 
L 311.356555 242.118437 
z
" clip-path="url(#p91e43d3c55)" style="fill: #808080; stroke: #000000; stroke-width: 0.138347; stroke-linejoin: miter"/>
   </g>
   <g id="patch_165">
    <path d="M 312.85672 242.118437 
L 314.356885 242.118437 
L 314.356885 242.118437 
L 312.85672 242.118437 
z
" clip-path="url(#p91e43d3c55)" style="fill: #808080; stroke: #000000; stroke-width: 0.138347; stroke-linejoin: miter"/>
   </g>
   <g id="patch_166">
    <path d="M 314.356885 242.118437 
L 315.857051 242.118437 
L 315.857051 242.118437 
L 314.356885 242.118437 
z
" clip-path="url(#p91e43d3c55)" style="fill: #808080; stroke: #000000; stroke-width: 0.138347; stroke-linejoin: miter"/>
   </g>
   <g id="patch_167">
    <path d="M 315.857051 242.118437 
L 317.357216 242.118437 
L 317.357216 241.929057 
L 315.857051 241.929057 
z
" clip-path="url(#p91e43d3c55)" style="fill: #808080; stroke: #000000; stroke-width: 0.138347; stroke-linejoin: miter"/>
   </g>
   <g id="patch_168">
    <path d="M 317.357216 242.118437 
L 318.857381 242.118437 
L 318.857381 242.118437 
L 317.357216 242.118437 
z
" clip-path="url(#p91e43d3c55)" style="fill: #808080; stroke: #000000; stroke-width: 0.138347; stroke-linejoin: miter"/>
   </g>
   <g id="patch_169">
    <path d="M 318.857381 242.118437 
L 320.357546 242.118437 
L 320.357546 241.929057 
L 318.857381 241.929057 
z
" clip-path="url(#p91e43d3c55)" style="fill: #808080; stroke: #000000; stroke-width: 0.138347; stroke-linejoin: miter"/>
   </g>
   <g id="patch_170">
    <path d="M 320.357546 242.118437 
L 321.857712 242.118437 
L 321.857712 242.118437 
L 320.357546 242.118437 
z
" clip-path="url(#p91e43d3c55)" style="fill: #808080; stroke: #000000; stroke-width: 0.138347; stroke-linejoin: miter"/>
   </g>
   <g id="patch_171">
    <path d="M 321.857712 242.118437 
L 323.357877 242.118437 
L 323.357877 242.118437 
L 321.857712 242.118437 
z
" clip-path="url(#p91e43d3c55)" style="fill: #808080; stroke: #000000; stroke-width: 0.138347; stroke-linejoin: miter"/>
   </g>
   <g id="patch_172">
    <path d="M 323.357877 242.118437 
L 324.858042 242.118437 
L 324.858042 242.118437 
L 323.357877 242.118437 
z
" clip-path="url(#p91e43d3c55)" style="fill: #808080; stroke: #000000; stroke-width: 0.138347; stroke-linejoin: miter"/>
   </g>
   <g id="patch_173">
    <path d="M 324.858042 242.118437 
L 326.358208 242.118437 
L 326.358208 242.118437 
L 324.858042 242.118437 
z
" clip-path="url(#p91e43d3c55)" style="fill: #808080; stroke: #000000; stroke-width: 0.138347; stroke-linejoin: miter"/>
   </g>
   <g id="patch_174">
    <path d="M 326.358208 242.118437 
L 327.858373 242.118437 
L 327.858373 242.118437 
L 326.358208 242.118437 
z
" clip-path="url(#p91e43d3c55)" style="fill: #808080; stroke: #000000; stroke-width: 0.138347; stroke-linejoin: miter"/>
   </g>
   <g id="patch_175">
    <path d="M 327.858373 242.118437 
L 329.358538 242.118437 
L 329.358538 242.118437 
L 327.858373 242.118437 
z
" clip-path="url(#p91e43d3c55)" style="fill: #808080; stroke: #000000; stroke-width: 0.138347; stroke-linejoin: miter"/>
   </g>
   <g id="patch_176">
    <path d="M 329.358538 242.118437 
L 330.858704 242.118437 
L 330.858704 242.118437 
L 329.358538 242.118437 
z
" clip-path="url(#p91e43d3c55)" style="fill: #808080; stroke: #000000; stroke-width: 0.138347; stroke-linejoin: miter"/>
   </g>
   <g id="patch_177">
    <path d="M 330.858704 242.118437 
L 332.358869 242.118437 
L 332.358869 242.118437 
L 330.858704 242.118437 
z
" clip-path="url(#p91e43d3c55)" style="fill: #808080; stroke: #000000; stroke-width: 0.138347; stroke-linejoin: miter"/>
   </g>
   <g id="patch_178">
    <path d="M 332.358869 242.118437 
L 333.859034 242.118437 
L 333.859034 242.118437 
L 332.358869 242.118437 
z
" clip-path="url(#p91e43d3c55)" style="fill: #808080; stroke: #000000; stroke-width: 0.138347; stroke-linejoin: miter"/>
   </g>
   <g id="patch_179">
    <path d="M 333.859034 242.118437 
L 335.359199 242.118437 
L 335.359199 242.118437 
L 333.859034 242.118437 
z
" clip-path="url(#p91e43d3c55)" style="fill: #808080; stroke: #000000; stroke-width: 0.138347; stroke-linejoin: miter"/>
   </g>
   <g id="patch_180">
    <path d="M 335.359199 242.118437 
L 336.859365 242.118437 
L 336.859365 241.929057 
L 335.359199 241.929057 
z
" clip-path="url(#p91e43d3c55)" style="fill: #808080; stroke: #000000; stroke-width: 0.138347; stroke-linejoin: miter"/>
   </g>
   <g id="patch_181">
    <path d="M 336.859365 242.118437 
L 338.35953 242.118437 
L 338.35953 241.929057 
L 336.859365 241.929057 
z
" clip-path="url(#p91e43d3c55)" style="fill: #808080; stroke: #000000; stroke-width: 0.138347; stroke-linejoin: miter"/>
   </g>
   <g id="patch_182">
    <path d="M 338.35953 242.118437 
L 339.859695 242.118437 
L 339.859695 242.118437 
L 338.35953 242.118437 
z
" clip-path="url(#p91e43d3c55)" style="fill: #808080; stroke: #000000; stroke-width: 0.138347; stroke-linejoin: miter"/>
   </g>
   <g id="patch_183">
    <path d="M 339.859695 242.118437 
L 341.359861 242.118437 
L 341.359861 242.118437 
L 339.859695 242.118437 
z
" clip-path="url(#p91e43d3c55)" style="fill: #808080; stroke: #000000; stroke-width: 0.138347; stroke-linejoin: miter"/>
   </g>
   <g id="patch_184">
    <path d="M 341.359861 242.118437 
L 342.860026 242.118437 
L 342.860026 242.118437 
L 341.359861 242.118437 
z
" clip-path="url(#p91e43d3c55)" style="fill: #808080; stroke: #000000; stroke-width: 0.138347; stroke-linejoin: miter"/>
   </g>
   <g id="patch_185">
    <path d="M 342.860026 242.118437 
L 344.360191 242.118437 
L 344.360191 242.118437 
L 342.860026 242.118437 
z
" clip-path="url(#p91e43d3c55)" style="fill: #808080; stroke: #000000; stroke-width: 0.138347; stroke-linejoin: miter"/>
   </g>
   <g id="patch_186">
    <path d="M 344.360191 242.118437 
L 345.860356 242.118437 
L 345.860356 241.929057 
L 344.360191 241.929057 
z
" clip-path="url(#p91e43d3c55)" style="fill: #808080; stroke: #000000; stroke-width: 0.138347; stroke-linejoin: miter"/>
   </g>
   <g id="patch_187">
    <path d="M 345.860356 242.118437 
L 347.360522 242.118437 
L 347.360522 242.118437 
L 345.860356 242.118437 
z
" clip-path="url(#p91e43d3c55)" style="fill: #808080; stroke: #000000; stroke-width: 0.138347; stroke-linejoin: miter"/>
   </g>
   <g id="patch_188">
    <path d="M 347.360522 242.118437 
L 348.860687 242.118437 
L 348.860687 242.118437 
L 347.360522 242.118437 
z
" clip-path="url(#p91e43d3c55)" style="fill: #808080; stroke: #000000; stroke-width: 0.138347; stroke-linejoin: miter"/>
   </g>
   <g id="patch_189">
    <path d="M 348.860687 242.118437 
L 350.360852 242.118437 
L 350.360852 242.118437 
L 348.860687 242.118437 
z
" clip-path="url(#p91e43d3c55)" style="fill: #808080; stroke: #000000; stroke-width: 0.138347; stroke-linejoin: miter"/>
   </g>
   <g id="patch_190">
    <path d="M 350.360852 242.118437 
L 351.861018 242.118437 
L 351.861018 242.118437 
L 350.360852 242.118437 
z
" clip-path="url(#p91e43d3c55)" style="fill: #808080; stroke: #000000; stroke-width: 0.138347; stroke-linejoin: miter"/>
   </g>
   <g id="patch_191">
    <path d="M 351.861018 242.118437 
L 353.361183 242.118437 
L 353.361183 241.929057 
L 351.861018 241.929057 
z
" clip-path="url(#p91e43d3c55)" style="fill: #808080; stroke: #000000; stroke-width: 0.138347; stroke-linejoin: miter"/>
   </g>
   <g id="patch_192">
    <path d="M 353.361183 242.118437 
L 354.861348 242.118437 
L 354.861348 242.118437 
L 353.361183 242.118437 
z
" clip-path="url(#p91e43d3c55)" style="fill: #808080; stroke: #000000; stroke-width: 0.138347; stroke-linejoin: miter"/>
   </g>
   <g id="patch_193">
    <path d="M 354.861348 242.118437 
L 356.361513 242.118437 
L 356.361513 241.929057 
L 354.861348 241.929057 
z
" clip-path="url(#p91e43d3c55)" style="fill: #808080; stroke: #000000; stroke-width: 0.138347; stroke-linejoin: miter"/>
   </g>
   <g id="patch_194">
    <path d="M 356.361513 242.118437 
L 357.861679 242.118437 
L 357.861679 242.118437 
L 356.361513 242.118437 
z
" clip-path="url(#p91e43d3c55)" style="fill: #808080; stroke: #000000; stroke-width: 0.138347; stroke-linejoin: miter"/>
   </g>
   <g id="patch_195">
    <path d="M 357.861679 242.118437 
L 359.361844 242.118437 
L 359.361844 242.118437 
L 357.861679 242.118437 
z
" clip-path="url(#p91e43d3c55)" style="fill: #808080; stroke: #000000; stroke-width: 0.138347; stroke-linejoin: miter"/>
   </g>
   <g id="patch_196">
    <path d="M 359.361844 242.118437 
L 360.862009 242.118437 
L 360.862009 242.118437 
L 359.361844 242.118437 
z
" clip-path="url(#p91e43d3c55)" style="fill: #808080; stroke: #000000; stroke-width: 0.138347; stroke-linejoin: miter"/>
   </g>
   <g id="patch_197">
    <path d="M 360.862009 242.118437 
L 362.362175 242.118437 
L 362.362175 242.118437 
L 360.862009 242.118437 
z
" clip-path="url(#p91e43d3c55)" style="fill: #808080; stroke: #000000; stroke-width: 0.138347; stroke-linejoin: miter"/>
   </g>
   <g id="patch_198">
    <path d="M 362.362175 242.118437 
L 363.86234 242.118437 
L 363.86234 242.118437 
L 362.362175 242.118437 
z
" clip-path="url(#p91e43d3c55)" style="fill: #808080; stroke: #000000; stroke-width: 0.138347; stroke-linejoin: miter"/>
   </g>
   <g id="patch_199">
    <path d="M 363.86234 242.118437 
L 365.362505 242.118437 
L 365.362505 242.118437 
L 363.86234 242.118437 
z
" clip-path="url(#p91e43d3c55)" style="fill: #808080; stroke: #000000; stroke-width: 0.138347; stroke-linejoin: miter"/>
   </g>
   <g id="patch_200">
    <path d="M 365.362505 242.118437 
L 366.86267 242.118437 
L 366.86267 242.118437 
L 365.362505 242.118437 
z
" clip-path="url(#p91e43d3c55)" style="fill: #808080; stroke: #000000; stroke-width: 0.138347; stroke-linejoin: miter"/>
   </g>
   <g id="patch_201">
    <path d="M 366.86267 242.118437 
L 368.362836 242.118437 
L 368.362836 242.118437 
L 366.86267 242.118437 
z
" clip-path="url(#p91e43d3c55)" style="fill: #808080; stroke: #000000; stroke-width: 0.138347; stroke-linejoin: miter"/>
   </g>
   <g id="patch_202">
    <path d="M 368.362836 242.118437 
L 369.863001 242.118437 
L 369.863001 242.118437 
L 368.362836 242.118437 
z
" clip-path="url(#p91e43d3c55)" style="fill: #808080; stroke: #000000; stroke-width: 0.138347; stroke-linejoin: miter"/>
   </g>
   <g id="patch_203">
    <path d="M 369.863001 242.118437 
L 371.363166 242.118437 
L 371.363166 242.118437 
L 369.863001 242.118437 
z
" clip-path="url(#p91e43d3c55)" style="fill: #808080; stroke: #000000; stroke-width: 0.138347; stroke-linejoin: miter"/>
   </g>
   <g id="patch_204">
    <path d="M 371.363166 242.118437 
L 372.863332 242.118437 
L 372.863332 242.118437 
L 371.363166 242.118437 
z
" clip-path="url(#p91e43d3c55)" style="fill: #808080; stroke: #000000; stroke-width: 0.138347; stroke-linejoin: miter"/>
   </g>
   <g id="patch_205">
    <path d="M 372.863332 242.118437 
L 374.363497 242.118437 
L 374.363497 242.118437 
L 372.863332 242.118437 
z
" clip-path="url(#p91e43d3c55)" style="fill: #808080; stroke: #000000; stroke-width: 0.138347; stroke-linejoin: miter"/>
   </g>
   <g id="patch_206">
    <path d="M 374.363497 242.118437 
L 375.863662 242.118437 
L 375.863662 242.118437 
L 374.363497 242.118437 
z
" clip-path="url(#p91e43d3c55)" style="fill: #808080; stroke: #000000; stroke-width: 0.138347; stroke-linejoin: miter"/>
   </g>
   <g id="patch_207">
    <path d="M 375.863662 242.118437 
L 377.363827 242.118437 
L 377.363827 242.118437 
L 375.863662 242.118437 
z
" clip-path="url(#p91e43d3c55)" style="fill: #808080; stroke: #000000; stroke-width: 0.138347; stroke-linejoin: miter"/>
   </g>
   <g id="patch_208">
    <path d="M 377.363827 242.118437 
L 378.863993 242.118437 
L 378.863993 242.118437 
L 377.363827 242.118437 
z
" clip-path="url(#p91e43d3c55)" style="fill: #808080; stroke: #000000; stroke-width: 0.138347; stroke-linejoin: miter"/>
   </g>
   <g id="patch_209">
    <path d="M 378.863993 242.118437 
L 380.364158 242.118437 
L 380.364158 242.118437 
L 378.863993 242.118437 
z
" clip-path="url(#p91e43d3c55)" style="fill: #808080; stroke: #000000; stroke-width: 0.138347; stroke-linejoin: miter"/>
   </g>
   <g id="patch_210">
    <path d="M 380.364158 242.118437 
L 381.864323 242.118437 
L 381.864323 242.118437 
L 380.364158 242.118437 
z
" clip-path="url(#p91e43d3c55)" style="fill: #808080; stroke: #000000; stroke-width: 0.138347; stroke-linejoin: miter"/>
   </g>
   <g id="patch_211">
    <path d="M 381.864323 242.118437 
L 383.364489 242.118437 
L 383.364489 242.118437 
L 381.864323 242.118437 
z
" clip-path="url(#p91e43d3c55)" style="fill: #808080; stroke: #000000; stroke-width: 0.138347; stroke-linejoin: miter"/>
   </g>
   <g id="patch_212">
    <path d="M 383.364489 242.118437 
L 384.864654 242.118437 
L 384.864654 242.118437 
L 383.364489 242.118437 
z
" clip-path="url(#p91e43d3c55)" style="fill: #808080; stroke: #000000; stroke-width: 0.138347; stroke-linejoin: miter"/>
   </g>
   <g id="patch_213">
    <path d="M 384.864654 242.118437 
L 386.364819 242.118437 
L 386.364819 242.118437 
L 384.864654 242.118437 
z
" clip-path="url(#p91e43d3c55)" style="fill: #808080; stroke: #000000; stroke-width: 0.138347; stroke-linejoin: miter"/>
   </g>
   <g id="patch_214">
    <path d="M 386.364819 242.118437 
L 387.864985 242.118437 
L 387.864985 242.118437 
L 386.364819 242.118437 
z
" clip-path="url(#p91e43d3c55)" style="fill: #808080; stroke: #000000; stroke-width: 0.138347; stroke-linejoin: miter"/>
   </g>
   <g id="patch_215">
    <path d="M 387.864985 242.118437 
L 389.36515 242.118437 
L 389.36515 242.118437 
L 387.864985 242.118437 
z
" clip-path="url(#p91e43d3c55)" style="fill: #808080; stroke: #000000; stroke-width: 0.138347; stroke-linejoin: miter"/>
   </g>
   <g id="patch_216">
    <path d="M 389.36515 242.118437 
L 390.865315 242.118437 
L 390.865315 242.118437 
L 389.36515 242.118437 
z
" clip-path="url(#p91e43d3c55)" style="fill: #808080; stroke: #000000; stroke-width: 0.138347; stroke-linejoin: miter"/>
   </g>
   <g id="patch_217">
    <path d="M 390.865315 242.118437 
L 392.36548 242.118437 
L 392.36548 242.118437 
L 390.865315 242.118437 
z
" clip-path="url(#p91e43d3c55)" style="fill: #808080; stroke: #000000; stroke-width: 0.138347; stroke-linejoin: miter"/>
   </g>
   <g id="patch_218">
    <path d="M 392.36548 242.118437 
L 393.865646 242.118437 
L 393.865646 242.118437 
L 392.36548 242.118437 
z
" clip-path="url(#p91e43d3c55)" style="fill: #808080; stroke: #000000; stroke-width: 0.138347; stroke-linejoin: miter"/>
   </g>
   <g id="patch_219">
    <path d="M 393.865646 242.118437 
L 395.365811 242.118437 
L 395.365811 242.118437 
L 393.865646 242.118437 
z
" clip-path="url(#p91e43d3c55)" style="fill: #808080; stroke: #000000; stroke-width: 0.138347; stroke-linejoin: miter"/>
   </g>
   <g id="patch_220">
    <path d="M 395.365811 242.118437 
L 396.865976 242.118437 
L 396.865976 242.118437 
L 395.365811 242.118437 
z
" clip-path="url(#p91e43d3c55)" style="fill: #808080; stroke: #000000; stroke-width: 0.138347; stroke-linejoin: miter"/>
   </g>
   <g id="patch_221">
    <path d="M 396.865976 242.118437 
L 398.366142 242.118437 
L 398.366142 242.118437 
L 396.865976 242.118437 
z
" clip-path="url(#p91e43d3c55)" style="fill: #808080; stroke: #000000; stroke-width: 0.138347; stroke-linejoin: miter"/>
   </g>
   <g id="patch_222">
    <path d="M 398.366142 242.118437 
L 399.866307 242.118437 
L 399.866307 241.929057 
L 398.366142 241.929057 
z
" clip-path="url(#p91e43d3c55)" style="fill: #808080; stroke: #000000; stroke-width: 0.138347; stroke-linejoin: miter"/>
   </g>
   <g id="matplotlib.axis_1">
    <g id="xtick_1">
     <g id="line2d_1">
      <defs>
       <path id="m146f6757eb" d="M 0 0 
L 0 3.5 
" style="stroke: #000000; stroke-width: 0.8"/>
      </defs>
      <g>
       <use xlink:href="#m146f6757eb" x="69.829943" y="242.118437" style="stroke: #000000; stroke-width: 0.8"/>
      </g>
     </g>
     <g id="text_1">
      <!-- 0 -->
      <g transform="translate(66.648693 256.716875) scale(0.1 -0.1)">
       <defs>
        <path id="DejaVuSans-30" d="M 2034 4250 
Q 1547 4250 1301 3770 
Q 1056 3291 1056 2328 
Q 1056 1369 1301 889 
Q 1547 409 2034 409 
Q 2525 409 2770 889 
Q 3016 1369 3016 2328 
Q 3016 3291 2770 3770 
Q 2525 4250 2034 4250 
z
M 2034 4750 
Q 2819 4750 3233 4129 
Q 3647 3509 3647 2328 
Q 3647 1150 3233 529 
Q 2819 -91 2034 -91 
Q 1250 -91 836 529 
Q 422 1150 422 2328 
Q 422 3509 836 4129 
Q 1250 4750 2034 4750 
z
" transform="scale(0.015625)"/>
       </defs>
       <use xlink:href="#DejaVuSans-30"/>
      </g>
     </g>
    </g>
    <g id="xtick_2">
     <g id="line2d_2">
      <g>
       <use xlink:href="#m146f6757eb" x="112.41528" y="242.118437" style="stroke: #000000; stroke-width: 0.8"/>
      </g>
     </g>
     <g id="text_2">
      <!-- 2 -->
      <g transform="translate(109.23403 256.716875) scale(0.1 -0.1)">
       <defs>
        <path id="DejaVuSans-32" d="M 1228 531 
L 3431 531 
L 3431 0 
L 469 0 
L 469 531 
Q 828 903 1448 1529 
Q 2069 2156 2228 2338 
Q 2531 2678 2651 2914 
Q 2772 3150 2772 3378 
Q 2772 3750 2511 3984 
Q 2250 4219 1831 4219 
Q 1534 4219 1204 4116 
Q 875 4013 500 3803 
L 500 4441 
Q 881 4594 1212 4672 
Q 1544 4750 1819 4750 
Q 2544 4750 2975 4387 
Q 3406 4025 3406 3419 
Q 3406 3131 3298 2873 
Q 3191 2616 2906 2266 
Q 2828 2175 2409 1742 
Q 1991 1309 1228 531 
z
" transform="scale(0.015625)"/>
       </defs>
       <use xlink:href="#DejaVuSans-32"/>
      </g>
     </g>
    </g>
    <g id="xtick_3">
     <g id="line2d_3">
      <g>
       <use xlink:href="#m146f6757eb" x="155.000618" y="242.118437" style="stroke: #000000; stroke-width: 0.8"/>
      </g>
     </g>
     <g id="text_3">
      <!-- 4 -->
      <g transform="translate(151.819368 256.716875) scale(0.1 -0.1)">
       <defs>
        <path id="DejaVuSans-34" d="M 2419 4116 
L 825 1625 
L 2419 1625 
L 2419 4116 
z
M 2253 4666 
L 3047 4666 
L 3047 1625 
L 3713 1625 
L 3713 1100 
L 3047 1100 
L 3047 0 
L 2419 0 
L 2419 1100 
L 313 1100 
L 313 1709 
L 2253 4666 
z
" transform="scale(0.015625)"/>
       </defs>
       <use xlink:href="#DejaVuSans-34"/>
      </g>
     </g>
    </g>
    <g id="xtick_4">
     <g id="line2d_4">
      <g>
       <use xlink:href="#m146f6757eb" x="197.585955" y="242.118437" style="stroke: #000000; stroke-width: 0.8"/>
      </g>
     </g>
     <g id="text_4">
      <!-- 6 -->
      <g transform="translate(194.404705 256.716875) scale(0.1 -0.1)">
       <defs>
        <path id="DejaVuSans-36" d="M 2113 2584 
Q 1688 2584 1439 2293 
Q 1191 2003 1191 1497 
Q 1191 994 1439 701 
Q 1688 409 2113 409 
Q 2538 409 2786 701 
Q 3034 994 3034 1497 
Q 3034 2003 2786 2293 
Q 2538 2584 2113 2584 
z
M 3366 4563 
L 3366 3988 
Q 3128 4100 2886 4159 
Q 2644 4219 2406 4219 
Q 1781 4219 1451 3797 
Q 1122 3375 1075 2522 
Q 1259 2794 1537 2939 
Q 1816 3084 2150 3084 
Q 2853 3084 3261 2657 
Q 3669 2231 3669 1497 
Q 3669 778 3244 343 
Q 2819 -91 2113 -91 
Q 1303 -91 875 529 
Q 447 1150 447 2328 
Q 447 3434 972 4092 
Q 1497 4750 2381 4750 
Q 2619 4750 2861 4703 
Q 3103 4656 3366 4563 
z
" transform="scale(0.015625)"/>
       </defs>
       <use xlink:href="#DejaVuSans-36"/>
      </g>
     </g>
    </g>
    <g id="xtick_5">
     <g id="line2d_5">
      <g>
       <use xlink:href="#m146f6757eb" x="240.171292" y="242.118437" style="stroke: #000000; stroke-width: 0.8"/>
      </g>
     </g>
     <g id="text_5">
      <!-- 8 -->
      <g transform="translate(236.990042 256.716875) scale(0.1 -0.1)">
       <defs>
        <path id="DejaVuSans-38" d="M 2034 2216 
Q 1584 2216 1326 1975 
Q 1069 1734 1069 1313 
Q 1069 891 1326 650 
Q 1584 409 2034 409 
Q 2484 409 2743 651 
Q 3003 894 3003 1313 
Q 3003 1734 2745 1975 
Q 2488 2216 2034 2216 
z
M 1403 2484 
Q 997 2584 770 2862 
Q 544 3141 544 3541 
Q 544 4100 942 4425 
Q 1341 4750 2034 4750 
Q 2731 4750 3128 4425 
Q 3525 4100 3525 3541 
Q 3525 3141 3298 2862 
Q 3072 2584 2669 2484 
Q 3125 2378 3379 2068 
Q 3634 1759 3634 1313 
Q 3634 634 3220 271 
Q 2806 -91 2034 -91 
Q 1263 -91 848 271 
Q 434 634 434 1313 
Q 434 1759 690 2068 
Q 947 2378 1403 2484 
z
M 1172 3481 
Q 1172 3119 1398 2916 
Q 1625 2713 2034 2713 
Q 2441 2713 2670 2916 
Q 2900 3119 2900 3481 
Q 2900 3844 2670 4047 
Q 2441 4250 2034 4250 
Q 1625 4250 1398 4047 
Q 1172 3844 1172 3481 
z
" transform="scale(0.015625)"/>
       </defs>
       <use xlink:href="#DejaVuSans-38"/>
      </g>
     </g>
    </g>
    <g id="xtick_6">
     <g id="line2d_6">
      <g>
       <use xlink:href="#m146f6757eb" x="282.756629" y="242.118437" style="stroke: #000000; stroke-width: 0.8"/>
      </g>
     </g>
     <g id="text_6">
      <!-- 10 -->
      <g transform="translate(276.394129 256.716875) scale(0.1 -0.1)">
       <defs>
        <path id="DejaVuSans-31" d="M 794 531 
L 1825 531 
L 1825 4091 
L 703 3866 
L 703 4441 
L 1819 4666 
L 2450 4666 
L 2450 531 
L 3481 531 
L 3481 0 
L 794 0 
L 794 531 
z
" transform="scale(0.015625)"/>
       </defs>
       <use xlink:href="#DejaVuSans-31"/>
       <use xlink:href="#DejaVuSans-30" x="63.623047"/>
      </g>
     </g>
    </g>
    <g id="xtick_7">
     <g id="line2d_7">
      <g>
       <use xlink:href="#m146f6757eb" x="325.341967" y="242.118437" style="stroke: #000000; stroke-width: 0.8"/>
      </g>
     </g>
     <g id="text_7">
      <!-- 12 -->
      <g transform="translate(318.979467 256.716875) scale(0.1 -0.1)">
       <use xlink:href="#DejaVuSans-31"/>
       <use xlink:href="#DejaVuSans-32" x="63.623047"/>
      </g>
     </g>
    </g>
    <g id="xtick_8">
     <g id="line2d_8">
      <g>
       <use xlink:href="#m146f6757eb" x="367.927304" y="242.118437" style="stroke: #000000; stroke-width: 0.8"/>
      </g>
     </g>
     <g id="text_8">
      <!-- 14 -->
      <g transform="translate(361.564804 256.716875) scale(0.1 -0.1)">
       <use xlink:href="#DejaVuSans-31"/>
       <use xlink:href="#DejaVuSans-34" x="63.623047"/>
      </g>
     </g>
    </g>
    <g id="xtick_9">
     <g id="line2d_9">
      <g>
       <use xlink:href="#m146f6757eb" x="410.512641" y="242.118437" style="stroke: #000000; stroke-width: 0.8"/>
      </g>
     </g>
     <g id="text_9">
      <!-- 16 -->
      <g transform="translate(404.150141 256.716875) scale(0.1 -0.1)">
       <use xlink:href="#DejaVuSans-31"/>
       <use xlink:href="#DejaVuSans-36" x="63.623047"/>
      </g>
     </g>
    </g>
    <g id="text_10">
     <!-- P -->
     <g transform="translate(231.833281 270.395) scale(0.1 -0.1)">
      <defs>
       <path id="DejaVuSans-50" d="M 1259 4147 
L 1259 2394 
L 2053 2394 
Q 2494 2394 2734 2622 
Q 2975 2850 2975 3272 
Q 2975 3691 2734 3919 
Q 2494 4147 2053 4147 
L 1259 4147 
z
M 628 4666 
L 2053 4666 
Q 2838 4666 3239 4311 
Q 3641 3956 3641 3272 
Q 3641 2581 3239 2228 
Q 2838 1875 2053 1875 
L 1259 1875 
L 1259 0 
L 628 0 
L 628 4666 
z
" transform="scale(0.015625)"/>
      </defs>
      <use xlink:href="#DejaVuSans-50"/>
     </g>
    </g>
   </g>
   <g id="matplotlib.axis_2">
    <g id="ytick_1">
     <g id="line2d_10">
      <defs>
       <path id="mc231090de7" d="M 0 0 
L -3.5 0 
" style="stroke: #000000; stroke-width: 0.8"/>
      </defs>
      <g>
       <use xlink:href="#mc231090de7" x="53.328125" y="242.118437" style="stroke: #000000; stroke-width: 0.8"/>
      </g>
     </g>
     <g id="text_11">
      <!-- 0 -->
      <g transform="translate(39.965625 245.917656) scale(0.1 -0.1)">
       <use xlink:href="#DejaVuSans-30"/>
      </g>
     </g>
    </g>
    <g id="ytick_2">
     <g id="line2d_11">
      <g>
       <use xlink:href="#mc231090de7" x="53.328125" y="204.242256" style="stroke: #000000; stroke-width: 0.8"/>
      </g>
     </g>
     <g id="text_12">
      <!-- 200 -->
      <g transform="translate(27.240625 208.041474) scale(0.1 -0.1)">
       <use xlink:href="#DejaVuSans-32"/>
       <use xlink:href="#DejaVuSans-30" x="63.623047"/>
       <use xlink:href="#DejaVuSans-30" x="127.246094"/>
      </g>
     </g>
    </g>
    <g id="ytick_3">
     <g id="line2d_12">
      <g>
       <use xlink:href="#mc231090de7" x="53.328125" y="166.366074" style="stroke: #000000; stroke-width: 0.8"/>
      </g>
     </g>
     <g id="text_13">
      <!-- 400 -->
      <g transform="translate(27.240625 170.165292) scale(0.1 -0.1)">
       <use xlink:href="#DejaVuSans-34"/>
       <use xlink:href="#DejaVuSans-30" x="63.623047"/>
       <use xlink:href="#DejaVuSans-30" x="127.246094"/>
      </g>
     </g>
    </g>
    <g id="ytick_4">
     <g id="line2d_13">
      <g>
       <use xlink:href="#mc231090de7" x="53.328125" y="128.489892" style="stroke: #000000; stroke-width: 0.8"/>
      </g>
     </g>
     <g id="text_14">
      <!-- 600 -->
      <g transform="translate(27.240625 132.28911) scale(0.1 -0.1)">
       <use xlink:href="#DejaVuSans-36"/>
       <use xlink:href="#DejaVuSans-30" x="63.623047"/>
       <use xlink:href="#DejaVuSans-30" x="127.246094"/>
      </g>
     </g>
    </g>
    <g id="ytick_5">
     <g id="line2d_14">
      <g>
       <use xlink:href="#mc231090de7" x="53.328125" y="90.61371" style="stroke: #000000; stroke-width: 0.8"/>
      </g>
     </g>
     <g id="text_15">
      <!-- 800 -->
      <g transform="translate(27.240625 94.412929) scale(0.1 -0.1)">
       <use xlink:href="#DejaVuSans-38"/>
       <use xlink:href="#DejaVuSans-30" x="63.623047"/>
       <use xlink:href="#DejaVuSans-30" x="127.246094"/>
      </g>
     </g>
    </g>
    <g id="ytick_6">
     <g id="line2d_15">
      <g>
       <use xlink:href="#mc231090de7" x="53.328125" y="52.737528" style="stroke: #000000; stroke-width: 0.8"/>
      </g>
     </g>
     <g id="text_16">
      <!-- 1000 -->
      <g transform="translate(20.878125 56.536747) scale(0.1 -0.1)">
       <use xlink:href="#DejaVuSans-31"/>
       <use xlink:href="#DejaVuSans-30" x="63.623047"/>
       <use xlink:href="#DejaVuSans-30" x="127.246094"/>
       <use xlink:href="#DejaVuSans-30" x="190.869141"/>
      </g>
     </g>
    </g>
    <g id="text_17">
     <!-- Count -->
     <g transform="translate(14.798438 146.306875) rotate(-90) scale(0.1 -0.1)">
      <defs>
       <path id="DejaVuSans-43" d="M 4122 4306 
L 4122 3641 
Q 3803 3938 3442 4084 
Q 3081 4231 2675 4231 
Q 1875 4231 1450 3742 
Q 1025 3253 1025 2328 
Q 1025 1406 1450 917 
Q 1875 428 2675 428 
Q 3081 428 3442 575 
Q 3803 722 4122 1019 
L 4122 359 
Q 3791 134 3420 21 
Q 3050 -91 2638 -91 
Q 1578 -91 968 557 
Q 359 1206 359 2328 
Q 359 3453 968 4101 
Q 1578 4750 2638 4750 
Q 3056 4750 3426 4639 
Q 3797 4528 4122 4306 
z
" transform="scale(0.015625)"/>
       <path id="DejaVuSans-6f" d="M 1959 3097 
Q 1497 3097 1228 2736 
Q 959 2375 959 1747 
Q 959 1119 1226 758 
Q 1494 397 1959 397 
Q 2419 397 2687 759 
Q 2956 1122 2956 1747 
Q 2956 2369 2687 2733 
Q 2419 3097 1959 3097 
z
M 1959 3584 
Q 2709 3584 3137 3096 
Q 3566 2609 3566 1747 
Q 3566 888 3137 398 
Q 2709 -91 1959 -91 
Q 1206 -91 779 398 
Q 353 888 353 1747 
Q 353 2609 779 3096 
Q 1206 3584 1959 3584 
z
" transform="scale(0.015625)"/>
       <path id="DejaVuSans-75" d="M 544 1381 
L 544 3500 
L 1119 3500 
L 1119 1403 
Q 1119 906 1312 657 
Q 1506 409 1894 409 
Q 2359 409 2629 706 
Q 2900 1003 2900 1516 
L 2900 3500 
L 3475 3500 
L 3475 0 
L 2900 0 
L 2900 538 
Q 2691 219 2414 64 
Q 2138 -91 1772 -91 
Q 1169 -91 856 284 
Q 544 659 544 1381 
z
M 1991 3584 
L 1991 3584 
z
" transform="scale(0.015625)"/>
       <path id="DejaVuSans-6e" d="M 3513 2113 
L 3513 0 
L 2938 0 
L 2938 2094 
Q 2938 2591 2744 2837 
Q 2550 3084 2163 3084 
Q 1697 3084 1428 2787 
Q 1159 2491 1159 1978 
L 1159 0 
L 581 0 
L 581 3500 
L 1159 3500 
L 1159 2956 
Q 1366 3272 1645 3428 
Q 1925 3584 2291 3584 
Q 2894 3584 3203 3211 
Q 3513 2838 3513 2113 
z
" transform="scale(0.015625)"/>
       <path id="DejaVuSans-74" d="M 1172 4494 
L 1172 3500 
L 2356 3500 
L 2356 3053 
L 1172 3053 
L 1172 1153 
Q 1172 725 1289 603 
Q 1406 481 1766 481 
L 2356 481 
L 2356 0 
L 1766 0 
Q 1100 0 847 248 
Q 594 497 594 1153 
L 594 3053 
L 172 3053 
L 172 3500 
L 594 3500 
L 594 4494 
L 1172 4494 
z
" transform="scale(0.015625)"/>
      </defs>
      <use xlink:href="#DejaVuSans-43"/>
      <use xlink:href="#DejaVuSans-6f" x="69.824219"/>
      <use xlink:href="#DejaVuSans-75" x="131.005859"/>
      <use xlink:href="#DejaVuSans-6e" x="194.384766"/>
      <use xlink:href="#DejaVuSans-74" x="257.763672"/>
     </g>
    </g>
   </g>
   <g id="patch_223">
    <path d="M 53.328125 242.118437 
L 53.328125 20.798437 
" style="fill: none; stroke: #000000; stroke-width: 0.8; stroke-linejoin: miter; stroke-linecap: square"/>
   </g>
   <g id="patch_224">
    <path d="M 416.368125 242.118437 
L 416.368125 20.798437 
" style="fill: none; stroke: #000000; stroke-width: 0.8; stroke-linejoin: miter; stroke-linecap: square"/>
   </g>
   <g id="patch_225">
    <path d="M 53.328125 242.118437 
L 416.368125 242.118437 
" style="fill: none; stroke: #000000; stroke-width: 0.8; stroke-linejoin: miter; stroke-linecap: square"/>
   </g>
   <g id="patch_226">
    <path d="M 53.328125 20.798437 
L 416.368125 20.798437 
" style="fill: none; stroke: #000000; stroke-width: 0.8; stroke-linejoin: miter; stroke-linecap: square"/>
   </g>
   <g id="text_18">
    <!-- Distribution of P -->
    <g transform="translate(194.666875 14.798437) scale(0.1 -0.1)">
     <defs>
      <path id="DejaVuSans-44" d="M 1259 4147 
L 1259 519 
L 2022 519 
Q 2988 519 3436 956 
Q 3884 1394 3884 2338 
Q 3884 3275 3436 3711 
Q 2988 4147 2022 4147 
L 1259 4147 
z
M 628 4666 
L 1925 4666 
Q 3281 4666 3915 4102 
Q 4550 3538 4550 2338 
Q 4550 1131 3912 565 
Q 3275 0 1925 0 
L 628 0 
L 628 4666 
z
" transform="scale(0.015625)"/>
      <path id="DejaVuSans-69" d="M 603 3500 
L 1178 3500 
L 1178 0 
L 603 0 
L 603 3500 
z
M 603 4863 
L 1178 4863 
L 1178 4134 
L 603 4134 
L 603 4863 
z
" transform="scale(0.015625)"/>
      <path id="DejaVuSans-73" d="M 2834 3397 
L 2834 2853 
Q 2591 2978 2328 3040 
Q 2066 3103 1784 3103 
Q 1356 3103 1142 2972 
Q 928 2841 928 2578 
Q 928 2378 1081 2264 
Q 1234 2150 1697 2047 
L 1894 2003 
Q 2506 1872 2764 1633 
Q 3022 1394 3022 966 
Q 3022 478 2636 193 
Q 2250 -91 1575 -91 
Q 1294 -91 989 -36 
Q 684 19 347 128 
L 347 722 
Q 666 556 975 473 
Q 1284 391 1588 391 
Q 1994 391 2212 530 
Q 2431 669 2431 922 
Q 2431 1156 2273 1281 
Q 2116 1406 1581 1522 
L 1381 1569 
Q 847 1681 609 1914 
Q 372 2147 372 2553 
Q 372 3047 722 3315 
Q 1072 3584 1716 3584 
Q 2034 3584 2315 3537 
Q 2597 3491 2834 3397 
z
" transform="scale(0.015625)"/>
      <path id="DejaVuSans-72" d="M 2631 2963 
Q 2534 3019 2420 3045 
Q 2306 3072 2169 3072 
Q 1681 3072 1420 2755 
Q 1159 2438 1159 1844 
L 1159 0 
L 581 0 
L 581 3500 
L 1159 3500 
L 1159 2956 
Q 1341 3275 1631 3429 
Q 1922 3584 2338 3584 
Q 2397 3584 2469 3576 
Q 2541 3569 2628 3553 
L 2631 2963 
z
" transform="scale(0.015625)"/>
      <path id="DejaVuSans-62" d="M 3116 1747 
Q 3116 2381 2855 2742 
Q 2594 3103 2138 3103 
Q 1681 3103 1420 2742 
Q 1159 2381 1159 1747 
Q 1159 1113 1420 752 
Q 1681 391 2138 391 
Q 2594 391 2855 752 
Q 3116 1113 3116 1747 
z
M 1159 2969 
Q 1341 3281 1617 3432 
Q 1894 3584 2278 3584 
Q 2916 3584 3314 3078 
Q 3713 2572 3713 1747 
Q 3713 922 3314 415 
Q 2916 -91 2278 -91 
Q 1894 -91 1617 61 
Q 1341 213 1159 525 
L 1159 0 
L 581 0 
L 581 4863 
L 1159 4863 
L 1159 2969 
z
" transform="scale(0.015625)"/>
      <path id="DejaVuSans-20" transform="scale(0.015625)"/>
      <path id="DejaVuSans-66" d="M 2375 4863 
L 2375 4384 
L 1825 4384 
Q 1516 4384 1395 4259 
Q 1275 4134 1275 3809 
L 1275 3500 
L 2222 3500 
L 2222 3053 
L 1275 3053 
L 1275 0 
L 697 0 
L 697 3053 
L 147 3053 
L 147 3500 
L 697 3500 
L 697 3744 
Q 697 4328 969 4595 
Q 1241 4863 1831 4863 
L 2375 4863 
z
" transform="scale(0.015625)"/>
     </defs>
     <use xlink:href="#DejaVuSans-44"/>
     <use xlink:href="#DejaVuSans-69" x="77.001953"/>
     <use xlink:href="#DejaVuSans-73" x="104.785156"/>
     <use xlink:href="#DejaVuSans-74" x="156.884766"/>
     <use xlink:href="#DejaVuSans-72" x="196.09375"/>
     <use xlink:href="#DejaVuSans-69" x="237.207031"/>
     <use xlink:href="#DejaVuSans-62" x="264.990234"/>
     <use xlink:href="#DejaVuSans-75" x="328.466797"/>
     <use xlink:href="#DejaVuSans-74" x="391.845703"/>
     <use xlink:href="#DejaVuSans-69" x="431.054688"/>
     <use xlink:href="#DejaVuSans-6f" x="458.837891"/>
     <use xlink:href="#DejaVuSans-6e" x="520.019531"/>
     <use xlink:href="#DejaVuSans-20" x="583.398438"/>
     <use xlink:href="#DejaVuSans-6f" x="615.185547"/>
     <use xlink:href="#DejaVuSans-66" x="676.367188"/>
     <use xlink:href="#DejaVuSans-20" x="711.572266"/>
     <use xlink:href="#DejaVuSans-50" x="743.359375"/>
    </g>
   </g>
  </g>
 </g>
 <defs>
  <clipPath id="p91e43d3c55">
   <rect x="53.328125" y="20.798437" width="363.04" height="221.32"/>
  </clipPath>
 </defs>
</svg>
