<?xml version="1.0" encoding="utf-8" standalone="no"?>
<!DOCTYPE svg PUBLIC "-//W3C//DTD SVG 1.1//EN"
  "http://www.w3.org/Graphics/SVG/1.1/DTD/svg11.dtd">
<svg xmlns:xlink="http://www.w3.org/1999/xlink" width="856.495625pt" height="423.034375pt" viewBox="0 0 856.495625 423.034375" xmlns="http://www.w3.org/2000/svg" version="1.1">
 <metadata>
  <rdf:RDF xmlns:dc="http://purl.org/dc/elements/1.1/" xmlns:cc="http://creativecommons.org/ns#" xmlns:rdf="http://www.w3.org/1999/02/22-rdf-syntax-ns#">
   <cc:Work>
    <dc:type rdf:resource="http://purl.org/dc/dcmitype/StillImage"/>
    <dc:date>2024-07-14T14:06:41.286741</dc:date>
    <dc:format>image/svg+xml</dc:format>
    <dc:creator>
     <cc:Agent>
      <dc:title>Matplotlib v3.9.0, https://matplotlib.org/</dc:title>
     </cc:Agent>
    </dc:creator>
   </cc:Work>
  </rdf:RDF>
 </metadata>
 <defs>
  <style type="text/css">*{stroke-linejoin: round; stroke-linecap: butt}</style>
 </defs>
 <g id="figure_1">
  <g id="patch_1">
   <path d="M 0 423.034375 
L 856.495625 423.034375 
L 856.495625 0 
L 0 0 
z
" style="fill: #ffffff"/>
  </g>
  <g id="axes_1">
   <g id="patch_2">
    <path d="M 46.965625 385.478125 
L 849.295625 385.478125 
L 849.295625 22.318125 
L 46.965625 22.318125 
z
" style="fill: #ffffff"/>
   </g>
   <g id="patch_3">
    <path d="M 108.343787 385.478125 
L 113.163459 385.478125 
L 113.163459 384.385339 
L 108.343787 384.385339 
z
" clip-path="url(#pc9e928e9f3)" style="fill: #1f77b4; fill-opacity: 0.5; stroke: #000000; stroke-width: 0.431721; stroke-linejoin: miter"/>
   </g>
   <g id="patch_4">
    <path d="M 113.163459 385.478125 
L 117.98313 385.478125 
L 117.98313 384.931732 
L 113.163459 384.931732 
z
" clip-path="url(#pc9e928e9f3)" style="fill: #1f77b4; fill-opacity: 0.5; stroke: #000000; stroke-width: 0.431721; stroke-linejoin: miter"/>
   </g>
   <g id="patch_5">
    <path d="M 117.98313 385.478125 
L 122.802802 385.478125 
L 122.802802 385.478125 
L 117.98313 385.478125 
z
" clip-path="url(#pc9e928e9f3)" style="fill: #1f77b4; fill-opacity: 0.5; stroke: #000000; stroke-width: 0.431721; stroke-linejoin: miter"/>
   </g>
   <g id="patch_6">
    <path d="M 122.802802 385.478125 
L 127.622473 385.478125 
L 127.622473 384.385339 
L 122.802802 384.385339 
z
" clip-path="url(#pc9e928e9f3)" style="fill: #1f77b4; fill-opacity: 0.5; stroke: #000000; stroke-width: 0.431721; stroke-linejoin: miter"/>
   </g>
   <g id="patch_7">
    <path d="M 127.622473 385.478125 
L 132.442145 385.478125 
L 132.442145 384.385339 
L 127.622473 384.385339 
z
" clip-path="url(#pc9e928e9f3)" style="fill: #1f77b4; fill-opacity: 0.5; stroke: #000000; stroke-width: 0.431721; stroke-linejoin: miter"/>
   </g>
   <g id="patch_8">
    <path d="M 132.442145 385.478125 
L 137.261816 385.478125 
L 137.261816 384.931732 
L 132.442145 384.931732 
z
" clip-path="url(#pc9e928e9f3)" style="fill: #1f77b4; fill-opacity: 0.5; stroke: #000000; stroke-width: 0.431721; stroke-linejoin: miter"/>
   </g>
   <g id="patch_9">
    <path d="M 137.261816 385.478125 
L 142.081488 385.478125 
L 142.081488 385.478125 
L 137.261816 385.478125 
z
" clip-path="url(#pc9e928e9f3)" style="fill: #1f77b4; fill-opacity: 0.5; stroke: #000000; stroke-width: 0.431721; stroke-linejoin: miter"/>
   </g>
   <g id="patch_10">
    <path d="M 142.081488 385.478125 
L 146.901159 385.478125 
L 146.901159 383.292554 
L 142.081488 383.292554 
z
" clip-path="url(#pc9e928e9f3)" style="fill: #1f77b4; fill-opacity: 0.5; stroke: #000000; stroke-width: 0.431721; stroke-linejoin: miter"/>
   </g>
   <g id="patch_11">
    <path d="M 146.901159 385.478125 
L 151.720831 385.478125 
L 151.720831 383.838946 
L 146.901159 383.838946 
z
" clip-path="url(#pc9e928e9f3)" style="fill: #1f77b4; fill-opacity: 0.5; stroke: #000000; stroke-width: 0.431721; stroke-linejoin: miter"/>
   </g>
   <g id="patch_12">
    <path d="M 151.720831 385.478125 
L 156.540502 385.478125 
L 156.540502 382.746161 
L 151.720831 382.746161 
z
" clip-path="url(#pc9e928e9f3)" style="fill: #1f77b4; fill-opacity: 0.5; stroke: #000000; stroke-width: 0.431721; stroke-linejoin: miter"/>
   </g>
   <g id="patch_13">
    <path d="M 156.540502 385.478125 
L 161.360173 385.478125 
L 161.360173 382.199768 
L 156.540502 382.199768 
z
" clip-path="url(#pc9e928e9f3)" style="fill: #1f77b4; fill-opacity: 0.5; stroke: #000000; stroke-width: 0.431721; stroke-linejoin: miter"/>
   </g>
   <g id="patch_14">
    <path d="M 161.360173 385.478125 
L 166.179845 385.478125 
L 166.179845 378.375018 
L 161.360173 378.375018 
z
" clip-path="url(#pc9e928e9f3)" style="fill: #1f77b4; fill-opacity: 0.5; stroke: #000000; stroke-width: 0.431721; stroke-linejoin: miter"/>
   </g>
   <g id="patch_15">
    <path d="M 166.179845 385.478125 
L 170.999516 385.478125 
L 170.999516 378.375018 
L 166.179845 378.375018 
z
" clip-path="url(#pc9e928e9f3)" style="fill: #1f77b4; fill-opacity: 0.5; stroke: #000000; stroke-width: 0.431721; stroke-linejoin: miter"/>
   </g>
   <g id="patch_16">
    <path d="M 170.999516 385.478125 
L 175.819188 385.478125 
L 175.819188 377.828625 
L 170.999516 377.828625 
z
" clip-path="url(#pc9e928e9f3)" style="fill: #1f77b4; fill-opacity: 0.5; stroke: #000000; stroke-width: 0.431721; stroke-linejoin: miter"/>
   </g>
   <g id="patch_17">
    <path d="M 175.819188 385.478125 
L 180.638859 385.478125 
L 180.638859 376.73584 
L 175.819188 376.73584 
z
" clip-path="url(#pc9e928e9f3)" style="fill: #1f77b4; fill-opacity: 0.5; stroke: #000000; stroke-width: 0.431721; stroke-linejoin: miter"/>
   </g>
   <g id="patch_18">
    <path d="M 180.638859 385.478125 
L 185.458531 385.478125 
L 185.458531 355.426519 
L 180.638859 355.426519 
z
" clip-path="url(#pc9e928e9f3)" style="fill: #1f77b4; fill-opacity: 0.5; stroke: #000000; stroke-width: 0.431721; stroke-linejoin: miter"/>
   </g>
   <g id="patch_19">
    <path d="M 185.458531 385.478125 
L 190.278202 385.478125 
L 190.278202 361.43684 
L 185.458531 361.43684 
z
" clip-path="url(#pc9e928e9f3)" style="fill: #1f77b4; fill-opacity: 0.5; stroke: #000000; stroke-width: 0.431721; stroke-linejoin: miter"/>
   </g>
   <g id="patch_20">
    <path d="M 190.278202 385.478125 
L 195.097874 385.478125 
L 195.097874 359.251269 
L 190.278202 359.251269 
z
" clip-path="url(#pc9e928e9f3)" style="fill: #1f77b4; fill-opacity: 0.5; stroke: #000000; stroke-width: 0.431721; stroke-linejoin: miter"/>
   </g>
   <g id="patch_21">
    <path d="M 195.097874 385.478125 
L 199.917545 385.478125 
L 199.917545 333.570805 
L 195.097874 333.570805 
z
" clip-path="url(#pc9e928e9f3)" style="fill: #1f77b4; fill-opacity: 0.5; stroke: #000000; stroke-width: 0.431721; stroke-linejoin: miter"/>
   </g>
   <g id="patch_22">
    <path d="M 199.917545 385.478125 
L 204.737217 385.478125 
L 204.737217 332.47802 
L 199.917545 332.47802 
z
" clip-path="url(#pc9e928e9f3)" style="fill: #1f77b4; fill-opacity: 0.5; stroke: #000000; stroke-width: 0.431721; stroke-linejoin: miter"/>
   </g>
   <g id="patch_23">
    <path d="M 204.737217 385.478125 
L 209.556888 385.478125 
L 209.556888 311.168699 
L 204.737217 311.168699 
z
" clip-path="url(#pc9e928e9f3)" style="fill: #1f77b4; fill-opacity: 0.5; stroke: #000000; stroke-width: 0.431721; stroke-linejoin: miter"/>
   </g>
   <g id="patch_24">
    <path d="M 209.556888 385.478125 
L 214.376559 385.478125 
L 214.376559 284.941843 
L 209.556888 284.941843 
z
" clip-path="url(#pc9e928e9f3)" style="fill: #1f77b4; fill-opacity: 0.5; stroke: #000000; stroke-width: 0.431721; stroke-linejoin: miter"/>
   </g>
   <g id="patch_25">
    <path d="M 214.376559 385.478125 
L 219.196231 385.478125 
L 219.196231 261.993344 
L 214.376559 261.993344 
z
" clip-path="url(#pc9e928e9f3)" style="fill: #1f77b4; fill-opacity: 0.5; stroke: #000000; stroke-width: 0.431721; stroke-linejoin: miter"/>
   </g>
   <g id="patch_26">
    <path d="M 219.196231 385.478125 
L 224.015902 385.478125 
L 224.015902 236.31288 
L 219.196231 236.31288 
z
" clip-path="url(#pc9e928e9f3)" style="fill: #1f77b4; fill-opacity: 0.5; stroke: #000000; stroke-width: 0.431721; stroke-linejoin: miter"/>
   </g>
   <g id="patch_27">
    <path d="M 224.015902 385.478125 
L 228.835574 385.478125 
L 228.835574 216.096345 
L 224.015902 216.096345 
z
" clip-path="url(#pc9e928e9f3)" style="fill: #1f77b4; fill-opacity: 0.5; stroke: #000000; stroke-width: 0.431721; stroke-linejoin: miter"/>
   </g>
   <g id="patch_28">
    <path d="M 228.835574 385.478125 
L 233.655245 385.478125 
L 233.655245 187.137525 
L 228.835574 187.137525 
z
" clip-path="url(#pc9e928e9f3)" style="fill: #1f77b4; fill-opacity: 0.5; stroke: #000000; stroke-width: 0.431721; stroke-linejoin: miter"/>
   </g>
   <g id="patch_29">
    <path d="M 233.655245 385.478125 
L 238.474917 385.478125 
L 238.474917 183.312775 
L 233.655245 183.312775 
z
" clip-path="url(#pc9e928e9f3)" style="fill: #1f77b4; fill-opacity: 0.5; stroke: #000000; stroke-width: 0.431721; stroke-linejoin: miter"/>
   </g>
   <g id="patch_30">
    <path d="M 238.474917 385.478125 
L 243.294588 385.478125 
L 243.294588 173.477704 
L 238.474917 173.477704 
z
" clip-path="url(#pc9e928e9f3)" style="fill: #1f77b4; fill-opacity: 0.5; stroke: #000000; stroke-width: 0.431721; stroke-linejoin: miter"/>
   </g>
   <g id="patch_31">
    <path d="M 243.294588 385.478125 
L 248.11426 385.478125 
L 248.11426 189.323096 
L 243.294588 189.323096 
z
" clip-path="url(#pc9e928e9f3)" style="fill: #1f77b4; fill-opacity: 0.5; stroke: #000000; stroke-width: 0.431721; stroke-linejoin: miter"/>
   </g>
   <g id="patch_32">
    <path d="M 248.11426 385.478125 
L 252.933931 385.478125 
L 252.933931 188.776703 
L 248.11426 188.776703 
z
" clip-path="url(#pc9e928e9f3)" style="fill: #1f77b4; fill-opacity: 0.5; stroke: #000000; stroke-width: 0.431721; stroke-linejoin: miter"/>
   </g>
   <g id="patch_33">
    <path d="M 252.933931 385.478125 
L 257.753603 385.478125 
L 257.753603 194.240632 
L 252.933931 194.240632 
z
" clip-path="url(#pc9e928e9f3)" style="fill: #1f77b4; fill-opacity: 0.5; stroke: #000000; stroke-width: 0.431721; stroke-linejoin: miter"/>
   </g>
   <g id="patch_34">
    <path d="M 257.753603 385.478125 
L 262.573274 385.478125 
L 262.573274 39.611458 
L 257.753603 39.611458 
z
" clip-path="url(#pc9e928e9f3)" style="fill: #1f77b4; fill-opacity: 0.5; stroke: #000000; stroke-width: 0.431721; stroke-linejoin: miter"/>
   </g>
   <g id="patch_35">
    <path d="M 262.573274 385.478125 
L 267.392945 385.478125 
L 267.392945 242.869594 
L 262.573274 242.869594 
z
" clip-path="url(#pc9e928e9f3)" style="fill: #1f77b4; fill-opacity: 0.5; stroke: #000000; stroke-width: 0.431721; stroke-linejoin: miter"/>
   </g>
   <g id="patch_36">
    <path d="M 267.392945 385.478125 
L 272.212617 385.478125 
L 272.212617 264.178915 
L 267.392945 264.178915 
z
" clip-path="url(#pc9e928e9f3)" style="fill: #1f77b4; fill-opacity: 0.5; stroke: #000000; stroke-width: 0.431721; stroke-linejoin: miter"/>
   </g>
   <g id="patch_37">
    <path d="M 272.212617 385.478125 
L 277.032288 385.478125 
L 277.032288 278.385129 
L 272.212617 278.385129 
z
" clip-path="url(#pc9e928e9f3)" style="fill: #1f77b4; fill-opacity: 0.5; stroke: #000000; stroke-width: 0.431721; stroke-linejoin: miter"/>
   </g>
   <g id="patch_38">
    <path d="M 277.032288 385.478125 
L 281.85196 385.478125 
L 281.85196 278.385129 
L 277.032288 278.385129 
z
" clip-path="url(#pc9e928e9f3)" style="fill: #1f77b4; fill-opacity: 0.5; stroke: #000000; stroke-width: 0.431721; stroke-linejoin: miter"/>
   </g>
   <g id="patch_39">
    <path d="M 281.85196 385.478125 
L 286.671631 385.478125 
L 286.671631 300.787235 
L 281.85196 300.787235 
z
" clip-path="url(#pc9e928e9f3)" style="fill: #1f77b4; fill-opacity: 0.5; stroke: #000000; stroke-width: 0.431721; stroke-linejoin: miter"/>
   </g>
   <g id="patch_40">
    <path d="M 286.671631 385.478125 
L 291.491303 385.478125 
L 291.491303 306.797556 
L 286.671631 306.797556 
z
" clip-path="url(#pc9e928e9f3)" style="fill: #1f77b4; fill-opacity: 0.5; stroke: #000000; stroke-width: 0.431721; stroke-linejoin: miter"/>
   </g>
   <g id="patch_41">
    <path d="M 291.491303 385.478125 
L 296.310974 385.478125 
L 296.310974 327.560484 
L 291.491303 327.560484 
z
" clip-path="url(#pc9e928e9f3)" style="fill: #1f77b4; fill-opacity: 0.5; stroke: #000000; stroke-width: 0.431721; stroke-linejoin: miter"/>
   </g>
   <g id="patch_42">
    <path d="M 296.310974 385.478125 
L 301.130646 385.478125 
L 301.130646 333.570805 
L 296.310974 333.570805 
z
" clip-path="url(#pc9e928e9f3)" style="fill: #1f77b4; fill-opacity: 0.5; stroke: #000000; stroke-width: 0.431721; stroke-linejoin: miter"/>
   </g>
   <g id="patch_43">
    <path d="M 301.130646 385.478125 
L 305.950317 385.478125 
L 305.950317 340.127519 
L 301.130646 340.127519 
z
" clip-path="url(#pc9e928e9f3)" style="fill: #1f77b4; fill-opacity: 0.5; stroke: #000000; stroke-width: 0.431721; stroke-linejoin: miter"/>
   </g>
   <g id="patch_44">
    <path d="M 305.950317 385.478125 
L 310.769989 385.478125 
L 310.769989 342.313091 
L 305.950317 342.313091 
z
" clip-path="url(#pc9e928e9f3)" style="fill: #1f77b4; fill-opacity: 0.5; stroke: #000000; stroke-width: 0.431721; stroke-linejoin: miter"/>
   </g>
   <g id="patch_45">
    <path d="M 310.769989 385.478125 
L 315.58966 385.478125 
L 315.58966 351.601769 
L 310.769989 351.601769 
z
" clip-path="url(#pc9e928e9f3)" style="fill: #1f77b4; fill-opacity: 0.5; stroke: #000000; stroke-width: 0.431721; stroke-linejoin: miter"/>
   </g>
   <g id="patch_46">
    <path d="M 315.58966 385.478125 
L 320.409331 385.478125 
L 320.409331 359.251269 
L 315.58966 359.251269 
z
" clip-path="url(#pc9e928e9f3)" style="fill: #1f77b4; fill-opacity: 0.5; stroke: #000000; stroke-width: 0.431721; stroke-linejoin: miter"/>
   </g>
   <g id="patch_47">
    <path d="M 320.409331 385.478125 
L 325.229003 385.478125 
L 325.229003 354.880126 
L 320.409331 354.880126 
z
" clip-path="url(#pc9e928e9f3)" style="fill: #1f77b4; fill-opacity: 0.5; stroke: #000000; stroke-width: 0.431721; stroke-linejoin: miter"/>
   </g>
   <g id="patch_48">
    <path d="M 325.229003 385.478125 
L 330.048674 385.478125 
L 330.048674 361.983233 
L 325.229003 361.983233 
z
" clip-path="url(#pc9e928e9f3)" style="fill: #1f77b4; fill-opacity: 0.5; stroke: #000000; stroke-width: 0.431721; stroke-linejoin: miter"/>
   </g>
   <g id="patch_49">
    <path d="M 330.048674 385.478125 
L 334.868346 385.478125 
L 334.868346 363.622411 
L 330.048674 363.622411 
z
" clip-path="url(#pc9e928e9f3)" style="fill: #1f77b4; fill-opacity: 0.5; stroke: #000000; stroke-width: 0.431721; stroke-linejoin: miter"/>
   </g>
   <g id="patch_50">
    <path d="M 334.868346 385.478125 
L 339.688017 385.478125 
L 339.688017 343.952269 
L 334.868346 343.952269 
z
" clip-path="url(#pc9e928e9f3)" style="fill: #1f77b4; fill-opacity: 0.5; stroke: #000000; stroke-width: 0.431721; stroke-linejoin: miter"/>
   </g>
   <g id="patch_51">
    <path d="M 339.688017 385.478125 
L 344.507689 385.478125 
L 344.507689 364.168804 
L 339.688017 364.168804 
z
" clip-path="url(#pc9e928e9f3)" style="fill: #1f77b4; fill-opacity: 0.5; stroke: #000000; stroke-width: 0.431721; stroke-linejoin: miter"/>
   </g>
   <g id="patch_52">
    <path d="M 344.507689 385.478125 
L 349.32736 385.478125 
L 349.32736 372.364697 
L 344.507689 372.364697 
z
" clip-path="url(#pc9e928e9f3)" style="fill: #1f77b4; fill-opacity: 0.5; stroke: #000000; stroke-width: 0.431721; stroke-linejoin: miter"/>
   </g>
   <g id="patch_53">
    <path d="M 349.32736 385.478125 
L 354.147032 385.478125 
L 354.147032 372.91109 
L 349.32736 372.91109 
z
" clip-path="url(#pc9e928e9f3)" style="fill: #1f77b4; fill-opacity: 0.5; stroke: #000000; stroke-width: 0.431721; stroke-linejoin: miter"/>
   </g>
   <g id="patch_54">
    <path d="M 354.147032 385.478125 
L 358.966703 385.478125 
L 358.966703 375.643054 
L 354.147032 375.643054 
z
" clip-path="url(#pc9e928e9f3)" style="fill: #1f77b4; fill-opacity: 0.5; stroke: #000000; stroke-width: 0.431721; stroke-linejoin: miter"/>
   </g>
   <g id="patch_55">
    <path d="M 358.966703 385.478125 
L 363.786375 385.478125 
L 363.786375 372.91109 
L 358.966703 372.91109 
z
" clip-path="url(#pc9e928e9f3)" style="fill: #1f77b4; fill-opacity: 0.5; stroke: #000000; stroke-width: 0.431721; stroke-linejoin: miter"/>
   </g>
   <g id="patch_56">
    <path d="M 363.786375 385.478125 
L 368.606046 385.478125 
L 368.606046 378.375018 
L 363.786375 378.375018 
z
" clip-path="url(#pc9e928e9f3)" style="fill: #1f77b4; fill-opacity: 0.5; stroke: #000000; stroke-width: 0.431721; stroke-linejoin: miter"/>
   </g>
   <g id="patch_57">
    <path d="M 368.606046 385.478125 
L 373.425717 385.478125 
L 373.425717 374.550268 
L 368.606046 374.550268 
z
" clip-path="url(#pc9e928e9f3)" style="fill: #1f77b4; fill-opacity: 0.5; stroke: #000000; stroke-width: 0.431721; stroke-linejoin: miter"/>
   </g>
   <g id="patch_58">
    <path d="M 373.425717 385.478125 
L 378.245389 385.478125 
L 378.245389 378.375018 
L 373.425717 378.375018 
z
" clip-path="url(#pc9e928e9f3)" style="fill: #1f77b4; fill-opacity: 0.5; stroke: #000000; stroke-width: 0.431721; stroke-linejoin: miter"/>
   </g>
   <g id="patch_59">
    <path d="M 378.245389 385.478125 
L 383.06506 385.478125 
L 383.06506 380.014197 
L 378.245389 380.014197 
z
" clip-path="url(#pc9e928e9f3)" style="fill: #1f77b4; fill-opacity: 0.5; stroke: #000000; stroke-width: 0.431721; stroke-linejoin: miter"/>
   </g>
   <g id="patch_60">
    <path d="M 383.06506 385.478125 
L 387.884732 385.478125 
L 387.884732 381.106982 
L 383.06506 381.106982 
z
" clip-path="url(#pc9e928e9f3)" style="fill: #1f77b4; fill-opacity: 0.5; stroke: #000000; stroke-width: 0.431721; stroke-linejoin: miter"/>
   </g>
   <g id="patch_61">
    <path d="M 387.884732 385.478125 
L 392.704403 385.478125 
L 392.704403 380.560589 
L 387.884732 380.560589 
z
" clip-path="url(#pc9e928e9f3)" style="fill: #1f77b4; fill-opacity: 0.5; stroke: #000000; stroke-width: 0.431721; stroke-linejoin: miter"/>
   </g>
   <g id="patch_62">
    <path d="M 392.704403 385.478125 
L 397.524075 385.478125 
L 397.524075 377.828625 
L 392.704403 377.828625 
z
" clip-path="url(#pc9e928e9f3)" style="fill: #1f77b4; fill-opacity: 0.5; stroke: #000000; stroke-width: 0.431721; stroke-linejoin: miter"/>
   </g>
   <g id="patch_63">
    <path d="M 397.524075 385.478125 
L 402.343746 385.478125 
L 402.343746 378.921411 
L 397.524075 378.921411 
z
" clip-path="url(#pc9e928e9f3)" style="fill: #1f77b4; fill-opacity: 0.5; stroke: #000000; stroke-width: 0.431721; stroke-linejoin: miter"/>
   </g>
   <g id="patch_64">
    <path d="M 402.343746 385.478125 
L 407.163418 385.478125 
L 407.163418 379.467804 
L 402.343746 379.467804 
z
" clip-path="url(#pc9e928e9f3)" style="fill: #1f77b4; fill-opacity: 0.5; stroke: #000000; stroke-width: 0.431721; stroke-linejoin: miter"/>
   </g>
   <g id="patch_65">
    <path d="M 407.163418 385.478125 
L 411.983089 385.478125 
L 411.983089 380.560589 
L 407.163418 380.560589 
z
" clip-path="url(#pc9e928e9f3)" style="fill: #1f77b4; fill-opacity: 0.5; stroke: #000000; stroke-width: 0.431721; stroke-linejoin: miter"/>
   </g>
   <g id="patch_66">
    <path d="M 411.983089 385.478125 
L 416.802761 385.478125 
L 416.802761 381.653375 
L 411.983089 381.653375 
z
" clip-path="url(#pc9e928e9f3)" style="fill: #1f77b4; fill-opacity: 0.5; stroke: #000000; stroke-width: 0.431721; stroke-linejoin: miter"/>
   </g>
   <g id="patch_67">
    <path d="M 416.802761 385.478125 
L 421.622432 385.478125 
L 421.622432 382.199768 
L 416.802761 382.199768 
z
" clip-path="url(#pc9e928e9f3)" style="fill: #1f77b4; fill-opacity: 0.5; stroke: #000000; stroke-width: 0.431721; stroke-linejoin: miter"/>
   </g>
   <g id="patch_68">
    <path d="M 421.622432 385.478125 
L 426.442103 385.478125 
L 426.442103 384.385339 
L 421.622432 384.385339 
z
" clip-path="url(#pc9e928e9f3)" style="fill: #1f77b4; fill-opacity: 0.5; stroke: #000000; stroke-width: 0.431721; stroke-linejoin: miter"/>
   </g>
   <g id="patch_69">
    <path d="M 426.442103 385.478125 
L 431.261775 385.478125 
L 431.261775 381.653375 
L 426.442103 381.653375 
z
" clip-path="url(#pc9e928e9f3)" style="fill: #1f77b4; fill-opacity: 0.5; stroke: #000000; stroke-width: 0.431721; stroke-linejoin: miter"/>
   </g>
   <g id="patch_70">
    <path d="M 431.261775 385.478125 
L 436.081446 385.478125 
L 436.081446 381.653375 
L 431.261775 381.653375 
z
" clip-path="url(#pc9e928e9f3)" style="fill: #1f77b4; fill-opacity: 0.5; stroke: #000000; stroke-width: 0.431721; stroke-linejoin: miter"/>
   </g>
   <g id="patch_71">
    <path d="M 436.081446 385.478125 
L 440.901118 385.478125 
L 440.901118 382.199768 
L 436.081446 382.199768 
z
" clip-path="url(#pc9e928e9f3)" style="fill: #1f77b4; fill-opacity: 0.5; stroke: #000000; stroke-width: 0.431721; stroke-linejoin: miter"/>
   </g>
   <g id="patch_72">
    <path d="M 440.901118 385.478125 
L 445.720789 385.478125 
L 445.720789 383.292554 
L 440.901118 383.292554 
z
" clip-path="url(#pc9e928e9f3)" style="fill: #1f77b4; fill-opacity: 0.5; stroke: #000000; stroke-width: 0.431721; stroke-linejoin: miter"/>
   </g>
   <g id="patch_73">
    <path d="M 445.720789 385.478125 
L 450.540461 385.478125 
L 450.540461 383.292554 
L 445.720789 383.292554 
z
" clip-path="url(#pc9e928e9f3)" style="fill: #1f77b4; fill-opacity: 0.5; stroke: #000000; stroke-width: 0.431721; stroke-linejoin: miter"/>
   </g>
   <g id="patch_74">
    <path d="M 450.540461 385.478125 
L 455.360132 385.478125 
L 455.360132 384.385339 
L 450.540461 384.385339 
z
" clip-path="url(#pc9e928e9f3)" style="fill: #1f77b4; fill-opacity: 0.5; stroke: #000000; stroke-width: 0.431721; stroke-linejoin: miter"/>
   </g>
   <g id="patch_75">
    <path d="M 455.360132 385.478125 
L 460.179804 385.478125 
L 460.179804 384.385339 
L 455.360132 384.385339 
z
" clip-path="url(#pc9e928e9f3)" style="fill: #1f77b4; fill-opacity: 0.5; stroke: #000000; stroke-width: 0.431721; stroke-linejoin: miter"/>
   </g>
   <g id="patch_76">
    <path d="M 460.179804 385.478125 
L 464.999475 385.478125 
L 464.999475 382.746161 
L 460.179804 382.746161 
z
" clip-path="url(#pc9e928e9f3)" style="fill: #1f77b4; fill-opacity: 0.5; stroke: #000000; stroke-width: 0.431721; stroke-linejoin: miter"/>
   </g>
   <g id="patch_77">
    <path d="M 464.999475 385.478125 
L 469.819147 385.478125 
L 469.819147 384.931732 
L 464.999475 384.931732 
z
" clip-path="url(#pc9e928e9f3)" style="fill: #1f77b4; fill-opacity: 0.5; stroke: #000000; stroke-width: 0.431721; stroke-linejoin: miter"/>
   </g>
   <g id="patch_78">
    <path d="M 469.819147 385.478125 
L 474.638818 385.478125 
L 474.638818 384.931732 
L 469.819147 384.931732 
z
" clip-path="url(#pc9e928e9f3)" style="fill: #1f77b4; fill-opacity: 0.5; stroke: #000000; stroke-width: 0.431721; stroke-linejoin: miter"/>
   </g>
   <g id="patch_79">
    <path d="M 474.638818 385.478125 
L 479.458489 385.478125 
L 479.458489 384.385339 
L 474.638818 384.385339 
z
" clip-path="url(#pc9e928e9f3)" style="fill: #1f77b4; fill-opacity: 0.5; stroke: #000000; stroke-width: 0.431721; stroke-linejoin: miter"/>
   </g>
   <g id="patch_80">
    <path d="M 479.458489 385.478125 
L 484.278161 385.478125 
L 484.278161 385.478125 
L 479.458489 385.478125 
z
" clip-path="url(#pc9e928e9f3)" style="fill: #1f77b4; fill-opacity: 0.5; stroke: #000000; stroke-width: 0.431721; stroke-linejoin: miter"/>
   </g>
   <g id="patch_81">
    <path d="M 484.278161 385.478125 
L 489.097832 385.478125 
L 489.097832 384.931732 
L 484.278161 384.931732 
z
" clip-path="url(#pc9e928e9f3)" style="fill: #1f77b4; fill-opacity: 0.5; stroke: #000000; stroke-width: 0.431721; stroke-linejoin: miter"/>
   </g>
   <g id="patch_82">
    <path d="M 489.097832 385.478125 
L 493.917504 385.478125 
L 493.917504 383.838946 
L 489.097832 383.838946 
z
" clip-path="url(#pc9e928e9f3)" style="fill: #1f77b4; fill-opacity: 0.5; stroke: #000000; stroke-width: 0.431721; stroke-linejoin: miter"/>
   </g>
   <g id="patch_83">
    <path d="M 493.917504 385.478125 
L 498.737175 385.478125 
L 498.737175 384.385339 
L 493.917504 384.385339 
z
" clip-path="url(#pc9e928e9f3)" style="fill: #1f77b4; fill-opacity: 0.5; stroke: #000000; stroke-width: 0.431721; stroke-linejoin: miter"/>
   </g>
   <g id="patch_84">
    <path d="M 498.737175 385.478125 
L 503.556847 385.478125 
L 503.556847 384.385339 
L 498.737175 384.385339 
z
" clip-path="url(#pc9e928e9f3)" style="fill: #1f77b4; fill-opacity: 0.5; stroke: #000000; stroke-width: 0.431721; stroke-linejoin: miter"/>
   </g>
   <g id="patch_85">
    <path d="M 503.556847 385.478125 
L 508.376518 385.478125 
L 508.376518 385.478125 
L 503.556847 385.478125 
z
" clip-path="url(#pc9e928e9f3)" style="fill: #1f77b4; fill-opacity: 0.5; stroke: #000000; stroke-width: 0.431721; stroke-linejoin: miter"/>
   </g>
   <g id="patch_86">
    <path d="M 508.376518 385.478125 
L 513.19619 385.478125 
L 513.19619 383.838946 
L 508.376518 383.838946 
z
" clip-path="url(#pc9e928e9f3)" style="fill: #1f77b4; fill-opacity: 0.5; stroke: #000000; stroke-width: 0.431721; stroke-linejoin: miter"/>
   </g>
   <g id="patch_87">
    <path d="M 513.19619 385.478125 
L 518.015861 385.478125 
L 518.015861 384.931732 
L 513.19619 384.931732 
z
" clip-path="url(#pc9e928e9f3)" style="fill: #1f77b4; fill-opacity: 0.5; stroke: #000000; stroke-width: 0.431721; stroke-linejoin: miter"/>
   </g>
   <g id="patch_88">
    <path d="M 518.015861 385.478125 
L 522.835533 385.478125 
L 522.835533 384.385339 
L 518.015861 384.385339 
z
" clip-path="url(#pc9e928e9f3)" style="fill: #1f77b4; fill-opacity: 0.5; stroke: #000000; stroke-width: 0.431721; stroke-linejoin: miter"/>
   </g>
   <g id="patch_89">
    <path d="M 522.835533 385.478125 
L 527.655204 385.478125 
L 527.655204 385.478125 
L 522.835533 385.478125 
z
" clip-path="url(#pc9e928e9f3)" style="fill: #1f77b4; fill-opacity: 0.5; stroke: #000000; stroke-width: 0.431721; stroke-linejoin: miter"/>
   </g>
   <g id="patch_90">
    <path d="M 527.655204 385.478125 
L 532.474875 385.478125 
L 532.474875 384.931732 
L 527.655204 384.931732 
z
" clip-path="url(#pc9e928e9f3)" style="fill: #1f77b4; fill-opacity: 0.5; stroke: #000000; stroke-width: 0.431721; stroke-linejoin: miter"/>
   </g>
   <g id="patch_91">
    <path d="M 532.474875 385.478125 
L 537.294547 385.478125 
L 537.294547 384.385339 
L 532.474875 384.385339 
z
" clip-path="url(#pc9e928e9f3)" style="fill: #1f77b4; fill-opacity: 0.5; stroke: #000000; stroke-width: 0.431721; stroke-linejoin: miter"/>
   </g>
   <g id="patch_92">
    <path d="M 537.294547 385.478125 
L 542.114218 385.478125 
L 542.114218 385.478125 
L 537.294547 385.478125 
z
" clip-path="url(#pc9e928e9f3)" style="fill: #1f77b4; fill-opacity: 0.5; stroke: #000000; stroke-width: 0.431721; stroke-linejoin: miter"/>
   </g>
   <g id="patch_93">
    <path d="M 542.114218 385.478125 
L 546.93389 385.478125 
L 546.93389 384.385339 
L 542.114218 384.385339 
z
" clip-path="url(#pc9e928e9f3)" style="fill: #1f77b4; fill-opacity: 0.5; stroke: #000000; stroke-width: 0.431721; stroke-linejoin: miter"/>
   </g>
   <g id="patch_94">
    <path d="M 546.93389 385.478125 
L 551.753561 385.478125 
L 551.753561 385.478125 
L 546.93389 385.478125 
z
" clip-path="url(#pc9e928e9f3)" style="fill: #1f77b4; fill-opacity: 0.5; stroke: #000000; stroke-width: 0.431721; stroke-linejoin: miter"/>
   </g>
   <g id="patch_95">
    <path d="M 551.753561 385.478125 
L 556.573233 385.478125 
L 556.573233 385.478125 
L 551.753561 385.478125 
z
" clip-path="url(#pc9e928e9f3)" style="fill: #1f77b4; fill-opacity: 0.5; stroke: #000000; stroke-width: 0.431721; stroke-linejoin: miter"/>
   </g>
   <g id="patch_96">
    <path d="M 556.573233 385.478125 
L 561.392904 385.478125 
L 561.392904 384.931732 
L 556.573233 384.931732 
z
" clip-path="url(#pc9e928e9f3)" style="fill: #1f77b4; fill-opacity: 0.5; stroke: #000000; stroke-width: 0.431721; stroke-linejoin: miter"/>
   </g>
   <g id="patch_97">
    <path d="M 561.392904 385.478125 
L 566.212576 385.478125 
L 566.212576 385.478125 
L 561.392904 385.478125 
z
" clip-path="url(#pc9e928e9f3)" style="fill: #1f77b4; fill-opacity: 0.5; stroke: #000000; stroke-width: 0.431721; stroke-linejoin: miter"/>
   </g>
   <g id="patch_98">
    <path d="M 566.212576 385.478125 
L 571.032247 385.478125 
L 571.032247 384.931732 
L 566.212576 384.931732 
z
" clip-path="url(#pc9e928e9f3)" style="fill: #1f77b4; fill-opacity: 0.5; stroke: #000000; stroke-width: 0.431721; stroke-linejoin: miter"/>
   </g>
   <g id="patch_99">
    <path d="M 571.032247 385.478125 
L 575.851919 385.478125 
L 575.851919 385.478125 
L 571.032247 385.478125 
z
" clip-path="url(#pc9e928e9f3)" style="fill: #1f77b4; fill-opacity: 0.5; stroke: #000000; stroke-width: 0.431721; stroke-linejoin: miter"/>
   </g>
   <g id="patch_100">
    <path d="M 575.851919 385.478125 
L 580.67159 385.478125 
L 580.67159 385.478125 
L 575.851919 385.478125 
z
" clip-path="url(#pc9e928e9f3)" style="fill: #1f77b4; fill-opacity: 0.5; stroke: #000000; stroke-width: 0.431721; stroke-linejoin: miter"/>
   </g>
   <g id="patch_101">
    <path d="M 580.67159 385.478125 
L 585.491261 385.478125 
L 585.491261 384.931732 
L 580.67159 384.931732 
z
" clip-path="url(#pc9e928e9f3)" style="fill: #1f77b4; fill-opacity: 0.5; stroke: #000000; stroke-width: 0.431721; stroke-linejoin: miter"/>
   </g>
   <g id="patch_102">
    <path d="M 585.491261 385.478125 
L 590.310933 385.478125 
L 590.310933 384.931732 
L 585.491261 384.931732 
z
" clip-path="url(#pc9e928e9f3)" style="fill: #1f77b4; fill-opacity: 0.5; stroke: #000000; stroke-width: 0.431721; stroke-linejoin: miter"/>
   </g>
   <g id="patch_103">
    <path d="M 590.310933 385.478125 
L 595.130604 385.478125 
L 595.130604 385.478125 
L 590.310933 385.478125 
z
" clip-path="url(#pc9e928e9f3)" style="fill: #1f77b4; fill-opacity: 0.5; stroke: #000000; stroke-width: 0.431721; stroke-linejoin: miter"/>
   </g>
   <g id="patch_104">
    <path d="M 595.130604 385.478125 
L 599.950276 385.478125 
L 599.950276 384.931732 
L 595.130604 384.931732 
z
" clip-path="url(#pc9e928e9f3)" style="fill: #1f77b4; fill-opacity: 0.5; stroke: #000000; stroke-width: 0.431721; stroke-linejoin: miter"/>
   </g>
   <g id="patch_105">
    <path d="M 599.950276 385.478125 
L 604.769947 385.478125 
L 604.769947 385.478125 
L 599.950276 385.478125 
z
" clip-path="url(#pc9e928e9f3)" style="fill: #1f77b4; fill-opacity: 0.5; stroke: #000000; stroke-width: 0.431721; stroke-linejoin: miter"/>
   </g>
   <g id="patch_106">
    <path d="M 604.769947 385.478125 
L 609.589619 385.478125 
L 609.589619 385.478125 
L 604.769947 385.478125 
z
" clip-path="url(#pc9e928e9f3)" style="fill: #1f77b4; fill-opacity: 0.5; stroke: #000000; stroke-width: 0.431721; stroke-linejoin: miter"/>
   </g>
   <g id="patch_107">
    <path d="M 609.589619 385.478125 
L 614.40929 385.478125 
L 614.40929 384.931732 
L 609.589619 384.931732 
z
" clip-path="url(#pc9e928e9f3)" style="fill: #1f77b4; fill-opacity: 0.5; stroke: #000000; stroke-width: 0.431721; stroke-linejoin: miter"/>
   </g>
   <g id="patch_108">
    <path d="M 614.40929 385.478125 
L 619.228962 385.478125 
L 619.228962 384.931732 
L 614.40929 384.931732 
z
" clip-path="url(#pc9e928e9f3)" style="fill: #1f77b4; fill-opacity: 0.5; stroke: #000000; stroke-width: 0.431721; stroke-linejoin: miter"/>
   </g>
   <g id="patch_109">
    <path d="M 619.228962 385.478125 
L 624.048633 385.478125 
L 624.048633 385.478125 
L 619.228962 385.478125 
z
" clip-path="url(#pc9e928e9f3)" style="fill: #1f77b4; fill-opacity: 0.5; stroke: #000000; stroke-width: 0.431721; stroke-linejoin: miter"/>
   </g>
   <g id="patch_110">
    <path d="M 624.048633 385.478125 
L 628.868305 385.478125 
L 628.868305 385.478125 
L 624.048633 385.478125 
z
" clip-path="url(#pc9e928e9f3)" style="fill: #1f77b4; fill-opacity: 0.5; stroke: #000000; stroke-width: 0.431721; stroke-linejoin: miter"/>
   </g>
   <g id="patch_111">
    <path d="M 628.868305 385.478125 
L 633.687976 385.478125 
L 633.687976 385.478125 
L 628.868305 385.478125 
z
" clip-path="url(#pc9e928e9f3)" style="fill: #1f77b4; fill-opacity: 0.5; stroke: #000000; stroke-width: 0.431721; stroke-linejoin: miter"/>
   </g>
   <g id="patch_112">
    <path d="M 633.687976 385.478125 
L 638.507647 385.478125 
L 638.507647 385.478125 
L 633.687976 385.478125 
z
" clip-path="url(#pc9e928e9f3)" style="fill: #1f77b4; fill-opacity: 0.5; stroke: #000000; stroke-width: 0.431721; stroke-linejoin: miter"/>
   </g>
   <g id="patch_113">
    <path d="M 638.507647 385.478125 
L 643.327319 385.478125 
L 643.327319 385.478125 
L 638.507647 385.478125 
z
" clip-path="url(#pc9e928e9f3)" style="fill: #1f77b4; fill-opacity: 0.5; stroke: #000000; stroke-width: 0.431721; stroke-linejoin: miter"/>
   </g>
   <g id="patch_114">
    <path d="M 643.327319 385.478125 
L 648.14699 385.478125 
L 648.14699 385.478125 
L 643.327319 385.478125 
z
" clip-path="url(#pc9e928e9f3)" style="fill: #1f77b4; fill-opacity: 0.5; stroke: #000000; stroke-width: 0.431721; stroke-linejoin: miter"/>
   </g>
   <g id="patch_115">
    <path d="M 648.14699 385.478125 
L 652.966662 385.478125 
L 652.966662 384.931732 
L 648.14699 384.931732 
z
" clip-path="url(#pc9e928e9f3)" style="fill: #1f77b4; fill-opacity: 0.5; stroke: #000000; stroke-width: 0.431721; stroke-linejoin: miter"/>
   </g>
   <g id="patch_116">
    <path d="M 652.966662 385.478125 
L 657.786333 385.478125 
L 657.786333 384.931732 
L 652.966662 384.931732 
z
" clip-path="url(#pc9e928e9f3)" style="fill: #1f77b4; fill-opacity: 0.5; stroke: #000000; stroke-width: 0.431721; stroke-linejoin: miter"/>
   </g>
   <g id="patch_117">
    <path d="M 657.786333 385.478125 
L 662.606005 385.478125 
L 662.606005 385.478125 
L 657.786333 385.478125 
z
" clip-path="url(#pc9e928e9f3)" style="fill: #1f77b4; fill-opacity: 0.5; stroke: #000000; stroke-width: 0.431721; stroke-linejoin: miter"/>
   </g>
   <g id="patch_118">
    <path d="M 662.606005 385.478125 
L 667.425676 385.478125 
L 667.425676 385.478125 
L 662.606005 385.478125 
z
" clip-path="url(#pc9e928e9f3)" style="fill: #1f77b4; fill-opacity: 0.5; stroke: #000000; stroke-width: 0.431721; stroke-linejoin: miter"/>
   </g>
   <g id="patch_119">
    <path d="M 667.425676 385.478125 
L 672.245348 385.478125 
L 672.245348 384.931732 
L 667.425676 384.931732 
z
" clip-path="url(#pc9e928e9f3)" style="fill: #1f77b4; fill-opacity: 0.5; stroke: #000000; stroke-width: 0.431721; stroke-linejoin: miter"/>
   </g>
   <g id="patch_120">
    <path d="M 672.245348 385.478125 
L 677.065019 385.478125 
L 677.065019 385.478125 
L 672.245348 385.478125 
z
" clip-path="url(#pc9e928e9f3)" style="fill: #1f77b4; fill-opacity: 0.5; stroke: #000000; stroke-width: 0.431721; stroke-linejoin: miter"/>
   </g>
   <g id="patch_121">
    <path d="M 677.065019 385.478125 
L 681.884691 385.478125 
L 681.884691 385.478125 
L 677.065019 385.478125 
z
" clip-path="url(#pc9e928e9f3)" style="fill: #1f77b4; fill-opacity: 0.5; stroke: #000000; stroke-width: 0.431721; stroke-linejoin: miter"/>
   </g>
   <g id="patch_122">
    <path d="M 681.884691 385.478125 
L 686.704362 385.478125 
L 686.704362 385.478125 
L 681.884691 385.478125 
z
" clip-path="url(#pc9e928e9f3)" style="fill: #1f77b4; fill-opacity: 0.5; stroke: #000000; stroke-width: 0.431721; stroke-linejoin: miter"/>
   </g>
   <g id="patch_123">
    <path d="M 686.704362 385.478125 
L 691.524033 385.478125 
L 691.524033 384.931732 
L 686.704362 384.931732 
z
" clip-path="url(#pc9e928e9f3)" style="fill: #1f77b4; fill-opacity: 0.5; stroke: #000000; stroke-width: 0.431721; stroke-linejoin: miter"/>
   </g>
   <g id="patch_124">
    <path d="M 691.524033 385.478125 
L 696.343705 385.478125 
L 696.343705 384.931732 
L 691.524033 384.931732 
z
" clip-path="url(#pc9e928e9f3)" style="fill: #1f77b4; fill-opacity: 0.5; stroke: #000000; stroke-width: 0.431721; stroke-linejoin: miter"/>
   </g>
   <g id="patch_125">
    <path d="M 696.343705 385.478125 
L 701.163376 385.478125 
L 701.163376 385.478125 
L 696.343705 385.478125 
z
" clip-path="url(#pc9e928e9f3)" style="fill: #1f77b4; fill-opacity: 0.5; stroke: #000000; stroke-width: 0.431721; stroke-linejoin: miter"/>
   </g>
   <g id="patch_126">
    <path d="M 701.163376 385.478125 
L 705.983048 385.478125 
L 705.983048 385.478125 
L 701.163376 385.478125 
z
" clip-path="url(#pc9e928e9f3)" style="fill: #1f77b4; fill-opacity: 0.5; stroke: #000000; stroke-width: 0.431721; stroke-linejoin: miter"/>
   </g>
   <g id="patch_127">
    <path d="M 705.983048 385.478125 
L 710.802719 385.478125 
L 710.802719 385.478125 
L 705.983048 385.478125 
z
" clip-path="url(#pc9e928e9f3)" style="fill: #1f77b4; fill-opacity: 0.5; stroke: #000000; stroke-width: 0.431721; stroke-linejoin: miter"/>
   </g>
   <g id="patch_128">
    <path d="M 710.802719 385.478125 
L 715.622391 385.478125 
L 715.622391 385.478125 
L 710.802719 385.478125 
z
" clip-path="url(#pc9e928e9f3)" style="fill: #1f77b4; fill-opacity: 0.5; stroke: #000000; stroke-width: 0.431721; stroke-linejoin: miter"/>
   </g>
   <g id="patch_129">
    <path d="M 715.622391 385.478125 
L 720.442062 385.478125 
L 720.442062 385.478125 
L 715.622391 385.478125 
z
" clip-path="url(#pc9e928e9f3)" style="fill: #1f77b4; fill-opacity: 0.5; stroke: #000000; stroke-width: 0.431721; stroke-linejoin: miter"/>
   </g>
   <g id="patch_130">
    <path d="M 720.442062 385.478125 
L 725.261734 385.478125 
L 725.261734 385.478125 
L 720.442062 385.478125 
z
" clip-path="url(#pc9e928e9f3)" style="fill: #1f77b4; fill-opacity: 0.5; stroke: #000000; stroke-width: 0.431721; stroke-linejoin: miter"/>
   </g>
   <g id="patch_131">
    <path d="M 725.261734 385.478125 
L 730.081405 385.478125 
L 730.081405 385.478125 
L 725.261734 385.478125 
z
" clip-path="url(#pc9e928e9f3)" style="fill: #1f77b4; fill-opacity: 0.5; stroke: #000000; stroke-width: 0.431721; stroke-linejoin: miter"/>
   </g>
   <g id="patch_132">
    <path d="M 730.081405 385.478125 
L 734.901077 385.478125 
L 734.901077 385.478125 
L 730.081405 385.478125 
z
" clip-path="url(#pc9e928e9f3)" style="fill: #1f77b4; fill-opacity: 0.5; stroke: #000000; stroke-width: 0.431721; stroke-linejoin: miter"/>
   </g>
   <g id="patch_133">
    <path d="M 734.901077 385.478125 
L 739.720748 385.478125 
L 739.720748 385.478125 
L 734.901077 385.478125 
z
" clip-path="url(#pc9e928e9f3)" style="fill: #1f77b4; fill-opacity: 0.5; stroke: #000000; stroke-width: 0.431721; stroke-linejoin: miter"/>
   </g>
   <g id="patch_134">
    <path d="M 739.720748 385.478125 
L 744.540419 385.478125 
L 744.540419 385.478125 
L 739.720748 385.478125 
z
" clip-path="url(#pc9e928e9f3)" style="fill: #1f77b4; fill-opacity: 0.5; stroke: #000000; stroke-width: 0.431721; stroke-linejoin: miter"/>
   </g>
   <g id="patch_135">
    <path d="M 744.540419 385.478125 
L 749.360091 385.478125 
L 749.360091 385.478125 
L 744.540419 385.478125 
z
" clip-path="url(#pc9e928e9f3)" style="fill: #1f77b4; fill-opacity: 0.5; stroke: #000000; stroke-width: 0.431721; stroke-linejoin: miter"/>
   </g>
   <g id="patch_136">
    <path d="M 749.360091 385.478125 
L 754.179762 385.478125 
L 754.179762 385.478125 
L 749.360091 385.478125 
z
" clip-path="url(#pc9e928e9f3)" style="fill: #1f77b4; fill-opacity: 0.5; stroke: #000000; stroke-width: 0.431721; stroke-linejoin: miter"/>
   </g>
   <g id="patch_137">
    <path d="M 754.179762 385.478125 
L 758.999434 385.478125 
L 758.999434 385.478125 
L 754.179762 385.478125 
z
" clip-path="url(#pc9e928e9f3)" style="fill: #1f77b4; fill-opacity: 0.5; stroke: #000000; stroke-width: 0.431721; stroke-linejoin: miter"/>
   </g>
   <g id="patch_138">
    <path d="M 758.999434 385.478125 
L 763.819105 385.478125 
L 763.819105 385.478125 
L 758.999434 385.478125 
z
" clip-path="url(#pc9e928e9f3)" style="fill: #1f77b4; fill-opacity: 0.5; stroke: #000000; stroke-width: 0.431721; stroke-linejoin: miter"/>
   </g>
   <g id="patch_139">
    <path d="M 763.819105 385.478125 
L 768.638777 385.478125 
L 768.638777 385.478125 
L 763.819105 385.478125 
z
" clip-path="url(#pc9e928e9f3)" style="fill: #1f77b4; fill-opacity: 0.5; stroke: #000000; stroke-width: 0.431721; stroke-linejoin: miter"/>
   </g>
   <g id="patch_140">
    <path d="M 768.638777 385.478125 
L 773.458448 385.478125 
L 773.458448 385.478125 
L 768.638777 385.478125 
z
" clip-path="url(#pc9e928e9f3)" style="fill: #1f77b4; fill-opacity: 0.5; stroke: #000000; stroke-width: 0.431721; stroke-linejoin: miter"/>
   </g>
   <g id="patch_141">
    <path d="M 773.458448 385.478125 
L 778.27812 385.478125 
L 778.27812 385.478125 
L 773.458448 385.478125 
z
" clip-path="url(#pc9e928e9f3)" style="fill: #1f77b4; fill-opacity: 0.5; stroke: #000000; stroke-width: 0.431721; stroke-linejoin: miter"/>
   </g>
   <g id="patch_142">
    <path d="M 778.27812 385.478125 
L 783.097791 385.478125 
L 783.097791 385.478125 
L 778.27812 385.478125 
z
" clip-path="url(#pc9e928e9f3)" style="fill: #1f77b4; fill-opacity: 0.5; stroke: #000000; stroke-width: 0.431721; stroke-linejoin: miter"/>
   </g>
   <g id="patch_143">
    <path d="M 783.097791 385.478125 
L 787.917463 385.478125 
L 787.917463 384.931732 
L 783.097791 384.931732 
z
" clip-path="url(#pc9e928e9f3)" style="fill: #1f77b4; fill-opacity: 0.5; stroke: #000000; stroke-width: 0.431721; stroke-linejoin: miter"/>
   </g>
   <g id="matplotlib.axis_1">
    <g id="xtick_1">
     <g id="line2d_1">
      <defs>
       <path id="m2cc47d340a" d="M 0 0 
L 0 3.5 
" style="stroke: #000000; stroke-width: 0.8"/>
      </defs>
      <g>
       <use xlink:href="#m2cc47d340a" x="85.691332" y="385.478125" style="stroke: #000000; stroke-width: 0.8"/>
      </g>
     </g>
     <g id="text_1">
      <!-- 0 -->
      <g transform="translate(82.510082 400.076562) scale(0.1 -0.1)">
       <defs>
        <path id="DejaVuSans-30" d="M 2034 4250 
Q 1547 4250 1301 3770 
Q 1056 3291 1056 2328 
Q 1056 1369 1301 889 
Q 1547 409 2034 409 
Q 2525 409 2770 889 
Q 3016 1369 3016 2328 
Q 3016 3291 2770 3770 
Q 2525 4250 2034 4250 
z
M 2034 4750 
Q 2819 4750 3233 4129 
Q 3647 3509 3647 2328 
Q 3647 1150 3233 529 
Q 2819 -91 2034 -91 
Q 1250 -91 836 529 
Q 422 1150 422 2328 
Q 422 3509 836 4129 
Q 1250 4750 2034 4750 
z
" transform="scale(0.015625)"/>
       </defs>
       <use xlink:href="#DejaVuSans-30"/>
      </g>
     </g>
    </g>
    <g id="xtick_2">
     <g id="line2d_2">
      <g>
       <use xlink:href="#m2cc47d340a" x="176.301155" y="385.478125" style="stroke: #000000; stroke-width: 0.8"/>
      </g>
     </g>
     <g id="text_2">
      <!-- 2 -->
      <g transform="translate(173.119905 400.076562) scale(0.1 -0.1)">
       <defs>
        <path id="DejaVuSans-32" d="M 1228 531 
L 3431 531 
L 3431 0 
L 469 0 
L 469 531 
Q 828 903 1448 1529 
Q 2069 2156 2228 2338 
Q 2531 2678 2651 2914 
Q 2772 3150 2772 3378 
Q 2772 3750 2511 3984 
Q 2250 4219 1831 4219 
Q 1534 4219 1204 4116 
Q 875 4013 500 3803 
L 500 4441 
Q 881 4594 1212 4672 
Q 1544 4750 1819 4750 
Q 2544 4750 2975 4387 
Q 3406 4025 3406 3419 
Q 3406 3131 3298 2873 
Q 3191 2616 2906 2266 
Q 2828 2175 2409 1742 
Q 1991 1309 1228 531 
z
" transform="scale(0.015625)"/>
       </defs>
       <use xlink:href="#DejaVuSans-32"/>
      </g>
     </g>
    </g>
    <g id="xtick_3">
     <g id="line2d_3">
      <g>
       <use xlink:href="#m2cc47d340a" x="266.910978" y="385.478125" style="stroke: #000000; stroke-width: 0.8"/>
      </g>
     </g>
     <g id="text_3">
      <!-- 4 -->
      <g transform="translate(263.729728 400.076562) scale(0.1 -0.1)">
       <defs>
        <path id="DejaVuSans-34" d="M 2419 4116 
L 825 1625 
L 2419 1625 
L 2419 4116 
z
M 2253 4666 
L 3047 4666 
L 3047 1625 
L 3713 1625 
L 3713 1100 
L 3047 1100 
L 3047 0 
L 2419 0 
L 2419 1100 
L 313 1100 
L 313 1709 
L 2253 4666 
z
" transform="scale(0.015625)"/>
       </defs>
       <use xlink:href="#DejaVuSans-34"/>
      </g>
     </g>
    </g>
    <g id="xtick_4">
     <g id="line2d_4">
      <g>
       <use xlink:href="#m2cc47d340a" x="357.520802" y="385.478125" style="stroke: #000000; stroke-width: 0.8"/>
      </g>
     </g>
     <g id="text_4">
      <!-- 6 -->
      <g transform="translate(354.339552 400.076562) scale(0.1 -0.1)">
       <defs>
        <path id="DejaVuSans-36" d="M 2113 2584 
Q 1688 2584 1439 2293 
Q 1191 2003 1191 1497 
Q 1191 994 1439 701 
Q 1688 409 2113 409 
Q 2538 409 2786 701 
Q 3034 994 3034 1497 
Q 3034 2003 2786 2293 
Q 2538 2584 2113 2584 
z
M 3366 4563 
L 3366 3988 
Q 3128 4100 2886 4159 
Q 2644 4219 2406 4219 
Q 1781 4219 1451 3797 
Q 1122 3375 1075 2522 
Q 1259 2794 1537 2939 
Q 1816 3084 2150 3084 
Q 2853 3084 3261 2657 
Q 3669 2231 3669 1497 
Q 3669 778 3244 343 
Q 2819 -91 2113 -91 
Q 1303 -91 875 529 
Q 447 1150 447 2328 
Q 447 3434 972 4092 
Q 1497 4750 2381 4750 
Q 2619 4750 2861 4703 
Q 3103 4656 3366 4563 
z
" transform="scale(0.015625)"/>
       </defs>
       <use xlink:href="#DejaVuSans-36"/>
      </g>
     </g>
    </g>
    <g id="xtick_5">
     <g id="line2d_5">
      <g>
       <use xlink:href="#m2cc47d340a" x="448.130625" y="385.478125" style="stroke: #000000; stroke-width: 0.8"/>
      </g>
     </g>
     <g id="text_5">
      <!-- 8 -->
      <g transform="translate(444.949375 400.076562) scale(0.1 -0.1)">
       <defs>
        <path id="DejaVuSans-38" d="M 2034 2216 
Q 1584 2216 1326 1975 
Q 1069 1734 1069 1313 
Q 1069 891 1326 650 
Q 1584 409 2034 409 
Q 2484 409 2743 651 
Q 3003 894 3003 1313 
Q 3003 1734 2745 1975 
Q 2488 2216 2034 2216 
z
M 1403 2484 
Q 997 2584 770 2862 
Q 544 3141 544 3541 
Q 544 4100 942 4425 
Q 1341 4750 2034 4750 
Q 2731 4750 3128 4425 
Q 3525 4100 3525 3541 
Q 3525 3141 3298 2862 
Q 3072 2584 2669 2484 
Q 3125 2378 3379 2068 
Q 3634 1759 3634 1313 
Q 3634 634 3220 271 
Q 2806 -91 2034 -91 
Q 1263 -91 848 271 
Q 434 634 434 1313 
Q 434 1759 690 2068 
Q 947 2378 1403 2484 
z
M 1172 3481 
Q 1172 3119 1398 2916 
Q 1625 2713 2034 2713 
Q 2441 2713 2670 2916 
Q 2900 3119 2900 3481 
Q 2900 3844 2670 4047 
Q 2441 4250 2034 4250 
Q 1625 4250 1398 4047 
Q 1172 3844 1172 3481 
z
" transform="scale(0.015625)"/>
       </defs>
       <use xlink:href="#DejaVuSans-38"/>
      </g>
     </g>
    </g>
    <g id="xtick_6">
     <g id="line2d_6">
      <g>
       <use xlink:href="#m2cc47d340a" x="538.740448" y="385.478125" style="stroke: #000000; stroke-width: 0.8"/>
      </g>
     </g>
     <g id="text_6">
      <!-- 10 -->
      <g transform="translate(532.377948 400.076562) scale(0.1 -0.1)">
       <defs>
        <path id="DejaVuSans-31" d="M 794 531 
L 1825 531 
L 1825 4091 
L 703 3866 
L 703 4441 
L 1819 4666 
L 2450 4666 
L 2450 531 
L 3481 531 
L 3481 0 
L 794 0 
L 794 531 
z
" transform="scale(0.015625)"/>
       </defs>
       <use xlink:href="#DejaVuSans-31"/>
       <use xlink:href="#DejaVuSans-30" x="63.623047"/>
      </g>
     </g>
    </g>
    <g id="xtick_7">
     <g id="line2d_7">
      <g>
       <use xlink:href="#m2cc47d340a" x="629.350272" y="385.478125" style="stroke: #000000; stroke-width: 0.8"/>
      </g>
     </g>
     <g id="text_7">
      <!-- 12 -->
      <g transform="translate(622.987772 400.076562) scale(0.1 -0.1)">
       <use xlink:href="#DejaVuSans-31"/>
       <use xlink:href="#DejaVuSans-32" x="63.623047"/>
      </g>
     </g>
    </g>
    <g id="xtick_8">
     <g id="line2d_8">
      <g>
       <use xlink:href="#m2cc47d340a" x="719.960095" y="385.478125" style="stroke: #000000; stroke-width: 0.8"/>
      </g>
     </g>
     <g id="text_8">
      <!-- 14 -->
      <g transform="translate(713.597595 400.076562) scale(0.1 -0.1)">
       <use xlink:href="#DejaVuSans-31"/>
       <use xlink:href="#DejaVuSans-34" x="63.623047"/>
      </g>
     </g>
    </g>
    <g id="xtick_9">
     <g id="line2d_9">
      <g>
       <use xlink:href="#m2cc47d340a" x="810.569918" y="385.478125" style="stroke: #000000; stroke-width: 0.8"/>
      </g>
     </g>
     <g id="text_9">
      <!-- 16 -->
      <g transform="translate(804.207418 400.076562) scale(0.1 -0.1)">
       <use xlink:href="#DejaVuSans-31"/>
       <use xlink:href="#DejaVuSans-36" x="63.623047"/>
      </g>
     </g>
    </g>
    <g id="text_10">
     <!-- P -->
     <g transform="translate(445.115781 413.754687) scale(0.1 -0.1)">
      <defs>
       <path id="DejaVuSans-50" d="M 1259 4147 
L 1259 2394 
L 2053 2394 
Q 2494 2394 2734 2622 
Q 2975 2850 2975 3272 
Q 2975 3691 2734 3919 
Q 2494 4147 2053 4147 
L 1259 4147 
z
M 628 4666 
L 2053 4666 
Q 2838 4666 3239 4311 
Q 3641 3956 3641 3272 
Q 3641 2581 3239 2228 
Q 2838 1875 2053 1875 
L 1259 1875 
L 1259 0 
L 628 0 
L 628 4666 
z
" transform="scale(0.015625)"/>
      </defs>
      <use xlink:href="#DejaVuSans-50"/>
     </g>
    </g>
   </g>
   <g id="matplotlib.axis_2">
    <g id="ytick_1">
     <g id="line2d_10">
      <defs>
       <path id="mc161e36bf0" d="M 0 0 
L -3.5 0 
" style="stroke: #000000; stroke-width: 0.8"/>
      </defs>
      <g>
       <use xlink:href="#mc161e36bf0" x="46.965625" y="385.478125" style="stroke: #000000; stroke-width: 0.8"/>
      </g>
     </g>
     <g id="text_11">
      <!-- 0 -->
      <g transform="translate(33.603125 389.277344) scale(0.1 -0.1)">
       <use xlink:href="#DejaVuSans-30"/>
      </g>
     </g>
    </g>
    <g id="ytick_2">
     <g id="line2d_11">
      <g>
       <use xlink:href="#mc161e36bf0" x="46.965625" y="330.838841" style="stroke: #000000; stroke-width: 0.8"/>
      </g>
     </g>
     <g id="text_12">
      <!-- 100 -->
      <g transform="translate(20.878125 334.63806) scale(0.1 -0.1)">
       <use xlink:href="#DejaVuSans-31"/>
       <use xlink:href="#DejaVuSans-30" x="63.623047"/>
       <use xlink:href="#DejaVuSans-30" x="127.246094"/>
      </g>
     </g>
    </g>
    <g id="ytick_3">
     <g id="line2d_12">
      <g>
       <use xlink:href="#mc161e36bf0" x="46.965625" y="276.199557" style="stroke: #000000; stroke-width: 0.8"/>
      </g>
     </g>
     <g id="text_13">
      <!-- 200 -->
      <g transform="translate(20.878125 279.998776) scale(0.1 -0.1)">
       <use xlink:href="#DejaVuSans-32"/>
       <use xlink:href="#DejaVuSans-30" x="63.623047"/>
       <use xlink:href="#DejaVuSans-30" x="127.246094"/>
      </g>
     </g>
    </g>
    <g id="ytick_4">
     <g id="line2d_13">
      <g>
       <use xlink:href="#mc161e36bf0" x="46.965625" y="221.560273" style="stroke: #000000; stroke-width: 0.8"/>
      </g>
     </g>
     <g id="text_14">
      <!-- 300 -->
      <g transform="translate(20.878125 225.359492) scale(0.1 -0.1)">
       <defs>
        <path id="DejaVuSans-33" d="M 2597 2516 
Q 3050 2419 3304 2112 
Q 3559 1806 3559 1356 
Q 3559 666 3084 287 
Q 2609 -91 1734 -91 
Q 1441 -91 1130 -33 
Q 819 25 488 141 
L 488 750 
Q 750 597 1062 519 
Q 1375 441 1716 441 
Q 2309 441 2620 675 
Q 2931 909 2931 1356 
Q 2931 1769 2642 2001 
Q 2353 2234 1838 2234 
L 1294 2234 
L 1294 2753 
L 1863 2753 
Q 2328 2753 2575 2939 
Q 2822 3125 2822 3475 
Q 2822 3834 2567 4026 
Q 2313 4219 1838 4219 
Q 1578 4219 1281 4162 
Q 984 4106 628 3988 
L 628 4550 
Q 988 4650 1302 4700 
Q 1616 4750 1894 4750 
Q 2613 4750 3031 4423 
Q 3450 4097 3450 3541 
Q 3450 3153 3228 2886 
Q 3006 2619 2597 2516 
z
" transform="scale(0.015625)"/>
       </defs>
       <use xlink:href="#DejaVuSans-33"/>
       <use xlink:href="#DejaVuSans-30" x="63.623047"/>
       <use xlink:href="#DejaVuSans-30" x="127.246094"/>
      </g>
     </g>
    </g>
    <g id="ytick_5">
     <g id="line2d_14">
      <g>
       <use xlink:href="#mc161e36bf0" x="46.965625" y="166.92099" style="stroke: #000000; stroke-width: 0.8"/>
      </g>
     </g>
     <g id="text_15">
      <!-- 400 -->
      <g transform="translate(20.878125 170.720208) scale(0.1 -0.1)">
       <use xlink:href="#DejaVuSans-34"/>
       <use xlink:href="#DejaVuSans-30" x="63.623047"/>
       <use xlink:href="#DejaVuSans-30" x="127.246094"/>
      </g>
     </g>
    </g>
    <g id="ytick_6">
     <g id="line2d_15">
      <g>
       <use xlink:href="#mc161e36bf0" x="46.965625" y="112.281706" style="stroke: #000000; stroke-width: 0.8"/>
      </g>
     </g>
     <g id="text_16">
      <!-- 500 -->
      <g transform="translate(20.878125 116.080925) scale(0.1 -0.1)">
       <defs>
        <path id="DejaVuSans-35" d="M 691 4666 
L 3169 4666 
L 3169 4134 
L 1269 4134 
L 1269 2991 
Q 1406 3038 1543 3061 
Q 1681 3084 1819 3084 
Q 2600 3084 3056 2656 
Q 3513 2228 3513 1497 
Q 3513 744 3044 326 
Q 2575 -91 1722 -91 
Q 1428 -91 1123 -41 
Q 819 9 494 109 
L 494 744 
Q 775 591 1075 516 
Q 1375 441 1709 441 
Q 2250 441 2565 725 
Q 2881 1009 2881 1497 
Q 2881 1984 2565 2268 
Q 2250 2553 1709 2553 
Q 1456 2553 1204 2497 
Q 953 2441 691 2322 
L 691 4666 
z
" transform="scale(0.015625)"/>
       </defs>
       <use xlink:href="#DejaVuSans-35"/>
       <use xlink:href="#DejaVuSans-30" x="63.623047"/>
       <use xlink:href="#DejaVuSans-30" x="127.246094"/>
      </g>
     </g>
    </g>
    <g id="ytick_7">
     <g id="line2d_16">
      <g>
       <use xlink:href="#mc161e36bf0" x="46.965625" y="57.642422" style="stroke: #000000; stroke-width: 0.8"/>
      </g>
     </g>
     <g id="text_17">
      <!-- 600 -->
      <g transform="translate(20.878125 61.441641) scale(0.1 -0.1)">
       <use xlink:href="#DejaVuSans-36"/>
       <use xlink:href="#DejaVuSans-30" x="63.623047"/>
       <use xlink:href="#DejaVuSans-30" x="127.246094"/>
      </g>
     </g>
    </g>
    <g id="text_18">
     <!-- Count -->
     <g transform="translate(14.798437 218.746562) rotate(-90) scale(0.1 -0.1)">
      <defs>
       <path id="DejaVuSans-43" d="M 4122 4306 
L 4122 3641 
Q 3803 3938 3442 4084 
Q 3081 4231 2675 4231 
Q 1875 4231 1450 3742 
Q 1025 3253 1025 2328 
Q 1025 1406 1450 917 
Q 1875 428 2675 428 
Q 3081 428 3442 575 
Q 3803 722 4122 1019 
L 4122 359 
Q 3791 134 3420 21 
Q 3050 -91 2638 -91 
Q 1578 -91 968 557 
Q 359 1206 359 2328 
Q 359 3453 968 4101 
Q 1578 4750 2638 4750 
Q 3056 4750 3426 4639 
Q 3797 4528 4122 4306 
z
" transform="scale(0.015625)"/>
       <path id="DejaVuSans-6f" d="M 1959 3097 
Q 1497 3097 1228 2736 
Q 959 2375 959 1747 
Q 959 1119 1226 758 
Q 1494 397 1959 397 
Q 2419 397 2687 759 
Q 2956 1122 2956 1747 
Q 2956 2369 2687 2733 
Q 2419 3097 1959 3097 
z
M 1959 3584 
Q 2709 3584 3137 3096 
Q 3566 2609 3566 1747 
Q 3566 888 3137 398 
Q 2709 -91 1959 -91 
Q 1206 -91 779 398 
Q 353 888 353 1747 
Q 353 2609 779 3096 
Q 1206 3584 1959 3584 
z
" transform="scale(0.015625)"/>
       <path id="DejaVuSans-75" d="M 544 1381 
L 544 3500 
L 1119 3500 
L 1119 1403 
Q 1119 906 1312 657 
Q 1506 409 1894 409 
Q 2359 409 2629 706 
Q 2900 1003 2900 1516 
L 2900 3500 
L 3475 3500 
L 3475 0 
L 2900 0 
L 2900 538 
Q 2691 219 2414 64 
Q 2138 -91 1772 -91 
Q 1169 -91 856 284 
Q 544 659 544 1381 
z
M 1991 3584 
L 1991 3584 
z
" transform="scale(0.015625)"/>
       <path id="DejaVuSans-6e" d="M 3513 2113 
L 3513 0 
L 2938 0 
L 2938 2094 
Q 2938 2591 2744 2837 
Q 2550 3084 2163 3084 
Q 1697 3084 1428 2787 
Q 1159 2491 1159 1978 
L 1159 0 
L 581 0 
L 581 3500 
L 1159 3500 
L 1159 2956 
Q 1366 3272 1645 3428 
Q 1925 3584 2291 3584 
Q 2894 3584 3203 3211 
Q 3513 2838 3513 2113 
z
" transform="scale(0.015625)"/>
       <path id="DejaVuSans-74" d="M 1172 4494 
L 1172 3500 
L 2356 3500 
L 2356 3053 
L 1172 3053 
L 1172 1153 
Q 1172 725 1289 603 
Q 1406 481 1766 481 
L 2356 481 
L 2356 0 
L 1766 0 
Q 1100 0 847 248 
Q 594 497 594 1153 
L 594 3053 
L 172 3053 
L 172 3500 
L 594 3500 
L 594 4494 
L 1172 4494 
z
" transform="scale(0.015625)"/>
      </defs>
      <use xlink:href="#DejaVuSans-43"/>
      <use xlink:href="#DejaVuSans-6f" x="69.824219"/>
      <use xlink:href="#DejaVuSans-75" x="131.005859"/>
      <use xlink:href="#DejaVuSans-6e" x="194.384766"/>
      <use xlink:href="#DejaVuSans-74" x="257.763672"/>
     </g>
    </g>
   </g>
   <g id="line2d_17">
    <path d="M 108.343787 385.142669 
L 135.663332 384.508298 
L 139.078275 384.306969 
L 142.493218 383.992536 
L 145.908161 383.546906 
L 149.323105 382.959244 
L 152.738048 382.221728 
L 159.567934 380.3502 
L 166.39782 378.169516 
L 169.812763 376.903527 
L 173.227706 375.324547 
L 176.642649 373.219005 
L 180.057592 370.384123 
L 183.472535 366.648154 
L 186.887479 361.848957 
L 190.302422 355.81217 
L 193.717365 348.363753 
L 197.132308 339.354359 
L 200.547251 328.656836 
L 203.962194 316.163067 
L 207.377137 301.844181 
L 210.79208 285.861542 
L 214.207023 268.630784 
L 221.036909 233.101384 
L 224.451853 216.446446 
L 227.866796 201.746991 
L 231.281739 189.876373 
L 234.696682 181.457289 
L 238.111625 176.677429 
L 241.526568 175.262087 
L 244.941511 176.660016 
L 248.356454 180.344945 
L 251.771397 186.036319 
L 255.18634 193.692599 
L 258.601283 203.297823 
L 262.016227 214.607253 
L 272.261056 252.087105 
L 275.675999 263.572993 
L 279.090942 274.262358 
L 285.920828 294.308101 
L 289.335771 303.880544 
L 292.750714 312.901097 
L 296.165657 321.060465 
L 299.580601 328.180095 
L 302.995544 334.294867 
L 306.410487 339.581907 
L 309.82543 344.211237 
L 313.240373 348.251212 
L 316.655316 351.695161 
L 320.070259 354.551028 
L 323.485202 356.891349 
L 326.900145 358.83473 
L 330.315088 360.509899 
L 340.559918 365.14285 
L 350.804747 370.248756 
L 354.21969 371.730097 
L 357.634633 372.960943 
L 361.049576 373.966651 
L 374.709349 377.306973 
L 378.124292 378.089631 
L 381.539235 378.709043 
L 384.954178 379.084517 
L 388.369121 379.226658 
L 395.199007 379.325997 
L 398.61395 379.584732 
L 402.028893 380.058183 
L 412.273723 381.775751 
L 415.688666 382.112868 
L 419.103609 382.299945 
L 425.933495 382.354871 
L 432.763381 382.277702 
L 436.178324 382.341366 
L 443.00821 382.794204 
L 453.25304 383.624094 
L 477.157641 384.837124 
L 483.987527 384.874926 
L 501.062243 384.486645 
L 521.551901 384.75106 
L 555.701332 385.233939 
L 572.776048 385.263322 
L 596.680649 385.196946 
L 641.07491 385.400859 
L 658.149625 385.212846 
L 682.054227 385.280978 
L 692.299056 385.235888 
L 723.033544 385.47794 
L 781.087576 385.387912 
L 787.917463 385.351592 
L 787.917463 385.351592 
" clip-path="url(#pc9e928e9f3)" style="fill: none; stroke: #1f77b4; stroke-width: 1.5; stroke-linecap: square"/>
   </g>
   <g id="line2d_18">
    <path d="M 83.43517 385.478123 
L 204.389442 385.376516 
L 252.038094 385.193485 
L 365.661804 385.463298 
L 732.189899 385.478125 
L 812.82608 385.478123 
L 812.82608 385.478123 
" clip-path="url(#pc9e928e9f3)" style="fill: none; stroke: #1f77b4; stroke-width: 1.5; stroke-linecap: square"/>
   </g>
   <g id="patch_144">
    <path d="M 46.965625 385.478125 
L 46.965625 22.318125 
" style="fill: none; stroke: #000000; stroke-width: 0.8; stroke-linejoin: miter; stroke-linecap: square"/>
   </g>
   <g id="patch_145">
    <path d="M 849.295625 385.478125 
L 849.295625 22.318125 
" style="fill: none; stroke: #000000; stroke-width: 0.8; stroke-linejoin: miter; stroke-linecap: square"/>
   </g>
   <g id="patch_146">
    <path d="M 46.965625 385.478125 
L 849.295625 385.478125 
" style="fill: none; stroke: #000000; stroke-width: 0.8; stroke-linejoin: miter; stroke-linecap: square"/>
   </g>
   <g id="patch_147">
    <path d="M 46.965625 22.318125 
L 849.295625 22.318125 
" style="fill: none; stroke: #000000; stroke-width: 0.8; stroke-linejoin: miter; stroke-linecap: square"/>
   </g>
   <g id="text_19">
    <!-- Distribution of P -->
    <g transform="translate(399.913125 16.318125) scale(0.12 -0.12)">
     <defs>
      <path id="DejaVuSans-44" d="M 1259 4147 
L 1259 519 
L 2022 519 
Q 2988 519 3436 956 
Q 3884 1394 3884 2338 
Q 3884 3275 3436 3711 
Q 2988 4147 2022 4147 
L 1259 4147 
z
M 628 4666 
L 1925 4666 
Q 3281 4666 3915 4102 
Q 4550 3538 4550 2338 
Q 4550 1131 3912 565 
Q 3275 0 1925 0 
L 628 0 
L 628 4666 
z
" transform="scale(0.015625)"/>
      <path id="DejaVuSans-69" d="M 603 3500 
L 1178 3500 
L 1178 0 
L 603 0 
L 603 3500 
z
M 603 4863 
L 1178 4863 
L 1178 4134 
L 603 4134 
L 603 4863 
z
" transform="scale(0.015625)"/>
      <path id="DejaVuSans-73" d="M 2834 3397 
L 2834 2853 
Q 2591 2978 2328 3040 
Q 2066 3103 1784 3103 
Q 1356 3103 1142 2972 
Q 928 2841 928 2578 
Q 928 2378 1081 2264 
Q 1234 2150 1697 2047 
L 1894 2003 
Q 2506 1872 2764 1633 
Q 3022 1394 3022 966 
Q 3022 478 2636 193 
Q 2250 -91 1575 -91 
Q 1294 -91 989 -36 
Q 684 19 347 128 
L 347 722 
Q 666 556 975 473 
Q 1284 391 1588 391 
Q 1994 391 2212 530 
Q 2431 669 2431 922 
Q 2431 1156 2273 1281 
Q 2116 1406 1581 1522 
L 1381 1569 
Q 847 1681 609 1914 
Q 372 2147 372 2553 
Q 372 3047 722 3315 
Q 1072 3584 1716 3584 
Q 2034 3584 2315 3537 
Q 2597 3491 2834 3397 
z
" transform="scale(0.015625)"/>
      <path id="DejaVuSans-72" d="M 2631 2963 
Q 2534 3019 2420 3045 
Q 2306 3072 2169 3072 
Q 1681 3072 1420 2755 
Q 1159 2438 1159 1844 
L 1159 0 
L 581 0 
L 581 3500 
L 1159 3500 
L 1159 2956 
Q 1341 3275 1631 3429 
Q 1922 3584 2338 3584 
Q 2397 3584 2469 3576 
Q 2541 3569 2628 3553 
L 2631 2963 
z
" transform="scale(0.015625)"/>
      <path id="DejaVuSans-62" d="M 3116 1747 
Q 3116 2381 2855 2742 
Q 2594 3103 2138 3103 
Q 1681 3103 1420 2742 
Q 1159 2381 1159 1747 
Q 1159 1113 1420 752 
Q 1681 391 2138 391 
Q 2594 391 2855 752 
Q 3116 1113 3116 1747 
z
M 1159 2969 
Q 1341 3281 1617 3432 
Q 1894 3584 2278 3584 
Q 2916 3584 3314 3078 
Q 3713 2572 3713 1747 
Q 3713 922 3314 415 
Q 2916 -91 2278 -91 
Q 1894 -91 1617 61 
Q 1341 213 1159 525 
L 1159 0 
L 581 0 
L 581 4863 
L 1159 4863 
L 1159 2969 
z
" transform="scale(0.015625)"/>
      <path id="DejaVuSans-20" transform="scale(0.015625)"/>
      <path id="DejaVuSans-66" d="M 2375 4863 
L 2375 4384 
L 1825 4384 
Q 1516 4384 1395 4259 
Q 1275 4134 1275 3809 
L 1275 3500 
L 2222 3500 
L 2222 3053 
L 1275 3053 
L 1275 0 
L 697 0 
L 697 3053 
L 147 3053 
L 147 3500 
L 697 3500 
L 697 3744 
Q 697 4328 969 4595 
Q 1241 4863 1831 4863 
L 2375 4863 
z
" transform="scale(0.015625)"/>
     </defs>
     <use xlink:href="#DejaVuSans-44"/>
     <use xlink:href="#DejaVuSans-69" x="77.001953"/>
     <use xlink:href="#DejaVuSans-73" x="104.785156"/>
     <use xlink:href="#DejaVuSans-74" x="156.884766"/>
     <use xlink:href="#DejaVuSans-72" x="196.09375"/>
     <use xlink:href="#DejaVuSans-69" x="237.207031"/>
     <use xlink:href="#DejaVuSans-62" x="264.990234"/>
     <use xlink:href="#DejaVuSans-75" x="328.466797"/>
     <use xlink:href="#DejaVuSans-74" x="391.845703"/>
     <use xlink:href="#DejaVuSans-69" x="431.054688"/>
     <use xlink:href="#DejaVuSans-6f" x="458.837891"/>
     <use xlink:href="#DejaVuSans-6e" x="520.019531"/>
     <use xlink:href="#DejaVuSans-20" x="583.398438"/>
     <use xlink:href="#DejaVuSans-6f" x="615.185547"/>
     <use xlink:href="#DejaVuSans-66" x="676.367188"/>
     <use xlink:href="#DejaVuSans-20" x="711.572266"/>
     <use xlink:href="#DejaVuSans-50" x="743.359375"/>
    </g>
   </g>
  </g>
 </g>
 <defs>
  <clipPath id="pc9e928e9f3">
   <rect x="46.965625" y="22.318125" width="802.33" height="363.16"/>
  </clipPath>
 </defs>
</svg>
