<?xml version="1.0" encoding="utf-8" standalone="no"?>
<!DOCTYPE svg PUBLIC "-//W3C//DTD SVG 1.1//EN"
  "http://www.w3.org/Graphics/SVG/1.1/DTD/svg11.dtd">
<svg xmlns:xlink="http://www.w3.org/1999/xlink" width="424.558125pt" height="279.674688pt" viewBox="0 0 424.558125 279.674688" xmlns="http://www.w3.org/2000/svg" version="1.1">
 <metadata>
  <rdf:RDF xmlns:dc="http://purl.org/dc/elements/1.1/" xmlns:cc="http://creativecommons.org/ns#" xmlns:rdf="http://www.w3.org/1999/02/22-rdf-syntax-ns#">
   <cc:Work>
    <dc:type rdf:resource="http://purl.org/dc/dcmitype/StillImage"/>
    <dc:date>2024-08-08T20:37:35.425336</dc:date>
    <dc:format>image/svg+xml</dc:format>
    <dc:creator>
     <cc:Agent>
      <dc:title>Matplotlib v3.9.0, https://matplotlib.org/</dc:title>
     </cc:Agent>
    </dc:creator>
   </cc:Work>
  </rdf:RDF>
 </metadata>
 <defs>
  <style type="text/css">*{stroke-linejoin: round; stroke-linecap: butt}</style>
 </defs>
 <g id="figure_1">
  <g id="patch_1">
   <path d="M 0 279.674688 
L 424.558125 279.674688 
L 424.558125 0 
L 0 0 
z
" style="fill: #ffffff"/>
  </g>
  <g id="axes_1">
   <g id="patch_2">
    <path d="M 53.328125 242.118437 
L 417.358125 242.118437 
L 417.358125 20.798437 
L 53.328125 20.798437 
z
" style="fill: #ffffff"/>
   </g>
   <g id="patch_3">
    <path d="M 69.874943 242.118437 
L 72.189183 242.118437 
L 72.189183 242.008884 
L 69.874943 242.008884 
z
" clip-path="url(#pca33c990a6)" style="fill: #808080; stroke: #000000; stroke-width: 0.212842; stroke-linejoin: miter"/>
   </g>
   <g id="patch_4">
    <path d="M 72.189183 242.118437 
L 74.503424 242.118437 
L 74.503424 242.118437 
L 72.189183 242.118437 
z
" clip-path="url(#pca33c990a6)" style="fill: #808080; stroke: #000000; stroke-width: 0.212842; stroke-linejoin: miter"/>
   </g>
   <g id="patch_5">
    <path d="M 74.503424 242.118437 
L 76.817664 242.118437 
L 76.817664 242.008884 
L 74.503424 242.008884 
z
" clip-path="url(#pca33c990a6)" style="fill: #808080; stroke: #000000; stroke-width: 0.212842; stroke-linejoin: miter"/>
   </g>
   <g id="patch_6">
    <path d="M 76.817664 242.118437 
L 79.131904 242.118437 
L 79.131904 242.118437 
L 76.817664 242.118437 
z
" clip-path="url(#pca33c990a6)" style="fill: #808080; stroke: #000000; stroke-width: 0.212842; stroke-linejoin: miter"/>
   </g>
   <g id="patch_7">
    <path d="M 79.131904 242.118437 
L 81.446145 242.118437 
L 81.446145 242.118437 
L 79.131904 242.118437 
z
" clip-path="url(#pca33c990a6)" style="fill: #808080; stroke: #000000; stroke-width: 0.212842; stroke-linejoin: miter"/>
   </g>
   <g id="patch_8">
    <path d="M 81.446145 242.118437 
L 83.760385 242.118437 
L 83.760385 241.789777 
L 81.446145 241.789777 
z
" clip-path="url(#pca33c990a6)" style="fill: #808080; stroke: #000000; stroke-width: 0.212842; stroke-linejoin: miter"/>
   </g>
   <g id="patch_9">
    <path d="M 83.760385 242.118437 
L 86.074625 242.118437 
L 86.074625 242.118437 
L 83.760385 242.118437 
z
" clip-path="url(#pca33c990a6)" style="fill: #808080; stroke: #000000; stroke-width: 0.212842; stroke-linejoin: miter"/>
   </g>
   <g id="patch_10">
    <path d="M 86.074625 242.118437 
L 88.388866 242.118437 
L 88.388866 241.680223 
L 86.074625 241.680223 
z
" clip-path="url(#pca33c990a6)" style="fill: #808080; stroke: #000000; stroke-width: 0.212842; stroke-linejoin: miter"/>
   </g>
   <g id="patch_11">
    <path d="M 88.388866 242.118437 
L 90.703106 242.118437 
L 90.703106 242.118437 
L 88.388866 242.118437 
z
" clip-path="url(#pca33c990a6)" style="fill: #808080; stroke: #000000; stroke-width: 0.212842; stroke-linejoin: miter"/>
   </g>
   <g id="patch_12">
    <path d="M 90.703106 242.118437 
L 93.017346 242.118437 
L 93.017346 242.118437 
L 90.703106 242.118437 
z
" clip-path="url(#pca33c990a6)" style="fill: #808080; stroke: #000000; stroke-width: 0.212842; stroke-linejoin: miter"/>
   </g>
   <g id="patch_13">
    <path d="M 93.017346 242.118437 
L 95.331587 242.118437 
L 95.331587 241.680223 
L 93.017346 241.680223 
z
" clip-path="url(#pca33c990a6)" style="fill: #808080; stroke: #000000; stroke-width: 0.212842; stroke-linejoin: miter"/>
   </g>
   <g id="patch_14">
    <path d="M 95.331587 242.118437 
L 97.645827 242.118437 
L 97.645827 242.118437 
L 95.331587 242.118437 
z
" clip-path="url(#pca33c990a6)" style="fill: #808080; stroke: #000000; stroke-width: 0.212842; stroke-linejoin: miter"/>
   </g>
   <g id="patch_15">
    <path d="M 97.645827 242.118437 
L 99.960067 242.118437 
L 99.960067 241.242009 
L 97.645827 241.242009 
z
" clip-path="url(#pca33c990a6)" style="fill: #808080; stroke: #000000; stroke-width: 0.212842; stroke-linejoin: miter"/>
   </g>
   <g id="patch_16">
    <path d="M 99.960067 242.118437 
L 102.274307 242.118437 
L 102.274307 242.118437 
L 99.960067 242.118437 
z
" clip-path="url(#pca33c990a6)" style="fill: #808080; stroke: #000000; stroke-width: 0.212842; stroke-linejoin: miter"/>
   </g>
   <g id="patch_17">
    <path d="M 102.274307 242.118437 
L 104.588548 242.118437 
L 104.588548 242.118437 
L 102.274307 242.118437 
z
" clip-path="url(#pca33c990a6)" style="fill: #808080; stroke: #000000; stroke-width: 0.212842; stroke-linejoin: miter"/>
   </g>
   <g id="patch_18">
    <path d="M 104.588548 242.118437 
L 106.902788 242.118437 
L 106.902788 241.461116 
L 104.588548 241.461116 
z
" clip-path="url(#pca33c990a6)" style="fill: #808080; stroke: #000000; stroke-width: 0.212842; stroke-linejoin: miter"/>
   </g>
   <g id="patch_19">
    <path d="M 106.902788 242.118437 
L 109.217028 242.118437 
L 109.217028 242.118437 
L 106.902788 242.118437 
z
" clip-path="url(#pca33c990a6)" style="fill: #808080; stroke: #000000; stroke-width: 0.212842; stroke-linejoin: miter"/>
   </g>
   <g id="patch_20">
    <path d="M 109.217028 242.118437 
L 111.531269 242.118437 
L 111.531269 240.475135 
L 109.217028 240.475135 
z
" clip-path="url(#pca33c990a6)" style="fill: #808080; stroke: #000000; stroke-width: 0.212842; stroke-linejoin: miter"/>
   </g>
   <g id="patch_21">
    <path d="M 111.531269 242.118437 
L 113.845509 242.118437 
L 113.845509 242.118437 
L 111.531269 242.118437 
z
" clip-path="url(#pca33c990a6)" style="fill: #808080; stroke: #000000; stroke-width: 0.212842; stroke-linejoin: miter"/>
   </g>
   <g id="patch_22">
    <path d="M 113.845509 242.118437 
L 116.159749 242.118437 
L 116.159749 242.118437 
L 113.845509 242.118437 
z
" clip-path="url(#pca33c990a6)" style="fill: #808080; stroke: #000000; stroke-width: 0.212842; stroke-linejoin: miter"/>
   </g>
   <g id="patch_23">
    <path d="M 116.159749 242.118437 
L 118.47399 242.118437 
L 118.47399 240.365581 
L 116.159749 240.365581 
z
" clip-path="url(#pca33c990a6)" style="fill: #808080; stroke: #000000; stroke-width: 0.212842; stroke-linejoin: miter"/>
   </g>
   <g id="patch_24">
    <path d="M 118.47399 242.118437 
L 120.78823 242.118437 
L 120.78823 242.118437 
L 118.47399 242.118437 
z
" clip-path="url(#pca33c990a6)" style="fill: #808080; stroke: #000000; stroke-width: 0.212842; stroke-linejoin: miter"/>
   </g>
   <g id="patch_25">
    <path d="M 120.78823 242.118437 
L 123.10247 242.118437 
L 123.10247 238.722279 
L 120.78823 238.722279 
z
" clip-path="url(#pca33c990a6)" style="fill: #808080; stroke: #000000; stroke-width: 0.212842; stroke-linejoin: miter"/>
   </g>
   <g id="patch_26">
    <path d="M 123.10247 242.118437 
L 125.416711 242.118437 
L 125.416711 242.118437 
L 123.10247 242.118437 
z
" clip-path="url(#pca33c990a6)" style="fill: #808080; stroke: #000000; stroke-width: 0.212842; stroke-linejoin: miter"/>
   </g>
   <g id="patch_27">
    <path d="M 125.416711 242.118437 
L 127.730951 242.118437 
L 127.730951 242.008884 
L 125.416711 242.008884 
z
" clip-path="url(#pca33c990a6)" style="fill: #808080; stroke: #000000; stroke-width: 0.212842; stroke-linejoin: miter"/>
   </g>
   <g id="patch_28">
    <path d="M 127.730951 242.118437 
L 130.045191 242.118437 
L 130.045191 237.298083 
L 127.730951 237.298083 
z
" clip-path="url(#pca33c990a6)" style="fill: #808080; stroke: #000000; stroke-width: 0.212842; stroke-linejoin: miter"/>
   </g>
   <g id="patch_29">
    <path d="M 130.045191 242.118437 
L 132.359431 242.118437 
L 132.359431 242.118437 
L 130.045191 242.118437 
z
" clip-path="url(#pca33c990a6)" style="fill: #808080; stroke: #000000; stroke-width: 0.212842; stroke-linejoin: miter"/>
   </g>
   <g id="patch_30">
    <path d="M 132.359431 242.118437 
L 134.673672 242.118437 
L 134.673672 242.118437 
L 132.359431 242.118437 
z
" clip-path="url(#pca33c990a6)" style="fill: #808080; stroke: #000000; stroke-width: 0.212842; stroke-linejoin: miter"/>
   </g>
   <g id="patch_31">
    <path d="M 134.673672 242.118437 
L 136.987912 242.118437 
L 136.987912 234.887906 
L 134.673672 234.887906 
z
" clip-path="url(#pca33c990a6)" style="fill: #808080; stroke: #000000; stroke-width: 0.212842; stroke-linejoin: miter"/>
   </g>
   <g id="patch_32">
    <path d="M 136.987912 242.118437 
L 139.302152 242.118437 
L 139.302152 242.118437 
L 136.987912 242.118437 
z
" clip-path="url(#pca33c990a6)" style="fill: #808080; stroke: #000000; stroke-width: 0.212842; stroke-linejoin: miter"/>
   </g>
   <g id="patch_33">
    <path d="M 139.302152 242.118437 
L 141.616393 242.118437 
L 141.616393 235.65478 
L 139.302152 235.65478 
z
" clip-path="url(#pca33c990a6)" style="fill: #808080; stroke: #000000; stroke-width: 0.212842; stroke-linejoin: miter"/>
   </g>
   <g id="patch_34">
    <path d="M 141.616393 242.118437 
L 143.930633 242.118437 
L 143.930633 242.118437 
L 141.616393 242.118437 
z
" clip-path="url(#pca33c990a6)" style="fill: #808080; stroke: #000000; stroke-width: 0.212842; stroke-linejoin: miter"/>
   </g>
   <g id="patch_35">
    <path d="M 143.930633 242.118437 
L 146.244873 242.118437 
L 146.244873 242.008884 
L 143.930633 242.008884 
z
" clip-path="url(#pca33c990a6)" style="fill: #808080; stroke: #000000; stroke-width: 0.212842; stroke-linejoin: miter"/>
   </g>
   <g id="patch_36">
    <path d="M 146.244873 242.118437 
L 148.559114 242.118437 
L 148.559114 230.067551 
L 146.244873 230.067551 
z
" clip-path="url(#pca33c990a6)" style="fill: #808080; stroke: #000000; stroke-width: 0.212842; stroke-linejoin: miter"/>
   </g>
   <g id="patch_37">
    <path d="M 148.559114 242.118437 
L 150.873354 242.118437 
L 150.873354 242.118437 
L 148.559114 242.118437 
z
" clip-path="url(#pca33c990a6)" style="fill: #808080; stroke: #000000; stroke-width: 0.212842; stroke-linejoin: miter"/>
   </g>
   <g id="patch_38">
    <path d="M 150.873354 242.118437 
L 153.187594 242.118437 
L 153.187594 228.643356 
L 150.873354 228.643356 
z
" clip-path="url(#pca33c990a6)" style="fill: #808080; stroke: #000000; stroke-width: 0.212842; stroke-linejoin: miter"/>
   </g>
   <g id="patch_39">
    <path d="M 153.187594 242.118437 
L 155.501834 242.118437 
L 155.501834 242.118437 
L 153.187594 242.118437 
z
" clip-path="url(#pca33c990a6)" style="fill: #808080; stroke: #000000; stroke-width: 0.212842; stroke-linejoin: miter"/>
   </g>
   <g id="patch_40">
    <path d="M 155.501834 242.118437 
L 157.816075 242.118437 
L 157.816075 241.89933 
L 155.501834 241.89933 
z
" clip-path="url(#pca33c990a6)" style="fill: #808080; stroke: #000000; stroke-width: 0.212842; stroke-linejoin: miter"/>
   </g>
   <g id="patch_41">
    <path d="M 157.816075 242.118437 
L 160.130315 242.118437 
L 160.130315 223.16568 
L 157.816075 223.16568 
z
" clip-path="url(#pca33c990a6)" style="fill: #808080; stroke: #000000; stroke-width: 0.212842; stroke-linejoin: miter"/>
   </g>
   <g id="patch_42">
    <path d="M 160.130315 242.118437 
L 162.444555 242.118437 
L 162.444555 242.118437 
L 160.130315 242.118437 
z
" clip-path="url(#pca33c990a6)" style="fill: #808080; stroke: #000000; stroke-width: 0.212842; stroke-linejoin: miter"/>
   </g>
   <g id="patch_43">
    <path d="M 162.444555 242.118437 
L 164.758796 242.118437 
L 164.758796 210.567027 
L 162.444555 210.567027 
z
" clip-path="url(#pca33c990a6)" style="fill: #808080; stroke: #000000; stroke-width: 0.212842; stroke-linejoin: miter"/>
   </g>
   <g id="patch_44">
    <path d="M 164.758796 242.118437 
L 167.073036 242.118437 
L 167.073036 242.118437 
L 164.758796 242.118437 
z
" clip-path="url(#pca33c990a6)" style="fill: #808080; stroke: #000000; stroke-width: 0.212842; stroke-linejoin: miter"/>
   </g>
   <g id="patch_45">
    <path d="M 167.073036 242.118437 
L 169.387276 242.118437 
L 169.387276 241.680223 
L 167.073036 241.680223 
z
" clip-path="url(#pca33c990a6)" style="fill: #808080; stroke: #000000; stroke-width: 0.212842; stroke-linejoin: miter"/>
   </g>
   <g id="patch_46">
    <path d="M 169.387276 242.118437 
L 171.701517 242.118437 
L 171.701517 198.406587 
L 169.387276 198.406587 
z
" clip-path="url(#pca33c990a6)" style="fill: #808080; stroke: #000000; stroke-width: 0.212842; stroke-linejoin: miter"/>
   </g>
   <g id="patch_47">
    <path d="M 171.701517 242.118437 
L 174.015757 242.118437 
L 174.015757 241.680223 
L 171.701517 241.680223 
z
" clip-path="url(#pca33c990a6)" style="fill: #808080; stroke: #000000; stroke-width: 0.212842; stroke-linejoin: miter"/>
   </g>
   <g id="patch_48">
    <path d="M 174.015757 242.118437 
L 176.329997 242.118437 
L 176.329997 183.726417 
L 174.015757 183.726417 
z
" clip-path="url(#pca33c990a6)" style="fill: #808080; stroke: #000000; stroke-width: 0.212842; stroke-linejoin: miter"/>
   </g>
   <g id="patch_49">
    <path d="M 176.329997 242.118437 
L 178.644238 242.118437 
L 178.644238 241.789777 
L 176.329997 241.789777 
z
" clip-path="url(#pca33c990a6)" style="fill: #808080; stroke: #000000; stroke-width: 0.212842; stroke-linejoin: miter"/>
   </g>
   <g id="patch_50">
    <path d="M 178.644238 242.118437 
L 180.958478 242.118437 
L 180.958478 242.008884 
L 178.644238 242.008884 
z
" clip-path="url(#pca33c990a6)" style="fill: #808080; stroke: #000000; stroke-width: 0.212842; stroke-linejoin: miter"/>
   </g>
   <g id="patch_51">
    <path d="M 180.958478 242.118437 
L 183.272718 242.118437 
L 183.272718 164.444999 
L 180.958478 164.444999 
z
" clip-path="url(#pca33c990a6)" style="fill: #808080; stroke: #000000; stroke-width: 0.212842; stroke-linejoin: miter"/>
   </g>
   <g id="patch_52">
    <path d="M 183.272718 242.118437 
L 185.586958 242.118437 
L 185.586958 241.461116 
L 183.272718 241.461116 
z
" clip-path="url(#pca33c990a6)" style="fill: #808080; stroke: #000000; stroke-width: 0.212842; stroke-linejoin: miter"/>
   </g>
   <g id="patch_53">
    <path d="M 185.586958 242.118437 
L 187.901199 242.118437 
L 187.901199 241.89933 
L 185.586958 241.89933 
z
" clip-path="url(#pca33c990a6)" style="fill: #808080; stroke: #000000; stroke-width: 0.212842; stroke-linejoin: miter"/>
   </g>
   <g id="patch_54">
    <path d="M 187.901199 242.118437 
L 190.215439 242.118437 
L 190.215439 133.660463 
L 187.901199 133.660463 
z
" clip-path="url(#pca33c990a6)" style="fill: #808080; stroke: #000000; stroke-width: 0.212842; stroke-linejoin: miter"/>
   </g>
   <g id="patch_55">
    <path d="M 190.215439 242.118437 
L 192.529679 242.118437 
L 192.529679 241.89933 
L 190.215439 241.89933 
z
" clip-path="url(#pca33c990a6)" style="fill: #808080; stroke: #000000; stroke-width: 0.212842; stroke-linejoin: miter"/>
   </g>
   <g id="patch_56">
    <path d="M 192.529679 242.118437 
L 194.84392 242.118437 
L 194.84392 109.010923 
L 192.529679 109.010923 
z
" clip-path="url(#pca33c990a6)" style="fill: #808080; stroke: #000000; stroke-width: 0.212842; stroke-linejoin: miter"/>
   </g>
   <g id="patch_57">
    <path d="M 194.84392 242.118437 
L 197.15816 242.118437 
L 197.15816 241.57067 
L 194.84392 241.57067 
z
" clip-path="url(#pca33c990a6)" style="fill: #808080; stroke: #000000; stroke-width: 0.212842; stroke-linejoin: miter"/>
   </g>
   <g id="patch_58">
    <path d="M 197.15816 242.118437 
L 199.4724 242.118437 
L 199.4724 241.351563 
L 197.15816 241.351563 
z
" clip-path="url(#pca33c990a6)" style="fill: #808080; stroke: #000000; stroke-width: 0.212842; stroke-linejoin: miter"/>
   </g>
   <g id="patch_59">
    <path d="M 199.4724 242.118437 
L 201.786641 242.118437 
L 201.786641 69.790767 
L 199.4724 69.790767 
z
" clip-path="url(#pca33c990a6)" style="fill: #808080; stroke: #000000; stroke-width: 0.212842; stroke-linejoin: miter"/>
   </g>
   <g id="patch_60">
    <path d="M 201.786641 242.118437 
L 204.100881 242.118437 
L 204.100881 241.57067 
L 201.786641 241.57067 
z
" clip-path="url(#pca33c990a6)" style="fill: #808080; stroke: #000000; stroke-width: 0.212842; stroke-linejoin: miter"/>
   </g>
   <g id="patch_61">
    <path d="M 204.100881 242.118437 
L 206.415121 242.118437 
L 206.415121 42.511943 
L 204.100881 42.511943 
z
" clip-path="url(#pca33c990a6)" style="fill: #808080; stroke: #000000; stroke-width: 0.212842; stroke-linejoin: miter"/>
   </g>
   <g id="patch_62">
    <path d="M 206.415121 242.118437 
L 208.729361 242.118437 
L 208.729361 241.789777 
L 206.415121 241.789777 
z
" clip-path="url(#pca33c990a6)" style="fill: #808080; stroke: #000000; stroke-width: 0.212842; stroke-linejoin: miter"/>
   </g>
   <g id="patch_63">
    <path d="M 208.729361 242.118437 
L 211.043602 242.118437 
L 211.043602 241.789777 
L 208.729361 241.789777 
z
" clip-path="url(#pca33c990a6)" style="fill: #808080; stroke: #000000; stroke-width: 0.212842; stroke-linejoin: miter"/>
   </g>
   <g id="patch_64">
    <path d="M 211.043602 242.118437 
L 213.357842 242.118437 
L 213.357842 31.337485 
L 211.043602 31.337485 
z
" clip-path="url(#pca33c990a6)" style="fill: #808080; stroke: #000000; stroke-width: 0.212842; stroke-linejoin: miter"/>
   </g>
   <g id="patch_65">
    <path d="M 213.357842 242.118437 
L 215.672082 242.118437 
L 215.672082 241.89933 
L 213.357842 241.89933 
z
" clip-path="url(#pca33c990a6)" style="fill: #808080; stroke: #000000; stroke-width: 0.212842; stroke-linejoin: miter"/>
   </g>
   <g id="patch_66">
    <path d="M 215.672082 242.118437 
L 217.986323 242.118437 
L 217.986323 38.568017 
L 215.672082 38.568017 
z
" clip-path="url(#pca33c990a6)" style="fill: #808080; stroke: #000000; stroke-width: 0.212842; stroke-linejoin: miter"/>
   </g>
   <g id="patch_67">
    <path d="M 217.986323 242.118437 
L 220.300563 242.118437 
L 220.300563 241.789777 
L 217.986323 241.789777 
z
" clip-path="url(#pca33c990a6)" style="fill: #808080; stroke: #000000; stroke-width: 0.212842; stroke-linejoin: miter"/>
   </g>
   <g id="patch_68">
    <path d="M 220.300563 242.118437 
L 222.614803 242.118437 
L 222.614803 241.789777 
L 220.300563 241.789777 
z
" clip-path="url(#pca33c990a6)" style="fill: #808080; stroke: #000000; stroke-width: 0.212842; stroke-linejoin: miter"/>
   </g>
   <g id="patch_69">
    <path d="M 222.614803 242.118437 
L 224.929044 242.118437 
L 224.929044 69.352553 
L 222.614803 69.352553 
z
" clip-path="url(#pca33c990a6)" style="fill: #808080; stroke: #000000; stroke-width: 0.212842; stroke-linejoin: miter"/>
   </g>
   <g id="patch_70">
    <path d="M 224.929044 242.118437 
L 227.243284 242.118437 
L 227.243284 242.118437 
L 224.929044 242.118437 
z
" clip-path="url(#pca33c990a6)" style="fill: #808080; stroke: #000000; stroke-width: 0.212842; stroke-linejoin: miter"/>
   </g>
   <g id="patch_71">
    <path d="M 227.243284 242.118437 
L 229.557524 242.118437 
L 229.557524 112.516636 
L 227.243284 112.516636 
z
" clip-path="url(#pca33c990a6)" style="fill: #808080; stroke: #000000; stroke-width: 0.212842; stroke-linejoin: miter"/>
   </g>
   <g id="patch_72">
    <path d="M 229.557524 242.118437 
L 231.871765 242.118437 
L 231.871765 242.118437 
L 229.557524 242.118437 
z
" clip-path="url(#pca33c990a6)" style="fill: #808080; stroke: #000000; stroke-width: 0.212842; stroke-linejoin: miter"/>
   </g>
   <g id="patch_73">
    <path d="M 231.871765 242.118437 
L 234.186005 242.118437 
L 234.186005 242.118437 
L 231.871765 242.118437 
z
" clip-path="url(#pca33c990a6)" style="fill: #808080; stroke: #000000; stroke-width: 0.212842; stroke-linejoin: miter"/>
   </g>
   <g id="patch_74">
    <path d="M 234.186005 242.118437 
L 236.500245 242.118437 
L 236.500245 149.436168 
L 234.186005 149.436168 
z
" clip-path="url(#pca33c990a6)" style="fill: #808080; stroke: #000000; stroke-width: 0.212842; stroke-linejoin: miter"/>
   </g>
   <g id="patch_75">
    <path d="M 236.500245 242.118437 
L 238.814485 242.118437 
L 238.814485 242.008884 
L 236.500245 242.008884 
z
" clip-path="url(#pca33c990a6)" style="fill: #808080; stroke: #000000; stroke-width: 0.212842; stroke-linejoin: miter"/>
   </g>
   <g id="patch_76">
    <path d="M 238.814485 242.118437 
L 241.128726 242.118437 
L 241.128726 242.118437 
L 238.814485 242.118437 
z
" clip-path="url(#pca33c990a6)" style="fill: #808080; stroke: #000000; stroke-width: 0.212842; stroke-linejoin: miter"/>
   </g>
   <g id="patch_77">
    <path d="M 241.128726 242.118437 
L 243.442966 242.118437 
L 243.442966 188.108557 
L 241.128726 188.108557 
z
" clip-path="url(#pca33c990a6)" style="fill: #808080; stroke: #000000; stroke-width: 0.212842; stroke-linejoin: miter"/>
   </g>
   <g id="patch_78">
    <path d="M 243.442966 242.118437 
L 245.757206 242.118437 
L 245.757206 242.118437 
L 243.442966 242.118437 
z
" clip-path="url(#pca33c990a6)" style="fill: #808080; stroke: #000000; stroke-width: 0.212842; stroke-linejoin: miter"/>
   </g>
   <g id="patch_79">
    <path d="M 245.757206 242.118437 
L 248.071447 242.118437 
L 248.071447 214.182293 
L 245.757206 214.182293 
z
" clip-path="url(#pca33c990a6)" style="fill: #808080; stroke: #000000; stroke-width: 0.212842; stroke-linejoin: miter"/>
   </g>
   <g id="patch_80">
    <path d="M 248.071447 242.118437 
L 250.385687 242.118437 
L 250.385687 242.118437 
L 248.071447 242.118437 
z
" clip-path="url(#pca33c990a6)" style="fill: #808080; stroke: #000000; stroke-width: 0.212842; stroke-linejoin: miter"/>
   </g>
   <g id="patch_81">
    <path d="M 250.385687 242.118437 
L 252.699927 242.118437 
L 252.699927 241.89933 
L 250.385687 241.89933 
z
" clip-path="url(#pca33c990a6)" style="fill: #808080; stroke: #000000; stroke-width: 0.212842; stroke-linejoin: miter"/>
   </g>
   <g id="patch_82">
    <path d="M 252.699927 242.118437 
L 255.014168 242.118437 
L 255.014168 229.519784 
L 252.699927 229.519784 
z
" clip-path="url(#pca33c990a6)" style="fill: #808080; stroke: #000000; stroke-width: 0.212842; stroke-linejoin: miter"/>
   </g>
   <g id="patch_83">
    <path d="M 255.014168 242.118437 
L 257.328408 242.118437 
L 257.328408 242.118437 
L 255.014168 242.118437 
z
" clip-path="url(#pca33c990a6)" style="fill: #808080; stroke: #000000; stroke-width: 0.212842; stroke-linejoin: miter"/>
   </g>
   <g id="patch_84">
    <path d="M 257.328408 242.118437 
L 259.642648 242.118437 
L 259.642648 235.65478 
L 257.328408 235.65478 
z
" clip-path="url(#pca33c990a6)" style="fill: #808080; stroke: #000000; stroke-width: 0.212842; stroke-linejoin: miter"/>
   </g>
   <g id="patch_85">
    <path d="M 259.642648 242.118437 
L 261.956889 242.118437 
L 261.956889 242.118437 
L 259.642648 242.118437 
z
" clip-path="url(#pca33c990a6)" style="fill: #808080; stroke: #000000; stroke-width: 0.212842; stroke-linejoin: miter"/>
   </g>
   <g id="patch_86">
    <path d="M 261.956889 242.118437 
L 264.271129 242.118437 
L 264.271129 242.118437 
L 261.956889 242.118437 
z
" clip-path="url(#pca33c990a6)" style="fill: #808080; stroke: #000000; stroke-width: 0.212842; stroke-linejoin: miter"/>
   </g>
   <g id="patch_87">
    <path d="M 264.271129 242.118437 
L 266.585369 242.118437 
L 266.585369 239.927367 
L 264.271129 239.927367 
z
" clip-path="url(#pca33c990a6)" style="fill: #808080; stroke: #000000; stroke-width: 0.212842; stroke-linejoin: miter"/>
   </g>
   <g id="patch_88">
    <path d="M 266.585369 242.118437 
L 268.899609 242.118437 
L 268.899609 242.118437 
L 266.585369 242.118437 
z
" clip-path="url(#pca33c990a6)" style="fill: #808080; stroke: #000000; stroke-width: 0.212842; stroke-linejoin: miter"/>
   </g>
   <g id="patch_89">
    <path d="M 268.899609 242.118437 
L 271.21385 242.118437 
L 271.21385 241.351563 
L 268.899609 241.351563 
z
" clip-path="url(#pca33c990a6)" style="fill: #808080; stroke: #000000; stroke-width: 0.212842; stroke-linejoin: miter"/>
   </g>
   <g id="patch_90">
    <path d="M 271.21385 242.118437 
L 273.52809 242.118437 
L 273.52809 242.118437 
L 271.21385 242.118437 
z
" clip-path="url(#pca33c990a6)" style="fill: #808080; stroke: #000000; stroke-width: 0.212842; stroke-linejoin: miter"/>
   </g>
   <g id="patch_91">
    <path d="M 273.52809 242.118437 
L 275.84233 242.118437 
L 275.84233 242.118437 
L 273.52809 242.118437 
z
" clip-path="url(#pca33c990a6)" style="fill: #808080; stroke: #000000; stroke-width: 0.212842; stroke-linejoin: miter"/>
   </g>
   <g id="patch_92">
    <path d="M 275.84233 242.118437 
L 278.156571 242.118437 
L 278.156571 240.913349 
L 275.84233 240.913349 
z
" clip-path="url(#pca33c990a6)" style="fill: #808080; stroke: #000000; stroke-width: 0.212842; stroke-linejoin: miter"/>
   </g>
   <g id="patch_93">
    <path d="M 278.156571 242.118437 
L 280.470811 242.118437 
L 280.470811 242.118437 
L 278.156571 242.118437 
z
" clip-path="url(#pca33c990a6)" style="fill: #808080; stroke: #000000; stroke-width: 0.212842; stroke-linejoin: miter"/>
   </g>
   <g id="patch_94">
    <path d="M 280.470811 242.118437 
L 282.785051 242.118437 
L 282.785051 241.789777 
L 280.470811 241.789777 
z
" clip-path="url(#pca33c990a6)" style="fill: #808080; stroke: #000000; stroke-width: 0.212842; stroke-linejoin: miter"/>
   </g>
   <g id="patch_95">
    <path d="M 282.785051 242.118437 
L 285.099292 242.118437 
L 285.099292 242.118437 
L 282.785051 242.118437 
z
" clip-path="url(#pca33c990a6)" style="fill: #808080; stroke: #000000; stroke-width: 0.212842; stroke-linejoin: miter"/>
   </g>
   <g id="patch_96">
    <path d="M 285.099292 242.118437 
L 287.413532 242.118437 
L 287.413532 242.118437 
L 285.099292 242.118437 
z
" clip-path="url(#pca33c990a6)" style="fill: #808080; stroke: #000000; stroke-width: 0.212842; stroke-linejoin: miter"/>
   </g>
   <g id="patch_97">
    <path d="M 287.413532 242.118437 
L 289.727772 242.118437 
L 289.727772 241.89933 
L 287.413532 241.89933 
z
" clip-path="url(#pca33c990a6)" style="fill: #808080; stroke: #000000; stroke-width: 0.212842; stroke-linejoin: miter"/>
   </g>
   <g id="patch_98">
    <path d="M 289.727772 242.118437 
L 292.042012 242.118437 
L 292.042012 242.118437 
L 289.727772 242.118437 
z
" clip-path="url(#pca33c990a6)" style="fill: #808080; stroke: #000000; stroke-width: 0.212842; stroke-linejoin: miter"/>
   </g>
   <g id="patch_99">
    <path d="M 292.042012 242.118437 
L 294.356253 242.118437 
L 294.356253 242.118437 
L 292.042012 242.118437 
z
" clip-path="url(#pca33c990a6)" style="fill: #808080; stroke: #000000; stroke-width: 0.212842; stroke-linejoin: miter"/>
   </g>
   <g id="patch_100">
    <path d="M 294.356253 242.118437 
L 296.670493 242.118437 
L 296.670493 241.680223 
L 294.356253 241.680223 
z
" clip-path="url(#pca33c990a6)" style="fill: #808080; stroke: #000000; stroke-width: 0.212842; stroke-linejoin: miter"/>
   </g>
   <g id="patch_101">
    <path d="M 296.670493 242.118437 
L 298.984733 242.118437 
L 298.984733 242.118437 
L 296.670493 242.118437 
z
" clip-path="url(#pca33c990a6)" style="fill: #808080; stroke: #000000; stroke-width: 0.212842; stroke-linejoin: miter"/>
   </g>
   <g id="patch_102">
    <path d="M 298.984733 242.118437 
L 301.298974 242.118437 
L 301.298974 241.89933 
L 298.984733 241.89933 
z
" clip-path="url(#pca33c990a6)" style="fill: #808080; stroke: #000000; stroke-width: 0.212842; stroke-linejoin: miter"/>
   </g>
   <g id="patch_103">
    <path d="M 301.298974 242.118437 
L 303.613214 242.118437 
L 303.613214 242.118437 
L 301.298974 242.118437 
z
" clip-path="url(#pca33c990a6)" style="fill: #808080; stroke: #000000; stroke-width: 0.212842; stroke-linejoin: miter"/>
   </g>
   <g id="patch_104">
    <path d="M 303.613214 242.118437 
L 305.927454 242.118437 
L 305.927454 242.118437 
L 303.613214 242.118437 
z
" clip-path="url(#pca33c990a6)" style="fill: #808080; stroke: #000000; stroke-width: 0.212842; stroke-linejoin: miter"/>
   </g>
   <g id="patch_105">
    <path d="M 305.927454 242.118437 
L 308.241695 242.118437 
L 308.241695 241.89933 
L 305.927454 241.89933 
z
" clip-path="url(#pca33c990a6)" style="fill: #808080; stroke: #000000; stroke-width: 0.212842; stroke-linejoin: miter"/>
   </g>
   <g id="patch_106">
    <path d="M 308.241695 242.118437 
L 310.555935 242.118437 
L 310.555935 242.118437 
L 308.241695 242.118437 
z
" clip-path="url(#pca33c990a6)" style="fill: #808080; stroke: #000000; stroke-width: 0.212842; stroke-linejoin: miter"/>
   </g>
   <g id="patch_107">
    <path d="M 310.555935 242.118437 
L 312.870175 242.118437 
L 312.870175 242.118437 
L 310.555935 242.118437 
z
" clip-path="url(#pca33c990a6)" style="fill: #808080; stroke: #000000; stroke-width: 0.212842; stroke-linejoin: miter"/>
   </g>
   <g id="patch_108">
    <path d="M 312.870175 242.118437 
L 315.184416 242.118437 
L 315.184416 242.118437 
L 312.870175 242.118437 
z
" clip-path="url(#pca33c990a6)" style="fill: #808080; stroke: #000000; stroke-width: 0.212842; stroke-linejoin: miter"/>
   </g>
   <g id="patch_109">
    <path d="M 315.184416 242.118437 
L 317.498656 242.118437 
L 317.498656 242.118437 
L 315.184416 242.118437 
z
" clip-path="url(#pca33c990a6)" style="fill: #808080; stroke: #000000; stroke-width: 0.212842; stroke-linejoin: miter"/>
   </g>
   <g id="patch_110">
    <path d="M 317.498656 242.118437 
L 319.812896 242.118437 
L 319.812896 242.118437 
L 317.498656 242.118437 
z
" clip-path="url(#pca33c990a6)" style="fill: #808080; stroke: #000000; stroke-width: 0.212842; stroke-linejoin: miter"/>
   </g>
   <g id="patch_111">
    <path d="M 319.812896 242.118437 
L 322.127136 242.118437 
L 322.127136 242.118437 
L 319.812896 242.118437 
z
" clip-path="url(#pca33c990a6)" style="fill: #808080; stroke: #000000; stroke-width: 0.212842; stroke-linejoin: miter"/>
   </g>
   <g id="patch_112">
    <path d="M 322.127136 242.118437 
L 324.441377 242.118437 
L 324.441377 242.118437 
L 322.127136 242.118437 
z
" clip-path="url(#pca33c990a6)" style="fill: #808080; stroke: #000000; stroke-width: 0.212842; stroke-linejoin: miter"/>
   </g>
   <g id="patch_113">
    <path d="M 324.441377 242.118437 
L 326.755617 242.118437 
L 326.755617 242.118437 
L 324.441377 242.118437 
z
" clip-path="url(#pca33c990a6)" style="fill: #808080; stroke: #000000; stroke-width: 0.212842; stroke-linejoin: miter"/>
   </g>
   <g id="patch_114">
    <path d="M 326.755617 242.118437 
L 329.069857 242.118437 
L 329.069857 242.118437 
L 326.755617 242.118437 
z
" clip-path="url(#pca33c990a6)" style="fill: #808080; stroke: #000000; stroke-width: 0.212842; stroke-linejoin: miter"/>
   </g>
   <g id="patch_115">
    <path d="M 329.069857 242.118437 
L 331.384098 242.118437 
L 331.384098 242.008884 
L 329.069857 242.008884 
z
" clip-path="url(#pca33c990a6)" style="fill: #808080; stroke: #000000; stroke-width: 0.212842; stroke-linejoin: miter"/>
   </g>
   <g id="patch_116">
    <path d="M 331.384098 242.118437 
L 333.698338 242.118437 
L 333.698338 242.118437 
L 331.384098 242.118437 
z
" clip-path="url(#pca33c990a6)" style="fill: #808080; stroke: #000000; stroke-width: 0.212842; stroke-linejoin: miter"/>
   </g>
   <g id="patch_117">
    <path d="M 333.698338 242.118437 
L 336.012578 242.118437 
L 336.012578 241.89933 
L 333.698338 241.89933 
z
" clip-path="url(#pca33c990a6)" style="fill: #808080; stroke: #000000; stroke-width: 0.212842; stroke-linejoin: miter"/>
   </g>
   <g id="patch_118">
    <path d="M 336.012578 242.118437 
L 338.326819 242.118437 
L 338.326819 242.118437 
L 336.012578 242.118437 
z
" clip-path="url(#pca33c990a6)" style="fill: #808080; stroke: #000000; stroke-width: 0.212842; stroke-linejoin: miter"/>
   </g>
   <g id="patch_119">
    <path d="M 338.326819 242.118437 
L 340.641059 242.118437 
L 340.641059 242.118437 
L 338.326819 242.118437 
z
" clip-path="url(#pca33c990a6)" style="fill: #808080; stroke: #000000; stroke-width: 0.212842; stroke-linejoin: miter"/>
   </g>
   <g id="patch_120">
    <path d="M 340.641059 242.118437 
L 342.955299 242.118437 
L 342.955299 242.008884 
L 340.641059 242.008884 
z
" clip-path="url(#pca33c990a6)" style="fill: #808080; stroke: #000000; stroke-width: 0.212842; stroke-linejoin: miter"/>
   </g>
   <g id="patch_121">
    <path d="M 342.955299 242.118437 
L 345.269539 242.118437 
L 345.269539 242.118437 
L 342.955299 242.118437 
z
" clip-path="url(#pca33c990a6)" style="fill: #808080; stroke: #000000; stroke-width: 0.212842; stroke-linejoin: miter"/>
   </g>
   <g id="patch_122">
    <path d="M 345.269539 242.118437 
L 347.58378 242.118437 
L 347.58378 242.118437 
L 345.269539 242.118437 
z
" clip-path="url(#pca33c990a6)" style="fill: #808080; stroke: #000000; stroke-width: 0.212842; stroke-linejoin: miter"/>
   </g>
   <g id="patch_123">
    <path d="M 347.58378 242.118437 
L 349.89802 242.118437 
L 349.89802 242.118437 
L 347.58378 242.118437 
z
" clip-path="url(#pca33c990a6)" style="fill: #808080; stroke: #000000; stroke-width: 0.212842; stroke-linejoin: miter"/>
   </g>
   <g id="patch_124">
    <path d="M 349.89802 242.118437 
L 352.21226 242.118437 
L 352.21226 242.118437 
L 349.89802 242.118437 
z
" clip-path="url(#pca33c990a6)" style="fill: #808080; stroke: #000000; stroke-width: 0.212842; stroke-linejoin: miter"/>
   </g>
   <g id="patch_125">
    <path d="M 352.21226 242.118437 
L 354.526501 242.118437 
L 354.526501 242.118437 
L 352.21226 242.118437 
z
" clip-path="url(#pca33c990a6)" style="fill: #808080; stroke: #000000; stroke-width: 0.212842; stroke-linejoin: miter"/>
   </g>
   <g id="patch_126">
    <path d="M 354.526501 242.118437 
L 356.840741 242.118437 
L 356.840741 242.118437 
L 354.526501 242.118437 
z
" clip-path="url(#pca33c990a6)" style="fill: #808080; stroke: #000000; stroke-width: 0.212842; stroke-linejoin: miter"/>
   </g>
   <g id="patch_127">
    <path d="M 356.840741 242.118437 
L 359.154981 242.118437 
L 359.154981 242.118437 
L 356.840741 242.118437 
z
" clip-path="url(#pca33c990a6)" style="fill: #808080; stroke: #000000; stroke-width: 0.212842; stroke-linejoin: miter"/>
   </g>
   <g id="patch_128">
    <path d="M 359.154981 242.118437 
L 361.469222 242.118437 
L 361.469222 242.118437 
L 359.154981 242.118437 
z
" clip-path="url(#pca33c990a6)" style="fill: #808080; stroke: #000000; stroke-width: 0.212842; stroke-linejoin: miter"/>
   </g>
   <g id="patch_129">
    <path d="M 361.469222 242.118437 
L 363.783462 242.118437 
L 363.783462 242.118437 
L 361.469222 242.118437 
z
" clip-path="url(#pca33c990a6)" style="fill: #808080; stroke: #000000; stroke-width: 0.212842; stroke-linejoin: miter"/>
   </g>
   <g id="patch_130">
    <path d="M 363.783462 242.118437 
L 366.097702 242.118437 
L 366.097702 242.118437 
L 363.783462 242.118437 
z
" clip-path="url(#pca33c990a6)" style="fill: #808080; stroke: #000000; stroke-width: 0.212842; stroke-linejoin: miter"/>
   </g>
   <g id="patch_131">
    <path d="M 366.097702 242.118437 
L 368.411943 242.118437 
L 368.411943 242.118437 
L 366.097702 242.118437 
z
" clip-path="url(#pca33c990a6)" style="fill: #808080; stroke: #000000; stroke-width: 0.212842; stroke-linejoin: miter"/>
   </g>
   <g id="patch_132">
    <path d="M 368.411943 242.118437 
L 370.726183 242.118437 
L 370.726183 242.118437 
L 368.411943 242.118437 
z
" clip-path="url(#pca33c990a6)" style="fill: #808080; stroke: #000000; stroke-width: 0.212842; stroke-linejoin: miter"/>
   </g>
   <g id="patch_133">
    <path d="M 370.726183 242.118437 
L 373.040423 242.118437 
L 373.040423 242.118437 
L 370.726183 242.118437 
z
" clip-path="url(#pca33c990a6)" style="fill: #808080; stroke: #000000; stroke-width: 0.212842; stroke-linejoin: miter"/>
   </g>
   <g id="patch_134">
    <path d="M 373.040423 242.118437 
L 375.354663 242.118437 
L 375.354663 242.118437 
L 373.040423 242.118437 
z
" clip-path="url(#pca33c990a6)" style="fill: #808080; stroke: #000000; stroke-width: 0.212842; stroke-linejoin: miter"/>
   </g>
   <g id="patch_135">
    <path d="M 375.354663 242.118437 
L 377.668904 242.118437 
L 377.668904 242.118437 
L 375.354663 242.118437 
z
" clip-path="url(#pca33c990a6)" style="fill: #808080; stroke: #000000; stroke-width: 0.212842; stroke-linejoin: miter"/>
   </g>
   <g id="patch_136">
    <path d="M 377.668904 242.118437 
L 379.983144 242.118437 
L 379.983144 242.118437 
L 377.668904 242.118437 
z
" clip-path="url(#pca33c990a6)" style="fill: #808080; stroke: #000000; stroke-width: 0.212842; stroke-linejoin: miter"/>
   </g>
   <g id="patch_137">
    <path d="M 379.983144 242.118437 
L 382.297384 242.118437 
L 382.297384 242.118437 
L 379.983144 242.118437 
z
" clip-path="url(#pca33c990a6)" style="fill: #808080; stroke: #000000; stroke-width: 0.212842; stroke-linejoin: miter"/>
   </g>
   <g id="patch_138">
    <path d="M 382.297384 242.118437 
L 384.611625 242.118437 
L 384.611625 242.118437 
L 382.297384 242.118437 
z
" clip-path="url(#pca33c990a6)" style="fill: #808080; stroke: #000000; stroke-width: 0.212842; stroke-linejoin: miter"/>
   </g>
   <g id="patch_139">
    <path d="M 384.611625 242.118437 
L 386.925865 242.118437 
L 386.925865 242.118437 
L 384.611625 242.118437 
z
" clip-path="url(#pca33c990a6)" style="fill: #808080; stroke: #000000; stroke-width: 0.212842; stroke-linejoin: miter"/>
   </g>
   <g id="patch_140">
    <path d="M 386.925865 242.118437 
L 389.240105 242.118437 
L 389.240105 242.118437 
L 386.925865 242.118437 
z
" clip-path="url(#pca33c990a6)" style="fill: #808080; stroke: #000000; stroke-width: 0.212842; stroke-linejoin: miter"/>
   </g>
   <g id="patch_141">
    <path d="M 389.240105 242.118437 
L 391.554346 242.118437 
L 391.554346 242.118437 
L 389.240105 242.118437 
z
" clip-path="url(#pca33c990a6)" style="fill: #808080; stroke: #000000; stroke-width: 0.212842; stroke-linejoin: miter"/>
   </g>
   <g id="patch_142">
    <path d="M 391.554346 242.118437 
L 393.868586 242.118437 
L 393.868586 242.118437 
L 391.554346 242.118437 
z
" clip-path="url(#pca33c990a6)" style="fill: #808080; stroke: #000000; stroke-width: 0.212842; stroke-linejoin: miter"/>
   </g>
   <g id="patch_143">
    <path d="M 393.868586 242.118437 
L 396.182826 242.118437 
L 396.182826 242.118437 
L 393.868586 242.118437 
z
" clip-path="url(#pca33c990a6)" style="fill: #808080; stroke: #000000; stroke-width: 0.212842; stroke-linejoin: miter"/>
   </g>
   <g id="patch_144">
    <path d="M 396.182826 242.118437 
L 398.497067 242.118437 
L 398.497067 242.118437 
L 396.182826 242.118437 
z
" clip-path="url(#pca33c990a6)" style="fill: #808080; stroke: #000000; stroke-width: 0.212842; stroke-linejoin: miter"/>
   </g>
   <g id="patch_145">
    <path d="M 398.497067 242.118437 
L 400.811307 242.118437 
L 400.811307 242.008884 
L 398.497067 242.008884 
z
" clip-path="url(#pca33c990a6)" style="fill: #808080; stroke: #000000; stroke-width: 0.212842; stroke-linejoin: miter"/>
   </g>
   <g id="matplotlib.axis_1">
    <g id="xtick_1">
     <g id="line2d_1">
      <defs>
       <path id="m36d4b95258" d="M 0 0 
L 0 3.5 
" style="stroke: #000000; stroke-width: 0.8"/>
      </defs>
      <g>
       <use xlink:href="#m36d4b95258" x="111.241989" y="242.118437" style="stroke: #000000; stroke-width: 0.8"/>
      </g>
     </g>
     <g id="text_1">
      <!-- 10 -->
      <g transform="translate(104.879489 256.716875) scale(0.1 -0.1)">
       <defs>
        <path id="DejaVuSans-31" d="M 794 531 
L 1825 531 
L 1825 4091 
L 703 3866 
L 703 4441 
L 1819 4666 
L 2450 4666 
L 2450 531 
L 3481 531 
L 3481 0 
L 794 0 
L 794 531 
z
" transform="scale(0.015625)"/>
        <path id="DejaVuSans-30" d="M 2034 4250 
Q 1547 4250 1301 3770 
Q 1056 3291 1056 2328 
Q 1056 1369 1301 889 
Q 1547 409 2034 409 
Q 2525 409 2770 889 
Q 3016 1369 3016 2328 
Q 3016 3291 2770 3770 
Q 2525 4250 2034 4250 
z
M 2034 4750 
Q 2819 4750 3233 4129 
Q 3647 3509 3647 2328 
Q 3647 1150 3233 529 
Q 2819 -91 2034 -91 
Q 1250 -91 836 529 
Q 422 1150 422 2328 
Q 422 3509 836 4129 
Q 1250 4750 2034 4750 
z
" transform="scale(0.015625)"/>
       </defs>
       <use xlink:href="#DejaVuSans-31"/>
       <use xlink:href="#DejaVuSans-30" x="63.623047"/>
      </g>
     </g>
    </g>
    <g id="xtick_2">
     <g id="line2d_2">
      <g>
       <use xlink:href="#m36d4b95258" x="170.337768" y="242.118437" style="stroke: #000000; stroke-width: 0.8"/>
      </g>
     </g>
     <g id="text_2">
      <!-- 20 -->
      <g transform="translate(163.975268 256.716875) scale(0.1 -0.1)">
       <defs>
        <path id="DejaVuSans-32" d="M 1228 531 
L 3431 531 
L 3431 0 
L 469 0 
L 469 531 
Q 828 903 1448 1529 
Q 2069 2156 2228 2338 
Q 2531 2678 2651 2914 
Q 2772 3150 2772 3378 
Q 2772 3750 2511 3984 
Q 2250 4219 1831 4219 
Q 1534 4219 1204 4116 
Q 875 4013 500 3803 
L 500 4441 
Q 881 4594 1212 4672 
Q 1544 4750 1819 4750 
Q 2544 4750 2975 4387 
Q 3406 4025 3406 3419 
Q 3406 3131 3298 2873 
Q 3191 2616 2906 2266 
Q 2828 2175 2409 1742 
Q 1991 1309 1228 531 
z
" transform="scale(0.015625)"/>
       </defs>
       <use xlink:href="#DejaVuSans-32"/>
       <use xlink:href="#DejaVuSans-30" x="63.623047"/>
      </g>
     </g>
    </g>
    <g id="xtick_3">
     <g id="line2d_3">
      <g>
       <use xlink:href="#m36d4b95258" x="229.433547" y="242.118437" style="stroke: #000000; stroke-width: 0.8"/>
      </g>
     </g>
     <g id="text_3">
      <!-- 30 -->
      <g transform="translate(223.071047 256.716875) scale(0.1 -0.1)">
       <defs>
        <path id="DejaVuSans-33" d="M 2597 2516 
Q 3050 2419 3304 2112 
Q 3559 1806 3559 1356 
Q 3559 666 3084 287 
Q 2609 -91 1734 -91 
Q 1441 -91 1130 -33 
Q 819 25 488 141 
L 488 750 
Q 750 597 1062 519 
Q 1375 441 1716 441 
Q 2309 441 2620 675 
Q 2931 909 2931 1356 
Q 2931 1769 2642 2001 
Q 2353 2234 1838 2234 
L 1294 2234 
L 1294 2753 
L 1863 2753 
Q 2328 2753 2575 2939 
Q 2822 3125 2822 3475 
Q 2822 3834 2567 4026 
Q 2313 4219 1838 4219 
Q 1578 4219 1281 4162 
Q 984 4106 628 3988 
L 628 4550 
Q 988 4650 1302 4700 
Q 1616 4750 1894 4750 
Q 2613 4750 3031 4423 
Q 3450 4097 3450 3541 
Q 3450 3153 3228 2886 
Q 3006 2619 2597 2516 
z
" transform="scale(0.015625)"/>
       </defs>
       <use xlink:href="#DejaVuSans-33"/>
       <use xlink:href="#DejaVuSans-30" x="63.623047"/>
      </g>
     </g>
    </g>
    <g id="xtick_4">
     <g id="line2d_4">
      <g>
       <use xlink:href="#m36d4b95258" x="288.529326" y="242.118437" style="stroke: #000000; stroke-width: 0.8"/>
      </g>
     </g>
     <g id="text_4">
      <!-- 40 -->
      <g transform="translate(282.166826 256.716875) scale(0.1 -0.1)">
       <defs>
        <path id="DejaVuSans-34" d="M 2419 4116 
L 825 1625 
L 2419 1625 
L 2419 4116 
z
M 2253 4666 
L 3047 4666 
L 3047 1625 
L 3713 1625 
L 3713 1100 
L 3047 1100 
L 3047 0 
L 2419 0 
L 2419 1100 
L 313 1100 
L 313 1709 
L 2253 4666 
z
" transform="scale(0.015625)"/>
       </defs>
       <use xlink:href="#DejaVuSans-34"/>
       <use xlink:href="#DejaVuSans-30" x="63.623047"/>
      </g>
     </g>
    </g>
    <g id="xtick_5">
     <g id="line2d_5">
      <g>
       <use xlink:href="#m36d4b95258" x="347.625106" y="242.118437" style="stroke: #000000; stroke-width: 0.8"/>
      </g>
     </g>
     <g id="text_5">
      <!-- 50 -->
      <g transform="translate(341.262606 256.716875) scale(0.1 -0.1)">
       <defs>
        <path id="DejaVuSans-35" d="M 691 4666 
L 3169 4666 
L 3169 4134 
L 1269 4134 
L 1269 2991 
Q 1406 3038 1543 3061 
Q 1681 3084 1819 3084 
Q 2600 3084 3056 2656 
Q 3513 2228 3513 1497 
Q 3513 744 3044 326 
Q 2575 -91 1722 -91 
Q 1428 -91 1123 -41 
Q 819 9 494 109 
L 494 744 
Q 775 591 1075 516 
Q 1375 441 1709 441 
Q 2250 441 2565 725 
Q 2881 1009 2881 1497 
Q 2881 1984 2565 2268 
Q 2250 2553 1709 2553 
Q 1456 2553 1204 2497 
Q 953 2441 691 2322 
L 691 4666 
z
" transform="scale(0.015625)"/>
       </defs>
       <use xlink:href="#DejaVuSans-35"/>
       <use xlink:href="#DejaVuSans-30" x="63.623047"/>
      </g>
     </g>
    </g>
    <g id="xtick_6">
     <g id="line2d_6">
      <g>
       <use xlink:href="#m36d4b95258" x="406.720885" y="242.118437" style="stroke: #000000; stroke-width: 0.8"/>
      </g>
     </g>
     <g id="text_6">
      <!-- 60 -->
      <g transform="translate(400.358385 256.716875) scale(0.1 -0.1)">
       <defs>
        <path id="DejaVuSans-36" d="M 2113 2584 
Q 1688 2584 1439 2293 
Q 1191 2003 1191 1497 
Q 1191 994 1439 701 
Q 1688 409 2113 409 
Q 2538 409 2786 701 
Q 3034 994 3034 1497 
Q 3034 2003 2786 2293 
Q 2538 2584 2113 2584 
z
M 3366 4563 
L 3366 3988 
Q 3128 4100 2886 4159 
Q 2644 4219 2406 4219 
Q 1781 4219 1451 3797 
Q 1122 3375 1075 2522 
Q 1259 2794 1537 2939 
Q 1816 3084 2150 3084 
Q 2853 3084 3261 2657 
Q 3669 2231 3669 1497 
Q 3669 778 3244 343 
Q 2819 -91 2113 -91 
Q 1303 -91 875 529 
Q 447 1150 447 2328 
Q 447 3434 972 4092 
Q 1497 4750 2381 4750 
Q 2619 4750 2861 4703 
Q 3103 4656 3366 4563 
z
" transform="scale(0.015625)"/>
       </defs>
       <use xlink:href="#DejaVuSans-36"/>
       <use xlink:href="#DejaVuSans-30" x="63.623047"/>
      </g>
     </g>
    </g>
    <g id="text_7">
     <!-- TCO2 -->
     <g transform="translate(221.974375 270.395) scale(0.1 -0.1)">
      <defs>
       <path id="DejaVuSans-54" d="M -19 4666 
L 3928 4666 
L 3928 4134 
L 2272 4134 
L 2272 0 
L 1638 0 
L 1638 4134 
L -19 4134 
L -19 4666 
z
" transform="scale(0.015625)"/>
       <path id="DejaVuSans-43" d="M 4122 4306 
L 4122 3641 
Q 3803 3938 3442 4084 
Q 3081 4231 2675 4231 
Q 1875 4231 1450 3742 
Q 1025 3253 1025 2328 
Q 1025 1406 1450 917 
Q 1875 428 2675 428 
Q 3081 428 3442 575 
Q 3803 722 4122 1019 
L 4122 359 
Q 3791 134 3420 21 
Q 3050 -91 2638 -91 
Q 1578 -91 968 557 
Q 359 1206 359 2328 
Q 359 3453 968 4101 
Q 1578 4750 2638 4750 
Q 3056 4750 3426 4639 
Q 3797 4528 4122 4306 
z
" transform="scale(0.015625)"/>
       <path id="DejaVuSans-4f" d="M 2522 4238 
Q 1834 4238 1429 3725 
Q 1025 3213 1025 2328 
Q 1025 1447 1429 934 
Q 1834 422 2522 422 
Q 3209 422 3611 934 
Q 4013 1447 4013 2328 
Q 4013 3213 3611 3725 
Q 3209 4238 2522 4238 
z
M 2522 4750 
Q 3503 4750 4090 4092 
Q 4678 3434 4678 2328 
Q 4678 1225 4090 567 
Q 3503 -91 2522 -91 
Q 1538 -91 948 565 
Q 359 1222 359 2328 
Q 359 3434 948 4092 
Q 1538 4750 2522 4750 
z
" transform="scale(0.015625)"/>
      </defs>
      <use xlink:href="#DejaVuSans-54"/>
      <use xlink:href="#DejaVuSans-43" x="55.208984"/>
      <use xlink:href="#DejaVuSans-4f" x="125.033203"/>
      <use xlink:href="#DejaVuSans-32" x="203.744141"/>
     </g>
    </g>
   </g>
   <g id="matplotlib.axis_2">
    <g id="ytick_1">
     <g id="line2d_7">
      <defs>
       <path id="m6ec41cd2b6" d="M 0 0 
L -3.5 0 
" style="stroke: #000000; stroke-width: 0.8"/>
      </defs>
      <g>
       <use xlink:href="#m6ec41cd2b6" x="53.328125" y="242.118437" style="stroke: #000000; stroke-width: 0.8"/>
      </g>
     </g>
     <g id="text_8">
      <!-- 0 -->
      <g transform="translate(39.965625 245.917656) scale(0.1 -0.1)">
       <use xlink:href="#DejaVuSans-30"/>
      </g>
     </g>
    </g>
    <g id="ytick_2">
     <g id="line2d_8">
      <g>
       <use xlink:href="#m6ec41cd2b6" x="53.328125" y="214.73006" style="stroke: #000000; stroke-width: 0.8"/>
      </g>
     </g>
     <g id="text_9">
      <!-- 250 -->
      <g transform="translate(27.240625 218.529279) scale(0.1 -0.1)">
       <use xlink:href="#DejaVuSans-32"/>
       <use xlink:href="#DejaVuSans-35" x="63.623047"/>
       <use xlink:href="#DejaVuSans-30" x="127.246094"/>
      </g>
     </g>
    </g>
    <g id="ytick_3">
     <g id="line2d_9">
      <g>
       <use xlink:href="#m6ec41cd2b6" x="53.328125" y="187.341683" style="stroke: #000000; stroke-width: 0.8"/>
      </g>
     </g>
     <g id="text_10">
      <!-- 500 -->
      <g transform="translate(27.240625 191.140901) scale(0.1 -0.1)">
       <use xlink:href="#DejaVuSans-35"/>
       <use xlink:href="#DejaVuSans-30" x="63.623047"/>
       <use xlink:href="#DejaVuSans-30" x="127.246094"/>
      </g>
     </g>
    </g>
    <g id="ytick_4">
     <g id="line2d_10">
      <g>
       <use xlink:href="#m6ec41cd2b6" x="53.328125" y="159.953305" style="stroke: #000000; stroke-width: 0.8"/>
      </g>
     </g>
     <g id="text_11">
      <!-- 750 -->
      <g transform="translate(27.240625 163.752524) scale(0.1 -0.1)">
       <defs>
        <path id="DejaVuSans-37" d="M 525 4666 
L 3525 4666 
L 3525 4397 
L 1831 0 
L 1172 0 
L 2766 4134 
L 525 4134 
L 525 4666 
z
" transform="scale(0.015625)"/>
       </defs>
       <use xlink:href="#DejaVuSans-37"/>
       <use xlink:href="#DejaVuSans-35" x="63.623047"/>
       <use xlink:href="#DejaVuSans-30" x="127.246094"/>
      </g>
     </g>
    </g>
    <g id="ytick_5">
     <g id="line2d_11">
      <g>
       <use xlink:href="#m6ec41cd2b6" x="53.328125" y="132.564928" style="stroke: #000000; stroke-width: 0.8"/>
      </g>
     </g>
     <g id="text_12">
      <!-- 1000 -->
      <g transform="translate(20.878125 136.364147) scale(0.1 -0.1)">
       <use xlink:href="#DejaVuSans-31"/>
       <use xlink:href="#DejaVuSans-30" x="63.623047"/>
       <use xlink:href="#DejaVuSans-30" x="127.246094"/>
       <use xlink:href="#DejaVuSans-30" x="190.869141"/>
      </g>
     </g>
    </g>
    <g id="ytick_6">
     <g id="line2d_12">
      <g>
       <use xlink:href="#m6ec41cd2b6" x="53.328125" y="105.176551" style="stroke: #000000; stroke-width: 0.8"/>
      </g>
     </g>
     <g id="text_13">
      <!-- 1250 -->
      <g transform="translate(20.878125 108.975769) scale(0.1 -0.1)">
       <use xlink:href="#DejaVuSans-31"/>
       <use xlink:href="#DejaVuSans-32" x="63.623047"/>
       <use xlink:href="#DejaVuSans-35" x="127.246094"/>
       <use xlink:href="#DejaVuSans-30" x="190.869141"/>
      </g>
     </g>
    </g>
    <g id="ytick_7">
     <g id="line2d_13">
      <g>
       <use xlink:href="#m6ec41cd2b6" x="53.328125" y="77.788173" style="stroke: #000000; stroke-width: 0.8"/>
      </g>
     </g>
     <g id="text_14">
      <!-- 1500 -->
      <g transform="translate(20.878125 81.587392) scale(0.1 -0.1)">
       <use xlink:href="#DejaVuSans-31"/>
       <use xlink:href="#DejaVuSans-35" x="63.623047"/>
       <use xlink:href="#DejaVuSans-30" x="127.246094"/>
       <use xlink:href="#DejaVuSans-30" x="190.869141"/>
      </g>
     </g>
    </g>
    <g id="ytick_8">
     <g id="line2d_14">
      <g>
       <use xlink:href="#m6ec41cd2b6" x="53.328125" y="50.399796" style="stroke: #000000; stroke-width: 0.8"/>
      </g>
     </g>
     <g id="text_15">
      <!-- 1750 -->
      <g transform="translate(20.878125 54.199015) scale(0.1 -0.1)">
       <use xlink:href="#DejaVuSans-31"/>
       <use xlink:href="#DejaVuSans-37" x="63.623047"/>
       <use xlink:href="#DejaVuSans-35" x="127.246094"/>
       <use xlink:href="#DejaVuSans-30" x="190.869141"/>
      </g>
     </g>
    </g>
    <g id="ytick_9">
     <g id="line2d_15">
      <g>
       <use xlink:href="#m6ec41cd2b6" x="53.328125" y="23.011418" style="stroke: #000000; stroke-width: 0.8"/>
      </g>
     </g>
     <g id="text_16">
      <!-- 2000 -->
      <g transform="translate(20.878125 26.810637) scale(0.1 -0.1)">
       <use xlink:href="#DejaVuSans-32"/>
       <use xlink:href="#DejaVuSans-30" x="63.623047"/>
       <use xlink:href="#DejaVuSans-30" x="127.246094"/>
       <use xlink:href="#DejaVuSans-30" x="190.869141"/>
      </g>
     </g>
    </g>
    <g id="text_17">
     <!-- Count -->
     <g transform="translate(14.798438 146.306875) rotate(-90) scale(0.1 -0.1)">
      <defs>
       <path id="DejaVuSans-6f" d="M 1959 3097 
Q 1497 3097 1228 2736 
Q 959 2375 959 1747 
Q 959 1119 1226 758 
Q 1494 397 1959 397 
Q 2419 397 2687 759 
Q 2956 1122 2956 1747 
Q 2956 2369 2687 2733 
Q 2419 3097 1959 3097 
z
M 1959 3584 
Q 2709 3584 3137 3096 
Q 3566 2609 3566 1747 
Q 3566 888 3137 398 
Q 2709 -91 1959 -91 
Q 1206 -91 779 398 
Q 353 888 353 1747 
Q 353 2609 779 3096 
Q 1206 3584 1959 3584 
z
" transform="scale(0.015625)"/>
       <path id="DejaVuSans-75" d="M 544 1381 
L 544 3500 
L 1119 3500 
L 1119 1403 
Q 1119 906 1312 657 
Q 1506 409 1894 409 
Q 2359 409 2629 706 
Q 2900 1003 2900 1516 
L 2900 3500 
L 3475 3500 
L 3475 0 
L 2900 0 
L 2900 538 
Q 2691 219 2414 64 
Q 2138 -91 1772 -91 
Q 1169 -91 856 284 
Q 544 659 544 1381 
z
M 1991 3584 
L 1991 3584 
z
" transform="scale(0.015625)"/>
       <path id="DejaVuSans-6e" d="M 3513 2113 
L 3513 0 
L 2938 0 
L 2938 2094 
Q 2938 2591 2744 2837 
Q 2550 3084 2163 3084 
Q 1697 3084 1428 2787 
Q 1159 2491 1159 1978 
L 1159 0 
L 581 0 
L 581 3500 
L 1159 3500 
L 1159 2956 
Q 1366 3272 1645 3428 
Q 1925 3584 2291 3584 
Q 2894 3584 3203 3211 
Q 3513 2838 3513 2113 
z
" transform="scale(0.015625)"/>
       <path id="DejaVuSans-74" d="M 1172 4494 
L 1172 3500 
L 2356 3500 
L 2356 3053 
L 1172 3053 
L 1172 1153 
Q 1172 725 1289 603 
Q 1406 481 1766 481 
L 2356 481 
L 2356 0 
L 1766 0 
Q 1100 0 847 248 
Q 594 497 594 1153 
L 594 3053 
L 172 3053 
L 172 3500 
L 594 3500 
L 594 4494 
L 1172 4494 
z
" transform="scale(0.015625)"/>
      </defs>
      <use xlink:href="#DejaVuSans-43"/>
      <use xlink:href="#DejaVuSans-6f" x="69.824219"/>
      <use xlink:href="#DejaVuSans-75" x="131.005859"/>
      <use xlink:href="#DejaVuSans-6e" x="194.384766"/>
      <use xlink:href="#DejaVuSans-74" x="257.763672"/>
     </g>
    </g>
   </g>
   <g id="patch_146">
    <path d="M 53.328125 242.118437 
L 53.328125 20.798437 
" style="fill: none; stroke: #000000; stroke-width: 0.8; stroke-linejoin: miter; stroke-linecap: square"/>
   </g>
   <g id="patch_147">
    <path d="M 417.358125 242.118437 
L 417.358125 20.798437 
" style="fill: none; stroke: #000000; stroke-width: 0.8; stroke-linejoin: miter; stroke-linecap: square"/>
   </g>
   <g id="patch_148">
    <path d="M 53.328125 242.118437 
L 417.358125 242.118437 
" style="fill: none; stroke: #000000; stroke-width: 0.8; stroke-linejoin: miter; stroke-linecap: square"/>
   </g>
   <g id="patch_149">
    <path d="M 53.328125 20.798437 
L 417.358125 20.798437 
" style="fill: none; stroke: #000000; stroke-width: 0.8; stroke-linejoin: miter; stroke-linecap: square"/>
   </g>
   <g id="text_18">
    <!-- Distribution of TCO2 -->
    <g transform="translate(184.807969 14.798437) scale(0.1 -0.1)">
     <defs>
      <path id="DejaVuSans-44" d="M 1259 4147 
L 1259 519 
L 2022 519 
Q 2988 519 3436 956 
Q 3884 1394 3884 2338 
Q 3884 3275 3436 3711 
Q 2988 4147 2022 4147 
L 1259 4147 
z
M 628 4666 
L 1925 4666 
Q 3281 4666 3915 4102 
Q 4550 3538 4550 2338 
Q 4550 1131 3912 565 
Q 3275 0 1925 0 
L 628 0 
L 628 4666 
z
" transform="scale(0.015625)"/>
      <path id="DejaVuSans-69" d="M 603 3500 
L 1178 3500 
L 1178 0 
L 603 0 
L 603 3500 
z
M 603 4863 
L 1178 4863 
L 1178 4134 
L 603 4134 
L 603 4863 
z
" transform="scale(0.015625)"/>
      <path id="DejaVuSans-73" d="M 2834 3397 
L 2834 2853 
Q 2591 2978 2328 3040 
Q 2066 3103 1784 3103 
Q 1356 3103 1142 2972 
Q 928 2841 928 2578 
Q 928 2378 1081 2264 
Q 1234 2150 1697 2047 
L 1894 2003 
Q 2506 1872 2764 1633 
Q 3022 1394 3022 966 
Q 3022 478 2636 193 
Q 2250 -91 1575 -91 
Q 1294 -91 989 -36 
Q 684 19 347 128 
L 347 722 
Q 666 556 975 473 
Q 1284 391 1588 391 
Q 1994 391 2212 530 
Q 2431 669 2431 922 
Q 2431 1156 2273 1281 
Q 2116 1406 1581 1522 
L 1381 1569 
Q 847 1681 609 1914 
Q 372 2147 372 2553 
Q 372 3047 722 3315 
Q 1072 3584 1716 3584 
Q 2034 3584 2315 3537 
Q 2597 3491 2834 3397 
z
" transform="scale(0.015625)"/>
      <path id="DejaVuSans-72" d="M 2631 2963 
Q 2534 3019 2420 3045 
Q 2306 3072 2169 3072 
Q 1681 3072 1420 2755 
Q 1159 2438 1159 1844 
L 1159 0 
L 581 0 
L 581 3500 
L 1159 3500 
L 1159 2956 
Q 1341 3275 1631 3429 
Q 1922 3584 2338 3584 
Q 2397 3584 2469 3576 
Q 2541 3569 2628 3553 
L 2631 2963 
z
" transform="scale(0.015625)"/>
      <path id="DejaVuSans-62" d="M 3116 1747 
Q 3116 2381 2855 2742 
Q 2594 3103 2138 3103 
Q 1681 3103 1420 2742 
Q 1159 2381 1159 1747 
Q 1159 1113 1420 752 
Q 1681 391 2138 391 
Q 2594 391 2855 752 
Q 3116 1113 3116 1747 
z
M 1159 2969 
Q 1341 3281 1617 3432 
Q 1894 3584 2278 3584 
Q 2916 3584 3314 3078 
Q 3713 2572 3713 1747 
Q 3713 922 3314 415 
Q 2916 -91 2278 -91 
Q 1894 -91 1617 61 
Q 1341 213 1159 525 
L 1159 0 
L 581 0 
L 581 4863 
L 1159 4863 
L 1159 2969 
z
" transform="scale(0.015625)"/>
      <path id="DejaVuSans-20" transform="scale(0.015625)"/>
      <path id="DejaVuSans-66" d="M 2375 4863 
L 2375 4384 
L 1825 4384 
Q 1516 4384 1395 4259 
Q 1275 4134 1275 3809 
L 1275 3500 
L 2222 3500 
L 2222 3053 
L 1275 3053 
L 1275 0 
L 697 0 
L 697 3053 
L 147 3053 
L 147 3500 
L 697 3500 
L 697 3744 
Q 697 4328 969 4595 
Q 1241 4863 1831 4863 
L 2375 4863 
z
" transform="scale(0.015625)"/>
     </defs>
     <use xlink:href="#DejaVuSans-44"/>
     <use xlink:href="#DejaVuSans-69" x="77.001953"/>
     <use xlink:href="#DejaVuSans-73" x="104.785156"/>
     <use xlink:href="#DejaVuSans-74" x="156.884766"/>
     <use xlink:href="#DejaVuSans-72" x="196.09375"/>
     <use xlink:href="#DejaVuSans-69" x="237.207031"/>
     <use xlink:href="#DejaVuSans-62" x="264.990234"/>
     <use xlink:href="#DejaVuSans-75" x="328.466797"/>
     <use xlink:href="#DejaVuSans-74" x="391.845703"/>
     <use xlink:href="#DejaVuSans-69" x="431.054688"/>
     <use xlink:href="#DejaVuSans-6f" x="458.837891"/>
     <use xlink:href="#DejaVuSans-6e" x="520.019531"/>
     <use xlink:href="#DejaVuSans-20" x="583.398438"/>
     <use xlink:href="#DejaVuSans-6f" x="615.185547"/>
     <use xlink:href="#DejaVuSans-66" x="676.367188"/>
     <use xlink:href="#DejaVuSans-20" x="711.572266"/>
     <use xlink:href="#DejaVuSans-54" x="743.359375"/>
     <use xlink:href="#DejaVuSans-43" x="798.568359"/>
     <use xlink:href="#DejaVuSans-4f" x="868.392578"/>
     <use xlink:href="#DejaVuSans-32" x="947.103516"/>
    </g>
   </g>
  </g>
 </g>
 <defs>
  <clipPath id="pca33c990a6">
   <rect x="53.328125" y="20.798437" width="364.03" height="221.32"/>
  </clipPath>
 </defs>
</svg>
