<?xml version="1.0" encoding="utf-8" standalone="no"?>
<!DOCTYPE svg PUBLIC "-//W3C//DTD SVG 1.1//EN"
  "http://www.w3.org/Graphics/SVG/1.1/DTD/svg11.dtd">
<svg xmlns:xlink="http://www.w3.org/1999/xlink" width="856.495625pt" height="423.034375pt" viewBox="0 0 856.495625 423.034375" xmlns="http://www.w3.org/2000/svg" version="1.1">
 <metadata>
  <rdf:RDF xmlns:dc="http://purl.org/dc/elements/1.1/" xmlns:cc="http://creativecommons.org/ns#" xmlns:rdf="http://www.w3.org/1999/02/22-rdf-syntax-ns#">
   <cc:Work>
    <dc:type rdf:resource="http://purl.org/dc/dcmitype/StillImage"/>
    <dc:date>2024-07-19T11:54:44.884373</dc:date>
    <dc:format>image/svg+xml</dc:format>
    <dc:creator>
     <cc:Agent>
      <dc:title>Matplotlib v3.9.0, https://matplotlib.org/</dc:title>
     </cc:Agent>
    </dc:creator>
   </cc:Work>
  </rdf:RDF>
 </metadata>
 <defs>
  <style type="text/css">*{stroke-linejoin: round; stroke-linecap: butt}</style>
 </defs>
 <g id="figure_1">
  <g id="patch_1">
   <path d="M 0 423.034375 
L 856.495625 423.034375 
L 856.495625 0 
L 0 0 
z
" style="fill: #ffffff"/>
  </g>
  <g id="axes_1">
   <g id="patch_2">
    <path d="M 46.965625 385.478125 
L 849.295625 385.478125 
L 849.295625 22.318125 
L 46.965625 22.318125 
z
" style="fill: #ffffff"/>
   </g>
   <g id="patch_3">
    <path d="M 105.624351 385.478125 
L 110.58821 385.478125 
L 110.58821 344.2841 
L 105.624351 344.2841 
z
" clip-path="url(#p4eec4ac637)" style="fill: #1f77b4; fill-opacity: 0.5; stroke: #000000; stroke-width: 0.441107; stroke-linejoin: miter"/>
   </g>
   <g id="patch_4">
    <path d="M 110.58821 385.478125 
L 115.552069 385.478125 
L 115.552069 301.86649 
L 110.58821 301.86649 
z
" clip-path="url(#p4eec4ac637)" style="fill: #1f77b4; fill-opacity: 0.5; stroke: #000000; stroke-width: 0.441107; stroke-linejoin: miter"/>
   </g>
   <g id="patch_5">
    <path d="M 115.552069 385.478125 
L 120.515928 385.478125 
L 120.515928 276.171207 
L 115.552069 276.171207 
z
" clip-path="url(#p4eec4ac637)" style="fill: #1f77b4; fill-opacity: 0.5; stroke: #000000; stroke-width: 0.441107; stroke-linejoin: miter"/>
   </g>
   <g id="patch_6">
    <path d="M 120.515928 385.478125 
L 125.479787 385.478125 
L 125.479787 272.500452 
L 120.515928 272.500452 
z
" clip-path="url(#p4eec4ac637)" style="fill: #1f77b4; fill-opacity: 0.5; stroke: #000000; stroke-width: 0.441107; stroke-linejoin: miter"/>
   </g>
   <g id="patch_7">
    <path d="M 125.479787 385.478125 
L 130.443646 385.478125 
L 130.443646 279.4341 
L 125.479787 279.4341 
z
" clip-path="url(#p4eec4ac637)" style="fill: #1f77b4; fill-opacity: 0.5; stroke: #000000; stroke-width: 0.441107; stroke-linejoin: miter"/>
   </g>
   <g id="patch_8">
    <path d="M 130.443646 385.478125 
L 135.407505 385.478125 
L 135.407505 298.603597 
L 130.443646 298.603597 
z
" clip-path="url(#p4eec4ac637)" style="fill: #1f77b4; fill-opacity: 0.5; stroke: #000000; stroke-width: 0.441107; stroke-linejoin: miter"/>
   </g>
   <g id="patch_9">
    <path d="M 135.407505 385.478125 
L 140.371364 385.478125 
L 140.371364 296.156427 
L 135.407505 296.156427 
z
" clip-path="url(#p4eec4ac637)" style="fill: #1f77b4; fill-opacity: 0.5; stroke: #000000; stroke-width: 0.441107; stroke-linejoin: miter"/>
   </g>
   <g id="patch_10">
    <path d="M 140.371364 385.478125 
L 145.335223 385.478125 
L 145.335223 281.88127 
L 140.371364 281.88127 
z
" clip-path="url(#p4eec4ac637)" style="fill: #1f77b4; fill-opacity: 0.5; stroke: #000000; stroke-width: 0.441107; stroke-linejoin: miter"/>
   </g>
   <g id="patch_11">
    <path d="M 145.335223 385.478125 
L 150.299082 385.478125 
L 150.299082 277.394792 
L 145.335223 277.394792 
z
" clip-path="url(#p4eec4ac637)" style="fill: #1f77b4; fill-opacity: 0.5; stroke: #000000; stroke-width: 0.441107; stroke-linejoin: miter"/>
   </g>
   <g id="patch_12">
    <path d="M 150.299082 385.478125 
L 155.262941 385.478125 
L 155.262941 273.724037 
L 150.299082 273.724037 
z
" clip-path="url(#p4eec4ac637)" style="fill: #1f77b4; fill-opacity: 0.5; stroke: #000000; stroke-width: 0.441107; stroke-linejoin: miter"/>
   </g>
   <g id="patch_13">
    <path d="M 155.262941 385.478125 
L 160.2268 385.478125 
L 160.2268 249.6602 
L 155.262941 249.6602 
z
" clip-path="url(#p4eec4ac637)" style="fill: #1f77b4; fill-opacity: 0.5; stroke: #000000; stroke-width: 0.441107; stroke-linejoin: miter"/>
   </g>
   <g id="patch_14">
    <path d="M 160.2268 385.478125 
L 165.190659 385.478125 
L 165.190659 238.647936 
L 160.2268 238.647936 
z
" clip-path="url(#p4eec4ac637)" style="fill: #1f77b4; fill-opacity: 0.5; stroke: #000000; stroke-width: 0.441107; stroke-linejoin: miter"/>
   </g>
   <g id="patch_15">
    <path d="M 165.190659 385.478125 
L 170.154518 385.478125 
L 170.154518 256.593848 
L 165.190659 256.593848 
z
" clip-path="url(#p4eec4ac637)" style="fill: #1f77b4; fill-opacity: 0.5; stroke: #000000; stroke-width: 0.441107; stroke-linejoin: miter"/>
   </g>
   <g id="patch_16">
    <path d="M 170.154518 385.478125 
L 175.118377 385.478125 
L 175.118377 223.964917 
L 170.154518 223.964917 
z
" clip-path="url(#p4eec4ac637)" style="fill: #1f77b4; fill-opacity: 0.5; stroke: #000000; stroke-width: 0.441107; stroke-linejoin: miter"/>
   </g>
   <g id="patch_17">
    <path d="M 175.118377 385.478125 
L 180.082236 385.478125 
L 180.082236 204.795421 
L 175.118377 204.795421 
z
" clip-path="url(#p4eec4ac637)" style="fill: #1f77b4; fill-opacity: 0.5; stroke: #000000; stroke-width: 0.441107; stroke-linejoin: miter"/>
   </g>
   <g id="patch_18">
    <path d="M 180.082236 385.478125 
L 185.046095 385.478125 
L 185.046095 180.323722 
L 180.082236 180.323722 
z
" clip-path="url(#p4eec4ac637)" style="fill: #1f77b4; fill-opacity: 0.5; stroke: #000000; stroke-width: 0.441107; stroke-linejoin: miter"/>
   </g>
   <g id="patch_19">
    <path d="M 185.046095 385.478125 
L 190.009954 385.478125 
L 190.009954 179.915861 
L 185.046095 179.915861 
z
" clip-path="url(#p4eec4ac637)" style="fill: #1f77b4; fill-opacity: 0.5; stroke: #000000; stroke-width: 0.441107; stroke-linejoin: miter"/>
   </g>
   <g id="patch_20">
    <path d="M 190.009954 385.478125 
L 194.973813 385.478125 
L 194.973813 181.139446 
L 190.009954 181.139446 
z
" clip-path="url(#p4eec4ac637)" style="fill: #1f77b4; fill-opacity: 0.5; stroke: #000000; stroke-width: 0.441107; stroke-linejoin: miter"/>
   </g>
   <g id="patch_21">
    <path d="M 194.973813 385.478125 
L 199.937673 385.478125 
L 199.937673 94.672779 
L 194.973813 94.672779 
z
" clip-path="url(#p4eec4ac637)" style="fill: #1f77b4; fill-opacity: 0.5; stroke: #000000; stroke-width: 0.441107; stroke-linejoin: miter"/>
   </g>
   <g id="patch_22">
    <path d="M 199.937673 385.478125 
L 204.901532 385.478125 
L 204.901532 168.903597 
L 199.937673 168.903597 
z
" clip-path="url(#p4eec4ac637)" style="fill: #1f77b4; fill-opacity: 0.5; stroke: #000000; stroke-width: 0.441107; stroke-linejoin: miter"/>
   </g>
   <g id="patch_23">
    <path d="M 204.901532 385.478125 
L 209.865391 385.478125 
L 209.865391 65.306741 
L 204.901532 65.306741 
z
" clip-path="url(#p4eec4ac637)" style="fill: #1f77b4; fill-opacity: 0.5; stroke: #000000; stroke-width: 0.441107; stroke-linejoin: miter"/>
   </g>
   <g id="patch_24">
    <path d="M 209.865391 385.478125 
L 214.82925 385.478125 
L 214.82925 127.709572 
L 209.865391 127.709572 
z
" clip-path="url(#p4eec4ac637)" style="fill: #1f77b4; fill-opacity: 0.5; stroke: #000000; stroke-width: 0.441107; stroke-linejoin: miter"/>
   </g>
   <g id="patch_25">
    <path d="M 214.82925 385.478125 
L 219.793109 385.478125 
L 219.793109 39.611458 
L 214.82925 39.611458 
z
" clip-path="url(#p4eec4ac637)" style="fill: #1f77b4; fill-opacity: 0.5; stroke: #000000; stroke-width: 0.441107; stroke-linejoin: miter"/>
   </g>
   <g id="patch_26">
    <path d="M 219.793109 385.478125 
L 224.756968 385.478125 
L 224.756968 103.645735 
L 219.793109 103.645735 
z
" clip-path="url(#p4eec4ac637)" style="fill: #1f77b4; fill-opacity: 0.5; stroke: #000000; stroke-width: 0.441107; stroke-linejoin: miter"/>
   </g>
   <g id="patch_27">
    <path d="M 224.756968 385.478125 
L 229.720827 385.478125 
L 229.720827 90.186301 
L 224.756968 90.186301 
z
" clip-path="url(#p4eec4ac637)" style="fill: #1f77b4; fill-opacity: 0.5; stroke: #000000; stroke-width: 0.441107; stroke-linejoin: miter"/>
   </g>
   <g id="patch_28">
    <path d="M 229.720827 385.478125 
L 234.684686 385.478125 
L 234.684686 57.55737 
L 229.720827 57.55737 
z
" clip-path="url(#p4eec4ac637)" style="fill: #1f77b4; fill-opacity: 0.5; stroke: #000000; stroke-width: 0.441107; stroke-linejoin: miter"/>
   </g>
   <g id="patch_29">
    <path d="M 234.684686 385.478125 
L 239.648545 385.478125 
L 239.648545 104.053597 
L 234.684686 104.053597 
z
" clip-path="url(#p4eec4ac637)" style="fill: #1f77b4; fill-opacity: 0.5; stroke: #000000; stroke-width: 0.441107; stroke-linejoin: miter"/>
   </g>
   <g id="patch_30">
    <path d="M 239.648545 385.478125 
L 244.612404 385.478125 
L 244.612404 170.127182 
L 239.648545 170.127182 
z
" clip-path="url(#p4eec4ac637)" style="fill: #1f77b4; fill-opacity: 0.5; stroke: #000000; stroke-width: 0.441107; stroke-linejoin: miter"/>
   </g>
   <g id="patch_31">
    <path d="M 244.612404 385.478125 
L 249.576263 385.478125 
L 249.576263 154.220578 
L 244.612404 154.220578 
z
" clip-path="url(#p4eec4ac637)" style="fill: #1f77b4; fill-opacity: 0.5; stroke: #000000; stroke-width: 0.441107; stroke-linejoin: miter"/>
   </g>
   <g id="patch_32">
    <path d="M 249.576263 385.478125 
L 254.540122 385.478125 
L 254.540122 161.562087 
L 249.576263 161.562087 
z
" clip-path="url(#p4eec4ac637)" style="fill: #1f77b4; fill-opacity: 0.5; stroke: #000000; stroke-width: 0.441107; stroke-linejoin: miter"/>
   </g>
   <g id="patch_33">
    <path d="M 254.540122 385.478125 
L 259.503981 385.478125 
L 259.503981 206.019006 
L 254.540122 206.019006 
z
" clip-path="url(#p4eec4ac637)" style="fill: #1f77b4; fill-opacity: 0.5; stroke: #000000; stroke-width: 0.441107; stroke-linejoin: miter"/>
   </g>
   <g id="patch_34">
    <path d="M 259.503981 385.478125 
L 264.46784 385.478125 
L 264.46784 255.778125 
L 259.503981 255.778125 
z
" clip-path="url(#p4eec4ac637)" style="fill: #1f77b4; fill-opacity: 0.5; stroke: #000000; stroke-width: 0.441107; stroke-linejoin: miter"/>
   </g>
   <g id="patch_35">
    <path d="M 264.46784 385.478125 
L 269.431699 385.478125 
L 269.431699 274.131899 
L 264.46784 274.131899 
z
" clip-path="url(#p4eec4ac637)" style="fill: #1f77b4; fill-opacity: 0.5; stroke: #000000; stroke-width: 0.441107; stroke-linejoin: miter"/>
   </g>
   <g id="patch_36">
    <path d="M 269.431699 385.478125 
L 274.395558 385.478125 
L 274.395558 253.738817 
L 269.431699 253.738817 
z
" clip-path="url(#p4eec4ac637)" style="fill: #1f77b4; fill-opacity: 0.5; stroke: #000000; stroke-width: 0.441107; stroke-linejoin: miter"/>
   </g>
   <g id="patch_37">
    <path d="M 274.395558 385.478125 
L 279.359417 385.478125 
L 279.359417 290.038502 
L 274.395558 290.038502 
z
" clip-path="url(#p4eec4ac637)" style="fill: #1f77b4; fill-opacity: 0.5; stroke: #000000; stroke-width: 0.441107; stroke-linejoin: miter"/>
   </g>
   <g id="patch_38">
    <path d="M 279.359417 385.478125 
L 284.323276 385.478125 
L 284.323276 313.694477 
L 279.359417 313.694477 
z
" clip-path="url(#p4eec4ac637)" style="fill: #1f77b4; fill-opacity: 0.5; stroke: #000000; stroke-width: 0.441107; stroke-linejoin: miter"/>
   </g>
   <g id="patch_39">
    <path d="M 284.323276 385.478125 
L 289.287135 385.478125 
L 289.287135 327.969634 
L 284.323276 327.969634 
z
" clip-path="url(#p4eec4ac637)" style="fill: #1f77b4; fill-opacity: 0.5; stroke: #000000; stroke-width: 0.441107; stroke-linejoin: miter"/>
   </g>
   <g id="patch_40">
    <path d="M 289.287135 385.478125 
L 294.250994 385.478125 
L 294.250994 324.29888 
L 289.287135 324.29888 
z
" clip-path="url(#p4eec4ac637)" style="fill: #1f77b4; fill-opacity: 0.5; stroke: #000000; stroke-width: 0.441107; stroke-linejoin: miter"/>
   </g>
   <g id="patch_41">
    <path d="M 294.250994 385.478125 
L 299.214854 385.478125 
L 299.214854 337.350452 
L 294.250994 337.350452 
z
" clip-path="url(#p4eec4ac637)" style="fill: #1f77b4; fill-opacity: 0.5; stroke: #000000; stroke-width: 0.441107; stroke-linejoin: miter"/>
   </g>
   <g id="patch_42">
    <path d="M 299.214854 385.478125 
L 304.178713 385.478125 
L 304.178713 345.915546 
L 299.214854 345.915546 
z
" clip-path="url(#p4eec4ac637)" style="fill: #1f77b4; fill-opacity: 0.5; stroke: #000000; stroke-width: 0.441107; stroke-linejoin: miter"/>
   </g>
   <g id="patch_43">
    <path d="M 304.178713 385.478125 
L 309.142572 385.478125 
L 309.142572 352.441333 
L 304.178713 352.441333 
z
" clip-path="url(#p4eec4ac637)" style="fill: #1f77b4; fill-opacity: 0.5; stroke: #000000; stroke-width: 0.441107; stroke-linejoin: miter"/>
   </g>
   <g id="patch_44">
    <path d="M 309.142572 385.478125 
L 314.106431 385.478125 
L 314.106431 358.967119 
L 309.142572 358.967119 
z
" clip-path="url(#p4eec4ac637)" style="fill: #1f77b4; fill-opacity: 0.5; stroke: #000000; stroke-width: 0.441107; stroke-linejoin: miter"/>
   </g>
   <g id="patch_45">
    <path d="M 314.106431 385.478125 
L 319.07029 385.478125 
L 319.07029 359.37498 
L 314.106431 359.37498 
z
" clip-path="url(#p4eec4ac637)" style="fill: #1f77b4; fill-opacity: 0.5; stroke: #000000; stroke-width: 0.441107; stroke-linejoin: miter"/>
   </g>
   <g id="patch_46">
    <path d="M 319.07029 385.478125 
L 324.034149 385.478125 
L 324.034149 352.441333 
L 319.07029 352.441333 
z
" clip-path="url(#p4eec4ac637)" style="fill: #1f77b4; fill-opacity: 0.5; stroke: #000000; stroke-width: 0.441107; stroke-linejoin: miter"/>
   </g>
   <g id="patch_47">
    <path d="M 324.034149 385.478125 
L 328.998008 385.478125 
L 328.998008 374.465861 
L 324.034149 374.465861 
z
" clip-path="url(#p4eec4ac637)" style="fill: #1f77b4; fill-opacity: 0.5; stroke: #000000; stroke-width: 0.441107; stroke-linejoin: miter"/>
   </g>
   <g id="patch_48">
    <path d="M 328.998008 385.478125 
L 333.961867 385.478125 
L 333.961867 372.834414 
L 328.998008 372.834414 
z
" clip-path="url(#p4eec4ac637)" style="fill: #1f77b4; fill-opacity: 0.5; stroke: #000000; stroke-width: 0.441107; stroke-linejoin: miter"/>
   </g>
   <g id="patch_49">
    <path d="M 333.961867 385.478125 
L 338.925726 385.478125 
L 338.925726 375.281584 
L 333.961867 375.281584 
z
" clip-path="url(#p4eec4ac637)" style="fill: #1f77b4; fill-opacity: 0.5; stroke: #000000; stroke-width: 0.441107; stroke-linejoin: miter"/>
   </g>
   <g id="patch_50">
    <path d="M 338.925726 385.478125 
L 343.889585 385.478125 
L 343.889585 377.320892 
L 338.925726 377.320892 
z
" clip-path="url(#p4eec4ac637)" style="fill: #1f77b4; fill-opacity: 0.5; stroke: #000000; stroke-width: 0.441107; stroke-linejoin: miter"/>
   </g>
   <g id="patch_51">
    <path d="M 343.889585 385.478125 
L 348.853444 385.478125 
L 348.853444 379.768062 
L 343.889585 379.768062 
z
" clip-path="url(#p4eec4ac637)" style="fill: #1f77b4; fill-opacity: 0.5; stroke: #000000; stroke-width: 0.441107; stroke-linejoin: miter"/>
   </g>
   <g id="patch_52">
    <path d="M 348.853444 385.478125 
L 353.817303 385.478125 
L 353.817303 376.505169 
L 348.853444 376.505169 
z
" clip-path="url(#p4eec4ac637)" style="fill: #1f77b4; fill-opacity: 0.5; stroke: #000000; stroke-width: 0.441107; stroke-linejoin: miter"/>
   </g>
   <g id="patch_53">
    <path d="M 353.817303 385.478125 
L 358.781162 385.478125 
L 358.781162 369.16366 
L 353.817303 369.16366 
z
" clip-path="url(#p4eec4ac637)" style="fill: #1f77b4; fill-opacity: 0.5; stroke: #000000; stroke-width: 0.441107; stroke-linejoin: miter"/>
   </g>
   <g id="patch_54">
    <path d="M 358.781162 385.478125 
L 363.745021 385.478125 
L 363.745021 375.689446 
L 358.781162 375.689446 
z
" clip-path="url(#p4eec4ac637)" style="fill: #1f77b4; fill-opacity: 0.5; stroke: #000000; stroke-width: 0.441107; stroke-linejoin: miter"/>
   </g>
   <g id="patch_55">
    <path d="M 363.745021 385.478125 
L 368.70888 385.478125 
L 368.70888 382.623094 
L 363.745021 382.623094 
z
" clip-path="url(#p4eec4ac637)" style="fill: #1f77b4; fill-opacity: 0.5; stroke: #000000; stroke-width: 0.441107; stroke-linejoin: miter"/>
   </g>
   <g id="patch_56">
    <path d="M 368.70888 385.478125 
L 373.672739 385.478125 
L 373.672739 384.25454 
L 368.70888 384.25454 
z
" clip-path="url(#p4eec4ac637)" style="fill: #1f77b4; fill-opacity: 0.5; stroke: #000000; stroke-width: 0.441107; stroke-linejoin: miter"/>
   </g>
   <g id="patch_57">
    <path d="M 373.672739 385.478125 
L 378.636598 385.478125 
L 378.636598 383.030955 
L 373.672739 383.030955 
z
" clip-path="url(#p4eec4ac637)" style="fill: #1f77b4; fill-opacity: 0.5; stroke: #000000; stroke-width: 0.441107; stroke-linejoin: miter"/>
   </g>
   <g id="patch_58">
    <path d="M 378.636598 385.478125 
L 383.600457 385.478125 
L 383.600457 382.623094 
L 378.636598 382.623094 
z
" clip-path="url(#p4eec4ac637)" style="fill: #1f77b4; fill-opacity: 0.5; stroke: #000000; stroke-width: 0.441107; stroke-linejoin: miter"/>
   </g>
   <g id="patch_59">
    <path d="M 383.600457 385.478125 
L 388.564316 385.478125 
L 388.564316 384.25454 
L 383.600457 384.25454 
z
" clip-path="url(#p4eec4ac637)" style="fill: #1f77b4; fill-opacity: 0.5; stroke: #000000; stroke-width: 0.441107; stroke-linejoin: miter"/>
   </g>
   <g id="patch_60">
    <path d="M 388.564316 385.478125 
L 393.528175 385.478125 
L 393.528175 384.25454 
L 388.564316 384.25454 
z
" clip-path="url(#p4eec4ac637)" style="fill: #1f77b4; fill-opacity: 0.5; stroke: #000000; stroke-width: 0.441107; stroke-linejoin: miter"/>
   </g>
   <g id="patch_61">
    <path d="M 393.528175 385.478125 
L 398.492035 385.478125 
L 398.492035 383.846678 
L 393.528175 383.846678 
z
" clip-path="url(#p4eec4ac637)" style="fill: #1f77b4; fill-opacity: 0.5; stroke: #000000; stroke-width: 0.441107; stroke-linejoin: miter"/>
   </g>
   <g id="patch_62">
    <path d="M 398.492035 385.478125 
L 403.455894 385.478125 
L 403.455894 383.438817 
L 398.492035 383.438817 
z
" clip-path="url(#p4eec4ac637)" style="fill: #1f77b4; fill-opacity: 0.5; stroke: #000000; stroke-width: 0.441107; stroke-linejoin: miter"/>
   </g>
   <g id="patch_63">
    <path d="M 403.455894 385.478125 
L 408.419753 385.478125 
L 408.419753 378.952339 
L 403.455894 378.952339 
z
" clip-path="url(#p4eec4ac637)" style="fill: #1f77b4; fill-opacity: 0.5; stroke: #000000; stroke-width: 0.441107; stroke-linejoin: miter"/>
   </g>
   <g id="patch_64">
    <path d="M 408.419753 385.478125 
L 413.383612 385.478125 
L 413.383612 381.80737 
L 408.419753 381.80737 
z
" clip-path="url(#p4eec4ac637)" style="fill: #1f77b4; fill-opacity: 0.5; stroke: #000000; stroke-width: 0.441107; stroke-linejoin: miter"/>
   </g>
   <g id="patch_65">
    <path d="M 413.383612 385.478125 
L 418.347471 385.478125 
L 418.347471 385.070263 
L 413.383612 385.070263 
z
" clip-path="url(#p4eec4ac637)" style="fill: #1f77b4; fill-opacity: 0.5; stroke: #000000; stroke-width: 0.441107; stroke-linejoin: miter"/>
   </g>
   <g id="patch_66">
    <path d="M 418.347471 385.478125 
L 423.31133 385.478125 
L 423.31133 385.478125 
L 418.347471 385.478125 
z
" clip-path="url(#p4eec4ac637)" style="fill: #1f77b4; fill-opacity: 0.5; stroke: #000000; stroke-width: 0.441107; stroke-linejoin: miter"/>
   </g>
   <g id="patch_67">
    <path d="M 423.31133 385.478125 
L 428.275189 385.478125 
L 428.275189 385.070263 
L 423.31133 385.070263 
z
" clip-path="url(#p4eec4ac637)" style="fill: #1f77b4; fill-opacity: 0.5; stroke: #000000; stroke-width: 0.441107; stroke-linejoin: miter"/>
   </g>
   <g id="patch_68">
    <path d="M 428.275189 385.478125 
L 433.239048 385.478125 
L 433.239048 385.070263 
L 428.275189 385.070263 
z
" clip-path="url(#p4eec4ac637)" style="fill: #1f77b4; fill-opacity: 0.5; stroke: #000000; stroke-width: 0.441107; stroke-linejoin: miter"/>
   </g>
   <g id="patch_69">
    <path d="M 433.239048 385.478125 
L 438.202907 385.478125 
L 438.202907 385.478125 
L 433.239048 385.478125 
z
" clip-path="url(#p4eec4ac637)" style="fill: #1f77b4; fill-opacity: 0.5; stroke: #000000; stroke-width: 0.441107; stroke-linejoin: miter"/>
   </g>
   <g id="patch_70">
    <path d="M 438.202907 385.478125 
L 443.166766 385.478125 
L 443.166766 385.478125 
L 438.202907 385.478125 
z
" clip-path="url(#p4eec4ac637)" style="fill: #1f77b4; fill-opacity: 0.5; stroke: #000000; stroke-width: 0.441107; stroke-linejoin: miter"/>
   </g>
   <g id="patch_71">
    <path d="M 443.166766 385.478125 
L 448.130625 385.478125 
L 448.130625 385.478125 
L 443.166766 385.478125 
z
" clip-path="url(#p4eec4ac637)" style="fill: #1f77b4; fill-opacity: 0.5; stroke: #000000; stroke-width: 0.441107; stroke-linejoin: miter"/>
   </g>
   <g id="patch_72">
    <path d="M 448.130625 385.478125 
L 453.094484 385.478125 
L 453.094484 385.070263 
L 448.130625 385.070263 
z
" clip-path="url(#p4eec4ac637)" style="fill: #1f77b4; fill-opacity: 0.5; stroke: #000000; stroke-width: 0.441107; stroke-linejoin: miter"/>
   </g>
   <g id="patch_73">
    <path d="M 453.094484 385.478125 
L 458.058343 385.478125 
L 458.058343 385.070263 
L 453.094484 385.070263 
z
" clip-path="url(#p4eec4ac637)" style="fill: #1f77b4; fill-opacity: 0.5; stroke: #000000; stroke-width: 0.441107; stroke-linejoin: miter"/>
   </g>
   <g id="patch_74">
    <path d="M 458.058343 385.478125 
L 463.022202 385.478125 
L 463.022202 385.070263 
L 458.058343 385.070263 
z
" clip-path="url(#p4eec4ac637)" style="fill: #1f77b4; fill-opacity: 0.5; stroke: #000000; stroke-width: 0.441107; stroke-linejoin: miter"/>
   </g>
   <g id="patch_75">
    <path d="M 463.022202 385.478125 
L 467.986061 385.478125 
L 467.986061 384.662402 
L 463.022202 384.662402 
z
" clip-path="url(#p4eec4ac637)" style="fill: #1f77b4; fill-opacity: 0.5; stroke: #000000; stroke-width: 0.441107; stroke-linejoin: miter"/>
   </g>
   <g id="patch_76">
    <path d="M 467.986061 385.478125 
L 472.94992 385.478125 
L 472.94992 383.846678 
L 467.986061 383.846678 
z
" clip-path="url(#p4eec4ac637)" style="fill: #1f77b4; fill-opacity: 0.5; stroke: #000000; stroke-width: 0.441107; stroke-linejoin: miter"/>
   </g>
   <g id="patch_77">
    <path d="M 472.94992 385.478125 
L 477.913779 385.478125 
L 477.913779 383.030955 
L 472.94992 383.030955 
z
" clip-path="url(#p4eec4ac637)" style="fill: #1f77b4; fill-opacity: 0.5; stroke: #000000; stroke-width: 0.441107; stroke-linejoin: miter"/>
   </g>
   <g id="patch_78">
    <path d="M 477.913779 385.478125 
L 482.877638 385.478125 
L 482.877638 383.438817 
L 477.913779 383.438817 
z
" clip-path="url(#p4eec4ac637)" style="fill: #1f77b4; fill-opacity: 0.5; stroke: #000000; stroke-width: 0.441107; stroke-linejoin: miter"/>
   </g>
   <g id="patch_79">
    <path d="M 482.877638 385.478125 
L 487.841497 385.478125 
L 487.841497 383.846678 
L 482.877638 383.846678 
z
" clip-path="url(#p4eec4ac637)" style="fill: #1f77b4; fill-opacity: 0.5; stroke: #000000; stroke-width: 0.441107; stroke-linejoin: miter"/>
   </g>
   <g id="patch_80">
    <path d="M 487.841497 385.478125 
L 492.805356 385.478125 
L 492.805356 385.478125 
L 487.841497 385.478125 
z
" clip-path="url(#p4eec4ac637)" style="fill: #1f77b4; fill-opacity: 0.5; stroke: #000000; stroke-width: 0.441107; stroke-linejoin: miter"/>
   </g>
   <g id="patch_81">
    <path d="M 492.805356 385.478125 
L 497.769215 385.478125 
L 497.769215 385.478125 
L 492.805356 385.478125 
z
" clip-path="url(#p4eec4ac637)" style="fill: #1f77b4; fill-opacity: 0.5; stroke: #000000; stroke-width: 0.441107; stroke-linejoin: miter"/>
   </g>
   <g id="patch_82">
    <path d="M 497.769215 385.478125 
L 502.733075 385.478125 
L 502.733075 385.478125 
L 497.769215 385.478125 
z
" clip-path="url(#p4eec4ac637)" style="fill: #1f77b4; fill-opacity: 0.5; stroke: #000000; stroke-width: 0.441107; stroke-linejoin: miter"/>
   </g>
   <g id="patch_83">
    <path d="M 502.733075 385.478125 
L 507.696934 385.478125 
L 507.696934 385.070263 
L 502.733075 385.070263 
z
" clip-path="url(#p4eec4ac637)" style="fill: #1f77b4; fill-opacity: 0.5; stroke: #000000; stroke-width: 0.441107; stroke-linejoin: miter"/>
   </g>
   <g id="patch_84">
    <path d="M 507.696934 385.478125 
L 512.660793 385.478125 
L 512.660793 385.478125 
L 507.696934 385.478125 
z
" clip-path="url(#p4eec4ac637)" style="fill: #1f77b4; fill-opacity: 0.5; stroke: #000000; stroke-width: 0.441107; stroke-linejoin: miter"/>
   </g>
   <g id="patch_85">
    <path d="M 512.660793 385.478125 
L 517.624652 385.478125 
L 517.624652 385.478125 
L 512.660793 385.478125 
z
" clip-path="url(#p4eec4ac637)" style="fill: #1f77b4; fill-opacity: 0.5; stroke: #000000; stroke-width: 0.441107; stroke-linejoin: miter"/>
   </g>
   <g id="patch_86">
    <path d="M 517.624652 385.478125 
L 522.588511 385.478125 
L 522.588511 385.478125 
L 517.624652 385.478125 
z
" clip-path="url(#p4eec4ac637)" style="fill: #1f77b4; fill-opacity: 0.5; stroke: #000000; stroke-width: 0.441107; stroke-linejoin: miter"/>
   </g>
   <g id="patch_87">
    <path d="M 522.588511 385.478125 
L 527.55237 385.478125 
L 527.55237 385.478125 
L 522.588511 385.478125 
z
" clip-path="url(#p4eec4ac637)" style="fill: #1f77b4; fill-opacity: 0.5; stroke: #000000; stroke-width: 0.441107; stroke-linejoin: miter"/>
   </g>
   <g id="patch_88">
    <path d="M 527.55237 385.478125 
L 532.516229 385.478125 
L 532.516229 385.478125 
L 527.55237 385.478125 
z
" clip-path="url(#p4eec4ac637)" style="fill: #1f77b4; fill-opacity: 0.5; stroke: #000000; stroke-width: 0.441107; stroke-linejoin: miter"/>
   </g>
   <g id="patch_89">
    <path d="M 532.516229 385.478125 
L 537.480088 385.478125 
L 537.480088 385.478125 
L 532.516229 385.478125 
z
" clip-path="url(#p4eec4ac637)" style="fill: #1f77b4; fill-opacity: 0.5; stroke: #000000; stroke-width: 0.441107; stroke-linejoin: miter"/>
   </g>
   <g id="patch_90">
    <path d="M 537.480088 385.478125 
L 542.443947 385.478125 
L 542.443947 385.478125 
L 537.480088 385.478125 
z
" clip-path="url(#p4eec4ac637)" style="fill: #1f77b4; fill-opacity: 0.5; stroke: #000000; stroke-width: 0.441107; stroke-linejoin: miter"/>
   </g>
   <g id="patch_91">
    <path d="M 542.443947 385.478125 
L 547.407806 385.478125 
L 547.407806 385.478125 
L 542.443947 385.478125 
z
" clip-path="url(#p4eec4ac637)" style="fill: #1f77b4; fill-opacity: 0.5; stroke: #000000; stroke-width: 0.441107; stroke-linejoin: miter"/>
   </g>
   <g id="patch_92">
    <path d="M 547.407806 385.478125 
L 552.371665 385.478125 
L 552.371665 385.478125 
L 547.407806 385.478125 
z
" clip-path="url(#p4eec4ac637)" style="fill: #1f77b4; fill-opacity: 0.5; stroke: #000000; stroke-width: 0.441107; stroke-linejoin: miter"/>
   </g>
   <g id="patch_93">
    <path d="M 552.371665 385.478125 
L 557.335524 385.478125 
L 557.335524 385.478125 
L 552.371665 385.478125 
z
" clip-path="url(#p4eec4ac637)" style="fill: #1f77b4; fill-opacity: 0.5; stroke: #000000; stroke-width: 0.441107; stroke-linejoin: miter"/>
   </g>
   <g id="patch_94">
    <path d="M 557.335524 385.478125 
L 562.299383 385.478125 
L 562.299383 385.478125 
L 557.335524 385.478125 
z
" clip-path="url(#p4eec4ac637)" style="fill: #1f77b4; fill-opacity: 0.5; stroke: #000000; stroke-width: 0.441107; stroke-linejoin: miter"/>
   </g>
   <g id="patch_95">
    <path d="M 562.299383 385.478125 
L 567.263242 385.478125 
L 567.263242 385.478125 
L 562.299383 385.478125 
z
" clip-path="url(#p4eec4ac637)" style="fill: #1f77b4; fill-opacity: 0.5; stroke: #000000; stroke-width: 0.441107; stroke-linejoin: miter"/>
   </g>
   <g id="patch_96">
    <path d="M 567.263242 385.478125 
L 572.227101 385.478125 
L 572.227101 385.478125 
L 567.263242 385.478125 
z
" clip-path="url(#p4eec4ac637)" style="fill: #1f77b4; fill-opacity: 0.5; stroke: #000000; stroke-width: 0.441107; stroke-linejoin: miter"/>
   </g>
   <g id="patch_97">
    <path d="M 572.227101 385.478125 
L 577.19096 385.478125 
L 577.19096 385.478125 
L 572.227101 385.478125 
z
" clip-path="url(#p4eec4ac637)" style="fill: #1f77b4; fill-opacity: 0.5; stroke: #000000; stroke-width: 0.441107; stroke-linejoin: miter"/>
   </g>
   <g id="patch_98">
    <path d="M 577.19096 385.478125 
L 582.154819 385.478125 
L 582.154819 384.662402 
L 577.19096 384.662402 
z
" clip-path="url(#p4eec4ac637)" style="fill: #1f77b4; fill-opacity: 0.5; stroke: #000000; stroke-width: 0.441107; stroke-linejoin: miter"/>
   </g>
   <g id="patch_99">
    <path d="M 582.154819 385.478125 
L 587.118678 385.478125 
L 587.118678 384.25454 
L 582.154819 384.25454 
z
" clip-path="url(#p4eec4ac637)" style="fill: #1f77b4; fill-opacity: 0.5; stroke: #000000; stroke-width: 0.441107; stroke-linejoin: miter"/>
   </g>
   <g id="patch_100">
    <path d="M 587.118678 385.478125 
L 592.082537 385.478125 
L 592.082537 384.662402 
L 587.118678 384.662402 
z
" clip-path="url(#p4eec4ac637)" style="fill: #1f77b4; fill-opacity: 0.5; stroke: #000000; stroke-width: 0.441107; stroke-linejoin: miter"/>
   </g>
   <g id="patch_101">
    <path d="M 592.082537 385.478125 
L 597.046396 385.478125 
L 597.046396 385.070263 
L 592.082537 385.070263 
z
" clip-path="url(#p4eec4ac637)" style="fill: #1f77b4; fill-opacity: 0.5; stroke: #000000; stroke-width: 0.441107; stroke-linejoin: miter"/>
   </g>
   <g id="patch_102">
    <path d="M 597.046396 385.478125 
L 602.010256 385.478125 
L 602.010256 385.478125 
L 597.046396 385.478125 
z
" clip-path="url(#p4eec4ac637)" style="fill: #1f77b4; fill-opacity: 0.5; stroke: #000000; stroke-width: 0.441107; stroke-linejoin: miter"/>
   </g>
   <g id="patch_103">
    <path d="M 602.010256 385.478125 
L 606.974115 385.478125 
L 606.974115 385.478125 
L 602.010256 385.478125 
z
" clip-path="url(#p4eec4ac637)" style="fill: #1f77b4; fill-opacity: 0.5; stroke: #000000; stroke-width: 0.441107; stroke-linejoin: miter"/>
   </g>
   <g id="patch_104">
    <path d="M 606.974115 385.478125 
L 611.937974 385.478125 
L 611.937974 385.478125 
L 606.974115 385.478125 
z
" clip-path="url(#p4eec4ac637)" style="fill: #1f77b4; fill-opacity: 0.5; stroke: #000000; stroke-width: 0.441107; stroke-linejoin: miter"/>
   </g>
   <g id="patch_105">
    <path d="M 611.937974 385.478125 
L 616.901833 385.478125 
L 616.901833 385.478125 
L 611.937974 385.478125 
z
" clip-path="url(#p4eec4ac637)" style="fill: #1f77b4; fill-opacity: 0.5; stroke: #000000; stroke-width: 0.441107; stroke-linejoin: miter"/>
   </g>
   <g id="patch_106">
    <path d="M 616.901833 385.478125 
L 621.865692 385.478125 
L 621.865692 385.478125 
L 616.901833 385.478125 
z
" clip-path="url(#p4eec4ac637)" style="fill: #1f77b4; fill-opacity: 0.5; stroke: #000000; stroke-width: 0.441107; stroke-linejoin: miter"/>
   </g>
   <g id="patch_107">
    <path d="M 621.865692 385.478125 
L 626.829551 385.478125 
L 626.829551 385.478125 
L 621.865692 385.478125 
z
" clip-path="url(#p4eec4ac637)" style="fill: #1f77b4; fill-opacity: 0.5; stroke: #000000; stroke-width: 0.441107; stroke-linejoin: miter"/>
   </g>
   <g id="patch_108">
    <path d="M 626.829551 385.478125 
L 631.79341 385.478125 
L 631.79341 385.478125 
L 626.829551 385.478125 
z
" clip-path="url(#p4eec4ac637)" style="fill: #1f77b4; fill-opacity: 0.5; stroke: #000000; stroke-width: 0.441107; stroke-linejoin: miter"/>
   </g>
   <g id="patch_109">
    <path d="M 631.79341 385.478125 
L 636.757269 385.478125 
L 636.757269 385.478125 
L 631.79341 385.478125 
z
" clip-path="url(#p4eec4ac637)" style="fill: #1f77b4; fill-opacity: 0.5; stroke: #000000; stroke-width: 0.441107; stroke-linejoin: miter"/>
   </g>
   <g id="patch_110">
    <path d="M 636.757269 385.478125 
L 641.721128 385.478125 
L 641.721128 385.478125 
L 636.757269 385.478125 
z
" clip-path="url(#p4eec4ac637)" style="fill: #1f77b4; fill-opacity: 0.5; stroke: #000000; stroke-width: 0.441107; stroke-linejoin: miter"/>
   </g>
   <g id="patch_111">
    <path d="M 641.721128 385.478125 
L 646.684987 385.478125 
L 646.684987 385.478125 
L 641.721128 385.478125 
z
" clip-path="url(#p4eec4ac637)" style="fill: #1f77b4; fill-opacity: 0.5; stroke: #000000; stroke-width: 0.441107; stroke-linejoin: miter"/>
   </g>
   <g id="patch_112">
    <path d="M 646.684987 385.478125 
L 651.648846 385.478125 
L 651.648846 385.478125 
L 646.684987 385.478125 
z
" clip-path="url(#p4eec4ac637)" style="fill: #1f77b4; fill-opacity: 0.5; stroke: #000000; stroke-width: 0.441107; stroke-linejoin: miter"/>
   </g>
   <g id="patch_113">
    <path d="M 651.648846 385.478125 
L 656.612705 385.478125 
L 656.612705 385.478125 
L 651.648846 385.478125 
z
" clip-path="url(#p4eec4ac637)" style="fill: #1f77b4; fill-opacity: 0.5; stroke: #000000; stroke-width: 0.441107; stroke-linejoin: miter"/>
   </g>
   <g id="patch_114">
    <path d="M 656.612705 385.478125 
L 661.576564 385.478125 
L 661.576564 385.478125 
L 656.612705 385.478125 
z
" clip-path="url(#p4eec4ac637)" style="fill: #1f77b4; fill-opacity: 0.5; stroke: #000000; stroke-width: 0.441107; stroke-linejoin: miter"/>
   </g>
   <g id="patch_115">
    <path d="M 661.576564 385.478125 
L 666.540423 385.478125 
L 666.540423 385.478125 
L 661.576564 385.478125 
z
" clip-path="url(#p4eec4ac637)" style="fill: #1f77b4; fill-opacity: 0.5; stroke: #000000; stroke-width: 0.441107; stroke-linejoin: miter"/>
   </g>
   <g id="patch_116">
    <path d="M 666.540423 385.478125 
L 671.504282 385.478125 
L 671.504282 385.478125 
L 666.540423 385.478125 
z
" clip-path="url(#p4eec4ac637)" style="fill: #1f77b4; fill-opacity: 0.5; stroke: #000000; stroke-width: 0.441107; stroke-linejoin: miter"/>
   </g>
   <g id="patch_117">
    <path d="M 671.504282 385.478125 
L 676.468141 385.478125 
L 676.468141 385.478125 
L 671.504282 385.478125 
z
" clip-path="url(#p4eec4ac637)" style="fill: #1f77b4; fill-opacity: 0.5; stroke: #000000; stroke-width: 0.441107; stroke-linejoin: miter"/>
   </g>
   <g id="patch_118">
    <path d="M 676.468141 385.478125 
L 681.432 385.478125 
L 681.432 385.478125 
L 676.468141 385.478125 
z
" clip-path="url(#p4eec4ac637)" style="fill: #1f77b4; fill-opacity: 0.5; stroke: #000000; stroke-width: 0.441107; stroke-linejoin: miter"/>
   </g>
   <g id="patch_119">
    <path d="M 681.432 385.478125 
L 686.395859 385.478125 
L 686.395859 385.478125 
L 681.432 385.478125 
z
" clip-path="url(#p4eec4ac637)" style="fill: #1f77b4; fill-opacity: 0.5; stroke: #000000; stroke-width: 0.441107; stroke-linejoin: miter"/>
   </g>
   <g id="patch_120">
    <path d="M 686.395859 385.478125 
L 691.359718 385.478125 
L 691.359718 385.478125 
L 686.395859 385.478125 
z
" clip-path="url(#p4eec4ac637)" style="fill: #1f77b4; fill-opacity: 0.5; stroke: #000000; stroke-width: 0.441107; stroke-linejoin: miter"/>
   </g>
   <g id="patch_121">
    <path d="M 691.359718 385.478125 
L 696.323577 385.478125 
L 696.323577 385.478125 
L 691.359718 385.478125 
z
" clip-path="url(#p4eec4ac637)" style="fill: #1f77b4; fill-opacity: 0.5; stroke: #000000; stroke-width: 0.441107; stroke-linejoin: miter"/>
   </g>
   <g id="patch_122">
    <path d="M 696.323577 385.478125 
L 701.287437 385.478125 
L 701.287437 385.478125 
L 696.323577 385.478125 
z
" clip-path="url(#p4eec4ac637)" style="fill: #1f77b4; fill-opacity: 0.5; stroke: #000000; stroke-width: 0.441107; stroke-linejoin: miter"/>
   </g>
   <g id="patch_123">
    <path d="M 701.287437 385.478125 
L 706.251296 385.478125 
L 706.251296 385.478125 
L 701.287437 385.478125 
z
" clip-path="url(#p4eec4ac637)" style="fill: #1f77b4; fill-opacity: 0.5; stroke: #000000; stroke-width: 0.441107; stroke-linejoin: miter"/>
   </g>
   <g id="patch_124">
    <path d="M 706.251296 385.478125 
L 711.215155 385.478125 
L 711.215155 385.478125 
L 706.251296 385.478125 
z
" clip-path="url(#p4eec4ac637)" style="fill: #1f77b4; fill-opacity: 0.5; stroke: #000000; stroke-width: 0.441107; stroke-linejoin: miter"/>
   </g>
   <g id="patch_125">
    <path d="M 711.215155 385.478125 
L 716.179014 385.478125 
L 716.179014 385.478125 
L 711.215155 385.478125 
z
" clip-path="url(#p4eec4ac637)" style="fill: #1f77b4; fill-opacity: 0.5; stroke: #000000; stroke-width: 0.441107; stroke-linejoin: miter"/>
   </g>
   <g id="patch_126">
    <path d="M 716.179014 385.478125 
L 721.142873 385.478125 
L 721.142873 385.478125 
L 716.179014 385.478125 
z
" clip-path="url(#p4eec4ac637)" style="fill: #1f77b4; fill-opacity: 0.5; stroke: #000000; stroke-width: 0.441107; stroke-linejoin: miter"/>
   </g>
   <g id="patch_127">
    <path d="M 721.142873 385.478125 
L 726.106732 385.478125 
L 726.106732 385.478125 
L 721.142873 385.478125 
z
" clip-path="url(#p4eec4ac637)" style="fill: #1f77b4; fill-opacity: 0.5; stroke: #000000; stroke-width: 0.441107; stroke-linejoin: miter"/>
   </g>
   <g id="patch_128">
    <path d="M 726.106732 385.478125 
L 731.070591 385.478125 
L 731.070591 385.478125 
L 726.106732 385.478125 
z
" clip-path="url(#p4eec4ac637)" style="fill: #1f77b4; fill-opacity: 0.5; stroke: #000000; stroke-width: 0.441107; stroke-linejoin: miter"/>
   </g>
   <g id="patch_129">
    <path d="M 731.070591 385.478125 
L 736.03445 385.478125 
L 736.03445 385.478125 
L 731.070591 385.478125 
z
" clip-path="url(#p4eec4ac637)" style="fill: #1f77b4; fill-opacity: 0.5; stroke: #000000; stroke-width: 0.441107; stroke-linejoin: miter"/>
   </g>
   <g id="patch_130">
    <path d="M 736.03445 385.478125 
L 740.998309 385.478125 
L 740.998309 385.478125 
L 736.03445 385.478125 
z
" clip-path="url(#p4eec4ac637)" style="fill: #1f77b4; fill-opacity: 0.5; stroke: #000000; stroke-width: 0.441107; stroke-linejoin: miter"/>
   </g>
   <g id="patch_131">
    <path d="M 740.998309 385.478125 
L 745.962168 385.478125 
L 745.962168 385.478125 
L 740.998309 385.478125 
z
" clip-path="url(#p4eec4ac637)" style="fill: #1f77b4; fill-opacity: 0.5; stroke: #000000; stroke-width: 0.441107; stroke-linejoin: miter"/>
   </g>
   <g id="patch_132">
    <path d="M 745.962168 385.478125 
L 750.926027 385.478125 
L 750.926027 385.478125 
L 745.962168 385.478125 
z
" clip-path="url(#p4eec4ac637)" style="fill: #1f77b4; fill-opacity: 0.5; stroke: #000000; stroke-width: 0.441107; stroke-linejoin: miter"/>
   </g>
   <g id="patch_133">
    <path d="M 750.926027 385.478125 
L 755.889886 385.478125 
L 755.889886 385.478125 
L 750.926027 385.478125 
z
" clip-path="url(#p4eec4ac637)" style="fill: #1f77b4; fill-opacity: 0.5; stroke: #000000; stroke-width: 0.441107; stroke-linejoin: miter"/>
   </g>
   <g id="patch_134">
    <path d="M 755.889886 385.478125 
L 760.853745 385.478125 
L 760.853745 385.478125 
L 755.889886 385.478125 
z
" clip-path="url(#p4eec4ac637)" style="fill: #1f77b4; fill-opacity: 0.5; stroke: #000000; stroke-width: 0.441107; stroke-linejoin: miter"/>
   </g>
   <g id="patch_135">
    <path d="M 760.853745 385.478125 
L 765.817604 385.478125 
L 765.817604 385.478125 
L 760.853745 385.478125 
z
" clip-path="url(#p4eec4ac637)" style="fill: #1f77b4; fill-opacity: 0.5; stroke: #000000; stroke-width: 0.441107; stroke-linejoin: miter"/>
   </g>
   <g id="patch_136">
    <path d="M 765.817604 385.478125 
L 770.781463 385.478125 
L 770.781463 385.478125 
L 765.817604 385.478125 
z
" clip-path="url(#p4eec4ac637)" style="fill: #1f77b4; fill-opacity: 0.5; stroke: #000000; stroke-width: 0.441107; stroke-linejoin: miter"/>
   </g>
   <g id="patch_137">
    <path d="M 770.781463 385.478125 
L 775.745322 385.478125 
L 775.745322 385.478125 
L 770.781463 385.478125 
z
" clip-path="url(#p4eec4ac637)" style="fill: #1f77b4; fill-opacity: 0.5; stroke: #000000; stroke-width: 0.441107; stroke-linejoin: miter"/>
   </g>
   <g id="patch_138">
    <path d="M 775.745322 385.478125 
L 780.709181 385.478125 
L 780.709181 385.478125 
L 775.745322 385.478125 
z
" clip-path="url(#p4eec4ac637)" style="fill: #1f77b4; fill-opacity: 0.5; stroke: #000000; stroke-width: 0.441107; stroke-linejoin: miter"/>
   </g>
   <g id="patch_139">
    <path d="M 780.709181 385.478125 
L 785.67304 385.478125 
L 785.67304 385.070263 
L 780.709181 385.070263 
z
" clip-path="url(#p4eec4ac637)" style="fill: #1f77b4; fill-opacity: 0.5; stroke: #000000; stroke-width: 0.441107; stroke-linejoin: miter"/>
   </g>
   <g id="patch_140">
    <path d="M 785.67304 385.478125 
L 790.636899 385.478125 
L 790.636899 385.070263 
L 785.67304 385.070263 
z
" clip-path="url(#p4eec4ac637)" style="fill: #1f77b4; fill-opacity: 0.5; stroke: #000000; stroke-width: 0.441107; stroke-linejoin: miter"/>
   </g>
   <g id="matplotlib.axis_1">
    <g id="xtick_1">
     <g id="line2d_1">
      <defs>
       <path id="mad658c05f0" d="M 0 0 
L 0 3.5 
" style="stroke: #000000; stroke-width: 0.8"/>
      </defs>
      <g>
       <use xlink:href="#mad658c05f0" x="101.910888" y="385.478125" style="stroke: #000000; stroke-width: 0.8"/>
      </g>
     </g>
     <g id="text_1">
      <!-- 0 -->
      <g transform="translate(98.729638 400.076562) scale(0.1 -0.1)">
       <defs>
        <path id="DejaVuSans-30" d="M 2034 4250 
Q 1547 4250 1301 3770 
Q 1056 3291 1056 2328 
Q 1056 1369 1301 889 
Q 1547 409 2034 409 
Q 2525 409 2770 889 
Q 3016 1369 3016 2328 
Q 3016 3291 2770 3770 
Q 2525 4250 2034 4250 
z
M 2034 4750 
Q 2819 4750 3233 4129 
Q 3647 3509 3647 2328 
Q 3647 1150 3233 529 
Q 2819 -91 2034 -91 
Q 1250 -91 836 529 
Q 422 1150 422 2328 
Q 422 3509 836 4129 
Q 1250 4750 2034 4750 
z
" transform="scale(0.015625)"/>
       </defs>
       <use xlink:href="#DejaVuSans-30"/>
      </g>
     </g>
    </g>
    <g id="xtick_2">
     <g id="line2d_2">
      <g>
       <use xlink:href="#mad658c05f0" x="267.851156" y="385.478125" style="stroke: #000000; stroke-width: 0.8"/>
      </g>
     </g>
     <g id="text_2">
      <!-- 100 -->
      <g transform="translate(258.307406 400.076562) scale(0.1 -0.1)">
       <defs>
        <path id="DejaVuSans-31" d="M 794 531 
L 1825 531 
L 1825 4091 
L 703 3866 
L 703 4441 
L 1819 4666 
L 2450 4666 
L 2450 531 
L 3481 531 
L 3481 0 
L 794 0 
L 794 531 
z
" transform="scale(0.015625)"/>
       </defs>
       <use xlink:href="#DejaVuSans-31"/>
       <use xlink:href="#DejaVuSans-30" x="63.623047"/>
       <use xlink:href="#DejaVuSans-30" x="127.246094"/>
      </g>
     </g>
    </g>
    <g id="xtick_3">
     <g id="line2d_3">
      <g>
       <use xlink:href="#mad658c05f0" x="433.791425" y="385.478125" style="stroke: #000000; stroke-width: 0.8"/>
      </g>
     </g>
     <g id="text_3">
      <!-- 200 -->
      <g transform="translate(424.247675 400.076562) scale(0.1 -0.1)">
       <defs>
        <path id="DejaVuSans-32" d="M 1228 531 
L 3431 531 
L 3431 0 
L 469 0 
L 469 531 
Q 828 903 1448 1529 
Q 2069 2156 2228 2338 
Q 2531 2678 2651 2914 
Q 2772 3150 2772 3378 
Q 2772 3750 2511 3984 
Q 2250 4219 1831 4219 
Q 1534 4219 1204 4116 
Q 875 4013 500 3803 
L 500 4441 
Q 881 4594 1212 4672 
Q 1544 4750 1819 4750 
Q 2544 4750 2975 4387 
Q 3406 4025 3406 3419 
Q 3406 3131 3298 2873 
Q 3191 2616 2906 2266 
Q 2828 2175 2409 1742 
Q 1991 1309 1228 531 
z
" transform="scale(0.015625)"/>
       </defs>
       <use xlink:href="#DejaVuSans-32"/>
       <use xlink:href="#DejaVuSans-30" x="63.623047"/>
       <use xlink:href="#DejaVuSans-30" x="127.246094"/>
      </g>
     </g>
    </g>
    <g id="xtick_4">
     <g id="line2d_4">
      <g>
       <use xlink:href="#mad658c05f0" x="599.731693" y="385.478125" style="stroke: #000000; stroke-width: 0.8"/>
      </g>
     </g>
     <g id="text_4">
      <!-- 300 -->
      <g transform="translate(590.187943 400.076562) scale(0.1 -0.1)">
       <defs>
        <path id="DejaVuSans-33" d="M 2597 2516 
Q 3050 2419 3304 2112 
Q 3559 1806 3559 1356 
Q 3559 666 3084 287 
Q 2609 -91 1734 -91 
Q 1441 -91 1130 -33 
Q 819 25 488 141 
L 488 750 
Q 750 597 1062 519 
Q 1375 441 1716 441 
Q 2309 441 2620 675 
Q 2931 909 2931 1356 
Q 2931 1769 2642 2001 
Q 2353 2234 1838 2234 
L 1294 2234 
L 1294 2753 
L 1863 2753 
Q 2328 2753 2575 2939 
Q 2822 3125 2822 3475 
Q 2822 3834 2567 4026 
Q 2313 4219 1838 4219 
Q 1578 4219 1281 4162 
Q 984 4106 628 3988 
L 628 4550 
Q 988 4650 1302 4700 
Q 1616 4750 1894 4750 
Q 2613 4750 3031 4423 
Q 3450 4097 3450 3541 
Q 3450 3153 3228 2886 
Q 3006 2619 2597 2516 
z
" transform="scale(0.015625)"/>
       </defs>
       <use xlink:href="#DejaVuSans-33"/>
       <use xlink:href="#DejaVuSans-30" x="63.623047"/>
       <use xlink:href="#DejaVuSans-30" x="127.246094"/>
      </g>
     </g>
    </g>
    <g id="xtick_5">
     <g id="line2d_5">
      <g>
       <use xlink:href="#mad658c05f0" x="765.671961" y="385.478125" style="stroke: #000000; stroke-width: 0.8"/>
      </g>
     </g>
     <g id="text_5">
      <!-- 400 -->
      <g transform="translate(756.128211 400.076562) scale(0.1 -0.1)">
       <defs>
        <path id="DejaVuSans-34" d="M 2419 4116 
L 825 1625 
L 2419 1625 
L 2419 4116 
z
M 2253 4666 
L 3047 4666 
L 3047 1625 
L 3713 1625 
L 3713 1100 
L 3047 1100 
L 3047 0 
L 2419 0 
L 2419 1100 
L 313 1100 
L 313 1709 
L 2253 4666 
z
" transform="scale(0.015625)"/>
       </defs>
       <use xlink:href="#DejaVuSans-34"/>
       <use xlink:href="#DejaVuSans-30" x="63.623047"/>
       <use xlink:href="#DejaVuSans-30" x="127.246094"/>
      </g>
     </g>
    </g>
    <g id="text_6">
     <!-- GFR -->
     <g transform="translate(437.906406 413.754687) scale(0.1 -0.1)">
      <defs>
       <path id="DejaVuSans-47" d="M 3809 666 
L 3809 1919 
L 2778 1919 
L 2778 2438 
L 4434 2438 
L 4434 434 
Q 4069 175 3628 42 
Q 3188 -91 2688 -91 
Q 1594 -91 976 548 
Q 359 1188 359 2328 
Q 359 3472 976 4111 
Q 1594 4750 2688 4750 
Q 3144 4750 3555 4637 
Q 3966 4525 4313 4306 
L 4313 3634 
Q 3963 3931 3569 4081 
Q 3175 4231 2741 4231 
Q 1884 4231 1454 3753 
Q 1025 3275 1025 2328 
Q 1025 1384 1454 906 
Q 1884 428 2741 428 
Q 3075 428 3337 486 
Q 3600 544 3809 666 
z
" transform="scale(0.015625)"/>
       <path id="DejaVuSans-46" d="M 628 4666 
L 3309 4666 
L 3309 4134 
L 1259 4134 
L 1259 2759 
L 3109 2759 
L 3109 2228 
L 1259 2228 
L 1259 0 
L 628 0 
L 628 4666 
z
" transform="scale(0.015625)"/>
       <path id="DejaVuSans-52" d="M 2841 2188 
Q 3044 2119 3236 1894 
Q 3428 1669 3622 1275 
L 4263 0 
L 3584 0 
L 2988 1197 
Q 2756 1666 2539 1819 
Q 2322 1972 1947 1972 
L 1259 1972 
L 1259 0 
L 628 0 
L 628 4666 
L 2053 4666 
Q 2853 4666 3247 4331 
Q 3641 3997 3641 3322 
Q 3641 2881 3436 2590 
Q 3231 2300 2841 2188 
z
M 1259 4147 
L 1259 2491 
L 2053 2491 
Q 2509 2491 2742 2702 
Q 2975 2913 2975 3322 
Q 2975 3731 2742 3939 
Q 2509 4147 2053 4147 
L 1259 4147 
z
" transform="scale(0.015625)"/>
      </defs>
      <use xlink:href="#DejaVuSans-47"/>
      <use xlink:href="#DejaVuSans-46" x="77.490234"/>
      <use xlink:href="#DejaVuSans-52" x="135.009766"/>
     </g>
    </g>
   </g>
   <g id="matplotlib.axis_2">
    <g id="ytick_1">
     <g id="line2d_6">
      <defs>
       <path id="mdb9e218403" d="M 0 0 
L -3.5 0 
" style="stroke: #000000; stroke-width: 0.8"/>
      </defs>
      <g>
       <use xlink:href="#mdb9e218403" x="46.965625" y="385.478125" style="stroke: #000000; stroke-width: 0.8"/>
      </g>
     </g>
     <g id="text_7">
      <!-- 0 -->
      <g transform="translate(33.603125 389.277344) scale(0.1 -0.1)">
       <use xlink:href="#DejaVuSans-30"/>
      </g>
     </g>
    </g>
    <g id="ytick_2">
     <g id="line2d_7">
      <g>
       <use xlink:href="#mdb9e218403" x="46.965625" y="344.691961" style="stroke: #000000; stroke-width: 0.8"/>
      </g>
     </g>
     <g id="text_8">
      <!-- 100 -->
      <g transform="translate(20.878125 348.49118) scale(0.1 -0.1)">
       <use xlink:href="#DejaVuSans-31"/>
       <use xlink:href="#DejaVuSans-30" x="63.623047"/>
       <use xlink:href="#DejaVuSans-30" x="127.246094"/>
      </g>
     </g>
    </g>
    <g id="ytick_3">
     <g id="line2d_8">
      <g>
       <use xlink:href="#mdb9e218403" x="46.965625" y="303.905798" style="stroke: #000000; stroke-width: 0.8"/>
      </g>
     </g>
     <g id="text_9">
      <!-- 200 -->
      <g transform="translate(20.878125 307.705017) scale(0.1 -0.1)">
       <use xlink:href="#DejaVuSans-32"/>
       <use xlink:href="#DejaVuSans-30" x="63.623047"/>
       <use xlink:href="#DejaVuSans-30" x="127.246094"/>
      </g>
     </g>
    </g>
    <g id="ytick_4">
     <g id="line2d_9">
      <g>
       <use xlink:href="#mdb9e218403" x="46.965625" y="263.119634" style="stroke: #000000; stroke-width: 0.8"/>
      </g>
     </g>
     <g id="text_10">
      <!-- 300 -->
      <g transform="translate(20.878125 266.918853) scale(0.1 -0.1)">
       <use xlink:href="#DejaVuSans-33"/>
       <use xlink:href="#DejaVuSans-30" x="63.623047"/>
       <use xlink:href="#DejaVuSans-30" x="127.246094"/>
      </g>
     </g>
    </g>
    <g id="ytick_5">
     <g id="line2d_10">
      <g>
       <use xlink:href="#mdb9e218403" x="46.965625" y="222.333471" style="stroke: #000000; stroke-width: 0.8"/>
      </g>
     </g>
     <g id="text_11">
      <!-- 400 -->
      <g transform="translate(20.878125 226.13269) scale(0.1 -0.1)">
       <use xlink:href="#DejaVuSans-34"/>
       <use xlink:href="#DejaVuSans-30" x="63.623047"/>
       <use xlink:href="#DejaVuSans-30" x="127.246094"/>
      </g>
     </g>
    </g>
    <g id="ytick_6">
     <g id="line2d_11">
      <g>
       <use xlink:href="#mdb9e218403" x="46.965625" y="181.547307" style="stroke: #000000; stroke-width: 0.8"/>
      </g>
     </g>
     <g id="text_12">
      <!-- 500 -->
      <g transform="translate(20.878125 185.346526) scale(0.1 -0.1)">
       <defs>
        <path id="DejaVuSans-35" d="M 691 4666 
L 3169 4666 
L 3169 4134 
L 1269 4134 
L 1269 2991 
Q 1406 3038 1543 3061 
Q 1681 3084 1819 3084 
Q 2600 3084 3056 2656 
Q 3513 2228 3513 1497 
Q 3513 744 3044 326 
Q 2575 -91 1722 -91 
Q 1428 -91 1123 -41 
Q 819 9 494 109 
L 494 744 
Q 775 591 1075 516 
Q 1375 441 1709 441 
Q 2250 441 2565 725 
Q 2881 1009 2881 1497 
Q 2881 1984 2565 2268 
Q 2250 2553 1709 2553 
Q 1456 2553 1204 2497 
Q 953 2441 691 2322 
L 691 4666 
z
" transform="scale(0.015625)"/>
       </defs>
       <use xlink:href="#DejaVuSans-35"/>
       <use xlink:href="#DejaVuSans-30" x="63.623047"/>
       <use xlink:href="#DejaVuSans-30" x="127.246094"/>
      </g>
     </g>
    </g>
    <g id="ytick_7">
     <g id="line2d_12">
      <g>
       <use xlink:href="#mdb9e218403" x="46.965625" y="140.761144" style="stroke: #000000; stroke-width: 0.8"/>
      </g>
     </g>
     <g id="text_13">
      <!-- 600 -->
      <g transform="translate(20.878125 144.560363) scale(0.1 -0.1)">
       <defs>
        <path id="DejaVuSans-36" d="M 2113 2584 
Q 1688 2584 1439 2293 
Q 1191 2003 1191 1497 
Q 1191 994 1439 701 
Q 1688 409 2113 409 
Q 2538 409 2786 701 
Q 3034 994 3034 1497 
Q 3034 2003 2786 2293 
Q 2538 2584 2113 2584 
z
M 3366 4563 
L 3366 3988 
Q 3128 4100 2886 4159 
Q 2644 4219 2406 4219 
Q 1781 4219 1451 3797 
Q 1122 3375 1075 2522 
Q 1259 2794 1537 2939 
Q 1816 3084 2150 3084 
Q 2853 3084 3261 2657 
Q 3669 2231 3669 1497 
Q 3669 778 3244 343 
Q 2819 -91 2113 -91 
Q 1303 -91 875 529 
Q 447 1150 447 2328 
Q 447 3434 972 4092 
Q 1497 4750 2381 4750 
Q 2619 4750 2861 4703 
Q 3103 4656 3366 4563 
z
" transform="scale(0.015625)"/>
       </defs>
       <use xlink:href="#DejaVuSans-36"/>
       <use xlink:href="#DejaVuSans-30" x="63.623047"/>
       <use xlink:href="#DejaVuSans-30" x="127.246094"/>
      </g>
     </g>
    </g>
    <g id="ytick_8">
     <g id="line2d_13">
      <g>
       <use xlink:href="#mdb9e218403" x="46.965625" y="99.97498" style="stroke: #000000; stroke-width: 0.8"/>
      </g>
     </g>
     <g id="text_14">
      <!-- 700 -->
      <g transform="translate(20.878125 103.774199) scale(0.1 -0.1)">
       <defs>
        <path id="DejaVuSans-37" d="M 525 4666 
L 3525 4666 
L 3525 4397 
L 1831 0 
L 1172 0 
L 2766 4134 
L 525 4134 
L 525 4666 
z
" transform="scale(0.015625)"/>
       </defs>
       <use xlink:href="#DejaVuSans-37"/>
       <use xlink:href="#DejaVuSans-30" x="63.623047"/>
       <use xlink:href="#DejaVuSans-30" x="127.246094"/>
      </g>
     </g>
    </g>
    <g id="ytick_9">
     <g id="line2d_14">
      <g>
       <use xlink:href="#mdb9e218403" x="46.965625" y="59.188817" style="stroke: #000000; stroke-width: 0.8"/>
      </g>
     </g>
     <g id="text_15">
      <!-- 800 -->
      <g transform="translate(20.878125 62.988036) scale(0.1 -0.1)">
       <defs>
        <path id="DejaVuSans-38" d="M 2034 2216 
Q 1584 2216 1326 1975 
Q 1069 1734 1069 1313 
Q 1069 891 1326 650 
Q 1584 409 2034 409 
Q 2484 409 2743 651 
Q 3003 894 3003 1313 
Q 3003 1734 2745 1975 
Q 2488 2216 2034 2216 
z
M 1403 2484 
Q 997 2584 770 2862 
Q 544 3141 544 3541 
Q 544 4100 942 4425 
Q 1341 4750 2034 4750 
Q 2731 4750 3128 4425 
Q 3525 4100 3525 3541 
Q 3525 3141 3298 2862 
Q 3072 2584 2669 2484 
Q 3125 2378 3379 2068 
Q 3634 1759 3634 1313 
Q 3634 634 3220 271 
Q 2806 -91 2034 -91 
Q 1263 -91 848 271 
Q 434 634 434 1313 
Q 434 1759 690 2068 
Q 947 2378 1403 2484 
z
M 1172 3481 
Q 1172 3119 1398 2916 
Q 1625 2713 2034 2713 
Q 2441 2713 2670 2916 
Q 2900 3119 2900 3481 
Q 2900 3844 2670 4047 
Q 2441 4250 2034 4250 
Q 1625 4250 1398 4047 
Q 1172 3844 1172 3481 
z
" transform="scale(0.015625)"/>
       </defs>
       <use xlink:href="#DejaVuSans-38"/>
       <use xlink:href="#DejaVuSans-30" x="63.623047"/>
       <use xlink:href="#DejaVuSans-30" x="127.246094"/>
      </g>
     </g>
    </g>
    <g id="text_16">
     <!-- Count -->
     <g transform="translate(14.798437 218.746562) rotate(-90) scale(0.1 -0.1)">
      <defs>
       <path id="DejaVuSans-43" d="M 4122 4306 
L 4122 3641 
Q 3803 3938 3442 4084 
Q 3081 4231 2675 4231 
Q 1875 4231 1450 3742 
Q 1025 3253 1025 2328 
Q 1025 1406 1450 917 
Q 1875 428 2675 428 
Q 3081 428 3442 575 
Q 3803 722 4122 1019 
L 4122 359 
Q 3791 134 3420 21 
Q 3050 -91 2638 -91 
Q 1578 -91 968 557 
Q 359 1206 359 2328 
Q 359 3453 968 4101 
Q 1578 4750 2638 4750 
Q 3056 4750 3426 4639 
Q 3797 4528 4122 4306 
z
" transform="scale(0.015625)"/>
       <path id="DejaVuSans-6f" d="M 1959 3097 
Q 1497 3097 1228 2736 
Q 959 2375 959 1747 
Q 959 1119 1226 758 
Q 1494 397 1959 397 
Q 2419 397 2687 759 
Q 2956 1122 2956 1747 
Q 2956 2369 2687 2733 
Q 2419 3097 1959 3097 
z
M 1959 3584 
Q 2709 3584 3137 3096 
Q 3566 2609 3566 1747 
Q 3566 888 3137 398 
Q 2709 -91 1959 -91 
Q 1206 -91 779 398 
Q 353 888 353 1747 
Q 353 2609 779 3096 
Q 1206 3584 1959 3584 
z
" transform="scale(0.015625)"/>
       <path id="DejaVuSans-75" d="M 544 1381 
L 544 3500 
L 1119 3500 
L 1119 1403 
Q 1119 906 1312 657 
Q 1506 409 1894 409 
Q 2359 409 2629 706 
Q 2900 1003 2900 1516 
L 2900 3500 
L 3475 3500 
L 3475 0 
L 2900 0 
L 2900 538 
Q 2691 219 2414 64 
Q 2138 -91 1772 -91 
Q 1169 -91 856 284 
Q 544 659 544 1381 
z
M 1991 3584 
L 1991 3584 
z
" transform="scale(0.015625)"/>
       <path id="DejaVuSans-6e" d="M 3513 2113 
L 3513 0 
L 2938 0 
L 2938 2094 
Q 2938 2591 2744 2837 
Q 2550 3084 2163 3084 
Q 1697 3084 1428 2787 
Q 1159 2491 1159 1978 
L 1159 0 
L 581 0 
L 581 3500 
L 1159 3500 
L 1159 2956 
Q 1366 3272 1645 3428 
Q 1925 3584 2291 3584 
Q 2894 3584 3203 3211 
Q 3513 2838 3513 2113 
z
" transform="scale(0.015625)"/>
       <path id="DejaVuSans-74" d="M 1172 4494 
L 1172 3500 
L 2356 3500 
L 2356 3053 
L 1172 3053 
L 1172 1153 
Q 1172 725 1289 603 
Q 1406 481 1766 481 
L 2356 481 
L 2356 0 
L 1766 0 
Q 1100 0 847 248 
Q 594 497 594 1153 
L 594 3053 
L 172 3053 
L 172 3500 
L 594 3500 
L 594 4494 
L 1172 4494 
z
" transform="scale(0.015625)"/>
      </defs>
      <use xlink:href="#DejaVuSans-43"/>
      <use xlink:href="#DejaVuSans-6f" x="69.824219"/>
      <use xlink:href="#DejaVuSans-75" x="131.005859"/>
      <use xlink:href="#DejaVuSans-6e" x="194.384766"/>
      <use xlink:href="#DejaVuSans-74" x="257.763672"/>
     </g>
    </g>
   </g>
   <g id="line2d_15">
    <path d="M 105.624351 352.465324 
L 109.066625 335.052056 
L 112.508899 317.051517 
L 115.951173 301.538793 
L 119.393447 290.746011 
L 122.835721 285.340338 
L 126.277995 284.391468 
L 129.720269 285.900441 
L 133.162544 287.636324 
L 136.604818 287.931134 
L 140.047092 286.087061 
L 143.489366 282.255578 
L 146.93164 276.978055 
L 150.373914 270.79431 
L 160.700736 251.119132 
L 164.143011 244.597783 
L 167.585285 237.203068 
L 171.027559 228.285108 
L 174.469833 217.838757 
L 184.796655 183.397203 
L 191.681203 160.173867 
L 202.008026 124.125789 
L 205.4503 113.08041 
L 208.892574 103.163891 
L 212.334848 94.886329 
L 215.777122 88.809844 
L 219.219396 85.317578 
L 222.66167 84.316979 
L 226.103945 85.56839 
L 229.546219 89.662713 
L 232.988493 98.054823 
L 236.430767 111.333502 
L 243.315315 144.295898 
L 250.199863 174.037216 
L 253.642138 190.345159 
L 260.526686 227.701569 
L 263.96896 244.439666 
L 267.411234 258.058014 
L 270.853508 269.595291 
L 281.18033 303.339578 
L 284.622605 313.157248 
L 288.064879 321.233985 
L 291.507153 327.937318 
L 294.949427 333.895079 
L 298.391701 339.459458 
L 301.833975 344.586844 
L 305.276249 349.050132 
L 308.718523 352.691948 
L 312.160797 355.576106 
L 319.045346 360.543313 
L 322.48762 363.445431 
L 329.372168 369.829905 
L 332.814442 372.506593 
L 336.256716 374.531896 
L 339.69899 375.908348 
L 343.141265 376.639674 
L 346.583539 376.711565 
L 353.468087 375.735005 
L 356.910361 375.720729 
L 360.352635 376.6057 
L 363.794909 378.264803 
L 367.237183 380.152816 
L 370.679457 381.703108 
L 374.121732 382.66773 
L 377.564006 383.146876 
L 384.448554 383.544191 
L 391.333102 383.666062 
L 394.775376 383.493607 
L 405.102199 382.36285 
L 408.544473 382.357376 
L 411.986747 382.762548 
L 418.871295 384.162093 
L 422.313569 384.698122 
L 425.755843 385.01183 
L 432.640391 385.265649 
L 442.967214 385.344291 
L 453.294036 385.100205 
L 460.178584 384.76904 
L 473.947681 383.768809 
L 477.389955 383.707382 
L 480.832229 383.85088 
L 494.601326 385.170099 
L 501.485874 385.337358 
L 535.908615 385.478119 
L 566.889082 385.426731 
L 573.77363 385.23169 
L 584.100453 384.782478 
L 590.985001 384.836685 
L 608.196371 385.433101 
L 625.407742 385.478079 
L 776.867803 385.382416 
L 790.636899 385.30378 
L 790.636899 385.30378 
" clip-path="url(#p4eec4ac637)" style="fill: none; stroke: #1f77b4; stroke-width: 1.5; stroke-linecap: square"/>
   </g>
   <g id="line2d_16">
    <path d="M 83.43517 385.478124 
L 812.82608 385.478125 
L 812.82608 385.478125 
" clip-path="url(#p4eec4ac637)" style="fill: none; stroke: #1f77b4; stroke-width: 1.5; stroke-linecap: square"/>
   </g>
   <g id="patch_141">
    <path d="M 46.965625 385.478125 
L 46.965625 22.318125 
" style="fill: none; stroke: #000000; stroke-width: 0.8; stroke-linejoin: miter; stroke-linecap: square"/>
   </g>
   <g id="patch_142">
    <path d="M 849.295625 385.478125 
L 849.295625 22.318125 
" style="fill: none; stroke: #000000; stroke-width: 0.8; stroke-linejoin: miter; stroke-linecap: square"/>
   </g>
   <g id="patch_143">
    <path d="M 46.965625 385.478125 
L 849.295625 385.478125 
" style="fill: none; stroke: #000000; stroke-width: 0.8; stroke-linejoin: miter; stroke-linecap: square"/>
   </g>
   <g id="patch_144">
    <path d="M 46.965625 22.318125 
L 849.295625 22.318125 
" style="fill: none; stroke: #000000; stroke-width: 0.8; stroke-linejoin: miter; stroke-linecap: square"/>
   </g>
   <g id="text_17">
    <!-- Distribution of GFR -->
    <g transform="translate(391.261875 16.318125) scale(0.12 -0.12)">
     <defs>
      <path id="DejaVuSans-44" d="M 1259 4147 
L 1259 519 
L 2022 519 
Q 2988 519 3436 956 
Q 3884 1394 3884 2338 
Q 3884 3275 3436 3711 
Q 2988 4147 2022 4147 
L 1259 4147 
z
M 628 4666 
L 1925 4666 
Q 3281 4666 3915 4102 
Q 4550 3538 4550 2338 
Q 4550 1131 3912 565 
Q 3275 0 1925 0 
L 628 0 
L 628 4666 
z
" transform="scale(0.015625)"/>
      <path id="DejaVuSans-69" d="M 603 3500 
L 1178 3500 
L 1178 0 
L 603 0 
L 603 3500 
z
M 603 4863 
L 1178 4863 
L 1178 4134 
L 603 4134 
L 603 4863 
z
" transform="scale(0.015625)"/>
      <path id="DejaVuSans-73" d="M 2834 3397 
L 2834 2853 
Q 2591 2978 2328 3040 
Q 2066 3103 1784 3103 
Q 1356 3103 1142 2972 
Q 928 2841 928 2578 
Q 928 2378 1081 2264 
Q 1234 2150 1697 2047 
L 1894 2003 
Q 2506 1872 2764 1633 
Q 3022 1394 3022 966 
Q 3022 478 2636 193 
Q 2250 -91 1575 -91 
Q 1294 -91 989 -36 
Q 684 19 347 128 
L 347 722 
Q 666 556 975 473 
Q 1284 391 1588 391 
Q 1994 391 2212 530 
Q 2431 669 2431 922 
Q 2431 1156 2273 1281 
Q 2116 1406 1581 1522 
L 1381 1569 
Q 847 1681 609 1914 
Q 372 2147 372 2553 
Q 372 3047 722 3315 
Q 1072 3584 1716 3584 
Q 2034 3584 2315 3537 
Q 2597 3491 2834 3397 
z
" transform="scale(0.015625)"/>
      <path id="DejaVuSans-72" d="M 2631 2963 
Q 2534 3019 2420 3045 
Q 2306 3072 2169 3072 
Q 1681 3072 1420 2755 
Q 1159 2438 1159 1844 
L 1159 0 
L 581 0 
L 581 3500 
L 1159 3500 
L 1159 2956 
Q 1341 3275 1631 3429 
Q 1922 3584 2338 3584 
Q 2397 3584 2469 3576 
Q 2541 3569 2628 3553 
L 2631 2963 
z
" transform="scale(0.015625)"/>
      <path id="DejaVuSans-62" d="M 3116 1747 
Q 3116 2381 2855 2742 
Q 2594 3103 2138 3103 
Q 1681 3103 1420 2742 
Q 1159 2381 1159 1747 
Q 1159 1113 1420 752 
Q 1681 391 2138 391 
Q 2594 391 2855 752 
Q 3116 1113 3116 1747 
z
M 1159 2969 
Q 1341 3281 1617 3432 
Q 1894 3584 2278 3584 
Q 2916 3584 3314 3078 
Q 3713 2572 3713 1747 
Q 3713 922 3314 415 
Q 2916 -91 2278 -91 
Q 1894 -91 1617 61 
Q 1341 213 1159 525 
L 1159 0 
L 581 0 
L 581 4863 
L 1159 4863 
L 1159 2969 
z
" transform="scale(0.015625)"/>
      <path id="DejaVuSans-20" transform="scale(0.015625)"/>
      <path id="DejaVuSans-66" d="M 2375 4863 
L 2375 4384 
L 1825 4384 
Q 1516 4384 1395 4259 
Q 1275 4134 1275 3809 
L 1275 3500 
L 2222 3500 
L 2222 3053 
L 1275 3053 
L 1275 0 
L 697 0 
L 697 3053 
L 147 3053 
L 147 3500 
L 697 3500 
L 697 3744 
Q 697 4328 969 4595 
Q 1241 4863 1831 4863 
L 2375 4863 
z
" transform="scale(0.015625)"/>
     </defs>
     <use xlink:href="#DejaVuSans-44"/>
     <use xlink:href="#DejaVuSans-69" x="77.001953"/>
     <use xlink:href="#DejaVuSans-73" x="104.785156"/>
     <use xlink:href="#DejaVuSans-74" x="156.884766"/>
     <use xlink:href="#DejaVuSans-72" x="196.09375"/>
     <use xlink:href="#DejaVuSans-69" x="237.207031"/>
     <use xlink:href="#DejaVuSans-62" x="264.990234"/>
     <use xlink:href="#DejaVuSans-75" x="328.466797"/>
     <use xlink:href="#DejaVuSans-74" x="391.845703"/>
     <use xlink:href="#DejaVuSans-69" x="431.054688"/>
     <use xlink:href="#DejaVuSans-6f" x="458.837891"/>
     <use xlink:href="#DejaVuSans-6e" x="520.019531"/>
     <use xlink:href="#DejaVuSans-20" x="583.398438"/>
     <use xlink:href="#DejaVuSans-6f" x="615.185547"/>
     <use xlink:href="#DejaVuSans-66" x="676.367188"/>
     <use xlink:href="#DejaVuSans-20" x="711.572266"/>
     <use xlink:href="#DejaVuSans-47" x="743.359375"/>
     <use xlink:href="#DejaVuSans-46" x="820.849609"/>
     <use xlink:href="#DejaVuSans-52" x="878.369141"/>
    </g>
   </g>
  </g>
 </g>
 <defs>
  <clipPath id="p4eec4ac637">
   <rect x="46.965625" y="22.318125" width="802.33" height="363.16"/>
  </clipPath>
 </defs>
</svg>
