<?xml version="1.0" encoding="utf-8" standalone="no"?>
<!DOCTYPE svg PUBLIC "-//W3C//DTD SVG 1.1//EN"
  "http://www.w3.org/Graphics/SVG/1.1/DTD/svg11.dtd">
<svg xmlns:xlink="http://www.w3.org/1999/xlink" width="856.558125pt" height="423.034375pt" viewBox="0 0 856.558125 423.034375" xmlns="http://www.w3.org/2000/svg" version="1.1">
 <metadata>
  <rdf:RDF xmlns:dc="http://purl.org/dc/elements/1.1/" xmlns:cc="http://creativecommons.org/ns#" xmlns:rdf="http://www.w3.org/1999/02/22-rdf-syntax-ns#">
   <cc:Work>
    <dc:type rdf:resource="http://purl.org/dc/dcmitype/StillImage"/>
    <dc:date>2024-07-16T17:35:32.754786</dc:date>
    <dc:format>image/svg+xml</dc:format>
    <dc:creator>
     <cc:Agent>
      <dc:title>Matplotlib v3.9.0, https://matplotlib.org/</dc:title>
     </cc:Agent>
    </dc:creator>
   </cc:Work>
  </rdf:RDF>
 </metadata>
 <defs>
  <style type="text/css">*{stroke-linejoin: round; stroke-linecap: butt}</style>
 </defs>
 <g id="figure_1">
  <g id="patch_1">
   <path d="M 0 423.034375 
L 856.558125 423.034375 
L 856.558125 0 
L 0 0 
z
" style="fill: #ffffff"/>
  </g>
  <g id="axes_1">
   <g id="patch_2">
    <path d="M 53.328125 385.478125 
L 849.358125 385.478125 
L 849.358125 22.318125 
L 53.328125 22.318125 
z
" style="fill: #ffffff"/>
   </g>
   <g id="patch_3">
    <path d="M 105.627244 385.478125 
L 108.770116 385.478125 
L 108.770116 385.167373 
L 105.627244 385.167373 
z
" clip-path="url(#p92beb7ff38)" style="fill: #1f77b4; fill-opacity: 0.5; stroke: #000000; stroke-width: 0.276694; stroke-linejoin: miter"/>
   </g>
   <g id="patch_4">
    <path d="M 108.770116 385.478125 
L 111.912988 385.478125 
L 111.912988 385.478125 
L 108.770116 385.478125 
z
" clip-path="url(#p92beb7ff38)" style="fill: #1f77b4; fill-opacity: 0.5; stroke: #000000; stroke-width: 0.276694; stroke-linejoin: miter"/>
   </g>
   <g id="patch_5">
    <path d="M 111.912988 385.478125 
L 115.055859 385.478125 
L 115.055859 385.167373 
L 111.912988 385.167373 
z
" clip-path="url(#p92beb7ff38)" style="fill: #1f77b4; fill-opacity: 0.5; stroke: #000000; stroke-width: 0.276694; stroke-linejoin: miter"/>
   </g>
   <g id="patch_6">
    <path d="M 115.055859 385.478125 
L 118.198731 385.478125 
L 118.198731 385.478125 
L 115.055859 385.478125 
z
" clip-path="url(#p92beb7ff38)" style="fill: #1f77b4; fill-opacity: 0.5; stroke: #000000; stroke-width: 0.276694; stroke-linejoin: miter"/>
   </g>
   <g id="patch_7">
    <path d="M 118.198731 385.478125 
L 121.341603 385.478125 
L 121.341603 385.478125 
L 118.198731 385.478125 
z
" clip-path="url(#p92beb7ff38)" style="fill: #1f77b4; fill-opacity: 0.5; stroke: #000000; stroke-width: 0.276694; stroke-linejoin: miter"/>
   </g>
   <g id="patch_8">
    <path d="M 121.341603 385.478125 
L 124.484474 385.478125 
L 124.484474 385.478125 
L 121.341603 385.478125 
z
" clip-path="url(#p92beb7ff38)" style="fill: #1f77b4; fill-opacity: 0.5; stroke: #000000; stroke-width: 0.276694; stroke-linejoin: miter"/>
   </g>
   <g id="patch_9">
    <path d="M 124.484474 385.478125 
L 127.627346 385.478125 
L 127.627346 385.478125 
L 124.484474 385.478125 
z
" clip-path="url(#p92beb7ff38)" style="fill: #1f77b4; fill-opacity: 0.5; stroke: #000000; stroke-width: 0.276694; stroke-linejoin: miter"/>
   </g>
   <g id="patch_10">
    <path d="M 127.627346 385.478125 
L 130.770217 385.478125 
L 130.770217 385.167373 
L 127.627346 385.167373 
z
" clip-path="url(#p92beb7ff38)" style="fill: #1f77b4; fill-opacity: 0.5; stroke: #000000; stroke-width: 0.276694; stroke-linejoin: miter"/>
   </g>
   <g id="patch_11">
    <path d="M 130.770217 385.478125 
L 133.913089 385.478125 
L 133.913089 385.167373 
L 130.770217 385.167373 
z
" clip-path="url(#p92beb7ff38)" style="fill: #1f77b4; fill-opacity: 0.5; stroke: #000000; stroke-width: 0.276694; stroke-linejoin: miter"/>
   </g>
   <g id="patch_12">
    <path d="M 133.913089 385.478125 
L 137.055961 385.478125 
L 137.055961 385.167373 
L 133.913089 385.167373 
z
" clip-path="url(#p92beb7ff38)" style="fill: #1f77b4; fill-opacity: 0.5; stroke: #000000; stroke-width: 0.276694; stroke-linejoin: miter"/>
   </g>
   <g id="patch_13">
    <path d="M 137.055961 385.478125 
L 140.198832 385.478125 
L 140.198832 385.478125 
L 137.055961 385.478125 
z
" clip-path="url(#p92beb7ff38)" style="fill: #1f77b4; fill-opacity: 0.5; stroke: #000000; stroke-width: 0.276694; stroke-linejoin: miter"/>
   </g>
   <g id="patch_14">
    <path d="M 140.198832 385.478125 
L 143.341704 385.478125 
L 143.341704 385.478125 
L 140.198832 385.478125 
z
" clip-path="url(#p92beb7ff38)" style="fill: #1f77b4; fill-opacity: 0.5; stroke: #000000; stroke-width: 0.276694; stroke-linejoin: miter"/>
   </g>
   <g id="patch_15">
    <path d="M 143.341704 385.478125 
L 146.484576 385.478125 
L 146.484576 384.856622 
L 143.341704 384.856622 
z
" clip-path="url(#p92beb7ff38)" style="fill: #1f77b4; fill-opacity: 0.5; stroke: #000000; stroke-width: 0.276694; stroke-linejoin: miter"/>
   </g>
   <g id="patch_16">
    <path d="M 146.484576 385.478125 
L 149.627447 385.478125 
L 149.627447 385.478125 
L 146.484576 385.478125 
z
" clip-path="url(#p92beb7ff38)" style="fill: #1f77b4; fill-opacity: 0.5; stroke: #000000; stroke-width: 0.276694; stroke-linejoin: miter"/>
   </g>
   <g id="patch_17">
    <path d="M 149.627447 385.478125 
L 152.770319 385.478125 
L 152.770319 384.54587 
L 149.627447 384.54587 
z
" clip-path="url(#p92beb7ff38)" style="fill: #1f77b4; fill-opacity: 0.5; stroke: #000000; stroke-width: 0.276694; stroke-linejoin: miter"/>
   </g>
   <g id="patch_18">
    <path d="M 152.770319 385.478125 
L 155.913191 385.478125 
L 155.913191 384.235118 
L 152.770319 384.235118 
z
" clip-path="url(#p92beb7ff38)" style="fill: #1f77b4; fill-opacity: 0.5; stroke: #000000; stroke-width: 0.276694; stroke-linejoin: miter"/>
   </g>
   <g id="patch_19">
    <path d="M 155.913191 385.478125 
L 159.056062 385.478125 
L 159.056062 385.478125 
L 155.913191 385.478125 
z
" clip-path="url(#p92beb7ff38)" style="fill: #1f77b4; fill-opacity: 0.5; stroke: #000000; stroke-width: 0.276694; stroke-linejoin: miter"/>
   </g>
   <g id="patch_20">
    <path d="M 159.056062 385.478125 
L 162.198934 385.478125 
L 162.198934 384.235118 
L 159.056062 384.235118 
z
" clip-path="url(#p92beb7ff38)" style="fill: #1f77b4; fill-opacity: 0.5; stroke: #000000; stroke-width: 0.276694; stroke-linejoin: miter"/>
   </g>
   <g id="patch_21">
    <path d="M 162.198934 385.478125 
L 165.341806 385.478125 
L 165.341806 382.992111 
L 162.198934 382.992111 
z
" clip-path="url(#p92beb7ff38)" style="fill: #1f77b4; fill-opacity: 0.5; stroke: #000000; stroke-width: 0.276694; stroke-linejoin: miter"/>
   </g>
   <g id="patch_22">
    <path d="M 165.341806 385.478125 
L 168.484677 385.478125 
L 168.484677 383.613615 
L 165.341806 383.613615 
z
" clip-path="url(#p92beb7ff38)" style="fill: #1f77b4; fill-opacity: 0.5; stroke: #000000; stroke-width: 0.276694; stroke-linejoin: miter"/>
   </g>
   <g id="patch_23">
    <path d="M 168.484677 385.478125 
L 171.627549 385.478125 
L 171.627549 385.478125 
L 168.484677 385.478125 
z
" clip-path="url(#p92beb7ff38)" style="fill: #1f77b4; fill-opacity: 0.5; stroke: #000000; stroke-width: 0.276694; stroke-linejoin: miter"/>
   </g>
   <g id="patch_24">
    <path d="M 171.627549 385.478125 
L 174.77042 385.478125 
L 174.77042 382.68136 
L 171.627549 382.68136 
z
" clip-path="url(#p92beb7ff38)" style="fill: #1f77b4; fill-opacity: 0.5; stroke: #000000; stroke-width: 0.276694; stroke-linejoin: miter"/>
   </g>
   <g id="patch_25">
    <path d="M 174.77042 385.478125 
L 177.913292 385.478125 
L 177.913292 379.884594 
L 174.77042 379.884594 
z
" clip-path="url(#p92beb7ff38)" style="fill: #1f77b4; fill-opacity: 0.5; stroke: #000000; stroke-width: 0.276694; stroke-linejoin: miter"/>
   </g>
   <g id="patch_26">
    <path d="M 177.913292 385.478125 
L 181.056164 385.478125 
L 181.056164 385.478125 
L 177.913292 385.478125 
z
" clip-path="url(#p92beb7ff38)" style="fill: #1f77b4; fill-opacity: 0.5; stroke: #000000; stroke-width: 0.276694; stroke-linejoin: miter"/>
   </g>
   <g id="patch_27">
    <path d="M 181.056164 385.478125 
L 184.199035 385.478125 
L 184.199035 378.330835 
L 181.056164 378.330835 
z
" clip-path="url(#p92beb7ff38)" style="fill: #1f77b4; fill-opacity: 0.5; stroke: #000000; stroke-width: 0.276694; stroke-linejoin: miter"/>
   </g>
   <g id="patch_28">
    <path d="M 184.199035 385.478125 
L 187.341907 385.478125 
L 187.341907 378.020084 
L 184.199035 378.020084 
z
" clip-path="url(#p92beb7ff38)" style="fill: #1f77b4; fill-opacity: 0.5; stroke: #000000; stroke-width: 0.276694; stroke-linejoin: miter"/>
   </g>
   <g id="patch_29">
    <path d="M 187.341907 385.478125 
L 190.484779 385.478125 
L 190.484779 373.66956 
L 187.341907 373.66956 
z
" clip-path="url(#p92beb7ff38)" style="fill: #1f77b4; fill-opacity: 0.5; stroke: #000000; stroke-width: 0.276694; stroke-linejoin: miter"/>
   </g>
   <g id="patch_30">
    <path d="M 190.484779 385.478125 
L 193.62765 385.478125 
L 193.62765 385.478125 
L 190.484779 385.478125 
z
" clip-path="url(#p92beb7ff38)" style="fill: #1f77b4; fill-opacity: 0.5; stroke: #000000; stroke-width: 0.276694; stroke-linejoin: miter"/>
   </g>
   <g id="patch_31">
    <path d="M 193.62765 385.478125 
L 196.770522 385.478125 
L 196.770522 372.115801 
L 193.62765 372.115801 
z
" clip-path="url(#p92beb7ff38)" style="fill: #1f77b4; fill-opacity: 0.5; stroke: #000000; stroke-width: 0.276694; stroke-linejoin: miter"/>
   </g>
   <g id="patch_32">
    <path d="M 196.770522 385.478125 
L 199.913394 385.478125 
L 199.913394 368.076029 
L 196.770522 368.076029 
z
" clip-path="url(#p92beb7ff38)" style="fill: #1f77b4; fill-opacity: 0.5; stroke: #000000; stroke-width: 0.276694; stroke-linejoin: miter"/>
   </g>
   <g id="patch_33">
    <path d="M 199.913394 385.478125 
L 203.056265 385.478125 
L 203.056265 385.478125 
L 199.913394 385.478125 
z
" clip-path="url(#p92beb7ff38)" style="fill: #1f77b4; fill-opacity: 0.5; stroke: #000000; stroke-width: 0.276694; stroke-linejoin: miter"/>
   </g>
   <g id="patch_34">
    <path d="M 203.056265 385.478125 
L 206.199137 385.478125 
L 206.199137 360.928739 
L 203.056265 360.928739 
z
" clip-path="url(#p92beb7ff38)" style="fill: #1f77b4; fill-opacity: 0.5; stroke: #000000; stroke-width: 0.276694; stroke-linejoin: miter"/>
   </g>
   <g id="patch_35">
    <path d="M 206.199137 385.478125 
L 209.342009 385.478125 
L 209.342009 351.916939 
L 206.199137 351.916939 
z
" clip-path="url(#p92beb7ff38)" style="fill: #1f77b4; fill-opacity: 0.5; stroke: #000000; stroke-width: 0.276694; stroke-linejoin: miter"/>
   </g>
   <g id="patch_36">
    <path d="M 209.342009 385.478125 
L 212.48488 385.478125 
L 212.48488 385.478125 
L 209.342009 385.478125 
z
" clip-path="url(#p92beb7ff38)" style="fill: #1f77b4; fill-opacity: 0.5; stroke: #000000; stroke-width: 0.276694; stroke-linejoin: miter"/>
   </g>
   <g id="patch_37">
    <path d="M 212.48488 385.478125 
L 215.627752 385.478125 
L 215.627752 344.458898 
L 212.48488 344.458898 
z
" clip-path="url(#p92beb7ff38)" style="fill: #1f77b4; fill-opacity: 0.5; stroke: #000000; stroke-width: 0.276694; stroke-linejoin: miter"/>
   </g>
   <g id="patch_38">
    <path d="M 215.627752 385.478125 
L 218.770623 385.478125 
L 218.770623 316.180491 
L 215.627752 316.180491 
z
" clip-path="url(#p92beb7ff38)" style="fill: #1f77b4; fill-opacity: 0.5; stroke: #000000; stroke-width: 0.276694; stroke-linejoin: miter"/>
   </g>
   <g id="patch_39">
    <path d="M 218.770623 385.478125 
L 221.913495 385.478125 
L 221.913495 300.332153 
L 218.770623 300.332153 
z
" clip-path="url(#p92beb7ff38)" style="fill: #1f77b4; fill-opacity: 0.5; stroke: #000000; stroke-width: 0.276694; stroke-linejoin: miter"/>
   </g>
   <g id="patch_40">
    <path d="M 221.913495 385.478125 
L 225.056367 385.478125 
L 225.056367 385.478125 
L 221.913495 385.478125 
z
" clip-path="url(#p92beb7ff38)" style="fill: #1f77b4; fill-opacity: 0.5; stroke: #000000; stroke-width: 0.276694; stroke-linejoin: miter"/>
   </g>
   <g id="patch_41">
    <path d="M 225.056367 385.478125 
L 228.199238 385.478125 
L 228.199238 262.109691 
L 225.056367 262.109691 
z
" clip-path="url(#p92beb7ff38)" style="fill: #1f77b4; fill-opacity: 0.5; stroke: #000000; stroke-width: 0.276694; stroke-linejoin: miter"/>
   </g>
   <g id="patch_42">
    <path d="M 228.199238 385.478125 
L 231.34211 385.478125 
L 231.34211 223.265726 
L 228.199238 223.265726 
z
" clip-path="url(#p92beb7ff38)" style="fill: #1f77b4; fill-opacity: 0.5; stroke: #000000; stroke-width: 0.276694; stroke-linejoin: miter"/>
   </g>
   <g id="patch_43">
    <path d="M 231.34211 385.478125 
L 234.484982 385.478125 
L 234.484982 385.478125 
L 231.34211 385.478125 
z
" clip-path="url(#p92beb7ff38)" style="fill: #1f77b4; fill-opacity: 0.5; stroke: #000000; stroke-width: 0.276694; stroke-linejoin: miter"/>
   </g>
   <g id="patch_44">
    <path d="M 234.484982 385.478125 
L 237.627853 385.478125 
L 237.627853 185.043264 
L 234.484982 185.043264 
z
" clip-path="url(#p92beb7ff38)" style="fill: #1f77b4; fill-opacity: 0.5; stroke: #000000; stroke-width: 0.276694; stroke-linejoin: miter"/>
   </g>
   <g id="patch_45">
    <path d="M 237.627853 385.478125 
L 240.770725 385.478125 
L 240.770725 137.809003 
L 237.627853 137.809003 
z
" clip-path="url(#p92beb7ff38)" style="fill: #1f77b4; fill-opacity: 0.5; stroke: #000000; stroke-width: 0.276694; stroke-linejoin: miter"/>
   </g>
   <g id="patch_46">
    <path d="M 240.770725 385.478125 
L 243.913597 385.478125 
L 243.913597 385.478125 
L 240.770725 385.478125 
z
" clip-path="url(#p92beb7ff38)" style="fill: #1f77b4; fill-opacity: 0.5; stroke: #000000; stroke-width: 0.276694; stroke-linejoin: miter"/>
   </g>
   <g id="patch_47">
    <path d="M 243.913597 385.478125 
L 247.056468 385.478125 
L 247.056468 118.231644 
L 243.913597 118.231644 
z
" clip-path="url(#p92beb7ff38)" style="fill: #1f77b4; fill-opacity: 0.5; stroke: #000000; stroke-width: 0.276694; stroke-linejoin: miter"/>
   </g>
   <g id="patch_48">
    <path d="M 247.056468 385.478125 
L 250.19934 385.478125 
L 250.19934 72.861893 
L 247.056468 72.861893 
z
" clip-path="url(#p92beb7ff38)" style="fill: #1f77b4; fill-opacity: 0.5; stroke: #000000; stroke-width: 0.276694; stroke-linejoin: miter"/>
   </g>
   <g id="patch_49">
    <path d="M 250.19934 385.478125 
L 253.342212 385.478125 
L 253.342212 55.459796 
L 250.19934 55.459796 
z
" clip-path="url(#p92beb7ff38)" style="fill: #1f77b4; fill-opacity: 0.5; stroke: #000000; stroke-width: 0.276694; stroke-linejoin: miter"/>
   </g>
   <g id="patch_50">
    <path d="M 253.342212 385.478125 
L 256.485083 385.478125 
L 256.485083 385.478125 
L 253.342212 385.478125 
z
" clip-path="url(#p92beb7ff38)" style="fill: #1f77b4; fill-opacity: 0.5; stroke: #000000; stroke-width: 0.276694; stroke-linejoin: miter"/>
   </g>
   <g id="patch_51">
    <path d="M 256.485083 385.478125 
L 259.627955 385.478125 
L 259.627955 39.611458 
L 256.485083 39.611458 
z
" clip-path="url(#p92beb7ff38)" style="fill: #1f77b4; fill-opacity: 0.5; stroke: #000000; stroke-width: 0.276694; stroke-linejoin: miter"/>
   </g>
   <g id="patch_52">
    <path d="M 259.627955 385.478125 
L 262.770826 385.478125 
L 262.770826 55.459796 
L 259.627955 55.459796 
z
" clip-path="url(#p92beb7ff38)" style="fill: #1f77b4; fill-opacity: 0.5; stroke: #000000; stroke-width: 0.276694; stroke-linejoin: miter"/>
   </g>
   <g id="patch_53">
    <path d="M 262.770826 385.478125 
L 265.913698 385.478125 
L 265.913698 385.478125 
L 262.770826 385.478125 
z
" clip-path="url(#p92beb7ff38)" style="fill: #1f77b4; fill-opacity: 0.5; stroke: #000000; stroke-width: 0.276694; stroke-linejoin: miter"/>
   </g>
   <g id="patch_54">
    <path d="M 265.913698 385.478125 
L 269.05657 385.478125 
L 269.05657 56.0813 
L 265.913698 56.0813 
z
" clip-path="url(#p92beb7ff38)" style="fill: #1f77b4; fill-opacity: 0.5; stroke: #000000; stroke-width: 0.276694; stroke-linejoin: miter"/>
   </g>
   <g id="patch_55">
    <path d="M 269.05657 385.478125 
L 272.199441 385.478125 
L 272.199441 66.95761 
L 269.05657 66.95761 
z
" clip-path="url(#p92beb7ff38)" style="fill: #1f77b4; fill-opacity: 0.5; stroke: #000000; stroke-width: 0.276694; stroke-linejoin: miter"/>
   </g>
   <g id="patch_56">
    <path d="M 272.199441 385.478125 
L 275.342313 385.478125 
L 275.342313 103.00481 
L 272.199441 103.00481 
z
" clip-path="url(#p92beb7ff38)" style="fill: #1f77b4; fill-opacity: 0.5; stroke: #000000; stroke-width: 0.276694; stroke-linejoin: miter"/>
   </g>
   <g id="patch_57">
    <path d="M 275.342313 385.478125 
L 278.485185 385.478125 
L 278.485185 385.478125 
L 275.342313 385.478125 
z
" clip-path="url(#p92beb7ff38)" style="fill: #1f77b4; fill-opacity: 0.5; stroke: #000000; stroke-width: 0.276694; stroke-linejoin: miter"/>
   </g>
   <g id="patch_58">
    <path d="M 278.485185 385.478125 
L 281.628056 385.478125 
L 281.628056 144.956292 
L 278.485185 144.956292 
z
" clip-path="url(#p92beb7ff38)" style="fill: #1f77b4; fill-opacity: 0.5; stroke: #000000; stroke-width: 0.276694; stroke-linejoin: miter"/>
   </g>
   <g id="patch_59">
    <path d="M 281.628056 385.478125 
L 284.770928 385.478125 
L 284.770928 174.477706 
L 281.628056 174.477706 
z
" clip-path="url(#p92beb7ff38)" style="fill: #1f77b4; fill-opacity: 0.5; stroke: #000000; stroke-width: 0.276694; stroke-linejoin: miter"/>
   </g>
   <g id="patch_60">
    <path d="M 284.770928 385.478125 
L 287.9138 385.478125 
L 287.9138 385.478125 
L 284.770928 385.478125 
z
" clip-path="url(#p92beb7ff38)" style="fill: #1f77b4; fill-opacity: 0.5; stroke: #000000; stroke-width: 0.276694; stroke-linejoin: miter"/>
   </g>
   <g id="patch_61">
    <path d="M 287.9138 385.478125 
L 291.056671 385.478125 
L 291.056671 202.134609 
L 287.9138 202.134609 
z
" clip-path="url(#p92beb7ff38)" style="fill: #1f77b4; fill-opacity: 0.5; stroke: #000000; stroke-width: 0.276694; stroke-linejoin: miter"/>
   </g>
   <g id="patch_62">
    <path d="M 291.056671 385.478125 
L 294.199543 385.478125 
L 294.199543 226.062492 
L 291.056671 226.062492 
z
" clip-path="url(#p92beb7ff38)" style="fill: #1f77b4; fill-opacity: 0.5; stroke: #000000; stroke-width: 0.276694; stroke-linejoin: miter"/>
   </g>
   <g id="patch_63">
    <path d="M 294.199543 385.478125 
L 297.342415 385.478125 
L 297.342415 385.478125 
L 294.199543 385.478125 
z
" clip-path="url(#p92beb7ff38)" style="fill: #1f77b4; fill-opacity: 0.5; stroke: #000000; stroke-width: 0.276694; stroke-linejoin: miter"/>
   </g>
   <g id="patch_64">
    <path d="M 297.342415 385.478125 
L 300.485286 385.478125 
L 300.485286 259.934429 
L 297.342415 259.934429 
z
" clip-path="url(#p92beb7ff38)" style="fill: #1f77b4; fill-opacity: 0.5; stroke: #000000; stroke-width: 0.276694; stroke-linejoin: miter"/>
   </g>
   <g id="patch_65">
    <path d="M 300.485286 385.478125 
L 303.628158 385.478125 
L 303.628158 282.930057 
L 300.485286 282.930057 
z
" clip-path="url(#p92beb7ff38)" style="fill: #1f77b4; fill-opacity: 0.5; stroke: #000000; stroke-width: 0.276694; stroke-linejoin: miter"/>
   </g>
   <g id="patch_66">
    <path d="M 303.628158 385.478125 
L 306.771029 385.478125 
L 306.771029 297.535388 
L 303.628158 297.535388 
z
" clip-path="url(#p92beb7ff38)" style="fill: #1f77b4; fill-opacity: 0.5; stroke: #000000; stroke-width: 0.276694; stroke-linejoin: miter"/>
   </g>
   <g id="patch_67">
    <path d="M 306.771029 385.478125 
L 309.913901 385.478125 
L 309.913901 385.478125 
L 306.771029 385.478125 
z
" clip-path="url(#p92beb7ff38)" style="fill: #1f77b4; fill-opacity: 0.5; stroke: #000000; stroke-width: 0.276694; stroke-linejoin: miter"/>
   </g>
   <g id="patch_68">
    <path d="M 309.913901 385.478125 
L 313.056773 385.478125 
L 313.056773 319.288008 
L 309.913901 319.288008 
z
" clip-path="url(#p92beb7ff38)" style="fill: #1f77b4; fill-opacity: 0.5; stroke: #000000; stroke-width: 0.276694; stroke-linejoin: miter"/>
   </g>
   <g id="patch_69">
    <path d="M 313.056773 385.478125 
L 316.199644 385.478125 
L 316.199644 335.447098 
L 313.056773 335.447098 
z
" clip-path="url(#p92beb7ff38)" style="fill: #1f77b4; fill-opacity: 0.5; stroke: #000000; stroke-width: 0.276694; stroke-linejoin: miter"/>
   </g>
   <g id="patch_70">
    <path d="M 316.199644 385.478125 
L 319.342516 385.478125 
L 319.342516 385.478125 
L 316.199644 385.478125 
z
" clip-path="url(#p92beb7ff38)" style="fill: #1f77b4; fill-opacity: 0.5; stroke: #000000; stroke-width: 0.276694; stroke-linejoin: miter"/>
   </g>
   <g id="patch_71">
    <path d="M 319.342516 385.478125 
L 322.485388 385.478125 
L 322.485388 336.068601 
L 319.342516 336.068601 
z
" clip-path="url(#p92beb7ff38)" style="fill: #1f77b4; fill-opacity: 0.5; stroke: #000000; stroke-width: 0.276694; stroke-linejoin: miter"/>
   </g>
   <g id="patch_72">
    <path d="M 322.485388 385.478125 
L 325.628259 385.478125 
L 325.628259 345.701905 
L 322.485388 345.701905 
z
" clip-path="url(#p92beb7ff38)" style="fill: #1f77b4; fill-opacity: 0.5; stroke: #000000; stroke-width: 0.276694; stroke-linejoin: miter"/>
   </g>
   <g id="patch_73">
    <path d="M 325.628259 385.478125 
L 328.771131 385.478125 
L 328.771131 354.713705 
L 325.628259 354.713705 
z
" clip-path="url(#p92beb7ff38)" style="fill: #1f77b4; fill-opacity: 0.5; stroke: #000000; stroke-width: 0.276694; stroke-linejoin: miter"/>
   </g>
   <g id="patch_74">
    <path d="M 328.771131 385.478125 
L 331.914003 385.478125 
L 331.914003 385.478125 
L 328.771131 385.478125 
z
" clip-path="url(#p92beb7ff38)" style="fill: #1f77b4; fill-opacity: 0.5; stroke: #000000; stroke-width: 0.276694; stroke-linejoin: miter"/>
   </g>
   <g id="patch_75">
    <path d="M 331.914003 385.478125 
L 335.056874 385.478125 
L 335.056874 359.685732 
L 331.914003 359.685732 
z
" clip-path="url(#p92beb7ff38)" style="fill: #1f77b4; fill-opacity: 0.5; stroke: #000000; stroke-width: 0.276694; stroke-linejoin: miter"/>
   </g>
   <g id="patch_76">
    <path d="M 335.056874 385.478125 
L 338.199746 385.478125 
L 338.199746 359.37498 
L 335.056874 359.37498 
z
" clip-path="url(#p92beb7ff38)" style="fill: #1f77b4; fill-opacity: 0.5; stroke: #000000; stroke-width: 0.276694; stroke-linejoin: miter"/>
   </g>
   <g id="patch_77">
    <path d="M 338.199746 385.478125 
L 341.342618 385.478125 
L 341.342618 385.478125 
L 338.199746 385.478125 
z
" clip-path="url(#p92beb7ff38)" style="fill: #1f77b4; fill-opacity: 0.5; stroke: #000000; stroke-width: 0.276694; stroke-linejoin: miter"/>
   </g>
   <g id="patch_78">
    <path d="M 341.342618 385.478125 
L 344.485489 385.478125 
L 344.485489 364.65776 
L 341.342618 364.65776 
z
" clip-path="url(#p92beb7ff38)" style="fill: #1f77b4; fill-opacity: 0.5; stroke: #000000; stroke-width: 0.276694; stroke-linejoin: miter"/>
   </g>
   <g id="patch_79">
    <path d="M 344.485489 385.478125 
L 347.628361 385.478125 
L 347.628361 368.076029 
L 344.485489 368.076029 
z
" clip-path="url(#p92beb7ff38)" style="fill: #1f77b4; fill-opacity: 0.5; stroke: #000000; stroke-width: 0.276694; stroke-linejoin: miter"/>
   </g>
   <g id="patch_80">
    <path d="M 347.628361 385.478125 
L 350.771232 385.478125 
L 350.771232 385.478125 
L 347.628361 385.478125 
z
" clip-path="url(#p92beb7ff38)" style="fill: #1f77b4; fill-opacity: 0.5; stroke: #000000; stroke-width: 0.276694; stroke-linejoin: miter"/>
   </g>
   <g id="patch_81">
    <path d="M 350.771232 385.478125 
L 353.914104 385.478125 
L 353.914104 365.279263 
L 350.771232 365.279263 
z
" clip-path="url(#p92beb7ff38)" style="fill: #1f77b4; fill-opacity: 0.5; stroke: #000000; stroke-width: 0.276694; stroke-linejoin: miter"/>
   </g>
   <g id="patch_82">
    <path d="M 353.914104 385.478125 
L 357.056976 385.478125 
L 357.056976 373.358808 
L 353.914104 373.358808 
z
" clip-path="url(#p92beb7ff38)" style="fill: #1f77b4; fill-opacity: 0.5; stroke: #000000; stroke-width: 0.276694; stroke-linejoin: miter"/>
   </g>
   <g id="patch_83">
    <path d="M 357.056976 385.478125 
L 360.199847 385.478125 
L 360.199847 370.562042 
L 357.056976 370.562042 
z
" clip-path="url(#p92beb7ff38)" style="fill: #1f77b4; fill-opacity: 0.5; stroke: #000000; stroke-width: 0.276694; stroke-linejoin: miter"/>
   </g>
   <g id="patch_84">
    <path d="M 360.199847 385.478125 
L 363.342719 385.478125 
L 363.342719 385.478125 
L 360.199847 385.478125 
z
" clip-path="url(#p92beb7ff38)" style="fill: #1f77b4; fill-opacity: 0.5; stroke: #000000; stroke-width: 0.276694; stroke-linejoin: miter"/>
   </g>
   <g id="patch_85">
    <path d="M 363.342719 385.478125 
L 366.485591 385.478125 
L 366.485591 376.155573 
L 363.342719 376.155573 
z
" clip-path="url(#p92beb7ff38)" style="fill: #1f77b4; fill-opacity: 0.5; stroke: #000000; stroke-width: 0.276694; stroke-linejoin: miter"/>
   </g>
   <g id="patch_86">
    <path d="M 366.485591 385.478125 
L 369.628462 385.478125 
L 369.628462 377.087829 
L 366.485591 377.087829 
z
" clip-path="url(#p92beb7ff38)" style="fill: #1f77b4; fill-opacity: 0.5; stroke: #000000; stroke-width: 0.276694; stroke-linejoin: miter"/>
   </g>
   <g id="patch_87">
    <path d="M 369.628462 385.478125 
L 372.771334 385.478125 
L 372.771334 385.478125 
L 369.628462 385.478125 
z
" clip-path="url(#p92beb7ff38)" style="fill: #1f77b4; fill-opacity: 0.5; stroke: #000000; stroke-width: 0.276694; stroke-linejoin: miter"/>
   </g>
   <g id="patch_88">
    <path d="M 372.771334 385.478125 
L 375.914206 385.478125 
L 375.914206 379.263091 
L 372.771334 379.263091 
z
" clip-path="url(#p92beb7ff38)" style="fill: #1f77b4; fill-opacity: 0.5; stroke: #000000; stroke-width: 0.276694; stroke-linejoin: miter"/>
   </g>
   <g id="patch_89">
    <path d="M 375.914206 385.478125 
L 379.057077 385.478125 
L 379.057077 377.087829 
L 375.914206 377.087829 
z
" clip-path="url(#p92beb7ff38)" style="fill: #1f77b4; fill-opacity: 0.5; stroke: #000000; stroke-width: 0.276694; stroke-linejoin: miter"/>
   </g>
   <g id="patch_90">
    <path d="M 379.057077 385.478125 
L 382.199949 385.478125 
L 382.199949 385.478125 
L 379.057077 385.478125 
z
" clip-path="url(#p92beb7ff38)" style="fill: #1f77b4; fill-opacity: 0.5; stroke: #000000; stroke-width: 0.276694; stroke-linejoin: miter"/>
   </g>
   <g id="patch_91">
    <path d="M 382.199949 385.478125 
L 385.342821 385.478125 
L 385.342821 380.195346 
L 382.199949 380.195346 
z
" clip-path="url(#p92beb7ff38)" style="fill: #1f77b4; fill-opacity: 0.5; stroke: #000000; stroke-width: 0.276694; stroke-linejoin: miter"/>
   </g>
   <g id="patch_92">
    <path d="M 385.342821 385.478125 
L 388.485692 385.478125 
L 388.485692 378.952339 
L 385.342821 378.952339 
z
" clip-path="url(#p92beb7ff38)" style="fill: #1f77b4; fill-opacity: 0.5; stroke: #000000; stroke-width: 0.276694; stroke-linejoin: miter"/>
   </g>
   <g id="patch_93">
    <path d="M 388.485692 385.478125 
L 391.628564 385.478125 
L 391.628564 380.816849 
L 388.485692 380.816849 
z
" clip-path="url(#p92beb7ff38)" style="fill: #1f77b4; fill-opacity: 0.5; stroke: #000000; stroke-width: 0.276694; stroke-linejoin: miter"/>
   </g>
   <g id="patch_94">
    <path d="M 391.628564 385.478125 
L 394.771435 385.478125 
L 394.771435 385.478125 
L 391.628564 385.478125 
z
" clip-path="url(#p92beb7ff38)" style="fill: #1f77b4; fill-opacity: 0.5; stroke: #000000; stroke-width: 0.276694; stroke-linejoin: miter"/>
   </g>
   <g id="patch_95">
    <path d="M 394.771435 385.478125 
L 397.914307 385.478125 
L 397.914307 382.059856 
L 394.771435 382.059856 
z
" clip-path="url(#p92beb7ff38)" style="fill: #1f77b4; fill-opacity: 0.5; stroke: #000000; stroke-width: 0.276694; stroke-linejoin: miter"/>
   </g>
   <g id="patch_96">
    <path d="M 397.914307 385.478125 
L 401.057179 385.478125 
L 401.057179 382.68136 
L 397.914307 382.68136 
z
" clip-path="url(#p92beb7ff38)" style="fill: #1f77b4; fill-opacity: 0.5; stroke: #000000; stroke-width: 0.276694; stroke-linejoin: miter"/>
   </g>
   <g id="patch_97">
    <path d="M 401.057179 385.478125 
L 404.20005 385.478125 
L 404.20005 385.478125 
L 401.057179 385.478125 
z
" clip-path="url(#p92beb7ff38)" style="fill: #1f77b4; fill-opacity: 0.5; stroke: #000000; stroke-width: 0.276694; stroke-linejoin: miter"/>
   </g>
   <g id="patch_98">
    <path d="M 404.20005 385.478125 
L 407.342922 385.478125 
L 407.342922 382.370608 
L 404.20005 382.370608 
z
" clip-path="url(#p92beb7ff38)" style="fill: #1f77b4; fill-opacity: 0.5; stroke: #000000; stroke-width: 0.276694; stroke-linejoin: miter"/>
   </g>
   <g id="patch_99">
    <path d="M 407.342922 385.478125 
L 410.485794 385.478125 
L 410.485794 380.816849 
L 407.342922 380.816849 
z
" clip-path="url(#p92beb7ff38)" style="fill: #1f77b4; fill-opacity: 0.5; stroke: #000000; stroke-width: 0.276694; stroke-linejoin: miter"/>
   </g>
   <g id="patch_100">
    <path d="M 410.485794 385.478125 
L 413.628665 385.478125 
L 413.628665 381.749104 
L 410.485794 381.749104 
z
" clip-path="url(#p92beb7ff38)" style="fill: #1f77b4; fill-opacity: 0.5; stroke: #000000; stroke-width: 0.276694; stroke-linejoin: miter"/>
   </g>
   <g id="patch_101">
    <path d="M 413.628665 385.478125 
L 416.771537 385.478125 
L 416.771537 385.478125 
L 413.628665 385.478125 
z
" clip-path="url(#p92beb7ff38)" style="fill: #1f77b4; fill-opacity: 0.5; stroke: #000000; stroke-width: 0.276694; stroke-linejoin: miter"/>
   </g>
   <g id="patch_102">
    <path d="M 416.771537 385.478125 
L 419.914409 385.478125 
L 419.914409 382.059856 
L 416.771537 382.059856 
z
" clip-path="url(#p92beb7ff38)" style="fill: #1f77b4; fill-opacity: 0.5; stroke: #000000; stroke-width: 0.276694; stroke-linejoin: miter"/>
   </g>
   <g id="patch_103">
    <path d="M 419.914409 385.478125 
L 423.05728 385.478125 
L 423.05728 383.302863 
L 419.914409 383.302863 
z
" clip-path="url(#p92beb7ff38)" style="fill: #1f77b4; fill-opacity: 0.5; stroke: #000000; stroke-width: 0.276694; stroke-linejoin: miter"/>
   </g>
   <g id="patch_104">
    <path d="M 423.05728 385.478125 
L 426.200152 385.478125 
L 426.200152 385.478125 
L 423.05728 385.478125 
z
" clip-path="url(#p92beb7ff38)" style="fill: #1f77b4; fill-opacity: 0.5; stroke: #000000; stroke-width: 0.276694; stroke-linejoin: miter"/>
   </g>
   <g id="patch_105">
    <path d="M 426.200152 385.478125 
L 429.343024 385.478125 
L 429.343024 384.54587 
L 426.200152 384.54587 
z
" clip-path="url(#p92beb7ff38)" style="fill: #1f77b4; fill-opacity: 0.5; stroke: #000000; stroke-width: 0.276694; stroke-linejoin: miter"/>
   </g>
   <g id="patch_106">
    <path d="M 429.343024 385.478125 
L 432.485895 385.478125 
L 432.485895 383.302863 
L 429.343024 383.302863 
z
" clip-path="url(#p92beb7ff38)" style="fill: #1f77b4; fill-opacity: 0.5; stroke: #000000; stroke-width: 0.276694; stroke-linejoin: miter"/>
   </g>
   <g id="patch_107">
    <path d="M 432.485895 385.478125 
L 435.628767 385.478125 
L 435.628767 385.478125 
L 432.485895 385.478125 
z
" clip-path="url(#p92beb7ff38)" style="fill: #1f77b4; fill-opacity: 0.5; stroke: #000000; stroke-width: 0.276694; stroke-linejoin: miter"/>
   </g>
   <g id="patch_108">
    <path d="M 435.628767 385.478125 
L 438.771638 385.478125 
L 438.771638 383.613615 
L 435.628767 383.613615 
z
" clip-path="url(#p92beb7ff38)" style="fill: #1f77b4; fill-opacity: 0.5; stroke: #000000; stroke-width: 0.276694; stroke-linejoin: miter"/>
   </g>
   <g id="patch_109">
    <path d="M 438.771638 385.478125 
L 441.91451 385.478125 
L 441.91451 384.856622 
L 438.771638 384.856622 
z
" clip-path="url(#p92beb7ff38)" style="fill: #1f77b4; fill-opacity: 0.5; stroke: #000000; stroke-width: 0.276694; stroke-linejoin: miter"/>
   </g>
   <g id="patch_110">
    <path d="M 441.91451 385.478125 
L 445.057382 385.478125 
L 445.057382 383.302863 
L 441.91451 383.302863 
z
" clip-path="url(#p92beb7ff38)" style="fill: #1f77b4; fill-opacity: 0.5; stroke: #000000; stroke-width: 0.276694; stroke-linejoin: miter"/>
   </g>
   <g id="patch_111">
    <path d="M 445.057382 385.478125 
L 448.200253 385.478125 
L 448.200253 385.478125 
L 445.057382 385.478125 
z
" clip-path="url(#p92beb7ff38)" style="fill: #1f77b4; fill-opacity: 0.5; stroke: #000000; stroke-width: 0.276694; stroke-linejoin: miter"/>
   </g>
   <g id="patch_112">
    <path d="M 448.200253 385.478125 
L 451.343125 385.478125 
L 451.343125 382.992111 
L 448.200253 382.992111 
z
" clip-path="url(#p92beb7ff38)" style="fill: #1f77b4; fill-opacity: 0.5; stroke: #000000; stroke-width: 0.276694; stroke-linejoin: miter"/>
   </g>
   <g id="patch_113">
    <path d="M 451.343125 385.478125 
L 454.485997 385.478125 
L 454.485997 383.613615 
L 451.343125 383.613615 
z
" clip-path="url(#p92beb7ff38)" style="fill: #1f77b4; fill-opacity: 0.5; stroke: #000000; stroke-width: 0.276694; stroke-linejoin: miter"/>
   </g>
   <g id="patch_114">
    <path d="M 454.485997 385.478125 
L 457.628868 385.478125 
L 457.628868 385.478125 
L 454.485997 385.478125 
z
" clip-path="url(#p92beb7ff38)" style="fill: #1f77b4; fill-opacity: 0.5; stroke: #000000; stroke-width: 0.276694; stroke-linejoin: miter"/>
   </g>
   <g id="patch_115">
    <path d="M 457.628868 385.478125 
L 460.77174 385.478125 
L 460.77174 384.235118 
L 457.628868 384.235118 
z
" clip-path="url(#p92beb7ff38)" style="fill: #1f77b4; fill-opacity: 0.5; stroke: #000000; stroke-width: 0.276694; stroke-linejoin: miter"/>
   </g>
   <g id="patch_116">
    <path d="M 460.77174 385.478125 
L 463.914612 385.478125 
L 463.914612 383.924366 
L 460.77174 383.924366 
z
" clip-path="url(#p92beb7ff38)" style="fill: #1f77b4; fill-opacity: 0.5; stroke: #000000; stroke-width: 0.276694; stroke-linejoin: miter"/>
   </g>
   <g id="patch_117">
    <path d="M 463.914612 385.478125 
L 467.057483 385.478125 
L 467.057483 384.856622 
L 463.914612 384.856622 
z
" clip-path="url(#p92beb7ff38)" style="fill: #1f77b4; fill-opacity: 0.5; stroke: #000000; stroke-width: 0.276694; stroke-linejoin: miter"/>
   </g>
   <g id="patch_118">
    <path d="M 467.057483 385.478125 
L 470.200355 385.478125 
L 470.200355 385.478125 
L 467.057483 385.478125 
z
" clip-path="url(#p92beb7ff38)" style="fill: #1f77b4; fill-opacity: 0.5; stroke: #000000; stroke-width: 0.276694; stroke-linejoin: miter"/>
   </g>
   <g id="patch_119">
    <path d="M 470.200355 385.478125 
L 473.343226 385.478125 
L 473.343226 384.856622 
L 470.200355 384.856622 
z
" clip-path="url(#p92beb7ff38)" style="fill: #1f77b4; fill-opacity: 0.5; stroke: #000000; stroke-width: 0.276694; stroke-linejoin: miter"/>
   </g>
   <g id="patch_120">
    <path d="M 473.343226 385.478125 
L 476.486098 385.478125 
L 476.486098 383.613615 
L 473.343226 383.613615 
z
" clip-path="url(#p92beb7ff38)" style="fill: #1f77b4; fill-opacity: 0.5; stroke: #000000; stroke-width: 0.276694; stroke-linejoin: miter"/>
   </g>
   <g id="patch_121">
    <path d="M 476.486098 385.478125 
L 479.62897 385.478125 
L 479.62897 385.478125 
L 476.486098 385.478125 
z
" clip-path="url(#p92beb7ff38)" style="fill: #1f77b4; fill-opacity: 0.5; stroke: #000000; stroke-width: 0.276694; stroke-linejoin: miter"/>
   </g>
   <g id="patch_122">
    <path d="M 479.62897 385.478125 
L 482.771841 385.478125 
L 482.771841 385.167373 
L 479.62897 385.167373 
z
" clip-path="url(#p92beb7ff38)" style="fill: #1f77b4; fill-opacity: 0.5; stroke: #000000; stroke-width: 0.276694; stroke-linejoin: miter"/>
   </g>
   <g id="patch_123">
    <path d="M 482.771841 385.478125 
L 485.914713 385.478125 
L 485.914713 385.167373 
L 482.771841 385.167373 
z
" clip-path="url(#p92beb7ff38)" style="fill: #1f77b4; fill-opacity: 0.5; stroke: #000000; stroke-width: 0.276694; stroke-linejoin: miter"/>
   </g>
   <g id="patch_124">
    <path d="M 485.914713 385.478125 
L 489.057585 385.478125 
L 489.057585 385.478125 
L 485.914713 385.478125 
z
" clip-path="url(#p92beb7ff38)" style="fill: #1f77b4; fill-opacity: 0.5; stroke: #000000; stroke-width: 0.276694; stroke-linejoin: miter"/>
   </g>
   <g id="patch_125">
    <path d="M 489.057585 385.478125 
L 492.200456 385.478125 
L 492.200456 384.856622 
L 489.057585 384.856622 
z
" clip-path="url(#p92beb7ff38)" style="fill: #1f77b4; fill-opacity: 0.5; stroke: #000000; stroke-width: 0.276694; stroke-linejoin: miter"/>
   </g>
   <g id="patch_126">
    <path d="M 492.200456 385.478125 
L 495.343328 385.478125 
L 495.343328 385.478125 
L 492.200456 385.478125 
z
" clip-path="url(#p92beb7ff38)" style="fill: #1f77b4; fill-opacity: 0.5; stroke: #000000; stroke-width: 0.276694; stroke-linejoin: miter"/>
   </g>
   <g id="patch_127">
    <path d="M 495.343328 385.478125 
L 498.4862 385.478125 
L 498.4862 385.478125 
L 495.343328 385.478125 
z
" clip-path="url(#p92beb7ff38)" style="fill: #1f77b4; fill-opacity: 0.5; stroke: #000000; stroke-width: 0.276694; stroke-linejoin: miter"/>
   </g>
   <g id="patch_128">
    <path d="M 498.4862 385.478125 
L 501.629071 385.478125 
L 501.629071 385.478125 
L 498.4862 385.478125 
z
" clip-path="url(#p92beb7ff38)" style="fill: #1f77b4; fill-opacity: 0.5; stroke: #000000; stroke-width: 0.276694; stroke-linejoin: miter"/>
   </g>
   <g id="patch_129">
    <path d="M 501.629071 385.478125 
L 504.771943 385.478125 
L 504.771943 384.856622 
L 501.629071 384.856622 
z
" clip-path="url(#p92beb7ff38)" style="fill: #1f77b4; fill-opacity: 0.5; stroke: #000000; stroke-width: 0.276694; stroke-linejoin: miter"/>
   </g>
   <g id="patch_130">
    <path d="M 504.771943 385.478125 
L 507.914815 385.478125 
L 507.914815 384.54587 
L 504.771943 384.54587 
z
" clip-path="url(#p92beb7ff38)" style="fill: #1f77b4; fill-opacity: 0.5; stroke: #000000; stroke-width: 0.276694; stroke-linejoin: miter"/>
   </g>
   <g id="patch_131">
    <path d="M 507.914815 385.478125 
L 511.057686 385.478125 
L 511.057686 385.478125 
L 507.914815 385.478125 
z
" clip-path="url(#p92beb7ff38)" style="fill: #1f77b4; fill-opacity: 0.5; stroke: #000000; stroke-width: 0.276694; stroke-linejoin: miter"/>
   </g>
   <g id="patch_132">
    <path d="M 511.057686 385.478125 
L 514.200558 385.478125 
L 514.200558 384.856622 
L 511.057686 384.856622 
z
" clip-path="url(#p92beb7ff38)" style="fill: #1f77b4; fill-opacity: 0.5; stroke: #000000; stroke-width: 0.276694; stroke-linejoin: miter"/>
   </g>
   <g id="patch_133">
    <path d="M 514.200558 385.478125 
L 517.343429 385.478125 
L 517.343429 384.856622 
L 514.200558 384.856622 
z
" clip-path="url(#p92beb7ff38)" style="fill: #1f77b4; fill-opacity: 0.5; stroke: #000000; stroke-width: 0.276694; stroke-linejoin: miter"/>
   </g>
   <g id="patch_134">
    <path d="M 517.343429 385.478125 
L 520.486301 385.478125 
L 520.486301 385.478125 
L 517.343429 385.478125 
z
" clip-path="url(#p92beb7ff38)" style="fill: #1f77b4; fill-opacity: 0.5; stroke: #000000; stroke-width: 0.276694; stroke-linejoin: miter"/>
   </g>
   <g id="patch_135">
    <path d="M 520.486301 385.478125 
L 523.629173 385.478125 
L 523.629173 385.478125 
L 520.486301 385.478125 
z
" clip-path="url(#p92beb7ff38)" style="fill: #1f77b4; fill-opacity: 0.5; stroke: #000000; stroke-width: 0.276694; stroke-linejoin: miter"/>
   </g>
   <g id="patch_136">
    <path d="M 523.629173 385.478125 
L 526.772044 385.478125 
L 526.772044 384.54587 
L 523.629173 384.54587 
z
" clip-path="url(#p92beb7ff38)" style="fill: #1f77b4; fill-opacity: 0.5; stroke: #000000; stroke-width: 0.276694; stroke-linejoin: miter"/>
   </g>
   <g id="patch_137">
    <path d="M 526.772044 385.478125 
L 529.914916 385.478125 
L 529.914916 385.167373 
L 526.772044 385.167373 
z
" clip-path="url(#p92beb7ff38)" style="fill: #1f77b4; fill-opacity: 0.5; stroke: #000000; stroke-width: 0.276694; stroke-linejoin: miter"/>
   </g>
   <g id="patch_138">
    <path d="M 529.914916 385.478125 
L 533.057788 385.478125 
L 533.057788 385.478125 
L 529.914916 385.478125 
z
" clip-path="url(#p92beb7ff38)" style="fill: #1f77b4; fill-opacity: 0.5; stroke: #000000; stroke-width: 0.276694; stroke-linejoin: miter"/>
   </g>
   <g id="patch_139">
    <path d="M 533.057788 385.478125 
L 536.200659 385.478125 
L 536.200659 384.856622 
L 533.057788 384.856622 
z
" clip-path="url(#p92beb7ff38)" style="fill: #1f77b4; fill-opacity: 0.5; stroke: #000000; stroke-width: 0.276694; stroke-linejoin: miter"/>
   </g>
   <g id="patch_140">
    <path d="M 536.200659 385.478125 
L 539.343531 385.478125 
L 539.343531 385.478125 
L 536.200659 385.478125 
z
" clip-path="url(#p92beb7ff38)" style="fill: #1f77b4; fill-opacity: 0.5; stroke: #000000; stroke-width: 0.276694; stroke-linejoin: miter"/>
   </g>
   <g id="patch_141">
    <path d="M 539.343531 385.478125 
L 542.486403 385.478125 
L 542.486403 385.478125 
L 539.343531 385.478125 
z
" clip-path="url(#p92beb7ff38)" style="fill: #1f77b4; fill-opacity: 0.5; stroke: #000000; stroke-width: 0.276694; stroke-linejoin: miter"/>
   </g>
   <g id="patch_142">
    <path d="M 542.486403 385.478125 
L 545.629274 385.478125 
L 545.629274 385.167373 
L 542.486403 385.167373 
z
" clip-path="url(#p92beb7ff38)" style="fill: #1f77b4; fill-opacity: 0.5; stroke: #000000; stroke-width: 0.276694; stroke-linejoin: miter"/>
   </g>
   <g id="patch_143">
    <path d="M 545.629274 385.478125 
L 548.772146 385.478125 
L 548.772146 384.856622 
L 545.629274 384.856622 
z
" clip-path="url(#p92beb7ff38)" style="fill: #1f77b4; fill-opacity: 0.5; stroke: #000000; stroke-width: 0.276694; stroke-linejoin: miter"/>
   </g>
   <g id="patch_144">
    <path d="M 548.772146 385.478125 
L 551.915018 385.478125 
L 551.915018 385.478125 
L 548.772146 385.478125 
z
" clip-path="url(#p92beb7ff38)" style="fill: #1f77b4; fill-opacity: 0.5; stroke: #000000; stroke-width: 0.276694; stroke-linejoin: miter"/>
   </g>
   <g id="patch_145">
    <path d="M 551.915018 385.478125 
L 555.057889 385.478125 
L 555.057889 385.478125 
L 551.915018 385.478125 
z
" clip-path="url(#p92beb7ff38)" style="fill: #1f77b4; fill-opacity: 0.5; stroke: #000000; stroke-width: 0.276694; stroke-linejoin: miter"/>
   </g>
   <g id="patch_146">
    <path d="M 555.057889 385.478125 
L 558.200761 385.478125 
L 558.200761 384.856622 
L 555.057889 384.856622 
z
" clip-path="url(#p92beb7ff38)" style="fill: #1f77b4; fill-opacity: 0.5; stroke: #000000; stroke-width: 0.276694; stroke-linejoin: miter"/>
   </g>
   <g id="patch_147">
    <path d="M 558.200761 385.478125 
L 561.343632 385.478125 
L 561.343632 385.478125 
L 558.200761 385.478125 
z
" clip-path="url(#p92beb7ff38)" style="fill: #1f77b4; fill-opacity: 0.5; stroke: #000000; stroke-width: 0.276694; stroke-linejoin: miter"/>
   </g>
   <g id="patch_148">
    <path d="M 561.343632 385.478125 
L 564.486504 385.478125 
L 564.486504 385.478125 
L 561.343632 385.478125 
z
" clip-path="url(#p92beb7ff38)" style="fill: #1f77b4; fill-opacity: 0.5; stroke: #000000; stroke-width: 0.276694; stroke-linejoin: miter"/>
   </g>
   <g id="patch_149">
    <path d="M 564.486504 385.478125 
L 567.629376 385.478125 
L 567.629376 385.478125 
L 564.486504 385.478125 
z
" clip-path="url(#p92beb7ff38)" style="fill: #1f77b4; fill-opacity: 0.5; stroke: #000000; stroke-width: 0.276694; stroke-linejoin: miter"/>
   </g>
   <g id="patch_150">
    <path d="M 567.629376 385.478125 
L 570.772247 385.478125 
L 570.772247 385.167373 
L 567.629376 385.167373 
z
" clip-path="url(#p92beb7ff38)" style="fill: #1f77b4; fill-opacity: 0.5; stroke: #000000; stroke-width: 0.276694; stroke-linejoin: miter"/>
   </g>
   <g id="patch_151">
    <path d="M 570.772247 385.478125 
L 573.915119 385.478125 
L 573.915119 385.478125 
L 570.772247 385.478125 
z
" clip-path="url(#p92beb7ff38)" style="fill: #1f77b4; fill-opacity: 0.5; stroke: #000000; stroke-width: 0.276694; stroke-linejoin: miter"/>
   </g>
   <g id="patch_152">
    <path d="M 573.915119 385.478125 
L 577.057991 385.478125 
L 577.057991 385.478125 
L 573.915119 385.478125 
z
" clip-path="url(#p92beb7ff38)" style="fill: #1f77b4; fill-opacity: 0.5; stroke: #000000; stroke-width: 0.276694; stroke-linejoin: miter"/>
   </g>
   <g id="patch_153">
    <path d="M 577.057991 385.478125 
L 580.200862 385.478125 
L 580.200862 385.478125 
L 577.057991 385.478125 
z
" clip-path="url(#p92beb7ff38)" style="fill: #1f77b4; fill-opacity: 0.5; stroke: #000000; stroke-width: 0.276694; stroke-linejoin: miter"/>
   </g>
   <g id="patch_154">
    <path d="M 580.200862 385.478125 
L 583.343734 385.478125 
L 583.343734 385.167373 
L 580.200862 385.167373 
z
" clip-path="url(#p92beb7ff38)" style="fill: #1f77b4; fill-opacity: 0.5; stroke: #000000; stroke-width: 0.276694; stroke-linejoin: miter"/>
   </g>
   <g id="patch_155">
    <path d="M 583.343734 385.478125 
L 586.486606 385.478125 
L 586.486606 385.478125 
L 583.343734 385.478125 
z
" clip-path="url(#p92beb7ff38)" style="fill: #1f77b4; fill-opacity: 0.5; stroke: #000000; stroke-width: 0.276694; stroke-linejoin: miter"/>
   </g>
   <g id="patch_156">
    <path d="M 586.486606 385.478125 
L 589.629477 385.478125 
L 589.629477 385.478125 
L 586.486606 385.478125 
z
" clip-path="url(#p92beb7ff38)" style="fill: #1f77b4; fill-opacity: 0.5; stroke: #000000; stroke-width: 0.276694; stroke-linejoin: miter"/>
   </g>
   <g id="patch_157">
    <path d="M 589.629477 385.478125 
L 592.772349 385.478125 
L 592.772349 385.478125 
L 589.629477 385.478125 
z
" clip-path="url(#p92beb7ff38)" style="fill: #1f77b4; fill-opacity: 0.5; stroke: #000000; stroke-width: 0.276694; stroke-linejoin: miter"/>
   </g>
   <g id="patch_158">
    <path d="M 592.772349 385.478125 
L 595.915221 385.478125 
L 595.915221 385.478125 
L 592.772349 385.478125 
z
" clip-path="url(#p92beb7ff38)" style="fill: #1f77b4; fill-opacity: 0.5; stroke: #000000; stroke-width: 0.276694; stroke-linejoin: miter"/>
   </g>
   <g id="patch_159">
    <path d="M 595.915221 385.478125 
L 599.058092 385.478125 
L 599.058092 385.167373 
L 595.915221 385.167373 
z
" clip-path="url(#p92beb7ff38)" style="fill: #1f77b4; fill-opacity: 0.5; stroke: #000000; stroke-width: 0.276694; stroke-linejoin: miter"/>
   </g>
   <g id="patch_160">
    <path d="M 599.058092 385.478125 
L 602.200964 385.478125 
L 602.200964 385.167373 
L 599.058092 385.167373 
z
" clip-path="url(#p92beb7ff38)" style="fill: #1f77b4; fill-opacity: 0.5; stroke: #000000; stroke-width: 0.276694; stroke-linejoin: miter"/>
   </g>
   <g id="patch_161">
    <path d="M 602.200964 385.478125 
L 605.343835 385.478125 
L 605.343835 385.478125 
L 602.200964 385.478125 
z
" clip-path="url(#p92beb7ff38)" style="fill: #1f77b4; fill-opacity: 0.5; stroke: #000000; stroke-width: 0.276694; stroke-linejoin: miter"/>
   </g>
   <g id="patch_162">
    <path d="M 605.343835 385.478125 
L 608.486707 385.478125 
L 608.486707 385.478125 
L 605.343835 385.478125 
z
" clip-path="url(#p92beb7ff38)" style="fill: #1f77b4; fill-opacity: 0.5; stroke: #000000; stroke-width: 0.276694; stroke-linejoin: miter"/>
   </g>
   <g id="patch_163">
    <path d="M 608.486707 385.478125 
L 611.629579 385.478125 
L 611.629579 385.167373 
L 608.486707 385.167373 
z
" clip-path="url(#p92beb7ff38)" style="fill: #1f77b4; fill-opacity: 0.5; stroke: #000000; stroke-width: 0.276694; stroke-linejoin: miter"/>
   </g>
   <g id="patch_164">
    <path d="M 611.629579 385.478125 
L 614.77245 385.478125 
L 614.77245 385.478125 
L 611.629579 385.478125 
z
" clip-path="url(#p92beb7ff38)" style="fill: #1f77b4; fill-opacity: 0.5; stroke: #000000; stroke-width: 0.276694; stroke-linejoin: miter"/>
   </g>
   <g id="patch_165">
    <path d="M 614.77245 385.478125 
L 617.915322 385.478125 
L 617.915322 385.478125 
L 614.77245 385.478125 
z
" clip-path="url(#p92beb7ff38)" style="fill: #1f77b4; fill-opacity: 0.5; stroke: #000000; stroke-width: 0.276694; stroke-linejoin: miter"/>
   </g>
   <g id="patch_166">
    <path d="M 617.915322 385.478125 
L 621.058194 385.478125 
L 621.058194 385.478125 
L 617.915322 385.478125 
z
" clip-path="url(#p92beb7ff38)" style="fill: #1f77b4; fill-opacity: 0.5; stroke: #000000; stroke-width: 0.276694; stroke-linejoin: miter"/>
   </g>
   <g id="patch_167">
    <path d="M 621.058194 385.478125 
L 624.201065 385.478125 
L 624.201065 385.167373 
L 621.058194 385.167373 
z
" clip-path="url(#p92beb7ff38)" style="fill: #1f77b4; fill-opacity: 0.5; stroke: #000000; stroke-width: 0.276694; stroke-linejoin: miter"/>
   </g>
   <g id="patch_168">
    <path d="M 624.201065 385.478125 
L 627.343937 385.478125 
L 627.343937 385.478125 
L 624.201065 385.478125 
z
" clip-path="url(#p92beb7ff38)" style="fill: #1f77b4; fill-opacity: 0.5; stroke: #000000; stroke-width: 0.276694; stroke-linejoin: miter"/>
   </g>
   <g id="patch_169">
    <path d="M 627.343937 385.478125 
L 630.486809 385.478125 
L 630.486809 385.167373 
L 627.343937 385.167373 
z
" clip-path="url(#p92beb7ff38)" style="fill: #1f77b4; fill-opacity: 0.5; stroke: #000000; stroke-width: 0.276694; stroke-linejoin: miter"/>
   </g>
   <g id="patch_170">
    <path d="M 630.486809 385.478125 
L 633.62968 385.478125 
L 633.62968 385.478125 
L 630.486809 385.478125 
z
" clip-path="url(#p92beb7ff38)" style="fill: #1f77b4; fill-opacity: 0.5; stroke: #000000; stroke-width: 0.276694; stroke-linejoin: miter"/>
   </g>
   <g id="patch_171">
    <path d="M 633.62968 385.478125 
L 636.772552 385.478125 
L 636.772552 385.478125 
L 633.62968 385.478125 
z
" clip-path="url(#p92beb7ff38)" style="fill: #1f77b4; fill-opacity: 0.5; stroke: #000000; stroke-width: 0.276694; stroke-linejoin: miter"/>
   </g>
   <g id="patch_172">
    <path d="M 636.772552 385.478125 
L 639.915424 385.478125 
L 639.915424 385.478125 
L 636.772552 385.478125 
z
" clip-path="url(#p92beb7ff38)" style="fill: #1f77b4; fill-opacity: 0.5; stroke: #000000; stroke-width: 0.276694; stroke-linejoin: miter"/>
   </g>
   <g id="patch_173">
    <path d="M 639.915424 385.478125 
L 643.058295 385.478125 
L 643.058295 385.478125 
L 639.915424 385.478125 
z
" clip-path="url(#p92beb7ff38)" style="fill: #1f77b4; fill-opacity: 0.5; stroke: #000000; stroke-width: 0.276694; stroke-linejoin: miter"/>
   </g>
   <g id="patch_174">
    <path d="M 643.058295 385.478125 
L 646.201167 385.478125 
L 646.201167 385.478125 
L 643.058295 385.478125 
z
" clip-path="url(#p92beb7ff38)" style="fill: #1f77b4; fill-opacity: 0.5; stroke: #000000; stroke-width: 0.276694; stroke-linejoin: miter"/>
   </g>
   <g id="patch_175">
    <path d="M 646.201167 385.478125 
L 649.344038 385.478125 
L 649.344038 385.478125 
L 646.201167 385.478125 
z
" clip-path="url(#p92beb7ff38)" style="fill: #1f77b4; fill-opacity: 0.5; stroke: #000000; stroke-width: 0.276694; stroke-linejoin: miter"/>
   </g>
   <g id="patch_176">
    <path d="M 649.344038 385.478125 
L 652.48691 385.478125 
L 652.48691 385.478125 
L 649.344038 385.478125 
z
" clip-path="url(#p92beb7ff38)" style="fill: #1f77b4; fill-opacity: 0.5; stroke: #000000; stroke-width: 0.276694; stroke-linejoin: miter"/>
   </g>
   <g id="patch_177">
    <path d="M 652.48691 385.478125 
L 655.629782 385.478125 
L 655.629782 385.478125 
L 652.48691 385.478125 
z
" clip-path="url(#p92beb7ff38)" style="fill: #1f77b4; fill-opacity: 0.5; stroke: #000000; stroke-width: 0.276694; stroke-linejoin: miter"/>
   </g>
   <g id="patch_178">
    <path d="M 655.629782 385.478125 
L 658.772653 385.478125 
L 658.772653 385.478125 
L 655.629782 385.478125 
z
" clip-path="url(#p92beb7ff38)" style="fill: #1f77b4; fill-opacity: 0.5; stroke: #000000; stroke-width: 0.276694; stroke-linejoin: miter"/>
   </g>
   <g id="patch_179">
    <path d="M 658.772653 385.478125 
L 661.915525 385.478125 
L 661.915525 385.478125 
L 658.772653 385.478125 
z
" clip-path="url(#p92beb7ff38)" style="fill: #1f77b4; fill-opacity: 0.5; stroke: #000000; stroke-width: 0.276694; stroke-linejoin: miter"/>
   </g>
   <g id="patch_180">
    <path d="M 661.915525 385.478125 
L 665.058397 385.478125 
L 665.058397 385.167373 
L 661.915525 385.167373 
z
" clip-path="url(#p92beb7ff38)" style="fill: #1f77b4; fill-opacity: 0.5; stroke: #000000; stroke-width: 0.276694; stroke-linejoin: miter"/>
   </g>
   <g id="patch_181">
    <path d="M 665.058397 385.478125 
L 668.201268 385.478125 
L 668.201268 385.167373 
L 665.058397 385.167373 
z
" clip-path="url(#p92beb7ff38)" style="fill: #1f77b4; fill-opacity: 0.5; stroke: #000000; stroke-width: 0.276694; stroke-linejoin: miter"/>
   </g>
   <g id="patch_182">
    <path d="M 668.201268 385.478125 
L 671.34414 385.478125 
L 671.34414 385.478125 
L 668.201268 385.478125 
z
" clip-path="url(#p92beb7ff38)" style="fill: #1f77b4; fill-opacity: 0.5; stroke: #000000; stroke-width: 0.276694; stroke-linejoin: miter"/>
   </g>
   <g id="patch_183">
    <path d="M 671.34414 385.478125 
L 674.487012 385.478125 
L 674.487012 385.478125 
L 671.34414 385.478125 
z
" clip-path="url(#p92beb7ff38)" style="fill: #1f77b4; fill-opacity: 0.5; stroke: #000000; stroke-width: 0.276694; stroke-linejoin: miter"/>
   </g>
   <g id="patch_184">
    <path d="M 674.487012 385.478125 
L 677.629883 385.478125 
L 677.629883 385.478125 
L 674.487012 385.478125 
z
" clip-path="url(#p92beb7ff38)" style="fill: #1f77b4; fill-opacity: 0.5; stroke: #000000; stroke-width: 0.276694; stroke-linejoin: miter"/>
   </g>
   <g id="patch_185">
    <path d="M 677.629883 385.478125 
L 680.772755 385.478125 
L 680.772755 385.478125 
L 677.629883 385.478125 
z
" clip-path="url(#p92beb7ff38)" style="fill: #1f77b4; fill-opacity: 0.5; stroke: #000000; stroke-width: 0.276694; stroke-linejoin: miter"/>
   </g>
   <g id="patch_186">
    <path d="M 680.772755 385.478125 
L 683.915627 385.478125 
L 683.915627 385.167373 
L 680.772755 385.167373 
z
" clip-path="url(#p92beb7ff38)" style="fill: #1f77b4; fill-opacity: 0.5; stroke: #000000; stroke-width: 0.276694; stroke-linejoin: miter"/>
   </g>
   <g id="patch_187">
    <path d="M 683.915627 385.478125 
L 687.058498 385.478125 
L 687.058498 385.478125 
L 683.915627 385.478125 
z
" clip-path="url(#p92beb7ff38)" style="fill: #1f77b4; fill-opacity: 0.5; stroke: #000000; stroke-width: 0.276694; stroke-linejoin: miter"/>
   </g>
   <g id="patch_188">
    <path d="M 687.058498 385.478125 
L 690.20137 385.478125 
L 690.20137 385.478125 
L 687.058498 385.478125 
z
" clip-path="url(#p92beb7ff38)" style="fill: #1f77b4; fill-opacity: 0.5; stroke: #000000; stroke-width: 0.276694; stroke-linejoin: miter"/>
   </g>
   <g id="patch_189">
    <path d="M 690.20137 385.478125 
L 693.344241 385.478125 
L 693.344241 385.478125 
L 690.20137 385.478125 
z
" clip-path="url(#p92beb7ff38)" style="fill: #1f77b4; fill-opacity: 0.5; stroke: #000000; stroke-width: 0.276694; stroke-linejoin: miter"/>
   </g>
   <g id="patch_190">
    <path d="M 693.344241 385.478125 
L 696.487113 385.478125 
L 696.487113 385.478125 
L 693.344241 385.478125 
z
" clip-path="url(#p92beb7ff38)" style="fill: #1f77b4; fill-opacity: 0.5; stroke: #000000; stroke-width: 0.276694; stroke-linejoin: miter"/>
   </g>
   <g id="patch_191">
    <path d="M 696.487113 385.478125 
L 699.629985 385.478125 
L 699.629985 385.167373 
L 696.487113 385.167373 
z
" clip-path="url(#p92beb7ff38)" style="fill: #1f77b4; fill-opacity: 0.5; stroke: #000000; stroke-width: 0.276694; stroke-linejoin: miter"/>
   </g>
   <g id="patch_192">
    <path d="M 699.629985 385.478125 
L 702.772856 385.478125 
L 702.772856 385.478125 
L 699.629985 385.478125 
z
" clip-path="url(#p92beb7ff38)" style="fill: #1f77b4; fill-opacity: 0.5; stroke: #000000; stroke-width: 0.276694; stroke-linejoin: miter"/>
   </g>
   <g id="patch_193">
    <path d="M 702.772856 385.478125 
L 705.915728 385.478125 
L 705.915728 385.167373 
L 702.772856 385.167373 
z
" clip-path="url(#p92beb7ff38)" style="fill: #1f77b4; fill-opacity: 0.5; stroke: #000000; stroke-width: 0.276694; stroke-linejoin: miter"/>
   </g>
   <g id="patch_194">
    <path d="M 705.915728 385.478125 
L 709.0586 385.478125 
L 709.0586 385.478125 
L 705.915728 385.478125 
z
" clip-path="url(#p92beb7ff38)" style="fill: #1f77b4; fill-opacity: 0.5; stroke: #000000; stroke-width: 0.276694; stroke-linejoin: miter"/>
   </g>
   <g id="patch_195">
    <path d="M 709.0586 385.478125 
L 712.201471 385.478125 
L 712.201471 385.478125 
L 709.0586 385.478125 
z
" clip-path="url(#p92beb7ff38)" style="fill: #1f77b4; fill-opacity: 0.5; stroke: #000000; stroke-width: 0.276694; stroke-linejoin: miter"/>
   </g>
   <g id="patch_196">
    <path d="M 712.201471 385.478125 
L 715.344343 385.478125 
L 715.344343 385.478125 
L 712.201471 385.478125 
z
" clip-path="url(#p92beb7ff38)" style="fill: #1f77b4; fill-opacity: 0.5; stroke: #000000; stroke-width: 0.276694; stroke-linejoin: miter"/>
   </g>
   <g id="patch_197">
    <path d="M 715.344343 385.478125 
L 718.487215 385.478125 
L 718.487215 385.478125 
L 715.344343 385.478125 
z
" clip-path="url(#p92beb7ff38)" style="fill: #1f77b4; fill-opacity: 0.5; stroke: #000000; stroke-width: 0.276694; stroke-linejoin: miter"/>
   </g>
   <g id="patch_198">
    <path d="M 718.487215 385.478125 
L 721.630086 385.478125 
L 721.630086 385.478125 
L 718.487215 385.478125 
z
" clip-path="url(#p92beb7ff38)" style="fill: #1f77b4; fill-opacity: 0.5; stroke: #000000; stroke-width: 0.276694; stroke-linejoin: miter"/>
   </g>
   <g id="patch_199">
    <path d="M 721.630086 385.478125 
L 724.772958 385.478125 
L 724.772958 385.478125 
L 721.630086 385.478125 
z
" clip-path="url(#p92beb7ff38)" style="fill: #1f77b4; fill-opacity: 0.5; stroke: #000000; stroke-width: 0.276694; stroke-linejoin: miter"/>
   </g>
   <g id="patch_200">
    <path d="M 724.772958 385.478125 
L 727.91583 385.478125 
L 727.91583 385.478125 
L 724.772958 385.478125 
z
" clip-path="url(#p92beb7ff38)" style="fill: #1f77b4; fill-opacity: 0.5; stroke: #000000; stroke-width: 0.276694; stroke-linejoin: miter"/>
   </g>
   <g id="patch_201">
    <path d="M 727.91583 385.478125 
L 731.058701 385.478125 
L 731.058701 385.478125 
L 727.91583 385.478125 
z
" clip-path="url(#p92beb7ff38)" style="fill: #1f77b4; fill-opacity: 0.5; stroke: #000000; stroke-width: 0.276694; stroke-linejoin: miter"/>
   </g>
   <g id="patch_202">
    <path d="M 731.058701 385.478125 
L 734.201573 385.478125 
L 734.201573 385.478125 
L 731.058701 385.478125 
z
" clip-path="url(#p92beb7ff38)" style="fill: #1f77b4; fill-opacity: 0.5; stroke: #000000; stroke-width: 0.276694; stroke-linejoin: miter"/>
   </g>
   <g id="patch_203">
    <path d="M 734.201573 385.478125 
L 737.344444 385.478125 
L 737.344444 385.478125 
L 734.201573 385.478125 
z
" clip-path="url(#p92beb7ff38)" style="fill: #1f77b4; fill-opacity: 0.5; stroke: #000000; stroke-width: 0.276694; stroke-linejoin: miter"/>
   </g>
   <g id="patch_204">
    <path d="M 737.344444 385.478125 
L 740.487316 385.478125 
L 740.487316 385.478125 
L 737.344444 385.478125 
z
" clip-path="url(#p92beb7ff38)" style="fill: #1f77b4; fill-opacity: 0.5; stroke: #000000; stroke-width: 0.276694; stroke-linejoin: miter"/>
   </g>
   <g id="patch_205">
    <path d="M 740.487316 385.478125 
L 743.630188 385.478125 
L 743.630188 385.478125 
L 740.487316 385.478125 
z
" clip-path="url(#p92beb7ff38)" style="fill: #1f77b4; fill-opacity: 0.5; stroke: #000000; stroke-width: 0.276694; stroke-linejoin: miter"/>
   </g>
   <g id="patch_206">
    <path d="M 743.630188 385.478125 
L 746.773059 385.478125 
L 746.773059 385.478125 
L 743.630188 385.478125 
z
" clip-path="url(#p92beb7ff38)" style="fill: #1f77b4; fill-opacity: 0.5; stroke: #000000; stroke-width: 0.276694; stroke-linejoin: miter"/>
   </g>
   <g id="patch_207">
    <path d="M 746.773059 385.478125 
L 749.915931 385.478125 
L 749.915931 385.478125 
L 746.773059 385.478125 
z
" clip-path="url(#p92beb7ff38)" style="fill: #1f77b4; fill-opacity: 0.5; stroke: #000000; stroke-width: 0.276694; stroke-linejoin: miter"/>
   </g>
   <g id="patch_208">
    <path d="M 749.915931 385.478125 
L 753.058803 385.478125 
L 753.058803 385.478125 
L 749.915931 385.478125 
z
" clip-path="url(#p92beb7ff38)" style="fill: #1f77b4; fill-opacity: 0.5; stroke: #000000; stroke-width: 0.276694; stroke-linejoin: miter"/>
   </g>
   <g id="patch_209">
    <path d="M 753.058803 385.478125 
L 756.201674 385.478125 
L 756.201674 385.478125 
L 753.058803 385.478125 
z
" clip-path="url(#p92beb7ff38)" style="fill: #1f77b4; fill-opacity: 0.5; stroke: #000000; stroke-width: 0.276694; stroke-linejoin: miter"/>
   </g>
   <g id="patch_210">
    <path d="M 756.201674 385.478125 
L 759.344546 385.478125 
L 759.344546 385.478125 
L 756.201674 385.478125 
z
" clip-path="url(#p92beb7ff38)" style="fill: #1f77b4; fill-opacity: 0.5; stroke: #000000; stroke-width: 0.276694; stroke-linejoin: miter"/>
   </g>
   <g id="patch_211">
    <path d="M 759.344546 385.478125 
L 762.487418 385.478125 
L 762.487418 385.478125 
L 759.344546 385.478125 
z
" clip-path="url(#p92beb7ff38)" style="fill: #1f77b4; fill-opacity: 0.5; stroke: #000000; stroke-width: 0.276694; stroke-linejoin: miter"/>
   </g>
   <g id="patch_212">
    <path d="M 762.487418 385.478125 
L 765.630289 385.478125 
L 765.630289 385.478125 
L 762.487418 385.478125 
z
" clip-path="url(#p92beb7ff38)" style="fill: #1f77b4; fill-opacity: 0.5; stroke: #000000; stroke-width: 0.276694; stroke-linejoin: miter"/>
   </g>
   <g id="patch_213">
    <path d="M 765.630289 385.478125 
L 768.773161 385.478125 
L 768.773161 385.478125 
L 765.630289 385.478125 
z
" clip-path="url(#p92beb7ff38)" style="fill: #1f77b4; fill-opacity: 0.5; stroke: #000000; stroke-width: 0.276694; stroke-linejoin: miter"/>
   </g>
   <g id="patch_214">
    <path d="M 768.773161 385.478125 
L 771.916033 385.478125 
L 771.916033 385.478125 
L 768.773161 385.478125 
z
" clip-path="url(#p92beb7ff38)" style="fill: #1f77b4; fill-opacity: 0.5; stroke: #000000; stroke-width: 0.276694; stroke-linejoin: miter"/>
   </g>
   <g id="patch_215">
    <path d="M 771.916033 385.478125 
L 775.058904 385.478125 
L 775.058904 385.478125 
L 771.916033 385.478125 
z
" clip-path="url(#p92beb7ff38)" style="fill: #1f77b4; fill-opacity: 0.5; stroke: #000000; stroke-width: 0.276694; stroke-linejoin: miter"/>
   </g>
   <g id="patch_216">
    <path d="M 775.058904 385.478125 
L 778.201776 385.478125 
L 778.201776 385.478125 
L 775.058904 385.478125 
z
" clip-path="url(#p92beb7ff38)" style="fill: #1f77b4; fill-opacity: 0.5; stroke: #000000; stroke-width: 0.276694; stroke-linejoin: miter"/>
   </g>
   <g id="patch_217">
    <path d="M 778.201776 385.478125 
L 781.344647 385.478125 
L 781.344647 385.478125 
L 778.201776 385.478125 
z
" clip-path="url(#p92beb7ff38)" style="fill: #1f77b4; fill-opacity: 0.5; stroke: #000000; stroke-width: 0.276694; stroke-linejoin: miter"/>
   </g>
   <g id="patch_218">
    <path d="M 781.344647 385.478125 
L 784.487519 385.478125 
L 784.487519 385.478125 
L 781.344647 385.478125 
z
" clip-path="url(#p92beb7ff38)" style="fill: #1f77b4; fill-opacity: 0.5; stroke: #000000; stroke-width: 0.276694; stroke-linejoin: miter"/>
   </g>
   <g id="patch_219">
    <path d="M 784.487519 385.478125 
L 787.630391 385.478125 
L 787.630391 385.478125 
L 784.487519 385.478125 
z
" clip-path="url(#p92beb7ff38)" style="fill: #1f77b4; fill-opacity: 0.5; stroke: #000000; stroke-width: 0.276694; stroke-linejoin: miter"/>
   </g>
   <g id="patch_220">
    <path d="M 787.630391 385.478125 
L 790.773262 385.478125 
L 790.773262 385.478125 
L 787.630391 385.478125 
z
" clip-path="url(#p92beb7ff38)" style="fill: #1f77b4; fill-opacity: 0.5; stroke: #000000; stroke-width: 0.276694; stroke-linejoin: miter"/>
   </g>
   <g id="patch_221">
    <path d="M 790.773262 385.478125 
L 793.916134 385.478125 
L 793.916134 385.478125 
L 790.773262 385.478125 
z
" clip-path="url(#p92beb7ff38)" style="fill: #1f77b4; fill-opacity: 0.5; stroke: #000000; stroke-width: 0.276694; stroke-linejoin: miter"/>
   </g>
   <g id="patch_222">
    <path d="M 793.916134 385.478125 
L 797.059006 385.478125 
L 797.059006 385.167373 
L 793.916134 385.167373 
z
" clip-path="url(#p92beb7ff38)" style="fill: #1f77b4; fill-opacity: 0.5; stroke: #000000; stroke-width: 0.276694; stroke-linejoin: miter"/>
   </g>
   <g id="matplotlib.axis_1">
    <g id="xtick_1">
     <g id="line2d_1">
      <defs>
       <path id="m11f641470c" d="M 0 0 
L 0 3.5 
" style="stroke: #000000; stroke-width: 0.8"/>
      </defs>
      <g>
       <use xlink:href="#m11f641470c" x="105.627244" y="385.478125" style="stroke: #000000; stroke-width: 0.8"/>
      </g>
     </g>
     <g id="text_1">
      <!-- 0 -->
      <g transform="translate(102.445994 400.076562) scale(0.1 -0.1)">
       <defs>
        <path id="DejaVuSans-30" d="M 2034 4250 
Q 1547 4250 1301 3770 
Q 1056 3291 1056 2328 
Q 1056 1369 1301 889 
Q 1547 409 2034 409 
Q 2525 409 2770 889 
Q 3016 1369 3016 2328 
Q 3016 3291 2770 3770 
Q 2525 4250 2034 4250 
z
M 2034 4750 
Q 2819 4750 3233 4129 
Q 3647 3509 3647 2328 
Q 3647 1150 3233 529 
Q 2819 -91 2034 -91 
Q 1250 -91 836 529 
Q 422 1150 422 2328 
Q 422 3509 836 4129 
Q 1250 4750 2034 4750 
z
" transform="scale(0.015625)"/>
       </defs>
       <use xlink:href="#DejaVuSans-30"/>
      </g>
     </g>
    </g>
    <g id="xtick_2">
     <g id="line2d_2">
      <g>
       <use xlink:href="#m11f641470c" x="194.844246" y="385.478125" style="stroke: #000000; stroke-width: 0.8"/>
      </g>
     </g>
     <g id="text_2">
      <!-- 2 -->
      <g transform="translate(191.662996 400.076562) scale(0.1 -0.1)">
       <defs>
        <path id="DejaVuSans-32" d="M 1228 531 
L 3431 531 
L 3431 0 
L 469 0 
L 469 531 
Q 828 903 1448 1529 
Q 2069 2156 2228 2338 
Q 2531 2678 2651 2914 
Q 2772 3150 2772 3378 
Q 2772 3750 2511 3984 
Q 2250 4219 1831 4219 
Q 1534 4219 1204 4116 
Q 875 4013 500 3803 
L 500 4441 
Q 881 4594 1212 4672 
Q 1544 4750 1819 4750 
Q 2544 4750 2975 4387 
Q 3406 4025 3406 3419 
Q 3406 3131 3298 2873 
Q 3191 2616 2906 2266 
Q 2828 2175 2409 1742 
Q 1991 1309 1228 531 
z
" transform="scale(0.015625)"/>
       </defs>
       <use xlink:href="#DejaVuSans-32"/>
      </g>
     </g>
    </g>
    <g id="xtick_3">
     <g id="line2d_3">
      <g>
       <use xlink:href="#m11f641470c" x="284.061247" y="385.478125" style="stroke: #000000; stroke-width: 0.8"/>
      </g>
     </g>
     <g id="text_3">
      <!-- 4 -->
      <g transform="translate(280.879997 400.076562) scale(0.1 -0.1)">
       <defs>
        <path id="DejaVuSans-34" d="M 2419 4116 
L 825 1625 
L 2419 1625 
L 2419 4116 
z
M 2253 4666 
L 3047 4666 
L 3047 1625 
L 3713 1625 
L 3713 1100 
L 3047 1100 
L 3047 0 
L 2419 0 
L 2419 1100 
L 313 1100 
L 313 1709 
L 2253 4666 
z
" transform="scale(0.015625)"/>
       </defs>
       <use xlink:href="#DejaVuSans-34"/>
      </g>
     </g>
    </g>
    <g id="xtick_4">
     <g id="line2d_4">
      <g>
       <use xlink:href="#m11f641470c" x="373.278249" y="385.478125" style="stroke: #000000; stroke-width: 0.8"/>
      </g>
     </g>
     <g id="text_4">
      <!-- 6 -->
      <g transform="translate(370.096999 400.076562) scale(0.1 -0.1)">
       <defs>
        <path id="DejaVuSans-36" d="M 2113 2584 
Q 1688 2584 1439 2293 
Q 1191 2003 1191 1497 
Q 1191 994 1439 701 
Q 1688 409 2113 409 
Q 2538 409 2786 701 
Q 3034 994 3034 1497 
Q 3034 2003 2786 2293 
Q 2538 2584 2113 2584 
z
M 3366 4563 
L 3366 3988 
Q 3128 4100 2886 4159 
Q 2644 4219 2406 4219 
Q 1781 4219 1451 3797 
Q 1122 3375 1075 2522 
Q 1259 2794 1537 2939 
Q 1816 3084 2150 3084 
Q 2853 3084 3261 2657 
Q 3669 2231 3669 1497 
Q 3669 778 3244 343 
Q 2819 -91 2113 -91 
Q 1303 -91 875 529 
Q 447 1150 447 2328 
Q 447 3434 972 4092 
Q 1497 4750 2381 4750 
Q 2619 4750 2861 4703 
Q 3103 4656 3366 4563 
z
" transform="scale(0.015625)"/>
       </defs>
       <use xlink:href="#DejaVuSans-36"/>
      </g>
     </g>
    </g>
    <g id="xtick_5">
     <g id="line2d_5">
      <g>
       <use xlink:href="#m11f641470c" x="462.49525" y="385.478125" style="stroke: #000000; stroke-width: 0.8"/>
      </g>
     </g>
     <g id="text_5">
      <!-- 8 -->
      <g transform="translate(459.314 400.076562) scale(0.1 -0.1)">
       <defs>
        <path id="DejaVuSans-38" d="M 2034 2216 
Q 1584 2216 1326 1975 
Q 1069 1734 1069 1313 
Q 1069 891 1326 650 
Q 1584 409 2034 409 
Q 2484 409 2743 651 
Q 3003 894 3003 1313 
Q 3003 1734 2745 1975 
Q 2488 2216 2034 2216 
z
M 1403 2484 
Q 997 2584 770 2862 
Q 544 3141 544 3541 
Q 544 4100 942 4425 
Q 1341 4750 2034 4750 
Q 2731 4750 3128 4425 
Q 3525 4100 3525 3541 
Q 3525 3141 3298 2862 
Q 3072 2584 2669 2484 
Q 3125 2378 3379 2068 
Q 3634 1759 3634 1313 
Q 3634 634 3220 271 
Q 2806 -91 2034 -91 
Q 1263 -91 848 271 
Q 434 634 434 1313 
Q 434 1759 690 2068 
Q 947 2378 1403 2484 
z
M 1172 3481 
Q 1172 3119 1398 2916 
Q 1625 2713 2034 2713 
Q 2441 2713 2670 2916 
Q 2900 3119 2900 3481 
Q 2900 3844 2670 4047 
Q 2441 4250 2034 4250 
Q 1625 4250 1398 4047 
Q 1172 3844 1172 3481 
z
" transform="scale(0.015625)"/>
       </defs>
       <use xlink:href="#DejaVuSans-38"/>
      </g>
     </g>
    </g>
    <g id="xtick_6">
     <g id="line2d_6">
      <g>
       <use xlink:href="#m11f641470c" x="551.712252" y="385.478125" style="stroke: #000000; stroke-width: 0.8"/>
      </g>
     </g>
     <g id="text_6">
      <!-- 10 -->
      <g transform="translate(545.349752 400.076562) scale(0.1 -0.1)">
       <defs>
        <path id="DejaVuSans-31" d="M 794 531 
L 1825 531 
L 1825 4091 
L 703 3866 
L 703 4441 
L 1819 4666 
L 2450 4666 
L 2450 531 
L 3481 531 
L 3481 0 
L 794 0 
L 794 531 
z
" transform="scale(0.015625)"/>
       </defs>
       <use xlink:href="#DejaVuSans-31"/>
       <use xlink:href="#DejaVuSans-30" x="63.623047"/>
      </g>
     </g>
    </g>
    <g id="xtick_7">
     <g id="line2d_7">
      <g>
       <use xlink:href="#m11f641470c" x="640.929253" y="385.478125" style="stroke: #000000; stroke-width: 0.8"/>
      </g>
     </g>
     <g id="text_7">
      <!-- 12 -->
      <g transform="translate(634.566753 400.076562) scale(0.1 -0.1)">
       <use xlink:href="#DejaVuSans-31"/>
       <use xlink:href="#DejaVuSans-32" x="63.623047"/>
      </g>
     </g>
    </g>
    <g id="xtick_8">
     <g id="line2d_8">
      <g>
       <use xlink:href="#m11f641470c" x="730.146255" y="385.478125" style="stroke: #000000; stroke-width: 0.8"/>
      </g>
     </g>
     <g id="text_8">
      <!-- 14 -->
      <g transform="translate(723.783755 400.076562) scale(0.1 -0.1)">
       <use xlink:href="#DejaVuSans-31"/>
       <use xlink:href="#DejaVuSans-34" x="63.623047"/>
      </g>
     </g>
    </g>
    <g id="xtick_9">
     <g id="line2d_9">
      <g>
       <use xlink:href="#m11f641470c" x="819.363256" y="385.478125" style="stroke: #000000; stroke-width: 0.8"/>
      </g>
     </g>
     <g id="text_9">
      <!-- 16 -->
      <g transform="translate(813.000756 400.076562) scale(0.1 -0.1)">
       <use xlink:href="#DejaVuSans-31"/>
       <use xlink:href="#DejaVuSans-36" x="63.623047"/>
      </g>
     </g>
    </g>
    <g id="text_10">
     <!-- P -->
     <g transform="translate(448.328281 413.754687) scale(0.1 -0.1)">
      <defs>
       <path id="DejaVuSans-50" d="M 1259 4147 
L 1259 2394 
L 2053 2394 
Q 2494 2394 2734 2622 
Q 2975 2850 2975 3272 
Q 2975 3691 2734 3919 
Q 2494 4147 2053 4147 
L 1259 4147 
z
M 628 4666 
L 2053 4666 
Q 2838 4666 3239 4311 
Q 3641 3956 3641 3272 
Q 3641 2581 3239 2228 
Q 2838 1875 2053 1875 
L 1259 1875 
L 1259 0 
L 628 0 
L 628 4666 
z
" transform="scale(0.015625)"/>
      </defs>
      <use xlink:href="#DejaVuSans-50"/>
     </g>
    </g>
   </g>
   <g id="matplotlib.axis_2">
    <g id="ytick_1">
     <g id="line2d_10">
      <defs>
       <path id="mbdbfd7c472" d="M 0 0 
L -3.5 0 
" style="stroke: #000000; stroke-width: 0.8"/>
      </defs>
      <g>
       <use xlink:href="#mbdbfd7c472" x="53.328125" y="385.478125" style="stroke: #000000; stroke-width: 0.8"/>
      </g>
     </g>
     <g id="text_11">
      <!-- 0 -->
      <g transform="translate(39.965625 389.277344) scale(0.1 -0.1)">
       <use xlink:href="#DejaVuSans-30"/>
      </g>
     </g>
    </g>
    <g id="ytick_2">
     <g id="line2d_11">
      <g>
       <use xlink:href="#mbdbfd7c472" x="53.328125" y="323.327781" style="stroke: #000000; stroke-width: 0.8"/>
      </g>
     </g>
     <g id="text_12">
      <!-- 200 -->
      <g transform="translate(27.240625 327.126999) scale(0.1 -0.1)">
       <use xlink:href="#DejaVuSans-32"/>
       <use xlink:href="#DejaVuSans-30" x="63.623047"/>
       <use xlink:href="#DejaVuSans-30" x="127.246094"/>
      </g>
     </g>
    </g>
    <g id="ytick_3">
     <g id="line2d_12">
      <g>
       <use xlink:href="#mbdbfd7c472" x="53.328125" y="261.177436" style="stroke: #000000; stroke-width: 0.8"/>
      </g>
     </g>
     <g id="text_13">
      <!-- 400 -->
      <g transform="translate(27.240625 264.976655) scale(0.1 -0.1)">
       <use xlink:href="#DejaVuSans-34"/>
       <use xlink:href="#DejaVuSans-30" x="63.623047"/>
       <use xlink:href="#DejaVuSans-30" x="127.246094"/>
      </g>
     </g>
    </g>
    <g id="ytick_4">
     <g id="line2d_13">
      <g>
       <use xlink:href="#mbdbfd7c472" x="53.328125" y="199.027092" style="stroke: #000000; stroke-width: 0.8"/>
      </g>
     </g>
     <g id="text_14">
      <!-- 600 -->
      <g transform="translate(27.240625 202.826311) scale(0.1 -0.1)">
       <use xlink:href="#DejaVuSans-36"/>
       <use xlink:href="#DejaVuSans-30" x="63.623047"/>
       <use xlink:href="#DejaVuSans-30" x="127.246094"/>
      </g>
     </g>
    </g>
    <g id="ytick_5">
     <g id="line2d_14">
      <g>
       <use xlink:href="#mbdbfd7c472" x="53.328125" y="136.876747" style="stroke: #000000; stroke-width: 0.8"/>
      </g>
     </g>
     <g id="text_15">
      <!-- 800 -->
      <g transform="translate(27.240625 140.675966) scale(0.1 -0.1)">
       <use xlink:href="#DejaVuSans-38"/>
       <use xlink:href="#DejaVuSans-30" x="63.623047"/>
       <use xlink:href="#DejaVuSans-30" x="127.246094"/>
      </g>
     </g>
    </g>
    <g id="ytick_6">
     <g id="line2d_15">
      <g>
       <use xlink:href="#mbdbfd7c472" x="53.328125" y="74.726403" style="stroke: #000000; stroke-width: 0.8"/>
      </g>
     </g>
     <g id="text_16">
      <!-- 1000 -->
      <g transform="translate(20.878125 78.525622) scale(0.1 -0.1)">
       <use xlink:href="#DejaVuSans-31"/>
       <use xlink:href="#DejaVuSans-30" x="63.623047"/>
       <use xlink:href="#DejaVuSans-30" x="127.246094"/>
       <use xlink:href="#DejaVuSans-30" x="190.869141"/>
      </g>
     </g>
    </g>
    <g id="text_17">
     <!-- Count -->
     <g transform="translate(14.798438 218.746562) rotate(-90) scale(0.1 -0.1)">
      <defs>
       <path id="DejaVuSans-43" d="M 4122 4306 
L 4122 3641 
Q 3803 3938 3442 4084 
Q 3081 4231 2675 4231 
Q 1875 4231 1450 3742 
Q 1025 3253 1025 2328 
Q 1025 1406 1450 917 
Q 1875 428 2675 428 
Q 3081 428 3442 575 
Q 3803 722 4122 1019 
L 4122 359 
Q 3791 134 3420 21 
Q 3050 -91 2638 -91 
Q 1578 -91 968 557 
Q 359 1206 359 2328 
Q 359 3453 968 4101 
Q 1578 4750 2638 4750 
Q 3056 4750 3426 4639 
Q 3797 4528 4122 4306 
z
" transform="scale(0.015625)"/>
       <path id="DejaVuSans-6f" d="M 1959 3097 
Q 1497 3097 1228 2736 
Q 959 2375 959 1747 
Q 959 1119 1226 758 
Q 1494 397 1959 397 
Q 2419 397 2687 759 
Q 2956 1122 2956 1747 
Q 2956 2369 2687 2733 
Q 2419 3097 1959 3097 
z
M 1959 3584 
Q 2709 3584 3137 3096 
Q 3566 2609 3566 1747 
Q 3566 888 3137 398 
Q 2709 -91 1959 -91 
Q 1206 -91 779 398 
Q 353 888 353 1747 
Q 353 2609 779 3096 
Q 1206 3584 1959 3584 
z
" transform="scale(0.015625)"/>
       <path id="DejaVuSans-75" d="M 544 1381 
L 544 3500 
L 1119 3500 
L 1119 1403 
Q 1119 906 1312 657 
Q 1506 409 1894 409 
Q 2359 409 2629 706 
Q 2900 1003 2900 1516 
L 2900 3500 
L 3475 3500 
L 3475 0 
L 2900 0 
L 2900 538 
Q 2691 219 2414 64 
Q 2138 -91 1772 -91 
Q 1169 -91 856 284 
Q 544 659 544 1381 
z
M 1991 3584 
L 1991 3584 
z
" transform="scale(0.015625)"/>
       <path id="DejaVuSans-6e" d="M 3513 2113 
L 3513 0 
L 2938 0 
L 2938 2094 
Q 2938 2591 2744 2837 
Q 2550 3084 2163 3084 
Q 1697 3084 1428 2787 
Q 1159 2491 1159 1978 
L 1159 0 
L 581 0 
L 581 3500 
L 1159 3500 
L 1159 2956 
Q 1366 3272 1645 3428 
Q 1925 3584 2291 3584 
Q 2894 3584 3203 3211 
Q 3513 2838 3513 2113 
z
" transform="scale(0.015625)"/>
       <path id="DejaVuSans-74" d="M 1172 4494 
L 1172 3500 
L 2356 3500 
L 2356 3053 
L 1172 3053 
L 1172 1153 
Q 1172 725 1289 603 
Q 1406 481 1766 481 
L 2356 481 
L 2356 0 
L 1766 0 
Q 1100 0 847 248 
Q 594 497 594 1153 
L 594 3053 
L 172 3053 
L 172 3500 
L 594 3500 
L 594 4494 
L 1172 4494 
z
" transform="scale(0.015625)"/>
      </defs>
      <use xlink:href="#DejaVuSans-43"/>
      <use xlink:href="#DejaVuSans-6f" x="69.824219"/>
      <use xlink:href="#DejaVuSans-75" x="131.005859"/>
      <use xlink:href="#DejaVuSans-6e" x="194.384766"/>
      <use xlink:href="#DejaVuSans-74" x="257.763672"/>
     </g>
    </g>
   </g>
   <g id="line2d_16">
    <path d="M 105.627244 385.387319 
L 143.84709 385.151964 
L 157.745216 384.452297 
L 164.694279 383.991697 
L 168.168811 383.660529 
L 171.643342 383.108145 
L 175.117874 382.308322 
L 182.066937 380.445308 
L 185.541468 379.381276 
L 189.015999 378.075315 
L 192.490531 376.478792 
L 195.965062 374.465122 
L 199.439594 371.77853 
L 202.914125 368.210243 
L 206.388657 363.571944 
L 209.863188 357.401658 
L 213.33772 349.052894 
L 216.812251 338.227344 
L 220.286783 324.876397 
L 223.761314 308.79004 
L 227.235846 290.080973 
L 230.710377 269.559213 
L 237.65944 227.518025 
L 241.133971 208.022565 
L 244.608503 190.057731 
L 248.083034 174.053036 
L 251.557566 161.412083 
L 255.032097 153.568044 
L 258.506629 150.807932 
L 261.98116 152.139821 
L 265.455692 156.555664 
L 268.930223 164.453718 
L 272.404755 176.828603 
L 275.879286 193.211396 
L 282.828349 229.126051 
L 286.30288 245.545262 
L 293.251943 276.1481 
L 296.726475 290.822498 
L 300.201006 304.287492 
L 303.675538 316.115147 
L 307.150069 326.593007 
L 310.624601 335.872488 
L 314.099132 343.484552 
L 317.573664 349.194421 
L 321.048195 353.678838 
L 324.522727 357.768634 
L 327.997258 361.536618 
L 331.471789 364.578425 
L 334.946321 366.798759 
L 338.420852 368.559144 
L 341.895384 370.151486 
L 345.369915 371.526235 
L 355.79351 375.061994 
L 366.217104 378.654754 
L 369.691636 379.570541 
L 373.166167 380.139709 
L 387.064293 381.562462 
L 397.487887 382.951893 
L 400.962419 383.094429 
L 411.386013 382.833409 
L 414.860545 383.017158 
L 425.284139 384.092876 
L 432.233202 384.289994 
L 439.182265 384.370529 
L 449.605859 384.083001 
L 456.554922 384.335374 
L 466.978517 384.765714 
L 480.876642 384.988287 
L 487.825705 385.207075 
L 494.774768 385.310264 
L 501.723831 385.161719 
L 508.672894 385.007544 
L 546.89274 385.23848 
L 658.077747 385.417746 
L 668.501342 385.356882 
L 689.34853 385.438716 
L 710.195719 385.43767 
L 727.568376 385.478122 
L 797.059006 385.405595 
L 797.059006 385.405595 
" clip-path="url(#p92beb7ff38)" style="fill: none; stroke: #1f77b4; stroke-width: 1.5; stroke-linecap: square"/>
   </g>
   <g id="line2d_17">
    <path d="M 89.511307 385.478124 
L 231.334834 385.375881 
L 267.69984 385.286565 
L 376.794861 385.47387 
L 813.174943 385.478124 
L 813.174943 385.478124 
" clip-path="url(#p92beb7ff38)" style="fill: none; stroke: #1f77b4; stroke-width: 1.5; stroke-linecap: square"/>
   </g>
   <g id="patch_223">
    <path d="M 53.328125 385.478125 
L 53.328125 22.318125 
" style="fill: none; stroke: #000000; stroke-width: 0.8; stroke-linejoin: miter; stroke-linecap: square"/>
   </g>
   <g id="patch_224">
    <path d="M 849.358125 385.478125 
L 849.358125 22.318125 
" style="fill: none; stroke: #000000; stroke-width: 0.8; stroke-linejoin: miter; stroke-linecap: square"/>
   </g>
   <g id="patch_225">
    <path d="M 53.328125 385.478125 
L 849.358125 385.478125 
" style="fill: none; stroke: #000000; stroke-width: 0.8; stroke-linejoin: miter; stroke-linecap: square"/>
   </g>
   <g id="patch_226">
    <path d="M 53.328125 22.318125 
L 849.358125 22.318125 
" style="fill: none; stroke: #000000; stroke-width: 0.8; stroke-linejoin: miter; stroke-linecap: square"/>
   </g>
   <g id="text_18">
    <!-- Distribution of P -->
    <g transform="translate(403.125625 16.318125) scale(0.12 -0.12)">
     <defs>
      <path id="DejaVuSans-44" d="M 1259 4147 
L 1259 519 
L 2022 519 
Q 2988 519 3436 956 
Q 3884 1394 3884 2338 
Q 3884 3275 3436 3711 
Q 2988 4147 2022 4147 
L 1259 4147 
z
M 628 4666 
L 1925 4666 
Q 3281 4666 3915 4102 
Q 4550 3538 4550 2338 
Q 4550 1131 3912 565 
Q 3275 0 1925 0 
L 628 0 
L 628 4666 
z
" transform="scale(0.015625)"/>
      <path id="DejaVuSans-69" d="M 603 3500 
L 1178 3500 
L 1178 0 
L 603 0 
L 603 3500 
z
M 603 4863 
L 1178 4863 
L 1178 4134 
L 603 4134 
L 603 4863 
z
" transform="scale(0.015625)"/>
      <path id="DejaVuSans-73" d="M 2834 3397 
L 2834 2853 
Q 2591 2978 2328 3040 
Q 2066 3103 1784 3103 
Q 1356 3103 1142 2972 
Q 928 2841 928 2578 
Q 928 2378 1081 2264 
Q 1234 2150 1697 2047 
L 1894 2003 
Q 2506 1872 2764 1633 
Q 3022 1394 3022 966 
Q 3022 478 2636 193 
Q 2250 -91 1575 -91 
Q 1294 -91 989 -36 
Q 684 19 347 128 
L 347 722 
Q 666 556 975 473 
Q 1284 391 1588 391 
Q 1994 391 2212 530 
Q 2431 669 2431 922 
Q 2431 1156 2273 1281 
Q 2116 1406 1581 1522 
L 1381 1569 
Q 847 1681 609 1914 
Q 372 2147 372 2553 
Q 372 3047 722 3315 
Q 1072 3584 1716 3584 
Q 2034 3584 2315 3537 
Q 2597 3491 2834 3397 
z
" transform="scale(0.015625)"/>
      <path id="DejaVuSans-72" d="M 2631 2963 
Q 2534 3019 2420 3045 
Q 2306 3072 2169 3072 
Q 1681 3072 1420 2755 
Q 1159 2438 1159 1844 
L 1159 0 
L 581 0 
L 581 3500 
L 1159 3500 
L 1159 2956 
Q 1341 3275 1631 3429 
Q 1922 3584 2338 3584 
Q 2397 3584 2469 3576 
Q 2541 3569 2628 3553 
L 2631 2963 
z
" transform="scale(0.015625)"/>
      <path id="DejaVuSans-62" d="M 3116 1747 
Q 3116 2381 2855 2742 
Q 2594 3103 2138 3103 
Q 1681 3103 1420 2742 
Q 1159 2381 1159 1747 
Q 1159 1113 1420 752 
Q 1681 391 2138 391 
Q 2594 391 2855 752 
Q 3116 1113 3116 1747 
z
M 1159 2969 
Q 1341 3281 1617 3432 
Q 1894 3584 2278 3584 
Q 2916 3584 3314 3078 
Q 3713 2572 3713 1747 
Q 3713 922 3314 415 
Q 2916 -91 2278 -91 
Q 1894 -91 1617 61 
Q 1341 213 1159 525 
L 1159 0 
L 581 0 
L 581 4863 
L 1159 4863 
L 1159 2969 
z
" transform="scale(0.015625)"/>
      <path id="DejaVuSans-20" transform="scale(0.015625)"/>
      <path id="DejaVuSans-66" d="M 2375 4863 
L 2375 4384 
L 1825 4384 
Q 1516 4384 1395 4259 
Q 1275 4134 1275 3809 
L 1275 3500 
L 2222 3500 
L 2222 3053 
L 1275 3053 
L 1275 0 
L 697 0 
L 697 3053 
L 147 3053 
L 147 3500 
L 697 3500 
L 697 3744 
Q 697 4328 969 4595 
Q 1241 4863 1831 4863 
L 2375 4863 
z
" transform="scale(0.015625)"/>
     </defs>
     <use xlink:href="#DejaVuSans-44"/>
     <use xlink:href="#DejaVuSans-69" x="77.001953"/>
     <use xlink:href="#DejaVuSans-73" x="104.785156"/>
     <use xlink:href="#DejaVuSans-74" x="156.884766"/>
     <use xlink:href="#DejaVuSans-72" x="196.09375"/>
     <use xlink:href="#DejaVuSans-69" x="237.207031"/>
     <use xlink:href="#DejaVuSans-62" x="264.990234"/>
     <use xlink:href="#DejaVuSans-75" x="328.466797"/>
     <use xlink:href="#DejaVuSans-74" x="391.845703"/>
     <use xlink:href="#DejaVuSans-69" x="431.054688"/>
     <use xlink:href="#DejaVuSans-6f" x="458.837891"/>
     <use xlink:href="#DejaVuSans-6e" x="520.019531"/>
     <use xlink:href="#DejaVuSans-20" x="583.398438"/>
     <use xlink:href="#DejaVuSans-6f" x="615.185547"/>
     <use xlink:href="#DejaVuSans-66" x="676.367188"/>
     <use xlink:href="#DejaVuSans-20" x="711.572266"/>
     <use xlink:href="#DejaVuSans-50" x="743.359375"/>
    </g>
   </g>
  </g>
 </g>
 <defs>
  <clipPath id="p92beb7ff38">
   <rect x="53.328125" y="22.318125" width="796.03" height="363.16"/>
  </clipPath>
 </defs>
</svg>
