<?xml version="1.0" encoding="utf-8" standalone="no"?>
<!DOCTYPE svg PUBLIC "-//W3C//DTD SVG 1.1//EN"
  "http://www.w3.org/Graphics/SVG/1.1/DTD/svg11.dtd">
<svg xmlns:xlink="http://www.w3.org/1999/xlink" width="856.495625pt" height="423.034375pt" viewBox="0 0 856.495625 423.034375" xmlns="http://www.w3.org/2000/svg" version="1.1">
 <metadata>
  <rdf:RDF xmlns:dc="http://purl.org/dc/elements/1.1/" xmlns:cc="http://creativecommons.org/ns#" xmlns:rdf="http://www.w3.org/1999/02/22-rdf-syntax-ns#">
   <cc:Work>
    <dc:type rdf:resource="http://purl.org/dc/dcmitype/StillImage"/>
    <dc:date>2024-07-14T14:29:42.661651</dc:date>
    <dc:format>image/svg+xml</dc:format>
    <dc:creator>
     <cc:Agent>
      <dc:title>Matplotlib v3.9.0, https://matplotlib.org/</dc:title>
     </cc:Agent>
    </dc:creator>
   </cc:Work>
  </rdf:RDF>
 </metadata>
 <defs>
  <style type="text/css">*{stroke-linejoin: round; stroke-linecap: butt}</style>
 </defs>
 <g id="figure_1">
  <g id="patch_1">
   <path d="M 0 423.034375 
L 856.495625 423.034375 
L 856.495625 0 
L 0 0 
z
" style="fill: #ffffff"/>
  </g>
  <g id="axes_1">
   <g id="patch_2">
    <path d="M 46.965625 385.478125 
L 849.295625 385.478125 
L 849.295625 22.318125 
L 46.965625 22.318125 
z
" style="fill: #ffffff"/>
   </g>
   <g id="patch_3">
    <path d="M 125.32459 385.478125 
L 134.960591 385.478125 
L 134.960591 384.857179 
L 125.32459 384.857179 
z
" clip-path="url(#p6f70bc049c)" style="fill: #1f77b4; fill-opacity: 0.5; stroke: #000000; stroke-width: 0.908548; stroke-linejoin: miter"/>
   </g>
   <g id="patch_4">
    <path d="M 134.960591 385.478125 
L 144.596592 385.478125 
L 144.596592 385.478125 
L 134.960591 385.478125 
z
" clip-path="url(#p6f70bc049c)" style="fill: #1f77b4; fill-opacity: 0.5; stroke: #000000; stroke-width: 0.908548; stroke-linejoin: miter"/>
   </g>
   <g id="patch_5">
    <path d="M 144.596592 385.478125 
L 154.232593 385.478125 
L 154.232593 385.478125 
L 144.596592 385.478125 
z
" clip-path="url(#p6f70bc049c)" style="fill: #1f77b4; fill-opacity: 0.5; stroke: #000000; stroke-width: 0.908548; stroke-linejoin: miter"/>
   </g>
   <g id="patch_6">
    <path d="M 154.232593 385.478125 
L 163.868594 385.478125 
L 163.868594 385.478125 
L 154.232593 385.478125 
z
" clip-path="url(#p6f70bc049c)" style="fill: #1f77b4; fill-opacity: 0.5; stroke: #000000; stroke-width: 0.908548; stroke-linejoin: miter"/>
   </g>
   <g id="patch_7">
    <path d="M 163.868594 385.478125 
L 173.504595 385.478125 
L 173.504595 384.857179 
L 163.868594 384.857179 
z
" clip-path="url(#p6f70bc049c)" style="fill: #1f77b4; fill-opacity: 0.5; stroke: #000000; stroke-width: 0.908548; stroke-linejoin: miter"/>
   </g>
   <g id="patch_8">
    <path d="M 173.504595 385.478125 
L 183.140596 385.478125 
L 183.140596 384.236234 
L 173.504595 384.236234 
z
" clip-path="url(#p6f70bc049c)" style="fill: #1f77b4; fill-opacity: 0.5; stroke: #000000; stroke-width: 0.908548; stroke-linejoin: miter"/>
   </g>
   <g id="patch_9">
    <path d="M 183.140596 385.478125 
L 192.776597 385.478125 
L 192.776597 383.615288 
L 183.140596 383.615288 
z
" clip-path="url(#p6f70bc049c)" style="fill: #1f77b4; fill-opacity: 0.5; stroke: #000000; stroke-width: 0.908548; stroke-linejoin: miter"/>
   </g>
   <g id="patch_10">
    <path d="M 192.776597 385.478125 
L 202.412598 385.478125 
L 202.412598 385.478125 
L 192.776597 385.478125 
z
" clip-path="url(#p6f70bc049c)" style="fill: #1f77b4; fill-opacity: 0.5; stroke: #000000; stroke-width: 0.908548; stroke-linejoin: miter"/>
   </g>
   <g id="patch_11">
    <path d="M 202.412598 385.478125 
L 212.048599 385.478125 
L 212.048599 383.615288 
L 202.412598 383.615288 
z
" clip-path="url(#p6f70bc049c)" style="fill: #1f77b4; fill-opacity: 0.5; stroke: #000000; stroke-width: 0.908548; stroke-linejoin: miter"/>
   </g>
   <g id="patch_12">
    <path d="M 212.048599 385.478125 
L 221.6846 385.478125 
L 221.6846 382.994343 
L 212.048599 382.994343 
z
" clip-path="url(#p6f70bc049c)" style="fill: #1f77b4; fill-opacity: 0.5; stroke: #000000; stroke-width: 0.908548; stroke-linejoin: miter"/>
   </g>
   <g id="patch_13">
    <path d="M 221.6846 385.478125 
L 231.320601 385.478125 
L 231.320601 382.373397 
L 221.6846 382.373397 
z
" clip-path="url(#p6f70bc049c)" style="fill: #1f77b4; fill-opacity: 0.5; stroke: #000000; stroke-width: 0.908548; stroke-linejoin: miter"/>
   </g>
   <g id="patch_14">
    <path d="M 231.320601 385.478125 
L 240.956602 385.478125 
L 240.956602 385.478125 
L 231.320601 385.478125 
z
" clip-path="url(#p6f70bc049c)" style="fill: #1f77b4; fill-opacity: 0.5; stroke: #000000; stroke-width: 0.908548; stroke-linejoin: miter"/>
   </g>
   <g id="patch_15">
    <path d="M 240.956602 385.478125 
L 250.592603 385.478125 
L 250.592603 379.889615 
L 240.956602 379.889615 
z
" clip-path="url(#p6f70bc049c)" style="fill: #1f77b4; fill-opacity: 0.5; stroke: #000000; stroke-width: 0.908548; stroke-linejoin: miter"/>
   </g>
   <g id="patch_16">
    <path d="M 250.592603 385.478125 
L 260.228604 385.478125 
L 260.228604 376.163942 
L 250.592603 376.163942 
z
" clip-path="url(#p6f70bc049c)" style="fill: #1f77b4; fill-opacity: 0.5; stroke: #000000; stroke-width: 0.908548; stroke-linejoin: miter"/>
   </g>
   <g id="patch_17">
    <path d="M 260.228604 385.478125 
L 269.864605 385.478125 
L 269.864605 375.542996 
L 260.228604 375.542996 
z
" clip-path="url(#p6f70bc049c)" style="fill: #1f77b4; fill-opacity: 0.5; stroke: #000000; stroke-width: 0.908548; stroke-linejoin: miter"/>
   </g>
   <g id="patch_18">
    <path d="M 269.864605 385.478125 
L 279.500606 385.478125 
L 279.500606 385.478125 
L 269.864605 385.478125 
z
" clip-path="url(#p6f70bc049c)" style="fill: #1f77b4; fill-opacity: 0.5; stroke: #000000; stroke-width: 0.908548; stroke-linejoin: miter"/>
   </g>
   <g id="patch_19">
    <path d="M 279.500606 385.478125 
L 289.136608 385.478125 
L 289.136608 376.163942 
L 279.500606 376.163942 
z
" clip-path="url(#p6f70bc049c)" style="fill: #1f77b4; fill-opacity: 0.5; stroke: #000000; stroke-width: 0.908548; stroke-linejoin: miter"/>
   </g>
   <g id="patch_20">
    <path d="M 289.136608 385.478125 
L 298.772609 385.478125 
L 298.772609 371.196378 
L 289.136608 371.196378 
z
" clip-path="url(#p6f70bc049c)" style="fill: #1f77b4; fill-opacity: 0.5; stroke: #000000; stroke-width: 0.908548; stroke-linejoin: miter"/>
   </g>
   <g id="patch_21">
    <path d="M 298.772609 385.478125 
L 308.40861 385.478125 
L 308.40861 369.954486 
L 298.772609 369.954486 
z
" clip-path="url(#p6f70bc049c)" style="fill: #1f77b4; fill-opacity: 0.5; stroke: #000000; stroke-width: 0.908548; stroke-linejoin: miter"/>
   </g>
   <g id="patch_22">
    <path d="M 308.40861 385.478125 
L 318.044611 385.478125 
L 318.044611 385.478125 
L 308.40861 385.478125 
z
" clip-path="url(#p6f70bc049c)" style="fill: #1f77b4; fill-opacity: 0.5; stroke: #000000; stroke-width: 0.908548; stroke-linejoin: miter"/>
   </g>
   <g id="patch_23">
    <path d="M 318.044611 385.478125 
L 327.680612 385.478125 
L 327.680612 361.261249 
L 318.044611 361.261249 
z
" clip-path="url(#p6f70bc049c)" style="fill: #1f77b4; fill-opacity: 0.5; stroke: #000000; stroke-width: 0.908548; stroke-linejoin: miter"/>
   </g>
   <g id="patch_24">
    <path d="M 327.680612 385.478125 
L 337.316613 385.478125 
L 337.316613 363.745031 
L 327.680612 363.745031 
z
" clip-path="url(#p6f70bc049c)" style="fill: #1f77b4; fill-opacity: 0.5; stroke: #000000; stroke-width: 0.908548; stroke-linejoin: miter"/>
   </g>
   <g id="patch_25">
    <path d="M 337.316613 385.478125 
L 346.952614 385.478125 
L 346.952614 353.188957 
L 337.316613 353.188957 
z
" clip-path="url(#p6f70bc049c)" style="fill: #1f77b4; fill-opacity: 0.5; stroke: #000000; stroke-width: 0.908548; stroke-linejoin: miter"/>
   </g>
   <g id="patch_26">
    <path d="M 346.952614 385.478125 
L 356.588615 385.478125 
L 356.588615 385.478125 
L 346.952614 385.478125 
z
" clip-path="url(#p6f70bc049c)" style="fill: #1f77b4; fill-opacity: 0.5; stroke: #000000; stroke-width: 0.908548; stroke-linejoin: miter"/>
   </g>
   <g id="patch_27">
    <path d="M 356.588615 385.478125 
L 366.224616 385.478125 
L 366.224616 351.32612 
L 356.588615 351.32612 
z
" clip-path="url(#p6f70bc049c)" style="fill: #1f77b4; fill-opacity: 0.5; stroke: #000000; stroke-width: 0.908548; stroke-linejoin: miter"/>
   </g>
   <g id="patch_28">
    <path d="M 366.224616 385.478125 
L 375.860617 385.478125 
L 375.860617 347.600447 
L 366.224616 347.600447 
z
" clip-path="url(#p6f70bc049c)" style="fill: #1f77b4; fill-opacity: 0.5; stroke: #000000; stroke-width: 0.908548; stroke-linejoin: miter"/>
   </g>
   <g id="patch_29">
    <path d="M 375.860617 385.478125 
L 385.496618 385.478125 
L 385.496618 345.116665 
L 375.860617 345.116665 
z
" clip-path="url(#p6f70bc049c)" style="fill: #1f77b4; fill-opacity: 0.5; stroke: #000000; stroke-width: 0.908548; stroke-linejoin: miter"/>
   </g>
   <g id="patch_30">
    <path d="M 385.496618 385.478125 
L 395.132619 385.478125 
L 395.132619 385.478125 
L 385.496618 385.478125 
z
" clip-path="url(#p6f70bc049c)" style="fill: #1f77b4; fill-opacity: 0.5; stroke: #000000; stroke-width: 0.908548; stroke-linejoin: miter"/>
   </g>
   <g id="patch_31">
    <path d="M 395.132619 385.478125 
L 404.76862 385.478125 
L 404.76862 330.213972 
L 395.132619 330.213972 
z
" clip-path="url(#p6f70bc049c)" style="fill: #1f77b4; fill-opacity: 0.5; stroke: #000000; stroke-width: 0.908548; stroke-linejoin: miter"/>
   </g>
   <g id="patch_32">
    <path d="M 404.76862 385.478125 
L 414.404621 385.478125 
L 414.404621 335.181536 
L 404.76862 335.181536 
z
" clip-path="url(#p6f70bc049c)" style="fill: #1f77b4; fill-opacity: 0.5; stroke: #000000; stroke-width: 0.908548; stroke-linejoin: miter"/>
   </g>
   <g id="patch_33">
    <path d="M 414.404621 385.478125 
L 424.040622 385.478125 
L 424.040622 333.3187 
L 414.404621 333.3187 
z
" clip-path="url(#p6f70bc049c)" style="fill: #1f77b4; fill-opacity: 0.5; stroke: #000000; stroke-width: 0.908548; stroke-linejoin: miter"/>
   </g>
   <g id="patch_34">
    <path d="M 424.040622 385.478125 
L 433.676623 385.478125 
L 433.676623 385.478125 
L 424.040622 385.478125 
z
" clip-path="url(#p6f70bc049c)" style="fill: #1f77b4; fill-opacity: 0.5; stroke: #000000; stroke-width: 0.908548; stroke-linejoin: miter"/>
   </g>
   <g id="patch_35">
    <path d="M 433.676623 385.478125 
L 443.312624 385.478125 
L 443.312624 330.213972 
L 433.676623 330.213972 
z
" clip-path="url(#p6f70bc049c)" style="fill: #1f77b4; fill-opacity: 0.5; stroke: #000000; stroke-width: 0.908548; stroke-linejoin: miter"/>
   </g>
   <g id="patch_36">
    <path d="M 443.312624 385.478125 
L 452.948626 385.478125 
L 452.948626 298.545749 
L 443.312624 298.545749 
z
" clip-path="url(#p6f70bc049c)" style="fill: #1f77b4; fill-opacity: 0.5; stroke: #000000; stroke-width: 0.908548; stroke-linejoin: miter"/>
   </g>
   <g id="patch_37">
    <path d="M 452.948626 385.478125 
L 462.584627 385.478125 
L 462.584627 287.368729 
L 452.948626 287.368729 
z
" clip-path="url(#p6f70bc049c)" style="fill: #1f77b4; fill-opacity: 0.5; stroke: #000000; stroke-width: 0.908548; stroke-linejoin: miter"/>
   </g>
   <g id="patch_38">
    <path d="M 462.584627 385.478125 
L 472.220628 385.478125 
L 472.220628 385.478125 
L 462.584627 385.478125 
z
" clip-path="url(#p6f70bc049c)" style="fill: #1f77b4; fill-opacity: 0.5; stroke: #000000; stroke-width: 0.908548; stroke-linejoin: miter"/>
   </g>
   <g id="patch_39">
    <path d="M 472.220628 385.478125 
L 481.856629 385.478125 
L 481.856629 262.530908 
L 472.220628 262.530908 
z
" clip-path="url(#p6f70bc049c)" style="fill: #1f77b4; fill-opacity: 0.5; stroke: #000000; stroke-width: 0.908548; stroke-linejoin: miter"/>
   </g>
   <g id="patch_40">
    <path d="M 481.856629 385.478125 
L 491.49263 385.478125 
L 491.49263 245.765378 
L 481.856629 245.765378 
z
" clip-path="url(#p6f70bc049c)" style="fill: #1f77b4; fill-opacity: 0.5; stroke: #000000; stroke-width: 0.908548; stroke-linejoin: miter"/>
   </g>
   <g id="patch_41">
    <path d="M 491.49263 385.478125 
L 501.128631 385.478125 
L 501.128631 226.516066 
L 491.49263 226.516066 
z
" clip-path="url(#p6f70bc049c)" style="fill: #1f77b4; fill-opacity: 0.5; stroke: #000000; stroke-width: 0.908548; stroke-linejoin: miter"/>
   </g>
   <g id="patch_42">
    <path d="M 501.128631 385.478125 
L 510.764632 385.478125 
L 510.764632 385.478125 
L 501.128631 385.478125 
z
" clip-path="url(#p6f70bc049c)" style="fill: #1f77b4; fill-opacity: 0.5; stroke: #000000; stroke-width: 0.908548; stroke-linejoin: miter"/>
   </g>
   <g id="patch_43">
    <path d="M 510.764632 385.478125 
L 520.400633 385.478125 
L 520.400633 188.638388 
L 510.764632 188.638388 
z
" clip-path="url(#p6f70bc049c)" style="fill: #1f77b4; fill-opacity: 0.5; stroke: #000000; stroke-width: 0.908548; stroke-linejoin: miter"/>
   </g>
   <g id="patch_44">
    <path d="M 520.400633 385.478125 
L 530.036634 385.478125 
L 530.036634 147.035037 
L 520.400633 147.035037 
z
" clip-path="url(#p6f70bc049c)" style="fill: #1f77b4; fill-opacity: 0.5; stroke: #000000; stroke-width: 0.908548; stroke-linejoin: miter"/>
   </g>
   <g id="patch_45">
    <path d="M 530.036634 385.478125 
L 539.672635 385.478125 
L 539.672635 93.63372 
L 530.036634 93.63372 
z
" clip-path="url(#p6f70bc049c)" style="fill: #1f77b4; fill-opacity: 0.5; stroke: #000000; stroke-width: 0.908548; stroke-linejoin: miter"/>
   </g>
   <g id="patch_46">
    <path d="M 539.672635 385.478125 
L 549.308636 385.478125 
L 549.308636 385.478125 
L 539.672635 385.478125 
z
" clip-path="url(#p6f70bc049c)" style="fill: #1f77b4; fill-opacity: 0.5; stroke: #000000; stroke-width: 0.908548; stroke-linejoin: miter"/>
   </g>
   <g id="patch_47">
    <path d="M 549.308636 385.478125 
L 558.944637 385.478125 
L 558.944637 65.691171 
L 549.308636 65.691171 
z
" clip-path="url(#p6f70bc049c)" style="fill: #1f77b4; fill-opacity: 0.5; stroke: #000000; stroke-width: 0.908548; stroke-linejoin: miter"/>
   </g>
   <g id="patch_48">
    <path d="M 558.944637 385.478125 
L 568.580638 385.478125 
L 568.580638 39.611458 
L 558.944637 39.611458 
z
" clip-path="url(#p6f70bc049c)" style="fill: #1f77b4; fill-opacity: 0.5; stroke: #000000; stroke-width: 0.908548; stroke-linejoin: miter"/>
   </g>
   <g id="patch_49">
    <path d="M 568.580638 385.478125 
L 578.216639 385.478125 
L 578.216639 40.853349 
L 568.580638 40.853349 
z
" clip-path="url(#p6f70bc049c)" style="fill: #1f77b4; fill-opacity: 0.5; stroke: #000000; stroke-width: 0.908548; stroke-linejoin: miter"/>
   </g>
   <g id="patch_50">
    <path d="M 578.216639 385.478125 
L 587.85264 385.478125 
L 587.85264 385.478125 
L 578.216639 385.478125 
z
" clip-path="url(#p6f70bc049c)" style="fill: #1f77b4; fill-opacity: 0.5; stroke: #000000; stroke-width: 0.908548; stroke-linejoin: miter"/>
   </g>
   <g id="patch_51">
    <path d="M 587.85264 385.478125 
L 597.488641 385.478125 
L 597.488641 40.232404 
L 587.85264 40.232404 
z
" clip-path="url(#p6f70bc049c)" style="fill: #1f77b4; fill-opacity: 0.5; stroke: #000000; stroke-width: 0.908548; stroke-linejoin: miter"/>
   </g>
   <g id="patch_52">
    <path d="M 597.488641 385.478125 
L 607.124642 385.478125 
L 607.124642 99.843176 
L 597.488641 99.843176 
z
" clip-path="url(#p6f70bc049c)" style="fill: #1f77b4; fill-opacity: 0.5; stroke: #000000; stroke-width: 0.908548; stroke-linejoin: miter"/>
   </g>
   <g id="patch_53">
    <path d="M 607.124642 385.478125 
L 616.760644 385.478125 
L 616.760644 145.1722 
L 607.124642 145.1722 
z
" clip-path="url(#p6f70bc049c)" style="fill: #1f77b4; fill-opacity: 0.5; stroke: #000000; stroke-width: 0.908548; stroke-linejoin: miter"/>
   </g>
   <g id="patch_54">
    <path d="M 616.760644 385.478125 
L 626.396645 385.478125 
L 626.396645 385.478125 
L 616.760644 385.478125 
z
" clip-path="url(#p6f70bc049c)" style="fill: #1f77b4; fill-opacity: 0.5; stroke: #000000; stroke-width: 0.908548; stroke-linejoin: miter"/>
   </g>
   <g id="patch_55">
    <path d="M 626.396645 385.478125 
L 636.032646 385.478125 
L 636.032646 228.378903 
L 626.396645 228.378903 
z
" clip-path="url(#p6f70bc049c)" style="fill: #1f77b4; fill-opacity: 0.5; stroke: #000000; stroke-width: 0.908548; stroke-linejoin: miter"/>
   </g>
   <g id="patch_56">
    <path d="M 636.032646 385.478125 
L 645.668647 385.478125 
L 645.668647 287.368729 
L 636.032646 287.368729 
z
" clip-path="url(#p6f70bc049c)" style="fill: #1f77b4; fill-opacity: 0.5; stroke: #000000; stroke-width: 0.908548; stroke-linejoin: miter"/>
   </g>
   <g id="patch_57">
    <path d="M 645.668647 385.478125 
L 655.304648 385.478125 
L 655.304648 315.932224 
L 645.668647 315.932224 
z
" clip-path="url(#p6f70bc049c)" style="fill: #1f77b4; fill-opacity: 0.5; stroke: #000000; stroke-width: 0.908548; stroke-linejoin: miter"/>
   </g>
   <g id="patch_58">
    <path d="M 655.304648 385.478125 
L 664.940649 385.478125 
L 664.940649 385.478125 
L 655.304648 385.478125 
z
" clip-path="url(#p6f70bc049c)" style="fill: #1f77b4; fill-opacity: 0.5; stroke: #000000; stroke-width: 0.908548; stroke-linejoin: miter"/>
   </g>
   <g id="patch_59">
    <path d="M 664.940649 385.478125 
L 674.57665 385.478125 
L 674.57665 353.188957 
L 664.940649 353.188957 
z
" clip-path="url(#p6f70bc049c)" style="fill: #1f77b4; fill-opacity: 0.5; stroke: #000000; stroke-width: 0.908548; stroke-linejoin: miter"/>
   </g>
   <g id="patch_60">
    <path d="M 674.57665 385.478125 
L 684.212651 385.478125 
L 684.212651 373.68016 
L 674.57665 373.68016 
z
" clip-path="url(#p6f70bc049c)" style="fill: #1f77b4; fill-opacity: 0.5; stroke: #000000; stroke-width: 0.908548; stroke-linejoin: miter"/>
   </g>
   <g id="patch_61">
    <path d="M 684.212651 385.478125 
L 693.848652 385.478125 
L 693.848652 373.68016 
L 684.212651 373.68016 
z
" clip-path="url(#p6f70bc049c)" style="fill: #1f77b4; fill-opacity: 0.5; stroke: #000000; stroke-width: 0.908548; stroke-linejoin: miter"/>
   </g>
   <g id="patch_62">
    <path d="M 693.848652 385.478125 
L 703.484653 385.478125 
L 703.484653 385.478125 
L 693.848652 385.478125 
z
" clip-path="url(#p6f70bc049c)" style="fill: #1f77b4; fill-opacity: 0.5; stroke: #000000; stroke-width: 0.908548; stroke-linejoin: miter"/>
   </g>
   <g id="patch_63">
    <path d="M 703.484653 385.478125 
L 713.120654 385.478125 
L 713.120654 383.615288 
L 703.484653 383.615288 
z
" clip-path="url(#p6f70bc049c)" style="fill: #1f77b4; fill-opacity: 0.5; stroke: #000000; stroke-width: 0.908548; stroke-linejoin: miter"/>
   </g>
   <g id="patch_64">
    <path d="M 713.120654 385.478125 
L 722.756655 385.478125 
L 722.756655 385.478125 
L 713.120654 385.478125 
z
" clip-path="url(#p6f70bc049c)" style="fill: #1f77b4; fill-opacity: 0.5; stroke: #000000; stroke-width: 0.908548; stroke-linejoin: miter"/>
   </g>
   <g id="patch_65">
    <path d="M 722.756655 385.478125 
L 732.392656 385.478125 
L 732.392656 384.857179 
L 722.756655 384.857179 
z
" clip-path="url(#p6f70bc049c)" style="fill: #1f77b4; fill-opacity: 0.5; stroke: #000000; stroke-width: 0.908548; stroke-linejoin: miter"/>
   </g>
   <g id="patch_66">
    <path d="M 732.392656 385.478125 
L 742.028657 385.478125 
L 742.028657 385.478125 
L 732.392656 385.478125 
z
" clip-path="url(#p6f70bc049c)" style="fill: #1f77b4; fill-opacity: 0.5; stroke: #000000; stroke-width: 0.908548; stroke-linejoin: miter"/>
   </g>
   <g id="patch_67">
    <path d="M 742.028657 385.478125 
L 751.664658 385.478125 
L 751.664658 384.857179 
L 742.028657 384.857179 
z
" clip-path="url(#p6f70bc049c)" style="fill: #1f77b4; fill-opacity: 0.5; stroke: #000000; stroke-width: 0.908548; stroke-linejoin: miter"/>
   </g>
   <g id="patch_68">
    <path d="M 751.664658 385.478125 
L 761.300659 385.478125 
L 761.300659 385.478125 
L 751.664658 385.478125 
z
" clip-path="url(#p6f70bc049c)" style="fill: #1f77b4; fill-opacity: 0.5; stroke: #000000; stroke-width: 0.908548; stroke-linejoin: miter"/>
   </g>
   <g id="patch_69">
    <path d="M 761.300659 385.478125 
L 770.93666 385.478125 
L 770.93666 384.857179 
L 761.300659 384.857179 
z
" clip-path="url(#p6f70bc049c)" style="fill: #1f77b4; fill-opacity: 0.5; stroke: #000000; stroke-width: 0.908548; stroke-linejoin: miter"/>
   </g>
   <g id="matplotlib.axis_1">
    <g id="xtick_1">
     <g id="line2d_1">
      <defs>
       <path id="m60582c458d" d="M 0 0 
L 0 3.5 
" style="stroke: #000000; stroke-width: 0.8"/>
      </defs>
      <g>
       <use xlink:href="#m60582c458d" x="164.061314" y="385.478125" style="stroke: #000000; stroke-width: 0.8"/>
      </g>
     </g>
     <g id="text_1">
      <!-- 1 -->
      <g transform="translate(160.880064 400.076562) scale(0.1 -0.1)">
       <defs>
        <path id="DejaVuSans-31" d="M 794 531 
L 1825 531 
L 1825 4091 
L 703 3866 
L 703 4441 
L 1819 4666 
L 2450 4666 
L 2450 531 
L 3481 531 
L 3481 0 
L 794 0 
L 794 531 
z
" transform="scale(0.015625)"/>
       </defs>
       <use xlink:href="#DejaVuSans-31"/>
      </g>
     </g>
    </g>
    <g id="xtick_2">
     <g id="line2d_2">
      <g>
       <use xlink:href="#m60582c458d" x="293.183728" y="385.478125" style="stroke: #000000; stroke-width: 0.8"/>
      </g>
     </g>
     <g id="text_2">
      <!-- 2 -->
      <g transform="translate(290.002478 400.076562) scale(0.1 -0.1)">
       <defs>
        <path id="DejaVuSans-32" d="M 1228 531 
L 3431 531 
L 3431 0 
L 469 0 
L 469 531 
Q 828 903 1448 1529 
Q 2069 2156 2228 2338 
Q 2531 2678 2651 2914 
Q 2772 3150 2772 3378 
Q 2772 3750 2511 3984 
Q 2250 4219 1831 4219 
Q 1534 4219 1204 4116 
Q 875 4013 500 3803 
L 500 4441 
Q 881 4594 1212 4672 
Q 1544 4750 1819 4750 
Q 2544 4750 2975 4387 
Q 3406 4025 3406 3419 
Q 3406 3131 3298 2873 
Q 3191 2616 2906 2266 
Q 2828 2175 2409 1742 
Q 1991 1309 1228 531 
z
" transform="scale(0.015625)"/>
       </defs>
       <use xlink:href="#DejaVuSans-32"/>
      </g>
     </g>
    </g>
    <g id="xtick_3">
     <g id="line2d_3">
      <g>
       <use xlink:href="#m60582c458d" x="422.306142" y="385.478125" style="stroke: #000000; stroke-width: 0.8"/>
      </g>
     </g>
     <g id="text_3">
      <!-- 3 -->
      <g transform="translate(419.124892 400.076562) scale(0.1 -0.1)">
       <defs>
        <path id="DejaVuSans-33" d="M 2597 2516 
Q 3050 2419 3304 2112 
Q 3559 1806 3559 1356 
Q 3559 666 3084 287 
Q 2609 -91 1734 -91 
Q 1441 -91 1130 -33 
Q 819 25 488 141 
L 488 750 
Q 750 597 1062 519 
Q 1375 441 1716 441 
Q 2309 441 2620 675 
Q 2931 909 2931 1356 
Q 2931 1769 2642 2001 
Q 2353 2234 1838 2234 
L 1294 2234 
L 1294 2753 
L 1863 2753 
Q 2328 2753 2575 2939 
Q 2822 3125 2822 3475 
Q 2822 3834 2567 4026 
Q 2313 4219 1838 4219 
Q 1578 4219 1281 4162 
Q 984 4106 628 3988 
L 628 4550 
Q 988 4650 1302 4700 
Q 1616 4750 1894 4750 
Q 2613 4750 3031 4423 
Q 3450 4097 3450 3541 
Q 3450 3153 3228 2886 
Q 3006 2619 2597 2516 
z
" transform="scale(0.015625)"/>
       </defs>
       <use xlink:href="#DejaVuSans-33"/>
      </g>
     </g>
    </g>
    <g id="xtick_4">
     <g id="line2d_4">
      <g>
       <use xlink:href="#m60582c458d" x="551.428556" y="385.478125" style="stroke: #000000; stroke-width: 0.8"/>
      </g>
     </g>
     <g id="text_4">
      <!-- 4 -->
      <g transform="translate(548.247306 400.076562) scale(0.1 -0.1)">
       <defs>
        <path id="DejaVuSans-34" d="M 2419 4116 
L 825 1625 
L 2419 1625 
L 2419 4116 
z
M 2253 4666 
L 3047 4666 
L 3047 1625 
L 3713 1625 
L 3713 1100 
L 3047 1100 
L 3047 0 
L 2419 0 
L 2419 1100 
L 313 1100 
L 313 1709 
L 2253 4666 
z
" transform="scale(0.015625)"/>
       </defs>
       <use xlink:href="#DejaVuSans-34"/>
      </g>
     </g>
    </g>
    <g id="xtick_5">
     <g id="line2d_5">
      <g>
       <use xlink:href="#m60582c458d" x="680.550971" y="385.478125" style="stroke: #000000; stroke-width: 0.8"/>
      </g>
     </g>
     <g id="text_5">
      <!-- 5 -->
      <g transform="translate(677.369721 400.076562) scale(0.1 -0.1)">
       <defs>
        <path id="DejaVuSans-35" d="M 691 4666 
L 3169 4666 
L 3169 4134 
L 1269 4134 
L 1269 2991 
Q 1406 3038 1543 3061 
Q 1681 3084 1819 3084 
Q 2600 3084 3056 2656 
Q 3513 2228 3513 1497 
Q 3513 744 3044 326 
Q 2575 -91 1722 -91 
Q 1428 -91 1123 -41 
Q 819 9 494 109 
L 494 744 
Q 775 591 1075 516 
Q 1375 441 1709 441 
Q 2250 441 2565 725 
Q 2881 1009 2881 1497 
Q 2881 1984 2565 2268 
Q 2250 2553 1709 2553 
Q 1456 2553 1204 2497 
Q 953 2441 691 2322 
L 691 4666 
z
" transform="scale(0.015625)"/>
       </defs>
       <use xlink:href="#DejaVuSans-35"/>
      </g>
     </g>
    </g>
    <g id="xtick_6">
     <g id="line2d_6">
      <g>
       <use xlink:href="#m60582c458d" x="809.673385" y="385.478125" style="stroke: #000000; stroke-width: 0.8"/>
      </g>
     </g>
     <g id="text_6">
      <!-- 6 -->
      <g transform="translate(806.492135 400.076562) scale(0.1 -0.1)">
       <defs>
        <path id="DejaVuSans-36" d="M 2113 2584 
Q 1688 2584 1439 2293 
Q 1191 2003 1191 1497 
Q 1191 994 1439 701 
Q 1688 409 2113 409 
Q 2538 409 2786 701 
Q 3034 994 3034 1497 
Q 3034 2003 2786 2293 
Q 2538 2584 2113 2584 
z
M 3366 4563 
L 3366 3988 
Q 3128 4100 2886 4159 
Q 2644 4219 2406 4219 
Q 1781 4219 1451 3797 
Q 1122 3375 1075 2522 
Q 1259 2794 1537 2939 
Q 1816 3084 2150 3084 
Q 2853 3084 3261 2657 
Q 3669 2231 3669 1497 
Q 3669 778 3244 343 
Q 2819 -91 2113 -91 
Q 1303 -91 875 529 
Q 447 1150 447 2328 
Q 447 3434 972 4092 
Q 1497 4750 2381 4750 
Q 2619 4750 2861 4703 
Q 3103 4656 3366 4563 
z
" transform="scale(0.015625)"/>
       </defs>
       <use xlink:href="#DejaVuSans-36"/>
      </g>
     </g>
    </g>
    <g id="text_7">
     <!-- Alb -->
     <g transform="translate(440.147031 413.754687) scale(0.1 -0.1)">
      <defs>
       <path id="DejaVuSans-41" d="M 2188 4044 
L 1331 1722 
L 3047 1722 
L 2188 4044 
z
M 1831 4666 
L 2547 4666 
L 4325 0 
L 3669 0 
L 3244 1197 
L 1141 1197 
L 716 0 
L 50 0 
L 1831 4666 
z
" transform="scale(0.015625)"/>
       <path id="DejaVuSans-6c" d="M 603 4863 
L 1178 4863 
L 1178 0 
L 603 0 
L 603 4863 
z
" transform="scale(0.015625)"/>
       <path id="DejaVuSans-62" d="M 3116 1747 
Q 3116 2381 2855 2742 
Q 2594 3103 2138 3103 
Q 1681 3103 1420 2742 
Q 1159 2381 1159 1747 
Q 1159 1113 1420 752 
Q 1681 391 2138 391 
Q 2594 391 2855 752 
Q 3116 1113 3116 1747 
z
M 1159 2969 
Q 1341 3281 1617 3432 
Q 1894 3584 2278 3584 
Q 2916 3584 3314 3078 
Q 3713 2572 3713 1747 
Q 3713 922 3314 415 
Q 2916 -91 2278 -91 
Q 1894 -91 1617 61 
Q 1341 213 1159 525 
L 1159 0 
L 581 0 
L 581 4863 
L 1159 4863 
L 1159 2969 
z
" transform="scale(0.015625)"/>
      </defs>
      <use xlink:href="#DejaVuSans-41"/>
      <use xlink:href="#DejaVuSans-6c" x="68.408203"/>
      <use xlink:href="#DejaVuSans-62" x="96.191406"/>
     </g>
    </g>
   </g>
   <g id="matplotlib.axis_2">
    <g id="ytick_1">
     <g id="line2d_7">
      <defs>
       <path id="medbf51f51e" d="M 0 0 
L -3.5 0 
" style="stroke: #000000; stroke-width: 0.8"/>
      </defs>
      <g>
       <use xlink:href="#medbf51f51e" x="46.965625" y="385.478125" style="stroke: #000000; stroke-width: 0.8"/>
      </g>
     </g>
     <g id="text_8">
      <!-- 0 -->
      <g transform="translate(33.603125 389.277344) scale(0.1 -0.1)">
       <defs>
        <path id="DejaVuSans-30" d="M 2034 4250 
Q 1547 4250 1301 3770 
Q 1056 3291 1056 2328 
Q 1056 1369 1301 889 
Q 1547 409 2034 409 
Q 2525 409 2770 889 
Q 3016 1369 3016 2328 
Q 3016 3291 2770 3770 
Q 2525 4250 2034 4250 
z
M 2034 4750 
Q 2819 4750 3233 4129 
Q 3647 3509 3647 2328 
Q 3647 1150 3233 529 
Q 2819 -91 2034 -91 
Q 1250 -91 836 529 
Q 422 1150 422 2328 
Q 422 3509 836 4129 
Q 1250 4750 2034 4750 
z
" transform="scale(0.015625)"/>
       </defs>
       <use xlink:href="#DejaVuSans-30"/>
      </g>
     </g>
    </g>
    <g id="ytick_2">
     <g id="line2d_8">
      <g>
       <use xlink:href="#medbf51f51e" x="46.965625" y="323.383571" style="stroke: #000000; stroke-width: 0.8"/>
      </g>
     </g>
     <g id="text_9">
      <!-- 100 -->
      <g transform="translate(20.878125 327.18279) scale(0.1 -0.1)">
       <use xlink:href="#DejaVuSans-31"/>
       <use xlink:href="#DejaVuSans-30" x="63.623047"/>
       <use xlink:href="#DejaVuSans-30" x="127.246094"/>
      </g>
     </g>
    </g>
    <g id="ytick_3">
     <g id="line2d_9">
      <g>
       <use xlink:href="#medbf51f51e" x="46.965625" y="261.289017" style="stroke: #000000; stroke-width: 0.8"/>
      </g>
     </g>
     <g id="text_10">
      <!-- 200 -->
      <g transform="translate(20.878125 265.088235) scale(0.1 -0.1)">
       <use xlink:href="#DejaVuSans-32"/>
       <use xlink:href="#DejaVuSans-30" x="63.623047"/>
       <use xlink:href="#DejaVuSans-30" x="127.246094"/>
      </g>
     </g>
    </g>
    <g id="ytick_4">
     <g id="line2d_10">
      <g>
       <use xlink:href="#medbf51f51e" x="46.965625" y="199.194463" style="stroke: #000000; stroke-width: 0.8"/>
      </g>
     </g>
     <g id="text_11">
      <!-- 300 -->
      <g transform="translate(20.878125 202.993681) scale(0.1 -0.1)">
       <use xlink:href="#DejaVuSans-33"/>
       <use xlink:href="#DejaVuSans-30" x="63.623047"/>
       <use xlink:href="#DejaVuSans-30" x="127.246094"/>
      </g>
     </g>
    </g>
    <g id="ytick_5">
     <g id="line2d_11">
      <g>
       <use xlink:href="#medbf51f51e" x="46.965625" y="137.099908" style="stroke: #000000; stroke-width: 0.8"/>
      </g>
     </g>
     <g id="text_12">
      <!-- 400 -->
      <g transform="translate(20.878125 140.899127) scale(0.1 -0.1)">
       <use xlink:href="#DejaVuSans-34"/>
       <use xlink:href="#DejaVuSans-30" x="63.623047"/>
       <use xlink:href="#DejaVuSans-30" x="127.246094"/>
      </g>
     </g>
    </g>
    <g id="ytick_6">
     <g id="line2d_12">
      <g>
       <use xlink:href="#medbf51f51e" x="46.965625" y="75.005354" style="stroke: #000000; stroke-width: 0.8"/>
      </g>
     </g>
     <g id="text_13">
      <!-- 500 -->
      <g transform="translate(20.878125 78.804573) scale(0.1 -0.1)">
       <use xlink:href="#DejaVuSans-35"/>
       <use xlink:href="#DejaVuSans-30" x="63.623047"/>
       <use xlink:href="#DejaVuSans-30" x="127.246094"/>
      </g>
     </g>
    </g>
    <g id="text_14">
     <!-- Count -->
     <g transform="translate(14.798437 218.746562) rotate(-90) scale(0.1 -0.1)">
      <defs>
       <path id="DejaVuSans-43" d="M 4122 4306 
L 4122 3641 
Q 3803 3938 3442 4084 
Q 3081 4231 2675 4231 
Q 1875 4231 1450 3742 
Q 1025 3253 1025 2328 
Q 1025 1406 1450 917 
Q 1875 428 2675 428 
Q 3081 428 3442 575 
Q 3803 722 4122 1019 
L 4122 359 
Q 3791 134 3420 21 
Q 3050 -91 2638 -91 
Q 1578 -91 968 557 
Q 359 1206 359 2328 
Q 359 3453 968 4101 
Q 1578 4750 2638 4750 
Q 3056 4750 3426 4639 
Q 3797 4528 4122 4306 
z
" transform="scale(0.015625)"/>
       <path id="DejaVuSans-6f" d="M 1959 3097 
Q 1497 3097 1228 2736 
Q 959 2375 959 1747 
Q 959 1119 1226 758 
Q 1494 397 1959 397 
Q 2419 397 2687 759 
Q 2956 1122 2956 1747 
Q 2956 2369 2687 2733 
Q 2419 3097 1959 3097 
z
M 1959 3584 
Q 2709 3584 3137 3096 
Q 3566 2609 3566 1747 
Q 3566 888 3137 398 
Q 2709 -91 1959 -91 
Q 1206 -91 779 398 
Q 353 888 353 1747 
Q 353 2609 779 3096 
Q 1206 3584 1959 3584 
z
" transform="scale(0.015625)"/>
       <path id="DejaVuSans-75" d="M 544 1381 
L 544 3500 
L 1119 3500 
L 1119 1403 
Q 1119 906 1312 657 
Q 1506 409 1894 409 
Q 2359 409 2629 706 
Q 2900 1003 2900 1516 
L 2900 3500 
L 3475 3500 
L 3475 0 
L 2900 0 
L 2900 538 
Q 2691 219 2414 64 
Q 2138 -91 1772 -91 
Q 1169 -91 856 284 
Q 544 659 544 1381 
z
M 1991 3584 
L 1991 3584 
z
" transform="scale(0.015625)"/>
       <path id="DejaVuSans-6e" d="M 3513 2113 
L 3513 0 
L 2938 0 
L 2938 2094 
Q 2938 2591 2744 2837 
Q 2550 3084 2163 3084 
Q 1697 3084 1428 2787 
Q 1159 2491 1159 1978 
L 1159 0 
L 581 0 
L 581 3500 
L 1159 3500 
L 1159 2956 
Q 1366 3272 1645 3428 
Q 1925 3584 2291 3584 
Q 2894 3584 3203 3211 
Q 3513 2838 3513 2113 
z
" transform="scale(0.015625)"/>
       <path id="DejaVuSans-74" d="M 1172 4494 
L 1172 3500 
L 2356 3500 
L 2356 3053 
L 1172 3053 
L 1172 1153 
Q 1172 725 1289 603 
Q 1406 481 1766 481 
L 2356 481 
L 2356 0 
L 1766 0 
Q 1100 0 847 248 
Q 594 497 594 1153 
L 594 3053 
L 172 3053 
L 172 3500 
L 594 3500 
L 594 4494 
L 1172 4494 
z
" transform="scale(0.015625)"/>
      </defs>
      <use xlink:href="#DejaVuSans-43"/>
      <use xlink:href="#DejaVuSans-6f" x="69.824219"/>
      <use xlink:href="#DejaVuSans-75" x="131.005859"/>
      <use xlink:href="#DejaVuSans-6e" x="194.384766"/>
      <use xlink:href="#DejaVuSans-74" x="257.763672"/>
     </g>
    </g>
   </g>
   <g id="line2d_13">
    <path d="M 125.32459 385.30315 
L 154.523125 385.20756 
L 170.744534 384.774094 
L 196.698788 384.076794 
L 212.920197 383.594308 
L 222.653042 383.047416 
L 229.141606 382.494873 
L 238.874451 381.370374 
L 255.09586 379.33605 
L 264.828705 378.479507 
L 277.805832 377.416736 
L 284.294396 376.636026 
L 290.782959 375.622961 
L 297.271523 374.401608 
L 307.004368 372.278493 
L 336.202904 365.455422 
L 352.424313 361.154334 
L 375.134285 355.628315 
L 381.622849 353.577597 
L 391.355694 350.354841 
L 394.599976 349.423515 
L 397.844258 348.629168 
L 401.088539 347.982117 
L 407.577103 347.037082 
L 414.065666 346.177568 
L 417.309948 345.587254 
L 420.55423 344.78012 
L 423.798512 343.680867 
L 427.042794 342.228049 
L 430.287075 340.381659 
L 433.531357 338.12999 
L 436.775639 335.4933 
L 440.019921 332.521783 
L 443.264202 329.286974 
L 449.752766 322.337961 
L 462.729893 307.874408 
L 475.70702 293.105867 
L 482.195584 285.477946 
L 485.439865 281.506578 
L 488.684147 277.354938 
L 491.928429 272.955126 
L 495.172711 268.239886 
L 498.416992 263.151355 
L 501.661274 257.648122 
L 504.905556 251.709334 
L 508.149838 245.335678 
L 511.394119 238.548113 
L 514.638401 231.385842 
L 521.126965 216.177658 
L 534.104092 184.778174 
L 537.348374 177.37071 
L 540.592655 170.352716 
L 543.836937 163.802963 
L 547.081219 157.780354 
L 550.325501 152.327747 
L 553.569782 147.477933 
L 556.814064 143.259194 
L 560.058346 139.698857 
L 563.302628 136.825002 
L 566.546909 134.66787 
L 569.791191 133.262542 
L 573.035473 132.653043 
L 576.279755 132.895912 
L 579.524036 134.059987 
L 582.768318 136.219756 
L 586.0126 139.44224 
L 589.256882 143.770866 
L 592.501163 149.212144 
L 595.745445 155.730635 
L 598.989727 163.254432 
L 602.234009 171.688668 
L 605.478291 180.930741 
L 608.722572 190.880229 
L 611.966854 201.43921 
L 618.455418 223.950727 
L 628.188263 258.955789 
L 631.432545 270.214558 
L 634.676826 280.972615 
L 637.921108 291.107288 
L 641.16539 300.551351 
L 644.409672 309.293107 
L 647.653953 317.365973 
L 650.898235 324.830526 
L 654.142517 331.753639 
L 657.386799 338.189847 
L 660.631081 344.169273 
L 663.875362 349.694455 
L 667.119644 354.745926 
L 670.363926 359.294122 
L 673.608208 363.313806 
L 676.852489 366.79696 
L 680.096771 369.760861 
L 683.341053 372.249534 
L 686.585335 374.328524 
L 689.829616 376.074647 
L 693.073898 377.563642 
L 696.31818 378.859119 
L 699.562462 380.005615 
L 702.806743 381.027153 
L 706.051025 381.930889 
L 709.295307 382.713966 
L 712.539589 383.371054 
L 715.783871 383.900388 
L 722.272434 384.603478 
L 728.760998 384.940464 
L 738.493843 385.104472 
L 770.93666 385.272604 
L 770.93666 385.272604 
" clip-path="url(#p6f70bc049c)" style="fill: none; stroke: #1f77b4; stroke-width: 1.5; stroke-linecap: square"/>
   </g>
   <g id="line2d_14">
    <path d="M 83.43517 385.478121 
L 438.967423 385.372133 
L 530.599446 385.085704 
L 578.248099 384.964093 
L 611.235627 385.097754 
L 673.545403 385.432764 
L 743.185741 385.477431 
L 812.82608 385.478121 
L 812.82608 385.478121 
" clip-path="url(#p6f70bc049c)" style="fill: none; stroke: #1f77b4; stroke-width: 1.5; stroke-linecap: square"/>
   </g>
   <g id="patch_70">
    <path d="M 46.965625 385.478125 
L 46.965625 22.318125 
" style="fill: none; stroke: #000000; stroke-width: 0.8; stroke-linejoin: miter; stroke-linecap: square"/>
   </g>
   <g id="patch_71">
    <path d="M 849.295625 385.478125 
L 849.295625 22.318125 
" style="fill: none; stroke: #000000; stroke-width: 0.8; stroke-linejoin: miter; stroke-linecap: square"/>
   </g>
   <g id="patch_72">
    <path d="M 46.965625 385.478125 
L 849.295625 385.478125 
" style="fill: none; stroke: #000000; stroke-width: 0.8; stroke-linejoin: miter; stroke-linecap: square"/>
   </g>
   <g id="patch_73">
    <path d="M 46.965625 22.318125 
L 849.295625 22.318125 
" style="fill: none; stroke: #000000; stroke-width: 0.8; stroke-linejoin: miter; stroke-linecap: square"/>
   </g>
   <g id="text_15">
    <!-- Distribution of Alb -->
    <g transform="translate(393.950625 16.318125) scale(0.12 -0.12)">
     <defs>
      <path id="DejaVuSans-44" d="M 1259 4147 
L 1259 519 
L 2022 519 
Q 2988 519 3436 956 
Q 3884 1394 3884 2338 
Q 3884 3275 3436 3711 
Q 2988 4147 2022 4147 
L 1259 4147 
z
M 628 4666 
L 1925 4666 
Q 3281 4666 3915 4102 
Q 4550 3538 4550 2338 
Q 4550 1131 3912 565 
Q 3275 0 1925 0 
L 628 0 
L 628 4666 
z
" transform="scale(0.015625)"/>
      <path id="DejaVuSans-69" d="M 603 3500 
L 1178 3500 
L 1178 0 
L 603 0 
L 603 3500 
z
M 603 4863 
L 1178 4863 
L 1178 4134 
L 603 4134 
L 603 4863 
z
" transform="scale(0.015625)"/>
      <path id="DejaVuSans-73" d="M 2834 3397 
L 2834 2853 
Q 2591 2978 2328 3040 
Q 2066 3103 1784 3103 
Q 1356 3103 1142 2972 
Q 928 2841 928 2578 
Q 928 2378 1081 2264 
Q 1234 2150 1697 2047 
L 1894 2003 
Q 2506 1872 2764 1633 
Q 3022 1394 3022 966 
Q 3022 478 2636 193 
Q 2250 -91 1575 -91 
Q 1294 -91 989 -36 
Q 684 19 347 128 
L 347 722 
Q 666 556 975 473 
Q 1284 391 1588 391 
Q 1994 391 2212 530 
Q 2431 669 2431 922 
Q 2431 1156 2273 1281 
Q 2116 1406 1581 1522 
L 1381 1569 
Q 847 1681 609 1914 
Q 372 2147 372 2553 
Q 372 3047 722 3315 
Q 1072 3584 1716 3584 
Q 2034 3584 2315 3537 
Q 2597 3491 2834 3397 
z
" transform="scale(0.015625)"/>
      <path id="DejaVuSans-72" d="M 2631 2963 
Q 2534 3019 2420 3045 
Q 2306 3072 2169 3072 
Q 1681 3072 1420 2755 
Q 1159 2438 1159 1844 
L 1159 0 
L 581 0 
L 581 3500 
L 1159 3500 
L 1159 2956 
Q 1341 3275 1631 3429 
Q 1922 3584 2338 3584 
Q 2397 3584 2469 3576 
Q 2541 3569 2628 3553 
L 2631 2963 
z
" transform="scale(0.015625)"/>
      <path id="DejaVuSans-20" transform="scale(0.015625)"/>
      <path id="DejaVuSans-66" d="M 2375 4863 
L 2375 4384 
L 1825 4384 
Q 1516 4384 1395 4259 
Q 1275 4134 1275 3809 
L 1275 3500 
L 2222 3500 
L 2222 3053 
L 1275 3053 
L 1275 0 
L 697 0 
L 697 3053 
L 147 3053 
L 147 3500 
L 697 3500 
L 697 3744 
Q 697 4328 969 4595 
Q 1241 4863 1831 4863 
L 2375 4863 
z
" transform="scale(0.015625)"/>
     </defs>
     <use xlink:href="#DejaVuSans-44"/>
     <use xlink:href="#DejaVuSans-69" x="77.001953"/>
     <use xlink:href="#DejaVuSans-73" x="104.785156"/>
     <use xlink:href="#DejaVuSans-74" x="156.884766"/>
     <use xlink:href="#DejaVuSans-72" x="196.09375"/>
     <use xlink:href="#DejaVuSans-69" x="237.207031"/>
     <use xlink:href="#DejaVuSans-62" x="264.990234"/>
     <use xlink:href="#DejaVuSans-75" x="328.466797"/>
     <use xlink:href="#DejaVuSans-74" x="391.845703"/>
     <use xlink:href="#DejaVuSans-69" x="431.054688"/>
     <use xlink:href="#DejaVuSans-6f" x="458.837891"/>
     <use xlink:href="#DejaVuSans-6e" x="520.019531"/>
     <use xlink:href="#DejaVuSans-20" x="583.398438"/>
     <use xlink:href="#DejaVuSans-6f" x="615.185547"/>
     <use xlink:href="#DejaVuSans-66" x="676.367188"/>
     <use xlink:href="#DejaVuSans-20" x="711.572266"/>
     <use xlink:href="#DejaVuSans-41" x="743.359375"/>
     <use xlink:href="#DejaVuSans-6c" x="811.767578"/>
     <use xlink:href="#DejaVuSans-62" x="839.550781"/>
    </g>
   </g>
  </g>
 </g>
 <defs>
  <clipPath id="p6f70bc049c">
   <rect x="46.965625" y="22.318125" width="802.33" height="363.16"/>
  </clipPath>
 </defs>
</svg>
