<?xml version="1.0" encoding="utf-8" standalone="no"?>
<!DOCTYPE svg PUBLIC "-//W3C//DTD SVG 1.1//EN"
  "http://www.w3.org/Graphics/SVG/1.1/DTD/svg11.dtd">
<svg xmlns:xlink="http://www.w3.org/1999/xlink" width="856.495625pt" height="423.034375pt" viewBox="0 0 856.495625 423.034375" xmlns="http://www.w3.org/2000/svg" version="1.1">
 <metadata>
  <rdf:RDF xmlns:dc="http://purl.org/dc/elements/1.1/" xmlns:cc="http://creativecommons.org/ns#" xmlns:rdf="http://www.w3.org/1999/02/22-rdf-syntax-ns#">
   <cc:Work>
    <dc:type rdf:resource="http://purl.org/dc/dcmitype/StillImage"/>
    <dc:date>2024-07-14T15:47:05.501105</dc:date>
    <dc:format>image/svg+xml</dc:format>
    <dc:creator>
     <cc:Agent>
      <dc:title>Matplotlib v3.9.0, https://matplotlib.org/</dc:title>
     </cc:Agent>
    </dc:creator>
   </cc:Work>
  </rdf:RDF>
 </metadata>
 <defs>
  <style type="text/css">*{stroke-linejoin: round; stroke-linecap: butt}</style>
 </defs>
 <g id="figure_1">
  <g id="patch_1">
   <path d="M 0 423.034375 
L 856.495625 423.034375 
L 856.495625 0 
L 0 0 
z
" style="fill: #ffffff"/>
  </g>
  <g id="axes_1">
   <g id="patch_2">
    <path d="M 46.965625 385.478125 
L 849.295625 385.478125 
L 849.295625 22.318125 
L 46.965625 22.318125 
z
" style="fill: #ffffff"/>
   </g>
   <g id="patch_3">
    <path d="M 107.695757 385.478125 
L 113.46584 385.478125 
L 113.46584 383.984101 
L 107.695757 383.984101 
z
" clip-path="url(#pf3a8e71901)" style="fill: #1f77b4; fill-opacity: 0.5; stroke: #000000; stroke-width: 0.515871; stroke-linejoin: miter"/>
   </g>
   <g id="patch_4">
    <path d="M 113.46584 385.478125 
L 119.235922 385.478125 
L 119.235922 385.478125 
L 113.46584 385.478125 
z
" clip-path="url(#pf3a8e71901)" style="fill: #1f77b4; fill-opacity: 0.5; stroke: #000000; stroke-width: 0.515871; stroke-linejoin: miter"/>
   </g>
   <g id="patch_5">
    <path d="M 119.235922 385.478125 
L 125.006005 385.478125 
L 125.006005 385.478125 
L 119.235922 385.478125 
z
" clip-path="url(#pf3a8e71901)" style="fill: #1f77b4; fill-opacity: 0.5; stroke: #000000; stroke-width: 0.515871; stroke-linejoin: miter"/>
   </g>
   <g id="patch_6">
    <path d="M 125.006005 385.478125 
L 130.776087 385.478125 
L 130.776087 385.478125 
L 125.006005 385.478125 
z
" clip-path="url(#pf3a8e71901)" style="fill: #1f77b4; fill-opacity: 0.5; stroke: #000000; stroke-width: 0.515871; stroke-linejoin: miter"/>
   </g>
   <g id="patch_7">
    <path d="M 130.776087 385.478125 
L 136.54617 385.478125 
L 136.54617 385.478125 
L 130.776087 385.478125 
z
" clip-path="url(#pf3a8e71901)" style="fill: #1f77b4; fill-opacity: 0.5; stroke: #000000; stroke-width: 0.515871; stroke-linejoin: miter"/>
   </g>
   <g id="patch_8">
    <path d="M 136.54617 385.478125 
L 142.316252 385.478125 
L 142.316252 385.478125 
L 136.54617 385.478125 
z
" clip-path="url(#pf3a8e71901)" style="fill: #1f77b4; fill-opacity: 0.5; stroke: #000000; stroke-width: 0.515871; stroke-linejoin: miter"/>
   </g>
   <g id="patch_9">
    <path d="M 142.316252 385.478125 
L 148.086335 385.478125 
L 148.086335 385.478125 
L 142.316252 385.478125 
z
" clip-path="url(#pf3a8e71901)" style="fill: #1f77b4; fill-opacity: 0.5; stroke: #000000; stroke-width: 0.515871; stroke-linejoin: miter"/>
   </g>
   <g id="patch_10">
    <path d="M 148.086335 385.478125 
L 153.856417 385.478125 
L 153.856417 385.478125 
L 148.086335 385.478125 
z
" clip-path="url(#pf3a8e71901)" style="fill: #1f77b4; fill-opacity: 0.5; stroke: #000000; stroke-width: 0.515871; stroke-linejoin: miter"/>
   </g>
   <g id="patch_11">
    <path d="M 153.856417 385.478125 
L 159.6265 385.478125 
L 159.6265 384.731113 
L 153.856417 384.731113 
z
" clip-path="url(#pf3a8e71901)" style="fill: #1f77b4; fill-opacity: 0.5; stroke: #000000; stroke-width: 0.515871; stroke-linejoin: miter"/>
   </g>
   <g id="patch_12">
    <path d="M 159.6265 385.478125 
L 165.396582 385.478125 
L 165.396582 385.478125 
L 159.6265 385.478125 
z
" clip-path="url(#pf3a8e71901)" style="fill: #1f77b4; fill-opacity: 0.5; stroke: #000000; stroke-width: 0.515871; stroke-linejoin: miter"/>
   </g>
   <g id="patch_13">
    <path d="M 165.396582 385.478125 
L 171.166665 385.478125 
L 171.166665 385.478125 
L 165.396582 385.478125 
z
" clip-path="url(#pf3a8e71901)" style="fill: #1f77b4; fill-opacity: 0.5; stroke: #000000; stroke-width: 0.515871; stroke-linejoin: miter"/>
   </g>
   <g id="patch_14">
    <path d="M 171.166665 385.478125 
L 176.936747 385.478125 
L 176.936747 384.731113 
L 171.166665 384.731113 
z
" clip-path="url(#pf3a8e71901)" style="fill: #1f77b4; fill-opacity: 0.5; stroke: #000000; stroke-width: 0.515871; stroke-linejoin: miter"/>
   </g>
   <g id="patch_15">
    <path d="M 176.936747 385.478125 
L 182.70683 385.478125 
L 182.70683 385.478125 
L 176.936747 385.478125 
z
" clip-path="url(#pf3a8e71901)" style="fill: #1f77b4; fill-opacity: 0.5; stroke: #000000; stroke-width: 0.515871; stroke-linejoin: miter"/>
   </g>
   <g id="patch_16">
    <path d="M 182.70683 385.478125 
L 188.476912 385.478125 
L 188.476912 385.478125 
L 182.70683 385.478125 
z
" clip-path="url(#pf3a8e71901)" style="fill: #1f77b4; fill-opacity: 0.5; stroke: #000000; stroke-width: 0.515871; stroke-linejoin: miter"/>
   </g>
   <g id="patch_17">
    <path d="M 188.476912 385.478125 
L 194.246995 385.478125 
L 194.246995 383.237088 
L 188.476912 383.237088 
z
" clip-path="url(#pf3a8e71901)" style="fill: #1f77b4; fill-opacity: 0.5; stroke: #000000; stroke-width: 0.515871; stroke-linejoin: miter"/>
   </g>
   <g id="patch_18">
    <path d="M 194.246995 385.478125 
L 200.017077 385.478125 
L 200.017077 384.731113 
L 194.246995 384.731113 
z
" clip-path="url(#pf3a8e71901)" style="fill: #1f77b4; fill-opacity: 0.5; stroke: #000000; stroke-width: 0.515871; stroke-linejoin: miter"/>
   </g>
   <g id="patch_19">
    <path d="M 200.017077 385.478125 
L 205.78716 385.478125 
L 205.78716 383.984101 
L 200.017077 383.984101 
z
" clip-path="url(#pf3a8e71901)" style="fill: #1f77b4; fill-opacity: 0.5; stroke: #000000; stroke-width: 0.515871; stroke-linejoin: miter"/>
   </g>
   <g id="patch_20">
    <path d="M 205.78716 385.478125 
L 211.557242 385.478125 
L 211.557242 384.731113 
L 205.78716 384.731113 
z
" clip-path="url(#pf3a8e71901)" style="fill: #1f77b4; fill-opacity: 0.5; stroke: #000000; stroke-width: 0.515871; stroke-linejoin: miter"/>
   </g>
   <g id="patch_21">
    <path d="M 211.557242 385.478125 
L 217.327325 385.478125 
L 217.327325 382.490076 
L 211.557242 382.490076 
z
" clip-path="url(#pf3a8e71901)" style="fill: #1f77b4; fill-opacity: 0.5; stroke: #000000; stroke-width: 0.515871; stroke-linejoin: miter"/>
   </g>
   <g id="patch_22">
    <path d="M 217.327325 385.478125 
L 223.097407 385.478125 
L 223.097407 383.237088 
L 217.327325 383.237088 
z
" clip-path="url(#pf3a8e71901)" style="fill: #1f77b4; fill-opacity: 0.5; stroke: #000000; stroke-width: 0.515871; stroke-linejoin: miter"/>
   </g>
   <g id="patch_23">
    <path d="M 223.097407 385.478125 
L 228.86749 385.478125 
L 228.86749 383.984101 
L 223.097407 383.984101 
z
" clip-path="url(#pf3a8e71901)" style="fill: #1f77b4; fill-opacity: 0.5; stroke: #000000; stroke-width: 0.515871; stroke-linejoin: miter"/>
   </g>
   <g id="patch_24">
    <path d="M 228.86749 385.478125 
L 234.637572 385.478125 
L 234.637572 382.490076 
L 228.86749 382.490076 
z
" clip-path="url(#pf3a8e71901)" style="fill: #1f77b4; fill-opacity: 0.5; stroke: #000000; stroke-width: 0.515871; stroke-linejoin: miter"/>
   </g>
   <g id="patch_25">
    <path d="M 234.637572 385.478125 
L 240.407655 385.478125 
L 240.407655 383.984101 
L 234.637572 383.984101 
z
" clip-path="url(#pf3a8e71901)" style="fill: #1f77b4; fill-opacity: 0.5; stroke: #000000; stroke-width: 0.515871; stroke-linejoin: miter"/>
   </g>
   <g id="patch_26">
    <path d="M 240.407655 385.478125 
L 246.177737 385.478125 
L 246.177737 385.478125 
L 240.407655 385.478125 
z
" clip-path="url(#pf3a8e71901)" style="fill: #1f77b4; fill-opacity: 0.5; stroke: #000000; stroke-width: 0.515871; stroke-linejoin: miter"/>
   </g>
   <g id="patch_27">
    <path d="M 246.177737 385.478125 
L 251.94782 385.478125 
L 251.94782 381.743064 
L 246.177737 381.743064 
z
" clip-path="url(#pf3a8e71901)" style="fill: #1f77b4; fill-opacity: 0.5; stroke: #000000; stroke-width: 0.515871; stroke-linejoin: miter"/>
   </g>
   <g id="patch_28">
    <path d="M 251.94782 385.478125 
L 257.717902 385.478125 
L 257.717902 382.490076 
L 251.94782 382.490076 
z
" clip-path="url(#pf3a8e71901)" style="fill: #1f77b4; fill-opacity: 0.5; stroke: #000000; stroke-width: 0.515871; stroke-linejoin: miter"/>
   </g>
   <g id="patch_29">
    <path d="M 257.717902 385.478125 
L 263.487985 385.478125 
L 263.487985 380.996052 
L 257.717902 380.996052 
z
" clip-path="url(#pf3a8e71901)" style="fill: #1f77b4; fill-opacity: 0.5; stroke: #000000; stroke-width: 0.515871; stroke-linejoin: miter"/>
   </g>
   <g id="patch_30">
    <path d="M 263.487985 385.478125 
L 269.258067 385.478125 
L 269.258067 384.731113 
L 263.487985 384.731113 
z
" clip-path="url(#pf3a8e71901)" style="fill: #1f77b4; fill-opacity: 0.5; stroke: #000000; stroke-width: 0.515871; stroke-linejoin: miter"/>
   </g>
   <g id="patch_31">
    <path d="M 269.258067 385.478125 
L 275.02815 385.478125 
L 275.02815 382.490076 
L 269.258067 382.490076 
z
" clip-path="url(#pf3a8e71901)" style="fill: #1f77b4; fill-opacity: 0.5; stroke: #000000; stroke-width: 0.515871; stroke-linejoin: miter"/>
   </g>
   <g id="patch_32">
    <path d="M 275.02815 385.478125 
L 280.798232 385.478125 
L 280.798232 381.743064 
L 275.02815 381.743064 
z
" clip-path="url(#pf3a8e71901)" style="fill: #1f77b4; fill-opacity: 0.5; stroke: #000000; stroke-width: 0.515871; stroke-linejoin: miter"/>
   </g>
   <g id="patch_33">
    <path d="M 280.798232 385.478125 
L 286.568315 385.478125 
L 286.568315 381.743064 
L 280.798232 381.743064 
z
" clip-path="url(#pf3a8e71901)" style="fill: #1f77b4; fill-opacity: 0.5; stroke: #000000; stroke-width: 0.515871; stroke-linejoin: miter"/>
   </g>
   <g id="patch_34">
    <path d="M 286.568315 385.478125 
L 292.338397 385.478125 
L 292.338397 379.502027 
L 286.568315 379.502027 
z
" clip-path="url(#pf3a8e71901)" style="fill: #1f77b4; fill-opacity: 0.5; stroke: #000000; stroke-width: 0.515871; stroke-linejoin: miter"/>
   </g>
   <g id="patch_35">
    <path d="M 292.338397 385.478125 
L 298.10848 385.478125 
L 298.10848 377.26099 
L 292.338397 377.26099 
z
" clip-path="url(#pf3a8e71901)" style="fill: #1f77b4; fill-opacity: 0.5; stroke: #000000; stroke-width: 0.515871; stroke-linejoin: miter"/>
   </g>
   <g id="patch_36">
    <path d="M 298.10848 385.478125 
L 303.878562 385.478125 
L 303.878562 377.26099 
L 298.10848 377.26099 
z
" clip-path="url(#pf3a8e71901)" style="fill: #1f77b4; fill-opacity: 0.5; stroke: #000000; stroke-width: 0.515871; stroke-linejoin: miter"/>
   </g>
   <g id="patch_37">
    <path d="M 303.878562 385.478125 
L 309.648645 385.478125 
L 309.648645 375.766966 
L 303.878562 375.766966 
z
" clip-path="url(#pf3a8e71901)" style="fill: #1f77b4; fill-opacity: 0.5; stroke: #000000; stroke-width: 0.515871; stroke-linejoin: miter"/>
   </g>
   <g id="patch_38">
    <path d="M 309.648645 385.478125 
L 315.418727 385.478125 
L 315.418727 370.53788 
L 309.648645 370.53788 
z
" clip-path="url(#pf3a8e71901)" style="fill: #1f77b4; fill-opacity: 0.5; stroke: #000000; stroke-width: 0.515871; stroke-linejoin: miter"/>
   </g>
   <g id="patch_39">
    <path d="M 315.418727 385.478125 
L 321.18881 385.478125 
L 321.18881 372.778917 
L 315.418727 372.778917 
z
" clip-path="url(#pf3a8e71901)" style="fill: #1f77b4; fill-opacity: 0.5; stroke: #000000; stroke-width: 0.515871; stroke-linejoin: miter"/>
   </g>
   <g id="patch_40">
    <path d="M 321.18881 385.478125 
L 326.958892 385.478125 
L 326.958892 367.549831 
L 321.18881 367.549831 
z
" clip-path="url(#pf3a8e71901)" style="fill: #1f77b4; fill-opacity: 0.5; stroke: #000000; stroke-width: 0.515871; stroke-linejoin: miter"/>
   </g>
   <g id="patch_41">
    <path d="M 326.958892 385.478125 
L 332.728975 385.478125 
L 332.728975 369.043856 
L 326.958892 369.043856 
z
" clip-path="url(#pf3a8e71901)" style="fill: #1f77b4; fill-opacity: 0.5; stroke: #000000; stroke-width: 0.515871; stroke-linejoin: miter"/>
   </g>
   <g id="patch_42">
    <path d="M 332.728975 385.478125 
L 338.499057 385.478125 
L 338.499057 358.585684 
L 332.728975 358.585684 
z
" clip-path="url(#pf3a8e71901)" style="fill: #1f77b4; fill-opacity: 0.5; stroke: #000000; stroke-width: 0.515871; stroke-linejoin: miter"/>
   </g>
   <g id="patch_43">
    <path d="M 338.499057 385.478125 
L 344.26914 385.478125 
L 344.26914 357.09166 
L 338.499057 357.09166 
z
" clip-path="url(#pf3a8e71901)" style="fill: #1f77b4; fill-opacity: 0.5; stroke: #000000; stroke-width: 0.515871; stroke-linejoin: miter"/>
   </g>
   <g id="patch_44">
    <path d="M 344.26914 385.478125 
L 350.039222 385.478125 
L 350.039222 357.09166 
L 344.26914 357.09166 
z
" clip-path="url(#pf3a8e71901)" style="fill: #1f77b4; fill-opacity: 0.5; stroke: #000000; stroke-width: 0.515871; stroke-linejoin: miter"/>
   </g>
   <g id="patch_45">
    <path d="M 350.039222 385.478125 
L 355.809305 385.478125 
L 355.809305 345.139464 
L 350.039222 345.139464 
z
" clip-path="url(#pf3a8e71901)" style="fill: #1f77b4; fill-opacity: 0.5; stroke: #000000; stroke-width: 0.515871; stroke-linejoin: miter"/>
   </g>
   <g id="patch_46">
    <path d="M 355.809305 385.478125 
L 361.579387 385.478125 
L 361.579387 335.428305 
L 355.809305 335.428305 
z
" clip-path="url(#pf3a8e71901)" style="fill: #1f77b4; fill-opacity: 0.5; stroke: #000000; stroke-width: 0.515871; stroke-linejoin: miter"/>
   </g>
   <g id="patch_47">
    <path d="M 361.579387 385.478125 
L 367.34947 385.478125 
L 367.34947 332.440256 
L 361.579387 332.440256 
z
" clip-path="url(#pf3a8e71901)" style="fill: #1f77b4; fill-opacity: 0.5; stroke: #000000; stroke-width: 0.515871; stroke-linejoin: miter"/>
   </g>
   <g id="patch_48">
    <path d="M 367.34947 385.478125 
L 373.119552 385.478125 
L 373.119552 316.752999 
L 367.34947 316.752999 
z
" clip-path="url(#pf3a8e71901)" style="fill: #1f77b4; fill-opacity: 0.5; stroke: #000000; stroke-width: 0.515871; stroke-linejoin: miter"/>
   </g>
   <g id="patch_49">
    <path d="M 373.119552 385.478125 
L 378.889635 385.478125 
L 378.889635 295.089644 
L 373.119552 295.089644 
z
" clip-path="url(#pf3a8e71901)" style="fill: #1f77b4; fill-opacity: 0.5; stroke: #000000; stroke-width: 0.515871; stroke-linejoin: miter"/>
   </g>
   <g id="patch_50">
    <path d="M 378.889635 385.478125 
L 384.659717 385.478125 
L 384.659717 385.478125 
L 378.889635 385.478125 
z
" clip-path="url(#pf3a8e71901)" style="fill: #1f77b4; fill-opacity: 0.5; stroke: #000000; stroke-width: 0.515871; stroke-linejoin: miter"/>
   </g>
   <g id="patch_51">
    <path d="M 384.659717 385.478125 
L 390.4298 385.478125 
L 390.4298 310.776901 
L 384.659717 310.776901 
z
" clip-path="url(#pf3a8e71901)" style="fill: #1f77b4; fill-opacity: 0.5; stroke: #000000; stroke-width: 0.515871; stroke-linejoin: miter"/>
   </g>
   <g id="patch_52">
    <path d="M 390.4298 385.478125 
L 396.199882 385.478125 
L 396.199882 285.378485 
L 390.4298 285.378485 
z
" clip-path="url(#pf3a8e71901)" style="fill: #1f77b4; fill-opacity: 0.5; stroke: #000000; stroke-width: 0.515871; stroke-linejoin: miter"/>
   </g>
   <g id="patch_53">
    <path d="M 396.199882 385.478125 
L 401.969965 385.478125 
L 401.969965 271.185252 
L 396.199882 271.185252 
z
" clip-path="url(#pf3a8e71901)" style="fill: #1f77b4; fill-opacity: 0.5; stroke: #000000; stroke-width: 0.515871; stroke-linejoin: miter"/>
   </g>
   <g id="patch_54">
    <path d="M 401.969965 385.478125 
L 407.740047 385.478125 
L 407.740047 251.015922 
L 401.969965 251.015922 
z
" clip-path="url(#pf3a8e71901)" style="fill: #1f77b4; fill-opacity: 0.5; stroke: #000000; stroke-width: 0.515871; stroke-linejoin: miter"/>
   </g>
   <g id="patch_55">
    <path d="M 407.740047 385.478125 
L 413.51013 385.478125 
L 413.51013 218.147383 
L 407.740047 218.147383 
z
" clip-path="url(#pf3a8e71901)" style="fill: #1f77b4; fill-opacity: 0.5; stroke: #000000; stroke-width: 0.515871; stroke-linejoin: miter"/>
   </g>
   <g id="patch_56">
    <path d="M 413.51013 385.478125 
L 419.280212 385.478125 
L 419.280212 206.9422 
L 413.51013 206.9422 
z
" clip-path="url(#pf3a8e71901)" style="fill: #1f77b4; fill-opacity: 0.5; stroke: #000000; stroke-width: 0.515871; stroke-linejoin: miter"/>
   </g>
   <g id="patch_57">
    <path d="M 419.280212 385.478125 
L 425.050295 385.478125 
L 425.050295 182.290796 
L 419.280212 182.290796 
z
" clip-path="url(#pf3a8e71901)" style="fill: #1f77b4; fill-opacity: 0.5; stroke: #000000; stroke-width: 0.515871; stroke-linejoin: miter"/>
   </g>
   <g id="patch_58">
    <path d="M 425.050295 385.478125 
L 430.820377 385.478125 
L 430.820377 139.711098 
L 425.050295 139.711098 
z
" clip-path="url(#pf3a8e71901)" style="fill: #1f77b4; fill-opacity: 0.5; stroke: #000000; stroke-width: 0.515871; stroke-linejoin: miter"/>
   </g>
   <g id="patch_59">
    <path d="M 430.820377 385.478125 
L 436.59046 385.478125 
L 436.59046 106.095548 
L 430.820377 106.095548 
z
" clip-path="url(#pf3a8e71901)" style="fill: #1f77b4; fill-opacity: 0.5; stroke: #000000; stroke-width: 0.515871; stroke-linejoin: miter"/>
   </g>
   <g id="patch_60">
    <path d="M 436.59046 385.478125 
L 442.360542 385.478125 
L 442.360542 60.527801 
L 436.59046 60.527801 
z
" clip-path="url(#pf3a8e71901)" style="fill: #1f77b4; fill-opacity: 0.5; stroke: #000000; stroke-width: 0.515871; stroke-linejoin: miter"/>
   </g>
   <g id="patch_61">
    <path d="M 442.360542 385.478125 
L 448.130625 385.478125 
L 448.130625 59.033777 
L 442.360542 59.033777 
z
" clip-path="url(#pf3a8e71901)" style="fill: #1f77b4; fill-opacity: 0.5; stroke: #000000; stroke-width: 0.515871; stroke-linejoin: miter"/>
   </g>
   <g id="patch_62">
    <path d="M 448.130625 385.478125 
L 453.900708 385.478125 
L 453.900708 65.756887 
L 448.130625 65.756887 
z
" clip-path="url(#pf3a8e71901)" style="fill: #1f77b4; fill-opacity: 0.5; stroke: #000000; stroke-width: 0.515871; stroke-linejoin: miter"/>
   </g>
   <g id="patch_63">
    <path d="M 453.900708 385.478125 
L 459.67079 385.478125 
L 459.67079 39.611458 
L 453.900708 39.611458 
z
" clip-path="url(#pf3a8e71901)" style="fill: #1f77b4; fill-opacity: 0.5; stroke: #000000; stroke-width: 0.515871; stroke-linejoin: miter"/>
   </g>
   <g id="patch_64">
    <path d="M 459.67079 385.478125 
L 465.440873 385.478125 
L 465.440873 81.444144 
L 459.67079 81.444144 
z
" clip-path="url(#pf3a8e71901)" style="fill: #1f77b4; fill-opacity: 0.5; stroke: #000000; stroke-width: 0.515871; stroke-linejoin: miter"/>
   </g>
   <g id="patch_65">
    <path d="M 465.440873 385.478125 
L 471.210955 385.478125 
L 471.210955 121.782805 
L 465.440873 121.782805 
z
" clip-path="url(#pf3a8e71901)" style="fill: #1f77b4; fill-opacity: 0.5; stroke: #000000; stroke-width: 0.515871; stroke-linejoin: miter"/>
   </g>
   <g id="patch_66">
    <path d="M 471.210955 385.478125 
L 476.981038 385.478125 
L 476.981038 138.217074 
L 471.210955 138.217074 
z
" clip-path="url(#pf3a8e71901)" style="fill: #1f77b4; fill-opacity: 0.5; stroke: #000000; stroke-width: 0.515871; stroke-linejoin: miter"/>
   </g>
   <g id="patch_67">
    <path d="M 476.981038 385.478125 
L 482.75112 385.478125 
L 482.75112 199.472077 
L 476.981038 199.472077 
z
" clip-path="url(#pf3a8e71901)" style="fill: #1f77b4; fill-opacity: 0.5; stroke: #000000; stroke-width: 0.515871; stroke-linejoin: miter"/>
   </g>
   <g id="patch_68">
    <path d="M 482.75112 385.478125 
L 488.521203 385.478125 
L 488.521203 214.412322 
L 482.75112 214.412322 
z
" clip-path="url(#pf3a8e71901)" style="fill: #1f77b4; fill-opacity: 0.5; stroke: #000000; stroke-width: 0.515871; stroke-linejoin: miter"/>
   </g>
   <g id="patch_69">
    <path d="M 488.521203 385.478125 
L 494.291285 385.478125 
L 494.291285 267.450191 
L 488.521203 267.450191 
z
" clip-path="url(#pf3a8e71901)" style="fill: #1f77b4; fill-opacity: 0.5; stroke: #000000; stroke-width: 0.515871; stroke-linejoin: miter"/>
   </g>
   <g id="patch_70">
    <path d="M 494.291285 385.478125 
L 500.061368 385.478125 
L 500.061368 307.788852 
L 494.291285 307.788852 
z
" clip-path="url(#pf3a8e71901)" style="fill: #1f77b4; fill-opacity: 0.5; stroke: #000000; stroke-width: 0.515871; stroke-linejoin: miter"/>
   </g>
   <g id="patch_71">
    <path d="M 500.061368 385.478125 
L 505.83145 385.478125 
L 505.83145 320.48806 
L 500.061368 320.48806 
z
" clip-path="url(#pf3a8e71901)" style="fill: #1f77b4; fill-opacity: 0.5; stroke: #000000; stroke-width: 0.515871; stroke-linejoin: miter"/>
   </g>
   <g id="patch_72">
    <path d="M 505.83145 385.478125 
L 511.601533 385.478125 
L 511.601533 346.633489 
L 505.83145 346.633489 
z
" clip-path="url(#pf3a8e71901)" style="fill: #1f77b4; fill-opacity: 0.5; stroke: #000000; stroke-width: 0.515871; stroke-linejoin: miter"/>
   </g>
   <g id="patch_73">
    <path d="M 511.601533 385.478125 
L 517.371615 385.478125 
L 517.371615 385.478125 
L 511.601533 385.478125 
z
" clip-path="url(#pf3a8e71901)" style="fill: #1f77b4; fill-opacity: 0.5; stroke: #000000; stroke-width: 0.515871; stroke-linejoin: miter"/>
   </g>
   <g id="patch_74">
    <path d="M 517.371615 385.478125 
L 523.141698 385.478125 
L 523.141698 360.826721 
L 517.371615 360.826721 
z
" clip-path="url(#pf3a8e71901)" style="fill: #1f77b4; fill-opacity: 0.5; stroke: #000000; stroke-width: 0.515871; stroke-linejoin: miter"/>
   </g>
   <g id="patch_75">
    <path d="M 523.141698 385.478125 
L 528.91178 385.478125 
L 528.91178 369.790868 
L 523.141698 369.790868 
z
" clip-path="url(#pf3a8e71901)" style="fill: #1f77b4; fill-opacity: 0.5; stroke: #000000; stroke-width: 0.515871; stroke-linejoin: miter"/>
   </g>
   <g id="patch_76">
    <path d="M 528.91178 385.478125 
L 534.681863 385.478125 
L 534.681863 368.296844 
L 528.91178 368.296844 
z
" clip-path="url(#pf3a8e71901)" style="fill: #1f77b4; fill-opacity: 0.5; stroke: #000000; stroke-width: 0.515871; stroke-linejoin: miter"/>
   </g>
   <g id="patch_77">
    <path d="M 534.681863 385.478125 
L 540.451945 385.478125 
L 540.451945 375.019954 
L 534.681863 375.019954 
z
" clip-path="url(#pf3a8e71901)" style="fill: #1f77b4; fill-opacity: 0.5; stroke: #000000; stroke-width: 0.515871; stroke-linejoin: miter"/>
   </g>
   <g id="patch_78">
    <path d="M 540.451945 385.478125 
L 546.222028 385.478125 
L 546.222028 378.755015 
L 540.451945 378.755015 
z
" clip-path="url(#pf3a8e71901)" style="fill: #1f77b4; fill-opacity: 0.5; stroke: #000000; stroke-width: 0.515871; stroke-linejoin: miter"/>
   </g>
   <g id="patch_79">
    <path d="M 546.222028 385.478125 
L 551.99211 385.478125 
L 551.99211 380.996052 
L 546.222028 380.996052 
z
" clip-path="url(#pf3a8e71901)" style="fill: #1f77b4; fill-opacity: 0.5; stroke: #000000; stroke-width: 0.515871; stroke-linejoin: miter"/>
   </g>
   <g id="patch_80">
    <path d="M 551.99211 385.478125 
L 557.762193 385.478125 
L 557.762193 383.984101 
L 551.99211 383.984101 
z
" clip-path="url(#pf3a8e71901)" style="fill: #1f77b4; fill-opacity: 0.5; stroke: #000000; stroke-width: 0.515871; stroke-linejoin: miter"/>
   </g>
   <g id="patch_81">
    <path d="M 557.762193 385.478125 
L 563.532275 385.478125 
L 563.532275 383.237088 
L 557.762193 383.237088 
z
" clip-path="url(#pf3a8e71901)" style="fill: #1f77b4; fill-opacity: 0.5; stroke: #000000; stroke-width: 0.515871; stroke-linejoin: miter"/>
   </g>
   <g id="patch_82">
    <path d="M 563.532275 385.478125 
L 569.302358 385.478125 
L 569.302358 385.478125 
L 563.532275 385.478125 
z
" clip-path="url(#pf3a8e71901)" style="fill: #1f77b4; fill-opacity: 0.5; stroke: #000000; stroke-width: 0.515871; stroke-linejoin: miter"/>
   </g>
   <g id="patch_83">
    <path d="M 569.302358 385.478125 
L 575.07244 385.478125 
L 575.07244 383.984101 
L 569.302358 383.984101 
z
" clip-path="url(#pf3a8e71901)" style="fill: #1f77b4; fill-opacity: 0.5; stroke: #000000; stroke-width: 0.515871; stroke-linejoin: miter"/>
   </g>
   <g id="patch_84">
    <path d="M 575.07244 385.478125 
L 580.842523 385.478125 
L 580.842523 384.731113 
L 575.07244 384.731113 
z
" clip-path="url(#pf3a8e71901)" style="fill: #1f77b4; fill-opacity: 0.5; stroke: #000000; stroke-width: 0.515871; stroke-linejoin: miter"/>
   </g>
   <g id="patch_85">
    <path d="M 580.842523 385.478125 
L 586.612605 385.478125 
L 586.612605 385.478125 
L 580.842523 385.478125 
z
" clip-path="url(#pf3a8e71901)" style="fill: #1f77b4; fill-opacity: 0.5; stroke: #000000; stroke-width: 0.515871; stroke-linejoin: miter"/>
   </g>
   <g id="patch_86">
    <path d="M 586.612605 385.478125 
L 592.382688 385.478125 
L 592.382688 383.237088 
L 586.612605 383.237088 
z
" clip-path="url(#pf3a8e71901)" style="fill: #1f77b4; fill-opacity: 0.5; stroke: #000000; stroke-width: 0.515871; stroke-linejoin: miter"/>
   </g>
   <g id="patch_87">
    <path d="M 592.382688 385.478125 
L 598.15277 385.478125 
L 598.15277 383.984101 
L 592.382688 383.984101 
z
" clip-path="url(#pf3a8e71901)" style="fill: #1f77b4; fill-opacity: 0.5; stroke: #000000; stroke-width: 0.515871; stroke-linejoin: miter"/>
   </g>
   <g id="patch_88">
    <path d="M 598.15277 385.478125 
L 603.922853 385.478125 
L 603.922853 384.731113 
L 598.15277 384.731113 
z
" clip-path="url(#pf3a8e71901)" style="fill: #1f77b4; fill-opacity: 0.5; stroke: #000000; stroke-width: 0.515871; stroke-linejoin: miter"/>
   </g>
   <g id="patch_89">
    <path d="M 603.922853 385.478125 
L 609.692935 385.478125 
L 609.692935 385.478125 
L 603.922853 385.478125 
z
" clip-path="url(#pf3a8e71901)" style="fill: #1f77b4; fill-opacity: 0.5; stroke: #000000; stroke-width: 0.515871; stroke-linejoin: miter"/>
   </g>
   <g id="patch_90">
    <path d="M 609.692935 385.478125 
L 615.463018 385.478125 
L 615.463018 383.984101 
L 609.692935 383.984101 
z
" clip-path="url(#pf3a8e71901)" style="fill: #1f77b4; fill-opacity: 0.5; stroke: #000000; stroke-width: 0.515871; stroke-linejoin: miter"/>
   </g>
   <g id="patch_91">
    <path d="M 615.463018 385.478125 
L 621.2331 385.478125 
L 621.2331 385.478125 
L 615.463018 385.478125 
z
" clip-path="url(#pf3a8e71901)" style="fill: #1f77b4; fill-opacity: 0.5; stroke: #000000; stroke-width: 0.515871; stroke-linejoin: miter"/>
   </g>
   <g id="patch_92">
    <path d="M 621.2331 385.478125 
L 627.003183 385.478125 
L 627.003183 383.984101 
L 621.2331 383.984101 
z
" clip-path="url(#pf3a8e71901)" style="fill: #1f77b4; fill-opacity: 0.5; stroke: #000000; stroke-width: 0.515871; stroke-linejoin: miter"/>
   </g>
   <g id="patch_93">
    <path d="M 627.003183 385.478125 
L 632.773265 385.478125 
L 632.773265 385.478125 
L 627.003183 385.478125 
z
" clip-path="url(#pf3a8e71901)" style="fill: #1f77b4; fill-opacity: 0.5; stroke: #000000; stroke-width: 0.515871; stroke-linejoin: miter"/>
   </g>
   <g id="patch_94">
    <path d="M 632.773265 385.478125 
L 638.543348 385.478125 
L 638.543348 385.478125 
L 632.773265 385.478125 
z
" clip-path="url(#pf3a8e71901)" style="fill: #1f77b4; fill-opacity: 0.5; stroke: #000000; stroke-width: 0.515871; stroke-linejoin: miter"/>
   </g>
   <g id="patch_95">
    <path d="M 638.543348 385.478125 
L 644.31343 385.478125 
L 644.31343 385.478125 
L 638.543348 385.478125 
z
" clip-path="url(#pf3a8e71901)" style="fill: #1f77b4; fill-opacity: 0.5; stroke: #000000; stroke-width: 0.515871; stroke-linejoin: miter"/>
   </g>
   <g id="patch_96">
    <path d="M 644.31343 385.478125 
L 650.083513 385.478125 
L 650.083513 384.731113 
L 644.31343 384.731113 
z
" clip-path="url(#pf3a8e71901)" style="fill: #1f77b4; fill-opacity: 0.5; stroke: #000000; stroke-width: 0.515871; stroke-linejoin: miter"/>
   </g>
   <g id="patch_97">
    <path d="M 650.083513 385.478125 
L 655.853595 385.478125 
L 655.853595 385.478125 
L 650.083513 385.478125 
z
" clip-path="url(#pf3a8e71901)" style="fill: #1f77b4; fill-opacity: 0.5; stroke: #000000; stroke-width: 0.515871; stroke-linejoin: miter"/>
   </g>
   <g id="patch_98">
    <path d="M 655.853595 385.478125 
L 661.623678 385.478125 
L 661.623678 383.237088 
L 655.853595 383.237088 
z
" clip-path="url(#pf3a8e71901)" style="fill: #1f77b4; fill-opacity: 0.5; stroke: #000000; stroke-width: 0.515871; stroke-linejoin: miter"/>
   </g>
   <g id="patch_99">
    <path d="M 661.623678 385.478125 
L 667.39376 385.478125 
L 667.39376 385.478125 
L 661.623678 385.478125 
z
" clip-path="url(#pf3a8e71901)" style="fill: #1f77b4; fill-opacity: 0.5; stroke: #000000; stroke-width: 0.515871; stroke-linejoin: miter"/>
   </g>
   <g id="patch_100">
    <path d="M 667.39376 385.478125 
L 673.163843 385.478125 
L 673.163843 385.478125 
L 667.39376 385.478125 
z
" clip-path="url(#pf3a8e71901)" style="fill: #1f77b4; fill-opacity: 0.5; stroke: #000000; stroke-width: 0.515871; stroke-linejoin: miter"/>
   </g>
   <g id="patch_101">
    <path d="M 673.163843 385.478125 
L 678.933925 385.478125 
L 678.933925 384.731113 
L 673.163843 384.731113 
z
" clip-path="url(#pf3a8e71901)" style="fill: #1f77b4; fill-opacity: 0.5; stroke: #000000; stroke-width: 0.515871; stroke-linejoin: miter"/>
   </g>
   <g id="patch_102">
    <path d="M 678.933925 385.478125 
L 684.704008 385.478125 
L 684.704008 385.478125 
L 678.933925 385.478125 
z
" clip-path="url(#pf3a8e71901)" style="fill: #1f77b4; fill-opacity: 0.5; stroke: #000000; stroke-width: 0.515871; stroke-linejoin: miter"/>
   </g>
   <g id="patch_103">
    <path d="M 684.704008 385.478125 
L 690.47409 385.478125 
L 690.47409 385.478125 
L 684.704008 385.478125 
z
" clip-path="url(#pf3a8e71901)" style="fill: #1f77b4; fill-opacity: 0.5; stroke: #000000; stroke-width: 0.515871; stroke-linejoin: miter"/>
   </g>
   <g id="patch_104">
    <path d="M 690.47409 385.478125 
L 696.244173 385.478125 
L 696.244173 385.478125 
L 690.47409 385.478125 
z
" clip-path="url(#pf3a8e71901)" style="fill: #1f77b4; fill-opacity: 0.5; stroke: #000000; stroke-width: 0.515871; stroke-linejoin: miter"/>
   </g>
   <g id="patch_105">
    <path d="M 696.244173 385.478125 
L 702.014255 385.478125 
L 702.014255 384.731113 
L 696.244173 384.731113 
z
" clip-path="url(#pf3a8e71901)" style="fill: #1f77b4; fill-opacity: 0.5; stroke: #000000; stroke-width: 0.515871; stroke-linejoin: miter"/>
   </g>
   <g id="patch_106">
    <path d="M 702.014255 385.478125 
L 707.784338 385.478125 
L 707.784338 385.478125 
L 702.014255 385.478125 
z
" clip-path="url(#pf3a8e71901)" style="fill: #1f77b4; fill-opacity: 0.5; stroke: #000000; stroke-width: 0.515871; stroke-linejoin: miter"/>
   </g>
   <g id="patch_107">
    <path d="M 707.784338 385.478125 
L 713.55442 385.478125 
L 713.55442 385.478125 
L 707.784338 385.478125 
z
" clip-path="url(#pf3a8e71901)" style="fill: #1f77b4; fill-opacity: 0.5; stroke: #000000; stroke-width: 0.515871; stroke-linejoin: miter"/>
   </g>
   <g id="patch_108">
    <path d="M 713.55442 385.478125 
L 719.324503 385.478125 
L 719.324503 385.478125 
L 713.55442 385.478125 
z
" clip-path="url(#pf3a8e71901)" style="fill: #1f77b4; fill-opacity: 0.5; stroke: #000000; stroke-width: 0.515871; stroke-linejoin: miter"/>
   </g>
   <g id="patch_109">
    <path d="M 719.324503 385.478125 
L 725.094585 385.478125 
L 725.094585 385.478125 
L 719.324503 385.478125 
z
" clip-path="url(#pf3a8e71901)" style="fill: #1f77b4; fill-opacity: 0.5; stroke: #000000; stroke-width: 0.515871; stroke-linejoin: miter"/>
   </g>
   <g id="patch_110">
    <path d="M 725.094585 385.478125 
L 730.864668 385.478125 
L 730.864668 385.478125 
L 725.094585 385.478125 
z
" clip-path="url(#pf3a8e71901)" style="fill: #1f77b4; fill-opacity: 0.5; stroke: #000000; stroke-width: 0.515871; stroke-linejoin: miter"/>
   </g>
   <g id="patch_111">
    <path d="M 730.864668 385.478125 
L 736.63475 385.478125 
L 736.63475 384.731113 
L 730.864668 384.731113 
z
" clip-path="url(#pf3a8e71901)" style="fill: #1f77b4; fill-opacity: 0.5; stroke: #000000; stroke-width: 0.515871; stroke-linejoin: miter"/>
   </g>
   <g id="patch_112">
    <path d="M 736.63475 385.478125 
L 742.404833 385.478125 
L 742.404833 385.478125 
L 736.63475 385.478125 
z
" clip-path="url(#pf3a8e71901)" style="fill: #1f77b4; fill-opacity: 0.5; stroke: #000000; stroke-width: 0.515871; stroke-linejoin: miter"/>
   </g>
   <g id="patch_113">
    <path d="M 742.404833 385.478125 
L 748.174915 385.478125 
L 748.174915 385.478125 
L 742.404833 385.478125 
z
" clip-path="url(#pf3a8e71901)" style="fill: #1f77b4; fill-opacity: 0.5; stroke: #000000; stroke-width: 0.515871; stroke-linejoin: miter"/>
   </g>
   <g id="patch_114">
    <path d="M 748.174915 385.478125 
L 753.944998 385.478125 
L 753.944998 385.478125 
L 748.174915 385.478125 
z
" clip-path="url(#pf3a8e71901)" style="fill: #1f77b4; fill-opacity: 0.5; stroke: #000000; stroke-width: 0.515871; stroke-linejoin: miter"/>
   </g>
   <g id="patch_115">
    <path d="M 753.944998 385.478125 
L 759.71508 385.478125 
L 759.71508 385.478125 
L 753.944998 385.478125 
z
" clip-path="url(#pf3a8e71901)" style="fill: #1f77b4; fill-opacity: 0.5; stroke: #000000; stroke-width: 0.515871; stroke-linejoin: miter"/>
   </g>
   <g id="patch_116">
    <path d="M 759.71508 385.478125 
L 765.485163 385.478125 
L 765.485163 385.478125 
L 759.71508 385.478125 
z
" clip-path="url(#pf3a8e71901)" style="fill: #1f77b4; fill-opacity: 0.5; stroke: #000000; stroke-width: 0.515871; stroke-linejoin: miter"/>
   </g>
   <g id="patch_117">
    <path d="M 765.485163 385.478125 
L 771.255245 385.478125 
L 771.255245 385.478125 
L 765.485163 385.478125 
z
" clip-path="url(#pf3a8e71901)" style="fill: #1f77b4; fill-opacity: 0.5; stroke: #000000; stroke-width: 0.515871; stroke-linejoin: miter"/>
   </g>
   <g id="patch_118">
    <path d="M 771.255245 385.478125 
L 777.025328 385.478125 
L 777.025328 385.478125 
L 771.255245 385.478125 
z
" clip-path="url(#pf3a8e71901)" style="fill: #1f77b4; fill-opacity: 0.5; stroke: #000000; stroke-width: 0.515871; stroke-linejoin: miter"/>
   </g>
   <g id="patch_119">
    <path d="M 777.025328 385.478125 
L 782.79541 385.478125 
L 782.79541 385.478125 
L 777.025328 385.478125 
z
" clip-path="url(#pf3a8e71901)" style="fill: #1f77b4; fill-opacity: 0.5; stroke: #000000; stroke-width: 0.515871; stroke-linejoin: miter"/>
   </g>
   <g id="patch_120">
    <path d="M 782.79541 385.478125 
L 788.565493 385.478125 
L 788.565493 384.731113 
L 782.79541 384.731113 
z
" clip-path="url(#pf3a8e71901)" style="fill: #1f77b4; fill-opacity: 0.5; stroke: #000000; stroke-width: 0.515871; stroke-linejoin: miter"/>
   </g>
   <g id="matplotlib.axis_1">
    <g id="xtick_1">
     <g id="line2d_1">
      <defs>
       <path id="m308c65fe76" d="M 0 0 
L 0 3.5 
" style="stroke: #000000; stroke-width: 0.8"/>
      </defs>
      <g>
       <use xlink:href="#m308c65fe76" x="137.822737" y="385.478125" style="stroke: #000000; stroke-width: 0.8"/>
      </g>
     </g>
     <g id="text_1">
      <!-- 4 -->
      <g transform="translate(134.641487 400.076562) scale(0.1 -0.1)">
       <defs>
        <path id="DejaVuSans-34" d="M 2419 4116 
L 825 1625 
L 2419 1625 
L 2419 4116 
z
M 2253 4666 
L 3047 4666 
L 3047 1625 
L 3713 1625 
L 3713 1100 
L 3047 1100 
L 3047 0 
L 2419 0 
L 2419 1100 
L 313 1100 
L 313 1709 
L 2253 4666 
z
" transform="scale(0.015625)"/>
       </defs>
       <use xlink:href="#DejaVuSans-34"/>
      </g>
     </g>
    </g>
    <g id="xtick_2">
     <g id="line2d_2">
      <g>
       <use xlink:href="#m308c65fe76" x="258.330654" y="385.478125" style="stroke: #000000; stroke-width: 0.8"/>
      </g>
     </g>
     <g id="text_2">
      <!-- 6 -->
      <g transform="translate(255.149404 400.076562) scale(0.1 -0.1)">
       <defs>
        <path id="DejaVuSans-36" d="M 2113 2584 
Q 1688 2584 1439 2293 
Q 1191 2003 1191 1497 
Q 1191 994 1439 701 
Q 1688 409 2113 409 
Q 2538 409 2786 701 
Q 3034 994 3034 1497 
Q 3034 2003 2786 2293 
Q 2538 2584 2113 2584 
z
M 3366 4563 
L 3366 3988 
Q 3128 4100 2886 4159 
Q 2644 4219 2406 4219 
Q 1781 4219 1451 3797 
Q 1122 3375 1075 2522 
Q 1259 2794 1537 2939 
Q 1816 3084 2150 3084 
Q 2853 3084 3261 2657 
Q 3669 2231 3669 1497 
Q 3669 778 3244 343 
Q 2819 -91 2113 -91 
Q 1303 -91 875 529 
Q 447 1150 447 2328 
Q 447 3434 972 4092 
Q 1497 4750 2381 4750 
Q 2619 4750 2861 4703 
Q 3103 4656 3366 4563 
z
" transform="scale(0.015625)"/>
       </defs>
       <use xlink:href="#DejaVuSans-36"/>
      </g>
     </g>
    </g>
    <g id="xtick_3">
     <g id="line2d_3">
      <g>
       <use xlink:href="#m308c65fe76" x="378.838572" y="385.478125" style="stroke: #000000; stroke-width: 0.8"/>
      </g>
     </g>
     <g id="text_3">
      <!-- 8 -->
      <g transform="translate(375.657322 400.076562) scale(0.1 -0.1)">
       <defs>
        <path id="DejaVuSans-38" d="M 2034 2216 
Q 1584 2216 1326 1975 
Q 1069 1734 1069 1313 
Q 1069 891 1326 650 
Q 1584 409 2034 409 
Q 2484 409 2743 651 
Q 3003 894 3003 1313 
Q 3003 1734 2745 1975 
Q 2488 2216 2034 2216 
z
M 1403 2484 
Q 997 2584 770 2862 
Q 544 3141 544 3541 
Q 544 4100 942 4425 
Q 1341 4750 2034 4750 
Q 2731 4750 3128 4425 
Q 3525 4100 3525 3541 
Q 3525 3141 3298 2862 
Q 3072 2584 2669 2484 
Q 3125 2378 3379 2068 
Q 3634 1759 3634 1313 
Q 3634 634 3220 271 
Q 2806 -91 2034 -91 
Q 1263 -91 848 271 
Q 434 634 434 1313 
Q 434 1759 690 2068 
Q 947 2378 1403 2484 
z
M 1172 3481 
Q 1172 3119 1398 2916 
Q 1625 2713 2034 2713 
Q 2441 2713 2670 2916 
Q 2900 3119 2900 3481 
Q 2900 3844 2670 4047 
Q 2441 4250 2034 4250 
Q 1625 4250 1398 4047 
Q 1172 3844 1172 3481 
z
" transform="scale(0.015625)"/>
       </defs>
       <use xlink:href="#DejaVuSans-38"/>
      </g>
     </g>
    </g>
    <g id="xtick_4">
     <g id="line2d_4">
      <g>
       <use xlink:href="#m308c65fe76" x="499.34649" y="385.478125" style="stroke: #000000; stroke-width: 0.8"/>
      </g>
     </g>
     <g id="text_4">
      <!-- 10 -->
      <g transform="translate(492.98399 400.076562) scale(0.1 -0.1)">
       <defs>
        <path id="DejaVuSans-31" d="M 794 531 
L 1825 531 
L 1825 4091 
L 703 3866 
L 703 4441 
L 1819 4666 
L 2450 4666 
L 2450 531 
L 3481 531 
L 3481 0 
L 794 0 
L 794 531 
z
" transform="scale(0.015625)"/>
        <path id="DejaVuSans-30" d="M 2034 4250 
Q 1547 4250 1301 3770 
Q 1056 3291 1056 2328 
Q 1056 1369 1301 889 
Q 1547 409 2034 409 
Q 2525 409 2770 889 
Q 3016 1369 3016 2328 
Q 3016 3291 2770 3770 
Q 2525 4250 2034 4250 
z
M 2034 4750 
Q 2819 4750 3233 4129 
Q 3647 3509 3647 2328 
Q 3647 1150 3233 529 
Q 2819 -91 2034 -91 
Q 1250 -91 836 529 
Q 422 1150 422 2328 
Q 422 3509 836 4129 
Q 1250 4750 2034 4750 
z
" transform="scale(0.015625)"/>
       </defs>
       <use xlink:href="#DejaVuSans-31"/>
       <use xlink:href="#DejaVuSans-30" x="63.623047"/>
      </g>
     </g>
    </g>
    <g id="xtick_5">
     <g id="line2d_5">
      <g>
       <use xlink:href="#m308c65fe76" x="619.854408" y="385.478125" style="stroke: #000000; stroke-width: 0.8"/>
      </g>
     </g>
     <g id="text_5">
      <!-- 12 -->
      <g transform="translate(613.491908 400.076562) scale(0.1 -0.1)">
       <defs>
        <path id="DejaVuSans-32" d="M 1228 531 
L 3431 531 
L 3431 0 
L 469 0 
L 469 531 
Q 828 903 1448 1529 
Q 2069 2156 2228 2338 
Q 2531 2678 2651 2914 
Q 2772 3150 2772 3378 
Q 2772 3750 2511 3984 
Q 2250 4219 1831 4219 
Q 1534 4219 1204 4116 
Q 875 4013 500 3803 
L 500 4441 
Q 881 4594 1212 4672 
Q 1544 4750 1819 4750 
Q 2544 4750 2975 4387 
Q 3406 4025 3406 3419 
Q 3406 3131 3298 2873 
Q 3191 2616 2906 2266 
Q 2828 2175 2409 1742 
Q 1991 1309 1228 531 
z
" transform="scale(0.015625)"/>
       </defs>
       <use xlink:href="#DejaVuSans-31"/>
       <use xlink:href="#DejaVuSans-32" x="63.623047"/>
      </g>
     </g>
    </g>
    <g id="xtick_6">
     <g id="line2d_6">
      <g>
       <use xlink:href="#m308c65fe76" x="740.362326" y="385.478125" style="stroke: #000000; stroke-width: 0.8"/>
      </g>
     </g>
     <g id="text_6">
      <!-- 14 -->
      <g transform="translate(733.999826 400.076562) scale(0.1 -0.1)">
       <use xlink:href="#DejaVuSans-31"/>
       <use xlink:href="#DejaVuSans-34" x="63.623047"/>
      </g>
     </g>
    </g>
    <g id="text_7">
     <!-- Ca -->
     <g transform="translate(441.575156 413.754687) scale(0.1 -0.1)">
      <defs>
       <path id="DejaVuSans-43" d="M 4122 4306 
L 4122 3641 
Q 3803 3938 3442 4084 
Q 3081 4231 2675 4231 
Q 1875 4231 1450 3742 
Q 1025 3253 1025 2328 
Q 1025 1406 1450 917 
Q 1875 428 2675 428 
Q 3081 428 3442 575 
Q 3803 722 4122 1019 
L 4122 359 
Q 3791 134 3420 21 
Q 3050 -91 2638 -91 
Q 1578 -91 968 557 
Q 359 1206 359 2328 
Q 359 3453 968 4101 
Q 1578 4750 2638 4750 
Q 3056 4750 3426 4639 
Q 3797 4528 4122 4306 
z
" transform="scale(0.015625)"/>
       <path id="DejaVuSans-61" d="M 2194 1759 
Q 1497 1759 1228 1600 
Q 959 1441 959 1056 
Q 959 750 1161 570 
Q 1363 391 1709 391 
Q 2188 391 2477 730 
Q 2766 1069 2766 1631 
L 2766 1759 
L 2194 1759 
z
M 3341 1997 
L 3341 0 
L 2766 0 
L 2766 531 
Q 2569 213 2275 61 
Q 1981 -91 1556 -91 
Q 1019 -91 701 211 
Q 384 513 384 1019 
Q 384 1609 779 1909 
Q 1175 2209 1959 2209 
L 2766 2209 
L 2766 2266 
Q 2766 2663 2505 2880 
Q 2244 3097 1772 3097 
Q 1472 3097 1187 3025 
Q 903 2953 641 2809 
L 641 3341 
Q 956 3463 1253 3523 
Q 1550 3584 1831 3584 
Q 2591 3584 2966 3190 
Q 3341 2797 3341 1997 
z
" transform="scale(0.015625)"/>
      </defs>
      <use xlink:href="#DejaVuSans-43"/>
      <use xlink:href="#DejaVuSans-61" x="69.824219"/>
     </g>
    </g>
   </g>
   <g id="matplotlib.axis_2">
    <g id="ytick_1">
     <g id="line2d_7">
      <defs>
       <path id="md7e1cf208a" d="M 0 0 
L -3.5 0 
" style="stroke: #000000; stroke-width: 0.8"/>
      </defs>
      <g>
       <use xlink:href="#md7e1cf208a" x="46.965625" y="385.478125" style="stroke: #000000; stroke-width: 0.8"/>
      </g>
     </g>
     <g id="text_8">
      <!-- 0 -->
      <g transform="translate(33.603125 389.277344) scale(0.1 -0.1)">
       <use xlink:href="#DejaVuSans-30"/>
      </g>
     </g>
    </g>
    <g id="ytick_2">
     <g id="line2d_8">
      <g>
       <use xlink:href="#md7e1cf208a" x="46.965625" y="310.776901" style="stroke: #000000; stroke-width: 0.8"/>
      </g>
     </g>
     <g id="text_9">
      <!-- 100 -->
      <g transform="translate(20.878125 314.57612) scale(0.1 -0.1)">
       <use xlink:href="#DejaVuSans-31"/>
       <use xlink:href="#DejaVuSans-30" x="63.623047"/>
       <use xlink:href="#DejaVuSans-30" x="127.246094"/>
      </g>
     </g>
    </g>
    <g id="ytick_3">
     <g id="line2d_9">
      <g>
       <use xlink:href="#md7e1cf208a" x="46.965625" y="236.075677" style="stroke: #000000; stroke-width: 0.8"/>
      </g>
     </g>
     <g id="text_10">
      <!-- 200 -->
      <g transform="translate(20.878125 239.874896) scale(0.1 -0.1)">
       <use xlink:href="#DejaVuSans-32"/>
       <use xlink:href="#DejaVuSans-30" x="63.623047"/>
       <use xlink:href="#DejaVuSans-30" x="127.246094"/>
      </g>
     </g>
    </g>
    <g id="ytick_4">
     <g id="line2d_10">
      <g>
       <use xlink:href="#md7e1cf208a" x="46.965625" y="161.374453" style="stroke: #000000; stroke-width: 0.8"/>
      </g>
     </g>
     <g id="text_11">
      <!-- 300 -->
      <g transform="translate(20.878125 165.173672) scale(0.1 -0.1)">
       <defs>
        <path id="DejaVuSans-33" d="M 2597 2516 
Q 3050 2419 3304 2112 
Q 3559 1806 3559 1356 
Q 3559 666 3084 287 
Q 2609 -91 1734 -91 
Q 1441 -91 1130 -33 
Q 819 25 488 141 
L 488 750 
Q 750 597 1062 519 
Q 1375 441 1716 441 
Q 2309 441 2620 675 
Q 2931 909 2931 1356 
Q 2931 1769 2642 2001 
Q 2353 2234 1838 2234 
L 1294 2234 
L 1294 2753 
L 1863 2753 
Q 2328 2753 2575 2939 
Q 2822 3125 2822 3475 
Q 2822 3834 2567 4026 
Q 2313 4219 1838 4219 
Q 1578 4219 1281 4162 
Q 984 4106 628 3988 
L 628 4550 
Q 988 4650 1302 4700 
Q 1616 4750 1894 4750 
Q 2613 4750 3031 4423 
Q 3450 4097 3450 3541 
Q 3450 3153 3228 2886 
Q 3006 2619 2597 2516 
z
" transform="scale(0.015625)"/>
       </defs>
       <use xlink:href="#DejaVuSans-33"/>
       <use xlink:href="#DejaVuSans-30" x="63.623047"/>
       <use xlink:href="#DejaVuSans-30" x="127.246094"/>
      </g>
     </g>
    </g>
    <g id="ytick_5">
     <g id="line2d_11">
      <g>
       <use xlink:href="#md7e1cf208a" x="46.965625" y="86.673229" style="stroke: #000000; stroke-width: 0.8"/>
      </g>
     </g>
     <g id="text_12">
      <!-- 400 -->
      <g transform="translate(20.878125 90.472448) scale(0.1 -0.1)">
       <use xlink:href="#DejaVuSans-34"/>
       <use xlink:href="#DejaVuSans-30" x="63.623047"/>
       <use xlink:href="#DejaVuSans-30" x="127.246094"/>
      </g>
     </g>
    </g>
    <g id="text_13">
     <!-- Count -->
     <g transform="translate(14.798437 218.746562) rotate(-90) scale(0.1 -0.1)">
      <defs>
       <path id="DejaVuSans-6f" d="M 1959 3097 
Q 1497 3097 1228 2736 
Q 959 2375 959 1747 
Q 959 1119 1226 758 
Q 1494 397 1959 397 
Q 2419 397 2687 759 
Q 2956 1122 2956 1747 
Q 2956 2369 2687 2733 
Q 2419 3097 1959 3097 
z
M 1959 3584 
Q 2709 3584 3137 3096 
Q 3566 2609 3566 1747 
Q 3566 888 3137 398 
Q 2709 -91 1959 -91 
Q 1206 -91 779 398 
Q 353 888 353 1747 
Q 353 2609 779 3096 
Q 1206 3584 1959 3584 
z
" transform="scale(0.015625)"/>
       <path id="DejaVuSans-75" d="M 544 1381 
L 544 3500 
L 1119 3500 
L 1119 1403 
Q 1119 906 1312 657 
Q 1506 409 1894 409 
Q 2359 409 2629 706 
Q 2900 1003 2900 1516 
L 2900 3500 
L 3475 3500 
L 3475 0 
L 2900 0 
L 2900 538 
Q 2691 219 2414 64 
Q 2138 -91 1772 -91 
Q 1169 -91 856 284 
Q 544 659 544 1381 
z
M 1991 3584 
L 1991 3584 
z
" transform="scale(0.015625)"/>
       <path id="DejaVuSans-6e" d="M 3513 2113 
L 3513 0 
L 2938 0 
L 2938 2094 
Q 2938 2591 2744 2837 
Q 2550 3084 2163 3084 
Q 1697 3084 1428 2787 
Q 1159 2491 1159 1978 
L 1159 0 
L 581 0 
L 581 3500 
L 1159 3500 
L 1159 2956 
Q 1366 3272 1645 3428 
Q 1925 3584 2291 3584 
Q 2894 3584 3203 3211 
Q 3513 2838 3513 2113 
z
" transform="scale(0.015625)"/>
       <path id="DejaVuSans-74" d="M 1172 4494 
L 1172 3500 
L 2356 3500 
L 2356 3053 
L 1172 3053 
L 1172 1153 
Q 1172 725 1289 603 
Q 1406 481 1766 481 
L 2356 481 
L 2356 0 
L 1766 0 
Q 1100 0 847 248 
Q 594 497 594 1153 
L 594 3053 
L 172 3053 
L 172 3500 
L 594 3500 
L 594 4494 
L 1172 4494 
z
" transform="scale(0.015625)"/>
      </defs>
      <use xlink:href="#DejaVuSans-43"/>
      <use xlink:href="#DejaVuSans-6f" x="69.824219"/>
      <use xlink:href="#DejaVuSans-75" x="131.005859"/>
      <use xlink:href="#DejaVuSans-6e" x="194.384766"/>
      <use xlink:href="#DejaVuSans-74" x="257.763672"/>
     </g>
    </g>
   </g>
   <g id="line2d_12">
    <path d="M 107.695757 385.05285 
L 114.538669 385.180828 
L 124.803037 385.432609 
L 138.488861 385.456859 
L 179.546332 385.094634 
L 186.389244 384.795926 
L 193.232156 384.444066 
L 213.760892 383.71926 
L 220.603804 383.461961 
L 237.711084 383.135135 
L 251.396907 382.49475 
L 258.239819 382.615411 
L 265.082731 382.82528 
L 268.504187 382.749442 
L 271.925643 382.511043 
L 275.347099 382.135474 
L 282.190011 381.053309 
L 289.032923 379.591661 
L 299.297291 377.159896 
L 306.140203 375.242737 
L 319.826027 370.957485 
L 323.247483 369.705224 
L 326.668939 368.199166 
L 330.090394 366.395095 
L 333.51185 364.343335 
L 340.354762 359.915184 
L 343.776218 357.529435 
L 347.197674 354.792155 
L 350.61913 351.514625 
L 354.040586 347.665643 
L 357.462042 343.35006 
L 360.883498 338.659685 
L 364.304954 333.577991 
L 367.72641 328.072696 
L 374.569322 316.572265 
L 377.990778 311.231824 
L 381.412234 306.171789 
L 384.83369 300.839835 
L 388.255146 294.547955 
L 391.676602 286.865387 
L 395.098058 277.739244 
L 398.519514 267.36382 
L 401.94097 256.041252 
L 408.783881 231.83093 
L 412.205337 219.175251 
L 415.626793 205.763331 
L 419.048249 191.064232 
L 422.469705 174.780735 
L 432.734073 121.321736 
L 436.155529 105.695115 
L 439.576985 93.139098 
L 442.998441 84.153723 
L 446.419897 78.601053 
L 449.841353 76.147019 
L 453.262809 76.829144 
L 456.684265 81.153107 
L 460.105721 89.569595 
L 463.527177 101.88254 
L 466.948633 117.220924 
L 470.370089 134.545851 
L 473.791545 153.107098 
L 480.634457 192.366664 
L 494.32028 272.509126 
L 497.741736 290.533464 
L 501.163192 306.550827 
L 504.584648 320.430076 
L 508.006104 332.368394 
L 511.42756 342.585151 
L 514.849016 351.140922 
L 518.270472 358.005989 
L 521.691928 363.243486 
L 525.113384 367.117932 
L 528.53484 370.048618 
L 531.956296 372.45508 
L 535.377752 374.612359 
L 538.799208 376.612251 
L 542.220664 378.428798 
L 545.64212 380.007988 
L 549.063576 381.316956 
L 552.485032 382.352482 
L 555.906488 383.135959 
L 559.327944 383.704739 
L 562.7494 384.099592 
L 569.592311 384.513001 
L 576.435223 384.636402 
L 583.278135 384.540783 
L 590.121047 384.329283 
L 596.963959 384.38744 
L 607.228327 384.757116 
L 641.442887 385.16226 
L 655.12871 384.656064 
L 661.971622 384.851995 
L 668.814534 385.109727 
L 682.500358 385.318956 
L 692.764726 385.293489 
L 703.029094 385.299946 
L 716.714918 385.442932 
L 744.086565 385.37532 
L 757.772389 385.474782 
L 778.301125 385.383106 
L 788.565493 385.265488 
L 788.565493 385.265488 
" clip-path="url(#pf3a8e71901)" style="fill: none; stroke: #1f77b4; stroke-width: 1.5; stroke-linecap: square"/>
   </g>
   <g id="line2d_13">
    <path d="M 83.43517 385.478117 
L 372.992366 385.372721 
L 420.641018 385.157337 
L 453.628546 384.987919 
L 475.620232 385.125063 
L 519.603604 385.43799 
L 589.243942 385.476329 
L 812.82608 385.478121 
L 812.82608 385.478121 
" clip-path="url(#pf3a8e71901)" style="fill: none; stroke: #1f77b4; stroke-width: 1.5; stroke-linecap: square"/>
   </g>
   <g id="patch_121">
    <path d="M 46.965625 385.478125 
L 46.965625 22.318125 
" style="fill: none; stroke: #000000; stroke-width: 0.8; stroke-linejoin: miter; stroke-linecap: square"/>
   </g>
   <g id="patch_122">
    <path d="M 849.295625 385.478125 
L 849.295625 22.318125 
" style="fill: none; stroke: #000000; stroke-width: 0.8; stroke-linejoin: miter; stroke-linecap: square"/>
   </g>
   <g id="patch_123">
    <path d="M 46.965625 385.478125 
L 849.295625 385.478125 
" style="fill: none; stroke: #000000; stroke-width: 0.8; stroke-linejoin: miter; stroke-linecap: square"/>
   </g>
   <g id="patch_124">
    <path d="M 46.965625 22.318125 
L 849.295625 22.318125 
" style="fill: none; stroke: #000000; stroke-width: 0.8; stroke-linejoin: miter; stroke-linecap: square"/>
   </g>
   <g id="text_14">
    <!-- Distribution of Ca -->
    <g transform="translate(395.664375 16.318125) scale(0.12 -0.12)">
     <defs>
      <path id="DejaVuSans-44" d="M 1259 4147 
L 1259 519 
L 2022 519 
Q 2988 519 3436 956 
Q 3884 1394 3884 2338 
Q 3884 3275 3436 3711 
Q 2988 4147 2022 4147 
L 1259 4147 
z
M 628 4666 
L 1925 4666 
Q 3281 4666 3915 4102 
Q 4550 3538 4550 2338 
Q 4550 1131 3912 565 
Q 3275 0 1925 0 
L 628 0 
L 628 4666 
z
" transform="scale(0.015625)"/>
      <path id="DejaVuSans-69" d="M 603 3500 
L 1178 3500 
L 1178 0 
L 603 0 
L 603 3500 
z
M 603 4863 
L 1178 4863 
L 1178 4134 
L 603 4134 
L 603 4863 
z
" transform="scale(0.015625)"/>
      <path id="DejaVuSans-73" d="M 2834 3397 
L 2834 2853 
Q 2591 2978 2328 3040 
Q 2066 3103 1784 3103 
Q 1356 3103 1142 2972 
Q 928 2841 928 2578 
Q 928 2378 1081 2264 
Q 1234 2150 1697 2047 
L 1894 2003 
Q 2506 1872 2764 1633 
Q 3022 1394 3022 966 
Q 3022 478 2636 193 
Q 2250 -91 1575 -91 
Q 1294 -91 989 -36 
Q 684 19 347 128 
L 347 722 
Q 666 556 975 473 
Q 1284 391 1588 391 
Q 1994 391 2212 530 
Q 2431 669 2431 922 
Q 2431 1156 2273 1281 
Q 2116 1406 1581 1522 
L 1381 1569 
Q 847 1681 609 1914 
Q 372 2147 372 2553 
Q 372 3047 722 3315 
Q 1072 3584 1716 3584 
Q 2034 3584 2315 3537 
Q 2597 3491 2834 3397 
z
" transform="scale(0.015625)"/>
      <path id="DejaVuSans-72" d="M 2631 2963 
Q 2534 3019 2420 3045 
Q 2306 3072 2169 3072 
Q 1681 3072 1420 2755 
Q 1159 2438 1159 1844 
L 1159 0 
L 581 0 
L 581 3500 
L 1159 3500 
L 1159 2956 
Q 1341 3275 1631 3429 
Q 1922 3584 2338 3584 
Q 2397 3584 2469 3576 
Q 2541 3569 2628 3553 
L 2631 2963 
z
" transform="scale(0.015625)"/>
      <path id="DejaVuSans-62" d="M 3116 1747 
Q 3116 2381 2855 2742 
Q 2594 3103 2138 3103 
Q 1681 3103 1420 2742 
Q 1159 2381 1159 1747 
Q 1159 1113 1420 752 
Q 1681 391 2138 391 
Q 2594 391 2855 752 
Q 3116 1113 3116 1747 
z
M 1159 2969 
Q 1341 3281 1617 3432 
Q 1894 3584 2278 3584 
Q 2916 3584 3314 3078 
Q 3713 2572 3713 1747 
Q 3713 922 3314 415 
Q 2916 -91 2278 -91 
Q 1894 -91 1617 61 
Q 1341 213 1159 525 
L 1159 0 
L 581 0 
L 581 4863 
L 1159 4863 
L 1159 2969 
z
" transform="scale(0.015625)"/>
      <path id="DejaVuSans-20" transform="scale(0.015625)"/>
      <path id="DejaVuSans-66" d="M 2375 4863 
L 2375 4384 
L 1825 4384 
Q 1516 4384 1395 4259 
Q 1275 4134 1275 3809 
L 1275 3500 
L 2222 3500 
L 2222 3053 
L 1275 3053 
L 1275 0 
L 697 0 
L 697 3053 
L 147 3053 
L 147 3500 
L 697 3500 
L 697 3744 
Q 697 4328 969 4595 
Q 1241 4863 1831 4863 
L 2375 4863 
z
" transform="scale(0.015625)"/>
     </defs>
     <use xlink:href="#DejaVuSans-44"/>
     <use xlink:href="#DejaVuSans-69" x="77.001953"/>
     <use xlink:href="#DejaVuSans-73" x="104.785156"/>
     <use xlink:href="#DejaVuSans-74" x="156.884766"/>
     <use xlink:href="#DejaVuSans-72" x="196.09375"/>
     <use xlink:href="#DejaVuSans-69" x="237.207031"/>
     <use xlink:href="#DejaVuSans-62" x="264.990234"/>
     <use xlink:href="#DejaVuSans-75" x="328.466797"/>
     <use xlink:href="#DejaVuSans-74" x="391.845703"/>
     <use xlink:href="#DejaVuSans-69" x="431.054688"/>
     <use xlink:href="#DejaVuSans-6f" x="458.837891"/>
     <use xlink:href="#DejaVuSans-6e" x="520.019531"/>
     <use xlink:href="#DejaVuSans-20" x="583.398438"/>
     <use xlink:href="#DejaVuSans-6f" x="615.185547"/>
     <use xlink:href="#DejaVuSans-66" x="676.367188"/>
     <use xlink:href="#DejaVuSans-20" x="711.572266"/>
     <use xlink:href="#DejaVuSans-43" x="743.359375"/>
     <use xlink:href="#DejaVuSans-61" x="813.183594"/>
    </g>
   </g>
  </g>
 </g>
 <defs>
  <clipPath id="pf3a8e71901">
   <rect x="46.965625" y="22.318125" width="802.33" height="363.16"/>
  </clipPath>
 </defs>
</svg>
