<?xml version="1.0" encoding="utf-8" standalone="no"?>
<!DOCTYPE svg PUBLIC "-//W3C//DTD SVG 1.1//EN"
  "http://www.w3.org/Graphics/SVG/1.1/DTD/svg11.dtd">
<svg xmlns:xlink="http://www.w3.org/1999/xlink" width="856.468125pt" height="423.034375pt" viewBox="0 0 856.468125 423.034375" xmlns="http://www.w3.org/2000/svg" version="1.1">
 <metadata>
  <rdf:RDF xmlns:dc="http://purl.org/dc/elements/1.1/" xmlns:cc="http://creativecommons.org/ns#" xmlns:rdf="http://www.w3.org/1999/02/22-rdf-syntax-ns#">
   <cc:Work>
    <dc:type rdf:resource="http://purl.org/dc/dcmitype/StillImage"/>
    <dc:date>2024-07-20T21:25:23.798860</dc:date>
    <dc:format>image/svg+xml</dc:format>
    <dc:creator>
     <cc:Agent>
      <dc:title>Matplotlib v3.9.0, https://matplotlib.org/</dc:title>
     </cc:Agent>
    </dc:creator>
   </cc:Work>
  </rdf:RDF>
 </metadata>
 <defs>
  <style type="text/css">*{stroke-linejoin: round; stroke-linecap: butt}</style>
 </defs>
 <g id="figure_1">
  <g id="patch_1">
   <path d="M 0 423.034375 
L 856.468125 423.034375 
L 856.468125 0 
L 0 0 
z
" style="fill: #ffffff"/>
  </g>
  <g id="axes_1">
   <g id="patch_2">
    <path d="M 53.328125 385.478125 
L 849.268125 385.478125 
L 849.268125 22.318125 
L 53.328125 22.318125 
z
" style="fill: #ffffff"/>
   </g>
   <g id="patch_3">
    <path d="M 121.309066 385.478125 
L 127.048006 385.478125 
L 127.048006 385.260599 
L 121.309066 385.260599 
z
" clip-path="url(#p07e5f7407b)" style="fill: #1f77b4; fill-opacity: 0.5; stroke: #000000; stroke-width: 0.529328; stroke-linejoin: miter"/>
   </g>
   <g id="patch_4">
    <path d="M 127.048006 385.478125 
L 132.786946 385.478125 
L 132.786946 385.478125 
L 127.048006 385.478125 
z
" clip-path="url(#p07e5f7407b)" style="fill: #1f77b4; fill-opacity: 0.5; stroke: #000000; stroke-width: 0.529328; stroke-linejoin: miter"/>
   </g>
   <g id="patch_5">
    <path d="M 132.786946 385.478125 
L 138.525886 385.478125 
L 138.525886 385.260599 
L 132.786946 385.260599 
z
" clip-path="url(#p07e5f7407b)" style="fill: #1f77b4; fill-opacity: 0.5; stroke: #000000; stroke-width: 0.529328; stroke-linejoin: miter"/>
   </g>
   <g id="patch_6">
    <path d="M 138.525886 385.478125 
L 144.264827 385.478125 
L 144.264827 385.478125 
L 138.525886 385.478125 
z
" clip-path="url(#p07e5f7407b)" style="fill: #1f77b4; fill-opacity: 0.5; stroke: #000000; stroke-width: 0.529328; stroke-linejoin: miter"/>
   </g>
   <g id="patch_7">
    <path d="M 144.264827 385.478125 
L 150.003767 385.478125 
L 150.003767 385.478125 
L 144.264827 385.478125 
z
" clip-path="url(#p07e5f7407b)" style="fill: #1f77b4; fill-opacity: 0.5; stroke: #000000; stroke-width: 0.529328; stroke-linejoin: miter"/>
   </g>
   <g id="patch_8">
    <path d="M 150.003767 385.478125 
L 155.742707 385.478125 
L 155.742707 385.478125 
L 150.003767 385.478125 
z
" clip-path="url(#p07e5f7407b)" style="fill: #1f77b4; fill-opacity: 0.5; stroke: #000000; stroke-width: 0.529328; stroke-linejoin: miter"/>
   </g>
   <g id="patch_9">
    <path d="M 155.742707 385.478125 
L 161.481647 385.478125 
L 161.481647 385.478125 
L 155.742707 385.478125 
z
" clip-path="url(#p07e5f7407b)" style="fill: #1f77b4; fill-opacity: 0.5; stroke: #000000; stroke-width: 0.529328; stroke-linejoin: miter"/>
   </g>
   <g id="patch_10">
    <path d="M 161.481647 385.478125 
L 167.220587 385.478125 
L 167.220587 385.478125 
L 161.481647 385.478125 
z
" clip-path="url(#p07e5f7407b)" style="fill: #1f77b4; fill-opacity: 0.5; stroke: #000000; stroke-width: 0.529328; stroke-linejoin: miter"/>
   </g>
   <g id="patch_11">
    <path d="M 167.220587 385.478125 
L 172.959527 385.478125 
L 172.959527 385.260599 
L 167.220587 385.260599 
z
" clip-path="url(#p07e5f7407b)" style="fill: #1f77b4; fill-opacity: 0.5; stroke: #000000; stroke-width: 0.529328; stroke-linejoin: miter"/>
   </g>
   <g id="patch_12">
    <path d="M 172.959527 385.478125 
L 178.698468 385.478125 
L 178.698468 385.478125 
L 172.959527 385.478125 
z
" clip-path="url(#p07e5f7407b)" style="fill: #1f77b4; fill-opacity: 0.5; stroke: #000000; stroke-width: 0.529328; stroke-linejoin: miter"/>
   </g>
   <g id="patch_13">
    <path d="M 178.698468 385.478125 
L 184.437408 385.478125 
L 184.437408 385.478125 
L 178.698468 385.478125 
z
" clip-path="url(#p07e5f7407b)" style="fill: #1f77b4; fill-opacity: 0.5; stroke: #000000; stroke-width: 0.529328; stroke-linejoin: miter"/>
   </g>
   <g id="patch_14">
    <path d="M 184.437408 385.478125 
L 190.176348 385.478125 
L 190.176348 385.478125 
L 184.437408 385.478125 
z
" clip-path="url(#p07e5f7407b)" style="fill: #1f77b4; fill-opacity: 0.5; stroke: #000000; stroke-width: 0.529328; stroke-linejoin: miter"/>
   </g>
   <g id="patch_15">
    <path d="M 190.176348 385.478125 
L 195.915288 385.478125 
L 195.915288 385.478125 
L 190.176348 385.478125 
z
" clip-path="url(#p07e5f7407b)" style="fill: #1f77b4; fill-opacity: 0.5; stroke: #000000; stroke-width: 0.529328; stroke-linejoin: miter"/>
   </g>
   <g id="patch_16">
    <path d="M 195.915288 385.478125 
L 201.654228 385.478125 
L 201.654228 385.478125 
L 195.915288 385.478125 
z
" clip-path="url(#p07e5f7407b)" style="fill: #1f77b4; fill-opacity: 0.5; stroke: #000000; stroke-width: 0.529328; stroke-linejoin: miter"/>
   </g>
   <g id="patch_17">
    <path d="M 201.654228 385.478125 
L 207.393168 385.478125 
L 207.393168 385.043073 
L 201.654228 385.043073 
z
" clip-path="url(#p07e5f7407b)" style="fill: #1f77b4; fill-opacity: 0.5; stroke: #000000; stroke-width: 0.529328; stroke-linejoin: miter"/>
   </g>
   <g id="patch_18">
    <path d="M 207.393168 385.478125 
L 213.132109 385.478125 
L 213.132109 385.478125 
L 207.393168 385.478125 
z
" clip-path="url(#p07e5f7407b)" style="fill: #1f77b4; fill-opacity: 0.5; stroke: #000000; stroke-width: 0.529328; stroke-linejoin: miter"/>
   </g>
   <g id="patch_19">
    <path d="M 213.132109 385.478125 
L 218.871049 385.478125 
L 218.871049 385.478125 
L 213.132109 385.478125 
z
" clip-path="url(#p07e5f7407b)" style="fill: #1f77b4; fill-opacity: 0.5; stroke: #000000; stroke-width: 0.529328; stroke-linejoin: miter"/>
   </g>
   <g id="patch_20">
    <path d="M 218.871049 385.478125 
L 224.609989 385.478125 
L 224.609989 384.825546 
L 218.871049 384.825546 
z
" clip-path="url(#p07e5f7407b)" style="fill: #1f77b4; fill-opacity: 0.5; stroke: #000000; stroke-width: 0.529328; stroke-linejoin: miter"/>
   </g>
   <g id="patch_21">
    <path d="M 224.609989 385.478125 
L 230.348929 385.478125 
L 230.348929 385.478125 
L 224.609989 385.478125 
z
" clip-path="url(#p07e5f7407b)" style="fill: #1f77b4; fill-opacity: 0.5; stroke: #000000; stroke-width: 0.529328; stroke-linejoin: miter"/>
   </g>
   <g id="patch_22">
    <path d="M 230.348929 385.478125 
L 236.087869 385.478125 
L 236.087869 383.737915 
L 230.348929 383.737915 
z
" clip-path="url(#p07e5f7407b)" style="fill: #1f77b4; fill-opacity: 0.5; stroke: #000000; stroke-width: 0.529328; stroke-linejoin: miter"/>
   </g>
   <g id="patch_23">
    <path d="M 236.087869 385.478125 
L 241.826809 385.478125 
L 241.826809 385.478125 
L 236.087869 385.478125 
z
" clip-path="url(#p07e5f7407b)" style="fill: #1f77b4; fill-opacity: 0.5; stroke: #000000; stroke-width: 0.529328; stroke-linejoin: miter"/>
   </g>
   <g id="patch_24">
    <path d="M 241.826809 385.478125 
L 247.565749 385.478125 
L 247.565749 383.955442 
L 241.826809 383.955442 
z
" clip-path="url(#p07e5f7407b)" style="fill: #1f77b4; fill-opacity: 0.5; stroke: #000000; stroke-width: 0.529328; stroke-linejoin: miter"/>
   </g>
   <g id="patch_25">
    <path d="M 247.565749 385.478125 
L 253.30469 385.478125 
L 253.30469 385.478125 
L 247.565749 385.478125 
z
" clip-path="url(#p07e5f7407b)" style="fill: #1f77b4; fill-opacity: 0.5; stroke: #000000; stroke-width: 0.529328; stroke-linejoin: miter"/>
   </g>
   <g id="patch_26">
    <path d="M 253.30469 385.478125 
L 259.04363 385.478125 
L 259.04363 383.085337 
L 253.30469 383.085337 
z
" clip-path="url(#p07e5f7407b)" style="fill: #1f77b4; fill-opacity: 0.5; stroke: #000000; stroke-width: 0.529328; stroke-linejoin: miter"/>
   </g>
   <g id="patch_27">
    <path d="M 259.04363 385.478125 
L 264.78257 385.478125 
L 264.78257 385.478125 
L 259.04363 385.478125 
z
" clip-path="url(#p07e5f7407b)" style="fill: #1f77b4; fill-opacity: 0.5; stroke: #000000; stroke-width: 0.529328; stroke-linejoin: miter"/>
   </g>
   <g id="patch_28">
    <path d="M 264.78257 385.478125 
L 270.52151 385.478125 
L 270.52151 381.997706 
L 264.78257 381.997706 
z
" clip-path="url(#p07e5f7407b)" style="fill: #1f77b4; fill-opacity: 0.5; stroke: #000000; stroke-width: 0.529328; stroke-linejoin: miter"/>
   </g>
   <g id="patch_29">
    <path d="M 270.52151 385.478125 
L 276.26045 385.478125 
L 276.26045 385.478125 
L 270.52151 385.478125 
z
" clip-path="url(#p07e5f7407b)" style="fill: #1f77b4; fill-opacity: 0.5; stroke: #000000; stroke-width: 0.529328; stroke-linejoin: miter"/>
   </g>
   <g id="patch_30">
    <path d="M 276.26045 385.478125 
L 281.99939 385.478125 
L 281.99939 381.127601 
L 276.26045 381.127601 
z
" clip-path="url(#p07e5f7407b)" style="fill: #1f77b4; fill-opacity: 0.5; stroke: #000000; stroke-width: 0.529328; stroke-linejoin: miter"/>
   </g>
   <g id="patch_31">
    <path d="M 281.99939 385.478125 
L 287.738331 385.478125 
L 287.738331 385.478125 
L 281.99939 385.478125 
z
" clip-path="url(#p07e5f7407b)" style="fill: #1f77b4; fill-opacity: 0.5; stroke: #000000; stroke-width: 0.529328; stroke-linejoin: miter"/>
   </g>
   <g id="patch_32">
    <path d="M 287.738331 385.478125 
L 293.477271 385.478125 
L 293.477271 378.517286 
L 287.738331 378.517286 
z
" clip-path="url(#p07e5f7407b)" style="fill: #1f77b4; fill-opacity: 0.5; stroke: #000000; stroke-width: 0.529328; stroke-linejoin: miter"/>
   </g>
   <g id="patch_33">
    <path d="M 293.477271 385.478125 
L 299.216211 385.478125 
L 299.216211 385.478125 
L 293.477271 385.478125 
z
" clip-path="url(#p07e5f7407b)" style="fill: #1f77b4; fill-opacity: 0.5; stroke: #000000; stroke-width: 0.529328; stroke-linejoin: miter"/>
   </g>
   <g id="patch_34">
    <path d="M 299.216211 385.478125 
L 304.955151 385.478125 
L 304.955151 378.29976 
L 299.216211 378.29976 
z
" clip-path="url(#p07e5f7407b)" style="fill: #1f77b4; fill-opacity: 0.5; stroke: #000000; stroke-width: 0.529328; stroke-linejoin: miter"/>
   </g>
   <g id="patch_35">
    <path d="M 304.955151 385.478125 
L 310.694091 385.478125 
L 310.694091 385.478125 
L 304.955151 385.478125 
z
" clip-path="url(#p07e5f7407b)" style="fill: #1f77b4; fill-opacity: 0.5; stroke: #000000; stroke-width: 0.529328; stroke-linejoin: miter"/>
   </g>
   <g id="patch_36">
    <path d="M 310.694091 385.478125 
L 316.433031 385.478125 
L 316.433031 385.478125 
L 310.694091 385.478125 
z
" clip-path="url(#p07e5f7407b)" style="fill: #1f77b4; fill-opacity: 0.5; stroke: #000000; stroke-width: 0.529328; stroke-linejoin: miter"/>
   </g>
   <g id="patch_37">
    <path d="M 316.433031 385.478125 
L 322.171971 385.478125 
L 322.171971 378.29976 
L 316.433031 378.29976 
z
" clip-path="url(#p07e5f7407b)" style="fill: #1f77b4; fill-opacity: 0.5; stroke: #000000; stroke-width: 0.529328; stroke-linejoin: miter"/>
   </g>
   <g id="patch_38">
    <path d="M 322.171971 385.478125 
L 327.910912 385.478125 
L 327.910912 385.478125 
L 322.171971 385.478125 
z
" clip-path="url(#p07e5f7407b)" style="fill: #1f77b4; fill-opacity: 0.5; stroke: #000000; stroke-width: 0.529328; stroke-linejoin: miter"/>
   </g>
   <g id="patch_39">
    <path d="M 327.910912 385.478125 
L 333.649852 385.478125 
L 333.649852 374.166762 
L 327.910912 374.166762 
z
" clip-path="url(#p07e5f7407b)" style="fill: #1f77b4; fill-opacity: 0.5; stroke: #000000; stroke-width: 0.529328; stroke-linejoin: miter"/>
   </g>
   <g id="patch_40">
    <path d="M 333.649852 385.478125 
L 339.388792 385.478125 
L 339.388792 385.478125 
L 333.649852 385.478125 
z
" clip-path="url(#p07e5f7407b)" style="fill: #1f77b4; fill-opacity: 0.5; stroke: #000000; stroke-width: 0.529328; stroke-linejoin: miter"/>
   </g>
   <g id="patch_41">
    <path d="M 339.388792 385.478125 
L 345.127732 385.478125 
L 345.127732 373.73171 
L 339.388792 373.73171 
z
" clip-path="url(#p07e5f7407b)" style="fill: #1f77b4; fill-opacity: 0.5; stroke: #000000; stroke-width: 0.529328; stroke-linejoin: miter"/>
   </g>
   <g id="patch_42">
    <path d="M 345.127732 385.478125 
L 350.866672 385.478125 
L 350.866672 385.478125 
L 345.127732 385.478125 
z
" clip-path="url(#p07e5f7407b)" style="fill: #1f77b4; fill-opacity: 0.5; stroke: #000000; stroke-width: 0.529328; stroke-linejoin: miter"/>
   </g>
   <g id="patch_43">
    <path d="M 350.866672 385.478125 
L 356.605612 385.478125 
L 356.605612 370.468817 
L 350.866672 370.468817 
z
" clip-path="url(#p07e5f7407b)" style="fill: #1f77b4; fill-opacity: 0.5; stroke: #000000; stroke-width: 0.529328; stroke-linejoin: miter"/>
   </g>
   <g id="patch_44">
    <path d="M 356.605612 385.478125 
L 362.344553 385.478125 
L 362.344553 385.478125 
L 356.605612 385.478125 
z
" clip-path="url(#p07e5f7407b)" style="fill: #1f77b4; fill-opacity: 0.5; stroke: #000000; stroke-width: 0.529328; stroke-linejoin: miter"/>
   </g>
   <g id="patch_45">
    <path d="M 362.344553 385.478125 
L 368.083493 385.478125 
L 368.083493 370.903869 
L 362.344553 370.903869 
z
" clip-path="url(#p07e5f7407b)" style="fill: #1f77b4; fill-opacity: 0.5; stroke: #000000; stroke-width: 0.529328; stroke-linejoin: miter"/>
   </g>
   <g id="patch_46">
    <path d="M 368.083493 385.478125 
L 373.822433 385.478125 
L 373.822433 385.478125 
L 368.083493 385.478125 
z
" clip-path="url(#p07e5f7407b)" style="fill: #1f77b4; fill-opacity: 0.5; stroke: #000000; stroke-width: 0.529328; stroke-linejoin: miter"/>
   </g>
   <g id="patch_47">
    <path d="M 373.822433 385.478125 
L 379.561373 385.478125 
L 379.561373 365.248188 
L 373.822433 365.248188 
z
" clip-path="url(#p07e5f7407b)" style="fill: #1f77b4; fill-opacity: 0.5; stroke: #000000; stroke-width: 0.529328; stroke-linejoin: miter"/>
   </g>
   <g id="patch_48">
    <path d="M 379.561373 385.478125 
L 385.300313 385.478125 
L 385.300313 385.478125 
L 379.561373 385.478125 
z
" clip-path="url(#p07e5f7407b)" style="fill: #1f77b4; fill-opacity: 0.5; stroke: #000000; stroke-width: 0.529328; stroke-linejoin: miter"/>
   </g>
   <g id="patch_49">
    <path d="M 385.300313 385.478125 
L 391.039253 385.478125 
L 391.039253 363.290452 
L 385.300313 363.290452 
z
" clip-path="url(#p07e5f7407b)" style="fill: #1f77b4; fill-opacity: 0.5; stroke: #000000; stroke-width: 0.529328; stroke-linejoin: miter"/>
   </g>
   <g id="patch_50">
    <path d="M 391.039253 385.478125 
L 396.778194 385.478125 
L 396.778194 385.478125 
L 391.039253 385.478125 
z
" clip-path="url(#p07e5f7407b)" style="fill: #1f77b4; fill-opacity: 0.5; stroke: #000000; stroke-width: 0.529328; stroke-linejoin: miter"/>
   </g>
   <g id="patch_51">
    <path d="M 396.778194 385.478125 
L 402.517134 385.478125 
L 402.517134 362.8554 
L 396.778194 362.8554 
z
" clip-path="url(#p07e5f7407b)" style="fill: #1f77b4; fill-opacity: 0.5; stroke: #000000; stroke-width: 0.529328; stroke-linejoin: miter"/>
   </g>
   <g id="patch_52">
    <path d="M 402.517134 385.478125 
L 408.256074 385.478125 
L 408.256074 385.478125 
L 402.517134 385.478125 
z
" clip-path="url(#p07e5f7407b)" style="fill: #1f77b4; fill-opacity: 0.5; stroke: #000000; stroke-width: 0.529328; stroke-linejoin: miter"/>
   </g>
   <g id="patch_53">
    <path d="M 408.256074 385.478125 
L 413.995014 385.478125 
L 413.995014 385.478125 
L 408.256074 385.478125 
z
" clip-path="url(#p07e5f7407b)" style="fill: #1f77b4; fill-opacity: 0.5; stroke: #000000; stroke-width: 0.529328; stroke-linejoin: miter"/>
   </g>
   <g id="patch_54">
    <path d="M 413.995014 385.478125 
L 419.733954 385.478125 
L 419.733954 359.810033 
L 413.995014 359.810033 
z
" clip-path="url(#p07e5f7407b)" style="fill: #1f77b4; fill-opacity: 0.5; stroke: #000000; stroke-width: 0.529328; stroke-linejoin: miter"/>
   </g>
   <g id="patch_55">
    <path d="M 419.733954 385.478125 
L 425.472894 385.478125 
L 425.472894 385.478125 
L 419.733954 385.478125 
z
" clip-path="url(#p07e5f7407b)" style="fill: #1f77b4; fill-opacity: 0.5; stroke: #000000; stroke-width: 0.529328; stroke-linejoin: miter"/>
   </g>
   <g id="patch_56">
    <path d="M 425.472894 385.478125 
L 431.211834 385.478125 
L 431.211834 356.764666 
L 425.472894 356.764666 
z
" clip-path="url(#p07e5f7407b)" style="fill: #1f77b4; fill-opacity: 0.5; stroke: #000000; stroke-width: 0.529328; stroke-linejoin: miter"/>
   </g>
   <g id="patch_57">
    <path d="M 431.211834 385.478125 
L 436.950775 385.478125 
L 436.950775 385.478125 
L 431.211834 385.478125 
z
" clip-path="url(#p07e5f7407b)" style="fill: #1f77b4; fill-opacity: 0.5; stroke: #000000; stroke-width: 0.529328; stroke-linejoin: miter"/>
   </g>
   <g id="patch_58">
    <path d="M 436.950775 385.478125 
L 442.689715 385.478125 
L 442.689715 357.199718 
L 436.950775 357.199718 
z
" clip-path="url(#p07e5f7407b)" style="fill: #1f77b4; fill-opacity: 0.5; stroke: #000000; stroke-width: 0.529328; stroke-linejoin: miter"/>
   </g>
   <g id="patch_59">
    <path d="M 442.689715 385.478125 
L 448.428655 385.478125 
L 448.428655 385.478125 
L 442.689715 385.478125 
z
" clip-path="url(#p07e5f7407b)" style="fill: #1f77b4; fill-opacity: 0.5; stroke: #000000; stroke-width: 0.529328; stroke-linejoin: miter"/>
   </g>
   <g id="patch_60">
    <path d="M 448.428655 385.478125 
L 454.167595 385.478125 
L 454.167595 353.719299 
L 448.428655 353.719299 
z
" clip-path="url(#p07e5f7407b)" style="fill: #1f77b4; fill-opacity: 0.5; stroke: #000000; stroke-width: 0.529328; stroke-linejoin: miter"/>
   </g>
   <g id="patch_61">
    <path d="M 454.167595 385.478125 
L 459.906535 385.478125 
L 459.906535 385.478125 
L 454.167595 385.478125 
z
" clip-path="url(#p07e5f7407b)" style="fill: #1f77b4; fill-opacity: 0.5; stroke: #000000; stroke-width: 0.529328; stroke-linejoin: miter"/>
   </g>
   <g id="patch_62">
    <path d="M 459.906535 385.478125 
L 465.645475 385.478125 
L 465.645475 351.326511 
L 459.906535 351.326511 
z
" clip-path="url(#p07e5f7407b)" style="fill: #1f77b4; fill-opacity: 0.5; stroke: #000000; stroke-width: 0.529328; stroke-linejoin: miter"/>
   </g>
   <g id="patch_63">
    <path d="M 465.645475 385.478125 
L 471.384416 385.478125 
L 471.384416 385.478125 
L 465.645475 385.478125 
z
" clip-path="url(#p07e5f7407b)" style="fill: #1f77b4; fill-opacity: 0.5; stroke: #000000; stroke-width: 0.529328; stroke-linejoin: miter"/>
   </g>
   <g id="patch_64">
    <path d="M 471.384416 385.478125 
L 477.123356 385.478125 
L 477.123356 337.187307 
L 471.384416 337.187307 
z
" clip-path="url(#p07e5f7407b)" style="fill: #1f77b4; fill-opacity: 0.5; stroke: #000000; stroke-width: 0.529328; stroke-linejoin: miter"/>
   </g>
   <g id="patch_65">
    <path d="M 477.123356 385.478125 
L 482.862296 385.478125 
L 482.862296 385.478125 
L 477.123356 385.478125 
z
" clip-path="url(#p07e5f7407b)" style="fill: #1f77b4; fill-opacity: 0.5; stroke: #000000; stroke-width: 0.529328; stroke-linejoin: miter"/>
   </g>
   <g id="patch_66">
    <path d="M 482.862296 385.478125 
L 488.601236 385.478125 
L 488.601236 326.528523 
L 482.862296 326.528523 
z
" clip-path="url(#p07e5f7407b)" style="fill: #1f77b4; fill-opacity: 0.5; stroke: #000000; stroke-width: 0.529328; stroke-linejoin: miter"/>
   </g>
   <g id="patch_67">
    <path d="M 488.601236 385.478125 
L 494.340176 385.478125 
L 494.340176 385.478125 
L 488.601236 385.478125 
z
" clip-path="url(#p07e5f7407b)" style="fill: #1f77b4; fill-opacity: 0.5; stroke: #000000; stroke-width: 0.529328; stroke-linejoin: miter"/>
   </g>
   <g id="patch_68">
    <path d="M 494.340176 385.478125 
L 500.079116 385.478125 
L 500.079116 385.478125 
L 494.340176 385.478125 
z
" clip-path="url(#p07e5f7407b)" style="fill: #1f77b4; fill-opacity: 0.5; stroke: #000000; stroke-width: 0.529328; stroke-linejoin: miter"/>
   </g>
   <g id="patch_69">
    <path d="M 500.079116 385.478125 
L 505.818056 385.478125 
L 505.818056 313.476951 
L 500.079116 313.476951 
z
" clip-path="url(#p07e5f7407b)" style="fill: #1f77b4; fill-opacity: 0.5; stroke: #000000; stroke-width: 0.529328; stroke-linejoin: miter"/>
   </g>
   <g id="patch_70">
    <path d="M 505.818056 385.478125 
L 511.556997 385.478125 
L 511.556997 385.478125 
L 505.818056 385.478125 
z
" clip-path="url(#p07e5f7407b)" style="fill: #1f77b4; fill-opacity: 0.5; stroke: #000000; stroke-width: 0.529328; stroke-linejoin: miter"/>
   </g>
   <g id="patch_71">
    <path d="M 511.556997 385.478125 
L 517.295937 385.478125 
L 517.295937 298.03259 
L 511.556997 298.03259 
z
" clip-path="url(#p07e5f7407b)" style="fill: #1f77b4; fill-opacity: 0.5; stroke: #000000; stroke-width: 0.529328; stroke-linejoin: miter"/>
   </g>
   <g id="patch_72">
    <path d="M 517.295937 385.478125 
L 523.034877 385.478125 
L 523.034877 385.478125 
L 517.295937 385.478125 
z
" clip-path="url(#p07e5f7407b)" style="fill: #1f77b4; fill-opacity: 0.5; stroke: #000000; stroke-width: 0.529328; stroke-linejoin: miter"/>
   </g>
   <g id="patch_73">
    <path d="M 523.034877 385.478125 
L 528.773817 385.478125 
L 528.773817 282.153177 
L 523.034877 282.153177 
z
" clip-path="url(#p07e5f7407b)" style="fill: #1f77b4; fill-opacity: 0.5; stroke: #000000; stroke-width: 0.529328; stroke-linejoin: miter"/>
   </g>
   <g id="patch_74">
    <path d="M 528.773817 385.478125 
L 534.512757 385.478125 
L 534.512757 385.478125 
L 528.773817 385.478125 
z
" clip-path="url(#p07e5f7407b)" style="fill: #1f77b4; fill-opacity: 0.5; stroke: #000000; stroke-width: 0.529328; stroke-linejoin: miter"/>
   </g>
   <g id="patch_75">
    <path d="M 534.512757 385.478125 
L 540.251697 385.478125 
L 540.251697 256.485085 
L 534.512757 256.485085 
z
" clip-path="url(#p07e5f7407b)" style="fill: #1f77b4; fill-opacity: 0.5; stroke: #000000; stroke-width: 0.529328; stroke-linejoin: miter"/>
   </g>
   <g id="patch_76">
    <path d="M 540.251697 385.478125 
L 545.990638 385.478125 
L 545.990638 385.478125 
L 540.251697 385.478125 
z
" clip-path="url(#p07e5f7407b)" style="fill: #1f77b4; fill-opacity: 0.5; stroke: #000000; stroke-width: 0.529328; stroke-linejoin: miter"/>
   </g>
   <g id="patch_77">
    <path d="M 545.990638 385.478125 
L 551.729578 385.478125 
L 551.729578 218.200473 
L 545.990638 218.200473 
z
" clip-path="url(#p07e5f7407b)" style="fill: #1f77b4; fill-opacity: 0.5; stroke: #000000; stroke-width: 0.529328; stroke-linejoin: miter"/>
   </g>
   <g id="patch_78">
    <path d="M 551.729578 385.478125 
L 557.468518 385.478125 
L 557.468518 385.478125 
L 551.729578 385.478125 
z
" clip-path="url(#p07e5f7407b)" style="fill: #1f77b4; fill-opacity: 0.5; stroke: #000000; stroke-width: 0.529328; stroke-linejoin: miter"/>
   </g>
   <g id="patch_79">
    <path d="M 557.468518 385.478125 
L 563.207458 385.478125 
L 563.207458 165.776657 
L 557.468518 165.776657 
z
" clip-path="url(#p07e5f7407b)" style="fill: #1f77b4; fill-opacity: 0.5; stroke: #000000; stroke-width: 0.529328; stroke-linejoin: miter"/>
   </g>
   <g id="patch_80">
    <path d="M 563.207458 385.478125 
L 568.946398 385.478125 
L 568.946398 385.478125 
L 563.207458 385.478125 
z
" clip-path="url(#p07e5f7407b)" style="fill: #1f77b4; fill-opacity: 0.5; stroke: #000000; stroke-width: 0.529328; stroke-linejoin: miter"/>
   </g>
   <g id="patch_81">
    <path d="M 568.946398 385.478125 
L 574.685338 385.478125 
L 574.685338 116.180683 
L 568.946398 116.180683 
z
" clip-path="url(#p07e5f7407b)" style="fill: #1f77b4; fill-opacity: 0.5; stroke: #000000; stroke-width: 0.529328; stroke-linejoin: miter"/>
   </g>
   <g id="patch_82">
    <path d="M 574.685338 385.478125 
L 580.424279 385.478125 
L 580.424279 385.478125 
L 574.685338 385.478125 
z
" clip-path="url(#p07e5f7407b)" style="fill: #1f77b4; fill-opacity: 0.5; stroke: #000000; stroke-width: 0.529328; stroke-linejoin: miter"/>
   </g>
   <g id="patch_83">
    <path d="M 580.424279 385.478125 
L 586.163219 385.478125 
L 586.163219 61.146553 
L 580.424279 61.146553 
z
" clip-path="url(#p07e5f7407b)" style="fill: #1f77b4; fill-opacity: 0.5; stroke: #000000; stroke-width: 0.529328; stroke-linejoin: miter"/>
   </g>
   <g id="patch_84">
    <path d="M 586.163219 385.478125 
L 591.902159 385.478125 
L 591.902159 385.478125 
L 586.163219 385.478125 
z
" clip-path="url(#p07e5f7407b)" style="fill: #1f77b4; fill-opacity: 0.5; stroke: #000000; stroke-width: 0.529328; stroke-linejoin: miter"/>
   </g>
   <g id="patch_85">
    <path d="M 591.902159 385.478125 
L 597.641099 385.478125 
L 597.641099 385.478125 
L 591.902159 385.478125 
z
" clip-path="url(#p07e5f7407b)" style="fill: #1f77b4; fill-opacity: 0.5; stroke: #000000; stroke-width: 0.529328; stroke-linejoin: miter"/>
   </g>
   <g id="patch_86">
    <path d="M 597.641099 385.478125 
L 603.380039 385.478125 
L 603.380039 46.354771 
L 597.641099 46.354771 
z
" clip-path="url(#p07e5f7407b)" style="fill: #1f77b4; fill-opacity: 0.5; stroke: #000000; stroke-width: 0.529328; stroke-linejoin: miter"/>
   </g>
   <g id="patch_87">
    <path d="M 603.380039 385.478125 
L 609.118979 385.478125 
L 609.118979 385.478125 
L 603.380039 385.478125 
z
" clip-path="url(#p07e5f7407b)" style="fill: #1f77b4; fill-opacity: 0.5; stroke: #000000; stroke-width: 0.529328; stroke-linejoin: miter"/>
   </g>
   <g id="patch_88">
    <path d="M 609.118979 385.478125 
L 614.857919 385.478125 
L 614.857919 39.611458 
L 609.118979 39.611458 
z
" clip-path="url(#p07e5f7407b)" style="fill: #1f77b4; fill-opacity: 0.5; stroke: #000000; stroke-width: 0.529328; stroke-linejoin: miter"/>
   </g>
   <g id="patch_89">
    <path d="M 614.857919 385.478125 
L 620.59686 385.478125 
L 620.59686 385.478125 
L 614.857919 385.478125 
z
" clip-path="url(#p07e5f7407b)" style="fill: #1f77b4; fill-opacity: 0.5; stroke: #000000; stroke-width: 0.529328; stroke-linejoin: miter"/>
   </g>
   <g id="patch_90">
    <path d="M 620.59686 385.478125 
L 626.3358 385.478125 
L 626.3358 60.929026 
L 620.59686 60.929026 
z
" clip-path="url(#p07e5f7407b)" style="fill: #1f77b4; fill-opacity: 0.5; stroke: #000000; stroke-width: 0.529328; stroke-linejoin: miter"/>
   </g>
   <g id="patch_91">
    <path d="M 626.3358 385.478125 
L 632.07474 385.478125 
L 632.07474 385.478125 
L 626.3358 385.478125 
z
" clip-path="url(#p07e5f7407b)" style="fill: #1f77b4; fill-opacity: 0.5; stroke: #000000; stroke-width: 0.529328; stroke-linejoin: miter"/>
   </g>
   <g id="patch_92">
    <path d="M 632.07474 385.478125 
L 637.81368 385.478125 
L 637.81368 109.002318 
L 632.07474 109.002318 
z
" clip-path="url(#p07e5f7407b)" style="fill: #1f77b4; fill-opacity: 0.5; stroke: #000000; stroke-width: 0.529328; stroke-linejoin: miter"/>
   </g>
   <g id="patch_93">
    <path d="M 637.81368 385.478125 
L 643.55262 385.478125 
L 643.55262 385.478125 
L 637.81368 385.478125 
z
" clip-path="url(#p07e5f7407b)" style="fill: #1f77b4; fill-opacity: 0.5; stroke: #000000; stroke-width: 0.529328; stroke-linejoin: miter"/>
   </g>
   <g id="patch_94">
    <path d="M 643.55262 385.478125 
L 649.29156 385.478125 
L 649.29156 174.912758 
L 643.55262 174.912758 
z
" clip-path="url(#p07e5f7407b)" style="fill: #1f77b4; fill-opacity: 0.5; stroke: #000000; stroke-width: 0.529328; stroke-linejoin: miter"/>
   </g>
   <g id="patch_95">
    <path d="M 649.29156 385.478125 
L 655.030501 385.478125 
L 655.030501 385.478125 
L 649.29156 385.478125 
z
" clip-path="url(#p07e5f7407b)" style="fill: #1f77b4; fill-opacity: 0.5; stroke: #000000; stroke-width: 0.529328; stroke-linejoin: miter"/>
   </g>
   <g id="patch_96">
    <path d="M 655.030501 385.478125 
L 660.769441 385.478125 
L 660.769441 248.001563 
L 655.030501 248.001563 
z
" clip-path="url(#p07e5f7407b)" style="fill: #1f77b4; fill-opacity: 0.5; stroke: #000000; stroke-width: 0.529328; stroke-linejoin: miter"/>
   </g>
   <g id="patch_97">
    <path d="M 660.769441 385.478125 
L 666.508381 385.478125 
L 666.508381 385.478125 
L 660.769441 385.478125 
z
" clip-path="url(#p07e5f7407b)" style="fill: #1f77b4; fill-opacity: 0.5; stroke: #000000; stroke-width: 0.529328; stroke-linejoin: miter"/>
   </g>
   <g id="patch_98">
    <path d="M 666.508381 385.478125 
L 672.247321 385.478125 
L 672.247321 292.594435 
L 666.508381 292.594435 
z
" clip-path="url(#p07e5f7407b)" style="fill: #1f77b4; fill-opacity: 0.5; stroke: #000000; stroke-width: 0.529328; stroke-linejoin: miter"/>
   </g>
   <g id="patch_99">
    <path d="M 672.247321 385.478125 
L 677.986261 385.478125 
L 677.986261 385.478125 
L 672.247321 385.478125 
z
" clip-path="url(#p07e5f7407b)" style="fill: #1f77b4; fill-opacity: 0.5; stroke: #000000; stroke-width: 0.529328; stroke-linejoin: miter"/>
   </g>
   <g id="patch_100">
    <path d="M 677.986261 385.478125 
L 683.725201 385.478125 
L 683.725201 326.528523 
L 677.986261 326.528523 
z
" clip-path="url(#p07e5f7407b)" style="fill: #1f77b4; fill-opacity: 0.5; stroke: #000000; stroke-width: 0.529328; stroke-linejoin: miter"/>
   </g>
   <g id="patch_101">
    <path d="M 683.725201 385.478125 
L 689.464141 385.478125 
L 689.464141 385.478125 
L 683.725201 385.478125 
z
" clip-path="url(#p07e5f7407b)" style="fill: #1f77b4; fill-opacity: 0.5; stroke: #000000; stroke-width: 0.529328; stroke-linejoin: miter"/>
   </g>
   <g id="patch_102">
    <path d="M 689.464141 385.478125 
L 695.203082 385.478125 
L 695.203082 385.478125 
L 689.464141 385.478125 
z
" clip-path="url(#p07e5f7407b)" style="fill: #1f77b4; fill-opacity: 0.5; stroke: #000000; stroke-width: 0.529328; stroke-linejoin: miter"/>
   </g>
   <g id="patch_103">
    <path d="M 695.203082 385.478125 
L 700.942022 385.478125 
L 700.942022 363.072926 
L 695.203082 363.072926 
z
" clip-path="url(#p07e5f7407b)" style="fill: #1f77b4; fill-opacity: 0.5; stroke: #000000; stroke-width: 0.529328; stroke-linejoin: miter"/>
   </g>
   <g id="patch_104">
    <path d="M 700.942022 385.478125 
L 706.680962 385.478125 
L 706.680962 385.478125 
L 700.942022 385.478125 
z
" clip-path="url(#p07e5f7407b)" style="fill: #1f77b4; fill-opacity: 0.5; stroke: #000000; stroke-width: 0.529328; stroke-linejoin: miter"/>
   </g>
   <g id="patch_105">
    <path d="M 706.680962 385.478125 
L 712.419902 385.478125 
L 712.419902 371.9915 
L 706.680962 371.9915 
z
" clip-path="url(#p07e5f7407b)" style="fill: #1f77b4; fill-opacity: 0.5; stroke: #000000; stroke-width: 0.529328; stroke-linejoin: miter"/>
   </g>
   <g id="patch_106">
    <path d="M 712.419902 385.478125 
L 718.158842 385.478125 
L 718.158842 385.478125 
L 712.419902 385.478125 
z
" clip-path="url(#p07e5f7407b)" style="fill: #1f77b4; fill-opacity: 0.5; stroke: #000000; stroke-width: 0.529328; stroke-linejoin: miter"/>
   </g>
   <g id="patch_107">
    <path d="M 718.158842 385.478125 
L 723.897782 385.478125 
L 723.897782 377.864708 
L 718.158842 377.864708 
z
" clip-path="url(#p07e5f7407b)" style="fill: #1f77b4; fill-opacity: 0.5; stroke: #000000; stroke-width: 0.529328; stroke-linejoin: miter"/>
   </g>
   <g id="patch_108">
    <path d="M 723.897782 385.478125 
L 729.636723 385.478125 
L 729.636723 385.478125 
L 723.897782 385.478125 
z
" clip-path="url(#p07e5f7407b)" style="fill: #1f77b4; fill-opacity: 0.5; stroke: #000000; stroke-width: 0.529328; stroke-linejoin: miter"/>
   </g>
   <g id="patch_109">
    <path d="M 729.636723 385.478125 
L 735.375663 385.478125 
L 735.375663 383.520389 
L 729.636723 383.520389 
z
" clip-path="url(#p07e5f7407b)" style="fill: #1f77b4; fill-opacity: 0.5; stroke: #000000; stroke-width: 0.529328; stroke-linejoin: miter"/>
   </g>
   <g id="patch_110">
    <path d="M 735.375663 385.478125 
L 741.114603 385.478125 
L 741.114603 385.478125 
L 735.375663 385.478125 
z
" clip-path="url(#p07e5f7407b)" style="fill: #1f77b4; fill-opacity: 0.5; stroke: #000000; stroke-width: 0.529328; stroke-linejoin: miter"/>
   </g>
   <g id="patch_111">
    <path d="M 741.114603 385.478125 
L 746.853543 385.478125 
L 746.853543 384.60802 
L 741.114603 384.60802 
z
" clip-path="url(#p07e5f7407b)" style="fill: #1f77b4; fill-opacity: 0.5; stroke: #000000; stroke-width: 0.529328; stroke-linejoin: miter"/>
   </g>
   <g id="patch_112">
    <path d="M 746.853543 385.478125 
L 752.592483 385.478125 
L 752.592483 385.478125 
L 746.853543 385.478125 
z
" clip-path="url(#p07e5f7407b)" style="fill: #1f77b4; fill-opacity: 0.5; stroke: #000000; stroke-width: 0.529328; stroke-linejoin: miter"/>
   </g>
   <g id="patch_113">
    <path d="M 752.592483 385.478125 
L 758.331423 385.478125 
L 758.331423 385.260599 
L 752.592483 385.260599 
z
" clip-path="url(#p07e5f7407b)" style="fill: #1f77b4; fill-opacity: 0.5; stroke: #000000; stroke-width: 0.529328; stroke-linejoin: miter"/>
   </g>
   <g id="patch_114">
    <path d="M 758.331423 385.478125 
L 764.070364 385.478125 
L 764.070364 385.478125 
L 758.331423 385.478125 
z
" clip-path="url(#p07e5f7407b)" style="fill: #1f77b4; fill-opacity: 0.5; stroke: #000000; stroke-width: 0.529328; stroke-linejoin: miter"/>
   </g>
   <g id="patch_115">
    <path d="M 764.070364 385.478125 
L 769.809304 385.478125 
L 769.809304 385.478125 
L 764.070364 385.478125 
z
" clip-path="url(#p07e5f7407b)" style="fill: #1f77b4; fill-opacity: 0.5; stroke: #000000; stroke-width: 0.529328; stroke-linejoin: miter"/>
   </g>
   <g id="patch_116">
    <path d="M 769.809304 385.478125 
L 775.548244 385.478125 
L 775.548244 385.478125 
L 769.809304 385.478125 
z
" clip-path="url(#p07e5f7407b)" style="fill: #1f77b4; fill-opacity: 0.5; stroke: #000000; stroke-width: 0.529328; stroke-linejoin: miter"/>
   </g>
   <g id="patch_117">
    <path d="M 775.548244 385.478125 
L 781.287184 385.478125 
L 781.287184 385.260599 
L 775.548244 385.260599 
z
" clip-path="url(#p07e5f7407b)" style="fill: #1f77b4; fill-opacity: 0.5; stroke: #000000; stroke-width: 0.529328; stroke-linejoin: miter"/>
   </g>
   <g id="matplotlib.axis_1">
    <g id="xtick_1">
     <g id="line2d_1">
      <defs>
       <path id="m353647daa6" d="M 0 0 
L 0 3.5 
" style="stroke: #000000; stroke-width: 0.8"/>
      </defs>
      <g>
       <use xlink:href="#m353647daa6" x="84.643615" y="385.478125" style="stroke: #000000; stroke-width: 0.8"/>
      </g>
     </g>
     <g id="text_1">
      <!-- 0 -->
      <g transform="translate(81.462365 400.076562) scale(0.1 -0.1)">
       <defs>
        <path id="DejaVuSans-30" d="M 2034 4250 
Q 1547 4250 1301 3770 
Q 1056 3291 1056 2328 
Q 1056 1369 1301 889 
Q 1547 409 2034 409 
Q 2525 409 2770 889 
Q 3016 1369 3016 2328 
Q 3016 3291 2770 3770 
Q 2525 4250 2034 4250 
z
M 2034 4750 
Q 2819 4750 3233 4129 
Q 3647 3509 3647 2328 
Q 3647 1150 3233 529 
Q 2819 -91 2034 -91 
Q 1250 -91 836 529 
Q 422 1150 422 2328 
Q 422 3509 836 4129 
Q 1250 4750 2034 4750 
z
" transform="scale(0.015625)"/>
       </defs>
       <use xlink:href="#DejaVuSans-30"/>
      </g>
     </g>
    </g>
    <g id="xtick_2">
     <g id="line2d_2">
      <g>
       <use xlink:href="#m353647daa6" x="206.861785" y="385.478125" style="stroke: #000000; stroke-width: 0.8"/>
      </g>
     </g>
     <g id="text_2">
      <!-- 1 -->
      <g transform="translate(203.680535 400.076562) scale(0.1 -0.1)">
       <defs>
        <path id="DejaVuSans-31" d="M 794 531 
L 1825 531 
L 1825 4091 
L 703 3866 
L 703 4441 
L 1819 4666 
L 2450 4666 
L 2450 531 
L 3481 531 
L 3481 0 
L 794 0 
L 794 531 
z
" transform="scale(0.015625)"/>
       </defs>
       <use xlink:href="#DejaVuSans-31"/>
      </g>
     </g>
    </g>
    <g id="xtick_3">
     <g id="line2d_3">
      <g>
       <use xlink:href="#m353647daa6" x="329.079955" y="385.478125" style="stroke: #000000; stroke-width: 0.8"/>
      </g>
     </g>
     <g id="text_3">
      <!-- 2 -->
      <g transform="translate(325.898705 400.076562) scale(0.1 -0.1)">
       <defs>
        <path id="DejaVuSans-32" d="M 1228 531 
L 3431 531 
L 3431 0 
L 469 0 
L 469 531 
Q 828 903 1448 1529 
Q 2069 2156 2228 2338 
Q 2531 2678 2651 2914 
Q 2772 3150 2772 3378 
Q 2772 3750 2511 3984 
Q 2250 4219 1831 4219 
Q 1534 4219 1204 4116 
Q 875 4013 500 3803 
L 500 4441 
Q 881 4594 1212 4672 
Q 1544 4750 1819 4750 
Q 2544 4750 2975 4387 
Q 3406 4025 3406 3419 
Q 3406 3131 3298 2873 
Q 3191 2616 2906 2266 
Q 2828 2175 2409 1742 
Q 1991 1309 1228 531 
z
" transform="scale(0.015625)"/>
       </defs>
       <use xlink:href="#DejaVuSans-32"/>
      </g>
     </g>
    </g>
    <g id="xtick_4">
     <g id="line2d_4">
      <g>
       <use xlink:href="#m353647daa6" x="451.298125" y="385.478125" style="stroke: #000000; stroke-width: 0.8"/>
      </g>
     </g>
     <g id="text_4">
      <!-- 3 -->
      <g transform="translate(448.116875 400.076562) scale(0.1 -0.1)">
       <defs>
        <path id="DejaVuSans-33" d="M 2597 2516 
Q 3050 2419 3304 2112 
Q 3559 1806 3559 1356 
Q 3559 666 3084 287 
Q 2609 -91 1734 -91 
Q 1441 -91 1130 -33 
Q 819 25 488 141 
L 488 750 
Q 750 597 1062 519 
Q 1375 441 1716 441 
Q 2309 441 2620 675 
Q 2931 909 2931 1356 
Q 2931 1769 2642 2001 
Q 2353 2234 1838 2234 
L 1294 2234 
L 1294 2753 
L 1863 2753 
Q 2328 2753 2575 2939 
Q 2822 3125 2822 3475 
Q 2822 3834 2567 4026 
Q 2313 4219 1838 4219 
Q 1578 4219 1281 4162 
Q 984 4106 628 3988 
L 628 4550 
Q 988 4650 1302 4700 
Q 1616 4750 1894 4750 
Q 2613 4750 3031 4423 
Q 3450 4097 3450 3541 
Q 3450 3153 3228 2886 
Q 3006 2619 2597 2516 
z
" transform="scale(0.015625)"/>
       </defs>
       <use xlink:href="#DejaVuSans-33"/>
      </g>
     </g>
    </g>
    <g id="xtick_5">
     <g id="line2d_5">
      <g>
       <use xlink:href="#m353647daa6" x="573.516295" y="385.478125" style="stroke: #000000; stroke-width: 0.8"/>
      </g>
     </g>
     <g id="text_5">
      <!-- 4 -->
      <g transform="translate(570.335045 400.076562) scale(0.1 -0.1)">
       <defs>
        <path id="DejaVuSans-34" d="M 2419 4116 
L 825 1625 
L 2419 1625 
L 2419 4116 
z
M 2253 4666 
L 3047 4666 
L 3047 1625 
L 3713 1625 
L 3713 1100 
L 3047 1100 
L 3047 0 
L 2419 0 
L 2419 1100 
L 313 1100 
L 313 1709 
L 2253 4666 
z
" transform="scale(0.015625)"/>
       </defs>
       <use xlink:href="#DejaVuSans-34"/>
      </g>
     </g>
    </g>
    <g id="xtick_6">
     <g id="line2d_6">
      <g>
       <use xlink:href="#m353647daa6" x="695.734465" y="385.478125" style="stroke: #000000; stroke-width: 0.8"/>
      </g>
     </g>
     <g id="text_6">
      <!-- 5 -->
      <g transform="translate(692.553215 400.076562) scale(0.1 -0.1)">
       <defs>
        <path id="DejaVuSans-35" d="M 691 4666 
L 3169 4666 
L 3169 4134 
L 1269 4134 
L 1269 2991 
Q 1406 3038 1543 3061 
Q 1681 3084 1819 3084 
Q 2600 3084 3056 2656 
Q 3513 2228 3513 1497 
Q 3513 744 3044 326 
Q 2575 -91 1722 -91 
Q 1428 -91 1123 -41 
Q 819 9 494 109 
L 494 744 
Q 775 591 1075 516 
Q 1375 441 1709 441 
Q 2250 441 2565 725 
Q 2881 1009 2881 1497 
Q 2881 1984 2565 2268 
Q 2250 2553 1709 2553 
Q 1456 2553 1204 2497 
Q 953 2441 691 2322 
L 691 4666 
z
" transform="scale(0.015625)"/>
       </defs>
       <use xlink:href="#DejaVuSans-35"/>
      </g>
     </g>
    </g>
    <g id="xtick_7">
     <g id="line2d_7">
      <g>
       <use xlink:href="#m353647daa6" x="817.952635" y="385.478125" style="stroke: #000000; stroke-width: 0.8"/>
      </g>
     </g>
     <g id="text_7">
      <!-- 6 -->
      <g transform="translate(814.771385 400.076562) scale(0.1 -0.1)">
       <defs>
        <path id="DejaVuSans-36" d="M 2113 2584 
Q 1688 2584 1439 2293 
Q 1191 2003 1191 1497 
Q 1191 994 1439 701 
Q 1688 409 2113 409 
Q 2538 409 2786 701 
Q 3034 994 3034 1497 
Q 3034 2003 2786 2293 
Q 2538 2584 2113 2584 
z
M 3366 4563 
L 3366 3988 
Q 3128 4100 2886 4159 
Q 2644 4219 2406 4219 
Q 1781 4219 1451 3797 
Q 1122 3375 1075 2522 
Q 1259 2794 1537 2939 
Q 1816 3084 2150 3084 
Q 2853 3084 3261 2657 
Q 3669 2231 3669 1497 
Q 3669 778 3244 343 
Q 2819 -91 2113 -91 
Q 1303 -91 875 529 
Q 447 1150 447 2328 
Q 447 3434 972 4092 
Q 1497 4750 2381 4750 
Q 2619 4750 2861 4703 
Q 3103 4656 3366 4563 
z
" transform="scale(0.015625)"/>
       </defs>
       <use xlink:href="#DejaVuSans-36"/>
      </g>
     </g>
    </g>
    <g id="text_8">
     <!-- Alb -->
     <g transform="translate(443.314531 413.754687) scale(0.1 -0.1)">
      <defs>
       <path id="DejaVuSans-41" d="M 2188 4044 
L 1331 1722 
L 3047 1722 
L 2188 4044 
z
M 1831 4666 
L 2547 4666 
L 4325 0 
L 3669 0 
L 3244 1197 
L 1141 1197 
L 716 0 
L 50 0 
L 1831 4666 
z
" transform="scale(0.015625)"/>
       <path id="DejaVuSans-6c" d="M 603 4863 
L 1178 4863 
L 1178 0 
L 603 0 
L 603 4863 
z
" transform="scale(0.015625)"/>
       <path id="DejaVuSans-62" d="M 3116 1747 
Q 3116 2381 2855 2742 
Q 2594 3103 2138 3103 
Q 1681 3103 1420 2742 
Q 1159 2381 1159 1747 
Q 1159 1113 1420 752 
Q 1681 391 2138 391 
Q 2594 391 2855 752 
Q 3116 1113 3116 1747 
z
M 1159 2969 
Q 1341 3281 1617 3432 
Q 1894 3584 2278 3584 
Q 2916 3584 3314 3078 
Q 3713 2572 3713 1747 
Q 3713 922 3314 415 
Q 2916 -91 2278 -91 
Q 1894 -91 1617 61 
Q 1341 213 1159 525 
L 1159 0 
L 581 0 
L 581 4863 
L 1159 4863 
L 1159 2969 
z
" transform="scale(0.015625)"/>
      </defs>
      <use xlink:href="#DejaVuSans-41"/>
      <use xlink:href="#DejaVuSans-6c" x="68.408203"/>
      <use xlink:href="#DejaVuSans-62" x="96.191406"/>
     </g>
    </g>
   </g>
   <g id="matplotlib.axis_2">
    <g id="ytick_1">
     <g id="line2d_8">
      <defs>
       <path id="m3606e556a3" d="M 0 0 
L -3.5 0 
" style="stroke: #000000; stroke-width: 0.8"/>
      </defs>
      <g>
       <use xlink:href="#m3606e556a3" x="53.328125" y="385.478125" style="stroke: #000000; stroke-width: 0.8"/>
      </g>
     </g>
     <g id="text_9">
      <!-- 0 -->
      <g transform="translate(39.965625 389.277344) scale(0.1 -0.1)">
       <use xlink:href="#DejaVuSans-30"/>
      </g>
     </g>
    </g>
    <g id="ytick_2">
     <g id="line2d_9">
      <g>
       <use xlink:href="#m3606e556a3" x="53.328125" y="341.972884" style="stroke: #000000; stroke-width: 0.8"/>
      </g>
     </g>
     <g id="text_10">
      <!-- 200 -->
      <g transform="translate(27.240625 345.772103) scale(0.1 -0.1)">
       <use xlink:href="#DejaVuSans-32"/>
       <use xlink:href="#DejaVuSans-30" x="63.623047"/>
       <use xlink:href="#DejaVuSans-30" x="127.246094"/>
      </g>
     </g>
    </g>
    <g id="ytick_3">
     <g id="line2d_10">
      <g>
       <use xlink:href="#m3606e556a3" x="53.328125" y="298.467643" style="stroke: #000000; stroke-width: 0.8"/>
      </g>
     </g>
     <g id="text_11">
      <!-- 400 -->
      <g transform="translate(27.240625 302.266862) scale(0.1 -0.1)">
       <use xlink:href="#DejaVuSans-34"/>
       <use xlink:href="#DejaVuSans-30" x="63.623047"/>
       <use xlink:href="#DejaVuSans-30" x="127.246094"/>
      </g>
     </g>
    </g>
    <g id="ytick_4">
     <g id="line2d_11">
      <g>
       <use xlink:href="#m3606e556a3" x="53.328125" y="254.962402" style="stroke: #000000; stroke-width: 0.8"/>
      </g>
     </g>
     <g id="text_12">
      <!-- 600 -->
      <g transform="translate(27.240625 258.76162) scale(0.1 -0.1)">
       <use xlink:href="#DejaVuSans-36"/>
       <use xlink:href="#DejaVuSans-30" x="63.623047"/>
       <use xlink:href="#DejaVuSans-30" x="127.246094"/>
      </g>
     </g>
    </g>
    <g id="ytick_5">
     <g id="line2d_12">
      <g>
       <use xlink:href="#m3606e556a3" x="53.328125" y="211.457161" style="stroke: #000000; stroke-width: 0.8"/>
      </g>
     </g>
     <g id="text_13">
      <!-- 800 -->
      <g transform="translate(27.240625 215.256379) scale(0.1 -0.1)">
       <defs>
        <path id="DejaVuSans-38" d="M 2034 2216 
Q 1584 2216 1326 1975 
Q 1069 1734 1069 1313 
Q 1069 891 1326 650 
Q 1584 409 2034 409 
Q 2484 409 2743 651 
Q 3003 894 3003 1313 
Q 3003 1734 2745 1975 
Q 2488 2216 2034 2216 
z
M 1403 2484 
Q 997 2584 770 2862 
Q 544 3141 544 3541 
Q 544 4100 942 4425 
Q 1341 4750 2034 4750 
Q 2731 4750 3128 4425 
Q 3525 4100 3525 3541 
Q 3525 3141 3298 2862 
Q 3072 2584 2669 2484 
Q 3125 2378 3379 2068 
Q 3634 1759 3634 1313 
Q 3634 634 3220 271 
Q 2806 -91 2034 -91 
Q 1263 -91 848 271 
Q 434 634 434 1313 
Q 434 1759 690 2068 
Q 947 2378 1403 2484 
z
M 1172 3481 
Q 1172 3119 1398 2916 
Q 1625 2713 2034 2713 
Q 2441 2713 2670 2916 
Q 2900 3119 2900 3481 
Q 2900 3844 2670 4047 
Q 2441 4250 2034 4250 
Q 1625 4250 1398 4047 
Q 1172 3844 1172 3481 
z
" transform="scale(0.015625)"/>
       </defs>
       <use xlink:href="#DejaVuSans-38"/>
       <use xlink:href="#DejaVuSans-30" x="63.623047"/>
       <use xlink:href="#DejaVuSans-30" x="127.246094"/>
      </g>
     </g>
    </g>
    <g id="ytick_6">
     <g id="line2d_13">
      <g>
       <use xlink:href="#m3606e556a3" x="53.328125" y="167.95192" style="stroke: #000000; stroke-width: 0.8"/>
      </g>
     </g>
     <g id="text_14">
      <!-- 1000 -->
      <g transform="translate(20.878125 171.751138) scale(0.1 -0.1)">
       <use xlink:href="#DejaVuSans-31"/>
       <use xlink:href="#DejaVuSans-30" x="63.623047"/>
       <use xlink:href="#DejaVuSans-30" x="127.246094"/>
       <use xlink:href="#DejaVuSans-30" x="190.869141"/>
      </g>
     </g>
    </g>
    <g id="ytick_7">
     <g id="line2d_14">
      <g>
       <use xlink:href="#m3606e556a3" x="53.328125" y="124.446678" style="stroke: #000000; stroke-width: 0.8"/>
      </g>
     </g>
     <g id="text_15">
      <!-- 1200 -->
      <g transform="translate(20.878125 128.245897) scale(0.1 -0.1)">
       <use xlink:href="#DejaVuSans-31"/>
       <use xlink:href="#DejaVuSans-32" x="63.623047"/>
       <use xlink:href="#DejaVuSans-30" x="127.246094"/>
       <use xlink:href="#DejaVuSans-30" x="190.869141"/>
      </g>
     </g>
    </g>
    <g id="ytick_8">
     <g id="line2d_15">
      <g>
       <use xlink:href="#m3606e556a3" x="53.328125" y="80.941437" style="stroke: #000000; stroke-width: 0.8"/>
      </g>
     </g>
     <g id="text_16">
      <!-- 1400 -->
      <g transform="translate(20.878125 84.740656) scale(0.1 -0.1)">
       <use xlink:href="#DejaVuSans-31"/>
       <use xlink:href="#DejaVuSans-34" x="63.623047"/>
       <use xlink:href="#DejaVuSans-30" x="127.246094"/>
       <use xlink:href="#DejaVuSans-30" x="190.869141"/>
      </g>
     </g>
    </g>
    <g id="ytick_9">
     <g id="line2d_16">
      <g>
       <use xlink:href="#m3606e556a3" x="53.328125" y="37.436196" style="stroke: #000000; stroke-width: 0.8"/>
      </g>
     </g>
     <g id="text_17">
      <!-- 1600 -->
      <g transform="translate(20.878125 41.235415) scale(0.1 -0.1)">
       <use xlink:href="#DejaVuSans-31"/>
       <use xlink:href="#DejaVuSans-36" x="63.623047"/>
       <use xlink:href="#DejaVuSans-30" x="127.246094"/>
       <use xlink:href="#DejaVuSans-30" x="190.869141"/>
      </g>
     </g>
    </g>
    <g id="text_18">
     <!-- Count -->
     <g transform="translate(14.798438 218.746562) rotate(-90) scale(0.1 -0.1)">
      <defs>
       <path id="DejaVuSans-43" d="M 4122 4306 
L 4122 3641 
Q 3803 3938 3442 4084 
Q 3081 4231 2675 4231 
Q 1875 4231 1450 3742 
Q 1025 3253 1025 2328 
Q 1025 1406 1450 917 
Q 1875 428 2675 428 
Q 3081 428 3442 575 
Q 3803 722 4122 1019 
L 4122 359 
Q 3791 134 3420 21 
Q 3050 -91 2638 -91 
Q 1578 -91 968 557 
Q 359 1206 359 2328 
Q 359 3453 968 4101 
Q 1578 4750 2638 4750 
Q 3056 4750 3426 4639 
Q 3797 4528 4122 4306 
z
" transform="scale(0.015625)"/>
       <path id="DejaVuSans-6f" d="M 1959 3097 
Q 1497 3097 1228 2736 
Q 959 2375 959 1747 
Q 959 1119 1226 758 
Q 1494 397 1959 397 
Q 2419 397 2687 759 
Q 2956 1122 2956 1747 
Q 2956 2369 2687 2733 
Q 2419 3097 1959 3097 
z
M 1959 3584 
Q 2709 3584 3137 3096 
Q 3566 2609 3566 1747 
Q 3566 888 3137 398 
Q 2709 -91 1959 -91 
Q 1206 -91 779 398 
Q 353 888 353 1747 
Q 353 2609 779 3096 
Q 1206 3584 1959 3584 
z
" transform="scale(0.015625)"/>
       <path id="DejaVuSans-75" d="M 544 1381 
L 544 3500 
L 1119 3500 
L 1119 1403 
Q 1119 906 1312 657 
Q 1506 409 1894 409 
Q 2359 409 2629 706 
Q 2900 1003 2900 1516 
L 2900 3500 
L 3475 3500 
L 3475 0 
L 2900 0 
L 2900 538 
Q 2691 219 2414 64 
Q 2138 -91 1772 -91 
Q 1169 -91 856 284 
Q 544 659 544 1381 
z
M 1991 3584 
L 1991 3584 
z
" transform="scale(0.015625)"/>
       <path id="DejaVuSans-6e" d="M 3513 2113 
L 3513 0 
L 2938 0 
L 2938 2094 
Q 2938 2591 2744 2837 
Q 2550 3084 2163 3084 
Q 1697 3084 1428 2787 
Q 1159 2491 1159 1978 
L 1159 0 
L 581 0 
L 581 3500 
L 1159 3500 
L 1159 2956 
Q 1366 3272 1645 3428 
Q 1925 3584 2291 3584 
Q 2894 3584 3203 3211 
Q 3513 2838 3513 2113 
z
" transform="scale(0.015625)"/>
       <path id="DejaVuSans-74" d="M 1172 4494 
L 1172 3500 
L 2356 3500 
L 2356 3053 
L 1172 3053 
L 1172 1153 
Q 1172 725 1289 603 
Q 1406 481 1766 481 
L 2356 481 
L 2356 0 
L 1766 0 
Q 1100 0 847 248 
Q 594 497 594 1153 
L 594 3053 
L 172 3053 
L 172 3500 
L 594 3500 
L 594 4494 
L 1172 4494 
z
" transform="scale(0.015625)"/>
      </defs>
      <use xlink:href="#DejaVuSans-43"/>
      <use xlink:href="#DejaVuSans-6f" x="69.824219"/>
      <use xlink:href="#DejaVuSans-75" x="131.005859"/>
      <use xlink:href="#DejaVuSans-6e" x="194.384766"/>
      <use xlink:href="#DejaVuSans-74" x="257.763672"/>
     </g>
    </g>
   </g>
   <g id="line2d_17">
    <path d="M 121.309066 385.406973 
L 151.157323 385.456078 
L 200.904417 385.358535 
L 220.803255 385.034028 
L 263.917403 384.009693 
L 277.183295 383.400101 
L 297.082133 382.33108 
L 313.664497 381.773466 
L 320.297443 381.324889 
L 340.196281 379.751219 
L 366.728065 377.782572 
L 386.626902 375.555771 
L 396.576321 374.893252 
L 406.52574 374.187372 
L 426.424578 372.456313 
L 443.006943 371.400396 
L 449.639889 370.693629 
L 456.272834 369.64233 
L 459.589307 368.91677 
L 462.90578 368.018661 
L 466.222253 366.939217 
L 469.538726 365.69582 
L 476.171672 362.879173 
L 486.121091 358.334855 
L 492.754037 355.139589 
L 499.386983 351.708345 
L 506.019929 348.003293 
L 512.652875 343.993084 
L 515.969348 341.831245 
L 519.285821 339.516579 
L 522.602294 336.99959 
L 525.918766 334.227446 
L 529.235239 331.150286 
L 532.551712 327.725556 
L 535.868185 323.920047 
L 539.184658 319.710817 
L 542.501131 315.08713 
L 545.817604 310.054206 
L 549.134077 304.637243 
L 552.45055 298.88318 
L 559.083496 286.636258 
L 575.665861 254.979938 
L 578.982334 249.151688 
L 582.298807 243.824941 
L 585.61528 239.157301 
L 588.931753 235.250614 
L 592.248226 232.132364 
L 595.564699 229.771836 
L 598.881171 228.118998 
L 602.197644 227.142489 
L 605.514117 226.8496 
L 608.83059 227.283354 
L 612.147063 228.502459 
L 615.463536 230.557895 
L 618.780009 233.478583 
L 622.096482 237.267484 
L 625.412955 241.901958 
L 628.729428 247.335731 
L 632.045901 253.503293 
L 635.362374 260.324088 
L 638.678847 267.702221 
L 641.99532 275.522526 
L 655.261212 308.12711 
L 658.577685 315.7199 
L 661.894158 322.798603 
L 665.210631 329.316598 
L 668.527104 335.293126 
L 671.843576 340.794635 
L 675.160049 345.908447 
L 678.476522 350.715677 
L 681.792995 355.267819 
L 685.109468 359.570617 
L 688.425941 363.580529 
L 691.742414 367.219238 
L 695.058887 370.404862 
L 698.37536 373.087318 
L 701.691833 375.270327 
L 705.008306 377.010261 
L 708.324779 378.395986 
L 711.641252 379.522656 
L 714.957725 380.47131 
L 721.590671 382.037754 
L 728.223617 383.28174 
L 734.856563 384.185791 
L 741.489509 384.751022 
L 748.122454 385.072386 
L 758.071873 385.317838 
L 771.337765 385.421073 
L 781.287184 385.427368 
L 781.287184 385.427368 
" clip-path="url(#p07e5f7407b)" style="fill: none; stroke: #1f77b4; stroke-width: 1.5; stroke-linecap: square"/>
   </g>
   <g id="line2d_18">
    <path d="M 89.507216 385.478124 
L 551.290587 385.369782 
L 627.648468 385.298726 
L 751.275512 385.477733 
L 813.089034 385.478124 
L 813.089034 385.478124 
" clip-path="url(#p07e5f7407b)" style="fill: none; stroke: #1f77b4; stroke-width: 1.5; stroke-linecap: square"/>
   </g>
   <g id="patch_118">
    <path d="M 53.328125 385.478125 
L 53.328125 22.318125 
" style="fill: none; stroke: #000000; stroke-width: 0.8; stroke-linejoin: miter; stroke-linecap: square"/>
   </g>
   <g id="patch_119">
    <path d="M 849.268125 385.478125 
L 849.268125 22.318125 
" style="fill: none; stroke: #000000; stroke-width: 0.8; stroke-linejoin: miter; stroke-linecap: square"/>
   </g>
   <g id="patch_120">
    <path d="M 53.328125 385.478125 
L 849.268125 385.478125 
" style="fill: none; stroke: #000000; stroke-width: 0.8; stroke-linejoin: miter; stroke-linecap: square"/>
   </g>
   <g id="patch_121">
    <path d="M 53.328125 22.318125 
L 849.268125 22.318125 
" style="fill: none; stroke: #000000; stroke-width: 0.8; stroke-linejoin: miter; stroke-linecap: square"/>
   </g>
   <g id="text_19">
    <!-- Distribution of Alb -->
    <g transform="translate(397.118125 16.318125) scale(0.12 -0.12)">
     <defs>
      <path id="DejaVuSans-44" d="M 1259 4147 
L 1259 519 
L 2022 519 
Q 2988 519 3436 956 
Q 3884 1394 3884 2338 
Q 3884 3275 3436 3711 
Q 2988 4147 2022 4147 
L 1259 4147 
z
M 628 4666 
L 1925 4666 
Q 3281 4666 3915 4102 
Q 4550 3538 4550 2338 
Q 4550 1131 3912 565 
Q 3275 0 1925 0 
L 628 0 
L 628 4666 
z
" transform="scale(0.015625)"/>
      <path id="DejaVuSans-69" d="M 603 3500 
L 1178 3500 
L 1178 0 
L 603 0 
L 603 3500 
z
M 603 4863 
L 1178 4863 
L 1178 4134 
L 603 4134 
L 603 4863 
z
" transform="scale(0.015625)"/>
      <path id="DejaVuSans-73" d="M 2834 3397 
L 2834 2853 
Q 2591 2978 2328 3040 
Q 2066 3103 1784 3103 
Q 1356 3103 1142 2972 
Q 928 2841 928 2578 
Q 928 2378 1081 2264 
Q 1234 2150 1697 2047 
L 1894 2003 
Q 2506 1872 2764 1633 
Q 3022 1394 3022 966 
Q 3022 478 2636 193 
Q 2250 -91 1575 -91 
Q 1294 -91 989 -36 
Q 684 19 347 128 
L 347 722 
Q 666 556 975 473 
Q 1284 391 1588 391 
Q 1994 391 2212 530 
Q 2431 669 2431 922 
Q 2431 1156 2273 1281 
Q 2116 1406 1581 1522 
L 1381 1569 
Q 847 1681 609 1914 
Q 372 2147 372 2553 
Q 372 3047 722 3315 
Q 1072 3584 1716 3584 
Q 2034 3584 2315 3537 
Q 2597 3491 2834 3397 
z
" transform="scale(0.015625)"/>
      <path id="DejaVuSans-72" d="M 2631 2963 
Q 2534 3019 2420 3045 
Q 2306 3072 2169 3072 
Q 1681 3072 1420 2755 
Q 1159 2438 1159 1844 
L 1159 0 
L 581 0 
L 581 3500 
L 1159 3500 
L 1159 2956 
Q 1341 3275 1631 3429 
Q 1922 3584 2338 3584 
Q 2397 3584 2469 3576 
Q 2541 3569 2628 3553 
L 2631 2963 
z
" transform="scale(0.015625)"/>
      <path id="DejaVuSans-20" transform="scale(0.015625)"/>
      <path id="DejaVuSans-66" d="M 2375 4863 
L 2375 4384 
L 1825 4384 
Q 1516 4384 1395 4259 
Q 1275 4134 1275 3809 
L 1275 3500 
L 2222 3500 
L 2222 3053 
L 1275 3053 
L 1275 0 
L 697 0 
L 697 3053 
L 147 3053 
L 147 3500 
L 697 3500 
L 697 3744 
Q 697 4328 969 4595 
Q 1241 4863 1831 4863 
L 2375 4863 
z
" transform="scale(0.015625)"/>
     </defs>
     <use xlink:href="#DejaVuSans-44"/>
     <use xlink:href="#DejaVuSans-69" x="77.001953"/>
     <use xlink:href="#DejaVuSans-73" x="104.785156"/>
     <use xlink:href="#DejaVuSans-74" x="156.884766"/>
     <use xlink:href="#DejaVuSans-72" x="196.09375"/>
     <use xlink:href="#DejaVuSans-69" x="237.207031"/>
     <use xlink:href="#DejaVuSans-62" x="264.990234"/>
     <use xlink:href="#DejaVuSans-75" x="328.466797"/>
     <use xlink:href="#DejaVuSans-74" x="391.845703"/>
     <use xlink:href="#DejaVuSans-69" x="431.054688"/>
     <use xlink:href="#DejaVuSans-6f" x="458.837891"/>
     <use xlink:href="#DejaVuSans-6e" x="520.019531"/>
     <use xlink:href="#DejaVuSans-20" x="583.398438"/>
     <use xlink:href="#DejaVuSans-6f" x="615.185547"/>
     <use xlink:href="#DejaVuSans-66" x="676.367188"/>
     <use xlink:href="#DejaVuSans-20" x="711.572266"/>
     <use xlink:href="#DejaVuSans-41" x="743.359375"/>
     <use xlink:href="#DejaVuSans-6c" x="811.767578"/>
     <use xlink:href="#DejaVuSans-62" x="839.550781"/>
    </g>
   </g>
  </g>
 </g>
 <defs>
  <clipPath id="p07e5f7407b">
   <rect x="53.328125" y="22.318125" width="795.94" height="363.16"/>
  </clipPath>
 </defs>
</svg>
