<?xml version="1.0" encoding="utf-8" standalone="no"?>
<!DOCTYPE svg PUBLIC "-//W3C//DTD SVG 1.1//EN"
  "http://www.w3.org/Graphics/SVG/1.1/DTD/svg11.dtd">
<svg xmlns:xlink="http://www.w3.org/1999/xlink" width="856.558125pt" height="423.034375pt" viewBox="0 0 856.558125 423.034375" xmlns="http://www.w3.org/2000/svg" version="1.1">
 <metadata>
  <rdf:RDF xmlns:dc="http://purl.org/dc/elements/1.1/" xmlns:cc="http://creativecommons.org/ns#" xmlns:rdf="http://www.w3.org/1999/02/22-rdf-syntax-ns#">
   <cc:Work>
    <dc:type rdf:resource="http://purl.org/dc/dcmitype/StillImage"/>
    <dc:date>2024-07-19T18:25:11.031833</dc:date>
    <dc:format>image/svg+xml</dc:format>
    <dc:creator>
     <cc:Agent>
      <dc:title>Matplotlib v3.9.0, https://matplotlib.org/</dc:title>
     </cc:Agent>
    </dc:creator>
   </cc:Work>
  </rdf:RDF>
 </metadata>
 <defs>
  <style type="text/css">*{stroke-linejoin: round; stroke-linecap: butt}</style>
 </defs>
 <g id="figure_1">
  <g id="patch_1">
   <path d="M 0 423.034375 
L 856.558125 423.034375 
L 856.558125 0 
L 0 0 
z
" style="fill: #ffffff"/>
  </g>
  <g id="axes_1">
   <g id="patch_2">
    <path d="M 53.328125 385.478125 
L 849.358125 385.478125 
L 849.358125 22.318125 
L 53.328125 22.318125 
z
" style="fill: #ffffff"/>
   </g>
   <g id="patch_3">
    <path d="M 110.397524 385.478125 
L 115.165994 385.478125 
L 115.165994 385.298361 
L 110.397524 385.298361 
z
" clip-path="url(#p4312770f2a)" style="fill: #1f77b4; fill-opacity: 0.5; stroke: #000000; stroke-width: 0.425683; stroke-linejoin: miter"/>
   </g>
   <g id="patch_4">
    <path d="M 115.165994 385.478125 
L 119.934464 385.478125 
L 119.934464 385.478125 
L 115.165994 385.478125 
z
" clip-path="url(#p4312770f2a)" style="fill: #1f77b4; fill-opacity: 0.5; stroke: #000000; stroke-width: 0.425683; stroke-linejoin: miter"/>
   </g>
   <g id="patch_5">
    <path d="M 119.934464 385.478125 
L 124.702934 385.478125 
L 124.702934 385.298361 
L 119.934464 385.298361 
z
" clip-path="url(#p4312770f2a)" style="fill: #1f77b4; fill-opacity: 0.5; stroke: #000000; stroke-width: 0.425683; stroke-linejoin: miter"/>
   </g>
   <g id="patch_6">
    <path d="M 124.702934 385.478125 
L 129.471404 385.478125 
L 129.471404 385.478125 
L 124.702934 385.478125 
z
" clip-path="url(#p4312770f2a)" style="fill: #1f77b4; fill-opacity: 0.5; stroke: #000000; stroke-width: 0.425683; stroke-linejoin: miter"/>
   </g>
   <g id="patch_7">
    <path d="M 129.471404 385.478125 
L 134.239874 385.478125 
L 134.239874 385.478125 
L 129.471404 385.478125 
z
" clip-path="url(#p4312770f2a)" style="fill: #1f77b4; fill-opacity: 0.5; stroke: #000000; stroke-width: 0.425683; stroke-linejoin: miter"/>
   </g>
   <g id="patch_8">
    <path d="M 134.239874 385.478125 
L 139.008343 385.478125 
L 139.008343 384.938832 
L 134.239874 384.938832 
z
" clip-path="url(#p4312770f2a)" style="fill: #1f77b4; fill-opacity: 0.5; stroke: #000000; stroke-width: 0.425683; stroke-linejoin: miter"/>
   </g>
   <g id="patch_9">
    <path d="M 139.008343 385.478125 
L 143.776813 385.478125 
L 143.776813 385.478125 
L 139.008343 385.478125 
z
" clip-path="url(#p4312770f2a)" style="fill: #1f77b4; fill-opacity: 0.5; stroke: #000000; stroke-width: 0.425683; stroke-linejoin: miter"/>
   </g>
   <g id="patch_10">
    <path d="M 143.776813 385.478125 
L 148.545283 385.478125 
L 148.545283 384.759067 
L 143.776813 384.759067 
z
" clip-path="url(#p4312770f2a)" style="fill: #1f77b4; fill-opacity: 0.5; stroke: #000000; stroke-width: 0.425683; stroke-linejoin: miter"/>
   </g>
   <g id="patch_11">
    <path d="M 148.545283 385.478125 
L 153.313753 385.478125 
L 153.313753 385.478125 
L 148.545283 385.478125 
z
" clip-path="url(#p4312770f2a)" style="fill: #1f77b4; fill-opacity: 0.5; stroke: #000000; stroke-width: 0.425683; stroke-linejoin: miter"/>
   </g>
   <g id="patch_12">
    <path d="M 153.313753 385.478125 
L 158.082223 385.478125 
L 158.082223 385.478125 
L 153.313753 385.478125 
z
" clip-path="url(#p4312770f2a)" style="fill: #1f77b4; fill-opacity: 0.5; stroke: #000000; stroke-width: 0.425683; stroke-linejoin: miter"/>
   </g>
   <g id="patch_13">
    <path d="M 158.082223 385.478125 
L 162.850693 385.478125 
L 162.850693 384.759067 
L 158.082223 384.759067 
z
" clip-path="url(#p4312770f2a)" style="fill: #1f77b4; fill-opacity: 0.5; stroke: #000000; stroke-width: 0.425683; stroke-linejoin: miter"/>
   </g>
   <g id="patch_14">
    <path d="M 162.850693 385.478125 
L 167.619163 385.478125 
L 167.619163 385.478125 
L 162.850693 385.478125 
z
" clip-path="url(#p4312770f2a)" style="fill: #1f77b4; fill-opacity: 0.5; stroke: #000000; stroke-width: 0.425683; stroke-linejoin: miter"/>
   </g>
   <g id="patch_15">
    <path d="M 167.619163 385.478125 
L 172.387633 385.478125 
L 172.387633 384.04001 
L 167.619163 384.04001 
z
" clip-path="url(#p4312770f2a)" style="fill: #1f77b4; fill-opacity: 0.5; stroke: #000000; stroke-width: 0.425683; stroke-linejoin: miter"/>
   </g>
   <g id="patch_16">
    <path d="M 172.387633 385.478125 
L 177.156103 385.478125 
L 177.156103 385.478125 
L 172.387633 385.478125 
z
" clip-path="url(#p4312770f2a)" style="fill: #1f77b4; fill-opacity: 0.5; stroke: #000000; stroke-width: 0.425683; stroke-linejoin: miter"/>
   </g>
   <g id="patch_17">
    <path d="M 177.156103 385.478125 
L 181.924573 385.478125 
L 181.924573 385.478125 
L 177.156103 385.478125 
z
" clip-path="url(#p4312770f2a)" style="fill: #1f77b4; fill-opacity: 0.5; stroke: #000000; stroke-width: 0.425683; stroke-linejoin: miter"/>
   </g>
   <g id="patch_18">
    <path d="M 181.924573 385.478125 
L 186.693043 385.478125 
L 186.693043 384.399539 
L 181.924573 384.399539 
z
" clip-path="url(#p4312770f2a)" style="fill: #1f77b4; fill-opacity: 0.5; stroke: #000000; stroke-width: 0.425683; stroke-linejoin: miter"/>
   </g>
   <g id="patch_19">
    <path d="M 186.693043 385.478125 
L 191.461513 385.478125 
L 191.461513 385.478125 
L 186.693043 385.478125 
z
" clip-path="url(#p4312770f2a)" style="fill: #1f77b4; fill-opacity: 0.5; stroke: #000000; stroke-width: 0.425683; stroke-linejoin: miter"/>
   </g>
   <g id="patch_20">
    <path d="M 191.461513 385.478125 
L 196.229983 385.478125 
L 196.229983 382.781659 
L 191.461513 382.781659 
z
" clip-path="url(#p4312770f2a)" style="fill: #1f77b4; fill-opacity: 0.5; stroke: #000000; stroke-width: 0.425683; stroke-linejoin: miter"/>
   </g>
   <g id="patch_21">
    <path d="M 196.229983 385.478125 
L 200.998453 385.478125 
L 200.998453 385.478125 
L 196.229983 385.478125 
z
" clip-path="url(#p4312770f2a)" style="fill: #1f77b4; fill-opacity: 0.5; stroke: #000000; stroke-width: 0.425683; stroke-linejoin: miter"/>
   </g>
   <g id="patch_22">
    <path d="M 200.998453 385.478125 
L 205.766923 385.478125 
L 205.766923 385.478125 
L 200.998453 385.478125 
z
" clip-path="url(#p4312770f2a)" style="fill: #1f77b4; fill-opacity: 0.5; stroke: #000000; stroke-width: 0.425683; stroke-linejoin: miter"/>
   </g>
   <g id="patch_23">
    <path d="M 205.766923 385.478125 
L 210.535393 385.478125 
L 210.535393 382.601895 
L 205.766923 382.601895 
z
" clip-path="url(#p4312770f2a)" style="fill: #1f77b4; fill-opacity: 0.5; stroke: #000000; stroke-width: 0.425683; stroke-linejoin: miter"/>
   </g>
   <g id="patch_24">
    <path d="M 210.535393 385.478125 
L 215.303863 385.478125 
L 215.303863 385.478125 
L 210.535393 385.478125 
z
" clip-path="url(#p4312770f2a)" style="fill: #1f77b4; fill-opacity: 0.5; stroke: #000000; stroke-width: 0.425683; stroke-linejoin: miter"/>
   </g>
   <g id="patch_25">
    <path d="M 215.303863 385.478125 
L 220.072333 385.478125 
L 220.072333 379.905429 
L 215.303863 379.905429 
z
" clip-path="url(#p4312770f2a)" style="fill: #1f77b4; fill-opacity: 0.5; stroke: #000000; stroke-width: 0.425683; stroke-linejoin: miter"/>
   </g>
   <g id="patch_26">
    <path d="M 220.072333 385.478125 
L 224.840803 385.478125 
L 224.840803 385.478125 
L 220.072333 385.478125 
z
" clip-path="url(#p4312770f2a)" style="fill: #1f77b4; fill-opacity: 0.5; stroke: #000000; stroke-width: 0.425683; stroke-linejoin: miter"/>
   </g>
   <g id="patch_27">
    <path d="M 224.840803 385.478125 
L 229.609272 385.478125 
L 229.609272 385.298361 
L 224.840803 385.298361 
z
" clip-path="url(#p4312770f2a)" style="fill: #1f77b4; fill-opacity: 0.5; stroke: #000000; stroke-width: 0.425683; stroke-linejoin: miter"/>
   </g>
   <g id="patch_28">
    <path d="M 229.609272 385.478125 
L 234.377742 385.478125 
L 234.377742 377.568492 
L 229.609272 377.568492 
z
" clip-path="url(#p4312770f2a)" style="fill: #1f77b4; fill-opacity: 0.5; stroke: #000000; stroke-width: 0.425683; stroke-linejoin: miter"/>
   </g>
   <g id="patch_29">
    <path d="M 234.377742 385.478125 
L 239.146212 385.478125 
L 239.146212 385.478125 
L 234.377742 385.478125 
z
" clip-path="url(#p4312770f2a)" style="fill: #1f77b4; fill-opacity: 0.5; stroke: #000000; stroke-width: 0.425683; stroke-linejoin: miter"/>
   </g>
   <g id="patch_30">
    <path d="M 239.146212 385.478125 
L 243.914682 385.478125 
L 243.914682 385.478125 
L 239.146212 385.478125 
z
" clip-path="url(#p4312770f2a)" style="fill: #1f77b4; fill-opacity: 0.5; stroke: #000000; stroke-width: 0.425683; stroke-linejoin: miter"/>
   </g>
   <g id="patch_31">
    <path d="M 243.914682 385.478125 
L 248.683152 385.478125 
L 248.683152 373.613676 
L 243.914682 373.613676 
z
" clip-path="url(#p4312770f2a)" style="fill: #1f77b4; fill-opacity: 0.5; stroke: #000000; stroke-width: 0.425683; stroke-linejoin: miter"/>
   </g>
   <g id="patch_32">
    <path d="M 248.683152 385.478125 
L 253.451622 385.478125 
L 253.451622 385.478125 
L 248.683152 385.478125 
z
" clip-path="url(#p4312770f2a)" style="fill: #1f77b4; fill-opacity: 0.5; stroke: #000000; stroke-width: 0.425683; stroke-linejoin: miter"/>
   </g>
   <g id="patch_33">
    <path d="M 253.451622 385.478125 
L 258.220092 385.478125 
L 258.220092 374.872027 
L 253.451622 374.872027 
z
" clip-path="url(#p4312770f2a)" style="fill: #1f77b4; fill-opacity: 0.5; stroke: #000000; stroke-width: 0.425683; stroke-linejoin: miter"/>
   </g>
   <g id="patch_34">
    <path d="M 258.220092 385.478125 
L 262.988562 385.478125 
L 262.988562 385.478125 
L 258.220092 385.478125 
z
" clip-path="url(#p4312770f2a)" style="fill: #1f77b4; fill-opacity: 0.5; stroke: #000000; stroke-width: 0.425683; stroke-linejoin: miter"/>
   </g>
   <g id="patch_35">
    <path d="M 262.988562 385.478125 
L 267.757032 385.478125 
L 267.757032 385.298361 
L 262.988562 385.298361 
z
" clip-path="url(#p4312770f2a)" style="fill: #1f77b4; fill-opacity: 0.5; stroke: #000000; stroke-width: 0.425683; stroke-linejoin: miter"/>
   </g>
   <g id="patch_36">
    <path d="M 267.757032 385.478125 
L 272.525502 385.478125 
L 272.525502 365.704043 
L 267.757032 365.704043 
z
" clip-path="url(#p4312770f2a)" style="fill: #1f77b4; fill-opacity: 0.5; stroke: #000000; stroke-width: 0.425683; stroke-linejoin: miter"/>
   </g>
   <g id="patch_37">
    <path d="M 272.525502 385.478125 
L 277.293972 385.478125 
L 277.293972 385.478125 
L 272.525502 385.478125 
z
" clip-path="url(#p4312770f2a)" style="fill: #1f77b4; fill-opacity: 0.5; stroke: #000000; stroke-width: 0.425683; stroke-linejoin: miter"/>
   </g>
   <g id="patch_38">
    <path d="M 277.293972 385.478125 
L 282.062442 385.478125 
L 282.062442 363.367106 
L 277.293972 363.367106 
z
" clip-path="url(#p4312770f2a)" style="fill: #1f77b4; fill-opacity: 0.5; stroke: #000000; stroke-width: 0.425683; stroke-linejoin: miter"/>
   </g>
   <g id="patch_39">
    <path d="M 282.062442 385.478125 
L 286.830912 385.478125 
L 286.830912 385.478125 
L 282.062442 385.478125 
z
" clip-path="url(#p4312770f2a)" style="fill: #1f77b4; fill-opacity: 0.5; stroke: #000000; stroke-width: 0.425683; stroke-linejoin: miter"/>
   </g>
   <g id="patch_40">
    <path d="M 286.830912 385.478125 
L 291.599382 385.478125 
L 291.599382 385.118596 
L 286.830912 385.118596 
z
" clip-path="url(#p4312770f2a)" style="fill: #1f77b4; fill-opacity: 0.5; stroke: #000000; stroke-width: 0.425683; stroke-linejoin: miter"/>
   </g>
   <g id="patch_41">
    <path d="M 291.599382 385.478125 
L 296.367852 385.478125 
L 296.367852 354.378887 
L 291.599382 354.378887 
z
" clip-path="url(#p4312770f2a)" style="fill: #1f77b4; fill-opacity: 0.5; stroke: #000000; stroke-width: 0.425683; stroke-linejoin: miter"/>
   </g>
   <g id="patch_42">
    <path d="M 296.367852 385.478125 
L 301.136322 385.478125 
L 301.136322 385.478125 
L 296.367852 385.478125 
z
" clip-path="url(#p4312770f2a)" style="fill: #1f77b4; fill-opacity: 0.5; stroke: #000000; stroke-width: 0.425683; stroke-linejoin: miter"/>
   </g>
   <g id="patch_43">
    <path d="M 301.136322 385.478125 
L 305.904792 385.478125 
L 305.904792 333.705984 
L 301.136322 333.705984 
z
" clip-path="url(#p4312770f2a)" style="fill: #1f77b4; fill-opacity: 0.5; stroke: #000000; stroke-width: 0.425683; stroke-linejoin: miter"/>
   </g>
   <g id="patch_44">
    <path d="M 305.904792 385.478125 
L 310.673262 385.478125 
L 310.673262 385.478125 
L 305.904792 385.478125 
z
" clip-path="url(#p4312770f2a)" style="fill: #1f77b4; fill-opacity: 0.5; stroke: #000000; stroke-width: 0.425683; stroke-linejoin: miter"/>
   </g>
   <g id="patch_45">
    <path d="M 310.673262 385.478125 
L 315.441732 385.478125 
L 315.441732 384.759067 
L 310.673262 384.759067 
z
" clip-path="url(#p4312770f2a)" style="fill: #1f77b4; fill-opacity: 0.5; stroke: #000000; stroke-width: 0.425683; stroke-linejoin: miter"/>
   </g>
   <g id="patch_46">
    <path d="M 315.441732 385.478125 
L 320.210201 385.478125 
L 320.210201 313.752137 
L 315.441732 313.752137 
z
" clip-path="url(#p4312770f2a)" style="fill: #1f77b4; fill-opacity: 0.5; stroke: #000000; stroke-width: 0.425683; stroke-linejoin: miter"/>
   </g>
   <g id="patch_47">
    <path d="M 320.210201 385.478125 
L 324.978671 385.478125 
L 324.978671 384.759067 
L 320.210201 384.759067 
z
" clip-path="url(#p4312770f2a)" style="fill: #1f77b4; fill-opacity: 0.5; stroke: #000000; stroke-width: 0.425683; stroke-linejoin: miter"/>
   </g>
   <g id="patch_48">
    <path d="M 324.978671 385.478125 
L 329.747141 385.478125 
L 329.747141 289.663711 
L 324.978671 289.663711 
z
" clip-path="url(#p4312770f2a)" style="fill: #1f77b4; fill-opacity: 0.5; stroke: #000000; stroke-width: 0.425683; stroke-linejoin: miter"/>
   </g>
   <g id="patch_49">
    <path d="M 329.747141 385.478125 
L 334.515611 385.478125 
L 334.515611 384.938832 
L 329.747141 384.938832 
z
" clip-path="url(#p4312770f2a)" style="fill: #1f77b4; fill-opacity: 0.5; stroke: #000000; stroke-width: 0.425683; stroke-linejoin: miter"/>
   </g>
   <g id="patch_50">
    <path d="M 334.515611 385.478125 
L 339.284081 385.478125 
L 339.284081 385.298361 
L 334.515611 385.298361 
z
" clip-path="url(#p4312770f2a)" style="fill: #1f77b4; fill-opacity: 0.5; stroke: #000000; stroke-width: 0.425683; stroke-linejoin: miter"/>
   </g>
   <g id="patch_51">
    <path d="M 339.284081 385.478125 
L 344.052551 385.478125 
L 344.052551 258.02518 
L 339.284081 258.02518 
z
" clip-path="url(#p4312770f2a)" style="fill: #1f77b4; fill-opacity: 0.5; stroke: #000000; stroke-width: 0.425683; stroke-linejoin: miter"/>
   </g>
   <g id="patch_52">
    <path d="M 344.052551 385.478125 
L 348.821021 385.478125 
L 348.821021 384.399539 
L 344.052551 384.399539 
z
" clip-path="url(#p4312770f2a)" style="fill: #1f77b4; fill-opacity: 0.5; stroke: #000000; stroke-width: 0.425683; stroke-linejoin: miter"/>
   </g>
   <g id="patch_53">
    <path d="M 348.821021 385.478125 
L 353.589491 385.478125 
L 353.589491 385.118596 
L 348.821021 385.118596 
z
" clip-path="url(#p4312770f2a)" style="fill: #1f77b4; fill-opacity: 0.5; stroke: #000000; stroke-width: 0.425683; stroke-linejoin: miter"/>
   </g>
   <g id="patch_54">
    <path d="M 353.589491 385.478125 
L 358.357961 385.478125 
L 358.357961 207.511389 
L 353.589491 207.511389 
z
" clip-path="url(#p4312770f2a)" style="fill: #1f77b4; fill-opacity: 0.5; stroke: #000000; stroke-width: 0.425683; stroke-linejoin: miter"/>
   </g>
   <g id="patch_55">
    <path d="M 358.357961 385.478125 
L 363.126431 385.478125 
L 363.126431 385.118596 
L 358.357961 385.118596 
z
" clip-path="url(#p4312770f2a)" style="fill: #1f77b4; fill-opacity: 0.5; stroke: #000000; stroke-width: 0.425683; stroke-linejoin: miter"/>
   </g>
   <g id="patch_56">
    <path d="M 363.126431 385.478125 
L 367.894901 385.478125 
L 367.894901 167.064404 
L 363.126431 167.064404 
z
" clip-path="url(#p4312770f2a)" style="fill: #1f77b4; fill-opacity: 0.5; stroke: #000000; stroke-width: 0.425683; stroke-linejoin: miter"/>
   </g>
   <g id="patch_57">
    <path d="M 367.894901 385.478125 
L 372.663371 385.478125 
L 372.663371 384.579303 
L 367.894901 384.579303 
z
" clip-path="url(#p4312770f2a)" style="fill: #1f77b4; fill-opacity: 0.5; stroke: #000000; stroke-width: 0.425683; stroke-linejoin: miter"/>
   </g>
   <g id="patch_58">
    <path d="M 372.663371 385.478125 
L 377.431841 385.478125 
L 377.431841 384.219774 
L 372.663371 384.219774 
z
" clip-path="url(#p4312770f2a)" style="fill: #1f77b4; fill-opacity: 0.5; stroke: #000000; stroke-width: 0.425683; stroke-linejoin: miter"/>
   </g>
   <g id="patch_59">
    <path d="M 377.431841 385.478125 
L 382.200311 385.478125 
L 382.200311 102.708756 
L 377.431841 102.708756 
z
" clip-path="url(#p4312770f2a)" style="fill: #1f77b4; fill-opacity: 0.5; stroke: #000000; stroke-width: 0.425683; stroke-linejoin: miter"/>
   </g>
   <g id="patch_60">
    <path d="M 382.200311 385.478125 
L 386.968781 385.478125 
L 386.968781 384.579303 
L 382.200311 384.579303 
z
" clip-path="url(#p4312770f2a)" style="fill: #1f77b4; fill-opacity: 0.5; stroke: #000000; stroke-width: 0.425683; stroke-linejoin: miter"/>
   </g>
   <g id="patch_61">
    <path d="M 386.968781 385.478125 
L 391.737251 385.478125 
L 391.737251 57.947425 
L 386.968781 57.947425 
z
" clip-path="url(#p4312770f2a)" style="fill: #1f77b4; fill-opacity: 0.5; stroke: #000000; stroke-width: 0.425683; stroke-linejoin: miter"/>
   </g>
   <g id="patch_62">
    <path d="M 391.737251 385.478125 
L 396.505721 385.478125 
L 396.505721 384.938832 
L 391.737251 384.938832 
z
" clip-path="url(#p4312770f2a)" style="fill: #1f77b4; fill-opacity: 0.5; stroke: #000000; stroke-width: 0.425683; stroke-linejoin: miter"/>
   </g>
   <g id="patch_63">
    <path d="M 396.505721 385.478125 
L 401.274191 385.478125 
L 401.274191 384.938832 
L 396.505721 384.938832 
z
" clip-path="url(#p4312770f2a)" style="fill: #1f77b4; fill-opacity: 0.5; stroke: #000000; stroke-width: 0.425683; stroke-linejoin: miter"/>
   </g>
   <g id="patch_64">
    <path d="M 401.274191 385.478125 
L 406.042661 385.478125 
L 406.042661 39.611458 
L 401.274191 39.611458 
z
" clip-path="url(#p4312770f2a)" style="fill: #1f77b4; fill-opacity: 0.5; stroke: #000000; stroke-width: 0.425683; stroke-linejoin: miter"/>
   </g>
   <g id="patch_65">
    <path d="M 406.042661 385.478125 
L 410.81113 385.478125 
L 410.81113 385.118596 
L 406.042661 385.118596 
z
" clip-path="url(#p4312770f2a)" style="fill: #1f77b4; fill-opacity: 0.5; stroke: #000000; stroke-width: 0.425683; stroke-linejoin: miter"/>
   </g>
   <g id="patch_66">
    <path d="M 410.81113 385.478125 
L 415.5796 385.478125 
L 415.5796 51.475907 
L 410.81113 51.475907 
z
" clip-path="url(#p4312770f2a)" style="fill: #1f77b4; fill-opacity: 0.5; stroke: #000000; stroke-width: 0.425683; stroke-linejoin: miter"/>
   </g>
   <g id="patch_67">
    <path d="M 415.5796 385.478125 
L 420.34807 385.478125 
L 420.34807 384.938832 
L 415.5796 384.938832 
z
" clip-path="url(#p4312770f2a)" style="fill: #1f77b4; fill-opacity: 0.5; stroke: #000000; stroke-width: 0.425683; stroke-linejoin: miter"/>
   </g>
   <g id="patch_68">
    <path d="M 420.34807 385.478125 
L 425.11654 385.478125 
L 425.11654 384.938832 
L 420.34807 384.938832 
z
" clip-path="url(#p4312770f2a)" style="fill: #1f77b4; fill-opacity: 0.5; stroke: #000000; stroke-width: 0.425683; stroke-linejoin: miter"/>
   </g>
   <g id="patch_69">
    <path d="M 425.11654 385.478125 
L 429.88501 385.478125 
L 429.88501 101.989698 
L 425.11654 101.989698 
z
" clip-path="url(#p4312770f2a)" style="fill: #1f77b4; fill-opacity: 0.5; stroke: #000000; stroke-width: 0.425683; stroke-linejoin: miter"/>
   </g>
   <g id="patch_70">
    <path d="M 429.88501 385.478125 
L 434.65348 385.478125 
L 434.65348 385.478125 
L 429.88501 385.478125 
z
" clip-path="url(#p4312770f2a)" style="fill: #1f77b4; fill-opacity: 0.5; stroke: #000000; stroke-width: 0.425683; stroke-linejoin: miter"/>
   </g>
   <g id="patch_71">
    <path d="M 434.65348 385.478125 
L 439.42195 385.478125 
L 439.42195 172.816864 
L 434.65348 172.816864 
z
" clip-path="url(#p4312770f2a)" style="fill: #1f77b4; fill-opacity: 0.5; stroke: #000000; stroke-width: 0.425683; stroke-linejoin: miter"/>
   </g>
   <g id="patch_72">
    <path d="M 439.42195 385.478125 
L 444.19042 385.478125 
L 444.19042 385.478125 
L 439.42195 385.478125 
z
" clip-path="url(#p4312770f2a)" style="fill: #1f77b4; fill-opacity: 0.5; stroke: #000000; stroke-width: 0.425683; stroke-linejoin: miter"/>
   </g>
   <g id="patch_73">
    <path d="M 444.19042 385.478125 
L 448.95889 385.478125 
L 448.95889 385.478125 
L 444.19042 385.478125 
z
" clip-path="url(#p4312770f2a)" style="fill: #1f77b4; fill-opacity: 0.5; stroke: #000000; stroke-width: 0.425683; stroke-linejoin: miter"/>
   </g>
   <g id="patch_74">
    <path d="M 448.95889 385.478125 
L 453.72736 385.478125 
L 453.72736 233.39746 
L 448.95889 233.39746 
z
" clip-path="url(#p4312770f2a)" style="fill: #1f77b4; fill-opacity: 0.5; stroke: #000000; stroke-width: 0.425683; stroke-linejoin: miter"/>
   </g>
   <g id="patch_75">
    <path d="M 453.72736 385.478125 
L 458.49583 385.478125 
L 458.49583 385.298361 
L 453.72736 385.298361 
z
" clip-path="url(#p4312770f2a)" style="fill: #1f77b4; fill-opacity: 0.5; stroke: #000000; stroke-width: 0.425683; stroke-linejoin: miter"/>
   </g>
   <g id="patch_76">
    <path d="M 458.49583 385.478125 
L 463.2643 385.478125 
L 463.2643 385.478125 
L 458.49583 385.478125 
z
" clip-path="url(#p4312770f2a)" style="fill: #1f77b4; fill-opacity: 0.5; stroke: #000000; stroke-width: 0.425683; stroke-linejoin: miter"/>
   </g>
   <g id="patch_77">
    <path d="M 463.2643 385.478125 
L 468.03277 385.478125 
L 468.03277 296.854286 
L 463.2643 296.854286 
z
" clip-path="url(#p4312770f2a)" style="fill: #1f77b4; fill-opacity: 0.5; stroke: #000000; stroke-width: 0.425683; stroke-linejoin: miter"/>
   </g>
   <g id="patch_78">
    <path d="M 468.03277 385.478125 
L 472.80124 385.478125 
L 472.80124 385.478125 
L 468.03277 385.478125 
z
" clip-path="url(#p4312770f2a)" style="fill: #1f77b4; fill-opacity: 0.5; stroke: #000000; stroke-width: 0.425683; stroke-linejoin: miter"/>
   </g>
   <g id="patch_79">
    <path d="M 472.80124 385.478125 
L 477.56971 385.478125 
L 477.56971 339.638208 
L 472.80124 339.638208 
z
" clip-path="url(#p4312770f2a)" style="fill: #1f77b4; fill-opacity: 0.5; stroke: #000000; stroke-width: 0.425683; stroke-linejoin: miter"/>
   </g>
   <g id="patch_80">
    <path d="M 477.56971 385.478125 
L 482.33818 385.478125 
L 482.33818 385.478125 
L 477.56971 385.478125 
z
" clip-path="url(#p4312770f2a)" style="fill: #1f77b4; fill-opacity: 0.5; stroke: #000000; stroke-width: 0.425683; stroke-linejoin: miter"/>
   </g>
   <g id="patch_81">
    <path d="M 482.33818 385.478125 
L 487.10665 385.478125 
L 487.10665 385.118596 
L 482.33818 385.118596 
z
" clip-path="url(#p4312770f2a)" style="fill: #1f77b4; fill-opacity: 0.5; stroke: #000000; stroke-width: 0.425683; stroke-linejoin: miter"/>
   </g>
   <g id="patch_82">
    <path d="M 487.10665 385.478125 
L 491.87512 385.478125 
L 491.87512 364.805221 
L 487.10665 364.805221 
z
" clip-path="url(#p4312770f2a)" style="fill: #1f77b4; fill-opacity: 0.5; stroke: #000000; stroke-width: 0.425683; stroke-linejoin: miter"/>
   </g>
   <g id="patch_83">
    <path d="M 491.87512 385.478125 
L 496.643589 385.478125 
L 496.643589 385.478125 
L 491.87512 385.478125 
z
" clip-path="url(#p4312770f2a)" style="fill: #1f77b4; fill-opacity: 0.5; stroke: #000000; stroke-width: 0.425683; stroke-linejoin: miter"/>
   </g>
   <g id="patch_84">
    <path d="M 496.643589 385.478125 
L 501.412059 385.478125 
L 501.412059 374.872027 
L 496.643589 374.872027 
z
" clip-path="url(#p4312770f2a)" style="fill: #1f77b4; fill-opacity: 0.5; stroke: #000000; stroke-width: 0.425683; stroke-linejoin: miter"/>
   </g>
   <g id="patch_85">
    <path d="M 501.412059 385.478125 
L 506.180529 385.478125 
L 506.180529 385.478125 
L 501.412059 385.478125 
z
" clip-path="url(#p4312770f2a)" style="fill: #1f77b4; fill-opacity: 0.5; stroke: #000000; stroke-width: 0.425683; stroke-linejoin: miter"/>
   </g>
   <g id="patch_86">
    <path d="M 506.180529 385.478125 
L 510.948999 385.478125 
L 510.948999 385.478125 
L 506.180529 385.478125 
z
" clip-path="url(#p4312770f2a)" style="fill: #1f77b4; fill-opacity: 0.5; stroke: #000000; stroke-width: 0.425683; stroke-linejoin: miter"/>
   </g>
   <g id="patch_87">
    <path d="M 510.948999 385.478125 
L 515.717469 385.478125 
L 515.717469 381.882837 
L 510.948999 381.882837 
z
" clip-path="url(#p4312770f2a)" style="fill: #1f77b4; fill-opacity: 0.5; stroke: #000000; stroke-width: 0.425683; stroke-linejoin: miter"/>
   </g>
   <g id="patch_88">
    <path d="M 515.717469 385.478125 
L 520.485939 385.478125 
L 520.485939 385.478125 
L 515.717469 385.478125 
z
" clip-path="url(#p4312770f2a)" style="fill: #1f77b4; fill-opacity: 0.5; stroke: #000000; stroke-width: 0.425683; stroke-linejoin: miter"/>
   </g>
   <g id="patch_89">
    <path d="M 520.485939 385.478125 
L 525.254409 385.478125 
L 525.254409 384.219774 
L 520.485939 384.219774 
z
" clip-path="url(#p4312770f2a)" style="fill: #1f77b4; fill-opacity: 0.5; stroke: #000000; stroke-width: 0.425683; stroke-linejoin: miter"/>
   </g>
   <g id="patch_90">
    <path d="M 525.254409 385.478125 
L 530.022879 385.478125 
L 530.022879 385.478125 
L 525.254409 385.478125 
z
" clip-path="url(#p4312770f2a)" style="fill: #1f77b4; fill-opacity: 0.5; stroke: #000000; stroke-width: 0.425683; stroke-linejoin: miter"/>
   </g>
   <g id="patch_91">
    <path d="M 530.022879 385.478125 
L 534.791349 385.478125 
L 534.791349 385.478125 
L 530.022879 385.478125 
z
" clip-path="url(#p4312770f2a)" style="fill: #1f77b4; fill-opacity: 0.5; stroke: #000000; stroke-width: 0.425683; stroke-linejoin: miter"/>
   </g>
   <g id="patch_92">
    <path d="M 534.791349 385.478125 
L 539.559819 385.478125 
L 539.559819 383.500717 
L 534.791349 383.500717 
z
" clip-path="url(#p4312770f2a)" style="fill: #1f77b4; fill-opacity: 0.5; stroke: #000000; stroke-width: 0.425683; stroke-linejoin: miter"/>
   </g>
   <g id="patch_93">
    <path d="M 539.559819 385.478125 
L 544.328289 385.478125 
L 544.328289 385.478125 
L 539.559819 385.478125 
z
" clip-path="url(#p4312770f2a)" style="fill: #1f77b4; fill-opacity: 0.5; stroke: #000000; stroke-width: 0.425683; stroke-linejoin: miter"/>
   </g>
   <g id="patch_94">
    <path d="M 544.328289 385.478125 
L 549.096759 385.478125 
L 549.096759 384.938832 
L 544.328289 384.938832 
z
" clip-path="url(#p4312770f2a)" style="fill: #1f77b4; fill-opacity: 0.5; stroke: #000000; stroke-width: 0.425683; stroke-linejoin: miter"/>
   </g>
   <g id="patch_95">
    <path d="M 549.096759 385.478125 
L 553.865229 385.478125 
L 553.865229 385.478125 
L 549.096759 385.478125 
z
" clip-path="url(#p4312770f2a)" style="fill: #1f77b4; fill-opacity: 0.5; stroke: #000000; stroke-width: 0.425683; stroke-linejoin: miter"/>
   </g>
   <g id="patch_96">
    <path d="M 553.865229 385.478125 
L 558.633699 385.478125 
L 558.633699 385.478125 
L 553.865229 385.478125 
z
" clip-path="url(#p4312770f2a)" style="fill: #1f77b4; fill-opacity: 0.5; stroke: #000000; stroke-width: 0.425683; stroke-linejoin: miter"/>
   </g>
   <g id="patch_97">
    <path d="M 558.633699 385.478125 
L 563.402169 385.478125 
L 563.402169 385.118596 
L 558.633699 385.118596 
z
" clip-path="url(#p4312770f2a)" style="fill: #1f77b4; fill-opacity: 0.5; stroke: #000000; stroke-width: 0.425683; stroke-linejoin: miter"/>
   </g>
   <g id="patch_98">
    <path d="M 563.402169 385.478125 
L 568.170639 385.478125 
L 568.170639 385.478125 
L 563.402169 385.478125 
z
" clip-path="url(#p4312770f2a)" style="fill: #1f77b4; fill-opacity: 0.5; stroke: #000000; stroke-width: 0.425683; stroke-linejoin: miter"/>
   </g>
   <g id="patch_99">
    <path d="M 568.170639 385.478125 
L 572.939109 385.478125 
L 572.939109 385.478125 
L 568.170639 385.478125 
z
" clip-path="url(#p4312770f2a)" style="fill: #1f77b4; fill-opacity: 0.5; stroke: #000000; stroke-width: 0.425683; stroke-linejoin: miter"/>
   </g>
   <g id="patch_100">
    <path d="M 572.939109 385.478125 
L 577.707579 385.478125 
L 577.707579 384.759067 
L 572.939109 384.759067 
z
" clip-path="url(#p4312770f2a)" style="fill: #1f77b4; fill-opacity: 0.5; stroke: #000000; stroke-width: 0.425683; stroke-linejoin: miter"/>
   </g>
   <g id="patch_101">
    <path d="M 577.707579 385.478125 
L 582.476049 385.478125 
L 582.476049 385.478125 
L 577.707579 385.478125 
z
" clip-path="url(#p4312770f2a)" style="fill: #1f77b4; fill-opacity: 0.5; stroke: #000000; stroke-width: 0.425683; stroke-linejoin: miter"/>
   </g>
   <g id="patch_102">
    <path d="M 582.476049 385.478125 
L 587.244518 385.478125 
L 587.244518 385.118596 
L 582.476049 385.118596 
z
" clip-path="url(#p4312770f2a)" style="fill: #1f77b4; fill-opacity: 0.5; stroke: #000000; stroke-width: 0.425683; stroke-linejoin: miter"/>
   </g>
   <g id="patch_103">
    <path d="M 587.244518 385.478125 
L 592.012988 385.478125 
L 592.012988 385.478125 
L 587.244518 385.478125 
z
" clip-path="url(#p4312770f2a)" style="fill: #1f77b4; fill-opacity: 0.5; stroke: #000000; stroke-width: 0.425683; stroke-linejoin: miter"/>
   </g>
   <g id="patch_104">
    <path d="M 592.012988 385.478125 
L 596.781458 385.478125 
L 596.781458 385.478125 
L 592.012988 385.478125 
z
" clip-path="url(#p4312770f2a)" style="fill: #1f77b4; fill-opacity: 0.5; stroke: #000000; stroke-width: 0.425683; stroke-linejoin: miter"/>
   </g>
   <g id="patch_105">
    <path d="M 596.781458 385.478125 
L 601.549928 385.478125 
L 601.549928 385.118596 
L 596.781458 385.118596 
z
" clip-path="url(#p4312770f2a)" style="fill: #1f77b4; fill-opacity: 0.5; stroke: #000000; stroke-width: 0.425683; stroke-linejoin: miter"/>
   </g>
   <g id="patch_106">
    <path d="M 601.549928 385.478125 
L 606.318398 385.478125 
L 606.318398 385.478125 
L 601.549928 385.478125 
z
" clip-path="url(#p4312770f2a)" style="fill: #1f77b4; fill-opacity: 0.5; stroke: #000000; stroke-width: 0.425683; stroke-linejoin: miter"/>
   </g>
   <g id="patch_107">
    <path d="M 606.318398 385.478125 
L 611.086868 385.478125 
L 611.086868 385.478125 
L 606.318398 385.478125 
z
" clip-path="url(#p4312770f2a)" style="fill: #1f77b4; fill-opacity: 0.5; stroke: #000000; stroke-width: 0.425683; stroke-linejoin: miter"/>
   </g>
   <g id="patch_108">
    <path d="M 611.086868 385.478125 
L 615.855338 385.478125 
L 615.855338 385.478125 
L 611.086868 385.478125 
z
" clip-path="url(#p4312770f2a)" style="fill: #1f77b4; fill-opacity: 0.5; stroke: #000000; stroke-width: 0.425683; stroke-linejoin: miter"/>
   </g>
   <g id="patch_109">
    <path d="M 615.855338 385.478125 
L 620.623808 385.478125 
L 620.623808 385.478125 
L 615.855338 385.478125 
z
" clip-path="url(#p4312770f2a)" style="fill: #1f77b4; fill-opacity: 0.5; stroke: #000000; stroke-width: 0.425683; stroke-linejoin: miter"/>
   </g>
   <g id="patch_110">
    <path d="M 620.623808 385.478125 
L 625.392278 385.478125 
L 625.392278 385.478125 
L 620.623808 385.478125 
z
" clip-path="url(#p4312770f2a)" style="fill: #1f77b4; fill-opacity: 0.5; stroke: #000000; stroke-width: 0.425683; stroke-linejoin: miter"/>
   </g>
   <g id="patch_111">
    <path d="M 625.392278 385.478125 
L 630.160748 385.478125 
L 630.160748 385.478125 
L 625.392278 385.478125 
z
" clip-path="url(#p4312770f2a)" style="fill: #1f77b4; fill-opacity: 0.5; stroke: #000000; stroke-width: 0.425683; stroke-linejoin: miter"/>
   </g>
   <g id="patch_112">
    <path d="M 630.160748 385.478125 
L 634.929218 385.478125 
L 634.929218 385.478125 
L 630.160748 385.478125 
z
" clip-path="url(#p4312770f2a)" style="fill: #1f77b4; fill-opacity: 0.5; stroke: #000000; stroke-width: 0.425683; stroke-linejoin: miter"/>
   </g>
   <g id="patch_113">
    <path d="M 634.929218 385.478125 
L 639.697688 385.478125 
L 639.697688 385.478125 
L 634.929218 385.478125 
z
" clip-path="url(#p4312770f2a)" style="fill: #1f77b4; fill-opacity: 0.5; stroke: #000000; stroke-width: 0.425683; stroke-linejoin: miter"/>
   </g>
   <g id="patch_114">
    <path d="M 639.697688 385.478125 
L 644.466158 385.478125 
L 644.466158 385.478125 
L 639.697688 385.478125 
z
" clip-path="url(#p4312770f2a)" style="fill: #1f77b4; fill-opacity: 0.5; stroke: #000000; stroke-width: 0.425683; stroke-linejoin: miter"/>
   </g>
   <g id="patch_115">
    <path d="M 644.466158 385.478125 
L 649.234628 385.478125 
L 649.234628 385.298361 
L 644.466158 385.298361 
z
" clip-path="url(#p4312770f2a)" style="fill: #1f77b4; fill-opacity: 0.5; stroke: #000000; stroke-width: 0.425683; stroke-linejoin: miter"/>
   </g>
   <g id="patch_116">
    <path d="M 649.234628 385.478125 
L 654.003098 385.478125 
L 654.003098 385.478125 
L 649.234628 385.478125 
z
" clip-path="url(#p4312770f2a)" style="fill: #1f77b4; fill-opacity: 0.5; stroke: #000000; stroke-width: 0.425683; stroke-linejoin: miter"/>
   </g>
   <g id="patch_117">
    <path d="M 654.003098 385.478125 
L 658.771568 385.478125 
L 658.771568 385.118596 
L 654.003098 385.118596 
z
" clip-path="url(#p4312770f2a)" style="fill: #1f77b4; fill-opacity: 0.5; stroke: #000000; stroke-width: 0.425683; stroke-linejoin: miter"/>
   </g>
   <g id="patch_118">
    <path d="M 658.771568 385.478125 
L 663.540038 385.478125 
L 663.540038 385.478125 
L 658.771568 385.478125 
z
" clip-path="url(#p4312770f2a)" style="fill: #1f77b4; fill-opacity: 0.5; stroke: #000000; stroke-width: 0.425683; stroke-linejoin: miter"/>
   </g>
   <g id="patch_119">
    <path d="M 663.540038 385.478125 
L 668.308508 385.478125 
L 668.308508 385.478125 
L 663.540038 385.478125 
z
" clip-path="url(#p4312770f2a)" style="fill: #1f77b4; fill-opacity: 0.5; stroke: #000000; stroke-width: 0.425683; stroke-linejoin: miter"/>
   </g>
   <g id="patch_120">
    <path d="M 668.308508 385.478125 
L 673.076978 385.478125 
L 673.076978 385.298361 
L 668.308508 385.298361 
z
" clip-path="url(#p4312770f2a)" style="fill: #1f77b4; fill-opacity: 0.5; stroke: #000000; stroke-width: 0.425683; stroke-linejoin: miter"/>
   </g>
   <g id="patch_121">
    <path d="M 673.076978 385.478125 
L 677.845447 385.478125 
L 677.845447 385.478125 
L 673.076978 385.478125 
z
" clip-path="url(#p4312770f2a)" style="fill: #1f77b4; fill-opacity: 0.5; stroke: #000000; stroke-width: 0.425683; stroke-linejoin: miter"/>
   </g>
   <g id="patch_122">
    <path d="M 677.845447 385.478125 
L 682.613917 385.478125 
L 682.613917 385.478125 
L 677.845447 385.478125 
z
" clip-path="url(#p4312770f2a)" style="fill: #1f77b4; fill-opacity: 0.5; stroke: #000000; stroke-width: 0.425683; stroke-linejoin: miter"/>
   </g>
   <g id="patch_123">
    <path d="M 682.613917 385.478125 
L 687.382387 385.478125 
L 687.382387 385.478125 
L 682.613917 385.478125 
z
" clip-path="url(#p4312770f2a)" style="fill: #1f77b4; fill-opacity: 0.5; stroke: #000000; stroke-width: 0.425683; stroke-linejoin: miter"/>
   </g>
   <g id="patch_124">
    <path d="M 687.382387 385.478125 
L 692.150857 385.478125 
L 692.150857 385.478125 
L 687.382387 385.478125 
z
" clip-path="url(#p4312770f2a)" style="fill: #1f77b4; fill-opacity: 0.5; stroke: #000000; stroke-width: 0.425683; stroke-linejoin: miter"/>
   </g>
   <g id="patch_125">
    <path d="M 692.150857 385.478125 
L 696.919327 385.478125 
L 696.919327 385.478125 
L 692.150857 385.478125 
z
" clip-path="url(#p4312770f2a)" style="fill: #1f77b4; fill-opacity: 0.5; stroke: #000000; stroke-width: 0.425683; stroke-linejoin: miter"/>
   </g>
   <g id="patch_126">
    <path d="M 696.919327 385.478125 
L 701.687797 385.478125 
L 701.687797 385.478125 
L 696.919327 385.478125 
z
" clip-path="url(#p4312770f2a)" style="fill: #1f77b4; fill-opacity: 0.5; stroke: #000000; stroke-width: 0.425683; stroke-linejoin: miter"/>
   </g>
   <g id="patch_127">
    <path d="M 701.687797 385.478125 
L 706.456267 385.478125 
L 706.456267 385.478125 
L 701.687797 385.478125 
z
" clip-path="url(#p4312770f2a)" style="fill: #1f77b4; fill-opacity: 0.5; stroke: #000000; stroke-width: 0.425683; stroke-linejoin: miter"/>
   </g>
   <g id="patch_128">
    <path d="M 706.456267 385.478125 
L 711.224737 385.478125 
L 711.224737 385.478125 
L 706.456267 385.478125 
z
" clip-path="url(#p4312770f2a)" style="fill: #1f77b4; fill-opacity: 0.5; stroke: #000000; stroke-width: 0.425683; stroke-linejoin: miter"/>
   </g>
   <g id="patch_129">
    <path d="M 711.224737 385.478125 
L 715.993207 385.478125 
L 715.993207 385.478125 
L 711.224737 385.478125 
z
" clip-path="url(#p4312770f2a)" style="fill: #1f77b4; fill-opacity: 0.5; stroke: #000000; stroke-width: 0.425683; stroke-linejoin: miter"/>
   </g>
   <g id="patch_130">
    <path d="M 715.993207 385.478125 
L 720.761677 385.478125 
L 720.761677 385.478125 
L 715.993207 385.478125 
z
" clip-path="url(#p4312770f2a)" style="fill: #1f77b4; fill-opacity: 0.5; stroke: #000000; stroke-width: 0.425683; stroke-linejoin: miter"/>
   </g>
   <g id="patch_131">
    <path d="M 720.761677 385.478125 
L 725.530147 385.478125 
L 725.530147 385.478125 
L 720.761677 385.478125 
z
" clip-path="url(#p4312770f2a)" style="fill: #1f77b4; fill-opacity: 0.5; stroke: #000000; stroke-width: 0.425683; stroke-linejoin: miter"/>
   </g>
   <g id="patch_132">
    <path d="M 725.530147 385.478125 
L 730.298617 385.478125 
L 730.298617 385.478125 
L 725.530147 385.478125 
z
" clip-path="url(#p4312770f2a)" style="fill: #1f77b4; fill-opacity: 0.5; stroke: #000000; stroke-width: 0.425683; stroke-linejoin: miter"/>
   </g>
   <g id="patch_133">
    <path d="M 730.298617 385.478125 
L 735.067087 385.478125 
L 735.067087 385.478125 
L 730.298617 385.478125 
z
" clip-path="url(#p4312770f2a)" style="fill: #1f77b4; fill-opacity: 0.5; stroke: #000000; stroke-width: 0.425683; stroke-linejoin: miter"/>
   </g>
   <g id="patch_134">
    <path d="M 735.067087 385.478125 
L 739.835557 385.478125 
L 739.835557 385.478125 
L 735.067087 385.478125 
z
" clip-path="url(#p4312770f2a)" style="fill: #1f77b4; fill-opacity: 0.5; stroke: #000000; stroke-width: 0.425683; stroke-linejoin: miter"/>
   </g>
   <g id="patch_135">
    <path d="M 739.835557 385.478125 
L 744.604027 385.478125 
L 744.604027 385.478125 
L 739.835557 385.478125 
z
" clip-path="url(#p4312770f2a)" style="fill: #1f77b4; fill-opacity: 0.5; stroke: #000000; stroke-width: 0.425683; stroke-linejoin: miter"/>
   </g>
   <g id="patch_136">
    <path d="M 744.604027 385.478125 
L 749.372497 385.478125 
L 749.372497 385.478125 
L 744.604027 385.478125 
z
" clip-path="url(#p4312770f2a)" style="fill: #1f77b4; fill-opacity: 0.5; stroke: #000000; stroke-width: 0.425683; stroke-linejoin: miter"/>
   </g>
   <g id="patch_137">
    <path d="M 749.372497 385.478125 
L 754.140967 385.478125 
L 754.140967 385.478125 
L 749.372497 385.478125 
z
" clip-path="url(#p4312770f2a)" style="fill: #1f77b4; fill-opacity: 0.5; stroke: #000000; stroke-width: 0.425683; stroke-linejoin: miter"/>
   </g>
   <g id="patch_138">
    <path d="M 754.140967 385.478125 
L 758.909437 385.478125 
L 758.909437 385.478125 
L 754.140967 385.478125 
z
" clip-path="url(#p4312770f2a)" style="fill: #1f77b4; fill-opacity: 0.5; stroke: #000000; stroke-width: 0.425683; stroke-linejoin: miter"/>
   </g>
   <g id="patch_139">
    <path d="M 758.909437 385.478125 
L 763.677907 385.478125 
L 763.677907 385.478125 
L 758.909437 385.478125 
z
" clip-path="url(#p4312770f2a)" style="fill: #1f77b4; fill-opacity: 0.5; stroke: #000000; stroke-width: 0.425683; stroke-linejoin: miter"/>
   </g>
   <g id="patch_140">
    <path d="M 763.677907 385.478125 
L 768.446376 385.478125 
L 768.446376 385.478125 
L 763.677907 385.478125 
z
" clip-path="url(#p4312770f2a)" style="fill: #1f77b4; fill-opacity: 0.5; stroke: #000000; stroke-width: 0.425683; stroke-linejoin: miter"/>
   </g>
   <g id="patch_141">
    <path d="M 768.446376 385.478125 
L 773.214846 385.478125 
L 773.214846 385.478125 
L 768.446376 385.478125 
z
" clip-path="url(#p4312770f2a)" style="fill: #1f77b4; fill-opacity: 0.5; stroke: #000000; stroke-width: 0.425683; stroke-linejoin: miter"/>
   </g>
   <g id="patch_142">
    <path d="M 773.214846 385.478125 
L 777.983316 385.478125 
L 777.983316 385.478125 
L 773.214846 385.478125 
z
" clip-path="url(#p4312770f2a)" style="fill: #1f77b4; fill-opacity: 0.5; stroke: #000000; stroke-width: 0.425683; stroke-linejoin: miter"/>
   </g>
   <g id="patch_143">
    <path d="M 777.983316 385.478125 
L 782.751786 385.478125 
L 782.751786 385.478125 
L 777.983316 385.478125 
z
" clip-path="url(#p4312770f2a)" style="fill: #1f77b4; fill-opacity: 0.5; stroke: #000000; stroke-width: 0.425683; stroke-linejoin: miter"/>
   </g>
   <g id="patch_144">
    <path d="M 782.751786 385.478125 
L 787.520256 385.478125 
L 787.520256 385.478125 
L 782.751786 385.478125 
z
" clip-path="url(#p4312770f2a)" style="fill: #1f77b4; fill-opacity: 0.5; stroke: #000000; stroke-width: 0.425683; stroke-linejoin: miter"/>
   </g>
   <g id="patch_145">
    <path d="M 787.520256 385.478125 
L 792.288726 385.478125 
L 792.288726 385.298361 
L 787.520256 385.298361 
z
" clip-path="url(#p4312770f2a)" style="fill: #1f77b4; fill-opacity: 0.5; stroke: #000000; stroke-width: 0.425683; stroke-linejoin: miter"/>
   </g>
   <g id="matplotlib.axis_1">
    <g id="xtick_1">
     <g id="line2d_1">
      <defs>
       <path id="m57128f24f8" d="M 0 0 
L 0 3.5 
" style="stroke: #000000; stroke-width: 0.8"/>
      </defs>
      <g>
       <use xlink:href="#m57128f24f8" x="73.867638" y="385.478125" style="stroke: #000000; stroke-width: 0.8"/>
      </g>
     </g>
     <g id="text_1">
      <!-- 0 -->
      <g transform="translate(70.686388 400.076562) scale(0.1 -0.1)">
       <defs>
        <path id="DejaVuSans-30" d="M 2034 4250 
Q 1547 4250 1301 3770 
Q 1056 3291 1056 2328 
Q 1056 1369 1301 889 
Q 1547 409 2034 409 
Q 2525 409 2770 889 
Q 3016 1369 3016 2328 
Q 3016 3291 2770 3770 
Q 2525 4250 2034 4250 
z
M 2034 4750 
Q 2819 4750 3233 4129 
Q 3647 3509 3647 2328 
Q 3647 1150 3233 529 
Q 2819 -91 2034 -91 
Q 1250 -91 836 529 
Q 422 1150 422 2328 
Q 422 3509 836 4129 
Q 1250 4750 2034 4750 
z
" transform="scale(0.015625)"/>
       </defs>
       <use xlink:href="#DejaVuSans-30"/>
      </g>
     </g>
    </g>
    <g id="xtick_2">
     <g id="line2d_2">
      <g>
       <use xlink:href="#m57128f24f8" x="195.633924" y="385.478125" style="stroke: #000000; stroke-width: 0.8"/>
      </g>
     </g>
     <g id="text_2">
      <!-- 10 -->
      <g transform="translate(189.271424 400.076562) scale(0.1 -0.1)">
       <defs>
        <path id="DejaVuSans-31" d="M 794 531 
L 1825 531 
L 1825 4091 
L 703 3866 
L 703 4441 
L 1819 4666 
L 2450 4666 
L 2450 531 
L 3481 531 
L 3481 0 
L 794 0 
L 794 531 
z
" transform="scale(0.015625)"/>
       </defs>
       <use xlink:href="#DejaVuSans-31"/>
       <use xlink:href="#DejaVuSans-30" x="63.623047"/>
      </g>
     </g>
    </g>
    <g id="xtick_3">
     <g id="line2d_3">
      <g>
       <use xlink:href="#m57128f24f8" x="317.40021" y="385.478125" style="stroke: #000000; stroke-width: 0.8"/>
      </g>
     </g>
     <g id="text_3">
      <!-- 20 -->
      <g transform="translate(311.03771 400.076562) scale(0.1 -0.1)">
       <defs>
        <path id="DejaVuSans-32" d="M 1228 531 
L 3431 531 
L 3431 0 
L 469 0 
L 469 531 
Q 828 903 1448 1529 
Q 2069 2156 2228 2338 
Q 2531 2678 2651 2914 
Q 2772 3150 2772 3378 
Q 2772 3750 2511 3984 
Q 2250 4219 1831 4219 
Q 1534 4219 1204 4116 
Q 875 4013 500 3803 
L 500 4441 
Q 881 4594 1212 4672 
Q 1544 4750 1819 4750 
Q 2544 4750 2975 4387 
Q 3406 4025 3406 3419 
Q 3406 3131 3298 2873 
Q 3191 2616 2906 2266 
Q 2828 2175 2409 1742 
Q 1991 1309 1228 531 
z
" transform="scale(0.015625)"/>
       </defs>
       <use xlink:href="#DejaVuSans-32"/>
       <use xlink:href="#DejaVuSans-30" x="63.623047"/>
      </g>
     </g>
    </g>
    <g id="xtick_4">
     <g id="line2d_4">
      <g>
       <use xlink:href="#m57128f24f8" x="439.166496" y="385.478125" style="stroke: #000000; stroke-width: 0.8"/>
      </g>
     </g>
     <g id="text_4">
      <!-- 30 -->
      <g transform="translate(432.803996 400.076562) scale(0.1 -0.1)">
       <defs>
        <path id="DejaVuSans-33" d="M 2597 2516 
Q 3050 2419 3304 2112 
Q 3559 1806 3559 1356 
Q 3559 666 3084 287 
Q 2609 -91 1734 -91 
Q 1441 -91 1130 -33 
Q 819 25 488 141 
L 488 750 
Q 750 597 1062 519 
Q 1375 441 1716 441 
Q 2309 441 2620 675 
Q 2931 909 2931 1356 
Q 2931 1769 2642 2001 
Q 2353 2234 1838 2234 
L 1294 2234 
L 1294 2753 
L 1863 2753 
Q 2328 2753 2575 2939 
Q 2822 3125 2822 3475 
Q 2822 3834 2567 4026 
Q 2313 4219 1838 4219 
Q 1578 4219 1281 4162 
Q 984 4106 628 3988 
L 628 4550 
Q 988 4650 1302 4700 
Q 1616 4750 1894 4750 
Q 2613 4750 3031 4423 
Q 3450 4097 3450 3541 
Q 3450 3153 3228 2886 
Q 3006 2619 2597 2516 
z
" transform="scale(0.015625)"/>
       </defs>
       <use xlink:href="#DejaVuSans-33"/>
       <use xlink:href="#DejaVuSans-30" x="63.623047"/>
      </g>
     </g>
    </g>
    <g id="xtick_5">
     <g id="line2d_5">
      <g>
       <use xlink:href="#m57128f24f8" x="560.932783" y="385.478125" style="stroke: #000000; stroke-width: 0.8"/>
      </g>
     </g>
     <g id="text_5">
      <!-- 40 -->
      <g transform="translate(554.570283 400.076562) scale(0.1 -0.1)">
       <defs>
        <path id="DejaVuSans-34" d="M 2419 4116 
L 825 1625 
L 2419 1625 
L 2419 4116 
z
M 2253 4666 
L 3047 4666 
L 3047 1625 
L 3713 1625 
L 3713 1100 
L 3047 1100 
L 3047 0 
L 2419 0 
L 2419 1100 
L 313 1100 
L 313 1709 
L 2253 4666 
z
" transform="scale(0.015625)"/>
       </defs>
       <use xlink:href="#DejaVuSans-34"/>
       <use xlink:href="#DejaVuSans-30" x="63.623047"/>
      </g>
     </g>
    </g>
    <g id="xtick_6">
     <g id="line2d_6">
      <g>
       <use xlink:href="#m57128f24f8" x="682.699069" y="385.478125" style="stroke: #000000; stroke-width: 0.8"/>
      </g>
     </g>
     <g id="text_6">
      <!-- 50 -->
      <g transform="translate(676.336569 400.076562) scale(0.1 -0.1)">
       <defs>
        <path id="DejaVuSans-35" d="M 691 4666 
L 3169 4666 
L 3169 4134 
L 1269 4134 
L 1269 2991 
Q 1406 3038 1543 3061 
Q 1681 3084 1819 3084 
Q 2600 3084 3056 2656 
Q 3513 2228 3513 1497 
Q 3513 744 3044 326 
Q 2575 -91 1722 -91 
Q 1428 -91 1123 -41 
Q 819 9 494 109 
L 494 744 
Q 775 591 1075 516 
Q 1375 441 1709 441 
Q 2250 441 2565 725 
Q 2881 1009 2881 1497 
Q 2881 1984 2565 2268 
Q 2250 2553 1709 2553 
Q 1456 2553 1204 2497 
Q 953 2441 691 2322 
L 691 4666 
z
" transform="scale(0.015625)"/>
       </defs>
       <use xlink:href="#DejaVuSans-35"/>
       <use xlink:href="#DejaVuSans-30" x="63.623047"/>
      </g>
     </g>
    </g>
    <g id="xtick_7">
     <g id="line2d_7">
      <g>
       <use xlink:href="#m57128f24f8" x="804.465355" y="385.478125" style="stroke: #000000; stroke-width: 0.8"/>
      </g>
     </g>
     <g id="text_7">
      <!-- 60 -->
      <g transform="translate(798.102855 400.076562) scale(0.1 -0.1)">
       <defs>
        <path id="DejaVuSans-36" d="M 2113 2584 
Q 1688 2584 1439 2293 
Q 1191 2003 1191 1497 
Q 1191 994 1439 701 
Q 1688 409 2113 409 
Q 2538 409 2786 701 
Q 3034 994 3034 1497 
Q 3034 2003 2786 2293 
Q 2538 2584 2113 2584 
z
M 3366 4563 
L 3366 3988 
Q 3128 4100 2886 4159 
Q 2644 4219 2406 4219 
Q 1781 4219 1451 3797 
Q 1122 3375 1075 2522 
Q 1259 2794 1537 2939 
Q 1816 3084 2150 3084 
Q 2853 3084 3261 2657 
Q 3669 2231 3669 1497 
Q 3669 778 3244 343 
Q 2819 -91 2113 -91 
Q 1303 -91 875 529 
Q 447 1150 447 2328 
Q 447 3434 972 4092 
Q 1497 4750 2381 4750 
Q 2619 4750 2861 4703 
Q 3103 4656 3366 4563 
z
" transform="scale(0.015625)"/>
       </defs>
       <use xlink:href="#DejaVuSans-36"/>
       <use xlink:href="#DejaVuSans-30" x="63.623047"/>
      </g>
     </g>
    </g>
    <g id="text_8">
     <!-- TCO2 -->
     <g transform="translate(437.974375 413.754687) scale(0.1 -0.1)">
      <defs>
       <path id="DejaVuSans-54" d="M -19 4666 
L 3928 4666 
L 3928 4134 
L 2272 4134 
L 2272 0 
L 1638 0 
L 1638 4134 
L -19 4134 
L -19 4666 
z
" transform="scale(0.015625)"/>
       <path id="DejaVuSans-43" d="M 4122 4306 
L 4122 3641 
Q 3803 3938 3442 4084 
Q 3081 4231 2675 4231 
Q 1875 4231 1450 3742 
Q 1025 3253 1025 2328 
Q 1025 1406 1450 917 
Q 1875 428 2675 428 
Q 3081 428 3442 575 
Q 3803 722 4122 1019 
L 4122 359 
Q 3791 134 3420 21 
Q 3050 -91 2638 -91 
Q 1578 -91 968 557 
Q 359 1206 359 2328 
Q 359 3453 968 4101 
Q 1578 4750 2638 4750 
Q 3056 4750 3426 4639 
Q 3797 4528 4122 4306 
z
" transform="scale(0.015625)"/>
       <path id="DejaVuSans-4f" d="M 2522 4238 
Q 1834 4238 1429 3725 
Q 1025 3213 1025 2328 
Q 1025 1447 1429 934 
Q 1834 422 2522 422 
Q 3209 422 3611 934 
Q 4013 1447 4013 2328 
Q 4013 3213 3611 3725 
Q 3209 4238 2522 4238 
z
M 2522 4750 
Q 3503 4750 4090 4092 
Q 4678 3434 4678 2328 
Q 4678 1225 4090 567 
Q 3503 -91 2522 -91 
Q 1538 -91 948 565 
Q 359 1222 359 2328 
Q 359 3434 948 4092 
Q 1538 4750 2522 4750 
z
" transform="scale(0.015625)"/>
      </defs>
      <use xlink:href="#DejaVuSans-54"/>
      <use xlink:href="#DejaVuSans-43" x="55.208984"/>
      <use xlink:href="#DejaVuSans-4f" x="125.033203"/>
      <use xlink:href="#DejaVuSans-32" x="203.744141"/>
     </g>
    </g>
   </g>
   <g id="matplotlib.axis_2">
    <g id="ytick_1">
     <g id="line2d_8">
      <defs>
       <path id="mb6f0145a39" d="M 0 0 
L -3.5 0 
" style="stroke: #000000; stroke-width: 0.8"/>
      </defs>
      <g>
       <use xlink:href="#mb6f0145a39" x="53.328125" y="385.478125" style="stroke: #000000; stroke-width: 0.8"/>
      </g>
     </g>
     <g id="text_9">
      <!-- 0 -->
      <g transform="translate(39.965625 389.277344) scale(0.1 -0.1)">
       <use xlink:href="#DejaVuSans-30"/>
      </g>
     </g>
    </g>
    <g id="ytick_2">
     <g id="line2d_9">
      <g>
       <use xlink:href="#mb6f0145a39" x="53.328125" y="340.53703" style="stroke: #000000; stroke-width: 0.8"/>
      </g>
     </g>
     <g id="text_10">
      <!-- 250 -->
      <g transform="translate(27.240625 344.336249) scale(0.1 -0.1)">
       <use xlink:href="#DejaVuSans-32"/>
       <use xlink:href="#DejaVuSans-35" x="63.623047"/>
       <use xlink:href="#DejaVuSans-30" x="127.246094"/>
      </g>
     </g>
    </g>
    <g id="ytick_3">
     <g id="line2d_10">
      <g>
       <use xlink:href="#mb6f0145a39" x="53.328125" y="295.595935" style="stroke: #000000; stroke-width: 0.8"/>
      </g>
     </g>
     <g id="text_11">
      <!-- 500 -->
      <g transform="translate(27.240625 299.395154) scale(0.1 -0.1)">
       <use xlink:href="#DejaVuSans-35"/>
       <use xlink:href="#DejaVuSans-30" x="63.623047"/>
       <use xlink:href="#DejaVuSans-30" x="127.246094"/>
      </g>
     </g>
    </g>
    <g id="ytick_4">
     <g id="line2d_11">
      <g>
       <use xlink:href="#mb6f0145a39" x="53.328125" y="250.65484" style="stroke: #000000; stroke-width: 0.8"/>
      </g>
     </g>
     <g id="text_12">
      <!-- 750 -->
      <g transform="translate(27.240625 254.454059) scale(0.1 -0.1)">
       <defs>
        <path id="DejaVuSans-37" d="M 525 4666 
L 3525 4666 
L 3525 4397 
L 1831 0 
L 1172 0 
L 2766 4134 
L 525 4134 
L 525 4666 
z
" transform="scale(0.015625)"/>
       </defs>
       <use xlink:href="#DejaVuSans-37"/>
       <use xlink:href="#DejaVuSans-35" x="63.623047"/>
       <use xlink:href="#DejaVuSans-30" x="127.246094"/>
      </g>
     </g>
    </g>
    <g id="ytick_5">
     <g id="line2d_12">
      <g>
       <use xlink:href="#mb6f0145a39" x="53.328125" y="205.713745" style="stroke: #000000; stroke-width: 0.8"/>
      </g>
     </g>
     <g id="text_13">
      <!-- 1000 -->
      <g transform="translate(20.878125 209.512964) scale(0.1 -0.1)">
       <use xlink:href="#DejaVuSans-31"/>
       <use xlink:href="#DejaVuSans-30" x="63.623047"/>
       <use xlink:href="#DejaVuSans-30" x="127.246094"/>
       <use xlink:href="#DejaVuSans-30" x="190.869141"/>
      </g>
     </g>
    </g>
    <g id="ytick_6">
     <g id="line2d_13">
      <g>
       <use xlink:href="#mb6f0145a39" x="53.328125" y="160.77265" style="stroke: #000000; stroke-width: 0.8"/>
      </g>
     </g>
     <g id="text_14">
      <!-- 1250 -->
      <g transform="translate(20.878125 164.571869) scale(0.1 -0.1)">
       <use xlink:href="#DejaVuSans-31"/>
       <use xlink:href="#DejaVuSans-32" x="63.623047"/>
       <use xlink:href="#DejaVuSans-35" x="127.246094"/>
       <use xlink:href="#DejaVuSans-30" x="190.869141"/>
      </g>
     </g>
    </g>
    <g id="ytick_7">
     <g id="line2d_14">
      <g>
       <use xlink:href="#mb6f0145a39" x="53.328125" y="115.831555" style="stroke: #000000; stroke-width: 0.8"/>
      </g>
     </g>
     <g id="text_15">
      <!-- 1500 -->
      <g transform="translate(20.878125 119.630774) scale(0.1 -0.1)">
       <use xlink:href="#DejaVuSans-31"/>
       <use xlink:href="#DejaVuSans-35" x="63.623047"/>
       <use xlink:href="#DejaVuSans-30" x="127.246094"/>
       <use xlink:href="#DejaVuSans-30" x="190.869141"/>
      </g>
     </g>
    </g>
    <g id="ytick_8">
     <g id="line2d_15">
      <g>
       <use xlink:href="#mb6f0145a39" x="53.328125" y="70.89046" style="stroke: #000000; stroke-width: 0.8"/>
      </g>
     </g>
     <g id="text_16">
      <!-- 1750 -->
      <g transform="translate(20.878125 74.689679) scale(0.1 -0.1)">
       <use xlink:href="#DejaVuSans-31"/>
       <use xlink:href="#DejaVuSans-37" x="63.623047"/>
       <use xlink:href="#DejaVuSans-35" x="127.246094"/>
       <use xlink:href="#DejaVuSans-30" x="190.869141"/>
      </g>
     </g>
    </g>
    <g id="ytick_9">
     <g id="line2d_16">
      <g>
       <use xlink:href="#mb6f0145a39" x="53.328125" y="25.949365" style="stroke: #000000; stroke-width: 0.8"/>
      </g>
     </g>
     <g id="text_17">
      <!-- 2000 -->
      <g transform="translate(20.878125 29.748584) scale(0.1 -0.1)">
       <use xlink:href="#DejaVuSans-32"/>
       <use xlink:href="#DejaVuSans-30" x="63.623047"/>
       <use xlink:href="#DejaVuSans-30" x="127.246094"/>
       <use xlink:href="#DejaVuSans-30" x="190.869141"/>
      </g>
     </g>
    </g>
    <g id="text_18">
     <!-- Count -->
     <g transform="translate(14.798438 218.746562) rotate(-90) scale(0.1 -0.1)">
      <defs>
       <path id="DejaVuSans-6f" d="M 1959 3097 
Q 1497 3097 1228 2736 
Q 959 2375 959 1747 
Q 959 1119 1226 758 
Q 1494 397 1959 397 
Q 2419 397 2687 759 
Q 2956 1122 2956 1747 
Q 2956 2369 2687 2733 
Q 2419 3097 1959 3097 
z
M 1959 3584 
Q 2709 3584 3137 3096 
Q 3566 2609 3566 1747 
Q 3566 888 3137 398 
Q 2709 -91 1959 -91 
Q 1206 -91 779 398 
Q 353 888 353 1747 
Q 353 2609 779 3096 
Q 1206 3584 1959 3584 
z
" transform="scale(0.015625)"/>
       <path id="DejaVuSans-75" d="M 544 1381 
L 544 3500 
L 1119 3500 
L 1119 1403 
Q 1119 906 1312 657 
Q 1506 409 1894 409 
Q 2359 409 2629 706 
Q 2900 1003 2900 1516 
L 2900 3500 
L 3475 3500 
L 3475 0 
L 2900 0 
L 2900 538 
Q 2691 219 2414 64 
Q 2138 -91 1772 -91 
Q 1169 -91 856 284 
Q 544 659 544 1381 
z
M 1991 3584 
L 1991 3584 
z
" transform="scale(0.015625)"/>
       <path id="DejaVuSans-6e" d="M 3513 2113 
L 3513 0 
L 2938 0 
L 2938 2094 
Q 2938 2591 2744 2837 
Q 2550 3084 2163 3084 
Q 1697 3084 1428 2787 
Q 1159 2491 1159 1978 
L 1159 0 
L 581 0 
L 581 3500 
L 1159 3500 
L 1159 2956 
Q 1366 3272 1645 3428 
Q 1925 3584 2291 3584 
Q 2894 3584 3203 3211 
Q 3513 2838 3513 2113 
z
" transform="scale(0.015625)"/>
       <path id="DejaVuSans-74" d="M 1172 4494 
L 1172 3500 
L 2356 3500 
L 2356 3053 
L 1172 3053 
L 1172 1153 
Q 1172 725 1289 603 
Q 1406 481 1766 481 
L 2356 481 
L 2356 0 
L 1766 0 
Q 1100 0 847 248 
Q 594 497 594 1153 
L 594 3053 
L 172 3053 
L 172 3500 
L 594 3500 
L 594 4494 
L 1172 4494 
z
" transform="scale(0.015625)"/>
      </defs>
      <use xlink:href="#DejaVuSans-43"/>
      <use xlink:href="#DejaVuSans-6f" x="69.824219"/>
      <use xlink:href="#DejaVuSans-75" x="131.005859"/>
      <use xlink:href="#DejaVuSans-6e" x="194.384766"/>
      <use xlink:href="#DejaVuSans-74" x="257.763672"/>
     </g>
    </g>
   </g>
   <g id="line2d_17">
    <path d="M 110.397524 385.418039 
L 137.810235 385.254643 
L 185.782481 384.878354 
L 199.488837 384.420429 
L 206.342015 384.256782 
L 213.195193 383.861289 
L 237.181315 381.744604 
L 244.034493 381.137766 
L 254.31426 380.896535 
L 257.740849 380.502428 
L 261.167438 379.82505 
L 268.020616 378.18184 
L 271.447205 377.651747 
L 278.300383 376.761832 
L 281.726972 376.152169 
L 285.153561 375.360914 
L 288.58015 374.280447 
L 292.006739 372.926464 
L 295.433327 371.317516 
L 298.859916 369.326585 
L 305.713094 364.758483 
L 309.139683 362.586431 
L 312.566272 360.214258 
L 319.41945 355.313396 
L 322.846039 352.814514 
L 329.699217 346.938432 
L 333.125806 343.939445 
L 336.552395 340.382833 
L 339.978984 336.19485 
L 343.405573 331.815372 
L 346.832162 327.009738 
L 353.68534 316.163594 
L 357.111929 311.591976 
L 360.538518 306.830119 
L 367.391696 295.681908 
L 370.818285 289.737652 
L 377.671462 276.029506 
L 381.098051 270.754415 
L 384.52464 265.970617 
L 387.951229 260.941935 
L 391.377818 257.197731 
L 398.230996 253.159271 
L 401.657585 251.36725 
L 405.084174 251.521677 
L 411.937352 254.390059 
L 415.363941 256.899494 
L 418.79053 261.713805 
L 425.643708 272.769736 
L 429.070297 279.427771 
L 432.496886 287.326159 
L 435.923475 294.79912 
L 439.350064 301.689711 
L 446.203242 316.124164 
L 453.056419 329.212994 
L 456.483008 336.337205 
L 459.909597 343.13582 
L 463.336186 349.083918 
L 466.762775 354.584835 
L 470.189364 359.705323 
L 473.615953 364.063675 
L 477.042542 367.717307 
L 480.469131 370.974902 
L 483.89572 373.79362 
L 487.322309 376.034271 
L 490.748898 377.806412 
L 494.175487 379.25189 
L 497.602076 380.409108 
L 504.455254 382.237356 
L 507.881843 383.017963 
L 511.308432 383.641327 
L 514.735021 384.105834 
L 521.588199 384.685995 
L 528.441377 384.846656 
L 538.721143 384.867834 
L 552.427499 385.260326 
L 562.707266 385.297902 
L 579.840211 385.276195 
L 617.532689 385.476572 
L 651.798579 385.378251 
L 668.931524 385.399115 
L 703.197413 385.478124 
L 792.288726 385.429005 
L 792.288726 385.429005 
" clip-path="url(#p4312770f2a)" style="fill: none; stroke: #1f77b4; stroke-width: 1.5; stroke-linecap: square"/>
   </g>
   <g id="line2d_18">
    <path d="M 89.511307 385.478125 
L 813.174943 385.478125 
L 813.174943 385.478125 
" clip-path="url(#p4312770f2a)" style="fill: none; stroke: #1f77b4; stroke-width: 1.5; stroke-linecap: square"/>
   </g>
   <g id="patch_146">
    <path d="M 53.328125 385.478125 
L 53.328125 22.318125 
" style="fill: none; stroke: #000000; stroke-width: 0.8; stroke-linejoin: miter; stroke-linecap: square"/>
   </g>
   <g id="patch_147">
    <path d="M 849.358125 385.478125 
L 849.358125 22.318125 
" style="fill: none; stroke: #000000; stroke-width: 0.8; stroke-linejoin: miter; stroke-linecap: square"/>
   </g>
   <g id="patch_148">
    <path d="M 53.328125 385.478125 
L 849.358125 385.478125 
" style="fill: none; stroke: #000000; stroke-width: 0.8; stroke-linejoin: miter; stroke-linecap: square"/>
   </g>
   <g id="patch_149">
    <path d="M 53.328125 22.318125 
L 849.358125 22.318125 
" style="fill: none; stroke: #000000; stroke-width: 0.8; stroke-linejoin: miter; stroke-linecap: square"/>
   </g>
   <g id="text_19">
    <!-- Distribution of TCO2 -->
    <g transform="translate(390.700938 16.318125) scale(0.12 -0.12)">
     <defs>
      <path id="DejaVuSans-44" d="M 1259 4147 
L 1259 519 
L 2022 519 
Q 2988 519 3436 956 
Q 3884 1394 3884 2338 
Q 3884 3275 3436 3711 
Q 2988 4147 2022 4147 
L 1259 4147 
z
M 628 4666 
L 1925 4666 
Q 3281 4666 3915 4102 
Q 4550 3538 4550 2338 
Q 4550 1131 3912 565 
Q 3275 0 1925 0 
L 628 0 
L 628 4666 
z
" transform="scale(0.015625)"/>
      <path id="DejaVuSans-69" d="M 603 3500 
L 1178 3500 
L 1178 0 
L 603 0 
L 603 3500 
z
M 603 4863 
L 1178 4863 
L 1178 4134 
L 603 4134 
L 603 4863 
z
" transform="scale(0.015625)"/>
      <path id="DejaVuSans-73" d="M 2834 3397 
L 2834 2853 
Q 2591 2978 2328 3040 
Q 2066 3103 1784 3103 
Q 1356 3103 1142 2972 
Q 928 2841 928 2578 
Q 928 2378 1081 2264 
Q 1234 2150 1697 2047 
L 1894 2003 
Q 2506 1872 2764 1633 
Q 3022 1394 3022 966 
Q 3022 478 2636 193 
Q 2250 -91 1575 -91 
Q 1294 -91 989 -36 
Q 684 19 347 128 
L 347 722 
Q 666 556 975 473 
Q 1284 391 1588 391 
Q 1994 391 2212 530 
Q 2431 669 2431 922 
Q 2431 1156 2273 1281 
Q 2116 1406 1581 1522 
L 1381 1569 
Q 847 1681 609 1914 
Q 372 2147 372 2553 
Q 372 3047 722 3315 
Q 1072 3584 1716 3584 
Q 2034 3584 2315 3537 
Q 2597 3491 2834 3397 
z
" transform="scale(0.015625)"/>
      <path id="DejaVuSans-72" d="M 2631 2963 
Q 2534 3019 2420 3045 
Q 2306 3072 2169 3072 
Q 1681 3072 1420 2755 
Q 1159 2438 1159 1844 
L 1159 0 
L 581 0 
L 581 3500 
L 1159 3500 
L 1159 2956 
Q 1341 3275 1631 3429 
Q 1922 3584 2338 3584 
Q 2397 3584 2469 3576 
Q 2541 3569 2628 3553 
L 2631 2963 
z
" transform="scale(0.015625)"/>
      <path id="DejaVuSans-62" d="M 3116 1747 
Q 3116 2381 2855 2742 
Q 2594 3103 2138 3103 
Q 1681 3103 1420 2742 
Q 1159 2381 1159 1747 
Q 1159 1113 1420 752 
Q 1681 391 2138 391 
Q 2594 391 2855 752 
Q 3116 1113 3116 1747 
z
M 1159 2969 
Q 1341 3281 1617 3432 
Q 1894 3584 2278 3584 
Q 2916 3584 3314 3078 
Q 3713 2572 3713 1747 
Q 3713 922 3314 415 
Q 2916 -91 2278 -91 
Q 1894 -91 1617 61 
Q 1341 213 1159 525 
L 1159 0 
L 581 0 
L 581 4863 
L 1159 4863 
L 1159 2969 
z
" transform="scale(0.015625)"/>
      <path id="DejaVuSans-20" transform="scale(0.015625)"/>
      <path id="DejaVuSans-66" d="M 2375 4863 
L 2375 4384 
L 1825 4384 
Q 1516 4384 1395 4259 
Q 1275 4134 1275 3809 
L 1275 3500 
L 2222 3500 
L 2222 3053 
L 1275 3053 
L 1275 0 
L 697 0 
L 697 3053 
L 147 3053 
L 147 3500 
L 697 3500 
L 697 3744 
Q 697 4328 969 4595 
Q 1241 4863 1831 4863 
L 2375 4863 
z
" transform="scale(0.015625)"/>
     </defs>
     <use xlink:href="#DejaVuSans-44"/>
     <use xlink:href="#DejaVuSans-69" x="77.001953"/>
     <use xlink:href="#DejaVuSans-73" x="104.785156"/>
     <use xlink:href="#DejaVuSans-74" x="156.884766"/>
     <use xlink:href="#DejaVuSans-72" x="196.09375"/>
     <use xlink:href="#DejaVuSans-69" x="237.207031"/>
     <use xlink:href="#DejaVuSans-62" x="264.990234"/>
     <use xlink:href="#DejaVuSans-75" x="328.466797"/>
     <use xlink:href="#DejaVuSans-74" x="391.845703"/>
     <use xlink:href="#DejaVuSans-69" x="431.054688"/>
     <use xlink:href="#DejaVuSans-6f" x="458.837891"/>
     <use xlink:href="#DejaVuSans-6e" x="520.019531"/>
     <use xlink:href="#DejaVuSans-20" x="583.398438"/>
     <use xlink:href="#DejaVuSans-6f" x="615.185547"/>
     <use xlink:href="#DejaVuSans-66" x="676.367188"/>
     <use xlink:href="#DejaVuSans-20" x="711.572266"/>
     <use xlink:href="#DejaVuSans-54" x="743.359375"/>
     <use xlink:href="#DejaVuSans-43" x="798.568359"/>
     <use xlink:href="#DejaVuSans-4f" x="868.392578"/>
     <use xlink:href="#DejaVuSans-32" x="947.103516"/>
    </g>
   </g>
  </g>
 </g>
 <defs>
  <clipPath id="p4312770f2a">
   <rect x="53.328125" y="22.318125" width="796.03" height="363.16"/>
  </clipPath>
 </defs>
</svg>
