<?xml version="1.0" encoding="utf-8" standalone="no"?>
<!DOCTYPE svg PUBLIC "-//W3C//DTD SVG 1.1//EN"
  "http://www.w3.org/Graphics/SVG/1.1/DTD/svg11.dtd">
<svg xmlns:xlink="http://www.w3.org/1999/xlink" width="856.495625pt" height="423.034375pt" viewBox="0 0 856.495625 423.034375" xmlns="http://www.w3.org/2000/svg" version="1.1">
 <metadata>
  <rdf:RDF xmlns:dc="http://purl.org/dc/elements/1.1/" xmlns:cc="http://creativecommons.org/ns#" xmlns:rdf="http://www.w3.org/1999/02/22-rdf-syntax-ns#">
   <cc:Work>
    <dc:type rdf:resource="http://purl.org/dc/dcmitype/StillImage"/>
    <dc:date>2024-07-14T12:39:02.460853</dc:date>
    <dc:format>image/svg+xml</dc:format>
    <dc:creator>
     <cc:Agent>
      <dc:title>Matplotlib v3.9.0, https://matplotlib.org/</dc:title>
     </cc:Agent>
    </dc:creator>
   </cc:Work>
  </rdf:RDF>
 </metadata>
 <defs>
  <style type="text/css">*{stroke-linejoin: round; stroke-linecap: butt}</style>
 </defs>
 <g id="figure_1">
  <g id="patch_1">
   <path d="M 0 423.034375 
L 856.495625 423.034375 
L 856.495625 0 
L 0 0 
z
" style="fill: #ffffff"/>
  </g>
  <g id="axes_1">
   <g id="patch_2">
    <path d="M 46.965625 385.478125 
L 849.295625 385.478125 
L 849.295625 22.318125 
L 46.965625 22.318125 
z
" style="fill: #ffffff"/>
   </g>
   <g id="patch_3">
    <path d="M 110.979575 385.478125 
L 117.4015 385.478125 
L 117.4015 384.98119 
L 110.979575 384.98119 
z
" clip-path="url(#pe4eba61913)" style="fill: #1f77b4; fill-opacity: 0.5; stroke: #000000; stroke-width: 0.57974; stroke-linejoin: miter"/>
   </g>
   <g id="patch_4">
    <path d="M 117.4015 385.478125 
L 123.823425 385.478125 
L 123.823425 384.98119 
L 117.4015 384.98119 
z
" clip-path="url(#pe4eba61913)" style="fill: #1f77b4; fill-opacity: 0.5; stroke: #000000; stroke-width: 0.57974; stroke-linejoin: miter"/>
   </g>
   <g id="patch_5">
    <path d="M 123.823425 385.478125 
L 130.24535 385.478125 
L 130.24535 385.478125 
L 123.823425 385.478125 
z
" clip-path="url(#pe4eba61913)" style="fill: #1f77b4; fill-opacity: 0.5; stroke: #000000; stroke-width: 0.57974; stroke-linejoin: miter"/>
   </g>
   <g id="patch_6">
    <path d="M 130.24535 385.478125 
L 136.667274 385.478125 
L 136.667274 384.98119 
L 130.24535 384.98119 
z
" clip-path="url(#pe4eba61913)" style="fill: #1f77b4; fill-opacity: 0.5; stroke: #000000; stroke-width: 0.57974; stroke-linejoin: miter"/>
   </g>
   <g id="patch_7">
    <path d="M 136.667274 385.478125 
L 143.089199 385.478125 
L 143.089199 385.478125 
L 136.667274 385.478125 
z
" clip-path="url(#pe4eba61913)" style="fill: #1f77b4; fill-opacity: 0.5; stroke: #000000; stroke-width: 0.57974; stroke-linejoin: miter"/>
   </g>
   <g id="patch_8">
    <path d="M 143.089199 385.478125 
L 149.511124 385.478125 
L 149.511124 383.98732 
L 143.089199 383.98732 
z
" clip-path="url(#pe4eba61913)" style="fill: #1f77b4; fill-opacity: 0.5; stroke: #000000; stroke-width: 0.57974; stroke-linejoin: miter"/>
   </g>
   <g id="patch_9">
    <path d="M 149.511124 385.478125 
L 155.933049 385.478125 
L 155.933049 385.478125 
L 149.511124 385.478125 
z
" clip-path="url(#pe4eba61913)" style="fill: #1f77b4; fill-opacity: 0.5; stroke: #000000; stroke-width: 0.57974; stroke-linejoin: miter"/>
   </g>
   <g id="patch_10">
    <path d="M 155.933049 385.478125 
L 162.354973 385.478125 
L 162.354973 383.490386 
L 155.933049 383.490386 
z
" clip-path="url(#pe4eba61913)" style="fill: #1f77b4; fill-opacity: 0.5; stroke: #000000; stroke-width: 0.57974; stroke-linejoin: miter"/>
   </g>
   <g id="patch_11">
    <path d="M 162.354973 385.478125 
L 168.776898 385.478125 
L 168.776898 385.478125 
L 162.354973 385.478125 
z
" clip-path="url(#pe4eba61913)" style="fill: #1f77b4; fill-opacity: 0.5; stroke: #000000; stroke-width: 0.57974; stroke-linejoin: miter"/>
   </g>
   <g id="patch_12">
    <path d="M 168.776898 385.478125 
L 175.198823 385.478125 
L 175.198823 381.502646 
L 168.776898 381.502646 
z
" clip-path="url(#pe4eba61913)" style="fill: #1f77b4; fill-opacity: 0.5; stroke: #000000; stroke-width: 0.57974; stroke-linejoin: miter"/>
   </g>
   <g id="patch_13">
    <path d="M 175.198823 385.478125 
L 181.620748 385.478125 
L 181.620748 385.478125 
L 175.198823 385.478125 
z
" clip-path="url(#pe4eba61913)" style="fill: #1f77b4; fill-opacity: 0.5; stroke: #000000; stroke-width: 0.57974; stroke-linejoin: miter"/>
   </g>
   <g id="patch_14">
    <path d="M 181.620748 385.478125 
L 188.042672 385.478125 
L 188.042672 382.993451 
L 181.620748 382.993451 
z
" clip-path="url(#pe4eba61913)" style="fill: #1f77b4; fill-opacity: 0.5; stroke: #000000; stroke-width: 0.57974; stroke-linejoin: miter"/>
   </g>
   <g id="patch_15">
    <path d="M 188.042672 385.478125 
L 194.464597 385.478125 
L 194.464597 385.478125 
L 188.042672 385.478125 
z
" clip-path="url(#pe4eba61913)" style="fill: #1f77b4; fill-opacity: 0.5; stroke: #000000; stroke-width: 0.57974; stroke-linejoin: miter"/>
   </g>
   <g id="patch_16">
    <path d="M 194.464597 385.478125 
L 200.886522 385.478125 
L 200.886522 379.514907 
L 194.464597 379.514907 
z
" clip-path="url(#pe4eba61913)" style="fill: #1f77b4; fill-opacity: 0.5; stroke: #000000; stroke-width: 0.57974; stroke-linejoin: miter"/>
   </g>
   <g id="patch_17">
    <path d="M 200.886522 385.478125 
L 207.308447 385.478125 
L 207.308447 385.478125 
L 200.886522 385.478125 
z
" clip-path="url(#pe4eba61913)" style="fill: #1f77b4; fill-opacity: 0.5; stroke: #000000; stroke-width: 0.57974; stroke-linejoin: miter"/>
   </g>
   <g id="patch_18">
    <path d="M 207.308447 385.478125 
L 213.730371 385.478125 
L 213.730371 377.527167 
L 207.308447 377.527167 
z
" clip-path="url(#pe4eba61913)" style="fill: #1f77b4; fill-opacity: 0.5; stroke: #000000; stroke-width: 0.57974; stroke-linejoin: miter"/>
   </g>
   <g id="patch_19">
    <path d="M 213.730371 385.478125 
L 220.152296 385.478125 
L 220.152296 371.067014 
L 213.730371 371.067014 
z
" clip-path="url(#pe4eba61913)" style="fill: #1f77b4; fill-opacity: 0.5; stroke: #000000; stroke-width: 0.57974; stroke-linejoin: miter"/>
   </g>
   <g id="patch_20">
    <path d="M 220.152296 385.478125 
L 226.574221 385.478125 
L 226.574221 385.478125 
L 220.152296 385.478125 
z
" clip-path="url(#pe4eba61913)" style="fill: #1f77b4; fill-opacity: 0.5; stroke: #000000; stroke-width: 0.57974; stroke-linejoin: miter"/>
   </g>
   <g id="patch_21">
    <path d="M 226.574221 385.478125 
L 232.996146 385.478125 
L 232.996146 364.109926 
L 226.574221 364.109926 
z
" clip-path="url(#pe4eba61913)" style="fill: #1f77b4; fill-opacity: 0.5; stroke: #000000; stroke-width: 0.57974; stroke-linejoin: miter"/>
   </g>
   <g id="patch_22">
    <path d="M 232.996146 385.478125 
L 239.418071 385.478125 
L 239.418071 385.478125 
L 232.996146 385.478125 
z
" clip-path="url(#pe4eba61913)" style="fill: #1f77b4; fill-opacity: 0.5; stroke: #000000; stroke-width: 0.57974; stroke-linejoin: miter"/>
   </g>
   <g id="patch_23">
    <path d="M 239.418071 385.478125 
L 245.839995 385.478125 
L 245.839995 356.655903 
L 239.418071 356.655903 
z
" clip-path="url(#pe4eba61913)" style="fill: #1f77b4; fill-opacity: 0.5; stroke: #000000; stroke-width: 0.57974; stroke-linejoin: miter"/>
   </g>
   <g id="patch_24">
    <path d="M 245.839995 385.478125 
L 252.26192 385.478125 
L 252.26192 385.478125 
L 245.839995 385.478125 
z
" clip-path="url(#pe4eba61913)" style="fill: #1f77b4; fill-opacity: 0.5; stroke: #000000; stroke-width: 0.57974; stroke-linejoin: miter"/>
   </g>
   <g id="patch_25">
    <path d="M 252.26192 385.478125 
L 258.683845 385.478125 
L 258.683845 358.146707 
L 252.26192 358.146707 
z
" clip-path="url(#pe4eba61913)" style="fill: #1f77b4; fill-opacity: 0.5; stroke: #000000; stroke-width: 0.57974; stroke-linejoin: miter"/>
   </g>
   <g id="patch_26">
    <path d="M 258.683845 385.478125 
L 265.10577 385.478125 
L 265.10577 385.478125 
L 258.683845 385.478125 
z
" clip-path="url(#pe4eba61913)" style="fill: #1f77b4; fill-opacity: 0.5; stroke: #000000; stroke-width: 0.57974; stroke-linejoin: miter"/>
   </g>
   <g id="patch_27">
    <path d="M 265.10577 385.478125 
L 271.527694 385.478125 
L 271.527694 337.772378 
L 265.10577 337.772378 
z
" clip-path="url(#pe4eba61913)" style="fill: #1f77b4; fill-opacity: 0.5; stroke: #000000; stroke-width: 0.57974; stroke-linejoin: miter"/>
   </g>
   <g id="patch_28">
    <path d="M 271.527694 385.478125 
L 277.949619 385.478125 
L 277.949619 385.478125 
L 271.527694 385.478125 
z
" clip-path="url(#pe4eba61913)" style="fill: #1f77b4; fill-opacity: 0.5; stroke: #000000; stroke-width: 0.57974; stroke-linejoin: miter"/>
   </g>
   <g id="patch_29">
    <path d="M 277.949619 385.478125 
L 284.371544 385.478125 
L 284.371544 336.778508 
L 277.949619 336.778508 
z
" clip-path="url(#pe4eba61913)" style="fill: #1f77b4; fill-opacity: 0.5; stroke: #000000; stroke-width: 0.57974; stroke-linejoin: miter"/>
   </g>
   <g id="patch_30">
    <path d="M 284.371544 385.478125 
L 290.793469 385.478125 
L 290.793469 384.484255 
L 284.371544 384.484255 
z
" clip-path="url(#pe4eba61913)" style="fill: #1f77b4; fill-opacity: 0.5; stroke: #000000; stroke-width: 0.57974; stroke-linejoin: miter"/>
   </g>
   <g id="patch_31">
    <path d="M 290.793469 385.478125 
L 297.215393 385.478125 
L 297.215393 314.913374 
L 290.793469 314.913374 
z
" clip-path="url(#pe4eba61913)" style="fill: #1f77b4; fill-opacity: 0.5; stroke: #000000; stroke-width: 0.57974; stroke-linejoin: miter"/>
   </g>
   <g id="patch_32">
    <path d="M 297.215393 385.478125 
L 303.637318 385.478125 
L 303.637318 384.98119 
L 297.215393 384.98119 
z
" clip-path="url(#pe4eba61913)" style="fill: #1f77b4; fill-opacity: 0.5; stroke: #000000; stroke-width: 0.57974; stroke-linejoin: miter"/>
   </g>
   <g id="patch_33">
    <path d="M 303.637318 385.478125 
L 310.059243 385.478125 
L 310.059243 271.183106 
L 303.637318 271.183106 
z
" clip-path="url(#pe4eba61913)" style="fill: #1f77b4; fill-opacity: 0.5; stroke: #000000; stroke-width: 0.57974; stroke-linejoin: miter"/>
   </g>
   <g id="patch_34">
    <path d="M 310.059243 385.478125 
L 316.481168 385.478125 
L 316.481168 242.857818 
L 310.059243 242.857818 
z
" clip-path="url(#pe4eba61913)" style="fill: #1f77b4; fill-opacity: 0.5; stroke: #000000; stroke-width: 0.57974; stroke-linejoin: miter"/>
   </g>
   <g id="patch_35">
    <path d="M 316.481168 385.478125 
L 322.903092 385.478125 
L 322.903092 384.98119 
L 316.481168 384.98119 
z
" clip-path="url(#pe4eba61913)" style="fill: #1f77b4; fill-opacity: 0.5; stroke: #000000; stroke-width: 0.57974; stroke-linejoin: miter"/>
   </g>
   <g id="patch_36">
    <path d="M 322.903092 385.478125 
L 329.325017 385.478125 
L 329.325017 207.078508 
L 322.903092 207.078508 
z
" clip-path="url(#pe4eba61913)" style="fill: #1f77b4; fill-opacity: 0.5; stroke: #000000; stroke-width: 0.57974; stroke-linejoin: miter"/>
   </g>
   <g id="patch_37">
    <path d="M 329.325017 385.478125 
L 335.746942 385.478125 
L 335.746942 384.484255 
L 329.325017 384.484255 
z
" clip-path="url(#pe4eba61913)" style="fill: #1f77b4; fill-opacity: 0.5; stroke: #000000; stroke-width: 0.57974; stroke-linejoin: miter"/>
   </g>
   <g id="patch_38">
    <path d="M 335.746942 385.478125 
L 342.168867 385.478125 
L 342.168867 170.305328 
L 335.746942 170.305328 
z
" clip-path="url(#pe4eba61913)" style="fill: #1f77b4; fill-opacity: 0.5; stroke: #000000; stroke-width: 0.57974; stroke-linejoin: miter"/>
   </g>
   <g id="patch_39">
    <path d="M 342.168867 385.478125 
L 348.590791 385.478125 
L 348.590791 382.496516 
L 342.168867 382.496516 
z
" clip-path="url(#pe4eba61913)" style="fill: #1f77b4; fill-opacity: 0.5; stroke: #000000; stroke-width: 0.57974; stroke-linejoin: miter"/>
   </g>
   <g id="patch_40">
    <path d="M 348.590791 385.478125 
L 355.012716 385.478125 
L 355.012716 132.538278 
L 348.590791 132.538278 
z
" clip-path="url(#pe4eba61913)" style="fill: #1f77b4; fill-opacity: 0.5; stroke: #000000; stroke-width: 0.57974; stroke-linejoin: miter"/>
   </g>
   <g id="patch_41">
    <path d="M 355.012716 385.478125 
L 361.434641 385.478125 
L 361.434641 384.484255 
L 355.012716 384.484255 
z
" clip-path="url(#pe4eba61913)" style="fill: #1f77b4; fill-opacity: 0.5; stroke: #000000; stroke-width: 0.57974; stroke-linejoin: miter"/>
   </g>
   <g id="patch_42">
    <path d="M 361.434641 385.478125 
L 367.856566 385.478125 
L 367.856566 98.746707 
L 361.434641 98.746707 
z
" clip-path="url(#pe4eba61913)" style="fill: #1f77b4; fill-opacity: 0.5; stroke: #000000; stroke-width: 0.57974; stroke-linejoin: miter"/>
   </g>
   <g id="patch_43">
    <path d="M 367.856566 385.478125 
L 374.27849 385.478125 
L 374.27849 381.005711 
L 367.856566 381.005711 
z
" clip-path="url(#pe4eba61913)" style="fill: #1f77b4; fill-opacity: 0.5; stroke: #000000; stroke-width: 0.57974; stroke-linejoin: miter"/>
   </g>
   <g id="patch_44">
    <path d="M 374.27849 385.478125 
L 380.700415 385.478125 
L 380.700415 76.881573 
L 374.27849 76.881573 
z
" clip-path="url(#pe4eba61913)" style="fill: #1f77b4; fill-opacity: 0.5; stroke: #000000; stroke-width: 0.57974; stroke-linejoin: miter"/>
   </g>
   <g id="patch_45">
    <path d="M 380.700415 385.478125 
L 387.12234 385.478125 
L 387.12234 381.502646 
L 380.700415 381.502646 
z
" clip-path="url(#pe4eba61913)" style="fill: #1f77b4; fill-opacity: 0.5; stroke: #000000; stroke-width: 0.57974; stroke-linejoin: miter"/>
   </g>
   <g id="patch_46">
    <path d="M 387.12234 385.478125 
L 393.544265 385.478125 
L 393.544265 39.611458 
L 387.12234 39.611458 
z
" clip-path="url(#pe4eba61913)" style="fill: #1f77b4; fill-opacity: 0.5; stroke: #000000; stroke-width: 0.57974; stroke-linejoin: miter"/>
   </g>
   <g id="patch_47">
    <path d="M 393.544265 385.478125 
L 399.966189 385.478125 
L 399.966189 384.484255 
L 393.544265 384.484255 
z
" clip-path="url(#pe4eba61913)" style="fill: #1f77b4; fill-opacity: 0.5; stroke: #000000; stroke-width: 0.57974; stroke-linejoin: miter"/>
   </g>
   <g id="patch_48">
    <path d="M 399.966189 385.478125 
L 406.388114 385.478125 
L 406.388114 71.41529 
L 399.966189 71.41529 
z
" clip-path="url(#pe4eba61913)" style="fill: #1f77b4; fill-opacity: 0.5; stroke: #000000; stroke-width: 0.57974; stroke-linejoin: miter"/>
   </g>
   <g id="patch_49">
    <path d="M 406.388114 385.478125 
L 412.810039 385.478125 
L 412.810039 127.071995 
L 406.388114 127.071995 
z
" clip-path="url(#pe4eba61913)" style="fill: #1f77b4; fill-opacity: 0.5; stroke: #000000; stroke-width: 0.57974; stroke-linejoin: miter"/>
   </g>
   <g id="patch_50">
    <path d="M 412.810039 385.478125 
L 419.231964 385.478125 
L 419.231964 384.484255 
L 412.810039 384.484255 
z
" clip-path="url(#pe4eba61913)" style="fill: #1f77b4; fill-opacity: 0.5; stroke: #000000; stroke-width: 0.57974; stroke-linejoin: miter"/>
   </g>
   <g id="patch_51">
    <path d="M 419.231964 385.478125 
L 425.653888 385.478125 
L 425.653888 183.225635 
L 419.231964 183.225635 
z
" clip-path="url(#pe4eba61913)" style="fill: #1f77b4; fill-opacity: 0.5; stroke: #000000; stroke-width: 0.57974; stroke-linejoin: miter"/>
   </g>
   <g id="patch_52">
    <path d="M 425.653888 385.478125 
L 432.075813 385.478125 
L 432.075813 385.478125 
L 425.653888 385.478125 
z
" clip-path="url(#pe4eba61913)" style="fill: #1f77b4; fill-opacity: 0.5; stroke: #000000; stroke-width: 0.57974; stroke-linejoin: miter"/>
   </g>
   <g id="patch_53">
    <path d="M 432.075813 385.478125 
L 438.497738 385.478125 
L 438.497738 242.360884 
L 432.075813 242.360884 
z
" clip-path="url(#pe4eba61913)" style="fill: #1f77b4; fill-opacity: 0.5; stroke: #000000; stroke-width: 0.57974; stroke-linejoin: miter"/>
   </g>
   <g id="patch_54">
    <path d="M 438.497738 385.478125 
L 444.919663 385.478125 
L 444.919663 385.478125 
L 438.497738 385.478125 
z
" clip-path="url(#pe4eba61913)" style="fill: #1f77b4; fill-opacity: 0.5; stroke: #000000; stroke-width: 0.57974; stroke-linejoin: miter"/>
   </g>
   <g id="patch_55">
    <path d="M 444.919663 385.478125 
L 451.341587 385.478125 
L 451.341587 289.072761 
L 444.919663 289.072761 
z
" clip-path="url(#pe4eba61913)" style="fill: #1f77b4; fill-opacity: 0.5; stroke: #000000; stroke-width: 0.57974; stroke-linejoin: miter"/>
   </g>
   <g id="patch_56">
    <path d="M 451.341587 385.478125 
L 457.763512 385.478125 
L 457.763512 385.478125 
L 451.341587 385.478125 
z
" clip-path="url(#pe4eba61913)" style="fill: #1f77b4; fill-opacity: 0.5; stroke: #000000; stroke-width: 0.57974; stroke-linejoin: miter"/>
   </g>
   <g id="patch_57">
    <path d="M 457.763512 385.478125 
L 464.185437 385.478125 
L 464.185437 335.784638 
L 457.763512 335.784638 
z
" clip-path="url(#pe4eba61913)" style="fill: #1f77b4; fill-opacity: 0.5; stroke: #000000; stroke-width: 0.57974; stroke-linejoin: miter"/>
   </g>
   <g id="patch_58">
    <path d="M 464.185437 385.478125 
L 470.607362 385.478125 
L 470.607362 385.478125 
L 464.185437 385.478125 
z
" clip-path="url(#pe4eba61913)" style="fill: #1f77b4; fill-opacity: 0.5; stroke: #000000; stroke-width: 0.57974; stroke-linejoin: miter"/>
   </g>
   <g id="patch_59">
    <path d="M 470.607362 385.478125 
L 477.029286 385.478125 
L 477.029286 360.134447 
L 470.607362 360.134447 
z
" clip-path="url(#pe4eba61913)" style="fill: #1f77b4; fill-opacity: 0.5; stroke: #000000; stroke-width: 0.57974; stroke-linejoin: miter"/>
   </g>
   <g id="patch_60">
    <path d="M 477.029286 385.478125 
L 483.451211 385.478125 
L 483.451211 384.98119 
L 477.029286 384.98119 
z
" clip-path="url(#pe4eba61913)" style="fill: #1f77b4; fill-opacity: 0.5; stroke: #000000; stroke-width: 0.57974; stroke-linejoin: miter"/>
   </g>
   <g id="patch_61">
    <path d="M 483.451211 385.478125 
L 489.873136 385.478125 
L 489.873136 370.570079 
L 483.451211 370.570079 
z
" clip-path="url(#pe4eba61913)" style="fill: #1f77b4; fill-opacity: 0.5; stroke: #000000; stroke-width: 0.57974; stroke-linejoin: miter"/>
   </g>
   <g id="patch_62">
    <path d="M 489.873136 385.478125 
L 496.295061 385.478125 
L 496.295061 385.478125 
L 489.873136 385.478125 
z
" clip-path="url(#pe4eba61913)" style="fill: #1f77b4; fill-opacity: 0.5; stroke: #000000; stroke-width: 0.57974; stroke-linejoin: miter"/>
   </g>
   <g id="patch_63">
    <path d="M 496.295061 385.478125 
L 502.716985 385.478125 
L 502.716985 379.017972 
L 496.295061 379.017972 
z
" clip-path="url(#pe4eba61913)" style="fill: #1f77b4; fill-opacity: 0.5; stroke: #000000; stroke-width: 0.57974; stroke-linejoin: miter"/>
   </g>
   <g id="patch_64">
    <path d="M 502.716985 385.478125 
L 509.13891 385.478125 
L 509.13891 384.484255 
L 502.716985 384.484255 
z
" clip-path="url(#pe4eba61913)" style="fill: #1f77b4; fill-opacity: 0.5; stroke: #000000; stroke-width: 0.57974; stroke-linejoin: miter"/>
   </g>
   <g id="patch_65">
    <path d="M 509.13891 385.478125 
L 515.560835 385.478125 
L 515.560835 385.478125 
L 509.13891 385.478125 
z
" clip-path="url(#pe4eba61913)" style="fill: #1f77b4; fill-opacity: 0.5; stroke: #000000; stroke-width: 0.57974; stroke-linejoin: miter"/>
   </g>
   <g id="patch_66">
    <path d="M 515.560835 385.478125 
L 521.98276 385.478125 
L 521.98276 383.98732 
L 515.560835 383.98732 
z
" clip-path="url(#pe4eba61913)" style="fill: #1f77b4; fill-opacity: 0.5; stroke: #000000; stroke-width: 0.57974; stroke-linejoin: miter"/>
   </g>
   <g id="patch_67">
    <path d="M 521.98276 385.478125 
L 528.404684 385.478125 
L 528.404684 385.478125 
L 521.98276 385.478125 
z
" clip-path="url(#pe4eba61913)" style="fill: #1f77b4; fill-opacity: 0.5; stroke: #000000; stroke-width: 0.57974; stroke-linejoin: miter"/>
   </g>
   <g id="patch_68">
    <path d="M 528.404684 385.478125 
L 534.826609 385.478125 
L 534.826609 383.490386 
L 528.404684 383.490386 
z
" clip-path="url(#pe4eba61913)" style="fill: #1f77b4; fill-opacity: 0.5; stroke: #000000; stroke-width: 0.57974; stroke-linejoin: miter"/>
   </g>
   <g id="patch_69">
    <path d="M 534.826609 385.478125 
L 541.248534 385.478125 
L 541.248534 385.478125 
L 534.826609 385.478125 
z
" clip-path="url(#pe4eba61913)" style="fill: #1f77b4; fill-opacity: 0.5; stroke: #000000; stroke-width: 0.57974; stroke-linejoin: miter"/>
   </g>
   <g id="patch_70">
    <path d="M 541.248534 385.478125 
L 547.670459 385.478125 
L 547.670459 384.98119 
L 541.248534 384.98119 
z
" clip-path="url(#pe4eba61913)" style="fill: #1f77b4; fill-opacity: 0.5; stroke: #000000; stroke-width: 0.57974; stroke-linejoin: miter"/>
   </g>
   <g id="patch_71">
    <path d="M 547.670459 385.478125 
L 554.092383 385.478125 
L 554.092383 385.478125 
L 547.670459 385.478125 
z
" clip-path="url(#pe4eba61913)" style="fill: #1f77b4; fill-opacity: 0.5; stroke: #000000; stroke-width: 0.57974; stroke-linejoin: miter"/>
   </g>
   <g id="patch_72">
    <path d="M 554.092383 385.478125 
L 560.514308 385.478125 
L 560.514308 385.478125 
L 554.092383 385.478125 
z
" clip-path="url(#pe4eba61913)" style="fill: #1f77b4; fill-opacity: 0.5; stroke: #000000; stroke-width: 0.57974; stroke-linejoin: miter"/>
   </g>
   <g id="patch_73">
    <path d="M 560.514308 385.478125 
L 566.936233 385.478125 
L 566.936233 385.478125 
L 560.514308 385.478125 
z
" clip-path="url(#pe4eba61913)" style="fill: #1f77b4; fill-opacity: 0.5; stroke: #000000; stroke-width: 0.57974; stroke-linejoin: miter"/>
   </g>
   <g id="patch_74">
    <path d="M 566.936233 385.478125 
L 573.358158 385.478125 
L 573.358158 384.98119 
L 566.936233 384.98119 
z
" clip-path="url(#pe4eba61913)" style="fill: #1f77b4; fill-opacity: 0.5; stroke: #000000; stroke-width: 0.57974; stroke-linejoin: miter"/>
   </g>
   <g id="patch_75">
    <path d="M 573.358158 385.478125 
L 579.780082 385.478125 
L 579.780082 385.478125 
L 573.358158 385.478125 
z
" clip-path="url(#pe4eba61913)" style="fill: #1f77b4; fill-opacity: 0.5; stroke: #000000; stroke-width: 0.57974; stroke-linejoin: miter"/>
   </g>
   <g id="patch_76">
    <path d="M 579.780082 385.478125 
L 586.202007 385.478125 
L 586.202007 385.478125 
L 579.780082 385.478125 
z
" clip-path="url(#pe4eba61913)" style="fill: #1f77b4; fill-opacity: 0.5; stroke: #000000; stroke-width: 0.57974; stroke-linejoin: miter"/>
   </g>
   <g id="patch_77">
    <path d="M 586.202007 385.478125 
L 592.623932 385.478125 
L 592.623932 385.478125 
L 586.202007 385.478125 
z
" clip-path="url(#pe4eba61913)" style="fill: #1f77b4; fill-opacity: 0.5; stroke: #000000; stroke-width: 0.57974; stroke-linejoin: miter"/>
   </g>
   <g id="patch_78">
    <path d="M 592.623932 385.478125 
L 599.045857 385.478125 
L 599.045857 384.98119 
L 592.623932 384.98119 
z
" clip-path="url(#pe4eba61913)" style="fill: #1f77b4; fill-opacity: 0.5; stroke: #000000; stroke-width: 0.57974; stroke-linejoin: miter"/>
   </g>
   <g id="patch_79">
    <path d="M 599.045857 385.478125 
L 605.467781 385.478125 
L 605.467781 385.478125 
L 599.045857 385.478125 
z
" clip-path="url(#pe4eba61913)" style="fill: #1f77b4; fill-opacity: 0.5; stroke: #000000; stroke-width: 0.57974; stroke-linejoin: miter"/>
   </g>
   <g id="patch_80">
    <path d="M 605.467781 385.478125 
L 611.889706 385.478125 
L 611.889706 385.478125 
L 605.467781 385.478125 
z
" clip-path="url(#pe4eba61913)" style="fill: #1f77b4; fill-opacity: 0.5; stroke: #000000; stroke-width: 0.57974; stroke-linejoin: miter"/>
   </g>
   <g id="patch_81">
    <path d="M 611.889706 385.478125 
L 618.311631 385.478125 
L 618.311631 385.478125 
L 611.889706 385.478125 
z
" clip-path="url(#pe4eba61913)" style="fill: #1f77b4; fill-opacity: 0.5; stroke: #000000; stroke-width: 0.57974; stroke-linejoin: miter"/>
   </g>
   <g id="patch_82">
    <path d="M 618.311631 385.478125 
L 624.733556 385.478125 
L 624.733556 385.478125 
L 618.311631 385.478125 
z
" clip-path="url(#pe4eba61913)" style="fill: #1f77b4; fill-opacity: 0.5; stroke: #000000; stroke-width: 0.57974; stroke-linejoin: miter"/>
   </g>
   <g id="patch_83">
    <path d="M 624.733556 385.478125 
L 631.15548 385.478125 
L 631.15548 385.478125 
L 624.733556 385.478125 
z
" clip-path="url(#pe4eba61913)" style="fill: #1f77b4; fill-opacity: 0.5; stroke: #000000; stroke-width: 0.57974; stroke-linejoin: miter"/>
   </g>
   <g id="patch_84">
    <path d="M 631.15548 385.478125 
L 637.577405 385.478125 
L 637.577405 385.478125 
L 631.15548 385.478125 
z
" clip-path="url(#pe4eba61913)" style="fill: #1f77b4; fill-opacity: 0.5; stroke: #000000; stroke-width: 0.57974; stroke-linejoin: miter"/>
   </g>
   <g id="patch_85">
    <path d="M 637.577405 385.478125 
L 643.99933 385.478125 
L 643.99933 384.98119 
L 637.577405 384.98119 
z
" clip-path="url(#pe4eba61913)" style="fill: #1f77b4; fill-opacity: 0.5; stroke: #000000; stroke-width: 0.57974; stroke-linejoin: miter"/>
   </g>
   <g id="patch_86">
    <path d="M 643.99933 385.478125 
L 650.421255 385.478125 
L 650.421255 385.478125 
L 643.99933 385.478125 
z
" clip-path="url(#pe4eba61913)" style="fill: #1f77b4; fill-opacity: 0.5; stroke: #000000; stroke-width: 0.57974; stroke-linejoin: miter"/>
   </g>
   <g id="patch_87">
    <path d="M 650.421255 385.478125 
L 656.843179 385.478125 
L 656.843179 385.478125 
L 650.421255 385.478125 
z
" clip-path="url(#pe4eba61913)" style="fill: #1f77b4; fill-opacity: 0.5; stroke: #000000; stroke-width: 0.57974; stroke-linejoin: miter"/>
   </g>
   <g id="patch_88">
    <path d="M 656.843179 385.478125 
L 663.265104 385.478125 
L 663.265104 385.478125 
L 656.843179 385.478125 
z
" clip-path="url(#pe4eba61913)" style="fill: #1f77b4; fill-opacity: 0.5; stroke: #000000; stroke-width: 0.57974; stroke-linejoin: miter"/>
   </g>
   <g id="patch_89">
    <path d="M 663.265104 385.478125 
L 669.687029 385.478125 
L 669.687029 385.478125 
L 663.265104 385.478125 
z
" clip-path="url(#pe4eba61913)" style="fill: #1f77b4; fill-opacity: 0.5; stroke: #000000; stroke-width: 0.57974; stroke-linejoin: miter"/>
   </g>
   <g id="patch_90">
    <path d="M 669.687029 385.478125 
L 676.108954 385.478125 
L 676.108954 385.478125 
L 669.687029 385.478125 
z
" clip-path="url(#pe4eba61913)" style="fill: #1f77b4; fill-opacity: 0.5; stroke: #000000; stroke-width: 0.57974; stroke-linejoin: miter"/>
   </g>
   <g id="patch_91">
    <path d="M 676.108954 385.478125 
L 682.530879 385.478125 
L 682.530879 385.478125 
L 676.108954 385.478125 
z
" clip-path="url(#pe4eba61913)" style="fill: #1f77b4; fill-opacity: 0.5; stroke: #000000; stroke-width: 0.57974; stroke-linejoin: miter"/>
   </g>
   <g id="patch_92">
    <path d="M 682.530879 385.478125 
L 688.952803 385.478125 
L 688.952803 385.478125 
L 682.530879 385.478125 
z
" clip-path="url(#pe4eba61913)" style="fill: #1f77b4; fill-opacity: 0.5; stroke: #000000; stroke-width: 0.57974; stroke-linejoin: miter"/>
   </g>
   <g id="patch_93">
    <path d="M 688.952803 385.478125 
L 695.374728 385.478125 
L 695.374728 385.478125 
L 688.952803 385.478125 
z
" clip-path="url(#pe4eba61913)" style="fill: #1f77b4; fill-opacity: 0.5; stroke: #000000; stroke-width: 0.57974; stroke-linejoin: miter"/>
   </g>
   <g id="patch_94">
    <path d="M 695.374728 385.478125 
L 701.796653 385.478125 
L 701.796653 385.478125 
L 695.374728 385.478125 
z
" clip-path="url(#pe4eba61913)" style="fill: #1f77b4; fill-opacity: 0.5; stroke: #000000; stroke-width: 0.57974; stroke-linejoin: miter"/>
   </g>
   <g id="patch_95">
    <path d="M 701.796653 385.478125 
L 708.218578 385.478125 
L 708.218578 385.478125 
L 701.796653 385.478125 
z
" clip-path="url(#pe4eba61913)" style="fill: #1f77b4; fill-opacity: 0.5; stroke: #000000; stroke-width: 0.57974; stroke-linejoin: miter"/>
   </g>
   <g id="patch_96">
    <path d="M 708.218578 385.478125 
L 714.640502 385.478125 
L 714.640502 385.478125 
L 708.218578 385.478125 
z
" clip-path="url(#pe4eba61913)" style="fill: #1f77b4; fill-opacity: 0.5; stroke: #000000; stroke-width: 0.57974; stroke-linejoin: miter"/>
   </g>
   <g id="patch_97">
    <path d="M 714.640502 385.478125 
L 721.062427 385.478125 
L 721.062427 385.478125 
L 714.640502 385.478125 
z
" clip-path="url(#pe4eba61913)" style="fill: #1f77b4; fill-opacity: 0.5; stroke: #000000; stroke-width: 0.57974; stroke-linejoin: miter"/>
   </g>
   <g id="patch_98">
    <path d="M 721.062427 385.478125 
L 727.484352 385.478125 
L 727.484352 385.478125 
L 721.062427 385.478125 
z
" clip-path="url(#pe4eba61913)" style="fill: #1f77b4; fill-opacity: 0.5; stroke: #000000; stroke-width: 0.57974; stroke-linejoin: miter"/>
   </g>
   <g id="patch_99">
    <path d="M 727.484352 385.478125 
L 733.906277 385.478125 
L 733.906277 385.478125 
L 727.484352 385.478125 
z
" clip-path="url(#pe4eba61913)" style="fill: #1f77b4; fill-opacity: 0.5; stroke: #000000; stroke-width: 0.57974; stroke-linejoin: miter"/>
   </g>
   <g id="patch_100">
    <path d="M 733.906277 385.478125 
L 740.328201 385.478125 
L 740.328201 385.478125 
L 733.906277 385.478125 
z
" clip-path="url(#pe4eba61913)" style="fill: #1f77b4; fill-opacity: 0.5; stroke: #000000; stroke-width: 0.57974; stroke-linejoin: miter"/>
   </g>
   <g id="patch_101">
    <path d="M 740.328201 385.478125 
L 746.750126 385.478125 
L 746.750126 385.478125 
L 740.328201 385.478125 
z
" clip-path="url(#pe4eba61913)" style="fill: #1f77b4; fill-opacity: 0.5; stroke: #000000; stroke-width: 0.57974; stroke-linejoin: miter"/>
   </g>
   <g id="patch_102">
    <path d="M 746.750126 385.478125 
L 753.172051 385.478125 
L 753.172051 385.478125 
L 746.750126 385.478125 
z
" clip-path="url(#pe4eba61913)" style="fill: #1f77b4; fill-opacity: 0.5; stroke: #000000; stroke-width: 0.57974; stroke-linejoin: miter"/>
   </g>
   <g id="patch_103">
    <path d="M 753.172051 385.478125 
L 759.593976 385.478125 
L 759.593976 385.478125 
L 753.172051 385.478125 
z
" clip-path="url(#pe4eba61913)" style="fill: #1f77b4; fill-opacity: 0.5; stroke: #000000; stroke-width: 0.57974; stroke-linejoin: miter"/>
   </g>
   <g id="patch_104">
    <path d="M 759.593976 385.478125 
L 766.0159 385.478125 
L 766.0159 385.478125 
L 759.593976 385.478125 
z
" clip-path="url(#pe4eba61913)" style="fill: #1f77b4; fill-opacity: 0.5; stroke: #000000; stroke-width: 0.57974; stroke-linejoin: miter"/>
   </g>
   <g id="patch_105">
    <path d="M 766.0159 385.478125 
L 772.437825 385.478125 
L 772.437825 385.478125 
L 766.0159 385.478125 
z
" clip-path="url(#pe4eba61913)" style="fill: #1f77b4; fill-opacity: 0.5; stroke: #000000; stroke-width: 0.57974; stroke-linejoin: miter"/>
   </g>
   <g id="patch_106">
    <path d="M 772.437825 385.478125 
L 778.85975 385.478125 
L 778.85975 385.478125 
L 772.437825 385.478125 
z
" clip-path="url(#pe4eba61913)" style="fill: #1f77b4; fill-opacity: 0.5; stroke: #000000; stroke-width: 0.57974; stroke-linejoin: miter"/>
   </g>
   <g id="patch_107">
    <path d="M 778.85975 385.478125 
L 785.281675 385.478125 
L 785.281675 384.98119 
L 778.85975 384.98119 
z
" clip-path="url(#pe4eba61913)" style="fill: #1f77b4; fill-opacity: 0.5; stroke: #000000; stroke-width: 0.57974; stroke-linejoin: miter"/>
   </g>
   <g id="matplotlib.axis_1">
    <g id="xtick_1">
     <g id="line2d_1">
      <defs>
       <path id="mec1fa70db1" d="M 0 0 
L 0 3.5 
" style="stroke: #000000; stroke-width: 0.8"/>
      </defs>
      <g>
       <use xlink:href="#mec1fa70db1" x="74.856249" y="385.478125" style="stroke: #000000; stroke-width: 0.8"/>
      </g>
     </g>
     <g id="text_1">
      <!-- 0 -->
      <g transform="translate(71.674999 400.076562) scale(0.1 -0.1)">
       <defs>
        <path id="DejaVuSans-30" d="M 2034 4250 
Q 1547 4250 1301 3770 
Q 1056 3291 1056 2328 
Q 1056 1369 1301 889 
Q 1547 409 2034 409 
Q 2525 409 2770 889 
Q 3016 1369 3016 2328 
Q 3016 3291 2770 3770 
Q 2525 4250 2034 4250 
z
M 2034 4750 
Q 2819 4750 3233 4129 
Q 3647 3509 3647 2328 
Q 3647 1150 3233 529 
Q 2819 -91 2034 -91 
Q 1250 -91 836 529 
Q 422 1150 422 2328 
Q 422 3509 836 4129 
Q 1250 4750 2034 4750 
z
" transform="scale(0.015625)"/>
       </defs>
       <use xlink:href="#DejaVuSans-30"/>
      </g>
     </g>
    </g>
    <g id="xtick_2">
     <g id="line2d_2">
      <g>
       <use xlink:href="#mec1fa70db1" x="195.267338" y="385.478125" style="stroke: #000000; stroke-width: 0.8"/>
      </g>
     </g>
     <g id="text_2">
      <!-- 10 -->
      <g transform="translate(188.904838 400.076562) scale(0.1 -0.1)">
       <defs>
        <path id="DejaVuSans-31" d="M 794 531 
L 1825 531 
L 1825 4091 
L 703 3866 
L 703 4441 
L 1819 4666 
L 2450 4666 
L 2450 531 
L 3481 531 
L 3481 0 
L 794 0 
L 794 531 
z
" transform="scale(0.015625)"/>
       </defs>
       <use xlink:href="#DejaVuSans-31"/>
       <use xlink:href="#DejaVuSans-30" x="63.623047"/>
      </g>
     </g>
    </g>
    <g id="xtick_3">
     <g id="line2d_3">
      <g>
       <use xlink:href="#mec1fa70db1" x="315.678427" y="385.478125" style="stroke: #000000; stroke-width: 0.8"/>
      </g>
     </g>
     <g id="text_3">
      <!-- 20 -->
      <g transform="translate(309.315927 400.076562) scale(0.1 -0.1)">
       <defs>
        <path id="DejaVuSans-32" d="M 1228 531 
L 3431 531 
L 3431 0 
L 469 0 
L 469 531 
Q 828 903 1448 1529 
Q 2069 2156 2228 2338 
Q 2531 2678 2651 2914 
Q 2772 3150 2772 3378 
Q 2772 3750 2511 3984 
Q 2250 4219 1831 4219 
Q 1534 4219 1204 4116 
Q 875 4013 500 3803 
L 500 4441 
Q 881 4594 1212 4672 
Q 1544 4750 1819 4750 
Q 2544 4750 2975 4387 
Q 3406 4025 3406 3419 
Q 3406 3131 3298 2873 
Q 3191 2616 2906 2266 
Q 2828 2175 2409 1742 
Q 1991 1309 1228 531 
z
" transform="scale(0.015625)"/>
       </defs>
       <use xlink:href="#DejaVuSans-32"/>
       <use xlink:href="#DejaVuSans-30" x="63.623047"/>
      </g>
     </g>
    </g>
    <g id="xtick_4">
     <g id="line2d_4">
      <g>
       <use xlink:href="#mec1fa70db1" x="436.089516" y="385.478125" style="stroke: #000000; stroke-width: 0.8"/>
      </g>
     </g>
     <g id="text_4">
      <!-- 30 -->
      <g transform="translate(429.727016 400.076562) scale(0.1 -0.1)">
       <defs>
        <path id="DejaVuSans-33" d="M 2597 2516 
Q 3050 2419 3304 2112 
Q 3559 1806 3559 1356 
Q 3559 666 3084 287 
Q 2609 -91 1734 -91 
Q 1441 -91 1130 -33 
Q 819 25 488 141 
L 488 750 
Q 750 597 1062 519 
Q 1375 441 1716 441 
Q 2309 441 2620 675 
Q 2931 909 2931 1356 
Q 2931 1769 2642 2001 
Q 2353 2234 1838 2234 
L 1294 2234 
L 1294 2753 
L 1863 2753 
Q 2328 2753 2575 2939 
Q 2822 3125 2822 3475 
Q 2822 3834 2567 4026 
Q 2313 4219 1838 4219 
Q 1578 4219 1281 4162 
Q 984 4106 628 3988 
L 628 4550 
Q 988 4650 1302 4700 
Q 1616 4750 1894 4750 
Q 2613 4750 3031 4423 
Q 3450 4097 3450 3541 
Q 3450 3153 3228 2886 
Q 3006 2619 2597 2516 
z
" transform="scale(0.015625)"/>
       </defs>
       <use xlink:href="#DejaVuSans-33"/>
       <use xlink:href="#DejaVuSans-30" x="63.623047"/>
      </g>
     </g>
    </g>
    <g id="xtick_5">
     <g id="line2d_5">
      <g>
       <use xlink:href="#mec1fa70db1" x="556.500605" y="385.478125" style="stroke: #000000; stroke-width: 0.8"/>
      </g>
     </g>
     <g id="text_5">
      <!-- 40 -->
      <g transform="translate(550.138105 400.076562) scale(0.1 -0.1)">
       <defs>
        <path id="DejaVuSans-34" d="M 2419 4116 
L 825 1625 
L 2419 1625 
L 2419 4116 
z
M 2253 4666 
L 3047 4666 
L 3047 1625 
L 3713 1625 
L 3713 1100 
L 3047 1100 
L 3047 0 
L 2419 0 
L 2419 1100 
L 313 1100 
L 313 1709 
L 2253 4666 
z
" transform="scale(0.015625)"/>
       </defs>
       <use xlink:href="#DejaVuSans-34"/>
       <use xlink:href="#DejaVuSans-30" x="63.623047"/>
      </g>
     </g>
    </g>
    <g id="xtick_6">
     <g id="line2d_6">
      <g>
       <use xlink:href="#mec1fa70db1" x="676.911694" y="385.478125" style="stroke: #000000; stroke-width: 0.8"/>
      </g>
     </g>
     <g id="text_6">
      <!-- 50 -->
      <g transform="translate(670.549194 400.076562) scale(0.1 -0.1)">
       <defs>
        <path id="DejaVuSans-35" d="M 691 4666 
L 3169 4666 
L 3169 4134 
L 1269 4134 
L 1269 2991 
Q 1406 3038 1543 3061 
Q 1681 3084 1819 3084 
Q 2600 3084 3056 2656 
Q 3513 2228 3513 1497 
Q 3513 744 3044 326 
Q 2575 -91 1722 -91 
Q 1428 -91 1123 -41 
Q 819 9 494 109 
L 494 744 
Q 775 591 1075 516 
Q 1375 441 1709 441 
Q 2250 441 2565 725 
Q 2881 1009 2881 1497 
Q 2881 1984 2565 2268 
Q 2250 2553 1709 2553 
Q 1456 2553 1204 2497 
Q 953 2441 691 2322 
L 691 4666 
z
" transform="scale(0.015625)"/>
       </defs>
       <use xlink:href="#DejaVuSans-35"/>
       <use xlink:href="#DejaVuSans-30" x="63.623047"/>
      </g>
     </g>
    </g>
    <g id="xtick_7">
     <g id="line2d_7">
      <g>
       <use xlink:href="#mec1fa70db1" x="797.322783" y="385.478125" style="stroke: #000000; stroke-width: 0.8"/>
      </g>
     </g>
     <g id="text_7">
      <!-- 60 -->
      <g transform="translate(790.960283 400.076562) scale(0.1 -0.1)">
       <defs>
        <path id="DejaVuSans-36" d="M 2113 2584 
Q 1688 2584 1439 2293 
Q 1191 2003 1191 1497 
Q 1191 994 1439 701 
Q 1688 409 2113 409 
Q 2538 409 2786 701 
Q 3034 994 3034 1497 
Q 3034 2003 2786 2293 
Q 2538 2584 2113 2584 
z
M 3366 4563 
L 3366 3988 
Q 3128 4100 2886 4159 
Q 2644 4219 2406 4219 
Q 1781 4219 1451 3797 
Q 1122 3375 1075 2522 
Q 1259 2794 1537 2939 
Q 1816 3084 2150 3084 
Q 2853 3084 3261 2657 
Q 3669 2231 3669 1497 
Q 3669 778 3244 343 
Q 2819 -91 2113 -91 
Q 1303 -91 875 529 
Q 447 1150 447 2328 
Q 447 3434 972 4092 
Q 1497 4750 2381 4750 
Q 2619 4750 2861 4703 
Q 3103 4656 3366 4563 
z
" transform="scale(0.015625)"/>
       </defs>
       <use xlink:href="#DejaVuSans-36"/>
       <use xlink:href="#DejaVuSans-30" x="63.623047"/>
      </g>
     </g>
    </g>
    <g id="text_8">
     <!-- TCO2 -->
     <g transform="translate(434.761875 413.754687) scale(0.1 -0.1)">
      <defs>
       <path id="DejaVuSans-54" d="M -19 4666 
L 3928 4666 
L 3928 4134 
L 2272 4134 
L 2272 0 
L 1638 0 
L 1638 4134 
L -19 4134 
L -19 4666 
z
" transform="scale(0.015625)"/>
       <path id="DejaVuSans-43" d="M 4122 4306 
L 4122 3641 
Q 3803 3938 3442 4084 
Q 3081 4231 2675 4231 
Q 1875 4231 1450 3742 
Q 1025 3253 1025 2328 
Q 1025 1406 1450 917 
Q 1875 428 2675 428 
Q 3081 428 3442 575 
Q 3803 722 4122 1019 
L 4122 359 
Q 3791 134 3420 21 
Q 3050 -91 2638 -91 
Q 1578 -91 968 557 
Q 359 1206 359 2328 
Q 359 3453 968 4101 
Q 1578 4750 2638 4750 
Q 3056 4750 3426 4639 
Q 3797 4528 4122 4306 
z
" transform="scale(0.015625)"/>
       <path id="DejaVuSans-4f" d="M 2522 4238 
Q 1834 4238 1429 3725 
Q 1025 3213 1025 2328 
Q 1025 1447 1429 934 
Q 1834 422 2522 422 
Q 3209 422 3611 934 
Q 4013 1447 4013 2328 
Q 4013 3213 3611 3725 
Q 3209 4238 2522 4238 
z
M 2522 4750 
Q 3503 4750 4090 4092 
Q 4678 3434 4678 2328 
Q 4678 1225 4090 567 
Q 3503 -91 2522 -91 
Q 1538 -91 948 565 
Q 359 1222 359 2328 
Q 359 3434 948 4092 
Q 1538 4750 2522 4750 
z
" transform="scale(0.015625)"/>
      </defs>
      <use xlink:href="#DejaVuSans-54"/>
      <use xlink:href="#DejaVuSans-43" x="55.208984"/>
      <use xlink:href="#DejaVuSans-4f" x="125.033203"/>
      <use xlink:href="#DejaVuSans-32" x="203.744141"/>
     </g>
    </g>
   </g>
   <g id="matplotlib.axis_2">
    <g id="ytick_1">
     <g id="line2d_8">
      <defs>
       <path id="mc77875e17b" d="M 0 0 
L -3.5 0 
" style="stroke: #000000; stroke-width: 0.8"/>
      </defs>
      <g>
       <use xlink:href="#mc77875e17b" x="46.965625" y="385.478125" style="stroke: #000000; stroke-width: 0.8"/>
      </g>
     </g>
     <g id="text_9">
      <!-- 0 -->
      <g transform="translate(33.603125 389.277344) scale(0.1 -0.1)">
       <use xlink:href="#DejaVuSans-30"/>
      </g>
     </g>
    </g>
    <g id="ytick_2">
     <g id="line2d_9">
      <g>
       <use xlink:href="#mc77875e17b" x="46.965625" y="335.784638" style="stroke: #000000; stroke-width: 0.8"/>
      </g>
     </g>
     <g id="text_10">
      <!-- 100 -->
      <g transform="translate(20.878125 339.583857) scale(0.1 -0.1)">
       <use xlink:href="#DejaVuSans-31"/>
       <use xlink:href="#DejaVuSans-30" x="63.623047"/>
       <use xlink:href="#DejaVuSans-30" x="127.246094"/>
      </g>
     </g>
    </g>
    <g id="ytick_3">
     <g id="line2d_10">
      <g>
       <use xlink:href="#mc77875e17b" x="46.965625" y="286.091152" style="stroke: #000000; stroke-width: 0.8"/>
      </g>
     </g>
     <g id="text_11">
      <!-- 200 -->
      <g transform="translate(20.878125 289.890371) scale(0.1 -0.1)">
       <use xlink:href="#DejaVuSans-32"/>
       <use xlink:href="#DejaVuSans-30" x="63.623047"/>
       <use xlink:href="#DejaVuSans-30" x="127.246094"/>
      </g>
     </g>
    </g>
    <g id="ytick_4">
     <g id="line2d_11">
      <g>
       <use xlink:href="#mc77875e17b" x="46.965625" y="236.397665" style="stroke: #000000; stroke-width: 0.8"/>
      </g>
     </g>
     <g id="text_12">
      <!-- 300 -->
      <g transform="translate(20.878125 240.196884) scale(0.1 -0.1)">
       <use xlink:href="#DejaVuSans-33"/>
       <use xlink:href="#DejaVuSans-30" x="63.623047"/>
       <use xlink:href="#DejaVuSans-30" x="127.246094"/>
      </g>
     </g>
    </g>
    <g id="ytick_5">
     <g id="line2d_12">
      <g>
       <use xlink:href="#mc77875e17b" x="46.965625" y="186.704179" style="stroke: #000000; stroke-width: 0.8"/>
      </g>
     </g>
     <g id="text_13">
      <!-- 400 -->
      <g transform="translate(20.878125 190.503397) scale(0.1 -0.1)">
       <use xlink:href="#DejaVuSans-34"/>
       <use xlink:href="#DejaVuSans-30" x="63.623047"/>
       <use xlink:href="#DejaVuSans-30" x="127.246094"/>
      </g>
     </g>
    </g>
    <g id="ytick_6">
     <g id="line2d_13">
      <g>
       <use xlink:href="#mc77875e17b" x="46.965625" y="137.010692" style="stroke: #000000; stroke-width: 0.8"/>
      </g>
     </g>
     <g id="text_14">
      <!-- 500 -->
      <g transform="translate(20.878125 140.809911) scale(0.1 -0.1)">
       <use xlink:href="#DejaVuSans-35"/>
       <use xlink:href="#DejaVuSans-30" x="63.623047"/>
       <use xlink:href="#DejaVuSans-30" x="127.246094"/>
      </g>
     </g>
    </g>
    <g id="ytick_7">
     <g id="line2d_14">
      <g>
       <use xlink:href="#mc77875e17b" x="46.965625" y="87.317205" style="stroke: #000000; stroke-width: 0.8"/>
      </g>
     </g>
     <g id="text_15">
      <!-- 600 -->
      <g transform="translate(20.878125 91.116424) scale(0.1 -0.1)">
       <use xlink:href="#DejaVuSans-36"/>
       <use xlink:href="#DejaVuSans-30" x="63.623047"/>
       <use xlink:href="#DejaVuSans-30" x="127.246094"/>
      </g>
     </g>
    </g>
    <g id="ytick_8">
     <g id="line2d_15">
      <g>
       <use xlink:href="#mc77875e17b" x="46.965625" y="37.623719" style="stroke: #000000; stroke-width: 0.8"/>
      </g>
     </g>
     <g id="text_16">
      <!-- 700 -->
      <g transform="translate(20.878125 41.422938) scale(0.1 -0.1)">
       <defs>
        <path id="DejaVuSans-37" d="M 525 4666 
L 3525 4666 
L 3525 4397 
L 1831 0 
L 1172 0 
L 2766 4134 
L 525 4134 
L 525 4666 
z
" transform="scale(0.015625)"/>
       </defs>
       <use xlink:href="#DejaVuSans-37"/>
       <use xlink:href="#DejaVuSans-30" x="63.623047"/>
       <use xlink:href="#DejaVuSans-30" x="127.246094"/>
      </g>
     </g>
    </g>
    <g id="text_17">
     <!-- Count -->
     <g transform="translate(14.798437 218.746562) rotate(-90) scale(0.1 -0.1)">
      <defs>
       <path id="DejaVuSans-6f" d="M 1959 3097 
Q 1497 3097 1228 2736 
Q 959 2375 959 1747 
Q 959 1119 1226 758 
Q 1494 397 1959 397 
Q 2419 397 2687 759 
Q 2956 1122 2956 1747 
Q 2956 2369 2687 2733 
Q 2419 3097 1959 3097 
z
M 1959 3584 
Q 2709 3584 3137 3096 
Q 3566 2609 3566 1747 
Q 3566 888 3137 398 
Q 2709 -91 1959 -91 
Q 1206 -91 779 398 
Q 353 888 353 1747 
Q 353 2609 779 3096 
Q 1206 3584 1959 3584 
z
" transform="scale(0.015625)"/>
       <path id="DejaVuSans-75" d="M 544 1381 
L 544 3500 
L 1119 3500 
L 1119 1403 
Q 1119 906 1312 657 
Q 1506 409 1894 409 
Q 2359 409 2629 706 
Q 2900 1003 2900 1516 
L 2900 3500 
L 3475 3500 
L 3475 0 
L 2900 0 
L 2900 538 
Q 2691 219 2414 64 
Q 2138 -91 1772 -91 
Q 1169 -91 856 284 
Q 544 659 544 1381 
z
M 1991 3584 
L 1991 3584 
z
" transform="scale(0.015625)"/>
       <path id="DejaVuSans-6e" d="M 3513 2113 
L 3513 0 
L 2938 0 
L 2938 2094 
Q 2938 2591 2744 2837 
Q 2550 3084 2163 3084 
Q 1697 3084 1428 2787 
Q 1159 2491 1159 1978 
L 1159 0 
L 581 0 
L 581 3500 
L 1159 3500 
L 1159 2956 
Q 1366 3272 1645 3428 
Q 1925 3584 2291 3584 
Q 2894 3584 3203 3211 
Q 3513 2838 3513 2113 
z
" transform="scale(0.015625)"/>
       <path id="DejaVuSans-74" d="M 1172 4494 
L 1172 3500 
L 2356 3500 
L 2356 3053 
L 1172 3053 
L 1172 1153 
Q 1172 725 1289 603 
Q 1406 481 1766 481 
L 2356 481 
L 2356 0 
L 1766 0 
Q 1100 0 847 248 
Q 594 497 594 1153 
L 594 3053 
L 172 3053 
L 172 3500 
L 594 3500 
L 594 4494 
L 1172 4494 
z
" transform="scale(0.015625)"/>
      </defs>
      <use xlink:href="#DejaVuSans-43"/>
      <use xlink:href="#DejaVuSans-6f" x="69.824219"/>
      <use xlink:href="#DejaVuSans-75" x="131.005859"/>
      <use xlink:href="#DejaVuSans-6e" x="194.384766"/>
      <use xlink:href="#DejaVuSans-74" x="257.763672"/>
     </g>
    </g>
   </g>
   <g id="line2d_16">
    <path d="M 110.979575 385.276153 
L 141.47565 384.912768 
L 158.417914 384.284587 
L 168.583272 383.839329 
L 185.525536 383.384333 
L 192.302442 382.757039 
L 199.079347 381.935098 
L 205.856253 380.89982 
L 209.244705 380.235243 
L 216.021611 378.577954 
L 226.186969 375.634947 
L 236.352328 372.73192 
L 239.74078 371.914102 
L 249.906139 369.886706 
L 253.294591 368.953693 
L 256.683044 367.669374 
L 260.071497 366.058084 
L 266.848402 362.558954 
L 277.013761 357.883742 
L 280.402213 355.865267 
L 283.790666 353.241976 
L 287.179119 349.903847 
L 290.567572 345.838221 
L 293.956024 341.125117 
L 297.344477 335.944072 
L 304.121383 325.217266 
L 310.898288 315.102012 
L 317.675194 305.282649 
L 324.452099 294.992092 
L 331.229005 284.089082 
L 348.171269 255.974082 
L 354.948174 245.457812 
L 358.336627 240.4727 
L 361.72508 235.696276 
L 365.113532 231.152974 
L 371.890438 222.59433 
L 375.278891 218.488055 
L 378.667343 214.648021 
L 382.055796 211.448042 
L 385.444249 209.436017 
L 388.832702 209.14058 
L 392.221154 210.814309 
L 395.609607 214.352706 
L 398.99806 219.443665 
L 402.386513 225.733633 
L 405.774966 232.885046 
L 409.163418 240.61116 
L 415.940324 257.102388 
L 432.882588 299.930518 
L 436.27104 307.988522 
L 439.659493 315.717818 
L 443.047946 323.138681 
L 449.824851 337.174954 
L 453.213304 343.760376 
L 456.601757 349.916533 
L 459.99021 355.490022 
L 463.378662 360.371469 
L 466.767115 364.52541 
L 470.155568 367.979993 
L 473.544021 370.810906 
L 476.932473 373.127905 
L 480.320926 375.056049 
L 483.709379 376.712352 
L 487.097832 378.184396 
L 490.486284 379.518585 
L 493.874737 380.724721 
L 497.26319 381.792224 
L 500.651643 382.703743 
L 504.040096 383.440811 
L 507.428548 383.989697 
L 510.817001 384.352008 
L 514.205454 384.552142 
L 520.982359 384.645048 
L 531.147718 384.657175 
L 541.313076 384.967388 
L 551.478434 385.284283 
L 561.643792 385.345514 
L 595.52832 385.344383 
L 622.635942 385.45782 
L 649.743564 385.391949 
L 670.074281 385.477269 
L 775.116316 385.403 
L 785.281675 385.339461 
L 785.281675 385.339461 
" clip-path="url(#pe4eba61913)" style="fill: none; stroke: #1f77b4; stroke-width: 1.5; stroke-linecap: square"/>
   </g>
   <g id="line2d_17">
    <path d="M 83.43517 385.478125 
L 812.82608 385.478125 
L 812.82608 385.478125 
" clip-path="url(#pe4eba61913)" style="fill: none; stroke: #1f77b4; stroke-width: 1.5; stroke-linecap: square"/>
   </g>
   <g id="patch_108">
    <path d="M 46.965625 385.478125 
L 46.965625 22.318125 
" style="fill: none; stroke: #000000; stroke-width: 0.8; stroke-linejoin: miter; stroke-linecap: square"/>
   </g>
   <g id="patch_109">
    <path d="M 849.295625 385.478125 
L 849.295625 22.318125 
" style="fill: none; stroke: #000000; stroke-width: 0.8; stroke-linejoin: miter; stroke-linecap: square"/>
   </g>
   <g id="patch_110">
    <path d="M 46.965625 385.478125 
L 849.295625 385.478125 
" style="fill: none; stroke: #000000; stroke-width: 0.8; stroke-linejoin: miter; stroke-linecap: square"/>
   </g>
   <g id="patch_111">
    <path d="M 46.965625 22.318125 
L 849.295625 22.318125 
" style="fill: none; stroke: #000000; stroke-width: 0.8; stroke-linejoin: miter; stroke-linecap: square"/>
   </g>
   <g id="text_18">
    <!-- Distribution of TCO2 -->
    <g transform="translate(387.488438 16.318125) scale(0.12 -0.12)">
     <defs>
      <path id="DejaVuSans-44" d="M 1259 4147 
L 1259 519 
L 2022 519 
Q 2988 519 3436 956 
Q 3884 1394 3884 2338 
Q 3884 3275 3436 3711 
Q 2988 4147 2022 4147 
L 1259 4147 
z
M 628 4666 
L 1925 4666 
Q 3281 4666 3915 4102 
Q 4550 3538 4550 2338 
Q 4550 1131 3912 565 
Q 3275 0 1925 0 
L 628 0 
L 628 4666 
z
" transform="scale(0.015625)"/>
      <path id="DejaVuSans-69" d="M 603 3500 
L 1178 3500 
L 1178 0 
L 603 0 
L 603 3500 
z
M 603 4863 
L 1178 4863 
L 1178 4134 
L 603 4134 
L 603 4863 
z
" transform="scale(0.015625)"/>
      <path id="DejaVuSans-73" d="M 2834 3397 
L 2834 2853 
Q 2591 2978 2328 3040 
Q 2066 3103 1784 3103 
Q 1356 3103 1142 2972 
Q 928 2841 928 2578 
Q 928 2378 1081 2264 
Q 1234 2150 1697 2047 
L 1894 2003 
Q 2506 1872 2764 1633 
Q 3022 1394 3022 966 
Q 3022 478 2636 193 
Q 2250 -91 1575 -91 
Q 1294 -91 989 -36 
Q 684 19 347 128 
L 347 722 
Q 666 556 975 473 
Q 1284 391 1588 391 
Q 1994 391 2212 530 
Q 2431 669 2431 922 
Q 2431 1156 2273 1281 
Q 2116 1406 1581 1522 
L 1381 1569 
Q 847 1681 609 1914 
Q 372 2147 372 2553 
Q 372 3047 722 3315 
Q 1072 3584 1716 3584 
Q 2034 3584 2315 3537 
Q 2597 3491 2834 3397 
z
" transform="scale(0.015625)"/>
      <path id="DejaVuSans-72" d="M 2631 2963 
Q 2534 3019 2420 3045 
Q 2306 3072 2169 3072 
Q 1681 3072 1420 2755 
Q 1159 2438 1159 1844 
L 1159 0 
L 581 0 
L 581 3500 
L 1159 3500 
L 1159 2956 
Q 1341 3275 1631 3429 
Q 1922 3584 2338 3584 
Q 2397 3584 2469 3576 
Q 2541 3569 2628 3553 
L 2631 2963 
z
" transform="scale(0.015625)"/>
      <path id="DejaVuSans-62" d="M 3116 1747 
Q 3116 2381 2855 2742 
Q 2594 3103 2138 3103 
Q 1681 3103 1420 2742 
Q 1159 2381 1159 1747 
Q 1159 1113 1420 752 
Q 1681 391 2138 391 
Q 2594 391 2855 752 
Q 3116 1113 3116 1747 
z
M 1159 2969 
Q 1341 3281 1617 3432 
Q 1894 3584 2278 3584 
Q 2916 3584 3314 3078 
Q 3713 2572 3713 1747 
Q 3713 922 3314 415 
Q 2916 -91 2278 -91 
Q 1894 -91 1617 61 
Q 1341 213 1159 525 
L 1159 0 
L 581 0 
L 581 4863 
L 1159 4863 
L 1159 2969 
z
" transform="scale(0.015625)"/>
      <path id="DejaVuSans-20" transform="scale(0.015625)"/>
      <path id="DejaVuSans-66" d="M 2375 4863 
L 2375 4384 
L 1825 4384 
Q 1516 4384 1395 4259 
Q 1275 4134 1275 3809 
L 1275 3500 
L 2222 3500 
L 2222 3053 
L 1275 3053 
L 1275 0 
L 697 0 
L 697 3053 
L 147 3053 
L 147 3500 
L 697 3500 
L 697 3744 
Q 697 4328 969 4595 
Q 1241 4863 1831 4863 
L 2375 4863 
z
" transform="scale(0.015625)"/>
     </defs>
     <use xlink:href="#DejaVuSans-44"/>
     <use xlink:href="#DejaVuSans-69" x="77.001953"/>
     <use xlink:href="#DejaVuSans-73" x="104.785156"/>
     <use xlink:href="#DejaVuSans-74" x="156.884766"/>
     <use xlink:href="#DejaVuSans-72" x="196.09375"/>
     <use xlink:href="#DejaVuSans-69" x="237.207031"/>
     <use xlink:href="#DejaVuSans-62" x="264.990234"/>
     <use xlink:href="#DejaVuSans-75" x="328.466797"/>
     <use xlink:href="#DejaVuSans-74" x="391.845703"/>
     <use xlink:href="#DejaVuSans-69" x="431.054688"/>
     <use xlink:href="#DejaVuSans-6f" x="458.837891"/>
     <use xlink:href="#DejaVuSans-6e" x="520.019531"/>
     <use xlink:href="#DejaVuSans-20" x="583.398438"/>
     <use xlink:href="#DejaVuSans-6f" x="615.185547"/>
     <use xlink:href="#DejaVuSans-66" x="676.367188"/>
     <use xlink:href="#DejaVuSans-20" x="711.572266"/>
     <use xlink:href="#DejaVuSans-54" x="743.359375"/>
     <use xlink:href="#DejaVuSans-43" x="798.568359"/>
     <use xlink:href="#DejaVuSans-4f" x="868.392578"/>
     <use xlink:href="#DejaVuSans-32" x="947.103516"/>
    </g>
   </g>
  </g>
 </g>
 <defs>
  <clipPath id="pe4eba61913">
   <rect x="46.965625" y="22.318125" width="802.33" height="363.16"/>
  </clipPath>
 </defs>
</svg>
