<?xml version="1.0" encoding="utf-8" standalone="no"?>
<!DOCTYPE svg PUBLIC "-//W3C//DTD SVG 1.1//EN"
  "http://www.w3.org/Graphics/SVG/1.1/DTD/svg11.dtd">
<svg xmlns:xlink="http://www.w3.org/1999/xlink" width="856.58625pt" height="423.034375pt" viewBox="0 0 856.58625 423.034375" xmlns="http://www.w3.org/2000/svg" version="1.1">
 <metadata>
  <rdf:RDF xmlns:dc="http://purl.org/dc/elements/1.1/" xmlns:cc="http://creativecommons.org/ns#" xmlns:rdf="http://www.w3.org/1999/02/22-rdf-syntax-ns#">
   <cc:Work>
    <dc:type rdf:resource="http://purl.org/dc/dcmitype/StillImage"/>
    <dc:date>2024-07-14T15:45:50.173790</dc:date>
    <dc:format>image/svg+xml</dc:format>
    <dc:creator>
     <cc:Agent>
      <dc:title>Matplotlib v3.9.0, https://matplotlib.org/</dc:title>
     </cc:Agent>
    </dc:creator>
   </cc:Work>
  </rdf:RDF>
 </metadata>
 <defs>
  <style type="text/css">*{stroke-linejoin: round; stroke-linecap: butt}</style>
 </defs>
 <g id="figure_1">
  <g id="patch_1">
   <path d="M 0 423.034375 
L 856.58625 423.034375 
L 856.58625 0 
L 0 0 
z
" style="fill: #ffffff"/>
  </g>
  <g id="axes_1">
   <g id="patch_2">
    <path d="M 56.50625 385.478125 
L 849.38625 385.478125 
L 849.38625 22.318125 
L 56.50625 22.318125 
z
" style="fill: #ffffff"/>
   </g>
   <g id="patch_3">
    <path d="M 92.54625 385.478125 
L 99.411012 385.478125 
L 99.411012 384.98119 
L 92.54625 384.98119 
z
" clip-path="url(#p64201168bc)" style="fill: #1f77b4; fill-opacity: 0.75; stroke: #000000; stroke-width: 0.57974; stroke-linejoin: miter"/>
   </g>
   <g id="patch_4">
    <path d="M 99.411012 385.478125 
L 106.275774 385.478125 
L 106.275774 384.98119 
L 99.411012 384.98119 
z
" clip-path="url(#p64201168bc)" style="fill: #1f77b4; fill-opacity: 0.75; stroke: #000000; stroke-width: 0.57974; stroke-linejoin: miter"/>
   </g>
   <g id="patch_5">
    <path d="M 106.275774 385.478125 
L 113.140536 385.478125 
L 113.140536 385.478125 
L 106.275774 385.478125 
z
" clip-path="url(#p64201168bc)" style="fill: #1f77b4; fill-opacity: 0.75; stroke: #000000; stroke-width: 0.57974; stroke-linejoin: miter"/>
   </g>
   <g id="patch_6">
    <path d="M 113.140536 385.478125 
L 120.005298 385.478125 
L 120.005298 384.98119 
L 113.140536 384.98119 
z
" clip-path="url(#p64201168bc)" style="fill: #1f77b4; fill-opacity: 0.75; stroke: #000000; stroke-width: 0.57974; stroke-linejoin: miter"/>
   </g>
   <g id="patch_7">
    <path d="M 120.005298 385.478125 
L 126.87006 385.478125 
L 126.87006 385.478125 
L 120.005298 385.478125 
z
" clip-path="url(#p64201168bc)" style="fill: #1f77b4; fill-opacity: 0.75; stroke: #000000; stroke-width: 0.57974; stroke-linejoin: miter"/>
   </g>
   <g id="patch_8">
    <path d="M 126.87006 385.478125 
L 133.734821 385.478125 
L 133.734821 383.98732 
L 126.87006 383.98732 
z
" clip-path="url(#p64201168bc)" style="fill: #1f77b4; fill-opacity: 0.75; stroke: #000000; stroke-width: 0.57974; stroke-linejoin: miter"/>
   </g>
   <g id="patch_9">
    <path d="M 133.734821 385.478125 
L 140.599583 385.478125 
L 140.599583 385.478125 
L 133.734821 385.478125 
z
" clip-path="url(#p64201168bc)" style="fill: #1f77b4; fill-opacity: 0.75; stroke: #000000; stroke-width: 0.57974; stroke-linejoin: miter"/>
   </g>
   <g id="patch_10">
    <path d="M 140.599583 385.478125 
L 147.464345 385.478125 
L 147.464345 383.490386 
L 140.599583 383.490386 
z
" clip-path="url(#p64201168bc)" style="fill: #1f77b4; fill-opacity: 0.75; stroke: #000000; stroke-width: 0.57974; stroke-linejoin: miter"/>
   </g>
   <g id="patch_11">
    <path d="M 147.464345 385.478125 
L 154.329107 385.478125 
L 154.329107 385.478125 
L 147.464345 385.478125 
z
" clip-path="url(#p64201168bc)" style="fill: #1f77b4; fill-opacity: 0.75; stroke: #000000; stroke-width: 0.57974; stroke-linejoin: miter"/>
   </g>
   <g id="patch_12">
    <path d="M 154.329107 385.478125 
L 161.193869 385.478125 
L 161.193869 381.502646 
L 154.329107 381.502646 
z
" clip-path="url(#p64201168bc)" style="fill: #1f77b4; fill-opacity: 0.75; stroke: #000000; stroke-width: 0.57974; stroke-linejoin: miter"/>
   </g>
   <g id="patch_13">
    <path d="M 161.193869 385.478125 
L 168.058631 385.478125 
L 168.058631 385.478125 
L 161.193869 385.478125 
z
" clip-path="url(#p64201168bc)" style="fill: #1f77b4; fill-opacity: 0.75; stroke: #000000; stroke-width: 0.57974; stroke-linejoin: miter"/>
   </g>
   <g id="patch_14">
    <path d="M 168.058631 385.478125 
L 174.923393 385.478125 
L 174.923393 382.993451 
L 168.058631 382.993451 
z
" clip-path="url(#p64201168bc)" style="fill: #1f77b4; fill-opacity: 0.75; stroke: #000000; stroke-width: 0.57974; stroke-linejoin: miter"/>
   </g>
   <g id="patch_15">
    <path d="M 174.923393 385.478125 
L 181.788155 385.478125 
L 181.788155 385.478125 
L 174.923393 385.478125 
z
" clip-path="url(#p64201168bc)" style="fill: #1f77b4; fill-opacity: 0.75; stroke: #000000; stroke-width: 0.57974; stroke-linejoin: miter"/>
   </g>
   <g id="patch_16">
    <path d="M 181.788155 385.478125 
L 188.652917 385.478125 
L 188.652917 379.514907 
L 181.788155 379.514907 
z
" clip-path="url(#p64201168bc)" style="fill: #1f77b4; fill-opacity: 0.75; stroke: #000000; stroke-width: 0.57974; stroke-linejoin: miter"/>
   </g>
   <g id="patch_17">
    <path d="M 188.652917 385.478125 
L 195.517679 385.478125 
L 195.517679 385.478125 
L 188.652917 385.478125 
z
" clip-path="url(#p64201168bc)" style="fill: #1f77b4; fill-opacity: 0.75; stroke: #000000; stroke-width: 0.57974; stroke-linejoin: miter"/>
   </g>
   <g id="patch_18">
    <path d="M 195.517679 385.478125 
L 202.38244 385.478125 
L 202.38244 377.527167 
L 195.517679 377.527167 
z
" clip-path="url(#p64201168bc)" style="fill: #1f77b4; fill-opacity: 0.75; stroke: #000000; stroke-width: 0.57974; stroke-linejoin: miter"/>
   </g>
   <g id="patch_19">
    <path d="M 202.38244 385.478125 
L 209.247202 385.478125 
L 209.247202 371.067014 
L 202.38244 371.067014 
z
" clip-path="url(#p64201168bc)" style="fill: #1f77b4; fill-opacity: 0.75; stroke: #000000; stroke-width: 0.57974; stroke-linejoin: miter"/>
   </g>
   <g id="patch_20">
    <path d="M 209.247202 385.478125 
L 216.111964 385.478125 
L 216.111964 385.478125 
L 209.247202 385.478125 
z
" clip-path="url(#p64201168bc)" style="fill: #1f77b4; fill-opacity: 0.75; stroke: #000000; stroke-width: 0.57974; stroke-linejoin: miter"/>
   </g>
   <g id="patch_21">
    <path d="M 216.111964 385.478125 
L 222.976726 385.478125 
L 222.976726 364.109926 
L 216.111964 364.109926 
z
" clip-path="url(#p64201168bc)" style="fill: #1f77b4; fill-opacity: 0.75; stroke: #000000; stroke-width: 0.57974; stroke-linejoin: miter"/>
   </g>
   <g id="patch_22">
    <path d="M 222.976726 385.478125 
L 229.841488 385.478125 
L 229.841488 385.478125 
L 222.976726 385.478125 
z
" clip-path="url(#p64201168bc)" style="fill: #1f77b4; fill-opacity: 0.75; stroke: #000000; stroke-width: 0.57974; stroke-linejoin: miter"/>
   </g>
   <g id="patch_23">
    <path d="M 229.841488 385.478125 
L 236.70625 385.478125 
L 236.70625 356.655903 
L 229.841488 356.655903 
z
" clip-path="url(#p64201168bc)" style="fill: #1f77b4; fill-opacity: 0.75; stroke: #000000; stroke-width: 0.57974; stroke-linejoin: miter"/>
   </g>
   <g id="patch_24">
    <path d="M 236.70625 385.478125 
L 243.571012 385.478125 
L 243.571012 385.478125 
L 236.70625 385.478125 
z
" clip-path="url(#p64201168bc)" style="fill: #1f77b4; fill-opacity: 0.75; stroke: #000000; stroke-width: 0.57974; stroke-linejoin: miter"/>
   </g>
   <g id="patch_25">
    <path d="M 243.571012 385.478125 
L 250.435774 385.478125 
L 250.435774 358.146707 
L 243.571012 358.146707 
z
" clip-path="url(#p64201168bc)" style="fill: #1f77b4; fill-opacity: 0.75; stroke: #000000; stroke-width: 0.57974; stroke-linejoin: miter"/>
   </g>
   <g id="patch_26">
    <path d="M 250.435774 385.478125 
L 257.300536 385.478125 
L 257.300536 385.478125 
L 250.435774 385.478125 
z
" clip-path="url(#p64201168bc)" style="fill: #1f77b4; fill-opacity: 0.75; stroke: #000000; stroke-width: 0.57974; stroke-linejoin: miter"/>
   </g>
   <g id="patch_27">
    <path d="M 257.300536 385.478125 
L 264.165298 385.478125 
L 264.165298 337.772378 
L 257.300536 337.772378 
z
" clip-path="url(#p64201168bc)" style="fill: #1f77b4; fill-opacity: 0.75; stroke: #000000; stroke-width: 0.57974; stroke-linejoin: miter"/>
   </g>
   <g id="patch_28">
    <path d="M 264.165298 385.478125 
L 271.03006 385.478125 
L 271.03006 385.478125 
L 264.165298 385.478125 
z
" clip-path="url(#p64201168bc)" style="fill: #1f77b4; fill-opacity: 0.75; stroke: #000000; stroke-width: 0.57974; stroke-linejoin: miter"/>
   </g>
   <g id="patch_29">
    <path d="M 271.03006 385.478125 
L 277.894821 385.478125 
L 277.894821 336.778508 
L 271.03006 336.778508 
z
" clip-path="url(#p64201168bc)" style="fill: #1f77b4; fill-opacity: 0.75; stroke: #000000; stroke-width: 0.57974; stroke-linejoin: miter"/>
   </g>
   <g id="patch_30">
    <path d="M 277.894821 385.478125 
L 284.759583 385.478125 
L 284.759583 384.484255 
L 277.894821 384.484255 
z
" clip-path="url(#p64201168bc)" style="fill: #1f77b4; fill-opacity: 0.75; stroke: #000000; stroke-width: 0.57974; stroke-linejoin: miter"/>
   </g>
   <g id="patch_31">
    <path d="M 284.759583 385.478125 
L 291.624345 385.478125 
L 291.624345 314.913374 
L 284.759583 314.913374 
z
" clip-path="url(#p64201168bc)" style="fill: #1f77b4; fill-opacity: 0.75; stroke: #000000; stroke-width: 0.57974; stroke-linejoin: miter"/>
   </g>
   <g id="patch_32">
    <path d="M 291.624345 385.478125 
L 298.489107 385.478125 
L 298.489107 384.98119 
L 291.624345 384.98119 
z
" clip-path="url(#p64201168bc)" style="fill: #1f77b4; fill-opacity: 0.75; stroke: #000000; stroke-width: 0.57974; stroke-linejoin: miter"/>
   </g>
   <g id="patch_33">
    <path d="M 298.489107 385.478125 
L 305.353869 385.478125 
L 305.353869 271.183106 
L 298.489107 271.183106 
z
" clip-path="url(#p64201168bc)" style="fill: #1f77b4; fill-opacity: 0.75; stroke: #000000; stroke-width: 0.57974; stroke-linejoin: miter"/>
   </g>
   <g id="patch_34">
    <path d="M 305.353869 385.478125 
L 312.218631 385.478125 
L 312.218631 242.857818 
L 305.353869 242.857818 
z
" clip-path="url(#p64201168bc)" style="fill: #1f77b4; fill-opacity: 0.75; stroke: #000000; stroke-width: 0.57974; stroke-linejoin: miter"/>
   </g>
   <g id="patch_35">
    <path d="M 312.218631 385.478125 
L 319.083393 385.478125 
L 319.083393 384.98119 
L 312.218631 384.98119 
z
" clip-path="url(#p64201168bc)" style="fill: #1f77b4; fill-opacity: 0.75; stroke: #000000; stroke-width: 0.57974; stroke-linejoin: miter"/>
   </g>
   <g id="patch_36">
    <path d="M 319.083393 385.478125 
L 325.948155 385.478125 
L 325.948155 207.078508 
L 319.083393 207.078508 
z
" clip-path="url(#p64201168bc)" style="fill: #1f77b4; fill-opacity: 0.75; stroke: #000000; stroke-width: 0.57974; stroke-linejoin: miter"/>
   </g>
   <g id="patch_37">
    <path d="M 325.948155 385.478125 
L 332.812917 385.478125 
L 332.812917 384.484255 
L 325.948155 384.484255 
z
" clip-path="url(#p64201168bc)" style="fill: #1f77b4; fill-opacity: 0.75; stroke: #000000; stroke-width: 0.57974; stroke-linejoin: miter"/>
   </g>
   <g id="patch_38">
    <path d="M 332.812917 385.478125 
L 339.677679 385.478125 
L 339.677679 170.305328 
L 332.812917 170.305328 
z
" clip-path="url(#p64201168bc)" style="fill: #1f77b4; fill-opacity: 0.75; stroke: #000000; stroke-width: 0.57974; stroke-linejoin: miter"/>
   </g>
   <g id="patch_39">
    <path d="M 339.677679 385.478125 
L 346.54244 385.478125 
L 346.54244 382.496516 
L 339.677679 382.496516 
z
" clip-path="url(#p64201168bc)" style="fill: #1f77b4; fill-opacity: 0.75; stroke: #000000; stroke-width: 0.57974; stroke-linejoin: miter"/>
   </g>
   <g id="patch_40">
    <path d="M 346.54244 385.478125 
L 353.407202 385.478125 
L 353.407202 132.538278 
L 346.54244 132.538278 
z
" clip-path="url(#p64201168bc)" style="fill: #1f77b4; fill-opacity: 0.75; stroke: #000000; stroke-width: 0.57974; stroke-linejoin: miter"/>
   </g>
   <g id="patch_41">
    <path d="M 353.407202 385.478125 
L 360.271964 385.478125 
L 360.271964 384.484255 
L 353.407202 384.484255 
z
" clip-path="url(#p64201168bc)" style="fill: #1f77b4; fill-opacity: 0.75; stroke: #000000; stroke-width: 0.57974; stroke-linejoin: miter"/>
   </g>
   <g id="patch_42">
    <path d="M 360.271964 385.478125 
L 367.136726 385.478125 
L 367.136726 98.746707 
L 360.271964 98.746707 
z
" clip-path="url(#p64201168bc)" style="fill: #1f77b4; fill-opacity: 0.75; stroke: #000000; stroke-width: 0.57974; stroke-linejoin: miter"/>
   </g>
   <g id="patch_43">
    <path d="M 367.136726 385.478125 
L 374.001488 385.478125 
L 374.001488 381.005711 
L 367.136726 381.005711 
z
" clip-path="url(#p64201168bc)" style="fill: #1f77b4; fill-opacity: 0.75; stroke: #000000; stroke-width: 0.57974; stroke-linejoin: miter"/>
   </g>
   <g id="patch_44">
    <path d="M 374.001488 385.478125 
L 380.86625 385.478125 
L 380.86625 76.881573 
L 374.001488 76.881573 
z
" clip-path="url(#p64201168bc)" style="fill: #1f77b4; fill-opacity: 0.75; stroke: #000000; stroke-width: 0.57974; stroke-linejoin: miter"/>
   </g>
   <g id="patch_45">
    <path d="M 380.86625 385.478125 
L 387.731012 385.478125 
L 387.731012 381.502646 
L 380.86625 381.502646 
z
" clip-path="url(#p64201168bc)" style="fill: #1f77b4; fill-opacity: 0.75; stroke: #000000; stroke-width: 0.57974; stroke-linejoin: miter"/>
   </g>
   <g id="patch_46">
    <path d="M 387.731012 385.478125 
L 394.595774 385.478125 
L 394.595774 39.611458 
L 387.731012 39.611458 
z
" clip-path="url(#p64201168bc)" style="fill: #1f77b4; fill-opacity: 0.75; stroke: #000000; stroke-width: 0.57974; stroke-linejoin: miter"/>
   </g>
   <g id="patch_47">
    <path d="M 394.595774 385.478125 
L 401.460536 385.478125 
L 401.460536 384.484255 
L 394.595774 384.484255 
z
" clip-path="url(#p64201168bc)" style="fill: #1f77b4; fill-opacity: 0.75; stroke: #000000; stroke-width: 0.57974; stroke-linejoin: miter"/>
   </g>
   <g id="patch_48">
    <path d="M 401.460536 385.478125 
L 408.325298 385.478125 
L 408.325298 71.41529 
L 401.460536 71.41529 
z
" clip-path="url(#p64201168bc)" style="fill: #1f77b4; fill-opacity: 0.75; stroke: #000000; stroke-width: 0.57974; stroke-linejoin: miter"/>
   </g>
   <g id="patch_49">
    <path d="M 408.325298 385.478125 
L 415.19006 385.478125 
L 415.19006 127.071995 
L 408.325298 127.071995 
z
" clip-path="url(#p64201168bc)" style="fill: #1f77b4; fill-opacity: 0.75; stroke: #000000; stroke-width: 0.57974; stroke-linejoin: miter"/>
   </g>
   <g id="patch_50">
    <path d="M 415.19006 385.478125 
L 422.054821 385.478125 
L 422.054821 384.484255 
L 415.19006 384.484255 
z
" clip-path="url(#p64201168bc)" style="fill: #1f77b4; fill-opacity: 0.75; stroke: #000000; stroke-width: 0.57974; stroke-linejoin: miter"/>
   </g>
   <g id="patch_51">
    <path d="M 422.054821 385.478125 
L 428.919583 385.478125 
L 428.919583 183.225635 
L 422.054821 183.225635 
z
" clip-path="url(#p64201168bc)" style="fill: #1f77b4; fill-opacity: 0.75; stroke: #000000; stroke-width: 0.57974; stroke-linejoin: miter"/>
   </g>
   <g id="patch_52">
    <path d="M 428.919583 385.478125 
L 435.784345 385.478125 
L 435.784345 385.478125 
L 428.919583 385.478125 
z
" clip-path="url(#p64201168bc)" style="fill: #1f77b4; fill-opacity: 0.75; stroke: #000000; stroke-width: 0.57974; stroke-linejoin: miter"/>
   </g>
   <g id="patch_53">
    <path d="M 435.784345 385.478125 
L 442.649107 385.478125 
L 442.649107 242.360884 
L 435.784345 242.360884 
z
" clip-path="url(#p64201168bc)" style="fill: #1f77b4; fill-opacity: 0.75; stroke: #000000; stroke-width: 0.57974; stroke-linejoin: miter"/>
   </g>
   <g id="patch_54">
    <path d="M 442.649107 385.478125 
L 449.513869 385.478125 
L 449.513869 385.478125 
L 442.649107 385.478125 
z
" clip-path="url(#p64201168bc)" style="fill: #1f77b4; fill-opacity: 0.75; stroke: #000000; stroke-width: 0.57974; stroke-linejoin: miter"/>
   </g>
   <g id="patch_55">
    <path d="M 449.513869 385.478125 
L 456.378631 385.478125 
L 456.378631 289.072761 
L 449.513869 289.072761 
z
" clip-path="url(#p64201168bc)" style="fill: #1f77b4; fill-opacity: 0.75; stroke: #000000; stroke-width: 0.57974; stroke-linejoin: miter"/>
   </g>
   <g id="patch_56">
    <path d="M 456.378631 385.478125 
L 463.243393 385.478125 
L 463.243393 385.478125 
L 456.378631 385.478125 
z
" clip-path="url(#p64201168bc)" style="fill: #1f77b4; fill-opacity: 0.75; stroke: #000000; stroke-width: 0.57974; stroke-linejoin: miter"/>
   </g>
   <g id="patch_57">
    <path d="M 463.243393 385.478125 
L 470.108155 385.478125 
L 470.108155 335.784638 
L 463.243393 335.784638 
z
" clip-path="url(#p64201168bc)" style="fill: #1f77b4; fill-opacity: 0.75; stroke: #000000; stroke-width: 0.57974; stroke-linejoin: miter"/>
   </g>
   <g id="patch_58">
    <path d="M 470.108155 385.478125 
L 476.972917 385.478125 
L 476.972917 385.478125 
L 470.108155 385.478125 
z
" clip-path="url(#p64201168bc)" style="fill: #1f77b4; fill-opacity: 0.75; stroke: #000000; stroke-width: 0.57974; stroke-linejoin: miter"/>
   </g>
   <g id="patch_59">
    <path d="M 476.972917 385.478125 
L 483.837679 385.478125 
L 483.837679 360.134447 
L 476.972917 360.134447 
z
" clip-path="url(#p64201168bc)" style="fill: #1f77b4; fill-opacity: 0.75; stroke: #000000; stroke-width: 0.57974; stroke-linejoin: miter"/>
   </g>
   <g id="patch_60">
    <path d="M 483.837679 385.478125 
L 490.70244 385.478125 
L 490.70244 384.98119 
L 483.837679 384.98119 
z
" clip-path="url(#p64201168bc)" style="fill: #1f77b4; fill-opacity: 0.75; stroke: #000000; stroke-width: 0.57974; stroke-linejoin: miter"/>
   </g>
   <g id="patch_61">
    <path d="M 490.70244 385.478125 
L 497.567202 385.478125 
L 497.567202 370.570079 
L 490.70244 370.570079 
z
" clip-path="url(#p64201168bc)" style="fill: #1f77b4; fill-opacity: 0.75; stroke: #000000; stroke-width: 0.57974; stroke-linejoin: miter"/>
   </g>
   <g id="patch_62">
    <path d="M 497.567202 385.478125 
L 504.431964 385.478125 
L 504.431964 385.478125 
L 497.567202 385.478125 
z
" clip-path="url(#p64201168bc)" style="fill: #1f77b4; fill-opacity: 0.75; stroke: #000000; stroke-width: 0.57974; stroke-linejoin: miter"/>
   </g>
   <g id="patch_63">
    <path d="M 504.431964 385.478125 
L 511.296726 385.478125 
L 511.296726 379.017972 
L 504.431964 379.017972 
z
" clip-path="url(#p64201168bc)" style="fill: #1f77b4; fill-opacity: 0.75; stroke: #000000; stroke-width: 0.57974; stroke-linejoin: miter"/>
   </g>
   <g id="patch_64">
    <path d="M 511.296726 385.478125 
L 518.161488 385.478125 
L 518.161488 384.484255 
L 511.296726 384.484255 
z
" clip-path="url(#p64201168bc)" style="fill: #1f77b4; fill-opacity: 0.75; stroke: #000000; stroke-width: 0.57974; stroke-linejoin: miter"/>
   </g>
   <g id="patch_65">
    <path d="M 518.161488 385.478125 
L 525.02625 385.478125 
L 525.02625 385.478125 
L 518.161488 385.478125 
z
" clip-path="url(#p64201168bc)" style="fill: #1f77b4; fill-opacity: 0.75; stroke: #000000; stroke-width: 0.57974; stroke-linejoin: miter"/>
   </g>
   <g id="patch_66">
    <path d="M 525.02625 385.478125 
L 531.891012 385.478125 
L 531.891012 383.98732 
L 525.02625 383.98732 
z
" clip-path="url(#p64201168bc)" style="fill: #1f77b4; fill-opacity: 0.75; stroke: #000000; stroke-width: 0.57974; stroke-linejoin: miter"/>
   </g>
   <g id="patch_67">
    <path d="M 531.891012 385.478125 
L 538.755774 385.478125 
L 538.755774 385.478125 
L 531.891012 385.478125 
z
" clip-path="url(#p64201168bc)" style="fill: #1f77b4; fill-opacity: 0.75; stroke: #000000; stroke-width: 0.57974; stroke-linejoin: miter"/>
   </g>
   <g id="patch_68">
    <path d="M 538.755774 385.478125 
L 545.620536 385.478125 
L 545.620536 383.490386 
L 538.755774 383.490386 
z
" clip-path="url(#p64201168bc)" style="fill: #1f77b4; fill-opacity: 0.75; stroke: #000000; stroke-width: 0.57974; stroke-linejoin: miter"/>
   </g>
   <g id="patch_69">
    <path d="M 545.620536 385.478125 
L 552.485298 385.478125 
L 552.485298 385.478125 
L 545.620536 385.478125 
z
" clip-path="url(#p64201168bc)" style="fill: #1f77b4; fill-opacity: 0.75; stroke: #000000; stroke-width: 0.57974; stroke-linejoin: miter"/>
   </g>
   <g id="patch_70">
    <path d="M 552.485298 385.478125 
L 559.35006 385.478125 
L 559.35006 384.98119 
L 552.485298 384.98119 
z
" clip-path="url(#p64201168bc)" style="fill: #1f77b4; fill-opacity: 0.75; stroke: #000000; stroke-width: 0.57974; stroke-linejoin: miter"/>
   </g>
   <g id="patch_71">
    <path d="M 559.35006 385.478125 
L 566.214821 385.478125 
L 566.214821 385.478125 
L 559.35006 385.478125 
z
" clip-path="url(#p64201168bc)" style="fill: #1f77b4; fill-opacity: 0.75; stroke: #000000; stroke-width: 0.57974; stroke-linejoin: miter"/>
   </g>
   <g id="patch_72">
    <path d="M 566.214821 385.478125 
L 573.079583 385.478125 
L 573.079583 385.478125 
L 566.214821 385.478125 
z
" clip-path="url(#p64201168bc)" style="fill: #1f77b4; fill-opacity: 0.75; stroke: #000000; stroke-width: 0.57974; stroke-linejoin: miter"/>
   </g>
   <g id="patch_73">
    <path d="M 573.079583 385.478125 
L 579.944345 385.478125 
L 579.944345 385.478125 
L 573.079583 385.478125 
z
" clip-path="url(#p64201168bc)" style="fill: #1f77b4; fill-opacity: 0.75; stroke: #000000; stroke-width: 0.57974; stroke-linejoin: miter"/>
   </g>
   <g id="patch_74">
    <path d="M 579.944345 385.478125 
L 586.809107 385.478125 
L 586.809107 384.98119 
L 579.944345 384.98119 
z
" clip-path="url(#p64201168bc)" style="fill: #1f77b4; fill-opacity: 0.75; stroke: #000000; stroke-width: 0.57974; stroke-linejoin: miter"/>
   </g>
   <g id="patch_75">
    <path d="M 586.809107 385.478125 
L 593.673869 385.478125 
L 593.673869 385.478125 
L 586.809107 385.478125 
z
" clip-path="url(#p64201168bc)" style="fill: #1f77b4; fill-opacity: 0.75; stroke: #000000; stroke-width: 0.57974; stroke-linejoin: miter"/>
   </g>
   <g id="patch_76">
    <path d="M 593.673869 385.478125 
L 600.538631 385.478125 
L 600.538631 385.478125 
L 593.673869 385.478125 
z
" clip-path="url(#p64201168bc)" style="fill: #1f77b4; fill-opacity: 0.75; stroke: #000000; stroke-width: 0.57974; stroke-linejoin: miter"/>
   </g>
   <g id="patch_77">
    <path d="M 600.538631 385.478125 
L 607.403393 385.478125 
L 607.403393 385.478125 
L 600.538631 385.478125 
z
" clip-path="url(#p64201168bc)" style="fill: #1f77b4; fill-opacity: 0.75; stroke: #000000; stroke-width: 0.57974; stroke-linejoin: miter"/>
   </g>
   <g id="patch_78">
    <path d="M 607.403393 385.478125 
L 614.268155 385.478125 
L 614.268155 384.98119 
L 607.403393 384.98119 
z
" clip-path="url(#p64201168bc)" style="fill: #1f77b4; fill-opacity: 0.75; stroke: #000000; stroke-width: 0.57974; stroke-linejoin: miter"/>
   </g>
   <g id="patch_79">
    <path d="M 614.268155 385.478125 
L 621.132917 385.478125 
L 621.132917 385.478125 
L 614.268155 385.478125 
z
" clip-path="url(#p64201168bc)" style="fill: #1f77b4; fill-opacity: 0.75; stroke: #000000; stroke-width: 0.57974; stroke-linejoin: miter"/>
   </g>
   <g id="patch_80">
    <path d="M 621.132917 385.478125 
L 627.997679 385.478125 
L 627.997679 385.478125 
L 621.132917 385.478125 
z
" clip-path="url(#p64201168bc)" style="fill: #1f77b4; fill-opacity: 0.75; stroke: #000000; stroke-width: 0.57974; stroke-linejoin: miter"/>
   </g>
   <g id="patch_81">
    <path d="M 627.997679 385.478125 
L 634.86244 385.478125 
L 634.86244 385.478125 
L 627.997679 385.478125 
z
" clip-path="url(#p64201168bc)" style="fill: #1f77b4; fill-opacity: 0.75; stroke: #000000; stroke-width: 0.57974; stroke-linejoin: miter"/>
   </g>
   <g id="patch_82">
    <path d="M 634.86244 385.478125 
L 641.727202 385.478125 
L 641.727202 385.478125 
L 634.86244 385.478125 
z
" clip-path="url(#p64201168bc)" style="fill: #1f77b4; fill-opacity: 0.75; stroke: #000000; stroke-width: 0.57974; stroke-linejoin: miter"/>
   </g>
   <g id="patch_83">
    <path d="M 641.727202 385.478125 
L 648.591964 385.478125 
L 648.591964 385.478125 
L 641.727202 385.478125 
z
" clip-path="url(#p64201168bc)" style="fill: #1f77b4; fill-opacity: 0.75; stroke: #000000; stroke-width: 0.57974; stroke-linejoin: miter"/>
   </g>
   <g id="patch_84">
    <path d="M 648.591964 385.478125 
L 655.456726 385.478125 
L 655.456726 385.478125 
L 648.591964 385.478125 
z
" clip-path="url(#p64201168bc)" style="fill: #1f77b4; fill-opacity: 0.75; stroke: #000000; stroke-width: 0.57974; stroke-linejoin: miter"/>
   </g>
   <g id="patch_85">
    <path d="M 655.456726 385.478125 
L 662.321488 385.478125 
L 662.321488 384.98119 
L 655.456726 384.98119 
z
" clip-path="url(#p64201168bc)" style="fill: #1f77b4; fill-opacity: 0.75; stroke: #000000; stroke-width: 0.57974; stroke-linejoin: miter"/>
   </g>
   <g id="patch_86">
    <path d="M 662.321488 385.478125 
L 669.18625 385.478125 
L 669.18625 385.478125 
L 662.321488 385.478125 
z
" clip-path="url(#p64201168bc)" style="fill: #1f77b4; fill-opacity: 0.75; stroke: #000000; stroke-width: 0.57974; stroke-linejoin: miter"/>
   </g>
   <g id="patch_87">
    <path d="M 669.18625 385.478125 
L 676.051012 385.478125 
L 676.051012 385.478125 
L 669.18625 385.478125 
z
" clip-path="url(#p64201168bc)" style="fill: #1f77b4; fill-opacity: 0.75; stroke: #000000; stroke-width: 0.57974; stroke-linejoin: miter"/>
   </g>
   <g id="patch_88">
    <path d="M 676.051012 385.478125 
L 682.915774 385.478125 
L 682.915774 385.478125 
L 676.051012 385.478125 
z
" clip-path="url(#p64201168bc)" style="fill: #1f77b4; fill-opacity: 0.75; stroke: #000000; stroke-width: 0.57974; stroke-linejoin: miter"/>
   </g>
   <g id="patch_89">
    <path d="M 682.915774 385.478125 
L 689.780536 385.478125 
L 689.780536 385.478125 
L 682.915774 385.478125 
z
" clip-path="url(#p64201168bc)" style="fill: #1f77b4; fill-opacity: 0.75; stroke: #000000; stroke-width: 0.57974; stroke-linejoin: miter"/>
   </g>
   <g id="patch_90">
    <path d="M 689.780536 385.478125 
L 696.645298 385.478125 
L 696.645298 385.478125 
L 689.780536 385.478125 
z
" clip-path="url(#p64201168bc)" style="fill: #1f77b4; fill-opacity: 0.75; stroke: #000000; stroke-width: 0.57974; stroke-linejoin: miter"/>
   </g>
   <g id="patch_91">
    <path d="M 696.645298 385.478125 
L 703.51006 385.478125 
L 703.51006 385.478125 
L 696.645298 385.478125 
z
" clip-path="url(#p64201168bc)" style="fill: #1f77b4; fill-opacity: 0.75; stroke: #000000; stroke-width: 0.57974; stroke-linejoin: miter"/>
   </g>
   <g id="patch_92">
    <path d="M 703.51006 385.478125 
L 710.374821 385.478125 
L 710.374821 385.478125 
L 703.51006 385.478125 
z
" clip-path="url(#p64201168bc)" style="fill: #1f77b4; fill-opacity: 0.75; stroke: #000000; stroke-width: 0.57974; stroke-linejoin: miter"/>
   </g>
   <g id="patch_93">
    <path d="M 710.374821 385.478125 
L 717.239583 385.478125 
L 717.239583 385.478125 
L 710.374821 385.478125 
z
" clip-path="url(#p64201168bc)" style="fill: #1f77b4; fill-opacity: 0.75; stroke: #000000; stroke-width: 0.57974; stroke-linejoin: miter"/>
   </g>
   <g id="patch_94">
    <path d="M 717.239583 385.478125 
L 724.104345 385.478125 
L 724.104345 385.478125 
L 717.239583 385.478125 
z
" clip-path="url(#p64201168bc)" style="fill: #1f77b4; fill-opacity: 0.75; stroke: #000000; stroke-width: 0.57974; stroke-linejoin: miter"/>
   </g>
   <g id="patch_95">
    <path d="M 724.104345 385.478125 
L 730.969107 385.478125 
L 730.969107 385.478125 
L 724.104345 385.478125 
z
" clip-path="url(#p64201168bc)" style="fill: #1f77b4; fill-opacity: 0.75; stroke: #000000; stroke-width: 0.57974; stroke-linejoin: miter"/>
   </g>
   <g id="patch_96">
    <path d="M 730.969107 385.478125 
L 737.833869 385.478125 
L 737.833869 385.478125 
L 730.969107 385.478125 
z
" clip-path="url(#p64201168bc)" style="fill: #1f77b4; fill-opacity: 0.75; stroke: #000000; stroke-width: 0.57974; stroke-linejoin: miter"/>
   </g>
   <g id="patch_97">
    <path d="M 737.833869 385.478125 
L 744.698631 385.478125 
L 744.698631 385.478125 
L 737.833869 385.478125 
z
" clip-path="url(#p64201168bc)" style="fill: #1f77b4; fill-opacity: 0.75; stroke: #000000; stroke-width: 0.57974; stroke-linejoin: miter"/>
   </g>
   <g id="patch_98">
    <path d="M 744.698631 385.478125 
L 751.563393 385.478125 
L 751.563393 385.478125 
L 744.698631 385.478125 
z
" clip-path="url(#p64201168bc)" style="fill: #1f77b4; fill-opacity: 0.75; stroke: #000000; stroke-width: 0.57974; stroke-linejoin: miter"/>
   </g>
   <g id="patch_99">
    <path d="M 751.563393 385.478125 
L 758.428155 385.478125 
L 758.428155 385.478125 
L 751.563393 385.478125 
z
" clip-path="url(#p64201168bc)" style="fill: #1f77b4; fill-opacity: 0.75; stroke: #000000; stroke-width: 0.57974; stroke-linejoin: miter"/>
   </g>
   <g id="patch_100">
    <path d="M 758.428155 385.478125 
L 765.292917 385.478125 
L 765.292917 385.478125 
L 758.428155 385.478125 
z
" clip-path="url(#p64201168bc)" style="fill: #1f77b4; fill-opacity: 0.75; stroke: #000000; stroke-width: 0.57974; stroke-linejoin: miter"/>
   </g>
   <g id="patch_101">
    <path d="M 765.292917 385.478125 
L 772.157679 385.478125 
L 772.157679 385.478125 
L 765.292917 385.478125 
z
" clip-path="url(#p64201168bc)" style="fill: #1f77b4; fill-opacity: 0.75; stroke: #000000; stroke-width: 0.57974; stroke-linejoin: miter"/>
   </g>
   <g id="patch_102">
    <path d="M 772.157679 385.478125 
L 779.02244 385.478125 
L 779.02244 385.478125 
L 772.157679 385.478125 
z
" clip-path="url(#p64201168bc)" style="fill: #1f77b4; fill-opacity: 0.75; stroke: #000000; stroke-width: 0.57974; stroke-linejoin: miter"/>
   </g>
   <g id="patch_103">
    <path d="M 779.02244 385.478125 
L 785.887202 385.478125 
L 785.887202 385.478125 
L 779.02244 385.478125 
z
" clip-path="url(#p64201168bc)" style="fill: #1f77b4; fill-opacity: 0.75; stroke: #000000; stroke-width: 0.57974; stroke-linejoin: miter"/>
   </g>
   <g id="patch_104">
    <path d="M 785.887202 385.478125 
L 792.751964 385.478125 
L 792.751964 385.478125 
L 785.887202 385.478125 
z
" clip-path="url(#p64201168bc)" style="fill: #1f77b4; fill-opacity: 0.75; stroke: #000000; stroke-width: 0.57974; stroke-linejoin: miter"/>
   </g>
   <g id="patch_105">
    <path d="M 792.751964 385.478125 
L 799.616726 385.478125 
L 799.616726 385.478125 
L 792.751964 385.478125 
z
" clip-path="url(#p64201168bc)" style="fill: #1f77b4; fill-opacity: 0.75; stroke: #000000; stroke-width: 0.57974; stroke-linejoin: miter"/>
   </g>
   <g id="patch_106">
    <path d="M 799.616726 385.478125 
L 806.481488 385.478125 
L 806.481488 385.478125 
L 799.616726 385.478125 
z
" clip-path="url(#p64201168bc)" style="fill: #1f77b4; fill-opacity: 0.75; stroke: #000000; stroke-width: 0.57974; stroke-linejoin: miter"/>
   </g>
   <g id="patch_107">
    <path d="M 806.481488 385.478125 
L 813.34625 385.478125 
L 813.34625 384.98119 
L 806.481488 384.98119 
z
" clip-path="url(#p64201168bc)" style="fill: #1f77b4; fill-opacity: 0.75; stroke: #000000; stroke-width: 0.57974; stroke-linejoin: miter"/>
   </g>
   <g id="matplotlib.axis_1">
    <g id="xtick_1">
     <g id="line2d_1">
      <defs>
       <path id="m0195076e45" d="M 0 0 
L 0 3.5 
" style="stroke: #000000; stroke-width: 0.8"/>
      </defs>
      <g>
       <use xlink:href="#m0195076e45" x="182.64625" y="385.478125" style="stroke: #000000; stroke-width: 0.8"/>
      </g>
     </g>
     <g id="text_1">
      <!-- 10 -->
      <g transform="translate(176.28375 400.076562) scale(0.1 -0.1)">
       <defs>
        <path id="DejaVuSans-31" d="M 794 531 
L 1825 531 
L 1825 4091 
L 703 3866 
L 703 4441 
L 1819 4666 
L 2450 4666 
L 2450 531 
L 3481 531 
L 3481 0 
L 794 0 
L 794 531 
z
" transform="scale(0.015625)"/>
        <path id="DejaVuSans-30" d="M 2034 4250 
Q 1547 4250 1301 3770 
Q 1056 3291 1056 2328 
Q 1056 1369 1301 889 
Q 1547 409 2034 409 
Q 2525 409 2770 889 
Q 3016 1369 3016 2328 
Q 3016 3291 2770 3770 
Q 2525 4250 2034 4250 
z
M 2034 4750 
Q 2819 4750 3233 4129 
Q 3647 3509 3647 2328 
Q 3647 1150 3233 529 
Q 2819 -91 2034 -91 
Q 1250 -91 836 529 
Q 422 1150 422 2328 
Q 422 3509 836 4129 
Q 1250 4750 2034 4750 
z
" transform="scale(0.015625)"/>
       </defs>
       <use xlink:href="#DejaVuSans-31"/>
       <use xlink:href="#DejaVuSans-30" x="63.623047"/>
      </g>
     </g>
    </g>
    <g id="xtick_2">
     <g id="line2d_2">
      <g>
       <use xlink:href="#m0195076e45" x="311.360536" y="385.478125" style="stroke: #000000; stroke-width: 0.8"/>
      </g>
     </g>
     <g id="text_2">
      <!-- 20 -->
      <g transform="translate(304.998036 400.076562) scale(0.1 -0.1)">
       <defs>
        <path id="DejaVuSans-32" d="M 1228 531 
L 3431 531 
L 3431 0 
L 469 0 
L 469 531 
Q 828 903 1448 1529 
Q 2069 2156 2228 2338 
Q 2531 2678 2651 2914 
Q 2772 3150 2772 3378 
Q 2772 3750 2511 3984 
Q 2250 4219 1831 4219 
Q 1534 4219 1204 4116 
Q 875 4013 500 3803 
L 500 4441 
Q 881 4594 1212 4672 
Q 1544 4750 1819 4750 
Q 2544 4750 2975 4387 
Q 3406 4025 3406 3419 
Q 3406 3131 3298 2873 
Q 3191 2616 2906 2266 
Q 2828 2175 2409 1742 
Q 1991 1309 1228 531 
z
" transform="scale(0.015625)"/>
       </defs>
       <use xlink:href="#DejaVuSans-32"/>
       <use xlink:href="#DejaVuSans-30" x="63.623047"/>
      </g>
     </g>
    </g>
    <g id="xtick_3">
     <g id="line2d_3">
      <g>
       <use xlink:href="#m0195076e45" x="440.074821" y="385.478125" style="stroke: #000000; stroke-width: 0.8"/>
      </g>
     </g>
     <g id="text_3">
      <!-- 30 -->
      <g transform="translate(433.712321 400.076562) scale(0.1 -0.1)">
       <defs>
        <path id="DejaVuSans-33" d="M 2597 2516 
Q 3050 2419 3304 2112 
Q 3559 1806 3559 1356 
Q 3559 666 3084 287 
Q 2609 -91 1734 -91 
Q 1441 -91 1130 -33 
Q 819 25 488 141 
L 488 750 
Q 750 597 1062 519 
Q 1375 441 1716 441 
Q 2309 441 2620 675 
Q 2931 909 2931 1356 
Q 2931 1769 2642 2001 
Q 2353 2234 1838 2234 
L 1294 2234 
L 1294 2753 
L 1863 2753 
Q 2328 2753 2575 2939 
Q 2822 3125 2822 3475 
Q 2822 3834 2567 4026 
Q 2313 4219 1838 4219 
Q 1578 4219 1281 4162 
Q 984 4106 628 3988 
L 628 4550 
Q 988 4650 1302 4700 
Q 1616 4750 1894 4750 
Q 2613 4750 3031 4423 
Q 3450 4097 3450 3541 
Q 3450 3153 3228 2886 
Q 3006 2619 2597 2516 
z
" transform="scale(0.015625)"/>
       </defs>
       <use xlink:href="#DejaVuSans-33"/>
       <use xlink:href="#DejaVuSans-30" x="63.623047"/>
      </g>
     </g>
    </g>
    <g id="xtick_4">
     <g id="line2d_4">
      <g>
       <use xlink:href="#m0195076e45" x="568.789107" y="385.478125" style="stroke: #000000; stroke-width: 0.8"/>
      </g>
     </g>
     <g id="text_4">
      <!-- 40 -->
      <g transform="translate(562.426607 400.076562) scale(0.1 -0.1)">
       <defs>
        <path id="DejaVuSans-34" d="M 2419 4116 
L 825 1625 
L 2419 1625 
L 2419 4116 
z
M 2253 4666 
L 3047 4666 
L 3047 1625 
L 3713 1625 
L 3713 1100 
L 3047 1100 
L 3047 0 
L 2419 0 
L 2419 1100 
L 313 1100 
L 313 1709 
L 2253 4666 
z
" transform="scale(0.015625)"/>
       </defs>
       <use xlink:href="#DejaVuSans-34"/>
       <use xlink:href="#DejaVuSans-30" x="63.623047"/>
      </g>
     </g>
    </g>
    <g id="xtick_5">
     <g id="line2d_5">
      <g>
       <use xlink:href="#m0195076e45" x="697.503393" y="385.478125" style="stroke: #000000; stroke-width: 0.8"/>
      </g>
     </g>
     <g id="text_5">
      <!-- 50 -->
      <g transform="translate(691.140893 400.076562) scale(0.1 -0.1)">
       <defs>
        <path id="DejaVuSans-35" d="M 691 4666 
L 3169 4666 
L 3169 4134 
L 1269 4134 
L 1269 2991 
Q 1406 3038 1543 3061 
Q 1681 3084 1819 3084 
Q 2600 3084 3056 2656 
Q 3513 2228 3513 1497 
Q 3513 744 3044 326 
Q 2575 -91 1722 -91 
Q 1428 -91 1123 -41 
Q 819 9 494 109 
L 494 744 
Q 775 591 1075 516 
Q 1375 441 1709 441 
Q 2250 441 2565 725 
Q 2881 1009 2881 1497 
Q 2881 1984 2565 2268 
Q 2250 2553 1709 2553 
Q 1456 2553 1204 2497 
Q 953 2441 691 2322 
L 691 4666 
z
" transform="scale(0.015625)"/>
       </defs>
       <use xlink:href="#DejaVuSans-35"/>
       <use xlink:href="#DejaVuSans-30" x="63.623047"/>
      </g>
     </g>
    </g>
    <g id="xtick_6">
     <g id="line2d_6">
      <g>
       <use xlink:href="#m0195076e45" x="826.217679" y="385.478125" style="stroke: #000000; stroke-width: 0.8"/>
      </g>
     </g>
     <g id="text_6">
      <!-- 60 -->
      <g transform="translate(819.855179 400.076562) scale(0.1 -0.1)">
       <defs>
        <path id="DejaVuSans-36" d="M 2113 2584 
Q 1688 2584 1439 2293 
Q 1191 2003 1191 1497 
Q 1191 994 1439 701 
Q 1688 409 2113 409 
Q 2538 409 2786 701 
Q 3034 994 3034 1497 
Q 3034 2003 2786 2293 
Q 2538 2584 2113 2584 
z
M 3366 4563 
L 3366 3988 
Q 3128 4100 2886 4159 
Q 2644 4219 2406 4219 
Q 1781 4219 1451 3797 
Q 1122 3375 1075 2522 
Q 1259 2794 1537 2939 
Q 1816 3084 2150 3084 
Q 2853 3084 3261 2657 
Q 3669 2231 3669 1497 
Q 3669 778 3244 343 
Q 2819 -91 2113 -91 
Q 1303 -91 875 529 
Q 447 1150 447 2328 
Q 447 3434 972 4092 
Q 1497 4750 2381 4750 
Q 2619 4750 2861 4703 
Q 3103 4656 3366 4563 
z
" transform="scale(0.015625)"/>
       </defs>
       <use xlink:href="#DejaVuSans-36"/>
       <use xlink:href="#DejaVuSans-30" x="63.623047"/>
      </g>
     </g>
    </g>
    <g id="text_7">
     <!-- TCO2 -->
     <g transform="translate(439.5775 413.754687) scale(0.1 -0.1)">
      <defs>
       <path id="DejaVuSans-54" d="M -19 4666 
L 3928 4666 
L 3928 4134 
L 2272 4134 
L 2272 0 
L 1638 0 
L 1638 4134 
L -19 4134 
L -19 4666 
z
" transform="scale(0.015625)"/>
       <path id="DejaVuSans-43" d="M 4122 4306 
L 4122 3641 
Q 3803 3938 3442 4084 
Q 3081 4231 2675 4231 
Q 1875 4231 1450 3742 
Q 1025 3253 1025 2328 
Q 1025 1406 1450 917 
Q 1875 428 2675 428 
Q 3081 428 3442 575 
Q 3803 722 4122 1019 
L 4122 359 
Q 3791 134 3420 21 
Q 3050 -91 2638 -91 
Q 1578 -91 968 557 
Q 359 1206 359 2328 
Q 359 3453 968 4101 
Q 1578 4750 2638 4750 
Q 3056 4750 3426 4639 
Q 3797 4528 4122 4306 
z
" transform="scale(0.015625)"/>
       <path id="DejaVuSans-4f" d="M 2522 4238 
Q 1834 4238 1429 3725 
Q 1025 3213 1025 2328 
Q 1025 1447 1429 934 
Q 1834 422 2522 422 
Q 3209 422 3611 934 
Q 4013 1447 4013 2328 
Q 4013 3213 3611 3725 
Q 3209 4238 2522 4238 
z
M 2522 4750 
Q 3503 4750 4090 4092 
Q 4678 3434 4678 2328 
Q 4678 1225 4090 567 
Q 3503 -91 2522 -91 
Q 1538 -91 948 565 
Q 359 1222 359 2328 
Q 359 3434 948 4092 
Q 1538 4750 2522 4750 
z
" transform="scale(0.015625)"/>
      </defs>
      <use xlink:href="#DejaVuSans-54"/>
      <use xlink:href="#DejaVuSans-43" x="55.208984"/>
      <use xlink:href="#DejaVuSans-4f" x="125.033203"/>
      <use xlink:href="#DejaVuSans-32" x="203.744141"/>
     </g>
    </g>
   </g>
   <g id="matplotlib.axis_2">
    <g id="ytick_1">
     <g id="line2d_7">
      <defs>
       <path id="m66db28bf10" d="M 0 0 
L -3.5 0 
" style="stroke: #000000; stroke-width: 0.8"/>
      </defs>
      <g>
       <use xlink:href="#m66db28bf10" x="56.50625" y="385.478125" style="stroke: #000000; stroke-width: 0.8"/>
      </g>
     </g>
     <g id="text_8">
      <!-- 0.000 -->
      <g transform="translate(20.878125 389.277344) scale(0.1 -0.1)">
       <defs>
        <path id="DejaVuSans-2e" d="M 684 794 
L 1344 794 
L 1344 0 
L 684 0 
L 684 794 
z
" transform="scale(0.015625)"/>
       </defs>
       <use xlink:href="#DejaVuSans-30"/>
       <use xlink:href="#DejaVuSans-2e" x="63.623047"/>
       <use xlink:href="#DejaVuSans-30" x="95.410156"/>
       <use xlink:href="#DejaVuSans-30" x="159.033203"/>
       <use xlink:href="#DejaVuSans-30" x="222.65625"/>
      </g>
     </g>
    </g>
    <g id="ytick_2">
     <g id="line2d_8">
      <g>
       <use xlink:href="#m66db28bf10" x="56.50625" y="341.953257" style="stroke: #000000; stroke-width: 0.8"/>
      </g>
     </g>
     <g id="text_9">
      <!-- 0.025 -->
      <g transform="translate(20.878125 345.752475) scale(0.1 -0.1)">
       <use xlink:href="#DejaVuSans-30"/>
       <use xlink:href="#DejaVuSans-2e" x="63.623047"/>
       <use xlink:href="#DejaVuSans-30" x="95.410156"/>
       <use xlink:href="#DejaVuSans-32" x="159.033203"/>
       <use xlink:href="#DejaVuSans-35" x="222.65625"/>
      </g>
     </g>
    </g>
    <g id="ytick_3">
     <g id="line2d_9">
      <g>
       <use xlink:href="#m66db28bf10" x="56.50625" y="298.428388" style="stroke: #000000; stroke-width: 0.8"/>
      </g>
     </g>
     <g id="text_10">
      <!-- 0.050 -->
      <g transform="translate(20.878125 302.227607) scale(0.1 -0.1)">
       <use xlink:href="#DejaVuSans-30"/>
       <use xlink:href="#DejaVuSans-2e" x="63.623047"/>
       <use xlink:href="#DejaVuSans-30" x="95.410156"/>
       <use xlink:href="#DejaVuSans-35" x="159.033203"/>
       <use xlink:href="#DejaVuSans-30" x="222.65625"/>
      </g>
     </g>
    </g>
    <g id="ytick_4">
     <g id="line2d_10">
      <g>
       <use xlink:href="#m66db28bf10" x="56.50625" y="254.90352" style="stroke: #000000; stroke-width: 0.8"/>
      </g>
     </g>
     <g id="text_11">
      <!-- 0.075 -->
      <g transform="translate(20.878125 258.702738) scale(0.1 -0.1)">
       <defs>
        <path id="DejaVuSans-37" d="M 525 4666 
L 3525 4666 
L 3525 4397 
L 1831 0 
L 1172 0 
L 2766 4134 
L 525 4134 
L 525 4666 
z
" transform="scale(0.015625)"/>
       </defs>
       <use xlink:href="#DejaVuSans-30"/>
       <use xlink:href="#DejaVuSans-2e" x="63.623047"/>
       <use xlink:href="#DejaVuSans-30" x="95.410156"/>
       <use xlink:href="#DejaVuSans-37" x="159.033203"/>
       <use xlink:href="#DejaVuSans-35" x="222.65625"/>
      </g>
     </g>
    </g>
    <g id="ytick_5">
     <g id="line2d_11">
      <g>
       <use xlink:href="#m66db28bf10" x="56.50625" y="211.378651" style="stroke: #000000; stroke-width: 0.8"/>
      </g>
     </g>
     <g id="text_12">
      <!-- 0.100 -->
      <g transform="translate(20.878125 215.17787) scale(0.1 -0.1)">
       <use xlink:href="#DejaVuSans-30"/>
       <use xlink:href="#DejaVuSans-2e" x="63.623047"/>
       <use xlink:href="#DejaVuSans-31" x="95.410156"/>
       <use xlink:href="#DejaVuSans-30" x="159.033203"/>
       <use xlink:href="#DejaVuSans-30" x="222.65625"/>
      </g>
     </g>
    </g>
    <g id="ytick_6">
     <g id="line2d_12">
      <g>
       <use xlink:href="#m66db28bf10" x="56.50625" y="167.853783" style="stroke: #000000; stroke-width: 0.8"/>
      </g>
     </g>
     <g id="text_13">
      <!-- 0.125 -->
      <g transform="translate(20.878125 171.653001) scale(0.1 -0.1)">
       <use xlink:href="#DejaVuSans-30"/>
       <use xlink:href="#DejaVuSans-2e" x="63.623047"/>
       <use xlink:href="#DejaVuSans-31" x="95.410156"/>
       <use xlink:href="#DejaVuSans-32" x="159.033203"/>
       <use xlink:href="#DejaVuSans-35" x="222.65625"/>
      </g>
     </g>
    </g>
    <g id="ytick_7">
     <g id="line2d_13">
      <g>
       <use xlink:href="#m66db28bf10" x="56.50625" y="124.328914" style="stroke: #000000; stroke-width: 0.8"/>
      </g>
     </g>
     <g id="text_14">
      <!-- 0.150 -->
      <g transform="translate(20.878125 128.128133) scale(0.1 -0.1)">
       <use xlink:href="#DejaVuSans-30"/>
       <use xlink:href="#DejaVuSans-2e" x="63.623047"/>
       <use xlink:href="#DejaVuSans-31" x="95.410156"/>
       <use xlink:href="#DejaVuSans-35" x="159.033203"/>
       <use xlink:href="#DejaVuSans-30" x="222.65625"/>
      </g>
     </g>
    </g>
    <g id="ytick_8">
     <g id="line2d_14">
      <g>
       <use xlink:href="#m66db28bf10" x="56.50625" y="80.804046" style="stroke: #000000; stroke-width: 0.8"/>
      </g>
     </g>
     <g id="text_15">
      <!-- 0.175 -->
      <g transform="translate(20.878125 84.603265) scale(0.1 -0.1)">
       <use xlink:href="#DejaVuSans-30"/>
       <use xlink:href="#DejaVuSans-2e" x="63.623047"/>
       <use xlink:href="#DejaVuSans-31" x="95.410156"/>
       <use xlink:href="#DejaVuSans-37" x="159.033203"/>
       <use xlink:href="#DejaVuSans-35" x="222.65625"/>
      </g>
     </g>
    </g>
    <g id="ytick_9">
     <g id="line2d_15">
      <g>
       <use xlink:href="#m66db28bf10" x="56.50625" y="37.279177" style="stroke: #000000; stroke-width: 0.8"/>
      </g>
     </g>
     <g id="text_16">
      <!-- 0.200 -->
      <g transform="translate(20.878125 41.078396) scale(0.1 -0.1)">
       <use xlink:href="#DejaVuSans-30"/>
       <use xlink:href="#DejaVuSans-2e" x="63.623047"/>
       <use xlink:href="#DejaVuSans-32" x="95.410156"/>
       <use xlink:href="#DejaVuSans-30" x="159.033203"/>
       <use xlink:href="#DejaVuSans-30" x="222.65625"/>
      </g>
     </g>
    </g>
    <g id="text_17">
     <!-- Density -->
     <g transform="translate(14.798438 222.906719) rotate(-90) scale(0.1 -0.1)">
      <defs>
       <path id="DejaVuSans-44" d="M 1259 4147 
L 1259 519 
L 2022 519 
Q 2988 519 3436 956 
Q 3884 1394 3884 2338 
Q 3884 3275 3436 3711 
Q 2988 4147 2022 4147 
L 1259 4147 
z
M 628 4666 
L 1925 4666 
Q 3281 4666 3915 4102 
Q 4550 3538 4550 2338 
Q 4550 1131 3912 565 
Q 3275 0 1925 0 
L 628 0 
L 628 4666 
z
" transform="scale(0.015625)"/>
       <path id="DejaVuSans-65" d="M 3597 1894 
L 3597 1613 
L 953 1613 
Q 991 1019 1311 708 
Q 1631 397 2203 397 
Q 2534 397 2845 478 
Q 3156 559 3463 722 
L 3463 178 
Q 3153 47 2828 -22 
Q 2503 -91 2169 -91 
Q 1331 -91 842 396 
Q 353 884 353 1716 
Q 353 2575 817 3079 
Q 1281 3584 2069 3584 
Q 2775 3584 3186 3129 
Q 3597 2675 3597 1894 
z
M 3022 2063 
Q 3016 2534 2758 2815 
Q 2500 3097 2075 3097 
Q 1594 3097 1305 2825 
Q 1016 2553 972 2059 
L 3022 2063 
z
" transform="scale(0.015625)"/>
       <path id="DejaVuSans-6e" d="M 3513 2113 
L 3513 0 
L 2938 0 
L 2938 2094 
Q 2938 2591 2744 2837 
Q 2550 3084 2163 3084 
Q 1697 3084 1428 2787 
Q 1159 2491 1159 1978 
L 1159 0 
L 581 0 
L 581 3500 
L 1159 3500 
L 1159 2956 
Q 1366 3272 1645 3428 
Q 1925 3584 2291 3584 
Q 2894 3584 3203 3211 
Q 3513 2838 3513 2113 
z
" transform="scale(0.015625)"/>
       <path id="DejaVuSans-73" d="M 2834 3397 
L 2834 2853 
Q 2591 2978 2328 3040 
Q 2066 3103 1784 3103 
Q 1356 3103 1142 2972 
Q 928 2841 928 2578 
Q 928 2378 1081 2264 
Q 1234 2150 1697 2047 
L 1894 2003 
Q 2506 1872 2764 1633 
Q 3022 1394 3022 966 
Q 3022 478 2636 193 
Q 2250 -91 1575 -91 
Q 1294 -91 989 -36 
Q 684 19 347 128 
L 347 722 
Q 666 556 975 473 
Q 1284 391 1588 391 
Q 1994 391 2212 530 
Q 2431 669 2431 922 
Q 2431 1156 2273 1281 
Q 2116 1406 1581 1522 
L 1381 1569 
Q 847 1681 609 1914 
Q 372 2147 372 2553 
Q 372 3047 722 3315 
Q 1072 3584 1716 3584 
Q 2034 3584 2315 3537 
Q 2597 3491 2834 3397 
z
" transform="scale(0.015625)"/>
       <path id="DejaVuSans-69" d="M 603 3500 
L 1178 3500 
L 1178 0 
L 603 0 
L 603 3500 
z
M 603 4863 
L 1178 4863 
L 1178 4134 
L 603 4134 
L 603 4863 
z
" transform="scale(0.015625)"/>
       <path id="DejaVuSans-74" d="M 1172 4494 
L 1172 3500 
L 2356 3500 
L 2356 3053 
L 1172 3053 
L 1172 1153 
Q 1172 725 1289 603 
Q 1406 481 1766 481 
L 2356 481 
L 2356 0 
L 1766 0 
Q 1100 0 847 248 
Q 594 497 594 1153 
L 594 3053 
L 172 3053 
L 172 3500 
L 594 3500 
L 594 4494 
L 1172 4494 
z
" transform="scale(0.015625)"/>
       <path id="DejaVuSans-79" d="M 2059 -325 
Q 1816 -950 1584 -1140 
Q 1353 -1331 966 -1331 
L 506 -1331 
L 506 -850 
L 844 -850 
Q 1081 -850 1212 -737 
Q 1344 -625 1503 -206 
L 1606 56 
L 191 3500 
L 800 3500 
L 1894 763 
L 2988 3500 
L 3597 3500 
L 2059 -325 
z
" transform="scale(0.015625)"/>
      </defs>
      <use xlink:href="#DejaVuSans-44"/>
      <use xlink:href="#DejaVuSans-65" x="77.001953"/>
      <use xlink:href="#DejaVuSans-6e" x="138.525391"/>
      <use xlink:href="#DejaVuSans-73" x="201.904297"/>
      <use xlink:href="#DejaVuSans-69" x="254.003906"/>
      <use xlink:href="#DejaVuSans-74" x="281.787109"/>
      <use xlink:href="#DejaVuSans-79" x="320.996094"/>
     </g>
    </g>
   </g>
   <g id="patch_108">
    <path d="M 56.50625 385.478125 
L 56.50625 22.318125 
" style="fill: none; stroke: #000000; stroke-width: 0.8; stroke-linejoin: miter; stroke-linecap: square"/>
   </g>
   <g id="patch_109">
    <path d="M 849.38625 385.478125 
L 849.38625 22.318125 
" style="fill: none; stroke: #000000; stroke-width: 0.8; stroke-linejoin: miter; stroke-linecap: square"/>
   </g>
   <g id="patch_110">
    <path d="M 56.50625 385.478125 
L 849.38625 385.478125 
" style="fill: none; stroke: #000000; stroke-width: 0.8; stroke-linejoin: miter; stroke-linecap: square"/>
   </g>
   <g id="patch_111">
    <path d="M 56.50625 22.318125 
L 849.38625 22.318125 
" style="fill: none; stroke: #000000; stroke-width: 0.8; stroke-linejoin: miter; stroke-linecap: square"/>
   </g>
   <g id="text_18">
    <!-- Distribution of TCO2 -->
    <g transform="translate(392.304063 16.318125) scale(0.12 -0.12)">
     <defs>
      <path id="DejaVuSans-72" d="M 2631 2963 
Q 2534 3019 2420 3045 
Q 2306 3072 2169 3072 
Q 1681 3072 1420 2755 
Q 1159 2438 1159 1844 
L 1159 0 
L 581 0 
L 581 3500 
L 1159 3500 
L 1159 2956 
Q 1341 3275 1631 3429 
Q 1922 3584 2338 3584 
Q 2397 3584 2469 3576 
Q 2541 3569 2628 3553 
L 2631 2963 
z
" transform="scale(0.015625)"/>
      <path id="DejaVuSans-62" d="M 3116 1747 
Q 3116 2381 2855 2742 
Q 2594 3103 2138 3103 
Q 1681 3103 1420 2742 
Q 1159 2381 1159 1747 
Q 1159 1113 1420 752 
Q 1681 391 2138 391 
Q 2594 391 2855 752 
Q 3116 1113 3116 1747 
z
M 1159 2969 
Q 1341 3281 1617 3432 
Q 1894 3584 2278 3584 
Q 2916 3584 3314 3078 
Q 3713 2572 3713 1747 
Q 3713 922 3314 415 
Q 2916 -91 2278 -91 
Q 1894 -91 1617 61 
Q 1341 213 1159 525 
L 1159 0 
L 581 0 
L 581 4863 
L 1159 4863 
L 1159 2969 
z
" transform="scale(0.015625)"/>
      <path id="DejaVuSans-75" d="M 544 1381 
L 544 3500 
L 1119 3500 
L 1119 1403 
Q 1119 906 1312 657 
Q 1506 409 1894 409 
Q 2359 409 2629 706 
Q 2900 1003 2900 1516 
L 2900 3500 
L 3475 3500 
L 3475 0 
L 2900 0 
L 2900 538 
Q 2691 219 2414 64 
Q 2138 -91 1772 -91 
Q 1169 -91 856 284 
Q 544 659 544 1381 
z
M 1991 3584 
L 1991 3584 
z
" transform="scale(0.015625)"/>
      <path id="DejaVuSans-6f" d="M 1959 3097 
Q 1497 3097 1228 2736 
Q 959 2375 959 1747 
Q 959 1119 1226 758 
Q 1494 397 1959 397 
Q 2419 397 2687 759 
Q 2956 1122 2956 1747 
Q 2956 2369 2687 2733 
Q 2419 3097 1959 3097 
z
M 1959 3584 
Q 2709 3584 3137 3096 
Q 3566 2609 3566 1747 
Q 3566 888 3137 398 
Q 2709 -91 1959 -91 
Q 1206 -91 779 398 
Q 353 888 353 1747 
Q 353 2609 779 3096 
Q 1206 3584 1959 3584 
z
" transform="scale(0.015625)"/>
      <path id="DejaVuSans-20" transform="scale(0.015625)"/>
      <path id="DejaVuSans-66" d="M 2375 4863 
L 2375 4384 
L 1825 4384 
Q 1516 4384 1395 4259 
Q 1275 4134 1275 3809 
L 1275 3500 
L 2222 3500 
L 2222 3053 
L 1275 3053 
L 1275 0 
L 697 0 
L 697 3053 
L 147 3053 
L 147 3500 
L 697 3500 
L 697 3744 
Q 697 4328 969 4595 
Q 1241 4863 1831 4863 
L 2375 4863 
z
" transform="scale(0.015625)"/>
     </defs>
     <use xlink:href="#DejaVuSans-44"/>
     <use xlink:href="#DejaVuSans-69" x="77.001953"/>
     <use xlink:href="#DejaVuSans-73" x="104.785156"/>
     <use xlink:href="#DejaVuSans-74" x="156.884766"/>
     <use xlink:href="#DejaVuSans-72" x="196.09375"/>
     <use xlink:href="#DejaVuSans-69" x="237.207031"/>
     <use xlink:href="#DejaVuSans-62" x="264.990234"/>
     <use xlink:href="#DejaVuSans-75" x="328.466797"/>
     <use xlink:href="#DejaVuSans-74" x="391.845703"/>
     <use xlink:href="#DejaVuSans-69" x="431.054688"/>
     <use xlink:href="#DejaVuSans-6f" x="458.837891"/>
     <use xlink:href="#DejaVuSans-6e" x="520.019531"/>
     <use xlink:href="#DejaVuSans-20" x="583.398438"/>
     <use xlink:href="#DejaVuSans-6f" x="615.185547"/>
     <use xlink:href="#DejaVuSans-66" x="676.367188"/>
     <use xlink:href="#DejaVuSans-20" x="711.572266"/>
     <use xlink:href="#DejaVuSans-54" x="743.359375"/>
     <use xlink:href="#DejaVuSans-43" x="798.568359"/>
     <use xlink:href="#DejaVuSans-4f" x="868.392578"/>
     <use xlink:href="#DejaVuSans-32" x="947.103516"/>
    </g>
   </g>
  </g>
 </g>
 <defs>
  <clipPath id="p64201168bc">
   <rect x="56.50625" y="22.318125" width="792.88" height="363.16"/>
  </clipPath>
 </defs>
</svg>
