<?xml version="1.0" encoding="utf-8" standalone="no"?>
<!DOCTYPE svg PUBLIC "-//W3C//DTD SVG 1.1//EN"
  "http://www.w3.org/Graphics/SVG/1.1/DTD/svg11.dtd">
<svg xmlns:xlink="http://www.w3.org/1999/xlink" width="512.593437pt" height="339.34375pt" viewBox="0 0 512.593437 339.34375" xmlns="http://www.w3.org/2000/svg" version="1.1">
 <metadata>
  <rdf:RDF xmlns:dc="http://purl.org/dc/elements/1.1/" xmlns:cc="http://creativecommons.org/ns#" xmlns:rdf="http://www.w3.org/1999/02/22-rdf-syntax-ns#">
   <cc:Work>
    <dc:type rdf:resource="http://purl.org/dc/dcmitype/StillImage"/>
    <dc:date>2024-08-05T22:53:27.756443</dc:date>
    <dc:format>image/svg+xml</dc:format>
    <dc:creator>
     <cc:Agent>
      <dc:title>Matplotlib v3.9.0, https://matplotlib.org/</dc:title>
     </cc:Agent>
    </dc:creator>
   </cc:Work>
  </rdf:RDF>
 </metadata>
 <defs>
  <style type="text/css">*{stroke-linejoin: round; stroke-linecap: butt}</style>
 </defs>
 <g id="figure_1">
  <g id="patch_1">
   <path d="M 0 339.34375 
L 512.593437 339.34375 
L 512.593437 0 
L 0 0 
z
" style="fill: #ffffff"/>
  </g>
  <g id="axes_1">
   <g id="patch_2">
    <path d="M 58.993437 299.518125 
L 505.393438 299.518125 
L 505.393438 22.318125 
L 58.993437 22.318125 
z
" style="fill: #ffffff"/>
   </g>
   <g id="PolyCollection_1">
    <defs>
     <path id="m662b4019ec" d="M 90.980963 -299.045547 
L 90.980963 -300.355703 
L 94.83822 -300.867789 
L 98.695477 -301.648988 
L 102.552733 -302.750883 
L 106.40999 -304.184615 
L 110.267247 -305.899617 
L 114.124503 -307.77567 
L 117.98176 -309.636248 
L 121.839017 -311.283244 
L 125.696273 -312.543254 
L 129.55353 -313.309003 
L 133.410787 -313.560625 
L 137.268043 -313.360058 
L 141.1253 -312.823331 
L 144.982557 -312.083699 
L 148.839813 -311.25973 
L 152.69707 -310.437245 
L 156.554327 -309.66629 
L 160.411583 -308.968428 
L 164.26884 -308.347652 
L 168.126096 -307.799686 
L 171.983353 -307.317486 
L 175.84061 -306.893345 
L 179.697866 -306.519228 
L 183.555123 -306.186795 
L 187.41238 -305.887804 
L 191.269636 -305.61481 
L 195.126893 -305.361839 
L 198.98415 -305.124793 
L 202.841406 -304.901561 
L 206.698663 -304.691901 
L 210.55592 -304.497081 
L 214.413176 -304.319243 
L 218.270433 -304.160517 
L 222.12769 -304.02206 
L 225.984946 -303.903294 
L 229.842203 -303.801603 
L 233.69946 -303.712591 
L 237.556716 -303.630849 
L 241.413973 -303.551023 
L 245.27123 -303.468896 
L 249.128486 -303.382173 
L 252.985743 -303.290718 
L 256.842999 -303.196161 
L 260.700256 -303.101025 
L 264.557513 -303.007686 
L 268.414769 -302.917537 
L 272.272026 -302.830572 
L 276.129283 -302.745433 
L 279.986539 -302.659808 
L 283.843796 -302.57107 
L 287.701053 -302.477096 
L 291.558309 -302.377124 
L 295.415566 -302.272398 
L 299.272823 -302.166241 
L 303.130079 -302.063308 
L 306.987336 -301.968108 
L 310.844593 -301.883297 
L 314.701849 -301.808445 
L 318.559106 -301.739872 
L 322.416363 -301.671728 
L 326.273619 -301.597931 
L 330.130876 -301.514226 
L 333.988133 -301.41954 
L 337.845389 -301.316166 
L 341.702646 -301.208797 
L 345.559902 -301.102931 
L 349.417159 -301.003337 
L 353.274416 -300.913107 
L 357.131672 -300.833459 
L 360.988929 -300.764087 
L 364.846186 -300.703716 
L 368.703442 -300.650569 
L 372.560699 -300.602655 
L 376.417956 -300.557947 
L 380.275212 -300.514569 
L 384.132469 -300.471064 
L 387.989726 -300.426729 
L 391.846982 -300.381893 
L 395.704239 -300.338032 
L 399.561496 -300.297623 
L 403.418752 -300.26373 
L 407.276009 -300.239366 
L 411.133266 -300.226711 
L 414.990522 -300.226297 
L 418.847779 -300.236331 
L 422.705036 -300.252388 
L 426.562292 -300.267727 
L 430.419549 -300.274428 
L 434.276806 -300.265199 
L 438.134062 -300.235392 
L 441.991319 -300.184493 
L 445.848575 -300.116438 
L 449.705832 -300.038562 
L 453.563089 -299.959562 
L 457.420345 -299.887256 
L 461.277602 -299.826945 
L 465.134859 -299.780813 
L 468.992115 -299.748321 
L 472.849372 -299.727187 
L 472.849372 -299.674063 
L 472.849372 -299.674063 
L 468.992115 -299.652929 
L 465.134859 -299.620437 
L 461.277602 -299.574305 
L 457.420345 -299.513994 
L 453.563089 -299.441688 
L 449.705832 -299.362688 
L 445.848575 -299.284812 
L 441.991319 -299.216757 
L 438.134062 -299.165858 
L 434.276806 -299.136051 
L 430.419549 -299.126822 
L 426.562292 -299.133523 
L 422.705036 -299.148862 
L 418.847779 -299.164919 
L 414.990522 -299.174953 
L 411.133266 -299.174539 
L 407.276009 -299.161884 
L 403.418752 -299.13752 
L 399.561496 -299.103627 
L 395.704239 -299.063218 
L 391.846982 -299.019357 
L 387.989726 -298.974521 
L 384.132469 -298.930186 
L 380.275212 -298.886681 
L 376.417956 -298.843303 
L 372.560699 -298.798595 
L 368.703442 -298.750681 
L 364.846186 -298.697534 
L 360.988929 -298.637163 
L 357.131672 -298.567791 
L 353.274416 -298.488143 
L 349.417159 -298.397913 
L 345.559902 -298.298319 
L 341.702646 -298.192453 
L 337.845389 -298.085084 
L 333.988133 -297.98171 
L 330.130876 -297.887024 
L 326.273619 -297.803319 
L 322.416363 -297.729522 
L 318.559106 -297.661378 
L 314.701849 -297.592805 
L 310.844593 -297.517953 
L 306.987336 -297.433142 
L 303.130079 -297.337942 
L 299.272823 -297.235009 
L 295.415566 -297.128852 
L 291.558309 -297.024126 
L 287.701053 -296.924154 
L 283.843796 -296.83018 
L 279.986539 -296.741442 
L 276.129283 -296.655817 
L 272.272026 -296.570678 
L 268.414769 -296.483713 
L 264.557513 -296.393564 
L 260.700256 -296.300225 
L 256.842999 -296.205089 
L 252.985743 -296.110532 
L 249.128486 -296.019077 
L 245.27123 -295.932354 
L 241.413973 -295.850227 
L 237.556716 -295.770401 
L 233.69946 -295.688659 
L 229.842203 -295.599647 
L 225.984946 -295.497956 
L 222.12769 -295.37919 
L 218.270433 -295.240733 
L 214.413176 -295.082007 
L 210.55592 -294.904169 
L 206.698663 -294.709349 
L 202.841406 -294.499689 
L 198.98415 -294.276457 
L 195.126893 -294.039411 
L 191.269636 -293.78644 
L 187.41238 -293.513446 
L 183.555123 -293.214455 
L 179.697866 -292.882022 
L 175.84061 -292.507905 
L 171.983353 -292.083764 
L 168.126096 -291.601564 
L 164.26884 -291.053598 
L 160.411583 -290.432822 
L 156.554327 -289.73496 
L 152.69707 -288.964005 
L 148.839813 -288.14152 
L 144.982557 -287.317551 
L 141.1253 -286.577919 
L 137.268043 -286.041192 
L 133.410787 -285.840625 
L 129.55353 -286.092247 
L 125.696273 -286.857996 
L 121.839017 -288.118006 
L 117.98176 -289.765002 
L 114.124503 -291.62558 
L 110.267247 -293.501633 
L 106.40999 -295.216635 
L 102.552733 -296.650367 
L 98.695477 -297.752262 
L 94.83822 -298.533461 
L 90.980963 -299.045547 
z
" style="stroke: #3d3d3d; stroke-width: 1.25"/>
    </defs>
    <g clip-path="url(#paf2dc2a02e)">
     <use xlink:href="#m662b4019ec" x="0" y="339.34375" style="fill: #3274a1; stroke: #3d3d3d; stroke-width: 1.25"/>
    </g>
   </g>
   <g id="PolyCollection_2">
    <defs>
     <path id="m701ccc151e" d="M 79.284347 -264.250306 
L 79.284347 -265.850944 
L 83.38352 -266.281865 
L 87.482694 -266.874676 
L 91.581867 -267.653892 
L 95.681041 -268.631525 
L 99.780214 -269.800679 
L 103.879388 -271.130902 
L 107.978561 -272.566949 
L 112.077735 -274.0321 
L 116.176909 -275.436143 
L 120.276082 -276.686922 
L 124.375256 -277.703227 
L 128.474429 -278.426305 
L 132.573603 -278.827518 
L 136.672776 -278.910625 
L 140.77195 -278.708566 
L 144.871123 -278.275889 
L 148.970297 -277.678849 
L 153.069471 -276.9854 
L 157.168644 -276.256877 
L 161.267818 -275.542444 
L 165.366991 -274.876528 
L 169.466165 -274.27887 
L 173.565338 -273.756436 
L 177.664512 -273.306403 
L 181.763685 -272.919493 
L 185.862859 -272.583137 
L 189.962033 -272.284111 
L 194.061206 -272.010457 
L 198.16038 -271.752624 
L 202.259553 -271.503903 
L 206.358727 -271.260273 
L 210.4579 -271.019892 
L 214.557074 -270.782416 
L 218.656247 -270.548362 
L 222.755421 -270.31862 
L 226.854595 -270.094194 
L 230.953768 -269.876154 
L 235.052942 -269.665737 
L 239.152115 -269.464502 
L 243.251289 -269.274435 
L 247.350462 -269.097911 
L 251.449636 -268.937458 
L 255.548809 -268.795349 
L 259.647983 -268.673085 
L 263.747157 -268.570907 
L 267.84633 -268.487483 
L 271.945504 -268.419891 
L 276.044677 -268.36394 
L 280.143851 -268.314768 
L 284.243024 -268.267587 
L 288.342198 -268.218374 
L 292.441371 -268.164339 
L 296.540545 -268.104061 
L 300.639718 -268.037307 
L 304.738892 -267.964644 
L 308.838066 -267.886999 
L 312.937239 -267.80534 
L 317.036413 -267.720559 
L 321.135586 -267.633555 
L 325.23476 -267.545426 
L 329.333933 -267.457634 
L 333.433107 -267.372036 
L 337.53228 -267.290718 
L 341.631454 -267.215661 
L 345.730628 -267.148335 
L 349.829801 -267.089337 
L 353.928975 -267.0382 
L 358.028148 -266.993425 
L 362.127322 -266.952774 
L 366.226495 -266.913742 
L 370.325669 -266.874137 
L 374.424842 -266.832623 
L 378.524016 -266.789115 
L 382.62319 -266.74493 
L 386.722363 -266.702654 
L 390.821537 -266.665724 
L 394.92071 -266.637813 
L 399.019884 -266.622078 
L 403.119057 -266.620418 
L 407.218231 -266.632819 
L 411.317404 -266.656912 
L 415.416578 -266.687826 
L 419.515752 -266.718446 
L 423.614925 -266.740094 
L 427.714099 -266.743625 
L 431.813272 -266.720808 
L 435.912446 -266.665748 
L 440.011619 -266.576046 
L 444.110793 -266.453419 
L 448.209966 -266.303588 
L 452.30914 -266.135422 
L 456.408314 -265.95954 
L 460.507487 -265.786659 
L 464.606661 -265.626091 
L 468.705834 -265.48466 
L 472.805008 -265.366212 
L 476.904181 -265.271711 
L 481.003355 -265.199787 
L 485.102528 -265.147508 
L 485.102528 -264.953742 
L 485.102528 -264.953742 
L 481.003355 -264.901463 
L 476.904181 -264.829539 
L 472.805008 -264.735038 
L 468.705834 -264.61659 
L 464.606661 -264.475159 
L 460.507487 -264.314591 
L 456.408314 -264.14171 
L 452.30914 -263.965828 
L 448.209966 -263.797662 
L 444.110793 -263.647831 
L 440.011619 -263.525204 
L 435.912446 -263.435502 
L 431.813272 -263.380442 
L 427.714099 -263.357625 
L 423.614925 -263.361156 
L 419.515752 -263.382804 
L 415.416578 -263.413424 
L 411.317404 -263.444338 
L 407.218231 -263.468431 
L 403.119057 -263.480832 
L 399.019884 -263.479172 
L 394.92071 -263.463437 
L 390.821537 -263.435526 
L 386.722363 -263.398596 
L 382.62319 -263.35632 
L 378.524016 -263.312135 
L 374.424842 -263.268627 
L 370.325669 -263.227113 
L 366.226495 -263.187508 
L 362.127322 -263.148476 
L 358.028148 -263.107825 
L 353.928975 -263.06305 
L 349.829801 -263.011913 
L 345.730628 -262.952915 
L 341.631454 -262.885589 
L 337.53228 -262.810532 
L 333.433107 -262.729214 
L 329.333933 -262.643616 
L 325.23476 -262.555824 
L 321.135586 -262.467695 
L 317.036413 -262.380691 
L 312.937239 -262.29591 
L 308.838066 -262.214251 
L 304.738892 -262.136606 
L 300.639718 -262.063943 
L 296.540545 -261.997189 
L 292.441371 -261.936911 
L 288.342198 -261.882876 
L 284.243024 -261.833663 
L 280.143851 -261.786482 
L 276.044677 -261.73731 
L 271.945504 -261.681359 
L 267.84633 -261.613767 
L 263.747157 -261.530343 
L 259.647983 -261.428165 
L 255.548809 -261.305901 
L 251.449636 -261.163792 
L 247.350462 -261.003339 
L 243.251289 -260.826815 
L 239.152115 -260.636748 
L 235.052942 -260.435513 
L 230.953768 -260.225096 
L 226.854595 -260.007056 
L 222.755421 -259.78263 
L 218.656247 -259.552888 
L 214.557074 -259.318834 
L 210.4579 -259.081358 
L 206.358727 -258.840977 
L 202.259553 -258.597347 
L 198.16038 -258.348626 
L 194.061206 -258.090793 
L 189.962033 -257.817139 
L 185.862859 -257.518113 
L 181.763685 -257.181757 
L 177.664512 -256.794847 
L 173.565338 -256.344814 
L 169.466165 -255.82238 
L 165.366991 -255.224722 
L 161.267818 -254.558806 
L 157.168644 -253.844373 
L 153.069471 -253.11585 
L 148.970297 -252.422401 
L 144.871123 -251.825361 
L 140.77195 -251.392684 
L 136.672776 -251.190625 
L 132.573603 -251.273732 
L 128.474429 -251.674945 
L 124.375256 -252.398023 
L 120.276082 -253.414328 
L 116.176909 -254.665107 
L 112.077735 -256.06915 
L 107.978561 -257.534301 
L 103.879388 -258.970348 
L 99.780214 -260.300571 
L 95.681041 -261.469725 
L 91.581867 -262.447358 
L 87.482694 -263.226574 
L 83.38352 -263.819385 
L 79.284347 -264.250306 
z
" style="stroke: #3d3d3d; stroke-width: 1.25"/>
    </defs>
    <g clip-path="url(#paf2dc2a02e)">
     <use xlink:href="#m701ccc151e" x="0" y="339.34375" style="fill: #e1812c; stroke: #3d3d3d; stroke-width: 1.25"/>
    </g>
   </g>
   <g id="PolyCollection_3">
    <defs>
     <path id="mc12791e54e" d="M 86.485389 -229.676939 
L 86.485389 -231.124311 
L 90.472255 -231.609066 
L 94.45912 -232.315565 
L 98.445985 -233.282264 
L 102.432851 -234.521973 
L 106.419716 -236.00841 
L 110.406582 -237.66882 
L 114.393447 -239.387141 
L 118.380313 -241.019402 
L 122.367178 -242.418791 
L 126.354044 -243.463921 
L 130.340909 -244.082067 
L 134.327775 -244.260625 
L 138.31464 -244.044093 
L 142.301505 -243.518763 
L 146.288371 -242.790901 
L 150.275236 -241.965187 
L 154.262102 -241.128645 
L 158.248967 -240.342398 
L 162.235833 -239.64073 
L 166.222698 -239.035222 
L 170.209564 -238.521263 
L 174.196429 -238.084818 
L 178.183295 -237.708186 
L 182.17016 -237.374256 
L 186.157025 -237.069219 
L 190.143891 -236.783883 
L 194.130756 -236.513787 
L 198.117622 -236.258337 
L 202.104487 -236.019301 
L 206.091353 -235.799033 
L 210.078218 -235.598863 
L 214.065084 -235.418016 
L 218.051949 -235.253288 
L 222.038815 -235.099491 
L 226.02568 -234.950515 
L 230.012545 -234.800654 
L 233.999411 -234.645831 
L 237.986276 -234.484381 
L 241.973142 -234.317214 
L 245.960007 -234.147358 
L 249.946873 -233.979089 
L 253.933738 -233.816936 
L 257.920604 -233.664856 
L 261.907469 -233.525745 
L 265.894335 -233.401295 
L 269.8812 -233.292082 
L 273.868065 -233.197751 
L 277.854931 -233.117159 
L 281.841796 -233.048484 
L 285.828662 -232.989311 
L 289.815527 -232.93679 
L 293.802393 -232.887879 
L 297.789258 -232.839694 
L 301.776124 -232.789896 
L 305.762989 -232.737042 
L 309.749855 -232.680797 
L 313.73672 -232.621919 
L 317.723585 -232.562003 
L 321.710451 -232.503008 
L 325.697316 -232.446698 
L 329.684182 -232.394167 
L 333.671047 -232.345552 
L 337.657913 -232.300029 
L 341.644778 -232.256037 
L 345.631644 -232.211645 
L 349.618509 -232.16496 
L 353.605375 -232.114449 
L 357.59224 -232.059137 
L 361.579105 -231.998651 
L 365.565971 -231.933154 
L 369.552836 -231.863253 
L 373.539702 -231.789966 
L 377.526567 -231.714776 
L 381.513433 -231.639771 
L 385.500298 -231.567776 
L 389.487164 -231.502356 
L 393.474029 -231.447639 
L 397.460895 -231.407923 
L 401.44776 -231.387101 
L 405.434625 -231.38796 
L 409.421491 -231.411394 
L 413.408356 -231.455607 
L 417.395222 -231.515448 
L 421.382087 -231.582156 
L 425.368953 -231.643834 
L 429.355818 -231.686891 
L 433.342684 -231.698392 
L 437.329549 -231.668844 
L 441.316415 -231.594612 
L 445.30328 -231.479124 
L 449.290145 -231.332348 
L 453.277011 -231.168626 
L 457.263876 -231.003542 
L 461.250742 -230.850791 
L 465.237607 -230.719963 
L 469.224473 -230.615675 
L 473.211338 -230.538017 
L 477.198204 -230.48386 
L 481.185069 -230.448423 
L 481.185069 -230.352827 
L 481.185069 -230.352827 
L 477.198204 -230.31739 
L 473.211338 -230.263233 
L 469.224473 -230.185575 
L 465.237607 -230.081287 
L 461.250742 -229.950459 
L 457.263876 -229.797708 
L 453.277011 -229.632624 
L 449.290145 -229.468902 
L 445.30328 -229.322126 
L 441.316415 -229.206638 
L 437.329549 -229.132406 
L 433.342684 -229.102858 
L 429.355818 -229.114359 
L 425.368953 -229.157416 
L 421.382087 -229.219094 
L 417.395222 -229.285802 
L 413.408356 -229.345643 
L 409.421491 -229.389856 
L 405.434625 -229.41329 
L 401.44776 -229.414149 
L 397.460895 -229.393327 
L 393.474029 -229.353611 
L 389.487164 -229.298894 
L 385.500298 -229.233474 
L 381.513433 -229.161479 
L 377.526567 -229.086474 
L 373.539702 -229.011284 
L 369.552836 -228.937997 
L 365.565971 -228.868096 
L 361.579105 -228.802599 
L 357.59224 -228.742113 
L 353.605375 -228.686801 
L 349.618509 -228.63629 
L 345.631644 -228.589605 
L 341.644778 -228.545213 
L 337.657913 -228.501221 
L 333.671047 -228.455698 
L 329.684182 -228.407083 
L 325.697316 -228.354552 
L 321.710451 -228.298242 
L 317.723585 -228.239247 
L 313.73672 -228.179331 
L 309.749855 -228.120453 
L 305.762989 -228.064208 
L 301.776124 -228.011354 
L 297.789258 -227.961556 
L 293.802393 -227.913371 
L 289.815527 -227.86446 
L 285.828662 -227.811939 
L 281.841796 -227.752766 
L 277.854931 -227.684091 
L 273.868065 -227.603499 
L 269.8812 -227.509168 
L 265.894335 -227.399955 
L 261.907469 -227.275505 
L 257.920604 -227.136394 
L 253.933738 -226.984314 
L 249.946873 -226.822161 
L 245.960007 -226.653892 
L 241.973142 -226.484036 
L 237.986276 -226.316869 
L 233.999411 -226.155419 
L 230.012545 -226.000596 
L 226.02568 -225.850735 
L 222.038815 -225.701759 
L 218.051949 -225.547962 
L 214.065084 -225.383234 
L 210.078218 -225.202387 
L 206.091353 -225.002217 
L 202.104487 -224.781949 
L 198.117622 -224.542913 
L 194.130756 -224.287463 
L 190.143891 -224.017367 
L 186.157025 -223.732031 
L 182.17016 -223.426994 
L 178.183295 -223.093064 
L 174.196429 -222.716432 
L 170.209564 -222.279987 
L 166.222698 -221.766028 
L 162.235833 -221.16052 
L 158.248967 -220.458852 
L 154.262102 -219.672605 
L 150.275236 -218.836063 
L 146.288371 -218.010349 
L 142.301505 -217.282487 
L 138.31464 -216.757157 
L 134.327775 -216.540625 
L 130.340909 -216.719183 
L 126.354044 -217.337329 
L 122.367178 -218.382459 
L 118.380313 -219.781848 
L 114.393447 -221.414109 
L 110.406582 -223.13243 
L 106.419716 -224.79284 
L 102.432851 -226.279277 
L 98.445985 -227.518986 
L 94.45912 -228.485685 
L 90.472255 -229.192184 
L 86.485389 -229.676939 
z
" style="stroke: #3d3d3d; stroke-width: 1.25"/>
    </defs>
    <g clip-path="url(#paf2dc2a02e)">
     <use xlink:href="#mc12791e54e" x="0" y="339.34375" style="fill: #3a923a; stroke: #3d3d3d; stroke-width: 1.25"/>
    </g>
   </g>
   <g id="PolyCollection_4">
    <defs>
     <path id="m56b9ca2298" d="M 96.045181 -195.166459 
L 96.045181 -196.334791 
L 99.808562 -196.909699 
L 103.571944 -197.851946 
L 107.335326 -199.237793 
L 111.098707 -201.060353 
L 114.862089 -203.191223 
L 118.625471 -205.384091 
L 122.388852 -207.332662 
L 126.152234 -208.763931 
L 129.915616 -209.523311 
L 133.678997 -209.610625 
L 137.442379 -209.155089 
L 141.205761 -208.351107 
L 144.969142 -207.391315 
L 148.732524 -206.423494 
L 152.495906 -205.537196 
L 156.259287 -204.770779 
L 160.022669 -204.12635 
L 163.78605 -203.584634 
L 167.549432 -203.117243 
L 171.312814 -202.696476 
L 175.076195 -202.302702 
L 178.839577 -201.928284 
L 182.602959 -201.576896 
L 186.36634 -201.258544 
L 190.129722 -200.982711 
L 193.893104 -200.75275 
L 197.656485 -200.563575 
L 201.419867 -200.4027 
L 205.183249 -200.253437 
L 208.94663 -200.098974 
L 212.710012 -199.926383 
L 216.473394 -199.72978 
L 220.236775 -199.511733 
L 224.000157 -199.282282 
L 227.763538 -199.055711 
L 231.52692 -198.846133 
L 235.290302 -198.66348 
L 239.053683 -198.511252 
L 242.817065 -198.386547 
L 246.580447 -198.282009 
L 250.343828 -198.18866 
L 254.10721 -198.098518 
L 257.870592 -198.006228 
L 261.633973 -197.90943 
L 265.397355 -197.808132 
L 269.160737 -197.703697 
L 272.924118 -197.598041 
L 276.6875 -197.493252 
L 280.450882 -197.391388 
L 284.214263 -197.29415 
L 287.977645 -197.202452 
L 291.741027 -197.116212 
L 295.504408 -197.034569 
L 299.26779 -196.956329 
L 303.031171 -196.880341 
L 306.794553 -196.805772 
L 310.557935 -196.732501 
L 314.321316 -196.66152 
L 318.084698 -196.594864 
L 321.84808 -196.534617 
L 325.611461 -196.48139 
L 329.374843 -196.433399 
L 333.138225 -196.387015 
L 336.901606 -196.338633 
L 340.664988 -196.286666 
L 344.42837 -196.232447 
L 348.191751 -196.179608 
L 351.955133 -196.132421 
L 355.718515 -196.094032 
L 359.481896 -196.065398 
L 363.245278 -196.045276 
L 367.008659 -196.031085 
L 370.772041 -196.020084 
L 374.535423 -196.010191 
L 378.298804 -196.000123 
L 382.062186 -195.989019 
L 385.825568 -195.976073 
L 389.588949 -195.960612 
L 393.352331 -195.942558 
L 397.115713 -195.922857 
L 400.879094 -195.903404 
L 404.642476 -195.886404 
L 408.405858 -195.873485 
L 412.169239 -195.865093 
L 415.932621 -195.860437 
L 419.696003 -195.857952 
L 423.459384 -195.855942 
L 427.222766 -195.853068 
L 430.986147 -195.848508 
L 434.749529 -195.841868 
L 438.512911 -195.833047 
L 442.276292 -195.822209 
L 446.039674 -195.80986 
L 449.803056 -195.796888 
L 453.566437 -195.784427 
L 457.329819 -195.773554 
L 461.093201 -195.764975 
L 464.856582 -195.758872 
L 468.619964 -195.754961 
L 468.619964 -195.746289 
L 468.619964 -195.746289 
L 464.856582 -195.742378 
L 461.093201 -195.736275 
L 457.329819 -195.727696 
L 453.566437 -195.716823 
L 449.803056 -195.704362 
L 446.039674 -195.69139 
L 442.276292 -195.679041 
L 438.512911 -195.668203 
L 434.749529 -195.659382 
L 430.986147 -195.652742 
L 427.222766 -195.648182 
L 423.459384 -195.645308 
L 419.696003 -195.643298 
L 415.932621 -195.640813 
L 412.169239 -195.636157 
L 408.405858 -195.627765 
L 404.642476 -195.614846 
L 400.879094 -195.597846 
L 397.115713 -195.578393 
L 393.352331 -195.558692 
L 389.588949 -195.540638 
L 385.825568 -195.525177 
L 382.062186 -195.512231 
L 378.298804 -195.501127 
L 374.535423 -195.491059 
L 370.772041 -195.481166 
L 367.008659 -195.470165 
L 363.245278 -195.455974 
L 359.481896 -195.435852 
L 355.718515 -195.407218 
L 351.955133 -195.368829 
L 348.191751 -195.321642 
L 344.42837 -195.268803 
L 340.664988 -195.214584 
L 336.901606 -195.162617 
L 333.138225 -195.114235 
L 329.374843 -195.067851 
L 325.611461 -195.01986 
L 321.84808 -194.966633 
L 318.084698 -194.906386 
L 314.321316 -194.83973 
L 310.557935 -194.768749 
L 306.794553 -194.695478 
L 303.031171 -194.620909 
L 299.26779 -194.544921 
L 295.504408 -194.466681 
L 291.741027 -194.385038 
L 287.977645 -194.298798 
L 284.214263 -194.2071 
L 280.450882 -194.109862 
L 276.6875 -194.007998 
L 272.924118 -193.903209 
L 269.160737 -193.797553 
L 265.397355 -193.693118 
L 261.633973 -193.59182 
L 257.870592 -193.495022 
L 254.10721 -193.402732 
L 250.343828 -193.31259 
L 246.580447 -193.219241 
L 242.817065 -193.114703 
L 239.053683 -192.989998 
L 235.290302 -192.83777 
L 231.52692 -192.655117 
L 227.763538 -192.445539 
L 224.000157 -192.218968 
L 220.236775 -191.989517 
L 216.473394 -191.77147 
L 212.710012 -191.574867 
L 208.94663 -191.402276 
L 205.183249 -191.247813 
L 201.419867 -191.09855 
L 197.656485 -190.937675 
L 193.893104 -190.7485 
L 190.129722 -190.518539 
L 186.36634 -190.242706 
L 182.602959 -189.924354 
L 178.839577 -189.572966 
L 175.076195 -189.198548 
L 171.312814 -188.804774 
L 167.549432 -188.384007 
L 163.78605 -187.916616 
L 160.022669 -187.3749 
L 156.259287 -186.730471 
L 152.495906 -185.964054 
L 148.732524 -185.077756 
L 144.969142 -184.109935 
L 141.205761 -183.150143 
L 137.442379 -182.346161 
L 133.678997 -181.890625 
L 129.915616 -181.977939 
L 126.152234 -182.737319 
L 122.388852 -184.168588 
L 118.625471 -186.117159 
L 114.862089 -188.310027 
L 111.098707 -190.440897 
L 107.335326 -192.263457 
L 103.571944 -193.649304 
L 99.808562 -194.591551 
L 96.045181 -195.166459 
z
" style="stroke: #3d3d3d; stroke-width: 1.25"/>
    </defs>
    <g clip-path="url(#paf2dc2a02e)">
     <use xlink:href="#m56b9ca2298" x="0" y="339.34375" style="fill: #c03d3e; stroke: #3d3d3d; stroke-width: 1.25"/>
    </g>
   </g>
   <g id="PolyCollection_5">
    <defs>
     <path id="mba56d33ecd" d="M 80.868522 -160.343464 
L 80.868522 -161.857786 
L 84.95087 -162.28942 
L 89.033218 -162.893069 
L 93.115567 -163.697091 
L 97.197915 -164.715787 
L 101.280263 -165.94157 
L 105.362612 -167.339229 
L 109.44496 -168.844471 
L 113.527309 -170.368257 
L 117.609657 -171.80706 
L 121.692005 -173.057475 
L 125.774354 -174.032137 
L 129.856702 -174.673263 
L 133.93905 -174.960625 
L 138.021399 -174.91222 
L 142.103747 -174.577917 
L 146.186096 -174.028135 
L 150.268444 -173.340655 
L 154.350792 -172.588627 
L 158.433141 -171.832017 
L 162.515489 -171.113401 
L 166.597837 -170.457784 
L 170.680186 -169.875282 
L 174.762534 -169.365233 
L 178.844882 -168.920475 
L 182.927231 -168.530948 
L 187.009579 -168.186257 
L 191.091928 -167.877176 
L 195.174276 -167.596294 
L 199.256624 -167.338062 
L 203.338973 -167.098504 
L 207.421321 -166.874767 
L 211.503669 -166.664655 
L 215.586018 -166.466234 
L 219.668366 -166.277555 
L 223.750715 -166.096545 
L 227.833063 -165.921054 
L 231.915411 -165.749053 
L 235.99776 -165.57893 
L 240.080108 -165.409785 
L 244.162456 -165.241643 
L 248.244805 -165.075503 
L 252.327153 -164.913187 
L 256.409501 -164.757024 
L 260.49185 -164.609444 
L 264.574198 -164.472592 
L 268.656547 -164.348034 
L 272.738895 -164.236592 
L 276.821243 -164.138302 
L 280.903592 -164.052459 
L 284.98594 -163.97771 
L 289.068288 -163.912191 
L 293.150637 -163.853704 
L 297.232985 -163.799951 
L 301.315334 -163.748819 
L 305.397682 -163.698666 
L 309.48003 -163.648559 
L 313.562379 -163.598404 
L 317.644727 -163.548911 
L 321.727075 -163.501396 
L 325.809424 -163.457452 
L 329.891772 -163.41855 
L 333.97412 -163.385664 
L 338.056469 -163.358997 
L 342.138817 -163.337869 
L 346.221166 -163.32077 
L 350.303514 -163.305563 
L 354.385862 -163.289783 
L 358.468211 -163.270952 
L 362.550559 -163.246886 
L 366.632907 -163.21595 
L 370.715256 -163.177283 
L 374.797604 -163.130989 
L 378.879953 -163.078297 
L 382.962301 -163.021656 
L 387.044649 -162.964693 
L 391.126998 -162.911982 
L 395.209346 -162.868555 
L 399.291694 -162.839174 
L 403.374043 -162.827402 
L 407.456391 -162.834632 
L 411.538739 -162.85924 
L 415.621088 -162.89611 
L 419.703436 -162.936728 
L 423.785785 -162.969978 
L 427.868133 -162.983639 
L 431.950481 -162.966363 
L 436.03283 -162.909771 
L 440.115178 -162.810181 
L 444.197526 -162.669518 
L 448.279875 -162.495136 
L 452.362223 -162.298574 
L 456.444572 -162.093535 
L 460.52692 -161.893601 
L 464.609268 -161.710207 
L 468.691617 -161.551299 
L 472.773965 -161.420852 
L 476.856313 -161.319191 
L 480.938662 -161.243858 
L 485.02101 -161.190716 
L 485.02101 -161.010534 
L 485.02101 -161.010534 
L 480.938662 -160.957392 
L 476.856313 -160.882059 
L 472.773965 -160.780398 
L 468.691617 -160.649951 
L 464.609268 -160.491043 
L 460.52692 -160.307649 
L 456.444572 -160.107715 
L 452.362223 -159.902676 
L 448.279875 -159.706114 
L 444.197526 -159.531732 
L 440.115178 -159.391069 
L 436.03283 -159.291479 
L 431.950481 -159.234887 
L 427.868133 -159.217611 
L 423.785785 -159.231272 
L 419.703436 -159.264522 
L 415.621088 -159.30514 
L 411.538739 -159.34201 
L 407.456391 -159.366618 
L 403.374043 -159.373848 
L 399.291694 -159.362076 
L 395.209346 -159.332695 
L 391.126998 -159.289268 
L 387.044649 -159.236557 
L 382.962301 -159.179594 
L 378.879953 -159.122953 
L 374.797604 -159.070261 
L 370.715256 -159.023967 
L 366.632907 -158.9853 
L 362.550559 -158.954364 
L 358.468211 -158.930298 
L 354.385862 -158.911467 
L 350.303514 -158.895687 
L 346.221166 -158.88048 
L 342.138817 -158.863381 
L 338.056469 -158.842253 
L 333.97412 -158.815586 
L 329.891772 -158.7827 
L 325.809424 -158.743798 
L 321.727075 -158.699854 
L 317.644727 -158.652339 
L 313.562379 -158.602846 
L 309.48003 -158.552691 
L 305.397682 -158.502584 
L 301.315334 -158.452431 
L 297.232985 -158.401299 
L 293.150637 -158.347546 
L 289.068288 -158.289059 
L 284.98594 -158.22354 
L 280.903592 -158.148791 
L 276.821243 -158.062948 
L 272.738895 -157.964658 
L 268.656547 -157.853216 
L 264.574198 -157.728658 
L 260.49185 -157.591806 
L 256.409501 -157.444226 
L 252.327153 -157.288063 
L 248.244805 -157.125747 
L 244.162456 -156.959607 
L 240.080108 -156.791465 
L 235.99776 -156.62232 
L 231.915411 -156.452197 
L 227.833063 -156.280196 
L 223.750715 -156.104705 
L 219.668366 -155.923695 
L 215.586018 -155.735016 
L 211.503669 -155.536595 
L 207.421321 -155.326483 
L 203.338973 -155.102746 
L 199.256624 -154.863188 
L 195.174276 -154.604956 
L 191.091928 -154.324074 
L 187.009579 -154.014993 
L 182.927231 -153.670302 
L 178.844882 -153.280775 
L 174.762534 -152.836017 
L 170.680186 -152.325968 
L 166.597837 -151.743466 
L 162.515489 -151.087849 
L 158.433141 -150.369233 
L 154.350792 -149.612623 
L 150.268444 -148.860595 
L 146.186096 -148.173115 
L 142.103747 -147.623333 
L 138.021399 -147.28903 
L 133.93905 -147.240625 
L 129.856702 -147.527987 
L 125.774354 -148.169113 
L 121.692005 -149.143775 
L 117.609657 -150.39419 
L 113.527309 -151.832993 
L 109.44496 -153.356779 
L 105.362612 -154.862021 
L 101.280263 -156.25968 
L 97.197915 -157.485463 
L 93.115567 -158.504159 
L 89.033218 -159.308181 
L 84.95087 -159.91183 
L 80.868522 -160.343464 
z
" style="stroke: #3d3d3d; stroke-width: 1.25"/>
    </defs>
    <g clip-path="url(#paf2dc2a02e)">
     <use xlink:href="#mba56d33ecd" x="0" y="339.34375" style="fill: #9372b2; stroke: #3d3d3d; stroke-width: 1.25"/>
    </g>
   </g>
   <g id="PolyCollection_6">
    <defs>
     <path id="m9b4d5748d4" d="M 81.291267 -125.675211 
L 81.291267 -127.226039 
L 85.344837 -127.668157 
L 89.398407 -128.285923 
L 93.451978 -129.107638 
L 97.505548 -130.146823 
L 101.559118 -131.394232 
L 105.612688 -132.812128 
L 109.666259 -134.333062 
L 113.719829 -135.864641 
L 117.773399 -137.300336 
L 121.826969 -138.53463 
L 125.88054 -139.479344 
L 129.93411 -140.07737 
L 133.98768 -140.310625 
L 138.041251 -140.200547 
L 142.094821 -139.801463 
L 146.148391 -139.188915 
L 150.201961 -138.446019 
L 154.255532 -137.6509 
L 158.309102 -136.867447 
L 162.362672 -136.140401 
L 166.416242 -135.49464 
L 170.469813 -134.93767 
L 174.523383 -134.464043 
L 178.576953 -134.060403 
L 182.630523 -133.710179 
L 186.684094 -133.397298 
L 190.737664 -133.108621 
L 194.791234 -132.835114 
L 198.844804 -132.571936 
L 202.898375 -132.317755 
L 206.951945 -132.073654 
L 211.005515 -131.841936 
L 215.059085 -131.625074 
L 219.112656 -131.424955 
L 223.166226 -131.242455 
L 227.219796 -131.077303 
L 231.273366 -130.928168 
L 235.326937 -130.792874 
L 239.380507 -130.668692 
L 243.434077 -130.552655 
L 247.487648 -130.44188 
L 251.541218 -130.333891 
L 255.594788 -130.226902 
L 259.648358 -130.120042 
L 263.701929 -130.013449 
L 267.755499 -129.908186 
L 271.809069 -129.805958 
L 275.862639 -129.708654 
L 279.91621 -129.617837 
L 283.96978 -129.534291 
L 288.02335 -129.457788 
L 292.07692 -129.387127 
L 296.130491 -129.32043 
L 300.184061 -129.255587 
L 304.237631 -129.190696 
L 308.291201 -129.124383 
L 312.344772 -129.055926 
L 316.398342 -128.985226 
L 320.451912 -128.912685 
L 324.505482 -128.839091 
L 328.559053 -128.765548 
L 332.612623 -128.693453 
L 336.666193 -128.624447 
L 340.719763 -128.560292 
L 344.773334 -128.502609 
L 348.826904 -128.452529 
L 352.880474 -128.410302 
L 356.934044 -128.375005 
L 360.987615 -128.344464 
L 365.041185 -128.315472 
L 369.094755 -128.284318 
L 373.148326 -128.247532 
L 377.201896 -128.202713 
L 381.255466 -128.149215 
L 385.309036 -128.088507 
L 389.362607 -128.024091 
L 393.416177 -127.960947 
L 397.469747 -127.904596 
L 401.523317 -127.85997 
L 405.576888 -127.830308 
L 409.630458 -127.816291 
L 413.684028 -127.815604 
L 417.737598 -127.823016 
L 421.791169 -127.831005 
L 425.844739 -127.830847 
L 429.898309 -127.814023 
L 433.951879 -127.773691 
L 438.00545 -127.705945 
L 442.05902 -127.610587 
L 446.11259 -127.491225 
L 450.16616 -127.354656 
L 454.219731 -127.209675 
L 458.273301 -127.065583 
L 462.326871 -126.930737 
L 466.380441 -126.811454 
L 470.434012 -126.711447 
L 474.487582 -126.631825 
L 478.541152 -126.571542 
L 482.594723 -126.528092 
L 482.594723 -126.373158 
L 482.594723 -126.373158 
L 478.541152 -126.329708 
L 474.487582 -126.269425 
L 470.434012 -126.189803 
L 466.380441 -126.089796 
L 462.326871 -125.970513 
L 458.273301 -125.835667 
L 454.219731 -125.691575 
L 450.16616 -125.546594 
L 446.11259 -125.410025 
L 442.05902 -125.290663 
L 438.00545 -125.195305 
L 433.951879 -125.127559 
L 429.898309 -125.087227 
L 425.844739 -125.070403 
L 421.791169 -125.070245 
L 417.737598 -125.078234 
L 413.684028 -125.085646 
L 409.630458 -125.084959 
L 405.576888 -125.070942 
L 401.523317 -125.04128 
L 397.469747 -124.996654 
L 393.416177 -124.940303 
L 389.362607 -124.877159 
L 385.309036 -124.812743 
L 381.255466 -124.752035 
L 377.201896 -124.698537 
L 373.148326 -124.653718 
L 369.094755 -124.616932 
L 365.041185 -124.585778 
L 360.987615 -124.556786 
L 356.934044 -124.526245 
L 352.880474 -124.490948 
L 348.826904 -124.448721 
L 344.773334 -124.398641 
L 340.719763 -124.340958 
L 336.666193 -124.276803 
L 332.612623 -124.207797 
L 328.559053 -124.135702 
L 324.505482 -124.062159 
L 320.451912 -123.988565 
L 316.398342 -123.916024 
L 312.344772 -123.845324 
L 308.291201 -123.776867 
L 304.237631 -123.710554 
L 300.184061 -123.645663 
L 296.130491 -123.58082 
L 292.07692 -123.514123 
L 288.02335 -123.443462 
L 283.96978 -123.366959 
L 279.91621 -123.283413 
L 275.862639 -123.192596 
L 271.809069 -123.095292 
L 267.755499 -122.993064 
L 263.701929 -122.887801 
L 259.648358 -122.781208 
L 255.594788 -122.674348 
L 251.541218 -122.567359 
L 247.487648 -122.45937 
L 243.434077 -122.348595 
L 239.380507 -122.232558 
L 235.326937 -122.108376 
L 231.273366 -121.973082 
L 227.219796 -121.823947 
L 223.166226 -121.658795 
L 219.112656 -121.476295 
L 215.059085 -121.276176 
L 211.005515 -121.059314 
L 206.951945 -120.827596 
L 202.898375 -120.583495 
L 198.844804 -120.329314 
L 194.791234 -120.066136 
L 190.737664 -119.792629 
L 186.684094 -119.503952 
L 182.630523 -119.191071 
L 178.576953 -118.840847 
L 174.523383 -118.437207 
L 170.469813 -117.96358 
L 166.416242 -117.40661 
L 162.362672 -116.760849 
L 158.309102 -116.033803 
L 154.255532 -115.25035 
L 150.201961 -114.455231 
L 146.148391 -113.712335 
L 142.094821 -113.099787 
L 138.041251 -112.700703 
L 133.98768 -112.590625 
L 129.93411 -112.82388 
L 125.88054 -113.421906 
L 121.826969 -114.36662 
L 117.773399 -115.600914 
L 113.719829 -117.036609 
L 109.666259 -118.568188 
L 105.612688 -120.089122 
L 101.559118 -121.507018 
L 97.505548 -122.754427 
L 93.451978 -123.793612 
L 89.398407 -124.615327 
L 85.344837 -125.233093 
L 81.291267 -125.675211 
z
" style="stroke: #3d3d3d; stroke-width: 1.25"/>
    </defs>
    <g clip-path="url(#paf2dc2a02e)">
     <use xlink:href="#m9b4d5748d4" x="0" y="339.34375" style="fill: #845b53; stroke: #3d3d3d; stroke-width: 1.25"/>
    </g>
   </g>
   <g id="PolyCollection_7">
    <defs>
     <path id="m31dd9e8ef4" d="M 93.975585 -91.116934 
L 93.975585 -92.484316 
L 97.504755 -93.022323 
L 101.033926 -93.844371 
L 104.563096 -95.004458 
L 108.092267 -96.512544 
L 111.621437 -98.31121 
L 115.150608 -100.266533 
L 118.679779 -102.181974 
L 122.208949 -103.835811 
L 125.73812 -105.0321 
L 129.26729 -105.647975 
L 132.796461 -105.660625 
L 136.325631 -105.145527 
L 139.854802 -104.249004 
L 143.383972 -103.146951 
L 146.913143 -102.004095 
L 150.442313 -100.944668 
L 153.971484 -100.039193 
L 157.500655 -99.306383 
L 161.029825 -98.72573 
L 164.558996 -98.255318 
L 168.088166 -97.849667 
L 171.617337 -97.473608 
L 175.146507 -97.109688 
L 178.675678 -96.758534 
L 182.204848 -96.433486 
L 185.734019 -96.152213 
L 189.263189 -95.928439 
L 192.79236 -95.766198 
L 196.321531 -95.657751 
L 199.850701 -95.584995 
L 203.379872 -95.523449 
L 206.909042 -95.447639 
L 210.438213 -95.336676 
L 213.967383 -95.178801 
L 217.496554 -94.973717 
L 221.025724 -94.731992 
L 224.554895 -94.471607 
L 228.084065 -94.21272 
L 231.613236 -93.972361 
L 235.142407 -93.760746 
L 238.671577 -93.580216 
L 242.200748 -93.426765 
L 245.729918 -93.29324 
L 249.259089 -93.17278 
L 252.788259 -93.061199 
L 256.31743 -92.957583 
L 259.8466 -92.863204 
L 263.375771 -92.779541 
L 266.904941 -92.706512 
L 270.434112 -92.641781 
L 273.963283 -92.581384 
L 277.492453 -92.521237 
L 281.021624 -92.458717 
L 284.550794 -92.393597 
L 288.079965 -92.328034 
L 291.609135 -92.265796 
L 295.138306 -92.211161 
L 298.667476 -92.167877 
L 302.196647 -92.13838 
L 305.725818 -92.123335 
L 309.254988 -92.121521 
L 312.784159 -92.130085 
L 316.313329 -92.145166 
L 319.8425 -92.162669 
L 323.37167 -92.178924 
L 326.900841 -92.190972 
L 330.430011 -92.196479 
L 333.959182 -92.193536 
L 337.488352 -92.180644 
L 341.017523 -92.157029 
L 344.546694 -92.123114 
L 348.075864 -92.080824 
L 351.605035 -92.033437 
L 355.134205 -91.984982 
L 358.663376 -91.939385 
L 362.192546 -91.899699 
L 365.721717 -91.867669 
L 369.250887 -91.843715 
L 372.780058 -91.827254 
L 376.309228 -91.817175 
L 379.838399 -91.812313 
L 383.36757 -91.811755 
L 386.89674 -91.814944 
L 390.425911 -91.821563 
L 393.955081 -91.831277 
L 397.484252 -91.843422 
L 401.013422 -91.85679 
L 404.542593 -91.869635 
L 408.071763 -91.879932 
L 411.600934 -91.885849 
L 415.130104 -91.886262 
L 418.659275 -91.881089 
L 422.188446 -91.871313 
L 425.717616 -91.858683 
L 429.246787 -91.8452 
L 432.775957 -91.83261 
L 436.305128 -91.822071 
L 439.834298 -91.814058 
L 443.363469 -91.808483 
L 443.363469 -91.792767 
L 443.363469 -91.792767 
L 439.834298 -91.787192 
L 436.305128 -91.779179 
L 432.775957 -91.76864 
L 429.246787 -91.75605 
L 425.717616 -91.742567 
L 422.188446 -91.729937 
L 418.659275 -91.720161 
L 415.130104 -91.714988 
L 411.600934 -91.715401 
L 408.071763 -91.721318 
L 404.542593 -91.731615 
L 401.013422 -91.74446 
L 397.484252 -91.757828 
L 393.955081 -91.769973 
L 390.425911 -91.779687 
L 386.89674 -91.786306 
L 383.36757 -91.789495 
L 379.838399 -91.788937 
L 376.309228 -91.784075 
L 372.780058 -91.773996 
L 369.250887 -91.757535 
L 365.721717 -91.733581 
L 362.192546 -91.701551 
L 358.663376 -91.661865 
L 355.134205 -91.616268 
L 351.605035 -91.567813 
L 348.075864 -91.520426 
L 344.546694 -91.478136 
L 341.017523 -91.444221 
L 337.488352 -91.420606 
L 333.959182 -91.407714 
L 330.430011 -91.404771 
L 326.900841 -91.410278 
L 323.37167 -91.422326 
L 319.8425 -91.438581 
L 316.313329 -91.456084 
L 312.784159 -91.471165 
L 309.254988 -91.479729 
L 305.725818 -91.477915 
L 302.196647 -91.46287 
L 298.667476 -91.433373 
L 295.138306 -91.390089 
L 291.609135 -91.335454 
L 288.079965 -91.273216 
L 284.550794 -91.207653 
L 281.021624 -91.142533 
L 277.492453 -91.080013 
L 273.963283 -91.019866 
L 270.434112 -90.959469 
L 266.904941 -90.894738 
L 263.375771 -90.821709 
L 259.8466 -90.738046 
L 256.31743 -90.643667 
L 252.788259 -90.540051 
L 249.259089 -90.42847 
L 245.729918 -90.30801 
L 242.200748 -90.174485 
L 238.671577 -90.021034 
L 235.142407 -89.840504 
L 231.613236 -89.628889 
L 228.084065 -89.38853 
L 224.554895 -89.129643 
L 221.025724 -88.869258 
L 217.496554 -88.627533 
L 213.967383 -88.422449 
L 210.438213 -88.264574 
L 206.909042 -88.153611 
L 203.379872 -88.077801 
L 199.850701 -88.016255 
L 196.321531 -87.943499 
L 192.79236 -87.835052 
L 189.263189 -87.672811 
L 185.734019 -87.449037 
L 182.204848 -87.167764 
L 178.675678 -86.842716 
L 175.146507 -86.491562 
L 171.617337 -86.127642 
L 168.088166 -85.751583 
L 164.558996 -85.345932 
L 161.029825 -84.87552 
L 157.500655 -84.294867 
L 153.971484 -83.562057 
L 150.442313 -82.656582 
L 146.913143 -81.597155 
L 143.383972 -80.454299 
L 139.854802 -79.352246 
L 136.325631 -78.455723 
L 132.796461 -77.940625 
L 129.26729 -77.953275 
L 125.73812 -78.56915 
L 122.208949 -79.765439 
L 118.679779 -81.419276 
L 115.150608 -83.334717 
L 111.621437 -85.29004 
L 108.092267 -87.088706 
L 104.563096 -88.596792 
L 101.033926 -89.756879 
L 97.504755 -90.578927 
L 93.975585 -91.116934 
z
" style="stroke: #3d3d3d; stroke-width: 1.25"/>
    </defs>
    <g clip-path="url(#paf2dc2a02e)">
     <use xlink:href="#m31dd9e8ef4" x="0" y="339.34375" style="fill: #d684bd; stroke: #3d3d3d; stroke-width: 1.25"/>
    </g>
   </g>
   <g id="PolyCollection_8">
    <defs>
     <path id="m1b659b472e" d="M 89.107624 -56.510717 
L 89.107624 -57.790533 
L 91.043032 -57.983288 
L 92.97844 -58.219824 
L 94.913849 -58.505629 
L 96.849257 -58.845654 
L 98.784665 -59.24394 
L 100.720073 -59.70324 
L 102.655481 -60.224655 
L 104.590889 -60.807313 
L 106.526297 -61.448133 
L 108.461705 -62.141696 
L 110.397114 -62.880238 
L 112.332522 -63.653797 
L 114.26793 -64.450489 
L 116.203338 -65.256916 
L 118.138746 -66.058669 
L 120.074154 -66.8409 
L 122.009562 -67.588911 
L 123.944971 -68.288721 
L 125.880379 -68.927568 
L 127.815787 -69.494318 
L 129.751195 -69.979756 
L 131.686603 -70.376752 
L 133.622011 -70.680308 
L 135.557419 -70.8875 
L 137.492827 -70.997345 
L 139.428236 -71.010625 
L 141.363644 -70.929684 
L 143.299052 -70.75824 
L 145.23446 -70.501227 
L 147.169868 -70.164663 
L 149.105276 -69.755563 
L 151.040684 -69.281875 
L 152.976092 -68.752427 
L 154.911501 -68.176864 
L 156.846909 -67.565566 
L 158.782317 -66.929509 
L 160.717725 -66.280085 
L 162.653133 -65.628862 
L 164.588541 -64.987291 
L 166.523949 -64.366374 
L 168.459357 -63.776319 
L 170.394766 -63.226182 
L 172.330174 -62.723546 
L 174.265582 -62.274237 
L 176.20099 -61.882109 
L 178.136398 -61.548909 
L 180.071806 -61.274235 
L 182.007214 -61.055589 
L 183.942623 -60.888527 
L 185.878031 -60.766907 
L 187.813439 -60.683214 
L 189.748847 -60.628957 
L 191.684255 -60.595116 
L 193.619663 -60.572612 
L 195.555071 -60.552782 
L 197.490479 -60.527823 
L 199.425888 -60.491185 
L 201.361296 -60.43788 
L 203.296704 -60.36469 
L 205.232112 -60.270266 
L 207.16752 -60.155092 
L 209.102928 -60.021339 
L 211.038336 -59.872609 
L 212.973744 -59.713589 
L 214.909153 -59.549647 
L 216.844561 -59.386396 
L 218.779969 -59.229266 
L 220.715377 -59.083112 
L 222.650785 -58.951883 
L 224.586193 -58.83838 
L 226.521601 -58.744113 
L 228.45701 -58.66926 
L 230.392418 -58.612732 
L 232.327826 -58.572325 
L 234.263234 -58.54495 
L 236.198642 -58.526903 
L 238.13405 -58.514179 
L 240.069458 -58.502769 
L 242.004866 -58.48895 
L 243.940275 -58.469521 
L 245.875683 -58.441992 
L 247.811091 -58.404695 
L 249.746499 -58.356834 
L 251.681907 -58.29846 
L 253.617315 -58.230389 
L 255.552723 -58.15407 
L 257.488131 -58.071422 
L 259.42354 -57.984656 
L 261.358948 -57.896094 
L 263.294356 -57.808007 
L 265.229764 -57.72247 
L 267.165172 -57.641262 
L 269.10058 -57.565793 
L 271.035988 -57.497072 
L 272.971396 -57.435712 
L 274.906805 -57.38195 
L 276.842213 -57.335705 
L 278.777621 -57.29663 
L 280.713029 -57.264189 
L 280.713029 -57.037061 
L 280.713029 -57.037061 
L 278.777621 -57.00462 
L 276.842213 -56.965545 
L 274.906805 -56.9193 
L 272.971396 -56.865538 
L 271.035988 -56.804178 
L 269.10058 -56.735457 
L 267.165172 -56.659988 
L 265.229764 -56.57878 
L 263.294356 -56.493243 
L 261.358948 -56.405156 
L 259.42354 -56.316594 
L 257.488131 -56.229828 
L 255.552723 -56.14718 
L 253.617315 -56.070861 
L 251.681907 -56.00279 
L 249.746499 -55.944416 
L 247.811091 -55.896555 
L 245.875683 -55.859258 
L 243.940275 -55.831729 
L 242.004866 -55.8123 
L 240.069458 -55.798481 
L 238.13405 -55.787071 
L 236.198642 -55.774347 
L 234.263234 -55.7563 
L 232.327826 -55.728925 
L 230.392418 -55.688518 
L 228.45701 -55.63199 
L 226.521601 -55.557137 
L 224.586193 -55.46287 
L 222.650785 -55.349367 
L 220.715377 -55.218138 
L 218.779969 -55.071984 
L 216.844561 -54.914854 
L 214.909153 -54.751603 
L 212.973744 -54.587661 
L 211.038336 -54.428641 
L 209.102928 -54.279911 
L 207.16752 -54.146158 
L 205.232112 -54.030984 
L 203.296704 -53.93656 
L 201.361296 -53.86337 
L 199.425888 -53.810065 
L 197.490479 -53.773427 
L 195.555071 -53.748468 
L 193.619663 -53.728638 
L 191.684255 -53.706134 
L 189.748847 -53.672293 
L 187.813439 -53.618036 
L 185.878031 -53.534343 
L 183.942623 -53.412723 
L 182.007214 -53.245661 
L 180.071806 -53.027015 
L 178.136398 -52.752341 
L 176.20099 -52.419141 
L 174.265582 -52.027013 
L 172.330174 -51.577704 
L 170.394766 -51.075068 
L 168.459357 -50.524931 
L 166.523949 -49.934876 
L 164.588541 -49.313959 
L 162.653133 -48.672388 
L 160.717725 -48.021165 
L 158.782317 -47.371741 
L 156.846909 -46.735684 
L 154.911501 -46.124386 
L 152.976092 -45.548823 
L 151.040684 -45.019375 
L 149.105276 -44.545687 
L 147.169868 -44.136587 
L 145.23446 -43.800023 
L 143.299052 -43.54301 
L 141.363644 -43.371566 
L 139.428236 -43.290625 
L 137.492827 -43.303905 
L 135.557419 -43.41375 
L 133.622011 -43.620942 
L 131.686603 -43.924498 
L 129.751195 -44.321494 
L 127.815787 -44.806932 
L 125.880379 -45.373682 
L 123.944971 -46.012529 
L 122.009562 -46.712339 
L 120.074154 -47.46035 
L 118.138746 -48.242581 
L 116.203338 -49.044334 
L 114.26793 -49.850761 
L 112.332522 -50.647453 
L 110.397114 -51.421012 
L 108.461705 -52.159554 
L 106.526297 -52.853117 
L 104.590889 -53.493937 
L 102.655481 -54.076595 
L 100.720073 -54.59801 
L 98.784665 -55.05731 
L 96.849257 -55.455596 
L 94.913849 -55.795621 
L 92.97844 -56.081426 
L 91.043032 -56.317962 
L 89.107624 -56.510717 
z
" style="stroke: #3d3d3d; stroke-width: 1.25"/>
    </defs>
    <g clip-path="url(#paf2dc2a02e)">
     <use xlink:href="#m1b659b472e" x="0" y="339.34375" style="fill: #7f7f7f; stroke: #3d3d3d; stroke-width: 1.25"/>
    </g>
   </g>
   <g id="matplotlib.axis_1">
    <g id="xtick_1">
     <g id="line2d_1">
      <defs>
       <path id="mfeb8609da3" d="M 0 0 
L 0 3.5 
" style="stroke: #000000; stroke-width: 0.8"/>
      </defs>
      <g>
       <use xlink:href="#mfeb8609da3" x="64.196901" y="299.518125" style="stroke: #000000; stroke-width: 0.8"/>
      </g>
     </g>
     <g id="text_1">
      <!-- −1000 -->
      <g transform="translate(47.282057 314.116563) scale(0.1 -0.1)">
       <defs>
        <path id="DejaVuSans-2212" d="M 678 2272 
L 4684 2272 
L 4684 1741 
L 678 1741 
L 678 2272 
z
" transform="scale(0.015625)"/>
        <path id="DejaVuSans-31" d="M 794 531 
L 1825 531 
L 1825 4091 
L 703 3866 
L 703 4441 
L 1819 4666 
L 2450 4666 
L 2450 531 
L 3481 531 
L 3481 0 
L 794 0 
L 794 531 
z
" transform="scale(0.015625)"/>
        <path id="DejaVuSans-30" d="M 2034 4250 
Q 1547 4250 1301 3770 
Q 1056 3291 1056 2328 
Q 1056 1369 1301 889 
Q 1547 409 2034 409 
Q 2525 409 2770 889 
Q 3016 1369 3016 2328 
Q 3016 3291 2770 3770 
Q 2525 4250 2034 4250 
z
M 2034 4750 
Q 2819 4750 3233 4129 
Q 3647 3509 3647 2328 
Q 3647 1150 3233 529 
Q 2819 -91 2034 -91 
Q 1250 -91 836 529 
Q 422 1150 422 2328 
Q 422 3509 836 4129 
Q 1250 4750 2034 4750 
z
" transform="scale(0.015625)"/>
       </defs>
       <use xlink:href="#DejaVuSans-2212"/>
       <use xlink:href="#DejaVuSans-31" x="83.789062"/>
       <use xlink:href="#DejaVuSans-30" x="147.412109"/>
       <use xlink:href="#DejaVuSans-30" x="211.035156"/>
       <use xlink:href="#DejaVuSans-30" x="274.658203"/>
      </g>
     </g>
    </g>
    <g id="xtick_2">
     <g id="line2d_2">
      <g>
       <use xlink:href="#mfeb8609da3" x="119.850855" y="299.518125" style="stroke: #000000; stroke-width: 0.8"/>
      </g>
     </g>
     <g id="text_2">
      <!-- 0 -->
      <g transform="translate(116.669605 314.116563) scale(0.1 -0.1)">
       <use xlink:href="#DejaVuSans-30"/>
      </g>
     </g>
    </g>
    <g id="xtick_3">
     <g id="line2d_3">
      <g>
       <use xlink:href="#mfeb8609da3" x="175.504808" y="299.518125" style="stroke: #000000; stroke-width: 0.8"/>
      </g>
     </g>
     <g id="text_3">
      <!-- 1000 -->
      <g transform="translate(162.779808 314.116563) scale(0.1 -0.1)">
       <use xlink:href="#DejaVuSans-31"/>
       <use xlink:href="#DejaVuSans-30" x="63.623047"/>
       <use xlink:href="#DejaVuSans-30" x="127.246094"/>
       <use xlink:href="#DejaVuSans-30" x="190.869141"/>
      </g>
     </g>
    </g>
    <g id="xtick_4">
     <g id="line2d_4">
      <g>
       <use xlink:href="#mfeb8609da3" x="231.158762" y="299.518125" style="stroke: #000000; stroke-width: 0.8"/>
      </g>
     </g>
     <g id="text_4">
      <!-- 2000 -->
      <g transform="translate(218.433762 314.116563) scale(0.1 -0.1)">
       <defs>
        <path id="DejaVuSans-32" d="M 1228 531 
L 3431 531 
L 3431 0 
L 469 0 
L 469 531 
Q 828 903 1448 1529 
Q 2069 2156 2228 2338 
Q 2531 2678 2651 2914 
Q 2772 3150 2772 3378 
Q 2772 3750 2511 3984 
Q 2250 4219 1831 4219 
Q 1534 4219 1204 4116 
Q 875 4013 500 3803 
L 500 4441 
Q 881 4594 1212 4672 
Q 1544 4750 1819 4750 
Q 2544 4750 2975 4387 
Q 3406 4025 3406 3419 
Q 3406 3131 3298 2873 
Q 3191 2616 2906 2266 
Q 2828 2175 2409 1742 
Q 1991 1309 1228 531 
z
" transform="scale(0.015625)"/>
       </defs>
       <use xlink:href="#DejaVuSans-32"/>
       <use xlink:href="#DejaVuSans-30" x="63.623047"/>
       <use xlink:href="#DejaVuSans-30" x="127.246094"/>
       <use xlink:href="#DejaVuSans-30" x="190.869141"/>
      </g>
     </g>
    </g>
    <g id="xtick_5">
     <g id="line2d_5">
      <g>
       <use xlink:href="#mfeb8609da3" x="286.812716" y="299.518125" style="stroke: #000000; stroke-width: 0.8"/>
      </g>
     </g>
     <g id="text_5">
      <!-- 3000 -->
      <g transform="translate(274.087716 314.116563) scale(0.1 -0.1)">
       <defs>
        <path id="DejaVuSans-33" d="M 2597 2516 
Q 3050 2419 3304 2112 
Q 3559 1806 3559 1356 
Q 3559 666 3084 287 
Q 2609 -91 1734 -91 
Q 1441 -91 1130 -33 
Q 819 25 488 141 
L 488 750 
Q 750 597 1062 519 
Q 1375 441 1716 441 
Q 2309 441 2620 675 
Q 2931 909 2931 1356 
Q 2931 1769 2642 2001 
Q 2353 2234 1838 2234 
L 1294 2234 
L 1294 2753 
L 1863 2753 
Q 2328 2753 2575 2939 
Q 2822 3125 2822 3475 
Q 2822 3834 2567 4026 
Q 2313 4219 1838 4219 
Q 1578 4219 1281 4162 
Q 984 4106 628 3988 
L 628 4550 
Q 988 4650 1302 4700 
Q 1616 4750 1894 4750 
Q 2613 4750 3031 4423 
Q 3450 4097 3450 3541 
Q 3450 3153 3228 2886 
Q 3006 2619 2597 2516 
z
" transform="scale(0.015625)"/>
       </defs>
       <use xlink:href="#DejaVuSans-33"/>
       <use xlink:href="#DejaVuSans-30" x="63.623047"/>
       <use xlink:href="#DejaVuSans-30" x="127.246094"/>
       <use xlink:href="#DejaVuSans-30" x="190.869141"/>
      </g>
     </g>
    </g>
    <g id="xtick_6">
     <g id="line2d_6">
      <g>
       <use xlink:href="#mfeb8609da3" x="342.466669" y="299.518125" style="stroke: #000000; stroke-width: 0.8"/>
      </g>
     </g>
     <g id="text_6">
      <!-- 4000 -->
      <g transform="translate(329.741669 314.116563) scale(0.1 -0.1)">
       <defs>
        <path id="DejaVuSans-34" d="M 2419 4116 
L 825 1625 
L 2419 1625 
L 2419 4116 
z
M 2253 4666 
L 3047 4666 
L 3047 1625 
L 3713 1625 
L 3713 1100 
L 3047 1100 
L 3047 0 
L 2419 0 
L 2419 1100 
L 313 1100 
L 313 1709 
L 2253 4666 
z
" transform="scale(0.015625)"/>
       </defs>
       <use xlink:href="#DejaVuSans-34"/>
       <use xlink:href="#DejaVuSans-30" x="63.623047"/>
       <use xlink:href="#DejaVuSans-30" x="127.246094"/>
       <use xlink:href="#DejaVuSans-30" x="190.869141"/>
      </g>
     </g>
    </g>
    <g id="xtick_7">
     <g id="line2d_7">
      <g>
       <use xlink:href="#mfeb8609da3" x="398.120623" y="299.518125" style="stroke: #000000; stroke-width: 0.8"/>
      </g>
     </g>
     <g id="text_7">
      <!-- 5000 -->
      <g transform="translate(385.395623 314.116563) scale(0.1 -0.1)">
       <defs>
        <path id="DejaVuSans-35" d="M 691 4666 
L 3169 4666 
L 3169 4134 
L 1269 4134 
L 1269 2991 
Q 1406 3038 1543 3061 
Q 1681 3084 1819 3084 
Q 2600 3084 3056 2656 
Q 3513 2228 3513 1497 
Q 3513 744 3044 326 
Q 2575 -91 1722 -91 
Q 1428 -91 1123 -41 
Q 819 9 494 109 
L 494 744 
Q 775 591 1075 516 
Q 1375 441 1709 441 
Q 2250 441 2565 725 
Q 2881 1009 2881 1497 
Q 2881 1984 2565 2268 
Q 2250 2553 1709 2553 
Q 1456 2553 1204 2497 
Q 953 2441 691 2322 
L 691 4666 
z
" transform="scale(0.015625)"/>
       </defs>
       <use xlink:href="#DejaVuSans-35"/>
       <use xlink:href="#DejaVuSans-30" x="63.623047"/>
       <use xlink:href="#DejaVuSans-30" x="127.246094"/>
       <use xlink:href="#DejaVuSans-30" x="190.869141"/>
      </g>
     </g>
    </g>
    <g id="xtick_8">
     <g id="line2d_8">
      <g>
       <use xlink:href="#mfeb8609da3" x="453.774576" y="299.518125" style="stroke: #000000; stroke-width: 0.8"/>
      </g>
     </g>
     <g id="text_8">
      <!-- 6000 -->
      <g transform="translate(441.049576 314.116563) scale(0.1 -0.1)">
       <defs>
        <path id="DejaVuSans-36" d="M 2113 2584 
Q 1688 2584 1439 2293 
Q 1191 2003 1191 1497 
Q 1191 994 1439 701 
Q 1688 409 2113 409 
Q 2538 409 2786 701 
Q 3034 994 3034 1497 
Q 3034 2003 2786 2293 
Q 2538 2584 2113 2584 
z
M 3366 4563 
L 3366 3988 
Q 3128 4100 2886 4159 
Q 2644 4219 2406 4219 
Q 1781 4219 1451 3797 
Q 1122 3375 1075 2522 
Q 1259 2794 1537 2939 
Q 1816 3084 2150 3084 
Q 2853 3084 3261 2657 
Q 3669 2231 3669 1497 
Q 3669 778 3244 343 
Q 2819 -91 2113 -91 
Q 1303 -91 875 529 
Q 447 1150 447 2328 
Q 447 3434 972 4092 
Q 1497 4750 2381 4750 
Q 2619 4750 2861 4703 
Q 3103 4656 3366 4563 
z
" transform="scale(0.015625)"/>
       </defs>
       <use xlink:href="#DejaVuSans-36"/>
       <use xlink:href="#DejaVuSans-30" x="63.623047"/>
       <use xlink:href="#DejaVuSans-30" x="127.246094"/>
       <use xlink:href="#DejaVuSans-30" x="190.869141"/>
      </g>
     </g>
    </g>
    <g id="text_9">
     <!-- ESRD_dur -->
     <g transform="translate(252.725937 329.314375) scale(0.12 -0.12)">
      <defs>
       <path id="DejaVuSans-45" d="M 628 4666 
L 3578 4666 
L 3578 4134 
L 1259 4134 
L 1259 2753 
L 3481 2753 
L 3481 2222 
L 1259 2222 
L 1259 531 
L 3634 531 
L 3634 0 
L 628 0 
L 628 4666 
z
" transform="scale(0.015625)"/>
       <path id="DejaVuSans-53" d="M 3425 4513 
L 3425 3897 
Q 3066 4069 2747 4153 
Q 2428 4238 2131 4238 
Q 1616 4238 1336 4038 
Q 1056 3838 1056 3469 
Q 1056 3159 1242 3001 
Q 1428 2844 1947 2747 
L 2328 2669 
Q 3034 2534 3370 2195 
Q 3706 1856 3706 1288 
Q 3706 609 3251 259 
Q 2797 -91 1919 -91 
Q 1588 -91 1214 -16 
Q 841 59 441 206 
L 441 856 
Q 825 641 1194 531 
Q 1563 422 1919 422 
Q 2459 422 2753 634 
Q 3047 847 3047 1241 
Q 3047 1584 2836 1778 
Q 2625 1972 2144 2069 
L 1759 2144 
Q 1053 2284 737 2584 
Q 422 2884 422 3419 
Q 422 4038 858 4394 
Q 1294 4750 2059 4750 
Q 2388 4750 2728 4690 
Q 3069 4631 3425 4513 
z
" transform="scale(0.015625)"/>
       <path id="DejaVuSans-52" d="M 2841 2188 
Q 3044 2119 3236 1894 
Q 3428 1669 3622 1275 
L 4263 0 
L 3584 0 
L 2988 1197 
Q 2756 1666 2539 1819 
Q 2322 1972 1947 1972 
L 1259 1972 
L 1259 0 
L 628 0 
L 628 4666 
L 2053 4666 
Q 2853 4666 3247 4331 
Q 3641 3997 3641 3322 
Q 3641 2881 3436 2590 
Q 3231 2300 2841 2188 
z
M 1259 4147 
L 1259 2491 
L 2053 2491 
Q 2509 2491 2742 2702 
Q 2975 2913 2975 3322 
Q 2975 3731 2742 3939 
Q 2509 4147 2053 4147 
L 1259 4147 
z
" transform="scale(0.015625)"/>
       <path id="DejaVuSans-44" d="M 1259 4147 
L 1259 519 
L 2022 519 
Q 2988 519 3436 956 
Q 3884 1394 3884 2338 
Q 3884 3275 3436 3711 
Q 2988 4147 2022 4147 
L 1259 4147 
z
M 628 4666 
L 1925 4666 
Q 3281 4666 3915 4102 
Q 4550 3538 4550 2338 
Q 4550 1131 3912 565 
Q 3275 0 1925 0 
L 628 0 
L 628 4666 
z
" transform="scale(0.015625)"/>
       <path id="DejaVuSans-5f" d="M 3263 -1063 
L 3263 -1509 
L -63 -1509 
L -63 -1063 
L 3263 -1063 
z
" transform="scale(0.015625)"/>
       <path id="DejaVuSans-64" d="M 2906 2969 
L 2906 4863 
L 3481 4863 
L 3481 0 
L 2906 0 
L 2906 525 
Q 2725 213 2448 61 
Q 2172 -91 1784 -91 
Q 1150 -91 751 415 
Q 353 922 353 1747 
Q 353 2572 751 3078 
Q 1150 3584 1784 3584 
Q 2172 3584 2448 3432 
Q 2725 3281 2906 2969 
z
M 947 1747 
Q 947 1113 1208 752 
Q 1469 391 1925 391 
Q 2381 391 2643 752 
Q 2906 1113 2906 1747 
Q 2906 2381 2643 2742 
Q 2381 3103 1925 3103 
Q 1469 3103 1208 2742 
Q 947 2381 947 1747 
z
" transform="scale(0.015625)"/>
       <path id="DejaVuSans-75" d="M 544 1381 
L 544 3500 
L 1119 3500 
L 1119 1403 
Q 1119 906 1312 657 
Q 1506 409 1894 409 
Q 2359 409 2629 706 
Q 2900 1003 2900 1516 
L 2900 3500 
L 3475 3500 
L 3475 0 
L 2900 0 
L 2900 538 
Q 2691 219 2414 64 
Q 2138 -91 1772 -91 
Q 1169 -91 856 284 
Q 544 659 544 1381 
z
M 1991 3584 
L 1991 3584 
z
" transform="scale(0.015625)"/>
       <path id="DejaVuSans-72" d="M 2631 2963 
Q 2534 3019 2420 3045 
Q 2306 3072 2169 3072 
Q 1681 3072 1420 2755 
Q 1159 2438 1159 1844 
L 1159 0 
L 581 0 
L 581 3500 
L 1159 3500 
L 1159 2956 
Q 1341 3275 1631 3429 
Q 1922 3584 2338 3584 
Q 2397 3584 2469 3576 
Q 2541 3569 2628 3553 
L 2631 2963 
z
" transform="scale(0.015625)"/>
      </defs>
      <use xlink:href="#DejaVuSans-45"/>
      <use xlink:href="#DejaVuSans-53" x="63.183594"/>
      <use xlink:href="#DejaVuSans-52" x="126.660156"/>
      <use xlink:href="#DejaVuSans-44" x="196.142578"/>
      <use xlink:href="#DejaVuSans-5f" x="273.144531"/>
      <use xlink:href="#DejaVuSans-64" x="323.144531"/>
      <use xlink:href="#DejaVuSans-75" x="386.621094"/>
      <use xlink:href="#DejaVuSans-72" x="450"/>
     </g>
    </g>
   </g>
   <g id="matplotlib.axis_2">
    <g id="ytick_1">
     <g id="line2d_9">
      <defs>
       <path id="m7fec813bfe" d="M 0 0 
L -3.5 0 
" style="stroke: #000000; stroke-width: 0.8"/>
      </defs>
      <g>
       <use xlink:href="#m7fec813bfe" x="58.993437" y="39.643125" style="stroke: #000000; stroke-width: 0.8"/>
      </g>
     </g>
     <g id="text_10">
      <!-- 60-69 -->
      <g transform="translate(22.935625 43.442344) scale(0.1 -0.1)">
       <defs>
        <path id="DejaVuSans-2d" d="M 313 2009 
L 1997 2009 
L 1997 1497 
L 313 1497 
L 313 2009 
z
" transform="scale(0.015625)"/>
        <path id="DejaVuSans-39" d="M 703 97 
L 703 672 
Q 941 559 1184 500 
Q 1428 441 1663 441 
Q 2288 441 2617 861 
Q 2947 1281 2994 2138 
Q 2813 1869 2534 1725 
Q 2256 1581 1919 1581 
Q 1219 1581 811 2004 
Q 403 2428 403 3163 
Q 403 3881 828 4315 
Q 1253 4750 1959 4750 
Q 2769 4750 3195 4129 
Q 3622 3509 3622 2328 
Q 3622 1225 3098 567 
Q 2575 -91 1691 -91 
Q 1453 -91 1209 -44 
Q 966 3 703 97 
z
M 1959 2075 
Q 2384 2075 2632 2365 
Q 2881 2656 2881 3163 
Q 2881 3666 2632 3958 
Q 2384 4250 1959 4250 
Q 1534 4250 1286 3958 
Q 1038 3666 1038 3163 
Q 1038 2656 1286 2365 
Q 1534 2075 1959 2075 
z
" transform="scale(0.015625)"/>
       </defs>
       <use xlink:href="#DejaVuSans-36"/>
       <use xlink:href="#DejaVuSans-30" x="63.623047"/>
       <use xlink:href="#DejaVuSans-2d" x="127.246094"/>
       <use xlink:href="#DejaVuSans-36" x="163.330078"/>
       <use xlink:href="#DejaVuSans-39" x="226.953125"/>
      </g>
     </g>
    </g>
    <g id="ytick_2">
     <g id="line2d_10">
      <g>
       <use xlink:href="#m7fec813bfe" x="58.993437" y="74.293125" style="stroke: #000000; stroke-width: 0.8"/>
      </g>
     </g>
     <g id="text_11">
      <!-- 30-39 -->
      <g transform="translate(22.935625 78.092344) scale(0.1 -0.1)">
       <use xlink:href="#DejaVuSans-33"/>
       <use xlink:href="#DejaVuSans-30" x="63.623047"/>
       <use xlink:href="#DejaVuSans-2d" x="127.246094"/>
       <use xlink:href="#DejaVuSans-33" x="163.330078"/>
       <use xlink:href="#DejaVuSans-39" x="226.953125"/>
      </g>
     </g>
    </g>
    <g id="ytick_3">
     <g id="line2d_11">
      <g>
       <use xlink:href="#m7fec813bfe" x="58.993437" y="108.943125" style="stroke: #000000; stroke-width: 0.8"/>
      </g>
     </g>
     <g id="text_12">
      <!-- 50-59 -->
      <g transform="translate(22.935625 112.742344) scale(0.1 -0.1)">
       <use xlink:href="#DejaVuSans-35"/>
       <use xlink:href="#DejaVuSans-30" x="63.623047"/>
       <use xlink:href="#DejaVuSans-2d" x="127.246094"/>
       <use xlink:href="#DejaVuSans-35" x="163.330078"/>
       <use xlink:href="#DejaVuSans-39" x="226.953125"/>
      </g>
     </g>
    </g>
    <g id="ytick_4">
     <g id="line2d_12">
      <g>
       <use xlink:href="#m7fec813bfe" x="58.993437" y="143.593125" style="stroke: #000000; stroke-width: 0.8"/>
      </g>
     </g>
     <g id="text_13">
      <!-- 70-79 -->
      <g transform="translate(22.935625 147.392344) scale(0.1 -0.1)">
       <defs>
        <path id="DejaVuSans-37" d="M 525 4666 
L 3525 4666 
L 3525 4397 
L 1831 0 
L 1172 0 
L 2766 4134 
L 525 4134 
L 525 4666 
z
" transform="scale(0.015625)"/>
       </defs>
       <use xlink:href="#DejaVuSans-37"/>
       <use xlink:href="#DejaVuSans-30" x="63.623047"/>
       <use xlink:href="#DejaVuSans-2d" x="127.246094"/>
       <use xlink:href="#DejaVuSans-37" x="163.330078"/>
       <use xlink:href="#DejaVuSans-39" x="226.953125"/>
      </g>
     </g>
    </g>
    <g id="ytick_5">
     <g id="line2d_13">
      <g>
       <use xlink:href="#m7fec813bfe" x="58.993437" y="178.243125" style="stroke: #000000; stroke-width: 0.8"/>
      </g>
     </g>
     <g id="text_14">
      <!-- 40-49 -->
      <g transform="translate(22.935625 182.042344) scale(0.1 -0.1)">
       <use xlink:href="#DejaVuSans-34"/>
       <use xlink:href="#DejaVuSans-30" x="63.623047"/>
       <use xlink:href="#DejaVuSans-2d" x="127.246094"/>
       <use xlink:href="#DejaVuSans-34" x="163.330078"/>
       <use xlink:href="#DejaVuSans-39" x="226.953125"/>
      </g>
     </g>
    </g>
    <g id="ytick_6">
     <g id="line2d_14">
      <g>
       <use xlink:href="#m7fec813bfe" x="58.993437" y="212.893125" style="stroke: #000000; stroke-width: 0.8"/>
      </g>
     </g>
     <g id="text_15">
      <!-- 18-29 -->
      <g transform="translate(22.935625 216.692344) scale(0.1 -0.1)">
       <defs>
        <path id="DejaVuSans-38" d="M 2034 2216 
Q 1584 2216 1326 1975 
Q 1069 1734 1069 1313 
Q 1069 891 1326 650 
Q 1584 409 2034 409 
Q 2484 409 2743 651 
Q 3003 894 3003 1313 
Q 3003 1734 2745 1975 
Q 2488 2216 2034 2216 
z
M 1403 2484 
Q 997 2584 770 2862 
Q 544 3141 544 3541 
Q 544 4100 942 4425 
Q 1341 4750 2034 4750 
Q 2731 4750 3128 4425 
Q 3525 4100 3525 3541 
Q 3525 3141 3298 2862 
Q 3072 2584 2669 2484 
Q 3125 2378 3379 2068 
Q 3634 1759 3634 1313 
Q 3634 634 3220 271 
Q 2806 -91 2034 -91 
Q 1263 -91 848 271 
Q 434 634 434 1313 
Q 434 1759 690 2068 
Q 947 2378 1403 2484 
z
M 1172 3481 
Q 1172 3119 1398 2916 
Q 1625 2713 2034 2713 
Q 2441 2713 2670 2916 
Q 2900 3119 2900 3481 
Q 2900 3844 2670 4047 
Q 2441 4250 2034 4250 
Q 1625 4250 1398 4047 
Q 1172 3844 1172 3481 
z
" transform="scale(0.015625)"/>
       </defs>
       <use xlink:href="#DejaVuSans-31"/>
       <use xlink:href="#DejaVuSans-38" x="63.623047"/>
       <use xlink:href="#DejaVuSans-2d" x="127.246094"/>
       <use xlink:href="#DejaVuSans-32" x="163.330078"/>
       <use xlink:href="#DejaVuSans-39" x="226.953125"/>
      </g>
     </g>
    </g>
    <g id="ytick_7">
     <g id="line2d_15">
      <g>
       <use xlink:href="#m7fec813bfe" x="58.993437" y="247.543125" style="stroke: #000000; stroke-width: 0.8"/>
      </g>
     </g>
     <g id="text_16">
      <!-- 80-89 -->
      <g transform="translate(22.935625 251.342344) scale(0.1 -0.1)">
       <use xlink:href="#DejaVuSans-38"/>
       <use xlink:href="#DejaVuSans-30" x="63.623047"/>
       <use xlink:href="#DejaVuSans-2d" x="127.246094"/>
       <use xlink:href="#DejaVuSans-38" x="163.330078"/>
       <use xlink:href="#DejaVuSans-39" x="226.953125"/>
      </g>
     </g>
    </g>
    <g id="ytick_8">
     <g id="line2d_16">
      <g>
       <use xlink:href="#m7fec813bfe" x="58.993437" y="282.193125" style="stroke: #000000; stroke-width: 0.8"/>
      </g>
     </g>
     <g id="text_17">
      <!-- 90-99 -->
      <g transform="translate(22.935625 285.992344) scale(0.1 -0.1)">
       <use xlink:href="#DejaVuSans-39"/>
       <use xlink:href="#DejaVuSans-30" x="63.623047"/>
       <use xlink:href="#DejaVuSans-2d" x="127.246094"/>
       <use xlink:href="#DejaVuSans-39" x="163.330078"/>
       <use xlink:href="#DejaVuSans-39" x="226.953125"/>
      </g>
     </g>
    </g>
    <g id="text_18">
     <!-- Age_Group -->
     <g transform="translate(16.10625 193.786875) rotate(-90) scale(0.12 -0.12)">
      <defs>
       <path id="DejaVuSans-41" d="M 2188 4044 
L 1331 1722 
L 3047 1722 
L 2188 4044 
z
M 1831 4666 
L 2547 4666 
L 4325 0 
L 3669 0 
L 3244 1197 
L 1141 1197 
L 716 0 
L 50 0 
L 1831 4666 
z
" transform="scale(0.015625)"/>
       <path id="DejaVuSans-67" d="M 2906 1791 
Q 2906 2416 2648 2759 
Q 2391 3103 1925 3103 
Q 1463 3103 1205 2759 
Q 947 2416 947 1791 
Q 947 1169 1205 825 
Q 1463 481 1925 481 
Q 2391 481 2648 825 
Q 2906 1169 2906 1791 
z
M 3481 434 
Q 3481 -459 3084 -895 
Q 2688 -1331 1869 -1331 
Q 1566 -1331 1297 -1286 
Q 1028 -1241 775 -1147 
L 775 -588 
Q 1028 -725 1275 -790 
Q 1522 -856 1778 -856 
Q 2344 -856 2625 -561 
Q 2906 -266 2906 331 
L 2906 616 
Q 2728 306 2450 153 
Q 2172 0 1784 0 
Q 1141 0 747 490 
Q 353 981 353 1791 
Q 353 2603 747 3093 
Q 1141 3584 1784 3584 
Q 2172 3584 2450 3431 
Q 2728 3278 2906 2969 
L 2906 3500 
L 3481 3500 
L 3481 434 
z
" transform="scale(0.015625)"/>
       <path id="DejaVuSans-65" d="M 3597 1894 
L 3597 1613 
L 953 1613 
Q 991 1019 1311 708 
Q 1631 397 2203 397 
Q 2534 397 2845 478 
Q 3156 559 3463 722 
L 3463 178 
Q 3153 47 2828 -22 
Q 2503 -91 2169 -91 
Q 1331 -91 842 396 
Q 353 884 353 1716 
Q 353 2575 817 3079 
Q 1281 3584 2069 3584 
Q 2775 3584 3186 3129 
Q 3597 2675 3597 1894 
z
M 3022 2063 
Q 3016 2534 2758 2815 
Q 2500 3097 2075 3097 
Q 1594 3097 1305 2825 
Q 1016 2553 972 2059 
L 3022 2063 
z
" transform="scale(0.015625)"/>
       <path id="DejaVuSans-47" d="M 3809 666 
L 3809 1919 
L 2778 1919 
L 2778 2438 
L 4434 2438 
L 4434 434 
Q 4069 175 3628 42 
Q 3188 -91 2688 -91 
Q 1594 -91 976 548 
Q 359 1188 359 2328 
Q 359 3472 976 4111 
Q 1594 4750 2688 4750 
Q 3144 4750 3555 4637 
Q 3966 4525 4313 4306 
L 4313 3634 
Q 3963 3931 3569 4081 
Q 3175 4231 2741 4231 
Q 1884 4231 1454 3753 
Q 1025 3275 1025 2328 
Q 1025 1384 1454 906 
Q 1884 428 2741 428 
Q 3075 428 3337 486 
Q 3600 544 3809 666 
z
" transform="scale(0.015625)"/>
       <path id="DejaVuSans-6f" d="M 1959 3097 
Q 1497 3097 1228 2736 
Q 959 2375 959 1747 
Q 959 1119 1226 758 
Q 1494 397 1959 397 
Q 2419 397 2687 759 
Q 2956 1122 2956 1747 
Q 2956 2369 2687 2733 
Q 2419 3097 1959 3097 
z
M 1959 3584 
Q 2709 3584 3137 3096 
Q 3566 2609 3566 1747 
Q 3566 888 3137 398 
Q 2709 -91 1959 -91 
Q 1206 -91 779 398 
Q 353 888 353 1747 
Q 353 2609 779 3096 
Q 1206 3584 1959 3584 
z
" transform="scale(0.015625)"/>
       <path id="DejaVuSans-70" d="M 1159 525 
L 1159 -1331 
L 581 -1331 
L 581 3500 
L 1159 3500 
L 1159 2969 
Q 1341 3281 1617 3432 
Q 1894 3584 2278 3584 
Q 2916 3584 3314 3078 
Q 3713 2572 3713 1747 
Q 3713 922 3314 415 
Q 2916 -91 2278 -91 
Q 1894 -91 1617 61 
Q 1341 213 1159 525 
z
M 3116 1747 
Q 3116 2381 2855 2742 
Q 2594 3103 2138 3103 
Q 1681 3103 1420 2742 
Q 1159 2381 1159 1747 
Q 1159 1113 1420 752 
Q 1681 391 2138 391 
Q 2594 391 2855 752 
Q 3116 1113 3116 1747 
z
" transform="scale(0.015625)"/>
      </defs>
      <use xlink:href="#DejaVuSans-41"/>
      <use xlink:href="#DejaVuSans-67" x="68.408203"/>
      <use xlink:href="#DejaVuSans-65" x="131.884766"/>
      <use xlink:href="#DejaVuSans-5f" x="193.408203"/>
      <use xlink:href="#DejaVuSans-47" x="243.408203"/>
      <use xlink:href="#DejaVuSans-72" x="320.898438"/>
      <use xlink:href="#DejaVuSans-6f" x="359.761719"/>
      <use xlink:href="#DejaVuSans-75" x="420.943359"/>
      <use xlink:href="#DejaVuSans-70" x="484.322266"/>
     </g>
    </g>
   </g>
   <g id="line2d_17">
    <path d="M 119.906509 39.643125 
L 395.950119 39.643125 
" clip-path="url(#paf2dc2a02e)" style="fill: none; stroke: #3d3d3d; stroke-width: 1.875; stroke-linecap: square"/>
   </g>
   <g id="line2d_18">
    <path d="M 134.473931 39.643125 
L 239.200758 39.643125 
" clip-path="url(#paf2dc2a02e)" style="fill: none; stroke: #3d3d3d; stroke-width: 5.625; stroke-linecap: square"/>
   </g>
   <g id="line2d_19">
    <path d="M 169.32722 39.643125 
" clip-path="url(#paf2dc2a02e)" style="fill: none; stroke: #3d3d3d; stroke-width: 1.5; stroke-linecap: square"/>
    <defs>
     <path id="m3b33651db8" d="M 0 2.34375 
L 0 -2.34375 
" style="stroke: #ffffff; stroke-width: 1.125"/>
    </defs>
    <g clip-path="url(#paf2dc2a02e)">
     <use xlink:href="#m3b33651db8" x="169.32722" y="39.643125" style="fill: #ffffff; stroke: #ffffff; stroke-width: 1.125"/>
    </g>
   </g>
   <g id="line2d_20">
    <path d="M 119.906509 74.293125 
L 436.132273 74.293125 
" clip-path="url(#paf2dc2a02e)" style="fill: none; stroke: #3d3d3d; stroke-width: 1.875; stroke-linecap: square"/>
   </g>
   <g id="line2d_21">
    <path d="M 134.098267 74.293125 
L 255.020395 74.293125 
" clip-path="url(#paf2dc2a02e)" style="fill: none; stroke: #3d3d3d; stroke-width: 5.625; stroke-linecap: square"/>
   </g>
   <g id="line2d_22">
    <path d="M 176.701368 74.293125 
" clip-path="url(#paf2dc2a02e)" style="fill: none; stroke: #3d3d3d; stroke-width: 1.5; stroke-linecap: square"/>
    <g clip-path="url(#paf2dc2a02e)">
     <use xlink:href="#m3b33651db8" x="176.701368" y="74.293125" style="fill: #ffffff; stroke: #ffffff; stroke-width: 1.125"/>
    </g>
   </g>
   <g id="line2d_23">
    <path d="M 119.906509 108.943125 
L 410.086223 108.943125 
" clip-path="url(#paf2dc2a02e)" style="fill: none; stroke: #3d3d3d; stroke-width: 1.875; stroke-linecap: square"/>
   </g>
   <g id="line2d_24">
    <path d="M 134.209575 108.943125 
L 244.793981 108.943125 
" clip-path="url(#paf2dc2a02e)" style="fill: none; stroke: #3d3d3d; stroke-width: 5.625; stroke-linecap: square"/>
   </g>
   <g id="line2d_25">
    <path d="M 172.443841 108.943125 
" clip-path="url(#paf2dc2a02e)" style="fill: none; stroke: #3d3d3d; stroke-width: 1.5; stroke-linecap: square"/>
    <g clip-path="url(#paf2dc2a02e)">
     <use xlink:href="#m3b33651db8" x="172.443841" y="108.943125" style="fill: #ffffff; stroke: #ffffff; stroke-width: 1.125"/>
    </g>
   </g>
   <g id="line2d_26">
    <path d="M 119.906509 143.593125 
L 320.038126 143.593125 
" clip-path="url(#paf2dc2a02e)" style="fill: none; stroke: #3d3d3d; stroke-width: 1.875; stroke-linecap: square"/>
   </g>
   <g id="line2d_27">
    <path d="M 131.95559 143.593125 
L 207.33887 143.593125 
" clip-path="url(#paf2dc2a02e)" style="fill: none; stroke: #3d3d3d; stroke-width: 5.625; stroke-linecap: square"/>
   </g>
   <g id="line2d_28">
    <path d="M 158.252083 143.593125 
" clip-path="url(#paf2dc2a02e)" style="fill: none; stroke: #3d3d3d; stroke-width: 1.5; stroke-linecap: square"/>
    <g clip-path="url(#paf2dc2a02e)">
     <use xlink:href="#m3b33651db8" x="158.252083" y="143.593125" style="fill: #ffffff; stroke: #ffffff; stroke-width: 1.125"/>
    </g>
   </g>
   <g id="line2d_29">
    <path d="M 119.906509 178.243125 
L 445.983023 178.243125 
" clip-path="url(#paf2dc2a02e)" style="fill: none; stroke: #3d3d3d; stroke-width: 1.875; stroke-linecap: square"/>
   </g>
   <g id="line2d_30">
    <path d="M 133.959132 178.243125 
L 260.961454 178.243125 
" clip-path="url(#paf2dc2a02e)" style="fill: none; stroke: #3d3d3d; stroke-width: 5.625; stroke-linecap: square"/>
   </g>
   <g id="line2d_31">
    <path d="M 176.562234 178.243125 
" clip-path="url(#paf2dc2a02e)" style="fill: none; stroke: #3d3d3d; stroke-width: 1.5; stroke-linecap: square"/>
    <g clip-path="url(#paf2dc2a02e)">
     <use xlink:href="#m3b33651db8" x="176.562234" y="178.243125" style="fill: #ffffff; stroke: #ffffff; stroke-width: 1.125"/>
    </g>
   </g>
   <g id="line2d_32">
    <path d="M 119.906509 212.893125 
L 438.080162 212.893125 
" clip-path="url(#paf2dc2a02e)" style="fill: none; stroke: #3d3d3d; stroke-width: 1.875; stroke-linecap: square"/>
   </g>
   <g id="line2d_33">
    <path d="M 133.138236 212.893125 
L 255.15953 212.893125 
" clip-path="url(#paf2dc2a02e)" style="fill: none; stroke: #3d3d3d; stroke-width: 5.625; stroke-linecap: square"/>
   </g>
   <g id="line2d_34">
    <path d="M 174.809134 212.893125 
" clip-path="url(#paf2dc2a02e)" style="fill: none; stroke: #3d3d3d; stroke-width: 1.5; stroke-linecap: square"/>
    <g clip-path="url(#paf2dc2a02e)">
     <use xlink:href="#m3b33651db8" x="174.809134" y="212.893125" style="fill: #ffffff; stroke: #ffffff; stroke-width: 1.125"/>
    </g>
   </g>
   <g id="line2d_35">
    <path d="M 120.240432 247.543125 
L 270.339145 247.543125 
" clip-path="url(#paf2dc2a02e)" style="fill: none; stroke: #3d3d3d; stroke-width: 1.875; stroke-linecap: square"/>
   </g>
   <g id="line2d_36">
    <path d="M 128.505045 247.543125 
L 186.552118 247.543125 
" clip-path="url(#paf2dc2a02e)" style="fill: none; stroke: #3d3d3d; stroke-width: 5.625; stroke-linecap: square"/>
   </g>
   <g id="line2d_37">
    <path d="M 144.672518 247.543125 
" clip-path="url(#paf2dc2a02e)" style="fill: none; stroke: #3d3d3d; stroke-width: 1.5; stroke-linecap: square"/>
    <g clip-path="url(#paf2dc2a02e)">
     <use xlink:href="#m3b33651db8" x="144.672518" y="247.543125" style="fill: #ffffff; stroke: #ffffff; stroke-width: 1.125"/>
    </g>
   </g>
   <g id="line2d_38">
    <path d="M 120.90828 282.193125 
L 196.987235 282.193125 
" clip-path="url(#paf2dc2a02e)" style="fill: none; stroke: #3d3d3d; stroke-width: 1.875; stroke-linecap: square"/>
   </g>
   <g id="line2d_39">
    <path d="M 131.037299 282.193125 
L 157.542495 282.193125 
" clip-path="url(#paf2dc2a02e)" style="fill: none; stroke: #3d3d3d; stroke-width: 5.625; stroke-linecap: square"/>
   </g>
   <g id="line2d_40">
    <path d="M 143.837709 282.193125 
" clip-path="url(#paf2dc2a02e)" style="fill: none; stroke: #3d3d3d; stroke-width: 1.5; stroke-linecap: square"/>
    <g clip-path="url(#paf2dc2a02e)">
     <use xlink:href="#m3b33651db8" x="143.837709" y="282.193125" style="fill: #ffffff; stroke: #ffffff; stroke-width: 1.125"/>
    </g>
   </g>
   <g id="patch_3">
    <path d="M 58.993437 299.518125 
L 58.993437 22.318125 
" style="fill: none; stroke: #000000; stroke-width: 0.8; stroke-linejoin: miter; stroke-linecap: square"/>
   </g>
   <g id="patch_4">
    <path d="M 505.393438 299.518125 
L 505.393438 22.318125 
" style="fill: none; stroke: #000000; stroke-width: 0.8; stroke-linejoin: miter; stroke-linecap: square"/>
   </g>
   <g id="patch_5">
    <path d="M 58.993437 299.518125 
L 505.393437 299.518125 
" style="fill: none; stroke: #000000; stroke-width: 0.8; stroke-linejoin: miter; stroke-linecap: square"/>
   </g>
   <g id="patch_6">
    <path d="M 58.993437 22.318125 
L 505.393437 22.318125 
" style="fill: none; stroke: #000000; stroke-width: 0.8; stroke-linejoin: miter; stroke-linecap: square"/>
   </g>
   <g id="text_19">
    <!-- Distribution of ESRD_dur by Age_Group -->
    <g transform="translate(164.083437 16.318125) scale(0.12 -0.12)">
     <defs>
      <path id="DejaVuSans-69" d="M 603 3500 
L 1178 3500 
L 1178 0 
L 603 0 
L 603 3500 
z
M 603 4863 
L 1178 4863 
L 1178 4134 
L 603 4134 
L 603 4863 
z
" transform="scale(0.015625)"/>
      <path id="DejaVuSans-73" d="M 2834 3397 
L 2834 2853 
Q 2591 2978 2328 3040 
Q 2066 3103 1784 3103 
Q 1356 3103 1142 2972 
Q 928 2841 928 2578 
Q 928 2378 1081 2264 
Q 1234 2150 1697 2047 
L 1894 2003 
Q 2506 1872 2764 1633 
Q 3022 1394 3022 966 
Q 3022 478 2636 193 
Q 2250 -91 1575 -91 
Q 1294 -91 989 -36 
Q 684 19 347 128 
L 347 722 
Q 666 556 975 473 
Q 1284 391 1588 391 
Q 1994 391 2212 530 
Q 2431 669 2431 922 
Q 2431 1156 2273 1281 
Q 2116 1406 1581 1522 
L 1381 1569 
Q 847 1681 609 1914 
Q 372 2147 372 2553 
Q 372 3047 722 3315 
Q 1072 3584 1716 3584 
Q 2034 3584 2315 3537 
Q 2597 3491 2834 3397 
z
" transform="scale(0.015625)"/>
      <path id="DejaVuSans-74" d="M 1172 4494 
L 1172 3500 
L 2356 3500 
L 2356 3053 
L 1172 3053 
L 1172 1153 
Q 1172 725 1289 603 
Q 1406 481 1766 481 
L 2356 481 
L 2356 0 
L 1766 0 
Q 1100 0 847 248 
Q 594 497 594 1153 
L 594 3053 
L 172 3053 
L 172 3500 
L 594 3500 
L 594 4494 
L 1172 4494 
z
" transform="scale(0.015625)"/>
      <path id="DejaVuSans-62" d="M 3116 1747 
Q 3116 2381 2855 2742 
Q 2594 3103 2138 3103 
Q 1681 3103 1420 2742 
Q 1159 2381 1159 1747 
Q 1159 1113 1420 752 
Q 1681 391 2138 391 
Q 2594 391 2855 752 
Q 3116 1113 3116 1747 
z
M 1159 2969 
Q 1341 3281 1617 3432 
Q 1894 3584 2278 3584 
Q 2916 3584 3314 3078 
Q 3713 2572 3713 1747 
Q 3713 922 3314 415 
Q 2916 -91 2278 -91 
Q 1894 -91 1617 61 
Q 1341 213 1159 525 
L 1159 0 
L 581 0 
L 581 4863 
L 1159 4863 
L 1159 2969 
z
" transform="scale(0.015625)"/>
      <path id="DejaVuSans-6e" d="M 3513 2113 
L 3513 0 
L 2938 0 
L 2938 2094 
Q 2938 2591 2744 2837 
Q 2550 3084 2163 3084 
Q 1697 3084 1428 2787 
Q 1159 2491 1159 1978 
L 1159 0 
L 581 0 
L 581 3500 
L 1159 3500 
L 1159 2956 
Q 1366 3272 1645 3428 
Q 1925 3584 2291 3584 
Q 2894 3584 3203 3211 
Q 3513 2838 3513 2113 
z
" transform="scale(0.015625)"/>
      <path id="DejaVuSans-20" transform="scale(0.015625)"/>
      <path id="DejaVuSans-66" d="M 2375 4863 
L 2375 4384 
L 1825 4384 
Q 1516 4384 1395 4259 
Q 1275 4134 1275 3809 
L 1275 3500 
L 2222 3500 
L 2222 3053 
L 1275 3053 
L 1275 0 
L 697 0 
L 697 3053 
L 147 3053 
L 147 3500 
L 697 3500 
L 697 3744 
Q 697 4328 969 4595 
Q 1241 4863 1831 4863 
L 2375 4863 
z
" transform="scale(0.015625)"/>
      <path id="DejaVuSans-79" d="M 2059 -325 
Q 1816 -950 1584 -1140 
Q 1353 -1331 966 -1331 
L 506 -1331 
L 506 -850 
L 844 -850 
Q 1081 -850 1212 -737 
Q 1344 -625 1503 -206 
L 1606 56 
L 191 3500 
L 800 3500 
L 1894 763 
L 2988 3500 
L 3597 3500 
L 2059 -325 
z
" transform="scale(0.015625)"/>
     </defs>
     <use xlink:href="#DejaVuSans-44"/>
     <use xlink:href="#DejaVuSans-69" x="77.001953"/>
     <use xlink:href="#DejaVuSans-73" x="104.785156"/>
     <use xlink:href="#DejaVuSans-74" x="156.884766"/>
     <use xlink:href="#DejaVuSans-72" x="196.09375"/>
     <use xlink:href="#DejaVuSans-69" x="237.207031"/>
     <use xlink:href="#DejaVuSans-62" x="264.990234"/>
     <use xlink:href="#DejaVuSans-75" x="328.466797"/>
     <use xlink:href="#DejaVuSans-74" x="391.845703"/>
     <use xlink:href="#DejaVuSans-69" x="431.054688"/>
     <use xlink:href="#DejaVuSans-6f" x="458.837891"/>
     <use xlink:href="#DejaVuSans-6e" x="520.019531"/>
     <use xlink:href="#DejaVuSans-20" x="583.398438"/>
     <use xlink:href="#DejaVuSans-6f" x="615.185547"/>
     <use xlink:href="#DejaVuSans-66" x="676.367188"/>
     <use xlink:href="#DejaVuSans-20" x="711.572266"/>
     <use xlink:href="#DejaVuSans-45" x="743.359375"/>
     <use xlink:href="#DejaVuSans-53" x="806.542969"/>
     <use xlink:href="#DejaVuSans-52" x="870.019531"/>
     <use xlink:href="#DejaVuSans-44" x="939.501953"/>
     <use xlink:href="#DejaVuSans-5f" x="1016.503906"/>
     <use xlink:href="#DejaVuSans-64" x="1066.503906"/>
     <use xlink:href="#DejaVuSans-75" x="1129.980469"/>
     <use xlink:href="#DejaVuSans-72" x="1193.359375"/>
     <use xlink:href="#DejaVuSans-20" x="1234.472656"/>
     <use xlink:href="#DejaVuSans-62" x="1266.259766"/>
     <use xlink:href="#DejaVuSans-79" x="1329.736328"/>
     <use xlink:href="#DejaVuSans-20" x="1388.916016"/>
     <use xlink:href="#DejaVuSans-41" x="1420.703125"/>
     <use xlink:href="#DejaVuSans-67" x="1489.111328"/>
     <use xlink:href="#DejaVuSans-65" x="1552.587891"/>
     <use xlink:href="#DejaVuSans-5f" x="1614.111328"/>
     <use xlink:href="#DejaVuSans-47" x="1664.111328"/>
     <use xlink:href="#DejaVuSans-72" x="1741.601562"/>
     <use xlink:href="#DejaVuSans-6f" x="1780.464844"/>
     <use xlink:href="#DejaVuSans-75" x="1841.646484"/>
     <use xlink:href="#DejaVuSans-70" x="1905.025391"/>
    </g>
   </g>
  </g>
 </g>
 <defs>
  <clipPath id="paf2dc2a02e">
   <rect x="58.993437" y="22.318125" width="446.4" height="277.2"/>
  </clipPath>
 </defs>
</svg>
