<?xml version="1.0" encoding="utf-8" standalone="no"?>
<!DOCTYPE svg PUBLIC "-//W3C//DTD SVG 1.1//EN"
  "http://www.w3.org/Graphics/SVG/1.1/DTD/svg11.dtd">
<svg xmlns:xlink="http://www.w3.org/1999/xlink" width="512.593438pt" height="339.01pt" viewBox="0 0 512.593438 339.01" xmlns="http://www.w3.org/2000/svg" version="1.1">
 <metadata>
  <rdf:RDF xmlns:dc="http://purl.org/dc/elements/1.1/" xmlns:cc="http://creativecommons.org/ns#" xmlns:rdf="http://www.w3.org/1999/02/22-rdf-syntax-ns#">
   <cc:Work>
    <dc:type rdf:resource="http://purl.org/dc/dcmitype/StillImage"/>
    <dc:date>2024-08-05T22:53:15.075588</dc:date>
    <dc:format>image/svg+xml</dc:format>
    <dc:creator>
     <cc:Agent>
      <dc:title>Matplotlib v3.9.0, https://matplotlib.org/</dc:title>
     </cc:Agent>
    </dc:creator>
   </cc:Work>
  </rdf:RDF>
 </metadata>
 <defs>
  <style type="text/css">*{stroke-linejoin: round; stroke-linecap: butt}</style>
 </defs>
 <g id="figure_1">
  <g id="patch_1">
   <path d="M 0 339.01 
L 512.593438 339.01 
L 512.593438 0 
L 0 0 
z
" style="fill: #ffffff"/>
  </g>
  <g id="axes_1">
   <g id="patch_2">
    <path d="M 58.993437 299.518125 
L 505.393438 299.518125 
L 505.393438 22.318125 
L 58.993437 22.318125 
z
" style="fill: #ffffff"/>
   </g>
   <g id="PolyCollection_1">
    <defs>
     <path id="mb4ded01f90" d="M 86.510237 -299.334191 
L 86.510237 -299.399559 
L 88.385614 -299.457996 
L 90.26099 -299.587438 
L 92.136367 -299.833792 
L 94.011743 -300.238508 
L 95.88712 -300.814814 
L 97.762496 -301.528011 
L 99.637873 -302.294528 
L 101.513249 -303.004924 
L 103.388625 -303.561222 
L 105.264002 -303.910696 
L 107.139378 -304.061804 
L 109.014755 -304.077869 
L 110.890131 -304.052465 
L 112.765508 -304.076494 
L 114.640884 -304.210746 
L 116.516261 -304.474442 
L 118.391637 -304.84948 
L 120.267014 -305.292758 
L 122.14239 -305.751732 
L 124.017767 -306.183411 
L 125.893143 -306.573844 
L 127.76852 -306.947295 
L 129.643896 -307.354638 
L 131.519273 -307.843172 
L 133.394649 -308.424474 
L 135.270026 -309.061443 
L 137.145402 -309.687378 
L 139.020779 -310.249006 
L 140.896155 -310.74116 
L 142.771532 -311.201039 
L 144.646908 -311.666865 
L 146.522285 -312.140093 
L 148.397661 -312.580257 
L 150.273038 -312.929252 
L 152.148414 -313.145968 
L 154.023791 -313.226875 
L 155.899167 -313.19676 
L 157.774544 -313.085054 
L 159.64992 -312.902499 
L 161.525296 -312.600884 
L 163.400673 -312.046415 
L 165.276049 -311.10897 
L 167.151426 -309.847386 
L 169.026802 -308.559257 
L 170.902179 -307.550509 
L 172.777555 -306.843799 
L 174.652932 -306.172736 
L 176.528308 -305.28135 
L 178.403685 -304.192455 
L 180.279061 -303.172437 
L 182.154438 -302.474285 
L 184.029814 -302.137368 
L 185.905191 -301.999944 
L 187.780567 -301.856392 
L 189.655944 -301.599341 
L 191.53132 -301.251796 
L 193.406697 -300.906687 
L 195.282073 -300.647628 
L 197.15745 -300.503464 
L 199.032826 -300.443652 
L 200.908203 -300.4025 
L 202.783579 -300.319703 
L 204.658956 -300.17632 
L 206.534332 -300.000315 
L 208.409709 -299.837677 
L 210.285085 -299.716872 
L 212.160462 -299.637047 
L 214.035838 -299.58202 
L 215.911215 -299.538852 
L 217.786591 -299.504125 
L 219.661967 -299.47899 
L 221.537344 -299.46297 
L 223.41272 -299.452483 
L 225.288097 -299.44316 
L 227.163473 -299.432564 
L 229.03885 -299.420939 
L 230.914226 -299.409811 
L 232.789603 -299.400117 
L 234.664979 -299.391703 
L 236.540356 -299.384184 
L 238.415732 -299.377714 
L 240.291109 -299.372791 
L 242.166485 -299.369641 
L 244.041862 -299.367993 
L 245.917238 -299.367355 
L 247.792615 -299.367404 
L 249.667991 -299.368205 
L 251.543368 -299.370248 
L 253.418744 -299.374233 
L 255.294121 -299.380521 
L 257.169497 -299.388425 
L 259.044874 -299.395923 
L 260.92025 -299.400357 
L 262.795627 -299.39991 
L 264.671003 -299.394771 
L 266.54638 -299.387014 
L 268.421756 -299.37928 
L 270.297133 -299.373378 
L 272.172509 -299.369768 
L 272.172509 -299.363982 
L 272.172509 -299.363982 
L 270.297133 -299.360372 
L 268.421756 -299.35447 
L 266.54638 -299.346736 
L 264.671003 -299.338979 
L 262.795627 -299.33384 
L 260.92025 -299.333393 
L 259.044874 -299.337827 
L 257.169497 -299.345325 
L 255.294121 -299.353229 
L 253.418744 -299.359517 
L 251.543368 -299.363502 
L 249.667991 -299.365545 
L 247.792615 -299.366346 
L 245.917238 -299.366395 
L 244.041862 -299.365757 
L 242.166485 -299.364109 
L 240.291109 -299.360959 
L 238.415732 -299.356036 
L 236.540356 -299.349566 
L 234.664979 -299.342047 
L 232.789603 -299.333633 
L 230.914226 -299.323939 
L 229.03885 -299.312811 
L 227.163473 -299.301186 
L 225.288097 -299.29059 
L 223.41272 -299.281267 
L 221.537344 -299.27078 
L 219.661967 -299.25476 
L 217.786591 -299.229625 
L 215.911215 -299.194898 
L 214.035838 -299.15173 
L 212.160462 -299.096703 
L 210.285085 -299.016878 
L 208.409709 -298.896073 
L 206.534332 -298.733435 
L 204.658956 -298.55743 
L 202.783579 -298.414047 
L 200.908203 -298.33125 
L 199.032826 -298.290098 
L 197.15745 -298.230286 
L 195.282073 -298.086122 
L 193.406697 -297.827063 
L 191.53132 -297.481954 
L 189.655944 -297.134409 
L 187.780567 -296.877358 
L 185.905191 -296.733806 
L 184.029814 -296.596382 
L 182.154438 -296.259465 
L 180.279061 -295.561313 
L 178.403685 -294.541295 
L 176.528308 -293.4524 
L 174.652932 -292.561014 
L 172.777555 -291.889951 
L 170.902179 -291.183241 
L 169.026802 -290.174493 
L 167.151426 -288.886364 
L 165.276049 -287.62478 
L 163.400673 -286.687335 
L 161.525296 -286.132866 
L 159.64992 -285.831251 
L 157.774544 -285.648696 
L 155.899167 -285.53699 
L 154.023791 -285.506875 
L 152.148414 -285.587782 
L 150.273038 -285.804498 
L 148.397661 -286.153493 
L 146.522285 -286.593657 
L 144.646908 -287.066885 
L 142.771532 -287.532711 
L 140.896155 -287.99259 
L 139.020779 -288.484744 
L 137.145402 -289.046372 
L 135.270026 -289.672307 
L 133.394649 -290.309276 
L 131.519273 -290.890578 
L 129.643896 -291.379112 
L 127.76852 -291.786455 
L 125.893143 -292.159906 
L 124.017767 -292.550339 
L 122.14239 -292.982018 
L 120.267014 -293.440992 
L 118.391637 -293.88427 
L 116.516261 -294.259308 
L 114.640884 -294.523004 
L 112.765508 -294.657256 
L 110.890131 -294.681285 
L 109.014755 -294.655881 
L 107.139378 -294.671946 
L 105.264002 -294.823054 
L 103.388625 -295.172528 
L 101.513249 -295.728826 
L 99.637873 -296.439222 
L 97.762496 -297.205739 
L 95.88712 -297.918936 
L 94.011743 -298.495242 
L 92.136367 -298.899958 
L 90.26099 -299.146312 
L 88.385614 -299.275754 
L 86.510237 -299.334191 
z
" style="stroke: #3d3d3d; stroke-width: 1.25"/>
    </defs>
    <g clip-path="url(#p456c70af98)">
     <use xlink:href="#mb4ded01f90" x="0" y="339.01" style="fill: #3274a1; stroke: #3d3d3d; stroke-width: 1.25"/>
    </g>
   </g>
   <g id="PolyCollection_2">
    <defs>
     <path id="m85e93cc9e6" d="M 81.799653 -264.610396 
L 81.799653 -264.823354 
L 83.585798 -264.912249 
L 85.371943 -265.053942 
L 87.158088 -265.264383 
L 88.944233 -265.555463 
L 90.730378 -265.930079 
L 92.516523 -266.377936 
L 94.302668 -266.873883 
L 96.088814 -267.380124 
L 97.874959 -267.852388 
L 99.661104 -268.248695 
L 101.447249 -268.538251 
L 103.233394 -268.70779 
L 105.019539 -268.763516 
L 106.805684 -268.728179 
L 108.591829 -268.634415 
L 110.377975 -268.51652 
L 112.16412 -268.403121 
L 113.950265 -268.312655 
L 115.73641 -268.252443 
L 117.522555 -268.220894 
L 119.3087 -268.211481 
L 121.094845 -268.216841 
L 122.880991 -268.231706 
L 124.667136 -268.254101 
L 126.453281 -268.284977 
L 128.239426 -268.326964 
L 130.025571 -268.383076 
L 131.811716 -268.456041 
L 133.597861 -268.548607 
L 135.384006 -268.664682 
L 137.170152 -268.810739 
L 138.956297 -268.996725 
L 140.742442 -269.235817 
L 142.528587 -269.542828 
L 144.314732 -269.931569 
L 146.100877 -270.411857 
L 147.887022 -270.98703 
L 149.673168 -271.652609 
L 151.459313 -272.396378 
L 153.245458 -273.199622 
L 155.031603 -274.038886 
L 156.817748 -274.887612 
L 158.603893 -275.717241 
L 160.390038 -276.497828 
L 162.176183 -277.198389 
L 163.962329 -277.787271 
L 165.748474 -278.232792 
L 167.534619 -278.504657 
L 169.320764 -278.576875 
L 171.106909 -278.43273 
L 172.893054 -278.071117 
L 174.679199 -277.511694 
L 176.465345 -276.795171 
L 178.25149 -275.976312 
L 180.037635 -275.110884 
L 181.82378 -274.241958 
L 183.609925 -273.392359 
L 185.39607 -272.567179 
L 187.182215 -271.764474 
L 188.96836 -270.987461 
L 190.754506 -270.250938 
L 192.540651 -269.5786 
L 194.326796 -268.993611 
L 196.112941 -268.508435 
L 197.899086 -268.119616 
L 199.685231 -267.809727 
L 201.471376 -267.554595 
L 203.257522 -267.331639 
L 205.043667 -267.125502 
L 206.829812 -266.92929 
L 208.615957 -266.742169 
L 210.402102 -266.5655 
L 212.188247 -266.39972 
L 213.974392 -266.243228 
L 215.760537 -266.093247 
L 217.546683 -265.947687 
L 219.332828 -265.806718 
L 221.118973 -265.67314 
L 222.905118 -265.551368 
L 224.691263 -265.445608 
L 226.477408 -265.358117 
L 228.263553 -265.288348 
L 230.049699 -265.233245 
L 231.835844 -265.188391 
L 233.621989 -265.149383 
L 235.408134 -265.112835 
L 237.194279 -265.076714 
L 238.980424 -265.040118 
L 240.766569 -265.002819 
L 242.552714 -264.964923 
L 244.33886 -264.926793 
L 246.125005 -264.889134 
L 247.91115 -264.853056 
L 249.697295 -264.819942 
L 251.48344 -264.791133 
L 253.269585 -264.767565 
L 255.05573 -264.749534 
L 256.841875 -264.736675 
L 258.628021 -264.728145 
L 258.628021 -264.705605 
L 258.628021 -264.705605 
L 256.841875 -264.697075 
L 255.05573 -264.684216 
L 253.269585 -264.666185 
L 251.48344 -264.642617 
L 249.697295 -264.613808 
L 247.91115 -264.580694 
L 246.125005 -264.544616 
L 244.33886 -264.506957 
L 242.552714 -264.468827 
L 240.766569 -264.430931 
L 238.980424 -264.393632 
L 237.194279 -264.357036 
L 235.408134 -264.320915 
L 233.621989 -264.284367 
L 231.835844 -264.245359 
L 230.049699 -264.200505 
L 228.263553 -264.145402 
L 226.477408 -264.075633 
L 224.691263 -263.988142 
L 222.905118 -263.882382 
L 221.118973 -263.76061 
L 219.332828 -263.627032 
L 217.546683 -263.486063 
L 215.760537 -263.340503 
L 213.974392 -263.190522 
L 212.188247 -263.03403 
L 210.402102 -262.86825 
L 208.615957 -262.691581 
L 206.829812 -262.50446 
L 205.043667 -262.308248 
L 203.257522 -262.102111 
L 201.471376 -261.879155 
L 199.685231 -261.624023 
L 197.899086 -261.314134 
L 196.112941 -260.925315 
L 194.326796 -260.440139 
L 192.540651 -259.85515 
L 190.754506 -259.182812 
L 188.96836 -258.446289 
L 187.182215 -257.669276 
L 185.39607 -256.866571 
L 183.609925 -256.041391 
L 181.82378 -255.191792 
L 180.037635 -254.322866 
L 178.25149 -253.457438 
L 176.465345 -252.638579 
L 174.679199 -251.922056 
L 172.893054 -251.362633 
L 171.106909 -251.00102 
L 169.320764 -250.856875 
L 167.534619 -250.929093 
L 165.748474 -251.200958 
L 163.962329 -251.646479 
L 162.176183 -252.235361 
L 160.390038 -252.935922 
L 158.603893 -253.716509 
L 156.817748 -254.546138 
L 155.031603 -255.394864 
L 153.245458 -256.234128 
L 151.459313 -257.037372 
L 149.673168 -257.781141 
L 147.887022 -258.44672 
L 146.100877 -259.021893 
L 144.314732 -259.502181 
L 142.528587 -259.890922 
L 140.742442 -260.197933 
L 138.956297 -260.437025 
L 137.170152 -260.623011 
L 135.384006 -260.769068 
L 133.597861 -260.885143 
L 131.811716 -260.977709 
L 130.025571 -261.050674 
L 128.239426 -261.106786 
L 126.453281 -261.148773 
L 124.667136 -261.179649 
L 122.880991 -261.202044 
L 121.094845 -261.216909 
L 119.3087 -261.222269 
L 117.522555 -261.212856 
L 115.73641 -261.181307 
L 113.950265 -261.121095 
L 112.16412 -261.030629 
L 110.377975 -260.91723 
L 108.591829 -260.799335 
L 106.805684 -260.705571 
L 105.019539 -260.670234 
L 103.233394 -260.72596 
L 101.447249 -260.895499 
L 99.661104 -261.185055 
L 97.874959 -261.581362 
L 96.088814 -262.053626 
L 94.302668 -262.559867 
L 92.516523 -263.055814 
L 90.730378 -263.503671 
L 88.944233 -263.878287 
L 87.158088 -264.169367 
L 85.371943 -264.379808 
L 83.585798 -264.521501 
L 81.799653 -264.610396 
z
" style="stroke: #3d3d3d; stroke-width: 1.25"/>
    </defs>
    <g clip-path="url(#p456c70af98)">
     <use xlink:href="#m85e93cc9e6" x="0" y="339.01" style="fill: #e1812c; stroke: #3d3d3d; stroke-width: 1.25"/>
    </g>
   </g>
   <g id="PolyCollection_3">
    <defs>
     <path id="mbf2ea40bb1" d="M 85.902273 -229.980627 
L 85.902273 -230.153123 
L 87.864597 -230.278186 
L 89.826921 -230.522485 
L 91.789244 -230.936041 
L 93.751568 -231.543556 
L 95.713891 -232.318428 
L 97.676215 -233.174988 
L 99.638539 -233.989465 
L 101.600862 -234.642163 
L 103.563186 -235.060121 
L 105.525509 -235.239798 
L 107.487833 -235.239825 
L 109.450157 -235.14837 
L 111.41248 -235.042934 
L 113.374804 -234.965183 
L 115.337127 -234.922818 
L 117.299451 -234.909902 
L 119.261775 -234.924501 
L 121.224098 -234.970915 
L 123.186422 -235.053358 
L 125.148745 -235.175052 
L 127.111069 -235.344494 
L 129.073393 -235.578447 
L 131.035716 -235.895636 
L 132.99804 -236.307169 
L 134.960363 -236.811707 
L 136.922687 -237.396168 
L 138.885011 -238.038586 
L 140.847334 -238.71181 
L 142.809658 -239.388694 
L 144.771981 -240.048496 
L 146.734305 -240.682315 
L 148.696629 -241.293521 
L 150.658952 -241.889491 
L 152.621276 -242.467099 
L 154.583599 -243.002074 
L 156.545923 -243.451886 
L 158.508247 -243.771423 
L 160.47057 -243.926875 
L 162.432894 -243.88912 
L 164.395217 -243.612409 
L 166.357541 -243.041935 
L 168.319865 -242.177083 
L 170.282188 -241.130615 
L 172.244512 -240.085505 
L 174.206835 -239.156981 
L 176.169159 -238.302674 
L 178.131483 -237.392403 
L 180.093806 -236.368992 
L 182.05613 -235.328259 
L 184.018453 -234.442855 
L 185.980777 -233.81983 
L 187.9431 -233.428211 
L 189.905424 -233.142346 
L 191.867748 -232.841555 
L 193.830071 -232.481047 
L 195.792395 -232.095079 
L 197.754718 -231.750647 
L 199.717042 -231.495038 
L 201.679366 -231.329681 
L 203.641689 -231.217392 
L 205.604013 -231.110203 
L 207.566336 -230.977541 
L 209.52866 -230.818524 
L 211.490984 -230.654242 
L 213.453307 -230.509315 
L 215.415631 -230.397164 
L 217.377954 -230.317215 
L 219.340278 -230.261492 
L 221.302602 -230.222388 
L 223.264925 -230.19572 
L 225.227249 -230.179076 
L 227.189572 -230.169133 
L 229.151896 -230.16115 
L 231.11422 -230.150819 
L 233.076543 -230.136428 
L 235.038867 -230.119354 
L 237.00119 -230.102731 
L 238.963514 -230.08954 
L 240.925838 -230.081396 
L 242.888161 -230.078335 
L 244.850485 -230.079159 
L 246.812808 -230.081889 
L 248.775132 -230.08433 
L 250.737456 -230.084814 
L 252.699779 -230.082844 
L 254.662103 -230.079192 
L 256.624426 -230.075325 
L 258.58675 -230.072623 
L 260.549074 -230.071918 
L 262.511397 -230.073407 
L 264.473721 -230.076663 
L 266.436044 -230.080626 
L 268.398368 -230.083792 
L 270.360692 -230.084811 
L 272.323015 -230.083206 
L 274.285339 -230.079636 
L 276.247662 -230.07543 
L 278.209986 -230.071796 
L 280.17231 -230.069304 
L 280.17231 -230.064446 
L 280.17231 -230.064446 
L 278.209986 -230.061954 
L 276.247662 -230.05832 
L 274.285339 -230.054114 
L 272.323015 -230.050544 
L 270.360692 -230.048939 
L 268.398368 -230.049958 
L 266.436044 -230.053124 
L 264.473721 -230.057087 
L 262.511397 -230.060343 
L 260.549074 -230.061832 
L 258.58675 -230.061127 
L 256.624426 -230.058425 
L 254.662103 -230.054558 
L 252.699779 -230.050906 
L 250.737456 -230.048936 
L 248.775132 -230.04942 
L 246.812808 -230.051861 
L 244.850485 -230.054591 
L 242.888161 -230.055415 
L 240.925838 -230.052354 
L 238.963514 -230.04421 
L 237.00119 -230.031019 
L 235.038867 -230.014396 
L 233.076543 -229.997322 
L 231.11422 -229.982931 
L 229.151896 -229.9726 
L 227.189572 -229.964617 
L 225.227249 -229.954674 
L 223.264925 -229.93803 
L 221.302602 -229.911362 
L 219.340278 -229.872258 
L 217.377954 -229.816535 
L 215.415631 -229.736586 
L 213.453307 -229.624435 
L 211.490984 -229.479508 
L 209.52866 -229.315226 
L 207.566336 -229.156209 
L 205.604013 -229.023547 
L 203.641689 -228.916358 
L 201.679366 -228.804069 
L 199.717042 -228.638712 
L 197.754718 -228.383103 
L 195.792395 -228.038671 
L 193.830071 -227.652703 
L 191.867748 -227.292195 
L 189.905424 -226.991404 
L 187.9431 -226.705539 
L 185.980777 -226.31392 
L 184.018453 -225.690895 
L 182.05613 -224.805491 
L 180.093806 -223.764758 
L 178.131483 -222.741347 
L 176.169159 -221.831076 
L 174.206835 -220.976769 
L 172.244512 -220.048245 
L 170.282188 -219.003135 
L 168.319865 -217.956667 
L 166.357541 -217.091815 
L 164.395217 -216.521341 
L 162.432894 -216.24463 
L 160.47057 -216.206875 
L 158.508247 -216.362327 
L 156.545923 -216.681864 
L 154.583599 -217.131676 
L 152.621276 -217.666651 
L 150.658952 -218.244259 
L 148.696629 -218.840229 
L 146.734305 -219.451435 
L 144.771981 -220.085254 
L 142.809658 -220.745056 
L 140.847334 -221.42194 
L 138.885011 -222.095164 
L 136.922687 -222.737582 
L 134.960363 -223.322043 
L 132.99804 -223.826581 
L 131.035716 -224.238114 
L 129.073393 -224.555303 
L 127.111069 -224.789256 
L 125.148745 -224.958698 
L 123.186422 -225.080392 
L 121.224098 -225.162835 
L 119.261775 -225.209249 
L 117.299451 -225.223848 
L 115.337127 -225.210932 
L 113.374804 -225.168567 
L 111.41248 -225.090816 
L 109.450157 -224.98538 
L 107.487833 -224.893925 
L 105.525509 -224.893952 
L 103.563186 -225.073629 
L 101.600862 -225.491587 
L 99.638539 -226.144285 
L 97.676215 -226.958762 
L 95.713891 -227.815322 
L 93.751568 -228.590194 
L 91.789244 -229.197709 
L 89.826921 -229.611265 
L 87.864597 -229.855564 
L 85.902273 -229.980627 
z
" style="stroke: #3d3d3d; stroke-width: 1.25"/>
    </defs>
    <g clip-path="url(#p456c70af98)">
     <use xlink:href="#mbf2ea40bb1" x="0" y="339.01" style="fill: #3a923a; stroke: #3d3d3d; stroke-width: 1.25"/>
    </g>
   </g>
   <g id="PolyCollection_4">
    <defs>
     <path id="m78d24f1f6a" d="M 88.265724 -195.398584 
L 88.265724 -195.435166 
L 89.676794 -195.458931 
L 91.087865 -195.504648 
L 92.498935 -195.584142 
L 93.910005 -195.709795 
L 95.321075 -195.891427 
L 96.732145 -196.132944 
L 98.143215 -196.429959 
L 99.554285 -196.769164 
L 100.965356 -197.129623 
L 102.376426 -197.485802 
L 103.787496 -197.812245 
L 105.198566 -198.089505 
L 106.609636 -198.30971 
L 108.020706 -198.47917 
L 109.431777 -198.616366 
L 110.842847 -198.746294 
L 112.253917 -198.89386 
L 113.664987 -199.07879 
L 115.076057 -199.313261 
L 116.487127 -199.602175 
L 117.898197 -199.944487 
L 119.309268 -200.333408 
L 120.720338 -200.755508 
L 122.131408 -201.192344 
L 123.542478 -201.627915 
L 124.953548 -202.059321 
L 126.364618 -202.501973 
L 127.775689 -202.981942 
L 129.186759 -203.517301 
L 130.597829 -204.100526 
L 132.008899 -204.696158 
L 133.419969 -205.258083 
L 134.831039 -205.755482 
L 136.242109 -206.189096 
L 137.65318 -206.587021 
L 139.06425 -206.984509 
L 140.47532 -207.40144 
L 141.88639 -207.830401 
L 143.29746 -208.241859 
L 144.70853 -208.602802 
L 146.119601 -208.893622 
L 147.530671 -209.108173 
L 148.941741 -209.240507 
L 150.352811 -209.276875 
L 151.763881 -209.199708 
L 153.174951 -208.991261 
L 154.586021 -208.633323 
L 155.997092 -208.118718 
L 157.408162 -207.474573 
L 158.819232 -206.762223 
L 160.230302 -206.031472 
L 161.641372 -205.271077 
L 163.052442 -204.42428 
L 164.463513 -203.472857 
L 165.874583 -202.505196 
L 167.285653 -201.683834 
L 168.696723 -201.125304 
L 170.107793 -200.79685 
L 171.518863 -200.525352 
L 172.929933 -200.115155 
L 174.341004 -199.480049 
L 175.752074 -198.690882 
L 177.163144 -197.916529 
L 178.574214 -197.315966 
L 179.985284 -196.95854 
L 181.396354 -196.810275 
L 182.807425 -196.773912 
L 184.218495 -196.746542 
L 185.629565 -196.66309 
L 187.040635 -196.510867 
L 188.451705 -196.317548 
L 189.862775 -196.126166 
L 191.273845 -195.972602 
L 192.684916 -195.874331 
L 194.095986 -195.830091 
L 195.507056 -195.825204 
L 196.918126 -195.838104 
L 198.329196 -195.846769 
L 199.740266 -195.83502 
L 201.151337 -195.797341 
L 202.562407 -195.739614 
L 203.973477 -195.674692 
L 205.384547 -195.615293 
L 206.795617 -195.568624 
L 208.206687 -195.535474 
L 209.617757 -195.512959 
L 211.028828 -195.497964 
L 212.439898 -195.488893 
L 213.850968 -195.485293 
L 215.262038 -195.486369 
L 216.673108 -195.489833 
L 218.084178 -195.492073 
L 219.495249 -195.489657 
L 220.906319 -195.481146 
L 222.317389 -195.467823 
L 223.728459 -195.452819 
L 225.139529 -195.439343 
L 226.550599 -195.429289 
L 227.961669 -195.422931 
L 227.961669 -195.410819 
L 227.961669 -195.410819 
L 226.550599 -195.404461 
L 225.139529 -195.394407 
L 223.728459 -195.380931 
L 222.317389 -195.365927 
L 220.906319 -195.352604 
L 219.495249 -195.344093 
L 218.084178 -195.341677 
L 216.673108 -195.343917 
L 215.262038 -195.347381 
L 213.850968 -195.348457 
L 212.439898 -195.344857 
L 211.028828 -195.335786 
L 209.617757 -195.320791 
L 208.206687 -195.298276 
L 206.795617 -195.265126 
L 205.384547 -195.218457 
L 203.973477 -195.159058 
L 202.562407 -195.094136 
L 201.151337 -195.036409 
L 199.740266 -194.99873 
L 198.329196 -194.986981 
L 196.918126 -194.995646 
L 195.507056 -195.008546 
L 194.095986 -195.003659 
L 192.684916 -194.959419 
L 191.273845 -194.861148 
L 189.862775 -194.707584 
L 188.451705 -194.516202 
L 187.040635 -194.322883 
L 185.629565 -194.17066 
L 184.218495 -194.087208 
L 182.807425 -194.059838 
L 181.396354 -194.023475 
L 179.985284 -193.87521 
L 178.574214 -193.517784 
L 177.163144 -192.917221 
L 175.752074 -192.142868 
L 174.341004 -191.353701 
L 172.929933 -190.718595 
L 171.518863 -190.308398 
L 170.107793 -190.0369 
L 168.696723 -189.708446 
L 167.285653 -189.149916 
L 165.874583 -188.328554 
L 164.463513 -187.360893 
L 163.052442 -186.40947 
L 161.641372 -185.562673 
L 160.230302 -184.802278 
L 158.819232 -184.071527 
L 157.408162 -183.359177 
L 155.997092 -182.715032 
L 154.586021 -182.200427 
L 153.174951 -181.842489 
L 151.763881 -181.634042 
L 150.352811 -181.556875 
L 148.941741 -181.593243 
L 147.530671 -181.725577 
L 146.119601 -181.940128 
L 144.70853 -182.230948 
L 143.29746 -182.591891 
L 141.88639 -183.003349 
L 140.47532 -183.43231 
L 139.06425 -183.849241 
L 137.65318 -184.246729 
L 136.242109 -184.644654 
L 134.831039 -185.078268 
L 133.419969 -185.575667 
L 132.008899 -186.137592 
L 130.597829 -186.733224 
L 129.186759 -187.316449 
L 127.775689 -187.851808 
L 126.364618 -188.331777 
L 124.953548 -188.774429 
L 123.542478 -189.205835 
L 122.131408 -189.641406 
L 120.720338 -190.078242 
L 119.309268 -190.500342 
L 117.898197 -190.889263 
L 116.487127 -191.231575 
L 115.076057 -191.520489 
L 113.664987 -191.75496 
L 112.253917 -191.93989 
L 110.842847 -192.087456 
L 109.431777 -192.217384 
L 108.020706 -192.35458 
L 106.609636 -192.52404 
L 105.198566 -192.744245 
L 103.787496 -193.021505 
L 102.376426 -193.347948 
L 100.965356 -193.704127 
L 99.554285 -194.064586 
L 98.143215 -194.403791 
L 96.732145 -194.700806 
L 95.321075 -194.942323 
L 93.910005 -195.123955 
L 92.498935 -195.249608 
L 91.087865 -195.329102 
L 89.676794 -195.374819 
L 88.265724 -195.398584 
z
" style="stroke: #3d3d3d; stroke-width: 1.25"/>
    </defs>
    <g clip-path="url(#p456c70af98)">
     <use xlink:href="#m78d24f1f6a" x="0" y="339.01" style="fill: #c03d3e; stroke: #3d3d3d; stroke-width: 1.25"/>
    </g>
   </g>
   <g id="PolyCollection_5">
    <defs>
     <path id="mfda2b20805" d="M 84.288556 -160.671815 
L 84.288556 -160.861935 
L 86.408214 -160.989282 
L 88.527872 -161.230098 
L 90.64753 -161.628316 
L 92.767187 -162.202637 
L 94.886845 -162.921873 
L 97.006503 -163.697985 
L 99.126161 -164.409325 
L 101.245819 -164.946673 
L 103.365476 -165.256242 
L 105.485134 -165.354438 
L 107.604792 -165.309089 
L 109.72445 -165.202972 
L 111.844107 -165.101364 
L 113.963765 -165.036732 
L 116.083423 -165.011839 
L 118.203081 -165.014703 
L 120.322739 -165.035357 
L 122.442396 -165.075107 
L 124.562054 -165.145078 
L 126.681712 -165.258838 
L 128.80137 -165.427051 
L 130.921027 -165.657259 
L 133.040685 -165.955458 
L 135.160343 -166.325627 
L 137.280001 -166.768422 
L 139.399659 -167.282727 
L 141.519316 -167.869574 
L 143.638974 -168.533295 
L 145.758632 -169.27648 
L 147.87829 -170.091557 
L 149.997947 -170.954693 
L 152.117605 -171.825438 
L 154.237263 -172.652426 
L 156.356921 -173.383403 
L 158.476579 -173.975181 
L 160.596236 -174.397074 
L 162.715894 -174.624394 
L 164.835552 -174.626875 
L 166.95521 -174.366337 
L 169.074867 -173.818511 
L 171.194525 -173.013136 
L 173.314183 -172.053764 
L 175.433841 -171.077689 
L 177.553498 -170.172386 
L 179.673156 -169.324282 
L 181.792814 -168.45718 
L 183.912472 -167.527268 
L 186.03213 -166.581378 
L 188.151787 -165.724794 
L 190.271445 -165.036413 
L 192.391103 -164.512648 
L 194.510761 -164.082827 
L 196.630418 -163.670524 
L 198.750076 -163.244148 
L 200.869734 -162.822716 
L 202.989392 -162.445727 
L 205.10905 -162.139266 
L 207.228707 -161.902431 
L 209.348365 -161.715808 
L 211.468023 -161.558574 
L 213.587681 -161.42027 
L 215.707338 -161.301515 
L 217.826996 -161.206716 
L 219.946654 -161.136292 
L 222.066312 -161.084561 
L 224.18597 -161.043762 
L 226.305627 -161.009381 
L 228.425285 -160.981496 
L 230.544943 -160.961357 
L 232.664601 -160.947147 
L 234.784258 -160.933305 
L 236.903916 -160.913955 
L 239.023574 -160.887051 
L 241.143232 -160.855591 
L 243.26289 -160.825261 
L 245.382547 -160.800881 
L 247.502205 -160.784336 
L 249.621863 -160.77477 
L 251.741521 -160.770052 
L 253.861178 -160.76814 
L 255.980836 -160.767736 
L 258.100494 -160.768334 
L 260.220152 -160.769989 
L 262.33981 -160.772982 
L 264.459467 -160.777415 
L 266.579125 -160.78287 
L 268.698783 -160.788352 
L 270.818441 -160.792717 
L 272.938098 -160.795334 
L 275.057756 -160.79642 
L 277.177414 -160.796664 
L 279.297072 -160.796439 
L 281.41673 -160.795395 
L 283.536387 -160.792842 
L 285.656045 -160.788533 
L 287.775703 -160.783072 
L 289.895361 -160.777596 
L 292.015018 -160.773112 
L 294.134676 -160.770052 
L 294.134676 -160.763698 
L 294.134676 -160.763698 
L 292.015018 -160.760638 
L 289.895361 -160.756154 
L 287.775703 -160.750678 
L 285.656045 -160.745217 
L 283.536387 -160.740908 
L 281.41673 -160.738355 
L 279.297072 -160.737311 
L 277.177414 -160.737086 
L 275.057756 -160.73733 
L 272.938098 -160.738416 
L 270.818441 -160.741033 
L 268.698783 -160.745398 
L 266.579125 -160.75088 
L 264.459467 -160.756335 
L 262.33981 -160.760768 
L 260.220152 -160.763761 
L 258.100494 -160.765416 
L 255.980836 -160.766014 
L 253.861178 -160.76561 
L 251.741521 -160.763698 
L 249.621863 -160.75898 
L 247.502205 -160.749414 
L 245.382547 -160.732869 
L 243.26289 -160.708489 
L 241.143232 -160.678159 
L 239.023574 -160.646699 
L 236.903916 -160.619795 
L 234.784258 -160.600445 
L 232.664601 -160.586603 
L 230.544943 -160.572393 
L 228.425285 -160.552254 
L 226.305627 -160.524369 
L 224.18597 -160.489988 
L 222.066312 -160.449189 
L 219.946654 -160.397458 
L 217.826996 -160.327034 
L 215.707338 -160.232235 
L 213.587681 -160.11348 
L 211.468023 -159.975176 
L 209.348365 -159.817942 
L 207.228707 -159.631319 
L 205.10905 -159.394484 
L 202.989392 -159.088023 
L 200.869734 -158.711034 
L 198.750076 -158.289602 
L 196.630418 -157.863226 
L 194.510761 -157.450923 
L 192.391103 -157.021102 
L 190.271445 -156.497337 
L 188.151787 -155.808956 
L 186.03213 -154.952372 
L 183.912472 -154.006482 
L 181.792814 -153.07657 
L 179.673156 -152.209468 
L 177.553498 -151.361364 
L 175.433841 -150.456061 
L 173.314183 -149.479986 
L 171.194525 -148.520614 
L 169.074867 -147.715239 
L 166.95521 -147.167413 
L 164.835552 -146.906875 
L 162.715894 -146.909356 
L 160.596236 -147.136676 
L 158.476579 -147.558569 
L 156.356921 -148.150347 
L 154.237263 -148.881324 
L 152.117605 -149.708312 
L 149.997947 -150.579057 
L 147.87829 -151.442193 
L 145.758632 -152.25727 
L 143.638974 -153.000455 
L 141.519316 -153.664176 
L 139.399659 -154.251023 
L 137.280001 -154.765328 
L 135.160343 -155.208123 
L 133.040685 -155.578292 
L 130.921027 -155.876491 
L 128.80137 -156.106699 
L 126.681712 -156.274912 
L 124.562054 -156.388672 
L 122.442396 -156.458643 
L 120.322739 -156.498393 
L 118.203081 -156.519047 
L 116.083423 -156.521911 
L 113.963765 -156.497018 
L 111.844107 -156.432386 
L 109.72445 -156.330778 
L 107.604792 -156.224661 
L 105.485134 -156.179312 
L 103.365476 -156.277508 
L 101.245819 -156.587077 
L 99.126161 -157.124425 
L 97.006503 -157.835765 
L 94.886845 -158.611877 
L 92.767187 -159.331113 
L 90.64753 -159.905434 
L 88.527872 -160.303652 
L 86.408214 -160.544468 
L 84.288556 -160.671815 
z
" style="stroke: #3d3d3d; stroke-width: 1.25"/>
    </defs>
    <g clip-path="url(#p456c70af98)">
     <use xlink:href="#mfda2b20805" x="0" y="339.01" style="fill: #9372b2; stroke: #3d3d3d; stroke-width: 1.25"/>
    </g>
   </g>
   <g id="PolyCollection_6">
    <defs>
     <path id="m39ad5bfe43" d="M 79.284347 -126.067196 
L 79.284347 -126.166554 
L 83.38352 -126.268426 
L 87.482694 -126.48952 
L 91.581867 -126.861679 
L 95.681041 -127.341953 
L 99.780214 -127.806816 
L 103.879388 -128.130348 
L 107.978561 -128.279813 
L 112.077735 -128.321851 
L 116.176909 -128.336783 
L 120.276082 -128.348036 
L 124.375256 -128.337301 
L 128.474429 -128.302564 
L 132.573603 -128.285817 
L 136.672776 -128.358209 
L 140.77195 -128.596494 
L 144.871123 -129.07454 
L 148.970297 -129.860125 
L 153.069471 -130.991918 
L 157.168644 -132.44391 
L 161.267818 -134.120335 
L 165.366991 -135.887052 
L 169.466165 -137.585889 
L 173.565338 -139.006595 
L 177.664512 -139.880862 
L 181.763685 -139.976875 
L 185.862859 -139.251399 
L 189.962033 -137.904008 
L 194.061206 -136.266537 
L 198.16038 -134.648246 
L 202.259553 -133.253258 
L 206.358727 -132.144024 
L 210.4579 -131.241783 
L 214.557074 -130.431035 
L 218.656247 -129.699483 
L 222.755421 -129.128474 
L 226.854595 -128.740641 
L 230.953768 -128.426046 
L 235.052942 -128.055111 
L 239.152115 -127.623258 
L 243.251289 -127.243153 
L 247.350462 -127.016249 
L 251.449636 -126.941976 
L 255.548809 -126.930414 
L 259.647983 -126.87547 
L 263.747157 -126.729638 
L 267.84633 -126.529263 
L 271.945504 -126.351744 
L 276.044677 -126.252937 
L 280.143851 -126.24458 
L 284.243024 -126.309343 
L 288.342198 -126.414657 
L 292.441371 -126.514496 
L 296.540545 -126.559544 
L 300.639718 -126.524391 
L 304.738892 -126.426938 
L 308.838066 -126.313499 
L 312.937239 -126.222952 
L 317.036413 -126.16708 
L 321.135586 -126.138287 
L 325.23476 -126.125217 
L 329.333933 -126.120362 
L 333.433107 -126.120828 
L 337.53228 -126.127937 
L 341.631454 -126.146446 
L 345.730628 -126.180504 
L 349.829801 -126.225858 
L 353.928975 -126.265631 
L 358.028148 -126.278994 
L 362.127322 -126.258186 
L 366.226495 -126.215513 
L 370.325669 -126.172051 
L 374.424842 -126.141608 
L 378.524016 -126.125754 
L 382.62319 -126.119424 
L 386.722363 -126.117459 
L 390.821537 -126.116982 
L 394.92071 -126.11689 
L 399.019884 -126.116877 
L 403.119057 -126.116875 
L 407.218231 -126.116875 
L 411.317404 -126.116875 
L 415.416578 -126.116875 
L 419.515752 -126.116875 
L 423.614925 -126.116875 
L 427.714099 -126.116876 
L 431.813272 -126.116884 
L 435.912446 -126.116934 
L 440.011619 -126.117179 
L 444.110793 -126.118112 
L 448.209966 -126.120849 
L 452.30914 -126.126953 
L 456.408314 -126.137079 
L 460.507487 -126.148933 
L 464.606661 -126.157166 
L 468.705834 -126.157005 
L 472.805008 -126.14855 
L 476.904181 -126.136678 
L 481.003355 -126.126674 
L 485.102528 -126.120708 
L 485.102528 -126.113042 
L 485.102528 -126.113042 
L 481.003355 -126.107076 
L 476.904181 -126.097072 
L 472.805008 -126.0852 
L 468.705834 -126.076745 
L 464.606661 -126.076584 
L 460.507487 -126.084817 
L 456.408314 -126.096671 
L 452.30914 -126.106797 
L 448.209966 -126.112901 
L 444.110793 -126.115638 
L 440.011619 -126.116571 
L 435.912446 -126.116816 
L 431.813272 -126.116866 
L 427.714099 -126.116874 
L 423.614925 -126.116875 
L 419.515752 -126.116875 
L 415.416578 -126.116875 
L 411.317404 -126.116875 
L 407.218231 -126.116875 
L 403.119057 -126.116875 
L 399.019884 -126.116873 
L 394.92071 -126.11686 
L 390.821537 -126.116768 
L 386.722363 -126.116291 
L 382.62319 -126.114326 
L 378.524016 -126.107996 
L 374.424842 -126.092142 
L 370.325669 -126.061699 
L 366.226495 -126.018237 
L 362.127322 -125.975564 
L 358.028148 -125.954756 
L 353.928975 -125.968119 
L 349.829801 -126.007892 
L 345.730628 -126.053246 
L 341.631454 -126.087304 
L 337.53228 -126.105813 
L 333.433107 -126.112922 
L 329.333933 -126.113388 
L 325.23476 -126.108533 
L 321.135586 -126.095463 
L 317.036413 -126.06667 
L 312.937239 -126.010798 
L 308.838066 -125.920251 
L 304.738892 -125.806812 
L 300.639718 -125.709359 
L 296.540545 -125.674206 
L 292.441371 -125.719254 
L 288.342198 -125.819093 
L 284.243024 -125.924407 
L 280.143851 -125.98917 
L 276.044677 -125.980813 
L 271.945504 -125.882006 
L 267.84633 -125.704487 
L 263.747157 -125.504112 
L 259.647983 -125.35828 
L 255.548809 -125.303336 
L 251.449636 -125.291774 
L 247.350462 -125.217501 
L 243.251289 -124.990597 
L 239.152115 -124.610492 
L 235.052942 -124.178639 
L 230.953768 -123.807704 
L 226.854595 -123.493109 
L 222.755421 -123.105276 
L 218.656247 -122.534267 
L 214.557074 -121.802715 
L 210.4579 -120.991967 
L 206.358727 -120.089726 
L 202.259553 -118.980492 
L 198.16038 -117.585504 
L 194.061206 -115.967213 
L 189.962033 -114.329742 
L 185.862859 -112.982351 
L 181.763685 -112.256875 
L 177.664512 -112.352888 
L 173.565338 -113.227155 
L 169.466165 -114.647861 
L 165.366991 -116.346698 
L 161.267818 -118.113415 
L 157.168644 -119.78984 
L 153.069471 -121.241832 
L 148.970297 -122.373625 
L 144.871123 -123.15921 
L 140.77195 -123.637256 
L 136.672776 -123.875541 
L 132.573603 -123.947933 
L 128.474429 -123.931186 
L 124.375256 -123.896449 
L 120.276082 -123.885714 
L 116.176909 -123.896967 
L 112.077735 -123.911899 
L 107.978561 -123.953937 
L 103.879388 -124.103402 
L 99.780214 -124.426934 
L 95.681041 -124.891797 
L 91.581867 -125.372071 
L 87.482694 -125.74423 
L 83.38352 -125.965324 
L 79.284347 -126.067196 
z
" style="stroke: #3d3d3d; stroke-width: 1.25"/>
    </defs>
    <g clip-path="url(#p456c70af98)">
     <use xlink:href="#m39ad5bfe43" x="0" y="339.01" style="fill: #845b53; stroke: #3d3d3d; stroke-width: 1.25"/>
    </g>
   </g>
   <g id="PolyCollection_7">
    <defs>
     <path id="m9ede290603" d="M 86.717 -91.442911 
L 86.717 -91.490839 
L 88.014913 -91.510513 
L 89.312826 -91.54228 
L 90.610739 -91.590823 
L 91.908652 -91.66116 
L 93.206565 -91.757928 
L 94.504478 -91.884407 
L 95.802392 -92.041407 
L 97.100305 -92.226329 
L 98.398218 -92.43285 
L 99.696131 -92.651707 
L 100.994044 -92.872799 
L 102.291957 -93.088185 
L 103.58987 -93.29492 
L 104.887783 -93.496327 
L 106.185696 -93.700798 
L 107.483609 -93.918331 
L 108.781522 -94.156343 
L 110.079435 -94.416856 
L 111.377348 -94.696609 
L 112.675261 -94.99005 
L 113.973174 -95.293554 
L 115.271087 -95.608439 
L 116.569 -95.941045 
L 117.866914 -96.299791 
L 119.164827 -96.690827 
L 120.46274 -97.114616 
L 121.760653 -97.56519 
L 123.058566 -98.032331 
L 124.356479 -98.505418 
L 125.654392 -98.977023 
L 126.952305 -99.444581 
L 128.250218 -99.909565 
L 129.548131 -100.374753 
L 130.846044 -100.841014 
L 132.143957 -101.305218 
L 133.44187 -101.760305 
L 134.739783 -102.197574 
L 136.037696 -102.610119 
L 137.335609 -102.995757 
L 138.633523 -103.357862 
L 139.931436 -103.703453 
L 141.229349 -104.03906 
L 142.527262 -104.365928 
L 143.825175 -104.67646 
L 145.123088 -104.953346 
L 146.421001 -105.171845 
L 147.718914 -105.304513 
L 149.016827 -105.326875 
L 150.31474 -105.22235 
L 151.612653 -104.985197 
L 152.910566 -104.620937 
L 154.208479 -104.144256 
L 155.506392 -103.574881 
L 156.804305 -102.932591 
L 158.102218 -102.233496 
L 159.400132 -101.489845 
L 160.698045 -100.714081 
L 161.995958 -99.924702 
L 163.293871 -99.149052 
L 164.591784 -98.419045 
L 165.889697 -97.760336 
L 167.18761 -97.18083 
L 168.485523 -96.666327 
L 169.783436 -96.187566 
L 171.081349 -95.715876 
L 172.379262 -95.238956 
L 173.677175 -94.767869 
L 174.975088 -94.33144 
L 176.273001 -93.961387 
L 177.570914 -93.676283 
L 178.868827 -93.472361 
L 180.166741 -93.324914 
L 181.464654 -93.198528 
L 182.762567 -93.060644 
L 184.06048 -92.892342 
L 185.358393 -92.692511 
L 186.656306 -92.47501 
L 187.954219 -92.261248 
L 189.252132 -92.071842 
L 190.550045 -91.920436 
L 191.847958 -91.811213 
L 193.145871 -91.739918 
L 194.443784 -91.697104 
L 195.741697 -91.671969 
L 197.03961 -91.655414 
L 198.337523 -91.641598 
L 199.635436 -91.627946 
L 200.93335 -91.614088 
L 202.231263 -91.60048 
L 203.529176 -91.587384 
L 204.827089 -91.574511 
L 206.125002 -91.561274 
L 207.422915 -91.547271 
L 208.720828 -91.53264 
L 210.018741 -91.518074 
L 211.316654 -91.504552 
L 212.614567 -91.492959 
L 213.91248 -91.48381 
L 215.210393 -91.477166 
L 215.210393 -91.456584 
L 215.210393 -91.456584 
L 213.91248 -91.44994 
L 212.614567 -91.440791 
L 211.316654 -91.429198 
L 210.018741 -91.415676 
L 208.720828 -91.40111 
L 207.422915 -91.386479 
L 206.125002 -91.372476 
L 204.827089 -91.359239 
L 203.529176 -91.346366 
L 202.231263 -91.33327 
L 200.93335 -91.319662 
L 199.635436 -91.305804 
L 198.337523 -91.292152 
L 197.03961 -91.278336 
L 195.741697 -91.261781 
L 194.443784 -91.236646 
L 193.145871 -91.193832 
L 191.847958 -91.122537 
L 190.550045 -91.013314 
L 189.252132 -90.861908 
L 187.954219 -90.672502 
L 186.656306 -90.45874 
L 185.358393 -90.241239 
L 184.06048 -90.041408 
L 182.762567 -89.873106 
L 181.464654 -89.735222 
L 180.166741 -89.608836 
L 178.868827 -89.461389 
L 177.570914 -89.257467 
L 176.273001 -88.972363 
L 174.975088 -88.60231 
L 173.677175 -88.165881 
L 172.379262 -87.694794 
L 171.081349 -87.217874 
L 169.783436 -86.746184 
L 168.485523 -86.267423 
L 167.18761 -85.75292 
L 165.889697 -85.173414 
L 164.591784 -84.514705 
L 163.293871 -83.784698 
L 161.995958 -83.009048 
L 160.698045 -82.219669 
L 159.400132 -81.443905 
L 158.102218 -80.700254 
L 156.804305 -80.001159 
L 155.506392 -79.358869 
L 154.208479 -78.789494 
L 152.910566 -78.312813 
L 151.612653 -77.948553 
L 150.31474 -77.7114 
L 149.016827 -77.606875 
L 147.718914 -77.629237 
L 146.421001 -77.761905 
L 145.123088 -77.980404 
L 143.825175 -78.25729 
L 142.527262 -78.567822 
L 141.229349 -78.89469 
L 139.931436 -79.230297 
L 138.633523 -79.575888 
L 137.335609 -79.937993 
L 136.037696 -80.323631 
L 134.739783 -80.736176 
L 133.44187 -81.173445 
L 132.143957 -81.628532 
L 130.846044 -82.092736 
L 129.548131 -82.558997 
L 128.250218 -83.024185 
L 126.952305 -83.489169 
L 125.654392 -83.956727 
L 124.356479 -84.428332 
L 123.058566 -84.901419 
L 121.760653 -85.36856 
L 120.46274 -85.819134 
L 119.164827 -86.242923 
L 117.866914 -86.633959 
L 116.569 -86.992705 
L 115.271087 -87.325311 
L 113.973174 -87.640196 
L 112.675261 -87.9437 
L 111.377348 -88.237141 
L 110.079435 -88.516894 
L 108.781522 -88.777407 
L 107.483609 -89.015419 
L 106.185696 -89.232952 
L 104.887783 -89.437423 
L 103.58987 -89.63883 
L 102.291957 -89.845565 
L 100.994044 -90.060951 
L 99.696131 -90.282043 
L 98.398218 -90.5009 
L 97.100305 -90.707421 
L 95.802392 -90.892343 
L 94.504478 -91.049343 
L 93.206565 -91.175822 
L 91.908652 -91.27259 
L 90.610739 -91.342927 
L 89.312826 -91.39147 
L 88.014913 -91.423237 
L 86.717 -91.442911 
z
" style="stroke: #3d3d3d; stroke-width: 1.25"/>
    </defs>
    <g clip-path="url(#p456c70af98)">
     <use xlink:href="#m9ede290603" x="0" y="339.01" style="fill: #d684bd; stroke: #3d3d3d; stroke-width: 1.25"/>
    </g>
   </g>
   <g id="PolyCollection_8">
    <defs>
     <path id="maddaae6945" d="M 93.130962 -56.620725 
L 93.130962 -57.013025 
L 94.198769 -57.075585 
L 95.266576 -57.153526 
L 96.334382 -57.249142 
L 97.402189 -57.364651 
L 98.469995 -57.502066 
L 99.537802 -57.663057 
L 100.605609 -57.84882 
L 101.673415 -58.059945 
L 102.741222 -58.296318 
L 103.809029 -58.557049 
L 104.876835 -58.840456 
L 105.944642 -59.144086 
L 107.012449 -59.464801 
L 108.080255 -59.798903 
L 109.148062 -60.142302 
L 110.215868 -60.490704 
L 111.283675 -60.839814 
L 112.351482 -61.185525 
L 113.419288 -61.524085 
L 114.487095 -61.852231 
L 115.554902 -62.167283 
L 116.622708 -62.467199 
L 117.690515 -62.750599 
L 118.758321 -63.016759 
L 119.826128 -63.265606 
L 120.893935 -63.4977 
L 121.961741 -63.71423 
L 123.029548 -63.917017 
L 124.097355 -64.10852 
L 125.165161 -64.291833 
L 126.232968 -64.470659 
L 127.300775 -64.649245 
L 128.368581 -64.83226 
L 129.436388 -65.024606 
L 130.504194 -65.231167 
L 131.572001 -65.4565 
L 132.639808 -65.704488 
L 133.707614 -65.977986 
L 134.775421 -66.278497 
L 135.843228 -66.605912 
L 136.911034 -66.958342 
L 137.978841 -67.332072 
L 139.046647 -67.721641 
L 140.114454 -68.120048 
L 141.182261 -68.519063 
L 142.250067 -68.909616 
L 143.317874 -69.282219 
L 144.385681 -69.627394 
L 145.453487 -69.936061 
L 146.521294 -70.199871 
L 147.589101 -70.41145 
L 148.656907 -70.564577 
L 149.724714 -70.654277 
L 150.79252 -70.676875 
L 151.860327 -70.629998 
L 152.928134 -70.512577 
L 153.99594 -70.324838 
L 155.063747 -70.068306 
L 156.131554 -69.745809 
L 157.19936 -69.36148 
L 158.267167 -68.920729 
L 159.334974 -68.430194 
L 160.40278 -67.897615 
L 161.470587 -67.331658 
L 162.538393 -66.741667 
L 163.6062 -66.137352 
L 164.674007 -65.528432 
L 165.741813 -64.924254 
L 166.80962 -64.333422 
L 167.877427 -63.763457 
L 168.945233 -63.220515 
L 170.01304 -62.709202 
L 171.080846 -62.232472 
L 172.148653 -61.791643 
L 173.21646 -61.386508 
L 174.284266 -61.015538 
L 175.352073 -60.676149 
L 176.41988 -60.365024 
L 177.487686 -60.078445 
L 178.555493 -59.812618 
L 179.6233 -59.563967 
L 180.691106 -59.329371 
L 181.758913 -59.106332 
L 182.826719 -58.893073 
L 183.894526 -58.688552 
L 184.962333 -58.492412 
L 186.030139 -58.304877 
L 187.097946 -58.126604 
L 188.165753 -57.958517 
L 189.233559 -57.801637 
L 190.301366 -57.656926 
L 191.369172 -57.525164 
L 192.436979 -57.406852 
L 193.504786 -57.302161 
L 194.572592 -57.210917 
L 195.640399 -57.132618 
L 196.708206 -57.066482 
L 197.776012 -57.011506 
L 198.843819 -56.966538 
L 198.843819 -56.667212 
L 198.843819 -56.667212 
L 197.776012 -56.622244 
L 196.708206 -56.567268 
L 195.640399 -56.501132 
L 194.572592 -56.422833 
L 193.504786 -56.331589 
L 192.436979 -56.226898 
L 191.369172 -56.108586 
L 190.301366 -55.976824 
L 189.233559 -55.832113 
L 188.165753 -55.675233 
L 187.097946 -55.507146 
L 186.030139 -55.328873 
L 184.962333 -55.141338 
L 183.894526 -54.945198 
L 182.826719 -54.740677 
L 181.758913 -54.527418 
L 180.691106 -54.304379 
L 179.6233 -54.069783 
L 178.555493 -53.821132 
L 177.487686 -53.555305 
L 176.41988 -53.268726 
L 175.352073 -52.957601 
L 174.284266 -52.618212 
L 173.21646 -52.247242 
L 172.148653 -51.842107 
L 171.080846 -51.401278 
L 170.01304 -50.924548 
L 168.945233 -50.413235 
L 167.877427 -49.870293 
L 166.80962 -49.300328 
L 165.741813 -48.709496 
L 164.674007 -48.105318 
L 163.6062 -47.496398 
L 162.538393 -46.892083 
L 161.470587 -46.302092 
L 160.40278 -45.736135 
L 159.334974 -45.203556 
L 158.267167 -44.713021 
L 157.19936 -44.27227 
L 156.131554 -43.887941 
L 155.063747 -43.565444 
L 153.99594 -43.308912 
L 152.928134 -43.121173 
L 151.860327 -43.003752 
L 150.79252 -42.956875 
L 149.724714 -42.979473 
L 148.656907 -43.069173 
L 147.589101 -43.2223 
L 146.521294 -43.433879 
L 145.453487 -43.697689 
L 144.385681 -44.006356 
L 143.317874 -44.351531 
L 142.250067 -44.724134 
L 141.182261 -45.114687 
L 140.114454 -45.513702 
L 139.046647 -45.912109 
L 137.978841 -46.301678 
L 136.911034 -46.675408 
L 135.843228 -47.027838 
L 134.775421 -47.355253 
L 133.707614 -47.655764 
L 132.639808 -47.929262 
L 131.572001 -48.17725 
L 130.504194 -48.402583 
L 129.436388 -48.609144 
L 128.368581 -48.80149 
L 127.300775 -48.984505 
L 126.232968 -49.163091 
L 125.165161 -49.341917 
L 124.097355 -49.52523 
L 123.029548 -49.716733 
L 121.961741 -49.91952 
L 120.893935 -50.13605 
L 119.826128 -50.368144 
L 118.758321 -50.616991 
L 117.690515 -50.883151 
L 116.622708 -51.166551 
L 115.554902 -51.466467 
L 114.487095 -51.781519 
L 113.419288 -52.109665 
L 112.351482 -52.448225 
L 111.283675 -52.793936 
L 110.215868 -53.143046 
L 109.148062 -53.491448 
L 108.080255 -53.834847 
L 107.012449 -54.168949 
L 105.944642 -54.489664 
L 104.876835 -54.793294 
L 103.809029 -55.076701 
L 102.741222 -55.337432 
L 101.673415 -55.573805 
L 100.605609 -55.78493 
L 99.537802 -55.970693 
L 98.469995 -56.131684 
L 97.402189 -56.269099 
L 96.334382 -56.384608 
L 95.266576 -56.480224 
L 94.198769 -56.558165 
L 93.130962 -56.620725 
z
" style="stroke: #3d3d3d; stroke-width: 1.25"/>
    </defs>
    <g clip-path="url(#p456c70af98)">
     <use xlink:href="#maddaae6945" x="0" y="339.01" style="fill: #7f7f7f; stroke: #3d3d3d; stroke-width: 1.25"/>
    </g>
   </g>
   <g id="matplotlib.axis_1">
    <g id="xtick_1">
     <g id="line2d_1">
      <defs>
       <path id="m2ad2a663a9" d="M 0 0 
L 0 3.5 
" style="stroke: #000000; stroke-width: 0.8"/>
      </defs>
      <g>
       <use xlink:href="#m2ad2a663a9" x="93.143255" y="299.518125" style="stroke: #000000; stroke-width: 0.8"/>
      </g>
     </g>
     <g id="text_1">
      <!-- 0 -->
      <g transform="translate(89.962005 314.116563) scale(0.1 -0.1)">
       <defs>
        <path id="DejaVuSans-30" d="M 2034 4250 
Q 1547 4250 1301 3770 
Q 1056 3291 1056 2328 
Q 1056 1369 1301 889 
Q 1547 409 2034 409 
Q 2525 409 2770 889 
Q 3016 1369 3016 2328 
Q 3016 3291 2770 3770 
Q 2525 4250 2034 4250 
z
M 2034 4750 
Q 2819 4750 3233 4129 
Q 3647 3509 3647 2328 
Q 3647 1150 3233 529 
Q 2819 -91 2034 -91 
Q 1250 -91 836 529 
Q 422 1150 422 2328 
Q 422 3509 836 4129 
Q 1250 4750 2034 4750 
z
" transform="scale(0.015625)"/>
       </defs>
       <use xlink:href="#DejaVuSans-30"/>
      </g>
     </g>
    </g>
    <g id="xtick_2">
     <g id="line2d_2">
      <g>
       <use xlink:href="#m2ad2a663a9" x="183.613507" y="299.518125" style="stroke: #000000; stroke-width: 0.8"/>
      </g>
     </g>
     <g id="text_2">
      <!-- 100 -->
      <g transform="translate(174.069757 314.116563) scale(0.1 -0.1)">
       <defs>
        <path id="DejaVuSans-31" d="M 794 531 
L 1825 531 
L 1825 4091 
L 703 3866 
L 703 4441 
L 1819 4666 
L 2450 4666 
L 2450 531 
L 3481 531 
L 3481 0 
L 794 0 
L 794 531 
z
" transform="scale(0.015625)"/>
       </defs>
       <use xlink:href="#DejaVuSans-31"/>
       <use xlink:href="#DejaVuSans-30" x="63.623047"/>
       <use xlink:href="#DejaVuSans-30" x="127.246094"/>
      </g>
     </g>
    </g>
    <g id="xtick_3">
     <g id="line2d_3">
      <g>
       <use xlink:href="#m2ad2a663a9" x="274.083759" y="299.518125" style="stroke: #000000; stroke-width: 0.8"/>
      </g>
     </g>
     <g id="text_3">
      <!-- 200 -->
      <g transform="translate(264.540009 314.116563) scale(0.1 -0.1)">
       <defs>
        <path id="DejaVuSans-32" d="M 1228 531 
L 3431 531 
L 3431 0 
L 469 0 
L 469 531 
Q 828 903 1448 1529 
Q 2069 2156 2228 2338 
Q 2531 2678 2651 2914 
Q 2772 3150 2772 3378 
Q 2772 3750 2511 3984 
Q 2250 4219 1831 4219 
Q 1534 4219 1204 4116 
Q 875 4013 500 3803 
L 500 4441 
Q 881 4594 1212 4672 
Q 1544 4750 1819 4750 
Q 2544 4750 2975 4387 
Q 3406 4025 3406 3419 
Q 3406 3131 3298 2873 
Q 3191 2616 2906 2266 
Q 2828 2175 2409 1742 
Q 1991 1309 1228 531 
z
" transform="scale(0.015625)"/>
       </defs>
       <use xlink:href="#DejaVuSans-32"/>
       <use xlink:href="#DejaVuSans-30" x="63.623047"/>
       <use xlink:href="#DejaVuSans-30" x="127.246094"/>
      </g>
     </g>
    </g>
    <g id="xtick_4">
     <g id="line2d_4">
      <g>
       <use xlink:href="#m2ad2a663a9" x="364.554011" y="299.518125" style="stroke: #000000; stroke-width: 0.8"/>
      </g>
     </g>
     <g id="text_4">
      <!-- 300 -->
      <g transform="translate(355.010261 314.116563) scale(0.1 -0.1)">
       <defs>
        <path id="DejaVuSans-33" d="M 2597 2516 
Q 3050 2419 3304 2112 
Q 3559 1806 3559 1356 
Q 3559 666 3084 287 
Q 2609 -91 1734 -91 
Q 1441 -91 1130 -33 
Q 819 25 488 141 
L 488 750 
Q 750 597 1062 519 
Q 1375 441 1716 441 
Q 2309 441 2620 675 
Q 2931 909 2931 1356 
Q 2931 1769 2642 2001 
Q 2353 2234 1838 2234 
L 1294 2234 
L 1294 2753 
L 1863 2753 
Q 2328 2753 2575 2939 
Q 2822 3125 2822 3475 
Q 2822 3834 2567 4026 
Q 2313 4219 1838 4219 
Q 1578 4219 1281 4162 
Q 984 4106 628 3988 
L 628 4550 
Q 988 4650 1302 4700 
Q 1616 4750 1894 4750 
Q 2613 4750 3031 4423 
Q 3450 4097 3450 3541 
Q 3450 3153 3228 2886 
Q 3006 2619 2597 2516 
z
" transform="scale(0.015625)"/>
       </defs>
       <use xlink:href="#DejaVuSans-33"/>
       <use xlink:href="#DejaVuSans-30" x="63.623047"/>
       <use xlink:href="#DejaVuSans-30" x="127.246094"/>
      </g>
     </g>
    </g>
    <g id="xtick_5">
     <g id="line2d_5">
      <g>
       <use xlink:href="#m2ad2a663a9" x="455.024263" y="299.518125" style="stroke: #000000; stroke-width: 0.8"/>
      </g>
     </g>
     <g id="text_5">
      <!-- 400 -->
      <g transform="translate(445.480513 314.116563) scale(0.1 -0.1)">
       <defs>
        <path id="DejaVuSans-34" d="M 2419 4116 
L 825 1625 
L 2419 1625 
L 2419 4116 
z
M 2253 4666 
L 3047 4666 
L 3047 1625 
L 3713 1625 
L 3713 1100 
L 3047 1100 
L 3047 0 
L 2419 0 
L 2419 1100 
L 313 1100 
L 313 1709 
L 2253 4666 
z
" transform="scale(0.015625)"/>
       </defs>
       <use xlink:href="#DejaVuSans-34"/>
       <use xlink:href="#DejaVuSans-30" x="63.623047"/>
       <use xlink:href="#DejaVuSans-30" x="127.246094"/>
      </g>
     </g>
    </g>
    <g id="text_6">
     <!-- GFR -->
     <g transform="translate(269.924375 329.314375) scale(0.12 -0.12)">
      <defs>
       <path id="DejaVuSans-47" d="M 3809 666 
L 3809 1919 
L 2778 1919 
L 2778 2438 
L 4434 2438 
L 4434 434 
Q 4069 175 3628 42 
Q 3188 -91 2688 -91 
Q 1594 -91 976 548 
Q 359 1188 359 2328 
Q 359 3472 976 4111 
Q 1594 4750 2688 4750 
Q 3144 4750 3555 4637 
Q 3966 4525 4313 4306 
L 4313 3634 
Q 3963 3931 3569 4081 
Q 3175 4231 2741 4231 
Q 1884 4231 1454 3753 
Q 1025 3275 1025 2328 
Q 1025 1384 1454 906 
Q 1884 428 2741 428 
Q 3075 428 3337 486 
Q 3600 544 3809 666 
z
" transform="scale(0.015625)"/>
       <path id="DejaVuSans-46" d="M 628 4666 
L 3309 4666 
L 3309 4134 
L 1259 4134 
L 1259 2759 
L 3109 2759 
L 3109 2228 
L 1259 2228 
L 1259 0 
L 628 0 
L 628 4666 
z
" transform="scale(0.015625)"/>
       <path id="DejaVuSans-52" d="M 2841 2188 
Q 3044 2119 3236 1894 
Q 3428 1669 3622 1275 
L 4263 0 
L 3584 0 
L 2988 1197 
Q 2756 1666 2539 1819 
Q 2322 1972 1947 1972 
L 1259 1972 
L 1259 0 
L 628 0 
L 628 4666 
L 2053 4666 
Q 2853 4666 3247 4331 
Q 3641 3997 3641 3322 
Q 3641 2881 3436 2590 
Q 3231 2300 2841 2188 
z
M 1259 4147 
L 1259 2491 
L 2053 2491 
Q 2509 2491 2742 2702 
Q 2975 2913 2975 3322 
Q 2975 3731 2742 3939 
Q 2509 4147 2053 4147 
L 1259 4147 
z
" transform="scale(0.015625)"/>
      </defs>
      <use xlink:href="#DejaVuSans-47"/>
      <use xlink:href="#DejaVuSans-46" x="77.490234"/>
      <use xlink:href="#DejaVuSans-52" x="135.009766"/>
     </g>
    </g>
   </g>
   <g id="matplotlib.axis_2">
    <g id="ytick_1">
     <g id="line2d_6">
      <defs>
       <path id="mf72a259f3f" d="M 0 0 
L -3.5 0 
" style="stroke: #000000; stroke-width: 0.8"/>
      </defs>
      <g>
       <use xlink:href="#mf72a259f3f" x="58.993437" y="39.643125" style="stroke: #000000; stroke-width: 0.8"/>
      </g>
     </g>
     <g id="text_7">
      <!-- 60-69 -->
      <g transform="translate(22.935625 43.442344) scale(0.1 -0.1)">
       <defs>
        <path id="DejaVuSans-36" d="M 2113 2584 
Q 1688 2584 1439 2293 
Q 1191 2003 1191 1497 
Q 1191 994 1439 701 
Q 1688 409 2113 409 
Q 2538 409 2786 701 
Q 3034 994 3034 1497 
Q 3034 2003 2786 2293 
Q 2538 2584 2113 2584 
z
M 3366 4563 
L 3366 3988 
Q 3128 4100 2886 4159 
Q 2644 4219 2406 4219 
Q 1781 4219 1451 3797 
Q 1122 3375 1075 2522 
Q 1259 2794 1537 2939 
Q 1816 3084 2150 3084 
Q 2853 3084 3261 2657 
Q 3669 2231 3669 1497 
Q 3669 778 3244 343 
Q 2819 -91 2113 -91 
Q 1303 -91 875 529 
Q 447 1150 447 2328 
Q 447 3434 972 4092 
Q 1497 4750 2381 4750 
Q 2619 4750 2861 4703 
Q 3103 4656 3366 4563 
z
" transform="scale(0.015625)"/>
        <path id="DejaVuSans-2d" d="M 313 2009 
L 1997 2009 
L 1997 1497 
L 313 1497 
L 313 2009 
z
" transform="scale(0.015625)"/>
        <path id="DejaVuSans-39" d="M 703 97 
L 703 672 
Q 941 559 1184 500 
Q 1428 441 1663 441 
Q 2288 441 2617 861 
Q 2947 1281 2994 2138 
Q 2813 1869 2534 1725 
Q 2256 1581 1919 1581 
Q 1219 1581 811 2004 
Q 403 2428 403 3163 
Q 403 3881 828 4315 
Q 1253 4750 1959 4750 
Q 2769 4750 3195 4129 
Q 3622 3509 3622 2328 
Q 3622 1225 3098 567 
Q 2575 -91 1691 -91 
Q 1453 -91 1209 -44 
Q 966 3 703 97 
z
M 1959 2075 
Q 2384 2075 2632 2365 
Q 2881 2656 2881 3163 
Q 2881 3666 2632 3958 
Q 2384 4250 1959 4250 
Q 1534 4250 1286 3958 
Q 1038 3666 1038 3163 
Q 1038 2656 1286 2365 
Q 1534 2075 1959 2075 
z
" transform="scale(0.015625)"/>
       </defs>
       <use xlink:href="#DejaVuSans-36"/>
       <use xlink:href="#DejaVuSans-30" x="63.623047"/>
       <use xlink:href="#DejaVuSans-2d" x="127.246094"/>
       <use xlink:href="#DejaVuSans-36" x="163.330078"/>
       <use xlink:href="#DejaVuSans-39" x="226.953125"/>
      </g>
     </g>
    </g>
    <g id="ytick_2">
     <g id="line2d_7">
      <g>
       <use xlink:href="#mf72a259f3f" x="58.993437" y="74.293125" style="stroke: #000000; stroke-width: 0.8"/>
      </g>
     </g>
     <g id="text_8">
      <!-- 30-39 -->
      <g transform="translate(22.935625 78.092344) scale(0.1 -0.1)">
       <use xlink:href="#DejaVuSans-33"/>
       <use xlink:href="#DejaVuSans-30" x="63.623047"/>
       <use xlink:href="#DejaVuSans-2d" x="127.246094"/>
       <use xlink:href="#DejaVuSans-33" x="163.330078"/>
       <use xlink:href="#DejaVuSans-39" x="226.953125"/>
      </g>
     </g>
    </g>
    <g id="ytick_3">
     <g id="line2d_8">
      <g>
       <use xlink:href="#mf72a259f3f" x="58.993437" y="108.943125" style="stroke: #000000; stroke-width: 0.8"/>
      </g>
     </g>
     <g id="text_9">
      <!-- 50-59 -->
      <g transform="translate(22.935625 112.742344) scale(0.1 -0.1)">
       <defs>
        <path id="DejaVuSans-35" d="M 691 4666 
L 3169 4666 
L 3169 4134 
L 1269 4134 
L 1269 2991 
Q 1406 3038 1543 3061 
Q 1681 3084 1819 3084 
Q 2600 3084 3056 2656 
Q 3513 2228 3513 1497 
Q 3513 744 3044 326 
Q 2575 -91 1722 -91 
Q 1428 -91 1123 -41 
Q 819 9 494 109 
L 494 744 
Q 775 591 1075 516 
Q 1375 441 1709 441 
Q 2250 441 2565 725 
Q 2881 1009 2881 1497 
Q 2881 1984 2565 2268 
Q 2250 2553 1709 2553 
Q 1456 2553 1204 2497 
Q 953 2441 691 2322 
L 691 4666 
z
" transform="scale(0.015625)"/>
       </defs>
       <use xlink:href="#DejaVuSans-35"/>
       <use xlink:href="#DejaVuSans-30" x="63.623047"/>
       <use xlink:href="#DejaVuSans-2d" x="127.246094"/>
       <use xlink:href="#DejaVuSans-35" x="163.330078"/>
       <use xlink:href="#DejaVuSans-39" x="226.953125"/>
      </g>
     </g>
    </g>
    <g id="ytick_4">
     <g id="line2d_9">
      <g>
       <use xlink:href="#mf72a259f3f" x="58.993437" y="143.593125" style="stroke: #000000; stroke-width: 0.8"/>
      </g>
     </g>
     <g id="text_10">
      <!-- 70-79 -->
      <g transform="translate(22.935625 147.392344) scale(0.1 -0.1)">
       <defs>
        <path id="DejaVuSans-37" d="M 525 4666 
L 3525 4666 
L 3525 4397 
L 1831 0 
L 1172 0 
L 2766 4134 
L 525 4134 
L 525 4666 
z
" transform="scale(0.015625)"/>
       </defs>
       <use xlink:href="#DejaVuSans-37"/>
       <use xlink:href="#DejaVuSans-30" x="63.623047"/>
       <use xlink:href="#DejaVuSans-2d" x="127.246094"/>
       <use xlink:href="#DejaVuSans-37" x="163.330078"/>
       <use xlink:href="#DejaVuSans-39" x="226.953125"/>
      </g>
     </g>
    </g>
    <g id="ytick_5">
     <g id="line2d_10">
      <g>
       <use xlink:href="#mf72a259f3f" x="58.993437" y="178.243125" style="stroke: #000000; stroke-width: 0.8"/>
      </g>
     </g>
     <g id="text_11">
      <!-- 40-49 -->
      <g transform="translate(22.935625 182.042344) scale(0.1 -0.1)">
       <use xlink:href="#DejaVuSans-34"/>
       <use xlink:href="#DejaVuSans-30" x="63.623047"/>
       <use xlink:href="#DejaVuSans-2d" x="127.246094"/>
       <use xlink:href="#DejaVuSans-34" x="163.330078"/>
       <use xlink:href="#DejaVuSans-39" x="226.953125"/>
      </g>
     </g>
    </g>
    <g id="ytick_6">
     <g id="line2d_11">
      <g>
       <use xlink:href="#mf72a259f3f" x="58.993437" y="212.893125" style="stroke: #000000; stroke-width: 0.8"/>
      </g>
     </g>
     <g id="text_12">
      <!-- 18-29 -->
      <g transform="translate(22.935625 216.692344) scale(0.1 -0.1)">
       <defs>
        <path id="DejaVuSans-38" d="M 2034 2216 
Q 1584 2216 1326 1975 
Q 1069 1734 1069 1313 
Q 1069 891 1326 650 
Q 1584 409 2034 409 
Q 2484 409 2743 651 
Q 3003 894 3003 1313 
Q 3003 1734 2745 1975 
Q 2488 2216 2034 2216 
z
M 1403 2484 
Q 997 2584 770 2862 
Q 544 3141 544 3541 
Q 544 4100 942 4425 
Q 1341 4750 2034 4750 
Q 2731 4750 3128 4425 
Q 3525 4100 3525 3541 
Q 3525 3141 3298 2862 
Q 3072 2584 2669 2484 
Q 3125 2378 3379 2068 
Q 3634 1759 3634 1313 
Q 3634 634 3220 271 
Q 2806 -91 2034 -91 
Q 1263 -91 848 271 
Q 434 634 434 1313 
Q 434 1759 690 2068 
Q 947 2378 1403 2484 
z
M 1172 3481 
Q 1172 3119 1398 2916 
Q 1625 2713 2034 2713 
Q 2441 2713 2670 2916 
Q 2900 3119 2900 3481 
Q 2900 3844 2670 4047 
Q 2441 4250 2034 4250 
Q 1625 4250 1398 4047 
Q 1172 3844 1172 3481 
z
" transform="scale(0.015625)"/>
       </defs>
       <use xlink:href="#DejaVuSans-31"/>
       <use xlink:href="#DejaVuSans-38" x="63.623047"/>
       <use xlink:href="#DejaVuSans-2d" x="127.246094"/>
       <use xlink:href="#DejaVuSans-32" x="163.330078"/>
       <use xlink:href="#DejaVuSans-39" x="226.953125"/>
      </g>
     </g>
    </g>
    <g id="ytick_7">
     <g id="line2d_12">
      <g>
       <use xlink:href="#mf72a259f3f" x="58.993437" y="247.543125" style="stroke: #000000; stroke-width: 0.8"/>
      </g>
     </g>
     <g id="text_13">
      <!-- 80-89 -->
      <g transform="translate(22.935625 251.342344) scale(0.1 -0.1)">
       <use xlink:href="#DejaVuSans-38"/>
       <use xlink:href="#DejaVuSans-30" x="63.623047"/>
       <use xlink:href="#DejaVuSans-2d" x="127.246094"/>
       <use xlink:href="#DejaVuSans-38" x="163.330078"/>
       <use xlink:href="#DejaVuSans-39" x="226.953125"/>
      </g>
     </g>
    </g>
    <g id="ytick_8">
     <g id="line2d_13">
      <g>
       <use xlink:href="#mf72a259f3f" x="58.993437" y="282.193125" style="stroke: #000000; stroke-width: 0.8"/>
      </g>
     </g>
     <g id="text_14">
      <!-- 90-99 -->
      <g transform="translate(22.935625 285.992344) scale(0.1 -0.1)">
       <use xlink:href="#DejaVuSans-39"/>
       <use xlink:href="#DejaVuSans-30" x="63.623047"/>
       <use xlink:href="#DejaVuSans-2d" x="127.246094"/>
       <use xlink:href="#DejaVuSans-39" x="163.330078"/>
       <use xlink:href="#DejaVuSans-39" x="226.953125"/>
      </g>
     </g>
    </g>
    <g id="text_15">
     <!-- Age_Group -->
     <g transform="translate(16.10625 193.786875) rotate(-90) scale(0.12 -0.12)">
      <defs>
       <path id="DejaVuSans-41" d="M 2188 4044 
L 1331 1722 
L 3047 1722 
L 2188 4044 
z
M 1831 4666 
L 2547 4666 
L 4325 0 
L 3669 0 
L 3244 1197 
L 1141 1197 
L 716 0 
L 50 0 
L 1831 4666 
z
" transform="scale(0.015625)"/>
       <path id="DejaVuSans-67" d="M 2906 1791 
Q 2906 2416 2648 2759 
Q 2391 3103 1925 3103 
Q 1463 3103 1205 2759 
Q 947 2416 947 1791 
Q 947 1169 1205 825 
Q 1463 481 1925 481 
Q 2391 481 2648 825 
Q 2906 1169 2906 1791 
z
M 3481 434 
Q 3481 -459 3084 -895 
Q 2688 -1331 1869 -1331 
Q 1566 -1331 1297 -1286 
Q 1028 -1241 775 -1147 
L 775 -588 
Q 1028 -725 1275 -790 
Q 1522 -856 1778 -856 
Q 2344 -856 2625 -561 
Q 2906 -266 2906 331 
L 2906 616 
Q 2728 306 2450 153 
Q 2172 0 1784 0 
Q 1141 0 747 490 
Q 353 981 353 1791 
Q 353 2603 747 3093 
Q 1141 3584 1784 3584 
Q 2172 3584 2450 3431 
Q 2728 3278 2906 2969 
L 2906 3500 
L 3481 3500 
L 3481 434 
z
" transform="scale(0.015625)"/>
       <path id="DejaVuSans-65" d="M 3597 1894 
L 3597 1613 
L 953 1613 
Q 991 1019 1311 708 
Q 1631 397 2203 397 
Q 2534 397 2845 478 
Q 3156 559 3463 722 
L 3463 178 
Q 3153 47 2828 -22 
Q 2503 -91 2169 -91 
Q 1331 -91 842 396 
Q 353 884 353 1716 
Q 353 2575 817 3079 
Q 1281 3584 2069 3584 
Q 2775 3584 3186 3129 
Q 3597 2675 3597 1894 
z
M 3022 2063 
Q 3016 2534 2758 2815 
Q 2500 3097 2075 3097 
Q 1594 3097 1305 2825 
Q 1016 2553 972 2059 
L 3022 2063 
z
" transform="scale(0.015625)"/>
       <path id="DejaVuSans-5f" d="M 3263 -1063 
L 3263 -1509 
L -63 -1509 
L -63 -1063 
L 3263 -1063 
z
" transform="scale(0.015625)"/>
       <path id="DejaVuSans-72" d="M 2631 2963 
Q 2534 3019 2420 3045 
Q 2306 3072 2169 3072 
Q 1681 3072 1420 2755 
Q 1159 2438 1159 1844 
L 1159 0 
L 581 0 
L 581 3500 
L 1159 3500 
L 1159 2956 
Q 1341 3275 1631 3429 
Q 1922 3584 2338 3584 
Q 2397 3584 2469 3576 
Q 2541 3569 2628 3553 
L 2631 2963 
z
" transform="scale(0.015625)"/>
       <path id="DejaVuSans-6f" d="M 1959 3097 
Q 1497 3097 1228 2736 
Q 959 2375 959 1747 
Q 959 1119 1226 758 
Q 1494 397 1959 397 
Q 2419 397 2687 759 
Q 2956 1122 2956 1747 
Q 2956 2369 2687 2733 
Q 2419 3097 1959 3097 
z
M 1959 3584 
Q 2709 3584 3137 3096 
Q 3566 2609 3566 1747 
Q 3566 888 3137 398 
Q 2709 -91 1959 -91 
Q 1206 -91 779 398 
Q 353 888 353 1747 
Q 353 2609 779 3096 
Q 1206 3584 1959 3584 
z
" transform="scale(0.015625)"/>
       <path id="DejaVuSans-75" d="M 544 1381 
L 544 3500 
L 1119 3500 
L 1119 1403 
Q 1119 906 1312 657 
Q 1506 409 1894 409 
Q 2359 409 2629 706 
Q 2900 1003 2900 1516 
L 2900 3500 
L 3475 3500 
L 3475 0 
L 2900 0 
L 2900 538 
Q 2691 219 2414 64 
Q 2138 -91 1772 -91 
Q 1169 -91 856 284 
Q 544 659 544 1381 
z
M 1991 3584 
L 1991 3584 
z
" transform="scale(0.015625)"/>
       <path id="DejaVuSans-70" d="M 1159 525 
L 1159 -1331 
L 581 -1331 
L 581 3500 
L 1159 3500 
L 1159 2969 
Q 1341 3281 1617 3432 
Q 1894 3584 2278 3584 
Q 2916 3584 3314 3078 
Q 3713 2572 3713 1747 
Q 3713 922 3314 415 
Q 2916 -91 2278 -91 
Q 1894 -91 1617 61 
Q 1341 213 1159 525 
z
M 3116 1747 
Q 3116 2381 2855 2742 
Q 2594 3103 2138 3103 
Q 1681 3103 1420 2742 
Q 1159 2381 1159 1747 
Q 1159 1113 1420 752 
Q 1681 391 2138 391 
Q 2594 391 2855 752 
Q 3116 1113 3116 1747 
z
" transform="scale(0.015625)"/>
      </defs>
      <use xlink:href="#DejaVuSans-41"/>
      <use xlink:href="#DejaVuSans-67" x="68.408203"/>
      <use xlink:href="#DejaVuSans-65" x="131.884766"/>
      <use xlink:href="#DejaVuSans-5f" x="193.408203"/>
      <use xlink:href="#DejaVuSans-47" x="243.408203"/>
      <use xlink:href="#DejaVuSans-72" x="320.898438"/>
      <use xlink:href="#DejaVuSans-6f" x="359.761719"/>
      <use xlink:href="#DejaVuSans-75" x="420.943359"/>
      <use xlink:href="#DejaVuSans-70" x="484.322266"/>
     </g>
    </g>
   </g>
   <g id="line2d_14">
    <path d="M 95.377583 39.643125 
L 211.47958 39.643125 
" clip-path="url(#p456c70af98)" style="fill: none; stroke: #3d3d3d; stroke-width: 1.875; stroke-linecap: square"/>
   </g>
   <g id="line2d_15">
    <path d="M 132.23268 39.643125 
L 164.384644 39.643125 
" clip-path="url(#p456c70af98)" style="fill: none; stroke: #3d3d3d; stroke-width: 5.625; stroke-linecap: square"/>
   </g>
   <g id="line2d_16">
    <path d="M 149.78629 39.643125 
" clip-path="url(#p456c70af98)" style="fill: none; stroke: #3d3d3d; stroke-width: 1.5; stroke-linecap: square"/>
    <defs>
     <path id="mceb0f9e153" d="M 0 2.34375 
L 0 -2.34375 
" style="stroke: #ffffff; stroke-width: 1.125"/>
    </defs>
    <g clip-path="url(#p456c70af98)">
     <use xlink:href="#mceb0f9e153" x="149.78629" y="39.643125" style="fill: #ffffff; stroke: #ffffff; stroke-width: 1.125"/>
    </g>
   </g>
   <g id="line2d_17">
    <path d="M 95.167826 74.293125 
L 225.397118 74.293125 
" clip-path="url(#p456c70af98)" style="fill: none; stroke: #3d3d3d; stroke-width: 1.875; stroke-linecap: square"/>
   </g>
   <g id="line2d_18">
    <path d="M 143.779849 74.293125 
L 176.837971 74.293125 
" clip-path="url(#p456c70af98)" style="fill: none; stroke: #3d3d3d; stroke-width: 5.625; stroke-linecap: square"/>
   </g>
   <g id="line2d_19">
    <path d="M 165.218582 74.293125 
" clip-path="url(#p456c70af98)" style="fill: none; stroke: #3d3d3d; stroke-width: 1.5; stroke-linecap: square"/>
    <g clip-path="url(#p456c70af98)">
     <use xlink:href="#mceb0f9e153" x="165.218582" y="74.293125" style="fill: #ffffff; stroke: #ffffff; stroke-width: 1.125"/>
    </g>
   </g>
   <g id="line2d_20">
    <path d="M 95.930532 108.943125 
L 217.538817 108.943125 
" clip-path="url(#p456c70af98)" style="fill: none; stroke: #3d3d3d; stroke-width: 1.875; stroke-linecap: square"/>
   </g>
   <g id="line2d_21">
    <path d="M 133.886225 108.943125 
L 167.468539 108.943125 
" clip-path="url(#p456c70af98)" style="fill: none; stroke: #3d3d3d; stroke-width: 5.625; stroke-linecap: square"/>
   </g>
   <g id="line2d_22">
    <path d="M 153.812369 108.943125 
" clip-path="url(#p456c70af98)" style="fill: none; stroke: #3d3d3d; stroke-width: 1.5; stroke-linecap: square"/>
    <g clip-path="url(#p456c70af98)">
     <use xlink:href="#mceb0f9e153" x="153.812369" y="108.943125" style="fill: #ffffff; stroke: #ffffff; stroke-width: 1.125"/>
    </g>
   </g>
   <g id="line2d_23">
    <path d="M 97.652401 143.593125 
L 190.506017 143.593125 
" clip-path="url(#p456c70af98)" style="fill: none; stroke: #3d3d3d; stroke-width: 1.875; stroke-linecap: square"/>
   </g>
   <g id="line2d_24">
    <path d="M 133.004434 143.593125 
L 156.595376 143.593125 
" clip-path="url(#p456c70af98)" style="fill: none; stroke: #3d3d3d; stroke-width: 5.625; stroke-linecap: square"/>
   </g>
   <g id="line2d_25">
    <path d="M 145.469874 143.593125 
" clip-path="url(#p456c70af98)" style="fill: none; stroke: #3d3d3d; stroke-width: 1.5; stroke-linecap: square"/>
    <g clip-path="url(#p456c70af98)">
     <use xlink:href="#mceb0f9e153" x="145.469874" y="143.593125" style="fill: #ffffff; stroke: #ffffff; stroke-width: 1.125"/>
    </g>
   </g>
   <g id="line2d_26">
    <path d="M 95.759402 178.243125 
L 220.31054 178.243125 
" clip-path="url(#p456c70af98)" style="fill: none; stroke: #3d3d3d; stroke-width: 1.875; stroke-linecap: square"/>
   </g>
   <g id="line2d_27">
    <path d="M 138.113416 178.243125 
L 171.197738 178.243125 
" clip-path="url(#p456c70af98)" style="fill: none; stroke: #3d3d3d; stroke-width: 5.625; stroke-linecap: square"/>
   </g>
   <g id="line2d_28">
    <path d="M 157.623311 178.243125 
" clip-path="url(#p456c70af98)" style="fill: none; stroke: #3d3d3d; stroke-width: 1.5; stroke-linecap: square"/>
    <g clip-path="url(#p456c70af98)">
     <use xlink:href="#mceb0f9e153" x="157.623311" y="178.243125" style="fill: #ffffff; stroke: #ffffff; stroke-width: 1.125"/>
    </g>
   </g>
   <g id="line2d_29">
    <path d="M 115.715916 212.893125 
L 244.39562 212.893125 
" clip-path="url(#p456c70af98)" style="fill: none; stroke: #3d3d3d; stroke-width: 1.875; stroke-linecap: square"/>
   </g>
   <g id="line2d_30">
    <path d="M 164.07845 212.893125 
L 196.589278 212.893125 
" clip-path="url(#p456c70af98)" style="fill: none; stroke: #3d3d3d; stroke-width: 5.625; stroke-linecap: square"/>
   </g>
   <g id="line2d_31">
    <path d="M 180.523754 212.893125 
" clip-path="url(#p456c70af98)" style="fill: none; stroke: #3d3d3d; stroke-width: 1.5; stroke-linecap: square"/>
    <g clip-path="url(#p456c70af98)">
     <use xlink:href="#mceb0f9e153" x="180.523754" y="212.893125" style="fill: #ffffff; stroke: #ffffff; stroke-width: 1.125"/>
    </g>
   </g>
   <g id="line2d_32">
    <path d="M 101.0758 247.543125 
L 185.173779 247.543125 
" clip-path="url(#p456c70af98)" style="fill: none; stroke: #3d3d3d; stroke-width: 1.875; stroke-linecap: square"/>
   </g>
   <g id="line2d_33">
    <path d="M 132.749266 247.543125 
L 154.920584 247.543125 
" clip-path="url(#p456c70af98)" style="fill: none; stroke: #3d3d3d; stroke-width: 5.625; stroke-linecap: square"/>
   </g>
   <g id="line2d_34">
    <path d="M 144.21737 247.543125 
" clip-path="url(#p456c70af98)" style="fill: none; stroke: #3d3d3d; stroke-width: 1.5; stroke-linecap: square"/>
    <g clip-path="url(#p456c70af98)">
     <use xlink:href="#mceb0f9e153" x="144.21737" y="247.543125" style="fill: #ffffff; stroke: #ffffff; stroke-width: 1.125"/>
    </g>
   </g>
   <g id="line2d_35">
    <path d="M 110.230084 282.193125 
L 181.744697 282.193125 
" clip-path="url(#p456c70af98)" style="fill: none; stroke: #3d3d3d; stroke-width: 1.875; stroke-linecap: square"/>
   </g>
   <g id="line2d_36">
    <path d="M 133.061153 282.193125 
L 158.441277 282.193125 
" clip-path="url(#p456c70af98)" style="fill: none; stroke: #3d3d3d; stroke-width: 5.625; stroke-linecap: square"/>
   </g>
   <g id="line2d_37">
    <path d="M 147.301933 282.193125 
" clip-path="url(#p456c70af98)" style="fill: none; stroke: #3d3d3d; stroke-width: 1.5; stroke-linecap: square"/>
    <g clip-path="url(#p456c70af98)">
     <use xlink:href="#mceb0f9e153" x="147.301933" y="282.193125" style="fill: #ffffff; stroke: #ffffff; stroke-width: 1.125"/>
    </g>
   </g>
   <g id="patch_3">
    <path d="M 58.993437 299.518125 
L 58.993437 22.318125 
" style="fill: none; stroke: #000000; stroke-width: 0.8; stroke-linejoin: miter; stroke-linecap: square"/>
   </g>
   <g id="patch_4">
    <path d="M 505.393438 299.518125 
L 505.393438 22.318125 
" style="fill: none; stroke: #000000; stroke-width: 0.8; stroke-linejoin: miter; stroke-linecap: square"/>
   </g>
   <g id="patch_5">
    <path d="M 58.993437 299.518125 
L 505.393438 299.518125 
" style="fill: none; stroke: #000000; stroke-width: 0.8; stroke-linejoin: miter; stroke-linecap: square"/>
   </g>
   <g id="patch_6">
    <path d="M 58.993437 22.318125 
L 505.393438 22.318125 
" style="fill: none; stroke: #000000; stroke-width: 0.8; stroke-linejoin: miter; stroke-linecap: square"/>
   </g>
   <g id="text_16">
    <!-- Distribution of GFR by Age_Group -->
    <g transform="translate(181.281875 16.318125) scale(0.12 -0.12)">
     <defs>
      <path id="DejaVuSans-44" d="M 1259 4147 
L 1259 519 
L 2022 519 
Q 2988 519 3436 956 
Q 3884 1394 3884 2338 
Q 3884 3275 3436 3711 
Q 2988 4147 2022 4147 
L 1259 4147 
z
M 628 4666 
L 1925 4666 
Q 3281 4666 3915 4102 
Q 4550 3538 4550 2338 
Q 4550 1131 3912 565 
Q 3275 0 1925 0 
L 628 0 
L 628 4666 
z
" transform="scale(0.015625)"/>
      <path id="DejaVuSans-69" d="M 603 3500 
L 1178 3500 
L 1178 0 
L 603 0 
L 603 3500 
z
M 603 4863 
L 1178 4863 
L 1178 4134 
L 603 4134 
L 603 4863 
z
" transform="scale(0.015625)"/>
      <path id="DejaVuSans-73" d="M 2834 3397 
L 2834 2853 
Q 2591 2978 2328 3040 
Q 2066 3103 1784 3103 
Q 1356 3103 1142 2972 
Q 928 2841 928 2578 
Q 928 2378 1081 2264 
Q 1234 2150 1697 2047 
L 1894 2003 
Q 2506 1872 2764 1633 
Q 3022 1394 3022 966 
Q 3022 478 2636 193 
Q 2250 -91 1575 -91 
Q 1294 -91 989 -36 
Q 684 19 347 128 
L 347 722 
Q 666 556 975 473 
Q 1284 391 1588 391 
Q 1994 391 2212 530 
Q 2431 669 2431 922 
Q 2431 1156 2273 1281 
Q 2116 1406 1581 1522 
L 1381 1569 
Q 847 1681 609 1914 
Q 372 2147 372 2553 
Q 372 3047 722 3315 
Q 1072 3584 1716 3584 
Q 2034 3584 2315 3537 
Q 2597 3491 2834 3397 
z
" transform="scale(0.015625)"/>
      <path id="DejaVuSans-74" d="M 1172 4494 
L 1172 3500 
L 2356 3500 
L 2356 3053 
L 1172 3053 
L 1172 1153 
Q 1172 725 1289 603 
Q 1406 481 1766 481 
L 2356 481 
L 2356 0 
L 1766 0 
Q 1100 0 847 248 
Q 594 497 594 1153 
L 594 3053 
L 172 3053 
L 172 3500 
L 594 3500 
L 594 4494 
L 1172 4494 
z
" transform="scale(0.015625)"/>
      <path id="DejaVuSans-62" d="M 3116 1747 
Q 3116 2381 2855 2742 
Q 2594 3103 2138 3103 
Q 1681 3103 1420 2742 
Q 1159 2381 1159 1747 
Q 1159 1113 1420 752 
Q 1681 391 2138 391 
Q 2594 391 2855 752 
Q 3116 1113 3116 1747 
z
M 1159 2969 
Q 1341 3281 1617 3432 
Q 1894 3584 2278 3584 
Q 2916 3584 3314 3078 
Q 3713 2572 3713 1747 
Q 3713 922 3314 415 
Q 2916 -91 2278 -91 
Q 1894 -91 1617 61 
Q 1341 213 1159 525 
L 1159 0 
L 581 0 
L 581 4863 
L 1159 4863 
L 1159 2969 
z
" transform="scale(0.015625)"/>
      <path id="DejaVuSans-6e" d="M 3513 2113 
L 3513 0 
L 2938 0 
L 2938 2094 
Q 2938 2591 2744 2837 
Q 2550 3084 2163 3084 
Q 1697 3084 1428 2787 
Q 1159 2491 1159 1978 
L 1159 0 
L 581 0 
L 581 3500 
L 1159 3500 
L 1159 2956 
Q 1366 3272 1645 3428 
Q 1925 3584 2291 3584 
Q 2894 3584 3203 3211 
Q 3513 2838 3513 2113 
z
" transform="scale(0.015625)"/>
      <path id="DejaVuSans-20" transform="scale(0.015625)"/>
      <path id="DejaVuSans-66" d="M 2375 4863 
L 2375 4384 
L 1825 4384 
Q 1516 4384 1395 4259 
Q 1275 4134 1275 3809 
L 1275 3500 
L 2222 3500 
L 2222 3053 
L 1275 3053 
L 1275 0 
L 697 0 
L 697 3053 
L 147 3053 
L 147 3500 
L 697 3500 
L 697 3744 
Q 697 4328 969 4595 
Q 1241 4863 1831 4863 
L 2375 4863 
z
" transform="scale(0.015625)"/>
      <path id="DejaVuSans-79" d="M 2059 -325 
Q 1816 -950 1584 -1140 
Q 1353 -1331 966 -1331 
L 506 -1331 
L 506 -850 
L 844 -850 
Q 1081 -850 1212 -737 
Q 1344 -625 1503 -206 
L 1606 56 
L 191 3500 
L 800 3500 
L 1894 763 
L 2988 3500 
L 3597 3500 
L 2059 -325 
z
" transform="scale(0.015625)"/>
     </defs>
     <use xlink:href="#DejaVuSans-44"/>
     <use xlink:href="#DejaVuSans-69" x="77.001953"/>
     <use xlink:href="#DejaVuSans-73" x="104.785156"/>
     <use xlink:href="#DejaVuSans-74" x="156.884766"/>
     <use xlink:href="#DejaVuSans-72" x="196.09375"/>
     <use xlink:href="#DejaVuSans-69" x="237.207031"/>
     <use xlink:href="#DejaVuSans-62" x="264.990234"/>
     <use xlink:href="#DejaVuSans-75" x="328.466797"/>
     <use xlink:href="#DejaVuSans-74" x="391.845703"/>
     <use xlink:href="#DejaVuSans-69" x="431.054688"/>
     <use xlink:href="#DejaVuSans-6f" x="458.837891"/>
     <use xlink:href="#DejaVuSans-6e" x="520.019531"/>
     <use xlink:href="#DejaVuSans-20" x="583.398438"/>
     <use xlink:href="#DejaVuSans-6f" x="615.185547"/>
     <use xlink:href="#DejaVuSans-66" x="676.367188"/>
     <use xlink:href="#DejaVuSans-20" x="711.572266"/>
     <use xlink:href="#DejaVuSans-47" x="743.359375"/>
     <use xlink:href="#DejaVuSans-46" x="820.849609"/>
     <use xlink:href="#DejaVuSans-52" x="878.369141"/>
     <use xlink:href="#DejaVuSans-20" x="947.851562"/>
     <use xlink:href="#DejaVuSans-62" x="979.638672"/>
     <use xlink:href="#DejaVuSans-79" x="1043.115234"/>
     <use xlink:href="#DejaVuSans-20" x="1102.294922"/>
     <use xlink:href="#DejaVuSans-41" x="1134.082031"/>
     <use xlink:href="#DejaVuSans-67" x="1202.490234"/>
     <use xlink:href="#DejaVuSans-65" x="1265.966797"/>
     <use xlink:href="#DejaVuSans-5f" x="1327.490234"/>
     <use xlink:href="#DejaVuSans-47" x="1377.490234"/>
     <use xlink:href="#DejaVuSans-72" x="1454.980469"/>
     <use xlink:href="#DejaVuSans-6f" x="1493.84375"/>
     <use xlink:href="#DejaVuSans-75" x="1555.025391"/>
     <use xlink:href="#DejaVuSans-70" x="1618.404297"/>
    </g>
   </g>
  </g>
 </g>
 <defs>
  <clipPath id="p456c70af98">
   <rect x="58.993437" y="22.318125" width="446.4" height="277.2"/>
  </clipPath>
 </defs>
</svg>
