<?xml version="1.0" encoding="utf-8" standalone="no"?>
<!DOCTYPE svg PUBLIC "-//W3C//DTD SVG 1.1//EN"
  "http://www.w3.org/Graphics/SVG/1.1/DTD/svg11.dtd">
<svg xmlns:xlink="http://www.w3.org/1999/xlink" width="856.58625pt" height="423.034375pt" viewBox="0 0 856.58625 423.034375" xmlns="http://www.w3.org/2000/svg" version="1.1">
 <metadata>
  <rdf:RDF xmlns:dc="http://purl.org/dc/elements/1.1/" xmlns:cc="http://creativecommons.org/ns#" xmlns:rdf="http://www.w3.org/1999/02/22-rdf-syntax-ns#">
   <cc:Work>
    <dc:type rdf:resource="http://purl.org/dc/dcmitype/StillImage"/>
    <dc:date>2024-07-14T14:29:50.200088</dc:date>
    <dc:format>image/svg+xml</dc:format>
    <dc:creator>
     <cc:Agent>
      <dc:title>Matplotlib v3.9.0, https://matplotlib.org/</dc:title>
     </cc:Agent>
    </dc:creator>
   </cc:Work>
  </rdf:RDF>
 </metadata>
 <defs>
  <style type="text/css">*{stroke-linejoin: round; stroke-linecap: butt}</style>
 </defs>
 <g id="figure_1">
  <g id="patch_1">
   <path d="M 0 423.034375 
L 856.58625 423.034375 
L 856.58625 0 
L 0 0 
z
" style="fill: #ffffff"/>
  </g>
  <g id="axes_1">
   <g id="patch_2">
    <path d="M 56.50625 385.478125 
L 849.38625 385.478125 
L 849.38625 22.318125 
L 56.50625 22.318125 
z
" style="fill: #ffffff"/>
   </g>
   <g id="PolyCollection_1">
    <defs>
     <path id="ma23d9dfa49" d="M 92.54625 -37.605124 
L 92.54625 -37.55625 
L 96.168361 -37.55625 
L 99.790471 -37.55625 
L 103.412582 -37.55625 
L 107.034692 -37.55625 
L 110.656803 -37.55625 
L 114.278913 -37.55625 
L 117.901024 -37.55625 
L 121.523134 -37.55625 
L 125.145245 -37.55625 
L 128.767356 -37.55625 
L 132.389466 -37.55625 
L 136.011577 -37.55625 
L 139.633687 -37.55625 
L 143.255798 -37.55625 
L 146.877908 -37.55625 
L 150.500019 -37.55625 
L 154.122129 -37.55625 
L 157.74424 -37.55625 
L 161.366351 -37.55625 
L 164.988461 -37.55625 
L 168.610572 -37.55625 
L 172.232682 -37.55625 
L 175.854793 -37.55625 
L 179.476903 -37.55625 
L 183.099014 -37.55625 
L 186.721124 -37.55625 
L 190.343235 -37.55625 
L 193.965345 -37.55625 
L 197.587456 -37.55625 
L 201.209567 -37.55625 
L 204.831677 -37.55625 
L 208.453788 -37.55625 
L 212.075898 -37.55625 
L 215.698009 -37.55625 
L 219.320119 -37.55625 
L 222.94223 -37.55625 
L 226.56434 -37.55625 
L 230.186451 -37.55625 
L 233.808562 -37.55625 
L 237.430672 -37.55625 
L 241.052783 -37.55625 
L 244.674893 -37.55625 
L 248.297004 -37.55625 
L 251.919114 -37.55625 
L 255.541225 -37.55625 
L 259.163335 -37.55625 
L 262.785446 -37.55625 
L 266.407557 -37.55625 
L 270.029667 -37.55625 
L 273.651778 -37.55625 
L 277.273888 -37.55625 
L 280.895999 -37.55625 
L 284.518109 -37.55625 
L 288.14022 -37.55625 
L 291.76233 -37.55625 
L 295.384441 -37.55625 
L 299.006552 -37.55625 
L 302.628662 -37.55625 
L 306.250773 -37.55625 
L 309.872883 -37.55625 
L 313.494994 -37.55625 
L 317.117104 -37.55625 
L 320.739215 -37.55625 
L 324.361325 -37.55625 
L 327.983436 -37.55625 
L 331.605546 -37.55625 
L 335.227657 -37.55625 
L 338.849768 -37.55625 
L 342.471878 -37.55625 
L 346.093989 -37.55625 
L 349.716099 -37.55625 
L 353.33821 -37.55625 
L 356.96032 -37.55625 
L 360.582431 -37.55625 
L 364.204541 -37.55625 
L 367.826652 -37.55625 
L 371.448763 -37.55625 
L 375.070873 -37.55625 
L 378.692984 -37.55625 
L 382.315094 -37.55625 
L 385.937205 -37.55625 
L 389.559315 -37.55625 
L 393.181426 -37.55625 
L 396.803536 -37.55625 
L 400.425647 -37.55625 
L 404.047758 -37.55625 
L 407.669868 -37.55625 
L 411.291979 -37.55625 
L 414.914089 -37.55625 
L 418.5362 -37.55625 
L 422.15831 -37.55625 
L 425.780421 -37.55625 
L 429.402531 -37.55625 
L 433.024642 -37.55625 
L 436.646753 -37.55625 
L 440.268863 -37.55625 
L 443.890974 -37.55625 
L 447.513084 -37.55625 
L 451.135195 -37.55625 
L 454.757305 -37.55625 
L 458.379416 -37.55625 
L 462.001526 -37.55625 
L 465.623637 -37.55625 
L 469.245747 -37.55625 
L 472.867858 -37.55625 
L 476.489969 -37.55625 
L 480.112079 -37.55625 
L 483.73419 -37.55625 
L 487.3563 -37.55625 
L 490.978411 -37.55625 
L 494.600521 -37.55625 
L 498.222632 -37.55625 
L 501.844742 -37.55625 
L 505.466853 -37.55625 
L 509.088964 -37.55625 
L 512.711074 -37.55625 
L 516.333185 -37.55625 
L 519.955295 -37.55625 
L 523.577406 -37.55625 
L 527.199516 -37.55625 
L 530.821627 -37.55625 
L 534.443737 -37.55625 
L 538.065848 -37.55625 
L 541.687959 -37.55625 
L 545.310069 -37.55625 
L 548.93218 -37.55625 
L 552.55429 -37.55625 
L 556.176401 -37.55625 
L 559.798511 -37.55625 
L 563.420622 -37.55625 
L 567.042732 -37.55625 
L 570.664843 -37.55625 
L 574.286954 -37.55625 
L 577.909064 -37.55625 
L 581.531175 -37.55625 
L 585.153285 -37.55625 
L 588.775396 -37.55625 
L 592.397506 -37.55625 
L 596.019617 -37.55625 
L 599.641727 -37.55625 
L 603.263838 -37.55625 
L 606.885948 -37.55625 
L 610.508059 -37.55625 
L 614.13017 -37.55625 
L 617.75228 -37.55625 
L 621.374391 -37.55625 
L 624.996501 -37.55625 
L 628.618612 -37.55625 
L 632.240722 -37.55625 
L 635.862833 -37.55625 
L 639.484943 -37.55625 
L 643.107054 -37.55625 
L 646.729165 -37.55625 
L 650.351275 -37.55625 
L 653.973386 -37.55625 
L 657.595496 -37.55625 
L 661.217607 -37.55625 
L 664.839717 -37.55625 
L 668.461828 -37.55625 
L 672.083938 -37.55625 
L 675.706049 -37.55625 
L 679.32816 -37.55625 
L 682.95027 -37.55625 
L 686.572381 -37.55625 
L 690.194491 -37.55625 
L 693.816602 -37.55625 
L 697.438712 -37.55625 
L 701.060823 -37.55625 
L 704.682933 -37.55625 
L 708.305044 -37.55625 
L 711.927155 -37.55625 
L 715.549265 -37.55625 
L 719.171376 -37.55625 
L 722.793486 -37.55625 
L 726.415597 -37.55625 
L 730.037707 -37.55625 
L 733.659818 -37.55625 
L 737.281928 -37.55625 
L 740.904039 -37.55625 
L 744.526149 -37.55625 
L 748.14826 -37.55625 
L 751.770371 -37.55625 
L 755.392481 -37.55625 
L 759.014592 -37.55625 
L 762.636702 -37.55625 
L 766.258813 -37.55625 
L 769.880923 -37.55625 
L 773.503034 -37.55625 
L 777.125144 -37.55625 
L 780.747255 -37.55625 
L 784.369366 -37.55625 
L 787.991476 -37.55625 
L 791.613587 -37.55625 
L 795.235697 -37.55625 
L 798.857808 -37.55625 
L 802.479918 -37.55625 
L 806.102029 -37.55625 
L 809.724139 -37.55625 
L 813.34625 -37.55625 
L 813.34625 -37.559637 
L 813.34625 -37.559637 
L 809.724139 -37.562169 
L 806.102029 -37.566271 
L 802.479918 -37.572698 
L 798.857808 -37.582439 
L 795.235697 -37.59673 
L 791.613587 -37.617047 
L 787.991476 -37.645064 
L 784.369366 -37.682599 
L 780.747255 -37.731537 
L 777.125144 -37.793776 
L 773.503034 -37.871206 
L 769.880923 -37.965754 
L 766.258813 -38.079521 
L 762.636702 -38.215022 
L 759.014592 -38.375516 
L 755.392481 -38.565396 
L 751.770371 -38.790597 
L 748.14826 -39.058957 
L 744.526149 -39.380461 
L 740.904039 -39.767326 
L 737.281928 -40.233906 
L 733.659818 -40.79642 
L 730.037707 -41.472587 
L 726.415597 -42.281204 
L 722.793486 -43.241771 
L 719.171376 -44.374157 
L 715.549265 -45.698289 
L 711.927155 -47.233763 
L 708.305044 -48.999294 
L 704.682933 -51.01194 
L 701.060823 -53.286185 
L 697.438712 -55.833053 
L 693.816602 -58.659556 
L 690.194491 -61.768724 
L 686.572381 -65.160409 
L 682.95027 -68.832791 
L 679.32816 -72.784319 
L 675.706049 -77.015694 
L 672.083938 -81.531452 
L 668.461828 -86.340893 
L 664.839717 -91.458296 
L 661.217607 -96.902608 
L 657.595496 -102.696866 
L 653.973386 -108.867581 
L 650.351275 -115.44412 
L 646.729165 -122.45789 
L 643.107054 -129.941007 
L 639.484943 -137.924104 
L 635.862833 -146.43314 
L 632.240722 -155.485338 
L 628.618612 -165.084707 
L 624.996501 -175.217852 
L 621.374391 -185.850872 
L 617.75228 -196.928096 
L 614.13017 -208.373138 
L 610.508059 -220.092376 
L 606.885948 -231.980455 
L 603.263838 -243.926935 
L 599.641727 -255.822885 
L 596.019617 -267.566132 
L 592.397506 -279.064195 
L 588.775396 -290.234551 
L 585.153285 -301.002697 
L 581.531175 -311.299161 
L 577.909064 -321.057016 
L 574.286954 -330.211262 
L 570.664843 -338.700776 
L 567.042732 -346.472562 
L 563.420622 -353.487053 
L 559.798511 -359.722676 
L 556.176401 -365.17785 
L 552.55429 -369.869253 
L 548.93218 -373.826175 
L 545.310069 -377.081961 
L 541.687959 -379.664456 
L 538.065848 -381.58782 
L 534.443737 -382.847935 
L 530.821627 -383.422917 
L 527.199516 -383.279127 
L 523.577406 -382.381778 
L 519.955295 -380.708067 
L 516.333185 -378.259963 
L 512.711074 -375.073651 
L 509.088964 -371.223162 
L 505.466853 -366.816953 
L 501.844742 -361.987811 
L 498.222632 -356.878044 
L 494.600521 -351.623091 
L 490.978411 -346.337032 
L 487.3563 -341.102976 
L 483.73419 -335.969991 
L 480.112079 -330.956577 
L 476.489969 -326.059126 
L 472.867858 -321.262737 
L 469.245747 -316.551489 
L 465.623637 -311.91574 
L 462.001526 -307.355113 
L 458.379416 -302.877033 
L 454.757305 -298.491863 
L 451.135195 -294.20639 
L 447.513084 -290.017629 
L 443.890974 -285.908656 
L 440.268863 -281.84756 
L 436.646753 -277.789811 
L 433.024642 -273.683537 
L 429.402531 -269.476573 
L 425.780421 -265.123774 
L 422.15831 -260.593086 
L 418.5362 -255.869248 
L 414.914089 -250.954654 
L 411.291979 -245.867711 
L 407.669868 -240.639664 
L 404.047758 -235.311166 
L 400.425647 -229.929681 
L 396.803536 -224.548187 
L 393.181426 -219.224854 
L 389.559315 -214.022701 
L 385.937205 -209.007989 
L 382.315094 -204.246415 
L 378.692984 -199.79692 
L 375.070873 -195.703888 
L 371.448763 -191.989265 
L 367.826652 -188.6465 
L 364.204541 -185.637975 
L 360.582431 -182.896912 
L 356.96032 -180.333797 
L 353.33821 -177.846414 
L 349.716099 -175.331907 
L 346.093989 -172.698971 
L 342.471878 -169.878375 
L 338.849768 -166.830393 
L 335.227657 -163.548339 
L 331.605546 -160.057994 
L 327.983436 -156.41332 
L 324.361325 -152.689256 
L 320.739215 -148.972663 
L 317.117104 -145.352575 
L 313.494994 -141.910807 
L 309.872883 -138.713844 
L 306.250773 -135.806639 
L 302.628662 -133.208788 
L 299.006552 -130.913316 
L 295.384441 -128.888167 
L 291.76233 -127.080352 
L 288.14022 -125.42247 
L 284.518109 -123.841071 
L 280.895999 -122.265918 
L 277.273888 -120.638923 
L 273.651778 -118.921324 
L 270.029667 -117.09778 
L 266.407557 -115.176525 
L 262.785446 -113.185432 
L 259.163335 -111.164712 
L 255.541225 -109.157713 
L 251.919114 -107.201704 
L 248.297004 -105.320501 
L 244.674893 -103.520304 
L 241.052783 -101.789329 
L 237.430672 -100.100947 
L 233.808562 -98.419329 
L 230.186451 -96.706189 
L 226.56434 -94.927238 
L 222.94223 -93.05726 
L 219.320119 -91.083255 
L 215.698009 -89.00558 
L 212.075898 -86.837386 
L 208.453788 -84.602765 
L 204.831677 -82.333964 
L 201.209567 -80.067865 
L 197.587456 -77.841825 
L 193.965345 -75.689039 
L 190.343235 -73.633779 
L 186.721124 -71.687152 
L 183.099014 -69.844266 
L 179.476903 -68.083668 
L 175.854793 -66.369682 
L 172.232682 -64.657676 
L 168.610572 -62.901621 
L 164.988461 -61.062656 
L 161.366351 -59.116991 
L 157.74424 -57.061507 
L 154.122129 -54.91583 
L 150.500019 -52.720419 
L 146.877908 -50.531073 
L 143.255798 -48.411002 
L 139.633687 -46.422077 
L 136.011577 -44.616912 
L 132.389466 -43.033101 
L 128.767356 -41.690351 
L 125.145245 -40.59057 
L 121.523134 -39.720399 
L 117.901024 -39.055293 
L 114.278913 -38.564181 
L 110.656803 -38.213837 
L 107.034692 -37.972371 
L 103.412582 -37.811571 
L 99.790471 -37.708104 
L 96.168361 -37.643774 
L 92.54625 -37.605124 
z
" style="stroke: #1f77b4"/>
    </defs>
    <g clip-path="url(#p3aa182c600)">
     <use xlink:href="#ma23d9dfa49" x="0" y="423.034375" style="fill: #1f77b4; fill-opacity: 0.25; stroke: #1f77b4"/>
    </g>
   </g>
   <g id="matplotlib.axis_1">
    <g id="xtick_1">
     <g id="line2d_1">
      <defs>
       <path id="mc861e499df" d="M 0 0 
L 0 3.5 
" style="stroke: #000000; stroke-width: 0.8"/>
      </defs>
      <g>
       <use xlink:href="#mc861e499df" x="166.198376" y="385.478125" style="stroke: #000000; stroke-width: 0.8"/>
      </g>
     </g>
     <g id="text_1">
      <!-- 20 -->
      <g transform="translate(159.835876 400.076562) scale(0.1 -0.1)">
       <defs>
        <path id="DejaVuSans-32" d="M 1228 531 
L 3431 531 
L 3431 0 
L 469 0 
L 469 531 
Q 828 903 1448 1529 
Q 2069 2156 2228 2338 
Q 2531 2678 2651 2914 
Q 2772 3150 2772 3378 
Q 2772 3750 2511 3984 
Q 2250 4219 1831 4219 
Q 1534 4219 1204 4116 
Q 875 4013 500 3803 
L 500 4441 
Q 881 4594 1212 4672 
Q 1544 4750 1819 4750 
Q 2544 4750 2975 4387 
Q 3406 4025 3406 3419 
Q 3406 3131 3298 2873 
Q 3191 2616 2906 2266 
Q 2828 2175 2409 1742 
Q 1991 1309 1228 531 
z
" transform="scale(0.015625)"/>
        <path id="DejaVuSans-30" d="M 2034 4250 
Q 1547 4250 1301 3770 
Q 1056 3291 1056 2328 
Q 1056 1369 1301 889 
Q 1547 409 2034 409 
Q 2525 409 2770 889 
Q 3016 1369 3016 2328 
Q 3016 3291 2770 3770 
Q 2525 4250 2034 4250 
z
M 2034 4750 
Q 2819 4750 3233 4129 
Q 3647 3509 3647 2328 
Q 3647 1150 3233 529 
Q 2819 -91 2034 -91 
Q 1250 -91 836 529 
Q 422 1150 422 2328 
Q 422 3509 836 4129 
Q 1250 4750 2034 4750 
z
" transform="scale(0.015625)"/>
       </defs>
       <use xlink:href="#DejaVuSans-32"/>
       <use xlink:href="#DejaVuSans-30" x="63.623047"/>
      </g>
     </g>
    </g>
    <g id="xtick_2">
     <g id="line2d_2">
      <g>
       <use xlink:href="#mc861e499df" x="319.130575" y="385.478125" style="stroke: #000000; stroke-width: 0.8"/>
      </g>
     </g>
     <g id="text_2">
      <!-- 40 -->
      <g transform="translate(312.768075 400.076562) scale(0.1 -0.1)">
       <defs>
        <path id="DejaVuSans-34" d="M 2419 4116 
L 825 1625 
L 2419 1625 
L 2419 4116 
z
M 2253 4666 
L 3047 4666 
L 3047 1625 
L 3713 1625 
L 3713 1100 
L 3047 1100 
L 3047 0 
L 2419 0 
L 2419 1100 
L 313 1100 
L 313 1709 
L 2253 4666 
z
" transform="scale(0.015625)"/>
       </defs>
       <use xlink:href="#DejaVuSans-34"/>
       <use xlink:href="#DejaVuSans-30" x="63.623047"/>
      </g>
     </g>
    </g>
    <g id="xtick_3">
     <g id="line2d_3">
      <g>
       <use xlink:href="#mc861e499df" x="472.062775" y="385.478125" style="stroke: #000000; stroke-width: 0.8"/>
      </g>
     </g>
     <g id="text_3">
      <!-- 60 -->
      <g transform="translate(465.700275 400.076562) scale(0.1 -0.1)">
       <defs>
        <path id="DejaVuSans-36" d="M 2113 2584 
Q 1688 2584 1439 2293 
Q 1191 2003 1191 1497 
Q 1191 994 1439 701 
Q 1688 409 2113 409 
Q 2538 409 2786 701 
Q 3034 994 3034 1497 
Q 3034 2003 2786 2293 
Q 2538 2584 2113 2584 
z
M 3366 4563 
L 3366 3988 
Q 3128 4100 2886 4159 
Q 2644 4219 2406 4219 
Q 1781 4219 1451 3797 
Q 1122 3375 1075 2522 
Q 1259 2794 1537 2939 
Q 1816 3084 2150 3084 
Q 2853 3084 3261 2657 
Q 3669 2231 3669 1497 
Q 3669 778 3244 343 
Q 2819 -91 2113 -91 
Q 1303 -91 875 529 
Q 447 1150 447 2328 
Q 447 3434 972 4092 
Q 1497 4750 2381 4750 
Q 2619 4750 2861 4703 
Q 3103 4656 3366 4563 
z
" transform="scale(0.015625)"/>
       </defs>
       <use xlink:href="#DejaVuSans-36"/>
       <use xlink:href="#DejaVuSans-30" x="63.623047"/>
      </g>
     </g>
    </g>
    <g id="xtick_4">
     <g id="line2d_4">
      <g>
       <use xlink:href="#mc861e499df" x="624.994974" y="385.478125" style="stroke: #000000; stroke-width: 0.8"/>
      </g>
     </g>
     <g id="text_4">
      <!-- 80 -->
      <g transform="translate(618.632474 400.076562) scale(0.1 -0.1)">
       <defs>
        <path id="DejaVuSans-38" d="M 2034 2216 
Q 1584 2216 1326 1975 
Q 1069 1734 1069 1313 
Q 1069 891 1326 650 
Q 1584 409 2034 409 
Q 2484 409 2743 651 
Q 3003 894 3003 1313 
Q 3003 1734 2745 1975 
Q 2488 2216 2034 2216 
z
M 1403 2484 
Q 997 2584 770 2862 
Q 544 3141 544 3541 
Q 544 4100 942 4425 
Q 1341 4750 2034 4750 
Q 2731 4750 3128 4425 
Q 3525 4100 3525 3541 
Q 3525 3141 3298 2862 
Q 3072 2584 2669 2484 
Q 3125 2378 3379 2068 
Q 3634 1759 3634 1313 
Q 3634 634 3220 271 
Q 2806 -91 2034 -91 
Q 1263 -91 848 271 
Q 434 634 434 1313 
Q 434 1759 690 2068 
Q 947 2378 1403 2484 
z
M 1172 3481 
Q 1172 3119 1398 2916 
Q 1625 2713 2034 2713 
Q 2441 2713 2670 2916 
Q 2900 3119 2900 3481 
Q 2900 3844 2670 4047 
Q 2441 4250 2034 4250 
Q 1625 4250 1398 4047 
Q 1172 3844 1172 3481 
z
" transform="scale(0.015625)"/>
       </defs>
       <use xlink:href="#DejaVuSans-38"/>
       <use xlink:href="#DejaVuSans-30" x="63.623047"/>
      </g>
     </g>
    </g>
    <g id="xtick_5">
     <g id="line2d_5">
      <g>
       <use xlink:href="#mc861e499df" x="777.927174" y="385.478125" style="stroke: #000000; stroke-width: 0.8"/>
      </g>
     </g>
     <g id="text_5">
      <!-- 100 -->
      <g transform="translate(768.383424 400.076562) scale(0.1 -0.1)">
       <defs>
        <path id="DejaVuSans-31" d="M 794 531 
L 1825 531 
L 1825 4091 
L 703 3866 
L 703 4441 
L 1819 4666 
L 2450 4666 
L 2450 531 
L 3481 531 
L 3481 0 
L 794 0 
L 794 531 
z
" transform="scale(0.015625)"/>
       </defs>
       <use xlink:href="#DejaVuSans-31"/>
       <use xlink:href="#DejaVuSans-30" x="63.623047"/>
       <use xlink:href="#DejaVuSans-30" x="127.246094"/>
      </g>
     </g>
    </g>
    <g id="text_6">
     <!-- Age -->
     <g transform="translate(443.275156 413.754687) scale(0.1 -0.1)">
      <defs>
       <path id="DejaVuSans-41" d="M 2188 4044 
L 1331 1722 
L 3047 1722 
L 2188 4044 
z
M 1831 4666 
L 2547 4666 
L 4325 0 
L 3669 0 
L 3244 1197 
L 1141 1197 
L 716 0 
L 50 0 
L 1831 4666 
z
" transform="scale(0.015625)"/>
       <path id="DejaVuSans-67" d="M 2906 1791 
Q 2906 2416 2648 2759 
Q 2391 3103 1925 3103 
Q 1463 3103 1205 2759 
Q 947 2416 947 1791 
Q 947 1169 1205 825 
Q 1463 481 1925 481 
Q 2391 481 2648 825 
Q 2906 1169 2906 1791 
z
M 3481 434 
Q 3481 -459 3084 -895 
Q 2688 -1331 1869 -1331 
Q 1566 -1331 1297 -1286 
Q 1028 -1241 775 -1147 
L 775 -588 
Q 1028 -725 1275 -790 
Q 1522 -856 1778 -856 
Q 2344 -856 2625 -561 
Q 2906 -266 2906 331 
L 2906 616 
Q 2728 306 2450 153 
Q 2172 0 1784 0 
Q 1141 0 747 490 
Q 353 981 353 1791 
Q 353 2603 747 3093 
Q 1141 3584 1784 3584 
Q 2172 3584 2450 3431 
Q 2728 3278 2906 2969 
L 2906 3500 
L 3481 3500 
L 3481 434 
z
" transform="scale(0.015625)"/>
       <path id="DejaVuSans-65" d="M 3597 1894 
L 3597 1613 
L 953 1613 
Q 991 1019 1311 708 
Q 1631 397 2203 397 
Q 2534 397 2845 478 
Q 3156 559 3463 722 
L 3463 178 
Q 3153 47 2828 -22 
Q 2503 -91 2169 -91 
Q 1331 -91 842 396 
Q 353 884 353 1716 
Q 353 2575 817 3079 
Q 1281 3584 2069 3584 
Q 2775 3584 3186 3129 
Q 3597 2675 3597 1894 
z
M 3022 2063 
Q 3016 2534 2758 2815 
Q 2500 3097 2075 3097 
Q 1594 3097 1305 2825 
Q 1016 2553 972 2059 
L 3022 2063 
z
" transform="scale(0.015625)"/>
      </defs>
      <use xlink:href="#DejaVuSans-41"/>
      <use xlink:href="#DejaVuSans-67" x="68.408203"/>
      <use xlink:href="#DejaVuSans-65" x="131.884766"/>
     </g>
    </g>
   </g>
   <g id="matplotlib.axis_2">
    <g id="ytick_1">
     <g id="line2d_6">
      <defs>
       <path id="m93d3428a46" d="M 0 0 
L -3.5 0 
" style="stroke: #000000; stroke-width: 0.8"/>
      </defs>
      <g>
       <use xlink:href="#m93d3428a46" x="56.50625" y="385.478125" style="stroke: #000000; stroke-width: 0.8"/>
      </g>
     </g>
     <g id="text_7">
      <!-- 0.000 -->
      <g transform="translate(20.878125 389.277344) scale(0.1 -0.1)">
       <defs>
        <path id="DejaVuSans-2e" d="M 684 794 
L 1344 794 
L 1344 0 
L 684 0 
L 684 794 
z
" transform="scale(0.015625)"/>
       </defs>
       <use xlink:href="#DejaVuSans-30"/>
       <use xlink:href="#DejaVuSans-2e" x="63.623047"/>
       <use xlink:href="#DejaVuSans-30" x="95.410156"/>
       <use xlink:href="#DejaVuSans-30" x="159.033203"/>
       <use xlink:href="#DejaVuSans-30" x="222.65625"/>
      </g>
     </g>
    </g>
    <g id="ytick_2">
     <g id="line2d_7">
      <g>
       <use xlink:href="#m93d3428a46" x="56.50625" y="327.422689" style="stroke: #000000; stroke-width: 0.8"/>
      </g>
     </g>
     <g id="text_8">
      <!-- 0.005 -->
      <g transform="translate(20.878125 331.221907) scale(0.1 -0.1)">
       <defs>
        <path id="DejaVuSans-35" d="M 691 4666 
L 3169 4666 
L 3169 4134 
L 1269 4134 
L 1269 2991 
Q 1406 3038 1543 3061 
Q 1681 3084 1819 3084 
Q 2600 3084 3056 2656 
Q 3513 2228 3513 1497 
Q 3513 744 3044 326 
Q 2575 -91 1722 -91 
Q 1428 -91 1123 -41 
Q 819 9 494 109 
L 494 744 
Q 775 591 1075 516 
Q 1375 441 1709 441 
Q 2250 441 2565 725 
Q 2881 1009 2881 1497 
Q 2881 1984 2565 2268 
Q 2250 2553 1709 2553 
Q 1456 2553 1204 2497 
Q 953 2441 691 2322 
L 691 4666 
z
" transform="scale(0.015625)"/>
       </defs>
       <use xlink:href="#DejaVuSans-30"/>
       <use xlink:href="#DejaVuSans-2e" x="63.623047"/>
       <use xlink:href="#DejaVuSans-30" x="95.410156"/>
       <use xlink:href="#DejaVuSans-30" x="159.033203"/>
       <use xlink:href="#DejaVuSans-35" x="222.65625"/>
      </g>
     </g>
    </g>
    <g id="ytick_3">
     <g id="line2d_8">
      <g>
       <use xlink:href="#m93d3428a46" x="56.50625" y="269.367252" style="stroke: #000000; stroke-width: 0.8"/>
      </g>
     </g>
     <g id="text_9">
      <!-- 0.010 -->
      <g transform="translate(20.878125 273.166471) scale(0.1 -0.1)">
       <use xlink:href="#DejaVuSans-30"/>
       <use xlink:href="#DejaVuSans-2e" x="63.623047"/>
       <use xlink:href="#DejaVuSans-30" x="95.410156"/>
       <use xlink:href="#DejaVuSans-31" x="159.033203"/>
       <use xlink:href="#DejaVuSans-30" x="222.65625"/>
      </g>
     </g>
    </g>
    <g id="ytick_4">
     <g id="line2d_9">
      <g>
       <use xlink:href="#m93d3428a46" x="56.50625" y="211.311816" style="stroke: #000000; stroke-width: 0.8"/>
      </g>
     </g>
     <g id="text_10">
      <!-- 0.015 -->
      <g transform="translate(20.878125 215.111035) scale(0.1 -0.1)">
       <use xlink:href="#DejaVuSans-30"/>
       <use xlink:href="#DejaVuSans-2e" x="63.623047"/>
       <use xlink:href="#DejaVuSans-30" x="95.410156"/>
       <use xlink:href="#DejaVuSans-31" x="159.033203"/>
       <use xlink:href="#DejaVuSans-35" x="222.65625"/>
      </g>
     </g>
    </g>
    <g id="ytick_5">
     <g id="line2d_10">
      <g>
       <use xlink:href="#m93d3428a46" x="56.50625" y="153.25638" style="stroke: #000000; stroke-width: 0.8"/>
      </g>
     </g>
     <g id="text_11">
      <!-- 0.020 -->
      <g transform="translate(20.878125 157.055599) scale(0.1 -0.1)">
       <use xlink:href="#DejaVuSans-30"/>
       <use xlink:href="#DejaVuSans-2e" x="63.623047"/>
       <use xlink:href="#DejaVuSans-30" x="95.410156"/>
       <use xlink:href="#DejaVuSans-32" x="159.033203"/>
       <use xlink:href="#DejaVuSans-30" x="222.65625"/>
      </g>
     </g>
    </g>
    <g id="ytick_6">
     <g id="line2d_11">
      <g>
       <use xlink:href="#m93d3428a46" x="56.50625" y="95.200943" style="stroke: #000000; stroke-width: 0.8"/>
      </g>
     </g>
     <g id="text_12">
      <!-- 0.025 -->
      <g transform="translate(20.878125 99.000162) scale(0.1 -0.1)">
       <use xlink:href="#DejaVuSans-30"/>
       <use xlink:href="#DejaVuSans-2e" x="63.623047"/>
       <use xlink:href="#DejaVuSans-30" x="95.410156"/>
       <use xlink:href="#DejaVuSans-32" x="159.033203"/>
       <use xlink:href="#DejaVuSans-35" x="222.65625"/>
      </g>
     </g>
    </g>
    <g id="ytick_7">
     <g id="line2d_12">
      <g>
       <use xlink:href="#m93d3428a46" x="56.50625" y="37.145507" style="stroke: #000000; stroke-width: 0.8"/>
      </g>
     </g>
     <g id="text_13">
      <!-- 0.030 -->
      <g transform="translate(20.878125 40.944726) scale(0.1 -0.1)">
       <defs>
        <path id="DejaVuSans-33" d="M 2597 2516 
Q 3050 2419 3304 2112 
Q 3559 1806 3559 1356 
Q 3559 666 3084 287 
Q 2609 -91 1734 -91 
Q 1441 -91 1130 -33 
Q 819 25 488 141 
L 488 750 
Q 750 597 1062 519 
Q 1375 441 1716 441 
Q 2309 441 2620 675 
Q 2931 909 2931 1356 
Q 2931 1769 2642 2001 
Q 2353 2234 1838 2234 
L 1294 2234 
L 1294 2753 
L 1863 2753 
Q 2328 2753 2575 2939 
Q 2822 3125 2822 3475 
Q 2822 3834 2567 4026 
Q 2313 4219 1838 4219 
Q 1578 4219 1281 4162 
Q 984 4106 628 3988 
L 628 4550 
Q 988 4650 1302 4700 
Q 1616 4750 1894 4750 
Q 2613 4750 3031 4423 
Q 3450 4097 3450 3541 
Q 3450 3153 3228 2886 
Q 3006 2619 2597 2516 
z
" transform="scale(0.015625)"/>
       </defs>
       <use xlink:href="#DejaVuSans-30"/>
       <use xlink:href="#DejaVuSans-2e" x="63.623047"/>
       <use xlink:href="#DejaVuSans-30" x="95.410156"/>
       <use xlink:href="#DejaVuSans-33" x="159.033203"/>
       <use xlink:href="#DejaVuSans-30" x="222.65625"/>
      </g>
     </g>
    </g>
    <g id="text_14">
     <!-- Density -->
     <g transform="translate(14.798438 222.906719) rotate(-90) scale(0.1 -0.1)">
      <defs>
       <path id="DejaVuSans-44" d="M 1259 4147 
L 1259 519 
L 2022 519 
Q 2988 519 3436 956 
Q 3884 1394 3884 2338 
Q 3884 3275 3436 3711 
Q 2988 4147 2022 4147 
L 1259 4147 
z
M 628 4666 
L 1925 4666 
Q 3281 4666 3915 4102 
Q 4550 3538 4550 2338 
Q 4550 1131 3912 565 
Q 3275 0 1925 0 
L 628 0 
L 628 4666 
z
" transform="scale(0.015625)"/>
       <path id="DejaVuSans-6e" d="M 3513 2113 
L 3513 0 
L 2938 0 
L 2938 2094 
Q 2938 2591 2744 2837 
Q 2550 3084 2163 3084 
Q 1697 3084 1428 2787 
Q 1159 2491 1159 1978 
L 1159 0 
L 581 0 
L 581 3500 
L 1159 3500 
L 1159 2956 
Q 1366 3272 1645 3428 
Q 1925 3584 2291 3584 
Q 2894 3584 3203 3211 
Q 3513 2838 3513 2113 
z
" transform="scale(0.015625)"/>
       <path id="DejaVuSans-73" d="M 2834 3397 
L 2834 2853 
Q 2591 2978 2328 3040 
Q 2066 3103 1784 3103 
Q 1356 3103 1142 2972 
Q 928 2841 928 2578 
Q 928 2378 1081 2264 
Q 1234 2150 1697 2047 
L 1894 2003 
Q 2506 1872 2764 1633 
Q 3022 1394 3022 966 
Q 3022 478 2636 193 
Q 2250 -91 1575 -91 
Q 1294 -91 989 -36 
Q 684 19 347 128 
L 347 722 
Q 666 556 975 473 
Q 1284 391 1588 391 
Q 1994 391 2212 530 
Q 2431 669 2431 922 
Q 2431 1156 2273 1281 
Q 2116 1406 1581 1522 
L 1381 1569 
Q 847 1681 609 1914 
Q 372 2147 372 2553 
Q 372 3047 722 3315 
Q 1072 3584 1716 3584 
Q 2034 3584 2315 3537 
Q 2597 3491 2834 3397 
z
" transform="scale(0.015625)"/>
       <path id="DejaVuSans-69" d="M 603 3500 
L 1178 3500 
L 1178 0 
L 603 0 
L 603 3500 
z
M 603 4863 
L 1178 4863 
L 1178 4134 
L 603 4134 
L 603 4863 
z
" transform="scale(0.015625)"/>
       <path id="DejaVuSans-74" d="M 1172 4494 
L 1172 3500 
L 2356 3500 
L 2356 3053 
L 1172 3053 
L 1172 1153 
Q 1172 725 1289 603 
Q 1406 481 1766 481 
L 2356 481 
L 2356 0 
L 1766 0 
Q 1100 0 847 248 
Q 594 497 594 1153 
L 594 3053 
L 172 3053 
L 172 3500 
L 594 3500 
L 594 4494 
L 1172 4494 
z
" transform="scale(0.015625)"/>
       <path id="DejaVuSans-79" d="M 2059 -325 
Q 1816 -950 1584 -1140 
Q 1353 -1331 966 -1331 
L 506 -1331 
L 506 -850 
L 844 -850 
Q 1081 -850 1212 -737 
Q 1344 -625 1503 -206 
L 1606 56 
L 191 3500 
L 800 3500 
L 1894 763 
L 2988 3500 
L 3597 3500 
L 2059 -325 
z
" transform="scale(0.015625)"/>
      </defs>
      <use xlink:href="#DejaVuSans-44"/>
      <use xlink:href="#DejaVuSans-65" x="77.001953"/>
      <use xlink:href="#DejaVuSans-6e" x="138.525391"/>
      <use xlink:href="#DejaVuSans-73" x="201.904297"/>
      <use xlink:href="#DejaVuSans-69" x="254.003906"/>
      <use xlink:href="#DejaVuSans-74" x="281.787109"/>
      <use xlink:href="#DejaVuSans-79" x="320.996094"/>
     </g>
    </g>
   </g>
   <g id="patch_3">
    <path d="M 56.50625 385.478125 
L 56.50625 22.318125 
" style="fill: none; stroke: #000000; stroke-width: 0.8; stroke-linejoin: miter; stroke-linecap: square"/>
   </g>
   <g id="patch_4">
    <path d="M 849.38625 385.478125 
L 849.38625 22.318125 
" style="fill: none; stroke: #000000; stroke-width: 0.8; stroke-linejoin: miter; stroke-linecap: square"/>
   </g>
   <g id="patch_5">
    <path d="M 56.50625 385.478125 
L 849.38625 385.478125 
" style="fill: none; stroke: #000000; stroke-width: 0.8; stroke-linejoin: miter; stroke-linecap: square"/>
   </g>
   <g id="patch_6">
    <path d="M 56.50625 22.318125 
L 849.38625 22.318125 
" style="fill: none; stroke: #000000; stroke-width: 0.8; stroke-linejoin: miter; stroke-linecap: square"/>
   </g>
   <g id="text_15">
    <!-- Distribution of Age -->
    <g transform="translate(396.74125 16.318125) scale(0.12 -0.12)">
     <defs>
      <path id="DejaVuSans-72" d="M 2631 2963 
Q 2534 3019 2420 3045 
Q 2306 3072 2169 3072 
Q 1681 3072 1420 2755 
Q 1159 2438 1159 1844 
L 1159 0 
L 581 0 
L 581 3500 
L 1159 3500 
L 1159 2956 
Q 1341 3275 1631 3429 
Q 1922 3584 2338 3584 
Q 2397 3584 2469 3576 
Q 2541 3569 2628 3553 
L 2631 2963 
z
" transform="scale(0.015625)"/>
      <path id="DejaVuSans-62" d="M 3116 1747 
Q 3116 2381 2855 2742 
Q 2594 3103 2138 3103 
Q 1681 3103 1420 2742 
Q 1159 2381 1159 1747 
Q 1159 1113 1420 752 
Q 1681 391 2138 391 
Q 2594 391 2855 752 
Q 3116 1113 3116 1747 
z
M 1159 2969 
Q 1341 3281 1617 3432 
Q 1894 3584 2278 3584 
Q 2916 3584 3314 3078 
Q 3713 2572 3713 1747 
Q 3713 922 3314 415 
Q 2916 -91 2278 -91 
Q 1894 -91 1617 61 
Q 1341 213 1159 525 
L 1159 0 
L 581 0 
L 581 4863 
L 1159 4863 
L 1159 2969 
z
" transform="scale(0.015625)"/>
      <path id="DejaVuSans-75" d="M 544 1381 
L 544 3500 
L 1119 3500 
L 1119 1403 
Q 1119 906 1312 657 
Q 1506 409 1894 409 
Q 2359 409 2629 706 
Q 2900 1003 2900 1516 
L 2900 3500 
L 3475 3500 
L 3475 0 
L 2900 0 
L 2900 538 
Q 2691 219 2414 64 
Q 2138 -91 1772 -91 
Q 1169 -91 856 284 
Q 544 659 544 1381 
z
M 1991 3584 
L 1991 3584 
z
" transform="scale(0.015625)"/>
      <path id="DejaVuSans-6f" d="M 1959 3097 
Q 1497 3097 1228 2736 
Q 959 2375 959 1747 
Q 959 1119 1226 758 
Q 1494 397 1959 397 
Q 2419 397 2687 759 
Q 2956 1122 2956 1747 
Q 2956 2369 2687 2733 
Q 2419 3097 1959 3097 
z
M 1959 3584 
Q 2709 3584 3137 3096 
Q 3566 2609 3566 1747 
Q 3566 888 3137 398 
Q 2709 -91 1959 -91 
Q 1206 -91 779 398 
Q 353 888 353 1747 
Q 353 2609 779 3096 
Q 1206 3584 1959 3584 
z
" transform="scale(0.015625)"/>
      <path id="DejaVuSans-20" transform="scale(0.015625)"/>
      <path id="DejaVuSans-66" d="M 2375 4863 
L 2375 4384 
L 1825 4384 
Q 1516 4384 1395 4259 
Q 1275 4134 1275 3809 
L 1275 3500 
L 2222 3500 
L 2222 3053 
L 1275 3053 
L 1275 0 
L 697 0 
L 697 3053 
L 147 3053 
L 147 3500 
L 697 3500 
L 697 3744 
Q 697 4328 969 4595 
Q 1241 4863 1831 4863 
L 2375 4863 
z
" transform="scale(0.015625)"/>
     </defs>
     <use xlink:href="#DejaVuSans-44"/>
     <use xlink:href="#DejaVuSans-69" x="77.001953"/>
     <use xlink:href="#DejaVuSans-73" x="104.785156"/>
     <use xlink:href="#DejaVuSans-74" x="156.884766"/>
     <use xlink:href="#DejaVuSans-72" x="196.09375"/>
     <use xlink:href="#DejaVuSans-69" x="237.207031"/>
     <use xlink:href="#DejaVuSans-62" x="264.990234"/>
     <use xlink:href="#DejaVuSans-75" x="328.466797"/>
     <use xlink:href="#DejaVuSans-74" x="391.845703"/>
     <use xlink:href="#DejaVuSans-69" x="431.054688"/>
     <use xlink:href="#DejaVuSans-6f" x="458.837891"/>
     <use xlink:href="#DejaVuSans-6e" x="520.019531"/>
     <use xlink:href="#DejaVuSans-20" x="583.398438"/>
     <use xlink:href="#DejaVuSans-6f" x="615.185547"/>
     <use xlink:href="#DejaVuSans-66" x="676.367188"/>
     <use xlink:href="#DejaVuSans-20" x="711.572266"/>
     <use xlink:href="#DejaVuSans-41" x="743.359375"/>
     <use xlink:href="#DejaVuSans-67" x="811.767578"/>
     <use xlink:href="#DejaVuSans-65" x="875.244141"/>
    </g>
   </g>
  </g>
 </g>
 <defs>
  <clipPath id="p3aa182c600">
   <rect x="56.50625" y="22.318125" width="792.88" height="363.16"/>
  </clipPath>
 </defs>
</svg>
