<?xml version="1.0" encoding="utf-8" standalone="no"?>
<!DOCTYPE svg PUBLIC "-//W3C//DTD SVG 1.1//EN"
  "http://www.w3.org/Graphics/SVG/1.1/DTD/svg11.dtd">
<svg xmlns:xlink="http://www.w3.org/1999/xlink" width="856.58625pt" height="423.034375pt" viewBox="0 0 856.58625 423.034375" xmlns="http://www.w3.org/2000/svg" version="1.1">
 <metadata>
  <rdf:RDF xmlns:dc="http://purl.org/dc/elements/1.1/" xmlns:cc="http://creativecommons.org/ns#" xmlns:rdf="http://www.w3.org/1999/02/22-rdf-syntax-ns#">
   <cc:Work>
    <dc:type rdf:resource="http://purl.org/dc/dcmitype/StillImage"/>
    <dc:date>2024-07-14T14:29:50.408638</dc:date>
    <dc:format>image/svg+xml</dc:format>
    <dc:creator>
     <cc:Agent>
      <dc:title>Matplotlib v3.9.0, https://matplotlib.org/</dc:title>
     </cc:Agent>
    </dc:creator>
   </cc:Work>
  </rdf:RDF>
 </metadata>
 <defs>
  <style type="text/css">*{stroke-linejoin: round; stroke-linecap: butt}</style>
 </defs>
 <g id="figure_1">
  <g id="patch_1">
   <path d="M 0 423.034375 
L 856.58625 423.034375 
L 856.58625 0 
L 0 0 
z
" style="fill: #ffffff"/>
  </g>
  <g id="axes_1">
   <g id="patch_2">
    <path d="M 56.50625 385.478125 
L 849.38625 385.478125 
L 849.38625 22.318125 
L 56.50625 22.318125 
z
" style="fill: #ffffff"/>
   </g>
   <g id="PolyCollection_1">
    <defs>
     <path id="m0a4fd89530" d="M 92.54625 -37.614803 
L 92.54625 -37.55625 
L 96.168361 -37.55625 
L 99.790471 -37.55625 
L 103.412582 -37.55625 
L 107.034692 -37.55625 
L 110.656803 -37.55625 
L 114.278913 -37.55625 
L 117.901024 -37.55625 
L 121.523134 -37.55625 
L 125.145245 -37.55625 
L 128.767356 -37.55625 
L 132.389466 -37.55625 
L 136.011577 -37.55625 
L 139.633687 -37.55625 
L 143.255798 -37.55625 
L 146.877908 -37.55625 
L 150.500019 -37.55625 
L 154.122129 -37.55625 
L 157.74424 -37.55625 
L 161.366351 -37.55625 
L 164.988461 -37.55625 
L 168.610572 -37.55625 
L 172.232682 -37.55625 
L 175.854793 -37.55625 
L 179.476903 -37.55625 
L 183.099014 -37.55625 
L 186.721124 -37.55625 
L 190.343235 -37.55625 
L 193.965345 -37.55625 
L 197.587456 -37.55625 
L 201.209567 -37.55625 
L 204.831677 -37.55625 
L 208.453788 -37.55625 
L 212.075898 -37.55625 
L 215.698009 -37.55625 
L 219.320119 -37.55625 
L 222.94223 -37.55625 
L 226.56434 -37.55625 
L 230.186451 -37.55625 
L 233.808562 -37.55625 
L 237.430672 -37.55625 
L 241.052783 -37.55625 
L 244.674893 -37.55625 
L 248.297004 -37.55625 
L 251.919114 -37.55625 
L 255.541225 -37.55625 
L 259.163335 -37.55625 
L 262.785446 -37.55625 
L 266.407557 -37.55625 
L 270.029667 -37.55625 
L 273.651778 -37.55625 
L 277.273888 -37.55625 
L 280.895999 -37.55625 
L 284.518109 -37.55625 
L 288.14022 -37.55625 
L 291.76233 -37.55625 
L 295.384441 -37.55625 
L 299.006552 -37.55625 
L 302.628662 -37.55625 
L 306.250773 -37.55625 
L 309.872883 -37.55625 
L 313.494994 -37.55625 
L 317.117104 -37.55625 
L 320.739215 -37.55625 
L 324.361325 -37.55625 
L 327.983436 -37.55625 
L 331.605546 -37.55625 
L 335.227657 -37.55625 
L 338.849768 -37.55625 
L 342.471878 -37.55625 
L 346.093989 -37.55625 
L 349.716099 -37.55625 
L 353.33821 -37.55625 
L 356.96032 -37.55625 
L 360.582431 -37.55625 
L 364.204541 -37.55625 
L 367.826652 -37.55625 
L 371.448763 -37.55625 
L 375.070873 -37.55625 
L 378.692984 -37.55625 
L 382.315094 -37.55625 
L 385.937205 -37.55625 
L 389.559315 -37.55625 
L 393.181426 -37.55625 
L 396.803536 -37.55625 
L 400.425647 -37.55625 
L 404.047758 -37.55625 
L 407.669868 -37.55625 
L 411.291979 -37.55625 
L 414.914089 -37.55625 
L 418.5362 -37.55625 
L 422.15831 -37.55625 
L 425.780421 -37.55625 
L 429.402531 -37.55625 
L 433.024642 -37.55625 
L 436.646753 -37.55625 
L 440.268863 -37.55625 
L 443.890974 -37.55625 
L 447.513084 -37.55625 
L 451.135195 -37.55625 
L 454.757305 -37.55625 
L 458.379416 -37.55625 
L 462.001526 -37.55625 
L 465.623637 -37.55625 
L 469.245747 -37.55625 
L 472.867858 -37.55625 
L 476.489969 -37.55625 
L 480.112079 -37.55625 
L 483.73419 -37.55625 
L 487.3563 -37.55625 
L 490.978411 -37.55625 
L 494.600521 -37.55625 
L 498.222632 -37.55625 
L 501.844742 -37.55625 
L 505.466853 -37.55625 
L 509.088964 -37.55625 
L 512.711074 -37.55625 
L 516.333185 -37.55625 
L 519.955295 -37.55625 
L 523.577406 -37.55625 
L 527.199516 -37.55625 
L 530.821627 -37.55625 
L 534.443737 -37.55625 
L 538.065848 -37.55625 
L 541.687959 -37.55625 
L 545.310069 -37.55625 
L 548.93218 -37.55625 
L 552.55429 -37.55625 
L 556.176401 -37.55625 
L 559.798511 -37.55625 
L 563.420622 -37.55625 
L 567.042732 -37.55625 
L 570.664843 -37.55625 
L 574.286954 -37.55625 
L 577.909064 -37.55625 
L 581.531175 -37.55625 
L 585.153285 -37.55625 
L 588.775396 -37.55625 
L 592.397506 -37.55625 
L 596.019617 -37.55625 
L 599.641727 -37.55625 
L 603.263838 -37.55625 
L 606.885948 -37.55625 
L 610.508059 -37.55625 
L 614.13017 -37.55625 
L 617.75228 -37.55625 
L 621.374391 -37.55625 
L 624.996501 -37.55625 
L 628.618612 -37.55625 
L 632.240722 -37.55625 
L 635.862833 -37.55625 
L 639.484943 -37.55625 
L 643.107054 -37.55625 
L 646.729165 -37.55625 
L 650.351275 -37.55625 
L 653.973386 -37.55625 
L 657.595496 -37.55625 
L 661.217607 -37.55625 
L 664.839717 -37.55625 
L 668.461828 -37.55625 
L 672.083938 -37.55625 
L 675.706049 -37.55625 
L 679.32816 -37.55625 
L 682.95027 -37.55625 
L 686.572381 -37.55625 
L 690.194491 -37.55625 
L 693.816602 -37.55625 
L 697.438712 -37.55625 
L 701.060823 -37.55625 
L 704.682933 -37.55625 
L 708.305044 -37.55625 
L 711.927155 -37.55625 
L 715.549265 -37.55625 
L 719.171376 -37.55625 
L 722.793486 -37.55625 
L 726.415597 -37.55625 
L 730.037707 -37.55625 
L 733.659818 -37.55625 
L 737.281928 -37.55625 
L 740.904039 -37.55625 
L 744.526149 -37.55625 
L 748.14826 -37.55625 
L 751.770371 -37.55625 
L 755.392481 -37.55625 
L 759.014592 -37.55625 
L 762.636702 -37.55625 
L 766.258813 -37.55625 
L 769.880923 -37.55625 
L 773.503034 -37.55625 
L 777.125144 -37.55625 
L 780.747255 -37.55625 
L 784.369366 -37.55625 
L 787.991476 -37.55625 
L 791.613587 -37.55625 
L 795.235697 -37.55625 
L 798.857808 -37.55625 
L 802.479918 -37.55625 
L 806.102029 -37.55625 
L 809.724139 -37.55625 
L 813.34625 -37.55625 
L 813.34625 -38.089965 
L 813.34625 -38.089965 
L 809.724139 -38.378984 
L 806.102029 -38.803874 
L 802.479918 -39.417544 
L 798.857808 -40.288284 
L 795.235697 -41.502035 
L 791.613587 -43.164085 
L 787.991476 -45.399799 
L 784.369366 -48.353912 
L 780.747255 -52.187927 
L 777.125144 -57.075225 
L 773.503034 -63.193648 
L 769.880923 -70.715535 
L 766.258813 -79.79551 
L 762.636702 -90.556645 
L 759.014592 -103.076007 
L 755.392481 -117.370872 
L 751.770371 -133.387101 
L 748.14826 -150.991225 
L 744.526149 -169.9676 
L 740.904039 -190.021655 
L 737.281928 -210.789695 
L 733.659818 -231.855023 
L 730.037707 -252.769433 
L 726.415597 -273.078426 
L 722.793486 -292.347961 
L 719.171376 -310.190295 
L 715.549265 -326.286436 
L 711.927155 -340.403078 
L 708.305044 -352.402475 
L 704.682933 -362.244487 
L 701.060823 -369.980946 
L 697.438712 -375.743279 
L 693.816602 -379.725062 
L 690.194491 -382.161583 
L 686.572381 -383.308678 
L 682.95027 -383.422917 
L 679.32816 -382.74487 
L 675.706049 -381.486585 
L 672.083938 -379.82379 
L 668.461828 -377.892705 
L 664.839717 -375.790899 
L 661.217607 -373.581222 
L 657.595496 -371.297769 
L 653.973386 -368.952801 
L 650.351275 -366.543727 
L 646.729165 -364.059464 
L 643.107054 -361.485742 
L 639.484943 -358.809161 
L 635.862833 -356.019959 
L 632.240722 -353.113585 
L 628.618612 -350.091246 
L 624.996501 -346.959587 
L 621.374391 -343.729737 
L 617.75228 -340.415893 
L 614.13017 -337.03367 
L 610.508059 -333.598422 
L 606.885948 -330.123744 
L 603.263838 -326.620344 
L 599.641727 -323.095424 
L 596.019617 -319.552664 
L 592.397506 -315.992814 
L 588.775396 -312.414814 
L 585.153285 -308.817301 
L 581.531175 -305.200323 
L 577.909064 -301.567 
L 574.286954 -297.924956 
L 570.664843 -294.287298 
L 567.042732 -290.673013 
L 563.420622 -287.106711 
L 559.798511 -283.617694 
L 556.176401 -280.238423 
L 552.55429 -277.002496 
L 548.93218 -273.942325 
L 545.310069 -271.086701 
L 541.687959 -268.4585 
L 538.065848 -266.072709 
L 534.443737 -263.934986 
L 530.821627 -262.040869 
L 527.199516 -260.375704 
L 523.577406 -258.915278 
L 519.955295 -257.627101 
L 516.333185 -256.472173 
L 512.711074 -255.407119 
L 509.088964 -254.386474 
L 505.466853 -253.364997 
L 501.844742 -252.299852 
L 498.222632 -251.152576 
L 494.600521 -249.890766 
L 490.978411 -248.489438 
L 487.3563 -246.932029 
L 483.73419 -245.211018 
L 480.112079 -243.328124 
L 476.489969 -241.294044 
L 472.867858 -239.127698 
L 469.245747 -236.854971 
L 465.623637 -234.50697 
L 462.001526 -232.117895 
L 458.379416 -229.722623 
L 454.757305 -227.354228 
L 451.135195 -225.041626 
L 447.513084 -222.807591 
L 443.890974 -220.667333 
L 440.268863 -218.6278 
L 436.646753 -216.687756 
L 433.024642 -214.838645 
L 429.402531 -213.066103 
L 425.780421 -211.35196 
L 422.15831 -209.676488 
L 418.5362 -208.02064 
L 414.914089 -206.368068 
L 411.291979 -204.706707 
L 407.669868 -203.029825 
L 404.047758 -201.336472 
L 400.425647 -199.631376 
L 396.803536 -197.924365 
L 393.181426 -196.229453 
L 389.559315 -194.563746 
L 385.937205 -192.946316 
L 382.315094 -191.397175 
L 378.692984 -189.936433 
L 375.070873 -188.583678 
L 371.448763 -187.357576 
L 367.826652 -186.275637 
L 364.204541 -185.354082 
L 360.582431 -184.607716 
L 356.96032 -184.049749 
L 353.33821 -183.691508 
L 349.716099 -183.54202 
L 346.093989 -183.607501 
L 342.471878 -183.890789 
L 338.849768 -184.390807 
L 335.227657 -185.102134 
L 331.605546 -186.014746 
L 327.983436 -187.113976 
L 324.361325 -188.3807 
L 320.739215 -189.791718 
L 317.117104 -191.320278 
L 313.494994 -192.936659 
L 309.872883 -194.608744 
L 306.250773 -196.302523 
L 302.628662 -197.982486 
L 299.006552 -199.611918 
L 295.384441 -201.153121 
L 291.76233 -202.567643 
L 288.14022 -203.816566 
L 284.518109 -204.860925 
L 280.895999 -205.662303 
L 277.273888 -206.183594 
L 273.651778 -206.389913 
L 270.029667 -206.24956 
L 266.407557 -205.734953 
L 262.785446 -204.823415 
L 259.163335 -203.497703 
L 255.541225 -201.746235 
L 251.919114 -199.562959 
L 248.297004 -196.946907 
L 244.674893 -193.901493 
L 241.052783 -190.433689 
L 237.430672 -186.553199 
L 233.808562 -182.271788 
L 230.186451 -177.602887 
L 226.56434 -172.561563 
L 222.94223 -167.164896 
L 219.320119 -161.432715 
L 215.698009 -155.388639 
L 212.075898 -149.061248 
L 208.453788 -142.485233 
L 204.831677 -135.702322 
L 201.209567 -128.761794 
L 197.587456 -121.72045 
L 193.965345 -114.641916 
L 190.343235 -107.595276 
L 186.721124 -100.653058 
L 183.099014 -93.888708 
L 179.476903 -87.373724 
L 175.854793 -81.174686 
L 172.232682 -75.350416 
L 168.610572 -69.949521 
L 164.988461 -65.008503 
L 161.366351 -60.55061 
L 157.74424 -56.585478 
L 154.122129 -53.109576 
L 150.500019 -50.107376 
L 146.877908 -47.553112 
L 143.255798 -45.412934 
L 139.633687 -43.647284 
L 136.011577 -42.213275 
L 132.389466 -41.066915 
L 128.767356 -40.165033 
L 125.145245 -39.466834 
L 121.523134 -38.935019 
L 117.901024 -38.536503 
L 114.278913 -38.242743 
L 110.656803 -38.029749 
L 107.034692 -37.877858 
L 103.412582 -37.771332 
L 99.790471 -37.697862 
L 96.168361 -37.648033 
L 92.54625 -37.614803 
z
" style="stroke: #1f77b4"/>
    </defs>
    <g clip-path="url(#p78f5832b57)">
     <use xlink:href="#m0a4fd89530" x="0" y="423.034375" style="fill: #1f77b4; fill-opacity: 0.25; stroke: #1f77b4"/>
    </g>
   </g>
   <g id="matplotlib.axis_1">
    <g id="xtick_1">
     <g id="line2d_1">
      <defs>
       <path id="mcb4f4dd6c7" d="M 0 0 
L 0 3.5 
" style="stroke: #000000; stroke-width: 0.8"/>
      </defs>
      <g>
       <use xlink:href="#mcb4f4dd6c7" x="152.374763" y="385.478125" style="stroke: #000000; stroke-width: 0.8"/>
      </g>
     </g>
     <g id="text_1">
      <!-- 0 -->
      <g transform="translate(149.193513 400.076562) scale(0.1 -0.1)">
       <defs>
        <path id="DejaVuSans-30" d="M 2034 4250 
Q 1547 4250 1301 3770 
Q 1056 3291 1056 2328 
Q 1056 1369 1301 889 
Q 1547 409 2034 409 
Q 2525 409 2770 889 
Q 3016 1369 3016 2328 
Q 3016 3291 2770 3770 
Q 2525 4250 2034 4250 
z
M 2034 4750 
Q 2819 4750 3233 4129 
Q 3647 3509 3647 2328 
Q 3647 1150 3233 529 
Q 2819 -91 2034 -91 
Q 1250 -91 836 529 
Q 422 1150 422 2328 
Q 422 3509 836 4129 
Q 1250 4750 2034 4750 
z
" transform="scale(0.015625)"/>
       </defs>
       <use xlink:href="#DejaVuSans-30"/>
      </g>
     </g>
    </g>
    <g id="xtick_2">
     <g id="line2d_2">
      <g>
       <use xlink:href="#mcb4f4dd6c7" x="248.970245" y="385.478125" style="stroke: #000000; stroke-width: 0.8"/>
      </g>
     </g>
     <g id="text_2">
      <!-- 10 -->
      <g transform="translate(242.607745 400.076562) scale(0.1 -0.1)">
       <defs>
        <path id="DejaVuSans-31" d="M 794 531 
L 1825 531 
L 1825 4091 
L 703 3866 
L 703 4441 
L 1819 4666 
L 2450 4666 
L 2450 531 
L 3481 531 
L 3481 0 
L 794 0 
L 794 531 
z
" transform="scale(0.015625)"/>
       </defs>
       <use xlink:href="#DejaVuSans-31"/>
       <use xlink:href="#DejaVuSans-30" x="63.623047"/>
      </g>
     </g>
    </g>
    <g id="xtick_3">
     <g id="line2d_3">
      <g>
       <use xlink:href="#mcb4f4dd6c7" x="345.565727" y="385.478125" style="stroke: #000000; stroke-width: 0.8"/>
      </g>
     </g>
     <g id="text_3">
      <!-- 20 -->
      <g transform="translate(339.203227 400.076562) scale(0.1 -0.1)">
       <defs>
        <path id="DejaVuSans-32" d="M 1228 531 
L 3431 531 
L 3431 0 
L 469 0 
L 469 531 
Q 828 903 1448 1529 
Q 2069 2156 2228 2338 
Q 2531 2678 2651 2914 
Q 2772 3150 2772 3378 
Q 2772 3750 2511 3984 
Q 2250 4219 1831 4219 
Q 1534 4219 1204 4116 
Q 875 4013 500 3803 
L 500 4441 
Q 881 4594 1212 4672 
Q 1544 4750 1819 4750 
Q 2544 4750 2975 4387 
Q 3406 4025 3406 3419 
Q 3406 3131 3298 2873 
Q 3191 2616 2906 2266 
Q 2828 2175 2409 1742 
Q 1991 1309 1228 531 
z
" transform="scale(0.015625)"/>
       </defs>
       <use xlink:href="#DejaVuSans-32"/>
       <use xlink:href="#DejaVuSans-30" x="63.623047"/>
      </g>
     </g>
    </g>
    <g id="xtick_4">
     <g id="line2d_4">
      <g>
       <use xlink:href="#mcb4f4dd6c7" x="442.161209" y="385.478125" style="stroke: #000000; stroke-width: 0.8"/>
      </g>
     </g>
     <g id="text_4">
      <!-- 30 -->
      <g transform="translate(435.798709 400.076562) scale(0.1 -0.1)">
       <defs>
        <path id="DejaVuSans-33" d="M 2597 2516 
Q 3050 2419 3304 2112 
Q 3559 1806 3559 1356 
Q 3559 666 3084 287 
Q 2609 -91 1734 -91 
Q 1441 -91 1130 -33 
Q 819 25 488 141 
L 488 750 
Q 750 597 1062 519 
Q 1375 441 1716 441 
Q 2309 441 2620 675 
Q 2931 909 2931 1356 
Q 2931 1769 2642 2001 
Q 2353 2234 1838 2234 
L 1294 2234 
L 1294 2753 
L 1863 2753 
Q 2328 2753 2575 2939 
Q 2822 3125 2822 3475 
Q 2822 3834 2567 4026 
Q 2313 4219 1838 4219 
Q 1578 4219 1281 4162 
Q 984 4106 628 3988 
L 628 4550 
Q 988 4650 1302 4700 
Q 1616 4750 1894 4750 
Q 2613 4750 3031 4423 
Q 3450 4097 3450 3541 
Q 3450 3153 3228 2886 
Q 3006 2619 2597 2516 
z
" transform="scale(0.015625)"/>
       </defs>
       <use xlink:href="#DejaVuSans-33"/>
       <use xlink:href="#DejaVuSans-30" x="63.623047"/>
      </g>
     </g>
    </g>
    <g id="xtick_5">
     <g id="line2d_5">
      <g>
       <use xlink:href="#mcb4f4dd6c7" x="538.756691" y="385.478125" style="stroke: #000000; stroke-width: 0.8"/>
      </g>
     </g>
     <g id="text_5">
      <!-- 40 -->
      <g transform="translate(532.394191 400.076562) scale(0.1 -0.1)">
       <defs>
        <path id="DejaVuSans-34" d="M 2419 4116 
L 825 1625 
L 2419 1625 
L 2419 4116 
z
M 2253 4666 
L 3047 4666 
L 3047 1625 
L 3713 1625 
L 3713 1100 
L 3047 1100 
L 3047 0 
L 2419 0 
L 2419 1100 
L 313 1100 
L 313 1709 
L 2253 4666 
z
" transform="scale(0.015625)"/>
       </defs>
       <use xlink:href="#DejaVuSans-34"/>
       <use xlink:href="#DejaVuSans-30" x="63.623047"/>
      </g>
     </g>
    </g>
    <g id="xtick_6">
     <g id="line2d_6">
      <g>
       <use xlink:href="#mcb4f4dd6c7" x="635.352172" y="385.478125" style="stroke: #000000; stroke-width: 0.8"/>
      </g>
     </g>
     <g id="text_6">
      <!-- 50 -->
      <g transform="translate(628.989672 400.076562) scale(0.1 -0.1)">
       <defs>
        <path id="DejaVuSans-35" d="M 691 4666 
L 3169 4666 
L 3169 4134 
L 1269 4134 
L 1269 2991 
Q 1406 3038 1543 3061 
Q 1681 3084 1819 3084 
Q 2600 3084 3056 2656 
Q 3513 2228 3513 1497 
Q 3513 744 3044 326 
Q 2575 -91 1722 -91 
Q 1428 -91 1123 -41 
Q 819 9 494 109 
L 494 744 
Q 775 591 1075 516 
Q 1375 441 1709 441 
Q 2250 441 2565 725 
Q 2881 1009 2881 1497 
Q 2881 1984 2565 2268 
Q 2250 2553 1709 2553 
Q 1456 2553 1204 2497 
Q 953 2441 691 2322 
L 691 4666 
z
" transform="scale(0.015625)"/>
       </defs>
       <use xlink:href="#DejaVuSans-35"/>
       <use xlink:href="#DejaVuSans-30" x="63.623047"/>
      </g>
     </g>
    </g>
    <g id="xtick_7">
     <g id="line2d_7">
      <g>
       <use xlink:href="#mcb4f4dd6c7" x="731.947654" y="385.478125" style="stroke: #000000; stroke-width: 0.8"/>
      </g>
     </g>
     <g id="text_7">
      <!-- 60 -->
      <g transform="translate(725.585154 400.076562) scale(0.1 -0.1)">
       <defs>
        <path id="DejaVuSans-36" d="M 2113 2584 
Q 1688 2584 1439 2293 
Q 1191 2003 1191 1497 
Q 1191 994 1439 701 
Q 1688 409 2113 409 
Q 2538 409 2786 701 
Q 3034 994 3034 1497 
Q 3034 2003 2786 2293 
Q 2538 2584 2113 2584 
z
M 3366 4563 
L 3366 3988 
Q 3128 4100 2886 4159 
Q 2644 4219 2406 4219 
Q 1781 4219 1451 3797 
Q 1122 3375 1075 2522 
Q 1259 2794 1537 2939 
Q 1816 3084 2150 3084 
Q 2853 3084 3261 2657 
Q 3669 2231 3669 1497 
Q 3669 778 3244 343 
Q 2819 -91 2113 -91 
Q 1303 -91 875 529 
Q 447 1150 447 2328 
Q 447 3434 972 4092 
Q 1497 4750 2381 4750 
Q 2619 4750 2861 4703 
Q 3103 4656 3366 4563 
z
" transform="scale(0.015625)"/>
       </defs>
       <use xlink:href="#DejaVuSans-36"/>
       <use xlink:href="#DejaVuSans-30" x="63.623047"/>
      </g>
     </g>
    </g>
    <g id="xtick_8">
     <g id="line2d_8">
      <g>
       <use xlink:href="#mcb4f4dd6c7" x="828.543136" y="385.478125" style="stroke: #000000; stroke-width: 0.8"/>
      </g>
     </g>
     <g id="text_8">
      <!-- 70 -->
      <g transform="translate(822.180636 400.076562) scale(0.1 -0.1)">
       <defs>
        <path id="DejaVuSans-37" d="M 525 4666 
L 3525 4666 
L 3525 4397 
L 1831 0 
L 1172 0 
L 2766 4134 
L 525 4134 
L 525 4666 
z
" transform="scale(0.015625)"/>
       </defs>
       <use xlink:href="#DejaVuSans-37"/>
       <use xlink:href="#DejaVuSans-30" x="63.623047"/>
      </g>
     </g>
    </g>
    <g id="text_9">
     <!-- GFR -->
     <g transform="translate(442.722031 413.754687) scale(0.1 -0.1)">
      <defs>
       <path id="DejaVuSans-47" d="M 3809 666 
L 3809 1919 
L 2778 1919 
L 2778 2438 
L 4434 2438 
L 4434 434 
Q 4069 175 3628 42 
Q 3188 -91 2688 -91 
Q 1594 -91 976 548 
Q 359 1188 359 2328 
Q 359 3472 976 4111 
Q 1594 4750 2688 4750 
Q 3144 4750 3555 4637 
Q 3966 4525 4313 4306 
L 4313 3634 
Q 3963 3931 3569 4081 
Q 3175 4231 2741 4231 
Q 1884 4231 1454 3753 
Q 1025 3275 1025 2328 
Q 1025 1384 1454 906 
Q 1884 428 2741 428 
Q 3075 428 3337 486 
Q 3600 544 3809 666 
z
" transform="scale(0.015625)"/>
       <path id="DejaVuSans-46" d="M 628 4666 
L 3309 4666 
L 3309 4134 
L 1259 4134 
L 1259 2759 
L 3109 2759 
L 3109 2228 
L 1259 2228 
L 1259 0 
L 628 0 
L 628 4666 
z
" transform="scale(0.015625)"/>
       <path id="DejaVuSans-52" d="M 2841 2188 
Q 3044 2119 3236 1894 
Q 3428 1669 3622 1275 
L 4263 0 
L 3584 0 
L 2988 1197 
Q 2756 1666 2539 1819 
Q 2322 1972 1947 1972 
L 1259 1972 
L 1259 0 
L 628 0 
L 628 4666 
L 2053 4666 
Q 2853 4666 3247 4331 
Q 3641 3997 3641 3322 
Q 3641 2881 3436 2590 
Q 3231 2300 2841 2188 
z
M 1259 4147 
L 1259 2491 
L 2053 2491 
Q 2509 2491 2742 2702 
Q 2975 2913 2975 3322 
Q 2975 3731 2742 3939 
Q 2509 4147 2053 4147 
L 1259 4147 
z
" transform="scale(0.015625)"/>
      </defs>
      <use xlink:href="#DejaVuSans-47"/>
      <use xlink:href="#DejaVuSans-46" x="77.490234"/>
      <use xlink:href="#DejaVuSans-52" x="135.009766"/>
     </g>
    </g>
   </g>
   <g id="matplotlib.axis_2">
    <g id="ytick_1">
     <g id="line2d_9">
      <defs>
       <path id="m817ac20473" d="M 0 0 
L -3.5 0 
" style="stroke: #000000; stroke-width: 0.8"/>
      </defs>
      <g>
       <use xlink:href="#m817ac20473" x="56.50625" y="385.478125" style="stroke: #000000; stroke-width: 0.8"/>
      </g>
     </g>
     <g id="text_10">
      <!-- 0.000 -->
      <g transform="translate(20.878125 389.277344) scale(0.1 -0.1)">
       <defs>
        <path id="DejaVuSans-2e" d="M 684 794 
L 1344 794 
L 1344 0 
L 684 0 
L 684 794 
z
" transform="scale(0.015625)"/>
       </defs>
       <use xlink:href="#DejaVuSans-30"/>
       <use xlink:href="#DejaVuSans-2e" x="63.623047"/>
       <use xlink:href="#DejaVuSans-30" x="95.410156"/>
       <use xlink:href="#DejaVuSans-30" x="159.033203"/>
       <use xlink:href="#DejaVuSans-30" x="222.65625"/>
      </g>
     </g>
    </g>
    <g id="ytick_2">
     <g id="line2d_10">
      <g>
       <use xlink:href="#m817ac20473" x="56.50625" y="322.703787" style="stroke: #000000; stroke-width: 0.8"/>
      </g>
     </g>
     <g id="text_11">
      <!-- 0.005 -->
      <g transform="translate(20.878125 326.503006) scale(0.1 -0.1)">
       <use xlink:href="#DejaVuSans-30"/>
       <use xlink:href="#DejaVuSans-2e" x="63.623047"/>
       <use xlink:href="#DejaVuSans-30" x="95.410156"/>
       <use xlink:href="#DejaVuSans-30" x="159.033203"/>
       <use xlink:href="#DejaVuSans-35" x="222.65625"/>
      </g>
     </g>
    </g>
    <g id="ytick_3">
     <g id="line2d_11">
      <g>
       <use xlink:href="#m817ac20473" x="56.50625" y="259.929449" style="stroke: #000000; stroke-width: 0.8"/>
      </g>
     </g>
     <g id="text_12">
      <!-- 0.010 -->
      <g transform="translate(20.878125 263.728668) scale(0.1 -0.1)">
       <use xlink:href="#DejaVuSans-30"/>
       <use xlink:href="#DejaVuSans-2e" x="63.623047"/>
       <use xlink:href="#DejaVuSans-30" x="95.410156"/>
       <use xlink:href="#DejaVuSans-31" x="159.033203"/>
       <use xlink:href="#DejaVuSans-30" x="222.65625"/>
      </g>
     </g>
    </g>
    <g id="ytick_4">
     <g id="line2d_12">
      <g>
       <use xlink:href="#m817ac20473" x="56.50625" y="197.155111" style="stroke: #000000; stroke-width: 0.8"/>
      </g>
     </g>
     <g id="text_13">
      <!-- 0.015 -->
      <g transform="translate(20.878125 200.95433) scale(0.1 -0.1)">
       <use xlink:href="#DejaVuSans-30"/>
       <use xlink:href="#DejaVuSans-2e" x="63.623047"/>
       <use xlink:href="#DejaVuSans-30" x="95.410156"/>
       <use xlink:href="#DejaVuSans-31" x="159.033203"/>
       <use xlink:href="#DejaVuSans-35" x="222.65625"/>
      </g>
     </g>
    </g>
    <g id="ytick_5">
     <g id="line2d_13">
      <g>
       <use xlink:href="#m817ac20473" x="56.50625" y="134.380773" style="stroke: #000000; stroke-width: 0.8"/>
      </g>
     </g>
     <g id="text_14">
      <!-- 0.020 -->
      <g transform="translate(20.878125 138.179992) scale(0.1 -0.1)">
       <use xlink:href="#DejaVuSans-30"/>
       <use xlink:href="#DejaVuSans-2e" x="63.623047"/>
       <use xlink:href="#DejaVuSans-30" x="95.410156"/>
       <use xlink:href="#DejaVuSans-32" x="159.033203"/>
       <use xlink:href="#DejaVuSans-30" x="222.65625"/>
      </g>
     </g>
    </g>
    <g id="ytick_6">
     <g id="line2d_14">
      <g>
       <use xlink:href="#m817ac20473" x="56.50625" y="71.606435" style="stroke: #000000; stroke-width: 0.8"/>
      </g>
     </g>
     <g id="text_15">
      <!-- 0.025 -->
      <g transform="translate(20.878125 75.405654) scale(0.1 -0.1)">
       <use xlink:href="#DejaVuSans-30"/>
       <use xlink:href="#DejaVuSans-2e" x="63.623047"/>
       <use xlink:href="#DejaVuSans-30" x="95.410156"/>
       <use xlink:href="#DejaVuSans-32" x="159.033203"/>
       <use xlink:href="#DejaVuSans-35" x="222.65625"/>
      </g>
     </g>
    </g>
    <g id="text_16">
     <!-- Density -->
     <g transform="translate(14.798438 222.906719) rotate(-90) scale(0.1 -0.1)">
      <defs>
       <path id="DejaVuSans-44" d="M 1259 4147 
L 1259 519 
L 2022 519 
Q 2988 519 3436 956 
Q 3884 1394 3884 2338 
Q 3884 3275 3436 3711 
Q 2988 4147 2022 4147 
L 1259 4147 
z
M 628 4666 
L 1925 4666 
Q 3281 4666 3915 4102 
Q 4550 3538 4550 2338 
Q 4550 1131 3912 565 
Q 3275 0 1925 0 
L 628 0 
L 628 4666 
z
" transform="scale(0.015625)"/>
       <path id="DejaVuSans-65" d="M 3597 1894 
L 3597 1613 
L 953 1613 
Q 991 1019 1311 708 
Q 1631 397 2203 397 
Q 2534 397 2845 478 
Q 3156 559 3463 722 
L 3463 178 
Q 3153 47 2828 -22 
Q 2503 -91 2169 -91 
Q 1331 -91 842 396 
Q 353 884 353 1716 
Q 353 2575 817 3079 
Q 1281 3584 2069 3584 
Q 2775 3584 3186 3129 
Q 3597 2675 3597 1894 
z
M 3022 2063 
Q 3016 2534 2758 2815 
Q 2500 3097 2075 3097 
Q 1594 3097 1305 2825 
Q 1016 2553 972 2059 
L 3022 2063 
z
" transform="scale(0.015625)"/>
       <path id="DejaVuSans-6e" d="M 3513 2113 
L 3513 0 
L 2938 0 
L 2938 2094 
Q 2938 2591 2744 2837 
Q 2550 3084 2163 3084 
Q 1697 3084 1428 2787 
Q 1159 2491 1159 1978 
L 1159 0 
L 581 0 
L 581 3500 
L 1159 3500 
L 1159 2956 
Q 1366 3272 1645 3428 
Q 1925 3584 2291 3584 
Q 2894 3584 3203 3211 
Q 3513 2838 3513 2113 
z
" transform="scale(0.015625)"/>
       <path id="DejaVuSans-73" d="M 2834 3397 
L 2834 2853 
Q 2591 2978 2328 3040 
Q 2066 3103 1784 3103 
Q 1356 3103 1142 2972 
Q 928 2841 928 2578 
Q 928 2378 1081 2264 
Q 1234 2150 1697 2047 
L 1894 2003 
Q 2506 1872 2764 1633 
Q 3022 1394 3022 966 
Q 3022 478 2636 193 
Q 2250 -91 1575 -91 
Q 1294 -91 989 -36 
Q 684 19 347 128 
L 347 722 
Q 666 556 975 473 
Q 1284 391 1588 391 
Q 1994 391 2212 530 
Q 2431 669 2431 922 
Q 2431 1156 2273 1281 
Q 2116 1406 1581 1522 
L 1381 1569 
Q 847 1681 609 1914 
Q 372 2147 372 2553 
Q 372 3047 722 3315 
Q 1072 3584 1716 3584 
Q 2034 3584 2315 3537 
Q 2597 3491 2834 3397 
z
" transform="scale(0.015625)"/>
       <path id="DejaVuSans-69" d="M 603 3500 
L 1178 3500 
L 1178 0 
L 603 0 
L 603 3500 
z
M 603 4863 
L 1178 4863 
L 1178 4134 
L 603 4134 
L 603 4863 
z
" transform="scale(0.015625)"/>
       <path id="DejaVuSans-74" d="M 1172 4494 
L 1172 3500 
L 2356 3500 
L 2356 3053 
L 1172 3053 
L 1172 1153 
Q 1172 725 1289 603 
Q 1406 481 1766 481 
L 2356 481 
L 2356 0 
L 1766 0 
Q 1100 0 847 248 
Q 594 497 594 1153 
L 594 3053 
L 172 3053 
L 172 3500 
L 594 3500 
L 594 4494 
L 1172 4494 
z
" transform="scale(0.015625)"/>
       <path id="DejaVuSans-79" d="M 2059 -325 
Q 1816 -950 1584 -1140 
Q 1353 -1331 966 -1331 
L 506 -1331 
L 506 -850 
L 844 -850 
Q 1081 -850 1212 -737 
Q 1344 -625 1503 -206 
L 1606 56 
L 191 3500 
L 800 3500 
L 1894 763 
L 2988 3500 
L 3597 3500 
L 2059 -325 
z
" transform="scale(0.015625)"/>
      </defs>
      <use xlink:href="#DejaVuSans-44"/>
      <use xlink:href="#DejaVuSans-65" x="77.001953"/>
      <use xlink:href="#DejaVuSans-6e" x="138.525391"/>
      <use xlink:href="#DejaVuSans-73" x="201.904297"/>
      <use xlink:href="#DejaVuSans-69" x="254.003906"/>
      <use xlink:href="#DejaVuSans-74" x="281.787109"/>
      <use xlink:href="#DejaVuSans-79" x="320.996094"/>
     </g>
    </g>
   </g>
   <g id="patch_3">
    <path d="M 56.50625 385.478125 
L 56.50625 22.318125 
" style="fill: none; stroke: #000000; stroke-width: 0.8; stroke-linejoin: miter; stroke-linecap: square"/>
   </g>
   <g id="patch_4">
    <path d="M 849.38625 385.478125 
L 849.38625 22.318125 
" style="fill: none; stroke: #000000; stroke-width: 0.8; stroke-linejoin: miter; stroke-linecap: square"/>
   </g>
   <g id="patch_5">
    <path d="M 56.50625 385.478125 
L 849.38625 385.478125 
" style="fill: none; stroke: #000000; stroke-width: 0.8; stroke-linejoin: miter; stroke-linecap: square"/>
   </g>
   <g id="patch_6">
    <path d="M 56.50625 22.318125 
L 849.38625 22.318125 
" style="fill: none; stroke: #000000; stroke-width: 0.8; stroke-linejoin: miter; stroke-linecap: square"/>
   </g>
   <g id="text_17">
    <!-- Distribution of GFR -->
    <g transform="translate(396.0775 16.318125) scale(0.12 -0.12)">
     <defs>
      <path id="DejaVuSans-72" d="M 2631 2963 
Q 2534 3019 2420 3045 
Q 2306 3072 2169 3072 
Q 1681 3072 1420 2755 
Q 1159 2438 1159 1844 
L 1159 0 
L 581 0 
L 581 3500 
L 1159 3500 
L 1159 2956 
Q 1341 3275 1631 3429 
Q 1922 3584 2338 3584 
Q 2397 3584 2469 3576 
Q 2541 3569 2628 3553 
L 2631 2963 
z
" transform="scale(0.015625)"/>
      <path id="DejaVuSans-62" d="M 3116 1747 
Q 3116 2381 2855 2742 
Q 2594 3103 2138 3103 
Q 1681 3103 1420 2742 
Q 1159 2381 1159 1747 
Q 1159 1113 1420 752 
Q 1681 391 2138 391 
Q 2594 391 2855 752 
Q 3116 1113 3116 1747 
z
M 1159 2969 
Q 1341 3281 1617 3432 
Q 1894 3584 2278 3584 
Q 2916 3584 3314 3078 
Q 3713 2572 3713 1747 
Q 3713 922 3314 415 
Q 2916 -91 2278 -91 
Q 1894 -91 1617 61 
Q 1341 213 1159 525 
L 1159 0 
L 581 0 
L 581 4863 
L 1159 4863 
L 1159 2969 
z
" transform="scale(0.015625)"/>
      <path id="DejaVuSans-75" d="M 544 1381 
L 544 3500 
L 1119 3500 
L 1119 1403 
Q 1119 906 1312 657 
Q 1506 409 1894 409 
Q 2359 409 2629 706 
Q 2900 1003 2900 1516 
L 2900 3500 
L 3475 3500 
L 3475 0 
L 2900 0 
L 2900 538 
Q 2691 219 2414 64 
Q 2138 -91 1772 -91 
Q 1169 -91 856 284 
Q 544 659 544 1381 
z
M 1991 3584 
L 1991 3584 
z
" transform="scale(0.015625)"/>
      <path id="DejaVuSans-6f" d="M 1959 3097 
Q 1497 3097 1228 2736 
Q 959 2375 959 1747 
Q 959 1119 1226 758 
Q 1494 397 1959 397 
Q 2419 397 2687 759 
Q 2956 1122 2956 1747 
Q 2956 2369 2687 2733 
Q 2419 3097 1959 3097 
z
M 1959 3584 
Q 2709 3584 3137 3096 
Q 3566 2609 3566 1747 
Q 3566 888 3137 398 
Q 2709 -91 1959 -91 
Q 1206 -91 779 398 
Q 353 888 353 1747 
Q 353 2609 779 3096 
Q 1206 3584 1959 3584 
z
" transform="scale(0.015625)"/>
      <path id="DejaVuSans-20" transform="scale(0.015625)"/>
      <path id="DejaVuSans-66" d="M 2375 4863 
L 2375 4384 
L 1825 4384 
Q 1516 4384 1395 4259 
Q 1275 4134 1275 3809 
L 1275 3500 
L 2222 3500 
L 2222 3053 
L 1275 3053 
L 1275 0 
L 697 0 
L 697 3053 
L 147 3053 
L 147 3500 
L 697 3500 
L 697 3744 
Q 697 4328 969 4595 
Q 1241 4863 1831 4863 
L 2375 4863 
z
" transform="scale(0.015625)"/>
     </defs>
     <use xlink:href="#DejaVuSans-44"/>
     <use xlink:href="#DejaVuSans-69" x="77.001953"/>
     <use xlink:href="#DejaVuSans-73" x="104.785156"/>
     <use xlink:href="#DejaVuSans-74" x="156.884766"/>
     <use xlink:href="#DejaVuSans-72" x="196.09375"/>
     <use xlink:href="#DejaVuSans-69" x="237.207031"/>
     <use xlink:href="#DejaVuSans-62" x="264.990234"/>
     <use xlink:href="#DejaVuSans-75" x="328.466797"/>
     <use xlink:href="#DejaVuSans-74" x="391.845703"/>
     <use xlink:href="#DejaVuSans-69" x="431.054688"/>
     <use xlink:href="#DejaVuSans-6f" x="458.837891"/>
     <use xlink:href="#DejaVuSans-6e" x="520.019531"/>
     <use xlink:href="#DejaVuSans-20" x="583.398438"/>
     <use xlink:href="#DejaVuSans-6f" x="615.185547"/>
     <use xlink:href="#DejaVuSans-66" x="676.367188"/>
     <use xlink:href="#DejaVuSans-20" x="711.572266"/>
     <use xlink:href="#DejaVuSans-47" x="743.359375"/>
     <use xlink:href="#DejaVuSans-46" x="820.849609"/>
     <use xlink:href="#DejaVuSans-52" x="878.369141"/>
    </g>
   </g>
  </g>
 </g>
 <defs>
  <clipPath id="p78f5832b57">
   <rect x="56.50625" y="22.318125" width="792.88" height="363.16"/>
  </clipPath>
 </defs>
</svg>
