<?xml version="1.0" encoding="utf-8" standalone="no"?>
<!DOCTYPE svg PUBLIC "-//W3C//DTD SVG 1.1//EN"
  "http://www.w3.org/Graphics/SVG/1.1/DTD/svg11.dtd">
<svg xmlns:xlink="http://www.w3.org/1999/xlink" width="856.52375pt" height="423.034375pt" viewBox="0 0 856.52375 423.034375" xmlns="http://www.w3.org/2000/svg" version="1.1">
 <metadata>
  <rdf:RDF xmlns:dc="http://purl.org/dc/elements/1.1/" xmlns:cc="http://creativecommons.org/ns#" xmlns:rdf="http://www.w3.org/1999/02/22-rdf-syntax-ns#">
   <cc:Work>
    <dc:type rdf:resource="http://purl.org/dc/dcmitype/StillImage"/>
    <dc:date>2024-07-14T15:45:53.987172</dc:date>
    <dc:format>image/svg+xml</dc:format>
    <dc:creator>
     <cc:Agent>
      <dc:title>Matplotlib v3.9.0, https://matplotlib.org/</dc:title>
     </cc:Agent>
    </dc:creator>
   </cc:Work>
  </rdf:RDF>
 </metadata>
 <defs>
  <style type="text/css">*{stroke-linejoin: round; stroke-linecap: butt}</style>
 </defs>
 <g id="figure_1">
  <g id="patch_1">
   <path d="M 0 423.034375 
L 856.52375 423.034375 
L 856.52375 0 
L 0 0 
z
" style="fill: #ffffff"/>
  </g>
  <g id="axes_1">
   <g id="patch_2">
    <path d="M 50.14375 385.478125 
L 849.32375 385.478125 
L 849.32375 22.318125 
L 50.14375 22.318125 
z
" style="fill: #ffffff"/>
   </g>
   <g id="PolyCollection_1">
    <defs>
     <path id="md004582308" d="M 86.470114 -37.559294 
L 86.470114 -37.55625 
L 90.121004 -37.55625 
L 93.771895 -37.55625 
L 97.422786 -37.55625 
L 101.073677 -37.55625 
L 104.724568 -37.55625 
L 108.375459 -37.55625 
L 112.026349 -37.55625 
L 115.67724 -37.55625 
L 119.328131 -37.55625 
L 122.979022 -37.55625 
L 126.629913 -37.55625 
L 130.280803 -37.55625 
L 133.931694 -37.55625 
L 137.582585 -37.55625 
L 141.233476 -37.55625 
L 144.884367 -37.55625 
L 148.535258 -37.55625 
L 152.186148 -37.55625 
L 155.837039 -37.55625 
L 159.48793 -37.55625 
L 163.138821 -37.55625 
L 166.789712 -37.55625 
L 170.440602 -37.55625 
L 174.091493 -37.55625 
L 177.742384 -37.55625 
L 181.393275 -37.55625 
L 185.044166 -37.55625 
L 188.695057 -37.55625 
L 192.345947 -37.55625 
L 195.996838 -37.55625 
L 199.647729 -37.55625 
L 203.29862 -37.55625 
L 206.949511 -37.55625 
L 210.600401 -37.55625 
L 214.251292 -37.55625 
L 217.902183 -37.55625 
L 221.553074 -37.55625 
L 225.203965 -37.55625 
L 228.854856 -37.55625 
L 232.505746 -37.55625 
L 236.156637 -37.55625 
L 239.807528 -37.55625 
L 243.458419 -37.55625 
L 247.10931 -37.55625 
L 250.7602 -37.55625 
L 254.411091 -37.55625 
L 258.061982 -37.55625 
L 261.712873 -37.55625 
L 265.363764 -37.55625 
L 269.014655 -37.55625 
L 272.665545 -37.55625 
L 276.316436 -37.55625 
L 279.967327 -37.55625 
L 283.618218 -37.55625 
L 287.269109 -37.55625 
L 290.919999 -37.55625 
L 294.57089 -37.55625 
L 298.221781 -37.55625 
L 301.872672 -37.55625 
L 305.523563 -37.55625 
L 309.174454 -37.55625 
L 312.825344 -37.55625 
L 316.476235 -37.55625 
L 320.127126 -37.55625 
L 323.778017 -37.55625 
L 327.428908 -37.55625 
L 331.079798 -37.55625 
L 334.730689 -37.55625 
L 338.38158 -37.55625 
L 342.032471 -37.55625 
L 345.683362 -37.55625 
L 349.334253 -37.55625 
L 352.985143 -37.55625 
L 356.636034 -37.55625 
L 360.286925 -37.55625 
L 363.937816 -37.55625 
L 367.588707 -37.55625 
L 371.239597 -37.55625 
L 374.890488 -37.55625 
L 378.541379 -37.55625 
L 382.19227 -37.55625 
L 385.843161 -37.55625 
L 389.494052 -37.55625 
L 393.144942 -37.55625 
L 396.795833 -37.55625 
L 400.446724 -37.55625 
L 404.097615 -37.55625 
L 407.748506 -37.55625 
L 411.399396 -37.55625 
L 415.050287 -37.55625 
L 418.701178 -37.55625 
L 422.352069 -37.55625 
L 426.00296 -37.55625 
L 429.653851 -37.55625 
L 433.304741 -37.55625 
L 436.955632 -37.55625 
L 440.606523 -37.55625 
L 444.257414 -37.55625 
L 447.908305 -37.55625 
L 451.559195 -37.55625 
L 455.210086 -37.55625 
L 458.860977 -37.55625 
L 462.511868 -37.55625 
L 466.162759 -37.55625 
L 469.813649 -37.55625 
L 473.46454 -37.55625 
L 477.115431 -37.55625 
L 480.766322 -37.55625 
L 484.417213 -37.55625 
L 488.068104 -37.55625 
L 491.718994 -37.55625 
L 495.369885 -37.55625 
L 499.020776 -37.55625 
L 502.671667 -37.55625 
L 506.322558 -37.55625 
L 509.973448 -37.55625 
L 513.624339 -37.55625 
L 517.27523 -37.55625 
L 520.926121 -37.55625 
L 524.577012 -37.55625 
L 528.227903 -37.55625 
L 531.878793 -37.55625 
L 535.529684 -37.55625 
L 539.180575 -37.55625 
L 542.831466 -37.55625 
L 546.482357 -37.55625 
L 550.133247 -37.55625 
L 553.784138 -37.55625 
L 557.435029 -37.55625 
L 561.08592 -37.55625 
L 564.736811 -37.55625 
L 568.387702 -37.55625 
L 572.038592 -37.55625 
L 575.689483 -37.55625 
L 579.340374 -37.55625 
L 582.991265 -37.55625 
L 586.642156 -37.55625 
L 590.293046 -37.55625 
L 593.943937 -37.55625 
L 597.594828 -37.55625 
L 601.245719 -37.55625 
L 604.89661 -37.55625 
L 608.547501 -37.55625 
L 612.198391 -37.55625 
L 615.849282 -37.55625 
L 619.500173 -37.55625 
L 623.151064 -37.55625 
L 626.801955 -37.55625 
L 630.452845 -37.55625 
L 634.103736 -37.55625 
L 637.754627 -37.55625 
L 641.405518 -37.55625 
L 645.056409 -37.55625 
L 648.7073 -37.55625 
L 652.35819 -37.55625 
L 656.009081 -37.55625 
L 659.659972 -37.55625 
L 663.310863 -37.55625 
L 666.961754 -37.55625 
L 670.612644 -37.55625 
L 674.263535 -37.55625 
L 677.914426 -37.55625 
L 681.565317 -37.55625 
L 685.216208 -37.55625 
L 688.867099 -37.55625 
L 692.517989 -37.55625 
L 696.16888 -37.55625 
L 699.819771 -37.55625 
L 703.470662 -37.55625 
L 707.121553 -37.55625 
L 710.772443 -37.55625 
L 714.423334 -37.55625 
L 718.074225 -37.55625 
L 721.725116 -37.55625 
L 725.376007 -37.55625 
L 729.026898 -37.55625 
L 732.677788 -37.55625 
L 736.328679 -37.55625 
L 739.97957 -37.55625 
L 743.630461 -37.55625 
L 747.281352 -37.55625 
L 750.932242 -37.55625 
L 754.583133 -37.55625 
L 758.234024 -37.55625 
L 761.884915 -37.55625 
L 765.535806 -37.55625 
L 769.186697 -37.55625 
L 772.837587 -37.55625 
L 776.488478 -37.55625 
L 780.139369 -37.55625 
L 783.79026 -37.55625 
L 787.441151 -37.55625 
L 791.092041 -37.55625 
L 794.742932 -37.55625 
L 798.393823 -37.55625 
L 802.044714 -37.55625 
L 805.695605 -37.55625 
L 809.346496 -37.55625 
L 812.997386 -37.55625 
L 812.997386 -37.559269 
L 812.997386 -37.559269 
L 809.346496 -37.565485 
L 805.695605 -37.580334 
L 802.044714 -37.609807 
L 798.393823 -37.657804 
L 794.742932 -37.720446 
L 791.092041 -37.78262 
L 787.441151 -37.822362 
L 783.79026 -37.822997 
L 780.139369 -37.784244 
L 776.488478 -37.722414 
L 772.837587 -37.659512 
L 769.186697 -37.610968 
L 765.535806 -37.580974 
L 761.884915 -37.565775 
L 758.234024 -37.559379 
L 754.583133 -37.557127 
L 750.932242 -37.556459 
L 747.281352 -37.556293 
L 743.630461 -37.556257 
L 739.97957 -37.556251 
L 736.328679 -37.55625 
L 732.677788 -37.55625 
L 729.026898 -37.55625 
L 725.376007 -37.55625 
L 721.725116 -37.55625 
L 718.074225 -37.55625 
L 714.423334 -37.55625 
L 710.772443 -37.55625 
L 707.121553 -37.55625 
L 703.470662 -37.55625 
L 699.819771 -37.55625 
L 696.16888 -37.55625 
L 692.517989 -37.55625 
L 688.867099 -37.55625 
L 685.216208 -37.556253 
L 681.565317 -37.55627 
L 677.914426 -37.556354 
L 674.263535 -37.556718 
L 670.612644 -37.558045 
L 666.961754 -37.562124 
L 663.310863 -37.572634 
L 659.659972 -37.59522 
L 656.009081 -37.635286 
L 652.35819 -37.692932 
L 648.7073 -37.757802 
L 645.056409 -37.809676 
L 641.405518 -37.82796 
L 637.754627 -37.80465 
L 634.103736 -37.749898 
L 630.452845 -37.685039 
L 626.801955 -37.62958 
L 623.151064 -37.593004 
L 619.500173 -37.575797 
L 615.849282 -37.575675 
L 612.198391 -37.592615 
L 608.547501 -37.628916 
L 604.89661 -37.684266 
L 601.245719 -37.749647 
L 597.594828 -37.806588 
L 593.943937 -37.835945 
L 590.293046 -37.831632 
L 586.642156 -37.807335 
L 582.991265 -37.788073 
L 579.340374 -37.791783 
L 575.689483 -37.815853 
L 572.038592 -37.840155 
L 568.387702 -37.84464 
L 564.736811 -37.82751 
L 561.08592 -37.809791 
L 557.435029 -37.824217 
L 553.784138 -37.899013 
L 550.133247 -38.047936 
L 546.482357 -38.26759 
L 542.831466 -38.535776 
L 539.180575 -38.810567 
L 535.529684 -39.039181 
L 531.878793 -39.180121 
L 528.227903 -39.22516 
L 524.577012 -39.205879 
L 520.926121 -39.188079 
L 517.27523 -39.266908 
L 513.624339 -39.560378 
L 509.973448 -40.186554 
L 506.322558 -41.226455 
L 502.671667 -42.700844 
L 499.020776 -44.582388 
L 495.369885 -46.826086 
L 491.718994 -49.38867 
L 488.068104 -52.245247 
L 484.417213 -55.428628 
L 480.766322 -59.073138 
L 477.115431 -63.418742 
L 473.46454 -68.768021 
L 469.813649 -75.420538 
L 466.162759 -83.60938 
L 462.511868 -93.455889 
L 458.860977 -104.927596 
L 455.210086 -117.797254 
L 451.559195 -131.695334 
L 447.908305 -146.301816 
L 444.257414 -161.500351 
L 440.606523 -177.336881 
L 436.955632 -193.894345 
L 433.304741 -211.201594 
L 429.653851 -229.145024 
L 426.00296 -247.45588 
L 422.352069 -265.84403 
L 418.701178 -284.087042 
L 415.050287 -301.976468 
L 411.399396 -319.290161 
L 407.748506 -335.7659 
L 404.097615 -350.953453 
L 400.446724 -364.148176 
L 396.795833 -374.509909 
L 393.144942 -381.16537 
L 389.494052 -383.422917 
L 385.843161 -381.281507 
L 382.19227 -375.68383 
L 378.541379 -368.031425 
L 374.890488 -359.473262 
L 371.239597 -350.590133 
L 367.588707 -341.449744 
L 363.937816 -331.874608 
L 360.286925 -321.766746 
L 356.636034 -311.180133 
L 352.985143 -300.170393 
L 349.334253 -288.764459 
L 345.683362 -277.032358 
L 342.032471 -265.070439 
L 338.38158 -252.994412 
L 334.730689 -240.97504 
L 331.079798 -229.173141 
L 327.428908 -217.667266 
L 323.778017 -206.505315 
L 320.127126 -195.723782 
L 316.476235 -185.256013 
L 312.825344 -174.888139 
L 309.174454 -164.323335 
L 305.523563 -153.325591 
L 301.872672 -141.938196 
L 298.221781 -130.604282 
L 294.57089 -119.99051 
L 290.919999 -110.669851 
L 287.269109 -102.959663 
L 283.618218 -96.921172 
L 279.967327 -92.361517 
L 276.316436 -88.82234 
L 272.665545 -85.667375 
L 269.014655 -82.337325 
L 265.363764 -78.657218 
L 261.712873 -74.926651 
L 258.061982 -71.661467 
L 254.411091 -69.19461 
L 250.7602 -67.461957 
L 247.10931 -66.095666 
L 243.458419 -64.695855 
L 239.807528 -63.048846 
L 236.156637 -61.150196 
L 232.505746 -59.091661 
L 228.854856 -56.963286 
L 225.203965 -54.82854 
L 221.553074 -52.737177 
L 217.902183 -50.745798 
L 214.251292 -48.927437 
L 210.600401 -47.349535 
L 206.949511 -46.033823 
L 203.29862 -44.939909 
L 199.647729 -43.991806 
L 195.996838 -43.130854 
L 192.345947 -42.359011 
L 188.695057 -41.735165 
L 185.044166 -41.318956 
L 181.393275 -41.105743 
L 177.742384 -41.009067 
L 174.091493 -40.90695 
L 170.440602 -40.714191 
L 166.789712 -40.422265 
L 163.138821 -40.080608 
L 159.48793 -39.746364 
L 155.837039 -39.448068 
L 152.186148 -39.182807 
L 148.535258 -38.935757 
L 144.884367 -38.701284 
L 141.233476 -38.490112 
L 137.582585 -38.320101 
L 133.931694 -38.201568 
L 130.280803 -38.130207 
L 126.629913 -38.090526 
L 122.979022 -38.063464 
L 119.328131 -38.031897 
L 115.67724 -37.983478 
L 112.026349 -37.913496 
L 108.375459 -37.827474 
L 104.724568 -37.739452 
L 101.073677 -37.66471 
L 97.422786 -37.611954 
L 93.771895 -37.580904 
L 90.121004 -37.565614 
L 86.470114 -37.559294 
z
" style="stroke: #1f77b4"/>
    </defs>
    <g clip-path="url(#pdf4625ed37)">
     <use xlink:href="#md004582308" x="0" y="423.034375" style="fill: #1f77b4; fill-opacity: 0.25; stroke: #1f77b4"/>
    </g>
   </g>
   <g id="matplotlib.axis_1">
    <g id="xtick_1">
     <g id="line2d_1">
      <defs>
       <path id="md40756ed06" d="M 0 0 
L 0 3.5 
" style="stroke: #000000; stroke-width: 0.8"/>
      </defs>
      <g>
       <use xlink:href="#md40756ed06" x="77.924873" y="385.478125" style="stroke: #000000; stroke-width: 0.8"/>
      </g>
     </g>
     <g id="text_1">
      <!-- 0 -->
      <g transform="translate(74.743623 400.076562) scale(0.1 -0.1)">
       <defs>
        <path id="DejaVuSans-30" d="M 2034 4250 
Q 1547 4250 1301 3770 
Q 1056 3291 1056 2328 
Q 1056 1369 1301 889 
Q 1547 409 2034 409 
Q 2525 409 2770 889 
Q 3016 1369 3016 2328 
Q 3016 3291 2770 3770 
Q 2525 4250 2034 4250 
z
M 2034 4750 
Q 2819 4750 3233 4129 
Q 3647 3509 3647 2328 
Q 3647 1150 3233 529 
Q 2819 -91 2034 -91 
Q 1250 -91 836 529 
Q 422 1150 422 2328 
Q 422 3509 836 4129 
Q 1250 4750 2034 4750 
z
" transform="scale(0.015625)"/>
       </defs>
       <use xlink:href="#DejaVuSans-30"/>
      </g>
     </g>
    </g>
    <g id="xtick_2">
     <g id="line2d_2">
      <g>
       <use xlink:href="#md40756ed06" x="197.863221" y="385.478125" style="stroke: #000000; stroke-width: 0.8"/>
      </g>
     </g>
     <g id="text_2">
      <!-- 10 -->
      <g transform="translate(191.500721 400.076562) scale(0.1 -0.1)">
       <defs>
        <path id="DejaVuSans-31" d="M 794 531 
L 1825 531 
L 1825 4091 
L 703 3866 
L 703 4441 
L 1819 4666 
L 2450 4666 
L 2450 531 
L 3481 531 
L 3481 0 
L 794 0 
L 794 531 
z
" transform="scale(0.015625)"/>
       </defs>
       <use xlink:href="#DejaVuSans-31"/>
       <use xlink:href="#DejaVuSans-30" x="63.623047"/>
      </g>
     </g>
    </g>
    <g id="xtick_3">
     <g id="line2d_3">
      <g>
       <use xlink:href="#md40756ed06" x="317.801568" y="385.478125" style="stroke: #000000; stroke-width: 0.8"/>
      </g>
     </g>
     <g id="text_3">
      <!-- 20 -->
      <g transform="translate(311.439068 400.076562) scale(0.1 -0.1)">
       <defs>
        <path id="DejaVuSans-32" d="M 1228 531 
L 3431 531 
L 3431 0 
L 469 0 
L 469 531 
Q 828 903 1448 1529 
Q 2069 2156 2228 2338 
Q 2531 2678 2651 2914 
Q 2772 3150 2772 3378 
Q 2772 3750 2511 3984 
Q 2250 4219 1831 4219 
Q 1534 4219 1204 4116 
Q 875 4013 500 3803 
L 500 4441 
Q 881 4594 1212 4672 
Q 1544 4750 1819 4750 
Q 2544 4750 2975 4387 
Q 3406 4025 3406 3419 
Q 3406 3131 3298 2873 
Q 3191 2616 2906 2266 
Q 2828 2175 2409 1742 
Q 1991 1309 1228 531 
z
" transform="scale(0.015625)"/>
       </defs>
       <use xlink:href="#DejaVuSans-32"/>
       <use xlink:href="#DejaVuSans-30" x="63.623047"/>
      </g>
     </g>
    </g>
    <g id="xtick_4">
     <g id="line2d_4">
      <g>
       <use xlink:href="#md40756ed06" x="437.739915" y="385.478125" style="stroke: #000000; stroke-width: 0.8"/>
      </g>
     </g>
     <g id="text_4">
      <!-- 30 -->
      <g transform="translate(431.377415 400.076562) scale(0.1 -0.1)">
       <defs>
        <path id="DejaVuSans-33" d="M 2597 2516 
Q 3050 2419 3304 2112 
Q 3559 1806 3559 1356 
Q 3559 666 3084 287 
Q 2609 -91 1734 -91 
Q 1441 -91 1130 -33 
Q 819 25 488 141 
L 488 750 
Q 750 597 1062 519 
Q 1375 441 1716 441 
Q 2309 441 2620 675 
Q 2931 909 2931 1356 
Q 2931 1769 2642 2001 
Q 2353 2234 1838 2234 
L 1294 2234 
L 1294 2753 
L 1863 2753 
Q 2328 2753 2575 2939 
Q 2822 3125 2822 3475 
Q 2822 3834 2567 4026 
Q 2313 4219 1838 4219 
Q 1578 4219 1281 4162 
Q 984 4106 628 3988 
L 628 4550 
Q 988 4650 1302 4700 
Q 1616 4750 1894 4750 
Q 2613 4750 3031 4423 
Q 3450 4097 3450 3541 
Q 3450 3153 3228 2886 
Q 3006 2619 2597 2516 
z
" transform="scale(0.015625)"/>
       </defs>
       <use xlink:href="#DejaVuSans-33"/>
       <use xlink:href="#DejaVuSans-30" x="63.623047"/>
      </g>
     </g>
    </g>
    <g id="xtick_5">
     <g id="line2d_5">
      <g>
       <use xlink:href="#md40756ed06" x="557.678263" y="385.478125" style="stroke: #000000; stroke-width: 0.8"/>
      </g>
     </g>
     <g id="text_5">
      <!-- 40 -->
      <g transform="translate(551.315763 400.076562) scale(0.1 -0.1)">
       <defs>
        <path id="DejaVuSans-34" d="M 2419 4116 
L 825 1625 
L 2419 1625 
L 2419 4116 
z
M 2253 4666 
L 3047 4666 
L 3047 1625 
L 3713 1625 
L 3713 1100 
L 3047 1100 
L 3047 0 
L 2419 0 
L 2419 1100 
L 313 1100 
L 313 1709 
L 2253 4666 
z
" transform="scale(0.015625)"/>
       </defs>
       <use xlink:href="#DejaVuSans-34"/>
       <use xlink:href="#DejaVuSans-30" x="63.623047"/>
      </g>
     </g>
    </g>
    <g id="xtick_6">
     <g id="line2d_6">
      <g>
       <use xlink:href="#md40756ed06" x="677.61661" y="385.478125" style="stroke: #000000; stroke-width: 0.8"/>
      </g>
     </g>
     <g id="text_6">
      <!-- 50 -->
      <g transform="translate(671.25411 400.076562) scale(0.1 -0.1)">
       <defs>
        <path id="DejaVuSans-35" d="M 691 4666 
L 3169 4666 
L 3169 4134 
L 1269 4134 
L 1269 2991 
Q 1406 3038 1543 3061 
Q 1681 3084 1819 3084 
Q 2600 3084 3056 2656 
Q 3513 2228 3513 1497 
Q 3513 744 3044 326 
Q 2575 -91 1722 -91 
Q 1428 -91 1123 -41 
Q 819 9 494 109 
L 494 744 
Q 775 591 1075 516 
Q 1375 441 1709 441 
Q 2250 441 2565 725 
Q 2881 1009 2881 1497 
Q 2881 1984 2565 2268 
Q 2250 2553 1709 2553 
Q 1456 2553 1204 2497 
Q 953 2441 691 2322 
L 691 4666 
z
" transform="scale(0.015625)"/>
       </defs>
       <use xlink:href="#DejaVuSans-35"/>
       <use xlink:href="#DejaVuSans-30" x="63.623047"/>
      </g>
     </g>
    </g>
    <g id="xtick_7">
     <g id="line2d_7">
      <g>
       <use xlink:href="#md40756ed06" x="797.554957" y="385.478125" style="stroke: #000000; stroke-width: 0.8"/>
      </g>
     </g>
     <g id="text_7">
      <!-- 60 -->
      <g transform="translate(791.192457 400.076562) scale(0.1 -0.1)">
       <defs>
        <path id="DejaVuSans-36" d="M 2113 2584 
Q 1688 2584 1439 2293 
Q 1191 2003 1191 1497 
Q 1191 994 1439 701 
Q 1688 409 2113 409 
Q 2538 409 2786 701 
Q 3034 994 3034 1497 
Q 3034 2003 2786 2293 
Q 2538 2584 2113 2584 
z
M 3366 4563 
L 3366 3988 
Q 3128 4100 2886 4159 
Q 2644 4219 2406 4219 
Q 1781 4219 1451 3797 
Q 1122 3375 1075 2522 
Q 1259 2794 1537 2939 
Q 1816 3084 2150 3084 
Q 2853 3084 3261 2657 
Q 3669 2231 3669 1497 
Q 3669 778 3244 343 
Q 2819 -91 2113 -91 
Q 1303 -91 875 529 
Q 447 1150 447 2328 
Q 447 3434 972 4092 
Q 1497 4750 2381 4750 
Q 2619 4750 2861 4703 
Q 3103 4656 3366 4563 
z
" transform="scale(0.015625)"/>
       </defs>
       <use xlink:href="#DejaVuSans-36"/>
       <use xlink:href="#DejaVuSans-30" x="63.623047"/>
      </g>
     </g>
    </g>
    <g id="text_8">
     <!-- TCO2 -->
     <g transform="translate(436.365 413.754687) scale(0.1 -0.1)">
      <defs>
       <path id="DejaVuSans-54" d="M -19 4666 
L 3928 4666 
L 3928 4134 
L 2272 4134 
L 2272 0 
L 1638 0 
L 1638 4134 
L -19 4134 
L -19 4666 
z
" transform="scale(0.015625)"/>
       <path id="DejaVuSans-43" d="M 4122 4306 
L 4122 3641 
Q 3803 3938 3442 4084 
Q 3081 4231 2675 4231 
Q 1875 4231 1450 3742 
Q 1025 3253 1025 2328 
Q 1025 1406 1450 917 
Q 1875 428 2675 428 
Q 3081 428 3442 575 
Q 3803 722 4122 1019 
L 4122 359 
Q 3791 134 3420 21 
Q 3050 -91 2638 -91 
Q 1578 -91 968 557 
Q 359 1206 359 2328 
Q 359 3453 968 4101 
Q 1578 4750 2638 4750 
Q 3056 4750 3426 4639 
Q 3797 4528 4122 4306 
z
" transform="scale(0.015625)"/>
       <path id="DejaVuSans-4f" d="M 2522 4238 
Q 1834 4238 1429 3725 
Q 1025 3213 1025 2328 
Q 1025 1447 1429 934 
Q 1834 422 2522 422 
Q 3209 422 3611 934 
Q 4013 1447 4013 2328 
Q 4013 3213 3611 3725 
Q 3209 4238 2522 4238 
z
M 2522 4750 
Q 3503 4750 4090 4092 
Q 4678 3434 4678 2328 
Q 4678 1225 4090 567 
Q 3503 -91 2522 -91 
Q 1538 -91 948 565 
Q 359 1222 359 2328 
Q 359 3434 948 4092 
Q 1538 4750 2522 4750 
z
" transform="scale(0.015625)"/>
      </defs>
      <use xlink:href="#DejaVuSans-54"/>
      <use xlink:href="#DejaVuSans-43" x="55.208984"/>
      <use xlink:href="#DejaVuSans-4f" x="125.033203"/>
      <use xlink:href="#DejaVuSans-32" x="203.744141"/>
     </g>
    </g>
   </g>
   <g id="matplotlib.axis_2">
    <g id="ytick_1">
     <g id="line2d_8">
      <defs>
       <path id="mf6c9a8c970" d="M 0 0 
L -3.5 0 
" style="stroke: #000000; stroke-width: 0.8"/>
      </defs>
      <g>
       <use xlink:href="#mf6c9a8c970" x="50.14375" y="385.478125" style="stroke: #000000; stroke-width: 0.8"/>
      </g>
     </g>
     <g id="text_9">
      <!-- 0.00 -->
      <g transform="translate(20.878125 389.277344) scale(0.1 -0.1)">
       <defs>
        <path id="DejaVuSans-2e" d="M 684 794 
L 1344 794 
L 1344 0 
L 684 0 
L 684 794 
z
" transform="scale(0.015625)"/>
       </defs>
       <use xlink:href="#DejaVuSans-30"/>
       <use xlink:href="#DejaVuSans-2e" x="63.623047"/>
       <use xlink:href="#DejaVuSans-30" x="95.410156"/>
       <use xlink:href="#DejaVuSans-30" x="159.033203"/>
      </g>
     </g>
    </g>
    <g id="ytick_2">
     <g id="line2d_9">
      <g>
       <use xlink:href="#mf6c9a8c970" x="50.14375" y="317.227509" style="stroke: #000000; stroke-width: 0.8"/>
      </g>
     </g>
     <g id="text_10">
      <!-- 0.02 -->
      <g transform="translate(20.878125 321.026728) scale(0.1 -0.1)">
       <use xlink:href="#DejaVuSans-30"/>
       <use xlink:href="#DejaVuSans-2e" x="63.623047"/>
       <use xlink:href="#DejaVuSans-30" x="95.410156"/>
       <use xlink:href="#DejaVuSans-32" x="159.033203"/>
      </g>
     </g>
    </g>
    <g id="ytick_3">
     <g id="line2d_10">
      <g>
       <use xlink:href="#mf6c9a8c970" x="50.14375" y="248.976893" style="stroke: #000000; stroke-width: 0.8"/>
      </g>
     </g>
     <g id="text_11">
      <!-- 0.04 -->
      <g transform="translate(20.878125 252.776112) scale(0.1 -0.1)">
       <use xlink:href="#DejaVuSans-30"/>
       <use xlink:href="#DejaVuSans-2e" x="63.623047"/>
       <use xlink:href="#DejaVuSans-30" x="95.410156"/>
       <use xlink:href="#DejaVuSans-34" x="159.033203"/>
      </g>
     </g>
    </g>
    <g id="ytick_4">
     <g id="line2d_11">
      <g>
       <use xlink:href="#mf6c9a8c970" x="50.14375" y="180.726277" style="stroke: #000000; stroke-width: 0.8"/>
      </g>
     </g>
     <g id="text_12">
      <!-- 0.06 -->
      <g transform="translate(20.878125 184.525496) scale(0.1 -0.1)">
       <use xlink:href="#DejaVuSans-30"/>
       <use xlink:href="#DejaVuSans-2e" x="63.623047"/>
       <use xlink:href="#DejaVuSans-30" x="95.410156"/>
       <use xlink:href="#DejaVuSans-36" x="159.033203"/>
      </g>
     </g>
    </g>
    <g id="ytick_5">
     <g id="line2d_12">
      <g>
       <use xlink:href="#mf6c9a8c970" x="50.14375" y="112.475661" style="stroke: #000000; stroke-width: 0.8"/>
      </g>
     </g>
     <g id="text_13">
      <!-- 0.08 -->
      <g transform="translate(20.878125 116.27488) scale(0.1 -0.1)">
       <defs>
        <path id="DejaVuSans-38" d="M 2034 2216 
Q 1584 2216 1326 1975 
Q 1069 1734 1069 1313 
Q 1069 891 1326 650 
Q 1584 409 2034 409 
Q 2484 409 2743 651 
Q 3003 894 3003 1313 
Q 3003 1734 2745 1975 
Q 2488 2216 2034 2216 
z
M 1403 2484 
Q 997 2584 770 2862 
Q 544 3141 544 3541 
Q 544 4100 942 4425 
Q 1341 4750 2034 4750 
Q 2731 4750 3128 4425 
Q 3525 4100 3525 3541 
Q 3525 3141 3298 2862 
Q 3072 2584 2669 2484 
Q 3125 2378 3379 2068 
Q 3634 1759 3634 1313 
Q 3634 634 3220 271 
Q 2806 -91 2034 -91 
Q 1263 -91 848 271 
Q 434 634 434 1313 
Q 434 1759 690 2068 
Q 947 2378 1403 2484 
z
M 1172 3481 
Q 1172 3119 1398 2916 
Q 1625 2713 2034 2713 
Q 2441 2713 2670 2916 
Q 2900 3119 2900 3481 
Q 2900 3844 2670 4047 
Q 2441 4250 2034 4250 
Q 1625 4250 1398 4047 
Q 1172 3844 1172 3481 
z
" transform="scale(0.015625)"/>
       </defs>
       <use xlink:href="#DejaVuSans-30"/>
       <use xlink:href="#DejaVuSans-2e" x="63.623047"/>
       <use xlink:href="#DejaVuSans-30" x="95.410156"/>
       <use xlink:href="#DejaVuSans-38" x="159.033203"/>
      </g>
     </g>
    </g>
    <g id="ytick_6">
     <g id="line2d_13">
      <g>
       <use xlink:href="#mf6c9a8c970" x="50.14375" y="44.225045" style="stroke: #000000; stroke-width: 0.8"/>
      </g>
     </g>
     <g id="text_14">
      <!-- 0.10 -->
      <g transform="translate(20.878125 48.024264) scale(0.1 -0.1)">
       <use xlink:href="#DejaVuSans-30"/>
       <use xlink:href="#DejaVuSans-2e" x="63.623047"/>
       <use xlink:href="#DejaVuSans-31" x="95.410156"/>
       <use xlink:href="#DejaVuSans-30" x="159.033203"/>
      </g>
     </g>
    </g>
    <g id="text_15">
     <!-- Density -->
     <g transform="translate(14.798438 222.906719) rotate(-90) scale(0.1 -0.1)">
      <defs>
       <path id="DejaVuSans-44" d="M 1259 4147 
L 1259 519 
L 2022 519 
Q 2988 519 3436 956 
Q 3884 1394 3884 2338 
Q 3884 3275 3436 3711 
Q 2988 4147 2022 4147 
L 1259 4147 
z
M 628 4666 
L 1925 4666 
Q 3281 4666 3915 4102 
Q 4550 3538 4550 2338 
Q 4550 1131 3912 565 
Q 3275 0 1925 0 
L 628 0 
L 628 4666 
z
" transform="scale(0.015625)"/>
       <path id="DejaVuSans-65" d="M 3597 1894 
L 3597 1613 
L 953 1613 
Q 991 1019 1311 708 
Q 1631 397 2203 397 
Q 2534 397 2845 478 
Q 3156 559 3463 722 
L 3463 178 
Q 3153 47 2828 -22 
Q 2503 -91 2169 -91 
Q 1331 -91 842 396 
Q 353 884 353 1716 
Q 353 2575 817 3079 
Q 1281 3584 2069 3584 
Q 2775 3584 3186 3129 
Q 3597 2675 3597 1894 
z
M 3022 2063 
Q 3016 2534 2758 2815 
Q 2500 3097 2075 3097 
Q 1594 3097 1305 2825 
Q 1016 2553 972 2059 
L 3022 2063 
z
" transform="scale(0.015625)"/>
       <path id="DejaVuSans-6e" d="M 3513 2113 
L 3513 0 
L 2938 0 
L 2938 2094 
Q 2938 2591 2744 2837 
Q 2550 3084 2163 3084 
Q 1697 3084 1428 2787 
Q 1159 2491 1159 1978 
L 1159 0 
L 581 0 
L 581 3500 
L 1159 3500 
L 1159 2956 
Q 1366 3272 1645 3428 
Q 1925 3584 2291 3584 
Q 2894 3584 3203 3211 
Q 3513 2838 3513 2113 
z
" transform="scale(0.015625)"/>
       <path id="DejaVuSans-73" d="M 2834 3397 
L 2834 2853 
Q 2591 2978 2328 3040 
Q 2066 3103 1784 3103 
Q 1356 3103 1142 2972 
Q 928 2841 928 2578 
Q 928 2378 1081 2264 
Q 1234 2150 1697 2047 
L 1894 2003 
Q 2506 1872 2764 1633 
Q 3022 1394 3022 966 
Q 3022 478 2636 193 
Q 2250 -91 1575 -91 
Q 1294 -91 989 -36 
Q 684 19 347 128 
L 347 722 
Q 666 556 975 473 
Q 1284 391 1588 391 
Q 1994 391 2212 530 
Q 2431 669 2431 922 
Q 2431 1156 2273 1281 
Q 2116 1406 1581 1522 
L 1381 1569 
Q 847 1681 609 1914 
Q 372 2147 372 2553 
Q 372 3047 722 3315 
Q 1072 3584 1716 3584 
Q 2034 3584 2315 3537 
Q 2597 3491 2834 3397 
z
" transform="scale(0.015625)"/>
       <path id="DejaVuSans-69" d="M 603 3500 
L 1178 3500 
L 1178 0 
L 603 0 
L 603 3500 
z
M 603 4863 
L 1178 4863 
L 1178 4134 
L 603 4134 
L 603 4863 
z
" transform="scale(0.015625)"/>
       <path id="DejaVuSans-74" d="M 1172 4494 
L 1172 3500 
L 2356 3500 
L 2356 3053 
L 1172 3053 
L 1172 1153 
Q 1172 725 1289 603 
Q 1406 481 1766 481 
L 2356 481 
L 2356 0 
L 1766 0 
Q 1100 0 847 248 
Q 594 497 594 1153 
L 594 3053 
L 172 3053 
L 172 3500 
L 594 3500 
L 594 4494 
L 1172 4494 
z
" transform="scale(0.015625)"/>
       <path id="DejaVuSans-79" d="M 2059 -325 
Q 1816 -950 1584 -1140 
Q 1353 -1331 966 -1331 
L 506 -1331 
L 506 -850 
L 844 -850 
Q 1081 -850 1212 -737 
Q 1344 -625 1503 -206 
L 1606 56 
L 191 3500 
L 800 3500 
L 1894 763 
L 2988 3500 
L 3597 3500 
L 2059 -325 
z
" transform="scale(0.015625)"/>
      </defs>
      <use xlink:href="#DejaVuSans-44"/>
      <use xlink:href="#DejaVuSans-65" x="77.001953"/>
      <use xlink:href="#DejaVuSans-6e" x="138.525391"/>
      <use xlink:href="#DejaVuSans-73" x="201.904297"/>
      <use xlink:href="#DejaVuSans-69" x="254.003906"/>
      <use xlink:href="#DejaVuSans-74" x="281.787109"/>
      <use xlink:href="#DejaVuSans-79" x="320.996094"/>
     </g>
    </g>
   </g>
   <g id="patch_3">
    <path d="M 50.14375 385.478125 
L 50.14375 22.318125 
" style="fill: none; stroke: #000000; stroke-width: 0.8; stroke-linejoin: miter; stroke-linecap: square"/>
   </g>
   <g id="patch_4">
    <path d="M 849.32375 385.478125 
L 849.32375 22.318125 
" style="fill: none; stroke: #000000; stroke-width: 0.8; stroke-linejoin: miter; stroke-linecap: square"/>
   </g>
   <g id="patch_5">
    <path d="M 50.14375 385.478125 
L 849.32375 385.478125 
" style="fill: none; stroke: #000000; stroke-width: 0.8; stroke-linejoin: miter; stroke-linecap: square"/>
   </g>
   <g id="patch_6">
    <path d="M 50.14375 22.318125 
L 849.32375 22.318125 
" style="fill: none; stroke: #000000; stroke-width: 0.8; stroke-linejoin: miter; stroke-linecap: square"/>
   </g>
   <g id="text_16">
    <!-- Distribution of TCO2 -->
    <g transform="translate(389.091563 16.318125) scale(0.12 -0.12)">
     <defs>
      <path id="DejaVuSans-72" d="M 2631 2963 
Q 2534 3019 2420 3045 
Q 2306 3072 2169 3072 
Q 1681 3072 1420 2755 
Q 1159 2438 1159 1844 
L 1159 0 
L 581 0 
L 581 3500 
L 1159 3500 
L 1159 2956 
Q 1341 3275 1631 3429 
Q 1922 3584 2338 3584 
Q 2397 3584 2469 3576 
Q 2541 3569 2628 3553 
L 2631 2963 
z
" transform="scale(0.015625)"/>
      <path id="DejaVuSans-62" d="M 3116 1747 
Q 3116 2381 2855 2742 
Q 2594 3103 2138 3103 
Q 1681 3103 1420 2742 
Q 1159 2381 1159 1747 
Q 1159 1113 1420 752 
Q 1681 391 2138 391 
Q 2594 391 2855 752 
Q 3116 1113 3116 1747 
z
M 1159 2969 
Q 1341 3281 1617 3432 
Q 1894 3584 2278 3584 
Q 2916 3584 3314 3078 
Q 3713 2572 3713 1747 
Q 3713 922 3314 415 
Q 2916 -91 2278 -91 
Q 1894 -91 1617 61 
Q 1341 213 1159 525 
L 1159 0 
L 581 0 
L 581 4863 
L 1159 4863 
L 1159 2969 
z
" transform="scale(0.015625)"/>
      <path id="DejaVuSans-75" d="M 544 1381 
L 544 3500 
L 1119 3500 
L 1119 1403 
Q 1119 906 1312 657 
Q 1506 409 1894 409 
Q 2359 409 2629 706 
Q 2900 1003 2900 1516 
L 2900 3500 
L 3475 3500 
L 3475 0 
L 2900 0 
L 2900 538 
Q 2691 219 2414 64 
Q 2138 -91 1772 -91 
Q 1169 -91 856 284 
Q 544 659 544 1381 
z
M 1991 3584 
L 1991 3584 
z
" transform="scale(0.015625)"/>
      <path id="DejaVuSans-6f" d="M 1959 3097 
Q 1497 3097 1228 2736 
Q 959 2375 959 1747 
Q 959 1119 1226 758 
Q 1494 397 1959 397 
Q 2419 397 2687 759 
Q 2956 1122 2956 1747 
Q 2956 2369 2687 2733 
Q 2419 3097 1959 3097 
z
M 1959 3584 
Q 2709 3584 3137 3096 
Q 3566 2609 3566 1747 
Q 3566 888 3137 398 
Q 2709 -91 1959 -91 
Q 1206 -91 779 398 
Q 353 888 353 1747 
Q 353 2609 779 3096 
Q 1206 3584 1959 3584 
z
" transform="scale(0.015625)"/>
      <path id="DejaVuSans-20" transform="scale(0.015625)"/>
      <path id="DejaVuSans-66" d="M 2375 4863 
L 2375 4384 
L 1825 4384 
Q 1516 4384 1395 4259 
Q 1275 4134 1275 3809 
L 1275 3500 
L 2222 3500 
L 2222 3053 
L 1275 3053 
L 1275 0 
L 697 0 
L 697 3053 
L 147 3053 
L 147 3500 
L 697 3500 
L 697 3744 
Q 697 4328 969 4595 
Q 1241 4863 1831 4863 
L 2375 4863 
z
" transform="scale(0.015625)"/>
     </defs>
     <use xlink:href="#DejaVuSans-44"/>
     <use xlink:href="#DejaVuSans-69" x="77.001953"/>
     <use xlink:href="#DejaVuSans-73" x="104.785156"/>
     <use xlink:href="#DejaVuSans-74" x="156.884766"/>
     <use xlink:href="#DejaVuSans-72" x="196.09375"/>
     <use xlink:href="#DejaVuSans-69" x="237.207031"/>
     <use xlink:href="#DejaVuSans-62" x="264.990234"/>
     <use xlink:href="#DejaVuSans-75" x="328.466797"/>
     <use xlink:href="#DejaVuSans-74" x="391.845703"/>
     <use xlink:href="#DejaVuSans-69" x="431.054688"/>
     <use xlink:href="#DejaVuSans-6f" x="458.837891"/>
     <use xlink:href="#DejaVuSans-6e" x="520.019531"/>
     <use xlink:href="#DejaVuSans-20" x="583.398438"/>
     <use xlink:href="#DejaVuSans-6f" x="615.185547"/>
     <use xlink:href="#DejaVuSans-66" x="676.367188"/>
     <use xlink:href="#DejaVuSans-20" x="711.572266"/>
     <use xlink:href="#DejaVuSans-54" x="743.359375"/>
     <use xlink:href="#DejaVuSans-43" x="798.568359"/>
     <use xlink:href="#DejaVuSans-4f" x="868.392578"/>
     <use xlink:href="#DejaVuSans-32" x="947.103516"/>
    </g>
   </g>
  </g>
 </g>
 <defs>
  <clipPath id="pdf4625ed37">
   <rect x="50.14375" y="22.318125" width="799.18" height="363.16"/>
  </clipPath>
 </defs>
</svg>
