<?xml version="1.0" encoding="utf-8" standalone="no"?>
<!DOCTYPE svg PUBLIC "-//W3C//DTD SVG 1.1//EN"
  "http://www.w3.org/Graphics/SVG/1.1/DTD/svg11.dtd">
<svg xmlns:xlink="http://www.w3.org/1999/xlink" width="856.46125pt" height="423.034375pt" viewBox="0 0 856.46125 423.034375" xmlns="http://www.w3.org/2000/svg" version="1.1">
 <metadata>
  <rdf:RDF xmlns:dc="http://purl.org/dc/elements/1.1/" xmlns:cc="http://creativecommons.org/ns#" xmlns:rdf="http://www.w3.org/1999/02/22-rdf-syntax-ns#">
   <cc:Work>
    <dc:type rdf:resource="http://purl.org/dc/dcmitype/StillImage"/>
    <dc:date>2024-07-14T14:06:49.947527</dc:date>
    <dc:format>image/svg+xml</dc:format>
    <dc:creator>
     <cc:Agent>
      <dc:title>Matplotlib v3.9.0, https://matplotlib.org/</dc:title>
     </cc:Agent>
    </dc:creator>
   </cc:Work>
  </rdf:RDF>
 </metadata>
 <defs>
  <style type="text/css">*{stroke-linejoin: round; stroke-linecap: butt}</style>
 </defs>
 <g id="figure_1">
  <g id="patch_1">
   <path d="M 0 423.034375 
L 856.46125 423.034375 
L 856.46125 0 
L 0 0 
z
" style="fill: #ffffff"/>
  </g>
  <g id="axes_1">
   <g id="patch_2">
    <path d="M 43.78125 385.478125 
L 849.26125 385.478125 
L 849.26125 22.318125 
L 43.78125 22.318125 
z
" style="fill: #ffffff"/>
   </g>
   <g id="PolyCollection_1">
    <defs>
     <path id="md92342bbb4" d="M 80.393977 -37.558848 
L 80.393977 -37.55625 
L 84.073648 -37.55625 
L 87.753319 -37.55625 
L 91.432991 -37.55625 
L 95.112662 -37.55625 
L 98.792333 -37.55625 
L 102.472004 -37.55625 
L 106.151675 -37.55625 
L 109.831346 -37.55625 
L 113.511017 -37.55625 
L 117.190688 -37.55625 
L 120.870359 -37.55625 
L 124.55003 -37.55625 
L 128.229701 -37.55625 
L 131.909372 -37.55625 
L 135.589044 -37.55625 
L 139.268715 -37.55625 
L 142.948386 -37.55625 
L 146.628057 -37.55625 
L 150.307728 -37.55625 
L 153.987399 -37.55625 
L 157.66707 -37.55625 
L 161.346741 -37.55625 
L 165.026412 -37.55625 
L 168.706083 -37.55625 
L 172.385754 -37.55625 
L 176.065425 -37.55625 
L 179.745097 -37.55625 
L 183.424768 -37.55625 
L 187.104439 -37.55625 
L 190.78411 -37.55625 
L 194.463781 -37.55625 
L 198.143452 -37.55625 
L 201.823123 -37.55625 
L 205.502794 -37.55625 
L 209.182465 -37.55625 
L 212.862136 -37.55625 
L 216.541807 -37.55625 
L 220.221478 -37.55625 
L 223.901149 -37.55625 
L 227.580821 -37.55625 
L 231.260492 -37.55625 
L 234.940163 -37.55625 
L 238.619834 -37.55625 
L 242.299505 -37.55625 
L 245.979176 -37.55625 
L 249.658847 -37.55625 
L 253.338518 -37.55625 
L 257.018189 -37.55625 
L 260.69786 -37.55625 
L 264.377531 -37.55625 
L 268.057202 -37.55625 
L 271.736874 -37.55625 
L 275.416545 -37.55625 
L 279.096216 -37.55625 
L 282.775887 -37.55625 
L 286.455558 -37.55625 
L 290.135229 -37.55625 
L 293.8149 -37.55625 
L 297.494571 -37.55625 
L 301.174242 -37.55625 
L 304.853913 -37.55625 
L 308.533584 -37.55625 
L 312.213255 -37.55625 
L 315.892927 -37.55625 
L 319.572598 -37.55625 
L 323.252269 -37.55625 
L 326.93194 -37.55625 
L 330.611611 -37.55625 
L 334.291282 -37.55625 
L 337.970953 -37.55625 
L 341.650624 -37.55625 
L 345.330295 -37.55625 
L 349.009966 -37.55625 
L 352.689637 -37.55625 
L 356.369308 -37.55625 
L 360.04898 -37.55625 
L 363.728651 -37.55625 
L 367.408322 -37.55625 
L 371.087993 -37.55625 
L 374.767664 -37.55625 
L 378.447335 -37.55625 
L 382.127006 -37.55625 
L 385.806677 -37.55625 
L 389.486348 -37.55625 
L 393.166019 -37.55625 
L 396.84569 -37.55625 
L 400.525361 -37.55625 
L 404.205033 -37.55625 
L 407.884704 -37.55625 
L 411.564375 -37.55625 
L 415.244046 -37.55625 
L 418.923717 -37.55625 
L 422.603388 -37.55625 
L 426.283059 -37.55625 
L 429.96273 -37.55625 
L 433.642401 -37.55625 
L 437.322072 -37.55625 
L 441.001743 -37.55625 
L 444.681414 -37.55625 
L 448.361086 -37.55625 
L 452.040757 -37.55625 
L 455.720428 -37.55625 
L 459.400099 -37.55625 
L 463.07977 -37.55625 
L 466.759441 -37.55625 
L 470.439112 -37.55625 
L 474.118783 -37.55625 
L 477.798454 -37.55625 
L 481.478125 -37.55625 
L 485.157796 -37.55625 
L 488.837467 -37.55625 
L 492.517139 -37.55625 
L 496.19681 -37.55625 
L 499.876481 -37.55625 
L 503.556152 -37.55625 
L 507.235823 -37.55625 
L 510.915494 -37.55625 
L 514.595165 -37.55625 
L 518.274836 -37.55625 
L 521.954507 -37.55625 
L 525.634178 -37.55625 
L 529.313849 -37.55625 
L 532.99352 -37.55625 
L 536.673192 -37.55625 
L 540.352863 -37.55625 
L 544.032534 -37.55625 
L 547.712205 -37.55625 
L 551.391876 -37.55625 
L 555.071547 -37.55625 
L 558.751218 -37.55625 
L 562.430889 -37.55625 
L 566.11056 -37.55625 
L 569.790231 -37.55625 
L 573.469902 -37.55625 
L 577.149573 -37.55625 
L 580.829245 -37.55625 
L 584.508916 -37.55625 
L 588.188587 -37.55625 
L 591.868258 -37.55625 
L 595.547929 -37.55625 
L 599.2276 -37.55625 
L 602.907271 -37.55625 
L 606.586942 -37.55625 
L 610.266613 -37.55625 
L 613.946284 -37.55625 
L 617.625955 -37.55625 
L 621.305626 -37.55625 
L 624.985298 -37.55625 
L 628.664969 -37.55625 
L 632.34464 -37.55625 
L 636.024311 -37.55625 
L 639.703982 -37.55625 
L 643.383653 -37.55625 
L 647.063324 -37.55625 
L 650.742995 -37.55625 
L 654.422666 -37.55625 
L 658.102337 -37.55625 
L 661.782008 -37.55625 
L 665.461679 -37.55625 
L 669.141351 -37.55625 
L 672.821022 -37.55625 
L 676.500693 -37.55625 
L 680.180364 -37.55625 
L 683.860035 -37.55625 
L 687.539706 -37.55625 
L 691.219377 -37.55625 
L 694.899048 -37.55625 
L 698.578719 -37.55625 
L 702.25839 -37.55625 
L 705.938061 -37.55625 
L 709.617732 -37.55625 
L 713.297403 -37.55625 
L 716.977075 -37.55625 
L 720.656746 -37.55625 
L 724.336417 -37.55625 
L 728.016088 -37.55625 
L 731.695759 -37.55625 
L 735.37543 -37.55625 
L 739.055101 -37.55625 
L 742.734772 -37.55625 
L 746.414443 -37.55625 
L 750.094114 -37.55625 
L 753.773785 -37.55625 
L 757.453456 -37.55625 
L 761.133128 -37.55625 
L 764.812799 -37.55625 
L 768.49247 -37.55625 
L 772.172141 -37.55625 
L 775.851812 -37.55625 
L 779.531483 -37.55625 
L 783.211154 -37.55625 
L 786.890825 -37.55625 
L 790.570496 -37.55625 
L 794.250167 -37.55625 
L 797.929838 -37.55625 
L 801.609509 -37.55625 
L 805.289181 -37.55625 
L 808.968852 -37.55625 
L 812.648523 -37.55625 
L 812.648523 -37.55885 
L 812.648523 -37.55885 
L 808.968852 -37.561773 
L 805.289181 -37.567205 
L 801.609509 -37.576542 
L 797.929838 -37.59136 
L 794.250167 -37.613023 
L 790.570496 -37.642109 
L 786.890825 -37.677847 
L 783.211154 -37.717845 
L 779.531483 -37.75842 
L 775.851812 -37.795582 
L 772.172141 -37.826405 
L 768.49247 -37.850193 
L 764.812799 -37.868821 
L 761.133128 -37.885958 
L 757.453456 -37.905441 
L 753.773785 -37.929574 
L 750.094114 -37.958255 
L 746.414443 -37.989547 
L 742.734772 -38.021733 
L 739.055101 -38.05638 
L 735.37543 -38.101582 
L 731.695759 -38.1745 
L 728.016088 -38.302359 
L 724.336417 -38.521233 
L 720.656746 -38.872255 
L 716.977075 -39.395439 
L 713.297403 -40.122348 
L 709.617732 -41.069992 
L 705.938061 -42.239251 
L 702.25839 -43.620655 
L 698.578719 -45.20813 
L 694.899048 -47.017536 
L 691.219377 -49.103314 
L 687.539706 -51.565426 
L 683.860035 -54.541409 
L 680.180364 -58.18402 
L 676.500693 -62.631019 
L 672.821022 -67.977344 
L 669.141351 -74.259601 
L 665.461679 -81.458924 
L 661.782008 -89.522291 
L 658.102337 -98.396076 
L 654.422666 -108.06077 
L 650.742995 -118.553975 
L 647.063324 -129.971389 
L 643.383653 -142.442304 
L 639.703982 -156.085015 
L 636.024311 -170.95503 
L 632.34464 -187.002282 
L 628.664969 -204.051457 
L 624.985298 -221.812802 
L 621.305626 -239.92107 
L 617.625955 -257.990225 
L 613.946284 -275.664854 
L 610.266613 -292.649906 
L 606.586942 -308.710056 
L 602.907271 -323.645106 
L 599.2276 -337.260641 
L 595.547929 -349.355221 
L 591.868258 -359.734796 
L 588.188587 -368.247543 
L 584.508916 -374.819087 
L 580.829245 -379.467428 
L 577.149573 -382.288914 
L 573.469902 -383.422917 
L 569.790231 -383.013077 
L 566.11056 -381.181458 
L 562.430889 -378.021574 
L 558.751218 -373.605061 
L 555.071547 -367.991905 
L 551.391876 -361.23731 
L 547.712205 -353.395358 
L 544.032534 -344.524348 
L 540.352863 -334.697722 
L 536.673192 -324.018966 
L 532.99352 -312.633676 
L 529.313849 -300.731204 
L 525.634178 -288.532984 
L 521.954507 -276.271367 
L 518.274836 -264.167214 
L 514.595165 -252.413666 
L 510.915494 -241.168703 
L 507.235823 -230.553705 
L 503.556152 -220.652916 
L 499.876481 -211.510419 
L 496.19681 -203.125244 
L 492.517139 -195.448605 
L 488.837467 -188.387827 
L 485.157796 -181.819123 
L 481.478125 -175.607526 
L 477.798454 -169.628939 
L 474.118783 -163.787734 
L 470.439112 -158.024396 
L 466.759441 -152.311165 
L 463.07977 -146.638717 
L 459.400099 -141.001512 
L 455.720428 -135.390951 
L 452.040757 -129.801972 
L 448.361086 -124.251055 
L 444.681414 -118.795816 
L 441.001743 -113.543371 
L 437.322072 -108.639105 
L 433.642401 -104.237339 
L 429.96273 -100.464737 
L 426.283059 -97.390615 
L 422.603388 -95.013836 
L 418.923717 -93.267256 
L 415.244046 -92.033432 
L 411.564375 -91.163531 
L 407.884704 -90.494769 
L 404.205033 -89.866574 
L 400.525361 -89.137799 
L 396.84569 -88.205223 
L 393.166019 -87.01934 
L 389.486348 -85.590798 
L 385.806677 -83.982639 
L 382.127006 -82.289133 
L 378.447335 -80.608078 
L 374.767664 -79.016173 
L 371.087993 -77.554824 
L 367.408322 -76.228364 
L 363.728651 -75.011597 
L 360.04898 -73.861474 
L 356.369308 -72.72889 
L 352.689637 -71.569097 
L 349.009966 -70.350703 
L 345.330295 -69.062761 
L 341.650624 -67.717895 
L 337.970953 -66.348829 
L 334.291282 -64.997574 
L 330.611611 -63.700214 
L 326.93194 -62.473539 
L 323.252269 -61.309942 
L 319.572598 -60.183264 
L 315.892927 -59.062626 
L 312.213255 -57.92708 
L 308.533584 -56.773959 
L 304.853913 -55.617903 
L 301.174242 -54.48294 
L 297.494571 -53.393257 
L 293.8149 -52.367678 
L 290.135229 -51.419322 
L 286.455558 -50.558206 
L 282.775887 -49.793098 
L 279.096216 -49.130187 
L 275.416545 -48.568985 
L 271.736874 -48.098022 
L 268.057202 -47.693247 
L 264.377531 -47.320635 
L 260.69786 -46.94241 
L 257.018189 -46.524841 
L 253.338518 -46.04513 
L 249.658847 -45.495525 
L 245.979176 -44.883842 
L 242.299505 -44.230636 
L 238.619834 -43.564079 
L 234.940163 -42.914041 
L 231.260492 -42.306771 
L 227.580821 -41.76125 
L 223.901149 -41.28765 
L 220.221478 -40.887781 
L 216.541807 -40.556963 
L 212.862136 -40.286509 
L 209.182465 -40.066045 
L 205.502794 -39.885105 
L 201.823123 -39.733855 
L 198.143452 -39.603185 
L 194.463781 -39.484619 
L 190.78411 -39.370411 
L 187.104439 -39.253968 
L 183.424768 -39.130449 
L 179.745097 -38.997238 
L 176.065425 -38.854094 
L 172.385754 -38.702935 
L 168.706083 -38.547393 
L 165.026412 -38.392324 
L 161.346741 -38.243358 
L 157.66707 -38.106478 
L 153.987399 -37.987512 
L 150.307728 -37.891448 
L 146.628057 -37.82159 
L 142.948386 -37.778718 
L 139.268715 -37.760486 
L 135.589044 -37.761383 
L 131.909372 -37.773432 
L 128.229701 -37.787641 
L 124.55003 -37.795872 
L 120.870359 -37.792607 
L 117.190688 -37.776 
L 113.511017 -37.747845 
L 109.831346 -37.712519 
L 106.151675 -37.675344 
L 102.472004 -37.641012 
L 98.792333 -37.612574 
L 95.112662 -37.591189 
L 91.432991 -37.576481 
L 87.753319 -37.567185 
L 84.073648 -37.561767 
L 80.393977 -37.558848 
z
" style="stroke: #1f77b4"/>
    </defs>
    <g clip-path="url(#p08aa6a038e)">
     <use xlink:href="#md92342bbb4" x="0" y="423.034375" style="fill: #1f77b4; fill-opacity: 0.25; stroke: #1f77b4"/>
    </g>
   </g>
   <g id="matplotlib.axis_1">
    <g id="xtick_1">
     <g id="line2d_1">
      <defs>
       <path id="m14a9824959" d="M 0 0 
L 0 3.5 
" style="stroke: #000000; stroke-width: 0.8"/>
      </defs>
      <g>
       <use xlink:href="#m14a9824959" x="161.336664" y="385.478125" style="stroke: #000000; stroke-width: 0.8"/>
      </g>
     </g>
     <g id="text_1">
      <!-- 1 -->
      <g transform="translate(158.155414 400.076562) scale(0.1 -0.1)">
       <defs>
        <path id="DejaVuSans-31" d="M 794 531 
L 1825 531 
L 1825 4091 
L 703 3866 
L 703 4441 
L 1819 4666 
L 2450 4666 
L 2450 531 
L 3481 531 
L 3481 0 
L 794 0 
L 794 531 
z
" transform="scale(0.015625)"/>
       </defs>
       <use xlink:href="#DejaVuSans-31"/>
      </g>
     </g>
    </g>
    <g id="xtick_2">
     <g id="line2d_2">
      <g>
       <use xlink:href="#m14a9824959" x="290.966021" y="385.478125" style="stroke: #000000; stroke-width: 0.8"/>
      </g>
     </g>
     <g id="text_2">
      <!-- 2 -->
      <g transform="translate(287.784771 400.076562) scale(0.1 -0.1)">
       <defs>
        <path id="DejaVuSans-32" d="M 1228 531 
L 3431 531 
L 3431 0 
L 469 0 
L 469 531 
Q 828 903 1448 1529 
Q 2069 2156 2228 2338 
Q 2531 2678 2651 2914 
Q 2772 3150 2772 3378 
Q 2772 3750 2511 3984 
Q 2250 4219 1831 4219 
Q 1534 4219 1204 4116 
Q 875 4013 500 3803 
L 500 4441 
Q 881 4594 1212 4672 
Q 1544 4750 1819 4750 
Q 2544 4750 2975 4387 
Q 3406 4025 3406 3419 
Q 3406 3131 3298 2873 
Q 3191 2616 2906 2266 
Q 2828 2175 2409 1742 
Q 1991 1309 1228 531 
z
" transform="scale(0.015625)"/>
       </defs>
       <use xlink:href="#DejaVuSans-32"/>
      </g>
     </g>
    </g>
    <g id="xtick_3">
     <g id="line2d_3">
      <g>
       <use xlink:href="#m14a9824959" x="420.595379" y="385.478125" style="stroke: #000000; stroke-width: 0.8"/>
      </g>
     </g>
     <g id="text_3">
      <!-- 3 -->
      <g transform="translate(417.414129 400.076562) scale(0.1 -0.1)">
       <defs>
        <path id="DejaVuSans-33" d="M 2597 2516 
Q 3050 2419 3304 2112 
Q 3559 1806 3559 1356 
Q 3559 666 3084 287 
Q 2609 -91 1734 -91 
Q 1441 -91 1130 -33 
Q 819 25 488 141 
L 488 750 
Q 750 597 1062 519 
Q 1375 441 1716 441 
Q 2309 441 2620 675 
Q 2931 909 2931 1356 
Q 2931 1769 2642 2001 
Q 2353 2234 1838 2234 
L 1294 2234 
L 1294 2753 
L 1863 2753 
Q 2328 2753 2575 2939 
Q 2822 3125 2822 3475 
Q 2822 3834 2567 4026 
Q 2313 4219 1838 4219 
Q 1578 4219 1281 4162 
Q 984 4106 628 3988 
L 628 4550 
Q 988 4650 1302 4700 
Q 1616 4750 1894 4750 
Q 2613 4750 3031 4423 
Q 3450 4097 3450 3541 
Q 3450 3153 3228 2886 
Q 3006 2619 2597 2516 
z
" transform="scale(0.015625)"/>
       </defs>
       <use xlink:href="#DejaVuSans-33"/>
      </g>
     </g>
    </g>
    <g id="xtick_4">
     <g id="line2d_4">
      <g>
       <use xlink:href="#m14a9824959" x="550.224736" y="385.478125" style="stroke: #000000; stroke-width: 0.8"/>
      </g>
     </g>
     <g id="text_4">
      <!-- 4 -->
      <g transform="translate(547.043486 400.076562) scale(0.1 -0.1)">
       <defs>
        <path id="DejaVuSans-34" d="M 2419 4116 
L 825 1625 
L 2419 1625 
L 2419 4116 
z
M 2253 4666 
L 3047 4666 
L 3047 1625 
L 3713 1625 
L 3713 1100 
L 3047 1100 
L 3047 0 
L 2419 0 
L 2419 1100 
L 313 1100 
L 313 1709 
L 2253 4666 
z
" transform="scale(0.015625)"/>
       </defs>
       <use xlink:href="#DejaVuSans-34"/>
      </g>
     </g>
    </g>
    <g id="xtick_5">
     <g id="line2d_5">
      <g>
       <use xlink:href="#m14a9824959" x="679.854093" y="385.478125" style="stroke: #000000; stroke-width: 0.8"/>
      </g>
     </g>
     <g id="text_5">
      <!-- 5 -->
      <g transform="translate(676.672843 400.076562) scale(0.1 -0.1)">
       <defs>
        <path id="DejaVuSans-35" d="M 691 4666 
L 3169 4666 
L 3169 4134 
L 1269 4134 
L 1269 2991 
Q 1406 3038 1543 3061 
Q 1681 3084 1819 3084 
Q 2600 3084 3056 2656 
Q 3513 2228 3513 1497 
Q 3513 744 3044 326 
Q 2575 -91 1722 -91 
Q 1428 -91 1123 -41 
Q 819 9 494 109 
L 494 744 
Q 775 591 1075 516 
Q 1375 441 1709 441 
Q 2250 441 2565 725 
Q 2881 1009 2881 1497 
Q 2881 1984 2565 2268 
Q 2250 2553 1709 2553 
Q 1456 2553 1204 2497 
Q 953 2441 691 2322 
L 691 4666 
z
" transform="scale(0.015625)"/>
       </defs>
       <use xlink:href="#DejaVuSans-35"/>
      </g>
     </g>
    </g>
    <g id="xtick_6">
     <g id="line2d_6">
      <g>
       <use xlink:href="#m14a9824959" x="809.48345" y="385.478125" style="stroke: #000000; stroke-width: 0.8"/>
      </g>
     </g>
     <g id="text_6">
      <!-- 6 -->
      <g transform="translate(806.3022 400.076562) scale(0.1 -0.1)">
       <defs>
        <path id="DejaVuSans-36" d="M 2113 2584 
Q 1688 2584 1439 2293 
Q 1191 2003 1191 1497 
Q 1191 994 1439 701 
Q 1688 409 2113 409 
Q 2538 409 2786 701 
Q 3034 994 3034 1497 
Q 3034 2003 2786 2293 
Q 2538 2584 2113 2584 
z
M 3366 4563 
L 3366 3988 
Q 3128 4100 2886 4159 
Q 2644 4219 2406 4219 
Q 1781 4219 1451 3797 
Q 1122 3375 1075 2522 
Q 1259 2794 1537 2939 
Q 1816 3084 2150 3084 
Q 2853 3084 3261 2657 
Q 3669 2231 3669 1497 
Q 3669 778 3244 343 
Q 2819 -91 2113 -91 
Q 1303 -91 875 529 
Q 447 1150 447 2328 
Q 447 3434 972 4092 
Q 1497 4750 2381 4750 
Q 2619 4750 2861 4703 
Q 3103 4656 3366 4563 
z
" transform="scale(0.015625)"/>
       </defs>
       <use xlink:href="#DejaVuSans-36"/>
      </g>
     </g>
    </g>
    <g id="text_7">
     <!-- Alb -->
     <g transform="translate(438.537656 413.754687) scale(0.1 -0.1)">
      <defs>
       <path id="DejaVuSans-41" d="M 2188 4044 
L 1331 1722 
L 3047 1722 
L 2188 4044 
z
M 1831 4666 
L 2547 4666 
L 4325 0 
L 3669 0 
L 3244 1197 
L 1141 1197 
L 716 0 
L 50 0 
L 1831 4666 
z
" transform="scale(0.015625)"/>
       <path id="DejaVuSans-6c" d="M 603 4863 
L 1178 4863 
L 1178 0 
L 603 0 
L 603 4863 
z
" transform="scale(0.015625)"/>
       <path id="DejaVuSans-62" d="M 3116 1747 
Q 3116 2381 2855 2742 
Q 2594 3103 2138 3103 
Q 1681 3103 1420 2742 
Q 1159 2381 1159 1747 
Q 1159 1113 1420 752 
Q 1681 391 2138 391 
Q 2594 391 2855 752 
Q 3116 1113 3116 1747 
z
M 1159 2969 
Q 1341 3281 1617 3432 
Q 1894 3584 2278 3584 
Q 2916 3584 3314 3078 
Q 3713 2572 3713 1747 
Q 3713 922 3314 415 
Q 2916 -91 2278 -91 
Q 1894 -91 1617 61 
Q 1341 213 1159 525 
L 1159 0 
L 581 0 
L 581 4863 
L 1159 4863 
L 1159 2969 
z
" transform="scale(0.015625)"/>
      </defs>
      <use xlink:href="#DejaVuSans-41"/>
      <use xlink:href="#DejaVuSans-6c" x="68.408203"/>
      <use xlink:href="#DejaVuSans-62" x="96.191406"/>
     </g>
    </g>
   </g>
   <g id="matplotlib.axis_2">
    <g id="ytick_1">
     <g id="line2d_7">
      <defs>
       <path id="mf054d46fe7" d="M 0 0 
L -3.5 0 
" style="stroke: #000000; stroke-width: 0.8"/>
      </defs>
      <g>
       <use xlink:href="#mf054d46fe7" x="43.78125" y="385.478125" style="stroke: #000000; stroke-width: 0.8"/>
      </g>
     </g>
     <g id="text_8">
      <!-- 0.0 -->
      <g transform="translate(20.878125 389.277344) scale(0.1 -0.1)">
       <defs>
        <path id="DejaVuSans-30" d="M 2034 4250 
Q 1547 4250 1301 3770 
Q 1056 3291 1056 2328 
Q 1056 1369 1301 889 
Q 1547 409 2034 409 
Q 2525 409 2770 889 
Q 3016 1369 3016 2328 
Q 3016 3291 2770 3770 
Q 2525 4250 2034 4250 
z
M 2034 4750 
Q 2819 4750 3233 4129 
Q 3647 3509 3647 2328 
Q 3647 1150 3233 529 
Q 2819 -91 2034 -91 
Q 1250 -91 836 529 
Q 422 1150 422 2328 
Q 422 3509 836 4129 
Q 1250 4750 2034 4750 
z
" transform="scale(0.015625)"/>
        <path id="DejaVuSans-2e" d="M 684 794 
L 1344 794 
L 1344 0 
L 684 0 
L 684 794 
z
" transform="scale(0.015625)"/>
       </defs>
       <use xlink:href="#DejaVuSans-30"/>
       <use xlink:href="#DejaVuSans-2e" x="63.623047"/>
       <use xlink:href="#DejaVuSans-30" x="95.410156"/>
      </g>
     </g>
    </g>
    <g id="ytick_2">
     <g id="line2d_8">
      <g>
       <use xlink:href="#mf054d46fe7" x="43.78125" y="343.834739" style="stroke: #000000; stroke-width: 0.8"/>
      </g>
     </g>
     <g id="text_9">
      <!-- 0.1 -->
      <g transform="translate(20.878125 347.633958) scale(0.1 -0.1)">
       <use xlink:href="#DejaVuSans-30"/>
       <use xlink:href="#DejaVuSans-2e" x="63.623047"/>
       <use xlink:href="#DejaVuSans-31" x="95.410156"/>
      </g>
     </g>
    </g>
    <g id="ytick_3">
     <g id="line2d_9">
      <g>
       <use xlink:href="#mf054d46fe7" x="43.78125" y="302.191353" style="stroke: #000000; stroke-width: 0.8"/>
      </g>
     </g>
     <g id="text_10">
      <!-- 0.2 -->
      <g transform="translate(20.878125 305.990572) scale(0.1 -0.1)">
       <use xlink:href="#DejaVuSans-30"/>
       <use xlink:href="#DejaVuSans-2e" x="63.623047"/>
       <use xlink:href="#DejaVuSans-32" x="95.410156"/>
      </g>
     </g>
    </g>
    <g id="ytick_4">
     <g id="line2d_10">
      <g>
       <use xlink:href="#mf054d46fe7" x="43.78125" y="260.547967" style="stroke: #000000; stroke-width: 0.8"/>
      </g>
     </g>
     <g id="text_11">
      <!-- 0.3 -->
      <g transform="translate(20.878125 264.347186) scale(0.1 -0.1)">
       <use xlink:href="#DejaVuSans-30"/>
       <use xlink:href="#DejaVuSans-2e" x="63.623047"/>
       <use xlink:href="#DejaVuSans-33" x="95.410156"/>
      </g>
     </g>
    </g>
    <g id="ytick_5">
     <g id="line2d_11">
      <g>
       <use xlink:href="#mf054d46fe7" x="43.78125" y="218.904581" style="stroke: #000000; stroke-width: 0.8"/>
      </g>
     </g>
     <g id="text_12">
      <!-- 0.4 -->
      <g transform="translate(20.878125 222.7038) scale(0.1 -0.1)">
       <use xlink:href="#DejaVuSans-30"/>
       <use xlink:href="#DejaVuSans-2e" x="63.623047"/>
       <use xlink:href="#DejaVuSans-34" x="95.410156"/>
      </g>
     </g>
    </g>
    <g id="ytick_6">
     <g id="line2d_12">
      <g>
       <use xlink:href="#mf054d46fe7" x="43.78125" y="177.261195" style="stroke: #000000; stroke-width: 0.8"/>
      </g>
     </g>
     <g id="text_13">
      <!-- 0.5 -->
      <g transform="translate(20.878125 181.060414) scale(0.1 -0.1)">
       <use xlink:href="#DejaVuSans-30"/>
       <use xlink:href="#DejaVuSans-2e" x="63.623047"/>
       <use xlink:href="#DejaVuSans-35" x="95.410156"/>
      </g>
     </g>
    </g>
    <g id="ytick_7">
     <g id="line2d_13">
      <g>
       <use xlink:href="#mf054d46fe7" x="43.78125" y="135.617809" style="stroke: #000000; stroke-width: 0.8"/>
      </g>
     </g>
     <g id="text_14">
      <!-- 0.6 -->
      <g transform="translate(20.878125 139.417028) scale(0.1 -0.1)">
       <use xlink:href="#DejaVuSans-30"/>
       <use xlink:href="#DejaVuSans-2e" x="63.623047"/>
       <use xlink:href="#DejaVuSans-36" x="95.410156"/>
      </g>
     </g>
    </g>
    <g id="ytick_8">
     <g id="line2d_14">
      <g>
       <use xlink:href="#mf054d46fe7" x="43.78125" y="93.974423" style="stroke: #000000; stroke-width: 0.8"/>
      </g>
     </g>
     <g id="text_15">
      <!-- 0.7 -->
      <g transform="translate(20.878125 97.773642) scale(0.1 -0.1)">
       <defs>
        <path id="DejaVuSans-37" d="M 525 4666 
L 3525 4666 
L 3525 4397 
L 1831 0 
L 1172 0 
L 2766 4134 
L 525 4134 
L 525 4666 
z
" transform="scale(0.015625)"/>
       </defs>
       <use xlink:href="#DejaVuSans-30"/>
       <use xlink:href="#DejaVuSans-2e" x="63.623047"/>
       <use xlink:href="#DejaVuSans-37" x="95.410156"/>
      </g>
     </g>
    </g>
    <g id="ytick_9">
     <g id="line2d_15">
      <g>
       <use xlink:href="#mf054d46fe7" x="43.78125" y="52.331037" style="stroke: #000000; stroke-width: 0.8"/>
      </g>
     </g>
     <g id="text_16">
      <!-- 0.8 -->
      <g transform="translate(20.878125 56.130256) scale(0.1 -0.1)">
       <defs>
        <path id="DejaVuSans-38" d="M 2034 2216 
Q 1584 2216 1326 1975 
Q 1069 1734 1069 1313 
Q 1069 891 1326 650 
Q 1584 409 2034 409 
Q 2484 409 2743 651 
Q 3003 894 3003 1313 
Q 3003 1734 2745 1975 
Q 2488 2216 2034 2216 
z
M 1403 2484 
Q 997 2584 770 2862 
Q 544 3141 544 3541 
Q 544 4100 942 4425 
Q 1341 4750 2034 4750 
Q 2731 4750 3128 4425 
Q 3525 4100 3525 3541 
Q 3525 3141 3298 2862 
Q 3072 2584 2669 2484 
Q 3125 2378 3379 2068 
Q 3634 1759 3634 1313 
Q 3634 634 3220 271 
Q 2806 -91 2034 -91 
Q 1263 -91 848 271 
Q 434 634 434 1313 
Q 434 1759 690 2068 
Q 947 2378 1403 2484 
z
M 1172 3481 
Q 1172 3119 1398 2916 
Q 1625 2713 2034 2713 
Q 2441 2713 2670 2916 
Q 2900 3119 2900 3481 
Q 2900 3844 2670 4047 
Q 2441 4250 2034 4250 
Q 1625 4250 1398 4047 
Q 1172 3844 1172 3481 
z
" transform="scale(0.015625)"/>
       </defs>
       <use xlink:href="#DejaVuSans-30"/>
       <use xlink:href="#DejaVuSans-2e" x="63.623047"/>
       <use xlink:href="#DejaVuSans-38" x="95.410156"/>
      </g>
     </g>
    </g>
    <g id="text_17">
     <!-- Density -->
     <g transform="translate(14.798438 222.906719) rotate(-90) scale(0.1 -0.1)">
      <defs>
       <path id="DejaVuSans-44" d="M 1259 4147 
L 1259 519 
L 2022 519 
Q 2988 519 3436 956 
Q 3884 1394 3884 2338 
Q 3884 3275 3436 3711 
Q 2988 4147 2022 4147 
L 1259 4147 
z
M 628 4666 
L 1925 4666 
Q 3281 4666 3915 4102 
Q 4550 3538 4550 2338 
Q 4550 1131 3912 565 
Q 3275 0 1925 0 
L 628 0 
L 628 4666 
z
" transform="scale(0.015625)"/>
       <path id="DejaVuSans-65" d="M 3597 1894 
L 3597 1613 
L 953 1613 
Q 991 1019 1311 708 
Q 1631 397 2203 397 
Q 2534 397 2845 478 
Q 3156 559 3463 722 
L 3463 178 
Q 3153 47 2828 -22 
Q 2503 -91 2169 -91 
Q 1331 -91 842 396 
Q 353 884 353 1716 
Q 353 2575 817 3079 
Q 1281 3584 2069 3584 
Q 2775 3584 3186 3129 
Q 3597 2675 3597 1894 
z
M 3022 2063 
Q 3016 2534 2758 2815 
Q 2500 3097 2075 3097 
Q 1594 3097 1305 2825 
Q 1016 2553 972 2059 
L 3022 2063 
z
" transform="scale(0.015625)"/>
       <path id="DejaVuSans-6e" d="M 3513 2113 
L 3513 0 
L 2938 0 
L 2938 2094 
Q 2938 2591 2744 2837 
Q 2550 3084 2163 3084 
Q 1697 3084 1428 2787 
Q 1159 2491 1159 1978 
L 1159 0 
L 581 0 
L 581 3500 
L 1159 3500 
L 1159 2956 
Q 1366 3272 1645 3428 
Q 1925 3584 2291 3584 
Q 2894 3584 3203 3211 
Q 3513 2838 3513 2113 
z
" transform="scale(0.015625)"/>
       <path id="DejaVuSans-73" d="M 2834 3397 
L 2834 2853 
Q 2591 2978 2328 3040 
Q 2066 3103 1784 3103 
Q 1356 3103 1142 2972 
Q 928 2841 928 2578 
Q 928 2378 1081 2264 
Q 1234 2150 1697 2047 
L 1894 2003 
Q 2506 1872 2764 1633 
Q 3022 1394 3022 966 
Q 3022 478 2636 193 
Q 2250 -91 1575 -91 
Q 1294 -91 989 -36 
Q 684 19 347 128 
L 347 722 
Q 666 556 975 473 
Q 1284 391 1588 391 
Q 1994 391 2212 530 
Q 2431 669 2431 922 
Q 2431 1156 2273 1281 
Q 2116 1406 1581 1522 
L 1381 1569 
Q 847 1681 609 1914 
Q 372 2147 372 2553 
Q 372 3047 722 3315 
Q 1072 3584 1716 3584 
Q 2034 3584 2315 3537 
Q 2597 3491 2834 3397 
z
" transform="scale(0.015625)"/>
       <path id="DejaVuSans-69" d="M 603 3500 
L 1178 3500 
L 1178 0 
L 603 0 
L 603 3500 
z
M 603 4863 
L 1178 4863 
L 1178 4134 
L 603 4134 
L 603 4863 
z
" transform="scale(0.015625)"/>
       <path id="DejaVuSans-74" d="M 1172 4494 
L 1172 3500 
L 2356 3500 
L 2356 3053 
L 1172 3053 
L 1172 1153 
Q 1172 725 1289 603 
Q 1406 481 1766 481 
L 2356 481 
L 2356 0 
L 1766 0 
Q 1100 0 847 248 
Q 594 497 594 1153 
L 594 3053 
L 172 3053 
L 172 3500 
L 594 3500 
L 594 4494 
L 1172 4494 
z
" transform="scale(0.015625)"/>
       <path id="DejaVuSans-79" d="M 2059 -325 
Q 1816 -950 1584 -1140 
Q 1353 -1331 966 -1331 
L 506 -1331 
L 506 -850 
L 844 -850 
Q 1081 -850 1212 -737 
Q 1344 -625 1503 -206 
L 1606 56 
L 191 3500 
L 800 3500 
L 1894 763 
L 2988 3500 
L 3597 3500 
L 2059 -325 
z
" transform="scale(0.015625)"/>
      </defs>
      <use xlink:href="#DejaVuSans-44"/>
      <use xlink:href="#DejaVuSans-65" x="77.001953"/>
      <use xlink:href="#DejaVuSans-6e" x="138.525391"/>
      <use xlink:href="#DejaVuSans-73" x="201.904297"/>
      <use xlink:href="#DejaVuSans-69" x="254.003906"/>
      <use xlink:href="#DejaVuSans-74" x="281.787109"/>
      <use xlink:href="#DejaVuSans-79" x="320.996094"/>
     </g>
    </g>
   </g>
   <g id="patch_3">
    <path d="M 43.78125 385.478125 
L 43.78125 22.318125 
" style="fill: none; stroke: #000000; stroke-width: 0.8; stroke-linejoin: miter; stroke-linecap: square"/>
   </g>
   <g id="patch_4">
    <path d="M 849.26125 385.478125 
L 849.26125 22.318125 
" style="fill: none; stroke: #000000; stroke-width: 0.8; stroke-linejoin: miter; stroke-linecap: square"/>
   </g>
   <g id="patch_5">
    <path d="M 43.78125 385.478125 
L 849.26125 385.478125 
" style="fill: none; stroke: #000000; stroke-width: 0.8; stroke-linejoin: miter; stroke-linecap: square"/>
   </g>
   <g id="patch_6">
    <path d="M 43.78125 22.318125 
L 849.26125 22.318125 
" style="fill: none; stroke: #000000; stroke-width: 0.8; stroke-linejoin: miter; stroke-linecap: square"/>
   </g>
   <g id="text_18">
    <!-- Distribution of Alb -->
    <g transform="translate(392.34125 16.318125) scale(0.12 -0.12)">
     <defs>
      <path id="DejaVuSans-72" d="M 2631 2963 
Q 2534 3019 2420 3045 
Q 2306 3072 2169 3072 
Q 1681 3072 1420 2755 
Q 1159 2438 1159 1844 
L 1159 0 
L 581 0 
L 581 3500 
L 1159 3500 
L 1159 2956 
Q 1341 3275 1631 3429 
Q 1922 3584 2338 3584 
Q 2397 3584 2469 3576 
Q 2541 3569 2628 3553 
L 2631 2963 
z
" transform="scale(0.015625)"/>
      <path id="DejaVuSans-75" d="M 544 1381 
L 544 3500 
L 1119 3500 
L 1119 1403 
Q 1119 906 1312 657 
Q 1506 409 1894 409 
Q 2359 409 2629 706 
Q 2900 1003 2900 1516 
L 2900 3500 
L 3475 3500 
L 3475 0 
L 2900 0 
L 2900 538 
Q 2691 219 2414 64 
Q 2138 -91 1772 -91 
Q 1169 -91 856 284 
Q 544 659 544 1381 
z
M 1991 3584 
L 1991 3584 
z
" transform="scale(0.015625)"/>
      <path id="DejaVuSans-6f" d="M 1959 3097 
Q 1497 3097 1228 2736 
Q 959 2375 959 1747 
Q 959 1119 1226 758 
Q 1494 397 1959 397 
Q 2419 397 2687 759 
Q 2956 1122 2956 1747 
Q 2956 2369 2687 2733 
Q 2419 3097 1959 3097 
z
M 1959 3584 
Q 2709 3584 3137 3096 
Q 3566 2609 3566 1747 
Q 3566 888 3137 398 
Q 2709 -91 1959 -91 
Q 1206 -91 779 398 
Q 353 888 353 1747 
Q 353 2609 779 3096 
Q 1206 3584 1959 3584 
z
" transform="scale(0.015625)"/>
      <path id="DejaVuSans-20" transform="scale(0.015625)"/>
      <path id="DejaVuSans-66" d="M 2375 4863 
L 2375 4384 
L 1825 4384 
Q 1516 4384 1395 4259 
Q 1275 4134 1275 3809 
L 1275 3500 
L 2222 3500 
L 2222 3053 
L 1275 3053 
L 1275 0 
L 697 0 
L 697 3053 
L 147 3053 
L 147 3500 
L 697 3500 
L 697 3744 
Q 697 4328 969 4595 
Q 1241 4863 1831 4863 
L 2375 4863 
z
" transform="scale(0.015625)"/>
     </defs>
     <use xlink:href="#DejaVuSans-44"/>
     <use xlink:href="#DejaVuSans-69" x="77.001953"/>
     <use xlink:href="#DejaVuSans-73" x="104.785156"/>
     <use xlink:href="#DejaVuSans-74" x="156.884766"/>
     <use xlink:href="#DejaVuSans-72" x="196.09375"/>
     <use xlink:href="#DejaVuSans-69" x="237.207031"/>
     <use xlink:href="#DejaVuSans-62" x="264.990234"/>
     <use xlink:href="#DejaVuSans-75" x="328.466797"/>
     <use xlink:href="#DejaVuSans-74" x="391.845703"/>
     <use xlink:href="#DejaVuSans-69" x="431.054688"/>
     <use xlink:href="#DejaVuSans-6f" x="458.837891"/>
     <use xlink:href="#DejaVuSans-6e" x="520.019531"/>
     <use xlink:href="#DejaVuSans-20" x="583.398438"/>
     <use xlink:href="#DejaVuSans-6f" x="615.185547"/>
     <use xlink:href="#DejaVuSans-66" x="676.367188"/>
     <use xlink:href="#DejaVuSans-20" x="711.572266"/>
     <use xlink:href="#DejaVuSans-41" x="743.359375"/>
     <use xlink:href="#DejaVuSans-6c" x="811.767578"/>
     <use xlink:href="#DejaVuSans-62" x="839.550781"/>
    </g>
   </g>
  </g>
 </g>
 <defs>
  <clipPath id="p08aa6a038e">
   <rect x="43.78125" y="22.318125" width="805.48" height="363.16"/>
  </clipPath>
 </defs>
</svg>
