<?xml version="1.0" encoding="utf-8" standalone="no"?>
<!DOCTYPE svg PUBLIC "-//W3C//DTD SVG 1.1//EN"
  "http://www.w3.org/Graphics/SVG/1.1/DTD/svg11.dtd">
<svg xmlns:xlink="http://www.w3.org/1999/xlink" width="856.64875pt" height="423.034375pt" viewBox="0 0 856.64875 423.034375" xmlns="http://www.w3.org/2000/svg" version="1.1">
 <metadata>
  <rdf:RDF xmlns:dc="http://purl.org/dc/elements/1.1/" xmlns:cc="http://creativecommons.org/ns#" xmlns:rdf="http://www.w3.org/1999/02/22-rdf-syntax-ns#">
   <cc:Work>
    <dc:type rdf:resource="http://purl.org/dc/dcmitype/StillImage"/>
    <dc:date>2024-07-14T15:45:53.004760</dc:date>
    <dc:format>image/svg+xml</dc:format>
    <dc:creator>
     <cc:Agent>
      <dc:title>Matplotlib v3.9.0, https://matplotlib.org/</dc:title>
     </cc:Agent>
    </dc:creator>
   </cc:Work>
  </rdf:RDF>
 </metadata>
 <defs>
  <style type="text/css">*{stroke-linejoin: round; stroke-linecap: butt}</style>
 </defs>
 <g id="figure_1">
  <g id="patch_1">
   <path d="M -0 423.034375 
L 856.64875 423.034375 
L 856.64875 0 
L -0 0 
z
" style="fill: #ffffff"/>
  </g>
  <g id="axes_1">
   <g id="patch_2">
    <path d="M 62.86875 385.478125 
L 849.44875 385.478125 
L 849.44875 22.318125 
L 62.86875 22.318125 
z
" style="fill: #ffffff"/>
   </g>
   <g id="PolyCollection_1">
    <defs>
     <path id="md9f988af0e" d="M 98.622386 -39.433419 
L 98.622386 -37.55625 
L 102.215717 -37.55625 
L 105.809047 -37.55625 
L 109.402377 -37.55625 
L 112.995708 -37.55625 
L 116.589038 -37.55625 
L 120.182368 -37.55625 
L 123.775698 -37.55625 
L 127.369029 -37.55625 
L 130.962359 -37.55625 
L 134.555689 -37.55625 
L 138.14902 -37.55625 
L 141.74235 -37.55625 
L 145.33568 -37.55625 
L 148.92901 -37.55625 
L 152.522341 -37.55625 
L 156.115671 -37.55625 
L 159.709001 -37.55625 
L 163.302332 -37.55625 
L 166.895662 -37.55625 
L 170.488992 -37.55625 
L 174.082322 -37.55625 
L 177.675653 -37.55625 
L 181.268983 -37.55625 
L 184.862313 -37.55625 
L 188.455644 -37.55625 
L 192.048974 -37.55625 
L 195.642304 -37.55625 
L 199.235634 -37.55625 
L 202.828965 -37.55625 
L 206.422295 -37.55625 
L 210.015625 -37.55625 
L 213.608956 -37.55625 
L 217.202286 -37.55625 
L 220.795616 -37.55625 
L 224.388946 -37.55625 
L 227.982277 -37.55625 
L 231.575607 -37.55625 
L 235.168937 -37.55625 
L 238.762268 -37.55625 
L 242.355598 -37.55625 
L 245.948928 -37.55625 
L 249.542258 -37.55625 
L 253.135589 -37.55625 
L 256.728919 -37.55625 
L 260.322249 -37.55625 
L 263.91558 -37.55625 
L 267.50891 -37.55625 
L 271.10224 -37.55625 
L 274.69557 -37.55625 
L 278.288901 -37.55625 
L 281.882231 -37.55625 
L 285.475561 -37.55625 
L 289.068892 -37.55625 
L 292.662222 -37.55625 
L 296.255552 -37.55625 
L 299.848882 -37.55625 
L 303.442213 -37.55625 
L 307.035543 -37.55625 
L 310.628873 -37.55625 
L 314.222204 -37.55625 
L 317.815534 -37.55625 
L 321.408864 -37.55625 
L 325.002194 -37.55625 
L 328.595525 -37.55625 
L 332.188855 -37.55625 
L 335.782185 -37.55625 
L 339.375516 -37.55625 
L 342.968846 -37.55625 
L 346.562176 -37.55625 
L 350.155507 -37.55625 
L 353.748837 -37.55625 
L 357.342167 -37.55625 
L 360.935497 -37.55625 
L 364.528828 -37.55625 
L 368.122158 -37.55625 
L 371.715488 -37.55625 
L 375.308819 -37.55625 
L 378.902149 -37.55625 
L 382.495479 -37.55625 
L 386.088809 -37.55625 
L 389.68214 -37.55625 
L 393.27547 -37.55625 
L 396.8688 -37.55625 
L 400.462131 -37.55625 
L 404.055461 -37.55625 
L 407.648791 -37.55625 
L 411.242121 -37.55625 
L 414.835452 -37.55625 
L 418.428782 -37.55625 
L 422.022112 -37.55625 
L 425.615443 -37.55625 
L 429.208773 -37.55625 
L 432.802103 -37.55625 
L 436.395433 -37.55625 
L 439.988764 -37.55625 
L 443.582094 -37.55625 
L 447.175424 -37.55625 
L 450.768755 -37.55625 
L 454.362085 -37.55625 
L 457.955415 -37.55625 
L 461.548745 -37.55625 
L 465.142076 -37.55625 
L 468.735406 -37.55625 
L 472.328736 -37.55625 
L 475.922067 -37.55625 
L 479.515397 -37.55625 
L 483.108727 -37.55625 
L 486.702057 -37.55625 
L 490.295388 -37.55625 
L 493.888718 -37.55625 
L 497.482048 -37.55625 
L 501.075379 -37.55625 
L 504.668709 -37.55625 
L 508.262039 -37.55625 
L 511.855369 -37.55625 
L 515.4487 -37.55625 
L 519.04203 -37.55625 
L 522.63536 -37.55625 
L 526.228691 -37.55625 
L 529.822021 -37.55625 
L 533.415351 -37.55625 
L 537.008681 -37.55625 
L 540.602012 -37.55625 
L 544.195342 -37.55625 
L 547.788672 -37.55625 
L 551.382003 -37.55625 
L 554.975333 -37.55625 
L 558.568663 -37.55625 
L 562.161993 -37.55625 
L 565.755324 -37.55625 
L 569.348654 -37.55625 
L 572.941984 -37.55625 
L 576.535315 -37.55625 
L 580.128645 -37.55625 
L 583.721975 -37.55625 
L 587.315306 -37.55625 
L 590.908636 -37.55625 
L 594.501966 -37.55625 
L 598.095296 -37.55625 
L 601.688627 -37.55625 
L 605.281957 -37.55625 
L 608.875287 -37.55625 
L 612.468618 -37.55625 
L 616.061948 -37.55625 
L 619.655278 -37.55625 
L 623.248608 -37.55625 
L 626.841939 -37.55625 
L 630.435269 -37.55625 
L 634.028599 -37.55625 
L 637.62193 -37.55625 
L 641.21526 -37.55625 
L 644.80859 -37.55625 
L 648.40192 -37.55625 
L 651.995251 -37.55625 
L 655.588581 -37.55625 
L 659.181911 -37.55625 
L 662.775242 -37.55625 
L 666.368572 -37.55625 
L 669.961902 -37.55625 
L 673.555232 -37.55625 
L 677.148563 -37.55625 
L 680.741893 -37.55625 
L 684.335223 -37.55625 
L 687.928554 -37.55625 
L 691.521884 -37.55625 
L 695.115214 -37.55625 
L 698.708544 -37.55625 
L 702.301875 -37.55625 
L 705.895205 -37.55625 
L 709.488535 -37.55625 
L 713.081866 -37.55625 
L 716.675196 -37.55625 
L 720.268526 -37.55625 
L 723.861856 -37.55625 
L 727.455187 -37.55625 
L 731.048517 -37.55625 
L 734.641847 -37.55625 
L 738.235178 -37.55625 
L 741.828508 -37.55625 
L 745.421838 -37.55625 
L 749.015168 -37.55625 
L 752.608499 -37.55625 
L 756.201829 -37.55625 
L 759.795159 -37.55625 
L 763.38849 -37.55625 
L 766.98182 -37.55625 
L 770.57515 -37.55625 
L 774.16848 -37.55625 
L 777.761811 -37.55625 
L 781.355141 -37.55625 
L 784.948471 -37.55625 
L 788.541802 -37.55625 
L 792.135132 -37.55625 
L 795.728462 -37.55625 
L 799.321792 -37.55625 
L 802.915123 -37.55625 
L 806.508453 -37.55625 
L 810.101783 -37.55625 
L 813.695114 -37.55625 
L 813.695114 -37.557217 
L 813.695114 -37.557217 
L 810.101783 -37.564731 
L 806.508453 -37.592865 
L 802.915123 -37.634039 
L 799.321792 -37.637579 
L 795.728462 -37.598095 
L 792.135132 -37.566845 
L 788.541802 -37.55757 
L 784.948471 -37.556331 
L 781.355141 -37.556252 
L 777.761811 -37.55625 
L 774.16848 -37.55625 
L 770.57515 -37.55625 
L 766.98182 -37.55625 
L 763.38849 -37.55625 
L 759.795159 -37.55625 
L 756.201829 -37.55625 
L 752.608499 -37.55625 
L 749.015168 -37.55625 
L 745.421838 -37.55625 
L 741.828508 -37.55625 
L 738.235178 -37.55625 
L 734.641847 -37.556251 
L 731.048517 -37.556283 
L 727.455187 -37.556905 
L 723.861856 -37.562648 
L 720.268526 -37.586986 
L 716.675196 -37.628912 
L 713.081866 -37.640785 
L 709.488535 -37.60465 
L 705.895205 -37.569887 
L 702.301875 -37.558141 
L 698.708544 -37.556379 
L 695.115214 -37.556254 
L 691.521884 -37.55625 
L 687.928554 -37.55625 
L 684.335223 -37.55625 
L 680.741893 -37.55625 
L 677.148563 -37.55625 
L 673.555232 -37.55625 
L 669.961902 -37.55625 
L 666.368572 -37.55625 
L 662.775242 -37.55625 
L 659.181911 -37.55625 
L 655.588581 -37.55625 
L 651.995251 -37.55625 
L 648.40192 -37.55625 
L 644.80859 -37.55625 
L 641.21526 -37.55625 
L 637.62193 -37.55625 
L 634.028599 -37.55625 
L 630.435269 -37.55625 
L 626.841939 -37.55625 
L 623.248608 -37.55625 
L 619.655278 -37.55625 
L 616.061948 -37.55625 
L 612.468618 -37.55625 
L 608.875287 -37.55625 
L 605.281957 -37.55625 
L 601.688627 -37.55626 
L 598.095296 -37.556506 
L 594.501966 -37.559438 
L 590.908636 -37.575747 
L 587.315306 -37.61494 
L 583.721975 -37.643191 
L 580.128645 -37.619631 
L 576.535315 -37.578995 
L 572.941984 -37.560458 
L 569.348654 -37.559174 
L 565.755324 -37.573139 
L 562.161993 -37.610658 
L 558.568663 -37.64258 
L 554.975333 -37.623662 
L 551.382003 -37.582155 
L 547.788672 -37.561149 
L 544.195342 -37.556706 
L 540.602012 -37.556271 
L 537.008681 -37.55625 
L 533.415351 -37.55625 
L 529.822021 -37.55625 
L 526.228691 -37.55625 
L 522.63536 -37.55625 
L 519.04203 -37.556271 
L 515.4487 -37.556715 
L 511.855369 -37.561218 
L 508.262039 -37.582393 
L 504.668709 -37.623973 
L 501.075379 -37.643101 
L 497.482048 -37.616248 
L 493.888718 -37.602141 
L 490.295388 -37.629883 
L 486.702057 -37.641643 
L 483.108727 -37.606507 
L 479.515397 -37.570834 
L 475.922067 -37.558333 
L 472.328736 -37.556396 
L 468.735406 -37.556255 
L 465.142076 -37.55625 
L 461.548745 -37.55625 
L 457.955415 -37.55625 
L 454.362085 -37.55625 
L 450.768755 -37.55625 
L 447.175424 -37.55625 
L 443.582094 -37.55625 
L 439.988764 -37.55625 
L 436.395433 -37.55625 
L 432.802103 -37.55625 
L 429.208773 -37.55625 
L 425.615443 -37.55625 
L 422.022112 -37.556251 
L 418.428782 -37.556283 
L 414.835452 -37.556901 
L 411.242121 -37.562619 
L 407.648791 -37.586898 
L 404.055461 -37.628827 
L 400.462131 -37.640894 
L 396.8688 -37.605915 
L 393.27547 -37.579616 
L 389.68214 -37.597804 
L 386.088809 -37.636335 
L 382.495479 -37.635595 
L 378.902149 -37.595008 
L 375.308819 -37.565883 
L 371.715488 -37.561135 
L 368.122158 -37.578179 
L 364.528828 -37.618437 
L 360.935497 -37.643495 
L 357.342167 -37.619215 
L 353.748837 -37.596543 
L 350.155507 -37.6283 
L 346.562176 -37.687345 
L 342.968846 -37.703713 
L 339.375516 -37.65629 
L 335.782185 -37.595148 
L 332.188855 -37.564359 
L 328.595525 -37.557116 
L 325.002194 -37.556297 
L 321.408864 -37.55627 
L 317.815534 -37.556663 
L 314.222204 -37.56085 
L 310.628873 -37.581914 
L 307.035543 -37.630831 
L 303.442213 -37.680038 
L 299.848882 -37.690499 
L 296.255552 -37.655086 
L 292.662222 -37.600333 
L 289.068892 -37.56702 
L 285.475561 -37.560441 
L 281.882231 -37.577778 
L 278.288901 -37.638994 
L 274.69557 -37.732979 
L 271.10224 -37.794495 
L 267.50891 -37.79455 
L 263.91558 -37.730848 
L 260.322249 -37.636945 
L 256.728919 -37.591814 
L 253.135589 -37.638203 
L 249.542258 -37.782501 
L 245.948928 -37.99088 
L 242.355598 -38.199126 
L 238.762268 -38.288525 
L 235.168937 -38.223804 
L 231.575607 -38.179157 
L 227.982277 -38.311963 
L 224.388946 -38.565241 
L 220.795616 -38.801091 
L 217.202286 -39.107891 
L 213.608956 -39.51285 
L 210.015625 -39.682779 
L 206.422295 -39.555857 
L 202.828965 -39.552591 
L 199.235634 -39.890444 
L 195.642304 -40.385292 
L 192.048974 -40.903854 
L 188.455644 -41.540206 
L 184.862313 -42.100904 
L 181.268983 -42.436111 
L 177.675653 -43.010097 
L 174.082322 -44.241774 
L 170.488992 -45.906219 
L 166.895662 -47.373889 
L 163.302332 -48.585336 
L 159.709001 -50.372262 
L 156.115671 -53.075042 
L 152.522341 -56.38559 
L 148.92901 -59.723297 
L 145.33568 -62.791158 
L 141.74235 -66.376879 
L 138.14902 -71.769602 
L 134.555689 -80.270439 
L 130.962359 -93.575125 
L 127.369029 -113.7246 
L 123.775698 -147.604939 
L 120.182368 -216.635263 
L 116.589038 -327.107482 
L 112.995708 -383.422917 
L 109.402377 -283.629735 
L 105.809047 -131.937646 
L 102.215717 -56.257295 
L 98.622386 -39.433419 
z
" style="stroke: #1f77b4"/>
    </defs>
    <g clip-path="url(#pf0570483cc)">
     <use xlink:href="#md9f988af0e" x="0" y="423.034375" style="fill: #1f77b4; fill-opacity: 0.25; stroke: #1f77b4"/>
    </g>
   </g>
   <g id="matplotlib.axis_1">
    <g id="xtick_1">
     <g id="line2d_1">
      <defs>
       <path id="m81adfa1023" d="M 0 0 
L 0 3.5 
" style="stroke: #000000; stroke-width: 0.8"/>
      </defs>
      <g>
       <use xlink:href="#m81adfa1023" x="111.424593" y="385.478125" style="stroke: #000000; stroke-width: 0.8"/>
      </g>
     </g>
     <g id="text_1">
      <!-- 0 -->
      <g transform="translate(108.243343 400.076562) scale(0.1 -0.1)">
       <defs>
        <path id="DejaVuSans-30" d="M 2034 4250 
Q 1547 4250 1301 3770 
Q 1056 3291 1056 2328 
Q 1056 1369 1301 889 
Q 1547 409 2034 409 
Q 2525 409 2770 889 
Q 3016 1369 3016 2328 
Q 3016 3291 2770 3770 
Q 2525 4250 2034 4250 
z
M 2034 4750 
Q 2819 4750 3233 4129 
Q 3647 3509 3647 2328 
Q 3647 1150 3233 529 
Q 2819 -91 2034 -91 
Q 1250 -91 836 529 
Q 422 1150 422 2328 
Q 422 3509 836 4129 
Q 1250 4750 2034 4750 
z
" transform="scale(0.015625)"/>
       </defs>
       <use xlink:href="#DejaVuSans-30"/>
      </g>
     </g>
    </g>
    <g id="xtick_2">
     <g id="line2d_2">
      <g>
       <use xlink:href="#m81adfa1023" x="225.719853" y="385.478125" style="stroke: #000000; stroke-width: 0.8"/>
      </g>
     </g>
     <g id="text_2">
      <!-- 10000 -->
      <g transform="translate(209.813603 400.076562) scale(0.1 -0.1)">
       <defs>
        <path id="DejaVuSans-31" d="M 794 531 
L 1825 531 
L 1825 4091 
L 703 3866 
L 703 4441 
L 1819 4666 
L 2450 4666 
L 2450 531 
L 3481 531 
L 3481 0 
L 794 0 
L 794 531 
z
" transform="scale(0.015625)"/>
       </defs>
       <use xlink:href="#DejaVuSans-31"/>
       <use xlink:href="#DejaVuSans-30" x="63.623047"/>
       <use xlink:href="#DejaVuSans-30" x="127.246094"/>
       <use xlink:href="#DejaVuSans-30" x="190.869141"/>
       <use xlink:href="#DejaVuSans-30" x="254.492188"/>
      </g>
     </g>
    </g>
    <g id="xtick_3">
     <g id="line2d_3">
      <g>
       <use xlink:href="#m81adfa1023" x="340.015113" y="385.478125" style="stroke: #000000; stroke-width: 0.8"/>
      </g>
     </g>
     <g id="text_3">
      <!-- 20000 -->
      <g transform="translate(324.108863 400.076562) scale(0.1 -0.1)">
       <defs>
        <path id="DejaVuSans-32" d="M 1228 531 
L 3431 531 
L 3431 0 
L 469 0 
L 469 531 
Q 828 903 1448 1529 
Q 2069 2156 2228 2338 
Q 2531 2678 2651 2914 
Q 2772 3150 2772 3378 
Q 2772 3750 2511 3984 
Q 2250 4219 1831 4219 
Q 1534 4219 1204 4116 
Q 875 4013 500 3803 
L 500 4441 
Q 881 4594 1212 4672 
Q 1544 4750 1819 4750 
Q 2544 4750 2975 4387 
Q 3406 4025 3406 3419 
Q 3406 3131 3298 2873 
Q 3191 2616 2906 2266 
Q 2828 2175 2409 1742 
Q 1991 1309 1228 531 
z
" transform="scale(0.015625)"/>
       </defs>
       <use xlink:href="#DejaVuSans-32"/>
       <use xlink:href="#DejaVuSans-30" x="63.623047"/>
       <use xlink:href="#DejaVuSans-30" x="127.246094"/>
       <use xlink:href="#DejaVuSans-30" x="190.869141"/>
       <use xlink:href="#DejaVuSans-30" x="254.492188"/>
      </g>
     </g>
    </g>
    <g id="xtick_4">
     <g id="line2d_4">
      <g>
       <use xlink:href="#m81adfa1023" x="454.310374" y="385.478125" style="stroke: #000000; stroke-width: 0.8"/>
      </g>
     </g>
     <g id="text_4">
      <!-- 30000 -->
      <g transform="translate(438.404124 400.076562) scale(0.1 -0.1)">
       <defs>
        <path id="DejaVuSans-33" d="M 2597 2516 
Q 3050 2419 3304 2112 
Q 3559 1806 3559 1356 
Q 3559 666 3084 287 
Q 2609 -91 1734 -91 
Q 1441 -91 1130 -33 
Q 819 25 488 141 
L 488 750 
Q 750 597 1062 519 
Q 1375 441 1716 441 
Q 2309 441 2620 675 
Q 2931 909 2931 1356 
Q 2931 1769 2642 2001 
Q 2353 2234 1838 2234 
L 1294 2234 
L 1294 2753 
L 1863 2753 
Q 2328 2753 2575 2939 
Q 2822 3125 2822 3475 
Q 2822 3834 2567 4026 
Q 2313 4219 1838 4219 
Q 1578 4219 1281 4162 
Q 984 4106 628 3988 
L 628 4550 
Q 988 4650 1302 4700 
Q 1616 4750 1894 4750 
Q 2613 4750 3031 4423 
Q 3450 4097 3450 3541 
Q 3450 3153 3228 2886 
Q 3006 2619 2597 2516 
z
" transform="scale(0.015625)"/>
       </defs>
       <use xlink:href="#DejaVuSans-33"/>
       <use xlink:href="#DejaVuSans-30" x="63.623047"/>
       <use xlink:href="#DejaVuSans-30" x="127.246094"/>
       <use xlink:href="#DejaVuSans-30" x="190.869141"/>
       <use xlink:href="#DejaVuSans-30" x="254.492188"/>
      </g>
     </g>
    </g>
    <g id="xtick_5">
     <g id="line2d_5">
      <g>
       <use xlink:href="#m81adfa1023" x="568.605634" y="385.478125" style="stroke: #000000; stroke-width: 0.8"/>
      </g>
     </g>
     <g id="text_5">
      <!-- 40000 -->
      <g transform="translate(552.699384 400.076562) scale(0.1 -0.1)">
       <defs>
        <path id="DejaVuSans-34" d="M 2419 4116 
L 825 1625 
L 2419 1625 
L 2419 4116 
z
M 2253 4666 
L 3047 4666 
L 3047 1625 
L 3713 1625 
L 3713 1100 
L 3047 1100 
L 3047 0 
L 2419 0 
L 2419 1100 
L 313 1100 
L 313 1709 
L 2253 4666 
z
" transform="scale(0.015625)"/>
       </defs>
       <use xlink:href="#DejaVuSans-34"/>
       <use xlink:href="#DejaVuSans-30" x="63.623047"/>
       <use xlink:href="#DejaVuSans-30" x="127.246094"/>
       <use xlink:href="#DejaVuSans-30" x="190.869141"/>
       <use xlink:href="#DejaVuSans-30" x="254.492188"/>
      </g>
     </g>
    </g>
    <g id="xtick_6">
     <g id="line2d_6">
      <g>
       <use xlink:href="#m81adfa1023" x="682.900894" y="385.478125" style="stroke: #000000; stroke-width: 0.8"/>
      </g>
     </g>
     <g id="text_6">
      <!-- 50000 -->
      <g transform="translate(666.994644 400.076562) scale(0.1 -0.1)">
       <defs>
        <path id="DejaVuSans-35" d="M 691 4666 
L 3169 4666 
L 3169 4134 
L 1269 4134 
L 1269 2991 
Q 1406 3038 1543 3061 
Q 1681 3084 1819 3084 
Q 2600 3084 3056 2656 
Q 3513 2228 3513 1497 
Q 3513 744 3044 326 
Q 2575 -91 1722 -91 
Q 1428 -91 1123 -41 
Q 819 9 494 109 
L 494 744 
Q 775 591 1075 516 
Q 1375 441 1709 441 
Q 2250 441 2565 725 
Q 2881 1009 2881 1497 
Q 2881 1984 2565 2268 
Q 2250 2553 1709 2553 
Q 1456 2553 1204 2497 
Q 953 2441 691 2322 
L 691 4666 
z
" transform="scale(0.015625)"/>
       </defs>
       <use xlink:href="#DejaVuSans-35"/>
       <use xlink:href="#DejaVuSans-30" x="63.623047"/>
       <use xlink:href="#DejaVuSans-30" x="127.246094"/>
       <use xlink:href="#DejaVuSans-30" x="190.869141"/>
       <use xlink:href="#DejaVuSans-30" x="254.492188"/>
      </g>
     </g>
    </g>
    <g id="xtick_7">
     <g id="line2d_7">
      <g>
       <use xlink:href="#m81adfa1023" x="797.196154" y="385.478125" style="stroke: #000000; stroke-width: 0.8"/>
      </g>
     </g>
     <g id="text_7">
      <!-- 60000 -->
      <g transform="translate(781.289904 400.076562) scale(0.1 -0.1)">
       <defs>
        <path id="DejaVuSans-36" d="M 2113 2584 
Q 1688 2584 1439 2293 
Q 1191 2003 1191 1497 
Q 1191 994 1439 701 
Q 1688 409 2113 409 
Q 2538 409 2786 701 
Q 3034 994 3034 1497 
Q 3034 2003 2786 2293 
Q 2538 2584 2113 2584 
z
M 3366 4563 
L 3366 3988 
Q 3128 4100 2886 4159 
Q 2644 4219 2406 4219 
Q 1781 4219 1451 3797 
Q 1122 3375 1075 2522 
Q 1259 2794 1537 2939 
Q 1816 3084 2150 3084 
Q 2853 3084 3261 2657 
Q 3669 2231 3669 1497 
Q 3669 778 3244 343 
Q 2819 -91 2113 -91 
Q 1303 -91 875 529 
Q 447 1150 447 2328 
Q 447 3434 972 4092 
Q 1497 4750 2381 4750 
Q 2619 4750 2861 4703 
Q 3103 4656 3366 4563 
z
" transform="scale(0.015625)"/>
       </defs>
       <use xlink:href="#DejaVuSans-36"/>
       <use xlink:href="#DejaVuSans-30" x="63.623047"/>
       <use xlink:href="#DejaVuSans-30" x="127.246094"/>
       <use xlink:href="#DejaVuSans-30" x="190.869141"/>
       <use xlink:href="#DejaVuSans-30" x="254.492188"/>
      </g>
     </g>
    </g>
    <g id="text_8">
     <!-- ACR -->
     <g transform="translate(445.860313 413.754687) scale(0.1 -0.1)">
      <defs>
       <path id="DejaVuSans-41" d="M 2188 4044 
L 1331 1722 
L 3047 1722 
L 2188 4044 
z
M 1831 4666 
L 2547 4666 
L 4325 0 
L 3669 0 
L 3244 1197 
L 1141 1197 
L 716 0 
L 50 0 
L 1831 4666 
z
" transform="scale(0.015625)"/>
       <path id="DejaVuSans-43" d="M 4122 4306 
L 4122 3641 
Q 3803 3938 3442 4084 
Q 3081 4231 2675 4231 
Q 1875 4231 1450 3742 
Q 1025 3253 1025 2328 
Q 1025 1406 1450 917 
Q 1875 428 2675 428 
Q 3081 428 3442 575 
Q 3803 722 4122 1019 
L 4122 359 
Q 3791 134 3420 21 
Q 3050 -91 2638 -91 
Q 1578 -91 968 557 
Q 359 1206 359 2328 
Q 359 3453 968 4101 
Q 1578 4750 2638 4750 
Q 3056 4750 3426 4639 
Q 3797 4528 4122 4306 
z
" transform="scale(0.015625)"/>
       <path id="DejaVuSans-52" d="M 2841 2188 
Q 3044 2119 3236 1894 
Q 3428 1669 3622 1275 
L 4263 0 
L 3584 0 
L 2988 1197 
Q 2756 1666 2539 1819 
Q 2322 1972 1947 1972 
L 1259 1972 
L 1259 0 
L 628 0 
L 628 4666 
L 2053 4666 
Q 2853 4666 3247 4331 
Q 3641 3997 3641 3322 
Q 3641 2881 3436 2590 
Q 3231 2300 2841 2188 
z
M 1259 4147 
L 1259 2491 
L 2053 2491 
Q 2509 2491 2742 2702 
Q 2975 2913 2975 3322 
Q 2975 3731 2742 3939 
Q 2509 4147 2053 4147 
L 1259 4147 
z
" transform="scale(0.015625)"/>
      </defs>
      <use xlink:href="#DejaVuSans-41"/>
      <use xlink:href="#DejaVuSans-43" x="66.658203"/>
      <use xlink:href="#DejaVuSans-52" x="136.482422"/>
     </g>
    </g>
   </g>
   <g id="matplotlib.axis_2">
    <g id="ytick_1">
     <g id="line2d_8">
      <defs>
       <path id="m3e02148c55" d="M 0 0 
L -3.5 0 
" style="stroke: #000000; stroke-width: 0.8"/>
      </defs>
      <g>
       <use xlink:href="#m3e02148c55" x="62.86875" y="385.478125" style="stroke: #000000; stroke-width: 0.8"/>
      </g>
     </g>
     <g id="text_9">
      <!-- 0.0000 -->
      <g transform="translate(20.878125 389.277344) scale(0.1 -0.1)">
       <defs>
        <path id="DejaVuSans-2e" d="M 684 794 
L 1344 794 
L 1344 0 
L 684 0 
L 684 794 
z
" transform="scale(0.015625)"/>
       </defs>
       <use xlink:href="#DejaVuSans-30"/>
       <use xlink:href="#DejaVuSans-2e" x="63.623047"/>
       <use xlink:href="#DejaVuSans-30" x="95.410156"/>
       <use xlink:href="#DejaVuSans-30" x="159.033203"/>
       <use xlink:href="#DejaVuSans-30" x="222.65625"/>
       <use xlink:href="#DejaVuSans-30" x="286.279297"/>
      </g>
     </g>
    </g>
    <g id="ytick_2">
     <g id="line2d_9">
      <g>
       <use xlink:href="#m3e02148c55" x="62.86875" y="331.972046" style="stroke: #000000; stroke-width: 0.8"/>
      </g>
     </g>
     <g id="text_10">
      <!-- 0.0001 -->
      <g transform="translate(20.878125 335.771265) scale(0.1 -0.1)">
       <use xlink:href="#DejaVuSans-30"/>
       <use xlink:href="#DejaVuSans-2e" x="63.623047"/>
       <use xlink:href="#DejaVuSans-30" x="95.410156"/>
       <use xlink:href="#DejaVuSans-30" x="159.033203"/>
       <use xlink:href="#DejaVuSans-30" x="222.65625"/>
       <use xlink:href="#DejaVuSans-31" x="286.279297"/>
      </g>
     </g>
    </g>
    <g id="ytick_3">
     <g id="line2d_10">
      <g>
       <use xlink:href="#m3e02148c55" x="62.86875" y="278.465967" style="stroke: #000000; stroke-width: 0.8"/>
      </g>
     </g>
     <g id="text_11">
      <!-- 0.0002 -->
      <g transform="translate(20.878125 282.265186) scale(0.1 -0.1)">
       <use xlink:href="#DejaVuSans-30"/>
       <use xlink:href="#DejaVuSans-2e" x="63.623047"/>
       <use xlink:href="#DejaVuSans-30" x="95.410156"/>
       <use xlink:href="#DejaVuSans-30" x="159.033203"/>
       <use xlink:href="#DejaVuSans-30" x="222.65625"/>
       <use xlink:href="#DejaVuSans-32" x="286.279297"/>
      </g>
     </g>
    </g>
    <g id="ytick_4">
     <g id="line2d_11">
      <g>
       <use xlink:href="#m3e02148c55" x="62.86875" y="224.959888" style="stroke: #000000; stroke-width: 0.8"/>
      </g>
     </g>
     <g id="text_12">
      <!-- 0.0003 -->
      <g transform="translate(20.878125 228.759107) scale(0.1 -0.1)">
       <use xlink:href="#DejaVuSans-30"/>
       <use xlink:href="#DejaVuSans-2e" x="63.623047"/>
       <use xlink:href="#DejaVuSans-30" x="95.410156"/>
       <use xlink:href="#DejaVuSans-30" x="159.033203"/>
       <use xlink:href="#DejaVuSans-30" x="222.65625"/>
       <use xlink:href="#DejaVuSans-33" x="286.279297"/>
      </g>
     </g>
    </g>
    <g id="ytick_5">
     <g id="line2d_12">
      <g>
       <use xlink:href="#m3e02148c55" x="62.86875" y="171.453809" style="stroke: #000000; stroke-width: 0.8"/>
      </g>
     </g>
     <g id="text_13">
      <!-- 0.0004 -->
      <g transform="translate(20.878125 175.253028) scale(0.1 -0.1)">
       <use xlink:href="#DejaVuSans-30"/>
       <use xlink:href="#DejaVuSans-2e" x="63.623047"/>
       <use xlink:href="#DejaVuSans-30" x="95.410156"/>
       <use xlink:href="#DejaVuSans-30" x="159.033203"/>
       <use xlink:href="#DejaVuSans-30" x="222.65625"/>
       <use xlink:href="#DejaVuSans-34" x="286.279297"/>
      </g>
     </g>
    </g>
    <g id="ytick_6">
     <g id="line2d_13">
      <g>
       <use xlink:href="#m3e02148c55" x="62.86875" y="117.94773" style="stroke: #000000; stroke-width: 0.8"/>
      </g>
     </g>
     <g id="text_14">
      <!-- 0.0005 -->
      <g transform="translate(20.878125 121.746949) scale(0.1 -0.1)">
       <use xlink:href="#DejaVuSans-30"/>
       <use xlink:href="#DejaVuSans-2e" x="63.623047"/>
       <use xlink:href="#DejaVuSans-30" x="95.410156"/>
       <use xlink:href="#DejaVuSans-30" x="159.033203"/>
       <use xlink:href="#DejaVuSans-30" x="222.65625"/>
       <use xlink:href="#DejaVuSans-35" x="286.279297"/>
      </g>
     </g>
    </g>
    <g id="ytick_7">
     <g id="line2d_14">
      <g>
       <use xlink:href="#m3e02148c55" x="62.86875" y="64.441651" style="stroke: #000000; stroke-width: 0.8"/>
      </g>
     </g>
     <g id="text_15">
      <!-- 0.0006 -->
      <g transform="translate(20.878125 68.24087) scale(0.1 -0.1)">
       <use xlink:href="#DejaVuSans-30"/>
       <use xlink:href="#DejaVuSans-2e" x="63.623047"/>
       <use xlink:href="#DejaVuSans-30" x="95.410156"/>
       <use xlink:href="#DejaVuSans-30" x="159.033203"/>
       <use xlink:href="#DejaVuSans-30" x="222.65625"/>
       <use xlink:href="#DejaVuSans-36" x="286.279297"/>
      </g>
     </g>
    </g>
    <g id="text_16">
     <!-- Density -->
     <g transform="translate(14.798438 222.906719) rotate(-90) scale(0.1 -0.1)">
      <defs>
       <path id="DejaVuSans-44" d="M 1259 4147 
L 1259 519 
L 2022 519 
Q 2988 519 3436 956 
Q 3884 1394 3884 2338 
Q 3884 3275 3436 3711 
Q 2988 4147 2022 4147 
L 1259 4147 
z
M 628 4666 
L 1925 4666 
Q 3281 4666 3915 4102 
Q 4550 3538 4550 2338 
Q 4550 1131 3912 565 
Q 3275 0 1925 0 
L 628 0 
L 628 4666 
z
" transform="scale(0.015625)"/>
       <path id="DejaVuSans-65" d="M 3597 1894 
L 3597 1613 
L 953 1613 
Q 991 1019 1311 708 
Q 1631 397 2203 397 
Q 2534 397 2845 478 
Q 3156 559 3463 722 
L 3463 178 
Q 3153 47 2828 -22 
Q 2503 -91 2169 -91 
Q 1331 -91 842 396 
Q 353 884 353 1716 
Q 353 2575 817 3079 
Q 1281 3584 2069 3584 
Q 2775 3584 3186 3129 
Q 3597 2675 3597 1894 
z
M 3022 2063 
Q 3016 2534 2758 2815 
Q 2500 3097 2075 3097 
Q 1594 3097 1305 2825 
Q 1016 2553 972 2059 
L 3022 2063 
z
" transform="scale(0.015625)"/>
       <path id="DejaVuSans-6e" d="M 3513 2113 
L 3513 0 
L 2938 0 
L 2938 2094 
Q 2938 2591 2744 2837 
Q 2550 3084 2163 3084 
Q 1697 3084 1428 2787 
Q 1159 2491 1159 1978 
L 1159 0 
L 581 0 
L 581 3500 
L 1159 3500 
L 1159 2956 
Q 1366 3272 1645 3428 
Q 1925 3584 2291 3584 
Q 2894 3584 3203 3211 
Q 3513 2838 3513 2113 
z
" transform="scale(0.015625)"/>
       <path id="DejaVuSans-73" d="M 2834 3397 
L 2834 2853 
Q 2591 2978 2328 3040 
Q 2066 3103 1784 3103 
Q 1356 3103 1142 2972 
Q 928 2841 928 2578 
Q 928 2378 1081 2264 
Q 1234 2150 1697 2047 
L 1894 2003 
Q 2506 1872 2764 1633 
Q 3022 1394 3022 966 
Q 3022 478 2636 193 
Q 2250 -91 1575 -91 
Q 1294 -91 989 -36 
Q 684 19 347 128 
L 347 722 
Q 666 556 975 473 
Q 1284 391 1588 391 
Q 1994 391 2212 530 
Q 2431 669 2431 922 
Q 2431 1156 2273 1281 
Q 2116 1406 1581 1522 
L 1381 1569 
Q 847 1681 609 1914 
Q 372 2147 372 2553 
Q 372 3047 722 3315 
Q 1072 3584 1716 3584 
Q 2034 3584 2315 3537 
Q 2597 3491 2834 3397 
z
" transform="scale(0.015625)"/>
       <path id="DejaVuSans-69" d="M 603 3500 
L 1178 3500 
L 1178 0 
L 603 0 
L 603 3500 
z
M 603 4863 
L 1178 4863 
L 1178 4134 
L 603 4134 
L 603 4863 
z
" transform="scale(0.015625)"/>
       <path id="DejaVuSans-74" d="M 1172 4494 
L 1172 3500 
L 2356 3500 
L 2356 3053 
L 1172 3053 
L 1172 1153 
Q 1172 725 1289 603 
Q 1406 481 1766 481 
L 2356 481 
L 2356 0 
L 1766 0 
Q 1100 0 847 248 
Q 594 497 594 1153 
L 594 3053 
L 172 3053 
L 172 3500 
L 594 3500 
L 594 4494 
L 1172 4494 
z
" transform="scale(0.015625)"/>
       <path id="DejaVuSans-79" d="M 2059 -325 
Q 1816 -950 1584 -1140 
Q 1353 -1331 966 -1331 
L 506 -1331 
L 506 -850 
L 844 -850 
Q 1081 -850 1212 -737 
Q 1344 -625 1503 -206 
L 1606 56 
L 191 3500 
L 800 3500 
L 1894 763 
L 2988 3500 
L 3597 3500 
L 2059 -325 
z
" transform="scale(0.015625)"/>
      </defs>
      <use xlink:href="#DejaVuSans-44"/>
      <use xlink:href="#DejaVuSans-65" x="77.001953"/>
      <use xlink:href="#DejaVuSans-6e" x="138.525391"/>
      <use xlink:href="#DejaVuSans-73" x="201.904297"/>
      <use xlink:href="#DejaVuSans-69" x="254.003906"/>
      <use xlink:href="#DejaVuSans-74" x="281.787109"/>
      <use xlink:href="#DejaVuSans-79" x="320.996094"/>
     </g>
    </g>
   </g>
   <g id="patch_3">
    <path d="M 62.86875 385.478125 
L 62.86875 22.318125 
" style="fill: none; stroke: #000000; stroke-width: 0.8; stroke-linejoin: miter; stroke-linecap: square"/>
   </g>
   <g id="patch_4">
    <path d="M 849.44875 385.478125 
L 849.44875 22.318125 
" style="fill: none; stroke: #000000; stroke-width: 0.8; stroke-linejoin: miter; stroke-linecap: square"/>
   </g>
   <g id="patch_5">
    <path d="M 62.86875 385.478125 
L 849.44875 385.478125 
" style="fill: none; stroke: #000000; stroke-width: 0.8; stroke-linejoin: miter; stroke-linecap: square"/>
   </g>
   <g id="patch_6">
    <path d="M 62.86875 22.318125 
L 849.44875 22.318125 
" style="fill: none; stroke: #000000; stroke-width: 0.8; stroke-linejoin: miter; stroke-linecap: square"/>
   </g>
   <g id="text_17">
    <!-- Distribution of ACR -->
    <g transform="translate(399.200938 16.318125) scale(0.12 -0.12)">
     <defs>
      <path id="DejaVuSans-72" d="M 2631 2963 
Q 2534 3019 2420 3045 
Q 2306 3072 2169 3072 
Q 1681 3072 1420 2755 
Q 1159 2438 1159 1844 
L 1159 0 
L 581 0 
L 581 3500 
L 1159 3500 
L 1159 2956 
Q 1341 3275 1631 3429 
Q 1922 3584 2338 3584 
Q 2397 3584 2469 3576 
Q 2541 3569 2628 3553 
L 2631 2963 
z
" transform="scale(0.015625)"/>
      <path id="DejaVuSans-62" d="M 3116 1747 
Q 3116 2381 2855 2742 
Q 2594 3103 2138 3103 
Q 1681 3103 1420 2742 
Q 1159 2381 1159 1747 
Q 1159 1113 1420 752 
Q 1681 391 2138 391 
Q 2594 391 2855 752 
Q 3116 1113 3116 1747 
z
M 1159 2969 
Q 1341 3281 1617 3432 
Q 1894 3584 2278 3584 
Q 2916 3584 3314 3078 
Q 3713 2572 3713 1747 
Q 3713 922 3314 415 
Q 2916 -91 2278 -91 
Q 1894 -91 1617 61 
Q 1341 213 1159 525 
L 1159 0 
L 581 0 
L 581 4863 
L 1159 4863 
L 1159 2969 
z
" transform="scale(0.015625)"/>
      <path id="DejaVuSans-75" d="M 544 1381 
L 544 3500 
L 1119 3500 
L 1119 1403 
Q 1119 906 1312 657 
Q 1506 409 1894 409 
Q 2359 409 2629 706 
Q 2900 1003 2900 1516 
L 2900 3500 
L 3475 3500 
L 3475 0 
L 2900 0 
L 2900 538 
Q 2691 219 2414 64 
Q 2138 -91 1772 -91 
Q 1169 -91 856 284 
Q 544 659 544 1381 
z
M 1991 3584 
L 1991 3584 
z
" transform="scale(0.015625)"/>
      <path id="DejaVuSans-6f" d="M 1959 3097 
Q 1497 3097 1228 2736 
Q 959 2375 959 1747 
Q 959 1119 1226 758 
Q 1494 397 1959 397 
Q 2419 397 2687 759 
Q 2956 1122 2956 1747 
Q 2956 2369 2687 2733 
Q 2419 3097 1959 3097 
z
M 1959 3584 
Q 2709 3584 3137 3096 
Q 3566 2609 3566 1747 
Q 3566 888 3137 398 
Q 2709 -91 1959 -91 
Q 1206 -91 779 398 
Q 353 888 353 1747 
Q 353 2609 779 3096 
Q 1206 3584 1959 3584 
z
" transform="scale(0.015625)"/>
      <path id="DejaVuSans-20" transform="scale(0.015625)"/>
      <path id="DejaVuSans-66" d="M 2375 4863 
L 2375 4384 
L 1825 4384 
Q 1516 4384 1395 4259 
Q 1275 4134 1275 3809 
L 1275 3500 
L 2222 3500 
L 2222 3053 
L 1275 3053 
L 1275 0 
L 697 0 
L 697 3053 
L 147 3053 
L 147 3500 
L 697 3500 
L 697 3744 
Q 697 4328 969 4595 
Q 1241 4863 1831 4863 
L 2375 4863 
z
" transform="scale(0.015625)"/>
     </defs>
     <use xlink:href="#DejaVuSans-44"/>
     <use xlink:href="#DejaVuSans-69" x="77.001953"/>
     <use xlink:href="#DejaVuSans-73" x="104.785156"/>
     <use xlink:href="#DejaVuSans-74" x="156.884766"/>
     <use xlink:href="#DejaVuSans-72" x="196.09375"/>
     <use xlink:href="#DejaVuSans-69" x="237.207031"/>
     <use xlink:href="#DejaVuSans-62" x="264.990234"/>
     <use xlink:href="#DejaVuSans-75" x="328.466797"/>
     <use xlink:href="#DejaVuSans-74" x="391.845703"/>
     <use xlink:href="#DejaVuSans-69" x="431.054688"/>
     <use xlink:href="#DejaVuSans-6f" x="458.837891"/>
     <use xlink:href="#DejaVuSans-6e" x="520.019531"/>
     <use xlink:href="#DejaVuSans-20" x="583.398438"/>
     <use xlink:href="#DejaVuSans-6f" x="615.185547"/>
     <use xlink:href="#DejaVuSans-66" x="676.367188"/>
     <use xlink:href="#DejaVuSans-20" x="711.572266"/>
     <use xlink:href="#DejaVuSans-41" x="743.359375"/>
     <use xlink:href="#DejaVuSans-43" x="810.017578"/>
     <use xlink:href="#DejaVuSans-52" x="879.841797"/>
    </g>
   </g>
  </g>
 </g>
 <defs>
  <clipPath id="pf0570483cc">
   <rect x="62.86875" y="22.318125" width="786.58" height="363.16"/>
  </clipPath>
 </defs>
</svg>
