<?xml version="1.0" encoding="utf-8" standalone="no"?>
<!DOCTYPE svg PUBLIC "-//W3C//DTD SVG 1.1//EN"
  "http://www.w3.org/Graphics/SVG/1.1/DTD/svg11.dtd">
<svg xmlns:xlink="http://www.w3.org/1999/xlink" width="856.64875pt" height="423.21125pt" viewBox="0 0 856.64875 423.21125" xmlns="http://www.w3.org/2000/svg" version="1.1">
 <metadata>
  <rdf:RDF xmlns:dc="http://purl.org/dc/elements/1.1/" xmlns:cc="http://creativecommons.org/ns#" xmlns:rdf="http://www.w3.org/1999/02/22-rdf-syntax-ns#">
   <cc:Work>
    <dc:type rdf:resource="http://purl.org/dc/dcmitype/StillImage"/>
    <dc:date>2024-07-14T15:45:54.245268</dc:date>
    <dc:format>image/svg+xml</dc:format>
    <dc:creator>
     <cc:Agent>
      <dc:title>Matplotlib v3.9.0, https://matplotlib.org/</dc:title>
     </cc:Agent>
    </dc:creator>
   </cc:Work>
  </rdf:RDF>
 </metadata>
 <defs>
  <style type="text/css">*{stroke-linejoin: round; stroke-linecap: butt}</style>
 </defs>
 <g id="figure_1">
  <g id="patch_1">
   <path d="M -0 423.21125 
L 856.64875 423.21125 
L 856.64875 0 
L -0 0 
z
" style="fill: #ffffff"/>
  </g>
  <g id="axes_1">
   <g id="patch_2">
    <path d="M 62.86875 385.376875 
L 849.44875 385.376875 
L 849.44875 22.318125 
L 62.86875 22.318125 
z
" style="fill: #ffffff"/>
   </g>
   <g id="PolyCollection_1">
    <defs>
     <path id="mfb492410cd" d="M 98.622386 -38.961773 
L 98.622386 -37.834375 
L 102.215717 -37.834375 
L 105.809047 -37.834375 
L 109.402377 -37.834375 
L 112.995708 -37.834375 
L 116.589038 -37.834375 
L 120.182368 -37.834375 
L 123.775698 -37.834375 
L 127.369029 -37.834375 
L 130.962359 -37.834375 
L 134.555689 -37.834375 
L 138.14902 -37.834375 
L 141.74235 -37.834375 
L 145.33568 -37.834375 
L 148.92901 -37.834375 
L 152.522341 -37.834375 
L 156.115671 -37.834375 
L 159.709001 -37.834375 
L 163.302332 -37.834375 
L 166.895662 -37.834375 
L 170.488992 -37.834375 
L 174.082322 -37.834375 
L 177.675653 -37.834375 
L 181.268983 -37.834375 
L 184.862313 -37.834375 
L 188.455644 -37.834375 
L 192.048974 -37.834375 
L 195.642304 -37.834375 
L 199.235634 -37.834375 
L 202.828965 -37.834375 
L 206.422295 -37.834375 
L 210.015625 -37.834375 
L 213.608956 -37.834375 
L 217.202286 -37.834375 
L 220.795616 -37.834375 
L 224.388946 -37.834375 
L 227.982277 -37.834375 
L 231.575607 -37.834375 
L 235.168937 -37.834375 
L 238.762268 -37.834375 
L 242.355598 -37.834375 
L 245.948928 -37.834375 
L 249.542258 -37.834375 
L 253.135589 -37.834375 
L 256.728919 -37.834375 
L 260.322249 -37.834375 
L 263.91558 -37.834375 
L 267.50891 -37.834375 
L 271.10224 -37.834375 
L 274.69557 -37.834375 
L 278.288901 -37.834375 
L 281.882231 -37.834375 
L 285.475561 -37.834375 
L 289.068892 -37.834375 
L 292.662222 -37.834375 
L 296.255552 -37.834375 
L 299.848882 -37.834375 
L 303.442213 -37.834375 
L 307.035543 -37.834375 
L 310.628873 -37.834375 
L 314.222204 -37.834375 
L 317.815534 -37.834375 
L 321.408864 -37.834375 
L 325.002194 -37.834375 
L 328.595525 -37.834375 
L 332.188855 -37.834375 
L 335.782185 -37.834375 
L 339.375516 -37.834375 
L 342.968846 -37.834375 
L 346.562176 -37.834375 
L 350.155507 -37.834375 
L 353.748837 -37.834375 
L 357.342167 -37.834375 
L 360.935497 -37.834375 
L 364.528828 -37.834375 
L 368.122158 -37.834375 
L 371.715488 -37.834375 
L 375.308819 -37.834375 
L 378.902149 -37.834375 
L 382.495479 -37.834375 
L 386.088809 -37.834375 
L 389.68214 -37.834375 
L 393.27547 -37.834375 
L 396.8688 -37.834375 
L 400.462131 -37.834375 
L 404.055461 -37.834375 
L 407.648791 -37.834375 
L 411.242121 -37.834375 
L 414.835452 -37.834375 
L 418.428782 -37.834375 
L 422.022112 -37.834375 
L 425.615443 -37.834375 
L 429.208773 -37.834375 
L 432.802103 -37.834375 
L 436.395433 -37.834375 
L 439.988764 -37.834375 
L 443.582094 -37.834375 
L 447.175424 -37.834375 
L 450.768755 -37.834375 
L 454.362085 -37.834375 
L 457.955415 -37.834375 
L 461.548745 -37.834375 
L 465.142076 -37.834375 
L 468.735406 -37.834375 
L 472.328736 -37.834375 
L 475.922067 -37.834375 
L 479.515397 -37.834375 
L 483.108727 -37.834375 
L 486.702057 -37.834375 
L 490.295388 -37.834375 
L 493.888718 -37.834375 
L 497.482048 -37.834375 
L 501.075379 -37.834375 
L 504.668709 -37.834375 
L 508.262039 -37.834375 
L 511.855369 -37.834375 
L 515.4487 -37.834375 
L 519.04203 -37.834375 
L 522.63536 -37.834375 
L 526.228691 -37.834375 
L 529.822021 -37.834375 
L 533.415351 -37.834375 
L 537.008681 -37.834375 
L 540.602012 -37.834375 
L 544.195342 -37.834375 
L 547.788672 -37.834375 
L 551.382003 -37.834375 
L 554.975333 -37.834375 
L 558.568663 -37.834375 
L 562.161993 -37.834375 
L 565.755324 -37.834375 
L 569.348654 -37.834375 
L 572.941984 -37.834375 
L 576.535315 -37.834375 
L 580.128645 -37.834375 
L 583.721975 -37.834375 
L 587.315306 -37.834375 
L 590.908636 -37.834375 
L 594.501966 -37.834375 
L 598.095296 -37.834375 
L 601.688627 -37.834375 
L 605.281957 -37.834375 
L 608.875287 -37.834375 
L 612.468618 -37.834375 
L 616.061948 -37.834375 
L 619.655278 -37.834375 
L 623.248608 -37.834375 
L 626.841939 -37.834375 
L 630.435269 -37.834375 
L 634.028599 -37.834375 
L 637.62193 -37.834375 
L 641.21526 -37.834375 
L 644.80859 -37.834375 
L 648.40192 -37.834375 
L 651.995251 -37.834375 
L 655.588581 -37.834375 
L 659.181911 -37.834375 
L 662.775242 -37.834375 
L 666.368572 -37.834375 
L 669.961902 -37.834375 
L 673.555232 -37.834375 
L 677.148563 -37.834375 
L 680.741893 -37.834375 
L 684.335223 -37.834375 
L 687.928554 -37.834375 
L 691.521884 -37.834375 
L 695.115214 -37.834375 
L 698.708544 -37.834375 
L 702.301875 -37.834375 
L 705.895205 -37.834375 
L 709.488535 -37.834375 
L 713.081866 -37.834375 
L 716.675196 -37.834375 
L 720.268526 -37.834375 
L 723.861856 -37.834375 
L 727.455187 -37.834375 
L 731.048517 -37.834375 
L 734.641847 -37.834375 
L 738.235178 -37.834375 
L 741.828508 -37.834375 
L 745.421838 -37.834375 
L 749.015168 -37.834375 
L 752.608499 -37.834375 
L 756.201829 -37.834375 
L 759.795159 -37.834375 
L 763.38849 -37.834375 
L 766.98182 -37.834375 
L 770.57515 -37.834375 
L 774.16848 -37.834375 
L 777.761811 -37.834375 
L 781.355141 -37.834375 
L 784.948471 -37.834375 
L 788.541802 -37.834375 
L 792.135132 -37.834375 
L 795.728462 -37.834375 
L 799.321792 -37.834375 
L 802.915123 -37.834375 
L 806.508453 -37.834375 
L 810.101783 -37.834375 
L 813.695114 -37.834375 
L 813.695114 -37.86607 
L 813.695114 -37.86607 
L 810.101783 -37.88768 
L 806.508453 -37.921851 
L 802.915123 -37.974455 
L 799.321792 -38.053283 
L 795.728462 -38.168241 
L 792.135132 -38.331358 
L 788.541802 -38.556495 
L 784.948471 -38.858661 
L 781.355141 -39.252878 
L 777.761811 -39.752589 
L 774.16848 -40.367715 
L 770.57515 -41.102542 
L 766.98182 -41.953729 
L 763.38849 -42.9088 
L 759.795159 -43.945469 
L 756.201829 -45.032099 
L 752.608499 -46.129434 
L 749.015168 -47.193544 
L 745.421838 -48.179716 
L 741.828508 -49.046776 
L 738.235178 -49.76127 
L 734.641847 -50.30085 
L 731.048517 -50.656355 
L 727.455187 -50.832276 
L 723.861856 -50.845569 
L 720.268526 -50.723051 
L 716.675196 -50.49783 
L 713.081866 -50.205374 
L 709.488535 -49.879802 
L 705.895205 -49.550904 
L 702.301875 -49.24221 
L 698.708544 -48.970218 
L 695.115214 -48.744699 
L 691.521884 -48.569822 
L 687.928554 -48.44576 
L 684.335223 -48.370422 
L 680.741893 -48.341003 
L 677.148563 -48.355109 
L 673.555232 -48.411365 
L 669.961902 -48.509492 
L 666.368572 -48.649969 
L 662.775242 -48.833427 
L 659.181911 -49.059987 
L 655.588581 -49.328708 
L 651.995251 -49.637294 
L 648.40192 -49.982123 
L 644.80859 -50.358593 
L 641.21526 -50.761707 
L 637.62193 -51.186781 
L 634.028599 -51.630113 
L 630.435269 -52.08949 
L 626.841939 -52.564435 
L 623.248608 -53.056148 
L 619.655278 -53.56717 
L 616.061948 -54.100848 
L 612.468618 -54.66071 
L 608.875287 -55.249903 
L 605.281957 -55.870778 
L 601.688627 -56.52471 
L 598.095296 -57.212167 
L 594.501966 -57.932962 
L 590.908636 -58.686609 
L 587.315306 -59.472635 
L 583.721975 -60.290739 
L 580.128645 -61.140696 
L 576.535315 -62.02201 
L 572.941984 -62.933343 
L 569.348654 -63.87187 
L 565.755324 -64.832703 
L 562.161993 -65.808562 
L 558.568663 -66.789814 
L 554.975333 -67.764922 
L 551.382003 -68.721276 
L 547.788672 -69.646277 
L 544.195342 -70.528513 
L 540.602012 -71.358847 
L 537.008681 -72.131275 
L 533.415351 -72.843473 
L 529.822021 -73.497015 
L 526.228691 -74.097291 
L 522.63536 -74.653177 
L 519.04203 -75.176502 
L 515.4487 -75.681336 
L 511.855369 -76.1831 
L 508.262039 -76.697497 
L 504.668709 -77.239307 
L 501.075379 -77.821129 
L 497.482048 -78.452237 
L 493.888718 -79.137727 
L 490.295388 -79.878152 
L 486.702057 -80.669778 
L 483.108727 -81.505459 
L 479.515397 -82.376023 
L 475.922067 -83.271931 
L 472.328736 -84.184896 
L 468.735406 -85.109153 
L 465.142076 -86.042168 
L 461.548745 -86.984666 
L 457.955415 -87.94007 
L 454.362085 -88.91352 
L 450.768755 -89.910757 
L 447.175424 -90.937143 
L 443.582094 -91.99702 
L 439.988764 -93.093492 
L 436.395433 -94.228616 
L 432.802103 -95.403844 
L 429.208773 -96.620532 
L 425.615443 -97.880322 
L 422.022112 -99.185265 
L 418.428782 -100.537608 
L 414.835452 -101.939298 
L 411.242121 -103.391312 
L 407.648791 -104.892974 
L 404.055461 -106.441438 
L 400.462131 -108.031504 
L 396.8688 -109.655841 
L 393.27547 -111.305659 
L 389.68214 -112.971724 
L 386.088809 -114.645583 
L 382.495479 -116.320753 
L 378.902149 -117.993656 
L 375.308819 -119.664078 
L 371.715488 -121.335066 
L 368.122158 -123.012244 
L 364.528828 -124.702705 
L 360.935497 -126.413718 
L 357.342167 -128.151545 
L 353.748837 -129.920644 
L 350.155507 -131.72343 
L 346.562176 -133.560661 
L 342.968846 -135.432311 
L 339.375516 -137.33872 
L 335.782185 -139.28171 
L 332.188855 -141.265388 
L 328.595525 -143.29643 
L 325.002194 -145.383771 
L 321.408864 -147.537778 
L 317.815534 -149.769098 
L 314.222204 -152.087443 
L 310.628873 -154.500591 
L 307.035543 -157.013823 
L 303.442213 -159.629908 
L 299.848882 -162.349673 
L 296.255552 -165.17304 
L 292.662222 -168.100372 
L 289.068892 -171.133935 
L 285.475561 -174.279277 
L 281.882231 -177.546363 
L 278.288901 -180.950398 
L 274.69557 -184.512278 
L 271.10224 -188.258735 
L 267.50891 -192.222213 
L 263.91558 -196.440591 
L 260.322249 -200.956856 
L 256.728919 -205.818795 
L 253.135589 -211.078772 
L 249.542258 -216.793544 
L 245.948928 -223.02401 
L 242.355598 -229.834593 
L 238.762268 -237.291852 
L 235.168937 -245.461708 
L 231.575607 -254.404574 
L 227.982277 -264.167658 
L 224.388946 -274.773857 
L 220.795616 -286.207024 
L 217.202286 -298.39407 
L 213.608956 -311.185216 
L 210.015625 -324.334811 
L 206.422295 -337.486127 
L 202.828965 -350.164275 
L 199.235634 -361.781516 
L 195.642304 -371.658446 
L 192.048974 -379.062773 
L 188.455644 -383.264693 
L 184.862313 -383.604613 
L 181.268983 -379.565814 
L 177.675653 -370.842294 
L 174.082322 -357.391229 
L 170.488992 -339.460655 
L 166.895662 -317.586121 
L 163.302332 -292.554728 
L 159.709001 -265.340204 
L 156.115671 -237.017489 
L 152.522341 -208.668525 
L 148.92901 -181.292097 
L 145.33568 -155.729238 
L 141.74235 -132.612533 
L 138.14902 -112.343157 
L 134.555689 -95.094931 
L 130.962359 -80.840732 
L 127.369029 -69.394128 
L 123.775698 -60.458193 
L 120.182368 -53.674117 
L 116.589038 -48.663871 
L 112.995708 -45.063448 
L 109.402377 -42.54539 
L 105.809047 -40.831146 
L 102.215717 -39.694982 
L 98.622386 -38.961773 
z
" style="stroke: #1f77b4"/>
    </defs>
    <g clip-path="url(#p887d7ba9cc)">
     <use xlink:href="#mfb492410cd" x="0" y="423.21125" style="fill: #1f77b4; fill-opacity: 0.25; stroke: #1f77b4"/>
    </g>
   </g>
   <g id="matplotlib.axis_1">
    <g id="xtick_1">
     <g id="line2d_1">
      <defs>
       <path id="m50f1094b21" d="M 0 0 
L 0 3.5 
" style="stroke: #000000; stroke-width: 0.8"/>
      </defs>
      <g>
       <use xlink:href="#m50f1094b21" x="66.868405" y="385.376875" style="stroke: #000000; stroke-width: 0.8"/>
      </g>
     </g>
     <g id="text_1">
      <!-- −1000 -->
      <g transform="translate(49.953561 399.975312) scale(0.1 -0.1)">
       <defs>
        <path id="DejaVuSans-2212" d="M 678 2272 
L 4684 2272 
L 4684 1741 
L 678 1741 
L 678 2272 
z
" transform="scale(0.015625)"/>
        <path id="DejaVuSans-31" d="M 794 531 
L 1825 531 
L 1825 4091 
L 703 3866 
L 703 4441 
L 1819 4666 
L 2450 4666 
L 2450 531 
L 3481 531 
L 3481 0 
L 794 0 
L 794 531 
z
" transform="scale(0.015625)"/>
        <path id="DejaVuSans-30" d="M 2034 4250 
Q 1547 4250 1301 3770 
Q 1056 3291 1056 2328 
Q 1056 1369 1301 889 
Q 1547 409 2034 409 
Q 2525 409 2770 889 
Q 3016 1369 3016 2328 
Q 3016 3291 2770 3770 
Q 2525 4250 2034 4250 
z
M 2034 4750 
Q 2819 4750 3233 4129 
Q 3647 3509 3647 2328 
Q 3647 1150 3233 529 
Q 2819 -91 2034 -91 
Q 1250 -91 836 529 
Q 422 1150 422 2328 
Q 422 3509 836 4129 
Q 1250 4750 2034 4750 
z
" transform="scale(0.015625)"/>
       </defs>
       <use xlink:href="#DejaVuSans-2212"/>
       <use xlink:href="#DejaVuSans-31" x="83.789062"/>
       <use xlink:href="#DejaVuSans-30" x="147.412109"/>
       <use xlink:href="#DejaVuSans-30" x="211.035156"/>
       <use xlink:href="#DejaVuSans-30" x="274.658203"/>
      </g>
     </g>
    </g>
    <g id="xtick_2">
     <g id="line2d_2">
      <g>
       <use xlink:href="#m50f1094b21" x="165.911871" y="385.376875" style="stroke: #000000; stroke-width: 0.8"/>
      </g>
     </g>
     <g id="text_2">
      <!-- 0 -->
      <g transform="translate(162.730621 399.975312) scale(0.1 -0.1)">
       <use xlink:href="#DejaVuSans-30"/>
      </g>
     </g>
    </g>
    <g id="xtick_3">
     <g id="line2d_3">
      <g>
       <use xlink:href="#m50f1094b21" x="264.955338" y="385.376875" style="stroke: #000000; stroke-width: 0.8"/>
      </g>
     </g>
     <g id="text_3">
      <!-- 1000 -->
      <g transform="translate(252.230338 399.975312) scale(0.1 -0.1)">
       <use xlink:href="#DejaVuSans-31"/>
       <use xlink:href="#DejaVuSans-30" x="63.623047"/>
       <use xlink:href="#DejaVuSans-30" x="127.246094"/>
       <use xlink:href="#DejaVuSans-30" x="190.869141"/>
      </g>
     </g>
    </g>
    <g id="xtick_4">
     <g id="line2d_4">
      <g>
       <use xlink:href="#m50f1094b21" x="363.998804" y="385.376875" style="stroke: #000000; stroke-width: 0.8"/>
      </g>
     </g>
     <g id="text_4">
      <!-- 2000 -->
      <g transform="translate(351.273804 399.975312) scale(0.1 -0.1)">
       <defs>
        <path id="DejaVuSans-32" d="M 1228 531 
L 3431 531 
L 3431 0 
L 469 0 
L 469 531 
Q 828 903 1448 1529 
Q 2069 2156 2228 2338 
Q 2531 2678 2651 2914 
Q 2772 3150 2772 3378 
Q 2772 3750 2511 3984 
Q 2250 4219 1831 4219 
Q 1534 4219 1204 4116 
Q 875 4013 500 3803 
L 500 4441 
Q 881 4594 1212 4672 
Q 1544 4750 1819 4750 
Q 2544 4750 2975 4387 
Q 3406 4025 3406 3419 
Q 3406 3131 3298 2873 
Q 3191 2616 2906 2266 
Q 2828 2175 2409 1742 
Q 1991 1309 1228 531 
z
" transform="scale(0.015625)"/>
       </defs>
       <use xlink:href="#DejaVuSans-32"/>
       <use xlink:href="#DejaVuSans-30" x="63.623047"/>
       <use xlink:href="#DejaVuSans-30" x="127.246094"/>
       <use xlink:href="#DejaVuSans-30" x="190.869141"/>
      </g>
     </g>
    </g>
    <g id="xtick_5">
     <g id="line2d_5">
      <g>
       <use xlink:href="#m50f1094b21" x="463.042271" y="385.376875" style="stroke: #000000; stroke-width: 0.8"/>
      </g>
     </g>
     <g id="text_5">
      <!-- 3000 -->
      <g transform="translate(450.317271 399.975312) scale(0.1 -0.1)">
       <defs>
        <path id="DejaVuSans-33" d="M 2597 2516 
Q 3050 2419 3304 2112 
Q 3559 1806 3559 1356 
Q 3559 666 3084 287 
Q 2609 -91 1734 -91 
Q 1441 -91 1130 -33 
Q 819 25 488 141 
L 488 750 
Q 750 597 1062 519 
Q 1375 441 1716 441 
Q 2309 441 2620 675 
Q 2931 909 2931 1356 
Q 2931 1769 2642 2001 
Q 2353 2234 1838 2234 
L 1294 2234 
L 1294 2753 
L 1863 2753 
Q 2328 2753 2575 2939 
Q 2822 3125 2822 3475 
Q 2822 3834 2567 4026 
Q 2313 4219 1838 4219 
Q 1578 4219 1281 4162 
Q 984 4106 628 3988 
L 628 4550 
Q 988 4650 1302 4700 
Q 1616 4750 1894 4750 
Q 2613 4750 3031 4423 
Q 3450 4097 3450 3541 
Q 3450 3153 3228 2886 
Q 3006 2619 2597 2516 
z
" transform="scale(0.015625)"/>
       </defs>
       <use xlink:href="#DejaVuSans-33"/>
       <use xlink:href="#DejaVuSans-30" x="63.623047"/>
       <use xlink:href="#DejaVuSans-30" x="127.246094"/>
       <use xlink:href="#DejaVuSans-30" x="190.869141"/>
      </g>
     </g>
    </g>
    <g id="xtick_6">
     <g id="line2d_6">
      <g>
       <use xlink:href="#m50f1094b21" x="562.085738" y="385.376875" style="stroke: #000000; stroke-width: 0.8"/>
      </g>
     </g>
     <g id="text_6">
      <!-- 4000 -->
      <g transform="translate(549.360738 399.975312) scale(0.1 -0.1)">
       <defs>
        <path id="DejaVuSans-34" d="M 2419 4116 
L 825 1625 
L 2419 1625 
L 2419 4116 
z
M 2253 4666 
L 3047 4666 
L 3047 1625 
L 3713 1625 
L 3713 1100 
L 3047 1100 
L 3047 0 
L 2419 0 
L 2419 1100 
L 313 1100 
L 313 1709 
L 2253 4666 
z
" transform="scale(0.015625)"/>
       </defs>
       <use xlink:href="#DejaVuSans-34"/>
       <use xlink:href="#DejaVuSans-30" x="63.623047"/>
       <use xlink:href="#DejaVuSans-30" x="127.246094"/>
       <use xlink:href="#DejaVuSans-30" x="190.869141"/>
      </g>
     </g>
    </g>
    <g id="xtick_7">
     <g id="line2d_7">
      <g>
       <use xlink:href="#m50f1094b21" x="661.129204" y="385.376875" style="stroke: #000000; stroke-width: 0.8"/>
      </g>
     </g>
     <g id="text_7">
      <!-- 5000 -->
      <g transform="translate(648.404204 399.975312) scale(0.1 -0.1)">
       <defs>
        <path id="DejaVuSans-35" d="M 691 4666 
L 3169 4666 
L 3169 4134 
L 1269 4134 
L 1269 2991 
Q 1406 3038 1543 3061 
Q 1681 3084 1819 3084 
Q 2600 3084 3056 2656 
Q 3513 2228 3513 1497 
Q 3513 744 3044 326 
Q 2575 -91 1722 -91 
Q 1428 -91 1123 -41 
Q 819 9 494 109 
L 494 744 
Q 775 591 1075 516 
Q 1375 441 1709 441 
Q 2250 441 2565 725 
Q 2881 1009 2881 1497 
Q 2881 1984 2565 2268 
Q 2250 2553 1709 2553 
Q 1456 2553 1204 2497 
Q 953 2441 691 2322 
L 691 4666 
z
" transform="scale(0.015625)"/>
       </defs>
       <use xlink:href="#DejaVuSans-35"/>
       <use xlink:href="#DejaVuSans-30" x="63.623047"/>
       <use xlink:href="#DejaVuSans-30" x="127.246094"/>
       <use xlink:href="#DejaVuSans-30" x="190.869141"/>
      </g>
     </g>
    </g>
    <g id="xtick_8">
     <g id="line2d_8">
      <g>
       <use xlink:href="#m50f1094b21" x="760.172671" y="385.376875" style="stroke: #000000; stroke-width: 0.8"/>
      </g>
     </g>
     <g id="text_8">
      <!-- 6000 -->
      <g transform="translate(747.447671 399.975312) scale(0.1 -0.1)">
       <defs>
        <path id="DejaVuSans-36" d="M 2113 2584 
Q 1688 2584 1439 2293 
Q 1191 2003 1191 1497 
Q 1191 994 1439 701 
Q 1688 409 2113 409 
Q 2538 409 2786 701 
Q 3034 994 3034 1497 
Q 3034 2003 2786 2293 
Q 2538 2584 2113 2584 
z
M 3366 4563 
L 3366 3988 
Q 3128 4100 2886 4159 
Q 2644 4219 2406 4219 
Q 1781 4219 1451 3797 
Q 1122 3375 1075 2522 
Q 1259 2794 1537 2939 
Q 1816 3084 2150 3084 
Q 2853 3084 3261 2657 
Q 3669 2231 3669 1497 
Q 3669 778 3244 343 
Q 2819 -91 2113 -91 
Q 1303 -91 875 529 
Q 447 1150 447 2328 
Q 447 3434 972 4092 
Q 1497 4750 2381 4750 
Q 2619 4750 2861 4703 
Q 3103 4656 3366 4563 
z
" transform="scale(0.015625)"/>
       </defs>
       <use xlink:href="#DejaVuSans-36"/>
       <use xlink:href="#DejaVuSans-30" x="63.623047"/>
       <use xlink:href="#DejaVuSans-30" x="127.246094"/>
       <use xlink:href="#DejaVuSans-30" x="190.869141"/>
      </g>
     </g>
    </g>
    <g id="text_9">
     <!-- ESRD_dur -->
     <g transform="translate(431.6025 413.653437) scale(0.1 -0.1)">
      <defs>
       <path id="DejaVuSans-45" d="M 628 4666 
L 3578 4666 
L 3578 4134 
L 1259 4134 
L 1259 2753 
L 3481 2753 
L 3481 2222 
L 1259 2222 
L 1259 531 
L 3634 531 
L 3634 0 
L 628 0 
L 628 4666 
z
" transform="scale(0.015625)"/>
       <path id="DejaVuSans-53" d="M 3425 4513 
L 3425 3897 
Q 3066 4069 2747 4153 
Q 2428 4238 2131 4238 
Q 1616 4238 1336 4038 
Q 1056 3838 1056 3469 
Q 1056 3159 1242 3001 
Q 1428 2844 1947 2747 
L 2328 2669 
Q 3034 2534 3370 2195 
Q 3706 1856 3706 1288 
Q 3706 609 3251 259 
Q 2797 -91 1919 -91 
Q 1588 -91 1214 -16 
Q 841 59 441 206 
L 441 856 
Q 825 641 1194 531 
Q 1563 422 1919 422 
Q 2459 422 2753 634 
Q 3047 847 3047 1241 
Q 3047 1584 2836 1778 
Q 2625 1972 2144 2069 
L 1759 2144 
Q 1053 2284 737 2584 
Q 422 2884 422 3419 
Q 422 4038 858 4394 
Q 1294 4750 2059 4750 
Q 2388 4750 2728 4690 
Q 3069 4631 3425 4513 
z
" transform="scale(0.015625)"/>
       <path id="DejaVuSans-52" d="M 2841 2188 
Q 3044 2119 3236 1894 
Q 3428 1669 3622 1275 
L 4263 0 
L 3584 0 
L 2988 1197 
Q 2756 1666 2539 1819 
Q 2322 1972 1947 1972 
L 1259 1972 
L 1259 0 
L 628 0 
L 628 4666 
L 2053 4666 
Q 2853 4666 3247 4331 
Q 3641 3997 3641 3322 
Q 3641 2881 3436 2590 
Q 3231 2300 2841 2188 
z
M 1259 4147 
L 1259 2491 
L 2053 2491 
Q 2509 2491 2742 2702 
Q 2975 2913 2975 3322 
Q 2975 3731 2742 3939 
Q 2509 4147 2053 4147 
L 1259 4147 
z
" transform="scale(0.015625)"/>
       <path id="DejaVuSans-44" d="M 1259 4147 
L 1259 519 
L 2022 519 
Q 2988 519 3436 956 
Q 3884 1394 3884 2338 
Q 3884 3275 3436 3711 
Q 2988 4147 2022 4147 
L 1259 4147 
z
M 628 4666 
L 1925 4666 
Q 3281 4666 3915 4102 
Q 4550 3538 4550 2338 
Q 4550 1131 3912 565 
Q 3275 0 1925 0 
L 628 0 
L 628 4666 
z
" transform="scale(0.015625)"/>
       <path id="DejaVuSans-5f" d="M 3263 -1063 
L 3263 -1509 
L -63 -1509 
L -63 -1063 
L 3263 -1063 
z
" transform="scale(0.015625)"/>
       <path id="DejaVuSans-64" d="M 2906 2969 
L 2906 4863 
L 3481 4863 
L 3481 0 
L 2906 0 
L 2906 525 
Q 2725 213 2448 61 
Q 2172 -91 1784 -91 
Q 1150 -91 751 415 
Q 353 922 353 1747 
Q 353 2572 751 3078 
Q 1150 3584 1784 3584 
Q 2172 3584 2448 3432 
Q 2725 3281 2906 2969 
z
M 947 1747 
Q 947 1113 1208 752 
Q 1469 391 1925 391 
Q 2381 391 2643 752 
Q 2906 1113 2906 1747 
Q 2906 2381 2643 2742 
Q 2381 3103 1925 3103 
Q 1469 3103 1208 2742 
Q 947 2381 947 1747 
z
" transform="scale(0.015625)"/>
       <path id="DejaVuSans-75" d="M 544 1381 
L 544 3500 
L 1119 3500 
L 1119 1403 
Q 1119 906 1312 657 
Q 1506 409 1894 409 
Q 2359 409 2629 706 
Q 2900 1003 2900 1516 
L 2900 3500 
L 3475 3500 
L 3475 0 
L 2900 0 
L 2900 538 
Q 2691 219 2414 64 
Q 2138 -91 1772 -91 
Q 1169 -91 856 284 
Q 544 659 544 1381 
z
M 1991 3584 
L 1991 3584 
z
" transform="scale(0.015625)"/>
       <path id="DejaVuSans-72" d="M 2631 2963 
Q 2534 3019 2420 3045 
Q 2306 3072 2169 3072 
Q 1681 3072 1420 2755 
Q 1159 2438 1159 1844 
L 1159 0 
L 581 0 
L 581 3500 
L 1159 3500 
L 1159 2956 
Q 1341 3275 1631 3429 
Q 1922 3584 2338 3584 
Q 2397 3584 2469 3576 
Q 2541 3569 2628 3553 
L 2631 2963 
z
" transform="scale(0.015625)"/>
      </defs>
      <use xlink:href="#DejaVuSans-45"/>
      <use xlink:href="#DejaVuSans-53" x="63.183594"/>
      <use xlink:href="#DejaVuSans-52" x="126.660156"/>
      <use xlink:href="#DejaVuSans-44" x="196.142578"/>
      <use xlink:href="#DejaVuSans-5f" x="273.144531"/>
      <use xlink:href="#DejaVuSans-64" x="323.144531"/>
      <use xlink:href="#DejaVuSans-75" x="386.621094"/>
      <use xlink:href="#DejaVuSans-72" x="450"/>
     </g>
    </g>
   </g>
   <g id="matplotlib.axis_2">
    <g id="ytick_1">
     <g id="line2d_9">
      <defs>
       <path id="mb56944d60e" d="M 0 0 
L -3.5 0 
" style="stroke: #000000; stroke-width: 0.8"/>
      </defs>
      <g>
       <use xlink:href="#mb56944d60e" x="62.86875" y="385.376875" style="stroke: #000000; stroke-width: 0.8"/>
      </g>
     </g>
     <g id="text_10">
      <!-- 0.0000 -->
      <g transform="translate(20.878125 389.176094) scale(0.1 -0.1)">
       <defs>
        <path id="DejaVuSans-2e" d="M 684 794 
L 1344 794 
L 1344 0 
L 684 0 
L 684 794 
z
" transform="scale(0.015625)"/>
       </defs>
       <use xlink:href="#DejaVuSans-30"/>
       <use xlink:href="#DejaVuSans-2e" x="63.623047"/>
       <use xlink:href="#DejaVuSans-30" x="95.410156"/>
       <use xlink:href="#DejaVuSans-30" x="159.033203"/>
       <use xlink:href="#DejaVuSans-30" x="222.65625"/>
       <use xlink:href="#DejaVuSans-30" x="286.279297"/>
      </g>
     </g>
    </g>
    <g id="ytick_2">
     <g id="line2d_10">
      <g>
       <use xlink:href="#mb56944d60e" x="62.86875" y="328.726065" style="stroke: #000000; stroke-width: 0.8"/>
      </g>
     </g>
     <g id="text_11">
      <!-- 0.0001 -->
      <g transform="translate(20.878125 332.525284) scale(0.1 -0.1)">
       <use xlink:href="#DejaVuSans-30"/>
       <use xlink:href="#DejaVuSans-2e" x="63.623047"/>
       <use xlink:href="#DejaVuSans-30" x="95.410156"/>
       <use xlink:href="#DejaVuSans-30" x="159.033203"/>
       <use xlink:href="#DejaVuSans-30" x="222.65625"/>
       <use xlink:href="#DejaVuSans-31" x="286.279297"/>
      </g>
     </g>
    </g>
    <g id="ytick_3">
     <g id="line2d_11">
      <g>
       <use xlink:href="#mb56944d60e" x="62.86875" y="272.075256" style="stroke: #000000; stroke-width: 0.8"/>
      </g>
     </g>
     <g id="text_12">
      <!-- 0.0002 -->
      <g transform="translate(20.878125 275.874474) scale(0.1 -0.1)">
       <use xlink:href="#DejaVuSans-30"/>
       <use xlink:href="#DejaVuSans-2e" x="63.623047"/>
       <use xlink:href="#DejaVuSans-30" x="95.410156"/>
       <use xlink:href="#DejaVuSans-30" x="159.033203"/>
       <use xlink:href="#DejaVuSans-30" x="222.65625"/>
       <use xlink:href="#DejaVuSans-32" x="286.279297"/>
      </g>
     </g>
    </g>
    <g id="ytick_4">
     <g id="line2d_12">
      <g>
       <use xlink:href="#mb56944d60e" x="62.86875" y="215.424446" style="stroke: #000000; stroke-width: 0.8"/>
      </g>
     </g>
     <g id="text_13">
      <!-- 0.0003 -->
      <g transform="translate(20.878125 219.223665) scale(0.1 -0.1)">
       <use xlink:href="#DejaVuSans-30"/>
       <use xlink:href="#DejaVuSans-2e" x="63.623047"/>
       <use xlink:href="#DejaVuSans-30" x="95.410156"/>
       <use xlink:href="#DejaVuSans-30" x="159.033203"/>
       <use xlink:href="#DejaVuSans-30" x="222.65625"/>
       <use xlink:href="#DejaVuSans-33" x="286.279297"/>
      </g>
     </g>
    </g>
    <g id="ytick_5">
     <g id="line2d_13">
      <g>
       <use xlink:href="#mb56944d60e" x="62.86875" y="158.773636" style="stroke: #000000; stroke-width: 0.8"/>
      </g>
     </g>
     <g id="text_14">
      <!-- 0.0004 -->
      <g transform="translate(20.878125 162.572855) scale(0.1 -0.1)">
       <use xlink:href="#DejaVuSans-30"/>
       <use xlink:href="#DejaVuSans-2e" x="63.623047"/>
       <use xlink:href="#DejaVuSans-30" x="95.410156"/>
       <use xlink:href="#DejaVuSans-30" x="159.033203"/>
       <use xlink:href="#DejaVuSans-30" x="222.65625"/>
       <use xlink:href="#DejaVuSans-34" x="286.279297"/>
      </g>
     </g>
    </g>
    <g id="ytick_6">
     <g id="line2d_14">
      <g>
       <use xlink:href="#mb56944d60e" x="62.86875" y="102.122826" style="stroke: #000000; stroke-width: 0.8"/>
      </g>
     </g>
     <g id="text_15">
      <!-- 0.0005 -->
      <g transform="translate(20.878125 105.922045) scale(0.1 -0.1)">
       <use xlink:href="#DejaVuSans-30"/>
       <use xlink:href="#DejaVuSans-2e" x="63.623047"/>
       <use xlink:href="#DejaVuSans-30" x="95.410156"/>
       <use xlink:href="#DejaVuSans-30" x="159.033203"/>
       <use xlink:href="#DejaVuSans-30" x="222.65625"/>
       <use xlink:href="#DejaVuSans-35" x="286.279297"/>
      </g>
     </g>
    </g>
    <g id="ytick_7">
     <g id="line2d_15">
      <g>
       <use xlink:href="#mb56944d60e" x="62.86875" y="45.472017" style="stroke: #000000; stroke-width: 0.8"/>
      </g>
     </g>
     <g id="text_16">
      <!-- 0.0006 -->
      <g transform="translate(20.878125 49.271235) scale(0.1 -0.1)">
       <use xlink:href="#DejaVuSans-30"/>
       <use xlink:href="#DejaVuSans-2e" x="63.623047"/>
       <use xlink:href="#DejaVuSans-30" x="95.410156"/>
       <use xlink:href="#DejaVuSans-30" x="159.033203"/>
       <use xlink:href="#DejaVuSans-30" x="222.65625"/>
       <use xlink:href="#DejaVuSans-36" x="286.279297"/>
      </g>
     </g>
    </g>
    <g id="text_17">
     <!-- Density -->
     <g transform="translate(14.798438 222.856094) rotate(-90) scale(0.1 -0.1)">
      <defs>
       <path id="DejaVuSans-65" d="M 3597 1894 
L 3597 1613 
L 953 1613 
Q 991 1019 1311 708 
Q 1631 397 2203 397 
Q 2534 397 2845 478 
Q 3156 559 3463 722 
L 3463 178 
Q 3153 47 2828 -22 
Q 2503 -91 2169 -91 
Q 1331 -91 842 396 
Q 353 884 353 1716 
Q 353 2575 817 3079 
Q 1281 3584 2069 3584 
Q 2775 3584 3186 3129 
Q 3597 2675 3597 1894 
z
M 3022 2063 
Q 3016 2534 2758 2815 
Q 2500 3097 2075 3097 
Q 1594 3097 1305 2825 
Q 1016 2553 972 2059 
L 3022 2063 
z
" transform="scale(0.015625)"/>
       <path id="DejaVuSans-6e" d="M 3513 2113 
L 3513 0 
L 2938 0 
L 2938 2094 
Q 2938 2591 2744 2837 
Q 2550 3084 2163 3084 
Q 1697 3084 1428 2787 
Q 1159 2491 1159 1978 
L 1159 0 
L 581 0 
L 581 3500 
L 1159 3500 
L 1159 2956 
Q 1366 3272 1645 3428 
Q 1925 3584 2291 3584 
Q 2894 3584 3203 3211 
Q 3513 2838 3513 2113 
z
" transform="scale(0.015625)"/>
       <path id="DejaVuSans-73" d="M 2834 3397 
L 2834 2853 
Q 2591 2978 2328 3040 
Q 2066 3103 1784 3103 
Q 1356 3103 1142 2972 
Q 928 2841 928 2578 
Q 928 2378 1081 2264 
Q 1234 2150 1697 2047 
L 1894 2003 
Q 2506 1872 2764 1633 
Q 3022 1394 3022 966 
Q 3022 478 2636 193 
Q 2250 -91 1575 -91 
Q 1294 -91 989 -36 
Q 684 19 347 128 
L 347 722 
Q 666 556 975 473 
Q 1284 391 1588 391 
Q 1994 391 2212 530 
Q 2431 669 2431 922 
Q 2431 1156 2273 1281 
Q 2116 1406 1581 1522 
L 1381 1569 
Q 847 1681 609 1914 
Q 372 2147 372 2553 
Q 372 3047 722 3315 
Q 1072 3584 1716 3584 
Q 2034 3584 2315 3537 
Q 2597 3491 2834 3397 
z
" transform="scale(0.015625)"/>
       <path id="DejaVuSans-69" d="M 603 3500 
L 1178 3500 
L 1178 0 
L 603 0 
L 603 3500 
z
M 603 4863 
L 1178 4863 
L 1178 4134 
L 603 4134 
L 603 4863 
z
" transform="scale(0.015625)"/>
       <path id="DejaVuSans-74" d="M 1172 4494 
L 1172 3500 
L 2356 3500 
L 2356 3053 
L 1172 3053 
L 1172 1153 
Q 1172 725 1289 603 
Q 1406 481 1766 481 
L 2356 481 
L 2356 0 
L 1766 0 
Q 1100 0 847 248 
Q 594 497 594 1153 
L 594 3053 
L 172 3053 
L 172 3500 
L 594 3500 
L 594 4494 
L 1172 4494 
z
" transform="scale(0.015625)"/>
       <path id="DejaVuSans-79" d="M 2059 -325 
Q 1816 -950 1584 -1140 
Q 1353 -1331 966 -1331 
L 506 -1331 
L 506 -850 
L 844 -850 
Q 1081 -850 1212 -737 
Q 1344 -625 1503 -206 
L 1606 56 
L 191 3500 
L 800 3500 
L 1894 763 
L 2988 3500 
L 3597 3500 
L 2059 -325 
z
" transform="scale(0.015625)"/>
      </defs>
      <use xlink:href="#DejaVuSans-44"/>
      <use xlink:href="#DejaVuSans-65" x="77.001953"/>
      <use xlink:href="#DejaVuSans-6e" x="138.525391"/>
      <use xlink:href="#DejaVuSans-73" x="201.904297"/>
      <use xlink:href="#DejaVuSans-69" x="254.003906"/>
      <use xlink:href="#DejaVuSans-74" x="281.787109"/>
      <use xlink:href="#DejaVuSans-79" x="320.996094"/>
     </g>
    </g>
   </g>
   <g id="patch_3">
    <path d="M 62.86875 385.376875 
L 62.86875 22.318125 
" style="fill: none; stroke: #000000; stroke-width: 0.8; stroke-linejoin: miter; stroke-linecap: square"/>
   </g>
   <g id="patch_4">
    <path d="M 849.44875 385.376875 
L 849.44875 22.318125 
" style="fill: none; stroke: #000000; stroke-width: 0.8; stroke-linejoin: miter; stroke-linecap: square"/>
   </g>
   <g id="patch_5">
    <path d="M 62.86875 385.376875 
L 849.44875 385.376875 
" style="fill: none; stroke: #000000; stroke-width: 0.8; stroke-linejoin: miter; stroke-linecap: square"/>
   </g>
   <g id="patch_6">
    <path d="M 62.86875 22.318125 
L 849.44875 22.318125 
" style="fill: none; stroke: #000000; stroke-width: 0.8; stroke-linejoin: miter; stroke-linecap: square"/>
   </g>
   <g id="text_18">
    <!-- Distribution of ESRD_dur -->
    <g transform="translate(382.091563 16.318125) scale(0.12 -0.12)">
     <defs>
      <path id="DejaVuSans-62" d="M 3116 1747 
Q 3116 2381 2855 2742 
Q 2594 3103 2138 3103 
Q 1681 3103 1420 2742 
Q 1159 2381 1159 1747 
Q 1159 1113 1420 752 
Q 1681 391 2138 391 
Q 2594 391 2855 752 
Q 3116 1113 3116 1747 
z
M 1159 2969 
Q 1341 3281 1617 3432 
Q 1894 3584 2278 3584 
Q 2916 3584 3314 3078 
Q 3713 2572 3713 1747 
Q 3713 922 3314 415 
Q 2916 -91 2278 -91 
Q 1894 -91 1617 61 
Q 1341 213 1159 525 
L 1159 0 
L 581 0 
L 581 4863 
L 1159 4863 
L 1159 2969 
z
" transform="scale(0.015625)"/>
      <path id="DejaVuSans-6f" d="M 1959 3097 
Q 1497 3097 1228 2736 
Q 959 2375 959 1747 
Q 959 1119 1226 758 
Q 1494 397 1959 397 
Q 2419 397 2687 759 
Q 2956 1122 2956 1747 
Q 2956 2369 2687 2733 
Q 2419 3097 1959 3097 
z
M 1959 3584 
Q 2709 3584 3137 3096 
Q 3566 2609 3566 1747 
Q 3566 888 3137 398 
Q 2709 -91 1959 -91 
Q 1206 -91 779 398 
Q 353 888 353 1747 
Q 353 2609 779 3096 
Q 1206 3584 1959 3584 
z
" transform="scale(0.015625)"/>
      <path id="DejaVuSans-20" transform="scale(0.015625)"/>
      <path id="DejaVuSans-66" d="M 2375 4863 
L 2375 4384 
L 1825 4384 
Q 1516 4384 1395 4259 
Q 1275 4134 1275 3809 
L 1275 3500 
L 2222 3500 
L 2222 3053 
L 1275 3053 
L 1275 0 
L 697 0 
L 697 3053 
L 147 3053 
L 147 3500 
L 697 3500 
L 697 3744 
Q 697 4328 969 4595 
Q 1241 4863 1831 4863 
L 2375 4863 
z
" transform="scale(0.015625)"/>
     </defs>
     <use xlink:href="#DejaVuSans-44"/>
     <use xlink:href="#DejaVuSans-69" x="77.001953"/>
     <use xlink:href="#DejaVuSans-73" x="104.785156"/>
     <use xlink:href="#DejaVuSans-74" x="156.884766"/>
     <use xlink:href="#DejaVuSans-72" x="196.09375"/>
     <use xlink:href="#DejaVuSans-69" x="237.207031"/>
     <use xlink:href="#DejaVuSans-62" x="264.990234"/>
     <use xlink:href="#DejaVuSans-75" x="328.466797"/>
     <use xlink:href="#DejaVuSans-74" x="391.845703"/>
     <use xlink:href="#DejaVuSans-69" x="431.054688"/>
     <use xlink:href="#DejaVuSans-6f" x="458.837891"/>
     <use xlink:href="#DejaVuSans-6e" x="520.019531"/>
     <use xlink:href="#DejaVuSans-20" x="583.398438"/>
     <use xlink:href="#DejaVuSans-6f" x="615.185547"/>
     <use xlink:href="#DejaVuSans-66" x="676.367188"/>
     <use xlink:href="#DejaVuSans-20" x="711.572266"/>
     <use xlink:href="#DejaVuSans-45" x="743.359375"/>
     <use xlink:href="#DejaVuSans-53" x="806.542969"/>
     <use xlink:href="#DejaVuSans-52" x="870.019531"/>
     <use xlink:href="#DejaVuSans-44" x="939.501953"/>
     <use xlink:href="#DejaVuSans-5f" x="1016.503906"/>
     <use xlink:href="#DejaVuSans-64" x="1066.503906"/>
     <use xlink:href="#DejaVuSans-75" x="1129.980469"/>
     <use xlink:href="#DejaVuSans-72" x="1193.359375"/>
    </g>
   </g>
  </g>
 </g>
 <defs>
  <clipPath id="p887d7ba9cc">
   <rect x="62.86875" y="22.318125" width="786.58" height="363.05875"/>
  </clipPath>
 </defs>
</svg>
