<?xml version="1.0" encoding="utf-8" standalone="no"?>
<!DOCTYPE svg PUBLIC "-//W3C//DTD SVG 1.1//EN"
  "http://www.w3.org/Graphics/SVG/1.1/DTD/svg11.dtd">
<svg xmlns:xlink="http://www.w3.org/1999/xlink" width="856.52375pt" height="423.034375pt" viewBox="0 0 856.52375 423.034375" xmlns="http://www.w3.org/2000/svg" version="1.1">
 <metadata>
  <rdf:RDF xmlns:dc="http://purl.org/dc/elements/1.1/" xmlns:cc="http://creativecommons.org/ns#" xmlns:rdf="http://www.w3.org/1999/02/22-rdf-syntax-ns#">
   <cc:Work>
    <dc:type rdf:resource="http://purl.org/dc/dcmitype/StillImage"/>
    <dc:date>2024-07-14T12:19:41.454163</dc:date>
    <dc:format>image/svg+xml</dc:format>
    <dc:creator>
     <cc:Agent>
      <dc:title>Matplotlib v3.9.0, https://matplotlib.org/</dc:title>
     </cc:Agent>
    </dc:creator>
   </cc:Work>
  </rdf:RDF>
 </metadata>
 <defs>
  <style type="text/css">*{stroke-linejoin: round; stroke-linecap: butt}</style>
 </defs>
 <g id="figure_1">
  <g id="patch_1">
   <path d="M 0 423.034375 
L 856.52375 423.034375 
L 856.52375 0 
L 0 0 
z
" style="fill: #ffffff"/>
  </g>
  <g id="axes_1">
   <g id="patch_2">
    <path d="M 50.14375 385.478125 
L 849.32375 385.478125 
L 849.32375 22.318125 
L 50.14375 22.318125 
z
" style="fill: #ffffff"/>
   </g>
   <g id="patch_3">
    <path d="M 145.292723 385.478125 
L 161.748995 385.478125 
L 161.748995 360.046752 
L 145.292723 360.046752 
z
" clip-path="url(#pfd6a517ea3)" style="fill: #1f77b4; fill-opacity: 0.5; stroke: #000000; stroke-linejoin: miter"/>
   </g>
   <g id="patch_4">
    <path d="M 161.748995 385.478125 
L 178.205266 385.478125 
L 178.205266 369.65416 
L 161.748995 369.65416 
z
" clip-path="url(#pfd6a517ea3)" style="fill: #1f77b4; fill-opacity: 0.5; stroke: #000000; stroke-linejoin: miter"/>
   </g>
   <g id="patch_5">
    <path d="M 178.205266 385.478125 
L 194.661538 385.478125 
L 194.661538 363.437602 
L 178.205266 363.437602 
z
" clip-path="url(#pfd6a517ea3)" style="fill: #1f77b4; fill-opacity: 0.5; stroke: #000000; stroke-linejoin: miter"/>
   </g>
   <g id="patch_6">
    <path d="M 194.661538 385.478125 
L 211.11781 385.478125 
L 211.11781 353.830195 
L 194.661538 353.830195 
z
" clip-path="url(#pfd6a517ea3)" style="fill: #1f77b4; fill-opacity: 0.5; stroke: #000000; stroke-linejoin: miter"/>
   </g>
   <g id="patch_7">
    <path d="M 211.11781 385.478125 
L 227.574082 385.478125 
L 227.574082 346.483354 
L 211.11781 346.483354 
z
" clip-path="url(#pfd6a517ea3)" style="fill: #1f77b4; fill-opacity: 0.5; stroke: #000000; stroke-linejoin: miter"/>
   </g>
   <g id="patch_8">
    <path d="M 227.574082 385.478125 
L 244.030353 385.478125 
L 244.030353 346.483354 
L 227.574082 346.483354 
z
" clip-path="url(#pfd6a517ea3)" style="fill: #1f77b4; fill-opacity: 0.5; stroke: #000000; stroke-linejoin: miter"/>
   </g>
   <g id="patch_9">
    <path d="M 244.030353 385.478125 
L 260.486625 385.478125 
L 260.486625 344.787929 
L 244.030353 344.787929 
z
" clip-path="url(#pfd6a517ea3)" style="fill: #1f77b4; fill-opacity: 0.5; stroke: #000000; stroke-linejoin: miter"/>
   </g>
   <g id="patch_10">
    <path d="M 260.486625 385.478125 
L 276.942897 385.478125 
L 276.942897 299.5766 
L 260.486625 299.5766 
z
" clip-path="url(#pfd6a517ea3)" style="fill: #1f77b4; fill-opacity: 0.5; stroke: #000000; stroke-linejoin: miter"/>
   </g>
   <g id="patch_11">
    <path d="M 276.942897 385.478125 
L 293.399169 385.478125 
L 293.399169 331.789672 
L 276.942897 331.789672 
z
" clip-path="url(#pfd6a517ea3)" style="fill: #1f77b4; fill-opacity: 0.5; stroke: #000000; stroke-linejoin: miter"/>
   </g>
   <g id="patch_12">
    <path d="M 293.399169 385.478125 
L 309.85544 385.478125 
L 309.85544 327.833681 
L 293.399169 327.833681 
z
" clip-path="url(#pfd6a517ea3)" style="fill: #1f77b4; fill-opacity: 0.5; stroke: #000000; stroke-linejoin: miter"/>
   </g>
   <g id="patch_13">
    <path d="M 309.85544 385.478125 
L 326.311712 385.478125 
L 326.311712 313.139999 
L 309.85544 313.139999 
z
" clip-path="url(#pfd6a517ea3)" style="fill: #1f77b4; fill-opacity: 0.5; stroke: #000000; stroke-linejoin: miter"/>
   </g>
   <g id="patch_14">
    <path d="M 326.311712 385.478125 
L 342.767984 385.478125 
L 342.767984 299.011458 
L 326.311712 299.011458 
z
" clip-path="url(#pfd6a517ea3)" style="fill: #1f77b4; fill-opacity: 0.5; stroke: #000000; stroke-linejoin: miter"/>
   </g>
   <g id="patch_15">
    <path d="M 342.767984 385.478125 
L 359.224255 385.478125 
L 359.224255 295.055467 
L 342.767984 295.055467 
z
" clip-path="url(#pfd6a517ea3)" style="fill: #1f77b4; fill-opacity: 0.5; stroke: #000000; stroke-linejoin: miter"/>
   </g>
   <g id="patch_16">
    <path d="M 359.224255 385.478125 
L 375.680527 385.478125 
L 375.680527 295.055467 
L 359.224255 295.055467 
z
" clip-path="url(#pfd6a517ea3)" style="fill: #1f77b4; fill-opacity: 0.5; stroke: #000000; stroke-linejoin: miter"/>
   </g>
   <g id="patch_17">
    <path d="M 375.680527 385.478125 
L 392.136799 385.478125 
L 392.136799 215.935641 
L 375.680527 215.935641 
z
" clip-path="url(#pfd6a517ea3)" style="fill: #1f77b4; fill-opacity: 0.5; stroke: #000000; stroke-linejoin: miter"/>
   </g>
   <g id="patch_18">
    <path d="M 392.136799 385.478125 
L 408.593071 385.478125 
L 408.593071 265.668103 
L 392.136799 265.668103 
z
" clip-path="url(#pfd6a517ea3)" style="fill: #1f77b4; fill-opacity: 0.5; stroke: #000000; stroke-linejoin: miter"/>
   </g>
   <g id="patch_19">
    <path d="M 408.593071 385.478125 
L 425.049342 385.478125 
L 425.049342 229.49904 
L 408.593071 229.49904 
z
" clip-path="url(#pfd6a517ea3)" style="fill: #1f77b4; fill-opacity: 0.5; stroke: #000000; stroke-linejoin: miter"/>
   </g>
   <g id="patch_20">
    <path d="M 425.049342 385.478125 
L 441.505614 385.478125 
L 441.505614 232.88989 
L 425.049342 232.88989 
z
" clip-path="url(#pfd6a517ea3)" style="fill: #1f77b4; fill-opacity: 0.5; stroke: #000000; stroke-linejoin: miter"/>
   </g>
   <g id="patch_21">
    <path d="M 441.505614 385.478125 
L 457.961886 385.478125 
L 457.961886 226.673332 
L 441.505614 226.673332 
z
" clip-path="url(#pfd6a517ea3)" style="fill: #1f77b4; fill-opacity: 0.5; stroke: #000000; stroke-linejoin: miter"/>
   </g>
   <g id="patch_22">
    <path d="M 457.961886 385.478125 
L 474.418158 385.478125 
L 474.418158 202.372243 
L 457.961886 202.372243 
z
" clip-path="url(#pfd6a517ea3)" style="fill: #1f77b4; fill-opacity: 0.5; stroke: #000000; stroke-linejoin: miter"/>
   </g>
   <g id="patch_23">
    <path d="M 474.418158 385.478125 
L 490.874429 385.478125 
L 490.874429 195.025402 
L 474.418158 195.025402 
z
" clip-path="url(#pfd6a517ea3)" style="fill: #1f77b4; fill-opacity: 0.5; stroke: #000000; stroke-linejoin: miter"/>
   </g>
   <g id="patch_24">
    <path d="M 490.874429 385.478125 
L 507.330701 385.478125 
L 507.330701 189.373986 
L 490.874429 189.373986 
z
" clip-path="url(#pfd6a517ea3)" style="fill: #1f77b4; fill-opacity: 0.5; stroke: #000000; stroke-linejoin: miter"/>
   </g>
   <g id="patch_25">
    <path d="M 507.330701 385.478125 
L 523.786973 385.478125 
L 523.786973 39.611458 
L 507.330701 39.611458 
z
" clip-path="url(#pfd6a517ea3)" style="fill: #1f77b4; fill-opacity: 0.5; stroke: #000000; stroke-linejoin: miter"/>
   </g>
   <g id="patch_26">
    <path d="M 523.786973 385.478125 
L 540.243245 385.478125 
L 540.243245 157.726055 
L 523.786973 157.726055 
z
" clip-path="url(#pfd6a517ea3)" style="fill: #1f77b4; fill-opacity: 0.5; stroke: #000000; stroke-linejoin: miter"/>
   </g>
   <g id="patch_27">
    <path d="M 540.243245 385.478125 
L 556.699516 385.478125 
L 556.699516 166.768321 
L 540.243245 166.768321 
z
" clip-path="url(#pfd6a517ea3)" style="fill: #1f77b4; fill-opacity: 0.5; stroke: #000000; stroke-linejoin: miter"/>
   </g>
   <g id="patch_28">
    <path d="M 556.699516 385.478125 
L 573.155788 385.478125 
L 573.155788 178.636295 
L 556.699516 178.636295 
z
" clip-path="url(#pfd6a517ea3)" style="fill: #1f77b4; fill-opacity: 0.5; stroke: #000000; stroke-linejoin: miter"/>
   </g>
   <g id="patch_29">
    <path d="M 573.155788 385.478125 
L 589.61206 385.478125 
L 589.61206 218.196208 
L 573.155788 218.196208 
z
" clip-path="url(#pfd6a517ea3)" style="fill: #1f77b4; fill-opacity: 0.5; stroke: #000000; stroke-linejoin: miter"/>
   </g>
   <g id="patch_30">
    <path d="M 589.61206 385.478125 
L 606.068331 385.478125 
L 606.068331 232.88989 
L 589.61206 232.88989 
z
" clip-path="url(#pfd6a517ea3)" style="fill: #1f77b4; fill-opacity: 0.5; stroke: #000000; stroke-linejoin: miter"/>
   </g>
   <g id="patch_31">
    <path d="M 606.068331 385.478125 
L 622.524603 385.478125 
L 622.524603 279.796644 
L 606.068331 279.796644 
z
" clip-path="url(#pfd6a517ea3)" style="fill: #1f77b4; fill-opacity: 0.5; stroke: #000000; stroke-linejoin: miter"/>
   </g>
   <g id="patch_32">
    <path d="M 622.524603 385.478125 
L 638.980875 385.478125 
L 638.980875 285.44806 
L 622.524603 285.44806 
z
" clip-path="url(#pfd6a517ea3)" style="fill: #1f77b4; fill-opacity: 0.5; stroke: #000000; stroke-linejoin: miter"/>
   </g>
   <g id="patch_33">
    <path d="M 638.980875 385.478125 
L 655.437147 385.478125 
L 655.437147 338.00623 
L 638.980875 338.00623 
z
" clip-path="url(#pfd6a517ea3)" style="fill: #1f77b4; fill-opacity: 0.5; stroke: #000000; stroke-linejoin: miter"/>
   </g>
   <g id="patch_34">
    <path d="M 655.437147 385.478125 
L 671.893418 385.478125 
L 671.893418 356.655903 
L 655.437147 356.655903 
z
" clip-path="url(#pfd6a517ea3)" style="fill: #1f77b4; fill-opacity: 0.5; stroke: #000000; stroke-linejoin: miter"/>
   </g>
   <g id="patch_35">
    <path d="M 671.893418 385.478125 
L 688.34969 385.478125 
L 688.34969 366.26331 
L 671.893418 366.26331 
z
" clip-path="url(#pfd6a517ea3)" style="fill: #1f77b4; fill-opacity: 0.5; stroke: #000000; stroke-linejoin: miter"/>
   </g>
   <g id="patch_36">
    <path d="M 688.34969 385.478125 
L 704.805962 385.478125 
L 704.805962 377.001001 
L 688.34969 377.001001 
z
" clip-path="url(#pfd6a517ea3)" style="fill: #1f77b4; fill-opacity: 0.5; stroke: #000000; stroke-linejoin: miter"/>
   </g>
   <g id="patch_37">
    <path d="M 704.805962 385.478125 
L 721.262234 385.478125 
L 721.262234 380.956992 
L 704.805962 380.956992 
z
" clip-path="url(#pfd6a517ea3)" style="fill: #1f77b4; fill-opacity: 0.5; stroke: #000000; stroke-linejoin: miter"/>
   </g>
   <g id="patch_38">
    <path d="M 721.262234 385.478125 
L 737.718505 385.478125 
L 737.718505 384.347842 
L 721.262234 384.347842 
z
" clip-path="url(#pfd6a517ea3)" style="fill: #1f77b4; fill-opacity: 0.5; stroke: #000000; stroke-linejoin: miter"/>
   </g>
   <g id="patch_39">
    <path d="M 737.718505 385.478125 
L 754.174777 385.478125 
L 754.174777 384.347842 
L 737.718505 384.347842 
z
" clip-path="url(#pfd6a517ea3)" style="fill: #1f77b4; fill-opacity: 0.5; stroke: #000000; stroke-linejoin: miter"/>
   </g>
   <g id="matplotlib.axis_1">
    <g id="xtick_1">
     <g id="line2d_1">
      <defs>
       <path id="m88930de7f1" d="M 0 0 
L 0 3.5 
" style="stroke: #000000; stroke-width: 0.8"/>
      </defs>
      <g>
       <use xlink:href="#m88930de7f1" x="160.707458" y="385.478125" style="stroke: #000000; stroke-width: 0.8"/>
      </g>
     </g>
     <g id="text_1">
      <!-- 20 -->
      <g transform="translate(154.344958 400.076562) scale(0.1 -0.1)">
       <defs>
        <path id="DejaVuSans-32" d="M 1228 531 
L 3431 531 
L 3431 0 
L 469 0 
L 469 531 
Q 828 903 1448 1529 
Q 2069 2156 2228 2338 
Q 2531 2678 2651 2914 
Q 2772 3150 2772 3378 
Q 2772 3750 2511 3984 
Q 2250 4219 1831 4219 
Q 1534 4219 1204 4116 
Q 875 4013 500 3803 
L 500 4441 
Q 881 4594 1212 4672 
Q 1544 4750 1819 4750 
Q 2544 4750 2975 4387 
Q 3406 4025 3406 3419 
Q 3406 3131 3298 2873 
Q 3191 2616 2906 2266 
Q 2828 2175 2409 1742 
Q 1991 1309 1228 531 
z
" transform="scale(0.015625)"/>
        <path id="DejaVuSans-30" d="M 2034 4250 
Q 1547 4250 1301 3770 
Q 1056 3291 1056 2328 
Q 1056 1369 1301 889 
Q 1547 409 2034 409 
Q 2525 409 2770 889 
Q 3016 1369 3016 2328 
Q 3016 3291 2770 3770 
Q 2525 4250 2034 4250 
z
M 2034 4750 
Q 2819 4750 3233 4129 
Q 3647 3509 3647 2328 
Q 3647 1150 3233 529 
Q 2819 -91 2034 -91 
Q 1250 -91 836 529 
Q 422 1150 422 2328 
Q 422 3509 836 4129 
Q 1250 4750 2034 4750 
z
" transform="scale(0.015625)"/>
       </defs>
       <use xlink:href="#DejaVuSans-32"/>
       <use xlink:href="#DejaVuSans-30" x="63.623047"/>
      </g>
     </g>
    </g>
    <g id="xtick_2">
     <g id="line2d_2">
      <g>
       <use xlink:href="#m88930de7f1" x="314.854814" y="385.478125" style="stroke: #000000; stroke-width: 0.8"/>
      </g>
     </g>
     <g id="text_2">
      <!-- 40 -->
      <g transform="translate(308.492314 400.076562) scale(0.1 -0.1)">
       <defs>
        <path id="DejaVuSans-34" d="M 2419 4116 
L 825 1625 
L 2419 1625 
L 2419 4116 
z
M 2253 4666 
L 3047 4666 
L 3047 1625 
L 3713 1625 
L 3713 1100 
L 3047 1100 
L 3047 0 
L 2419 0 
L 2419 1100 
L 313 1100 
L 313 1709 
L 2253 4666 
z
" transform="scale(0.015625)"/>
       </defs>
       <use xlink:href="#DejaVuSans-34"/>
       <use xlink:href="#DejaVuSans-30" x="63.623047"/>
      </g>
     </g>
    </g>
    <g id="xtick_3">
     <g id="line2d_3">
      <g>
       <use xlink:href="#m88930de7f1" x="469.002169" y="385.478125" style="stroke: #000000; stroke-width: 0.8"/>
      </g>
     </g>
     <g id="text_3">
      <!-- 60 -->
      <g transform="translate(462.639669 400.076562) scale(0.1 -0.1)">
       <defs>
        <path id="DejaVuSans-36" d="M 2113 2584 
Q 1688 2584 1439 2293 
Q 1191 2003 1191 1497 
Q 1191 994 1439 701 
Q 1688 409 2113 409 
Q 2538 409 2786 701 
Q 3034 994 3034 1497 
Q 3034 2003 2786 2293 
Q 2538 2584 2113 2584 
z
M 3366 4563 
L 3366 3988 
Q 3128 4100 2886 4159 
Q 2644 4219 2406 4219 
Q 1781 4219 1451 3797 
Q 1122 3375 1075 2522 
Q 1259 2794 1537 2939 
Q 1816 3084 2150 3084 
Q 2853 3084 3261 2657 
Q 3669 2231 3669 1497 
Q 3669 778 3244 343 
Q 2819 -91 2113 -91 
Q 1303 -91 875 529 
Q 447 1150 447 2328 
Q 447 3434 972 4092 
Q 1497 4750 2381 4750 
Q 2619 4750 2861 4703 
Q 3103 4656 3366 4563 
z
" transform="scale(0.015625)"/>
       </defs>
       <use xlink:href="#DejaVuSans-36"/>
       <use xlink:href="#DejaVuSans-30" x="63.623047"/>
      </g>
     </g>
    </g>
    <g id="xtick_4">
     <g id="line2d_4">
      <g>
       <use xlink:href="#m88930de7f1" x="623.149525" y="385.478125" style="stroke: #000000; stroke-width: 0.8"/>
      </g>
     </g>
     <g id="text_4">
      <!-- 80 -->
      <g transform="translate(616.787025 400.076562) scale(0.1 -0.1)">
       <defs>
        <path id="DejaVuSans-38" d="M 2034 2216 
Q 1584 2216 1326 1975 
Q 1069 1734 1069 1313 
Q 1069 891 1326 650 
Q 1584 409 2034 409 
Q 2484 409 2743 651 
Q 3003 894 3003 1313 
Q 3003 1734 2745 1975 
Q 2488 2216 2034 2216 
z
M 1403 2484 
Q 997 2584 770 2862 
Q 544 3141 544 3541 
Q 544 4100 942 4425 
Q 1341 4750 2034 4750 
Q 2731 4750 3128 4425 
Q 3525 4100 3525 3541 
Q 3525 3141 3298 2862 
Q 3072 2584 2669 2484 
Q 3125 2378 3379 2068 
Q 3634 1759 3634 1313 
Q 3634 634 3220 271 
Q 2806 -91 2034 -91 
Q 1263 -91 848 271 
Q 434 634 434 1313 
Q 434 1759 690 2068 
Q 947 2378 1403 2484 
z
M 1172 3481 
Q 1172 3119 1398 2916 
Q 1625 2713 2034 2713 
Q 2441 2713 2670 2916 
Q 2900 3119 2900 3481 
Q 2900 3844 2670 4047 
Q 2441 4250 2034 4250 
Q 1625 4250 1398 4047 
Q 1172 3844 1172 3481 
z
" transform="scale(0.015625)"/>
       </defs>
       <use xlink:href="#DejaVuSans-38"/>
       <use xlink:href="#DejaVuSans-30" x="63.623047"/>
      </g>
     </g>
    </g>
    <g id="xtick_5">
     <g id="line2d_5">
      <g>
       <use xlink:href="#m88930de7f1" x="777.29688" y="385.478125" style="stroke: #000000; stroke-width: 0.8"/>
      </g>
     </g>
     <g id="text_5">
      <!-- 100 -->
      <g transform="translate(767.75313 400.076562) scale(0.1 -0.1)">
       <defs>
        <path id="DejaVuSans-31" d="M 794 531 
L 1825 531 
L 1825 4091 
L 703 3866 
L 703 4441 
L 1819 4666 
L 2450 4666 
L 2450 531 
L 3481 531 
L 3481 0 
L 794 0 
L 794 531 
z
" transform="scale(0.015625)"/>
       </defs>
       <use xlink:href="#DejaVuSans-31"/>
       <use xlink:href="#DejaVuSans-30" x="63.623047"/>
       <use xlink:href="#DejaVuSans-30" x="127.246094"/>
      </g>
     </g>
    </g>
    <g id="text_6">
     <!-- Age -->
     <g transform="translate(440.062656 413.754687) scale(0.1 -0.1)">
      <defs>
       <path id="DejaVuSans-41" d="M 2188 4044 
L 1331 1722 
L 3047 1722 
L 2188 4044 
z
M 1831 4666 
L 2547 4666 
L 4325 0 
L 3669 0 
L 3244 1197 
L 1141 1197 
L 716 0 
L 50 0 
L 1831 4666 
z
" transform="scale(0.015625)"/>
       <path id="DejaVuSans-67" d="M 2906 1791 
Q 2906 2416 2648 2759 
Q 2391 3103 1925 3103 
Q 1463 3103 1205 2759 
Q 947 2416 947 1791 
Q 947 1169 1205 825 
Q 1463 481 1925 481 
Q 2391 481 2648 825 
Q 2906 1169 2906 1791 
z
M 3481 434 
Q 3481 -459 3084 -895 
Q 2688 -1331 1869 -1331 
Q 1566 -1331 1297 -1286 
Q 1028 -1241 775 -1147 
L 775 -588 
Q 1028 -725 1275 -790 
Q 1522 -856 1778 -856 
Q 2344 -856 2625 -561 
Q 2906 -266 2906 331 
L 2906 616 
Q 2728 306 2450 153 
Q 2172 0 1784 0 
Q 1141 0 747 490 
Q 353 981 353 1791 
Q 353 2603 747 3093 
Q 1141 3584 1784 3584 
Q 2172 3584 2450 3431 
Q 2728 3278 2906 2969 
L 2906 3500 
L 3481 3500 
L 3481 434 
z
" transform="scale(0.015625)"/>
       <path id="DejaVuSans-65" d="M 3597 1894 
L 3597 1613 
L 953 1613 
Q 991 1019 1311 708 
Q 1631 397 2203 397 
Q 2534 397 2845 478 
Q 3156 559 3463 722 
L 3463 178 
Q 3153 47 2828 -22 
Q 2503 -91 2169 -91 
Q 1331 -91 842 396 
Q 353 884 353 1716 
Q 353 2575 817 3079 
Q 1281 3584 2069 3584 
Q 2775 3584 3186 3129 
Q 3597 2675 3597 1894 
z
M 3022 2063 
Q 3016 2534 2758 2815 
Q 2500 3097 2075 3097 
Q 1594 3097 1305 2825 
Q 1016 2553 972 2059 
L 3022 2063 
z
" transform="scale(0.015625)"/>
      </defs>
      <use xlink:href="#DejaVuSans-41"/>
      <use xlink:href="#DejaVuSans-67" x="68.408203"/>
      <use xlink:href="#DejaVuSans-65" x="131.884766"/>
     </g>
    </g>
   </g>
   <g id="matplotlib.axis_2">
    <g id="ytick_1">
     <g id="line2d_6">
      <defs>
       <path id="m64bfdaeebd" d="M 0 0 
L -3.5 0 
" style="stroke: #000000; stroke-width: 0.8"/>
      </defs>
      <g>
       <use xlink:href="#m64bfdaeebd" x="50.14375" y="385.478125" style="stroke: #000000; stroke-width: 0.8"/>
      </g>
     </g>
     <g id="text_7">
      <!-- 0.00 -->
      <g transform="translate(20.878125 389.277344) scale(0.1 -0.1)">
       <defs>
        <path id="DejaVuSans-2e" d="M 684 794 
L 1344 794 
L 1344 0 
L 684 0 
L 684 794 
z
" transform="scale(0.015625)"/>
       </defs>
       <use xlink:href="#DejaVuSans-30"/>
       <use xlink:href="#DejaVuSans-2e" x="63.623047"/>
       <use xlink:href="#DejaVuSans-30" x="95.410156"/>
       <use xlink:href="#DejaVuSans-30" x="159.033203"/>
      </g>
     </g>
    </g>
    <g id="ytick_2">
     <g id="line2d_7">
      <g>
       <use xlink:href="#m64bfdaeebd" x="50.14375" y="306.213043" style="stroke: #000000; stroke-width: 0.8"/>
      </g>
     </g>
     <g id="text_8">
      <!-- 0.01 -->
      <g transform="translate(20.878125 310.012261) scale(0.1 -0.1)">
       <use xlink:href="#DejaVuSans-30"/>
       <use xlink:href="#DejaVuSans-2e" x="63.623047"/>
       <use xlink:href="#DejaVuSans-30" x="95.410156"/>
       <use xlink:href="#DejaVuSans-31" x="159.033203"/>
      </g>
     </g>
    </g>
    <g id="ytick_3">
     <g id="line2d_8">
      <g>
       <use xlink:href="#m64bfdaeebd" x="50.14375" y="226.94796" style="stroke: #000000; stroke-width: 0.8"/>
      </g>
     </g>
     <g id="text_9">
      <!-- 0.02 -->
      <g transform="translate(20.878125 230.747179) scale(0.1 -0.1)">
       <use xlink:href="#DejaVuSans-30"/>
       <use xlink:href="#DejaVuSans-2e" x="63.623047"/>
       <use xlink:href="#DejaVuSans-30" x="95.410156"/>
       <use xlink:href="#DejaVuSans-32" x="159.033203"/>
      </g>
     </g>
    </g>
    <g id="ytick_4">
     <g id="line2d_9">
      <g>
       <use xlink:href="#m64bfdaeebd" x="50.14375" y="147.682878" style="stroke: #000000; stroke-width: 0.8"/>
      </g>
     </g>
     <g id="text_10">
      <!-- 0.03 -->
      <g transform="translate(20.878125 151.482097) scale(0.1 -0.1)">
       <defs>
        <path id="DejaVuSans-33" d="M 2597 2516 
Q 3050 2419 3304 2112 
Q 3559 1806 3559 1356 
Q 3559 666 3084 287 
Q 2609 -91 1734 -91 
Q 1441 -91 1130 -33 
Q 819 25 488 141 
L 488 750 
Q 750 597 1062 519 
Q 1375 441 1716 441 
Q 2309 441 2620 675 
Q 2931 909 2931 1356 
Q 2931 1769 2642 2001 
Q 2353 2234 1838 2234 
L 1294 2234 
L 1294 2753 
L 1863 2753 
Q 2328 2753 2575 2939 
Q 2822 3125 2822 3475 
Q 2822 3834 2567 4026 
Q 2313 4219 1838 4219 
Q 1578 4219 1281 4162 
Q 984 4106 628 3988 
L 628 4550 
Q 988 4650 1302 4700 
Q 1616 4750 1894 4750 
Q 2613 4750 3031 4423 
Q 3450 4097 3450 3541 
Q 3450 3153 3228 2886 
Q 3006 2619 2597 2516 
z
" transform="scale(0.015625)"/>
       </defs>
       <use xlink:href="#DejaVuSans-30"/>
       <use xlink:href="#DejaVuSans-2e" x="63.623047"/>
       <use xlink:href="#DejaVuSans-30" x="95.410156"/>
       <use xlink:href="#DejaVuSans-33" x="159.033203"/>
      </g>
     </g>
    </g>
    <g id="ytick_5">
     <g id="line2d_10">
      <g>
       <use xlink:href="#m64bfdaeebd" x="50.14375" y="68.417795" style="stroke: #000000; stroke-width: 0.8"/>
      </g>
     </g>
     <g id="text_11">
      <!-- 0.04 -->
      <g transform="translate(20.878125 72.217014) scale(0.1 -0.1)">
       <use xlink:href="#DejaVuSans-30"/>
       <use xlink:href="#DejaVuSans-2e" x="63.623047"/>
       <use xlink:href="#DejaVuSans-30" x="95.410156"/>
       <use xlink:href="#DejaVuSans-34" x="159.033203"/>
      </g>
     </g>
    </g>
    <g id="text_12">
     <!-- Density -->
     <g transform="translate(14.798438 222.906719) rotate(-90) scale(0.1 -0.1)">
      <defs>
       <path id="DejaVuSans-44" d="M 1259 4147 
L 1259 519 
L 2022 519 
Q 2988 519 3436 956 
Q 3884 1394 3884 2338 
Q 3884 3275 3436 3711 
Q 2988 4147 2022 4147 
L 1259 4147 
z
M 628 4666 
L 1925 4666 
Q 3281 4666 3915 4102 
Q 4550 3538 4550 2338 
Q 4550 1131 3912 565 
Q 3275 0 1925 0 
L 628 0 
L 628 4666 
z
" transform="scale(0.015625)"/>
       <path id="DejaVuSans-6e" d="M 3513 2113 
L 3513 0 
L 2938 0 
L 2938 2094 
Q 2938 2591 2744 2837 
Q 2550 3084 2163 3084 
Q 1697 3084 1428 2787 
Q 1159 2491 1159 1978 
L 1159 0 
L 581 0 
L 581 3500 
L 1159 3500 
L 1159 2956 
Q 1366 3272 1645 3428 
Q 1925 3584 2291 3584 
Q 2894 3584 3203 3211 
Q 3513 2838 3513 2113 
z
" transform="scale(0.015625)"/>
       <path id="DejaVuSans-73" d="M 2834 3397 
L 2834 2853 
Q 2591 2978 2328 3040 
Q 2066 3103 1784 3103 
Q 1356 3103 1142 2972 
Q 928 2841 928 2578 
Q 928 2378 1081 2264 
Q 1234 2150 1697 2047 
L 1894 2003 
Q 2506 1872 2764 1633 
Q 3022 1394 3022 966 
Q 3022 478 2636 193 
Q 2250 -91 1575 -91 
Q 1294 -91 989 -36 
Q 684 19 347 128 
L 347 722 
Q 666 556 975 473 
Q 1284 391 1588 391 
Q 1994 391 2212 530 
Q 2431 669 2431 922 
Q 2431 1156 2273 1281 
Q 2116 1406 1581 1522 
L 1381 1569 
Q 847 1681 609 1914 
Q 372 2147 372 2553 
Q 372 3047 722 3315 
Q 1072 3584 1716 3584 
Q 2034 3584 2315 3537 
Q 2597 3491 2834 3397 
z
" transform="scale(0.015625)"/>
       <path id="DejaVuSans-69" d="M 603 3500 
L 1178 3500 
L 1178 0 
L 603 0 
L 603 3500 
z
M 603 4863 
L 1178 4863 
L 1178 4134 
L 603 4134 
L 603 4863 
z
" transform="scale(0.015625)"/>
       <path id="DejaVuSans-74" d="M 1172 4494 
L 1172 3500 
L 2356 3500 
L 2356 3053 
L 1172 3053 
L 1172 1153 
Q 1172 725 1289 603 
Q 1406 481 1766 481 
L 2356 481 
L 2356 0 
L 1766 0 
Q 1100 0 847 248 
Q 594 497 594 1153 
L 594 3053 
L 172 3053 
L 172 3500 
L 594 3500 
L 594 4494 
L 1172 4494 
z
" transform="scale(0.015625)"/>
       <path id="DejaVuSans-79" d="M 2059 -325 
Q 1816 -950 1584 -1140 
Q 1353 -1331 966 -1331 
L 506 -1331 
L 506 -850 
L 844 -850 
Q 1081 -850 1212 -737 
Q 1344 -625 1503 -206 
L 1606 56 
L 191 3500 
L 800 3500 
L 1894 763 
L 2988 3500 
L 3597 3500 
L 2059 -325 
z
" transform="scale(0.015625)"/>
      </defs>
      <use xlink:href="#DejaVuSans-44"/>
      <use xlink:href="#DejaVuSans-65" x="77.001953"/>
      <use xlink:href="#DejaVuSans-6e" x="138.525391"/>
      <use xlink:href="#DejaVuSans-73" x="201.904297"/>
      <use xlink:href="#DejaVuSans-69" x="254.003906"/>
      <use xlink:href="#DejaVuSans-74" x="281.787109"/>
      <use xlink:href="#DejaVuSans-79" x="320.996094"/>
     </g>
    </g>
   </g>
   <g id="line2d_11">
    <path d="M 145.292723 374.957848 
L 154.471849 371.275628 
L 160.591267 369.044493 
L 169.770393 366.02184 
L 178.94952 363.027342 
L 185.068938 360.839907 
L 191.188355 358.448817 
L 203.42719 353.306753 
L 212.606317 349.567649 
L 218.725734 347.295414 
L 224.845152 345.215431 
L 246.263114 338.236023 
L 255.44224 334.83812 
L 264.621367 331.439484 
L 270.740784 329.36972 
L 279.919911 326.588205 
L 286.039328 324.753154 
L 292.158746 322.678434 
L 295.218455 321.482668 
L 298.278164 320.153492 
L 301.337872 318.678883 
L 304.397581 317.055321 
L 307.45729 315.288266 
L 313.576708 311.388744 
L 331.934961 298.928904 
L 338.054378 295.326073 
L 344.173796 292.153488 
L 359.47234 284.818968 
L 362.532049 283.149518 
L 365.591758 281.330274 
L 368.651466 279.340387 
L 371.711175 277.169395 
L 374.770884 274.817265 
L 377.830593 272.293412 
L 383.95001 266.804303 
L 390.069428 260.89056 
L 408.427681 242.616671 
L 414.547099 236.897857 
L 420.666516 231.537202 
L 426.785934 226.530361 
L 435.96506 219.458852 
L 445.144187 212.442091 
L 451.263604 207.585368 
L 460.442731 199.952943 
L 469.621857 191.971338 
L 478.800984 183.613498 
L 484.920401 177.76785 
L 500.218945 162.891547 
L 503.278654 160.179957 
L 506.338363 157.682416 
L 509.398072 155.451883 
L 512.457781 153.533025 
L 515.51749 151.959202 
L 518.577198 150.75101 
L 521.636907 149.916539 
L 524.696616 149.453214 
L 527.756325 149.350853 
L 530.816034 149.595383 
L 533.875742 150.172611 
L 536.935451 151.071473 
L 539.99516 152.28628 
L 543.054869 153.81771 
L 546.114578 155.67247 
L 549.174286 157.861794 
L 552.233995 160.399108 
L 555.293704 163.29731 
L 558.353413 166.566148 
L 561.413122 170.210127 
L 564.472831 174.227264 
L 567.532539 178.608787 
L 570.592248 183.339738 
L 573.651957 188.400207 
L 576.711666 193.766859 
L 579.771375 199.414363 
L 585.890792 211.446038 
L 592.01021 224.275871 
L 598.129628 237.659336 
L 613.428172 271.523149 
L 619.547589 284.338569 
L 625.667007 296.306417 
L 628.726716 301.919788 
L 631.786424 307.272461 
L 634.846133 312.362418 
L 637.905842 317.193029 
L 640.965551 321.771809 
L 644.02526 326.109143 
L 647.084969 330.217132 
L 650.144677 334.108623 
L 653.204386 337.796499 
L 656.264095 341.293186 
L 659.323804 344.610338 
L 665.443221 350.747599 
L 671.562639 356.27884 
L 677.682057 361.250935 
L 683.801474 365.684857 
L 686.861183 367.700718 
L 689.920892 369.581547 
L 692.980601 371.326747 
L 696.04031 372.936462 
L 699.100018 374.411967 
L 702.159727 375.755886 
L 705.219436 376.97222 
L 711.338854 379.044208 
L 717.458271 380.680806 
L 723.577689 381.943356 
L 729.697107 382.895696 
L 735.816524 383.600525 
L 741.935942 384.116328 
L 751.115068 384.643826 
L 754.174777 384.773303 
L 754.174777 384.773303 
" clip-path="url(#pfd6a517ea3)" style="fill: none; stroke: #1f77b4; stroke-width: 1.5; stroke-linecap: square"/>
   </g>
   <g id="line2d_12">
    <path d="M 86.470114 385.44476 
L 97.422786 385.303826 
L 104.724568 385.029212 
L 112.026349 384.454778 
L 115.67724 384.000731 
L 119.328131 383.406694 
L 122.979022 382.65591 
L 126.629913 381.739258 
L 130.280803 380.658043 
L 133.931694 379.425716 
L 141.233476 376.620639 
L 155.837039 370.759315 
L 163.138821 368.175672 
L 181.393275 362.178078 
L 188.695057 359.446121 
L 195.996838 356.45684 
L 210.600401 350.355356 
L 217.902183 347.589407 
L 225.203965 345.098403 
L 243.458419 339.217695 
L 250.7602 336.598156 
L 265.363764 331.177733 
L 272.665545 328.76031 
L 290.919999 323.128822 
L 294.57089 321.74632 
L 298.221781 320.179276 
L 301.872672 318.405809 
L 305.523563 316.421155 
L 309.174454 314.238693 
L 316.476235 309.417796 
L 327.428908 301.850205 
L 331.079798 299.467461 
L 334.730689 297.22691 
L 338.38158 295.146153 
L 342.032471 293.220624 
L 349.334253 289.706634 
L 356.636034 286.258825 
L 360.286925 284.387591 
L 363.937816 282.333769 
L 367.588707 280.051773 
L 371.239597 277.515922 
L 374.890488 274.721743 
L 378.541379 271.684219 
L 382.19227 268.433649 
L 389.494052 261.458931 
L 411.399396 239.798038 
L 418.701178 233.218196 
L 426.00296 227.153731 
L 433.304741 221.478557 
L 447.908305 210.271497 
L 455.210086 204.352334 
L 462.511868 198.181904 
L 469.813649 191.801016 
L 477.115431 185.18335 
L 484.417213 178.256736 
L 499.020776 163.999345 
L 502.671667 160.702648 
L 506.322558 157.694674 
L 509.973448 155.066072 
L 513.624339 152.890881 
L 517.27523 151.219641 
L 520.926121 150.077053 
L 524.577012 149.464463 
L 528.227903 149.366302 
L 531.878793 149.758823 
L 535.529684 150.619062 
L 539.180575 151.932079 
L 542.831466 153.695064 
L 546.482357 155.917682 
L 550.133247 158.618943 
L 553.784138 161.82161 
L 557.435029 165.545679 
L 561.08592 169.802533 
L 564.736811 174.591097 
L 568.387702 179.89664 
L 572.038592 185.692153 
L 575.689483 191.941455 
L 579.340374 198.602823 
L 582.991265 205.631881 
L 586.642156 212.982941 
L 593.943937 228.457926 
L 604.89661 252.751101 
L 612.198391 268.867041 
L 619.500173 284.242253 
L 623.151064 291.501067 
L 626.801955 298.418633 
L 630.452845 304.971807 
L 634.103736 311.151445 
L 637.754627 316.960285 
L 641.405518 322.410083 
L 645.056409 327.518561 
L 648.7073 332.306632 
L 652.35819 336.79622 
L 656.009081 341.008764 
L 659.659972 344.964314 
L 663.310863 348.680967 
L 666.961754 352.17445 
L 670.612644 355.457698 
L 674.263535 358.540458 
L 677.914426 361.429078 
L 681.565317 364.126657 
L 685.216208 366.633671 
L 688.867099 368.949064 
L 692.517989 371.071591 
L 696.16888 373.001151 
L 699.819771 374.739815 
L 703.470662 376.292367 
L 707.121553 377.666334 
L 710.772443 378.871604 
L 714.423334 379.919822 
L 718.074225 380.823763 
L 721.725116 381.596806 
L 729.026898 382.80457 
L 736.328679 383.650177 
L 743.630461 384.232796 
L 754.583133 384.789214 
L 769.186697 385.19857 
L 787.441151 385.417494 
L 812.997386 385.475813 
L 812.997386 385.475813 
" clip-path="url(#pfd6a517ea3)" style="fill: none; stroke: #1f77b4; stroke-width: 1.5; stroke-linecap: square"/>
   </g>
   <g id="patch_40">
    <path d="M 50.14375 385.478125 
L 50.14375 22.318125 
" style="fill: none; stroke: #000000; stroke-width: 0.8; stroke-linejoin: miter; stroke-linecap: square"/>
   </g>
   <g id="patch_41">
    <path d="M 849.32375 385.478125 
L 849.32375 22.318125 
" style="fill: none; stroke: #000000; stroke-width: 0.8; stroke-linejoin: miter; stroke-linecap: square"/>
   </g>
   <g id="patch_42">
    <path d="M 50.14375 385.478125 
L 849.32375 385.478125 
" style="fill: none; stroke: #000000; stroke-width: 0.8; stroke-linejoin: miter; stroke-linecap: square"/>
   </g>
   <g id="patch_43">
    <path d="M 50.14375 22.318125 
L 849.32375 22.318125 
" style="fill: none; stroke: #000000; stroke-width: 0.8; stroke-linejoin: miter; stroke-linecap: square"/>
   </g>
   <g id="text_13">
    <!-- Distribution of Age -->
    <g transform="translate(393.52875 16.318125) scale(0.12 -0.12)">
     <defs>
      <path id="DejaVuSans-72" d="M 2631 2963 
Q 2534 3019 2420 3045 
Q 2306 3072 2169 3072 
Q 1681 3072 1420 2755 
Q 1159 2438 1159 1844 
L 1159 0 
L 581 0 
L 581 3500 
L 1159 3500 
L 1159 2956 
Q 1341 3275 1631 3429 
Q 1922 3584 2338 3584 
Q 2397 3584 2469 3576 
Q 2541 3569 2628 3553 
L 2631 2963 
z
" transform="scale(0.015625)"/>
      <path id="DejaVuSans-62" d="M 3116 1747 
Q 3116 2381 2855 2742 
Q 2594 3103 2138 3103 
Q 1681 3103 1420 2742 
Q 1159 2381 1159 1747 
Q 1159 1113 1420 752 
Q 1681 391 2138 391 
Q 2594 391 2855 752 
Q 3116 1113 3116 1747 
z
M 1159 2969 
Q 1341 3281 1617 3432 
Q 1894 3584 2278 3584 
Q 2916 3584 3314 3078 
Q 3713 2572 3713 1747 
Q 3713 922 3314 415 
Q 2916 -91 2278 -91 
Q 1894 -91 1617 61 
Q 1341 213 1159 525 
L 1159 0 
L 581 0 
L 581 4863 
L 1159 4863 
L 1159 2969 
z
" transform="scale(0.015625)"/>
      <path id="DejaVuSans-75" d="M 544 1381 
L 544 3500 
L 1119 3500 
L 1119 1403 
Q 1119 906 1312 657 
Q 1506 409 1894 409 
Q 2359 409 2629 706 
Q 2900 1003 2900 1516 
L 2900 3500 
L 3475 3500 
L 3475 0 
L 2900 0 
L 2900 538 
Q 2691 219 2414 64 
Q 2138 -91 1772 -91 
Q 1169 -91 856 284 
Q 544 659 544 1381 
z
M 1991 3584 
L 1991 3584 
z
" transform="scale(0.015625)"/>
      <path id="DejaVuSans-6f" d="M 1959 3097 
Q 1497 3097 1228 2736 
Q 959 2375 959 1747 
Q 959 1119 1226 758 
Q 1494 397 1959 397 
Q 2419 397 2687 759 
Q 2956 1122 2956 1747 
Q 2956 2369 2687 2733 
Q 2419 3097 1959 3097 
z
M 1959 3584 
Q 2709 3584 3137 3096 
Q 3566 2609 3566 1747 
Q 3566 888 3137 398 
Q 2709 -91 1959 -91 
Q 1206 -91 779 398 
Q 353 888 353 1747 
Q 353 2609 779 3096 
Q 1206 3584 1959 3584 
z
" transform="scale(0.015625)"/>
      <path id="DejaVuSans-20" transform="scale(0.015625)"/>
      <path id="DejaVuSans-66" d="M 2375 4863 
L 2375 4384 
L 1825 4384 
Q 1516 4384 1395 4259 
Q 1275 4134 1275 3809 
L 1275 3500 
L 2222 3500 
L 2222 3053 
L 1275 3053 
L 1275 0 
L 697 0 
L 697 3053 
L 147 3053 
L 147 3500 
L 697 3500 
L 697 3744 
Q 697 4328 969 4595 
Q 1241 4863 1831 4863 
L 2375 4863 
z
" transform="scale(0.015625)"/>
     </defs>
     <use xlink:href="#DejaVuSans-44"/>
     <use xlink:href="#DejaVuSans-69" x="77.001953"/>
     <use xlink:href="#DejaVuSans-73" x="104.785156"/>
     <use xlink:href="#DejaVuSans-74" x="156.884766"/>
     <use xlink:href="#DejaVuSans-72" x="196.09375"/>
     <use xlink:href="#DejaVuSans-69" x="237.207031"/>
     <use xlink:href="#DejaVuSans-62" x="264.990234"/>
     <use xlink:href="#DejaVuSans-75" x="328.466797"/>
     <use xlink:href="#DejaVuSans-74" x="391.845703"/>
     <use xlink:href="#DejaVuSans-69" x="431.054688"/>
     <use xlink:href="#DejaVuSans-6f" x="458.837891"/>
     <use xlink:href="#DejaVuSans-6e" x="520.019531"/>
     <use xlink:href="#DejaVuSans-20" x="583.398438"/>
     <use xlink:href="#DejaVuSans-6f" x="615.185547"/>
     <use xlink:href="#DejaVuSans-66" x="676.367188"/>
     <use xlink:href="#DejaVuSans-20" x="711.572266"/>
     <use xlink:href="#DejaVuSans-41" x="743.359375"/>
     <use xlink:href="#DejaVuSans-67" x="811.767578"/>
     <use xlink:href="#DejaVuSans-65" x="875.244141"/>
    </g>
   </g>
  </g>
 </g>
 <defs>
  <clipPath id="pfd6a517ea3">
   <rect x="50.14375" y="22.318125" width="799.18" height="363.16"/>
  </clipPath>
 </defs>
</svg>
