<?xml version="1.0" encoding="utf-8" standalone="no"?>
<!DOCTYPE svg PUBLIC "-//W3C//DTD SVG 1.1//EN"
  "http://www.w3.org/Graphics/SVG/1.1/DTD/svg11.dtd">
<svg xmlns:xlink="http://www.w3.org/1999/xlink" width="856.52375pt" height="423.034375pt" viewBox="0 0 856.52375 423.034375" xmlns="http://www.w3.org/2000/svg" version="1.1">
 <metadata>
  <rdf:RDF xmlns:dc="http://purl.org/dc/elements/1.1/" xmlns:cc="http://creativecommons.org/ns#" xmlns:rdf="http://www.w3.org/1999/02/22-rdf-syntax-ns#">
   <cc:Work>
    <dc:type rdf:resource="http://purl.org/dc/dcmitype/StillImage"/>
    <dc:date>2024-07-19T18:25:22.423538</dc:date>
    <dc:format>image/svg+xml</dc:format>
    <dc:creator>
     <cc:Agent>
      <dc:title>Matplotlib v3.9.0, https://matplotlib.org/</dc:title>
     </cc:Agent>
    </dc:creator>
   </cc:Work>
  </rdf:RDF>
 </metadata>
 <defs>
  <style type="text/css">*{stroke-linejoin: round; stroke-linecap: butt}</style>
 </defs>
 <g id="figure_1">
  <g id="patch_1">
   <path d="M 0 423.034375 
L 856.52375 423.034375 
L 856.52375 0 
L 0 0 
z
" style="fill: #ffffff"/>
  </g>
  <g id="axes_1">
   <g id="patch_2">
    <path d="M 50.14375 385.478125 
L 849.32375 385.478125 
L 849.32375 22.318125 
L 50.14375 22.318125 
z
" style="fill: #ffffff"/>
   </g>
   <g id="patch_3">
    <path d="M 118.401418 385.478125 
L 124.16372 385.478125 
L 124.16372 385.260599 
L 118.401418 385.260599 
z
" clip-path="url(#p10543a09e2)" style="fill: #1f77b4; fill-opacity: 0.5; stroke: #000000; stroke-width: 0.529328; stroke-linejoin: miter"/>
   </g>
   <g id="patch_4">
    <path d="M 124.16372 385.478125 
L 129.926021 385.478125 
L 129.926021 385.478125 
L 124.16372 385.478125 
z
" clip-path="url(#p10543a09e2)" style="fill: #1f77b4; fill-opacity: 0.5; stroke: #000000; stroke-width: 0.529328; stroke-linejoin: miter"/>
   </g>
   <g id="patch_5">
    <path d="M 129.926021 385.478125 
L 135.688322 385.478125 
L 135.688322 385.260599 
L 129.926021 385.260599 
z
" clip-path="url(#p10543a09e2)" style="fill: #1f77b4; fill-opacity: 0.5; stroke: #000000; stroke-width: 0.529328; stroke-linejoin: miter"/>
   </g>
   <g id="patch_6">
    <path d="M 135.688322 385.478125 
L 141.450624 385.478125 
L 141.450624 385.478125 
L 135.688322 385.478125 
z
" clip-path="url(#p10543a09e2)" style="fill: #1f77b4; fill-opacity: 0.5; stroke: #000000; stroke-width: 0.529328; stroke-linejoin: miter"/>
   </g>
   <g id="patch_7">
    <path d="M 141.450624 385.478125 
L 147.212925 385.478125 
L 147.212925 385.478125 
L 141.450624 385.478125 
z
" clip-path="url(#p10543a09e2)" style="fill: #1f77b4; fill-opacity: 0.5; stroke: #000000; stroke-width: 0.529328; stroke-linejoin: miter"/>
   </g>
   <g id="patch_8">
    <path d="M 147.212925 385.478125 
L 152.975227 385.478125 
L 152.975227 385.478125 
L 147.212925 385.478125 
z
" clip-path="url(#p10543a09e2)" style="fill: #1f77b4; fill-opacity: 0.5; stroke: #000000; stroke-width: 0.529328; stroke-linejoin: miter"/>
   </g>
   <g id="patch_9">
    <path d="M 152.975227 385.478125 
L 158.737528 385.478125 
L 158.737528 385.478125 
L 152.975227 385.478125 
z
" clip-path="url(#p10543a09e2)" style="fill: #1f77b4; fill-opacity: 0.5; stroke: #000000; stroke-width: 0.529328; stroke-linejoin: miter"/>
   </g>
   <g id="patch_10">
    <path d="M 158.737528 385.478125 
L 164.49983 385.478125 
L 164.49983 385.478125 
L 158.737528 385.478125 
z
" clip-path="url(#p10543a09e2)" style="fill: #1f77b4; fill-opacity: 0.5; stroke: #000000; stroke-width: 0.529328; stroke-linejoin: miter"/>
   </g>
   <g id="patch_11">
    <path d="M 164.49983 385.478125 
L 170.262131 385.478125 
L 170.262131 385.260599 
L 164.49983 385.260599 
z
" clip-path="url(#p10543a09e2)" style="fill: #1f77b4; fill-opacity: 0.5; stroke: #000000; stroke-width: 0.529328; stroke-linejoin: miter"/>
   </g>
   <g id="patch_12">
    <path d="M 170.262131 385.478125 
L 176.024432 385.478125 
L 176.024432 385.478125 
L 170.262131 385.478125 
z
" clip-path="url(#p10543a09e2)" style="fill: #1f77b4; fill-opacity: 0.5; stroke: #000000; stroke-width: 0.529328; stroke-linejoin: miter"/>
   </g>
   <g id="patch_13">
    <path d="M 176.024432 385.478125 
L 181.786734 385.478125 
L 181.786734 385.478125 
L 176.024432 385.478125 
z
" clip-path="url(#p10543a09e2)" style="fill: #1f77b4; fill-opacity: 0.5; stroke: #000000; stroke-width: 0.529328; stroke-linejoin: miter"/>
   </g>
   <g id="patch_14">
    <path d="M 181.786734 385.478125 
L 187.549035 385.478125 
L 187.549035 385.478125 
L 181.786734 385.478125 
z
" clip-path="url(#p10543a09e2)" style="fill: #1f77b4; fill-opacity: 0.5; stroke: #000000; stroke-width: 0.529328; stroke-linejoin: miter"/>
   </g>
   <g id="patch_15">
    <path d="M 187.549035 385.478125 
L 193.311337 385.478125 
L 193.311337 385.478125 
L 187.549035 385.478125 
z
" clip-path="url(#p10543a09e2)" style="fill: #1f77b4; fill-opacity: 0.5; stroke: #000000; stroke-width: 0.529328; stroke-linejoin: miter"/>
   </g>
   <g id="patch_16">
    <path d="M 193.311337 385.478125 
L 199.073638 385.478125 
L 199.073638 385.478125 
L 193.311337 385.478125 
z
" clip-path="url(#p10543a09e2)" style="fill: #1f77b4; fill-opacity: 0.5; stroke: #000000; stroke-width: 0.529328; stroke-linejoin: miter"/>
   </g>
   <g id="patch_17">
    <path d="M 199.073638 385.478125 
L 204.83594 385.478125 
L 204.83594 385.043073 
L 199.073638 385.043073 
z
" clip-path="url(#p10543a09e2)" style="fill: #1f77b4; fill-opacity: 0.5; stroke: #000000; stroke-width: 0.529328; stroke-linejoin: miter"/>
   </g>
   <g id="patch_18">
    <path d="M 204.83594 385.478125 
L 210.598241 385.478125 
L 210.598241 385.478125 
L 204.83594 385.478125 
z
" clip-path="url(#p10543a09e2)" style="fill: #1f77b4; fill-opacity: 0.5; stroke: #000000; stroke-width: 0.529328; stroke-linejoin: miter"/>
   </g>
   <g id="patch_19">
    <path d="M 210.598241 385.478125 
L 216.360542 385.478125 
L 216.360542 385.478125 
L 210.598241 385.478125 
z
" clip-path="url(#p10543a09e2)" style="fill: #1f77b4; fill-opacity: 0.5; stroke: #000000; stroke-width: 0.529328; stroke-linejoin: miter"/>
   </g>
   <g id="patch_20">
    <path d="M 216.360542 385.478125 
L 222.122844 385.478125 
L 222.122844 384.825546 
L 216.360542 384.825546 
z
" clip-path="url(#p10543a09e2)" style="fill: #1f77b4; fill-opacity: 0.5; stroke: #000000; stroke-width: 0.529328; stroke-linejoin: miter"/>
   </g>
   <g id="patch_21">
    <path d="M 222.122844 385.478125 
L 227.885145 385.478125 
L 227.885145 385.478125 
L 222.122844 385.478125 
z
" clip-path="url(#p10543a09e2)" style="fill: #1f77b4; fill-opacity: 0.5; stroke: #000000; stroke-width: 0.529328; stroke-linejoin: miter"/>
   </g>
   <g id="patch_22">
    <path d="M 227.885145 385.478125 
L 233.647447 385.478125 
L 233.647447 383.737915 
L 227.885145 383.737915 
z
" clip-path="url(#p10543a09e2)" style="fill: #1f77b4; fill-opacity: 0.5; stroke: #000000; stroke-width: 0.529328; stroke-linejoin: miter"/>
   </g>
   <g id="patch_23">
    <path d="M 233.647447 385.478125 
L 239.409748 385.478125 
L 239.409748 385.478125 
L 233.647447 385.478125 
z
" clip-path="url(#p10543a09e2)" style="fill: #1f77b4; fill-opacity: 0.5; stroke: #000000; stroke-width: 0.529328; stroke-linejoin: miter"/>
   </g>
   <g id="patch_24">
    <path d="M 239.409748 385.478125 
L 245.17205 385.478125 
L 245.17205 383.955442 
L 239.409748 383.955442 
z
" clip-path="url(#p10543a09e2)" style="fill: #1f77b4; fill-opacity: 0.5; stroke: #000000; stroke-width: 0.529328; stroke-linejoin: miter"/>
   </g>
   <g id="patch_25">
    <path d="M 245.17205 385.478125 
L 250.934351 385.478125 
L 250.934351 385.478125 
L 245.17205 385.478125 
z
" clip-path="url(#p10543a09e2)" style="fill: #1f77b4; fill-opacity: 0.5; stroke: #000000; stroke-width: 0.529328; stroke-linejoin: miter"/>
   </g>
   <g id="patch_26">
    <path d="M 250.934351 385.478125 
L 256.696652 385.478125 
L 256.696652 383.085337 
L 250.934351 383.085337 
z
" clip-path="url(#p10543a09e2)" style="fill: #1f77b4; fill-opacity: 0.5; stroke: #000000; stroke-width: 0.529328; stroke-linejoin: miter"/>
   </g>
   <g id="patch_27">
    <path d="M 256.696652 385.478125 
L 262.458954 385.478125 
L 262.458954 385.478125 
L 256.696652 385.478125 
z
" clip-path="url(#p10543a09e2)" style="fill: #1f77b4; fill-opacity: 0.5; stroke: #000000; stroke-width: 0.529328; stroke-linejoin: miter"/>
   </g>
   <g id="patch_28">
    <path d="M 262.458954 385.478125 
L 268.221255 385.478125 
L 268.221255 381.997706 
L 262.458954 381.997706 
z
" clip-path="url(#p10543a09e2)" style="fill: #1f77b4; fill-opacity: 0.5; stroke: #000000; stroke-width: 0.529328; stroke-linejoin: miter"/>
   </g>
   <g id="patch_29">
    <path d="M 268.221255 385.478125 
L 273.983557 385.478125 
L 273.983557 385.478125 
L 268.221255 385.478125 
z
" clip-path="url(#p10543a09e2)" style="fill: #1f77b4; fill-opacity: 0.5; stroke: #000000; stroke-width: 0.529328; stroke-linejoin: miter"/>
   </g>
   <g id="patch_30">
    <path d="M 273.983557 385.478125 
L 279.745858 385.478125 
L 279.745858 381.127601 
L 273.983557 381.127601 
z
" clip-path="url(#p10543a09e2)" style="fill: #1f77b4; fill-opacity: 0.5; stroke: #000000; stroke-width: 0.529328; stroke-linejoin: miter"/>
   </g>
   <g id="patch_31">
    <path d="M 279.745858 385.478125 
L 285.508159 385.478125 
L 285.508159 385.478125 
L 279.745858 385.478125 
z
" clip-path="url(#p10543a09e2)" style="fill: #1f77b4; fill-opacity: 0.5; stroke: #000000; stroke-width: 0.529328; stroke-linejoin: miter"/>
   </g>
   <g id="patch_32">
    <path d="M 285.508159 385.478125 
L 291.270461 385.478125 
L 291.270461 378.517286 
L 285.508159 378.517286 
z
" clip-path="url(#p10543a09e2)" style="fill: #1f77b4; fill-opacity: 0.5; stroke: #000000; stroke-width: 0.529328; stroke-linejoin: miter"/>
   </g>
   <g id="patch_33">
    <path d="M 291.270461 385.478125 
L 297.032762 385.478125 
L 297.032762 385.478125 
L 291.270461 385.478125 
z
" clip-path="url(#p10543a09e2)" style="fill: #1f77b4; fill-opacity: 0.5; stroke: #000000; stroke-width: 0.529328; stroke-linejoin: miter"/>
   </g>
   <g id="patch_34">
    <path d="M 297.032762 385.478125 
L 302.795064 385.478125 
L 302.795064 378.29976 
L 297.032762 378.29976 
z
" clip-path="url(#p10543a09e2)" style="fill: #1f77b4; fill-opacity: 0.5; stroke: #000000; stroke-width: 0.529328; stroke-linejoin: miter"/>
   </g>
   <g id="patch_35">
    <path d="M 302.795064 385.478125 
L 308.557365 385.478125 
L 308.557365 385.478125 
L 302.795064 385.478125 
z
" clip-path="url(#p10543a09e2)" style="fill: #1f77b4; fill-opacity: 0.5; stroke: #000000; stroke-width: 0.529328; stroke-linejoin: miter"/>
   </g>
   <g id="patch_36">
    <path d="M 308.557365 385.478125 
L 314.319667 385.478125 
L 314.319667 385.478125 
L 308.557365 385.478125 
z
" clip-path="url(#p10543a09e2)" style="fill: #1f77b4; fill-opacity: 0.5; stroke: #000000; stroke-width: 0.529328; stroke-linejoin: miter"/>
   </g>
   <g id="patch_37">
    <path d="M 314.319667 385.478125 
L 320.081968 385.478125 
L 320.081968 378.29976 
L 314.319667 378.29976 
z
" clip-path="url(#p10543a09e2)" style="fill: #1f77b4; fill-opacity: 0.5; stroke: #000000; stroke-width: 0.529328; stroke-linejoin: miter"/>
   </g>
   <g id="patch_38">
    <path d="M 320.081968 385.478125 
L 325.844269 385.478125 
L 325.844269 385.478125 
L 320.081968 385.478125 
z
" clip-path="url(#p10543a09e2)" style="fill: #1f77b4; fill-opacity: 0.5; stroke: #000000; stroke-width: 0.529328; stroke-linejoin: miter"/>
   </g>
   <g id="patch_39">
    <path d="M 325.844269 385.478125 
L 331.606571 385.478125 
L 331.606571 374.166762 
L 325.844269 374.166762 
z
" clip-path="url(#p10543a09e2)" style="fill: #1f77b4; fill-opacity: 0.5; stroke: #000000; stroke-width: 0.529328; stroke-linejoin: miter"/>
   </g>
   <g id="patch_40">
    <path d="M 331.606571 385.478125 
L 337.368872 385.478125 
L 337.368872 385.478125 
L 331.606571 385.478125 
z
" clip-path="url(#p10543a09e2)" style="fill: #1f77b4; fill-opacity: 0.5; stroke: #000000; stroke-width: 0.529328; stroke-linejoin: miter"/>
   </g>
   <g id="patch_41">
    <path d="M 337.368872 385.478125 
L 343.131174 385.478125 
L 343.131174 373.73171 
L 337.368872 373.73171 
z
" clip-path="url(#p10543a09e2)" style="fill: #1f77b4; fill-opacity: 0.5; stroke: #000000; stroke-width: 0.529328; stroke-linejoin: miter"/>
   </g>
   <g id="patch_42">
    <path d="M 343.131174 385.478125 
L 348.893475 385.478125 
L 348.893475 385.478125 
L 343.131174 385.478125 
z
" clip-path="url(#p10543a09e2)" style="fill: #1f77b4; fill-opacity: 0.5; stroke: #000000; stroke-width: 0.529328; stroke-linejoin: miter"/>
   </g>
   <g id="patch_43">
    <path d="M 348.893475 385.478125 
L 354.655777 385.478125 
L 354.655777 370.468817 
L 348.893475 370.468817 
z
" clip-path="url(#p10543a09e2)" style="fill: #1f77b4; fill-opacity: 0.5; stroke: #000000; stroke-width: 0.529328; stroke-linejoin: miter"/>
   </g>
   <g id="patch_44">
    <path d="M 354.655777 385.478125 
L 360.418078 385.478125 
L 360.418078 385.478125 
L 354.655777 385.478125 
z
" clip-path="url(#p10543a09e2)" style="fill: #1f77b4; fill-opacity: 0.5; stroke: #000000; stroke-width: 0.529328; stroke-linejoin: miter"/>
   </g>
   <g id="patch_45">
    <path d="M 360.418078 385.478125 
L 366.180379 385.478125 
L 366.180379 370.903869 
L 360.418078 370.903869 
z
" clip-path="url(#p10543a09e2)" style="fill: #1f77b4; fill-opacity: 0.5; stroke: #000000; stroke-width: 0.529328; stroke-linejoin: miter"/>
   </g>
   <g id="patch_46">
    <path d="M 366.180379 385.478125 
L 371.942681 385.478125 
L 371.942681 385.478125 
L 366.180379 385.478125 
z
" clip-path="url(#p10543a09e2)" style="fill: #1f77b4; fill-opacity: 0.5; stroke: #000000; stroke-width: 0.529328; stroke-linejoin: miter"/>
   </g>
   <g id="patch_47">
    <path d="M 371.942681 385.478125 
L 377.704982 385.478125 
L 377.704982 365.248188 
L 371.942681 365.248188 
z
" clip-path="url(#p10543a09e2)" style="fill: #1f77b4; fill-opacity: 0.5; stroke: #000000; stroke-width: 0.529328; stroke-linejoin: miter"/>
   </g>
   <g id="patch_48">
    <path d="M 377.704982 385.478125 
L 383.467284 385.478125 
L 383.467284 385.478125 
L 377.704982 385.478125 
z
" clip-path="url(#p10543a09e2)" style="fill: #1f77b4; fill-opacity: 0.5; stroke: #000000; stroke-width: 0.529328; stroke-linejoin: miter"/>
   </g>
   <g id="patch_49">
    <path d="M 383.467284 385.478125 
L 389.229585 385.478125 
L 389.229585 363.290452 
L 383.467284 363.290452 
z
" clip-path="url(#p10543a09e2)" style="fill: #1f77b4; fill-opacity: 0.5; stroke: #000000; stroke-width: 0.529328; stroke-linejoin: miter"/>
   </g>
   <g id="patch_50">
    <path d="M 389.229585 385.478125 
L 394.991886 385.478125 
L 394.991886 385.478125 
L 389.229585 385.478125 
z
" clip-path="url(#p10543a09e2)" style="fill: #1f77b4; fill-opacity: 0.5; stroke: #000000; stroke-width: 0.529328; stroke-linejoin: miter"/>
   </g>
   <g id="patch_51">
    <path d="M 394.991886 385.478125 
L 400.754188 385.478125 
L 400.754188 362.8554 
L 394.991886 362.8554 
z
" clip-path="url(#p10543a09e2)" style="fill: #1f77b4; fill-opacity: 0.5; stroke: #000000; stroke-width: 0.529328; stroke-linejoin: miter"/>
   </g>
   <g id="patch_52">
    <path d="M 400.754188 385.478125 
L 406.516489 385.478125 
L 406.516489 385.478125 
L 400.754188 385.478125 
z
" clip-path="url(#p10543a09e2)" style="fill: #1f77b4; fill-opacity: 0.5; stroke: #000000; stroke-width: 0.529328; stroke-linejoin: miter"/>
   </g>
   <g id="patch_53">
    <path d="M 406.516489 385.478125 
L 412.278791 385.478125 
L 412.278791 385.478125 
L 406.516489 385.478125 
z
" clip-path="url(#p10543a09e2)" style="fill: #1f77b4; fill-opacity: 0.5; stroke: #000000; stroke-width: 0.529328; stroke-linejoin: miter"/>
   </g>
   <g id="patch_54">
    <path d="M 412.278791 385.478125 
L 418.041092 385.478125 
L 418.041092 359.810033 
L 412.278791 359.810033 
z
" clip-path="url(#p10543a09e2)" style="fill: #1f77b4; fill-opacity: 0.5; stroke: #000000; stroke-width: 0.529328; stroke-linejoin: miter"/>
   </g>
   <g id="patch_55">
    <path d="M 418.041092 385.478125 
L 423.803394 385.478125 
L 423.803394 385.478125 
L 418.041092 385.478125 
z
" clip-path="url(#p10543a09e2)" style="fill: #1f77b4; fill-opacity: 0.5; stroke: #000000; stroke-width: 0.529328; stroke-linejoin: miter"/>
   </g>
   <g id="patch_56">
    <path d="M 423.803394 385.478125 
L 429.565695 385.478125 
L 429.565695 356.764666 
L 423.803394 356.764666 
z
" clip-path="url(#p10543a09e2)" style="fill: #1f77b4; fill-opacity: 0.5; stroke: #000000; stroke-width: 0.529328; stroke-linejoin: miter"/>
   </g>
   <g id="patch_57">
    <path d="M 429.565695 385.478125 
L 435.327996 385.478125 
L 435.327996 385.478125 
L 429.565695 385.478125 
z
" clip-path="url(#p10543a09e2)" style="fill: #1f77b4; fill-opacity: 0.5; stroke: #000000; stroke-width: 0.529328; stroke-linejoin: miter"/>
   </g>
   <g id="patch_58">
    <path d="M 435.327996 385.478125 
L 441.090298 385.478125 
L 441.090298 357.199718 
L 435.327996 357.199718 
z
" clip-path="url(#p10543a09e2)" style="fill: #1f77b4; fill-opacity: 0.5; stroke: #000000; stroke-width: 0.529328; stroke-linejoin: miter"/>
   </g>
   <g id="patch_59">
    <path d="M 441.090298 385.478125 
L 446.852599 385.478125 
L 446.852599 385.478125 
L 441.090298 385.478125 
z
" clip-path="url(#p10543a09e2)" style="fill: #1f77b4; fill-opacity: 0.5; stroke: #000000; stroke-width: 0.529328; stroke-linejoin: miter"/>
   </g>
   <g id="patch_60">
    <path d="M 446.852599 385.478125 
L 452.614901 385.478125 
L 452.614901 353.719299 
L 446.852599 353.719299 
z
" clip-path="url(#p10543a09e2)" style="fill: #1f77b4; fill-opacity: 0.5; stroke: #000000; stroke-width: 0.529328; stroke-linejoin: miter"/>
   </g>
   <g id="patch_61">
    <path d="M 452.614901 385.478125 
L 458.377202 385.478125 
L 458.377202 385.478125 
L 452.614901 385.478125 
z
" clip-path="url(#p10543a09e2)" style="fill: #1f77b4; fill-opacity: 0.5; stroke: #000000; stroke-width: 0.529328; stroke-linejoin: miter"/>
   </g>
   <g id="patch_62">
    <path d="M 458.377202 385.478125 
L 464.139504 385.478125 
L 464.139504 351.326511 
L 458.377202 351.326511 
z
" clip-path="url(#p10543a09e2)" style="fill: #1f77b4; fill-opacity: 0.5; stroke: #000000; stroke-width: 0.529328; stroke-linejoin: miter"/>
   </g>
   <g id="patch_63">
    <path d="M 464.139504 385.478125 
L 469.901805 385.478125 
L 469.901805 385.478125 
L 464.139504 385.478125 
z
" clip-path="url(#p10543a09e2)" style="fill: #1f77b4; fill-opacity: 0.5; stroke: #000000; stroke-width: 0.529328; stroke-linejoin: miter"/>
   </g>
   <g id="patch_64">
    <path d="M 469.901805 385.478125 
L 475.664106 385.478125 
L 475.664106 337.187307 
L 469.901805 337.187307 
z
" clip-path="url(#p10543a09e2)" style="fill: #1f77b4; fill-opacity: 0.5; stroke: #000000; stroke-width: 0.529328; stroke-linejoin: miter"/>
   </g>
   <g id="patch_65">
    <path d="M 475.664106 385.478125 
L 481.426408 385.478125 
L 481.426408 385.478125 
L 475.664106 385.478125 
z
" clip-path="url(#p10543a09e2)" style="fill: #1f77b4; fill-opacity: 0.5; stroke: #000000; stroke-width: 0.529328; stroke-linejoin: miter"/>
   </g>
   <g id="patch_66">
    <path d="M 481.426408 385.478125 
L 487.188709 385.478125 
L 487.188709 326.528523 
L 481.426408 326.528523 
z
" clip-path="url(#p10543a09e2)" style="fill: #1f77b4; fill-opacity: 0.5; stroke: #000000; stroke-width: 0.529328; stroke-linejoin: miter"/>
   </g>
   <g id="patch_67">
    <path d="M 487.188709 385.478125 
L 492.951011 385.478125 
L 492.951011 385.478125 
L 487.188709 385.478125 
z
" clip-path="url(#p10543a09e2)" style="fill: #1f77b4; fill-opacity: 0.5; stroke: #000000; stroke-width: 0.529328; stroke-linejoin: miter"/>
   </g>
   <g id="patch_68">
    <path d="M 492.951011 385.478125 
L 498.713312 385.478125 
L 498.713312 385.478125 
L 492.951011 385.478125 
z
" clip-path="url(#p10543a09e2)" style="fill: #1f77b4; fill-opacity: 0.5; stroke: #000000; stroke-width: 0.529328; stroke-linejoin: miter"/>
   </g>
   <g id="patch_69">
    <path d="M 498.713312 385.478125 
L 504.475614 385.478125 
L 504.475614 313.476951 
L 498.713312 313.476951 
z
" clip-path="url(#p10543a09e2)" style="fill: #1f77b4; fill-opacity: 0.5; stroke: #000000; stroke-width: 0.529328; stroke-linejoin: miter"/>
   </g>
   <g id="patch_70">
    <path d="M 504.475614 385.478125 
L 510.237915 385.478125 
L 510.237915 385.478125 
L 504.475614 385.478125 
z
" clip-path="url(#p10543a09e2)" style="fill: #1f77b4; fill-opacity: 0.5; stroke: #000000; stroke-width: 0.529328; stroke-linejoin: miter"/>
   </g>
   <g id="patch_71">
    <path d="M 510.237915 385.478125 
L 516.000216 385.478125 
L 516.000216 298.03259 
L 510.237915 298.03259 
z
" clip-path="url(#p10543a09e2)" style="fill: #1f77b4; fill-opacity: 0.5; stroke: #000000; stroke-width: 0.529328; stroke-linejoin: miter"/>
   </g>
   <g id="patch_72">
    <path d="M 516.000216 385.478125 
L 521.762518 385.478125 
L 521.762518 385.478125 
L 516.000216 385.478125 
z
" clip-path="url(#p10543a09e2)" style="fill: #1f77b4; fill-opacity: 0.5; stroke: #000000; stroke-width: 0.529328; stroke-linejoin: miter"/>
   </g>
   <g id="patch_73">
    <path d="M 521.762518 385.478125 
L 527.524819 385.478125 
L 527.524819 282.153177 
L 521.762518 282.153177 
z
" clip-path="url(#p10543a09e2)" style="fill: #1f77b4; fill-opacity: 0.5; stroke: #000000; stroke-width: 0.529328; stroke-linejoin: miter"/>
   </g>
   <g id="patch_74">
    <path d="M 527.524819 385.478125 
L 533.287121 385.478125 
L 533.287121 385.478125 
L 527.524819 385.478125 
z
" clip-path="url(#p10543a09e2)" style="fill: #1f77b4; fill-opacity: 0.5; stroke: #000000; stroke-width: 0.529328; stroke-linejoin: miter"/>
   </g>
   <g id="patch_75">
    <path d="M 533.287121 385.478125 
L 539.049422 385.478125 
L 539.049422 256.485085 
L 533.287121 256.485085 
z
" clip-path="url(#p10543a09e2)" style="fill: #1f77b4; fill-opacity: 0.5; stroke: #000000; stroke-width: 0.529328; stroke-linejoin: miter"/>
   </g>
   <g id="patch_76">
    <path d="M 539.049422 385.478125 
L 544.811723 385.478125 
L 544.811723 385.478125 
L 539.049422 385.478125 
z
" clip-path="url(#p10543a09e2)" style="fill: #1f77b4; fill-opacity: 0.5; stroke: #000000; stroke-width: 0.529328; stroke-linejoin: miter"/>
   </g>
   <g id="patch_77">
    <path d="M 544.811723 385.478125 
L 550.574025 385.478125 
L 550.574025 218.200473 
L 544.811723 218.200473 
z
" clip-path="url(#p10543a09e2)" style="fill: #1f77b4; fill-opacity: 0.5; stroke: #000000; stroke-width: 0.529328; stroke-linejoin: miter"/>
   </g>
   <g id="patch_78">
    <path d="M 550.574025 385.478125 
L 556.336326 385.478125 
L 556.336326 385.478125 
L 550.574025 385.478125 
z
" clip-path="url(#p10543a09e2)" style="fill: #1f77b4; fill-opacity: 0.5; stroke: #000000; stroke-width: 0.529328; stroke-linejoin: miter"/>
   </g>
   <g id="patch_79">
    <path d="M 556.336326 385.478125 
L 562.098628 385.478125 
L 562.098628 165.776657 
L 556.336326 165.776657 
z
" clip-path="url(#p10543a09e2)" style="fill: #1f77b4; fill-opacity: 0.5; stroke: #000000; stroke-width: 0.529328; stroke-linejoin: miter"/>
   </g>
   <g id="patch_80">
    <path d="M 562.098628 385.478125 
L 567.860929 385.478125 
L 567.860929 385.478125 
L 562.098628 385.478125 
z
" clip-path="url(#p10543a09e2)" style="fill: #1f77b4; fill-opacity: 0.5; stroke: #000000; stroke-width: 0.529328; stroke-linejoin: miter"/>
   </g>
   <g id="patch_81">
    <path d="M 567.860929 385.478125 
L 573.623231 385.478125 
L 573.623231 116.180683 
L 567.860929 116.180683 
z
" clip-path="url(#p10543a09e2)" style="fill: #1f77b4; fill-opacity: 0.5; stroke: #000000; stroke-width: 0.529328; stroke-linejoin: miter"/>
   </g>
   <g id="patch_82">
    <path d="M 573.623231 385.478125 
L 579.385532 385.478125 
L 579.385532 385.478125 
L 573.623231 385.478125 
z
" clip-path="url(#p10543a09e2)" style="fill: #1f77b4; fill-opacity: 0.5; stroke: #000000; stroke-width: 0.529328; stroke-linejoin: miter"/>
   </g>
   <g id="patch_83">
    <path d="M 579.385532 385.478125 
L 585.147833 385.478125 
L 585.147833 61.146553 
L 579.385532 61.146553 
z
" clip-path="url(#p10543a09e2)" style="fill: #1f77b4; fill-opacity: 0.5; stroke: #000000; stroke-width: 0.529328; stroke-linejoin: miter"/>
   </g>
   <g id="patch_84">
    <path d="M 585.147833 385.478125 
L 590.910135 385.478125 
L 590.910135 385.478125 
L 585.147833 385.478125 
z
" clip-path="url(#p10543a09e2)" style="fill: #1f77b4; fill-opacity: 0.5; stroke: #000000; stroke-width: 0.529328; stroke-linejoin: miter"/>
   </g>
   <g id="patch_85">
    <path d="M 590.910135 385.478125 
L 596.672436 385.478125 
L 596.672436 385.478125 
L 590.910135 385.478125 
z
" clip-path="url(#p10543a09e2)" style="fill: #1f77b4; fill-opacity: 0.5; stroke: #000000; stroke-width: 0.529328; stroke-linejoin: miter"/>
   </g>
   <g id="patch_86">
    <path d="M 596.672436 385.478125 
L 602.434738 385.478125 
L 602.434738 46.354771 
L 596.672436 46.354771 
z
" clip-path="url(#p10543a09e2)" style="fill: #1f77b4; fill-opacity: 0.5; stroke: #000000; stroke-width: 0.529328; stroke-linejoin: miter"/>
   </g>
   <g id="patch_87">
    <path d="M 602.434738 385.478125 
L 608.197039 385.478125 
L 608.197039 385.478125 
L 602.434738 385.478125 
z
" clip-path="url(#p10543a09e2)" style="fill: #1f77b4; fill-opacity: 0.5; stroke: #000000; stroke-width: 0.529328; stroke-linejoin: miter"/>
   </g>
   <g id="patch_88">
    <path d="M 608.197039 385.478125 
L 613.959341 385.478125 
L 613.959341 39.611458 
L 608.197039 39.611458 
z
" clip-path="url(#p10543a09e2)" style="fill: #1f77b4; fill-opacity: 0.5; stroke: #000000; stroke-width: 0.529328; stroke-linejoin: miter"/>
   </g>
   <g id="patch_89">
    <path d="M 613.959341 385.478125 
L 619.721642 385.478125 
L 619.721642 385.478125 
L 613.959341 385.478125 
z
" clip-path="url(#p10543a09e2)" style="fill: #1f77b4; fill-opacity: 0.5; stroke: #000000; stroke-width: 0.529328; stroke-linejoin: miter"/>
   </g>
   <g id="patch_90">
    <path d="M 619.721642 385.478125 
L 625.483943 385.478125 
L 625.483943 60.929026 
L 619.721642 60.929026 
z
" clip-path="url(#p10543a09e2)" style="fill: #1f77b4; fill-opacity: 0.5; stroke: #000000; stroke-width: 0.529328; stroke-linejoin: miter"/>
   </g>
   <g id="patch_91">
    <path d="M 625.483943 385.478125 
L 631.246245 385.478125 
L 631.246245 385.478125 
L 625.483943 385.478125 
z
" clip-path="url(#p10543a09e2)" style="fill: #1f77b4; fill-opacity: 0.5; stroke: #000000; stroke-width: 0.529328; stroke-linejoin: miter"/>
   </g>
   <g id="patch_92">
    <path d="M 631.246245 385.478125 
L 637.008546 385.478125 
L 637.008546 109.002318 
L 631.246245 109.002318 
z
" clip-path="url(#p10543a09e2)" style="fill: #1f77b4; fill-opacity: 0.5; stroke: #000000; stroke-width: 0.529328; stroke-linejoin: miter"/>
   </g>
   <g id="patch_93">
    <path d="M 637.008546 385.478125 
L 642.770848 385.478125 
L 642.770848 385.478125 
L 637.008546 385.478125 
z
" clip-path="url(#p10543a09e2)" style="fill: #1f77b4; fill-opacity: 0.5; stroke: #000000; stroke-width: 0.529328; stroke-linejoin: miter"/>
   </g>
   <g id="patch_94">
    <path d="M 642.770848 385.478125 
L 648.533149 385.478125 
L 648.533149 174.912758 
L 642.770848 174.912758 
z
" clip-path="url(#p10543a09e2)" style="fill: #1f77b4; fill-opacity: 0.5; stroke: #000000; stroke-width: 0.529328; stroke-linejoin: miter"/>
   </g>
   <g id="patch_95">
    <path d="M 648.533149 385.478125 
L 654.29545 385.478125 
L 654.29545 385.478125 
L 648.533149 385.478125 
z
" clip-path="url(#p10543a09e2)" style="fill: #1f77b4; fill-opacity: 0.5; stroke: #000000; stroke-width: 0.529328; stroke-linejoin: miter"/>
   </g>
   <g id="patch_96">
    <path d="M 654.29545 385.478125 
L 660.057752 385.478125 
L 660.057752 248.001563 
L 654.29545 248.001563 
z
" clip-path="url(#p10543a09e2)" style="fill: #1f77b4; fill-opacity: 0.5; stroke: #000000; stroke-width: 0.529328; stroke-linejoin: miter"/>
   </g>
   <g id="patch_97">
    <path d="M 660.057752 385.478125 
L 665.820053 385.478125 
L 665.820053 385.478125 
L 660.057752 385.478125 
z
" clip-path="url(#p10543a09e2)" style="fill: #1f77b4; fill-opacity: 0.5; stroke: #000000; stroke-width: 0.529328; stroke-linejoin: miter"/>
   </g>
   <g id="patch_98">
    <path d="M 665.820053 385.478125 
L 671.582355 385.478125 
L 671.582355 292.594435 
L 665.820053 292.594435 
z
" clip-path="url(#p10543a09e2)" style="fill: #1f77b4; fill-opacity: 0.5; stroke: #000000; stroke-width: 0.529328; stroke-linejoin: miter"/>
   </g>
   <g id="patch_99">
    <path d="M 671.582355 385.478125 
L 677.344656 385.478125 
L 677.344656 385.478125 
L 671.582355 385.478125 
z
" clip-path="url(#p10543a09e2)" style="fill: #1f77b4; fill-opacity: 0.5; stroke: #000000; stroke-width: 0.529328; stroke-linejoin: miter"/>
   </g>
   <g id="patch_100">
    <path d="M 677.344656 385.478125 
L 683.106958 385.478125 
L 683.106958 326.528523 
L 677.344656 326.528523 
z
" clip-path="url(#p10543a09e2)" style="fill: #1f77b4; fill-opacity: 0.5; stroke: #000000; stroke-width: 0.529328; stroke-linejoin: miter"/>
   </g>
   <g id="patch_101">
    <path d="M 683.106958 385.478125 
L 688.869259 385.478125 
L 688.869259 385.478125 
L 683.106958 385.478125 
z
" clip-path="url(#p10543a09e2)" style="fill: #1f77b4; fill-opacity: 0.5; stroke: #000000; stroke-width: 0.529328; stroke-linejoin: miter"/>
   </g>
   <g id="patch_102">
    <path d="M 688.869259 385.478125 
L 694.63156 385.478125 
L 694.63156 385.478125 
L 688.869259 385.478125 
z
" clip-path="url(#p10543a09e2)" style="fill: #1f77b4; fill-opacity: 0.5; stroke: #000000; stroke-width: 0.529328; stroke-linejoin: miter"/>
   </g>
   <g id="patch_103">
    <path d="M 694.63156 385.478125 
L 700.393862 385.478125 
L 700.393862 363.072926 
L 694.63156 363.072926 
z
" clip-path="url(#p10543a09e2)" style="fill: #1f77b4; fill-opacity: 0.5; stroke: #000000; stroke-width: 0.529328; stroke-linejoin: miter"/>
   </g>
   <g id="patch_104">
    <path d="M 700.393862 385.478125 
L 706.156163 385.478125 
L 706.156163 385.478125 
L 700.393862 385.478125 
z
" clip-path="url(#p10543a09e2)" style="fill: #1f77b4; fill-opacity: 0.5; stroke: #000000; stroke-width: 0.529328; stroke-linejoin: miter"/>
   </g>
   <g id="patch_105">
    <path d="M 706.156163 385.478125 
L 711.918465 385.478125 
L 711.918465 371.9915 
L 706.156163 371.9915 
z
" clip-path="url(#p10543a09e2)" style="fill: #1f77b4; fill-opacity: 0.5; stroke: #000000; stroke-width: 0.529328; stroke-linejoin: miter"/>
   </g>
   <g id="patch_106">
    <path d="M 711.918465 385.478125 
L 717.680766 385.478125 
L 717.680766 385.478125 
L 711.918465 385.478125 
z
" clip-path="url(#p10543a09e2)" style="fill: #1f77b4; fill-opacity: 0.5; stroke: #000000; stroke-width: 0.529328; stroke-linejoin: miter"/>
   </g>
   <g id="patch_107">
    <path d="M 717.680766 385.478125 
L 723.443068 385.478125 
L 723.443068 377.864708 
L 717.680766 377.864708 
z
" clip-path="url(#p10543a09e2)" style="fill: #1f77b4; fill-opacity: 0.5; stroke: #000000; stroke-width: 0.529328; stroke-linejoin: miter"/>
   </g>
   <g id="patch_108">
    <path d="M 723.443068 385.478125 
L 729.205369 385.478125 
L 729.205369 385.478125 
L 723.443068 385.478125 
z
" clip-path="url(#p10543a09e2)" style="fill: #1f77b4; fill-opacity: 0.5; stroke: #000000; stroke-width: 0.529328; stroke-linejoin: miter"/>
   </g>
   <g id="patch_109">
    <path d="M 729.205369 385.478125 
L 734.96767 385.478125 
L 734.96767 383.520389 
L 729.205369 383.520389 
z
" clip-path="url(#p10543a09e2)" style="fill: #1f77b4; fill-opacity: 0.5; stroke: #000000; stroke-width: 0.529328; stroke-linejoin: miter"/>
   </g>
   <g id="patch_110">
    <path d="M 734.96767 385.478125 
L 740.729972 385.478125 
L 740.729972 385.478125 
L 734.96767 385.478125 
z
" clip-path="url(#p10543a09e2)" style="fill: #1f77b4; fill-opacity: 0.5; stroke: #000000; stroke-width: 0.529328; stroke-linejoin: miter"/>
   </g>
   <g id="patch_111">
    <path d="M 740.729972 385.478125 
L 746.492273 385.478125 
L 746.492273 384.60802 
L 740.729972 384.60802 
z
" clip-path="url(#p10543a09e2)" style="fill: #1f77b4; fill-opacity: 0.5; stroke: #000000; stroke-width: 0.529328; stroke-linejoin: miter"/>
   </g>
   <g id="patch_112">
    <path d="M 746.492273 385.478125 
L 752.254575 385.478125 
L 752.254575 385.478125 
L 746.492273 385.478125 
z
" clip-path="url(#p10543a09e2)" style="fill: #1f77b4; fill-opacity: 0.5; stroke: #000000; stroke-width: 0.529328; stroke-linejoin: miter"/>
   </g>
   <g id="patch_113">
    <path d="M 752.254575 385.478125 
L 758.016876 385.478125 
L 758.016876 385.260599 
L 752.254575 385.260599 
z
" clip-path="url(#p10543a09e2)" style="fill: #1f77b4; fill-opacity: 0.5; stroke: #000000; stroke-width: 0.529328; stroke-linejoin: miter"/>
   </g>
   <g id="patch_114">
    <path d="M 758.016876 385.478125 
L 763.779178 385.478125 
L 763.779178 385.478125 
L 758.016876 385.478125 
z
" clip-path="url(#p10543a09e2)" style="fill: #1f77b4; fill-opacity: 0.5; stroke: #000000; stroke-width: 0.529328; stroke-linejoin: miter"/>
   </g>
   <g id="patch_115">
    <path d="M 763.779178 385.478125 
L 769.541479 385.478125 
L 769.541479 385.478125 
L 763.779178 385.478125 
z
" clip-path="url(#p10543a09e2)" style="fill: #1f77b4; fill-opacity: 0.5; stroke: #000000; stroke-width: 0.529328; stroke-linejoin: miter"/>
   </g>
   <g id="patch_116">
    <path d="M 769.541479 385.478125 
L 775.30378 385.478125 
L 775.30378 385.478125 
L 769.541479 385.478125 
z
" clip-path="url(#p10543a09e2)" style="fill: #1f77b4; fill-opacity: 0.5; stroke: #000000; stroke-width: 0.529328; stroke-linejoin: miter"/>
   </g>
   <g id="patch_117">
    <path d="M 775.30378 385.478125 
L 781.066082 385.478125 
L 781.066082 385.260599 
L 775.30378 385.260599 
z
" clip-path="url(#p10543a09e2)" style="fill: #1f77b4; fill-opacity: 0.5; stroke: #000000; stroke-width: 0.529328; stroke-linejoin: miter"/>
   </g>
   <g id="matplotlib.axis_1">
    <g id="xtick_1">
     <g id="line2d_1">
      <defs>
       <path id="m7c2fedf2f0" d="M 0 0 
L 0 3.5 
" style="stroke: #000000; stroke-width: 0.8"/>
      </defs>
      <g>
       <use xlink:href="#m7c2fedf2f0" x="81.586715" y="385.478125" style="stroke: #000000; stroke-width: 0.8"/>
      </g>
     </g>
     <g id="text_1">
      <!-- 0 -->
      <g transform="translate(78.405465 400.076562) scale(0.1 -0.1)">
       <defs>
        <path id="DejaVuSans-30" d="M 2034 4250 
Q 1547 4250 1301 3770 
Q 1056 3291 1056 2328 
Q 1056 1369 1301 889 
Q 1547 409 2034 409 
Q 2525 409 2770 889 
Q 3016 1369 3016 2328 
Q 3016 3291 2770 3770 
Q 2525 4250 2034 4250 
z
M 2034 4750 
Q 2819 4750 3233 4129 
Q 3647 3509 3647 2328 
Q 3647 1150 3233 529 
Q 2819 -91 2034 -91 
Q 1250 -91 836 529 
Q 422 1150 422 2328 
Q 422 3509 836 4129 
Q 1250 4750 2034 4750 
z
" transform="scale(0.015625)"/>
       </defs>
       <use xlink:href="#DejaVuSans-30"/>
      </g>
     </g>
    </g>
    <g id="xtick_2">
     <g id="line2d_2">
      <g>
       <use xlink:href="#m7c2fedf2f0" x="204.302393" y="385.478125" style="stroke: #000000; stroke-width: 0.8"/>
      </g>
     </g>
     <g id="text_2">
      <!-- 1 -->
      <g transform="translate(201.121143 400.076562) scale(0.1 -0.1)">
       <defs>
        <path id="DejaVuSans-31" d="M 794 531 
L 1825 531 
L 1825 4091 
L 703 3866 
L 703 4441 
L 1819 4666 
L 2450 4666 
L 2450 531 
L 3481 531 
L 3481 0 
L 794 0 
L 794 531 
z
" transform="scale(0.015625)"/>
       </defs>
       <use xlink:href="#DejaVuSans-31"/>
      </g>
     </g>
    </g>
    <g id="xtick_3">
     <g id="line2d_3">
      <g>
       <use xlink:href="#m7c2fedf2f0" x="327.018072" y="385.478125" style="stroke: #000000; stroke-width: 0.8"/>
      </g>
     </g>
     <g id="text_3">
      <!-- 2 -->
      <g transform="translate(323.836822 400.076562) scale(0.1 -0.1)">
       <defs>
        <path id="DejaVuSans-32" d="M 1228 531 
L 3431 531 
L 3431 0 
L 469 0 
L 469 531 
Q 828 903 1448 1529 
Q 2069 2156 2228 2338 
Q 2531 2678 2651 2914 
Q 2772 3150 2772 3378 
Q 2772 3750 2511 3984 
Q 2250 4219 1831 4219 
Q 1534 4219 1204 4116 
Q 875 4013 500 3803 
L 500 4441 
Q 881 4594 1212 4672 
Q 1544 4750 1819 4750 
Q 2544 4750 2975 4387 
Q 3406 4025 3406 3419 
Q 3406 3131 3298 2873 
Q 3191 2616 2906 2266 
Q 2828 2175 2409 1742 
Q 1991 1309 1228 531 
z
" transform="scale(0.015625)"/>
       </defs>
       <use xlink:href="#DejaVuSans-32"/>
      </g>
     </g>
    </g>
    <g id="xtick_4">
     <g id="line2d_4">
      <g>
       <use xlink:href="#m7c2fedf2f0" x="449.73375" y="385.478125" style="stroke: #000000; stroke-width: 0.8"/>
      </g>
     </g>
     <g id="text_4">
      <!-- 3 -->
      <g transform="translate(446.5525 400.076562) scale(0.1 -0.1)">
       <defs>
        <path id="DejaVuSans-33" d="M 2597 2516 
Q 3050 2419 3304 2112 
Q 3559 1806 3559 1356 
Q 3559 666 3084 287 
Q 2609 -91 1734 -91 
Q 1441 -91 1130 -33 
Q 819 25 488 141 
L 488 750 
Q 750 597 1062 519 
Q 1375 441 1716 441 
Q 2309 441 2620 675 
Q 2931 909 2931 1356 
Q 2931 1769 2642 2001 
Q 2353 2234 1838 2234 
L 1294 2234 
L 1294 2753 
L 1863 2753 
Q 2328 2753 2575 2939 
Q 2822 3125 2822 3475 
Q 2822 3834 2567 4026 
Q 2313 4219 1838 4219 
Q 1578 4219 1281 4162 
Q 984 4106 628 3988 
L 628 4550 
Q 988 4650 1302 4700 
Q 1616 4750 1894 4750 
Q 2613 4750 3031 4423 
Q 3450 4097 3450 3541 
Q 3450 3153 3228 2886 
Q 3006 2619 2597 2516 
z
" transform="scale(0.015625)"/>
       </defs>
       <use xlink:href="#DejaVuSans-33"/>
      </g>
     </g>
    </g>
    <g id="xtick_5">
     <g id="line2d_5">
      <g>
       <use xlink:href="#m7c2fedf2f0" x="572.449428" y="385.478125" style="stroke: #000000; stroke-width: 0.8"/>
      </g>
     </g>
     <g id="text_5">
      <!-- 4 -->
      <g transform="translate(569.268178 400.076562) scale(0.1 -0.1)">
       <defs>
        <path id="DejaVuSans-34" d="M 2419 4116 
L 825 1625 
L 2419 1625 
L 2419 4116 
z
M 2253 4666 
L 3047 4666 
L 3047 1625 
L 3713 1625 
L 3713 1100 
L 3047 1100 
L 3047 0 
L 2419 0 
L 2419 1100 
L 313 1100 
L 313 1709 
L 2253 4666 
z
" transform="scale(0.015625)"/>
       </defs>
       <use xlink:href="#DejaVuSans-34"/>
      </g>
     </g>
    </g>
    <g id="xtick_6">
     <g id="line2d_6">
      <g>
       <use xlink:href="#m7c2fedf2f0" x="695.165107" y="385.478125" style="stroke: #000000; stroke-width: 0.8"/>
      </g>
     </g>
     <g id="text_6">
      <!-- 5 -->
      <g transform="translate(691.983857 400.076562) scale(0.1 -0.1)">
       <defs>
        <path id="DejaVuSans-35" d="M 691 4666 
L 3169 4666 
L 3169 4134 
L 1269 4134 
L 1269 2991 
Q 1406 3038 1543 3061 
Q 1681 3084 1819 3084 
Q 2600 3084 3056 2656 
Q 3513 2228 3513 1497 
Q 3513 744 3044 326 
Q 2575 -91 1722 -91 
Q 1428 -91 1123 -41 
Q 819 9 494 109 
L 494 744 
Q 775 591 1075 516 
Q 1375 441 1709 441 
Q 2250 441 2565 725 
Q 2881 1009 2881 1497 
Q 2881 1984 2565 2268 
Q 2250 2553 1709 2553 
Q 1456 2553 1204 2497 
Q 953 2441 691 2322 
L 691 4666 
z
" transform="scale(0.015625)"/>
       </defs>
       <use xlink:href="#DejaVuSans-35"/>
      </g>
     </g>
    </g>
    <g id="xtick_7">
     <g id="line2d_7">
      <g>
       <use xlink:href="#m7c2fedf2f0" x="817.880785" y="385.478125" style="stroke: #000000; stroke-width: 0.8"/>
      </g>
     </g>
     <g id="text_7">
      <!-- 6 -->
      <g transform="translate(814.699535 400.076562) scale(0.1 -0.1)">
       <defs>
        <path id="DejaVuSans-36" d="M 2113 2584 
Q 1688 2584 1439 2293 
Q 1191 2003 1191 1497 
Q 1191 994 1439 701 
Q 1688 409 2113 409 
Q 2538 409 2786 701 
Q 3034 994 3034 1497 
Q 3034 2003 2786 2293 
Q 2538 2584 2113 2584 
z
M 3366 4563 
L 3366 3988 
Q 3128 4100 2886 4159 
Q 2644 4219 2406 4219 
Q 1781 4219 1451 3797 
Q 1122 3375 1075 2522 
Q 1259 2794 1537 2939 
Q 1816 3084 2150 3084 
Q 2853 3084 3261 2657 
Q 3669 2231 3669 1497 
Q 3669 778 3244 343 
Q 2819 -91 2113 -91 
Q 1303 -91 875 529 
Q 447 1150 447 2328 
Q 447 3434 972 4092 
Q 1497 4750 2381 4750 
Q 2619 4750 2861 4703 
Q 3103 4656 3366 4563 
z
" transform="scale(0.015625)"/>
       </defs>
       <use xlink:href="#DejaVuSans-36"/>
      </g>
     </g>
    </g>
    <g id="text_8">
     <!-- Alb -->
     <g transform="translate(441.750156 413.754687) scale(0.1 -0.1)">
      <defs>
       <path id="DejaVuSans-41" d="M 2188 4044 
L 1331 1722 
L 3047 1722 
L 2188 4044 
z
M 1831 4666 
L 2547 4666 
L 4325 0 
L 3669 0 
L 3244 1197 
L 1141 1197 
L 716 0 
L 50 0 
L 1831 4666 
z
" transform="scale(0.015625)"/>
       <path id="DejaVuSans-6c" d="M 603 4863 
L 1178 4863 
L 1178 0 
L 603 0 
L 603 4863 
z
" transform="scale(0.015625)"/>
       <path id="DejaVuSans-62" d="M 3116 1747 
Q 3116 2381 2855 2742 
Q 2594 3103 2138 3103 
Q 1681 3103 1420 2742 
Q 1159 2381 1159 1747 
Q 1159 1113 1420 752 
Q 1681 391 2138 391 
Q 2594 391 2855 752 
Q 3116 1113 3116 1747 
z
M 1159 2969 
Q 1341 3281 1617 3432 
Q 1894 3584 2278 3584 
Q 2916 3584 3314 3078 
Q 3713 2572 3713 1747 
Q 3713 922 3314 415 
Q 2916 -91 2278 -91 
Q 1894 -91 1617 61 
Q 1341 213 1159 525 
L 1159 0 
L 581 0 
L 581 4863 
L 1159 4863 
L 1159 2969 
z
" transform="scale(0.015625)"/>
      </defs>
      <use xlink:href="#DejaVuSans-41"/>
      <use xlink:href="#DejaVuSans-6c" x="68.408203"/>
      <use xlink:href="#DejaVuSans-62" x="96.191406"/>
     </g>
    </g>
   </g>
   <g id="matplotlib.axis_2">
    <g id="ytick_1">
     <g id="line2d_8">
      <defs>
       <path id="m63420a8c75" d="M 0 0 
L -3.5 0 
" style="stroke: #000000; stroke-width: 0.8"/>
      </defs>
      <g>
       <use xlink:href="#m63420a8c75" x="50.14375" y="385.478125" style="stroke: #000000; stroke-width: 0.8"/>
      </g>
     </g>
     <g id="text_9">
      <!-- 0.00 -->
      <g transform="translate(20.878125 389.277344) scale(0.1 -0.1)">
       <defs>
        <path id="DejaVuSans-2e" d="M 684 794 
L 1344 794 
L 1344 0 
L 684 0 
L 684 794 
z
" transform="scale(0.015625)"/>
       </defs>
       <use xlink:href="#DejaVuSans-30"/>
       <use xlink:href="#DejaVuSans-2e" x="63.623047"/>
       <use xlink:href="#DejaVuSans-30" x="95.410156"/>
       <use xlink:href="#DejaVuSans-30" x="159.033203"/>
      </g>
     </g>
    </g>
    <g id="ytick_2">
     <g id="line2d_9">
      <g>
       <use xlink:href="#m63420a8c75" x="50.14375" y="343.04037" style="stroke: #000000; stroke-width: 0.8"/>
      </g>
     </g>
     <g id="text_10">
      <!-- 0.25 -->
      <g transform="translate(20.878125 346.839589) scale(0.1 -0.1)">
       <use xlink:href="#DejaVuSans-30"/>
       <use xlink:href="#DejaVuSans-2e" x="63.623047"/>
       <use xlink:href="#DejaVuSans-32" x="95.410156"/>
       <use xlink:href="#DejaVuSans-35" x="159.033203"/>
      </g>
     </g>
    </g>
    <g id="ytick_3">
     <g id="line2d_10">
      <g>
       <use xlink:href="#m63420a8c75" x="50.14375" y="300.602615" style="stroke: #000000; stroke-width: 0.8"/>
      </g>
     </g>
     <g id="text_11">
      <!-- 0.50 -->
      <g transform="translate(20.878125 304.401834) scale(0.1 -0.1)">
       <use xlink:href="#DejaVuSans-30"/>
       <use xlink:href="#DejaVuSans-2e" x="63.623047"/>
       <use xlink:href="#DejaVuSans-35" x="95.410156"/>
       <use xlink:href="#DejaVuSans-30" x="159.033203"/>
      </g>
     </g>
    </g>
    <g id="ytick_4">
     <g id="line2d_11">
      <g>
       <use xlink:href="#m63420a8c75" x="50.14375" y="258.16486" style="stroke: #000000; stroke-width: 0.8"/>
      </g>
     </g>
     <g id="text_12">
      <!-- 0.75 -->
      <g transform="translate(20.878125 261.964079) scale(0.1 -0.1)">
       <defs>
        <path id="DejaVuSans-37" d="M 525 4666 
L 3525 4666 
L 3525 4397 
L 1831 0 
L 1172 0 
L 2766 4134 
L 525 4134 
L 525 4666 
z
" transform="scale(0.015625)"/>
       </defs>
       <use xlink:href="#DejaVuSans-30"/>
       <use xlink:href="#DejaVuSans-2e" x="63.623047"/>
       <use xlink:href="#DejaVuSans-37" x="95.410156"/>
       <use xlink:href="#DejaVuSans-35" x="159.033203"/>
      </g>
     </g>
    </g>
    <g id="ytick_5">
     <g id="line2d_12">
      <g>
       <use xlink:href="#m63420a8c75" x="50.14375" y="215.727105" style="stroke: #000000; stroke-width: 0.8"/>
      </g>
     </g>
     <g id="text_13">
      <!-- 1.00 -->
      <g transform="translate(20.878125 219.526324) scale(0.1 -0.1)">
       <use xlink:href="#DejaVuSans-31"/>
       <use xlink:href="#DejaVuSans-2e" x="63.623047"/>
       <use xlink:href="#DejaVuSans-30" x="95.410156"/>
       <use xlink:href="#DejaVuSans-30" x="159.033203"/>
      </g>
     </g>
    </g>
    <g id="ytick_6">
     <g id="line2d_13">
      <g>
       <use xlink:href="#m63420a8c75" x="50.14375" y="173.289351" style="stroke: #000000; stroke-width: 0.8"/>
      </g>
     </g>
     <g id="text_14">
      <!-- 1.25 -->
      <g transform="translate(20.878125 177.088569) scale(0.1 -0.1)">
       <use xlink:href="#DejaVuSans-31"/>
       <use xlink:href="#DejaVuSans-2e" x="63.623047"/>
       <use xlink:href="#DejaVuSans-32" x="95.410156"/>
       <use xlink:href="#DejaVuSans-35" x="159.033203"/>
      </g>
     </g>
    </g>
    <g id="ytick_7">
     <g id="line2d_14">
      <g>
       <use xlink:href="#m63420a8c75" x="50.14375" y="130.851596" style="stroke: #000000; stroke-width: 0.8"/>
      </g>
     </g>
     <g id="text_15">
      <!-- 1.50 -->
      <g transform="translate(20.878125 134.650814) scale(0.1 -0.1)">
       <use xlink:href="#DejaVuSans-31"/>
       <use xlink:href="#DejaVuSans-2e" x="63.623047"/>
       <use xlink:href="#DejaVuSans-35" x="95.410156"/>
       <use xlink:href="#DejaVuSans-30" x="159.033203"/>
      </g>
     </g>
    </g>
    <g id="ytick_8">
     <g id="line2d_15">
      <g>
       <use xlink:href="#m63420a8c75" x="50.14375" y="88.413841" style="stroke: #000000; stroke-width: 0.8"/>
      </g>
     </g>
     <g id="text_16">
      <!-- 1.75 -->
      <g transform="translate(20.878125 92.21306) scale(0.1 -0.1)">
       <use xlink:href="#DejaVuSans-31"/>
       <use xlink:href="#DejaVuSans-2e" x="63.623047"/>
       <use xlink:href="#DejaVuSans-37" x="95.410156"/>
       <use xlink:href="#DejaVuSans-35" x="159.033203"/>
      </g>
     </g>
    </g>
    <g id="ytick_9">
     <g id="line2d_16">
      <g>
       <use xlink:href="#m63420a8c75" x="50.14375" y="45.976086" style="stroke: #000000; stroke-width: 0.8"/>
      </g>
     </g>
     <g id="text_17">
      <!-- 2.00 -->
      <g transform="translate(20.878125 49.775305) scale(0.1 -0.1)">
       <use xlink:href="#DejaVuSans-32"/>
       <use xlink:href="#DejaVuSans-2e" x="63.623047"/>
       <use xlink:href="#DejaVuSans-30" x="95.410156"/>
       <use xlink:href="#DejaVuSans-30" x="159.033203"/>
      </g>
     </g>
    </g>
    <g id="text_18">
     <!-- Density -->
     <g transform="translate(14.798438 222.906719) rotate(-90) scale(0.1 -0.1)">
      <defs>
       <path id="DejaVuSans-44" d="M 1259 4147 
L 1259 519 
L 2022 519 
Q 2988 519 3436 956 
Q 3884 1394 3884 2338 
Q 3884 3275 3436 3711 
Q 2988 4147 2022 4147 
L 1259 4147 
z
M 628 4666 
L 1925 4666 
Q 3281 4666 3915 4102 
Q 4550 3538 4550 2338 
Q 4550 1131 3912 565 
Q 3275 0 1925 0 
L 628 0 
L 628 4666 
z
" transform="scale(0.015625)"/>
       <path id="DejaVuSans-65" d="M 3597 1894 
L 3597 1613 
L 953 1613 
Q 991 1019 1311 708 
Q 1631 397 2203 397 
Q 2534 397 2845 478 
Q 3156 559 3463 722 
L 3463 178 
Q 3153 47 2828 -22 
Q 2503 -91 2169 -91 
Q 1331 -91 842 396 
Q 353 884 353 1716 
Q 353 2575 817 3079 
Q 1281 3584 2069 3584 
Q 2775 3584 3186 3129 
Q 3597 2675 3597 1894 
z
M 3022 2063 
Q 3016 2534 2758 2815 
Q 2500 3097 2075 3097 
Q 1594 3097 1305 2825 
Q 1016 2553 972 2059 
L 3022 2063 
z
" transform="scale(0.015625)"/>
       <path id="DejaVuSans-6e" d="M 3513 2113 
L 3513 0 
L 2938 0 
L 2938 2094 
Q 2938 2591 2744 2837 
Q 2550 3084 2163 3084 
Q 1697 3084 1428 2787 
Q 1159 2491 1159 1978 
L 1159 0 
L 581 0 
L 581 3500 
L 1159 3500 
L 1159 2956 
Q 1366 3272 1645 3428 
Q 1925 3584 2291 3584 
Q 2894 3584 3203 3211 
Q 3513 2838 3513 2113 
z
" transform="scale(0.015625)"/>
       <path id="DejaVuSans-73" d="M 2834 3397 
L 2834 2853 
Q 2591 2978 2328 3040 
Q 2066 3103 1784 3103 
Q 1356 3103 1142 2972 
Q 928 2841 928 2578 
Q 928 2378 1081 2264 
Q 1234 2150 1697 2047 
L 1894 2003 
Q 2506 1872 2764 1633 
Q 3022 1394 3022 966 
Q 3022 478 2636 193 
Q 2250 -91 1575 -91 
Q 1294 -91 989 -36 
Q 684 19 347 128 
L 347 722 
Q 666 556 975 473 
Q 1284 391 1588 391 
Q 1994 391 2212 530 
Q 2431 669 2431 922 
Q 2431 1156 2273 1281 
Q 2116 1406 1581 1522 
L 1381 1569 
Q 847 1681 609 1914 
Q 372 2147 372 2553 
Q 372 3047 722 3315 
Q 1072 3584 1716 3584 
Q 2034 3584 2315 3537 
Q 2597 3491 2834 3397 
z
" transform="scale(0.015625)"/>
       <path id="DejaVuSans-69" d="M 603 3500 
L 1178 3500 
L 1178 0 
L 603 0 
L 603 3500 
z
M 603 4863 
L 1178 4863 
L 1178 4134 
L 603 4134 
L 603 4863 
z
" transform="scale(0.015625)"/>
       <path id="DejaVuSans-74" d="M 1172 4494 
L 1172 3500 
L 2356 3500 
L 2356 3053 
L 1172 3053 
L 1172 1153 
Q 1172 725 1289 603 
Q 1406 481 1766 481 
L 2356 481 
L 2356 0 
L 1766 0 
Q 1100 0 847 248 
Q 594 497 594 1153 
L 594 3053 
L 172 3053 
L 172 3500 
L 594 3500 
L 594 4494 
L 1172 4494 
z
" transform="scale(0.015625)"/>
       <path id="DejaVuSans-79" d="M 2059 -325 
Q 1816 -950 1584 -1140 
Q 1353 -1331 966 -1331 
L 506 -1331 
L 506 -850 
L 844 -850 
Q 1081 -850 1212 -737 
Q 1344 -625 1503 -206 
L 1606 56 
L 191 3500 
L 800 3500 
L 1894 763 
L 2988 3500 
L 3597 3500 
L 2059 -325 
z
" transform="scale(0.015625)"/>
      </defs>
      <use xlink:href="#DejaVuSans-44"/>
      <use xlink:href="#DejaVuSans-65" x="77.001953"/>
      <use xlink:href="#DejaVuSans-6e" x="138.525391"/>
      <use xlink:href="#DejaVuSans-73" x="201.904297"/>
      <use xlink:href="#DejaVuSans-69" x="254.003906"/>
      <use xlink:href="#DejaVuSans-74" x="281.787109"/>
      <use xlink:href="#DejaVuSans-79" x="320.996094"/>
     </g>
    </g>
   </g>
   <g id="line2d_17">
    <path d="M 118.401418 385.406973 
L 148.371177 385.456078 
L 198.320775 385.358535 
L 218.300614 385.034028 
L 261.590265 384.009693 
L 274.910158 383.400101 
L 294.889997 382.33108 
L 311.539863 381.773466 
L 318.199809 381.324889 
L 338.179648 379.751219 
L 364.819434 377.782572 
L 384.799273 375.555771 
L 394.789192 374.893252 
L 404.779112 374.187372 
L 424.758951 372.456313 
L 441.408817 371.400396 
L 448.068763 370.693629 
L 454.72871 369.64233 
L 458.058683 368.91677 
L 461.388656 368.018661 
L 464.718629 366.939217 
L 468.048603 365.69582 
L 474.708549 362.879173 
L 484.698468 358.334855 
L 491.358415 355.139589 
L 498.018361 351.708345 
L 504.678308 348.003293 
L 511.338254 343.993084 
L 514.668227 341.831245 
L 517.9982 339.516579 
L 521.328173 336.99959 
L 524.658147 334.227446 
L 527.98812 331.150286 
L 531.318093 327.725556 
L 534.648066 323.920047 
L 537.978039 319.710817 
L 541.308013 315.08713 
L 544.637986 310.054206 
L 547.967959 304.637243 
L 551.297932 298.88318 
L 557.957878 286.636258 
L 574.607744 254.979938 
L 577.937718 249.151688 
L 581.267691 243.824941 
L 584.597664 239.157301 
L 587.927637 235.250614 
L 591.25761 232.132364 
L 594.587583 229.771836 
L 597.917557 228.118998 
L 601.24753 227.142489 
L 604.577503 226.8496 
L 607.907476 227.283354 
L 611.237449 228.502459 
L 614.567423 230.557895 
L 617.897396 233.478583 
L 621.227369 237.267484 
L 624.557342 241.901958 
L 627.887315 247.335731 
L 631.217289 253.503293 
L 634.547262 260.324088 
L 637.877235 267.702221 
L 641.207208 275.522526 
L 654.527101 308.12711 
L 657.857074 315.7199 
L 661.187047 322.798603 
L 664.51702 329.316598 
L 667.846994 335.293126 
L 671.176967 340.794635 
L 674.50694 345.908447 
L 677.836913 350.715677 
L 681.166886 355.267819 
L 684.496859 359.570617 
L 687.826833 363.580529 
L 691.156806 367.219238 
L 694.486779 370.404862 
L 697.816752 373.087318 
L 701.146725 375.270327 
L 704.476699 377.010261 
L 707.806672 378.395986 
L 711.136645 379.522656 
L 714.466618 380.47131 
L 721.126564 382.037754 
L 727.786511 383.28174 
L 734.446457 384.185791 
L 741.106404 384.751022 
L 747.76635 385.072386 
L 757.756269 385.317838 
L 771.076162 385.421073 
L 781.066082 385.427368 
L 781.066082 385.427368 
" clip-path="url(#p10543a09e2)" style="fill: none; stroke: #1f77b4; stroke-width: 1.5; stroke-linecap: square"/>
   </g>
   <g id="line2d_18">
    <path d="M 86.470114 385.477595 
L 199.647729 385.343544 
L 221.553074 384.962535 
L 261.712873 384.004872 
L 276.316436 383.321851 
L 294.57089 382.342414 
L 312.825344 381.701157 
L 320.127126 381.167623 
L 334.730689 379.996777 
L 363.937816 377.872324 
L 374.890488 376.580747 
L 382.19227 375.782437 
L 389.494052 375.217741 
L 404.097615 374.244126 
L 426.00296 372.377919 
L 440.606523 371.468688 
L 447.908305 370.714005 
L 451.559195 370.198189 
L 455.210086 369.547171 
L 458.860977 368.716905 
L 462.511868 367.674511 
L 466.162759 366.418206 
L 469.813649 364.983045 
L 477.115431 361.804514 
L 488.068104 356.742616 
L 495.369885 353.104884 
L 502.671667 349.149102 
L 509.973448 344.844631 
L 513.624339 342.523272 
L 517.27523 340.034506 
L 520.926121 337.315987 
L 524.577012 334.298424 
L 528.227903 330.915745 
L 531.878793 327.112204 
L 535.529684 322.84562 
L 539.180575 318.089014 
L 542.831466 312.834349 
L 546.482357 307.098855 
L 550.133247 300.930252 
L 553.784138 294.406067 
L 561.08592 280.678181 
L 572.038592 259.709925 
L 575.689483 253.042371 
L 579.340374 246.836881 
L 582.991265 241.31859 
L 586.642156 236.665187 
L 590.293046 232.955546 
L 593.943937 230.171439 
L 597.594828 228.249352 
L 601.245719 227.142837 
L 604.89661 226.858796 
L 608.547501 227.454896 
L 612.198391 229.007999 
L 615.849282 231.579035 
L 619.500173 235.194684 
L 623.151064 239.844103 
L 626.801955 245.480544 
L 630.452845 252.026528 
L 634.103736 259.381173 
L 637.754627 267.42195 
L 641.405518 275.999331 
L 656.009081 311.563811 
L 659.659972 319.62087 
L 663.310863 327.020507 
L 666.961754 333.754014 
L 670.612644 339.892052 
L 674.263535 345.545899 
L 677.914426 350.82442 
L 681.565317 355.7962 
L 685.216208 360.463974 
L 688.867099 364.761229 
L 692.517989 368.580064 
L 696.16888 371.823898 
L 699.819771 374.457679 
L 703.470662 376.526357 
L 707.121553 378.135068 
L 710.772443 379.409374 
L 714.423334 380.45985 
L 721.725116 382.162273 
L 729.026898 383.477163 
L 736.328679 384.377124 
L 743.630461 384.894909 
L 750.932242 385.172446 
L 761.884915 385.371027 
L 780.139369 385.42666 
L 812.997386 385.477603 
L 812.997386 385.477603 
" clip-path="url(#p10543a09e2)" style="fill: none; stroke: #1f77b4; stroke-width: 1.5; stroke-linecap: square"/>
   </g>
   <g id="patch_118">
    <path d="M 50.14375 385.478125 
L 50.14375 22.318125 
" style="fill: none; stroke: #000000; stroke-width: 0.8; stroke-linejoin: miter; stroke-linecap: square"/>
   </g>
   <g id="patch_119">
    <path d="M 849.32375 385.478125 
L 849.32375 22.318125 
" style="fill: none; stroke: #000000; stroke-width: 0.8; stroke-linejoin: miter; stroke-linecap: square"/>
   </g>
   <g id="patch_120">
    <path d="M 50.14375 385.478125 
L 849.32375 385.478125 
" style="fill: none; stroke: #000000; stroke-width: 0.8; stroke-linejoin: miter; stroke-linecap: square"/>
   </g>
   <g id="patch_121">
    <path d="M 50.14375 22.318125 
L 849.32375 22.318125 
" style="fill: none; stroke: #000000; stroke-width: 0.8; stroke-linejoin: miter; stroke-linecap: square"/>
   </g>
   <g id="text_19">
    <!-- Distribution of Alb -->
    <g transform="translate(395.55375 16.318125) scale(0.12 -0.12)">
     <defs>
      <path id="DejaVuSans-72" d="M 2631 2963 
Q 2534 3019 2420 3045 
Q 2306 3072 2169 3072 
Q 1681 3072 1420 2755 
Q 1159 2438 1159 1844 
L 1159 0 
L 581 0 
L 581 3500 
L 1159 3500 
L 1159 2956 
Q 1341 3275 1631 3429 
Q 1922 3584 2338 3584 
Q 2397 3584 2469 3576 
Q 2541 3569 2628 3553 
L 2631 2963 
z
" transform="scale(0.015625)"/>
      <path id="DejaVuSans-75" d="M 544 1381 
L 544 3500 
L 1119 3500 
L 1119 1403 
Q 1119 906 1312 657 
Q 1506 409 1894 409 
Q 2359 409 2629 706 
Q 2900 1003 2900 1516 
L 2900 3500 
L 3475 3500 
L 3475 0 
L 2900 0 
L 2900 538 
Q 2691 219 2414 64 
Q 2138 -91 1772 -91 
Q 1169 -91 856 284 
Q 544 659 544 1381 
z
M 1991 3584 
L 1991 3584 
z
" transform="scale(0.015625)"/>
      <path id="DejaVuSans-6f" d="M 1959 3097 
Q 1497 3097 1228 2736 
Q 959 2375 959 1747 
Q 959 1119 1226 758 
Q 1494 397 1959 397 
Q 2419 397 2687 759 
Q 2956 1122 2956 1747 
Q 2956 2369 2687 2733 
Q 2419 3097 1959 3097 
z
M 1959 3584 
Q 2709 3584 3137 3096 
Q 3566 2609 3566 1747 
Q 3566 888 3137 398 
Q 2709 -91 1959 -91 
Q 1206 -91 779 398 
Q 353 888 353 1747 
Q 353 2609 779 3096 
Q 1206 3584 1959 3584 
z
" transform="scale(0.015625)"/>
      <path id="DejaVuSans-20" transform="scale(0.015625)"/>
      <path id="DejaVuSans-66" d="M 2375 4863 
L 2375 4384 
L 1825 4384 
Q 1516 4384 1395 4259 
Q 1275 4134 1275 3809 
L 1275 3500 
L 2222 3500 
L 2222 3053 
L 1275 3053 
L 1275 0 
L 697 0 
L 697 3053 
L 147 3053 
L 147 3500 
L 697 3500 
L 697 3744 
Q 697 4328 969 4595 
Q 1241 4863 1831 4863 
L 2375 4863 
z
" transform="scale(0.015625)"/>
     </defs>
     <use xlink:href="#DejaVuSans-44"/>
     <use xlink:href="#DejaVuSans-69" x="77.001953"/>
     <use xlink:href="#DejaVuSans-73" x="104.785156"/>
     <use xlink:href="#DejaVuSans-74" x="156.884766"/>
     <use xlink:href="#DejaVuSans-72" x="196.09375"/>
     <use xlink:href="#DejaVuSans-69" x="237.207031"/>
     <use xlink:href="#DejaVuSans-62" x="264.990234"/>
     <use xlink:href="#DejaVuSans-75" x="328.466797"/>
     <use xlink:href="#DejaVuSans-74" x="391.845703"/>
     <use xlink:href="#DejaVuSans-69" x="431.054688"/>
     <use xlink:href="#DejaVuSans-6f" x="458.837891"/>
     <use xlink:href="#DejaVuSans-6e" x="520.019531"/>
     <use xlink:href="#DejaVuSans-20" x="583.398438"/>
     <use xlink:href="#DejaVuSans-6f" x="615.185547"/>
     <use xlink:href="#DejaVuSans-66" x="676.367188"/>
     <use xlink:href="#DejaVuSans-20" x="711.572266"/>
     <use xlink:href="#DejaVuSans-41" x="743.359375"/>
     <use xlink:href="#DejaVuSans-6c" x="811.767578"/>
     <use xlink:href="#DejaVuSans-62" x="839.550781"/>
    </g>
   </g>
  </g>
 </g>
 <defs>
  <clipPath id="p10543a09e2">
   <rect x="50.14375" y="22.318125" width="799.18" height="363.16"/>
  </clipPath>
 </defs>
</svg>
