<?xml version="1.0" encoding="utf-8" standalone="no"?>
<!DOCTYPE svg PUBLIC "-//W3C//DTD SVG 1.1//EN"
  "http://www.w3.org/Graphics/SVG/1.1/DTD/svg11.dtd">
<svg xmlns:xlink="http://www.w3.org/1999/xlink" width="424.46125pt" height="279.674688pt" viewBox="0 0 424.46125 279.674688" xmlns="http://www.w3.org/2000/svg" version="1.1">
 <metadata>
  <rdf:RDF xmlns:dc="http://purl.org/dc/elements/1.1/" xmlns:cc="http://creativecommons.org/ns#" xmlns:rdf="http://www.w3.org/1999/02/22-rdf-syntax-ns#">
   <cc:Work>
    <dc:type rdf:resource="http://purl.org/dc/dcmitype/StillImage"/>
    <dc:date>2024-08-05T23:56:04.623319</dc:date>
    <dc:format>image/svg+xml</dc:format>
    <dc:creator>
     <cc:Agent>
      <dc:title>Matplotlib v3.9.0, https://matplotlib.org/</dc:title>
     </cc:Agent>
    </dc:creator>
   </cc:Work>
  </rdf:RDF>
 </metadata>
 <defs>
  <style type="text/css">*{stroke-linejoin: round; stroke-linecap: butt}</style>
 </defs>
 <g id="figure_1">
  <g id="patch_1">
   <path d="M 0 279.674688 
L 424.46125 279.674688 
L 424.46125 0 
L 0 0 
z
" style="fill: #ffffff"/>
  </g>
  <g id="axes_1">
   <g id="patch_2">
    <path d="M 43.78125 242.118437 
L 417.26125 242.118437 
L 417.26125 20.798437 
L 43.78125 20.798437 
z
" style="fill: #ffffff"/>
   </g>
   <g id="patch_3">
    <path d="M 68.934988 242.118437 
L 70.720471 242.118437 
L 70.720471 241.805009 
L 68.934988 241.805009 
z
" clip-path="url(#p2a04009150)" style="fill: #333333; fill-opacity: 0.6; stroke: #000000; stroke-width: 0.168157; stroke-linejoin: miter"/>
   </g>
   <g id="patch_4">
    <path d="M 70.720471 242.118437 
L 72.505955 242.118437 
L 72.505955 242.118437 
L 70.720471 242.118437 
z
" clip-path="url(#p2a04009150)" style="fill: #333333; fill-opacity: 0.6; stroke: #000000; stroke-width: 0.168157; stroke-linejoin: miter"/>
   </g>
   <g id="patch_5">
    <path d="M 72.505955 242.118437 
L 74.291438 242.118437 
L 74.291438 242.118437 
L 72.505955 242.118437 
z
" clip-path="url(#p2a04009150)" style="fill: #333333; fill-opacity: 0.6; stroke: #000000; stroke-width: 0.168157; stroke-linejoin: miter"/>
   </g>
   <g id="patch_6">
    <path d="M 74.291438 242.118437 
L 76.076922 242.118437 
L 76.076922 242.118437 
L 74.291438 242.118437 
z
" clip-path="url(#p2a04009150)" style="fill: #333333; fill-opacity: 0.6; stroke: #000000; stroke-width: 0.168157; stroke-linejoin: miter"/>
   </g>
   <g id="patch_7">
    <path d="M 76.076922 242.118437 
L 77.862406 242.118437 
L 77.862406 242.118437 
L 76.076922 242.118437 
z
" clip-path="url(#p2a04009150)" style="fill: #333333; fill-opacity: 0.6; stroke: #000000; stroke-width: 0.168157; stroke-linejoin: miter"/>
   </g>
   <g id="patch_8">
    <path d="M 77.862406 242.118437 
L 79.647889 242.118437 
L 79.647889 242.118437 
L 77.862406 242.118437 
z
" clip-path="url(#p2a04009150)" style="fill: #333333; fill-opacity: 0.6; stroke: #000000; stroke-width: 0.168157; stroke-linejoin: miter"/>
   </g>
   <g id="patch_9">
    <path d="M 79.647889 242.118437 
L 81.433373 242.118437 
L 81.433373 242.118437 
L 79.647889 242.118437 
z
" clip-path="url(#p2a04009150)" style="fill: #333333; fill-opacity: 0.6; stroke: #000000; stroke-width: 0.168157; stroke-linejoin: miter"/>
   </g>
   <g id="patch_10">
    <path d="M 81.433373 242.118437 
L 83.218856 242.118437 
L 83.218856 242.118437 
L 81.433373 242.118437 
z
" clip-path="url(#p2a04009150)" style="fill: #333333; fill-opacity: 0.6; stroke: #000000; stroke-width: 0.168157; stroke-linejoin: miter"/>
   </g>
   <g id="patch_11">
    <path d="M 83.218856 242.118437 
L 85.00434 242.118437 
L 85.00434 242.118437 
L 83.218856 242.118437 
z
" clip-path="url(#p2a04009150)" style="fill: #333333; fill-opacity: 0.6; stroke: #000000; stroke-width: 0.168157; stroke-linejoin: miter"/>
   </g>
   <g id="patch_12">
    <path d="M 85.00434 242.118437 
L 86.789823 242.118437 
L 86.789823 242.118437 
L 85.00434 242.118437 
z
" clip-path="url(#p2a04009150)" style="fill: #333333; fill-opacity: 0.6; stroke: #000000; stroke-width: 0.168157; stroke-linejoin: miter"/>
   </g>
   <g id="patch_13">
    <path d="M 86.789823 242.118437 
L 88.575307 242.118437 
L 88.575307 242.118437 
L 86.789823 242.118437 
z
" clip-path="url(#p2a04009150)" style="fill: #333333; fill-opacity: 0.6; stroke: #000000; stroke-width: 0.168157; stroke-linejoin: miter"/>
   </g>
   <g id="patch_14">
    <path d="M 88.575307 242.118437 
L 90.36079 242.118437 
L 90.36079 242.118437 
L 88.575307 242.118437 
z
" clip-path="url(#p2a04009150)" style="fill: #333333; fill-opacity: 0.6; stroke: #000000; stroke-width: 0.168157; stroke-linejoin: miter"/>
   </g>
   <g id="patch_15">
    <path d="M 90.36079 242.118437 
L 92.146274 242.118437 
L 92.146274 241.961723 
L 90.36079 241.961723 
z
" clip-path="url(#p2a04009150)" style="fill: #333333; fill-opacity: 0.6; stroke: #000000; stroke-width: 0.168157; stroke-linejoin: miter"/>
   </g>
   <g id="patch_16">
    <path d="M 92.146274 242.118437 
L 93.931758 242.118437 
L 93.931758 242.118437 
L 92.146274 242.118437 
z
" clip-path="url(#p2a04009150)" style="fill: #333333; fill-opacity: 0.6; stroke: #000000; stroke-width: 0.168157; stroke-linejoin: miter"/>
   </g>
   <g id="patch_17">
    <path d="M 93.931758 242.118437 
L 95.717241 242.118437 
L 95.717241 242.118437 
L 93.931758 242.118437 
z
" clip-path="url(#p2a04009150)" style="fill: #333333; fill-opacity: 0.6; stroke: #000000; stroke-width: 0.168157; stroke-linejoin: miter"/>
   </g>
   <g id="patch_18">
    <path d="M 95.717241 242.118437 
L 97.502725 242.118437 
L 97.502725 242.118437 
L 95.717241 242.118437 
z
" clip-path="url(#p2a04009150)" style="fill: #333333; fill-opacity: 0.6; stroke: #000000; stroke-width: 0.168157; stroke-linejoin: miter"/>
   </g>
   <g id="patch_19">
    <path d="M 97.502725 242.118437 
L 99.288208 242.118437 
L 99.288208 242.118437 
L 97.502725 242.118437 
z
" clip-path="url(#p2a04009150)" style="fill: #333333; fill-opacity: 0.6; stroke: #000000; stroke-width: 0.168157; stroke-linejoin: miter"/>
   </g>
   <g id="patch_20">
    <path d="M 99.288208 242.118437 
L 101.073692 242.118437 
L 101.073692 241.961723 
L 99.288208 241.961723 
z
" clip-path="url(#p2a04009150)" style="fill: #333333; fill-opacity: 0.6; stroke: #000000; stroke-width: 0.168157; stroke-linejoin: miter"/>
   </g>
   <g id="patch_21">
    <path d="M 101.073692 242.118437 
L 102.859175 242.118437 
L 102.859175 242.118437 
L 101.073692 242.118437 
z
" clip-path="url(#p2a04009150)" style="fill: #333333; fill-opacity: 0.6; stroke: #000000; stroke-width: 0.168157; stroke-linejoin: miter"/>
   </g>
   <g id="patch_22">
    <path d="M 102.859175 242.118437 
L 104.644659 242.118437 
L 104.644659 242.118437 
L 102.859175 242.118437 
z
" clip-path="url(#p2a04009150)" style="fill: #333333; fill-opacity: 0.6; stroke: #000000; stroke-width: 0.168157; stroke-linejoin: miter"/>
   </g>
   <g id="patch_23">
    <path d="M 104.644659 242.118437 
L 106.430143 242.118437 
L 106.430143 242.118437 
L 104.644659 242.118437 
z
" clip-path="url(#p2a04009150)" style="fill: #333333; fill-opacity: 0.6; stroke: #000000; stroke-width: 0.168157; stroke-linejoin: miter"/>
   </g>
   <g id="patch_24">
    <path d="M 106.430143 242.118437 
L 108.215626 242.118437 
L 108.215626 242.118437 
L 106.430143 242.118437 
z
" clip-path="url(#p2a04009150)" style="fill: #333333; fill-opacity: 0.6; stroke: #000000; stroke-width: 0.168157; stroke-linejoin: miter"/>
   </g>
   <g id="patch_25">
    <path d="M 108.215626 242.118437 
L 110.00111 242.118437 
L 110.00111 241.648294 
L 108.215626 241.648294 
z
" clip-path="url(#p2a04009150)" style="fill: #333333; fill-opacity: 0.6; stroke: #000000; stroke-width: 0.168157; stroke-linejoin: miter"/>
   </g>
   <g id="patch_26">
    <path d="M 110.00111 242.118437 
L 111.786593 242.118437 
L 111.786593 242.118437 
L 110.00111 242.118437 
z
" clip-path="url(#p2a04009150)" style="fill: #333333; fill-opacity: 0.6; stroke: #000000; stroke-width: 0.168157; stroke-linejoin: miter"/>
   </g>
   <g id="patch_27">
    <path d="M 111.786593 242.118437 
L 113.572077 242.118437 
L 113.572077 241.961723 
L 111.786593 241.961723 
z
" clip-path="url(#p2a04009150)" style="fill: #333333; fill-opacity: 0.6; stroke: #000000; stroke-width: 0.168157; stroke-linejoin: miter"/>
   </g>
   <g id="patch_28">
    <path d="M 113.572077 242.118437 
L 115.35756 242.118437 
L 115.35756 241.805009 
L 113.572077 241.805009 
z
" clip-path="url(#p2a04009150)" style="fill: #333333; fill-opacity: 0.6; stroke: #000000; stroke-width: 0.168157; stroke-linejoin: miter"/>
   </g>
   <g id="patch_29">
    <path d="M 115.35756 242.118437 
L 117.143044 242.118437 
L 117.143044 242.118437 
L 115.35756 242.118437 
z
" clip-path="url(#p2a04009150)" style="fill: #333333; fill-opacity: 0.6; stroke: #000000; stroke-width: 0.168157; stroke-linejoin: miter"/>
   </g>
   <g id="patch_30">
    <path d="M 117.143044 242.118437 
L 118.928527 242.118437 
L 118.928527 241.961723 
L 117.143044 241.961723 
z
" clip-path="url(#p2a04009150)" style="fill: #333333; fill-opacity: 0.6; stroke: #000000; stroke-width: 0.168157; stroke-linejoin: miter"/>
   </g>
   <g id="patch_31">
    <path d="M 118.928527 242.118437 
L 120.714011 242.118437 
L 120.714011 241.49158 
L 118.928527 241.49158 
z
" clip-path="url(#p2a04009150)" style="fill: #333333; fill-opacity: 0.6; stroke: #000000; stroke-width: 0.168157; stroke-linejoin: miter"/>
   </g>
   <g id="patch_32">
    <path d="M 120.714011 242.118437 
L 122.499495 242.118437 
L 122.499495 242.118437 
L 120.714011 242.118437 
z
" clip-path="url(#p2a04009150)" style="fill: #333333; fill-opacity: 0.6; stroke: #000000; stroke-width: 0.168157; stroke-linejoin: miter"/>
   </g>
   <g id="patch_33">
    <path d="M 122.499495 242.118437 
L 124.284978 242.118437 
L 124.284978 241.648294 
L 122.499495 241.648294 
z
" clip-path="url(#p2a04009150)" style="fill: #333333; fill-opacity: 0.6; stroke: #000000; stroke-width: 0.168157; stroke-linejoin: miter"/>
   </g>
   <g id="patch_34">
    <path d="M 124.284978 242.118437 
L 126.070462 242.118437 
L 126.070462 242.118437 
L 124.284978 242.118437 
z
" clip-path="url(#p2a04009150)" style="fill: #333333; fill-opacity: 0.6; stroke: #000000; stroke-width: 0.168157; stroke-linejoin: miter"/>
   </g>
   <g id="patch_35">
    <path d="M 126.070462 242.118437 
L 127.855945 242.118437 
L 127.855945 241.805009 
L 126.070462 241.805009 
z
" clip-path="url(#p2a04009150)" style="fill: #333333; fill-opacity: 0.6; stroke: #000000; stroke-width: 0.168157; stroke-linejoin: miter"/>
   </g>
   <g id="patch_36">
    <path d="M 127.855945 242.118437 
L 129.641429 242.118437 
L 129.641429 241.49158 
L 127.855945 241.49158 
z
" clip-path="url(#p2a04009150)" style="fill: #333333; fill-opacity: 0.6; stroke: #000000; stroke-width: 0.168157; stroke-linejoin: miter"/>
   </g>
   <g id="patch_37">
    <path d="M 129.641429 242.118437 
L 131.426912 242.118437 
L 131.426912 242.118437 
L 129.641429 242.118437 
z
" clip-path="url(#p2a04009150)" style="fill: #333333; fill-opacity: 0.6; stroke: #000000; stroke-width: 0.168157; stroke-linejoin: miter"/>
   </g>
   <g id="patch_38">
    <path d="M 131.426912 242.118437 
L 133.212396 242.118437 
L 133.212396 241.648294 
L 131.426912 241.648294 
z
" clip-path="url(#p2a04009150)" style="fill: #333333; fill-opacity: 0.6; stroke: #000000; stroke-width: 0.168157; stroke-linejoin: miter"/>
   </g>
   <g id="patch_39">
    <path d="M 133.212396 242.118437 
L 134.997879 242.118437 
L 134.997879 241.334865 
L 133.212396 241.334865 
z
" clip-path="url(#p2a04009150)" style="fill: #333333; fill-opacity: 0.6; stroke: #000000; stroke-width: 0.168157; stroke-linejoin: miter"/>
   </g>
   <g id="patch_40">
    <path d="M 134.997879 242.118437 
L 136.783363 242.118437 
L 136.783363 242.118437 
L 134.997879 242.118437 
z
" clip-path="url(#p2a04009150)" style="fill: #333333; fill-opacity: 0.6; stroke: #000000; stroke-width: 0.168157; stroke-linejoin: miter"/>
   </g>
   <g id="patch_41">
    <path d="M 136.783363 242.118437 
L 138.568847 242.118437 
L 138.568847 241.49158 
L 136.783363 241.49158 
z
" clip-path="url(#p2a04009150)" style="fill: #333333; fill-opacity: 0.6; stroke: #000000; stroke-width: 0.168157; stroke-linejoin: miter"/>
   </g>
   <g id="patch_42">
    <path d="M 138.568847 242.118437 
L 140.35433 242.118437 
L 140.35433 242.118437 
L 138.568847 242.118437 
z
" clip-path="url(#p2a04009150)" style="fill: #333333; fill-opacity: 0.6; stroke: #000000; stroke-width: 0.168157; stroke-linejoin: miter"/>
   </g>
   <g id="patch_43">
    <path d="M 140.35433 242.118437 
L 142.139814 242.118437 
L 142.139814 240.864722 
L 140.35433 240.864722 
z
" clip-path="url(#p2a04009150)" style="fill: #333333; fill-opacity: 0.6; stroke: #000000; stroke-width: 0.168157; stroke-linejoin: miter"/>
   </g>
   <g id="patch_44">
    <path d="M 142.139814 242.118437 
L 143.925297 242.118437 
L 143.925297 241.961723 
L 142.139814 241.961723 
z
" clip-path="url(#p2a04009150)" style="fill: #333333; fill-opacity: 0.6; stroke: #000000; stroke-width: 0.168157; stroke-linejoin: miter"/>
   </g>
   <g id="patch_45">
    <path d="M 143.925297 242.118437 
L 145.710781 242.118437 
L 145.710781 242.118437 
L 143.925297 242.118437 
z
" clip-path="url(#p2a04009150)" style="fill: #333333; fill-opacity: 0.6; stroke: #000000; stroke-width: 0.168157; stroke-linejoin: miter"/>
   </g>
   <g id="patch_46">
    <path d="M 145.710781 242.118437 
L 147.496264 242.118437 
L 147.496264 241.49158 
L 145.710781 241.49158 
z
" clip-path="url(#p2a04009150)" style="fill: #333333; fill-opacity: 0.6; stroke: #000000; stroke-width: 0.168157; stroke-linejoin: miter"/>
   </g>
   <g id="patch_47">
    <path d="M 147.496264 242.118437 
L 149.281748 242.118437 
L 149.281748 241.021436 
L 147.496264 241.021436 
z
" clip-path="url(#p2a04009150)" style="fill: #333333; fill-opacity: 0.6; stroke: #000000; stroke-width: 0.168157; stroke-linejoin: miter"/>
   </g>
   <g id="patch_48">
    <path d="M 149.281748 242.118437 
L 151.067232 242.118437 
L 151.067232 242.118437 
L 149.281748 242.118437 
z
" clip-path="url(#p2a04009150)" style="fill: #333333; fill-opacity: 0.6; stroke: #000000; stroke-width: 0.168157; stroke-linejoin: miter"/>
   </g>
   <g id="patch_49">
    <path d="M 151.067232 242.118437 
L 152.852715 242.118437 
L 152.852715 241.178151 
L 151.067232 241.178151 
z
" clip-path="url(#p2a04009150)" style="fill: #333333; fill-opacity: 0.6; stroke: #000000; stroke-width: 0.168157; stroke-linejoin: miter"/>
   </g>
   <g id="patch_50">
    <path d="M 152.852715 242.118437 
L 154.638199 242.118437 
L 154.638199 242.118437 
L 152.852715 242.118437 
z
" clip-path="url(#p2a04009150)" style="fill: #333333; fill-opacity: 0.6; stroke: #000000; stroke-width: 0.168157; stroke-linejoin: miter"/>
   </g>
   <g id="patch_51">
    <path d="M 154.638199 242.118437 
L 156.423682 242.118437 
L 156.423682 240.708007 
L 154.638199 240.708007 
z
" clip-path="url(#p2a04009150)" style="fill: #333333; fill-opacity: 0.6; stroke: #000000; stroke-width: 0.168157; stroke-linejoin: miter"/>
   </g>
   <g id="patch_52">
    <path d="M 156.423682 242.118437 
L 158.209166 242.118437 
L 158.209166 240.081149 
L 156.423682 240.081149 
z
" clip-path="url(#p2a04009150)" style="fill: #333333; fill-opacity: 0.6; stroke: #000000; stroke-width: 0.168157; stroke-linejoin: miter"/>
   </g>
   <g id="patch_53">
    <path d="M 158.209166 242.118437 
L 159.994649 242.118437 
L 159.994649 242.118437 
L 158.209166 242.118437 
z
" clip-path="url(#p2a04009150)" style="fill: #333333; fill-opacity: 0.6; stroke: #000000; stroke-width: 0.168157; stroke-linejoin: miter"/>
   </g>
   <g id="patch_54">
    <path d="M 159.994649 242.118437 
L 161.780133 242.118437 
L 161.780133 240.237864 
L 159.994649 240.237864 
z
" clip-path="url(#p2a04009150)" style="fill: #333333; fill-opacity: 0.6; stroke: #000000; stroke-width: 0.168157; stroke-linejoin: miter"/>
   </g>
   <g id="patch_55">
    <path d="M 161.780133 242.118437 
L 163.565616 242.118437 
L 163.565616 239.297577 
L 161.780133 239.297577 
z
" clip-path="url(#p2a04009150)" style="fill: #333333; fill-opacity: 0.6; stroke: #000000; stroke-width: 0.168157; stroke-linejoin: miter"/>
   </g>
   <g id="patch_56">
    <path d="M 163.565616 242.118437 
L 165.3511 242.118437 
L 165.3511 242.118437 
L 163.565616 242.118437 
z
" clip-path="url(#p2a04009150)" style="fill: #333333; fill-opacity: 0.6; stroke: #000000; stroke-width: 0.168157; stroke-linejoin: miter"/>
   </g>
   <g id="patch_57">
    <path d="M 165.3511 242.118437 
L 167.136584 242.118437 
L 167.136584 237.573718 
L 165.3511 237.573718 
z
" clip-path="url(#p2a04009150)" style="fill: #333333; fill-opacity: 0.6; stroke: #000000; stroke-width: 0.168157; stroke-linejoin: miter"/>
   </g>
   <g id="patch_58">
    <path d="M 167.136584 242.118437 
L 168.922067 242.118437 
L 168.922067 242.118437 
L 167.136584 242.118437 
z
" clip-path="url(#p2a04009150)" style="fill: #333333; fill-opacity: 0.6; stroke: #000000; stroke-width: 0.168157; stroke-linejoin: miter"/>
   </g>
   <g id="patch_59">
    <path d="M 168.922067 242.118437 
L 170.707551 242.118437 
L 170.707551 238.200576 
L 168.922067 238.200576 
z
" clip-path="url(#p2a04009150)" style="fill: #333333; fill-opacity: 0.6; stroke: #000000; stroke-width: 0.168157; stroke-linejoin: miter"/>
   </g>
   <g id="patch_60">
    <path d="M 170.707551 242.118437 
L 172.493034 242.118437 
L 172.493034 236.476717 
L 170.707551 236.476717 
z
" clip-path="url(#p2a04009150)" style="fill: #333333; fill-opacity: 0.6; stroke: #000000; stroke-width: 0.168157; stroke-linejoin: miter"/>
   </g>
   <g id="patch_61">
    <path d="M 172.493034 242.118437 
L 174.278518 242.118437 
L 174.278518 242.118437 
L 172.493034 242.118437 
z
" clip-path="url(#p2a04009150)" style="fill: #333333; fill-opacity: 0.6; stroke: #000000; stroke-width: 0.168157; stroke-linejoin: miter"/>
   </g>
   <g id="patch_62">
    <path d="M 174.278518 242.118437 
L 176.064001 242.118437 
L 176.064001 236.476717 
L 174.278518 236.476717 
z
" clip-path="url(#p2a04009150)" style="fill: #333333; fill-opacity: 0.6; stroke: #000000; stroke-width: 0.168157; stroke-linejoin: miter"/>
   </g>
   <g id="patch_63">
    <path d="M 176.064001 242.118437 
L 177.849485 242.118437 
L 177.849485 234.282714 
L 176.064001 234.282714 
z
" clip-path="url(#p2a04009150)" style="fill: #333333; fill-opacity: 0.6; stroke: #000000; stroke-width: 0.168157; stroke-linejoin: miter"/>
   </g>
   <g id="patch_64">
    <path d="M 177.849485 242.118437 
L 179.634969 242.118437 
L 179.634969 242.118437 
L 177.849485 242.118437 
z
" clip-path="url(#p2a04009150)" style="fill: #333333; fill-opacity: 0.6; stroke: #000000; stroke-width: 0.168157; stroke-linejoin: miter"/>
   </g>
   <g id="patch_65">
    <path d="M 179.634969 242.118437 
L 181.420452 242.118437 
L 181.420452 232.872284 
L 179.634969 232.872284 
z
" clip-path="url(#p2a04009150)" style="fill: #333333; fill-opacity: 0.6; stroke: #000000; stroke-width: 0.168157; stroke-linejoin: miter"/>
   </g>
   <g id="patch_66">
    <path d="M 181.420452 242.118437 
L 183.205936 242.118437 
L 183.205936 242.118437 
L 181.420452 242.118437 
z
" clip-path="url(#p2a04009150)" style="fill: #333333; fill-opacity: 0.6; stroke: #000000; stroke-width: 0.168157; stroke-linejoin: miter"/>
   </g>
   <g id="patch_67">
    <path d="M 183.205936 242.118437 
L 184.991419 242.118437 
L 184.991419 231.931997 
L 183.205936 231.931997 
z
" clip-path="url(#p2a04009150)" style="fill: #333333; fill-opacity: 0.6; stroke: #000000; stroke-width: 0.168157; stroke-linejoin: miter"/>
   </g>
   <g id="patch_68">
    <path d="M 184.991419 242.118437 
L 186.776903 242.118437 
L 186.776903 227.700707 
L 184.991419 227.700707 
z
" clip-path="url(#p2a04009150)" style="fill: #333333; fill-opacity: 0.6; stroke: #000000; stroke-width: 0.168157; stroke-linejoin: miter"/>
   </g>
   <g id="patch_69">
    <path d="M 186.776903 242.118437 
L 188.562386 242.118437 
L 188.562386 242.118437 
L 186.776903 242.118437 
z
" clip-path="url(#p2a04009150)" style="fill: #333333; fill-opacity: 0.6; stroke: #000000; stroke-width: 0.168157; stroke-linejoin: miter"/>
   </g>
   <g id="patch_70">
    <path d="M 188.562386 242.118437 
L 190.34787 242.118437 
L 190.34787 225.193276 
L 188.562386 225.193276 
z
" clip-path="url(#p2a04009150)" style="fill: #333333; fill-opacity: 0.6; stroke: #000000; stroke-width: 0.168157; stroke-linejoin: miter"/>
   </g>
   <g id="patch_71">
    <path d="M 190.34787 242.118437 
L 192.133353 242.118437 
L 192.133353 225.506704 
L 190.34787 225.506704 
z
" clip-path="url(#p2a04009150)" style="fill: #333333; fill-opacity: 0.6; stroke: #000000; stroke-width: 0.168157; stroke-linejoin: miter"/>
   </g>
   <g id="patch_72">
    <path d="M 192.133353 242.118437 
L 193.918837 242.118437 
L 193.918837 242.118437 
L 192.133353 242.118437 
z
" clip-path="url(#p2a04009150)" style="fill: #333333; fill-opacity: 0.6; stroke: #000000; stroke-width: 0.168157; stroke-linejoin: miter"/>
   </g>
   <g id="patch_73">
    <path d="M 193.918837 242.118437 
L 195.704321 242.118437 
L 195.704321 219.551555 
L 193.918837 219.551555 
z
" clip-path="url(#p2a04009150)" style="fill: #333333; fill-opacity: 0.6; stroke: #000000; stroke-width: 0.168157; stroke-linejoin: miter"/>
   </g>
   <g id="patch_74">
    <path d="M 195.704321 242.118437 
L 197.489804 242.118437 
L 197.489804 242.118437 
L 195.704321 242.118437 
z
" clip-path="url(#p2a04009150)" style="fill: #333333; fill-opacity: 0.6; stroke: #000000; stroke-width: 0.168157; stroke-linejoin: miter"/>
   </g>
   <g id="patch_75">
    <path d="M 197.489804 242.118437 
L 199.275288 242.118437 
L 199.275288 213.126262 
L 197.489804 213.126262 
z
" clip-path="url(#p2a04009150)" style="fill: #333333; fill-opacity: 0.6; stroke: #000000; stroke-width: 0.168157; stroke-linejoin: miter"/>
   </g>
   <g id="patch_76">
    <path d="M 199.275288 242.118437 
L 201.060771 242.118437 
L 201.060771 215.320264 
L 199.275288 215.320264 
z
" clip-path="url(#p2a04009150)" style="fill: #333333; fill-opacity: 0.6; stroke: #000000; stroke-width: 0.168157; stroke-linejoin: miter"/>
   </g>
   <g id="patch_77">
    <path d="M 201.060771 242.118437 
L 202.846255 242.118437 
L 202.846255 242.118437 
L 201.060771 242.118437 
z
" clip-path="url(#p2a04009150)" style="fill: #333333; fill-opacity: 0.6; stroke: #000000; stroke-width: 0.168157; stroke-linejoin: miter"/>
   </g>
   <g id="patch_78">
    <path d="M 202.846255 242.118437 
L 204.631738 242.118437 
L 204.631738 205.133824 
L 202.846255 205.133824 
z
" clip-path="url(#p2a04009150)" style="fill: #333333; fill-opacity: 0.6; stroke: #000000; stroke-width: 0.168157; stroke-linejoin: miter"/>
   </g>
   <g id="patch_79">
    <path d="M 204.631738 242.118437 
L 206.417222 242.118437 
L 206.417222 200.118961 
L 204.631738 200.118961 
z
" clip-path="url(#p2a04009150)" style="fill: #333333; fill-opacity: 0.6; stroke: #000000; stroke-width: 0.168157; stroke-linejoin: miter"/>
   </g>
   <g id="patch_80">
    <path d="M 206.417222 242.118437 
L 208.202705 242.118437 
L 208.202705 242.118437 
L 206.417222 242.118437 
z
" clip-path="url(#p2a04009150)" style="fill: #333333; fill-opacity: 0.6; stroke: #000000; stroke-width: 0.168157; stroke-linejoin: miter"/>
   </g>
   <g id="patch_81">
    <path d="M 208.202705 242.118437 
L 209.988189 242.118437 
L 209.988189 191.813095 
L 208.202705 191.813095 
z
" clip-path="url(#p2a04009150)" style="fill: #333333; fill-opacity: 0.6; stroke: #000000; stroke-width: 0.168157; stroke-linejoin: miter"/>
   </g>
   <g id="patch_82">
    <path d="M 209.988189 242.118437 
L 211.773673 242.118437 
L 211.773673 242.118437 
L 209.988189 242.118437 
z
" clip-path="url(#p2a04009150)" style="fill: #333333; fill-opacity: 0.6; stroke: #000000; stroke-width: 0.168157; stroke-linejoin: miter"/>
   </g>
   <g id="patch_83">
    <path d="M 211.773673 242.118437 
L 213.559156 242.118437 
L 213.559156 178.64908 
L 211.773673 178.64908 
z
" clip-path="url(#p2a04009150)" style="fill: #333333; fill-opacity: 0.6; stroke: #000000; stroke-width: 0.168157; stroke-linejoin: miter"/>
   </g>
   <g id="patch_84">
    <path d="M 213.559156 242.118437 
L 215.34464 242.118437 
L 215.34464 168.149211 
L 213.559156 168.149211 
z
" clip-path="url(#p2a04009150)" style="fill: #333333; fill-opacity: 0.6; stroke: #000000; stroke-width: 0.168157; stroke-linejoin: miter"/>
   </g>
   <g id="patch_85">
    <path d="M 215.34464 242.118437 
L 217.130123 242.118437 
L 217.130123 242.118437 
L 215.34464 242.118437 
z
" clip-path="url(#p2a04009150)" style="fill: #333333; fill-opacity: 0.6; stroke: #000000; stroke-width: 0.168157; stroke-linejoin: miter"/>
   </g>
   <g id="patch_86">
    <path d="M 217.130123 242.118437 
L 218.915607 242.118437 
L 218.915607 149.343476 
L 217.130123 149.343476 
z
" clip-path="url(#p2a04009150)" style="fill: #333333; fill-opacity: 0.6; stroke: #000000; stroke-width: 0.168157; stroke-linejoin: miter"/>
   </g>
   <g id="patch_87">
    <path d="M 218.915607 242.118437 
L 220.70109 242.118437 
L 220.70109 130.53774 
L 218.915607 130.53774 
z
" clip-path="url(#p2a04009150)" style="fill: #333333; fill-opacity: 0.6; stroke: #000000; stroke-width: 0.168157; stroke-linejoin: miter"/>
   </g>
   <g id="patch_88">
    <path d="M 220.70109 242.118437 
L 222.486574 242.118437 
L 222.486574 242.118437 
L 220.70109 242.118437 
z
" clip-path="url(#p2a04009150)" style="fill: #333333; fill-opacity: 0.6; stroke: #000000; stroke-width: 0.168157; stroke-linejoin: miter"/>
   </g>
   <g id="patch_89">
    <path d="M 222.486574 242.118437 
L 224.272058 242.118437 
L 224.272058 100.761992 
L 222.486574 100.761992 
z
" clip-path="url(#p2a04009150)" style="fill: #333333; fill-opacity: 0.6; stroke: #000000; stroke-width: 0.168157; stroke-linejoin: miter"/>
   </g>
   <g id="patch_90">
    <path d="M 224.272058 242.118437 
L 226.057541 242.118437 
L 226.057541 242.118437 
L 224.272058 242.118437 
z
" clip-path="url(#p2a04009150)" style="fill: #333333; fill-opacity: 0.6; stroke: #000000; stroke-width: 0.168157; stroke-linejoin: miter"/>
   </g>
   <g id="patch_91">
    <path d="M 226.057541 242.118437 
L 227.843025 242.118437 
L 227.843025 78.038395 
L 226.057541 78.038395 
z
" clip-path="url(#p2a04009150)" style="fill: #333333; fill-opacity: 0.6; stroke: #000000; stroke-width: 0.168157; stroke-linejoin: miter"/>
   </g>
   <g id="patch_92">
    <path d="M 227.843025 242.118437 
L 229.628508 242.118437 
L 229.628508 58.762516 
L 227.843025 58.762516 
z
" clip-path="url(#p2a04009150)" style="fill: #333333; fill-opacity: 0.6; stroke: #000000; stroke-width: 0.168157; stroke-linejoin: miter"/>
   </g>
   <g id="patch_93">
    <path d="M 229.628508 242.118437 
L 231.413992 242.118437 
L 231.413992 242.118437 
L 229.628508 242.118437 
z
" clip-path="url(#p2a04009150)" style="fill: #333333; fill-opacity: 0.6; stroke: #000000; stroke-width: 0.168157; stroke-linejoin: miter"/>
   </g>
   <g id="patch_94">
    <path d="M 231.413992 242.118437 
L 233.199475 242.118437 
L 233.199475 37.606064 
L 231.413992 37.606064 
z
" clip-path="url(#p2a04009150)" style="fill: #333333; fill-opacity: 0.6; stroke: #000000; stroke-width: 0.168157; stroke-linejoin: miter"/>
   </g>
   <g id="patch_95">
    <path d="M 233.199475 242.118437 
L 234.984959 242.118437 
L 234.984959 31.337485 
L 233.199475 31.337485 
z
" clip-path="url(#p2a04009150)" style="fill: #333333; fill-opacity: 0.6; stroke: #000000; stroke-width: 0.168157; stroke-linejoin: miter"/>
   </g>
   <g id="patch_96">
    <path d="M 234.984959 242.118437 
L 236.770442 242.118437 
L 236.770442 242.118437 
L 234.984959 242.118437 
z
" clip-path="url(#p2a04009150)" style="fill: #333333; fill-opacity: 0.6; stroke: #000000; stroke-width: 0.168157; stroke-linejoin: miter"/>
   </g>
   <g id="patch_97">
    <path d="M 236.770442 242.118437 
L 238.555926 242.118437 
L 238.555926 44.814929 
L 236.770442 44.814929 
z
" clip-path="url(#p2a04009150)" style="fill: #333333; fill-opacity: 0.6; stroke: #000000; stroke-width: 0.168157; stroke-linejoin: miter"/>
   </g>
   <g id="patch_98">
    <path d="M 238.555926 242.118437 
L 240.34141 242.118437 
L 240.34141 242.118437 
L 238.555926 242.118437 
z
" clip-path="url(#p2a04009150)" style="fill: #333333; fill-opacity: 0.6; stroke: #000000; stroke-width: 0.168157; stroke-linejoin: miter"/>
   </g>
   <g id="patch_99">
    <path d="M 240.34141 242.118437 
L 242.126893 242.118437 
L 242.126893 61.269948 
L 240.34141 61.269948 
z
" clip-path="url(#p2a04009150)" style="fill: #333333; fill-opacity: 0.6; stroke: #000000; stroke-width: 0.168157; stroke-linejoin: miter"/>
   </g>
   <g id="patch_100">
    <path d="M 242.126893 242.118437 
L 243.912377 242.118437 
L 243.912377 72.553389 
L 242.126893 72.553389 
z
" clip-path="url(#p2a04009150)" style="fill: #333333; fill-opacity: 0.6; stroke: #000000; stroke-width: 0.168157; stroke-linejoin: miter"/>
   </g>
   <g id="patch_101">
    <path d="M 243.912377 242.118437 
L 245.69786 242.118437 
L 245.69786 242.118437 
L 243.912377 242.118437 
z
" clip-path="url(#p2a04009150)" style="fill: #333333; fill-opacity: 0.6; stroke: #000000; stroke-width: 0.168157; stroke-linejoin: miter"/>
   </g>
   <g id="patch_102">
    <path d="M 245.69786 242.118437 
L 247.483344 242.118437 
L 247.483344 109.694716 
L 245.69786 109.694716 
z
" clip-path="url(#p2a04009150)" style="fill: #333333; fill-opacity: 0.6; stroke: #000000; stroke-width: 0.168157; stroke-linejoin: miter"/>
   </g>
   <g id="patch_103">
    <path d="M 247.483344 242.118437 
L 249.268827 242.118437 
L 249.268827 133.828744 
L 247.483344 133.828744 
z
" clip-path="url(#p2a04009150)" style="fill: #333333; fill-opacity: 0.6; stroke: #000000; stroke-width: 0.168157; stroke-linejoin: miter"/>
   </g>
   <g id="patch_104">
    <path d="M 249.268827 242.118437 
L 251.054311 242.118437 
L 251.054311 242.118437 
L 249.268827 242.118437 
z
" clip-path="url(#p2a04009150)" style="fill: #333333; fill-opacity: 0.6; stroke: #000000; stroke-width: 0.168157; stroke-linejoin: miter"/>
   </g>
   <g id="patch_105">
    <path d="M 251.054311 242.118437 
L 252.839795 242.118437 
L 252.839795 162.50749 
L 251.054311 162.50749 
z
" clip-path="url(#p2a04009150)" style="fill: #333333; fill-opacity: 0.6; stroke: #000000; stroke-width: 0.168157; stroke-linejoin: miter"/>
   </g>
   <g id="patch_106">
    <path d="M 252.839795 242.118437 
L 254.625278 242.118437 
L 254.625278 242.118437 
L 252.839795 242.118437 
z
" clip-path="url(#p2a04009150)" style="fill: #333333; fill-opacity: 0.6; stroke: #000000; stroke-width: 0.168157; stroke-linejoin: miter"/>
   </g>
   <g id="patch_107">
    <path d="M 254.625278 242.118437 
L 256.410762 242.118437 
L 256.410762 186.484803 
L 254.625278 186.484803 
z
" clip-path="url(#p2a04009150)" style="fill: #333333; fill-opacity: 0.6; stroke: #000000; stroke-width: 0.168157; stroke-linejoin: miter"/>
   </g>
   <g id="patch_108">
    <path d="M 256.410762 242.118437 
L 258.196245 242.118437 
L 258.196245 201.999535 
L 256.410762 201.999535 
z
" clip-path="url(#p2a04009150)" style="fill: #333333; fill-opacity: 0.6; stroke: #000000; stroke-width: 0.168157; stroke-linejoin: miter"/>
   </g>
   <g id="patch_109">
    <path d="M 258.196245 242.118437 
L 259.981729 242.118437 
L 259.981729 242.118437 
L 258.196245 242.118437 
z
" clip-path="url(#p2a04009150)" style="fill: #333333; fill-opacity: 0.6; stroke: #000000; stroke-width: 0.168157; stroke-linejoin: miter"/>
   </g>
   <g id="patch_110">
    <path d="M 259.981729 242.118437 
L 261.767212 242.118437 
L 261.767212 215.476979 
L 259.981729 215.476979 
z
" clip-path="url(#p2a04009150)" style="fill: #333333; fill-opacity: 0.6; stroke: #000000; stroke-width: 0.168157; stroke-linejoin: miter"/>
   </g>
   <g id="patch_111">
    <path d="M 261.767212 242.118437 
L 263.552696 242.118437 
L 263.552696 228.327565 
L 261.767212 228.327565 
z
" clip-path="url(#p2a04009150)" style="fill: #333333; fill-opacity: 0.6; stroke: #000000; stroke-width: 0.168157; stroke-linejoin: miter"/>
   </g>
   <g id="patch_112">
    <path d="M 263.552696 242.118437 
L 265.338179 242.118437 
L 265.338179 242.118437 
L 263.552696 242.118437 
z
" clip-path="url(#p2a04009150)" style="fill: #333333; fill-opacity: 0.6; stroke: #000000; stroke-width: 0.168157; stroke-linejoin: miter"/>
   </g>
   <g id="patch_113">
    <path d="M 265.338179 242.118437 
L 267.123663 242.118437 
L 267.123663 232.088712 
L 265.338179 232.088712 
z
" clip-path="url(#p2a04009150)" style="fill: #333333; fill-opacity: 0.6; stroke: #000000; stroke-width: 0.168157; stroke-linejoin: miter"/>
   </g>
   <g id="patch_114">
    <path d="M 267.123663 242.118437 
L 268.909147 242.118437 
L 268.909147 242.118437 
L 267.123663 242.118437 
z
" clip-path="url(#p2a04009150)" style="fill: #333333; fill-opacity: 0.6; stroke: #000000; stroke-width: 0.168157; stroke-linejoin: miter"/>
   </g>
   <g id="patch_115">
    <path d="M 268.909147 242.118437 
L 270.69463 242.118437 
L 270.69463 234.439429 
L 268.909147 234.439429 
z
" clip-path="url(#p2a04009150)" style="fill: #333333; fill-opacity: 0.6; stroke: #000000; stroke-width: 0.168157; stroke-linejoin: miter"/>
   </g>
   <g id="patch_116">
    <path d="M 270.69463 242.118437 
L 272.480114 242.118437 
L 272.480114 236.476717 
L 270.69463 236.476717 
z
" clip-path="url(#p2a04009150)" style="fill: #333333; fill-opacity: 0.6; stroke: #000000; stroke-width: 0.168157; stroke-linejoin: miter"/>
   </g>
   <g id="patch_117">
    <path d="M 272.480114 242.118437 
L 274.265597 242.118437 
L 274.265597 242.118437 
L 272.480114 242.118437 
z
" clip-path="url(#p2a04009150)" style="fill: #333333; fill-opacity: 0.6; stroke: #000000; stroke-width: 0.168157; stroke-linejoin: miter"/>
   </g>
   <g id="patch_118">
    <path d="M 274.265597 242.118437 
L 276.051081 242.118437 
L 276.051081 239.140863 
L 274.265597 239.140863 
z
" clip-path="url(#p2a04009150)" style="fill: #333333; fill-opacity: 0.6; stroke: #000000; stroke-width: 0.168157; stroke-linejoin: miter"/>
   </g>
   <g id="patch_119">
    <path d="M 276.051081 242.118437 
L 277.836564 242.118437 
L 277.836564 240.551293 
L 276.051081 240.551293 
z
" clip-path="url(#p2a04009150)" style="fill: #333333; fill-opacity: 0.6; stroke: #000000; stroke-width: 0.168157; stroke-linejoin: miter"/>
   </g>
   <g id="patch_120">
    <path d="M 277.836564 242.118437 
L 279.622048 242.118437 
L 279.622048 242.118437 
L 277.836564 242.118437 
z
" clip-path="url(#p2a04009150)" style="fill: #333333; fill-opacity: 0.6; stroke: #000000; stroke-width: 0.168157; stroke-linejoin: miter"/>
   </g>
   <g id="patch_121">
    <path d="M 279.622048 242.118437 
L 281.407531 242.118437 
L 281.407531 240.864722 
L 279.622048 240.864722 
z
" clip-path="url(#p2a04009150)" style="fill: #333333; fill-opacity: 0.6; stroke: #000000; stroke-width: 0.168157; stroke-linejoin: miter"/>
   </g>
   <g id="patch_122">
    <path d="M 281.407531 242.118437 
L 283.193015 242.118437 
L 283.193015 242.118437 
L 281.407531 242.118437 
z
" clip-path="url(#p2a04009150)" style="fill: #333333; fill-opacity: 0.6; stroke: #000000; stroke-width: 0.168157; stroke-linejoin: miter"/>
   </g>
   <g id="patch_123">
    <path d="M 283.193015 242.118437 
L 284.978499 242.118437 
L 284.978499 241.334865 
L 283.193015 241.334865 
z
" clip-path="url(#p2a04009150)" style="fill: #333333; fill-opacity: 0.6; stroke: #000000; stroke-width: 0.168157; stroke-linejoin: miter"/>
   </g>
   <g id="patch_124">
    <path d="M 284.978499 242.118437 
L 286.763982 242.118437 
L 286.763982 241.961723 
L 284.978499 241.961723 
z
" clip-path="url(#p2a04009150)" style="fill: #333333; fill-opacity: 0.6; stroke: #000000; stroke-width: 0.168157; stroke-linejoin: miter"/>
   </g>
   <g id="patch_125">
    <path d="M 286.763982 242.118437 
L 288.549466 242.118437 
L 288.549466 242.118437 
L 286.763982 242.118437 
z
" clip-path="url(#p2a04009150)" style="fill: #333333; fill-opacity: 0.6; stroke: #000000; stroke-width: 0.168157; stroke-linejoin: miter"/>
   </g>
   <g id="patch_126">
    <path d="M 288.549466 242.118437 
L 290.334949 242.118437 
L 290.334949 241.805009 
L 288.549466 241.805009 
z
" clip-path="url(#p2a04009150)" style="fill: #333333; fill-opacity: 0.6; stroke: #000000; stroke-width: 0.168157; stroke-linejoin: miter"/>
   </g>
   <g id="patch_127">
    <path d="M 290.334949 242.118437 
L 292.120433 242.118437 
L 292.120433 241.961723 
L 290.334949 241.961723 
z
" clip-path="url(#p2a04009150)" style="fill: #333333; fill-opacity: 0.6; stroke: #000000; stroke-width: 0.168157; stroke-linejoin: miter"/>
   </g>
   <g id="patch_128">
    <path d="M 292.120433 242.118437 
L 293.905916 242.118437 
L 293.905916 242.118437 
L 292.120433 242.118437 
z
" clip-path="url(#p2a04009150)" style="fill: #333333; fill-opacity: 0.6; stroke: #000000; stroke-width: 0.168157; stroke-linejoin: miter"/>
   </g>
   <g id="patch_129">
    <path d="M 293.905916 242.118437 
L 295.6914 242.118437 
L 295.6914 241.961723 
L 293.905916 241.961723 
z
" clip-path="url(#p2a04009150)" style="fill: #333333; fill-opacity: 0.6; stroke: #000000; stroke-width: 0.168157; stroke-linejoin: miter"/>
   </g>
   <g id="patch_130">
    <path d="M 295.6914 242.118437 
L 297.476884 242.118437 
L 297.476884 242.118437 
L 295.6914 242.118437 
z
" clip-path="url(#p2a04009150)" style="fill: #333333; fill-opacity: 0.6; stroke: #000000; stroke-width: 0.168157; stroke-linejoin: miter"/>
   </g>
   <g id="patch_131">
    <path d="M 297.476884 242.118437 
L 299.262367 242.118437 
L 299.262367 241.334865 
L 297.476884 241.334865 
z
" clip-path="url(#p2a04009150)" style="fill: #333333; fill-opacity: 0.6; stroke: #000000; stroke-width: 0.168157; stroke-linejoin: miter"/>
   </g>
   <g id="patch_132">
    <path d="M 299.262367 242.118437 
L 301.047851 242.118437 
L 301.047851 241.805009 
L 299.262367 241.805009 
z
" clip-path="url(#p2a04009150)" style="fill: #333333; fill-opacity: 0.6; stroke: #000000; stroke-width: 0.168157; stroke-linejoin: miter"/>
   </g>
   <g id="patch_133">
    <path d="M 301.047851 242.118437 
L 302.833334 242.118437 
L 302.833334 242.118437 
L 301.047851 242.118437 
z
" clip-path="url(#p2a04009150)" style="fill: #333333; fill-opacity: 0.6; stroke: #000000; stroke-width: 0.168157; stroke-linejoin: miter"/>
   </g>
   <g id="patch_134">
    <path d="M 302.833334 242.118437 
L 304.618818 242.118437 
L 304.618818 241.961723 
L 302.833334 241.961723 
z
" clip-path="url(#p2a04009150)" style="fill: #333333; fill-opacity: 0.6; stroke: #000000; stroke-width: 0.168157; stroke-linejoin: miter"/>
   </g>
   <g id="patch_135">
    <path d="M 304.618818 242.118437 
L 306.404301 242.118437 
L 306.404301 242.118437 
L 304.618818 242.118437 
z
" clip-path="url(#p2a04009150)" style="fill: #333333; fill-opacity: 0.6; stroke: #000000; stroke-width: 0.168157; stroke-linejoin: miter"/>
   </g>
   <g id="patch_136">
    <path d="M 306.404301 242.118437 
L 308.189785 242.118437 
L 308.189785 242.118437 
L 306.404301 242.118437 
z
" clip-path="url(#p2a04009150)" style="fill: #333333; fill-opacity: 0.6; stroke: #000000; stroke-width: 0.168157; stroke-linejoin: miter"/>
   </g>
   <g id="patch_137">
    <path d="M 308.189785 242.118437 
L 309.975268 242.118437 
L 309.975268 241.805009 
L 308.189785 241.805009 
z
" clip-path="url(#p2a04009150)" style="fill: #333333; fill-opacity: 0.6; stroke: #000000; stroke-width: 0.168157; stroke-linejoin: miter"/>
   </g>
   <g id="patch_138">
    <path d="M 309.975268 242.118437 
L 311.760752 242.118437 
L 311.760752 242.118437 
L 309.975268 242.118437 
z
" clip-path="url(#p2a04009150)" style="fill: #333333; fill-opacity: 0.6; stroke: #000000; stroke-width: 0.168157; stroke-linejoin: miter"/>
   </g>
   <g id="patch_139">
    <path d="M 311.760752 242.118437 
L 313.546236 242.118437 
L 313.546236 242.118437 
L 311.760752 242.118437 
z
" clip-path="url(#p2a04009150)" style="fill: #333333; fill-opacity: 0.6; stroke: #000000; stroke-width: 0.168157; stroke-linejoin: miter"/>
   </g>
   <g id="patch_140">
    <path d="M 313.546236 242.118437 
L 315.331719 242.118437 
L 315.331719 241.805009 
L 313.546236 241.805009 
z
" clip-path="url(#p2a04009150)" style="fill: #333333; fill-opacity: 0.6; stroke: #000000; stroke-width: 0.168157; stroke-linejoin: miter"/>
   </g>
   <g id="patch_141">
    <path d="M 315.331719 242.118437 
L 317.117203 242.118437 
L 317.117203 242.118437 
L 315.331719 242.118437 
z
" clip-path="url(#p2a04009150)" style="fill: #333333; fill-opacity: 0.6; stroke: #000000; stroke-width: 0.168157; stroke-linejoin: miter"/>
   </g>
   <g id="patch_142">
    <path d="M 317.117203 242.118437 
L 318.902686 242.118437 
L 318.902686 242.118437 
L 317.117203 242.118437 
z
" clip-path="url(#p2a04009150)" style="fill: #333333; fill-opacity: 0.6; stroke: #000000; stroke-width: 0.168157; stroke-linejoin: miter"/>
   </g>
   <g id="patch_143">
    <path d="M 318.902686 242.118437 
L 320.68817 242.118437 
L 320.68817 242.118437 
L 318.902686 242.118437 
z
" clip-path="url(#p2a04009150)" style="fill: #333333; fill-opacity: 0.6; stroke: #000000; stroke-width: 0.168157; stroke-linejoin: miter"/>
   </g>
   <g id="patch_144">
    <path d="M 320.68817 242.118437 
L 322.473653 242.118437 
L 322.473653 242.118437 
L 320.68817 242.118437 
z
" clip-path="url(#p2a04009150)" style="fill: #333333; fill-opacity: 0.6; stroke: #000000; stroke-width: 0.168157; stroke-linejoin: miter"/>
   </g>
   <g id="patch_145">
    <path d="M 322.473653 242.118437 
L 324.259137 242.118437 
L 324.259137 242.118437 
L 322.473653 242.118437 
z
" clip-path="url(#p2a04009150)" style="fill: #333333; fill-opacity: 0.6; stroke: #000000; stroke-width: 0.168157; stroke-linejoin: miter"/>
   </g>
   <g id="patch_146">
    <path d="M 324.259137 242.118437 
L 326.044621 242.118437 
L 326.044621 242.118437 
L 324.259137 242.118437 
z
" clip-path="url(#p2a04009150)" style="fill: #333333; fill-opacity: 0.6; stroke: #000000; stroke-width: 0.168157; stroke-linejoin: miter"/>
   </g>
   <g id="patch_147">
    <path d="M 326.044621 242.118437 
L 327.830104 242.118437 
L 327.830104 241.961723 
L 326.044621 241.961723 
z
" clip-path="url(#p2a04009150)" style="fill: #333333; fill-opacity: 0.6; stroke: #000000; stroke-width: 0.168157; stroke-linejoin: miter"/>
   </g>
   <g id="patch_148">
    <path d="M 327.830104 242.118437 
L 329.615588 242.118437 
L 329.615588 241.648294 
L 327.830104 241.648294 
z
" clip-path="url(#p2a04009150)" style="fill: #333333; fill-opacity: 0.6; stroke: #000000; stroke-width: 0.168157; stroke-linejoin: miter"/>
   </g>
   <g id="patch_149">
    <path d="M 329.615588 242.118437 
L 331.401071 242.118437 
L 331.401071 242.118437 
L 329.615588 242.118437 
z
" clip-path="url(#p2a04009150)" style="fill: #333333; fill-opacity: 0.6; stroke: #000000; stroke-width: 0.168157; stroke-linejoin: miter"/>
   </g>
   <g id="patch_150">
    <path d="M 331.401071 242.118437 
L 333.186555 242.118437 
L 333.186555 242.118437 
L 331.401071 242.118437 
z
" clip-path="url(#p2a04009150)" style="fill: #333333; fill-opacity: 0.6; stroke: #000000; stroke-width: 0.168157; stroke-linejoin: miter"/>
   </g>
   <g id="patch_151">
    <path d="M 333.186555 242.118437 
L 334.972038 242.118437 
L 334.972038 242.118437 
L 333.186555 242.118437 
z
" clip-path="url(#p2a04009150)" style="fill: #333333; fill-opacity: 0.6; stroke: #000000; stroke-width: 0.168157; stroke-linejoin: miter"/>
   </g>
   <g id="patch_152">
    <path d="M 334.972038 242.118437 
L 336.757522 242.118437 
L 336.757522 242.118437 
L 334.972038 242.118437 
z
" clip-path="url(#p2a04009150)" style="fill: #333333; fill-opacity: 0.6; stroke: #000000; stroke-width: 0.168157; stroke-linejoin: miter"/>
   </g>
   <g id="patch_153">
    <path d="M 336.757522 242.118437 
L 338.543005 242.118437 
L 338.543005 241.961723 
L 336.757522 241.961723 
z
" clip-path="url(#p2a04009150)" style="fill: #333333; fill-opacity: 0.6; stroke: #000000; stroke-width: 0.168157; stroke-linejoin: miter"/>
   </g>
   <g id="patch_154">
    <path d="M 338.543005 242.118437 
L 340.328489 242.118437 
L 340.328489 242.118437 
L 338.543005 242.118437 
z
" clip-path="url(#p2a04009150)" style="fill: #333333; fill-opacity: 0.6; stroke: #000000; stroke-width: 0.168157; stroke-linejoin: miter"/>
   </g>
   <g id="patch_155">
    <path d="M 340.328489 242.118437 
L 342.113973 242.118437 
L 342.113973 242.118437 
L 340.328489 242.118437 
z
" clip-path="url(#p2a04009150)" style="fill: #333333; fill-opacity: 0.6; stroke: #000000; stroke-width: 0.168157; stroke-linejoin: miter"/>
   </g>
   <g id="patch_156">
    <path d="M 342.113973 242.118437 
L 343.899456 242.118437 
L 343.899456 242.118437 
L 342.113973 242.118437 
z
" clip-path="url(#p2a04009150)" style="fill: #333333; fill-opacity: 0.6; stroke: #000000; stroke-width: 0.168157; stroke-linejoin: miter"/>
   </g>
   <g id="patch_157">
    <path d="M 343.899456 242.118437 
L 345.68494 242.118437 
L 345.68494 242.118437 
L 343.899456 242.118437 
z
" clip-path="url(#p2a04009150)" style="fill: #333333; fill-opacity: 0.6; stroke: #000000; stroke-width: 0.168157; stroke-linejoin: miter"/>
   </g>
   <g id="patch_158">
    <path d="M 345.68494 242.118437 
L 347.470423 242.118437 
L 347.470423 242.118437 
L 345.68494 242.118437 
z
" clip-path="url(#p2a04009150)" style="fill: #333333; fill-opacity: 0.6; stroke: #000000; stroke-width: 0.168157; stroke-linejoin: miter"/>
   </g>
   <g id="patch_159">
    <path d="M 347.470423 242.118437 
L 349.255907 242.118437 
L 349.255907 241.961723 
L 347.470423 241.961723 
z
" clip-path="url(#p2a04009150)" style="fill: #333333; fill-opacity: 0.6; stroke: #000000; stroke-width: 0.168157; stroke-linejoin: miter"/>
   </g>
   <g id="patch_160">
    <path d="M 349.255907 242.118437 
L 351.04139 242.118437 
L 351.04139 242.118437 
L 349.255907 242.118437 
z
" clip-path="url(#p2a04009150)" style="fill: #333333; fill-opacity: 0.6; stroke: #000000; stroke-width: 0.168157; stroke-linejoin: miter"/>
   </g>
   <g id="patch_161">
    <path d="M 351.04139 242.118437 
L 352.826874 242.118437 
L 352.826874 242.118437 
L 351.04139 242.118437 
z
" clip-path="url(#p2a04009150)" style="fill: #333333; fill-opacity: 0.6; stroke: #000000; stroke-width: 0.168157; stroke-linejoin: miter"/>
   </g>
   <g id="patch_162">
    <path d="M 352.826874 242.118437 
L 354.612357 242.118437 
L 354.612357 242.118437 
L 352.826874 242.118437 
z
" clip-path="url(#p2a04009150)" style="fill: #333333; fill-opacity: 0.6; stroke: #000000; stroke-width: 0.168157; stroke-linejoin: miter"/>
   </g>
   <g id="patch_163">
    <path d="M 354.612357 242.118437 
L 356.397841 242.118437 
L 356.397841 242.118437 
L 354.612357 242.118437 
z
" clip-path="url(#p2a04009150)" style="fill: #333333; fill-opacity: 0.6; stroke: #000000; stroke-width: 0.168157; stroke-linejoin: miter"/>
   </g>
   <g id="patch_164">
    <path d="M 356.397841 242.118437 
L 358.183325 242.118437 
L 358.183325 242.118437 
L 356.397841 242.118437 
z
" clip-path="url(#p2a04009150)" style="fill: #333333; fill-opacity: 0.6; stroke: #000000; stroke-width: 0.168157; stroke-linejoin: miter"/>
   </g>
   <g id="patch_165">
    <path d="M 358.183325 242.118437 
L 359.968808 242.118437 
L 359.968808 242.118437 
L 358.183325 242.118437 
z
" clip-path="url(#p2a04009150)" style="fill: #333333; fill-opacity: 0.6; stroke: #000000; stroke-width: 0.168157; stroke-linejoin: miter"/>
   </g>
   <g id="patch_166">
    <path d="M 359.968808 242.118437 
L 361.754292 242.118437 
L 361.754292 242.118437 
L 359.968808 242.118437 
z
" clip-path="url(#p2a04009150)" style="fill: #333333; fill-opacity: 0.6; stroke: #000000; stroke-width: 0.168157; stroke-linejoin: miter"/>
   </g>
   <g id="patch_167">
    <path d="M 361.754292 242.118437 
L 363.539775 242.118437 
L 363.539775 242.118437 
L 361.754292 242.118437 
z
" clip-path="url(#p2a04009150)" style="fill: #333333; fill-opacity: 0.6; stroke: #000000; stroke-width: 0.168157; stroke-linejoin: miter"/>
   </g>
   <g id="patch_168">
    <path d="M 363.539775 242.118437 
L 365.325259 242.118437 
L 365.325259 242.118437 
L 363.539775 242.118437 
z
" clip-path="url(#p2a04009150)" style="fill: #333333; fill-opacity: 0.6; stroke: #000000; stroke-width: 0.168157; stroke-linejoin: miter"/>
   </g>
   <g id="patch_169">
    <path d="M 365.325259 242.118437 
L 367.110742 242.118437 
L 367.110742 241.961723 
L 365.325259 241.961723 
z
" clip-path="url(#p2a04009150)" style="fill: #333333; fill-opacity: 0.6; stroke: #000000; stroke-width: 0.168157; stroke-linejoin: miter"/>
   </g>
   <g id="patch_170">
    <path d="M 367.110742 242.118437 
L 368.896226 242.118437 
L 368.896226 242.118437 
L 367.110742 242.118437 
z
" clip-path="url(#p2a04009150)" style="fill: #333333; fill-opacity: 0.6; stroke: #000000; stroke-width: 0.168157; stroke-linejoin: miter"/>
   </g>
   <g id="patch_171">
    <path d="M 368.896226 242.118437 
L 370.68171 242.118437 
L 370.68171 242.118437 
L 368.896226 242.118437 
z
" clip-path="url(#p2a04009150)" style="fill: #333333; fill-opacity: 0.6; stroke: #000000; stroke-width: 0.168157; stroke-linejoin: miter"/>
   </g>
   <g id="patch_172">
    <path d="M 370.68171 242.118437 
L 372.467193 242.118437 
L 372.467193 242.118437 
L 370.68171 242.118437 
z
" clip-path="url(#p2a04009150)" style="fill: #333333; fill-opacity: 0.6; stroke: #000000; stroke-width: 0.168157; stroke-linejoin: miter"/>
   </g>
   <g id="patch_173">
    <path d="M 372.467193 242.118437 
L 374.252677 242.118437 
L 374.252677 242.118437 
L 372.467193 242.118437 
z
" clip-path="url(#p2a04009150)" style="fill: #333333; fill-opacity: 0.6; stroke: #000000; stroke-width: 0.168157; stroke-linejoin: miter"/>
   </g>
   <g id="patch_174">
    <path d="M 374.252677 242.118437 
L 376.03816 242.118437 
L 376.03816 242.118437 
L 374.252677 242.118437 
z
" clip-path="url(#p2a04009150)" style="fill: #333333; fill-opacity: 0.6; stroke: #000000; stroke-width: 0.168157; stroke-linejoin: miter"/>
   </g>
   <g id="patch_175">
    <path d="M 376.03816 242.118437 
L 377.823644 242.118437 
L 377.823644 242.118437 
L 376.03816 242.118437 
z
" clip-path="url(#p2a04009150)" style="fill: #333333; fill-opacity: 0.6; stroke: #000000; stroke-width: 0.168157; stroke-linejoin: miter"/>
   </g>
   <g id="patch_176">
    <path d="M 377.823644 242.118437 
L 379.609127 242.118437 
L 379.609127 242.118437 
L 377.823644 242.118437 
z
" clip-path="url(#p2a04009150)" style="fill: #333333; fill-opacity: 0.6; stroke: #000000; stroke-width: 0.168157; stroke-linejoin: miter"/>
   </g>
   <g id="patch_177">
    <path d="M 379.609127 242.118437 
L 381.394611 242.118437 
L 381.394611 242.118437 
L 379.609127 242.118437 
z
" clip-path="url(#p2a04009150)" style="fill: #333333; fill-opacity: 0.6; stroke: #000000; stroke-width: 0.168157; stroke-linejoin: miter"/>
   </g>
   <g id="patch_178">
    <path d="M 381.394611 242.118437 
L 383.180094 242.118437 
L 383.180094 242.118437 
L 381.394611 242.118437 
z
" clip-path="url(#p2a04009150)" style="fill: #333333; fill-opacity: 0.6; stroke: #000000; stroke-width: 0.168157; stroke-linejoin: miter"/>
   </g>
   <g id="patch_179">
    <path d="M 383.180094 242.118437 
L 384.965578 242.118437 
L 384.965578 242.118437 
L 383.180094 242.118437 
z
" clip-path="url(#p2a04009150)" style="fill: #333333; fill-opacity: 0.6; stroke: #000000; stroke-width: 0.168157; stroke-linejoin: miter"/>
   </g>
   <g id="patch_180">
    <path d="M 384.965578 242.118437 
L 386.751062 242.118437 
L 386.751062 242.118437 
L 384.965578 242.118437 
z
" clip-path="url(#p2a04009150)" style="fill: #333333; fill-opacity: 0.6; stroke: #000000; stroke-width: 0.168157; stroke-linejoin: miter"/>
   </g>
   <g id="patch_181">
    <path d="M 386.751062 242.118437 
L 388.536545 242.118437 
L 388.536545 242.118437 
L 386.751062 242.118437 
z
" clip-path="url(#p2a04009150)" style="fill: #333333; fill-opacity: 0.6; stroke: #000000; stroke-width: 0.168157; stroke-linejoin: miter"/>
   </g>
   <g id="patch_182">
    <path d="M 388.536545 242.118437 
L 390.322029 242.118437 
L 390.322029 242.118437 
L 388.536545 242.118437 
z
" clip-path="url(#p2a04009150)" style="fill: #333333; fill-opacity: 0.6; stroke: #000000; stroke-width: 0.168157; stroke-linejoin: miter"/>
   </g>
   <g id="patch_183">
    <path d="M 390.322029 242.118437 
L 392.107512 242.118437 
L 392.107512 241.961723 
L 390.322029 241.961723 
z
" clip-path="url(#p2a04009150)" style="fill: #333333; fill-opacity: 0.6; stroke: #000000; stroke-width: 0.168157; stroke-linejoin: miter"/>
   </g>
   <g id="matplotlib.axis_1">
    <g id="xtick_1">
     <g id="line2d_1">
      <defs>
       <path id="m1ea5118cf3" d="M 0 0 
L 0 3.5 
" style="stroke: #000000; stroke-width: 0.8"/>
      </defs>
      <g>
       <use xlink:href="#m1ea5118cf3" x="83.234657" y="242.118437" style="stroke: #000000; stroke-width: 0.8"/>
      </g>
     </g>
     <g id="text_1">
      <!-- 4 -->
      <g transform="translate(80.053407 256.716875) scale(0.1 -0.1)">
       <defs>
        <path id="DejaVuSans-34" d="M 2419 4116 
L 825 1625 
L 2419 1625 
L 2419 4116 
z
M 2253 4666 
L 3047 4666 
L 3047 1625 
L 3713 1625 
L 3713 1100 
L 3047 1100 
L 3047 0 
L 2419 0 
L 2419 1100 
L 313 1100 
L 313 1709 
L 2253 4666 
z
" transform="scale(0.015625)"/>
       </defs>
       <use xlink:href="#DejaVuSans-34"/>
      </g>
     </g>
    </g>
    <g id="xtick_2">
     <g id="line2d_2">
      <g>
       <use xlink:href="#m1ea5118cf3" x="140.433334" y="242.118437" style="stroke: #000000; stroke-width: 0.8"/>
      </g>
     </g>
     <g id="text_2">
      <!-- 6 -->
      <g transform="translate(137.252084 256.716875) scale(0.1 -0.1)">
       <defs>
        <path id="DejaVuSans-36" d="M 2113 2584 
Q 1688 2584 1439 2293 
Q 1191 2003 1191 1497 
Q 1191 994 1439 701 
Q 1688 409 2113 409 
Q 2538 409 2786 701 
Q 3034 994 3034 1497 
Q 3034 2003 2786 2293 
Q 2538 2584 2113 2584 
z
M 3366 4563 
L 3366 3988 
Q 3128 4100 2886 4159 
Q 2644 4219 2406 4219 
Q 1781 4219 1451 3797 
Q 1122 3375 1075 2522 
Q 1259 2794 1537 2939 
Q 1816 3084 2150 3084 
Q 2853 3084 3261 2657 
Q 3669 2231 3669 1497 
Q 3669 778 3244 343 
Q 2819 -91 2113 -91 
Q 1303 -91 875 529 
Q 447 1150 447 2328 
Q 447 3434 972 4092 
Q 1497 4750 2381 4750 
Q 2619 4750 2861 4703 
Q 3103 4656 3366 4563 
z
" transform="scale(0.015625)"/>
       </defs>
       <use xlink:href="#DejaVuSans-36"/>
      </g>
     </g>
    </g>
    <g id="xtick_3">
     <g id="line2d_3">
      <g>
       <use xlink:href="#m1ea5118cf3" x="197.632011" y="242.118437" style="stroke: #000000; stroke-width: 0.8"/>
      </g>
     </g>
     <g id="text_3">
      <!-- 8 -->
      <g transform="translate(194.450761 256.716875) scale(0.1 -0.1)">
       <defs>
        <path id="DejaVuSans-38" d="M 2034 2216 
Q 1584 2216 1326 1975 
Q 1069 1734 1069 1313 
Q 1069 891 1326 650 
Q 1584 409 2034 409 
Q 2484 409 2743 651 
Q 3003 894 3003 1313 
Q 3003 1734 2745 1975 
Q 2488 2216 2034 2216 
z
M 1403 2484 
Q 997 2584 770 2862 
Q 544 3141 544 3541 
Q 544 4100 942 4425 
Q 1341 4750 2034 4750 
Q 2731 4750 3128 4425 
Q 3525 4100 3525 3541 
Q 3525 3141 3298 2862 
Q 3072 2584 2669 2484 
Q 3125 2378 3379 2068 
Q 3634 1759 3634 1313 
Q 3634 634 3220 271 
Q 2806 -91 2034 -91 
Q 1263 -91 848 271 
Q 434 634 434 1313 
Q 434 1759 690 2068 
Q 947 2378 1403 2484 
z
M 1172 3481 
Q 1172 3119 1398 2916 
Q 1625 2713 2034 2713 
Q 2441 2713 2670 2916 
Q 2900 3119 2900 3481 
Q 2900 3844 2670 4047 
Q 2441 4250 2034 4250 
Q 1625 4250 1398 4047 
Q 1172 3844 1172 3481 
z
" transform="scale(0.015625)"/>
       </defs>
       <use xlink:href="#DejaVuSans-38"/>
      </g>
     </g>
    </g>
    <g id="xtick_4">
     <g id="line2d_4">
      <g>
       <use xlink:href="#m1ea5118cf3" x="254.830688" y="242.118437" style="stroke: #000000; stroke-width: 0.8"/>
      </g>
     </g>
     <g id="text_4">
      <!-- 10 -->
      <g transform="translate(248.468188 256.716875) scale(0.1 -0.1)">
       <defs>
        <path id="DejaVuSans-31" d="M 794 531 
L 1825 531 
L 1825 4091 
L 703 3866 
L 703 4441 
L 1819 4666 
L 2450 4666 
L 2450 531 
L 3481 531 
L 3481 0 
L 794 0 
L 794 531 
z
" transform="scale(0.015625)"/>
        <path id="DejaVuSans-30" d="M 2034 4250 
Q 1547 4250 1301 3770 
Q 1056 3291 1056 2328 
Q 1056 1369 1301 889 
Q 1547 409 2034 409 
Q 2525 409 2770 889 
Q 3016 1369 3016 2328 
Q 3016 3291 2770 3770 
Q 2525 4250 2034 4250 
z
M 2034 4750 
Q 2819 4750 3233 4129 
Q 3647 3509 3647 2328 
Q 3647 1150 3233 529 
Q 2819 -91 2034 -91 
Q 1250 -91 836 529 
Q 422 1150 422 2328 
Q 422 3509 836 4129 
Q 1250 4750 2034 4750 
z
" transform="scale(0.015625)"/>
       </defs>
       <use xlink:href="#DejaVuSans-31"/>
       <use xlink:href="#DejaVuSans-30" x="63.623047"/>
      </g>
     </g>
    </g>
    <g id="xtick_5">
     <g id="line2d_5">
      <g>
       <use xlink:href="#m1ea5118cf3" x="312.029365" y="242.118437" style="stroke: #000000; stroke-width: 0.8"/>
      </g>
     </g>
     <g id="text_5">
      <!-- 12 -->
      <g transform="translate(305.666865 256.716875) scale(0.1 -0.1)">
       <defs>
        <path id="DejaVuSans-32" d="M 1228 531 
L 3431 531 
L 3431 0 
L 469 0 
L 469 531 
Q 828 903 1448 1529 
Q 2069 2156 2228 2338 
Q 2531 2678 2651 2914 
Q 2772 3150 2772 3378 
Q 2772 3750 2511 3984 
Q 2250 4219 1831 4219 
Q 1534 4219 1204 4116 
Q 875 4013 500 3803 
L 500 4441 
Q 881 4594 1212 4672 
Q 1544 4750 1819 4750 
Q 2544 4750 2975 4387 
Q 3406 4025 3406 3419 
Q 3406 3131 3298 2873 
Q 3191 2616 2906 2266 
Q 2828 2175 2409 1742 
Q 1991 1309 1228 531 
z
" transform="scale(0.015625)"/>
       </defs>
       <use xlink:href="#DejaVuSans-31"/>
       <use xlink:href="#DejaVuSans-32" x="63.623047"/>
      </g>
     </g>
    </g>
    <g id="xtick_6">
     <g id="line2d_6">
      <g>
       <use xlink:href="#m1ea5118cf3" x="369.228042" y="242.118437" style="stroke: #000000; stroke-width: 0.8"/>
      </g>
     </g>
     <g id="text_6">
      <!-- 14 -->
      <g transform="translate(362.865542 256.716875) scale(0.1 -0.1)">
       <use xlink:href="#DejaVuSans-31"/>
       <use xlink:href="#DejaVuSans-34" x="63.623047"/>
      </g>
     </g>
    </g>
    <g id="text_7">
     <!-- Ca -->
     <g transform="translate(223.965781 270.395) scale(0.1 -0.1)">
      <defs>
       <path id="DejaVuSans-43" d="M 4122 4306 
L 4122 3641 
Q 3803 3938 3442 4084 
Q 3081 4231 2675 4231 
Q 1875 4231 1450 3742 
Q 1025 3253 1025 2328 
Q 1025 1406 1450 917 
Q 1875 428 2675 428 
Q 3081 428 3442 575 
Q 3803 722 4122 1019 
L 4122 359 
Q 3791 134 3420 21 
Q 3050 -91 2638 -91 
Q 1578 -91 968 557 
Q 359 1206 359 2328 
Q 359 3453 968 4101 
Q 1578 4750 2638 4750 
Q 3056 4750 3426 4639 
Q 3797 4528 4122 4306 
z
" transform="scale(0.015625)"/>
       <path id="DejaVuSans-61" d="M 2194 1759 
Q 1497 1759 1228 1600 
Q 959 1441 959 1056 
Q 959 750 1161 570 
Q 1363 391 1709 391 
Q 2188 391 2477 730 
Q 2766 1069 2766 1631 
L 2766 1759 
L 2194 1759 
z
M 3341 1997 
L 3341 0 
L 2766 0 
L 2766 531 
Q 2569 213 2275 61 
Q 1981 -91 1556 -91 
Q 1019 -91 701 211 
Q 384 513 384 1019 
Q 384 1609 779 1909 
Q 1175 2209 1959 2209 
L 2766 2209 
L 2766 2266 
Q 2766 2663 2505 2880 
Q 2244 3097 1772 3097 
Q 1472 3097 1187 3025 
Q 903 2953 641 2809 
L 641 3341 
Q 956 3463 1253 3523 
Q 1550 3584 1831 3584 
Q 2591 3584 2966 3190 
Q 3341 2797 3341 1997 
z
" transform="scale(0.015625)"/>
      </defs>
      <use xlink:href="#DejaVuSans-43"/>
      <use xlink:href="#DejaVuSans-61" x="69.824219"/>
     </g>
    </g>
   </g>
   <g id="matplotlib.axis_2">
    <g id="ytick_1">
     <g id="line2d_7">
      <defs>
       <path id="mf7a6545d43" d="M 0 0 
L -3.5 0 
" style="stroke: #000000; stroke-width: 0.8"/>
      </defs>
      <g>
       <use xlink:href="#mf7a6545d43" x="43.78125" y="242.118437" style="stroke: #000000; stroke-width: 0.8"/>
      </g>
     </g>
     <g id="text_8">
      <!-- 0.0 -->
      <g transform="translate(20.878125 245.917656) scale(0.1 -0.1)">
       <defs>
        <path id="DejaVuSans-2e" d="M 684 794 
L 1344 794 
L 1344 0 
L 684 0 
L 684 794 
z
" transform="scale(0.015625)"/>
       </defs>
       <use xlink:href="#DejaVuSans-30"/>
       <use xlink:href="#DejaVuSans-2e" x="63.623047"/>
       <use xlink:href="#DejaVuSans-30" x="95.410156"/>
      </g>
     </g>
    </g>
    <g id="ytick_2">
     <g id="line2d_8">
      <g>
       <use xlink:href="#mf7a6545d43" x="43.78125" y="209.59894" style="stroke: #000000; stroke-width: 0.8"/>
      </g>
     </g>
     <g id="text_9">
      <!-- 0.2 -->
      <g transform="translate(20.878125 213.398158) scale(0.1 -0.1)">
       <use xlink:href="#DejaVuSans-30"/>
       <use xlink:href="#DejaVuSans-2e" x="63.623047"/>
       <use xlink:href="#DejaVuSans-32" x="95.410156"/>
      </g>
     </g>
    </g>
    <g id="ytick_3">
     <g id="line2d_9">
      <g>
       <use xlink:href="#mf7a6545d43" x="43.78125" y="177.079442" style="stroke: #000000; stroke-width: 0.8"/>
      </g>
     </g>
     <g id="text_10">
      <!-- 0.4 -->
      <g transform="translate(20.878125 180.878661) scale(0.1 -0.1)">
       <use xlink:href="#DejaVuSans-30"/>
       <use xlink:href="#DejaVuSans-2e" x="63.623047"/>
       <use xlink:href="#DejaVuSans-34" x="95.410156"/>
      </g>
     </g>
    </g>
    <g id="ytick_4">
     <g id="line2d_10">
      <g>
       <use xlink:href="#mf7a6545d43" x="43.78125" y="144.559944" style="stroke: #000000; stroke-width: 0.8"/>
      </g>
     </g>
     <g id="text_11">
      <!-- 0.6 -->
      <g transform="translate(20.878125 148.359163) scale(0.1 -0.1)">
       <use xlink:href="#DejaVuSans-30"/>
       <use xlink:href="#DejaVuSans-2e" x="63.623047"/>
       <use xlink:href="#DejaVuSans-36" x="95.410156"/>
      </g>
     </g>
    </g>
    <g id="ytick_5">
     <g id="line2d_11">
      <g>
       <use xlink:href="#mf7a6545d43" x="43.78125" y="112.040446" style="stroke: #000000; stroke-width: 0.8"/>
      </g>
     </g>
     <g id="text_12">
      <!-- 0.8 -->
      <g transform="translate(20.878125 115.839665) scale(0.1 -0.1)">
       <use xlink:href="#DejaVuSans-30"/>
       <use xlink:href="#DejaVuSans-2e" x="63.623047"/>
       <use xlink:href="#DejaVuSans-38" x="95.410156"/>
      </g>
     </g>
    </g>
    <g id="ytick_6">
     <g id="line2d_12">
      <g>
       <use xlink:href="#mf7a6545d43" x="43.78125" y="79.520948" style="stroke: #000000; stroke-width: 0.8"/>
      </g>
     </g>
     <g id="text_13">
      <!-- 1.0 -->
      <g transform="translate(20.878125 83.320167) scale(0.1 -0.1)">
       <use xlink:href="#DejaVuSans-31"/>
       <use xlink:href="#DejaVuSans-2e" x="63.623047"/>
       <use xlink:href="#DejaVuSans-30" x="95.410156"/>
      </g>
     </g>
    </g>
    <g id="ytick_7">
     <g id="line2d_13">
      <g>
       <use xlink:href="#mf7a6545d43" x="43.78125" y="47.001451" style="stroke: #000000; stroke-width: 0.8"/>
      </g>
     </g>
     <g id="text_14">
      <!-- 1.2 -->
      <g transform="translate(20.878125 50.800669) scale(0.1 -0.1)">
       <use xlink:href="#DejaVuSans-31"/>
       <use xlink:href="#DejaVuSans-2e" x="63.623047"/>
       <use xlink:href="#DejaVuSans-32" x="95.410156"/>
      </g>
     </g>
    </g>
    <g id="text_15">
     <!-- Density -->
     <g transform="translate(14.798438 150.467031) rotate(-90) scale(0.1 -0.1)">
      <defs>
       <path id="DejaVuSans-44" d="M 1259 4147 
L 1259 519 
L 2022 519 
Q 2988 519 3436 956 
Q 3884 1394 3884 2338 
Q 3884 3275 3436 3711 
Q 2988 4147 2022 4147 
L 1259 4147 
z
M 628 4666 
L 1925 4666 
Q 3281 4666 3915 4102 
Q 4550 3538 4550 2338 
Q 4550 1131 3912 565 
Q 3275 0 1925 0 
L 628 0 
L 628 4666 
z
" transform="scale(0.015625)"/>
       <path id="DejaVuSans-65" d="M 3597 1894 
L 3597 1613 
L 953 1613 
Q 991 1019 1311 708 
Q 1631 397 2203 397 
Q 2534 397 2845 478 
Q 3156 559 3463 722 
L 3463 178 
Q 3153 47 2828 -22 
Q 2503 -91 2169 -91 
Q 1331 -91 842 396 
Q 353 884 353 1716 
Q 353 2575 817 3079 
Q 1281 3584 2069 3584 
Q 2775 3584 3186 3129 
Q 3597 2675 3597 1894 
z
M 3022 2063 
Q 3016 2534 2758 2815 
Q 2500 3097 2075 3097 
Q 1594 3097 1305 2825 
Q 1016 2553 972 2059 
L 3022 2063 
z
" transform="scale(0.015625)"/>
       <path id="DejaVuSans-6e" d="M 3513 2113 
L 3513 0 
L 2938 0 
L 2938 2094 
Q 2938 2591 2744 2837 
Q 2550 3084 2163 3084 
Q 1697 3084 1428 2787 
Q 1159 2491 1159 1978 
L 1159 0 
L 581 0 
L 581 3500 
L 1159 3500 
L 1159 2956 
Q 1366 3272 1645 3428 
Q 1925 3584 2291 3584 
Q 2894 3584 3203 3211 
Q 3513 2838 3513 2113 
z
" transform="scale(0.015625)"/>
       <path id="DejaVuSans-73" d="M 2834 3397 
L 2834 2853 
Q 2591 2978 2328 3040 
Q 2066 3103 1784 3103 
Q 1356 3103 1142 2972 
Q 928 2841 928 2578 
Q 928 2378 1081 2264 
Q 1234 2150 1697 2047 
L 1894 2003 
Q 2506 1872 2764 1633 
Q 3022 1394 3022 966 
Q 3022 478 2636 193 
Q 2250 -91 1575 -91 
Q 1294 -91 989 -36 
Q 684 19 347 128 
L 347 722 
Q 666 556 975 473 
Q 1284 391 1588 391 
Q 1994 391 2212 530 
Q 2431 669 2431 922 
Q 2431 1156 2273 1281 
Q 2116 1406 1581 1522 
L 1381 1569 
Q 847 1681 609 1914 
Q 372 2147 372 2553 
Q 372 3047 722 3315 
Q 1072 3584 1716 3584 
Q 2034 3584 2315 3537 
Q 2597 3491 2834 3397 
z
" transform="scale(0.015625)"/>
       <path id="DejaVuSans-69" d="M 603 3500 
L 1178 3500 
L 1178 0 
L 603 0 
L 603 3500 
z
M 603 4863 
L 1178 4863 
L 1178 4134 
L 603 4134 
L 603 4863 
z
" transform="scale(0.015625)"/>
       <path id="DejaVuSans-74" d="M 1172 4494 
L 1172 3500 
L 2356 3500 
L 2356 3053 
L 1172 3053 
L 1172 1153 
Q 1172 725 1289 603 
Q 1406 481 1766 481 
L 2356 481 
L 2356 0 
L 1766 0 
Q 1100 0 847 248 
Q 594 497 594 1153 
L 594 3053 
L 172 3053 
L 172 3500 
L 594 3500 
L 594 4494 
L 1172 4494 
z
" transform="scale(0.015625)"/>
       <path id="DejaVuSans-79" d="M 2059 -325 
Q 1816 -950 1584 -1140 
Q 1353 -1331 966 -1331 
L 506 -1331 
L 506 -850 
L 844 -850 
Q 1081 -850 1212 -737 
Q 1344 -625 1503 -206 
L 1606 56 
L 191 3500 
L 800 3500 
L 1894 763 
L 2988 3500 
L 3597 3500 
L 2059 -325 
z
" transform="scale(0.015625)"/>
      </defs>
      <use xlink:href="#DejaVuSans-44"/>
      <use xlink:href="#DejaVuSans-65" x="77.001953"/>
      <use xlink:href="#DejaVuSans-6e" x="138.525391"/>
      <use xlink:href="#DejaVuSans-73" x="201.904297"/>
      <use xlink:href="#DejaVuSans-69" x="254.003906"/>
      <use xlink:href="#DejaVuSans-74" x="281.787109"/>
      <use xlink:href="#DejaVuSans-79" x="320.996094"/>
     </g>
    </g>
   </g>
   <g id="line2d_14">
    <path d="M 60.757614 242.117528 
L 118.767298 241.882639 
L 123.8858 241.834426 
L 130.710469 241.771375 
L 140.947472 241.64659 
L 144.359806 241.75217 
L 151.184475 241.448056 
L 156.302977 241.073495 
L 161.421478 240.578741 
L 168.246147 239.401678 
L 171.658482 238.866398 
L 175.070816 238.120455 
L 178.48315 237.043172 
L 181.895485 235.814582 
L 183.601652 234.98805 
L 187.013986 232.993349 
L 192.132488 230.345393 
L 193.838655 228.898593 
L 195.544822 227.232325 
L 197.25099 225.735549 
L 198.957157 224.469635 
L 200.663324 223.01022 
L 202.369491 221.00083 
L 204.075658 218.563376 
L 205.781826 215.898857 
L 207.487993 212.902166 
L 209.19416 209.372204 
L 210.900327 205.302477 
L 212.606494 200.791054 
L 214.312662 195.75683 
L 216.018829 189.964899 
L 217.724996 183.279368 
L 219.431163 175.651248 
L 221.13733 167.094829 
L 224.549665 148.934102 
L 226.255832 140.481193 
L 227.961999 132.683369 
L 229.668166 125.60166 
L 231.374334 119.758009 
L 233.080501 116.085267 
L 234.786668 115.316639 
L 236.492835 117.415439 
L 238.199002 121.578731 
L 239.90517 126.896116 
L 241.611337 133.146109 
L 243.317504 140.845374 
L 245.023671 150.232279 
L 250.142173 180.970365 
L 251.84834 190.587528 
L 253.554507 199.446365 
L 255.260674 207.200374 
L 256.966842 213.803402 
L 258.673009 219.494417 
L 260.379176 224.501919 
L 262.085343 228.794619 
L 263.79151 232.14821 
L 265.497678 234.476837 
L 267.203845 236.005927 
L 268.910012 237.088954 
L 272.322346 238.835836 
L 275.734681 240.306617 
L 277.440848 240.808031 
L 280.853182 241.368039 
L 285.971684 241.849623 
L 291.090186 241.976957 
L 296.208687 241.867757 
L 299.621022 241.855292 
L 306.44569 242.036277 
L 318.388861 242.081609 
L 323.507362 242.079924 
L 330.332031 241.991 
L 337.1567 242.076773 
L 390.047883 242.087655 
L 400.284886 242.117983 
L 400.284886 242.117983 
" clip-path="url(#p2a04009150)" style="fill: none; stroke: #ff0000; stroke-width: 1.5; stroke-linecap: square"/>
   </g>
   <g id="patch_184">
    <path d="M 43.78125 242.118437 
L 43.78125 20.798437 
" style="fill: none; stroke: #000000; stroke-width: 0.8; stroke-linejoin: miter; stroke-linecap: square"/>
   </g>
   <g id="patch_185">
    <path d="M 417.26125 242.118437 
L 417.26125 20.798437 
" style="fill: none; stroke: #000000; stroke-width: 0.8; stroke-linejoin: miter; stroke-linecap: square"/>
   </g>
   <g id="patch_186">
    <path d="M 43.78125 242.118437 
L 417.26125 242.118437 
" style="fill: none; stroke: #000000; stroke-width: 0.8; stroke-linejoin: miter; stroke-linecap: square"/>
   </g>
   <g id="patch_187">
    <path d="M 43.78125 20.798437 
L 417.26125 20.798437 
" style="fill: none; stroke: #000000; stroke-width: 0.8; stroke-linejoin: miter; stroke-linecap: square"/>
   </g>
   <g id="text_16">
    <!-- Distribution of Ca -->
    <g transform="translate(186.799375 14.798437) scale(0.1 -0.1)">
     <defs>
      <path id="DejaVuSans-72" d="M 2631 2963 
Q 2534 3019 2420 3045 
Q 2306 3072 2169 3072 
Q 1681 3072 1420 2755 
Q 1159 2438 1159 1844 
L 1159 0 
L 581 0 
L 581 3500 
L 1159 3500 
L 1159 2956 
Q 1341 3275 1631 3429 
Q 1922 3584 2338 3584 
Q 2397 3584 2469 3576 
Q 2541 3569 2628 3553 
L 2631 2963 
z
" transform="scale(0.015625)"/>
      <path id="DejaVuSans-62" d="M 3116 1747 
Q 3116 2381 2855 2742 
Q 2594 3103 2138 3103 
Q 1681 3103 1420 2742 
Q 1159 2381 1159 1747 
Q 1159 1113 1420 752 
Q 1681 391 2138 391 
Q 2594 391 2855 752 
Q 3116 1113 3116 1747 
z
M 1159 2969 
Q 1341 3281 1617 3432 
Q 1894 3584 2278 3584 
Q 2916 3584 3314 3078 
Q 3713 2572 3713 1747 
Q 3713 922 3314 415 
Q 2916 -91 2278 -91 
Q 1894 -91 1617 61 
Q 1341 213 1159 525 
L 1159 0 
L 581 0 
L 581 4863 
L 1159 4863 
L 1159 2969 
z
" transform="scale(0.015625)"/>
      <path id="DejaVuSans-75" d="M 544 1381 
L 544 3500 
L 1119 3500 
L 1119 1403 
Q 1119 906 1312 657 
Q 1506 409 1894 409 
Q 2359 409 2629 706 
Q 2900 1003 2900 1516 
L 2900 3500 
L 3475 3500 
L 3475 0 
L 2900 0 
L 2900 538 
Q 2691 219 2414 64 
Q 2138 -91 1772 -91 
Q 1169 -91 856 284 
Q 544 659 544 1381 
z
M 1991 3584 
L 1991 3584 
z
" transform="scale(0.015625)"/>
      <path id="DejaVuSans-6f" d="M 1959 3097 
Q 1497 3097 1228 2736 
Q 959 2375 959 1747 
Q 959 1119 1226 758 
Q 1494 397 1959 397 
Q 2419 397 2687 759 
Q 2956 1122 2956 1747 
Q 2956 2369 2687 2733 
Q 2419 3097 1959 3097 
z
M 1959 3584 
Q 2709 3584 3137 3096 
Q 3566 2609 3566 1747 
Q 3566 888 3137 398 
Q 2709 -91 1959 -91 
Q 1206 -91 779 398 
Q 353 888 353 1747 
Q 353 2609 779 3096 
Q 1206 3584 1959 3584 
z
" transform="scale(0.015625)"/>
      <path id="DejaVuSans-20" transform="scale(0.015625)"/>
      <path id="DejaVuSans-66" d="M 2375 4863 
L 2375 4384 
L 1825 4384 
Q 1516 4384 1395 4259 
Q 1275 4134 1275 3809 
L 1275 3500 
L 2222 3500 
L 2222 3053 
L 1275 3053 
L 1275 0 
L 697 0 
L 697 3053 
L 147 3053 
L 147 3500 
L 697 3500 
L 697 3744 
Q 697 4328 969 4595 
Q 1241 4863 1831 4863 
L 2375 4863 
z
" transform="scale(0.015625)"/>
     </defs>
     <use xlink:href="#DejaVuSans-44"/>
     <use xlink:href="#DejaVuSans-69" x="77.001953"/>
     <use xlink:href="#DejaVuSans-73" x="104.785156"/>
     <use xlink:href="#DejaVuSans-74" x="156.884766"/>
     <use xlink:href="#DejaVuSans-72" x="196.09375"/>
     <use xlink:href="#DejaVuSans-69" x="237.207031"/>
     <use xlink:href="#DejaVuSans-62" x="264.990234"/>
     <use xlink:href="#DejaVuSans-75" x="328.466797"/>
     <use xlink:href="#DejaVuSans-74" x="391.845703"/>
     <use xlink:href="#DejaVuSans-69" x="431.054688"/>
     <use xlink:href="#DejaVuSans-6f" x="458.837891"/>
     <use xlink:href="#DejaVuSans-6e" x="520.019531"/>
     <use xlink:href="#DejaVuSans-20" x="583.398438"/>
     <use xlink:href="#DejaVuSans-6f" x="615.185547"/>
     <use xlink:href="#DejaVuSans-66" x="676.367188"/>
     <use xlink:href="#DejaVuSans-20" x="711.572266"/>
     <use xlink:href="#DejaVuSans-43" x="743.359375"/>
     <use xlink:href="#DejaVuSans-61" x="813.183594"/>
    </g>
   </g>
  </g>
 </g>
 <defs>
  <clipPath id="p2a04009150">
   <rect x="43.78125" y="20.798437" width="373.48" height="221.32"/>
  </clipPath>
 </defs>
</svg>
