<?xml version="1.0" encoding="utf-8" standalone="no"?>
<!DOCTYPE svg PUBLIC "-//W3C//DTD SVG 1.1//EN"
  "http://www.w3.org/Graphics/SVG/1.1/DTD/svg11.dtd">
<svg xmlns:xlink="http://www.w3.org/1999/xlink" width="856.46125pt" height="423.034375pt" viewBox="0 0 856.46125 423.034375" xmlns="http://www.w3.org/2000/svg" version="1.1">
 <metadata>
  <rdf:RDF xmlns:dc="http://purl.org/dc/elements/1.1/" xmlns:cc="http://creativecommons.org/ns#" xmlns:rdf="http://www.w3.org/1999/02/22-rdf-syntax-ns#">
   <cc:Work>
    <dc:type rdf:resource="http://purl.org/dc/dcmitype/StillImage"/>
    <dc:date>2024-07-19T08:11:30.725381</dc:date>
    <dc:format>image/svg+xml</dc:format>
    <dc:creator>
     <cc:Agent>
      <dc:title>Matplotlib v3.9.0, https://matplotlib.org/</dc:title>
     </cc:Agent>
    </dc:creator>
   </cc:Work>
  </rdf:RDF>
 </metadata>
 <defs>
  <style type="text/css">*{stroke-linejoin: round; stroke-linecap: butt}</style>
 </defs>
 <g id="figure_1">
  <g id="patch_1">
   <path d="M 0 423.034375 
L 856.46125 423.034375 
L 856.46125 0 
L 0 0 
z
" style="fill: #ffffff"/>
  </g>
  <g id="axes_1">
   <g id="patch_2">
    <path d="M 43.78125 385.478125 
L 849.26125 385.478125 
L 849.26125 22.318125 
L 43.78125 22.318125 
z
" style="fill: #ffffff"/>
   </g>
   <g id="patch_3">
    <path d="M 96.701234 385.478125 
L 99.881416 385.478125 
L 99.881416 385.167373 
L 96.701234 385.167373 
z
" clip-path="url(#pc3202328bd)" style="fill: #1f77b4; fill-opacity: 0.5; stroke: #000000; stroke-width: 0.276694; stroke-linejoin: miter"/>
   </g>
   <g id="patch_4">
    <path d="M 99.881416 385.478125 
L 103.061598 385.478125 
L 103.061598 385.478125 
L 99.881416 385.478125 
z
" clip-path="url(#pc3202328bd)" style="fill: #1f77b4; fill-opacity: 0.5; stroke: #000000; stroke-width: 0.276694; stroke-linejoin: miter"/>
   </g>
   <g id="patch_5">
    <path d="M 103.061598 385.478125 
L 106.24178 385.478125 
L 106.24178 385.167373 
L 103.061598 385.167373 
z
" clip-path="url(#pc3202328bd)" style="fill: #1f77b4; fill-opacity: 0.5; stroke: #000000; stroke-width: 0.276694; stroke-linejoin: miter"/>
   </g>
   <g id="patch_6">
    <path d="M 106.24178 385.478125 
L 109.421962 385.478125 
L 109.421962 385.478125 
L 106.24178 385.478125 
z
" clip-path="url(#pc3202328bd)" style="fill: #1f77b4; fill-opacity: 0.5; stroke: #000000; stroke-width: 0.276694; stroke-linejoin: miter"/>
   </g>
   <g id="patch_7">
    <path d="M 109.421962 385.478125 
L 112.602144 385.478125 
L 112.602144 385.478125 
L 109.421962 385.478125 
z
" clip-path="url(#pc3202328bd)" style="fill: #1f77b4; fill-opacity: 0.5; stroke: #000000; stroke-width: 0.276694; stroke-linejoin: miter"/>
   </g>
   <g id="patch_8">
    <path d="M 112.602144 385.478125 
L 115.782325 385.478125 
L 115.782325 385.478125 
L 112.602144 385.478125 
z
" clip-path="url(#pc3202328bd)" style="fill: #1f77b4; fill-opacity: 0.5; stroke: #000000; stroke-width: 0.276694; stroke-linejoin: miter"/>
   </g>
   <g id="patch_9">
    <path d="M 115.782325 385.478125 
L 118.962507 385.478125 
L 118.962507 385.478125 
L 115.782325 385.478125 
z
" clip-path="url(#pc3202328bd)" style="fill: #1f77b4; fill-opacity: 0.5; stroke: #000000; stroke-width: 0.276694; stroke-linejoin: miter"/>
   </g>
   <g id="patch_10">
    <path d="M 118.962507 385.478125 
L 122.142689 385.478125 
L 122.142689 385.167373 
L 118.962507 385.167373 
z
" clip-path="url(#pc3202328bd)" style="fill: #1f77b4; fill-opacity: 0.5; stroke: #000000; stroke-width: 0.276694; stroke-linejoin: miter"/>
   </g>
   <g id="patch_11">
    <path d="M 122.142689 385.478125 
L 125.322871 385.478125 
L 125.322871 385.167373 
L 122.142689 385.167373 
z
" clip-path="url(#pc3202328bd)" style="fill: #1f77b4; fill-opacity: 0.5; stroke: #000000; stroke-width: 0.276694; stroke-linejoin: miter"/>
   </g>
   <g id="patch_12">
    <path d="M 125.322871 385.478125 
L 128.503053 385.478125 
L 128.503053 385.167373 
L 125.322871 385.167373 
z
" clip-path="url(#pc3202328bd)" style="fill: #1f77b4; fill-opacity: 0.5; stroke: #000000; stroke-width: 0.276694; stroke-linejoin: miter"/>
   </g>
   <g id="patch_13">
    <path d="M 128.503053 385.478125 
L 131.683235 385.478125 
L 131.683235 385.478125 
L 128.503053 385.478125 
z
" clip-path="url(#pc3202328bd)" style="fill: #1f77b4; fill-opacity: 0.5; stroke: #000000; stroke-width: 0.276694; stroke-linejoin: miter"/>
   </g>
   <g id="patch_14">
    <path d="M 131.683235 385.478125 
L 134.863417 385.478125 
L 134.863417 385.478125 
L 131.683235 385.478125 
z
" clip-path="url(#pc3202328bd)" style="fill: #1f77b4; fill-opacity: 0.5; stroke: #000000; stroke-width: 0.276694; stroke-linejoin: miter"/>
   </g>
   <g id="patch_15">
    <path d="M 134.863417 385.478125 
L 138.043599 385.478125 
L 138.043599 384.856622 
L 134.863417 384.856622 
z
" clip-path="url(#pc3202328bd)" style="fill: #1f77b4; fill-opacity: 0.5; stroke: #000000; stroke-width: 0.276694; stroke-linejoin: miter"/>
   </g>
   <g id="patch_16">
    <path d="M 138.043599 385.478125 
L 141.223781 385.478125 
L 141.223781 385.478125 
L 138.043599 385.478125 
z
" clip-path="url(#pc3202328bd)" style="fill: #1f77b4; fill-opacity: 0.5; stroke: #000000; stroke-width: 0.276694; stroke-linejoin: miter"/>
   </g>
   <g id="patch_17">
    <path d="M 141.223781 385.478125 
L 144.403963 385.478125 
L 144.403963 384.54587 
L 141.223781 384.54587 
z
" clip-path="url(#pc3202328bd)" style="fill: #1f77b4; fill-opacity: 0.5; stroke: #000000; stroke-width: 0.276694; stroke-linejoin: miter"/>
   </g>
   <g id="patch_18">
    <path d="M 144.403963 385.478125 
L 147.584145 385.478125 
L 147.584145 384.235118 
L 144.403963 384.235118 
z
" clip-path="url(#pc3202328bd)" style="fill: #1f77b4; fill-opacity: 0.5; stroke: #000000; stroke-width: 0.276694; stroke-linejoin: miter"/>
   </g>
   <g id="patch_19">
    <path d="M 147.584145 385.478125 
L 150.764327 385.478125 
L 150.764327 385.478125 
L 147.584145 385.478125 
z
" clip-path="url(#pc3202328bd)" style="fill: #1f77b4; fill-opacity: 0.5; stroke: #000000; stroke-width: 0.276694; stroke-linejoin: miter"/>
   </g>
   <g id="patch_20">
    <path d="M 150.764327 385.478125 
L 153.944509 385.478125 
L 153.944509 384.235118 
L 150.764327 384.235118 
z
" clip-path="url(#pc3202328bd)" style="fill: #1f77b4; fill-opacity: 0.5; stroke: #000000; stroke-width: 0.276694; stroke-linejoin: miter"/>
   </g>
   <g id="patch_21">
    <path d="M 153.944509 385.478125 
L 157.124691 385.478125 
L 157.124691 382.992111 
L 153.944509 382.992111 
z
" clip-path="url(#pc3202328bd)" style="fill: #1f77b4; fill-opacity: 0.5; stroke: #000000; stroke-width: 0.276694; stroke-linejoin: miter"/>
   </g>
   <g id="patch_22">
    <path d="M 157.124691 385.478125 
L 160.304873 385.478125 
L 160.304873 383.613615 
L 157.124691 383.613615 
z
" clip-path="url(#pc3202328bd)" style="fill: #1f77b4; fill-opacity: 0.5; stroke: #000000; stroke-width: 0.276694; stroke-linejoin: miter"/>
   </g>
   <g id="patch_23">
    <path d="M 160.304873 385.478125 
L 163.485055 385.478125 
L 163.485055 385.478125 
L 160.304873 385.478125 
z
" clip-path="url(#pc3202328bd)" style="fill: #1f77b4; fill-opacity: 0.5; stroke: #000000; stroke-width: 0.276694; stroke-linejoin: miter"/>
   </g>
   <g id="patch_24">
    <path d="M 163.485055 385.478125 
L 166.665237 385.478125 
L 166.665237 382.68136 
L 163.485055 382.68136 
z
" clip-path="url(#pc3202328bd)" style="fill: #1f77b4; fill-opacity: 0.5; stroke: #000000; stroke-width: 0.276694; stroke-linejoin: miter"/>
   </g>
   <g id="patch_25">
    <path d="M 166.665237 385.478125 
L 169.845419 385.478125 
L 169.845419 379.884594 
L 166.665237 379.884594 
z
" clip-path="url(#pc3202328bd)" style="fill: #1f77b4; fill-opacity: 0.5; stroke: #000000; stroke-width: 0.276694; stroke-linejoin: miter"/>
   </g>
   <g id="patch_26">
    <path d="M 169.845419 385.478125 
L 173.025601 385.478125 
L 173.025601 385.478125 
L 169.845419 385.478125 
z
" clip-path="url(#pc3202328bd)" style="fill: #1f77b4; fill-opacity: 0.5; stroke: #000000; stroke-width: 0.276694; stroke-linejoin: miter"/>
   </g>
   <g id="patch_27">
    <path d="M 173.025601 385.478125 
L 176.205783 385.478125 
L 176.205783 378.330835 
L 173.025601 378.330835 
z
" clip-path="url(#pc3202328bd)" style="fill: #1f77b4; fill-opacity: 0.5; stroke: #000000; stroke-width: 0.276694; stroke-linejoin: miter"/>
   </g>
   <g id="patch_28">
    <path d="M 176.205783 385.478125 
L 179.385965 385.478125 
L 179.385965 378.020084 
L 176.205783 378.020084 
z
" clip-path="url(#pc3202328bd)" style="fill: #1f77b4; fill-opacity: 0.5; stroke: #000000; stroke-width: 0.276694; stroke-linejoin: miter"/>
   </g>
   <g id="patch_29">
    <path d="M 179.385965 385.478125 
L 182.566147 385.478125 
L 182.566147 373.66956 
L 179.385965 373.66956 
z
" clip-path="url(#pc3202328bd)" style="fill: #1f77b4; fill-opacity: 0.5; stroke: #000000; stroke-width: 0.276694; stroke-linejoin: miter"/>
   </g>
   <g id="patch_30">
    <path d="M 182.566147 385.478125 
L 185.746329 385.478125 
L 185.746329 385.478125 
L 182.566147 385.478125 
z
" clip-path="url(#pc3202328bd)" style="fill: #1f77b4; fill-opacity: 0.5; stroke: #000000; stroke-width: 0.276694; stroke-linejoin: miter"/>
   </g>
   <g id="patch_31">
    <path d="M 185.746329 385.478125 
L 188.926511 385.478125 
L 188.926511 372.115801 
L 185.746329 372.115801 
z
" clip-path="url(#pc3202328bd)" style="fill: #1f77b4; fill-opacity: 0.5; stroke: #000000; stroke-width: 0.276694; stroke-linejoin: miter"/>
   </g>
   <g id="patch_32">
    <path d="M 188.926511 385.478125 
L 192.106693 385.478125 
L 192.106693 368.076029 
L 188.926511 368.076029 
z
" clip-path="url(#pc3202328bd)" style="fill: #1f77b4; fill-opacity: 0.5; stroke: #000000; stroke-width: 0.276694; stroke-linejoin: miter"/>
   </g>
   <g id="patch_33">
    <path d="M 192.106693 385.478125 
L 195.286875 385.478125 
L 195.286875 385.478125 
L 192.106693 385.478125 
z
" clip-path="url(#pc3202328bd)" style="fill: #1f77b4; fill-opacity: 0.5; stroke: #000000; stroke-width: 0.276694; stroke-linejoin: miter"/>
   </g>
   <g id="patch_34">
    <path d="M 195.286875 385.478125 
L 198.467057 385.478125 
L 198.467057 360.928739 
L 195.286875 360.928739 
z
" clip-path="url(#pc3202328bd)" style="fill: #1f77b4; fill-opacity: 0.5; stroke: #000000; stroke-width: 0.276694; stroke-linejoin: miter"/>
   </g>
   <g id="patch_35">
    <path d="M 198.467057 385.478125 
L 201.647239 385.478125 
L 201.647239 351.916939 
L 198.467057 351.916939 
z
" clip-path="url(#pc3202328bd)" style="fill: #1f77b4; fill-opacity: 0.5; stroke: #000000; stroke-width: 0.276694; stroke-linejoin: miter"/>
   </g>
   <g id="patch_36">
    <path d="M 201.647239 385.478125 
L 204.827421 385.478125 
L 204.827421 385.478125 
L 201.647239 385.478125 
z
" clip-path="url(#pc3202328bd)" style="fill: #1f77b4; fill-opacity: 0.5; stroke: #000000; stroke-width: 0.276694; stroke-linejoin: miter"/>
   </g>
   <g id="patch_37">
    <path d="M 204.827421 385.478125 
L 208.007603 385.478125 
L 208.007603 344.458898 
L 204.827421 344.458898 
z
" clip-path="url(#pc3202328bd)" style="fill: #1f77b4; fill-opacity: 0.5; stroke: #000000; stroke-width: 0.276694; stroke-linejoin: miter"/>
   </g>
   <g id="patch_38">
    <path d="M 208.007603 385.478125 
L 211.187784 385.478125 
L 211.187784 316.180491 
L 208.007603 316.180491 
z
" clip-path="url(#pc3202328bd)" style="fill: #1f77b4; fill-opacity: 0.5; stroke: #000000; stroke-width: 0.276694; stroke-linejoin: miter"/>
   </g>
   <g id="patch_39">
    <path d="M 211.187784 385.478125 
L 214.367966 385.478125 
L 214.367966 300.332153 
L 211.187784 300.332153 
z
" clip-path="url(#pc3202328bd)" style="fill: #1f77b4; fill-opacity: 0.5; stroke: #000000; stroke-width: 0.276694; stroke-linejoin: miter"/>
   </g>
   <g id="patch_40">
    <path d="M 214.367966 385.478125 
L 217.548148 385.478125 
L 217.548148 385.478125 
L 214.367966 385.478125 
z
" clip-path="url(#pc3202328bd)" style="fill: #1f77b4; fill-opacity: 0.5; stroke: #000000; stroke-width: 0.276694; stroke-linejoin: miter"/>
   </g>
   <g id="patch_41">
    <path d="M 217.548148 385.478125 
L 220.72833 385.478125 
L 220.72833 262.109691 
L 217.548148 262.109691 
z
" clip-path="url(#pc3202328bd)" style="fill: #1f77b4; fill-opacity: 0.5; stroke: #000000; stroke-width: 0.276694; stroke-linejoin: miter"/>
   </g>
   <g id="patch_42">
    <path d="M 220.72833 385.478125 
L 223.908512 385.478125 
L 223.908512 223.265726 
L 220.72833 223.265726 
z
" clip-path="url(#pc3202328bd)" style="fill: #1f77b4; fill-opacity: 0.5; stroke: #000000; stroke-width: 0.276694; stroke-linejoin: miter"/>
   </g>
   <g id="patch_43">
    <path d="M 223.908512 385.478125 
L 227.088694 385.478125 
L 227.088694 385.478125 
L 223.908512 385.478125 
z
" clip-path="url(#pc3202328bd)" style="fill: #1f77b4; fill-opacity: 0.5; stroke: #000000; stroke-width: 0.276694; stroke-linejoin: miter"/>
   </g>
   <g id="patch_44">
    <path d="M 227.088694 385.478125 
L 230.268876 385.478125 
L 230.268876 185.043264 
L 227.088694 185.043264 
z
" clip-path="url(#pc3202328bd)" style="fill: #1f77b4; fill-opacity: 0.5; stroke: #000000; stroke-width: 0.276694; stroke-linejoin: miter"/>
   </g>
   <g id="patch_45">
    <path d="M 230.268876 385.478125 
L 233.449058 385.478125 
L 233.449058 137.809003 
L 230.268876 137.809003 
z
" clip-path="url(#pc3202328bd)" style="fill: #1f77b4; fill-opacity: 0.5; stroke: #000000; stroke-width: 0.276694; stroke-linejoin: miter"/>
   </g>
   <g id="patch_46">
    <path d="M 233.449058 385.478125 
L 236.62924 385.478125 
L 236.62924 385.478125 
L 233.449058 385.478125 
z
" clip-path="url(#pc3202328bd)" style="fill: #1f77b4; fill-opacity: 0.5; stroke: #000000; stroke-width: 0.276694; stroke-linejoin: miter"/>
   </g>
   <g id="patch_47">
    <path d="M 236.62924 385.478125 
L 239.809422 385.478125 
L 239.809422 118.231644 
L 236.62924 118.231644 
z
" clip-path="url(#pc3202328bd)" style="fill: #1f77b4; fill-opacity: 0.5; stroke: #000000; stroke-width: 0.276694; stroke-linejoin: miter"/>
   </g>
   <g id="patch_48">
    <path d="M 239.809422 385.478125 
L 242.989604 385.478125 
L 242.989604 72.861893 
L 239.809422 72.861893 
z
" clip-path="url(#pc3202328bd)" style="fill: #1f77b4; fill-opacity: 0.5; stroke: #000000; stroke-width: 0.276694; stroke-linejoin: miter"/>
   </g>
   <g id="patch_49">
    <path d="M 242.989604 385.478125 
L 246.169786 385.478125 
L 246.169786 55.459796 
L 242.989604 55.459796 
z
" clip-path="url(#pc3202328bd)" style="fill: #1f77b4; fill-opacity: 0.5; stroke: #000000; stroke-width: 0.276694; stroke-linejoin: miter"/>
   </g>
   <g id="patch_50">
    <path d="M 246.169786 385.478125 
L 249.349968 385.478125 
L 249.349968 385.478125 
L 246.169786 385.478125 
z
" clip-path="url(#pc3202328bd)" style="fill: #1f77b4; fill-opacity: 0.5; stroke: #000000; stroke-width: 0.276694; stroke-linejoin: miter"/>
   </g>
   <g id="patch_51">
    <path d="M 249.349968 385.478125 
L 252.53015 385.478125 
L 252.53015 39.611458 
L 249.349968 39.611458 
z
" clip-path="url(#pc3202328bd)" style="fill: #1f77b4; fill-opacity: 0.5; stroke: #000000; stroke-width: 0.276694; stroke-linejoin: miter"/>
   </g>
   <g id="patch_52">
    <path d="M 252.53015 385.478125 
L 255.710332 385.478125 
L 255.710332 55.459796 
L 252.53015 55.459796 
z
" clip-path="url(#pc3202328bd)" style="fill: #1f77b4; fill-opacity: 0.5; stroke: #000000; stroke-width: 0.276694; stroke-linejoin: miter"/>
   </g>
   <g id="patch_53">
    <path d="M 255.710332 385.478125 
L 258.890514 385.478125 
L 258.890514 385.478125 
L 255.710332 385.478125 
z
" clip-path="url(#pc3202328bd)" style="fill: #1f77b4; fill-opacity: 0.5; stroke: #000000; stroke-width: 0.276694; stroke-linejoin: miter"/>
   </g>
   <g id="patch_54">
    <path d="M 258.890514 385.478125 
L 262.070696 385.478125 
L 262.070696 56.0813 
L 258.890514 56.0813 
z
" clip-path="url(#pc3202328bd)" style="fill: #1f77b4; fill-opacity: 0.5; stroke: #000000; stroke-width: 0.276694; stroke-linejoin: miter"/>
   </g>
   <g id="patch_55">
    <path d="M 262.070696 385.478125 
L 265.250878 385.478125 
L 265.250878 66.95761 
L 262.070696 66.95761 
z
" clip-path="url(#pc3202328bd)" style="fill: #1f77b4; fill-opacity: 0.5; stroke: #000000; stroke-width: 0.276694; stroke-linejoin: miter"/>
   </g>
   <g id="patch_56">
    <path d="M 265.250878 385.478125 
L 268.43106 385.478125 
L 268.43106 103.00481 
L 265.250878 103.00481 
z
" clip-path="url(#pc3202328bd)" style="fill: #1f77b4; fill-opacity: 0.5; stroke: #000000; stroke-width: 0.276694; stroke-linejoin: miter"/>
   </g>
   <g id="patch_57">
    <path d="M 268.43106 385.478125 
L 271.611242 385.478125 
L 271.611242 385.478125 
L 268.43106 385.478125 
z
" clip-path="url(#pc3202328bd)" style="fill: #1f77b4; fill-opacity: 0.5; stroke: #000000; stroke-width: 0.276694; stroke-linejoin: miter"/>
   </g>
   <g id="patch_58">
    <path d="M 271.611242 385.478125 
L 274.791424 385.478125 
L 274.791424 144.956292 
L 271.611242 144.956292 
z
" clip-path="url(#pc3202328bd)" style="fill: #1f77b4; fill-opacity: 0.5; stroke: #000000; stroke-width: 0.276694; stroke-linejoin: miter"/>
   </g>
   <g id="patch_59">
    <path d="M 274.791424 385.478125 
L 277.971606 385.478125 
L 277.971606 174.477706 
L 274.791424 174.477706 
z
" clip-path="url(#pc3202328bd)" style="fill: #1f77b4; fill-opacity: 0.5; stroke: #000000; stroke-width: 0.276694; stroke-linejoin: miter"/>
   </g>
   <g id="patch_60">
    <path d="M 277.971606 385.478125 
L 281.151788 385.478125 
L 281.151788 385.478125 
L 277.971606 385.478125 
z
" clip-path="url(#pc3202328bd)" style="fill: #1f77b4; fill-opacity: 0.5; stroke: #000000; stroke-width: 0.276694; stroke-linejoin: miter"/>
   </g>
   <g id="patch_61">
    <path d="M 281.151788 385.478125 
L 284.33197 385.478125 
L 284.33197 202.134609 
L 281.151788 202.134609 
z
" clip-path="url(#pc3202328bd)" style="fill: #1f77b4; fill-opacity: 0.5; stroke: #000000; stroke-width: 0.276694; stroke-linejoin: miter"/>
   </g>
   <g id="patch_62">
    <path d="M 284.33197 385.478125 
L 287.512152 385.478125 
L 287.512152 226.062492 
L 284.33197 226.062492 
z
" clip-path="url(#pc3202328bd)" style="fill: #1f77b4; fill-opacity: 0.5; stroke: #000000; stroke-width: 0.276694; stroke-linejoin: miter"/>
   </g>
   <g id="patch_63">
    <path d="M 287.512152 385.478125 
L 290.692334 385.478125 
L 290.692334 385.478125 
L 287.512152 385.478125 
z
" clip-path="url(#pc3202328bd)" style="fill: #1f77b4; fill-opacity: 0.5; stroke: #000000; stroke-width: 0.276694; stroke-linejoin: miter"/>
   </g>
   <g id="patch_64">
    <path d="M 290.692334 385.478125 
L 293.872516 385.478125 
L 293.872516 259.934429 
L 290.692334 259.934429 
z
" clip-path="url(#pc3202328bd)" style="fill: #1f77b4; fill-opacity: 0.5; stroke: #000000; stroke-width: 0.276694; stroke-linejoin: miter"/>
   </g>
   <g id="patch_65">
    <path d="M 293.872516 385.478125 
L 297.052698 385.478125 
L 297.052698 282.930057 
L 293.872516 282.930057 
z
" clip-path="url(#pc3202328bd)" style="fill: #1f77b4; fill-opacity: 0.5; stroke: #000000; stroke-width: 0.276694; stroke-linejoin: miter"/>
   </g>
   <g id="patch_66">
    <path d="M 297.052698 385.478125 
L 300.23288 385.478125 
L 300.23288 297.535388 
L 297.052698 297.535388 
z
" clip-path="url(#pc3202328bd)" style="fill: #1f77b4; fill-opacity: 0.5; stroke: #000000; stroke-width: 0.276694; stroke-linejoin: miter"/>
   </g>
   <g id="patch_67">
    <path d="M 300.23288 385.478125 
L 303.413062 385.478125 
L 303.413062 385.478125 
L 300.23288 385.478125 
z
" clip-path="url(#pc3202328bd)" style="fill: #1f77b4; fill-opacity: 0.5; stroke: #000000; stroke-width: 0.276694; stroke-linejoin: miter"/>
   </g>
   <g id="patch_68">
    <path d="M 303.413062 385.478125 
L 306.593243 385.478125 
L 306.593243 319.288008 
L 303.413062 319.288008 
z
" clip-path="url(#pc3202328bd)" style="fill: #1f77b4; fill-opacity: 0.5; stroke: #000000; stroke-width: 0.276694; stroke-linejoin: miter"/>
   </g>
   <g id="patch_69">
    <path d="M 306.593243 385.478125 
L 309.773425 385.478125 
L 309.773425 335.447098 
L 306.593243 335.447098 
z
" clip-path="url(#pc3202328bd)" style="fill: #1f77b4; fill-opacity: 0.5; stroke: #000000; stroke-width: 0.276694; stroke-linejoin: miter"/>
   </g>
   <g id="patch_70">
    <path d="M 309.773425 385.478125 
L 312.953607 385.478125 
L 312.953607 385.478125 
L 309.773425 385.478125 
z
" clip-path="url(#pc3202328bd)" style="fill: #1f77b4; fill-opacity: 0.5; stroke: #000000; stroke-width: 0.276694; stroke-linejoin: miter"/>
   </g>
   <g id="patch_71">
    <path d="M 312.953607 385.478125 
L 316.133789 385.478125 
L 316.133789 336.068601 
L 312.953607 336.068601 
z
" clip-path="url(#pc3202328bd)" style="fill: #1f77b4; fill-opacity: 0.5; stroke: #000000; stroke-width: 0.276694; stroke-linejoin: miter"/>
   </g>
   <g id="patch_72">
    <path d="M 316.133789 385.478125 
L 319.313971 385.478125 
L 319.313971 345.701905 
L 316.133789 345.701905 
z
" clip-path="url(#pc3202328bd)" style="fill: #1f77b4; fill-opacity: 0.5; stroke: #000000; stroke-width: 0.276694; stroke-linejoin: miter"/>
   </g>
   <g id="patch_73">
    <path d="M 319.313971 385.478125 
L 322.494153 385.478125 
L 322.494153 354.713705 
L 319.313971 354.713705 
z
" clip-path="url(#pc3202328bd)" style="fill: #1f77b4; fill-opacity: 0.5; stroke: #000000; stroke-width: 0.276694; stroke-linejoin: miter"/>
   </g>
   <g id="patch_74">
    <path d="M 322.494153 385.478125 
L 325.674335 385.478125 
L 325.674335 385.478125 
L 322.494153 385.478125 
z
" clip-path="url(#pc3202328bd)" style="fill: #1f77b4; fill-opacity: 0.5; stroke: #000000; stroke-width: 0.276694; stroke-linejoin: miter"/>
   </g>
   <g id="patch_75">
    <path d="M 325.674335 385.478125 
L 328.854517 385.478125 
L 328.854517 359.685732 
L 325.674335 359.685732 
z
" clip-path="url(#pc3202328bd)" style="fill: #1f77b4; fill-opacity: 0.5; stroke: #000000; stroke-width: 0.276694; stroke-linejoin: miter"/>
   </g>
   <g id="patch_76">
    <path d="M 328.854517 385.478125 
L 332.034699 385.478125 
L 332.034699 359.37498 
L 328.854517 359.37498 
z
" clip-path="url(#pc3202328bd)" style="fill: #1f77b4; fill-opacity: 0.5; stroke: #000000; stroke-width: 0.276694; stroke-linejoin: miter"/>
   </g>
   <g id="patch_77">
    <path d="M 332.034699 385.478125 
L 335.214881 385.478125 
L 335.214881 385.478125 
L 332.034699 385.478125 
z
" clip-path="url(#pc3202328bd)" style="fill: #1f77b4; fill-opacity: 0.5; stroke: #000000; stroke-width: 0.276694; stroke-linejoin: miter"/>
   </g>
   <g id="patch_78">
    <path d="M 335.214881 385.478125 
L 338.395063 385.478125 
L 338.395063 364.65776 
L 335.214881 364.65776 
z
" clip-path="url(#pc3202328bd)" style="fill: #1f77b4; fill-opacity: 0.5; stroke: #000000; stroke-width: 0.276694; stroke-linejoin: miter"/>
   </g>
   <g id="patch_79">
    <path d="M 338.395063 385.478125 
L 341.575245 385.478125 
L 341.575245 368.076029 
L 338.395063 368.076029 
z
" clip-path="url(#pc3202328bd)" style="fill: #1f77b4; fill-opacity: 0.5; stroke: #000000; stroke-width: 0.276694; stroke-linejoin: miter"/>
   </g>
   <g id="patch_80">
    <path d="M 341.575245 385.478125 
L 344.755427 385.478125 
L 344.755427 385.478125 
L 341.575245 385.478125 
z
" clip-path="url(#pc3202328bd)" style="fill: #1f77b4; fill-opacity: 0.5; stroke: #000000; stroke-width: 0.276694; stroke-linejoin: miter"/>
   </g>
   <g id="patch_81">
    <path d="M 344.755427 385.478125 
L 347.935609 385.478125 
L 347.935609 365.279263 
L 344.755427 365.279263 
z
" clip-path="url(#pc3202328bd)" style="fill: #1f77b4; fill-opacity: 0.5; stroke: #000000; stroke-width: 0.276694; stroke-linejoin: miter"/>
   </g>
   <g id="patch_82">
    <path d="M 347.935609 385.478125 
L 351.115791 385.478125 
L 351.115791 373.358808 
L 347.935609 373.358808 
z
" clip-path="url(#pc3202328bd)" style="fill: #1f77b4; fill-opacity: 0.5; stroke: #000000; stroke-width: 0.276694; stroke-linejoin: miter"/>
   </g>
   <g id="patch_83">
    <path d="M 351.115791 385.478125 
L 354.295973 385.478125 
L 354.295973 370.562042 
L 351.115791 370.562042 
z
" clip-path="url(#pc3202328bd)" style="fill: #1f77b4; fill-opacity: 0.5; stroke: #000000; stroke-width: 0.276694; stroke-linejoin: miter"/>
   </g>
   <g id="patch_84">
    <path d="M 354.295973 385.478125 
L 357.476155 385.478125 
L 357.476155 385.478125 
L 354.295973 385.478125 
z
" clip-path="url(#pc3202328bd)" style="fill: #1f77b4; fill-opacity: 0.5; stroke: #000000; stroke-width: 0.276694; stroke-linejoin: miter"/>
   </g>
   <g id="patch_85">
    <path d="M 357.476155 385.478125 
L 360.656337 385.478125 
L 360.656337 376.155573 
L 357.476155 376.155573 
z
" clip-path="url(#pc3202328bd)" style="fill: #1f77b4; fill-opacity: 0.5; stroke: #000000; stroke-width: 0.276694; stroke-linejoin: miter"/>
   </g>
   <g id="patch_86">
    <path d="M 360.656337 385.478125 
L 363.836519 385.478125 
L 363.836519 377.087829 
L 360.656337 377.087829 
z
" clip-path="url(#pc3202328bd)" style="fill: #1f77b4; fill-opacity: 0.5; stroke: #000000; stroke-width: 0.276694; stroke-linejoin: miter"/>
   </g>
   <g id="patch_87">
    <path d="M 363.836519 385.478125 
L 367.016701 385.478125 
L 367.016701 385.478125 
L 363.836519 385.478125 
z
" clip-path="url(#pc3202328bd)" style="fill: #1f77b4; fill-opacity: 0.5; stroke: #000000; stroke-width: 0.276694; stroke-linejoin: miter"/>
   </g>
   <g id="patch_88">
    <path d="M 367.016701 385.478125 
L 370.196883 385.478125 
L 370.196883 379.263091 
L 367.016701 379.263091 
z
" clip-path="url(#pc3202328bd)" style="fill: #1f77b4; fill-opacity: 0.5; stroke: #000000; stroke-width: 0.276694; stroke-linejoin: miter"/>
   </g>
   <g id="patch_89">
    <path d="M 370.196883 385.478125 
L 373.377065 385.478125 
L 373.377065 377.087829 
L 370.196883 377.087829 
z
" clip-path="url(#pc3202328bd)" style="fill: #1f77b4; fill-opacity: 0.5; stroke: #000000; stroke-width: 0.276694; stroke-linejoin: miter"/>
   </g>
   <g id="patch_90">
    <path d="M 373.377065 385.478125 
L 376.557247 385.478125 
L 376.557247 385.478125 
L 373.377065 385.478125 
z
" clip-path="url(#pc3202328bd)" style="fill: #1f77b4; fill-opacity: 0.5; stroke: #000000; stroke-width: 0.276694; stroke-linejoin: miter"/>
   </g>
   <g id="patch_91">
    <path d="M 376.557247 385.478125 
L 379.737429 385.478125 
L 379.737429 380.195346 
L 376.557247 380.195346 
z
" clip-path="url(#pc3202328bd)" style="fill: #1f77b4; fill-opacity: 0.5; stroke: #000000; stroke-width: 0.276694; stroke-linejoin: miter"/>
   </g>
   <g id="patch_92">
    <path d="M 379.737429 385.478125 
L 382.917611 385.478125 
L 382.917611 378.952339 
L 379.737429 378.952339 
z
" clip-path="url(#pc3202328bd)" style="fill: #1f77b4; fill-opacity: 0.5; stroke: #000000; stroke-width: 0.276694; stroke-linejoin: miter"/>
   </g>
   <g id="patch_93">
    <path d="M 382.917611 385.478125 
L 386.097793 385.478125 
L 386.097793 380.816849 
L 382.917611 380.816849 
z
" clip-path="url(#pc3202328bd)" style="fill: #1f77b4; fill-opacity: 0.5; stroke: #000000; stroke-width: 0.276694; stroke-linejoin: miter"/>
   </g>
   <g id="patch_94">
    <path d="M 386.097793 385.478125 
L 389.277975 385.478125 
L 389.277975 385.478125 
L 386.097793 385.478125 
z
" clip-path="url(#pc3202328bd)" style="fill: #1f77b4; fill-opacity: 0.5; stroke: #000000; stroke-width: 0.276694; stroke-linejoin: miter"/>
   </g>
   <g id="patch_95">
    <path d="M 389.277975 385.478125 
L 392.458157 385.478125 
L 392.458157 382.059856 
L 389.277975 382.059856 
z
" clip-path="url(#pc3202328bd)" style="fill: #1f77b4; fill-opacity: 0.5; stroke: #000000; stroke-width: 0.276694; stroke-linejoin: miter"/>
   </g>
   <g id="patch_96">
    <path d="M 392.458157 385.478125 
L 395.638339 385.478125 
L 395.638339 382.68136 
L 392.458157 382.68136 
z
" clip-path="url(#pc3202328bd)" style="fill: #1f77b4; fill-opacity: 0.5; stroke: #000000; stroke-width: 0.276694; stroke-linejoin: miter"/>
   </g>
   <g id="patch_97">
    <path d="M 395.638339 385.478125 
L 398.818521 385.478125 
L 398.818521 385.478125 
L 395.638339 385.478125 
z
" clip-path="url(#pc3202328bd)" style="fill: #1f77b4; fill-opacity: 0.5; stroke: #000000; stroke-width: 0.276694; stroke-linejoin: miter"/>
   </g>
   <g id="patch_98">
    <path d="M 398.818521 385.478125 
L 401.998702 385.478125 
L 401.998702 382.370608 
L 398.818521 382.370608 
z
" clip-path="url(#pc3202328bd)" style="fill: #1f77b4; fill-opacity: 0.5; stroke: #000000; stroke-width: 0.276694; stroke-linejoin: miter"/>
   </g>
   <g id="patch_99">
    <path d="M 401.998702 385.478125 
L 405.178884 385.478125 
L 405.178884 380.816849 
L 401.998702 380.816849 
z
" clip-path="url(#pc3202328bd)" style="fill: #1f77b4; fill-opacity: 0.5; stroke: #000000; stroke-width: 0.276694; stroke-linejoin: miter"/>
   </g>
   <g id="patch_100">
    <path d="M 405.178884 385.478125 
L 408.359066 385.478125 
L 408.359066 381.749104 
L 405.178884 381.749104 
z
" clip-path="url(#pc3202328bd)" style="fill: #1f77b4; fill-opacity: 0.5; stroke: #000000; stroke-width: 0.276694; stroke-linejoin: miter"/>
   </g>
   <g id="patch_101">
    <path d="M 408.359066 385.478125 
L 411.539248 385.478125 
L 411.539248 385.478125 
L 408.359066 385.478125 
z
" clip-path="url(#pc3202328bd)" style="fill: #1f77b4; fill-opacity: 0.5; stroke: #000000; stroke-width: 0.276694; stroke-linejoin: miter"/>
   </g>
   <g id="patch_102">
    <path d="M 411.539248 385.478125 
L 414.71943 385.478125 
L 414.71943 382.059856 
L 411.539248 382.059856 
z
" clip-path="url(#pc3202328bd)" style="fill: #1f77b4; fill-opacity: 0.5; stroke: #000000; stroke-width: 0.276694; stroke-linejoin: miter"/>
   </g>
   <g id="patch_103">
    <path d="M 414.71943 385.478125 
L 417.899612 385.478125 
L 417.899612 383.302863 
L 414.71943 383.302863 
z
" clip-path="url(#pc3202328bd)" style="fill: #1f77b4; fill-opacity: 0.5; stroke: #000000; stroke-width: 0.276694; stroke-linejoin: miter"/>
   </g>
   <g id="patch_104">
    <path d="M 417.899612 385.478125 
L 421.079794 385.478125 
L 421.079794 385.478125 
L 417.899612 385.478125 
z
" clip-path="url(#pc3202328bd)" style="fill: #1f77b4; fill-opacity: 0.5; stroke: #000000; stroke-width: 0.276694; stroke-linejoin: miter"/>
   </g>
   <g id="patch_105">
    <path d="M 421.079794 385.478125 
L 424.259976 385.478125 
L 424.259976 384.54587 
L 421.079794 384.54587 
z
" clip-path="url(#pc3202328bd)" style="fill: #1f77b4; fill-opacity: 0.5; stroke: #000000; stroke-width: 0.276694; stroke-linejoin: miter"/>
   </g>
   <g id="patch_106">
    <path d="M 424.259976 385.478125 
L 427.440158 385.478125 
L 427.440158 383.302863 
L 424.259976 383.302863 
z
" clip-path="url(#pc3202328bd)" style="fill: #1f77b4; fill-opacity: 0.5; stroke: #000000; stroke-width: 0.276694; stroke-linejoin: miter"/>
   </g>
   <g id="patch_107">
    <path d="M 427.440158 385.478125 
L 430.62034 385.478125 
L 430.62034 385.478125 
L 427.440158 385.478125 
z
" clip-path="url(#pc3202328bd)" style="fill: #1f77b4; fill-opacity: 0.5; stroke: #000000; stroke-width: 0.276694; stroke-linejoin: miter"/>
   </g>
   <g id="patch_108">
    <path d="M 430.62034 385.478125 
L 433.800522 385.478125 
L 433.800522 383.613615 
L 430.62034 383.613615 
z
" clip-path="url(#pc3202328bd)" style="fill: #1f77b4; fill-opacity: 0.5; stroke: #000000; stroke-width: 0.276694; stroke-linejoin: miter"/>
   </g>
   <g id="patch_109">
    <path d="M 433.800522 385.478125 
L 436.980704 385.478125 
L 436.980704 384.856622 
L 433.800522 384.856622 
z
" clip-path="url(#pc3202328bd)" style="fill: #1f77b4; fill-opacity: 0.5; stroke: #000000; stroke-width: 0.276694; stroke-linejoin: miter"/>
   </g>
   <g id="patch_110">
    <path d="M 436.980704 385.478125 
L 440.160886 385.478125 
L 440.160886 383.302863 
L 436.980704 383.302863 
z
" clip-path="url(#pc3202328bd)" style="fill: #1f77b4; fill-opacity: 0.5; stroke: #000000; stroke-width: 0.276694; stroke-linejoin: miter"/>
   </g>
   <g id="patch_111">
    <path d="M 440.160886 385.478125 
L 443.341068 385.478125 
L 443.341068 385.478125 
L 440.160886 385.478125 
z
" clip-path="url(#pc3202328bd)" style="fill: #1f77b4; fill-opacity: 0.5; stroke: #000000; stroke-width: 0.276694; stroke-linejoin: miter"/>
   </g>
   <g id="patch_112">
    <path d="M 443.341068 385.478125 
L 446.52125 385.478125 
L 446.52125 382.992111 
L 443.341068 382.992111 
z
" clip-path="url(#pc3202328bd)" style="fill: #1f77b4; fill-opacity: 0.5; stroke: #000000; stroke-width: 0.276694; stroke-linejoin: miter"/>
   </g>
   <g id="patch_113">
    <path d="M 446.52125 385.478125 
L 449.701432 385.478125 
L 449.701432 383.613615 
L 446.52125 383.613615 
z
" clip-path="url(#pc3202328bd)" style="fill: #1f77b4; fill-opacity: 0.5; stroke: #000000; stroke-width: 0.276694; stroke-linejoin: miter"/>
   </g>
   <g id="patch_114">
    <path d="M 449.701432 385.478125 
L 452.881614 385.478125 
L 452.881614 385.478125 
L 449.701432 385.478125 
z
" clip-path="url(#pc3202328bd)" style="fill: #1f77b4; fill-opacity: 0.5; stroke: #000000; stroke-width: 0.276694; stroke-linejoin: miter"/>
   </g>
   <g id="patch_115">
    <path d="M 452.881614 385.478125 
L 456.061796 385.478125 
L 456.061796 384.235118 
L 452.881614 384.235118 
z
" clip-path="url(#pc3202328bd)" style="fill: #1f77b4; fill-opacity: 0.5; stroke: #000000; stroke-width: 0.276694; stroke-linejoin: miter"/>
   </g>
   <g id="patch_116">
    <path d="M 456.061796 385.478125 
L 459.241978 385.478125 
L 459.241978 383.924366 
L 456.061796 383.924366 
z
" clip-path="url(#pc3202328bd)" style="fill: #1f77b4; fill-opacity: 0.5; stroke: #000000; stroke-width: 0.276694; stroke-linejoin: miter"/>
   </g>
   <g id="patch_117">
    <path d="M 459.241978 385.478125 
L 462.42216 385.478125 
L 462.42216 384.856622 
L 459.241978 384.856622 
z
" clip-path="url(#pc3202328bd)" style="fill: #1f77b4; fill-opacity: 0.5; stroke: #000000; stroke-width: 0.276694; stroke-linejoin: miter"/>
   </g>
   <g id="patch_118">
    <path d="M 462.42216 385.478125 
L 465.602342 385.478125 
L 465.602342 385.478125 
L 462.42216 385.478125 
z
" clip-path="url(#pc3202328bd)" style="fill: #1f77b4; fill-opacity: 0.5; stroke: #000000; stroke-width: 0.276694; stroke-linejoin: miter"/>
   </g>
   <g id="patch_119">
    <path d="M 465.602342 385.478125 
L 468.782524 385.478125 
L 468.782524 384.856622 
L 465.602342 384.856622 
z
" clip-path="url(#pc3202328bd)" style="fill: #1f77b4; fill-opacity: 0.5; stroke: #000000; stroke-width: 0.276694; stroke-linejoin: miter"/>
   </g>
   <g id="patch_120">
    <path d="M 468.782524 385.478125 
L 471.962706 385.478125 
L 471.962706 383.613615 
L 468.782524 383.613615 
z
" clip-path="url(#pc3202328bd)" style="fill: #1f77b4; fill-opacity: 0.5; stroke: #000000; stroke-width: 0.276694; stroke-linejoin: miter"/>
   </g>
   <g id="patch_121">
    <path d="M 471.962706 385.478125 
L 475.142888 385.478125 
L 475.142888 385.478125 
L 471.962706 385.478125 
z
" clip-path="url(#pc3202328bd)" style="fill: #1f77b4; fill-opacity: 0.5; stroke: #000000; stroke-width: 0.276694; stroke-linejoin: miter"/>
   </g>
   <g id="patch_122">
    <path d="M 475.142888 385.478125 
L 478.32307 385.478125 
L 478.32307 385.167373 
L 475.142888 385.167373 
z
" clip-path="url(#pc3202328bd)" style="fill: #1f77b4; fill-opacity: 0.5; stroke: #000000; stroke-width: 0.276694; stroke-linejoin: miter"/>
   </g>
   <g id="patch_123">
    <path d="M 478.32307 385.478125 
L 481.503252 385.478125 
L 481.503252 385.167373 
L 478.32307 385.167373 
z
" clip-path="url(#pc3202328bd)" style="fill: #1f77b4; fill-opacity: 0.5; stroke: #000000; stroke-width: 0.276694; stroke-linejoin: miter"/>
   </g>
   <g id="patch_124">
    <path d="M 481.503252 385.478125 
L 484.683434 385.478125 
L 484.683434 385.478125 
L 481.503252 385.478125 
z
" clip-path="url(#pc3202328bd)" style="fill: #1f77b4; fill-opacity: 0.5; stroke: #000000; stroke-width: 0.276694; stroke-linejoin: miter"/>
   </g>
   <g id="patch_125">
    <path d="M 484.683434 385.478125 
L 487.863616 385.478125 
L 487.863616 384.856622 
L 484.683434 384.856622 
z
" clip-path="url(#pc3202328bd)" style="fill: #1f77b4; fill-opacity: 0.5; stroke: #000000; stroke-width: 0.276694; stroke-linejoin: miter"/>
   </g>
   <g id="patch_126">
    <path d="M 487.863616 385.478125 
L 491.043798 385.478125 
L 491.043798 385.478125 
L 487.863616 385.478125 
z
" clip-path="url(#pc3202328bd)" style="fill: #1f77b4; fill-opacity: 0.5; stroke: #000000; stroke-width: 0.276694; stroke-linejoin: miter"/>
   </g>
   <g id="patch_127">
    <path d="M 491.043798 385.478125 
L 494.223979 385.478125 
L 494.223979 385.478125 
L 491.043798 385.478125 
z
" clip-path="url(#pc3202328bd)" style="fill: #1f77b4; fill-opacity: 0.5; stroke: #000000; stroke-width: 0.276694; stroke-linejoin: miter"/>
   </g>
   <g id="patch_128">
    <path d="M 494.223979 385.478125 
L 497.404161 385.478125 
L 497.404161 385.478125 
L 494.223979 385.478125 
z
" clip-path="url(#pc3202328bd)" style="fill: #1f77b4; fill-opacity: 0.5; stroke: #000000; stroke-width: 0.276694; stroke-linejoin: miter"/>
   </g>
   <g id="patch_129">
    <path d="M 497.404161 385.478125 
L 500.584343 385.478125 
L 500.584343 384.856622 
L 497.404161 384.856622 
z
" clip-path="url(#pc3202328bd)" style="fill: #1f77b4; fill-opacity: 0.5; stroke: #000000; stroke-width: 0.276694; stroke-linejoin: miter"/>
   </g>
   <g id="patch_130">
    <path d="M 500.584343 385.478125 
L 503.764525 385.478125 
L 503.764525 384.54587 
L 500.584343 384.54587 
z
" clip-path="url(#pc3202328bd)" style="fill: #1f77b4; fill-opacity: 0.5; stroke: #000000; stroke-width: 0.276694; stroke-linejoin: miter"/>
   </g>
   <g id="patch_131">
    <path d="M 503.764525 385.478125 
L 506.944707 385.478125 
L 506.944707 385.478125 
L 503.764525 385.478125 
z
" clip-path="url(#pc3202328bd)" style="fill: #1f77b4; fill-opacity: 0.5; stroke: #000000; stroke-width: 0.276694; stroke-linejoin: miter"/>
   </g>
   <g id="patch_132">
    <path d="M 506.944707 385.478125 
L 510.124889 385.478125 
L 510.124889 384.856622 
L 506.944707 384.856622 
z
" clip-path="url(#pc3202328bd)" style="fill: #1f77b4; fill-opacity: 0.5; stroke: #000000; stroke-width: 0.276694; stroke-linejoin: miter"/>
   </g>
   <g id="patch_133">
    <path d="M 510.124889 385.478125 
L 513.305071 385.478125 
L 513.305071 384.856622 
L 510.124889 384.856622 
z
" clip-path="url(#pc3202328bd)" style="fill: #1f77b4; fill-opacity: 0.5; stroke: #000000; stroke-width: 0.276694; stroke-linejoin: miter"/>
   </g>
   <g id="patch_134">
    <path d="M 513.305071 385.478125 
L 516.485253 385.478125 
L 516.485253 385.478125 
L 513.305071 385.478125 
z
" clip-path="url(#pc3202328bd)" style="fill: #1f77b4; fill-opacity: 0.5; stroke: #000000; stroke-width: 0.276694; stroke-linejoin: miter"/>
   </g>
   <g id="patch_135">
    <path d="M 516.485253 385.478125 
L 519.665435 385.478125 
L 519.665435 385.478125 
L 516.485253 385.478125 
z
" clip-path="url(#pc3202328bd)" style="fill: #1f77b4; fill-opacity: 0.5; stroke: #000000; stroke-width: 0.276694; stroke-linejoin: miter"/>
   </g>
   <g id="patch_136">
    <path d="M 519.665435 385.478125 
L 522.845617 385.478125 
L 522.845617 384.54587 
L 519.665435 384.54587 
z
" clip-path="url(#pc3202328bd)" style="fill: #1f77b4; fill-opacity: 0.5; stroke: #000000; stroke-width: 0.276694; stroke-linejoin: miter"/>
   </g>
   <g id="patch_137">
    <path d="M 522.845617 385.478125 
L 526.025799 385.478125 
L 526.025799 385.167373 
L 522.845617 385.167373 
z
" clip-path="url(#pc3202328bd)" style="fill: #1f77b4; fill-opacity: 0.5; stroke: #000000; stroke-width: 0.276694; stroke-linejoin: miter"/>
   </g>
   <g id="patch_138">
    <path d="M 526.025799 385.478125 
L 529.205981 385.478125 
L 529.205981 385.478125 
L 526.025799 385.478125 
z
" clip-path="url(#pc3202328bd)" style="fill: #1f77b4; fill-opacity: 0.5; stroke: #000000; stroke-width: 0.276694; stroke-linejoin: miter"/>
   </g>
   <g id="patch_139">
    <path d="M 529.205981 385.478125 
L 532.386163 385.478125 
L 532.386163 384.856622 
L 529.205981 384.856622 
z
" clip-path="url(#pc3202328bd)" style="fill: #1f77b4; fill-opacity: 0.5; stroke: #000000; stroke-width: 0.276694; stroke-linejoin: miter"/>
   </g>
   <g id="patch_140">
    <path d="M 532.386163 385.478125 
L 535.566345 385.478125 
L 535.566345 385.478125 
L 532.386163 385.478125 
z
" clip-path="url(#pc3202328bd)" style="fill: #1f77b4; fill-opacity: 0.5; stroke: #000000; stroke-width: 0.276694; stroke-linejoin: miter"/>
   </g>
   <g id="patch_141">
    <path d="M 535.566345 385.478125 
L 538.746527 385.478125 
L 538.746527 385.478125 
L 535.566345 385.478125 
z
" clip-path="url(#pc3202328bd)" style="fill: #1f77b4; fill-opacity: 0.5; stroke: #000000; stroke-width: 0.276694; stroke-linejoin: miter"/>
   </g>
   <g id="patch_142">
    <path d="M 538.746527 385.478125 
L 541.926709 385.478125 
L 541.926709 385.167373 
L 538.746527 385.167373 
z
" clip-path="url(#pc3202328bd)" style="fill: #1f77b4; fill-opacity: 0.5; stroke: #000000; stroke-width: 0.276694; stroke-linejoin: miter"/>
   </g>
   <g id="patch_143">
    <path d="M 541.926709 385.478125 
L 545.106891 385.478125 
L 545.106891 384.856622 
L 541.926709 384.856622 
z
" clip-path="url(#pc3202328bd)" style="fill: #1f77b4; fill-opacity: 0.5; stroke: #000000; stroke-width: 0.276694; stroke-linejoin: miter"/>
   </g>
   <g id="patch_144">
    <path d="M 545.106891 385.478125 
L 548.287073 385.478125 
L 548.287073 385.478125 
L 545.106891 385.478125 
z
" clip-path="url(#pc3202328bd)" style="fill: #1f77b4; fill-opacity: 0.5; stroke: #000000; stroke-width: 0.276694; stroke-linejoin: miter"/>
   </g>
   <g id="patch_145">
    <path d="M 548.287073 385.478125 
L 551.467255 385.478125 
L 551.467255 385.478125 
L 548.287073 385.478125 
z
" clip-path="url(#pc3202328bd)" style="fill: #1f77b4; fill-opacity: 0.5; stroke: #000000; stroke-width: 0.276694; stroke-linejoin: miter"/>
   </g>
   <g id="patch_146">
    <path d="M 551.467255 385.478125 
L 554.647437 385.478125 
L 554.647437 384.856622 
L 551.467255 384.856622 
z
" clip-path="url(#pc3202328bd)" style="fill: #1f77b4; fill-opacity: 0.5; stroke: #000000; stroke-width: 0.276694; stroke-linejoin: miter"/>
   </g>
   <g id="patch_147">
    <path d="M 554.647437 385.478125 
L 557.827619 385.478125 
L 557.827619 385.478125 
L 554.647437 385.478125 
z
" clip-path="url(#pc3202328bd)" style="fill: #1f77b4; fill-opacity: 0.5; stroke: #000000; stroke-width: 0.276694; stroke-linejoin: miter"/>
   </g>
   <g id="patch_148">
    <path d="M 557.827619 385.478125 
L 561.007801 385.478125 
L 561.007801 385.478125 
L 557.827619 385.478125 
z
" clip-path="url(#pc3202328bd)" style="fill: #1f77b4; fill-opacity: 0.5; stroke: #000000; stroke-width: 0.276694; stroke-linejoin: miter"/>
   </g>
   <g id="patch_149">
    <path d="M 561.007801 385.478125 
L 564.187983 385.478125 
L 564.187983 385.478125 
L 561.007801 385.478125 
z
" clip-path="url(#pc3202328bd)" style="fill: #1f77b4; fill-opacity: 0.5; stroke: #000000; stroke-width: 0.276694; stroke-linejoin: miter"/>
   </g>
   <g id="patch_150">
    <path d="M 564.187983 385.478125 
L 567.368165 385.478125 
L 567.368165 385.167373 
L 564.187983 385.167373 
z
" clip-path="url(#pc3202328bd)" style="fill: #1f77b4; fill-opacity: 0.5; stroke: #000000; stroke-width: 0.276694; stroke-linejoin: miter"/>
   </g>
   <g id="patch_151">
    <path d="M 567.368165 385.478125 
L 570.548347 385.478125 
L 570.548347 385.478125 
L 567.368165 385.478125 
z
" clip-path="url(#pc3202328bd)" style="fill: #1f77b4; fill-opacity: 0.5; stroke: #000000; stroke-width: 0.276694; stroke-linejoin: miter"/>
   </g>
   <g id="patch_152">
    <path d="M 570.548347 385.478125 
L 573.728529 385.478125 
L 573.728529 385.478125 
L 570.548347 385.478125 
z
" clip-path="url(#pc3202328bd)" style="fill: #1f77b4; fill-opacity: 0.5; stroke: #000000; stroke-width: 0.276694; stroke-linejoin: miter"/>
   </g>
   <g id="patch_153">
    <path d="M 573.728529 385.478125 
L 576.908711 385.478125 
L 576.908711 385.478125 
L 573.728529 385.478125 
z
" clip-path="url(#pc3202328bd)" style="fill: #1f77b4; fill-opacity: 0.5; stroke: #000000; stroke-width: 0.276694; stroke-linejoin: miter"/>
   </g>
   <g id="patch_154">
    <path d="M 576.908711 385.478125 
L 580.088893 385.478125 
L 580.088893 385.167373 
L 576.908711 385.167373 
z
" clip-path="url(#pc3202328bd)" style="fill: #1f77b4; fill-opacity: 0.5; stroke: #000000; stroke-width: 0.276694; stroke-linejoin: miter"/>
   </g>
   <g id="patch_155">
    <path d="M 580.088893 385.478125 
L 583.269075 385.478125 
L 583.269075 385.478125 
L 580.088893 385.478125 
z
" clip-path="url(#pc3202328bd)" style="fill: #1f77b4; fill-opacity: 0.5; stroke: #000000; stroke-width: 0.276694; stroke-linejoin: miter"/>
   </g>
   <g id="patch_156">
    <path d="M 583.269075 385.478125 
L 586.449257 385.478125 
L 586.449257 385.478125 
L 583.269075 385.478125 
z
" clip-path="url(#pc3202328bd)" style="fill: #1f77b4; fill-opacity: 0.5; stroke: #000000; stroke-width: 0.276694; stroke-linejoin: miter"/>
   </g>
   <g id="patch_157">
    <path d="M 586.449257 385.478125 
L 589.629438 385.478125 
L 589.629438 385.478125 
L 586.449257 385.478125 
z
" clip-path="url(#pc3202328bd)" style="fill: #1f77b4; fill-opacity: 0.5; stroke: #000000; stroke-width: 0.276694; stroke-linejoin: miter"/>
   </g>
   <g id="patch_158">
    <path d="M 589.629438 385.478125 
L 592.80962 385.478125 
L 592.80962 385.478125 
L 589.629438 385.478125 
z
" clip-path="url(#pc3202328bd)" style="fill: #1f77b4; fill-opacity: 0.5; stroke: #000000; stroke-width: 0.276694; stroke-linejoin: miter"/>
   </g>
   <g id="patch_159">
    <path d="M 592.80962 385.478125 
L 595.989802 385.478125 
L 595.989802 385.167373 
L 592.80962 385.167373 
z
" clip-path="url(#pc3202328bd)" style="fill: #1f77b4; fill-opacity: 0.5; stroke: #000000; stroke-width: 0.276694; stroke-linejoin: miter"/>
   </g>
   <g id="patch_160">
    <path d="M 595.989802 385.478125 
L 599.169984 385.478125 
L 599.169984 385.167373 
L 595.989802 385.167373 
z
" clip-path="url(#pc3202328bd)" style="fill: #1f77b4; fill-opacity: 0.5; stroke: #000000; stroke-width: 0.276694; stroke-linejoin: miter"/>
   </g>
   <g id="patch_161">
    <path d="M 599.169984 385.478125 
L 602.350166 385.478125 
L 602.350166 385.478125 
L 599.169984 385.478125 
z
" clip-path="url(#pc3202328bd)" style="fill: #1f77b4; fill-opacity: 0.5; stroke: #000000; stroke-width: 0.276694; stroke-linejoin: miter"/>
   </g>
   <g id="patch_162">
    <path d="M 602.350166 385.478125 
L 605.530348 385.478125 
L 605.530348 385.478125 
L 602.350166 385.478125 
z
" clip-path="url(#pc3202328bd)" style="fill: #1f77b4; fill-opacity: 0.5; stroke: #000000; stroke-width: 0.276694; stroke-linejoin: miter"/>
   </g>
   <g id="patch_163">
    <path d="M 605.530348 385.478125 
L 608.71053 385.478125 
L 608.71053 385.167373 
L 605.530348 385.167373 
z
" clip-path="url(#pc3202328bd)" style="fill: #1f77b4; fill-opacity: 0.5; stroke: #000000; stroke-width: 0.276694; stroke-linejoin: miter"/>
   </g>
   <g id="patch_164">
    <path d="M 608.71053 385.478125 
L 611.890712 385.478125 
L 611.890712 385.478125 
L 608.71053 385.478125 
z
" clip-path="url(#pc3202328bd)" style="fill: #1f77b4; fill-opacity: 0.5; stroke: #000000; stroke-width: 0.276694; stroke-linejoin: miter"/>
   </g>
   <g id="patch_165">
    <path d="M 611.890712 385.478125 
L 615.070894 385.478125 
L 615.070894 385.478125 
L 611.890712 385.478125 
z
" clip-path="url(#pc3202328bd)" style="fill: #1f77b4; fill-opacity: 0.5; stroke: #000000; stroke-width: 0.276694; stroke-linejoin: miter"/>
   </g>
   <g id="patch_166">
    <path d="M 615.070894 385.478125 
L 618.251076 385.478125 
L 618.251076 385.478125 
L 615.070894 385.478125 
z
" clip-path="url(#pc3202328bd)" style="fill: #1f77b4; fill-opacity: 0.5; stroke: #000000; stroke-width: 0.276694; stroke-linejoin: miter"/>
   </g>
   <g id="patch_167">
    <path d="M 618.251076 385.478125 
L 621.431258 385.478125 
L 621.431258 385.167373 
L 618.251076 385.167373 
z
" clip-path="url(#pc3202328bd)" style="fill: #1f77b4; fill-opacity: 0.5; stroke: #000000; stroke-width: 0.276694; stroke-linejoin: miter"/>
   </g>
   <g id="patch_168">
    <path d="M 621.431258 385.478125 
L 624.61144 385.478125 
L 624.61144 385.478125 
L 621.431258 385.478125 
z
" clip-path="url(#pc3202328bd)" style="fill: #1f77b4; fill-opacity: 0.5; stroke: #000000; stroke-width: 0.276694; stroke-linejoin: miter"/>
   </g>
   <g id="patch_169">
    <path d="M 624.61144 385.478125 
L 627.791622 385.478125 
L 627.791622 385.167373 
L 624.61144 385.167373 
z
" clip-path="url(#pc3202328bd)" style="fill: #1f77b4; fill-opacity: 0.5; stroke: #000000; stroke-width: 0.276694; stroke-linejoin: miter"/>
   </g>
   <g id="patch_170">
    <path d="M 627.791622 385.478125 
L 630.971804 385.478125 
L 630.971804 385.478125 
L 627.791622 385.478125 
z
" clip-path="url(#pc3202328bd)" style="fill: #1f77b4; fill-opacity: 0.5; stroke: #000000; stroke-width: 0.276694; stroke-linejoin: miter"/>
   </g>
   <g id="patch_171">
    <path d="M 630.971804 385.478125 
L 634.151986 385.478125 
L 634.151986 385.478125 
L 630.971804 385.478125 
z
" clip-path="url(#pc3202328bd)" style="fill: #1f77b4; fill-opacity: 0.5; stroke: #000000; stroke-width: 0.276694; stroke-linejoin: miter"/>
   </g>
   <g id="patch_172">
    <path d="M 634.151986 385.478125 
L 637.332168 385.478125 
L 637.332168 385.478125 
L 634.151986 385.478125 
z
" clip-path="url(#pc3202328bd)" style="fill: #1f77b4; fill-opacity: 0.5; stroke: #000000; stroke-width: 0.276694; stroke-linejoin: miter"/>
   </g>
   <g id="patch_173">
    <path d="M 637.332168 385.478125 
L 640.51235 385.478125 
L 640.51235 385.478125 
L 637.332168 385.478125 
z
" clip-path="url(#pc3202328bd)" style="fill: #1f77b4; fill-opacity: 0.5; stroke: #000000; stroke-width: 0.276694; stroke-linejoin: miter"/>
   </g>
   <g id="patch_174">
    <path d="M 640.51235 385.478125 
L 643.692532 385.478125 
L 643.692532 385.478125 
L 640.51235 385.478125 
z
" clip-path="url(#pc3202328bd)" style="fill: #1f77b4; fill-opacity: 0.5; stroke: #000000; stroke-width: 0.276694; stroke-linejoin: miter"/>
   </g>
   <g id="patch_175">
    <path d="M 643.692532 385.478125 
L 646.872714 385.478125 
L 646.872714 385.478125 
L 643.692532 385.478125 
z
" clip-path="url(#pc3202328bd)" style="fill: #1f77b4; fill-opacity: 0.5; stroke: #000000; stroke-width: 0.276694; stroke-linejoin: miter"/>
   </g>
   <g id="patch_176">
    <path d="M 646.872714 385.478125 
L 650.052896 385.478125 
L 650.052896 385.478125 
L 646.872714 385.478125 
z
" clip-path="url(#pc3202328bd)" style="fill: #1f77b4; fill-opacity: 0.5; stroke: #000000; stroke-width: 0.276694; stroke-linejoin: miter"/>
   </g>
   <g id="patch_177">
    <path d="M 650.052896 385.478125 
L 653.233078 385.478125 
L 653.233078 385.478125 
L 650.052896 385.478125 
z
" clip-path="url(#pc3202328bd)" style="fill: #1f77b4; fill-opacity: 0.5; stroke: #000000; stroke-width: 0.276694; stroke-linejoin: miter"/>
   </g>
   <g id="patch_178">
    <path d="M 653.233078 385.478125 
L 656.41326 385.478125 
L 656.41326 385.478125 
L 653.233078 385.478125 
z
" clip-path="url(#pc3202328bd)" style="fill: #1f77b4; fill-opacity: 0.5; stroke: #000000; stroke-width: 0.276694; stroke-linejoin: miter"/>
   </g>
   <g id="patch_179">
    <path d="M 656.41326 385.478125 
L 659.593442 385.478125 
L 659.593442 385.478125 
L 656.41326 385.478125 
z
" clip-path="url(#pc3202328bd)" style="fill: #1f77b4; fill-opacity: 0.5; stroke: #000000; stroke-width: 0.276694; stroke-linejoin: miter"/>
   </g>
   <g id="patch_180">
    <path d="M 659.593442 385.478125 
L 662.773624 385.478125 
L 662.773624 385.167373 
L 659.593442 385.167373 
z
" clip-path="url(#pc3202328bd)" style="fill: #1f77b4; fill-opacity: 0.5; stroke: #000000; stroke-width: 0.276694; stroke-linejoin: miter"/>
   </g>
   <g id="patch_181">
    <path d="M 662.773624 385.478125 
L 665.953806 385.478125 
L 665.953806 385.167373 
L 662.773624 385.167373 
z
" clip-path="url(#pc3202328bd)" style="fill: #1f77b4; fill-opacity: 0.5; stroke: #000000; stroke-width: 0.276694; stroke-linejoin: miter"/>
   </g>
   <g id="patch_182">
    <path d="M 665.953806 385.478125 
L 669.133988 385.478125 
L 669.133988 385.478125 
L 665.953806 385.478125 
z
" clip-path="url(#pc3202328bd)" style="fill: #1f77b4; fill-opacity: 0.5; stroke: #000000; stroke-width: 0.276694; stroke-linejoin: miter"/>
   </g>
   <g id="patch_183">
    <path d="M 669.133988 385.478125 
L 672.31417 385.478125 
L 672.31417 385.478125 
L 669.133988 385.478125 
z
" clip-path="url(#pc3202328bd)" style="fill: #1f77b4; fill-opacity: 0.5; stroke: #000000; stroke-width: 0.276694; stroke-linejoin: miter"/>
   </g>
   <g id="patch_184">
    <path d="M 672.31417 385.478125 
L 675.494352 385.478125 
L 675.494352 385.478125 
L 672.31417 385.478125 
z
" clip-path="url(#pc3202328bd)" style="fill: #1f77b4; fill-opacity: 0.5; stroke: #000000; stroke-width: 0.276694; stroke-linejoin: miter"/>
   </g>
   <g id="patch_185">
    <path d="M 675.494352 385.478125 
L 678.674534 385.478125 
L 678.674534 385.478125 
L 675.494352 385.478125 
z
" clip-path="url(#pc3202328bd)" style="fill: #1f77b4; fill-opacity: 0.5; stroke: #000000; stroke-width: 0.276694; stroke-linejoin: miter"/>
   </g>
   <g id="patch_186">
    <path d="M 678.674534 385.478125 
L 681.854716 385.478125 
L 681.854716 385.167373 
L 678.674534 385.167373 
z
" clip-path="url(#pc3202328bd)" style="fill: #1f77b4; fill-opacity: 0.5; stroke: #000000; stroke-width: 0.276694; stroke-linejoin: miter"/>
   </g>
   <g id="patch_187">
    <path d="M 681.854716 385.478125 
L 685.034897 385.478125 
L 685.034897 385.478125 
L 681.854716 385.478125 
z
" clip-path="url(#pc3202328bd)" style="fill: #1f77b4; fill-opacity: 0.5; stroke: #000000; stroke-width: 0.276694; stroke-linejoin: miter"/>
   </g>
   <g id="patch_188">
    <path d="M 685.034897 385.478125 
L 688.215079 385.478125 
L 688.215079 385.478125 
L 685.034897 385.478125 
z
" clip-path="url(#pc3202328bd)" style="fill: #1f77b4; fill-opacity: 0.5; stroke: #000000; stroke-width: 0.276694; stroke-linejoin: miter"/>
   </g>
   <g id="patch_189">
    <path d="M 688.215079 385.478125 
L 691.395261 385.478125 
L 691.395261 385.478125 
L 688.215079 385.478125 
z
" clip-path="url(#pc3202328bd)" style="fill: #1f77b4; fill-opacity: 0.5; stroke: #000000; stroke-width: 0.276694; stroke-linejoin: miter"/>
   </g>
   <g id="patch_190">
    <path d="M 691.395261 385.478125 
L 694.575443 385.478125 
L 694.575443 385.478125 
L 691.395261 385.478125 
z
" clip-path="url(#pc3202328bd)" style="fill: #1f77b4; fill-opacity: 0.5; stroke: #000000; stroke-width: 0.276694; stroke-linejoin: miter"/>
   </g>
   <g id="patch_191">
    <path d="M 694.575443 385.478125 
L 697.755625 385.478125 
L 697.755625 385.167373 
L 694.575443 385.167373 
z
" clip-path="url(#pc3202328bd)" style="fill: #1f77b4; fill-opacity: 0.5; stroke: #000000; stroke-width: 0.276694; stroke-linejoin: miter"/>
   </g>
   <g id="patch_192">
    <path d="M 697.755625 385.478125 
L 700.935807 385.478125 
L 700.935807 385.478125 
L 697.755625 385.478125 
z
" clip-path="url(#pc3202328bd)" style="fill: #1f77b4; fill-opacity: 0.5; stroke: #000000; stroke-width: 0.276694; stroke-linejoin: miter"/>
   </g>
   <g id="patch_193">
    <path d="M 700.935807 385.478125 
L 704.115989 385.478125 
L 704.115989 385.167373 
L 700.935807 385.167373 
z
" clip-path="url(#pc3202328bd)" style="fill: #1f77b4; fill-opacity: 0.5; stroke: #000000; stroke-width: 0.276694; stroke-linejoin: miter"/>
   </g>
   <g id="patch_194">
    <path d="M 704.115989 385.478125 
L 707.296171 385.478125 
L 707.296171 385.478125 
L 704.115989 385.478125 
z
" clip-path="url(#pc3202328bd)" style="fill: #1f77b4; fill-opacity: 0.5; stroke: #000000; stroke-width: 0.276694; stroke-linejoin: miter"/>
   </g>
   <g id="patch_195">
    <path d="M 707.296171 385.478125 
L 710.476353 385.478125 
L 710.476353 385.478125 
L 707.296171 385.478125 
z
" clip-path="url(#pc3202328bd)" style="fill: #1f77b4; fill-opacity: 0.5; stroke: #000000; stroke-width: 0.276694; stroke-linejoin: miter"/>
   </g>
   <g id="patch_196">
    <path d="M 710.476353 385.478125 
L 713.656535 385.478125 
L 713.656535 385.478125 
L 710.476353 385.478125 
z
" clip-path="url(#pc3202328bd)" style="fill: #1f77b4; fill-opacity: 0.5; stroke: #000000; stroke-width: 0.276694; stroke-linejoin: miter"/>
   </g>
   <g id="patch_197">
    <path d="M 713.656535 385.478125 
L 716.836717 385.478125 
L 716.836717 385.478125 
L 713.656535 385.478125 
z
" clip-path="url(#pc3202328bd)" style="fill: #1f77b4; fill-opacity: 0.5; stroke: #000000; stroke-width: 0.276694; stroke-linejoin: miter"/>
   </g>
   <g id="patch_198">
    <path d="M 716.836717 385.478125 
L 720.016899 385.478125 
L 720.016899 385.478125 
L 716.836717 385.478125 
z
" clip-path="url(#pc3202328bd)" style="fill: #1f77b4; fill-opacity: 0.5; stroke: #000000; stroke-width: 0.276694; stroke-linejoin: miter"/>
   </g>
   <g id="patch_199">
    <path d="M 720.016899 385.478125 
L 723.197081 385.478125 
L 723.197081 385.478125 
L 720.016899 385.478125 
z
" clip-path="url(#pc3202328bd)" style="fill: #1f77b4; fill-opacity: 0.5; stroke: #000000; stroke-width: 0.276694; stroke-linejoin: miter"/>
   </g>
   <g id="patch_200">
    <path d="M 723.197081 385.478125 
L 726.377263 385.478125 
L 726.377263 385.478125 
L 723.197081 385.478125 
z
" clip-path="url(#pc3202328bd)" style="fill: #1f77b4; fill-opacity: 0.5; stroke: #000000; stroke-width: 0.276694; stroke-linejoin: miter"/>
   </g>
   <g id="patch_201">
    <path d="M 726.377263 385.478125 
L 729.557445 385.478125 
L 729.557445 385.478125 
L 726.377263 385.478125 
z
" clip-path="url(#pc3202328bd)" style="fill: #1f77b4; fill-opacity: 0.5; stroke: #000000; stroke-width: 0.276694; stroke-linejoin: miter"/>
   </g>
   <g id="patch_202">
    <path d="M 729.557445 385.478125 
L 732.737627 385.478125 
L 732.737627 385.478125 
L 729.557445 385.478125 
z
" clip-path="url(#pc3202328bd)" style="fill: #1f77b4; fill-opacity: 0.5; stroke: #000000; stroke-width: 0.276694; stroke-linejoin: miter"/>
   </g>
   <g id="patch_203">
    <path d="M 732.737627 385.478125 
L 735.917809 385.478125 
L 735.917809 385.478125 
L 732.737627 385.478125 
z
" clip-path="url(#pc3202328bd)" style="fill: #1f77b4; fill-opacity: 0.5; stroke: #000000; stroke-width: 0.276694; stroke-linejoin: miter"/>
   </g>
   <g id="patch_204">
    <path d="M 735.917809 385.478125 
L 739.097991 385.478125 
L 739.097991 385.478125 
L 735.917809 385.478125 
z
" clip-path="url(#pc3202328bd)" style="fill: #1f77b4; fill-opacity: 0.5; stroke: #000000; stroke-width: 0.276694; stroke-linejoin: miter"/>
   </g>
   <g id="patch_205">
    <path d="M 739.097991 385.478125 
L 742.278173 385.478125 
L 742.278173 385.478125 
L 739.097991 385.478125 
z
" clip-path="url(#pc3202328bd)" style="fill: #1f77b4; fill-opacity: 0.5; stroke: #000000; stroke-width: 0.276694; stroke-linejoin: miter"/>
   </g>
   <g id="patch_206">
    <path d="M 742.278173 385.478125 
L 745.458355 385.478125 
L 745.458355 385.478125 
L 742.278173 385.478125 
z
" clip-path="url(#pc3202328bd)" style="fill: #1f77b4; fill-opacity: 0.5; stroke: #000000; stroke-width: 0.276694; stroke-linejoin: miter"/>
   </g>
   <g id="patch_207">
    <path d="M 745.458355 385.478125 
L 748.638537 385.478125 
L 748.638537 385.478125 
L 745.458355 385.478125 
z
" clip-path="url(#pc3202328bd)" style="fill: #1f77b4; fill-opacity: 0.5; stroke: #000000; stroke-width: 0.276694; stroke-linejoin: miter"/>
   </g>
   <g id="patch_208">
    <path d="M 748.638537 385.478125 
L 751.818719 385.478125 
L 751.818719 385.478125 
L 748.638537 385.478125 
z
" clip-path="url(#pc3202328bd)" style="fill: #1f77b4; fill-opacity: 0.5; stroke: #000000; stroke-width: 0.276694; stroke-linejoin: miter"/>
   </g>
   <g id="patch_209">
    <path d="M 751.818719 385.478125 
L 754.998901 385.478125 
L 754.998901 385.478125 
L 751.818719 385.478125 
z
" clip-path="url(#pc3202328bd)" style="fill: #1f77b4; fill-opacity: 0.5; stroke: #000000; stroke-width: 0.276694; stroke-linejoin: miter"/>
   </g>
   <g id="patch_210">
    <path d="M 754.998901 385.478125 
L 758.179083 385.478125 
L 758.179083 385.478125 
L 754.998901 385.478125 
z
" clip-path="url(#pc3202328bd)" style="fill: #1f77b4; fill-opacity: 0.5; stroke: #000000; stroke-width: 0.276694; stroke-linejoin: miter"/>
   </g>
   <g id="patch_211">
    <path d="M 758.179083 385.478125 
L 761.359265 385.478125 
L 761.359265 385.478125 
L 758.179083 385.478125 
z
" clip-path="url(#pc3202328bd)" style="fill: #1f77b4; fill-opacity: 0.5; stroke: #000000; stroke-width: 0.276694; stroke-linejoin: miter"/>
   </g>
   <g id="patch_212">
    <path d="M 761.359265 385.478125 
L 764.539447 385.478125 
L 764.539447 385.478125 
L 761.359265 385.478125 
z
" clip-path="url(#pc3202328bd)" style="fill: #1f77b4; fill-opacity: 0.5; stroke: #000000; stroke-width: 0.276694; stroke-linejoin: miter"/>
   </g>
   <g id="patch_213">
    <path d="M 764.539447 385.478125 
L 767.719629 385.478125 
L 767.719629 385.478125 
L 764.539447 385.478125 
z
" clip-path="url(#pc3202328bd)" style="fill: #1f77b4; fill-opacity: 0.5; stroke: #000000; stroke-width: 0.276694; stroke-linejoin: miter"/>
   </g>
   <g id="patch_214">
    <path d="M 767.719629 385.478125 
L 770.899811 385.478125 
L 770.899811 385.478125 
L 767.719629 385.478125 
z
" clip-path="url(#pc3202328bd)" style="fill: #1f77b4; fill-opacity: 0.5; stroke: #000000; stroke-width: 0.276694; stroke-linejoin: miter"/>
   </g>
   <g id="patch_215">
    <path d="M 770.899811 385.478125 
L 774.079993 385.478125 
L 774.079993 385.478125 
L 770.899811 385.478125 
z
" clip-path="url(#pc3202328bd)" style="fill: #1f77b4; fill-opacity: 0.5; stroke: #000000; stroke-width: 0.276694; stroke-linejoin: miter"/>
   </g>
   <g id="patch_216">
    <path d="M 774.079993 385.478125 
L 777.260175 385.478125 
L 777.260175 385.478125 
L 774.079993 385.478125 
z
" clip-path="url(#pc3202328bd)" style="fill: #1f77b4; fill-opacity: 0.5; stroke: #000000; stroke-width: 0.276694; stroke-linejoin: miter"/>
   </g>
   <g id="patch_217">
    <path d="M 777.260175 385.478125 
L 780.440356 385.478125 
L 780.440356 385.478125 
L 777.260175 385.478125 
z
" clip-path="url(#pc3202328bd)" style="fill: #1f77b4; fill-opacity: 0.5; stroke: #000000; stroke-width: 0.276694; stroke-linejoin: miter"/>
   </g>
   <g id="patch_218">
    <path d="M 780.440356 385.478125 
L 783.620538 385.478125 
L 783.620538 385.478125 
L 780.440356 385.478125 
z
" clip-path="url(#pc3202328bd)" style="fill: #1f77b4; fill-opacity: 0.5; stroke: #000000; stroke-width: 0.276694; stroke-linejoin: miter"/>
   </g>
   <g id="patch_219">
    <path d="M 783.620538 385.478125 
L 786.80072 385.478125 
L 786.80072 385.478125 
L 783.620538 385.478125 
z
" clip-path="url(#pc3202328bd)" style="fill: #1f77b4; fill-opacity: 0.5; stroke: #000000; stroke-width: 0.276694; stroke-linejoin: miter"/>
   </g>
   <g id="patch_220">
    <path d="M 786.80072 385.478125 
L 789.980902 385.478125 
L 789.980902 385.478125 
L 786.80072 385.478125 
z
" clip-path="url(#pc3202328bd)" style="fill: #1f77b4; fill-opacity: 0.5; stroke: #000000; stroke-width: 0.276694; stroke-linejoin: miter"/>
   </g>
   <g id="patch_221">
    <path d="M 789.980902 385.478125 
L 793.161084 385.478125 
L 793.161084 385.478125 
L 789.980902 385.478125 
z
" clip-path="url(#pc3202328bd)" style="fill: #1f77b4; fill-opacity: 0.5; stroke: #000000; stroke-width: 0.276694; stroke-linejoin: miter"/>
   </g>
   <g id="patch_222">
    <path d="M 793.161084 385.478125 
L 796.341266 385.478125 
L 796.341266 385.167373 
L 793.161084 385.167373 
z
" clip-path="url(#pc3202328bd)" style="fill: #1f77b4; fill-opacity: 0.5; stroke: #000000; stroke-width: 0.276694; stroke-linejoin: miter"/>
   </g>
   <g id="matplotlib.axis_1">
    <g id="xtick_1">
     <g id="line2d_1">
      <defs>
       <path id="m5e961612ae" d="M 0 0 
L 0 3.5 
" style="stroke: #000000; stroke-width: 0.8"/>
      </defs>
      <g>
       <use xlink:href="#m5e961612ae" x="96.701234" y="385.478125" style="stroke: #000000; stroke-width: 0.8"/>
      </g>
     </g>
     <g id="text_1">
      <!-- 0 -->
      <g transform="translate(93.519984 400.076562) scale(0.1 -0.1)">
       <defs>
        <path id="DejaVuSans-30" d="M 2034 4250 
Q 1547 4250 1301 3770 
Q 1056 3291 1056 2328 
Q 1056 1369 1301 889 
Q 1547 409 2034 409 
Q 2525 409 2770 889 
Q 3016 1369 3016 2328 
Q 3016 3291 2770 3770 
Q 2525 4250 2034 4250 
z
M 2034 4750 
Q 2819 4750 3233 4129 
Q 3647 3509 3647 2328 
Q 3647 1150 3233 529 
Q 2819 -91 2034 -91 
Q 1250 -91 836 529 
Q 422 1150 422 2328 
Q 422 3509 836 4129 
Q 1250 4750 2034 4750 
z
" transform="scale(0.015625)"/>
       </defs>
       <use xlink:href="#DejaVuSans-30"/>
      </g>
     </g>
    </g>
    <g id="xtick_2">
     <g id="line2d_2">
      <g>
       <use xlink:href="#m5e961612ae" x="186.977367" y="385.478125" style="stroke: #000000; stroke-width: 0.8"/>
      </g>
     </g>
     <g id="text_2">
      <!-- 2 -->
      <g transform="translate(183.796117 400.076562) scale(0.1 -0.1)">
       <defs>
        <path id="DejaVuSans-32" d="M 1228 531 
L 3431 531 
L 3431 0 
L 469 0 
L 469 531 
Q 828 903 1448 1529 
Q 2069 2156 2228 2338 
Q 2531 2678 2651 2914 
Q 2772 3150 2772 3378 
Q 2772 3750 2511 3984 
Q 2250 4219 1831 4219 
Q 1534 4219 1204 4116 
Q 875 4013 500 3803 
L 500 4441 
Q 881 4594 1212 4672 
Q 1544 4750 1819 4750 
Q 2544 4750 2975 4387 
Q 3406 4025 3406 3419 
Q 3406 3131 3298 2873 
Q 3191 2616 2906 2266 
Q 2828 2175 2409 1742 
Q 1991 1309 1228 531 
z
" transform="scale(0.015625)"/>
       </defs>
       <use xlink:href="#DejaVuSans-32"/>
      </g>
     </g>
    </g>
    <g id="xtick_3">
     <g id="line2d_3">
      <g>
       <use xlink:href="#m5e961612ae" x="277.2535" y="385.478125" style="stroke: #000000; stroke-width: 0.8"/>
      </g>
     </g>
     <g id="text_3">
      <!-- 4 -->
      <g transform="translate(274.07225 400.076562) scale(0.1 -0.1)">
       <defs>
        <path id="DejaVuSans-34" d="M 2419 4116 
L 825 1625 
L 2419 1625 
L 2419 4116 
z
M 2253 4666 
L 3047 4666 
L 3047 1625 
L 3713 1625 
L 3713 1100 
L 3047 1100 
L 3047 0 
L 2419 0 
L 2419 1100 
L 313 1100 
L 313 1709 
L 2253 4666 
z
" transform="scale(0.015625)"/>
       </defs>
       <use xlink:href="#DejaVuSans-34"/>
      </g>
     </g>
    </g>
    <g id="xtick_4">
     <g id="line2d_4">
      <g>
       <use xlink:href="#m5e961612ae" x="367.529633" y="385.478125" style="stroke: #000000; stroke-width: 0.8"/>
      </g>
     </g>
     <g id="text_4">
      <!-- 6 -->
      <g transform="translate(364.348383 400.076562) scale(0.1 -0.1)">
       <defs>
        <path id="DejaVuSans-36" d="M 2113 2584 
Q 1688 2584 1439 2293 
Q 1191 2003 1191 1497 
Q 1191 994 1439 701 
Q 1688 409 2113 409 
Q 2538 409 2786 701 
Q 3034 994 3034 1497 
Q 3034 2003 2786 2293 
Q 2538 2584 2113 2584 
z
M 3366 4563 
L 3366 3988 
Q 3128 4100 2886 4159 
Q 2644 4219 2406 4219 
Q 1781 4219 1451 3797 
Q 1122 3375 1075 2522 
Q 1259 2794 1537 2939 
Q 1816 3084 2150 3084 
Q 2853 3084 3261 2657 
Q 3669 2231 3669 1497 
Q 3669 778 3244 343 
Q 2819 -91 2113 -91 
Q 1303 -91 875 529 
Q 447 1150 447 2328 
Q 447 3434 972 4092 
Q 1497 4750 2381 4750 
Q 2619 4750 2861 4703 
Q 3103 4656 3366 4563 
z
" transform="scale(0.015625)"/>
       </defs>
       <use xlink:href="#DejaVuSans-36"/>
      </g>
     </g>
    </g>
    <g id="xtick_5">
     <g id="line2d_5">
      <g>
       <use xlink:href="#m5e961612ae" x="457.805767" y="385.478125" style="stroke: #000000; stroke-width: 0.8"/>
      </g>
     </g>
     <g id="text_5">
      <!-- 8 -->
      <g transform="translate(454.624517 400.076562) scale(0.1 -0.1)">
       <defs>
        <path id="DejaVuSans-38" d="M 2034 2216 
Q 1584 2216 1326 1975 
Q 1069 1734 1069 1313 
Q 1069 891 1326 650 
Q 1584 409 2034 409 
Q 2484 409 2743 651 
Q 3003 894 3003 1313 
Q 3003 1734 2745 1975 
Q 2488 2216 2034 2216 
z
M 1403 2484 
Q 997 2584 770 2862 
Q 544 3141 544 3541 
Q 544 4100 942 4425 
Q 1341 4750 2034 4750 
Q 2731 4750 3128 4425 
Q 3525 4100 3525 3541 
Q 3525 3141 3298 2862 
Q 3072 2584 2669 2484 
Q 3125 2378 3379 2068 
Q 3634 1759 3634 1313 
Q 3634 634 3220 271 
Q 2806 -91 2034 -91 
Q 1263 -91 848 271 
Q 434 634 434 1313 
Q 434 1759 690 2068 
Q 947 2378 1403 2484 
z
M 1172 3481 
Q 1172 3119 1398 2916 
Q 1625 2713 2034 2713 
Q 2441 2713 2670 2916 
Q 2900 3119 2900 3481 
Q 2900 3844 2670 4047 
Q 2441 4250 2034 4250 
Q 1625 4250 1398 4047 
Q 1172 3844 1172 3481 
z
" transform="scale(0.015625)"/>
       </defs>
       <use xlink:href="#DejaVuSans-38"/>
      </g>
     </g>
    </g>
    <g id="xtick_6">
     <g id="line2d_6">
      <g>
       <use xlink:href="#m5e961612ae" x="548.0819" y="385.478125" style="stroke: #000000; stroke-width: 0.8"/>
      </g>
     </g>
     <g id="text_6">
      <!-- 10 -->
      <g transform="translate(541.7194 400.076562) scale(0.1 -0.1)">
       <defs>
        <path id="DejaVuSans-31" d="M 794 531 
L 1825 531 
L 1825 4091 
L 703 3866 
L 703 4441 
L 1819 4666 
L 2450 4666 
L 2450 531 
L 3481 531 
L 3481 0 
L 794 0 
L 794 531 
z
" transform="scale(0.015625)"/>
       </defs>
       <use xlink:href="#DejaVuSans-31"/>
       <use xlink:href="#DejaVuSans-30" x="63.623047"/>
      </g>
     </g>
    </g>
    <g id="xtick_7">
     <g id="line2d_7">
      <g>
       <use xlink:href="#m5e961612ae" x="638.358033" y="385.478125" style="stroke: #000000; stroke-width: 0.8"/>
      </g>
     </g>
     <g id="text_7">
      <!-- 12 -->
      <g transform="translate(631.995533 400.076562) scale(0.1 -0.1)">
       <use xlink:href="#DejaVuSans-31"/>
       <use xlink:href="#DejaVuSans-32" x="63.623047"/>
      </g>
     </g>
    </g>
    <g id="xtick_8">
     <g id="line2d_8">
      <g>
       <use xlink:href="#m5e961612ae" x="728.634166" y="385.478125" style="stroke: #000000; stroke-width: 0.8"/>
      </g>
     </g>
     <g id="text_8">
      <!-- 14 -->
      <g transform="translate(722.271666 400.076562) scale(0.1 -0.1)">
       <use xlink:href="#DejaVuSans-31"/>
       <use xlink:href="#DejaVuSans-34" x="63.623047"/>
      </g>
     </g>
    </g>
    <g id="xtick_9">
     <g id="line2d_9">
      <g>
       <use xlink:href="#m5e961612ae" x="818.9103" y="385.478125" style="stroke: #000000; stroke-width: 0.8"/>
      </g>
     </g>
     <g id="text_9">
      <!-- 16 -->
      <g transform="translate(812.5478 400.076562) scale(0.1 -0.1)">
       <use xlink:href="#DejaVuSans-31"/>
       <use xlink:href="#DejaVuSans-36" x="63.623047"/>
      </g>
     </g>
    </g>
    <g id="text_10">
     <!-- P -->
     <g transform="translate(443.506406 413.754687) scale(0.1 -0.1)">
      <defs>
       <path id="DejaVuSans-50" d="M 1259 4147 
L 1259 2394 
L 2053 2394 
Q 2494 2394 2734 2622 
Q 2975 2850 2975 3272 
Q 2975 3691 2734 3919 
Q 2494 4147 2053 4147 
L 1259 4147 
z
M 628 4666 
L 2053 4666 
Q 2838 4666 3239 4311 
Q 3641 3956 3641 3272 
Q 3641 2581 3239 2228 
Q 2838 1875 2053 1875 
L 1259 1875 
L 1259 0 
L 628 0 
L 628 4666 
z
" transform="scale(0.015625)"/>
      </defs>
      <use xlink:href="#DejaVuSans-50"/>
     </g>
    </g>
   </g>
   <g id="matplotlib.axis_2">
    <g id="ytick_1">
     <g id="line2d_10">
      <defs>
       <path id="m6c6dbcb8ac" d="M 0 0 
L -3.5 0 
" style="stroke: #000000; stroke-width: 0.8"/>
      </defs>
      <g>
       <use xlink:href="#m6c6dbcb8ac" x="43.78125" y="385.478125" style="stroke: #000000; stroke-width: 0.8"/>
      </g>
     </g>
     <g id="text_11">
      <!-- 0.0 -->
      <g transform="translate(20.878125 389.277344) scale(0.1 -0.1)">
       <defs>
        <path id="DejaVuSans-2e" d="M 684 794 
L 1344 794 
L 1344 0 
L 684 0 
L 684 794 
z
" transform="scale(0.015625)"/>
       </defs>
       <use xlink:href="#DejaVuSans-30"/>
       <use xlink:href="#DejaVuSans-2e" x="63.623047"/>
       <use xlink:href="#DejaVuSans-30" x="95.410156"/>
      </g>
     </g>
    </g>
    <g id="ytick_2">
     <g id="line2d_11">
      <g>
       <use xlink:href="#m6c6dbcb8ac" x="43.78125" y="312.707275" style="stroke: #000000; stroke-width: 0.8"/>
      </g>
     </g>
     <g id="text_12">
      <!-- 0.2 -->
      <g transform="translate(20.878125 316.506494) scale(0.1 -0.1)">
       <use xlink:href="#DejaVuSans-30"/>
       <use xlink:href="#DejaVuSans-2e" x="63.623047"/>
       <use xlink:href="#DejaVuSans-32" x="95.410156"/>
      </g>
     </g>
    </g>
    <g id="ytick_3">
     <g id="line2d_12">
      <g>
       <use xlink:href="#m6c6dbcb8ac" x="43.78125" y="239.936426" style="stroke: #000000; stroke-width: 0.8"/>
      </g>
     </g>
     <g id="text_13">
      <!-- 0.4 -->
      <g transform="translate(20.878125 243.735645) scale(0.1 -0.1)">
       <use xlink:href="#DejaVuSans-30"/>
       <use xlink:href="#DejaVuSans-2e" x="63.623047"/>
       <use xlink:href="#DejaVuSans-34" x="95.410156"/>
      </g>
     </g>
    </g>
    <g id="ytick_4">
     <g id="line2d_13">
      <g>
       <use xlink:href="#m6c6dbcb8ac" x="43.78125" y="167.165576" style="stroke: #000000; stroke-width: 0.8"/>
      </g>
     </g>
     <g id="text_14">
      <!-- 0.6 -->
      <g transform="translate(20.878125 170.964795) scale(0.1 -0.1)">
       <use xlink:href="#DejaVuSans-30"/>
       <use xlink:href="#DejaVuSans-2e" x="63.623047"/>
       <use xlink:href="#DejaVuSans-36" x="95.410156"/>
      </g>
     </g>
    </g>
    <g id="ytick_5">
     <g id="line2d_14">
      <g>
       <use xlink:href="#m6c6dbcb8ac" x="43.78125" y="94.394727" style="stroke: #000000; stroke-width: 0.8"/>
      </g>
     </g>
     <g id="text_15">
      <!-- 0.8 -->
      <g transform="translate(20.878125 98.193946) scale(0.1 -0.1)">
       <use xlink:href="#DejaVuSans-30"/>
       <use xlink:href="#DejaVuSans-2e" x="63.623047"/>
       <use xlink:href="#DejaVuSans-38" x="95.410156"/>
      </g>
     </g>
    </g>
    <g id="text_16">
     <!-- Density -->
     <g transform="translate(14.798438 222.906719) rotate(-90) scale(0.1 -0.1)">
      <defs>
       <path id="DejaVuSans-44" d="M 1259 4147 
L 1259 519 
L 2022 519 
Q 2988 519 3436 956 
Q 3884 1394 3884 2338 
Q 3884 3275 3436 3711 
Q 2988 4147 2022 4147 
L 1259 4147 
z
M 628 4666 
L 1925 4666 
Q 3281 4666 3915 4102 
Q 4550 3538 4550 2338 
Q 4550 1131 3912 565 
Q 3275 0 1925 0 
L 628 0 
L 628 4666 
z
" transform="scale(0.015625)"/>
       <path id="DejaVuSans-65" d="M 3597 1894 
L 3597 1613 
L 953 1613 
Q 991 1019 1311 708 
Q 1631 397 2203 397 
Q 2534 397 2845 478 
Q 3156 559 3463 722 
L 3463 178 
Q 3153 47 2828 -22 
Q 2503 -91 2169 -91 
Q 1331 -91 842 396 
Q 353 884 353 1716 
Q 353 2575 817 3079 
Q 1281 3584 2069 3584 
Q 2775 3584 3186 3129 
Q 3597 2675 3597 1894 
z
M 3022 2063 
Q 3016 2534 2758 2815 
Q 2500 3097 2075 3097 
Q 1594 3097 1305 2825 
Q 1016 2553 972 2059 
L 3022 2063 
z
" transform="scale(0.015625)"/>
       <path id="DejaVuSans-6e" d="M 3513 2113 
L 3513 0 
L 2938 0 
L 2938 2094 
Q 2938 2591 2744 2837 
Q 2550 3084 2163 3084 
Q 1697 3084 1428 2787 
Q 1159 2491 1159 1978 
L 1159 0 
L 581 0 
L 581 3500 
L 1159 3500 
L 1159 2956 
Q 1366 3272 1645 3428 
Q 1925 3584 2291 3584 
Q 2894 3584 3203 3211 
Q 3513 2838 3513 2113 
z
" transform="scale(0.015625)"/>
       <path id="DejaVuSans-73" d="M 2834 3397 
L 2834 2853 
Q 2591 2978 2328 3040 
Q 2066 3103 1784 3103 
Q 1356 3103 1142 2972 
Q 928 2841 928 2578 
Q 928 2378 1081 2264 
Q 1234 2150 1697 2047 
L 1894 2003 
Q 2506 1872 2764 1633 
Q 3022 1394 3022 966 
Q 3022 478 2636 193 
Q 2250 -91 1575 -91 
Q 1294 -91 989 -36 
Q 684 19 347 128 
L 347 722 
Q 666 556 975 473 
Q 1284 391 1588 391 
Q 1994 391 2212 530 
Q 2431 669 2431 922 
Q 2431 1156 2273 1281 
Q 2116 1406 1581 1522 
L 1381 1569 
Q 847 1681 609 1914 
Q 372 2147 372 2553 
Q 372 3047 722 3315 
Q 1072 3584 1716 3584 
Q 2034 3584 2315 3537 
Q 2597 3491 2834 3397 
z
" transform="scale(0.015625)"/>
       <path id="DejaVuSans-69" d="M 603 3500 
L 1178 3500 
L 1178 0 
L 603 0 
L 603 3500 
z
M 603 4863 
L 1178 4863 
L 1178 4134 
L 603 4134 
L 603 4863 
z
" transform="scale(0.015625)"/>
       <path id="DejaVuSans-74" d="M 1172 4494 
L 1172 3500 
L 2356 3500 
L 2356 3053 
L 1172 3053 
L 1172 1153 
Q 1172 725 1289 603 
Q 1406 481 1766 481 
L 2356 481 
L 2356 0 
L 1766 0 
Q 1100 0 847 248 
Q 594 497 594 1153 
L 594 3053 
L 172 3053 
L 172 3500 
L 594 3500 
L 594 4494 
L 1172 4494 
z
" transform="scale(0.015625)"/>
       <path id="DejaVuSans-79" d="M 2059 -325 
Q 1816 -950 1584 -1140 
Q 1353 -1331 966 -1331 
L 506 -1331 
L 506 -850 
L 844 -850 
Q 1081 -850 1212 -737 
Q 1344 -625 1503 -206 
L 1606 56 
L 191 3500 
L 800 3500 
L 1894 763 
L 2988 3500 
L 3597 3500 
L 2059 -325 
z
" transform="scale(0.015625)"/>
      </defs>
      <use xlink:href="#DejaVuSans-44"/>
      <use xlink:href="#DejaVuSans-65" x="77.001953"/>
      <use xlink:href="#DejaVuSans-6e" x="138.525391"/>
      <use xlink:href="#DejaVuSans-73" x="201.904297"/>
      <use xlink:href="#DejaVuSans-69" x="254.003906"/>
      <use xlink:href="#DejaVuSans-74" x="281.787109"/>
      <use xlink:href="#DejaVuSans-79" x="320.996094"/>
     </g>
    </g>
   </g>
   <g id="line2d_15">
    <path d="M 96.701234 385.387319 
L 135.374803 385.151964 
L 149.43792 384.452297 
L 156.469478 383.991697 
L 159.985257 383.660529 
L 163.501036 383.108145 
L 167.016815 382.308322 
L 174.048373 380.445308 
L 177.564152 379.381276 
L 181.079931 378.075315 
L 184.59571 376.478792 
L 188.111489 374.465122 
L 191.627268 371.77853 
L 195.143047 368.210243 
L 198.658826 363.571944 
L 202.174605 357.401658 
L 205.690385 349.052894 
L 209.206164 338.227344 
L 212.721943 324.876397 
L 216.237722 308.79004 
L 219.753501 290.080973 
L 223.26928 269.559213 
L 230.300838 227.518025 
L 233.816617 208.022565 
L 237.332396 190.057731 
L 240.848175 174.053036 
L 244.363954 161.412083 
L 247.879733 153.568044 
L 251.395512 150.807932 
L 254.911291 152.139821 
L 258.42707 156.555664 
L 261.942849 164.453718 
L 265.458628 176.828603 
L 268.974408 193.211396 
L 276.005966 229.126051 
L 279.521745 245.545262 
L 286.553303 276.1481 
L 290.069082 290.822498 
L 293.584861 304.287492 
L 297.10064 316.115147 
L 300.616419 326.593007 
L 304.132198 335.872488 
L 307.647977 343.484552 
L 311.163756 349.194421 
L 314.679535 353.678838 
L 318.195314 357.768634 
L 321.711093 361.536618 
L 325.226872 364.578425 
L 328.742652 366.798759 
L 332.258431 368.559144 
L 335.77421 370.151486 
L 339.289989 371.526235 
L 349.837326 375.061994 
L 360.384663 378.654754 
L 363.900442 379.570541 
L 367.416221 380.139709 
L 381.479337 381.562462 
L 392.026675 382.951893 
L 395.542454 383.094429 
L 406.089791 382.833409 
L 409.60557 383.017158 
L 420.152907 384.092876 
L 427.184465 384.289994 
L 434.216023 384.370529 
L 444.76336 384.083001 
L 451.794919 384.335374 
L 462.342256 384.765714 
L 476.405372 384.988287 
L 483.43693 385.207075 
L 490.468488 385.310264 
L 497.500046 385.161719 
L 504.531604 385.007544 
L 543.205174 385.23848 
L 655.710104 385.417746 
L 666.257441 385.356882 
L 687.352115 385.438716 
L 708.44679 385.43767 
L 726.025685 385.478122 
L 796.341266 385.405595 
L 796.341266 385.405595 
" clip-path="url(#pc3202328bd)" style="fill: none; stroke: #1f77b4; stroke-width: 1.5; stroke-linecap: square"/>
   </g>
   <g id="line2d_16">
    <path d="M 80.393977 385.477318 
L 117.190688 385.358893 
L 135.589044 385.143565 
L 150.307728 384.400081 
L 157.66707 383.895551 
L 161.346741 383.478492 
L 165.026412 382.786078 
L 172.385754 380.898271 
L 176.065425 379.859174 
L 179.745097 378.603324 
L 183.424768 377.046959 
L 187.104439 375.098704 
L 190.78411 372.497358 
L 194.463781 368.975169 
L 198.143452 364.332412 
L 201.823123 358.107051 
L 205.502794 349.560438 
L 209.182465 338.308631 
L 212.862136 324.288747 
L 216.541807 307.268072 
L 220.221478 287.430904 
L 231.260492 222.047079 
L 234.940163 202.112467 
L 238.619834 183.91323 
L 242.299505 168.329416 
L 245.979176 157.161057 
L 249.658847 151.576037 
L 253.338518 151.125536 
L 257.018189 154.425438 
L 260.69786 161.183201 
L 264.377531 172.531844 
L 268.057202 188.65715 
L 275.416545 226.240825 
L 279.096216 243.622147 
L 286.455558 275.731039 
L 290.135229 291.089533 
L 293.8149 305.111179 
L 297.494571 317.348169 
L 301.174242 328.151704 
L 304.853913 337.590436 
L 308.533584 345.090027 
L 312.213255 350.615007 
L 315.892927 355.112642 
L 319.572598 359.304135 
L 323.252269 362.978411 
L 326.93194 365.741582 
L 330.611611 367.764604 
L 334.291282 369.498456 
L 337.970953 371.042738 
L 360.04898 378.551178 
L 363.728651 379.533941 
L 367.408322 380.138762 
L 382.127006 381.646517 
L 389.486348 382.69216 
L 393.166019 383.027227 
L 396.84569 383.083512 
L 404.205033 382.822225 
L 407.884704 382.901832 
L 411.564375 383.197128 
L 418.923717 383.999218 
L 422.603388 384.213228 
L 433.642401 384.372544 
L 448.361086 384.174122 
L 463.07977 384.779215 
L 474.118783 384.89226 
L 481.478125 385.1634 
L 492.517139 385.298664 
L 507.235823 385.026436 
L 518.274836 385.143918 
L 529.313849 385.189792 
L 540.352863 385.24837 
L 551.391876 385.277678 
L 569.790231 385.405409 
L 617.625955 385.373708 
L 628.664969 385.399438 
L 643.383653 385.477488 
L 658.102337 385.385554 
L 669.141351 385.383356 
L 691.219377 385.419555 
L 702.25839 385.360469 
L 716.977075 385.476745 
L 812.648523 385.477319 
L 812.648523 385.477319 
" clip-path="url(#pc3202328bd)" style="fill: none; stroke: #1f77b4; stroke-width: 1.5; stroke-linecap: square"/>
   </g>
   <g id="patch_223">
    <path d="M 43.78125 385.478125 
L 43.78125 22.318125 
" style="fill: none; stroke: #000000; stroke-width: 0.8; stroke-linejoin: miter; stroke-linecap: square"/>
   </g>
   <g id="patch_224">
    <path d="M 849.26125 385.478125 
L 849.26125 22.318125 
" style="fill: none; stroke: #000000; stroke-width: 0.8; stroke-linejoin: miter; stroke-linecap: square"/>
   </g>
   <g id="patch_225">
    <path d="M 43.78125 385.478125 
L 849.26125 385.478125 
" style="fill: none; stroke: #000000; stroke-width: 0.8; stroke-linejoin: miter; stroke-linecap: square"/>
   </g>
   <g id="patch_226">
    <path d="M 43.78125 22.318125 
L 849.26125 22.318125 
" style="fill: none; stroke: #000000; stroke-width: 0.8; stroke-linejoin: miter; stroke-linecap: square"/>
   </g>
   <g id="text_17">
    <!-- Distribution of P -->
    <g transform="translate(398.30375 16.318125) scale(0.12 -0.12)">
     <defs>
      <path id="DejaVuSans-72" d="M 2631 2963 
Q 2534 3019 2420 3045 
Q 2306 3072 2169 3072 
Q 1681 3072 1420 2755 
Q 1159 2438 1159 1844 
L 1159 0 
L 581 0 
L 581 3500 
L 1159 3500 
L 1159 2956 
Q 1341 3275 1631 3429 
Q 1922 3584 2338 3584 
Q 2397 3584 2469 3576 
Q 2541 3569 2628 3553 
L 2631 2963 
z
" transform="scale(0.015625)"/>
      <path id="DejaVuSans-62" d="M 3116 1747 
Q 3116 2381 2855 2742 
Q 2594 3103 2138 3103 
Q 1681 3103 1420 2742 
Q 1159 2381 1159 1747 
Q 1159 1113 1420 752 
Q 1681 391 2138 391 
Q 2594 391 2855 752 
Q 3116 1113 3116 1747 
z
M 1159 2969 
Q 1341 3281 1617 3432 
Q 1894 3584 2278 3584 
Q 2916 3584 3314 3078 
Q 3713 2572 3713 1747 
Q 3713 922 3314 415 
Q 2916 -91 2278 -91 
Q 1894 -91 1617 61 
Q 1341 213 1159 525 
L 1159 0 
L 581 0 
L 581 4863 
L 1159 4863 
L 1159 2969 
z
" transform="scale(0.015625)"/>
      <path id="DejaVuSans-75" d="M 544 1381 
L 544 3500 
L 1119 3500 
L 1119 1403 
Q 1119 906 1312 657 
Q 1506 409 1894 409 
Q 2359 409 2629 706 
Q 2900 1003 2900 1516 
L 2900 3500 
L 3475 3500 
L 3475 0 
L 2900 0 
L 2900 538 
Q 2691 219 2414 64 
Q 2138 -91 1772 -91 
Q 1169 -91 856 284 
Q 544 659 544 1381 
z
M 1991 3584 
L 1991 3584 
z
" transform="scale(0.015625)"/>
      <path id="DejaVuSans-6f" d="M 1959 3097 
Q 1497 3097 1228 2736 
Q 959 2375 959 1747 
Q 959 1119 1226 758 
Q 1494 397 1959 397 
Q 2419 397 2687 759 
Q 2956 1122 2956 1747 
Q 2956 2369 2687 2733 
Q 2419 3097 1959 3097 
z
M 1959 3584 
Q 2709 3584 3137 3096 
Q 3566 2609 3566 1747 
Q 3566 888 3137 398 
Q 2709 -91 1959 -91 
Q 1206 -91 779 398 
Q 353 888 353 1747 
Q 353 2609 779 3096 
Q 1206 3584 1959 3584 
z
" transform="scale(0.015625)"/>
      <path id="DejaVuSans-20" transform="scale(0.015625)"/>
      <path id="DejaVuSans-66" d="M 2375 4863 
L 2375 4384 
L 1825 4384 
Q 1516 4384 1395 4259 
Q 1275 4134 1275 3809 
L 1275 3500 
L 2222 3500 
L 2222 3053 
L 1275 3053 
L 1275 0 
L 697 0 
L 697 3053 
L 147 3053 
L 147 3500 
L 697 3500 
L 697 3744 
Q 697 4328 969 4595 
Q 1241 4863 1831 4863 
L 2375 4863 
z
" transform="scale(0.015625)"/>
     </defs>
     <use xlink:href="#DejaVuSans-44"/>
     <use xlink:href="#DejaVuSans-69" x="77.001953"/>
     <use xlink:href="#DejaVuSans-73" x="104.785156"/>
     <use xlink:href="#DejaVuSans-74" x="156.884766"/>
     <use xlink:href="#DejaVuSans-72" x="196.09375"/>
     <use xlink:href="#DejaVuSans-69" x="237.207031"/>
     <use xlink:href="#DejaVuSans-62" x="264.990234"/>
     <use xlink:href="#DejaVuSans-75" x="328.466797"/>
     <use xlink:href="#DejaVuSans-74" x="391.845703"/>
     <use xlink:href="#DejaVuSans-69" x="431.054688"/>
     <use xlink:href="#DejaVuSans-6f" x="458.837891"/>
     <use xlink:href="#DejaVuSans-6e" x="520.019531"/>
     <use xlink:href="#DejaVuSans-20" x="583.398438"/>
     <use xlink:href="#DejaVuSans-6f" x="615.185547"/>
     <use xlink:href="#DejaVuSans-66" x="676.367188"/>
     <use xlink:href="#DejaVuSans-20" x="711.572266"/>
     <use xlink:href="#DejaVuSans-50" x="743.359375"/>
    </g>
   </g>
  </g>
 </g>
 <defs>
  <clipPath id="pc3202328bd">
   <rect x="43.78125" y="22.318125" width="805.48" height="363.16"/>
  </clipPath>
 </defs>
</svg>
