<?xml version="1.0" encoding="utf-8" standalone="no"?>
<!DOCTYPE svg PUBLIC "-//W3C//DTD SVG 1.1//EN"
  "http://www.w3.org/Graphics/SVG/1.1/DTD/svg11.dtd">
<svg xmlns:xlink="http://www.w3.org/1999/xlink" width="856.58625pt" height="423.034375pt" viewBox="0 0 856.58625 423.034375" xmlns="http://www.w3.org/2000/svg" version="1.1">
 <metadata>
  <rdf:RDF xmlns:dc="http://purl.org/dc/elements/1.1/" xmlns:cc="http://creativecommons.org/ns#" xmlns:rdf="http://www.w3.org/1999/02/22-rdf-syntax-ns#">
   <cc:Work>
    <dc:type rdf:resource="http://purl.org/dc/dcmitype/StillImage"/>
    <dc:date>2024-07-16T17:57:50.208005</dc:date>
    <dc:format>image/svg+xml</dc:format>
    <dc:creator>
     <cc:Agent>
      <dc:title>Matplotlib v3.9.0, https://matplotlib.org/</dc:title>
     </cc:Agent>
    </dc:creator>
   </cc:Work>
  </rdf:RDF>
 </metadata>
 <defs>
  <style type="text/css">*{stroke-linejoin: round; stroke-linecap: butt}</style>
 </defs>
 <g id="figure_1">
  <g id="patch_1">
   <path d="M 0 423.034375 
L 856.58625 423.034375 
L 856.58625 0 
L 0 0 
z
" style="fill: #ffffff"/>
  </g>
  <g id="axes_1">
   <g id="patch_2">
    <path d="M 56.50625 385.478125 
L 849.38625 385.478125 
L 849.38625 22.318125 
L 56.50625 22.318125 
z
" style="fill: #ffffff"/>
   </g>
   <g id="patch_3">
    <path d="M 149.453673 385.478125 
L 164.258189 385.478125 
L 164.258189 169.576044 
L 149.453673 169.576044 
z
" clip-path="url(#p28ba4b4b32)" style="fill: #1f77b4; fill-opacity: 0.5; stroke: #000000; stroke-linejoin: miter"/>
   </g>
   <g id="patch_4">
    <path d="M 164.258189 385.478125 
L 179.062705 385.478125 
L 179.062705 248.740141 
L 164.258189 248.740141 
z
" clip-path="url(#p28ba4b4b32)" style="fill: #1f77b4; fill-opacity: 0.5; stroke: #000000; stroke-linejoin: miter"/>
   </g>
   <g id="patch_5">
    <path d="M 179.062705 385.478125 
L 193.867221 385.478125 
L 193.867221 281.760459 
L 179.062705 281.760459 
z
" clip-path="url(#p28ba4b4b32)" style="fill: #1f77b4; fill-opacity: 0.5; stroke: #000000; stroke-linejoin: miter"/>
   </g>
   <g id="patch_6">
    <path d="M 193.867221 385.478125 
L 208.671737 385.478125 
L 208.671737 276.68041 
L 193.867221 276.68041 
z
" clip-path="url(#p28ba4b4b32)" style="fill: #1f77b4; fill-opacity: 0.5; stroke: #000000; stroke-linejoin: miter"/>
   </g>
   <g id="patch_7">
    <path d="M 208.671737 385.478125 
L 223.476253 385.478125 
L 223.476253 270.330349 
L 208.671737 270.330349 
z
" clip-path="url(#p28ba4b4b32)" style="fill: #1f77b4; fill-opacity: 0.5; stroke: #000000; stroke-linejoin: miter"/>
   </g>
   <g id="patch_8">
    <path d="M 223.476253 385.478125 
L 238.280769 385.478125 
L 238.280769 259.746913 
L 223.476253 259.746913 
z
" clip-path="url(#p28ba4b4b32)" style="fill: #1f77b4; fill-opacity: 0.5; stroke: #000000; stroke-linejoin: miter"/>
   </g>
   <g id="patch_9">
    <path d="M 238.280769 385.478125 
L 253.085285 385.478125 
L 253.085285 261.440263 
L 238.280769 261.440263 
z
" clip-path="url(#p28ba4b4b32)" style="fill: #1f77b4; fill-opacity: 0.5; stroke: #000000; stroke-linejoin: miter"/>
   </g>
   <g id="patch_10">
    <path d="M 253.085285 385.478125 
L 267.8898 385.478125 
L 267.8898 244.930104 
L 253.085285 244.930104 
z
" clip-path="url(#p28ba4b4b32)" style="fill: #1f77b4; fill-opacity: 0.5; stroke: #000000; stroke-linejoin: miter"/>
   </g>
   <g id="patch_11">
    <path d="M 267.8898 385.478125 
L 282.694316 385.478125 
L 282.694316 245.776779 
L 267.8898 245.776779 
z
" clip-path="url(#p28ba4b4b32)" style="fill: #1f77b4; fill-opacity: 0.5; stroke: #000000; stroke-linejoin: miter"/>
   </g>
   <g id="patch_12">
    <path d="M 282.694316 385.478125 
L 297.498832 385.478125 
L 297.498832 237.31003 
L 282.694316 237.31003 
z
" clip-path="url(#p28ba4b4b32)" style="fill: #1f77b4; fill-opacity: 0.5; stroke: #000000; stroke-linejoin: miter"/>
   </g>
   <g id="patch_13">
    <path d="M 297.498832 385.478125 
L 312.303348 385.478125 
L 312.303348 241.120067 
L 297.498832 241.120067 
z
" clip-path="url(#p28ba4b4b32)" style="fill: #1f77b4; fill-opacity: 0.5; stroke: #000000; stroke-linejoin: miter"/>
   </g>
   <g id="patch_14">
    <path d="M 312.303348 385.478125 
L 327.107864 385.478125 
L 327.107864 218.259847 
L 312.303348 218.259847 
z
" clip-path="url(#p28ba4b4b32)" style="fill: #1f77b4; fill-opacity: 0.5; stroke: #000000; stroke-linejoin: miter"/>
   </g>
   <g id="patch_15">
    <path d="M 327.107864 385.478125 
L 341.91238 385.478125 
L 341.91238 205.983062 
L 327.107864 205.983062 
z
" clip-path="url(#p28ba4b4b32)" style="fill: #1f77b4; fill-opacity: 0.5; stroke: #000000; stroke-linejoin: miter"/>
   </g>
   <g id="patch_16">
    <path d="M 341.91238 385.478125 
L 356.716896 385.478125 
L 356.716896 280.067109 
L 341.91238 280.067109 
z
" clip-path="url(#p28ba4b4b32)" style="fill: #1f77b4; fill-opacity: 0.5; stroke: #000000; stroke-linejoin: miter"/>
   </g>
   <g id="patch_17">
    <path d="M 356.716896 385.478125 
L 371.521412 385.478125 
L 371.521412 188.626228 
L 356.716896 188.626228 
z
" clip-path="url(#p28ba4b4b32)" style="fill: #1f77b4; fill-opacity: 0.5; stroke: #000000; stroke-linejoin: miter"/>
   </g>
   <g id="patch_18">
    <path d="M 371.521412 385.478125 
L 386.325928 385.478125 
L 386.325928 174.656093 
L 371.521412 174.656093 
z
" clip-path="url(#p28ba4b4b32)" style="fill: #1f77b4; fill-opacity: 0.5; stroke: #000000; stroke-linejoin: miter"/>
   </g>
   <g id="patch_19">
    <path d="M 386.325928 385.478125 
L 401.130444 385.478125 
L 401.130444 150.102523 
L 386.325928 150.102523 
z
" clip-path="url(#p28ba4b4b32)" style="fill: #1f77b4; fill-opacity: 0.5; stroke: #000000; stroke-linejoin: miter"/>
   </g>
   <g id="patch_20">
    <path d="M 401.130444 385.478125 
L 415.93496 385.478125 
L 415.93496 129.35899 
L 401.130444 129.35899 
z
" clip-path="url(#p28ba4b4b32)" style="fill: #1f77b4; fill-opacity: 0.5; stroke: #000000; stroke-linejoin: miter"/>
   </g>
   <g id="patch_21">
    <path d="M 415.93496 385.478125 
L 430.739476 385.478125 
L 430.739476 85.331899 
L 415.93496 85.331899 
z
" clip-path="url(#p28ba4b4b32)" style="fill: #1f77b4; fill-opacity: 0.5; stroke: #000000; stroke-linejoin: miter"/>
   </g>
   <g id="patch_22">
    <path d="M 430.739476 385.478125 
L 445.543992 385.478125 
L 445.543992 89.988611 
L 430.739476 89.988611 
z
" clip-path="url(#p28ba4b4b32)" style="fill: #1f77b4; fill-opacity: 0.5; stroke: #000000; stroke-linejoin: miter"/>
   </g>
   <g id="patch_23">
    <path d="M 445.543992 385.478125 
L 460.348508 385.478125 
L 460.348508 74.325126 
L 445.543992 74.325126 
z
" clip-path="url(#p28ba4b4b32)" style="fill: #1f77b4; fill-opacity: 0.5; stroke: #000000; stroke-linejoin: miter"/>
   </g>
   <g id="patch_24">
    <path d="M 460.348508 385.478125 
L 475.153024 385.478125 
L 475.153024 55.69828 
L 460.348508 55.69828 
z
" clip-path="url(#p28ba4b4b32)" style="fill: #1f77b4; fill-opacity: 0.5; stroke: #000000; stroke-linejoin: miter"/>
   </g>
   <g id="patch_25">
    <path d="M 475.153024 385.478125 
L 489.95754 385.478125 
L 489.95754 79.405175 
L 475.153024 79.405175 
z
" clip-path="url(#p28ba4b4b32)" style="fill: #1f77b4; fill-opacity: 0.5; stroke: #000000; stroke-linejoin: miter"/>
   </g>
   <g id="patch_26">
    <path d="M 489.95754 385.478125 
L 504.762056 385.478125 
L 504.762056 86.178574 
L 489.95754 86.178574 
z
" clip-path="url(#p28ba4b4b32)" style="fill: #1f77b4; fill-opacity: 0.5; stroke: #000000; stroke-linejoin: miter"/>
   </g>
   <g id="patch_27">
    <path d="M 504.762056 385.478125 
L 519.566572 385.478125 
L 519.566572 39.611458 
L 504.762056 39.611458 
z
" clip-path="url(#p28ba4b4b32)" style="fill: #1f77b4; fill-opacity: 0.5; stroke: #000000; stroke-linejoin: miter"/>
   </g>
   <g id="patch_28">
    <path d="M 519.566572 385.478125 
L 534.371088 385.478125 
L 534.371088 58.661642 
L 519.566572 58.661642 
z
" clip-path="url(#p28ba4b4b32)" style="fill: #1f77b4; fill-opacity: 0.5; stroke: #000000; stroke-linejoin: miter"/>
   </g>
   <g id="patch_29">
    <path d="M 534.371088 385.478125 
L 549.175604 385.478125 
L 549.175604 63.741691 
L 534.371088 63.741691 
z
" clip-path="url(#p28ba4b4b32)" style="fill: #1f77b4; fill-opacity: 0.5; stroke: #000000; stroke-linejoin: miter"/>
   </g>
   <g id="patch_30">
    <path d="M 549.175604 385.478125 
L 563.98012 385.478125 
L 563.98012 217.413172 
L 549.175604 217.413172 
z
" clip-path="url(#p28ba4b4b32)" style="fill: #1f77b4; fill-opacity: 0.5; stroke: #000000; stroke-linejoin: miter"/>
   </g>
   <g id="patch_31">
    <path d="M 563.98012 385.478125 
L 578.784636 385.478125 
L 578.784636 103.535408 
L 563.98012 103.535408 
z
" clip-path="url(#p28ba4b4b32)" style="fill: #1f77b4; fill-opacity: 0.5; stroke: #000000; stroke-linejoin: miter"/>
   </g>
   <g id="patch_32">
    <path d="M 578.784636 385.478125 
L 593.589152 385.478125 
L 593.589152 143.752462 
L 578.784636 143.752462 
z
" clip-path="url(#p28ba4b4b32)" style="fill: #1f77b4; fill-opacity: 0.5; stroke: #000000; stroke-linejoin: miter"/>
   </g>
   <g id="patch_33">
    <path d="M 593.589152 385.478125 
L 608.393668 385.478125 
L 608.393668 172.116069 
L 593.589152 172.116069 
z
" clip-path="url(#p28ba4b4b32)" style="fill: #1f77b4; fill-opacity: 0.5; stroke: #000000; stroke-linejoin: miter"/>
   </g>
   <g id="patch_34">
    <path d="M 608.393668 385.478125 
L 623.198184 385.478125 
L 623.198184 242.813417 
L 608.393668 242.813417 
z
" clip-path="url(#p28ba4b4b32)" style="fill: #1f77b4; fill-opacity: 0.5; stroke: #000000; stroke-linejoin: miter"/>
   </g>
   <g id="patch_35">
    <path d="M 623.198184 385.478125 
L 638.0027 385.478125 
L 638.0027 283.030471 
L 623.198184 283.030471 
z
" clip-path="url(#p28ba4b4b32)" style="fill: #1f77b4; fill-opacity: 0.5; stroke: #000000; stroke-linejoin: miter"/>
   </g>
   <g id="patch_36">
    <path d="M 638.0027 385.478125 
L 652.807215 385.478125 
L 652.807215 305.890691 
L 638.0027 305.890691 
z
" clip-path="url(#p28ba4b4b32)" style="fill: #1f77b4; fill-opacity: 0.5; stroke: #000000; stroke-linejoin: miter"/>
   </g>
   <g id="patch_37">
    <path d="M 652.807215 385.478125 
L 667.611731 385.478125 
L 667.611731 341.027697 
L 652.807215 341.027697 
z
" clip-path="url(#p28ba4b4b32)" style="fill: #1f77b4; fill-opacity: 0.5; stroke: #000000; stroke-linejoin: miter"/>
   </g>
   <g id="patch_38">
    <path d="M 667.611731 385.478125 
L 682.416247 385.478125 
L 682.416247 345.684408 
L 667.611731 345.684408 
z
" clip-path="url(#p28ba4b4b32)" style="fill: #1f77b4; fill-opacity: 0.5; stroke: #000000; stroke-linejoin: miter"/>
   </g>
   <g id="patch_39">
    <path d="M 682.416247 385.478125 
L 697.220763 385.478125 
L 697.220763 370.661316 
L 682.416247 370.661316 
z
" clip-path="url(#p28ba4b4b32)" style="fill: #1f77b4; fill-opacity: 0.5; stroke: #000000; stroke-linejoin: miter"/>
   </g>
   <g id="patch_40">
    <path d="M 697.220763 385.478125 
L 712.025279 385.478125 
L 712.025279 376.164702 
L 697.220763 376.164702 
z
" clip-path="url(#p28ba4b4b32)" style="fill: #1f77b4; fill-opacity: 0.5; stroke: #000000; stroke-linejoin: miter"/>
   </g>
   <g id="patch_41">
    <path d="M 712.025279 385.478125 
L 726.829795 385.478125 
L 726.829795 381.244751 
L 712.025279 381.244751 
z
" clip-path="url(#p28ba4b4b32)" style="fill: #1f77b4; fill-opacity: 0.5; stroke: #000000; stroke-linejoin: miter"/>
   </g>
   <g id="patch_42">
    <path d="M 726.829795 385.478125 
L 741.634311 385.478125 
L 741.634311 383.361438 
L 726.829795 383.361438 
z
" clip-path="url(#p28ba4b4b32)" style="fill: #1f77b4; fill-opacity: 0.5; stroke: #000000; stroke-linejoin: miter"/>
   </g>
   <g id="patch_43">
    <path d="M 741.634311 385.478125 
L 756.438827 385.478125 
L 756.438827 385.054788 
L 741.634311 385.054788 
z
" clip-path="url(#p28ba4b4b32)" style="fill: #1f77b4; fill-opacity: 0.5; stroke: #000000; stroke-linejoin: miter"/>
   </g>
   <g id="matplotlib.axis_1">
    <g id="xtick_1">
     <g id="line2d_1">
      <defs>
       <path id="m7e3e167362" d="M 0 0 
L 0 3.5 
" style="stroke: #000000; stroke-width: 0.8"/>
      </defs>
      <g>
       <use xlink:href="#m7e3e167362" x="164.820386" y="385.478125" style="stroke: #000000; stroke-width: 0.8"/>
      </g>
     </g>
     <g id="text_1">
      <!-- 20 -->
      <g transform="translate(158.457886 400.076562) scale(0.1 -0.1)">
       <defs>
        <path id="DejaVuSans-32" d="M 1228 531 
L 3431 531 
L 3431 0 
L 469 0 
L 469 531 
Q 828 903 1448 1529 
Q 2069 2156 2228 2338 
Q 2531 2678 2651 2914 
Q 2772 3150 2772 3378 
Q 2772 3750 2511 3984 
Q 2250 4219 1831 4219 
Q 1534 4219 1204 4116 
Q 875 4013 500 3803 
L 500 4441 
Q 881 4594 1212 4672 
Q 1544 4750 1819 4750 
Q 2544 4750 2975 4387 
Q 3406 4025 3406 3419 
Q 3406 3131 3298 2873 
Q 3191 2616 2906 2266 
Q 2828 2175 2409 1742 
Q 1991 1309 1228 531 
z
" transform="scale(0.015625)"/>
        <path id="DejaVuSans-30" d="M 2034 4250 
Q 1547 4250 1301 3770 
Q 1056 3291 1056 2328 
Q 1056 1369 1301 889 
Q 1547 409 2034 409 
Q 2525 409 2770 889 
Q 3016 1369 3016 2328 
Q 3016 3291 2770 3770 
Q 2525 4250 2034 4250 
z
M 2034 4750 
Q 2819 4750 3233 4129 
Q 3647 3509 3647 2328 
Q 3647 1150 3233 529 
Q 2819 -91 2034 -91 
Q 1250 -91 836 529 
Q 422 1150 422 2328 
Q 422 3509 836 4129 
Q 1250 4750 2034 4750 
z
" transform="scale(0.015625)"/>
       </defs>
       <use xlink:href="#DejaVuSans-32"/>
       <use xlink:href="#DejaVuSans-30" x="63.623047"/>
      </g>
     </g>
    </g>
    <g id="xtick_2">
     <g id="line2d_2">
      <g>
       <use xlink:href="#m7e3e167362" x="318.487513" y="385.478125" style="stroke: #000000; stroke-width: 0.8"/>
      </g>
     </g>
     <g id="text_2">
      <!-- 40 -->
      <g transform="translate(312.125013 400.076562) scale(0.1 -0.1)">
       <defs>
        <path id="DejaVuSans-34" d="M 2419 4116 
L 825 1625 
L 2419 1625 
L 2419 4116 
z
M 2253 4666 
L 3047 4666 
L 3047 1625 
L 3713 1625 
L 3713 1100 
L 3047 1100 
L 3047 0 
L 2419 0 
L 2419 1100 
L 313 1100 
L 313 1709 
L 2253 4666 
z
" transform="scale(0.015625)"/>
       </defs>
       <use xlink:href="#DejaVuSans-34"/>
       <use xlink:href="#DejaVuSans-30" x="63.623047"/>
      </g>
     </g>
    </g>
    <g id="xtick_3">
     <g id="line2d_3">
      <g>
       <use xlink:href="#m7e3e167362" x="472.154641" y="385.478125" style="stroke: #000000; stroke-width: 0.8"/>
      </g>
     </g>
     <g id="text_3">
      <!-- 60 -->
      <g transform="translate(465.792141 400.076562) scale(0.1 -0.1)">
       <defs>
        <path id="DejaVuSans-36" d="M 2113 2584 
Q 1688 2584 1439 2293 
Q 1191 2003 1191 1497 
Q 1191 994 1439 701 
Q 1688 409 2113 409 
Q 2538 409 2786 701 
Q 3034 994 3034 1497 
Q 3034 2003 2786 2293 
Q 2538 2584 2113 2584 
z
M 3366 4563 
L 3366 3988 
Q 3128 4100 2886 4159 
Q 2644 4219 2406 4219 
Q 1781 4219 1451 3797 
Q 1122 3375 1075 2522 
Q 1259 2794 1537 2939 
Q 1816 3084 2150 3084 
Q 2853 3084 3261 2657 
Q 3669 2231 3669 1497 
Q 3669 778 3244 343 
Q 2819 -91 2113 -91 
Q 1303 -91 875 529 
Q 447 1150 447 2328 
Q 447 3434 972 4092 
Q 1497 4750 2381 4750 
Q 2619 4750 2861 4703 
Q 3103 4656 3366 4563 
z
" transform="scale(0.015625)"/>
       </defs>
       <use xlink:href="#DejaVuSans-36"/>
       <use xlink:href="#DejaVuSans-30" x="63.623047"/>
      </g>
     </g>
    </g>
    <g id="xtick_4">
     <g id="line2d_4">
      <g>
       <use xlink:href="#m7e3e167362" x="625.821769" y="385.478125" style="stroke: #000000; stroke-width: 0.8"/>
      </g>
     </g>
     <g id="text_4">
      <!-- 80 -->
      <g transform="translate(619.459269 400.076562) scale(0.1 -0.1)">
       <defs>
        <path id="DejaVuSans-38" d="M 2034 2216 
Q 1584 2216 1326 1975 
Q 1069 1734 1069 1313 
Q 1069 891 1326 650 
Q 1584 409 2034 409 
Q 2484 409 2743 651 
Q 3003 894 3003 1313 
Q 3003 1734 2745 1975 
Q 2488 2216 2034 2216 
z
M 1403 2484 
Q 997 2584 770 2862 
Q 544 3141 544 3541 
Q 544 4100 942 4425 
Q 1341 4750 2034 4750 
Q 2731 4750 3128 4425 
Q 3525 4100 3525 3541 
Q 3525 3141 3298 2862 
Q 3072 2584 2669 2484 
Q 3125 2378 3379 2068 
Q 3634 1759 3634 1313 
Q 3634 634 3220 271 
Q 2806 -91 2034 -91 
Q 1263 -91 848 271 
Q 434 634 434 1313 
Q 434 1759 690 2068 
Q 947 2378 1403 2484 
z
M 1172 3481 
Q 1172 3119 1398 2916 
Q 1625 2713 2034 2713 
Q 2441 2713 2670 2916 
Q 2900 3119 2900 3481 
Q 2900 3844 2670 4047 
Q 2441 4250 2034 4250 
Q 1625 4250 1398 4047 
Q 1172 3844 1172 3481 
z
" transform="scale(0.015625)"/>
       </defs>
       <use xlink:href="#DejaVuSans-38"/>
       <use xlink:href="#DejaVuSans-30" x="63.623047"/>
      </g>
     </g>
    </g>
    <g id="xtick_5">
     <g id="line2d_5">
      <g>
       <use xlink:href="#m7e3e167362" x="779.488896" y="385.478125" style="stroke: #000000; stroke-width: 0.8"/>
      </g>
     </g>
     <g id="text_5">
      <!-- 100 -->
      <g transform="translate(769.945146 400.076562) scale(0.1 -0.1)">
       <defs>
        <path id="DejaVuSans-31" d="M 794 531 
L 1825 531 
L 1825 4091 
L 703 3866 
L 703 4441 
L 1819 4666 
L 2450 4666 
L 2450 531 
L 3481 531 
L 3481 0 
L 794 0 
L 794 531 
z
" transform="scale(0.015625)"/>
       </defs>
       <use xlink:href="#DejaVuSans-31"/>
       <use xlink:href="#DejaVuSans-30" x="63.623047"/>
       <use xlink:href="#DejaVuSans-30" x="127.246094"/>
      </g>
     </g>
    </g>
    <g id="text_6">
     <!-- Age -->
     <g transform="translate(443.275156 413.754687) scale(0.1 -0.1)">
      <defs>
       <path id="DejaVuSans-41" d="M 2188 4044 
L 1331 1722 
L 3047 1722 
L 2188 4044 
z
M 1831 4666 
L 2547 4666 
L 4325 0 
L 3669 0 
L 3244 1197 
L 1141 1197 
L 716 0 
L 50 0 
L 1831 4666 
z
" transform="scale(0.015625)"/>
       <path id="DejaVuSans-67" d="M 2906 1791 
Q 2906 2416 2648 2759 
Q 2391 3103 1925 3103 
Q 1463 3103 1205 2759 
Q 947 2416 947 1791 
Q 947 1169 1205 825 
Q 1463 481 1925 481 
Q 2391 481 2648 825 
Q 2906 1169 2906 1791 
z
M 3481 434 
Q 3481 -459 3084 -895 
Q 2688 -1331 1869 -1331 
Q 1566 -1331 1297 -1286 
Q 1028 -1241 775 -1147 
L 775 -588 
Q 1028 -725 1275 -790 
Q 1522 -856 1778 -856 
Q 2344 -856 2625 -561 
Q 2906 -266 2906 331 
L 2906 616 
Q 2728 306 2450 153 
Q 2172 0 1784 0 
Q 1141 0 747 490 
Q 353 981 353 1791 
Q 353 2603 747 3093 
Q 1141 3584 1784 3584 
Q 2172 3584 2450 3431 
Q 2728 3278 2906 2969 
L 2906 3500 
L 3481 3500 
L 3481 434 
z
" transform="scale(0.015625)"/>
       <path id="DejaVuSans-65" d="M 3597 1894 
L 3597 1613 
L 953 1613 
Q 991 1019 1311 708 
Q 1631 397 2203 397 
Q 2534 397 2845 478 
Q 3156 559 3463 722 
L 3463 178 
Q 3153 47 2828 -22 
Q 2503 -91 2169 -91 
Q 1331 -91 842 396 
Q 353 884 353 1716 
Q 353 2575 817 3079 
Q 1281 3584 2069 3584 
Q 2775 3584 3186 3129 
Q 3597 2675 3597 1894 
z
M 3022 2063 
Q 3016 2534 2758 2815 
Q 2500 3097 2075 3097 
Q 1594 3097 1305 2825 
Q 1016 2553 972 2059 
L 3022 2063 
z
" transform="scale(0.015625)"/>
      </defs>
      <use xlink:href="#DejaVuSans-41"/>
      <use xlink:href="#DejaVuSans-67" x="68.408203"/>
      <use xlink:href="#DejaVuSans-65" x="131.884766"/>
     </g>
    </g>
   </g>
   <g id="matplotlib.axis_2">
    <g id="ytick_1">
     <g id="line2d_6">
      <defs>
       <path id="m0ebe9e686c" d="M 0 0 
L -3.5 0 
" style="stroke: #000000; stroke-width: 0.8"/>
      </defs>
      <g>
       <use xlink:href="#m0ebe9e686c" x="56.50625" y="385.478125" style="stroke: #000000; stroke-width: 0.8"/>
      </g>
     </g>
     <g id="text_7">
      <!-- 0.000 -->
      <g transform="translate(20.878125 389.277344) scale(0.1 -0.1)">
       <defs>
        <path id="DejaVuSans-2e" d="M 684 794 
L 1344 794 
L 1344 0 
L 684 0 
L 684 794 
z
" transform="scale(0.015625)"/>
       </defs>
       <use xlink:href="#DejaVuSans-30"/>
       <use xlink:href="#DejaVuSans-2e" x="63.623047"/>
       <use xlink:href="#DejaVuSans-30" x="95.410156"/>
       <use xlink:href="#DejaVuSans-30" x="159.033203"/>
       <use xlink:href="#DejaVuSans-30" x="222.65625"/>
      </g>
     </g>
    </g>
    <g id="ytick_2">
     <g id="line2d_7">
      <g>
       <use xlink:href="#m0ebe9e686c" x="56.50625" y="317.697623" style="stroke: #000000; stroke-width: 0.8"/>
      </g>
     </g>
     <g id="text_8">
      <!-- 0.005 -->
      <g transform="translate(20.878125 321.496842) scale(0.1 -0.1)">
       <defs>
        <path id="DejaVuSans-35" d="M 691 4666 
L 3169 4666 
L 3169 4134 
L 1269 4134 
L 1269 2991 
Q 1406 3038 1543 3061 
Q 1681 3084 1819 3084 
Q 2600 3084 3056 2656 
Q 3513 2228 3513 1497 
Q 3513 744 3044 326 
Q 2575 -91 1722 -91 
Q 1428 -91 1123 -41 
Q 819 9 494 109 
L 494 744 
Q 775 591 1075 516 
Q 1375 441 1709 441 
Q 2250 441 2565 725 
Q 2881 1009 2881 1497 
Q 2881 1984 2565 2268 
Q 2250 2553 1709 2553 
Q 1456 2553 1204 2497 
Q 953 2441 691 2322 
L 691 4666 
z
" transform="scale(0.015625)"/>
       </defs>
       <use xlink:href="#DejaVuSans-30"/>
       <use xlink:href="#DejaVuSans-2e" x="63.623047"/>
       <use xlink:href="#DejaVuSans-30" x="95.410156"/>
       <use xlink:href="#DejaVuSans-30" x="159.033203"/>
       <use xlink:href="#DejaVuSans-35" x="222.65625"/>
      </g>
     </g>
    </g>
    <g id="ytick_3">
     <g id="line2d_8">
      <g>
       <use xlink:href="#m0ebe9e686c" x="56.50625" y="249.917122" style="stroke: #000000; stroke-width: 0.8"/>
      </g>
     </g>
     <g id="text_9">
      <!-- 0.010 -->
      <g transform="translate(20.878125 253.716341) scale(0.1 -0.1)">
       <use xlink:href="#DejaVuSans-30"/>
       <use xlink:href="#DejaVuSans-2e" x="63.623047"/>
       <use xlink:href="#DejaVuSans-30" x="95.410156"/>
       <use xlink:href="#DejaVuSans-31" x="159.033203"/>
       <use xlink:href="#DejaVuSans-30" x="222.65625"/>
      </g>
     </g>
    </g>
    <g id="ytick_4">
     <g id="line2d_9">
      <g>
       <use xlink:href="#m0ebe9e686c" x="56.50625" y="182.13662" style="stroke: #000000; stroke-width: 0.8"/>
      </g>
     </g>
     <g id="text_10">
      <!-- 0.015 -->
      <g transform="translate(20.878125 185.935839) scale(0.1 -0.1)">
       <use xlink:href="#DejaVuSans-30"/>
       <use xlink:href="#DejaVuSans-2e" x="63.623047"/>
       <use xlink:href="#DejaVuSans-30" x="95.410156"/>
       <use xlink:href="#DejaVuSans-31" x="159.033203"/>
       <use xlink:href="#DejaVuSans-35" x="222.65625"/>
      </g>
     </g>
    </g>
    <g id="ytick_5">
     <g id="line2d_10">
      <g>
       <use xlink:href="#m0ebe9e686c" x="56.50625" y="114.356119" style="stroke: #000000; stroke-width: 0.8"/>
      </g>
     </g>
     <g id="text_11">
      <!-- 0.020 -->
      <g transform="translate(20.878125 118.155337) scale(0.1 -0.1)">
       <use xlink:href="#DejaVuSans-30"/>
       <use xlink:href="#DejaVuSans-2e" x="63.623047"/>
       <use xlink:href="#DejaVuSans-30" x="95.410156"/>
       <use xlink:href="#DejaVuSans-32" x="159.033203"/>
       <use xlink:href="#DejaVuSans-30" x="222.65625"/>
      </g>
     </g>
    </g>
    <g id="ytick_6">
     <g id="line2d_11">
      <g>
       <use xlink:href="#m0ebe9e686c" x="56.50625" y="46.575617" style="stroke: #000000; stroke-width: 0.8"/>
      </g>
     </g>
     <g id="text_12">
      <!-- 0.025 -->
      <g transform="translate(20.878125 50.374836) scale(0.1 -0.1)">
       <use xlink:href="#DejaVuSans-30"/>
       <use xlink:href="#DejaVuSans-2e" x="63.623047"/>
       <use xlink:href="#DejaVuSans-30" x="95.410156"/>
       <use xlink:href="#DejaVuSans-32" x="159.033203"/>
       <use xlink:href="#DejaVuSans-35" x="222.65625"/>
      </g>
     </g>
    </g>
    <g id="text_13">
     <!-- Density -->
     <g transform="translate(14.798438 222.906719) rotate(-90) scale(0.1 -0.1)">
      <defs>
       <path id="DejaVuSans-44" d="M 1259 4147 
L 1259 519 
L 2022 519 
Q 2988 519 3436 956 
Q 3884 1394 3884 2338 
Q 3884 3275 3436 3711 
Q 2988 4147 2022 4147 
L 1259 4147 
z
M 628 4666 
L 1925 4666 
Q 3281 4666 3915 4102 
Q 4550 3538 4550 2338 
Q 4550 1131 3912 565 
Q 3275 0 1925 0 
L 628 0 
L 628 4666 
z
" transform="scale(0.015625)"/>
       <path id="DejaVuSans-6e" d="M 3513 2113 
L 3513 0 
L 2938 0 
L 2938 2094 
Q 2938 2591 2744 2837 
Q 2550 3084 2163 3084 
Q 1697 3084 1428 2787 
Q 1159 2491 1159 1978 
L 1159 0 
L 581 0 
L 581 3500 
L 1159 3500 
L 1159 2956 
Q 1366 3272 1645 3428 
Q 1925 3584 2291 3584 
Q 2894 3584 3203 3211 
Q 3513 2838 3513 2113 
z
" transform="scale(0.015625)"/>
       <path id="DejaVuSans-73" d="M 2834 3397 
L 2834 2853 
Q 2591 2978 2328 3040 
Q 2066 3103 1784 3103 
Q 1356 3103 1142 2972 
Q 928 2841 928 2578 
Q 928 2378 1081 2264 
Q 1234 2150 1697 2047 
L 1894 2003 
Q 2506 1872 2764 1633 
Q 3022 1394 3022 966 
Q 3022 478 2636 193 
Q 2250 -91 1575 -91 
Q 1294 -91 989 -36 
Q 684 19 347 128 
L 347 722 
Q 666 556 975 473 
Q 1284 391 1588 391 
Q 1994 391 2212 530 
Q 2431 669 2431 922 
Q 2431 1156 2273 1281 
Q 2116 1406 1581 1522 
L 1381 1569 
Q 847 1681 609 1914 
Q 372 2147 372 2553 
Q 372 3047 722 3315 
Q 1072 3584 1716 3584 
Q 2034 3584 2315 3537 
Q 2597 3491 2834 3397 
z
" transform="scale(0.015625)"/>
       <path id="DejaVuSans-69" d="M 603 3500 
L 1178 3500 
L 1178 0 
L 603 0 
L 603 3500 
z
M 603 4863 
L 1178 4863 
L 1178 4134 
L 603 4134 
L 603 4863 
z
" transform="scale(0.015625)"/>
       <path id="DejaVuSans-74" d="M 1172 4494 
L 1172 3500 
L 2356 3500 
L 2356 3053 
L 1172 3053 
L 1172 1153 
Q 1172 725 1289 603 
Q 1406 481 1766 481 
L 2356 481 
L 2356 0 
L 1766 0 
Q 1100 0 847 248 
Q 594 497 594 1153 
L 594 3053 
L 172 3053 
L 172 3500 
L 594 3500 
L 594 4494 
L 1172 4494 
z
" transform="scale(0.015625)"/>
       <path id="DejaVuSans-79" d="M 2059 -325 
Q 1816 -950 1584 -1140 
Q 1353 -1331 966 -1331 
L 506 -1331 
L 506 -850 
L 844 -850 
Q 1081 -850 1212 -737 
Q 1344 -625 1503 -206 
L 1606 56 
L 191 3500 
L 800 3500 
L 1894 763 
L 2988 3500 
L 3597 3500 
L 2059 -325 
z
" transform="scale(0.015625)"/>
      </defs>
      <use xlink:href="#DejaVuSans-44"/>
      <use xlink:href="#DejaVuSans-65" x="77.001953"/>
      <use xlink:href="#DejaVuSans-6e" x="138.525391"/>
      <use xlink:href="#DejaVuSans-73" x="201.904297"/>
      <use xlink:href="#DejaVuSans-69" x="254.003906"/>
      <use xlink:href="#DejaVuSans-74" x="281.787109"/>
      <use xlink:href="#DejaVuSans-79" x="320.996094"/>
     </g>
    </g>
   </g>
   <g id="line2d_12">
    <path d="M 149.453673 287.922263 
L 152.503849 279.899947 
L 155.554026 273.113325 
L 158.604203 267.734781 
L 161.654379 263.838192 
L 164.704556 261.397133 
L 167.754733 260.293887 
L 170.804909 260.337354 
L 173.855086 261.286871 
L 176.905263 262.878345 
L 179.955439 264.84928 
L 186.055793 269.008311 
L 189.105969 270.839733 
L 192.156146 272.348788 
L 195.206323 273.477107 
L 198.256499 274.206932 
L 201.306676 274.552505 
L 204.356853 274.550621 
L 207.407029 274.251497 
L 210.457206 273.710753 
L 213.507383 272.982953 
L 219.607736 271.152652 
L 225.708089 269.039242 
L 234.858619 265.582722 
L 244.009149 261.812048 
L 259.260032 255.292227 
L 265.360386 252.98026 
L 271.460739 250.965095 
L 280.611269 248.325663 
L 286.711622 246.554043 
L 292.811976 244.512649 
L 295.862152 243.322481 
L 298.912329 241.98566 
L 301.962506 240.479608 
L 305.012682 238.785082 
L 308.062859 236.887678 
L 311.113036 234.779618 
L 314.163212 232.461485 
L 317.213389 229.943517 
L 320.263565 227.24609 
L 326.363919 221.44046 
L 341.614802 206.447104 
L 347.715155 200.9338 
L 356.865685 193.20703 
L 362.966039 188.049912 
L 369.066392 182.516058 
L 372.116569 179.523985 
L 375.166745 176.351946 
L 378.216922 172.98815 
L 381.267099 169.428825 
L 384.317275 165.677281 
L 390.417629 157.640795 
L 396.517982 149.019125 
L 414.819042 122.342683 
L 417.869218 118.24238 
L 420.919395 114.351559 
L 423.969572 110.695432 
L 427.019748 107.288251 
L 430.069925 104.133754 
L 433.120102 101.227094 
L 436.170278 98.557906 
L 439.220455 96.11398 
L 442.270632 93.884842 
L 445.320808 91.864567 
L 448.370985 90.053246 
L 451.421162 88.456775 
L 454.471338 87.084879 
L 457.521515 85.947629 
L 460.571692 85.050958 
L 463.621868 84.391918 
L 466.672045 83.954508 
L 469.722222 83.706931 
L 475.822575 83.573726 
L 481.922928 83.460266 
L 484.973105 83.225586 
L 488.023282 82.789212 
L 491.073458 82.112458 
L 494.123635 81.182508 
L 497.173812 80.014983 
L 500.223988 78.653169 
L 512.424695 72.806005 
L 515.474871 71.691129 
L 518.525048 70.874934 
L 521.575225 70.412738 
L 524.625401 70.342905 
L 527.675578 70.68871 
L 530.725755 71.461819 
L 533.775931 72.666496 
L 536.826108 74.303594 
L 539.876285 76.373612 
L 542.926461 78.878353 
L 545.976638 81.821074 
L 549.026815 85.205361 
L 552.076991 89.033212 
L 555.127168 93.302948 
L 558.177345 98.007564 
L 561.227521 103.134025 
L 564.277698 108.663726 
L 567.327875 114.57408 
L 570.378051 120.840885 
L 573.428228 127.440903 
L 576.478405 134.354006 
L 582.578758 149.059705 
L 588.679111 164.865079 
L 594.779464 181.655569 
L 600.879818 199.188724 
L 613.080524 234.647635 
L 619.180878 251.462245 
L 622.231054 259.437417 
L 625.281231 267.080338 
L 628.331408 274.376123 
L 631.381584 281.322573 
L 634.431761 287.927186 
L 637.481938 294.203656 
L 640.532114 300.168461 
L 643.582291 305.83807 
L 646.632468 311.227129 
L 649.682644 316.347732 
L 652.732821 321.209674 
L 655.782998 325.821375 
L 658.833174 330.191077 
L 661.883351 334.327884 
L 664.933528 338.242333 
L 667.983704 341.946324 
L 671.033881 345.452434 
L 674.084058 348.772809 
L 677.134234 351.91794 
L 680.184411 354.895643 
L 683.234587 357.710519 
L 686.284764 360.364025 
L 689.334941 362.855141 
L 692.385117 365.181497 
L 695.435294 367.340692 
L 698.485471 369.33155 
L 701.535647 371.155082 
L 704.585824 372.814991 
L 707.636001 374.317706 
L 710.686177 375.67199 
L 713.736354 376.888262 
L 719.836707 378.951976 
L 725.937061 380.596727 
L 732.037414 381.897338 
L 738.137767 382.912102 
L 744.238121 383.687379 
L 750.338474 384.26363 
L 756.438827 384.678774 
L 756.438827 384.678774 
" clip-path="url(#p28ba4b4b32)" style="fill: none; stroke: #1f77b4; stroke-width: 1.5; stroke-linecap: square"/>
   </g>
   <g id="line2d_13">
    <path d="M 92.54625 385.011939 
L 96.168361 384.644617 
L 99.790471 384.03808 
L 103.412582 383.073498 
L 107.034692 381.59641 
L 110.656803 379.418917 
L 114.278913 376.3296 
L 117.901024 372.112978 
L 121.523134 366.578678 
L 125.145245 359.597936 
L 128.767356 351.142184 
L 132.389466 341.316019 
L 136.011577 330.375881 
L 146.877908 295.470641 
L 150.500019 285.045493 
L 154.122129 276.132245 
L 157.74424 269.102495 
L 161.366351 264.14278 
L 164.988461 261.240447 
L 168.610572 260.200016 
L 172.232682 260.684867 
L 175.854793 262.274418 
L 179.476903 264.525096 
L 186.721124 269.430712 
L 190.343235 271.495023 
L 193.965345 273.065945 
L 197.587456 274.080657 
L 201.209567 274.547098 
L 204.831677 274.522208 
L 208.453788 274.090327 
L 212.075898 273.344534 
L 215.698009 272.372443 
L 222.94223 270.02122 
L 230.186451 267.385486 
L 237.430672 264.554929 
L 244.674893 261.526524 
L 259.163335 255.331102 
L 266.407557 252.613467 
L 273.651778 250.304823 
L 288.14022 246.10844 
L 291.76233 244.892737 
L 295.384441 243.517957 
L 299.006552 241.941778 
L 302.628662 240.126197 
L 306.250773 238.039981 
L 309.872883 235.662303 
L 313.494994 232.986937 
L 317.117104 230.025877 
L 320.739215 226.811094 
L 327.983436 219.838708 
L 338.849768 209.072036 
L 346.093989 202.361848 
L 353.33821 196.14355 
L 364.204541 186.96667 
L 367.826652 183.685113 
L 371.448763 180.193885 
L 375.070873 176.454527 
L 378.692984 172.445493 
L 382.315094 168.161169 
L 385.937205 163.609723 
L 389.559315 158.811036 
L 396.803536 148.604664 
L 414.914089 122.212076 
L 418.5362 117.37264 
L 422.15831 112.837161 
L 425.780421 108.642149 
L 429.402531 104.802515 
L 433.024642 101.3144 
L 436.646753 98.161593 
L 440.268863 95.32397 
L 443.890974 92.785748 
L 447.513084 90.541335 
L 451.135195 88.597076 
L 454.757305 86.968151 
L 458.379416 85.671035 
L 462.001526 84.713062 
L 465.623637 84.08149 
L 469.245747 83.734863 
L 476.489969 83.571199 
L 480.112079 83.527705 
L 483.73419 83.342277 
L 487.3563 82.904196 
L 490.978411 82.137374 
L 494.600521 81.014848 
L 498.222632 79.56569 
L 505.466853 76.061307 
L 509.088964 74.282044 
L 512.711074 72.690453 
L 516.333185 71.428546 
L 519.955295 70.611405 
L 523.577406 70.320922 
L 527.199516 70.606784 
L 530.821627 71.493106 
L 534.443737 72.987943 
L 538.065848 75.092665 
L 541.687959 77.808715 
L 545.310069 81.140397 
L 548.93218 85.093695 
L 552.55429 89.672297 
L 556.176401 94.872757 
L 559.798511 100.680819 
L 563.420622 107.070444 
L 567.042732 114.00608 
L 570.664843 121.447598 
L 574.286954 129.356275 
L 577.909064 137.69973 
L 581.531175 146.453886 
L 585.153285 155.600845 
L 588.775396 165.122858 
L 596.019617 185.17091 
L 603.263838 206.155883 
L 610.508059 227.289062 
L 617.75228 247.620456 
L 621.374391 257.230097 
L 624.996501 266.381443 
L 628.618612 275.045043 
L 632.240722 283.216958 
L 635.862833 290.911845 
L 639.484943 298.154737 
L 643.107054 304.973501 
L 646.729165 311.393526 
L 650.351275 317.435351 
L 653.973386 323.115075 
L 657.595496 328.446593 
L 661.217607 333.444326 
L 664.839717 338.125142 
L 668.461828 342.508674 
L 672.083938 346.615898 
L 675.706049 350.466543 
L 679.32816 354.076312 
L 682.95027 357.454956 
L 686.572381 360.60589 
L 690.194491 363.527504 
L 693.816602 366.215763 
L 697.438712 368.667291 
L 701.060823 370.88209 
L 704.682933 372.865215 
L 708.305044 374.627128 
L 711.927155 376.18286 
L 715.549265 377.550385 
L 719.171376 378.748755 
L 722.793486 379.796464 
L 726.415597 380.710336 
L 733.659818 382.19305 
L 740.904039 383.290826 
L 748.14826 384.077212 
L 755.392481 384.617436 
L 762.636702 384.972138 
L 773.503034 385.270431 
L 787.991476 385.427765 
L 813.34625 385.476485 
L 813.34625 385.476485 
" clip-path="url(#p28ba4b4b32)" style="fill: none; stroke: #1f77b4; stroke-width: 1.5; stroke-linecap: square"/>
   </g>
   <g id="patch_44">
    <path d="M 56.50625 385.478125 
L 56.50625 22.318125 
" style="fill: none; stroke: #000000; stroke-width: 0.8; stroke-linejoin: miter; stroke-linecap: square"/>
   </g>
   <g id="patch_45">
    <path d="M 849.38625 385.478125 
L 849.38625 22.318125 
" style="fill: none; stroke: #000000; stroke-width: 0.8; stroke-linejoin: miter; stroke-linecap: square"/>
   </g>
   <g id="patch_46">
    <path d="M 56.50625 385.478125 
L 849.38625 385.478125 
" style="fill: none; stroke: #000000; stroke-width: 0.8; stroke-linejoin: miter; stroke-linecap: square"/>
   </g>
   <g id="patch_47">
    <path d="M 56.50625 22.318125 
L 849.38625 22.318125 
" style="fill: none; stroke: #000000; stroke-width: 0.8; stroke-linejoin: miter; stroke-linecap: square"/>
   </g>
   <g id="text_14">
    <!-- Distribution of Age -->
    <g transform="translate(396.74125 16.318125) scale(0.12 -0.12)">
     <defs>
      <path id="DejaVuSans-72" d="M 2631 2963 
Q 2534 3019 2420 3045 
Q 2306 3072 2169 3072 
Q 1681 3072 1420 2755 
Q 1159 2438 1159 1844 
L 1159 0 
L 581 0 
L 581 3500 
L 1159 3500 
L 1159 2956 
Q 1341 3275 1631 3429 
Q 1922 3584 2338 3584 
Q 2397 3584 2469 3576 
Q 2541 3569 2628 3553 
L 2631 2963 
z
" transform="scale(0.015625)"/>
      <path id="DejaVuSans-62" d="M 3116 1747 
Q 3116 2381 2855 2742 
Q 2594 3103 2138 3103 
Q 1681 3103 1420 2742 
Q 1159 2381 1159 1747 
Q 1159 1113 1420 752 
Q 1681 391 2138 391 
Q 2594 391 2855 752 
Q 3116 1113 3116 1747 
z
M 1159 2969 
Q 1341 3281 1617 3432 
Q 1894 3584 2278 3584 
Q 2916 3584 3314 3078 
Q 3713 2572 3713 1747 
Q 3713 922 3314 415 
Q 2916 -91 2278 -91 
Q 1894 -91 1617 61 
Q 1341 213 1159 525 
L 1159 0 
L 581 0 
L 581 4863 
L 1159 4863 
L 1159 2969 
z
" transform="scale(0.015625)"/>
      <path id="DejaVuSans-75" d="M 544 1381 
L 544 3500 
L 1119 3500 
L 1119 1403 
Q 1119 906 1312 657 
Q 1506 409 1894 409 
Q 2359 409 2629 706 
Q 2900 1003 2900 1516 
L 2900 3500 
L 3475 3500 
L 3475 0 
L 2900 0 
L 2900 538 
Q 2691 219 2414 64 
Q 2138 -91 1772 -91 
Q 1169 -91 856 284 
Q 544 659 544 1381 
z
M 1991 3584 
L 1991 3584 
z
" transform="scale(0.015625)"/>
      <path id="DejaVuSans-6f" d="M 1959 3097 
Q 1497 3097 1228 2736 
Q 959 2375 959 1747 
Q 959 1119 1226 758 
Q 1494 397 1959 397 
Q 2419 397 2687 759 
Q 2956 1122 2956 1747 
Q 2956 2369 2687 2733 
Q 2419 3097 1959 3097 
z
M 1959 3584 
Q 2709 3584 3137 3096 
Q 3566 2609 3566 1747 
Q 3566 888 3137 398 
Q 2709 -91 1959 -91 
Q 1206 -91 779 398 
Q 353 888 353 1747 
Q 353 2609 779 3096 
Q 1206 3584 1959 3584 
z
" transform="scale(0.015625)"/>
      <path id="DejaVuSans-20" transform="scale(0.015625)"/>
      <path id="DejaVuSans-66" d="M 2375 4863 
L 2375 4384 
L 1825 4384 
Q 1516 4384 1395 4259 
Q 1275 4134 1275 3809 
L 1275 3500 
L 2222 3500 
L 2222 3053 
L 1275 3053 
L 1275 0 
L 697 0 
L 697 3053 
L 147 3053 
L 147 3500 
L 697 3500 
L 697 3744 
Q 697 4328 969 4595 
Q 1241 4863 1831 4863 
L 2375 4863 
z
" transform="scale(0.015625)"/>
     </defs>
     <use xlink:href="#DejaVuSans-44"/>
     <use xlink:href="#DejaVuSans-69" x="77.001953"/>
     <use xlink:href="#DejaVuSans-73" x="104.785156"/>
     <use xlink:href="#DejaVuSans-74" x="156.884766"/>
     <use xlink:href="#DejaVuSans-72" x="196.09375"/>
     <use xlink:href="#DejaVuSans-69" x="237.207031"/>
     <use xlink:href="#DejaVuSans-62" x="264.990234"/>
     <use xlink:href="#DejaVuSans-75" x="328.466797"/>
     <use xlink:href="#DejaVuSans-74" x="391.845703"/>
     <use xlink:href="#DejaVuSans-69" x="431.054688"/>
     <use xlink:href="#DejaVuSans-6f" x="458.837891"/>
     <use xlink:href="#DejaVuSans-6e" x="520.019531"/>
     <use xlink:href="#DejaVuSans-20" x="583.398438"/>
     <use xlink:href="#DejaVuSans-6f" x="615.185547"/>
     <use xlink:href="#DejaVuSans-66" x="676.367188"/>
     <use xlink:href="#DejaVuSans-20" x="711.572266"/>
     <use xlink:href="#DejaVuSans-41" x="743.359375"/>
     <use xlink:href="#DejaVuSans-67" x="811.767578"/>
     <use xlink:href="#DejaVuSans-65" x="875.244141"/>
    </g>
   </g>
  </g>
 </g>
 <defs>
  <clipPath id="p28ba4b4b32">
   <rect x="56.50625" y="22.318125" width="792.88" height="363.16"/>
  </clipPath>
 </defs>
</svg>
