<?xml version="1.0" encoding="utf-8" standalone="no"?>
<!DOCTYPE svg PUBLIC "-//W3C//DTD SVG 1.1//EN"
  "http://www.w3.org/Graphics/SVG/1.1/DTD/svg11.dtd">
<svg xmlns:xlink="http://www.w3.org/1999/xlink" width="424.64875pt" height="279.851562pt" viewBox="0 0 424.64875 279.851562" xmlns="http://www.w3.org/2000/svg" version="1.1">
 <metadata>
  <rdf:RDF xmlns:dc="http://purl.org/dc/elements/1.1/" xmlns:cc="http://creativecommons.org/ns#" xmlns:rdf="http://www.w3.org/1999/02/22-rdf-syntax-ns#">
   <cc:Work>
    <dc:type rdf:resource="http://purl.org/dc/dcmitype/StillImage"/>
    <dc:date>2024-08-05T23:56:07.072242</dc:date>
    <dc:format>image/svg+xml</dc:format>
    <dc:creator>
     <cc:Agent>
      <dc:title>Matplotlib v3.9.0, https://matplotlib.org/</dc:title>
     </cc:Agent>
    </dc:creator>
   </cc:Work>
  </rdf:RDF>
 </metadata>
 <defs>
  <style type="text/css">*{stroke-linejoin: round; stroke-linecap: butt}</style>
 </defs>
 <g id="figure_1">
  <g id="patch_1">
   <path d="M -0 279.851562 
L 424.64875 279.851562 
L 424.64875 0 
L -0 0 
z
" style="fill: #ffffff"/>
  </g>
  <g id="axes_1">
   <g id="patch_2">
    <path d="M 62.86875 242.017188 
L 417.44875 242.017188 
L 417.44875 20.798437 
L 62.86875 20.798437 
z
" style="fill: #ffffff"/>
   </g>
   <g id="patch_3">
    <path d="M 107.023375 242.017188 
L 113.517784 242.017188 
L 113.517784 31.332664 
L 107.023375 31.332664 
z
" clip-path="url(#p48afbc9fe3)" style="fill: #333333; fill-opacity: 0.6; stroke: #000000; stroke-width: 0.74235; stroke-linejoin: miter"/>
   </g>
   <g id="patch_4">
    <path d="M 113.517784 242.017188 
L 120.012193 242.017188 
L 120.012193 128.684894 
L 113.517784 128.684894 
z
" clip-path="url(#p48afbc9fe3)" style="fill: #333333; fill-opacity: 0.6; stroke: #000000; stroke-width: 0.74235; stroke-linejoin: miter"/>
   </g>
   <g id="patch_5">
    <path d="M 120.012193 242.017188 
L 126.506601 242.017188 
L 126.506601 157.911589 
L 120.012193 157.911589 
z
" clip-path="url(#p48afbc9fe3)" style="fill: #333333; fill-opacity: 0.6; stroke: #000000; stroke-width: 0.74235; stroke-linejoin: miter"/>
   </g>
   <g id="patch_6">
    <path d="M 126.506601 242.017188 
L 133.00101 242.017188 
L 133.00101 175.994293 
L 126.506601 175.994293 
z
" clip-path="url(#p48afbc9fe3)" style="fill: #333333; fill-opacity: 0.6; stroke: #000000; stroke-width: 0.74235; stroke-linejoin: miter"/>
   </g>
   <g id="patch_7">
    <path d="M 133.00101 242.017188 
L 139.495418 242.017188 
L 139.495418 183.633885 
L 133.00101 183.633885 
z
" clip-path="url(#p48afbc9fe3)" style="fill: #333333; fill-opacity: 0.6; stroke: #000000; stroke-width: 0.74235; stroke-linejoin: miter"/>
   </g>
   <g id="patch_8">
    <path d="M 139.495418 242.017188 
L 145.989827 242.017188 
L 145.989827 193.446204 
L 139.495418 193.446204 
z
" clip-path="url(#p48afbc9fe3)" style="fill: #333333; fill-opacity: 0.6; stroke: #000000; stroke-width: 0.74235; stroke-linejoin: miter"/>
   </g>
   <g id="patch_9">
    <path d="M 145.989827 242.017188 
L 152.484235 242.017188 
L 152.484235 196.319812 
L 145.989827 196.319812 
z
" clip-path="url(#p48afbc9fe3)" style="fill: #333333; fill-opacity: 0.6; stroke: #000000; stroke-width: 0.74235; stroke-linejoin: miter"/>
   </g>
   <g id="patch_10">
    <path d="M 152.484235 242.017188 
L 158.978644 242.017188 
L 158.978644 199.473772 
L 152.484235 199.473772 
z
" clip-path="url(#p48afbc9fe3)" style="fill: #333333; fill-opacity: 0.6; stroke: #000000; stroke-width: 0.74235; stroke-linejoin: miter"/>
   </g>
   <g id="patch_11">
    <path d="M 158.978644 242.017188 
L 165.473052 242.017188 
L 165.473052 202.557644 
L 158.978644 202.557644 
z
" clip-path="url(#p48afbc9fe3)" style="fill: #333333; fill-opacity: 0.6; stroke: #000000; stroke-width: 0.74235; stroke-linejoin: miter"/>
   </g>
   <g id="patch_12">
    <path d="M 165.473052 242.017188 
L 171.967461 242.017188 
L 171.967461 206.9031 
L 165.473052 206.9031 
z
" clip-path="url(#p48afbc9fe3)" style="fill: #333333; fill-opacity: 0.6; stroke: #000000; stroke-width: 0.74235; stroke-linejoin: miter"/>
   </g>
   <g id="patch_13">
    <path d="M 171.967461 242.017188 
L 178.461869 242.017188 
L 178.461869 209.35618 
L 171.967461 209.35618 
z
" clip-path="url(#p48afbc9fe3)" style="fill: #333333; fill-opacity: 0.6; stroke: #000000; stroke-width: 0.74235; stroke-linejoin: miter"/>
   </g>
   <g id="patch_14">
    <path d="M 178.461869 242.017188 
L 184.956278 242.017188 
L 184.956278 211.879348 
L 178.461869 211.879348 
z
" clip-path="url(#p48afbc9fe3)" style="fill: #333333; fill-opacity: 0.6; stroke: #000000; stroke-width: 0.74235; stroke-linejoin: miter"/>
   </g>
   <g id="patch_15">
    <path d="M 184.956278 242.017188 
L 191.450686 242.017188 
L 191.450686 213.9119 
L 184.956278 213.9119 
z
" clip-path="url(#p48afbc9fe3)" style="fill: #333333; fill-opacity: 0.6; stroke: #000000; stroke-width: 0.74235; stroke-linejoin: miter"/>
   </g>
   <g id="patch_16">
    <path d="M 191.450686 242.017188 
L 197.945095 242.017188 
L 197.945095 216.785508 
L 191.450686 216.785508 
z
" clip-path="url(#p48afbc9fe3)" style="fill: #333333; fill-opacity: 0.6; stroke: #000000; stroke-width: 0.74235; stroke-linejoin: miter"/>
   </g>
   <g id="patch_17">
    <path d="M 197.945095 242.017188 
L 204.439503 242.017188 
L 204.439503 219.098412 
L 197.945095 219.098412 
z
" clip-path="url(#p48afbc9fe3)" style="fill: #333333; fill-opacity: 0.6; stroke: #000000; stroke-width: 0.74235; stroke-linejoin: miter"/>
   </g>
   <g id="patch_18">
    <path d="M 204.439503 242.017188 
L 210.933912 242.017188 
L 210.933912 217.206036 
L 204.439503 217.206036 
z
" clip-path="url(#p48afbc9fe3)" style="fill: #333333; fill-opacity: 0.6; stroke: #000000; stroke-width: 0.74235; stroke-linejoin: miter"/>
   </g>
   <g id="patch_19">
    <path d="M 210.933912 242.017188 
L 217.42832 242.017188 
L 217.42832 222.883164 
L 210.933912 222.883164 
z
" clip-path="url(#p48afbc9fe3)" style="fill: #333333; fill-opacity: 0.6; stroke: #000000; stroke-width: 0.74235; stroke-linejoin: miter"/>
   </g>
   <g id="patch_20">
    <path d="M 217.42832 242.017188 
L 223.922729 242.017188 
L 223.922729 224.004572 
L 217.42832 224.004572 
z
" clip-path="url(#p48afbc9fe3)" style="fill: #333333; fill-opacity: 0.6; stroke: #000000; stroke-width: 0.74235; stroke-linejoin: miter"/>
   </g>
   <g id="patch_21">
    <path d="M 223.922729 242.017188 
L 230.417137 242.017188 
L 230.417137 223.584044 
L 223.922729 223.584044 
z
" clip-path="url(#p48afbc9fe3)" style="fill: #333333; fill-opacity: 0.6; stroke: #000000; stroke-width: 0.74235; stroke-linejoin: miter"/>
   </g>
   <g id="patch_22">
    <path d="M 230.417137 242.017188 
L 236.911546 242.017188 
L 236.911546 226.808092 
L 230.417137 226.808092 
z
" clip-path="url(#p48afbc9fe3)" style="fill: #333333; fill-opacity: 0.6; stroke: #000000; stroke-width: 0.74235; stroke-linejoin: miter"/>
   </g>
   <g id="patch_23">
    <path d="M 236.911546 242.017188 
L 243.405954 242.017188 
L 243.405954 227.438884 
L 236.911546 227.438884 
z
" clip-path="url(#p48afbc9fe3)" style="fill: #333333; fill-opacity: 0.6; stroke: #000000; stroke-width: 0.74235; stroke-linejoin: miter"/>
   </g>
   <g id="patch_24">
    <path d="M 243.405954 242.017188 
L 249.900363 242.017188 
L 249.900363 226.387564 
L 243.405954 226.387564 
z
" clip-path="url(#p48afbc9fe3)" style="fill: #333333; fill-opacity: 0.6; stroke: #000000; stroke-width: 0.74235; stroke-linejoin: miter"/>
   </g>
   <g id="patch_25">
    <path d="M 249.900363 242.017188 
L 256.394771 242.017188 
L 256.394771 228.420116 
L 249.900363 228.420116 
z
" clip-path="url(#p48afbc9fe3)" style="fill: #333333; fill-opacity: 0.6; stroke: #000000; stroke-width: 0.74235; stroke-linejoin: miter"/>
   </g>
   <g id="patch_26">
    <path d="M 256.394771 242.017188 
L 262.88918 242.017188 
L 262.88918 229.962052 
L 256.394771 229.962052 
z
" clip-path="url(#p48afbc9fe3)" style="fill: #333333; fill-opacity: 0.6; stroke: #000000; stroke-width: 0.74235; stroke-linejoin: miter"/>
   </g>
   <g id="patch_27">
    <path d="M 262.88918 242.017188 
L 269.383588 242.017188 
L 269.383588 229.751788 
L 262.88918 229.751788 
z
" clip-path="url(#p48afbc9fe3)" style="fill: #333333; fill-opacity: 0.6; stroke: #000000; stroke-width: 0.74235; stroke-linejoin: miter"/>
   </g>
   <g id="patch_28">
    <path d="M 269.383588 242.017188 
L 275.877997 242.017188 
L 275.877997 231.714252 
L 269.383588 231.714252 
z
" clip-path="url(#p48afbc9fe3)" style="fill: #333333; fill-opacity: 0.6; stroke: #000000; stroke-width: 0.74235; stroke-linejoin: miter"/>
   </g>
   <g id="patch_29">
    <path d="M 275.877997 242.017188 
L 282.372405 242.017188 
L 282.372405 230.452668 
L 275.877997 230.452668 
z
" clip-path="url(#p48afbc9fe3)" style="fill: #333333; fill-opacity: 0.6; stroke: #000000; stroke-width: 0.74235; stroke-linejoin: miter"/>
   </g>
   <g id="patch_30">
    <path d="M 282.372405 242.017188 
L 288.866814 242.017188 
L 288.866814 233.256188 
L 282.372405 233.256188 
z
" clip-path="url(#p48afbc9fe3)" style="fill: #333333; fill-opacity: 0.6; stroke: #000000; stroke-width: 0.74235; stroke-linejoin: miter"/>
   </g>
   <g id="patch_31">
    <path d="M 288.866814 242.017188 
L 295.361222 242.017188 
L 295.361222 233.606628 
L 288.866814 233.606628 
z
" clip-path="url(#p48afbc9fe3)" style="fill: #333333; fill-opacity: 0.6; stroke: #000000; stroke-width: 0.74235; stroke-linejoin: miter"/>
   </g>
   <g id="patch_32">
    <path d="M 295.361222 242.017188 
L 301.855631 242.017188 
L 301.855631 233.676716 
L 295.361222 233.676716 
z
" clip-path="url(#p48afbc9fe3)" style="fill: #333333; fill-opacity: 0.6; stroke: #000000; stroke-width: 0.74235; stroke-linejoin: miter"/>
   </g>
   <g id="patch_33">
    <path d="M 301.855631 242.017188 
L 308.350039 242.017188 
L 308.350039 235.148564 
L 301.855631 235.148564 
z
" clip-path="url(#p48afbc9fe3)" style="fill: #333333; fill-opacity: 0.6; stroke: #000000; stroke-width: 0.74235; stroke-linejoin: miter"/>
   </g>
   <g id="patch_34">
    <path d="M 308.350039 242.017188 
L 314.844448 242.017188 
L 314.844448 235.008388 
L 308.350039 235.008388 
z
" clip-path="url(#p48afbc9fe3)" style="fill: #333333; fill-opacity: 0.6; stroke: #000000; stroke-width: 0.74235; stroke-linejoin: miter"/>
   </g>
   <g id="patch_35">
    <path d="M 314.844448 242.017188 
L 321.338856 242.017188 
L 321.338856 233.676716 
L 314.844448 233.676716 
z
" clip-path="url(#p48afbc9fe3)" style="fill: #333333; fill-opacity: 0.6; stroke: #000000; stroke-width: 0.74235; stroke-linejoin: miter"/>
   </g>
   <g id="patch_36">
    <path d="M 321.338856 242.017188 
L 327.833265 242.017188 
L 327.833265 236.480236 
L 321.338856 236.480236 
z
" clip-path="url(#p48afbc9fe3)" style="fill: #333333; fill-opacity: 0.6; stroke: #000000; stroke-width: 0.74235; stroke-linejoin: miter"/>
   </g>
   <g id="patch_37">
    <path d="M 327.833265 242.017188 
L 334.327673 242.017188 
L 334.327673 237.39138 
L 327.833265 237.39138 
z
" clip-path="url(#p48afbc9fe3)" style="fill: #333333; fill-opacity: 0.6; stroke: #000000; stroke-width: 0.74235; stroke-linejoin: miter"/>
   </g>
   <g id="patch_38">
    <path d="M 334.327673 242.017188 
L 340.822082 242.017188 
L 340.822082 238.232436 
L 334.327673 238.232436 
z
" clip-path="url(#p48afbc9fe3)" style="fill: #333333; fill-opacity: 0.6; stroke: #000000; stroke-width: 0.74235; stroke-linejoin: miter"/>
   </g>
   <g id="patch_39">
    <path d="M 340.822082 242.017188 
L 347.31649 242.017188 
L 347.31649 237.881996 
L 340.822082 237.881996 
z
" clip-path="url(#p48afbc9fe3)" style="fill: #333333; fill-opacity: 0.6; stroke: #000000; stroke-width: 0.74235; stroke-linejoin: miter"/>
   </g>
   <g id="patch_40">
    <path d="M 347.31649 242.017188 
L 353.810899 242.017188 
L 353.810899 237.111028 
L 347.31649 237.111028 
z
" clip-path="url(#p48afbc9fe3)" style="fill: #333333; fill-opacity: 0.6; stroke: #000000; stroke-width: 0.74235; stroke-linejoin: miter"/>
   </g>
   <g id="patch_41">
    <path d="M 353.810899 242.017188 
L 360.305307 242.017188 
L 360.305307 237.461468 
L 353.810899 237.461468 
z
" clip-path="url(#p48afbc9fe3)" style="fill: #333333; fill-opacity: 0.6; stroke: #000000; stroke-width: 0.74235; stroke-linejoin: miter"/>
   </g>
   <g id="patch_42">
    <path d="M 360.305307 242.017188 
L 366.799716 242.017188 
L 366.799716 231.854428 
L 360.305307 231.854428 
z
" clip-path="url(#p48afbc9fe3)" style="fill: #333333; fill-opacity: 0.6; stroke: #000000; stroke-width: 0.74235; stroke-linejoin: miter"/>
   </g>
   <g id="patch_43">
    <path d="M 366.799716 242.017188 
L 373.294125 242.017188 
L 373.294125 231.223636 
L 366.799716 231.223636 
z
" clip-path="url(#p48afbc9fe3)" style="fill: #333333; fill-opacity: 0.6; stroke: #000000; stroke-width: 0.74235; stroke-linejoin: miter"/>
   </g>
   <g id="matplotlib.axis_1">
    <g id="xtick_1">
     <g id="line2d_1">
      <defs>
       <path id="m002fec95d5" d="M 0 0 
L 0 3.5 
" style="stroke: #000000; stroke-width: 0.8"/>
      </defs>
      <g>
       <use xlink:href="#m002fec95d5" x="106.978176" y="242.017188" style="stroke: #000000; stroke-width: 0.8"/>
      </g>
     </g>
     <g id="text_1">
      <!-- 0 -->
      <g transform="translate(103.796926 256.615625) scale(0.1 -0.1)">
       <defs>
        <path id="DejaVuSans-30" d="M 2034 4250 
Q 1547 4250 1301 3770 
Q 1056 3291 1056 2328 
Q 1056 1369 1301 889 
Q 1547 409 2034 409 
Q 2525 409 2770 889 
Q 3016 1369 3016 2328 
Q 3016 3291 2770 3770 
Q 2525 4250 2034 4250 
z
M 2034 4750 
Q 2819 4750 3233 4129 
Q 3647 3509 3647 2328 
Q 3647 1150 3233 529 
Q 2819 -91 2034 -91 
Q 1250 -91 836 529 
Q 422 1150 422 2328 
Q 422 3509 836 4129 
Q 1250 4750 2034 4750 
z
" transform="scale(0.015625)"/>
       </defs>
       <use xlink:href="#DejaVuSans-30"/>
      </g>
     </g>
    </g>
    <g id="xtick_2">
     <g id="line2d_2">
      <g>
       <use xlink:href="#m002fec95d5" x="152.17776" y="242.017188" style="stroke: #000000; stroke-width: 0.8"/>
      </g>
     </g>
     <g id="text_2">
      <!-- 1000 -->
      <g transform="translate(139.45276 256.615625) scale(0.1 -0.1)">
       <defs>
        <path id="DejaVuSans-31" d="M 794 531 
L 1825 531 
L 1825 4091 
L 703 3866 
L 703 4441 
L 1819 4666 
L 2450 4666 
L 2450 531 
L 3481 531 
L 3481 0 
L 794 0 
L 794 531 
z
" transform="scale(0.015625)"/>
       </defs>
       <use xlink:href="#DejaVuSans-31"/>
       <use xlink:href="#DejaVuSans-30" x="63.623047"/>
       <use xlink:href="#DejaVuSans-30" x="127.246094"/>
       <use xlink:href="#DejaVuSans-30" x="190.869141"/>
      </g>
     </g>
    </g>
    <g id="xtick_3">
     <g id="line2d_3">
      <g>
       <use xlink:href="#m002fec95d5" x="197.377344" y="242.017188" style="stroke: #000000; stroke-width: 0.8"/>
      </g>
     </g>
     <g id="text_3">
      <!-- 2000 -->
      <g transform="translate(184.652344 256.615625) scale(0.1 -0.1)">
       <defs>
        <path id="DejaVuSans-32" d="M 1228 531 
L 3431 531 
L 3431 0 
L 469 0 
L 469 531 
Q 828 903 1448 1529 
Q 2069 2156 2228 2338 
Q 2531 2678 2651 2914 
Q 2772 3150 2772 3378 
Q 2772 3750 2511 3984 
Q 2250 4219 1831 4219 
Q 1534 4219 1204 4116 
Q 875 4013 500 3803 
L 500 4441 
Q 881 4594 1212 4672 
Q 1544 4750 1819 4750 
Q 2544 4750 2975 4387 
Q 3406 4025 3406 3419 
Q 3406 3131 3298 2873 
Q 3191 2616 2906 2266 
Q 2828 2175 2409 1742 
Q 1991 1309 1228 531 
z
" transform="scale(0.015625)"/>
       </defs>
       <use xlink:href="#DejaVuSans-32"/>
       <use xlink:href="#DejaVuSans-30" x="63.623047"/>
       <use xlink:href="#DejaVuSans-30" x="127.246094"/>
       <use xlink:href="#DejaVuSans-30" x="190.869141"/>
      </g>
     </g>
    </g>
    <g id="xtick_4">
     <g id="line2d_4">
      <g>
       <use xlink:href="#m002fec95d5" x="242.576928" y="242.017188" style="stroke: #000000; stroke-width: 0.8"/>
      </g>
     </g>
     <g id="text_4">
      <!-- 3000 -->
      <g transform="translate(229.851928 256.615625) scale(0.1 -0.1)">
       <defs>
        <path id="DejaVuSans-33" d="M 2597 2516 
Q 3050 2419 3304 2112 
Q 3559 1806 3559 1356 
Q 3559 666 3084 287 
Q 2609 -91 1734 -91 
Q 1441 -91 1130 -33 
Q 819 25 488 141 
L 488 750 
Q 750 597 1062 519 
Q 1375 441 1716 441 
Q 2309 441 2620 675 
Q 2931 909 2931 1356 
Q 2931 1769 2642 2001 
Q 2353 2234 1838 2234 
L 1294 2234 
L 1294 2753 
L 1863 2753 
Q 2328 2753 2575 2939 
Q 2822 3125 2822 3475 
Q 2822 3834 2567 4026 
Q 2313 4219 1838 4219 
Q 1578 4219 1281 4162 
Q 984 4106 628 3988 
L 628 4550 
Q 988 4650 1302 4700 
Q 1616 4750 1894 4750 
Q 2613 4750 3031 4423 
Q 3450 4097 3450 3541 
Q 3450 3153 3228 2886 
Q 3006 2619 2597 2516 
z
" transform="scale(0.015625)"/>
       </defs>
       <use xlink:href="#DejaVuSans-33"/>
       <use xlink:href="#DejaVuSans-30" x="63.623047"/>
       <use xlink:href="#DejaVuSans-30" x="127.246094"/>
       <use xlink:href="#DejaVuSans-30" x="190.869141"/>
      </g>
     </g>
    </g>
    <g id="xtick_5">
     <g id="line2d_5">
      <g>
       <use xlink:href="#m002fec95d5" x="287.776512" y="242.017188" style="stroke: #000000; stroke-width: 0.8"/>
      </g>
     </g>
     <g id="text_5">
      <!-- 4000 -->
      <g transform="translate(275.051512 256.615625) scale(0.1 -0.1)">
       <defs>
        <path id="DejaVuSans-34" d="M 2419 4116 
L 825 1625 
L 2419 1625 
L 2419 4116 
z
M 2253 4666 
L 3047 4666 
L 3047 1625 
L 3713 1625 
L 3713 1100 
L 3047 1100 
L 3047 0 
L 2419 0 
L 2419 1100 
L 313 1100 
L 313 1709 
L 2253 4666 
z
" transform="scale(0.015625)"/>
       </defs>
       <use xlink:href="#DejaVuSans-34"/>
       <use xlink:href="#DejaVuSans-30" x="63.623047"/>
       <use xlink:href="#DejaVuSans-30" x="127.246094"/>
       <use xlink:href="#DejaVuSans-30" x="190.869141"/>
      </g>
     </g>
    </g>
    <g id="xtick_6">
     <g id="line2d_6">
      <g>
       <use xlink:href="#m002fec95d5" x="332.976096" y="242.017188" style="stroke: #000000; stroke-width: 0.8"/>
      </g>
     </g>
     <g id="text_6">
      <!-- 5000 -->
      <g transform="translate(320.251096 256.615625) scale(0.1 -0.1)">
       <defs>
        <path id="DejaVuSans-35" d="M 691 4666 
L 3169 4666 
L 3169 4134 
L 1269 4134 
L 1269 2991 
Q 1406 3038 1543 3061 
Q 1681 3084 1819 3084 
Q 2600 3084 3056 2656 
Q 3513 2228 3513 1497 
Q 3513 744 3044 326 
Q 2575 -91 1722 -91 
Q 1428 -91 1123 -41 
Q 819 9 494 109 
L 494 744 
Q 775 591 1075 516 
Q 1375 441 1709 441 
Q 2250 441 2565 725 
Q 2881 1009 2881 1497 
Q 2881 1984 2565 2268 
Q 2250 2553 1709 2553 
Q 1456 2553 1204 2497 
Q 953 2441 691 2322 
L 691 4666 
z
" transform="scale(0.015625)"/>
       </defs>
       <use xlink:href="#DejaVuSans-35"/>
       <use xlink:href="#DejaVuSans-30" x="63.623047"/>
       <use xlink:href="#DejaVuSans-30" x="127.246094"/>
       <use xlink:href="#DejaVuSans-30" x="190.869141"/>
      </g>
     </g>
    </g>
    <g id="xtick_7">
     <g id="line2d_7">
      <g>
       <use xlink:href="#m002fec95d5" x="378.17568" y="242.017188" style="stroke: #000000; stroke-width: 0.8"/>
      </g>
     </g>
     <g id="text_7">
      <!-- 6000 -->
      <g transform="translate(365.45068 256.615625) scale(0.1 -0.1)">
       <defs>
        <path id="DejaVuSans-36" d="M 2113 2584 
Q 1688 2584 1439 2293 
Q 1191 2003 1191 1497 
Q 1191 994 1439 701 
Q 1688 409 2113 409 
Q 2538 409 2786 701 
Q 3034 994 3034 1497 
Q 3034 2003 2786 2293 
Q 2538 2584 2113 2584 
z
M 3366 4563 
L 3366 3988 
Q 3128 4100 2886 4159 
Q 2644 4219 2406 4219 
Q 1781 4219 1451 3797 
Q 1122 3375 1075 2522 
Q 1259 2794 1537 2939 
Q 1816 3084 2150 3084 
Q 2853 3084 3261 2657 
Q 3669 2231 3669 1497 
Q 3669 778 3244 343 
Q 2819 -91 2113 -91 
Q 1303 -91 875 529 
Q 447 1150 447 2328 
Q 447 3434 972 4092 
Q 1497 4750 2381 4750 
Q 2619 4750 2861 4703 
Q 3103 4656 3366 4563 
z
" transform="scale(0.015625)"/>
       </defs>
       <use xlink:href="#DejaVuSans-36"/>
       <use xlink:href="#DejaVuSans-30" x="63.623047"/>
       <use xlink:href="#DejaVuSans-30" x="127.246094"/>
       <use xlink:href="#DejaVuSans-30" x="190.869141"/>
      </g>
     </g>
    </g>
    <g id="text_8">
     <!-- ESRD_dur -->
     <g transform="translate(215.6025 270.29375) scale(0.1 -0.1)">
      <defs>
       <path id="DejaVuSans-45" d="M 628 4666 
L 3578 4666 
L 3578 4134 
L 1259 4134 
L 1259 2753 
L 3481 2753 
L 3481 2222 
L 1259 2222 
L 1259 531 
L 3634 531 
L 3634 0 
L 628 0 
L 628 4666 
z
" transform="scale(0.015625)"/>
       <path id="DejaVuSans-53" d="M 3425 4513 
L 3425 3897 
Q 3066 4069 2747 4153 
Q 2428 4238 2131 4238 
Q 1616 4238 1336 4038 
Q 1056 3838 1056 3469 
Q 1056 3159 1242 3001 
Q 1428 2844 1947 2747 
L 2328 2669 
Q 3034 2534 3370 2195 
Q 3706 1856 3706 1288 
Q 3706 609 3251 259 
Q 2797 -91 1919 -91 
Q 1588 -91 1214 -16 
Q 841 59 441 206 
L 441 856 
Q 825 641 1194 531 
Q 1563 422 1919 422 
Q 2459 422 2753 634 
Q 3047 847 3047 1241 
Q 3047 1584 2836 1778 
Q 2625 1972 2144 2069 
L 1759 2144 
Q 1053 2284 737 2584 
Q 422 2884 422 3419 
Q 422 4038 858 4394 
Q 1294 4750 2059 4750 
Q 2388 4750 2728 4690 
Q 3069 4631 3425 4513 
z
" transform="scale(0.015625)"/>
       <path id="DejaVuSans-52" d="M 2841 2188 
Q 3044 2119 3236 1894 
Q 3428 1669 3622 1275 
L 4263 0 
L 3584 0 
L 2988 1197 
Q 2756 1666 2539 1819 
Q 2322 1972 1947 1972 
L 1259 1972 
L 1259 0 
L 628 0 
L 628 4666 
L 2053 4666 
Q 2853 4666 3247 4331 
Q 3641 3997 3641 3322 
Q 3641 2881 3436 2590 
Q 3231 2300 2841 2188 
z
M 1259 4147 
L 1259 2491 
L 2053 2491 
Q 2509 2491 2742 2702 
Q 2975 2913 2975 3322 
Q 2975 3731 2742 3939 
Q 2509 4147 2053 4147 
L 1259 4147 
z
" transform="scale(0.015625)"/>
       <path id="DejaVuSans-44" d="M 1259 4147 
L 1259 519 
L 2022 519 
Q 2988 519 3436 956 
Q 3884 1394 3884 2338 
Q 3884 3275 3436 3711 
Q 2988 4147 2022 4147 
L 1259 4147 
z
M 628 4666 
L 1925 4666 
Q 3281 4666 3915 4102 
Q 4550 3538 4550 2338 
Q 4550 1131 3912 565 
Q 3275 0 1925 0 
L 628 0 
L 628 4666 
z
" transform="scale(0.015625)"/>
       <path id="DejaVuSans-5f" d="M 3263 -1063 
L 3263 -1509 
L -63 -1509 
L -63 -1063 
L 3263 -1063 
z
" transform="scale(0.015625)"/>
       <path id="DejaVuSans-64" d="M 2906 2969 
L 2906 4863 
L 3481 4863 
L 3481 0 
L 2906 0 
L 2906 525 
Q 2725 213 2448 61 
Q 2172 -91 1784 -91 
Q 1150 -91 751 415 
Q 353 922 353 1747 
Q 353 2572 751 3078 
Q 1150 3584 1784 3584 
Q 2172 3584 2448 3432 
Q 2725 3281 2906 2969 
z
M 947 1747 
Q 947 1113 1208 752 
Q 1469 391 1925 391 
Q 2381 391 2643 752 
Q 2906 1113 2906 1747 
Q 2906 2381 2643 2742 
Q 2381 3103 1925 3103 
Q 1469 3103 1208 2742 
Q 947 2381 947 1747 
z
" transform="scale(0.015625)"/>
       <path id="DejaVuSans-75" d="M 544 1381 
L 544 3500 
L 1119 3500 
L 1119 1403 
Q 1119 906 1312 657 
Q 1506 409 1894 409 
Q 2359 409 2629 706 
Q 2900 1003 2900 1516 
L 2900 3500 
L 3475 3500 
L 3475 0 
L 2900 0 
L 2900 538 
Q 2691 219 2414 64 
Q 2138 -91 1772 -91 
Q 1169 -91 856 284 
Q 544 659 544 1381 
z
M 1991 3584 
L 1991 3584 
z
" transform="scale(0.015625)"/>
       <path id="DejaVuSans-72" d="M 2631 2963 
Q 2534 3019 2420 3045 
Q 2306 3072 2169 3072 
Q 1681 3072 1420 2755 
Q 1159 2438 1159 1844 
L 1159 0 
L 581 0 
L 581 3500 
L 1159 3500 
L 1159 2956 
Q 1341 3275 1631 3429 
Q 1922 3584 2338 3584 
Q 2397 3584 2469 3576 
Q 2541 3569 2628 3553 
L 2631 2963 
z
" transform="scale(0.015625)"/>
      </defs>
      <use xlink:href="#DejaVuSans-45"/>
      <use xlink:href="#DejaVuSans-53" x="63.183594"/>
      <use xlink:href="#DejaVuSans-52" x="126.660156"/>
      <use xlink:href="#DejaVuSans-44" x="196.142578"/>
      <use xlink:href="#DejaVuSans-5f" x="273.144531"/>
      <use xlink:href="#DejaVuSans-64" x="323.144531"/>
      <use xlink:href="#DejaVuSans-75" x="386.621094"/>
      <use xlink:href="#DejaVuSans-72" x="450"/>
     </g>
    </g>
   </g>
   <g id="matplotlib.axis_2">
    <g id="ytick_1">
     <g id="line2d_8">
      <defs>
       <path id="mf8f972527f" d="M 0 0 
L -3.5 0 
" style="stroke: #000000; stroke-width: 0.8"/>
      </defs>
      <g>
       <use xlink:href="#mf8f972527f" x="62.86875" y="242.017188" style="stroke: #000000; stroke-width: 0.8"/>
      </g>
     </g>
     <g id="text_9">
      <!-- 0.0000 -->
      <g transform="translate(20.878125 245.816406) scale(0.1 -0.1)">
       <defs>
        <path id="DejaVuSans-2e" d="M 684 794 
L 1344 794 
L 1344 0 
L 684 0 
L 684 794 
z
" transform="scale(0.015625)"/>
       </defs>
       <use xlink:href="#DejaVuSans-30"/>
       <use xlink:href="#DejaVuSans-2e" x="63.623047"/>
       <use xlink:href="#DejaVuSans-30" x="95.410156"/>
       <use xlink:href="#DejaVuSans-30" x="159.033203"/>
       <use xlink:href="#DejaVuSans-30" x="222.65625"/>
       <use xlink:href="#DejaVuSans-30" x="286.279297"/>
      </g>
     </g>
    </g>
    <g id="ytick_2">
     <g id="line2d_9">
      <g>
       <use xlink:href="#mf8f972527f" x="62.86875" y="208.54503" style="stroke: #000000; stroke-width: 0.8"/>
      </g>
     </g>
     <g id="text_10">
      <!-- 0.0002 -->
      <g transform="translate(20.878125 212.344249) scale(0.1 -0.1)">
       <use xlink:href="#DejaVuSans-30"/>
       <use xlink:href="#DejaVuSans-2e" x="63.623047"/>
       <use xlink:href="#DejaVuSans-30" x="95.410156"/>
       <use xlink:href="#DejaVuSans-30" x="159.033203"/>
       <use xlink:href="#DejaVuSans-30" x="222.65625"/>
       <use xlink:href="#DejaVuSans-32" x="286.279297"/>
      </g>
     </g>
    </g>
    <g id="ytick_3">
     <g id="line2d_10">
      <g>
       <use xlink:href="#mf8f972527f" x="62.86875" y="175.072872" style="stroke: #000000; stroke-width: 0.8"/>
      </g>
     </g>
     <g id="text_11">
      <!-- 0.0004 -->
      <g transform="translate(20.878125 178.872091) scale(0.1 -0.1)">
       <use xlink:href="#DejaVuSans-30"/>
       <use xlink:href="#DejaVuSans-2e" x="63.623047"/>
       <use xlink:href="#DejaVuSans-30" x="95.410156"/>
       <use xlink:href="#DejaVuSans-30" x="159.033203"/>
       <use xlink:href="#DejaVuSans-30" x="222.65625"/>
       <use xlink:href="#DejaVuSans-34" x="286.279297"/>
      </g>
     </g>
    </g>
    <g id="ytick_4">
     <g id="line2d_11">
      <g>
       <use xlink:href="#mf8f972527f" x="62.86875" y="141.600715" style="stroke: #000000; stroke-width: 0.8"/>
      </g>
     </g>
     <g id="text_12">
      <!-- 0.0006 -->
      <g transform="translate(20.878125 145.399933) scale(0.1 -0.1)">
       <use xlink:href="#DejaVuSans-30"/>
       <use xlink:href="#DejaVuSans-2e" x="63.623047"/>
       <use xlink:href="#DejaVuSans-30" x="95.410156"/>
       <use xlink:href="#DejaVuSans-30" x="159.033203"/>
       <use xlink:href="#DejaVuSans-30" x="222.65625"/>
       <use xlink:href="#DejaVuSans-36" x="286.279297"/>
      </g>
     </g>
    </g>
    <g id="ytick_5">
     <g id="line2d_12">
      <g>
       <use xlink:href="#mf8f972527f" x="62.86875" y="108.128557" style="stroke: #000000; stroke-width: 0.8"/>
      </g>
     </g>
     <g id="text_13">
      <!-- 0.0008 -->
      <g transform="translate(20.878125 111.927776) scale(0.1 -0.1)">
       <defs>
        <path id="DejaVuSans-38" d="M 2034 2216 
Q 1584 2216 1326 1975 
Q 1069 1734 1069 1313 
Q 1069 891 1326 650 
Q 1584 409 2034 409 
Q 2484 409 2743 651 
Q 3003 894 3003 1313 
Q 3003 1734 2745 1975 
Q 2488 2216 2034 2216 
z
M 1403 2484 
Q 997 2584 770 2862 
Q 544 3141 544 3541 
Q 544 4100 942 4425 
Q 1341 4750 2034 4750 
Q 2731 4750 3128 4425 
Q 3525 4100 3525 3541 
Q 3525 3141 3298 2862 
Q 3072 2584 2669 2484 
Q 3125 2378 3379 2068 
Q 3634 1759 3634 1313 
Q 3634 634 3220 271 
Q 2806 -91 2034 -91 
Q 1263 -91 848 271 
Q 434 634 434 1313 
Q 434 1759 690 2068 
Q 947 2378 1403 2484 
z
M 1172 3481 
Q 1172 3119 1398 2916 
Q 1625 2713 2034 2713 
Q 2441 2713 2670 2916 
Q 2900 3119 2900 3481 
Q 2900 3844 2670 4047 
Q 2441 4250 2034 4250 
Q 1625 4250 1398 4047 
Q 1172 3844 1172 3481 
z
" transform="scale(0.015625)"/>
       </defs>
       <use xlink:href="#DejaVuSans-30"/>
       <use xlink:href="#DejaVuSans-2e" x="63.623047"/>
       <use xlink:href="#DejaVuSans-30" x="95.410156"/>
       <use xlink:href="#DejaVuSans-30" x="159.033203"/>
       <use xlink:href="#DejaVuSans-30" x="222.65625"/>
       <use xlink:href="#DejaVuSans-38" x="286.279297"/>
      </g>
     </g>
    </g>
    <g id="ytick_6">
     <g id="line2d_13">
      <g>
       <use xlink:href="#mf8f972527f" x="62.86875" y="74.656399" style="stroke: #000000; stroke-width: 0.8"/>
      </g>
     </g>
     <g id="text_14">
      <!-- 0.0010 -->
      <g transform="translate(20.878125 78.455618) scale(0.1 -0.1)">
       <use xlink:href="#DejaVuSans-30"/>
       <use xlink:href="#DejaVuSans-2e" x="63.623047"/>
       <use xlink:href="#DejaVuSans-30" x="95.410156"/>
       <use xlink:href="#DejaVuSans-30" x="159.033203"/>
       <use xlink:href="#DejaVuSans-31" x="222.65625"/>
       <use xlink:href="#DejaVuSans-30" x="286.279297"/>
      </g>
     </g>
    </g>
    <g id="ytick_7">
     <g id="line2d_14">
      <g>
       <use xlink:href="#mf8f972527f" x="62.86875" y="41.184242" style="stroke: #000000; stroke-width: 0.8"/>
      </g>
     </g>
     <g id="text_15">
      <!-- 0.0012 -->
      <g transform="translate(20.878125 44.98346) scale(0.1 -0.1)">
       <use xlink:href="#DejaVuSans-30"/>
       <use xlink:href="#DejaVuSans-2e" x="63.623047"/>
       <use xlink:href="#DejaVuSans-30" x="95.410156"/>
       <use xlink:href="#DejaVuSans-30" x="159.033203"/>
       <use xlink:href="#DejaVuSans-31" x="222.65625"/>
       <use xlink:href="#DejaVuSans-32" x="286.279297"/>
      </g>
     </g>
    </g>
    <g id="text_16">
     <!-- Density -->
     <g transform="translate(14.798438 150.416406) rotate(-90) scale(0.1 -0.1)">
      <defs>
       <path id="DejaVuSans-65" d="M 3597 1894 
L 3597 1613 
L 953 1613 
Q 991 1019 1311 708 
Q 1631 397 2203 397 
Q 2534 397 2845 478 
Q 3156 559 3463 722 
L 3463 178 
Q 3153 47 2828 -22 
Q 2503 -91 2169 -91 
Q 1331 -91 842 396 
Q 353 884 353 1716 
Q 353 2575 817 3079 
Q 1281 3584 2069 3584 
Q 2775 3584 3186 3129 
Q 3597 2675 3597 1894 
z
M 3022 2063 
Q 3016 2534 2758 2815 
Q 2500 3097 2075 3097 
Q 1594 3097 1305 2825 
Q 1016 2553 972 2059 
L 3022 2063 
z
" transform="scale(0.015625)"/>
       <path id="DejaVuSans-6e" d="M 3513 2113 
L 3513 0 
L 2938 0 
L 2938 2094 
Q 2938 2591 2744 2837 
Q 2550 3084 2163 3084 
Q 1697 3084 1428 2787 
Q 1159 2491 1159 1978 
L 1159 0 
L 581 0 
L 581 3500 
L 1159 3500 
L 1159 2956 
Q 1366 3272 1645 3428 
Q 1925 3584 2291 3584 
Q 2894 3584 3203 3211 
Q 3513 2838 3513 2113 
z
" transform="scale(0.015625)"/>
       <path id="DejaVuSans-73" d="M 2834 3397 
L 2834 2853 
Q 2591 2978 2328 3040 
Q 2066 3103 1784 3103 
Q 1356 3103 1142 2972 
Q 928 2841 928 2578 
Q 928 2378 1081 2264 
Q 1234 2150 1697 2047 
L 1894 2003 
Q 2506 1872 2764 1633 
Q 3022 1394 3022 966 
Q 3022 478 2636 193 
Q 2250 -91 1575 -91 
Q 1294 -91 989 -36 
Q 684 19 347 128 
L 347 722 
Q 666 556 975 473 
Q 1284 391 1588 391 
Q 1994 391 2212 530 
Q 2431 669 2431 922 
Q 2431 1156 2273 1281 
Q 2116 1406 1581 1522 
L 1381 1569 
Q 847 1681 609 1914 
Q 372 2147 372 2553 
Q 372 3047 722 3315 
Q 1072 3584 1716 3584 
Q 2034 3584 2315 3537 
Q 2597 3491 2834 3397 
z
" transform="scale(0.015625)"/>
       <path id="DejaVuSans-69" d="M 603 3500 
L 1178 3500 
L 1178 0 
L 603 0 
L 603 3500 
z
M 603 4863 
L 1178 4863 
L 1178 4134 
L 603 4134 
L 603 4863 
z
" transform="scale(0.015625)"/>
       <path id="DejaVuSans-74" d="M 1172 4494 
L 1172 3500 
L 2356 3500 
L 2356 3053 
L 1172 3053 
L 1172 1153 
Q 1172 725 1289 603 
Q 1406 481 1766 481 
L 2356 481 
L 2356 0 
L 1766 0 
Q 1100 0 847 248 
Q 594 497 594 1153 
L 594 3053 
L 172 3053 
L 172 3500 
L 594 3500 
L 594 4494 
L 1172 4494 
z
" transform="scale(0.015625)"/>
       <path id="DejaVuSans-79" d="M 2059 -325 
Q 1816 -950 1584 -1140 
Q 1353 -1331 966 -1331 
L 506 -1331 
L 506 -850 
L 844 -850 
Q 1081 -850 1212 -737 
Q 1344 -625 1503 -206 
L 1606 56 
L 191 3500 
L 800 3500 
L 1894 763 
L 2988 3500 
L 3597 3500 
L 2059 -325 
z
" transform="scale(0.015625)"/>
      </defs>
      <use xlink:href="#DejaVuSans-44"/>
      <use xlink:href="#DejaVuSans-65" x="77.001953"/>
      <use xlink:href="#DejaVuSans-6e" x="138.525391"/>
      <use xlink:href="#DejaVuSans-73" x="201.904297"/>
      <use xlink:href="#DejaVuSans-69" x="254.003906"/>
      <use xlink:href="#DejaVuSans-74" x="281.787109"/>
      <use xlink:href="#DejaVuSans-79" x="320.996094"/>
     </g>
    </g>
   </g>
   <g id="line2d_15">
    <path d="M 78.986023 241.710484 
L 80.605849 241.487731 
L 82.225676 241.128944 
L 83.845502 240.568825 
L 85.465328 239.721437 
L 87.085155 238.479331 
L 88.704981 236.715689 
L 90.324808 234.290653 
L 91.944634 231.062626 
L 93.56446 226.904583 
L 95.184287 221.724311 
L 96.804113 215.486273 
L 98.42394 208.231631 
L 100.043766 200.092348 
L 103.283419 182.154936 
L 106.523072 164.391575 
L 108.142898 156.583482 
L 109.762724 149.97944 
L 111.382551 144.847791 
L 113.002377 141.346369 
L 114.622204 139.512242 
L 116.24203 139.26701 
L 117.861856 140.435667 
L 119.481683 142.774834 
L 121.101509 146.005068 
L 122.721336 149.841999 
L 129.200641 166.620319 
L 130.820468 170.415333 
L 132.440294 173.906215 
L 134.06012 177.081022 
L 135.679947 179.94784 
L 137.299773 182.526849 
L 138.9196 184.844227 
L 140.539426 186.927966 
L 142.159253 188.805416 
L 145.398905 192.041529 
L 148.638558 194.732525 
L 151.878211 197.029707 
L 155.117864 199.057296 
L 159.977343 201.786826 
L 164.836822 204.283222 
L 169.696301 206.592427 
L 176.175607 209.385775 
L 182.654913 211.922281 
L 190.754045 214.856664 
L 195.613524 216.432619 
L 202.092829 218.26629 
L 223.150573 223.773534 
L 229.629878 225.041163 
L 236.109184 226.086587 
L 245.828142 227.347607 
L 253.927274 228.489497 
L 263.646233 229.854029 
L 297.662587 233.912828 
L 305.761719 234.479935 
L 317.100504 235.195181 
L 321.959983 235.728307 
L 333.298768 237.186163 
L 338.158247 237.49483 
L 343.017727 237.482921 
L 346.25738 237.28254 
L 349.497032 236.91985 
L 354.356512 236.115907 
L 359.215991 235.279965 
L 362.455644 234.9909 
L 364.07547 234.997108 
L 365.695296 235.125048 
L 367.315123 235.380118 
L 370.554776 236.242821 
L 373.794428 237.437639 
L 378.653908 239.335207 
L 381.89356 240.370209 
L 385.133213 241.109315 
L 388.372866 241.568817 
L 391.612519 241.819075 
L 396.471998 241.970066 
L 401.331477 242.008506 
L 401.331477 242.008506 
" clip-path="url(#p48afbc9fe3)" style="fill: none; stroke: #ff0000; stroke-width: 1.5; stroke-linecap: square"/>
   </g>
   <g id="patch_44">
    <path d="M 62.86875 242.017188 
L 62.86875 20.798437 
" style="fill: none; stroke: #000000; stroke-width: 0.8; stroke-linejoin: miter; stroke-linecap: square"/>
   </g>
   <g id="patch_45">
    <path d="M 417.44875 242.017188 
L 417.44875 20.798437 
" style="fill: none; stroke: #000000; stroke-width: 0.8; stroke-linejoin: miter; stroke-linecap: square"/>
   </g>
   <g id="patch_46">
    <path d="M 62.86875 242.017188 
L 417.44875 242.017188 
" style="fill: none; stroke: #000000; stroke-width: 0.8; stroke-linejoin: miter; stroke-linecap: square"/>
   </g>
   <g id="patch_47">
    <path d="M 62.86875 20.798437 
L 417.44875 20.798437 
" style="fill: none; stroke: #000000; stroke-width: 0.8; stroke-linejoin: miter; stroke-linecap: square"/>
   </g>
   <g id="text_17">
    <!-- Distribution of ESRD_dur -->
    <g transform="translate(178.436094 14.798437) scale(0.1 -0.1)">
     <defs>
      <path id="DejaVuSans-62" d="M 3116 1747 
Q 3116 2381 2855 2742 
Q 2594 3103 2138 3103 
Q 1681 3103 1420 2742 
Q 1159 2381 1159 1747 
Q 1159 1113 1420 752 
Q 1681 391 2138 391 
Q 2594 391 2855 752 
Q 3116 1113 3116 1747 
z
M 1159 2969 
Q 1341 3281 1617 3432 
Q 1894 3584 2278 3584 
Q 2916 3584 3314 3078 
Q 3713 2572 3713 1747 
Q 3713 922 3314 415 
Q 2916 -91 2278 -91 
Q 1894 -91 1617 61 
Q 1341 213 1159 525 
L 1159 0 
L 581 0 
L 581 4863 
L 1159 4863 
L 1159 2969 
z
" transform="scale(0.015625)"/>
      <path id="DejaVuSans-6f" d="M 1959 3097 
Q 1497 3097 1228 2736 
Q 959 2375 959 1747 
Q 959 1119 1226 758 
Q 1494 397 1959 397 
Q 2419 397 2687 759 
Q 2956 1122 2956 1747 
Q 2956 2369 2687 2733 
Q 2419 3097 1959 3097 
z
M 1959 3584 
Q 2709 3584 3137 3096 
Q 3566 2609 3566 1747 
Q 3566 888 3137 398 
Q 2709 -91 1959 -91 
Q 1206 -91 779 398 
Q 353 888 353 1747 
Q 353 2609 779 3096 
Q 1206 3584 1959 3584 
z
" transform="scale(0.015625)"/>
      <path id="DejaVuSans-20" transform="scale(0.015625)"/>
      <path id="DejaVuSans-66" d="M 2375 4863 
L 2375 4384 
L 1825 4384 
Q 1516 4384 1395 4259 
Q 1275 4134 1275 3809 
L 1275 3500 
L 2222 3500 
L 2222 3053 
L 1275 3053 
L 1275 0 
L 697 0 
L 697 3053 
L 147 3053 
L 147 3500 
L 697 3500 
L 697 3744 
Q 697 4328 969 4595 
Q 1241 4863 1831 4863 
L 2375 4863 
z
" transform="scale(0.015625)"/>
     </defs>
     <use xlink:href="#DejaVuSans-44"/>
     <use xlink:href="#DejaVuSans-69" x="77.001953"/>
     <use xlink:href="#DejaVuSans-73" x="104.785156"/>
     <use xlink:href="#DejaVuSans-74" x="156.884766"/>
     <use xlink:href="#DejaVuSans-72" x="196.09375"/>
     <use xlink:href="#DejaVuSans-69" x="237.207031"/>
     <use xlink:href="#DejaVuSans-62" x="264.990234"/>
     <use xlink:href="#DejaVuSans-75" x="328.466797"/>
     <use xlink:href="#DejaVuSans-74" x="391.845703"/>
     <use xlink:href="#DejaVuSans-69" x="431.054688"/>
     <use xlink:href="#DejaVuSans-6f" x="458.837891"/>
     <use xlink:href="#DejaVuSans-6e" x="520.019531"/>
     <use xlink:href="#DejaVuSans-20" x="583.398438"/>
     <use xlink:href="#DejaVuSans-6f" x="615.185547"/>
     <use xlink:href="#DejaVuSans-66" x="676.367188"/>
     <use xlink:href="#DejaVuSans-20" x="711.572266"/>
     <use xlink:href="#DejaVuSans-45" x="743.359375"/>
     <use xlink:href="#DejaVuSans-53" x="806.542969"/>
     <use xlink:href="#DejaVuSans-52" x="870.019531"/>
     <use xlink:href="#DejaVuSans-44" x="939.501953"/>
     <use xlink:href="#DejaVuSans-5f" x="1016.503906"/>
     <use xlink:href="#DejaVuSans-64" x="1066.503906"/>
     <use xlink:href="#DejaVuSans-75" x="1129.980469"/>
     <use xlink:href="#DejaVuSans-72" x="1193.359375"/>
    </g>
   </g>
  </g>
 </g>
 <defs>
  <clipPath id="p48afbc9fe3">
   <rect x="62.86875" y="20.798437" width="354.58" height="221.21875"/>
  </clipPath>
 </defs>
</svg>
