<?xml version="1.0" encoding="utf-8" standalone="no"?>
<!DOCTYPE svg PUBLIC "-//W3C//DTD SVG 1.1//EN"
  "http://www.w3.org/Graphics/SVG/1.1/DTD/svg11.dtd">
<svg xmlns:xlink="http://www.w3.org/1999/xlink" width="856.46125pt" height="423.034375pt" viewBox="0 0 856.46125 423.034375" xmlns="http://www.w3.org/2000/svg" version="1.1">
 <metadata>
  <rdf:RDF xmlns:dc="http://purl.org/dc/elements/1.1/" xmlns:cc="http://creativecommons.org/ns#" xmlns:rdf="http://www.w3.org/1999/02/22-rdf-syntax-ns#">
   <cc:Work>
    <dc:type rdf:resource="http://purl.org/dc/dcmitype/StillImage"/>
    <dc:date>2024-07-14T14:35:22.534836</dc:date>
    <dc:format>image/svg+xml</dc:format>
    <dc:creator>
     <cc:Agent>
      <dc:title>Matplotlib v3.9.0, https://matplotlib.org/</dc:title>
     </cc:Agent>
    </dc:creator>
   </cc:Work>
  </rdf:RDF>
 </metadata>
 <defs>
  <style type="text/css">*{stroke-linejoin: round; stroke-linecap: butt}</style>
 </defs>
 <g id="figure_1">
  <g id="patch_1">
   <path d="M 0 423.034375 
L 856.46125 423.034375 
L 856.46125 0 
L 0 0 
z
" style="fill: #ffffff"/>
  </g>
  <g id="axes_1">
   <g id="patch_2">
    <path d="M 43.78125 385.478125 
L 849.26125 385.478125 
L 849.26125 22.318125 
L 43.78125 22.318125 
z
" style="fill: #ffffff"/>
   </g>
   <g id="patch_3">
    <path d="M 122.447857 385.478125 
L 132.12169 385.478125 
L 132.12169 384.857179 
L 122.447857 384.857179 
z
" clip-path="url(#pd4c6918ced)" style="fill: #1f77b4; fill-opacity: 0.5; stroke: #000000; stroke-width: 0.908548; stroke-linejoin: miter"/>
   </g>
   <g id="patch_4">
    <path d="M 132.12169 385.478125 
L 141.795522 385.478125 
L 141.795522 385.478125 
L 132.12169 385.478125 
z
" clip-path="url(#pd4c6918ced)" style="fill: #1f77b4; fill-opacity: 0.5; stroke: #000000; stroke-width: 0.908548; stroke-linejoin: miter"/>
   </g>
   <g id="patch_5">
    <path d="M 141.795522 385.478125 
L 151.469355 385.478125 
L 151.469355 385.478125 
L 141.795522 385.478125 
z
" clip-path="url(#pd4c6918ced)" style="fill: #1f77b4; fill-opacity: 0.5; stroke: #000000; stroke-width: 0.908548; stroke-linejoin: miter"/>
   </g>
   <g id="patch_6">
    <path d="M 151.469355 385.478125 
L 161.143187 385.478125 
L 161.143187 385.478125 
L 151.469355 385.478125 
z
" clip-path="url(#pd4c6918ced)" style="fill: #1f77b4; fill-opacity: 0.5; stroke: #000000; stroke-width: 0.908548; stroke-linejoin: miter"/>
   </g>
   <g id="patch_7">
    <path d="M 161.143187 385.478125 
L 170.81702 385.478125 
L 170.81702 384.857179 
L 161.143187 384.857179 
z
" clip-path="url(#pd4c6918ced)" style="fill: #1f77b4; fill-opacity: 0.5; stroke: #000000; stroke-width: 0.908548; stroke-linejoin: miter"/>
   </g>
   <g id="patch_8">
    <path d="M 170.81702 385.478125 
L 180.490853 385.478125 
L 180.490853 384.236234 
L 170.81702 384.236234 
z
" clip-path="url(#pd4c6918ced)" style="fill: #1f77b4; fill-opacity: 0.5; stroke: #000000; stroke-width: 0.908548; stroke-linejoin: miter"/>
   </g>
   <g id="patch_9">
    <path d="M 180.490853 385.478125 
L 190.164685 385.478125 
L 190.164685 383.615288 
L 180.490853 383.615288 
z
" clip-path="url(#pd4c6918ced)" style="fill: #1f77b4; fill-opacity: 0.5; stroke: #000000; stroke-width: 0.908548; stroke-linejoin: miter"/>
   </g>
   <g id="patch_10">
    <path d="M 190.164685 385.478125 
L 199.838518 385.478125 
L 199.838518 385.478125 
L 190.164685 385.478125 
z
" clip-path="url(#pd4c6918ced)" style="fill: #1f77b4; fill-opacity: 0.5; stroke: #000000; stroke-width: 0.908548; stroke-linejoin: miter"/>
   </g>
   <g id="patch_11">
    <path d="M 199.838518 385.478125 
L 209.512351 385.478125 
L 209.512351 383.615288 
L 199.838518 383.615288 
z
" clip-path="url(#pd4c6918ced)" style="fill: #1f77b4; fill-opacity: 0.5; stroke: #000000; stroke-width: 0.908548; stroke-linejoin: miter"/>
   </g>
   <g id="patch_12">
    <path d="M 209.512351 385.478125 
L 219.186183 385.478125 
L 219.186183 382.994343 
L 209.512351 382.994343 
z
" clip-path="url(#pd4c6918ced)" style="fill: #1f77b4; fill-opacity: 0.5; stroke: #000000; stroke-width: 0.908548; stroke-linejoin: miter"/>
   </g>
   <g id="patch_13">
    <path d="M 219.186183 385.478125 
L 228.860016 385.478125 
L 228.860016 382.373397 
L 219.186183 382.373397 
z
" clip-path="url(#pd4c6918ced)" style="fill: #1f77b4; fill-opacity: 0.5; stroke: #000000; stroke-width: 0.908548; stroke-linejoin: miter"/>
   </g>
   <g id="patch_14">
    <path d="M 228.860016 385.478125 
L 238.533848 385.478125 
L 238.533848 385.478125 
L 228.860016 385.478125 
z
" clip-path="url(#pd4c6918ced)" style="fill: #1f77b4; fill-opacity: 0.5; stroke: #000000; stroke-width: 0.908548; stroke-linejoin: miter"/>
   </g>
   <g id="patch_15">
    <path d="M 238.533848 385.478125 
L 248.207681 385.478125 
L 248.207681 379.889615 
L 238.533848 379.889615 
z
" clip-path="url(#pd4c6918ced)" style="fill: #1f77b4; fill-opacity: 0.5; stroke: #000000; stroke-width: 0.908548; stroke-linejoin: miter"/>
   </g>
   <g id="patch_16">
    <path d="M 248.207681 385.478125 
L 257.881514 385.478125 
L 257.881514 376.163942 
L 248.207681 376.163942 
z
" clip-path="url(#pd4c6918ced)" style="fill: #1f77b4; fill-opacity: 0.5; stroke: #000000; stroke-width: 0.908548; stroke-linejoin: miter"/>
   </g>
   <g id="patch_17">
    <path d="M 257.881514 385.478125 
L 267.555346 385.478125 
L 267.555346 375.542996 
L 257.881514 375.542996 
z
" clip-path="url(#pd4c6918ced)" style="fill: #1f77b4; fill-opacity: 0.5; stroke: #000000; stroke-width: 0.908548; stroke-linejoin: miter"/>
   </g>
   <g id="patch_18">
    <path d="M 267.555346 385.478125 
L 277.229179 385.478125 
L 277.229179 385.478125 
L 267.555346 385.478125 
z
" clip-path="url(#pd4c6918ced)" style="fill: #1f77b4; fill-opacity: 0.5; stroke: #000000; stroke-width: 0.908548; stroke-linejoin: miter"/>
   </g>
   <g id="patch_19">
    <path d="M 277.229179 385.478125 
L 286.903012 385.478125 
L 286.903012 376.163942 
L 277.229179 376.163942 
z
" clip-path="url(#pd4c6918ced)" style="fill: #1f77b4; fill-opacity: 0.5; stroke: #000000; stroke-width: 0.908548; stroke-linejoin: miter"/>
   </g>
   <g id="patch_20">
    <path d="M 286.903012 385.478125 
L 296.576844 385.478125 
L 296.576844 371.196378 
L 286.903012 371.196378 
z
" clip-path="url(#pd4c6918ced)" style="fill: #1f77b4; fill-opacity: 0.5; stroke: #000000; stroke-width: 0.908548; stroke-linejoin: miter"/>
   </g>
   <g id="patch_21">
    <path d="M 296.576844 385.478125 
L 306.250677 385.478125 
L 306.250677 369.954486 
L 296.576844 369.954486 
z
" clip-path="url(#pd4c6918ced)" style="fill: #1f77b4; fill-opacity: 0.5; stroke: #000000; stroke-width: 0.908548; stroke-linejoin: miter"/>
   </g>
   <g id="patch_22">
    <path d="M 306.250677 385.478125 
L 315.92451 385.478125 
L 315.92451 385.478125 
L 306.250677 385.478125 
z
" clip-path="url(#pd4c6918ced)" style="fill: #1f77b4; fill-opacity: 0.5; stroke: #000000; stroke-width: 0.908548; stroke-linejoin: miter"/>
   </g>
   <g id="patch_23">
    <path d="M 315.92451 385.478125 
L 325.598342 385.478125 
L 325.598342 361.261249 
L 315.92451 361.261249 
z
" clip-path="url(#pd4c6918ced)" style="fill: #1f77b4; fill-opacity: 0.5; stroke: #000000; stroke-width: 0.908548; stroke-linejoin: miter"/>
   </g>
   <g id="patch_24">
    <path d="M 325.598342 385.478125 
L 335.272175 385.478125 
L 335.272175 363.745031 
L 325.598342 363.745031 
z
" clip-path="url(#pd4c6918ced)" style="fill: #1f77b4; fill-opacity: 0.5; stroke: #000000; stroke-width: 0.908548; stroke-linejoin: miter"/>
   </g>
   <g id="patch_25">
    <path d="M 335.272175 385.478125 
L 344.946007 385.478125 
L 344.946007 353.188957 
L 335.272175 353.188957 
z
" clip-path="url(#pd4c6918ced)" style="fill: #1f77b4; fill-opacity: 0.5; stroke: #000000; stroke-width: 0.908548; stroke-linejoin: miter"/>
   </g>
   <g id="patch_26">
    <path d="M 344.946007 385.478125 
L 354.61984 385.478125 
L 354.61984 385.478125 
L 344.946007 385.478125 
z
" clip-path="url(#pd4c6918ced)" style="fill: #1f77b4; fill-opacity: 0.5; stroke: #000000; stroke-width: 0.908548; stroke-linejoin: miter"/>
   </g>
   <g id="patch_27">
    <path d="M 354.61984 385.478125 
L 364.293673 385.478125 
L 364.293673 351.32612 
L 354.61984 351.32612 
z
" clip-path="url(#pd4c6918ced)" style="fill: #1f77b4; fill-opacity: 0.5; stroke: #000000; stroke-width: 0.908548; stroke-linejoin: miter"/>
   </g>
   <g id="patch_28">
    <path d="M 364.293673 385.478125 
L 373.967505 385.478125 
L 373.967505 347.600447 
L 364.293673 347.600447 
z
" clip-path="url(#pd4c6918ced)" style="fill: #1f77b4; fill-opacity: 0.5; stroke: #000000; stroke-width: 0.908548; stroke-linejoin: miter"/>
   </g>
   <g id="patch_29">
    <path d="M 373.967505 385.478125 
L 383.641338 385.478125 
L 383.641338 345.116665 
L 373.967505 345.116665 
z
" clip-path="url(#pd4c6918ced)" style="fill: #1f77b4; fill-opacity: 0.5; stroke: #000000; stroke-width: 0.908548; stroke-linejoin: miter"/>
   </g>
   <g id="patch_30">
    <path d="M 383.641338 385.478125 
L 393.315171 385.478125 
L 393.315171 385.478125 
L 383.641338 385.478125 
z
" clip-path="url(#pd4c6918ced)" style="fill: #1f77b4; fill-opacity: 0.5; stroke: #000000; stroke-width: 0.908548; stroke-linejoin: miter"/>
   </g>
   <g id="patch_31">
    <path d="M 393.315171 385.478125 
L 402.989003 385.478125 
L 402.989003 330.213972 
L 393.315171 330.213972 
z
" clip-path="url(#pd4c6918ced)" style="fill: #1f77b4; fill-opacity: 0.5; stroke: #000000; stroke-width: 0.908548; stroke-linejoin: miter"/>
   </g>
   <g id="patch_32">
    <path d="M 402.989003 385.478125 
L 412.662836 385.478125 
L 412.662836 335.181536 
L 402.989003 335.181536 
z
" clip-path="url(#pd4c6918ced)" style="fill: #1f77b4; fill-opacity: 0.5; stroke: #000000; stroke-width: 0.908548; stroke-linejoin: miter"/>
   </g>
   <g id="patch_33">
    <path d="M 412.662836 385.478125 
L 422.336668 385.478125 
L 422.336668 333.3187 
L 412.662836 333.3187 
z
" clip-path="url(#pd4c6918ced)" style="fill: #1f77b4; fill-opacity: 0.5; stroke: #000000; stroke-width: 0.908548; stroke-linejoin: miter"/>
   </g>
   <g id="patch_34">
    <path d="M 422.336668 385.478125 
L 432.010501 385.478125 
L 432.010501 385.478125 
L 422.336668 385.478125 
z
" clip-path="url(#pd4c6918ced)" style="fill: #1f77b4; fill-opacity: 0.5; stroke: #000000; stroke-width: 0.908548; stroke-linejoin: miter"/>
   </g>
   <g id="patch_35">
    <path d="M 432.010501 385.478125 
L 441.684334 385.478125 
L 441.684334 330.213972 
L 432.010501 330.213972 
z
" clip-path="url(#pd4c6918ced)" style="fill: #1f77b4; fill-opacity: 0.5; stroke: #000000; stroke-width: 0.908548; stroke-linejoin: miter"/>
   </g>
   <g id="patch_36">
    <path d="M 441.684334 385.478125 
L 451.358166 385.478125 
L 451.358166 298.545749 
L 441.684334 298.545749 
z
" clip-path="url(#pd4c6918ced)" style="fill: #1f77b4; fill-opacity: 0.5; stroke: #000000; stroke-width: 0.908548; stroke-linejoin: miter"/>
   </g>
   <g id="patch_37">
    <path d="M 451.358166 385.478125 
L 461.031999 385.478125 
L 461.031999 287.368729 
L 451.358166 287.368729 
z
" clip-path="url(#pd4c6918ced)" style="fill: #1f77b4; fill-opacity: 0.5; stroke: #000000; stroke-width: 0.908548; stroke-linejoin: miter"/>
   </g>
   <g id="patch_38">
    <path d="M 461.031999 385.478125 
L 470.705832 385.478125 
L 470.705832 385.478125 
L 461.031999 385.478125 
z
" clip-path="url(#pd4c6918ced)" style="fill: #1f77b4; fill-opacity: 0.5; stroke: #000000; stroke-width: 0.908548; stroke-linejoin: miter"/>
   </g>
   <g id="patch_39">
    <path d="M 470.705832 385.478125 
L 480.379664 385.478125 
L 480.379664 262.530908 
L 470.705832 262.530908 
z
" clip-path="url(#pd4c6918ced)" style="fill: #1f77b4; fill-opacity: 0.5; stroke: #000000; stroke-width: 0.908548; stroke-linejoin: miter"/>
   </g>
   <g id="patch_40">
    <path d="M 480.379664 385.478125 
L 490.053497 385.478125 
L 490.053497 245.765378 
L 480.379664 245.765378 
z
" clip-path="url(#pd4c6918ced)" style="fill: #1f77b4; fill-opacity: 0.5; stroke: #000000; stroke-width: 0.908548; stroke-linejoin: miter"/>
   </g>
   <g id="patch_41">
    <path d="M 490.053497 385.478125 
L 499.727329 385.478125 
L 499.727329 226.516066 
L 490.053497 226.516066 
z
" clip-path="url(#pd4c6918ced)" style="fill: #1f77b4; fill-opacity: 0.5; stroke: #000000; stroke-width: 0.908548; stroke-linejoin: miter"/>
   </g>
   <g id="patch_42">
    <path d="M 499.727329 385.478125 
L 509.401162 385.478125 
L 509.401162 385.478125 
L 499.727329 385.478125 
z
" clip-path="url(#pd4c6918ced)" style="fill: #1f77b4; fill-opacity: 0.5; stroke: #000000; stroke-width: 0.908548; stroke-linejoin: miter"/>
   </g>
   <g id="patch_43">
    <path d="M 509.401162 385.478125 
L 519.074995 385.478125 
L 519.074995 188.638388 
L 509.401162 188.638388 
z
" clip-path="url(#pd4c6918ced)" style="fill: #1f77b4; fill-opacity: 0.5; stroke: #000000; stroke-width: 0.908548; stroke-linejoin: miter"/>
   </g>
   <g id="patch_44">
    <path d="M 519.074995 385.478125 
L 528.748827 385.478125 
L 528.748827 147.035037 
L 519.074995 147.035037 
z
" clip-path="url(#pd4c6918ced)" style="fill: #1f77b4; fill-opacity: 0.5; stroke: #000000; stroke-width: 0.908548; stroke-linejoin: miter"/>
   </g>
   <g id="patch_45">
    <path d="M 528.748827 385.478125 
L 538.42266 385.478125 
L 538.42266 93.63372 
L 528.748827 93.63372 
z
" clip-path="url(#pd4c6918ced)" style="fill: #1f77b4; fill-opacity: 0.5; stroke: #000000; stroke-width: 0.908548; stroke-linejoin: miter"/>
   </g>
   <g id="patch_46">
    <path d="M 538.42266 385.478125 
L 548.096493 385.478125 
L 548.096493 385.478125 
L 538.42266 385.478125 
z
" clip-path="url(#pd4c6918ced)" style="fill: #1f77b4; fill-opacity: 0.5; stroke: #000000; stroke-width: 0.908548; stroke-linejoin: miter"/>
   </g>
   <g id="patch_47">
    <path d="M 548.096493 385.478125 
L 557.770325 385.478125 
L 557.770325 65.691171 
L 548.096493 65.691171 
z
" clip-path="url(#pd4c6918ced)" style="fill: #1f77b4; fill-opacity: 0.5; stroke: #000000; stroke-width: 0.908548; stroke-linejoin: miter"/>
   </g>
   <g id="patch_48">
    <path d="M 557.770325 385.478125 
L 567.444158 385.478125 
L 567.444158 39.611458 
L 557.770325 39.611458 
z
" clip-path="url(#pd4c6918ced)" style="fill: #1f77b4; fill-opacity: 0.5; stroke: #000000; stroke-width: 0.908548; stroke-linejoin: miter"/>
   </g>
   <g id="patch_49">
    <path d="M 567.444158 385.478125 
L 577.11799 385.478125 
L 577.11799 40.853349 
L 567.444158 40.853349 
z
" clip-path="url(#pd4c6918ced)" style="fill: #1f77b4; fill-opacity: 0.5; stroke: #000000; stroke-width: 0.908548; stroke-linejoin: miter"/>
   </g>
   <g id="patch_50">
    <path d="M 577.11799 385.478125 
L 586.791823 385.478125 
L 586.791823 385.478125 
L 577.11799 385.478125 
z
" clip-path="url(#pd4c6918ced)" style="fill: #1f77b4; fill-opacity: 0.5; stroke: #000000; stroke-width: 0.908548; stroke-linejoin: miter"/>
   </g>
   <g id="patch_51">
    <path d="M 586.791823 385.478125 
L 596.465656 385.478125 
L 596.465656 40.232404 
L 586.791823 40.232404 
z
" clip-path="url(#pd4c6918ced)" style="fill: #1f77b4; fill-opacity: 0.5; stroke: #000000; stroke-width: 0.908548; stroke-linejoin: miter"/>
   </g>
   <g id="patch_52">
    <path d="M 596.465656 385.478125 
L 606.139488 385.478125 
L 606.139488 99.843176 
L 596.465656 99.843176 
z
" clip-path="url(#pd4c6918ced)" style="fill: #1f77b4; fill-opacity: 0.5; stroke: #000000; stroke-width: 0.908548; stroke-linejoin: miter"/>
   </g>
   <g id="patch_53">
    <path d="M 606.139488 385.478125 
L 615.813321 385.478125 
L 615.813321 145.1722 
L 606.139488 145.1722 
z
" clip-path="url(#pd4c6918ced)" style="fill: #1f77b4; fill-opacity: 0.5; stroke: #000000; stroke-width: 0.908548; stroke-linejoin: miter"/>
   </g>
   <g id="patch_54">
    <path d="M 615.813321 385.478125 
L 625.487154 385.478125 
L 625.487154 385.478125 
L 615.813321 385.478125 
z
" clip-path="url(#pd4c6918ced)" style="fill: #1f77b4; fill-opacity: 0.5; stroke: #000000; stroke-width: 0.908548; stroke-linejoin: miter"/>
   </g>
   <g id="patch_55">
    <path d="M 625.487154 385.478125 
L 635.160986 385.478125 
L 635.160986 228.378903 
L 625.487154 228.378903 
z
" clip-path="url(#pd4c6918ced)" style="fill: #1f77b4; fill-opacity: 0.5; stroke: #000000; stroke-width: 0.908548; stroke-linejoin: miter"/>
   </g>
   <g id="patch_56">
    <path d="M 635.160986 385.478125 
L 644.834819 385.478125 
L 644.834819 287.368729 
L 635.160986 287.368729 
z
" clip-path="url(#pd4c6918ced)" style="fill: #1f77b4; fill-opacity: 0.5; stroke: #000000; stroke-width: 0.908548; stroke-linejoin: miter"/>
   </g>
   <g id="patch_57">
    <path d="M 644.834819 385.478125 
L 654.508652 385.478125 
L 654.508652 315.932224 
L 644.834819 315.932224 
z
" clip-path="url(#pd4c6918ced)" style="fill: #1f77b4; fill-opacity: 0.5; stroke: #000000; stroke-width: 0.908548; stroke-linejoin: miter"/>
   </g>
   <g id="patch_58">
    <path d="M 654.508652 385.478125 
L 664.182484 385.478125 
L 664.182484 385.478125 
L 654.508652 385.478125 
z
" clip-path="url(#pd4c6918ced)" style="fill: #1f77b4; fill-opacity: 0.5; stroke: #000000; stroke-width: 0.908548; stroke-linejoin: miter"/>
   </g>
   <g id="patch_59">
    <path d="M 664.182484 385.478125 
L 673.856317 385.478125 
L 673.856317 353.188957 
L 664.182484 353.188957 
z
" clip-path="url(#pd4c6918ced)" style="fill: #1f77b4; fill-opacity: 0.5; stroke: #000000; stroke-width: 0.908548; stroke-linejoin: miter"/>
   </g>
   <g id="patch_60">
    <path d="M 673.856317 385.478125 
L 683.530149 385.478125 
L 683.530149 373.68016 
L 673.856317 373.68016 
z
" clip-path="url(#pd4c6918ced)" style="fill: #1f77b4; fill-opacity: 0.5; stroke: #000000; stroke-width: 0.908548; stroke-linejoin: miter"/>
   </g>
   <g id="patch_61">
    <path d="M 683.530149 385.478125 
L 693.203982 385.478125 
L 693.203982 373.68016 
L 683.530149 373.68016 
z
" clip-path="url(#pd4c6918ced)" style="fill: #1f77b4; fill-opacity: 0.5; stroke: #000000; stroke-width: 0.908548; stroke-linejoin: miter"/>
   </g>
   <g id="patch_62">
    <path d="M 693.203982 385.478125 
L 702.877815 385.478125 
L 702.877815 385.478125 
L 693.203982 385.478125 
z
" clip-path="url(#pd4c6918ced)" style="fill: #1f77b4; fill-opacity: 0.5; stroke: #000000; stroke-width: 0.908548; stroke-linejoin: miter"/>
   </g>
   <g id="patch_63">
    <path d="M 702.877815 385.478125 
L 712.551647 385.478125 
L 712.551647 383.615288 
L 702.877815 383.615288 
z
" clip-path="url(#pd4c6918ced)" style="fill: #1f77b4; fill-opacity: 0.5; stroke: #000000; stroke-width: 0.908548; stroke-linejoin: miter"/>
   </g>
   <g id="patch_64">
    <path d="M 712.551647 385.478125 
L 722.22548 385.478125 
L 722.22548 385.478125 
L 712.551647 385.478125 
z
" clip-path="url(#pd4c6918ced)" style="fill: #1f77b4; fill-opacity: 0.5; stroke: #000000; stroke-width: 0.908548; stroke-linejoin: miter"/>
   </g>
   <g id="patch_65">
    <path d="M 722.22548 385.478125 
L 731.899313 385.478125 
L 731.899313 384.857179 
L 722.22548 384.857179 
z
" clip-path="url(#pd4c6918ced)" style="fill: #1f77b4; fill-opacity: 0.5; stroke: #000000; stroke-width: 0.908548; stroke-linejoin: miter"/>
   </g>
   <g id="patch_66">
    <path d="M 731.899313 385.478125 
L 741.573145 385.478125 
L 741.573145 385.478125 
L 731.899313 385.478125 
z
" clip-path="url(#pd4c6918ced)" style="fill: #1f77b4; fill-opacity: 0.5; stroke: #000000; stroke-width: 0.908548; stroke-linejoin: miter"/>
   </g>
   <g id="patch_67">
    <path d="M 741.573145 385.478125 
L 751.246978 385.478125 
L 751.246978 384.857179 
L 741.573145 384.857179 
z
" clip-path="url(#pd4c6918ced)" style="fill: #1f77b4; fill-opacity: 0.5; stroke: #000000; stroke-width: 0.908548; stroke-linejoin: miter"/>
   </g>
   <g id="patch_68">
    <path d="M 751.246978 385.478125 
L 760.92081 385.478125 
L 760.92081 385.478125 
L 751.246978 385.478125 
z
" clip-path="url(#pd4c6918ced)" style="fill: #1f77b4; fill-opacity: 0.5; stroke: #000000; stroke-width: 0.908548; stroke-linejoin: miter"/>
   </g>
   <g id="patch_69">
    <path d="M 760.92081 385.478125 
L 770.594643 385.478125 
L 770.594643 384.857179 
L 760.92081 384.857179 
z
" clip-path="url(#pd4c6918ced)" style="fill: #1f77b4; fill-opacity: 0.5; stroke: #000000; stroke-width: 0.908548; stroke-linejoin: miter"/>
   </g>
   <g id="matplotlib.axis_1">
    <g id="xtick_1">
     <g id="line2d_1">
      <defs>
       <path id="m8aaf5e8508" d="M 0 0 
L 0 3.5 
" style="stroke: #000000; stroke-width: 0.8"/>
      </defs>
      <g>
       <use xlink:href="#m8aaf5e8508" x="161.336664" y="385.478125" style="stroke: #000000; stroke-width: 0.8"/>
      </g>
     </g>
     <g id="text_1">
      <!-- 1 -->
      <g transform="translate(158.155414 400.076562) scale(0.1 -0.1)">
       <defs>
        <path id="DejaVuSans-31" d="M 794 531 
L 1825 531 
L 1825 4091 
L 703 3866 
L 703 4441 
L 1819 4666 
L 2450 4666 
L 2450 531 
L 3481 531 
L 3481 0 
L 794 0 
L 794 531 
z
" transform="scale(0.015625)"/>
       </defs>
       <use xlink:href="#DejaVuSans-31"/>
      </g>
     </g>
    </g>
    <g id="xtick_2">
     <g id="line2d_2">
      <g>
       <use xlink:href="#m8aaf5e8508" x="290.966021" y="385.478125" style="stroke: #000000; stroke-width: 0.8"/>
      </g>
     </g>
     <g id="text_2">
      <!-- 2 -->
      <g transform="translate(287.784771 400.076562) scale(0.1 -0.1)">
       <defs>
        <path id="DejaVuSans-32" d="M 1228 531 
L 3431 531 
L 3431 0 
L 469 0 
L 469 531 
Q 828 903 1448 1529 
Q 2069 2156 2228 2338 
Q 2531 2678 2651 2914 
Q 2772 3150 2772 3378 
Q 2772 3750 2511 3984 
Q 2250 4219 1831 4219 
Q 1534 4219 1204 4116 
Q 875 4013 500 3803 
L 500 4441 
Q 881 4594 1212 4672 
Q 1544 4750 1819 4750 
Q 2544 4750 2975 4387 
Q 3406 4025 3406 3419 
Q 3406 3131 3298 2873 
Q 3191 2616 2906 2266 
Q 2828 2175 2409 1742 
Q 1991 1309 1228 531 
z
" transform="scale(0.015625)"/>
       </defs>
       <use xlink:href="#DejaVuSans-32"/>
      </g>
     </g>
    </g>
    <g id="xtick_3">
     <g id="line2d_3">
      <g>
       <use xlink:href="#m8aaf5e8508" x="420.595379" y="385.478125" style="stroke: #000000; stroke-width: 0.8"/>
      </g>
     </g>
     <g id="text_3">
      <!-- 3 -->
      <g transform="translate(417.414129 400.076562) scale(0.1 -0.1)">
       <defs>
        <path id="DejaVuSans-33" d="M 2597 2516 
Q 3050 2419 3304 2112 
Q 3559 1806 3559 1356 
Q 3559 666 3084 287 
Q 2609 -91 1734 -91 
Q 1441 -91 1130 -33 
Q 819 25 488 141 
L 488 750 
Q 750 597 1062 519 
Q 1375 441 1716 441 
Q 2309 441 2620 675 
Q 2931 909 2931 1356 
Q 2931 1769 2642 2001 
Q 2353 2234 1838 2234 
L 1294 2234 
L 1294 2753 
L 1863 2753 
Q 2328 2753 2575 2939 
Q 2822 3125 2822 3475 
Q 2822 3834 2567 4026 
Q 2313 4219 1838 4219 
Q 1578 4219 1281 4162 
Q 984 4106 628 3988 
L 628 4550 
Q 988 4650 1302 4700 
Q 1616 4750 1894 4750 
Q 2613 4750 3031 4423 
Q 3450 4097 3450 3541 
Q 3450 3153 3228 2886 
Q 3006 2619 2597 2516 
z
" transform="scale(0.015625)"/>
       </defs>
       <use xlink:href="#DejaVuSans-33"/>
      </g>
     </g>
    </g>
    <g id="xtick_4">
     <g id="line2d_4">
      <g>
       <use xlink:href="#m8aaf5e8508" x="550.224736" y="385.478125" style="stroke: #000000; stroke-width: 0.8"/>
      </g>
     </g>
     <g id="text_4">
      <!-- 4 -->
      <g transform="translate(547.043486 400.076562) scale(0.1 -0.1)">
       <defs>
        <path id="DejaVuSans-34" d="M 2419 4116 
L 825 1625 
L 2419 1625 
L 2419 4116 
z
M 2253 4666 
L 3047 4666 
L 3047 1625 
L 3713 1625 
L 3713 1100 
L 3047 1100 
L 3047 0 
L 2419 0 
L 2419 1100 
L 313 1100 
L 313 1709 
L 2253 4666 
z
" transform="scale(0.015625)"/>
       </defs>
       <use xlink:href="#DejaVuSans-34"/>
      </g>
     </g>
    </g>
    <g id="xtick_5">
     <g id="line2d_5">
      <g>
       <use xlink:href="#m8aaf5e8508" x="679.854093" y="385.478125" style="stroke: #000000; stroke-width: 0.8"/>
      </g>
     </g>
     <g id="text_5">
      <!-- 5 -->
      <g transform="translate(676.672843 400.076562) scale(0.1 -0.1)">
       <defs>
        <path id="DejaVuSans-35" d="M 691 4666 
L 3169 4666 
L 3169 4134 
L 1269 4134 
L 1269 2991 
Q 1406 3038 1543 3061 
Q 1681 3084 1819 3084 
Q 2600 3084 3056 2656 
Q 3513 2228 3513 1497 
Q 3513 744 3044 326 
Q 2575 -91 1722 -91 
Q 1428 -91 1123 -41 
Q 819 9 494 109 
L 494 744 
Q 775 591 1075 516 
Q 1375 441 1709 441 
Q 2250 441 2565 725 
Q 2881 1009 2881 1497 
Q 2881 1984 2565 2268 
Q 2250 2553 1709 2553 
Q 1456 2553 1204 2497 
Q 953 2441 691 2322 
L 691 4666 
z
" transform="scale(0.015625)"/>
       </defs>
       <use xlink:href="#DejaVuSans-35"/>
      </g>
     </g>
    </g>
    <g id="xtick_6">
     <g id="line2d_6">
      <g>
       <use xlink:href="#m8aaf5e8508" x="809.48345" y="385.478125" style="stroke: #000000; stroke-width: 0.8"/>
      </g>
     </g>
     <g id="text_6">
      <!-- 6 -->
      <g transform="translate(806.3022 400.076562) scale(0.1 -0.1)">
       <defs>
        <path id="DejaVuSans-36" d="M 2113 2584 
Q 1688 2584 1439 2293 
Q 1191 2003 1191 1497 
Q 1191 994 1439 701 
Q 1688 409 2113 409 
Q 2538 409 2786 701 
Q 3034 994 3034 1497 
Q 3034 2003 2786 2293 
Q 2538 2584 2113 2584 
z
M 3366 4563 
L 3366 3988 
Q 3128 4100 2886 4159 
Q 2644 4219 2406 4219 
Q 1781 4219 1451 3797 
Q 1122 3375 1075 2522 
Q 1259 2794 1537 2939 
Q 1816 3084 2150 3084 
Q 2853 3084 3261 2657 
Q 3669 2231 3669 1497 
Q 3669 778 3244 343 
Q 2819 -91 2113 -91 
Q 1303 -91 875 529 
Q 447 1150 447 2328 
Q 447 3434 972 4092 
Q 1497 4750 2381 4750 
Q 2619 4750 2861 4703 
Q 3103 4656 3366 4563 
z
" transform="scale(0.015625)"/>
       </defs>
       <use xlink:href="#DejaVuSans-36"/>
      </g>
     </g>
    </g>
    <g id="text_7">
     <!-- Alb -->
     <g transform="translate(438.537656 413.754687) scale(0.1 -0.1)">
      <defs>
       <path id="DejaVuSans-41" d="M 2188 4044 
L 1331 1722 
L 3047 1722 
L 2188 4044 
z
M 1831 4666 
L 2547 4666 
L 4325 0 
L 3669 0 
L 3244 1197 
L 1141 1197 
L 716 0 
L 50 0 
L 1831 4666 
z
" transform="scale(0.015625)"/>
       <path id="DejaVuSans-6c" d="M 603 4863 
L 1178 4863 
L 1178 0 
L 603 0 
L 603 4863 
z
" transform="scale(0.015625)"/>
       <path id="DejaVuSans-62" d="M 3116 1747 
Q 3116 2381 2855 2742 
Q 2594 3103 2138 3103 
Q 1681 3103 1420 2742 
Q 1159 2381 1159 1747 
Q 1159 1113 1420 752 
Q 1681 391 2138 391 
Q 2594 391 2855 752 
Q 3116 1113 3116 1747 
z
M 1159 2969 
Q 1341 3281 1617 3432 
Q 1894 3584 2278 3584 
Q 2916 3584 3314 3078 
Q 3713 2572 3713 1747 
Q 3713 922 3314 415 
Q 2916 -91 2278 -91 
Q 1894 -91 1617 61 
Q 1341 213 1159 525 
L 1159 0 
L 581 0 
L 581 4863 
L 1159 4863 
L 1159 2969 
z
" transform="scale(0.015625)"/>
      </defs>
      <use xlink:href="#DejaVuSans-41"/>
      <use xlink:href="#DejaVuSans-6c" x="68.408203"/>
      <use xlink:href="#DejaVuSans-62" x="96.191406"/>
     </g>
    </g>
   </g>
   <g id="matplotlib.axis_2">
    <g id="ytick_1">
     <g id="line2d_7">
      <defs>
       <path id="m86e9f08eff" d="M 0 0 
L -3.5 0 
" style="stroke: #000000; stroke-width: 0.8"/>
      </defs>
      <g>
       <use xlink:href="#m86e9f08eff" x="43.78125" y="385.478125" style="stroke: #000000; stroke-width: 0.8"/>
      </g>
     </g>
     <g id="text_8">
      <!-- 0.0 -->
      <g transform="translate(20.878125 389.277344) scale(0.1 -0.1)">
       <defs>
        <path id="DejaVuSans-30" d="M 2034 4250 
Q 1547 4250 1301 3770 
Q 1056 3291 1056 2328 
Q 1056 1369 1301 889 
Q 1547 409 2034 409 
Q 2525 409 2770 889 
Q 3016 1369 3016 2328 
Q 3016 3291 2770 3770 
Q 2525 4250 2034 4250 
z
M 2034 4750 
Q 2819 4750 3233 4129 
Q 3647 3509 3647 2328 
Q 3647 1150 3233 529 
Q 2819 -91 2034 -91 
Q 1250 -91 836 529 
Q 422 1150 422 2328 
Q 422 3509 836 4129 
Q 1250 4750 2034 4750 
z
" transform="scale(0.015625)"/>
        <path id="DejaVuSans-2e" d="M 684 794 
L 1344 794 
L 1344 0 
L 684 0 
L 684 794 
z
" transform="scale(0.015625)"/>
       </defs>
       <use xlink:href="#DejaVuSans-30"/>
       <use xlink:href="#DejaVuSans-2e" x="63.623047"/>
       <use xlink:href="#DejaVuSans-30" x="95.410156"/>
      </g>
     </g>
    </g>
    <g id="ytick_2">
     <g id="line2d_8">
      <g>
       <use xlink:href="#m86e9f08eff" x="43.78125" y="324.597658" style="stroke: #000000; stroke-width: 0.8"/>
      </g>
     </g>
     <g id="text_9">
      <!-- 0.2 -->
      <g transform="translate(20.878125 328.396877) scale(0.1 -0.1)">
       <use xlink:href="#DejaVuSans-30"/>
       <use xlink:href="#DejaVuSans-2e" x="63.623047"/>
       <use xlink:href="#DejaVuSans-32" x="95.410156"/>
      </g>
     </g>
    </g>
    <g id="ytick_3">
     <g id="line2d_9">
      <g>
       <use xlink:href="#m86e9f08eff" x="43.78125" y="263.717192" style="stroke: #000000; stroke-width: 0.8"/>
      </g>
     </g>
     <g id="text_10">
      <!-- 0.4 -->
      <g transform="translate(20.878125 267.516411) scale(0.1 -0.1)">
       <use xlink:href="#DejaVuSans-30"/>
       <use xlink:href="#DejaVuSans-2e" x="63.623047"/>
       <use xlink:href="#DejaVuSans-34" x="95.410156"/>
      </g>
     </g>
    </g>
    <g id="ytick_4">
     <g id="line2d_10">
      <g>
       <use xlink:href="#m86e9f08eff" x="43.78125" y="202.836725" style="stroke: #000000; stroke-width: 0.8"/>
      </g>
     </g>
     <g id="text_11">
      <!-- 0.6 -->
      <g transform="translate(20.878125 206.635944) scale(0.1 -0.1)">
       <use xlink:href="#DejaVuSans-30"/>
       <use xlink:href="#DejaVuSans-2e" x="63.623047"/>
       <use xlink:href="#DejaVuSans-36" x="95.410156"/>
      </g>
     </g>
    </g>
    <g id="ytick_5">
     <g id="line2d_11">
      <g>
       <use xlink:href="#m86e9f08eff" x="43.78125" y="141.956259" style="stroke: #000000; stroke-width: 0.8"/>
      </g>
     </g>
     <g id="text_12">
      <!-- 0.8 -->
      <g transform="translate(20.878125 145.755477) scale(0.1 -0.1)">
       <defs>
        <path id="DejaVuSans-38" d="M 2034 2216 
Q 1584 2216 1326 1975 
Q 1069 1734 1069 1313 
Q 1069 891 1326 650 
Q 1584 409 2034 409 
Q 2484 409 2743 651 
Q 3003 894 3003 1313 
Q 3003 1734 2745 1975 
Q 2488 2216 2034 2216 
z
M 1403 2484 
Q 997 2584 770 2862 
Q 544 3141 544 3541 
Q 544 4100 942 4425 
Q 1341 4750 2034 4750 
Q 2731 4750 3128 4425 
Q 3525 4100 3525 3541 
Q 3525 3141 3298 2862 
Q 3072 2584 2669 2484 
Q 3125 2378 3379 2068 
Q 3634 1759 3634 1313 
Q 3634 634 3220 271 
Q 2806 -91 2034 -91 
Q 1263 -91 848 271 
Q 434 634 434 1313 
Q 434 1759 690 2068 
Q 947 2378 1403 2484 
z
M 1172 3481 
Q 1172 3119 1398 2916 
Q 1625 2713 2034 2713 
Q 2441 2713 2670 2916 
Q 2900 3119 2900 3481 
Q 2900 3844 2670 4047 
Q 2441 4250 2034 4250 
Q 1625 4250 1398 4047 
Q 1172 3844 1172 3481 
z
" transform="scale(0.015625)"/>
       </defs>
       <use xlink:href="#DejaVuSans-30"/>
       <use xlink:href="#DejaVuSans-2e" x="63.623047"/>
       <use xlink:href="#DejaVuSans-38" x="95.410156"/>
      </g>
     </g>
    </g>
    <g id="ytick_6">
     <g id="line2d_12">
      <g>
       <use xlink:href="#m86e9f08eff" x="43.78125" y="81.075792" style="stroke: #000000; stroke-width: 0.8"/>
      </g>
     </g>
     <g id="text_13">
      <!-- 1.0 -->
      <g transform="translate(20.878125 84.875011) scale(0.1 -0.1)">
       <use xlink:href="#DejaVuSans-31"/>
       <use xlink:href="#DejaVuSans-2e" x="63.623047"/>
       <use xlink:href="#DejaVuSans-30" x="95.410156"/>
      </g>
     </g>
    </g>
    <g id="text_14">
     <!-- Density -->
     <g transform="translate(14.798438 222.906719) rotate(-90) scale(0.1 -0.1)">
      <defs>
       <path id="DejaVuSans-44" d="M 1259 4147 
L 1259 519 
L 2022 519 
Q 2988 519 3436 956 
Q 3884 1394 3884 2338 
Q 3884 3275 3436 3711 
Q 2988 4147 2022 4147 
L 1259 4147 
z
M 628 4666 
L 1925 4666 
Q 3281 4666 3915 4102 
Q 4550 3538 4550 2338 
Q 4550 1131 3912 565 
Q 3275 0 1925 0 
L 628 0 
L 628 4666 
z
" transform="scale(0.015625)"/>
       <path id="DejaVuSans-65" d="M 3597 1894 
L 3597 1613 
L 953 1613 
Q 991 1019 1311 708 
Q 1631 397 2203 397 
Q 2534 397 2845 478 
Q 3156 559 3463 722 
L 3463 178 
Q 3153 47 2828 -22 
Q 2503 -91 2169 -91 
Q 1331 -91 842 396 
Q 353 884 353 1716 
Q 353 2575 817 3079 
Q 1281 3584 2069 3584 
Q 2775 3584 3186 3129 
Q 3597 2675 3597 1894 
z
M 3022 2063 
Q 3016 2534 2758 2815 
Q 2500 3097 2075 3097 
Q 1594 3097 1305 2825 
Q 1016 2553 972 2059 
L 3022 2063 
z
" transform="scale(0.015625)"/>
       <path id="DejaVuSans-6e" d="M 3513 2113 
L 3513 0 
L 2938 0 
L 2938 2094 
Q 2938 2591 2744 2837 
Q 2550 3084 2163 3084 
Q 1697 3084 1428 2787 
Q 1159 2491 1159 1978 
L 1159 0 
L 581 0 
L 581 3500 
L 1159 3500 
L 1159 2956 
Q 1366 3272 1645 3428 
Q 1925 3584 2291 3584 
Q 2894 3584 3203 3211 
Q 3513 2838 3513 2113 
z
" transform="scale(0.015625)"/>
       <path id="DejaVuSans-73" d="M 2834 3397 
L 2834 2853 
Q 2591 2978 2328 3040 
Q 2066 3103 1784 3103 
Q 1356 3103 1142 2972 
Q 928 2841 928 2578 
Q 928 2378 1081 2264 
Q 1234 2150 1697 2047 
L 1894 2003 
Q 2506 1872 2764 1633 
Q 3022 1394 3022 966 
Q 3022 478 2636 193 
Q 2250 -91 1575 -91 
Q 1294 -91 989 -36 
Q 684 19 347 128 
L 347 722 
Q 666 556 975 473 
Q 1284 391 1588 391 
Q 1994 391 2212 530 
Q 2431 669 2431 922 
Q 2431 1156 2273 1281 
Q 2116 1406 1581 1522 
L 1381 1569 
Q 847 1681 609 1914 
Q 372 2147 372 2553 
Q 372 3047 722 3315 
Q 1072 3584 1716 3584 
Q 2034 3584 2315 3537 
Q 2597 3491 2834 3397 
z
" transform="scale(0.015625)"/>
       <path id="DejaVuSans-69" d="M 603 3500 
L 1178 3500 
L 1178 0 
L 603 0 
L 603 3500 
z
M 603 4863 
L 1178 4863 
L 1178 4134 
L 603 4134 
L 603 4863 
z
" transform="scale(0.015625)"/>
       <path id="DejaVuSans-74" d="M 1172 4494 
L 1172 3500 
L 2356 3500 
L 2356 3053 
L 1172 3053 
L 1172 1153 
Q 1172 725 1289 603 
Q 1406 481 1766 481 
L 2356 481 
L 2356 0 
L 1766 0 
Q 1100 0 847 248 
Q 594 497 594 1153 
L 594 3053 
L 172 3053 
L 172 3500 
L 594 3500 
L 594 4494 
L 1172 4494 
z
" transform="scale(0.015625)"/>
       <path id="DejaVuSans-79" d="M 2059 -325 
Q 1816 -950 1584 -1140 
Q 1353 -1331 966 -1331 
L 506 -1331 
L 506 -850 
L 844 -850 
Q 1081 -850 1212 -737 
Q 1344 -625 1503 -206 
L 1606 56 
L 191 3500 
L 800 3500 
L 1894 763 
L 2988 3500 
L 3597 3500 
L 2059 -325 
z
" transform="scale(0.015625)"/>
      </defs>
      <use xlink:href="#DejaVuSans-44"/>
      <use xlink:href="#DejaVuSans-65" x="77.001953"/>
      <use xlink:href="#DejaVuSans-6e" x="138.525391"/>
      <use xlink:href="#DejaVuSans-73" x="201.904297"/>
      <use xlink:href="#DejaVuSans-69" x="254.003906"/>
      <use xlink:href="#DejaVuSans-74" x="281.787109"/>
      <use xlink:href="#DejaVuSans-79" x="320.996094"/>
     </g>
    </g>
   </g>
   <g id="line2d_13">
    <path d="M 122.447857 385.30315 
L 151.761028 385.20756 
L 168.046123 384.774094 
L 194.102275 384.076794 
L 210.387371 383.594308 
L 220.158428 383.047416 
L 226.672466 382.494873 
L 236.443523 381.370374 
L 252.728618 379.33605 
L 262.499675 378.479507 
L 275.527751 377.416736 
L 282.041789 376.636026 
L 288.555827 375.622961 
L 295.069865 374.401608 
L 304.840922 372.278493 
L 334.154094 365.455422 
L 350.439189 361.154334 
L 373.238322 355.628315 
L 379.75236 353.577597 
L 389.523417 350.354841 
L 392.780436 349.423515 
L 396.037455 348.629168 
L 399.294474 347.982117 
L 405.808512 347.037082 
L 412.32255 346.177568 
L 415.579569 345.587254 
L 418.836588 344.78012 
L 422.093607 343.680867 
L 425.350626 342.228049 
L 428.607645 340.381659 
L 431.864664 338.12999 
L 435.121683 335.4933 
L 438.378702 332.521783 
L 441.635721 329.286974 
L 448.14976 322.337961 
L 461.177836 307.874408 
L 474.205912 293.105867 
L 480.71995 285.477946 
L 483.976969 281.506578 
L 487.233988 277.354938 
L 490.491007 272.955126 
L 493.748026 268.239886 
L 497.005045 263.151355 
L 500.262064 257.648122 
L 503.519083 251.709334 
L 506.776102 245.335678 
L 510.033121 238.548113 
L 513.29014 231.385842 
L 519.804178 216.177658 
L 532.832254 184.778174 
L 536.089273 177.37071 
L 539.346292 170.352716 
L 542.603311 163.802963 
L 545.86033 157.780354 
L 549.117349 152.327747 
L 552.374368 147.477933 
L 555.631387 143.259194 
L 558.888406 139.698857 
L 562.145425 136.825002 
L 565.402444 134.66787 
L 568.659463 133.262542 
L 571.916482 132.653043 
L 575.173502 132.895912 
L 578.430521 134.059987 
L 581.68754 136.219756 
L 584.944559 139.44224 
L 588.201578 143.770866 
L 591.458597 149.212144 
L 594.715616 155.730635 
L 597.972635 163.254432 
L 601.229654 171.688668 
L 604.486673 180.930741 
L 607.743692 190.880229 
L 611.000711 201.43921 
L 617.514749 223.950727 
L 627.285806 258.955789 
L 630.542825 270.214558 
L 633.799844 280.972615 
L 637.056863 291.107288 
L 640.313882 300.551351 
L 643.570901 309.293107 
L 646.82792 317.365973 
L 650.084939 324.830526 
L 653.341958 331.753639 
L 656.598977 338.189847 
L 659.855996 344.169273 
L 663.113015 349.694455 
L 666.370034 354.745926 
L 669.627053 359.294122 
L 672.884072 363.313806 
L 676.141091 366.79696 
L 679.39811 369.760861 
L 682.655129 372.249534 
L 685.912148 374.328524 
L 689.169167 376.074647 
L 692.426186 377.563642 
L 695.683205 378.859119 
L 698.940225 380.005615 
L 702.197244 381.027153 
L 705.454263 381.930889 
L 708.711282 382.713966 
L 711.968301 383.371054 
L 715.22532 383.900388 
L 721.739358 384.603478 
L 728.253396 384.940464 
L 738.024453 385.104472 
L 770.594643 385.272604 
L 770.594643 385.272604 
" clip-path="url(#pd4c6918ced)" style="fill: none; stroke: #1f77b4; stroke-width: 1.5; stroke-linecap: square"/>
   </g>
   <g id="line2d_14">
    <path d="M 80.393977 385.476226 
L 109.831346 385.363897 
L 131.909372 385.31937 
L 146.628057 385.284168 
L 161.346741 384.975867 
L 216.541807 383.284682 
L 223.901149 382.750569 
L 231.260492 382.005617 
L 257.018189 378.922318 
L 279.096216 377.017878 
L 286.455558 375.974033 
L 293.8149 374.651356 
L 301.174242 373.105155 
L 330.611611 366.367567 
L 341.650624 363.430746 
L 349.009966 361.506232 
L 360.04898 358.93995 
L 367.408322 357.209814 
L 374.767664 355.171998 
L 382.127006 352.77955 
L 389.486348 350.366118 
L 393.166019 349.321891 
L 396.84569 348.455041 
L 400.525361 347.773353 
L 407.884704 346.781443 
L 411.564375 346.292595 
L 415.244046 345.65672 
L 418.923717 344.754827 
L 422.603388 343.478122 
L 426.283059 341.740759 
L 429.96273 339.493656 
L 433.642401 336.735982 
L 437.322072 333.518405 
L 441.001743 329.933514 
L 448.361086 322.106475 
L 463.07977 305.741675 
L 474.118783 293.206189 
L 481.478125 284.566229 
L 485.157796 280.025713 
L 488.837467 275.22416 
L 492.517139 270.062916 
L 496.19681 264.451492 
L 499.876481 258.322147 
L 503.556152 251.639219 
L 507.235823 244.402 
L 510.915494 236.642712 
L 514.595165 228.422936 
L 521.954507 210.983576 
L 529.313849 193.104071 
L 532.99352 184.403673 
L 536.673192 176.081322 
L 540.352863 168.275429 
L 544.032534 161.09242 
L 547.712205 154.607942 
L 551.391876 148.875679 
L 555.071547 143.938246 
L 558.751218 139.835174 
L 562.430889 136.606818 
L 566.11056 134.297025 
L 569.790231 132.958159 
L 573.469902 132.658577 
L 577.149573 133.487503 
L 580.829245 135.549936 
L 584.508916 138.947753 
L 588.188587 143.751381 
L 591.868258 149.973978 
L 595.547929 157.561178 
L 599.2276 166.402001 
L 602.907271 176.354604 
L 606.586942 187.271738 
L 610.266613 199.011289 
L 613.946284 211.426922 
L 621.305626 237.554699 
L 628.664969 263.774454 
L 632.34464 276.236958 
L 636.024311 287.967083 
L 639.703982 298.836677 
L 643.383653 308.809144 
L 647.063324 317.925059 
L 650.742995 326.270892 
L 654.422666 333.941153 
L 658.102337 341.005793 
L 661.782008 347.492299 
L 665.461679 353.386411 
L 669.141351 358.648929 
L 672.821022 363.241096 
L 676.500693 367.14912 
L 680.180364 370.399761 
L 683.860035 373.062415 
L 687.539706 375.237782 
L 691.219377 377.037521 
L 694.899048 378.562171 
L 698.578719 379.8848 
L 702.25839 381.045203 
L 705.938061 382.054973 
L 709.617732 382.909671 
L 713.297403 383.602374 
L 716.977075 384.133725 
L 720.656746 384.51616 
L 728.016088 384.932739 
L 739.055101 385.112543 
L 805.289181 385.470117 
L 812.648523 385.476225 
L 812.648523 385.476225 
" clip-path="url(#pd4c6918ced)" style="fill: none; stroke: #1f77b4; stroke-width: 1.5; stroke-linecap: square"/>
   </g>
   <g id="patch_70">
    <path d="M 43.78125 385.478125 
L 43.78125 22.318125 
" style="fill: none; stroke: #000000; stroke-width: 0.8; stroke-linejoin: miter; stroke-linecap: square"/>
   </g>
   <g id="patch_71">
    <path d="M 849.26125 385.478125 
L 849.26125 22.318125 
" style="fill: none; stroke: #000000; stroke-width: 0.8; stroke-linejoin: miter; stroke-linecap: square"/>
   </g>
   <g id="patch_72">
    <path d="M 43.78125 385.478125 
L 849.26125 385.478125 
" style="fill: none; stroke: #000000; stroke-width: 0.8; stroke-linejoin: miter; stroke-linecap: square"/>
   </g>
   <g id="patch_73">
    <path d="M 43.78125 22.318125 
L 849.26125 22.318125 
" style="fill: none; stroke: #000000; stroke-width: 0.8; stroke-linejoin: miter; stroke-linecap: square"/>
   </g>
   <g id="text_15">
    <!-- Distribution of Alb -->
    <g transform="translate(392.34125 16.318125) scale(0.12 -0.12)">
     <defs>
      <path id="DejaVuSans-72" d="M 2631 2963 
Q 2534 3019 2420 3045 
Q 2306 3072 2169 3072 
Q 1681 3072 1420 2755 
Q 1159 2438 1159 1844 
L 1159 0 
L 581 0 
L 581 3500 
L 1159 3500 
L 1159 2956 
Q 1341 3275 1631 3429 
Q 1922 3584 2338 3584 
Q 2397 3584 2469 3576 
Q 2541 3569 2628 3553 
L 2631 2963 
z
" transform="scale(0.015625)"/>
      <path id="DejaVuSans-75" d="M 544 1381 
L 544 3500 
L 1119 3500 
L 1119 1403 
Q 1119 906 1312 657 
Q 1506 409 1894 409 
Q 2359 409 2629 706 
Q 2900 1003 2900 1516 
L 2900 3500 
L 3475 3500 
L 3475 0 
L 2900 0 
L 2900 538 
Q 2691 219 2414 64 
Q 2138 -91 1772 -91 
Q 1169 -91 856 284 
Q 544 659 544 1381 
z
M 1991 3584 
L 1991 3584 
z
" transform="scale(0.015625)"/>
      <path id="DejaVuSans-6f" d="M 1959 3097 
Q 1497 3097 1228 2736 
Q 959 2375 959 1747 
Q 959 1119 1226 758 
Q 1494 397 1959 397 
Q 2419 397 2687 759 
Q 2956 1122 2956 1747 
Q 2956 2369 2687 2733 
Q 2419 3097 1959 3097 
z
M 1959 3584 
Q 2709 3584 3137 3096 
Q 3566 2609 3566 1747 
Q 3566 888 3137 398 
Q 2709 -91 1959 -91 
Q 1206 -91 779 398 
Q 353 888 353 1747 
Q 353 2609 779 3096 
Q 1206 3584 1959 3584 
z
" transform="scale(0.015625)"/>
      <path id="DejaVuSans-20" transform="scale(0.015625)"/>
      <path id="DejaVuSans-66" d="M 2375 4863 
L 2375 4384 
L 1825 4384 
Q 1516 4384 1395 4259 
Q 1275 4134 1275 3809 
L 1275 3500 
L 2222 3500 
L 2222 3053 
L 1275 3053 
L 1275 0 
L 697 0 
L 697 3053 
L 147 3053 
L 147 3500 
L 697 3500 
L 697 3744 
Q 697 4328 969 4595 
Q 1241 4863 1831 4863 
L 2375 4863 
z
" transform="scale(0.015625)"/>
     </defs>
     <use xlink:href="#DejaVuSans-44"/>
     <use xlink:href="#DejaVuSans-69" x="77.001953"/>
     <use xlink:href="#DejaVuSans-73" x="104.785156"/>
     <use xlink:href="#DejaVuSans-74" x="156.884766"/>
     <use xlink:href="#DejaVuSans-72" x="196.09375"/>
     <use xlink:href="#DejaVuSans-69" x="237.207031"/>
     <use xlink:href="#DejaVuSans-62" x="264.990234"/>
     <use xlink:href="#DejaVuSans-75" x="328.466797"/>
     <use xlink:href="#DejaVuSans-74" x="391.845703"/>
     <use xlink:href="#DejaVuSans-69" x="431.054688"/>
     <use xlink:href="#DejaVuSans-6f" x="458.837891"/>
     <use xlink:href="#DejaVuSans-6e" x="520.019531"/>
     <use xlink:href="#DejaVuSans-20" x="583.398438"/>
     <use xlink:href="#DejaVuSans-6f" x="615.185547"/>
     <use xlink:href="#DejaVuSans-66" x="676.367188"/>
     <use xlink:href="#DejaVuSans-20" x="711.572266"/>
     <use xlink:href="#DejaVuSans-41" x="743.359375"/>
     <use xlink:href="#DejaVuSans-6c" x="811.767578"/>
     <use xlink:href="#DejaVuSans-62" x="839.550781"/>
    </g>
   </g>
  </g>
 </g>
 <defs>
  <clipPath id="pd4c6918ced">
   <rect x="43.78125" y="22.318125" width="805.48" height="363.16"/>
  </clipPath>
 </defs>
</svg>
