<?xml version="1.0" encoding="utf-8" standalone="no"?>
<!DOCTYPE svg PUBLIC "-//W3C//DTD SVG 1.1//EN"
  "http://www.w3.org/Graphics/SVG/1.1/DTD/svg11.dtd">
<svg xmlns:xlink="http://www.w3.org/1999/xlink" width="856.46125pt" height="423.034375pt" viewBox="0 0 856.46125 423.034375" xmlns="http://www.w3.org/2000/svg" version="1.1">
 <metadata>
  <rdf:RDF xmlns:dc="http://purl.org/dc/elements/1.1/" xmlns:cc="http://creativecommons.org/ns#" xmlns:rdf="http://www.w3.org/1999/02/22-rdf-syntax-ns#">
   <cc:Work>
    <dc:type rdf:resource="http://purl.org/dc/dcmitype/StillImage"/>
    <dc:date>2024-07-14T12:19:42.890747</dc:date>
    <dc:format>image/svg+xml</dc:format>
    <dc:creator>
     <cc:Agent>
      <dc:title>Matplotlib v3.9.0, https://matplotlib.org/</dc:title>
     </cc:Agent>
    </dc:creator>
   </cc:Work>
  </rdf:RDF>
 </metadata>
 <defs>
  <style type="text/css">*{stroke-linejoin: round; stroke-linecap: butt}</style>
 </defs>
 <g id="figure_1">
  <g id="patch_1">
   <path d="M 0 423.034375 
L 856.46125 423.034375 
L 856.46125 0 
L 0 0 
z
" style="fill: #ffffff"/>
  </g>
  <g id="axes_1">
   <g id="patch_2">
    <path d="M 43.78125 385.478125 
L 849.26125 385.478125 
L 849.26125 22.318125 
L 43.78125 22.318125 
z
" style="fill: #ffffff"/>
   </g>
   <g id="patch_3">
    <path d="M 104.749813 385.478125 
L 110.542549 385.478125 
L 110.542549 383.984101 
L 104.749813 383.984101 
z
" clip-path="url(#pd96daff351)" style="fill: #1f77b4; fill-opacity: 0.5; stroke: #000000; stroke-width: 0.515871; stroke-linejoin: miter"/>
   </g>
   <g id="patch_4">
    <path d="M 110.542549 385.478125 
L 116.335285 385.478125 
L 116.335285 385.478125 
L 110.542549 385.478125 
z
" clip-path="url(#pd96daff351)" style="fill: #1f77b4; fill-opacity: 0.5; stroke: #000000; stroke-width: 0.515871; stroke-linejoin: miter"/>
   </g>
   <g id="patch_5">
    <path d="M 116.335285 385.478125 
L 122.128021 385.478125 
L 122.128021 385.478125 
L 116.335285 385.478125 
z
" clip-path="url(#pd96daff351)" style="fill: #1f77b4; fill-opacity: 0.5; stroke: #000000; stroke-width: 0.515871; stroke-linejoin: miter"/>
   </g>
   <g id="patch_6">
    <path d="M 122.128021 385.478125 
L 127.920758 385.478125 
L 127.920758 385.478125 
L 122.128021 385.478125 
z
" clip-path="url(#pd96daff351)" style="fill: #1f77b4; fill-opacity: 0.5; stroke: #000000; stroke-width: 0.515871; stroke-linejoin: miter"/>
   </g>
   <g id="patch_7">
    <path d="M 127.920758 385.478125 
L 133.713494 385.478125 
L 133.713494 385.478125 
L 127.920758 385.478125 
z
" clip-path="url(#pd96daff351)" style="fill: #1f77b4; fill-opacity: 0.5; stroke: #000000; stroke-width: 0.515871; stroke-linejoin: miter"/>
   </g>
   <g id="patch_8">
    <path d="M 133.713494 385.478125 
L 139.50623 385.478125 
L 139.50623 385.478125 
L 133.713494 385.478125 
z
" clip-path="url(#pd96daff351)" style="fill: #1f77b4; fill-opacity: 0.5; stroke: #000000; stroke-width: 0.515871; stroke-linejoin: miter"/>
   </g>
   <g id="patch_9">
    <path d="M 139.50623 385.478125 
L 145.298966 385.478125 
L 145.298966 385.478125 
L 139.50623 385.478125 
z
" clip-path="url(#pd96daff351)" style="fill: #1f77b4; fill-opacity: 0.5; stroke: #000000; stroke-width: 0.515871; stroke-linejoin: miter"/>
   </g>
   <g id="patch_10">
    <path d="M 145.298966 385.478125 
L 151.091703 385.478125 
L 151.091703 385.478125 
L 145.298966 385.478125 
z
" clip-path="url(#pd96daff351)" style="fill: #1f77b4; fill-opacity: 0.5; stroke: #000000; stroke-width: 0.515871; stroke-linejoin: miter"/>
   </g>
   <g id="patch_11">
    <path d="M 151.091703 385.478125 
L 156.884439 385.478125 
L 156.884439 384.731113 
L 151.091703 384.731113 
z
" clip-path="url(#pd96daff351)" style="fill: #1f77b4; fill-opacity: 0.5; stroke: #000000; stroke-width: 0.515871; stroke-linejoin: miter"/>
   </g>
   <g id="patch_12">
    <path d="M 156.884439 385.478125 
L 162.677175 385.478125 
L 162.677175 385.478125 
L 156.884439 385.478125 
z
" clip-path="url(#pd96daff351)" style="fill: #1f77b4; fill-opacity: 0.5; stroke: #000000; stroke-width: 0.515871; stroke-linejoin: miter"/>
   </g>
   <g id="patch_13">
    <path d="M 162.677175 385.478125 
L 168.469911 385.478125 
L 168.469911 385.478125 
L 162.677175 385.478125 
z
" clip-path="url(#pd96daff351)" style="fill: #1f77b4; fill-opacity: 0.5; stroke: #000000; stroke-width: 0.515871; stroke-linejoin: miter"/>
   </g>
   <g id="patch_14">
    <path d="M 168.469911 385.478125 
L 174.262647 385.478125 
L 174.262647 384.731113 
L 168.469911 384.731113 
z
" clip-path="url(#pd96daff351)" style="fill: #1f77b4; fill-opacity: 0.5; stroke: #000000; stroke-width: 0.515871; stroke-linejoin: miter"/>
   </g>
   <g id="patch_15">
    <path d="M 174.262647 385.478125 
L 180.055384 385.478125 
L 180.055384 385.478125 
L 174.262647 385.478125 
z
" clip-path="url(#pd96daff351)" style="fill: #1f77b4; fill-opacity: 0.5; stroke: #000000; stroke-width: 0.515871; stroke-linejoin: miter"/>
   </g>
   <g id="patch_16">
    <path d="M 180.055384 385.478125 
L 185.84812 385.478125 
L 185.84812 385.478125 
L 180.055384 385.478125 
z
" clip-path="url(#pd96daff351)" style="fill: #1f77b4; fill-opacity: 0.5; stroke: #000000; stroke-width: 0.515871; stroke-linejoin: miter"/>
   </g>
   <g id="patch_17">
    <path d="M 185.84812 385.478125 
L 191.640856 385.478125 
L 191.640856 383.237088 
L 185.84812 383.237088 
z
" clip-path="url(#pd96daff351)" style="fill: #1f77b4; fill-opacity: 0.5; stroke: #000000; stroke-width: 0.515871; stroke-linejoin: miter"/>
   </g>
   <g id="patch_18">
    <path d="M 191.640856 385.478125 
L 197.433592 385.478125 
L 197.433592 384.731113 
L 191.640856 384.731113 
z
" clip-path="url(#pd96daff351)" style="fill: #1f77b4; fill-opacity: 0.5; stroke: #000000; stroke-width: 0.515871; stroke-linejoin: miter"/>
   </g>
   <g id="patch_19">
    <path d="M 197.433592 385.478125 
L 203.226329 385.478125 
L 203.226329 383.984101 
L 197.433592 383.984101 
z
" clip-path="url(#pd96daff351)" style="fill: #1f77b4; fill-opacity: 0.5; stroke: #000000; stroke-width: 0.515871; stroke-linejoin: miter"/>
   </g>
   <g id="patch_20">
    <path d="M 203.226329 385.478125 
L 209.019065 385.478125 
L 209.019065 384.731113 
L 203.226329 384.731113 
z
" clip-path="url(#pd96daff351)" style="fill: #1f77b4; fill-opacity: 0.5; stroke: #000000; stroke-width: 0.515871; stroke-linejoin: miter"/>
   </g>
   <g id="patch_21">
    <path d="M 209.019065 385.478125 
L 214.811801 385.478125 
L 214.811801 382.490076 
L 209.019065 382.490076 
z
" clip-path="url(#pd96daff351)" style="fill: #1f77b4; fill-opacity: 0.5; stroke: #000000; stroke-width: 0.515871; stroke-linejoin: miter"/>
   </g>
   <g id="patch_22">
    <path d="M 214.811801 385.478125 
L 220.604537 385.478125 
L 220.604537 383.237088 
L 214.811801 383.237088 
z
" clip-path="url(#pd96daff351)" style="fill: #1f77b4; fill-opacity: 0.5; stroke: #000000; stroke-width: 0.515871; stroke-linejoin: miter"/>
   </g>
   <g id="patch_23">
    <path d="M 220.604537 385.478125 
L 226.397273 385.478125 
L 226.397273 383.984101 
L 220.604537 383.984101 
z
" clip-path="url(#pd96daff351)" style="fill: #1f77b4; fill-opacity: 0.5; stroke: #000000; stroke-width: 0.515871; stroke-linejoin: miter"/>
   </g>
   <g id="patch_24">
    <path d="M 226.397273 385.478125 
L 232.19001 385.478125 
L 232.19001 382.490076 
L 226.397273 382.490076 
z
" clip-path="url(#pd96daff351)" style="fill: #1f77b4; fill-opacity: 0.5; stroke: #000000; stroke-width: 0.515871; stroke-linejoin: miter"/>
   </g>
   <g id="patch_25">
    <path d="M 232.19001 385.478125 
L 237.982746 385.478125 
L 237.982746 383.984101 
L 232.19001 383.984101 
z
" clip-path="url(#pd96daff351)" style="fill: #1f77b4; fill-opacity: 0.5; stroke: #000000; stroke-width: 0.515871; stroke-linejoin: miter"/>
   </g>
   <g id="patch_26">
    <path d="M 237.982746 385.478125 
L 243.775482 385.478125 
L 243.775482 385.478125 
L 237.982746 385.478125 
z
" clip-path="url(#pd96daff351)" style="fill: #1f77b4; fill-opacity: 0.5; stroke: #000000; stroke-width: 0.515871; stroke-linejoin: miter"/>
   </g>
   <g id="patch_27">
    <path d="M 243.775482 385.478125 
L 249.568218 385.478125 
L 249.568218 381.743064 
L 243.775482 381.743064 
z
" clip-path="url(#pd96daff351)" style="fill: #1f77b4; fill-opacity: 0.5; stroke: #000000; stroke-width: 0.515871; stroke-linejoin: miter"/>
   </g>
   <g id="patch_28">
    <path d="M 249.568218 385.478125 
L 255.360955 385.478125 
L 255.360955 382.490076 
L 249.568218 382.490076 
z
" clip-path="url(#pd96daff351)" style="fill: #1f77b4; fill-opacity: 0.5; stroke: #000000; stroke-width: 0.515871; stroke-linejoin: miter"/>
   </g>
   <g id="patch_29">
    <path d="M 255.360955 385.478125 
L 261.153691 385.478125 
L 261.153691 380.996052 
L 255.360955 380.996052 
z
" clip-path="url(#pd96daff351)" style="fill: #1f77b4; fill-opacity: 0.5; stroke: #000000; stroke-width: 0.515871; stroke-linejoin: miter"/>
   </g>
   <g id="patch_30">
    <path d="M 261.153691 385.478125 
L 266.946427 385.478125 
L 266.946427 384.731113 
L 261.153691 384.731113 
z
" clip-path="url(#pd96daff351)" style="fill: #1f77b4; fill-opacity: 0.5; stroke: #000000; stroke-width: 0.515871; stroke-linejoin: miter"/>
   </g>
   <g id="patch_31">
    <path d="M 266.946427 385.478125 
L 272.739163 385.478125 
L 272.739163 382.490076 
L 266.946427 382.490076 
z
" clip-path="url(#pd96daff351)" style="fill: #1f77b4; fill-opacity: 0.5; stroke: #000000; stroke-width: 0.515871; stroke-linejoin: miter"/>
   </g>
   <g id="patch_32">
    <path d="M 272.739163 385.478125 
L 278.531899 385.478125 
L 278.531899 381.743064 
L 272.739163 381.743064 
z
" clip-path="url(#pd96daff351)" style="fill: #1f77b4; fill-opacity: 0.5; stroke: #000000; stroke-width: 0.515871; stroke-linejoin: miter"/>
   </g>
   <g id="patch_33">
    <path d="M 278.531899 385.478125 
L 284.324636 385.478125 
L 284.324636 381.743064 
L 278.531899 381.743064 
z
" clip-path="url(#pd96daff351)" style="fill: #1f77b4; fill-opacity: 0.5; stroke: #000000; stroke-width: 0.515871; stroke-linejoin: miter"/>
   </g>
   <g id="patch_34">
    <path d="M 284.324636 385.478125 
L 290.117372 385.478125 
L 290.117372 379.502027 
L 284.324636 379.502027 
z
" clip-path="url(#pd96daff351)" style="fill: #1f77b4; fill-opacity: 0.5; stroke: #000000; stroke-width: 0.515871; stroke-linejoin: miter"/>
   </g>
   <g id="patch_35">
    <path d="M 290.117372 385.478125 
L 295.910108 385.478125 
L 295.910108 377.26099 
L 290.117372 377.26099 
z
" clip-path="url(#pd96daff351)" style="fill: #1f77b4; fill-opacity: 0.5; stroke: #000000; stroke-width: 0.515871; stroke-linejoin: miter"/>
   </g>
   <g id="patch_36">
    <path d="M 295.910108 385.478125 
L 301.702844 385.478125 
L 301.702844 377.26099 
L 295.910108 377.26099 
z
" clip-path="url(#pd96daff351)" style="fill: #1f77b4; fill-opacity: 0.5; stroke: #000000; stroke-width: 0.515871; stroke-linejoin: miter"/>
   </g>
   <g id="patch_37">
    <path d="M 301.702844 385.478125 
L 307.495581 385.478125 
L 307.495581 375.766966 
L 301.702844 375.766966 
z
" clip-path="url(#pd96daff351)" style="fill: #1f77b4; fill-opacity: 0.5; stroke: #000000; stroke-width: 0.515871; stroke-linejoin: miter"/>
   </g>
   <g id="patch_38">
    <path d="M 307.495581 385.478125 
L 313.288317 385.478125 
L 313.288317 370.53788 
L 307.495581 370.53788 
z
" clip-path="url(#pd96daff351)" style="fill: #1f77b4; fill-opacity: 0.5; stroke: #000000; stroke-width: 0.515871; stroke-linejoin: miter"/>
   </g>
   <g id="patch_39">
    <path d="M 313.288317 385.478125 
L 319.081053 385.478125 
L 319.081053 372.778917 
L 313.288317 372.778917 
z
" clip-path="url(#pd96daff351)" style="fill: #1f77b4; fill-opacity: 0.5; stroke: #000000; stroke-width: 0.515871; stroke-linejoin: miter"/>
   </g>
   <g id="patch_40">
    <path d="M 319.081053 385.478125 
L 324.873789 385.478125 
L 324.873789 367.549831 
L 319.081053 367.549831 
z
" clip-path="url(#pd96daff351)" style="fill: #1f77b4; fill-opacity: 0.5; stroke: #000000; stroke-width: 0.515871; stroke-linejoin: miter"/>
   </g>
   <g id="patch_41">
    <path d="M 324.873789 385.478125 
L 330.666526 385.478125 
L 330.666526 369.043856 
L 324.873789 369.043856 
z
" clip-path="url(#pd96daff351)" style="fill: #1f77b4; fill-opacity: 0.5; stroke: #000000; stroke-width: 0.515871; stroke-linejoin: miter"/>
   </g>
   <g id="patch_42">
    <path d="M 330.666526 385.478125 
L 336.459262 385.478125 
L 336.459262 358.585684 
L 330.666526 358.585684 
z
" clip-path="url(#pd96daff351)" style="fill: #1f77b4; fill-opacity: 0.5; stroke: #000000; stroke-width: 0.515871; stroke-linejoin: miter"/>
   </g>
   <g id="patch_43">
    <path d="M 336.459262 385.478125 
L 342.251998 385.478125 
L 342.251998 357.09166 
L 336.459262 357.09166 
z
" clip-path="url(#pd96daff351)" style="fill: #1f77b4; fill-opacity: 0.5; stroke: #000000; stroke-width: 0.515871; stroke-linejoin: miter"/>
   </g>
   <g id="patch_44">
    <path d="M 342.251998 385.478125 
L 348.044734 385.478125 
L 348.044734 357.09166 
L 342.251998 357.09166 
z
" clip-path="url(#pd96daff351)" style="fill: #1f77b4; fill-opacity: 0.5; stroke: #000000; stroke-width: 0.515871; stroke-linejoin: miter"/>
   </g>
   <g id="patch_45">
    <path d="M 348.044734 385.478125 
L 353.83747 385.478125 
L 353.83747 345.139464 
L 348.044734 345.139464 
z
" clip-path="url(#pd96daff351)" style="fill: #1f77b4; fill-opacity: 0.5; stroke: #000000; stroke-width: 0.515871; stroke-linejoin: miter"/>
   </g>
   <g id="patch_46">
    <path d="M 353.83747 385.478125 
L 359.630207 385.478125 
L 359.630207 335.428305 
L 353.83747 335.428305 
z
" clip-path="url(#pd96daff351)" style="fill: #1f77b4; fill-opacity: 0.5; stroke: #000000; stroke-width: 0.515871; stroke-linejoin: miter"/>
   </g>
   <g id="patch_47">
    <path d="M 359.630207 385.478125 
L 365.422943 385.478125 
L 365.422943 332.440256 
L 359.630207 332.440256 
z
" clip-path="url(#pd96daff351)" style="fill: #1f77b4; fill-opacity: 0.5; stroke: #000000; stroke-width: 0.515871; stroke-linejoin: miter"/>
   </g>
   <g id="patch_48">
    <path d="M 365.422943 385.478125 
L 371.215679 385.478125 
L 371.215679 316.752999 
L 365.422943 316.752999 
z
" clip-path="url(#pd96daff351)" style="fill: #1f77b4; fill-opacity: 0.5; stroke: #000000; stroke-width: 0.515871; stroke-linejoin: miter"/>
   </g>
   <g id="patch_49">
    <path d="M 371.215679 385.478125 
L 377.008415 385.478125 
L 377.008415 295.089644 
L 371.215679 295.089644 
z
" clip-path="url(#pd96daff351)" style="fill: #1f77b4; fill-opacity: 0.5; stroke: #000000; stroke-width: 0.515871; stroke-linejoin: miter"/>
   </g>
   <g id="patch_50">
    <path d="M 377.008415 385.478125 
L 382.801152 385.478125 
L 382.801152 385.478125 
L 377.008415 385.478125 
z
" clip-path="url(#pd96daff351)" style="fill: #1f77b4; fill-opacity: 0.5; stroke: #000000; stroke-width: 0.515871; stroke-linejoin: miter"/>
   </g>
   <g id="patch_51">
    <path d="M 382.801152 385.478125 
L 388.593888 385.478125 
L 388.593888 310.776901 
L 382.801152 310.776901 
z
" clip-path="url(#pd96daff351)" style="fill: #1f77b4; fill-opacity: 0.5; stroke: #000000; stroke-width: 0.515871; stroke-linejoin: miter"/>
   </g>
   <g id="patch_52">
    <path d="M 388.593888 385.478125 
L 394.386624 385.478125 
L 394.386624 285.378485 
L 388.593888 285.378485 
z
" clip-path="url(#pd96daff351)" style="fill: #1f77b4; fill-opacity: 0.5; stroke: #000000; stroke-width: 0.515871; stroke-linejoin: miter"/>
   </g>
   <g id="patch_53">
    <path d="M 394.386624 385.478125 
L 400.17936 385.478125 
L 400.17936 271.185252 
L 394.386624 271.185252 
z
" clip-path="url(#pd96daff351)" style="fill: #1f77b4; fill-opacity: 0.5; stroke: #000000; stroke-width: 0.515871; stroke-linejoin: miter"/>
   </g>
   <g id="patch_54">
    <path d="M 400.17936 385.478125 
L 405.972096 385.478125 
L 405.972096 251.015922 
L 400.17936 251.015922 
z
" clip-path="url(#pd96daff351)" style="fill: #1f77b4; fill-opacity: 0.5; stroke: #000000; stroke-width: 0.515871; stroke-linejoin: miter"/>
   </g>
   <g id="patch_55">
    <path d="M 405.972096 385.478125 
L 411.764833 385.478125 
L 411.764833 218.147383 
L 405.972096 218.147383 
z
" clip-path="url(#pd96daff351)" style="fill: #1f77b4; fill-opacity: 0.5; stroke: #000000; stroke-width: 0.515871; stroke-linejoin: miter"/>
   </g>
   <g id="patch_56">
    <path d="M 411.764833 385.478125 
L 417.557569 385.478125 
L 417.557569 206.9422 
L 411.764833 206.9422 
z
" clip-path="url(#pd96daff351)" style="fill: #1f77b4; fill-opacity: 0.5; stroke: #000000; stroke-width: 0.515871; stroke-linejoin: miter"/>
   </g>
   <g id="patch_57">
    <path d="M 417.557569 385.478125 
L 423.350305 385.478125 
L 423.350305 182.290796 
L 417.557569 182.290796 
z
" clip-path="url(#pd96daff351)" style="fill: #1f77b4; fill-opacity: 0.5; stroke: #000000; stroke-width: 0.515871; stroke-linejoin: miter"/>
   </g>
   <g id="patch_58">
    <path d="M 423.350305 385.478125 
L 429.143041 385.478125 
L 429.143041 139.711098 
L 423.350305 139.711098 
z
" clip-path="url(#pd96daff351)" style="fill: #1f77b4; fill-opacity: 0.5; stroke: #000000; stroke-width: 0.515871; stroke-linejoin: miter"/>
   </g>
   <g id="patch_59">
    <path d="M 429.143041 385.478125 
L 434.935778 385.478125 
L 434.935778 106.095548 
L 429.143041 106.095548 
z
" clip-path="url(#pd96daff351)" style="fill: #1f77b4; fill-opacity: 0.5; stroke: #000000; stroke-width: 0.515871; stroke-linejoin: miter"/>
   </g>
   <g id="patch_60">
    <path d="M 434.935778 385.478125 
L 440.728514 385.478125 
L 440.728514 60.527801 
L 434.935778 60.527801 
z
" clip-path="url(#pd96daff351)" style="fill: #1f77b4; fill-opacity: 0.5; stroke: #000000; stroke-width: 0.515871; stroke-linejoin: miter"/>
   </g>
   <g id="patch_61">
    <path d="M 440.728514 385.478125 
L 446.52125 385.478125 
L 446.52125 59.033777 
L 440.728514 59.033777 
z
" clip-path="url(#pd96daff351)" style="fill: #1f77b4; fill-opacity: 0.5; stroke: #000000; stroke-width: 0.515871; stroke-linejoin: miter"/>
   </g>
   <g id="patch_62">
    <path d="M 446.52125 385.478125 
L 452.313986 385.478125 
L 452.313986 65.756887 
L 446.52125 65.756887 
z
" clip-path="url(#pd96daff351)" style="fill: #1f77b4; fill-opacity: 0.5; stroke: #000000; stroke-width: 0.515871; stroke-linejoin: miter"/>
   </g>
   <g id="patch_63">
    <path d="M 452.313986 385.478125 
L 458.106722 385.478125 
L 458.106722 39.611458 
L 452.313986 39.611458 
z
" clip-path="url(#pd96daff351)" style="fill: #1f77b4; fill-opacity: 0.5; stroke: #000000; stroke-width: 0.515871; stroke-linejoin: miter"/>
   </g>
   <g id="patch_64">
    <path d="M 458.106722 385.478125 
L 463.899459 385.478125 
L 463.899459 81.444144 
L 458.106722 81.444144 
z
" clip-path="url(#pd96daff351)" style="fill: #1f77b4; fill-opacity: 0.5; stroke: #000000; stroke-width: 0.515871; stroke-linejoin: miter"/>
   </g>
   <g id="patch_65">
    <path d="M 463.899459 385.478125 
L 469.692195 385.478125 
L 469.692195 121.782805 
L 463.899459 121.782805 
z
" clip-path="url(#pd96daff351)" style="fill: #1f77b4; fill-opacity: 0.5; stroke: #000000; stroke-width: 0.515871; stroke-linejoin: miter"/>
   </g>
   <g id="patch_66">
    <path d="M 469.692195 385.478125 
L 475.484931 385.478125 
L 475.484931 138.217074 
L 469.692195 138.217074 
z
" clip-path="url(#pd96daff351)" style="fill: #1f77b4; fill-opacity: 0.5; stroke: #000000; stroke-width: 0.515871; stroke-linejoin: miter"/>
   </g>
   <g id="patch_67">
    <path d="M 475.484931 385.478125 
L 481.277667 385.478125 
L 481.277667 199.472077 
L 475.484931 199.472077 
z
" clip-path="url(#pd96daff351)" style="fill: #1f77b4; fill-opacity: 0.5; stroke: #000000; stroke-width: 0.515871; stroke-linejoin: miter"/>
   </g>
   <g id="patch_68">
    <path d="M 481.277667 385.478125 
L 487.070404 385.478125 
L 487.070404 214.412322 
L 481.277667 214.412322 
z
" clip-path="url(#pd96daff351)" style="fill: #1f77b4; fill-opacity: 0.5; stroke: #000000; stroke-width: 0.515871; stroke-linejoin: miter"/>
   </g>
   <g id="patch_69">
    <path d="M 487.070404 385.478125 
L 492.86314 385.478125 
L 492.86314 267.450191 
L 487.070404 267.450191 
z
" clip-path="url(#pd96daff351)" style="fill: #1f77b4; fill-opacity: 0.5; stroke: #000000; stroke-width: 0.515871; stroke-linejoin: miter"/>
   </g>
   <g id="patch_70">
    <path d="M 492.86314 385.478125 
L 498.655876 385.478125 
L 498.655876 307.788852 
L 492.86314 307.788852 
z
" clip-path="url(#pd96daff351)" style="fill: #1f77b4; fill-opacity: 0.5; stroke: #000000; stroke-width: 0.515871; stroke-linejoin: miter"/>
   </g>
   <g id="patch_71">
    <path d="M 498.655876 385.478125 
L 504.448612 385.478125 
L 504.448612 320.48806 
L 498.655876 320.48806 
z
" clip-path="url(#pd96daff351)" style="fill: #1f77b4; fill-opacity: 0.5; stroke: #000000; stroke-width: 0.515871; stroke-linejoin: miter"/>
   </g>
   <g id="patch_72">
    <path d="M 504.448612 385.478125 
L 510.241348 385.478125 
L 510.241348 346.633489 
L 504.448612 346.633489 
z
" clip-path="url(#pd96daff351)" style="fill: #1f77b4; fill-opacity: 0.5; stroke: #000000; stroke-width: 0.515871; stroke-linejoin: miter"/>
   </g>
   <g id="patch_73">
    <path d="M 510.241348 385.478125 
L 516.034085 385.478125 
L 516.034085 385.478125 
L 510.241348 385.478125 
z
" clip-path="url(#pd96daff351)" style="fill: #1f77b4; fill-opacity: 0.5; stroke: #000000; stroke-width: 0.515871; stroke-linejoin: miter"/>
   </g>
   <g id="patch_74">
    <path d="M 516.034085 385.478125 
L 521.826821 385.478125 
L 521.826821 360.826721 
L 516.034085 360.826721 
z
" clip-path="url(#pd96daff351)" style="fill: #1f77b4; fill-opacity: 0.5; stroke: #000000; stroke-width: 0.515871; stroke-linejoin: miter"/>
   </g>
   <g id="patch_75">
    <path d="M 521.826821 385.478125 
L 527.619557 385.478125 
L 527.619557 369.790868 
L 521.826821 369.790868 
z
" clip-path="url(#pd96daff351)" style="fill: #1f77b4; fill-opacity: 0.5; stroke: #000000; stroke-width: 0.515871; stroke-linejoin: miter"/>
   </g>
   <g id="patch_76">
    <path d="M 527.619557 385.478125 
L 533.412293 385.478125 
L 533.412293 368.296844 
L 527.619557 368.296844 
z
" clip-path="url(#pd96daff351)" style="fill: #1f77b4; fill-opacity: 0.5; stroke: #000000; stroke-width: 0.515871; stroke-linejoin: miter"/>
   </g>
   <g id="patch_77">
    <path d="M 533.412293 385.478125 
L 539.20503 385.478125 
L 539.20503 375.019954 
L 533.412293 375.019954 
z
" clip-path="url(#pd96daff351)" style="fill: #1f77b4; fill-opacity: 0.5; stroke: #000000; stroke-width: 0.515871; stroke-linejoin: miter"/>
   </g>
   <g id="patch_78">
    <path d="M 539.20503 385.478125 
L 544.997766 385.478125 
L 544.997766 378.755015 
L 539.20503 378.755015 
z
" clip-path="url(#pd96daff351)" style="fill: #1f77b4; fill-opacity: 0.5; stroke: #000000; stroke-width: 0.515871; stroke-linejoin: miter"/>
   </g>
   <g id="patch_79">
    <path d="M 544.997766 385.478125 
L 550.790502 385.478125 
L 550.790502 380.996052 
L 544.997766 380.996052 
z
" clip-path="url(#pd96daff351)" style="fill: #1f77b4; fill-opacity: 0.5; stroke: #000000; stroke-width: 0.515871; stroke-linejoin: miter"/>
   </g>
   <g id="patch_80">
    <path d="M 550.790502 385.478125 
L 556.583238 385.478125 
L 556.583238 383.984101 
L 550.790502 383.984101 
z
" clip-path="url(#pd96daff351)" style="fill: #1f77b4; fill-opacity: 0.5; stroke: #000000; stroke-width: 0.515871; stroke-linejoin: miter"/>
   </g>
   <g id="patch_81">
    <path d="M 556.583238 385.478125 
L 562.375974 385.478125 
L 562.375974 383.237088 
L 556.583238 383.237088 
z
" clip-path="url(#pd96daff351)" style="fill: #1f77b4; fill-opacity: 0.5; stroke: #000000; stroke-width: 0.515871; stroke-linejoin: miter"/>
   </g>
   <g id="patch_82">
    <path d="M 562.375974 385.478125 
L 568.168711 385.478125 
L 568.168711 385.478125 
L 562.375974 385.478125 
z
" clip-path="url(#pd96daff351)" style="fill: #1f77b4; fill-opacity: 0.5; stroke: #000000; stroke-width: 0.515871; stroke-linejoin: miter"/>
   </g>
   <g id="patch_83">
    <path d="M 568.168711 385.478125 
L 573.961447 385.478125 
L 573.961447 383.984101 
L 568.168711 383.984101 
z
" clip-path="url(#pd96daff351)" style="fill: #1f77b4; fill-opacity: 0.5; stroke: #000000; stroke-width: 0.515871; stroke-linejoin: miter"/>
   </g>
   <g id="patch_84">
    <path d="M 573.961447 385.478125 
L 579.754183 385.478125 
L 579.754183 384.731113 
L 573.961447 384.731113 
z
" clip-path="url(#pd96daff351)" style="fill: #1f77b4; fill-opacity: 0.5; stroke: #000000; stroke-width: 0.515871; stroke-linejoin: miter"/>
   </g>
   <g id="patch_85">
    <path d="M 579.754183 385.478125 
L 585.546919 385.478125 
L 585.546919 385.478125 
L 579.754183 385.478125 
z
" clip-path="url(#pd96daff351)" style="fill: #1f77b4; fill-opacity: 0.5; stroke: #000000; stroke-width: 0.515871; stroke-linejoin: miter"/>
   </g>
   <g id="patch_86">
    <path d="M 585.546919 385.478125 
L 591.339656 385.478125 
L 591.339656 383.237088 
L 585.546919 383.237088 
z
" clip-path="url(#pd96daff351)" style="fill: #1f77b4; fill-opacity: 0.5; stroke: #000000; stroke-width: 0.515871; stroke-linejoin: miter"/>
   </g>
   <g id="patch_87">
    <path d="M 591.339656 385.478125 
L 597.132392 385.478125 
L 597.132392 383.984101 
L 591.339656 383.984101 
z
" clip-path="url(#pd96daff351)" style="fill: #1f77b4; fill-opacity: 0.5; stroke: #000000; stroke-width: 0.515871; stroke-linejoin: miter"/>
   </g>
   <g id="patch_88">
    <path d="M 597.132392 385.478125 
L 602.925128 385.478125 
L 602.925128 384.731113 
L 597.132392 384.731113 
z
" clip-path="url(#pd96daff351)" style="fill: #1f77b4; fill-opacity: 0.5; stroke: #000000; stroke-width: 0.515871; stroke-linejoin: miter"/>
   </g>
   <g id="patch_89">
    <path d="M 602.925128 385.478125 
L 608.717864 385.478125 
L 608.717864 385.478125 
L 602.925128 385.478125 
z
" clip-path="url(#pd96daff351)" style="fill: #1f77b4; fill-opacity: 0.5; stroke: #000000; stroke-width: 0.515871; stroke-linejoin: miter"/>
   </g>
   <g id="patch_90">
    <path d="M 608.717864 385.478125 
L 614.510601 385.478125 
L 614.510601 383.984101 
L 608.717864 383.984101 
z
" clip-path="url(#pd96daff351)" style="fill: #1f77b4; fill-opacity: 0.5; stroke: #000000; stroke-width: 0.515871; stroke-linejoin: miter"/>
   </g>
   <g id="patch_91">
    <path d="M 614.510601 385.478125 
L 620.303337 385.478125 
L 620.303337 385.478125 
L 614.510601 385.478125 
z
" clip-path="url(#pd96daff351)" style="fill: #1f77b4; fill-opacity: 0.5; stroke: #000000; stroke-width: 0.515871; stroke-linejoin: miter"/>
   </g>
   <g id="patch_92">
    <path d="M 620.303337 385.478125 
L 626.096073 385.478125 
L 626.096073 383.984101 
L 620.303337 383.984101 
z
" clip-path="url(#pd96daff351)" style="fill: #1f77b4; fill-opacity: 0.5; stroke: #000000; stroke-width: 0.515871; stroke-linejoin: miter"/>
   </g>
   <g id="patch_93">
    <path d="M 626.096073 385.478125 
L 631.888809 385.478125 
L 631.888809 385.478125 
L 626.096073 385.478125 
z
" clip-path="url(#pd96daff351)" style="fill: #1f77b4; fill-opacity: 0.5; stroke: #000000; stroke-width: 0.515871; stroke-linejoin: miter"/>
   </g>
   <g id="patch_94">
    <path d="M 631.888809 385.478125 
L 637.681545 385.478125 
L 637.681545 385.478125 
L 631.888809 385.478125 
z
" clip-path="url(#pd96daff351)" style="fill: #1f77b4; fill-opacity: 0.5; stroke: #000000; stroke-width: 0.515871; stroke-linejoin: miter"/>
   </g>
   <g id="patch_95">
    <path d="M 637.681545 385.478125 
L 643.474282 385.478125 
L 643.474282 385.478125 
L 637.681545 385.478125 
z
" clip-path="url(#pd96daff351)" style="fill: #1f77b4; fill-opacity: 0.5; stroke: #000000; stroke-width: 0.515871; stroke-linejoin: miter"/>
   </g>
   <g id="patch_96">
    <path d="M 643.474282 385.478125 
L 649.267018 385.478125 
L 649.267018 384.731113 
L 643.474282 384.731113 
z
" clip-path="url(#pd96daff351)" style="fill: #1f77b4; fill-opacity: 0.5; stroke: #000000; stroke-width: 0.515871; stroke-linejoin: miter"/>
   </g>
   <g id="patch_97">
    <path d="M 649.267018 385.478125 
L 655.059754 385.478125 
L 655.059754 385.478125 
L 649.267018 385.478125 
z
" clip-path="url(#pd96daff351)" style="fill: #1f77b4; fill-opacity: 0.5; stroke: #000000; stroke-width: 0.515871; stroke-linejoin: miter"/>
   </g>
   <g id="patch_98">
    <path d="M 655.059754 385.478125 
L 660.85249 385.478125 
L 660.85249 383.237088 
L 655.059754 383.237088 
z
" clip-path="url(#pd96daff351)" style="fill: #1f77b4; fill-opacity: 0.5; stroke: #000000; stroke-width: 0.515871; stroke-linejoin: miter"/>
   </g>
   <g id="patch_99">
    <path d="M 660.85249 385.478125 
L 666.645227 385.478125 
L 666.645227 385.478125 
L 660.85249 385.478125 
z
" clip-path="url(#pd96daff351)" style="fill: #1f77b4; fill-opacity: 0.5; stroke: #000000; stroke-width: 0.515871; stroke-linejoin: miter"/>
   </g>
   <g id="patch_100">
    <path d="M 666.645227 385.478125 
L 672.437963 385.478125 
L 672.437963 385.478125 
L 666.645227 385.478125 
z
" clip-path="url(#pd96daff351)" style="fill: #1f77b4; fill-opacity: 0.5; stroke: #000000; stroke-width: 0.515871; stroke-linejoin: miter"/>
   </g>
   <g id="patch_101">
    <path d="M 672.437963 385.478125 
L 678.230699 385.478125 
L 678.230699 384.731113 
L 672.437963 384.731113 
z
" clip-path="url(#pd96daff351)" style="fill: #1f77b4; fill-opacity: 0.5; stroke: #000000; stroke-width: 0.515871; stroke-linejoin: miter"/>
   </g>
   <g id="patch_102">
    <path d="M 678.230699 385.478125 
L 684.023435 385.478125 
L 684.023435 385.478125 
L 678.230699 385.478125 
z
" clip-path="url(#pd96daff351)" style="fill: #1f77b4; fill-opacity: 0.5; stroke: #000000; stroke-width: 0.515871; stroke-linejoin: miter"/>
   </g>
   <g id="patch_103">
    <path d="M 684.023435 385.478125 
L 689.816171 385.478125 
L 689.816171 385.478125 
L 684.023435 385.478125 
z
" clip-path="url(#pd96daff351)" style="fill: #1f77b4; fill-opacity: 0.5; stroke: #000000; stroke-width: 0.515871; stroke-linejoin: miter"/>
   </g>
   <g id="patch_104">
    <path d="M 689.816171 385.478125 
L 695.608908 385.478125 
L 695.608908 385.478125 
L 689.816171 385.478125 
z
" clip-path="url(#pd96daff351)" style="fill: #1f77b4; fill-opacity: 0.5; stroke: #000000; stroke-width: 0.515871; stroke-linejoin: miter"/>
   </g>
   <g id="patch_105">
    <path d="M 695.608908 385.478125 
L 701.401644 385.478125 
L 701.401644 384.731113 
L 695.608908 384.731113 
z
" clip-path="url(#pd96daff351)" style="fill: #1f77b4; fill-opacity: 0.5; stroke: #000000; stroke-width: 0.515871; stroke-linejoin: miter"/>
   </g>
   <g id="patch_106">
    <path d="M 701.401644 385.478125 
L 707.19438 385.478125 
L 707.19438 385.478125 
L 701.401644 385.478125 
z
" clip-path="url(#pd96daff351)" style="fill: #1f77b4; fill-opacity: 0.5; stroke: #000000; stroke-width: 0.515871; stroke-linejoin: miter"/>
   </g>
   <g id="patch_107">
    <path d="M 707.19438 385.478125 
L 712.987116 385.478125 
L 712.987116 385.478125 
L 707.19438 385.478125 
z
" clip-path="url(#pd96daff351)" style="fill: #1f77b4; fill-opacity: 0.5; stroke: #000000; stroke-width: 0.515871; stroke-linejoin: miter"/>
   </g>
   <g id="patch_108">
    <path d="M 712.987116 385.478125 
L 718.779853 385.478125 
L 718.779853 385.478125 
L 712.987116 385.478125 
z
" clip-path="url(#pd96daff351)" style="fill: #1f77b4; fill-opacity: 0.5; stroke: #000000; stroke-width: 0.515871; stroke-linejoin: miter"/>
   </g>
   <g id="patch_109">
    <path d="M 718.779853 385.478125 
L 724.572589 385.478125 
L 724.572589 385.478125 
L 718.779853 385.478125 
z
" clip-path="url(#pd96daff351)" style="fill: #1f77b4; fill-opacity: 0.5; stroke: #000000; stroke-width: 0.515871; stroke-linejoin: miter"/>
   </g>
   <g id="patch_110">
    <path d="M 724.572589 385.478125 
L 730.365325 385.478125 
L 730.365325 385.478125 
L 724.572589 385.478125 
z
" clip-path="url(#pd96daff351)" style="fill: #1f77b4; fill-opacity: 0.5; stroke: #000000; stroke-width: 0.515871; stroke-linejoin: miter"/>
   </g>
   <g id="patch_111">
    <path d="M 730.365325 385.478125 
L 736.158061 385.478125 
L 736.158061 384.731113 
L 730.365325 384.731113 
z
" clip-path="url(#pd96daff351)" style="fill: #1f77b4; fill-opacity: 0.5; stroke: #000000; stroke-width: 0.515871; stroke-linejoin: miter"/>
   </g>
   <g id="patch_112">
    <path d="M 736.158061 385.478125 
L 741.950797 385.478125 
L 741.950797 385.478125 
L 736.158061 385.478125 
z
" clip-path="url(#pd96daff351)" style="fill: #1f77b4; fill-opacity: 0.5; stroke: #000000; stroke-width: 0.515871; stroke-linejoin: miter"/>
   </g>
   <g id="patch_113">
    <path d="M 741.950797 385.478125 
L 747.743534 385.478125 
L 747.743534 385.478125 
L 741.950797 385.478125 
z
" clip-path="url(#pd96daff351)" style="fill: #1f77b4; fill-opacity: 0.5; stroke: #000000; stroke-width: 0.515871; stroke-linejoin: miter"/>
   </g>
   <g id="patch_114">
    <path d="M 747.743534 385.478125 
L 753.53627 385.478125 
L 753.53627 385.478125 
L 747.743534 385.478125 
z
" clip-path="url(#pd96daff351)" style="fill: #1f77b4; fill-opacity: 0.5; stroke: #000000; stroke-width: 0.515871; stroke-linejoin: miter"/>
   </g>
   <g id="patch_115">
    <path d="M 753.53627 385.478125 
L 759.329006 385.478125 
L 759.329006 385.478125 
L 753.53627 385.478125 
z
" clip-path="url(#pd96daff351)" style="fill: #1f77b4; fill-opacity: 0.5; stroke: #000000; stroke-width: 0.515871; stroke-linejoin: miter"/>
   </g>
   <g id="patch_116">
    <path d="M 759.329006 385.478125 
L 765.121742 385.478125 
L 765.121742 385.478125 
L 759.329006 385.478125 
z
" clip-path="url(#pd96daff351)" style="fill: #1f77b4; fill-opacity: 0.5; stroke: #000000; stroke-width: 0.515871; stroke-linejoin: miter"/>
   </g>
   <g id="patch_117">
    <path d="M 765.121742 385.478125 
L 770.914479 385.478125 
L 770.914479 385.478125 
L 765.121742 385.478125 
z
" clip-path="url(#pd96daff351)" style="fill: #1f77b4; fill-opacity: 0.5; stroke: #000000; stroke-width: 0.515871; stroke-linejoin: miter"/>
   </g>
   <g id="patch_118">
    <path d="M 770.914479 385.478125 
L 776.707215 385.478125 
L 776.707215 385.478125 
L 770.914479 385.478125 
z
" clip-path="url(#pd96daff351)" style="fill: #1f77b4; fill-opacity: 0.5; stroke: #000000; stroke-width: 0.515871; stroke-linejoin: miter"/>
   </g>
   <g id="patch_119">
    <path d="M 776.707215 385.478125 
L 782.499951 385.478125 
L 782.499951 385.478125 
L 776.707215 385.478125 
z
" clip-path="url(#pd96daff351)" style="fill: #1f77b4; fill-opacity: 0.5; stroke: #000000; stroke-width: 0.515871; stroke-linejoin: miter"/>
   </g>
   <g id="patch_120">
    <path d="M 782.499951 385.478125 
L 788.292687 385.478125 
L 788.292687 384.731113 
L 782.499951 384.731113 
z
" clip-path="url(#pd96daff351)" style="fill: #1f77b4; fill-opacity: 0.5; stroke: #000000; stroke-width: 0.515871; stroke-linejoin: miter"/>
   </g>
   <g id="matplotlib.axis_1">
    <g id="xtick_1">
     <g id="line2d_1">
      <defs>
       <path id="md76de34c05" d="M 0 0 
L 0 3.5 
" style="stroke: #000000; stroke-width: 0.8"/>
      </defs>
      <g>
       <use xlink:href="#md76de34c05" x="134.995073" y="385.478125" style="stroke: #000000; stroke-width: 0.8"/>
      </g>
     </g>
     <g id="text_1">
      <!-- 4 -->
      <g transform="translate(131.813823 400.076562) scale(0.1 -0.1)">
       <defs>
        <path id="DejaVuSans-34" d="M 2419 4116 
L 825 1625 
L 2419 1625 
L 2419 4116 
z
M 2253 4666 
L 3047 4666 
L 3047 1625 
L 3713 1625 
L 3713 1100 
L 3047 1100 
L 3047 0 
L 2419 0 
L 2419 1100 
L 313 1100 
L 313 1709 
L 2253 4666 
z
" transform="scale(0.015625)"/>
       </defs>
       <use xlink:href="#DejaVuSans-34"/>
      </g>
     </g>
    </g>
    <g id="xtick_2">
     <g id="line2d_2">
      <g>
       <use xlink:href="#md76de34c05" x="255.976112" y="385.478125" style="stroke: #000000; stroke-width: 0.8"/>
      </g>
     </g>
     <g id="text_2">
      <!-- 6 -->
      <g transform="translate(252.794862 400.076562) scale(0.1 -0.1)">
       <defs>
        <path id="DejaVuSans-36" d="M 2113 2584 
Q 1688 2584 1439 2293 
Q 1191 2003 1191 1497 
Q 1191 994 1439 701 
Q 1688 409 2113 409 
Q 2538 409 2786 701 
Q 3034 994 3034 1497 
Q 3034 2003 2786 2293 
Q 2538 2584 2113 2584 
z
M 3366 4563 
L 3366 3988 
Q 3128 4100 2886 4159 
Q 2644 4219 2406 4219 
Q 1781 4219 1451 3797 
Q 1122 3375 1075 2522 
Q 1259 2794 1537 2939 
Q 1816 3084 2150 3084 
Q 2853 3084 3261 2657 
Q 3669 2231 3669 1497 
Q 3669 778 3244 343 
Q 2819 -91 2113 -91 
Q 1303 -91 875 529 
Q 447 1150 447 2328 
Q 447 3434 972 4092 
Q 1497 4750 2381 4750 
Q 2619 4750 2861 4703 
Q 3103 4656 3366 4563 
z
" transform="scale(0.015625)"/>
       </defs>
       <use xlink:href="#DejaVuSans-36"/>
      </g>
     </g>
    </g>
    <g id="xtick_3">
     <g id="line2d_3">
      <g>
       <use xlink:href="#md76de34c05" x="376.957152" y="385.478125" style="stroke: #000000; stroke-width: 0.8"/>
      </g>
     </g>
     <g id="text_3">
      <!-- 8 -->
      <g transform="translate(373.775902 400.076562) scale(0.1 -0.1)">
       <defs>
        <path id="DejaVuSans-38" d="M 2034 2216 
Q 1584 2216 1326 1975 
Q 1069 1734 1069 1313 
Q 1069 891 1326 650 
Q 1584 409 2034 409 
Q 2484 409 2743 651 
Q 3003 894 3003 1313 
Q 3003 1734 2745 1975 
Q 2488 2216 2034 2216 
z
M 1403 2484 
Q 997 2584 770 2862 
Q 544 3141 544 3541 
Q 544 4100 942 4425 
Q 1341 4750 2034 4750 
Q 2731 4750 3128 4425 
Q 3525 4100 3525 3541 
Q 3525 3141 3298 2862 
Q 3072 2584 2669 2484 
Q 3125 2378 3379 2068 
Q 3634 1759 3634 1313 
Q 3634 634 3220 271 
Q 2806 -91 2034 -91 
Q 1263 -91 848 271 
Q 434 634 434 1313 
Q 434 1759 690 2068 
Q 947 2378 1403 2484 
z
M 1172 3481 
Q 1172 3119 1398 2916 
Q 1625 2713 2034 2713 
Q 2441 2713 2670 2916 
Q 2900 3119 2900 3481 
Q 2900 3844 2670 4047 
Q 2441 4250 2034 4250 
Q 1625 4250 1398 4047 
Q 1172 3844 1172 3481 
z
" transform="scale(0.015625)"/>
       </defs>
       <use xlink:href="#DejaVuSans-38"/>
      </g>
     </g>
    </g>
    <g id="xtick_4">
     <g id="line2d_4">
      <g>
       <use xlink:href="#md76de34c05" x="497.938192" y="385.478125" style="stroke: #000000; stroke-width: 0.8"/>
      </g>
     </g>
     <g id="text_4">
      <!-- 10 -->
      <g transform="translate(491.575692 400.076562) scale(0.1 -0.1)">
       <defs>
        <path id="DejaVuSans-31" d="M 794 531 
L 1825 531 
L 1825 4091 
L 703 3866 
L 703 4441 
L 1819 4666 
L 2450 4666 
L 2450 531 
L 3481 531 
L 3481 0 
L 794 0 
L 794 531 
z
" transform="scale(0.015625)"/>
        <path id="DejaVuSans-30" d="M 2034 4250 
Q 1547 4250 1301 3770 
Q 1056 3291 1056 2328 
Q 1056 1369 1301 889 
Q 1547 409 2034 409 
Q 2525 409 2770 889 
Q 3016 1369 3016 2328 
Q 3016 3291 2770 3770 
Q 2525 4250 2034 4250 
z
M 2034 4750 
Q 2819 4750 3233 4129 
Q 3647 3509 3647 2328 
Q 3647 1150 3233 529 
Q 2819 -91 2034 -91 
Q 1250 -91 836 529 
Q 422 1150 422 2328 
Q 422 3509 836 4129 
Q 1250 4750 2034 4750 
z
" transform="scale(0.015625)"/>
       </defs>
       <use xlink:href="#DejaVuSans-31"/>
       <use xlink:href="#DejaVuSans-30" x="63.623047"/>
      </g>
     </g>
    </g>
    <g id="xtick_5">
     <g id="line2d_5">
      <g>
       <use xlink:href="#md76de34c05" x="618.919232" y="385.478125" style="stroke: #000000; stroke-width: 0.8"/>
      </g>
     </g>
     <g id="text_5">
      <!-- 12 -->
      <g transform="translate(612.556732 400.076562) scale(0.1 -0.1)">
       <defs>
        <path id="DejaVuSans-32" d="M 1228 531 
L 3431 531 
L 3431 0 
L 469 0 
L 469 531 
Q 828 903 1448 1529 
Q 2069 2156 2228 2338 
Q 2531 2678 2651 2914 
Q 2772 3150 2772 3378 
Q 2772 3750 2511 3984 
Q 2250 4219 1831 4219 
Q 1534 4219 1204 4116 
Q 875 4013 500 3803 
L 500 4441 
Q 881 4594 1212 4672 
Q 1544 4750 1819 4750 
Q 2544 4750 2975 4387 
Q 3406 4025 3406 3419 
Q 3406 3131 3298 2873 
Q 3191 2616 2906 2266 
Q 2828 2175 2409 1742 
Q 1991 1309 1228 531 
z
" transform="scale(0.015625)"/>
       </defs>
       <use xlink:href="#DejaVuSans-31"/>
       <use xlink:href="#DejaVuSans-32" x="63.623047"/>
      </g>
     </g>
    </g>
    <g id="xtick_6">
     <g id="line2d_6">
      <g>
       <use xlink:href="#md76de34c05" x="739.900271" y="385.478125" style="stroke: #000000; stroke-width: 0.8"/>
      </g>
     </g>
     <g id="text_6">
      <!-- 14 -->
      <g transform="translate(733.537771 400.076562) scale(0.1 -0.1)">
       <use xlink:href="#DejaVuSans-31"/>
       <use xlink:href="#DejaVuSans-34" x="63.623047"/>
      </g>
     </g>
    </g>
    <g id="text_7">
     <!-- Ca -->
     <g transform="translate(439.965781 413.754687) scale(0.1 -0.1)">
      <defs>
       <path id="DejaVuSans-43" d="M 4122 4306 
L 4122 3641 
Q 3803 3938 3442 4084 
Q 3081 4231 2675 4231 
Q 1875 4231 1450 3742 
Q 1025 3253 1025 2328 
Q 1025 1406 1450 917 
Q 1875 428 2675 428 
Q 3081 428 3442 575 
Q 3803 722 4122 1019 
L 4122 359 
Q 3791 134 3420 21 
Q 3050 -91 2638 -91 
Q 1578 -91 968 557 
Q 359 1206 359 2328 
Q 359 3453 968 4101 
Q 1578 4750 2638 4750 
Q 3056 4750 3426 4639 
Q 3797 4528 4122 4306 
z
" transform="scale(0.015625)"/>
       <path id="DejaVuSans-61" d="M 2194 1759 
Q 1497 1759 1228 1600 
Q 959 1441 959 1056 
Q 959 750 1161 570 
Q 1363 391 1709 391 
Q 2188 391 2477 730 
Q 2766 1069 2766 1631 
L 2766 1759 
L 2194 1759 
z
M 3341 1997 
L 3341 0 
L 2766 0 
L 2766 531 
Q 2569 213 2275 61 
Q 1981 -91 1556 -91 
Q 1019 -91 701 211 
Q 384 513 384 1019 
Q 384 1609 779 1909 
Q 1175 2209 1959 2209 
L 2766 2209 
L 2766 2266 
Q 2766 2663 2505 2880 
Q 2244 3097 1772 3097 
Q 1472 3097 1187 3025 
Q 903 2953 641 2809 
L 641 3341 
Q 956 3463 1253 3523 
Q 1550 3584 1831 3584 
Q 2591 3584 2966 3190 
Q 3341 2797 3341 1997 
z
" transform="scale(0.015625)"/>
      </defs>
      <use xlink:href="#DejaVuSans-43"/>
      <use xlink:href="#DejaVuSans-61" x="69.824219"/>
     </g>
    </g>
   </g>
   <g id="matplotlib.axis_2">
    <g id="ytick_1">
     <g id="line2d_7">
      <defs>
       <path id="maba661e54e" d="M 0 0 
L -3.5 0 
" style="stroke: #000000; stroke-width: 0.8"/>
      </defs>
      <g>
       <use xlink:href="#maba661e54e" x="43.78125" y="385.478125" style="stroke: #000000; stroke-width: 0.8"/>
      </g>
     </g>
     <g id="text_8">
      <!-- 0.0 -->
      <g transform="translate(20.878125 389.277344) scale(0.1 -0.1)">
       <defs>
        <path id="DejaVuSans-2e" d="M 684 794 
L 1344 794 
L 1344 0 
L 684 0 
L 684 794 
z
" transform="scale(0.015625)"/>
       </defs>
       <use xlink:href="#DejaVuSans-30"/>
       <use xlink:href="#DejaVuSans-2e" x="63.623047"/>
       <use xlink:href="#DejaVuSans-30" x="95.410156"/>
      </g>
     </g>
    </g>
    <g id="ytick_2">
     <g id="line2d_8">
      <g>
       <use xlink:href="#maba661e54e" x="43.78125" y="338.486181" style="stroke: #000000; stroke-width: 0.8"/>
      </g>
     </g>
     <g id="text_9">
      <!-- 0.1 -->
      <g transform="translate(20.878125 342.285399) scale(0.1 -0.1)">
       <use xlink:href="#DejaVuSans-30"/>
       <use xlink:href="#DejaVuSans-2e" x="63.623047"/>
       <use xlink:href="#DejaVuSans-31" x="95.410156"/>
      </g>
     </g>
    </g>
    <g id="ytick_3">
     <g id="line2d_9">
      <g>
       <use xlink:href="#maba661e54e" x="43.78125" y="291.494236" style="stroke: #000000; stroke-width: 0.8"/>
      </g>
     </g>
     <g id="text_10">
      <!-- 0.2 -->
      <g transform="translate(20.878125 295.293455) scale(0.1 -0.1)">
       <use xlink:href="#DejaVuSans-30"/>
       <use xlink:href="#DejaVuSans-2e" x="63.623047"/>
       <use xlink:href="#DejaVuSans-32" x="95.410156"/>
      </g>
     </g>
    </g>
    <g id="ytick_4">
     <g id="line2d_10">
      <g>
       <use xlink:href="#maba661e54e" x="43.78125" y="244.502292" style="stroke: #000000; stroke-width: 0.8"/>
      </g>
     </g>
     <g id="text_11">
      <!-- 0.3 -->
      <g transform="translate(20.878125 248.301511) scale(0.1 -0.1)">
       <defs>
        <path id="DejaVuSans-33" d="M 2597 2516 
Q 3050 2419 3304 2112 
Q 3559 1806 3559 1356 
Q 3559 666 3084 287 
Q 2609 -91 1734 -91 
Q 1441 -91 1130 -33 
Q 819 25 488 141 
L 488 750 
Q 750 597 1062 519 
Q 1375 441 1716 441 
Q 2309 441 2620 675 
Q 2931 909 2931 1356 
Q 2931 1769 2642 2001 
Q 2353 2234 1838 2234 
L 1294 2234 
L 1294 2753 
L 1863 2753 
Q 2328 2753 2575 2939 
Q 2822 3125 2822 3475 
Q 2822 3834 2567 4026 
Q 2313 4219 1838 4219 
Q 1578 4219 1281 4162 
Q 984 4106 628 3988 
L 628 4550 
Q 988 4650 1302 4700 
Q 1616 4750 1894 4750 
Q 2613 4750 3031 4423 
Q 3450 4097 3450 3541 
Q 3450 3153 3228 2886 
Q 3006 2619 2597 2516 
z
" transform="scale(0.015625)"/>
       </defs>
       <use xlink:href="#DejaVuSans-30"/>
       <use xlink:href="#DejaVuSans-2e" x="63.623047"/>
       <use xlink:href="#DejaVuSans-33" x="95.410156"/>
      </g>
     </g>
    </g>
    <g id="ytick_5">
     <g id="line2d_11">
      <g>
       <use xlink:href="#maba661e54e" x="43.78125" y="197.510347" style="stroke: #000000; stroke-width: 0.8"/>
      </g>
     </g>
     <g id="text_12">
      <!-- 0.4 -->
      <g transform="translate(20.878125 201.309566) scale(0.1 -0.1)">
       <use xlink:href="#DejaVuSans-30"/>
       <use xlink:href="#DejaVuSans-2e" x="63.623047"/>
       <use xlink:href="#DejaVuSans-34" x="95.410156"/>
      </g>
     </g>
    </g>
    <g id="ytick_6">
     <g id="line2d_12">
      <g>
       <use xlink:href="#maba661e54e" x="43.78125" y="150.518403" style="stroke: #000000; stroke-width: 0.8"/>
      </g>
     </g>
     <g id="text_13">
      <!-- 0.5 -->
      <g transform="translate(20.878125 154.317622) scale(0.1 -0.1)">
       <defs>
        <path id="DejaVuSans-35" d="M 691 4666 
L 3169 4666 
L 3169 4134 
L 1269 4134 
L 1269 2991 
Q 1406 3038 1543 3061 
Q 1681 3084 1819 3084 
Q 2600 3084 3056 2656 
Q 3513 2228 3513 1497 
Q 3513 744 3044 326 
Q 2575 -91 1722 -91 
Q 1428 -91 1123 -41 
Q 819 9 494 109 
L 494 744 
Q 775 591 1075 516 
Q 1375 441 1709 441 
Q 2250 441 2565 725 
Q 2881 1009 2881 1497 
Q 2881 1984 2565 2268 
Q 2250 2553 1709 2553 
Q 1456 2553 1204 2497 
Q 953 2441 691 2322 
L 691 4666 
z
" transform="scale(0.015625)"/>
       </defs>
       <use xlink:href="#DejaVuSans-30"/>
       <use xlink:href="#DejaVuSans-2e" x="63.623047"/>
       <use xlink:href="#DejaVuSans-35" x="95.410156"/>
      </g>
     </g>
    </g>
    <g id="ytick_7">
     <g id="line2d_13">
      <g>
       <use xlink:href="#maba661e54e" x="43.78125" y="103.526459" style="stroke: #000000; stroke-width: 0.8"/>
      </g>
     </g>
     <g id="text_14">
      <!-- 0.6 -->
      <g transform="translate(20.878125 107.325677) scale(0.1 -0.1)">
       <use xlink:href="#DejaVuSans-30"/>
       <use xlink:href="#DejaVuSans-2e" x="63.623047"/>
       <use xlink:href="#DejaVuSans-36" x="95.410156"/>
      </g>
     </g>
    </g>
    <g id="ytick_8">
     <g id="line2d_14">
      <g>
       <use xlink:href="#maba661e54e" x="43.78125" y="56.534514" style="stroke: #000000; stroke-width: 0.8"/>
      </g>
     </g>
     <g id="text_15">
      <!-- 0.7 -->
      <g transform="translate(20.878125 60.333733) scale(0.1 -0.1)">
       <defs>
        <path id="DejaVuSans-37" d="M 525 4666 
L 3525 4666 
L 3525 4397 
L 1831 0 
L 1172 0 
L 2766 4134 
L 525 4134 
L 525 4666 
z
" transform="scale(0.015625)"/>
       </defs>
       <use xlink:href="#DejaVuSans-30"/>
       <use xlink:href="#DejaVuSans-2e" x="63.623047"/>
       <use xlink:href="#DejaVuSans-37" x="95.410156"/>
      </g>
     </g>
    </g>
    <g id="text_16">
     <!-- Density -->
     <g transform="translate(14.798438 222.906719) rotate(-90) scale(0.1 -0.1)">
      <defs>
       <path id="DejaVuSans-44" d="M 1259 4147 
L 1259 519 
L 2022 519 
Q 2988 519 3436 956 
Q 3884 1394 3884 2338 
Q 3884 3275 3436 3711 
Q 2988 4147 2022 4147 
L 1259 4147 
z
M 628 4666 
L 1925 4666 
Q 3281 4666 3915 4102 
Q 4550 3538 4550 2338 
Q 4550 1131 3912 565 
Q 3275 0 1925 0 
L 628 0 
L 628 4666 
z
" transform="scale(0.015625)"/>
       <path id="DejaVuSans-65" d="M 3597 1894 
L 3597 1613 
L 953 1613 
Q 991 1019 1311 708 
Q 1631 397 2203 397 
Q 2534 397 2845 478 
Q 3156 559 3463 722 
L 3463 178 
Q 3153 47 2828 -22 
Q 2503 -91 2169 -91 
Q 1331 -91 842 396 
Q 353 884 353 1716 
Q 353 2575 817 3079 
Q 1281 3584 2069 3584 
Q 2775 3584 3186 3129 
Q 3597 2675 3597 1894 
z
M 3022 2063 
Q 3016 2534 2758 2815 
Q 2500 3097 2075 3097 
Q 1594 3097 1305 2825 
Q 1016 2553 972 2059 
L 3022 2063 
z
" transform="scale(0.015625)"/>
       <path id="DejaVuSans-6e" d="M 3513 2113 
L 3513 0 
L 2938 0 
L 2938 2094 
Q 2938 2591 2744 2837 
Q 2550 3084 2163 3084 
Q 1697 3084 1428 2787 
Q 1159 2491 1159 1978 
L 1159 0 
L 581 0 
L 581 3500 
L 1159 3500 
L 1159 2956 
Q 1366 3272 1645 3428 
Q 1925 3584 2291 3584 
Q 2894 3584 3203 3211 
Q 3513 2838 3513 2113 
z
" transform="scale(0.015625)"/>
       <path id="DejaVuSans-73" d="M 2834 3397 
L 2834 2853 
Q 2591 2978 2328 3040 
Q 2066 3103 1784 3103 
Q 1356 3103 1142 2972 
Q 928 2841 928 2578 
Q 928 2378 1081 2264 
Q 1234 2150 1697 2047 
L 1894 2003 
Q 2506 1872 2764 1633 
Q 3022 1394 3022 966 
Q 3022 478 2636 193 
Q 2250 -91 1575 -91 
Q 1294 -91 989 -36 
Q 684 19 347 128 
L 347 722 
Q 666 556 975 473 
Q 1284 391 1588 391 
Q 1994 391 2212 530 
Q 2431 669 2431 922 
Q 2431 1156 2273 1281 
Q 2116 1406 1581 1522 
L 1381 1569 
Q 847 1681 609 1914 
Q 372 2147 372 2553 
Q 372 3047 722 3315 
Q 1072 3584 1716 3584 
Q 2034 3584 2315 3537 
Q 2597 3491 2834 3397 
z
" transform="scale(0.015625)"/>
       <path id="DejaVuSans-69" d="M 603 3500 
L 1178 3500 
L 1178 0 
L 603 0 
L 603 3500 
z
M 603 4863 
L 1178 4863 
L 1178 4134 
L 603 4134 
L 603 4863 
z
" transform="scale(0.015625)"/>
       <path id="DejaVuSans-74" d="M 1172 4494 
L 1172 3500 
L 2356 3500 
L 2356 3053 
L 1172 3053 
L 1172 1153 
Q 1172 725 1289 603 
Q 1406 481 1766 481 
L 2356 481 
L 2356 0 
L 1766 0 
Q 1100 0 847 248 
Q 594 497 594 1153 
L 594 3053 
L 172 3053 
L 172 3500 
L 594 3500 
L 594 4494 
L 1172 4494 
z
" transform="scale(0.015625)"/>
       <path id="DejaVuSans-79" d="M 2059 -325 
Q 1816 -950 1584 -1140 
Q 1353 -1331 966 -1331 
L 506 -1331 
L 506 -850 
L 844 -850 
Q 1081 -850 1212 -737 
Q 1344 -625 1503 -206 
L 1606 56 
L 191 3500 
L 800 3500 
L 1894 763 
L 2988 3500 
L 3597 3500 
L 2059 -325 
z
" transform="scale(0.015625)"/>
      </defs>
      <use xlink:href="#DejaVuSans-44"/>
      <use xlink:href="#DejaVuSans-65" x="77.001953"/>
      <use xlink:href="#DejaVuSans-6e" x="138.525391"/>
      <use xlink:href="#DejaVuSans-73" x="201.904297"/>
      <use xlink:href="#DejaVuSans-69" x="254.003906"/>
      <use xlink:href="#DejaVuSans-74" x="281.787109"/>
      <use xlink:href="#DejaVuSans-79" x="320.996094"/>
     </g>
    </g>
   </g>
   <g id="line2d_15">
    <path d="M 104.749813 385.05285 
L 111.61959 385.180828 
L 121.924257 385.432609 
L 135.663812 385.456859 
L 176.882478 385.094634 
L 183.752256 384.795926 
L 190.622033 384.444066 
L 211.231366 383.71926 
L 218.101144 383.461961 
L 235.275588 383.135135 
L 249.015143 382.49475 
L 255.884921 382.615411 
L 262.754698 382.82528 
L 266.189587 382.749442 
L 269.624476 382.511043 
L 273.059365 382.135474 
L 279.929142 381.053309 
L 286.79892 379.591661 
L 297.103586 377.159896 
L 303.973364 375.242737 
L 317.712919 370.957485 
L 321.147808 369.705224 
L 324.582697 368.199166 
L 328.017586 366.395095 
L 331.452475 364.343335 
L 338.322252 359.915184 
L 341.757141 357.529435 
L 345.19203 354.792155 
L 348.626919 351.514625 
L 352.061808 347.665643 
L 355.496696 343.35006 
L 358.931585 338.659685 
L 362.366474 333.577991 
L 365.801363 328.072696 
L 372.67114 316.572265 
L 376.106029 311.231824 
L 379.540918 306.171789 
L 382.975807 300.839835 
L 386.410696 294.547955 
L 389.845585 286.865387 
L 393.280473 277.739244 
L 396.715362 267.36382 
L 400.150251 256.041252 
L 407.020029 231.83093 
L 410.454917 219.175251 
L 413.889806 205.763331 
L 417.324695 191.064232 
L 420.759584 174.780735 
L 431.06425 121.321736 
L 434.499139 105.695115 
L 437.934028 93.139098 
L 441.368917 84.153723 
L 444.803806 78.601053 
L 448.238694 76.147019 
L 451.673583 76.829144 
L 455.108472 81.153107 
L 458.543361 89.569595 
L 461.97825 101.88254 
L 465.413138 117.220924 
L 468.848027 134.545851 
L 472.282916 153.107098 
L 479.152694 192.366664 
L 492.892249 272.509126 
L 496.327138 290.533464 
L 499.762027 306.550827 
L 503.196915 320.430076 
L 506.631804 332.368394 
L 510.066693 342.585151 
L 513.501582 351.140922 
L 516.936471 358.005989 
L 520.37136 363.243486 
L 523.806248 367.117932 
L 527.241137 370.048618 
L 530.676026 372.45508 
L 534.110915 374.612359 
L 537.545804 376.612251 
L 540.980692 378.428798 
L 544.415581 380.007988 
L 547.85047 381.316956 
L 551.285359 382.352482 
L 554.720248 383.135959 
L 558.155137 383.704739 
L 561.590025 384.099592 
L 568.459803 384.513001 
L 575.329581 384.636402 
L 582.199358 384.540783 
L 589.069136 384.329283 
L 595.938914 384.38744 
L 606.24358 384.757116 
L 640.592468 385.16226 
L 654.332023 384.656064 
L 661.201801 384.851995 
L 668.071579 385.109727 
L 681.811134 385.318956 
L 692.1158 385.293489 
L 702.420467 385.299946 
L 716.160022 385.442932 
L 743.639133 385.37532 
L 757.378688 385.474782 
L 777.988021 385.383106 
L 788.292687 385.265488 
L 788.292687 385.265488 
" clip-path="url(#pd96daff351)" style="fill: none; stroke: #1f77b4; stroke-width: 1.5; stroke-linecap: square"/>
   </g>
   <g id="line2d_16">
    <path d="M 80.393977 385.473401 
L 91.432991 385.367353 
L 106.151675 385.059143 
L 131.909372 385.469588 
L 146.628057 385.321902 
L 157.66707 385.243736 
L 172.385754 385.179898 
L 179.745097 384.99587 
L 194.463781 384.330491 
L 205.502794 384.027844 
L 216.541807 383.498242 
L 234.940163 383.149626 
L 249.658847 382.487811 
L 257.018189 382.663055 
L 260.69786 382.797219 
L 264.377531 382.810073 
L 268.057202 382.638833 
L 271.736874 382.294298 
L 275.416545 381.812151 
L 279.096216 381.207184 
L 286.455558 379.67025 
L 297.494571 377.060827 
L 304.853913 374.97316 
L 319.572598 370.305566 
L 323.252269 368.817323 
L 326.93194 366.996415 
L 330.611611 364.86252 
L 337.970953 360.148485 
L 341.650624 357.607477 
L 345.330295 354.671483 
L 349.009966 351.112533 
L 352.689637 346.907843 
L 356.369308 342.192789 
L 360.04898 337.052605 
L 363.728651 331.443076 
L 374.767664 313.262617 
L 382.127006 302.222087 
L 385.806677 295.748055 
L 389.486348 287.7382 
L 393.166019 278.064928 
L 396.84569 266.949388 
L 400.525361 254.762008 
L 407.884704 228.689781 
L 411.564375 214.951894 
L 415.244046 200.14755 
L 418.923717 183.681254 
L 422.603388 165.440433 
L 429.96273 126.813203 
L 433.642401 109.340223 
L 437.322072 95.119534 
L 441.001743 84.94407 
L 444.681414 78.744236 
L 448.361086 76.115484 
L 452.040757 77.106549 
L 455.720428 82.347996 
L 459.400099 92.301211 
L 463.07977 106.523998 
L 466.759441 123.824946 
L 470.439112 143.021318 
L 474.118783 163.378985 
L 481.478125 206.012118 
L 488.837467 249.432981 
L 492.517139 270.440072 
L 496.19681 289.883875 
L 499.876481 307.047225 
L 503.556152 321.764883 
L 507.235823 334.285741 
L 510.915494 344.854857 
L 514.595165 353.510499 
L 518.274836 360.230377 
L 521.954507 365.175306 
L 525.634178 368.766285 
L 529.313849 371.5416 
L 532.99352 373.929002 
L 536.673192 376.119438 
L 540.352863 378.113047 
L 544.032534 379.844934 
L 547.712205 381.269615 
L 551.391876 382.380401 
L 555.071547 383.203283 
L 558.751218 383.784646 
L 562.430889 384.174008 
L 569.790231 384.553358 
L 577.149573 384.634476 
L 584.508916 384.464302 
L 591.868258 384.306684 
L 599.2276 384.519068 
L 606.586942 384.763222 
L 628.664969 385.018175 
L 636.024311 385.206127 
L 643.383653 385.059389 
L 650.742995 384.714145 
L 654.422666 384.656238 
L 661.782008 384.877783 
L 669.141351 385.135137 
L 683.860035 385.33346 
L 709.617732 385.405108 
L 720.656746 385.417647 
L 735.37543 385.269198 
L 764.812799 385.474731 
L 779.531483 385.359341 
L 790.570496 385.273694 
L 812.648523 385.475763 
L 812.648523 385.475763 
" clip-path="url(#pd96daff351)" style="fill: none; stroke: #1f77b4; stroke-width: 1.5; stroke-linecap: square"/>
   </g>
   <g id="patch_121">
    <path d="M 43.78125 385.478125 
L 43.78125 22.318125 
" style="fill: none; stroke: #000000; stroke-width: 0.8; stroke-linejoin: miter; stroke-linecap: square"/>
   </g>
   <g id="patch_122">
    <path d="M 849.26125 385.478125 
L 849.26125 22.318125 
" style="fill: none; stroke: #000000; stroke-width: 0.8; stroke-linejoin: miter; stroke-linecap: square"/>
   </g>
   <g id="patch_123">
    <path d="M 43.78125 385.478125 
L 849.26125 385.478125 
" style="fill: none; stroke: #000000; stroke-width: 0.8; stroke-linejoin: miter; stroke-linecap: square"/>
   </g>
   <g id="patch_124">
    <path d="M 43.78125 22.318125 
L 849.26125 22.318125 
" style="fill: none; stroke: #000000; stroke-width: 0.8; stroke-linejoin: miter; stroke-linecap: square"/>
   </g>
   <g id="text_17">
    <!-- Distribution of Ca -->
    <g transform="translate(394.055 16.318125) scale(0.12 -0.12)">
     <defs>
      <path id="DejaVuSans-72" d="M 2631 2963 
Q 2534 3019 2420 3045 
Q 2306 3072 2169 3072 
Q 1681 3072 1420 2755 
Q 1159 2438 1159 1844 
L 1159 0 
L 581 0 
L 581 3500 
L 1159 3500 
L 1159 2956 
Q 1341 3275 1631 3429 
Q 1922 3584 2338 3584 
Q 2397 3584 2469 3576 
Q 2541 3569 2628 3553 
L 2631 2963 
z
" transform="scale(0.015625)"/>
      <path id="DejaVuSans-62" d="M 3116 1747 
Q 3116 2381 2855 2742 
Q 2594 3103 2138 3103 
Q 1681 3103 1420 2742 
Q 1159 2381 1159 1747 
Q 1159 1113 1420 752 
Q 1681 391 2138 391 
Q 2594 391 2855 752 
Q 3116 1113 3116 1747 
z
M 1159 2969 
Q 1341 3281 1617 3432 
Q 1894 3584 2278 3584 
Q 2916 3584 3314 3078 
Q 3713 2572 3713 1747 
Q 3713 922 3314 415 
Q 2916 -91 2278 -91 
Q 1894 -91 1617 61 
Q 1341 213 1159 525 
L 1159 0 
L 581 0 
L 581 4863 
L 1159 4863 
L 1159 2969 
z
" transform="scale(0.015625)"/>
      <path id="DejaVuSans-75" d="M 544 1381 
L 544 3500 
L 1119 3500 
L 1119 1403 
Q 1119 906 1312 657 
Q 1506 409 1894 409 
Q 2359 409 2629 706 
Q 2900 1003 2900 1516 
L 2900 3500 
L 3475 3500 
L 3475 0 
L 2900 0 
L 2900 538 
Q 2691 219 2414 64 
Q 2138 -91 1772 -91 
Q 1169 -91 856 284 
Q 544 659 544 1381 
z
M 1991 3584 
L 1991 3584 
z
" transform="scale(0.015625)"/>
      <path id="DejaVuSans-6f" d="M 1959 3097 
Q 1497 3097 1228 2736 
Q 959 2375 959 1747 
Q 959 1119 1226 758 
Q 1494 397 1959 397 
Q 2419 397 2687 759 
Q 2956 1122 2956 1747 
Q 2956 2369 2687 2733 
Q 2419 3097 1959 3097 
z
M 1959 3584 
Q 2709 3584 3137 3096 
Q 3566 2609 3566 1747 
Q 3566 888 3137 398 
Q 2709 -91 1959 -91 
Q 1206 -91 779 398 
Q 353 888 353 1747 
Q 353 2609 779 3096 
Q 1206 3584 1959 3584 
z
" transform="scale(0.015625)"/>
      <path id="DejaVuSans-20" transform="scale(0.015625)"/>
      <path id="DejaVuSans-66" d="M 2375 4863 
L 2375 4384 
L 1825 4384 
Q 1516 4384 1395 4259 
Q 1275 4134 1275 3809 
L 1275 3500 
L 2222 3500 
L 2222 3053 
L 1275 3053 
L 1275 0 
L 697 0 
L 697 3053 
L 147 3053 
L 147 3500 
L 697 3500 
L 697 3744 
Q 697 4328 969 4595 
Q 1241 4863 1831 4863 
L 2375 4863 
z
" transform="scale(0.015625)"/>
     </defs>
     <use xlink:href="#DejaVuSans-44"/>
     <use xlink:href="#DejaVuSans-69" x="77.001953"/>
     <use xlink:href="#DejaVuSans-73" x="104.785156"/>
     <use xlink:href="#DejaVuSans-74" x="156.884766"/>
     <use xlink:href="#DejaVuSans-72" x="196.09375"/>
     <use xlink:href="#DejaVuSans-69" x="237.207031"/>
     <use xlink:href="#DejaVuSans-62" x="264.990234"/>
     <use xlink:href="#DejaVuSans-75" x="328.466797"/>
     <use xlink:href="#DejaVuSans-74" x="391.845703"/>
     <use xlink:href="#DejaVuSans-69" x="431.054688"/>
     <use xlink:href="#DejaVuSans-6f" x="458.837891"/>
     <use xlink:href="#DejaVuSans-6e" x="520.019531"/>
     <use xlink:href="#DejaVuSans-20" x="583.398438"/>
     <use xlink:href="#DejaVuSans-6f" x="615.185547"/>
     <use xlink:href="#DejaVuSans-66" x="676.367188"/>
     <use xlink:href="#DejaVuSans-20" x="711.572266"/>
     <use xlink:href="#DejaVuSans-43" x="743.359375"/>
     <use xlink:href="#DejaVuSans-61" x="813.183594"/>
    </g>
   </g>
  </g>
 </g>
 <defs>
  <clipPath id="pd96daff351">
   <rect x="43.78125" y="22.318125" width="805.48" height="363.16"/>
  </clipPath>
 </defs>
</svg>
