<?xml version="1.0" encoding="utf-8" standalone="no"?>
<!DOCTYPE svg PUBLIC "-//W3C//DTD SVG 1.1//EN"
  "http://www.w3.org/Graphics/SVG/1.1/DTD/svg11.dtd">
<svg xmlns:xlink="http://www.w3.org/1999/xlink" width="856.49625pt" height="423.034375pt" viewBox="0 0 856.49625 423.034375" xmlns="http://www.w3.org/2000/svg" version="1.1">
 <metadata>
  <rdf:RDF xmlns:dc="http://purl.org/dc/elements/1.1/" xmlns:cc="http://creativecommons.org/ns#" xmlns:rdf="http://www.w3.org/1999/02/22-rdf-syntax-ns#">
   <cc:Work>
    <dc:type rdf:resource="http://purl.org/dc/dcmitype/StillImage"/>
    <dc:date>2024-07-19T13:46:22.273246</dc:date>
    <dc:format>image/svg+xml</dc:format>
    <dc:creator>
     <cc:Agent>
      <dc:title>Matplotlib v3.9.0, https://matplotlib.org/</dc:title>
     </cc:Agent>
    </dc:creator>
   </cc:Work>
  </rdf:RDF>
 </metadata>
 <defs>
  <style type="text/css">*{stroke-linejoin: round; stroke-linecap: butt}</style>
 </defs>
 <g id="figure_1">
  <g id="patch_1">
   <path d="M 0 423.034375 
L 856.49625 423.034375 
L 856.49625 0 
L 0 0 
z
" style="fill: #ffffff"/>
  </g>
  <g id="axes_1">
   <g id="patch_2">
    <path d="M 56.50625 385.478125 
L 849.29625 385.478125 
L 849.29625 22.318125 
L 56.50625 22.318125 
z
" style="fill: #ffffff"/>
   </g>
   <g id="patch_3">
    <path d="M 114.467502 385.478125 
L 119.372339 385.478125 
L 119.372339 344.2841 
L 114.467502 344.2841 
z
" clip-path="url(#pb0c644f0c5)" style="fill: #1f77b4; fill-opacity: 0.5; stroke: #000000; stroke-width: 0.441107; stroke-linejoin: miter"/>
   </g>
   <g id="patch_4">
    <path d="M 119.372339 385.478125 
L 124.277176 385.478125 
L 124.277176 301.86649 
L 119.372339 301.86649 
z
" clip-path="url(#pb0c644f0c5)" style="fill: #1f77b4; fill-opacity: 0.5; stroke: #000000; stroke-width: 0.441107; stroke-linejoin: miter"/>
   </g>
   <g id="patch_5">
    <path d="M 124.277176 385.478125 
L 129.182012 385.478125 
L 129.182012 276.171207 
L 124.277176 276.171207 
z
" clip-path="url(#pb0c644f0c5)" style="fill: #1f77b4; fill-opacity: 0.5; stroke: #000000; stroke-width: 0.441107; stroke-linejoin: miter"/>
   </g>
   <g id="patch_6">
    <path d="M 129.182012 385.478125 
L 134.086849 385.478125 
L 134.086849 272.500452 
L 129.182012 272.500452 
z
" clip-path="url(#pb0c644f0c5)" style="fill: #1f77b4; fill-opacity: 0.5; stroke: #000000; stroke-width: 0.441107; stroke-linejoin: miter"/>
   </g>
   <g id="patch_7">
    <path d="M 134.086849 385.478125 
L 138.991686 385.478125 
L 138.991686 279.4341 
L 134.086849 279.4341 
z
" clip-path="url(#pb0c644f0c5)" style="fill: #1f77b4; fill-opacity: 0.5; stroke: #000000; stroke-width: 0.441107; stroke-linejoin: miter"/>
   </g>
   <g id="patch_8">
    <path d="M 138.991686 385.478125 
L 143.896523 385.478125 
L 143.896523 298.603597 
L 138.991686 298.603597 
z
" clip-path="url(#pb0c644f0c5)" style="fill: #1f77b4; fill-opacity: 0.5; stroke: #000000; stroke-width: 0.441107; stroke-linejoin: miter"/>
   </g>
   <g id="patch_9">
    <path d="M 143.896523 385.478125 
L 148.80136 385.478125 
L 148.80136 296.156427 
L 143.896523 296.156427 
z
" clip-path="url(#pb0c644f0c5)" style="fill: #1f77b4; fill-opacity: 0.5; stroke: #000000; stroke-width: 0.441107; stroke-linejoin: miter"/>
   </g>
   <g id="patch_10">
    <path d="M 148.80136 385.478125 
L 153.706197 385.478125 
L 153.706197 281.88127 
L 148.80136 281.88127 
z
" clip-path="url(#pb0c644f0c5)" style="fill: #1f77b4; fill-opacity: 0.5; stroke: #000000; stroke-width: 0.441107; stroke-linejoin: miter"/>
   </g>
   <g id="patch_11">
    <path d="M 153.706197 385.478125 
L 158.611034 385.478125 
L 158.611034 277.394792 
L 153.706197 277.394792 
z
" clip-path="url(#pb0c644f0c5)" style="fill: #1f77b4; fill-opacity: 0.5; stroke: #000000; stroke-width: 0.441107; stroke-linejoin: miter"/>
   </g>
   <g id="patch_12">
    <path d="M 158.611034 385.478125 
L 163.515871 385.478125 
L 163.515871 273.724037 
L 158.611034 273.724037 
z
" clip-path="url(#pb0c644f0c5)" style="fill: #1f77b4; fill-opacity: 0.5; stroke: #000000; stroke-width: 0.441107; stroke-linejoin: miter"/>
   </g>
   <g id="patch_13">
    <path d="M 163.515871 385.478125 
L 168.420708 385.478125 
L 168.420708 249.6602 
L 163.515871 249.6602 
z
" clip-path="url(#pb0c644f0c5)" style="fill: #1f77b4; fill-opacity: 0.5; stroke: #000000; stroke-width: 0.441107; stroke-linejoin: miter"/>
   </g>
   <g id="patch_14">
    <path d="M 168.420708 385.478125 
L 173.325545 385.478125 
L 173.325545 238.647936 
L 168.420708 238.647936 
z
" clip-path="url(#pb0c644f0c5)" style="fill: #1f77b4; fill-opacity: 0.5; stroke: #000000; stroke-width: 0.441107; stroke-linejoin: miter"/>
   </g>
   <g id="patch_15">
    <path d="M 173.325545 385.478125 
L 178.230382 385.478125 
L 178.230382 256.593848 
L 173.325545 256.593848 
z
" clip-path="url(#pb0c644f0c5)" style="fill: #1f77b4; fill-opacity: 0.5; stroke: #000000; stroke-width: 0.441107; stroke-linejoin: miter"/>
   </g>
   <g id="patch_16">
    <path d="M 178.230382 385.478125 
L 183.135219 385.478125 
L 183.135219 223.964917 
L 178.230382 223.964917 
z
" clip-path="url(#pb0c644f0c5)" style="fill: #1f77b4; fill-opacity: 0.5; stroke: #000000; stroke-width: 0.441107; stroke-linejoin: miter"/>
   </g>
   <g id="patch_17">
    <path d="M 183.135219 385.478125 
L 188.040056 385.478125 
L 188.040056 204.795421 
L 183.135219 204.795421 
z
" clip-path="url(#pb0c644f0c5)" style="fill: #1f77b4; fill-opacity: 0.5; stroke: #000000; stroke-width: 0.441107; stroke-linejoin: miter"/>
   </g>
   <g id="patch_18">
    <path d="M 188.040056 385.478125 
L 192.944893 385.478125 
L 192.944893 180.323722 
L 188.040056 180.323722 
z
" clip-path="url(#pb0c644f0c5)" style="fill: #1f77b4; fill-opacity: 0.5; stroke: #000000; stroke-width: 0.441107; stroke-linejoin: miter"/>
   </g>
   <g id="patch_19">
    <path d="M 192.944893 385.478125 
L 197.84973 385.478125 
L 197.84973 179.915861 
L 192.944893 179.915861 
z
" clip-path="url(#pb0c644f0c5)" style="fill: #1f77b4; fill-opacity: 0.5; stroke: #000000; stroke-width: 0.441107; stroke-linejoin: miter"/>
   </g>
   <g id="patch_20">
    <path d="M 197.84973 385.478125 
L 202.754566 385.478125 
L 202.754566 181.139446 
L 197.84973 181.139446 
z
" clip-path="url(#pb0c644f0c5)" style="fill: #1f77b4; fill-opacity: 0.5; stroke: #000000; stroke-width: 0.441107; stroke-linejoin: miter"/>
   </g>
   <g id="patch_21">
    <path d="M 202.754566 385.478125 
L 207.659403 385.478125 
L 207.659403 94.672779 
L 202.754566 94.672779 
z
" clip-path="url(#pb0c644f0c5)" style="fill: #1f77b4; fill-opacity: 0.5; stroke: #000000; stroke-width: 0.441107; stroke-linejoin: miter"/>
   </g>
   <g id="patch_22">
    <path d="M 207.659403 385.478125 
L 212.56424 385.478125 
L 212.56424 168.903597 
L 207.659403 168.903597 
z
" clip-path="url(#pb0c644f0c5)" style="fill: #1f77b4; fill-opacity: 0.5; stroke: #000000; stroke-width: 0.441107; stroke-linejoin: miter"/>
   </g>
   <g id="patch_23">
    <path d="M 212.56424 385.478125 
L 217.469077 385.478125 
L 217.469077 65.306741 
L 212.56424 65.306741 
z
" clip-path="url(#pb0c644f0c5)" style="fill: #1f77b4; fill-opacity: 0.5; stroke: #000000; stroke-width: 0.441107; stroke-linejoin: miter"/>
   </g>
   <g id="patch_24">
    <path d="M 217.469077 385.478125 
L 222.373914 385.478125 
L 222.373914 127.709572 
L 217.469077 127.709572 
z
" clip-path="url(#pb0c644f0c5)" style="fill: #1f77b4; fill-opacity: 0.5; stroke: #000000; stroke-width: 0.441107; stroke-linejoin: miter"/>
   </g>
   <g id="patch_25">
    <path d="M 222.373914 385.478125 
L 227.278751 385.478125 
L 227.278751 39.611458 
L 222.373914 39.611458 
z
" clip-path="url(#pb0c644f0c5)" style="fill: #1f77b4; fill-opacity: 0.5; stroke: #000000; stroke-width: 0.441107; stroke-linejoin: miter"/>
   </g>
   <g id="patch_26">
    <path d="M 227.278751 385.478125 
L 232.183588 385.478125 
L 232.183588 103.645735 
L 227.278751 103.645735 
z
" clip-path="url(#pb0c644f0c5)" style="fill: #1f77b4; fill-opacity: 0.5; stroke: #000000; stroke-width: 0.441107; stroke-linejoin: miter"/>
   </g>
   <g id="patch_27">
    <path d="M 232.183588 385.478125 
L 237.088425 385.478125 
L 237.088425 90.186301 
L 232.183588 90.186301 
z
" clip-path="url(#pb0c644f0c5)" style="fill: #1f77b4; fill-opacity: 0.5; stroke: #000000; stroke-width: 0.441107; stroke-linejoin: miter"/>
   </g>
   <g id="patch_28">
    <path d="M 237.088425 385.478125 
L 241.993262 385.478125 
L 241.993262 57.55737 
L 237.088425 57.55737 
z
" clip-path="url(#pb0c644f0c5)" style="fill: #1f77b4; fill-opacity: 0.5; stroke: #000000; stroke-width: 0.441107; stroke-linejoin: miter"/>
   </g>
   <g id="patch_29">
    <path d="M 241.993262 385.478125 
L 246.898099 385.478125 
L 246.898099 104.053597 
L 241.993262 104.053597 
z
" clip-path="url(#pb0c644f0c5)" style="fill: #1f77b4; fill-opacity: 0.5; stroke: #000000; stroke-width: 0.441107; stroke-linejoin: miter"/>
   </g>
   <g id="patch_30">
    <path d="M 246.898099 385.478125 
L 251.802936 385.478125 
L 251.802936 170.127182 
L 246.898099 170.127182 
z
" clip-path="url(#pb0c644f0c5)" style="fill: #1f77b4; fill-opacity: 0.5; stroke: #000000; stroke-width: 0.441107; stroke-linejoin: miter"/>
   </g>
   <g id="patch_31">
    <path d="M 251.802936 385.478125 
L 256.707773 385.478125 
L 256.707773 154.220578 
L 251.802936 154.220578 
z
" clip-path="url(#pb0c644f0c5)" style="fill: #1f77b4; fill-opacity: 0.5; stroke: #000000; stroke-width: 0.441107; stroke-linejoin: miter"/>
   </g>
   <g id="patch_32">
    <path d="M 256.707773 385.478125 
L 261.61261 385.478125 
L 261.61261 161.562087 
L 256.707773 161.562087 
z
" clip-path="url(#pb0c644f0c5)" style="fill: #1f77b4; fill-opacity: 0.5; stroke: #000000; stroke-width: 0.441107; stroke-linejoin: miter"/>
   </g>
   <g id="patch_33">
    <path d="M 261.61261 385.478125 
L 266.517447 385.478125 
L 266.517447 206.019006 
L 261.61261 206.019006 
z
" clip-path="url(#pb0c644f0c5)" style="fill: #1f77b4; fill-opacity: 0.5; stroke: #000000; stroke-width: 0.441107; stroke-linejoin: miter"/>
   </g>
   <g id="patch_34">
    <path d="M 266.517447 385.478125 
L 271.422284 385.478125 
L 271.422284 255.778125 
L 266.517447 255.778125 
z
" clip-path="url(#pb0c644f0c5)" style="fill: #1f77b4; fill-opacity: 0.5; stroke: #000000; stroke-width: 0.441107; stroke-linejoin: miter"/>
   </g>
   <g id="patch_35">
    <path d="M 271.422284 385.478125 
L 276.32712 385.478125 
L 276.32712 274.131899 
L 271.422284 274.131899 
z
" clip-path="url(#pb0c644f0c5)" style="fill: #1f77b4; fill-opacity: 0.5; stroke: #000000; stroke-width: 0.441107; stroke-linejoin: miter"/>
   </g>
   <g id="patch_36">
    <path d="M 276.32712 385.478125 
L 281.231957 385.478125 
L 281.231957 253.738817 
L 276.32712 253.738817 
z
" clip-path="url(#pb0c644f0c5)" style="fill: #1f77b4; fill-opacity: 0.5; stroke: #000000; stroke-width: 0.441107; stroke-linejoin: miter"/>
   </g>
   <g id="patch_37">
    <path d="M 281.231957 385.478125 
L 286.136794 385.478125 
L 286.136794 290.038502 
L 281.231957 290.038502 
z
" clip-path="url(#pb0c644f0c5)" style="fill: #1f77b4; fill-opacity: 0.5; stroke: #000000; stroke-width: 0.441107; stroke-linejoin: miter"/>
   </g>
   <g id="patch_38">
    <path d="M 286.136794 385.478125 
L 291.041631 385.478125 
L 291.041631 313.694477 
L 286.136794 313.694477 
z
" clip-path="url(#pb0c644f0c5)" style="fill: #1f77b4; fill-opacity: 0.5; stroke: #000000; stroke-width: 0.441107; stroke-linejoin: miter"/>
   </g>
   <g id="patch_39">
    <path d="M 291.041631 385.478125 
L 295.946468 385.478125 
L 295.946468 327.969634 
L 291.041631 327.969634 
z
" clip-path="url(#pb0c644f0c5)" style="fill: #1f77b4; fill-opacity: 0.5; stroke: #000000; stroke-width: 0.441107; stroke-linejoin: miter"/>
   </g>
   <g id="patch_40">
    <path d="M 295.946468 385.478125 
L 300.851305 385.478125 
L 300.851305 324.29888 
L 295.946468 324.29888 
z
" clip-path="url(#pb0c644f0c5)" style="fill: #1f77b4; fill-opacity: 0.5; stroke: #000000; stroke-width: 0.441107; stroke-linejoin: miter"/>
   </g>
   <g id="patch_41">
    <path d="M 300.851305 385.478125 
L 305.756142 385.478125 
L 305.756142 337.350452 
L 300.851305 337.350452 
z
" clip-path="url(#pb0c644f0c5)" style="fill: #1f77b4; fill-opacity: 0.5; stroke: #000000; stroke-width: 0.441107; stroke-linejoin: miter"/>
   </g>
   <g id="patch_42">
    <path d="M 305.756142 385.478125 
L 310.660979 385.478125 
L 310.660979 345.915546 
L 305.756142 345.915546 
z
" clip-path="url(#pb0c644f0c5)" style="fill: #1f77b4; fill-opacity: 0.5; stroke: #000000; stroke-width: 0.441107; stroke-linejoin: miter"/>
   </g>
   <g id="patch_43">
    <path d="M 310.660979 385.478125 
L 315.565816 385.478125 
L 315.565816 352.441333 
L 310.660979 352.441333 
z
" clip-path="url(#pb0c644f0c5)" style="fill: #1f77b4; fill-opacity: 0.5; stroke: #000000; stroke-width: 0.441107; stroke-linejoin: miter"/>
   </g>
   <g id="patch_44">
    <path d="M 315.565816 385.478125 
L 320.470653 385.478125 
L 320.470653 358.967119 
L 315.565816 358.967119 
z
" clip-path="url(#pb0c644f0c5)" style="fill: #1f77b4; fill-opacity: 0.5; stroke: #000000; stroke-width: 0.441107; stroke-linejoin: miter"/>
   </g>
   <g id="patch_45">
    <path d="M 320.470653 385.478125 
L 325.37549 385.478125 
L 325.37549 359.37498 
L 320.470653 359.37498 
z
" clip-path="url(#pb0c644f0c5)" style="fill: #1f77b4; fill-opacity: 0.5; stroke: #000000; stroke-width: 0.441107; stroke-linejoin: miter"/>
   </g>
   <g id="patch_46">
    <path d="M 325.37549 385.478125 
L 330.280327 385.478125 
L 330.280327 352.441333 
L 325.37549 352.441333 
z
" clip-path="url(#pb0c644f0c5)" style="fill: #1f77b4; fill-opacity: 0.5; stroke: #000000; stroke-width: 0.441107; stroke-linejoin: miter"/>
   </g>
   <g id="patch_47">
    <path d="M 330.280327 385.478125 
L 335.185164 385.478125 
L 335.185164 374.465861 
L 330.280327 374.465861 
z
" clip-path="url(#pb0c644f0c5)" style="fill: #1f77b4; fill-opacity: 0.5; stroke: #000000; stroke-width: 0.441107; stroke-linejoin: miter"/>
   </g>
   <g id="patch_48">
    <path d="M 335.185164 385.478125 
L 340.090001 385.478125 
L 340.090001 372.834414 
L 335.185164 372.834414 
z
" clip-path="url(#pb0c644f0c5)" style="fill: #1f77b4; fill-opacity: 0.5; stroke: #000000; stroke-width: 0.441107; stroke-linejoin: miter"/>
   </g>
   <g id="patch_49">
    <path d="M 340.090001 385.478125 
L 344.994837 385.478125 
L 344.994837 375.281584 
L 340.090001 375.281584 
z
" clip-path="url(#pb0c644f0c5)" style="fill: #1f77b4; fill-opacity: 0.5; stroke: #000000; stroke-width: 0.441107; stroke-linejoin: miter"/>
   </g>
   <g id="patch_50">
    <path d="M 344.994837 385.478125 
L 349.899674 385.478125 
L 349.899674 377.320892 
L 344.994837 377.320892 
z
" clip-path="url(#pb0c644f0c5)" style="fill: #1f77b4; fill-opacity: 0.5; stroke: #000000; stroke-width: 0.441107; stroke-linejoin: miter"/>
   </g>
   <g id="patch_51">
    <path d="M 349.899674 385.478125 
L 354.804511 385.478125 
L 354.804511 379.768062 
L 349.899674 379.768062 
z
" clip-path="url(#pb0c644f0c5)" style="fill: #1f77b4; fill-opacity: 0.5; stroke: #000000; stroke-width: 0.441107; stroke-linejoin: miter"/>
   </g>
   <g id="patch_52">
    <path d="M 354.804511 385.478125 
L 359.709348 385.478125 
L 359.709348 376.505169 
L 354.804511 376.505169 
z
" clip-path="url(#pb0c644f0c5)" style="fill: #1f77b4; fill-opacity: 0.5; stroke: #000000; stroke-width: 0.441107; stroke-linejoin: miter"/>
   </g>
   <g id="patch_53">
    <path d="M 359.709348 385.478125 
L 364.614185 385.478125 
L 364.614185 369.16366 
L 359.709348 369.16366 
z
" clip-path="url(#pb0c644f0c5)" style="fill: #1f77b4; fill-opacity: 0.5; stroke: #000000; stroke-width: 0.441107; stroke-linejoin: miter"/>
   </g>
   <g id="patch_54">
    <path d="M 364.614185 385.478125 
L 369.519022 385.478125 
L 369.519022 375.689446 
L 364.614185 375.689446 
z
" clip-path="url(#pb0c644f0c5)" style="fill: #1f77b4; fill-opacity: 0.5; stroke: #000000; stroke-width: 0.441107; stroke-linejoin: miter"/>
   </g>
   <g id="patch_55">
    <path d="M 369.519022 385.478125 
L 374.423859 385.478125 
L 374.423859 382.623094 
L 369.519022 382.623094 
z
" clip-path="url(#pb0c644f0c5)" style="fill: #1f77b4; fill-opacity: 0.5; stroke: #000000; stroke-width: 0.441107; stroke-linejoin: miter"/>
   </g>
   <g id="patch_56">
    <path d="M 374.423859 385.478125 
L 379.328696 385.478125 
L 379.328696 384.25454 
L 374.423859 384.25454 
z
" clip-path="url(#pb0c644f0c5)" style="fill: #1f77b4; fill-opacity: 0.5; stroke: #000000; stroke-width: 0.441107; stroke-linejoin: miter"/>
   </g>
   <g id="patch_57">
    <path d="M 379.328696 385.478125 
L 384.233533 385.478125 
L 384.233533 383.030955 
L 379.328696 383.030955 
z
" clip-path="url(#pb0c644f0c5)" style="fill: #1f77b4; fill-opacity: 0.5; stroke: #000000; stroke-width: 0.441107; stroke-linejoin: miter"/>
   </g>
   <g id="patch_58">
    <path d="M 384.233533 385.478125 
L 389.13837 385.478125 
L 389.13837 382.623094 
L 384.233533 382.623094 
z
" clip-path="url(#pb0c644f0c5)" style="fill: #1f77b4; fill-opacity: 0.5; stroke: #000000; stroke-width: 0.441107; stroke-linejoin: miter"/>
   </g>
   <g id="patch_59">
    <path d="M 389.13837 385.478125 
L 394.043207 385.478125 
L 394.043207 384.25454 
L 389.13837 384.25454 
z
" clip-path="url(#pb0c644f0c5)" style="fill: #1f77b4; fill-opacity: 0.5; stroke: #000000; stroke-width: 0.441107; stroke-linejoin: miter"/>
   </g>
   <g id="patch_60">
    <path d="M 394.043207 385.478125 
L 398.948044 385.478125 
L 398.948044 384.25454 
L 394.043207 384.25454 
z
" clip-path="url(#pb0c644f0c5)" style="fill: #1f77b4; fill-opacity: 0.5; stroke: #000000; stroke-width: 0.441107; stroke-linejoin: miter"/>
   </g>
   <g id="patch_61">
    <path d="M 398.948044 385.478125 
L 403.852881 385.478125 
L 403.852881 383.846678 
L 398.948044 383.846678 
z
" clip-path="url(#pb0c644f0c5)" style="fill: #1f77b4; fill-opacity: 0.5; stroke: #000000; stroke-width: 0.441107; stroke-linejoin: miter"/>
   </g>
   <g id="patch_62">
    <path d="M 403.852881 385.478125 
L 408.757718 385.478125 
L 408.757718 383.438817 
L 403.852881 383.438817 
z
" clip-path="url(#pb0c644f0c5)" style="fill: #1f77b4; fill-opacity: 0.5; stroke: #000000; stroke-width: 0.441107; stroke-linejoin: miter"/>
   </g>
   <g id="patch_63">
    <path d="M 408.757718 385.478125 
L 413.662555 385.478125 
L 413.662555 378.952339 
L 408.757718 378.952339 
z
" clip-path="url(#pb0c644f0c5)" style="fill: #1f77b4; fill-opacity: 0.5; stroke: #000000; stroke-width: 0.441107; stroke-linejoin: miter"/>
   </g>
   <g id="patch_64">
    <path d="M 413.662555 385.478125 
L 418.567391 385.478125 
L 418.567391 381.80737 
L 413.662555 381.80737 
z
" clip-path="url(#pb0c644f0c5)" style="fill: #1f77b4; fill-opacity: 0.5; stroke: #000000; stroke-width: 0.441107; stroke-linejoin: miter"/>
   </g>
   <g id="patch_65">
    <path d="M 418.567391 385.478125 
L 423.472228 385.478125 
L 423.472228 385.070263 
L 418.567391 385.070263 
z
" clip-path="url(#pb0c644f0c5)" style="fill: #1f77b4; fill-opacity: 0.5; stroke: #000000; stroke-width: 0.441107; stroke-linejoin: miter"/>
   </g>
   <g id="patch_66">
    <path d="M 423.472228 385.478125 
L 428.377065 385.478125 
L 428.377065 385.478125 
L 423.472228 385.478125 
z
" clip-path="url(#pb0c644f0c5)" style="fill: #1f77b4; fill-opacity: 0.5; stroke: #000000; stroke-width: 0.441107; stroke-linejoin: miter"/>
   </g>
   <g id="patch_67">
    <path d="M 428.377065 385.478125 
L 433.281902 385.478125 
L 433.281902 385.070263 
L 428.377065 385.070263 
z
" clip-path="url(#pb0c644f0c5)" style="fill: #1f77b4; fill-opacity: 0.5; stroke: #000000; stroke-width: 0.441107; stroke-linejoin: miter"/>
   </g>
   <g id="patch_68">
    <path d="M 433.281902 385.478125 
L 438.186739 385.478125 
L 438.186739 385.070263 
L 433.281902 385.070263 
z
" clip-path="url(#pb0c644f0c5)" style="fill: #1f77b4; fill-opacity: 0.5; stroke: #000000; stroke-width: 0.441107; stroke-linejoin: miter"/>
   </g>
   <g id="patch_69">
    <path d="M 438.186739 385.478125 
L 443.091576 385.478125 
L 443.091576 385.478125 
L 438.186739 385.478125 
z
" clip-path="url(#pb0c644f0c5)" style="fill: #1f77b4; fill-opacity: 0.5; stroke: #000000; stroke-width: 0.441107; stroke-linejoin: miter"/>
   </g>
   <g id="patch_70">
    <path d="M 443.091576 385.478125 
L 447.996413 385.478125 
L 447.996413 385.478125 
L 443.091576 385.478125 
z
" clip-path="url(#pb0c644f0c5)" style="fill: #1f77b4; fill-opacity: 0.5; stroke: #000000; stroke-width: 0.441107; stroke-linejoin: miter"/>
   </g>
   <g id="patch_71">
    <path d="M 447.996413 385.478125 
L 452.90125 385.478125 
L 452.90125 385.478125 
L 447.996413 385.478125 
z
" clip-path="url(#pb0c644f0c5)" style="fill: #1f77b4; fill-opacity: 0.5; stroke: #000000; stroke-width: 0.441107; stroke-linejoin: miter"/>
   </g>
   <g id="patch_72">
    <path d="M 452.90125 385.478125 
L 457.806087 385.478125 
L 457.806087 385.070263 
L 452.90125 385.070263 
z
" clip-path="url(#pb0c644f0c5)" style="fill: #1f77b4; fill-opacity: 0.5; stroke: #000000; stroke-width: 0.441107; stroke-linejoin: miter"/>
   </g>
   <g id="patch_73">
    <path d="M 457.806087 385.478125 
L 462.710924 385.478125 
L 462.710924 385.070263 
L 457.806087 385.070263 
z
" clip-path="url(#pb0c644f0c5)" style="fill: #1f77b4; fill-opacity: 0.5; stroke: #000000; stroke-width: 0.441107; stroke-linejoin: miter"/>
   </g>
   <g id="patch_74">
    <path d="M 462.710924 385.478125 
L 467.615761 385.478125 
L 467.615761 385.070263 
L 462.710924 385.070263 
z
" clip-path="url(#pb0c644f0c5)" style="fill: #1f77b4; fill-opacity: 0.5; stroke: #000000; stroke-width: 0.441107; stroke-linejoin: miter"/>
   </g>
   <g id="patch_75">
    <path d="M 467.615761 385.478125 
L 472.520598 385.478125 
L 472.520598 384.662402 
L 467.615761 384.662402 
z
" clip-path="url(#pb0c644f0c5)" style="fill: #1f77b4; fill-opacity: 0.5; stroke: #000000; stroke-width: 0.441107; stroke-linejoin: miter"/>
   </g>
   <g id="patch_76">
    <path d="M 472.520598 385.478125 
L 477.425435 385.478125 
L 477.425435 383.846678 
L 472.520598 383.846678 
z
" clip-path="url(#pb0c644f0c5)" style="fill: #1f77b4; fill-opacity: 0.5; stroke: #000000; stroke-width: 0.441107; stroke-linejoin: miter"/>
   </g>
   <g id="patch_77">
    <path d="M 477.425435 385.478125 
L 482.330272 385.478125 
L 482.330272 383.030955 
L 477.425435 383.030955 
z
" clip-path="url(#pb0c644f0c5)" style="fill: #1f77b4; fill-opacity: 0.5; stroke: #000000; stroke-width: 0.441107; stroke-linejoin: miter"/>
   </g>
   <g id="patch_78">
    <path d="M 482.330272 385.478125 
L 487.235109 385.478125 
L 487.235109 383.438817 
L 482.330272 383.438817 
z
" clip-path="url(#pb0c644f0c5)" style="fill: #1f77b4; fill-opacity: 0.5; stroke: #000000; stroke-width: 0.441107; stroke-linejoin: miter"/>
   </g>
   <g id="patch_79">
    <path d="M 487.235109 385.478125 
L 492.139945 385.478125 
L 492.139945 383.846678 
L 487.235109 383.846678 
z
" clip-path="url(#pb0c644f0c5)" style="fill: #1f77b4; fill-opacity: 0.5; stroke: #000000; stroke-width: 0.441107; stroke-linejoin: miter"/>
   </g>
   <g id="patch_80">
    <path d="M 492.139945 385.478125 
L 497.044782 385.478125 
L 497.044782 385.478125 
L 492.139945 385.478125 
z
" clip-path="url(#pb0c644f0c5)" style="fill: #1f77b4; fill-opacity: 0.5; stroke: #000000; stroke-width: 0.441107; stroke-linejoin: miter"/>
   </g>
   <g id="patch_81">
    <path d="M 497.044782 385.478125 
L 501.949619 385.478125 
L 501.949619 385.478125 
L 497.044782 385.478125 
z
" clip-path="url(#pb0c644f0c5)" style="fill: #1f77b4; fill-opacity: 0.5; stroke: #000000; stroke-width: 0.441107; stroke-linejoin: miter"/>
   </g>
   <g id="patch_82">
    <path d="M 501.949619 385.478125 
L 506.854456 385.478125 
L 506.854456 385.478125 
L 501.949619 385.478125 
z
" clip-path="url(#pb0c644f0c5)" style="fill: #1f77b4; fill-opacity: 0.5; stroke: #000000; stroke-width: 0.441107; stroke-linejoin: miter"/>
   </g>
   <g id="patch_83">
    <path d="M 506.854456 385.478125 
L 511.759293 385.478125 
L 511.759293 385.070263 
L 506.854456 385.070263 
z
" clip-path="url(#pb0c644f0c5)" style="fill: #1f77b4; fill-opacity: 0.5; stroke: #000000; stroke-width: 0.441107; stroke-linejoin: miter"/>
   </g>
   <g id="patch_84">
    <path d="M 511.759293 385.478125 
L 516.66413 385.478125 
L 516.66413 385.478125 
L 511.759293 385.478125 
z
" clip-path="url(#pb0c644f0c5)" style="fill: #1f77b4; fill-opacity: 0.5; stroke: #000000; stroke-width: 0.441107; stroke-linejoin: miter"/>
   </g>
   <g id="patch_85">
    <path d="M 516.66413 385.478125 
L 521.568967 385.478125 
L 521.568967 385.478125 
L 516.66413 385.478125 
z
" clip-path="url(#pb0c644f0c5)" style="fill: #1f77b4; fill-opacity: 0.5; stroke: #000000; stroke-width: 0.441107; stroke-linejoin: miter"/>
   </g>
   <g id="patch_86">
    <path d="M 521.568967 385.478125 
L 526.473804 385.478125 
L 526.473804 385.478125 
L 521.568967 385.478125 
z
" clip-path="url(#pb0c644f0c5)" style="fill: #1f77b4; fill-opacity: 0.5; stroke: #000000; stroke-width: 0.441107; stroke-linejoin: miter"/>
   </g>
   <g id="patch_87">
    <path d="M 526.473804 385.478125 
L 531.378641 385.478125 
L 531.378641 385.478125 
L 526.473804 385.478125 
z
" clip-path="url(#pb0c644f0c5)" style="fill: #1f77b4; fill-opacity: 0.5; stroke: #000000; stroke-width: 0.441107; stroke-linejoin: miter"/>
   </g>
   <g id="patch_88">
    <path d="M 531.378641 385.478125 
L 536.283478 385.478125 
L 536.283478 385.478125 
L 531.378641 385.478125 
z
" clip-path="url(#pb0c644f0c5)" style="fill: #1f77b4; fill-opacity: 0.5; stroke: #000000; stroke-width: 0.441107; stroke-linejoin: miter"/>
   </g>
   <g id="patch_89">
    <path d="M 536.283478 385.478125 
L 541.188315 385.478125 
L 541.188315 385.478125 
L 536.283478 385.478125 
z
" clip-path="url(#pb0c644f0c5)" style="fill: #1f77b4; fill-opacity: 0.5; stroke: #000000; stroke-width: 0.441107; stroke-linejoin: miter"/>
   </g>
   <g id="patch_90">
    <path d="M 541.188315 385.478125 
L 546.093152 385.478125 
L 546.093152 385.478125 
L 541.188315 385.478125 
z
" clip-path="url(#pb0c644f0c5)" style="fill: #1f77b4; fill-opacity: 0.5; stroke: #000000; stroke-width: 0.441107; stroke-linejoin: miter"/>
   </g>
   <g id="patch_91">
    <path d="M 546.093152 385.478125 
L 550.997989 385.478125 
L 550.997989 385.478125 
L 546.093152 385.478125 
z
" clip-path="url(#pb0c644f0c5)" style="fill: #1f77b4; fill-opacity: 0.5; stroke: #000000; stroke-width: 0.441107; stroke-linejoin: miter"/>
   </g>
   <g id="patch_92">
    <path d="M 550.997989 385.478125 
L 555.902826 385.478125 
L 555.902826 385.478125 
L 550.997989 385.478125 
z
" clip-path="url(#pb0c644f0c5)" style="fill: #1f77b4; fill-opacity: 0.5; stroke: #000000; stroke-width: 0.441107; stroke-linejoin: miter"/>
   </g>
   <g id="patch_93">
    <path d="M 555.902826 385.478125 
L 560.807663 385.478125 
L 560.807663 385.478125 
L 555.902826 385.478125 
z
" clip-path="url(#pb0c644f0c5)" style="fill: #1f77b4; fill-opacity: 0.5; stroke: #000000; stroke-width: 0.441107; stroke-linejoin: miter"/>
   </g>
   <g id="patch_94">
    <path d="M 560.807663 385.478125 
L 565.712499 385.478125 
L 565.712499 385.478125 
L 560.807663 385.478125 
z
" clip-path="url(#pb0c644f0c5)" style="fill: #1f77b4; fill-opacity: 0.5; stroke: #000000; stroke-width: 0.441107; stroke-linejoin: miter"/>
   </g>
   <g id="patch_95">
    <path d="M 565.712499 385.478125 
L 570.617336 385.478125 
L 570.617336 385.478125 
L 565.712499 385.478125 
z
" clip-path="url(#pb0c644f0c5)" style="fill: #1f77b4; fill-opacity: 0.5; stroke: #000000; stroke-width: 0.441107; stroke-linejoin: miter"/>
   </g>
   <g id="patch_96">
    <path d="M 570.617336 385.478125 
L 575.522173 385.478125 
L 575.522173 385.478125 
L 570.617336 385.478125 
z
" clip-path="url(#pb0c644f0c5)" style="fill: #1f77b4; fill-opacity: 0.5; stroke: #000000; stroke-width: 0.441107; stroke-linejoin: miter"/>
   </g>
   <g id="patch_97">
    <path d="M 575.522173 385.478125 
L 580.42701 385.478125 
L 580.42701 385.478125 
L 575.522173 385.478125 
z
" clip-path="url(#pb0c644f0c5)" style="fill: #1f77b4; fill-opacity: 0.5; stroke: #000000; stroke-width: 0.441107; stroke-linejoin: miter"/>
   </g>
   <g id="patch_98">
    <path d="M 580.42701 385.478125 
L 585.331847 385.478125 
L 585.331847 384.662402 
L 580.42701 384.662402 
z
" clip-path="url(#pb0c644f0c5)" style="fill: #1f77b4; fill-opacity: 0.5; stroke: #000000; stroke-width: 0.441107; stroke-linejoin: miter"/>
   </g>
   <g id="patch_99">
    <path d="M 585.331847 385.478125 
L 590.236684 385.478125 
L 590.236684 384.25454 
L 585.331847 384.25454 
z
" clip-path="url(#pb0c644f0c5)" style="fill: #1f77b4; fill-opacity: 0.5; stroke: #000000; stroke-width: 0.441107; stroke-linejoin: miter"/>
   </g>
   <g id="patch_100">
    <path d="M 590.236684 385.478125 
L 595.141521 385.478125 
L 595.141521 384.662402 
L 590.236684 384.662402 
z
" clip-path="url(#pb0c644f0c5)" style="fill: #1f77b4; fill-opacity: 0.5; stroke: #000000; stroke-width: 0.441107; stroke-linejoin: miter"/>
   </g>
   <g id="patch_101">
    <path d="M 595.141521 385.478125 
L 600.046358 385.478125 
L 600.046358 385.070263 
L 595.141521 385.070263 
z
" clip-path="url(#pb0c644f0c5)" style="fill: #1f77b4; fill-opacity: 0.5; stroke: #000000; stroke-width: 0.441107; stroke-linejoin: miter"/>
   </g>
   <g id="patch_102">
    <path d="M 600.046358 385.478125 
L 604.951195 385.478125 
L 604.951195 385.478125 
L 600.046358 385.478125 
z
" clip-path="url(#pb0c644f0c5)" style="fill: #1f77b4; fill-opacity: 0.5; stroke: #000000; stroke-width: 0.441107; stroke-linejoin: miter"/>
   </g>
   <g id="patch_103">
    <path d="M 604.951195 385.478125 
L 609.856032 385.478125 
L 609.856032 385.478125 
L 604.951195 385.478125 
z
" clip-path="url(#pb0c644f0c5)" style="fill: #1f77b4; fill-opacity: 0.5; stroke: #000000; stroke-width: 0.441107; stroke-linejoin: miter"/>
   </g>
   <g id="patch_104">
    <path d="M 609.856032 385.478125 
L 614.760869 385.478125 
L 614.760869 385.478125 
L 609.856032 385.478125 
z
" clip-path="url(#pb0c644f0c5)" style="fill: #1f77b4; fill-opacity: 0.5; stroke: #000000; stroke-width: 0.441107; stroke-linejoin: miter"/>
   </g>
   <g id="patch_105">
    <path d="M 614.760869 385.478125 
L 619.665706 385.478125 
L 619.665706 385.478125 
L 614.760869 385.478125 
z
" clip-path="url(#pb0c644f0c5)" style="fill: #1f77b4; fill-opacity: 0.5; stroke: #000000; stroke-width: 0.441107; stroke-linejoin: miter"/>
   </g>
   <g id="patch_106">
    <path d="M 619.665706 385.478125 
L 624.570543 385.478125 
L 624.570543 385.478125 
L 619.665706 385.478125 
z
" clip-path="url(#pb0c644f0c5)" style="fill: #1f77b4; fill-opacity: 0.5; stroke: #000000; stroke-width: 0.441107; stroke-linejoin: miter"/>
   </g>
   <g id="patch_107">
    <path d="M 624.570543 385.478125 
L 629.47538 385.478125 
L 629.47538 385.478125 
L 624.570543 385.478125 
z
" clip-path="url(#pb0c644f0c5)" style="fill: #1f77b4; fill-opacity: 0.5; stroke: #000000; stroke-width: 0.441107; stroke-linejoin: miter"/>
   </g>
   <g id="patch_108">
    <path d="M 629.47538 385.478125 
L 634.380216 385.478125 
L 634.380216 385.478125 
L 629.47538 385.478125 
z
" clip-path="url(#pb0c644f0c5)" style="fill: #1f77b4; fill-opacity: 0.5; stroke: #000000; stroke-width: 0.441107; stroke-linejoin: miter"/>
   </g>
   <g id="patch_109">
    <path d="M 634.380216 385.478125 
L 639.285053 385.478125 
L 639.285053 385.478125 
L 634.380216 385.478125 
z
" clip-path="url(#pb0c644f0c5)" style="fill: #1f77b4; fill-opacity: 0.5; stroke: #000000; stroke-width: 0.441107; stroke-linejoin: miter"/>
   </g>
   <g id="patch_110">
    <path d="M 639.285053 385.478125 
L 644.18989 385.478125 
L 644.18989 385.478125 
L 639.285053 385.478125 
z
" clip-path="url(#pb0c644f0c5)" style="fill: #1f77b4; fill-opacity: 0.5; stroke: #000000; stroke-width: 0.441107; stroke-linejoin: miter"/>
   </g>
   <g id="patch_111">
    <path d="M 644.18989 385.478125 
L 649.094727 385.478125 
L 649.094727 385.478125 
L 644.18989 385.478125 
z
" clip-path="url(#pb0c644f0c5)" style="fill: #1f77b4; fill-opacity: 0.5; stroke: #000000; stroke-width: 0.441107; stroke-linejoin: miter"/>
   </g>
   <g id="patch_112">
    <path d="M 649.094727 385.478125 
L 653.999564 385.478125 
L 653.999564 385.478125 
L 649.094727 385.478125 
z
" clip-path="url(#pb0c644f0c5)" style="fill: #1f77b4; fill-opacity: 0.5; stroke: #000000; stroke-width: 0.441107; stroke-linejoin: miter"/>
   </g>
   <g id="patch_113">
    <path d="M 653.999564 385.478125 
L 658.904401 385.478125 
L 658.904401 385.478125 
L 653.999564 385.478125 
z
" clip-path="url(#pb0c644f0c5)" style="fill: #1f77b4; fill-opacity: 0.5; stroke: #000000; stroke-width: 0.441107; stroke-linejoin: miter"/>
   </g>
   <g id="patch_114">
    <path d="M 658.904401 385.478125 
L 663.809238 385.478125 
L 663.809238 385.478125 
L 658.904401 385.478125 
z
" clip-path="url(#pb0c644f0c5)" style="fill: #1f77b4; fill-opacity: 0.5; stroke: #000000; stroke-width: 0.441107; stroke-linejoin: miter"/>
   </g>
   <g id="patch_115">
    <path d="M 663.809238 385.478125 
L 668.714075 385.478125 
L 668.714075 385.478125 
L 663.809238 385.478125 
z
" clip-path="url(#pb0c644f0c5)" style="fill: #1f77b4; fill-opacity: 0.5; stroke: #000000; stroke-width: 0.441107; stroke-linejoin: miter"/>
   </g>
   <g id="patch_116">
    <path d="M 668.714075 385.478125 
L 673.618912 385.478125 
L 673.618912 385.478125 
L 668.714075 385.478125 
z
" clip-path="url(#pb0c644f0c5)" style="fill: #1f77b4; fill-opacity: 0.5; stroke: #000000; stroke-width: 0.441107; stroke-linejoin: miter"/>
   </g>
   <g id="patch_117">
    <path d="M 673.618912 385.478125 
L 678.523749 385.478125 
L 678.523749 385.478125 
L 673.618912 385.478125 
z
" clip-path="url(#pb0c644f0c5)" style="fill: #1f77b4; fill-opacity: 0.5; stroke: #000000; stroke-width: 0.441107; stroke-linejoin: miter"/>
   </g>
   <g id="patch_118">
    <path d="M 678.523749 385.478125 
L 683.428586 385.478125 
L 683.428586 385.478125 
L 678.523749 385.478125 
z
" clip-path="url(#pb0c644f0c5)" style="fill: #1f77b4; fill-opacity: 0.5; stroke: #000000; stroke-width: 0.441107; stroke-linejoin: miter"/>
   </g>
   <g id="patch_119">
    <path d="M 683.428586 385.478125 
L 688.333423 385.478125 
L 688.333423 385.478125 
L 683.428586 385.478125 
z
" clip-path="url(#pb0c644f0c5)" style="fill: #1f77b4; fill-opacity: 0.5; stroke: #000000; stroke-width: 0.441107; stroke-linejoin: miter"/>
   </g>
   <g id="patch_120">
    <path d="M 688.333423 385.478125 
L 693.23826 385.478125 
L 693.23826 385.478125 
L 688.333423 385.478125 
z
" clip-path="url(#pb0c644f0c5)" style="fill: #1f77b4; fill-opacity: 0.5; stroke: #000000; stroke-width: 0.441107; stroke-linejoin: miter"/>
   </g>
   <g id="patch_121">
    <path d="M 693.23826 385.478125 
L 698.143097 385.478125 
L 698.143097 385.478125 
L 693.23826 385.478125 
z
" clip-path="url(#pb0c644f0c5)" style="fill: #1f77b4; fill-opacity: 0.5; stroke: #000000; stroke-width: 0.441107; stroke-linejoin: miter"/>
   </g>
   <g id="patch_122">
    <path d="M 698.143097 385.478125 
L 703.047934 385.478125 
L 703.047934 385.478125 
L 698.143097 385.478125 
z
" clip-path="url(#pb0c644f0c5)" style="fill: #1f77b4; fill-opacity: 0.5; stroke: #000000; stroke-width: 0.441107; stroke-linejoin: miter"/>
   </g>
   <g id="patch_123">
    <path d="M 703.047934 385.478125 
L 707.95277 385.478125 
L 707.95277 385.478125 
L 703.047934 385.478125 
z
" clip-path="url(#pb0c644f0c5)" style="fill: #1f77b4; fill-opacity: 0.5; stroke: #000000; stroke-width: 0.441107; stroke-linejoin: miter"/>
   </g>
   <g id="patch_124">
    <path d="M 707.95277 385.478125 
L 712.857607 385.478125 
L 712.857607 385.478125 
L 707.95277 385.478125 
z
" clip-path="url(#pb0c644f0c5)" style="fill: #1f77b4; fill-opacity: 0.5; stroke: #000000; stroke-width: 0.441107; stroke-linejoin: miter"/>
   </g>
   <g id="patch_125">
    <path d="M 712.857607 385.478125 
L 717.762444 385.478125 
L 717.762444 385.478125 
L 712.857607 385.478125 
z
" clip-path="url(#pb0c644f0c5)" style="fill: #1f77b4; fill-opacity: 0.5; stroke: #000000; stroke-width: 0.441107; stroke-linejoin: miter"/>
   </g>
   <g id="patch_126">
    <path d="M 717.762444 385.478125 
L 722.667281 385.478125 
L 722.667281 385.478125 
L 717.762444 385.478125 
z
" clip-path="url(#pb0c644f0c5)" style="fill: #1f77b4; fill-opacity: 0.5; stroke: #000000; stroke-width: 0.441107; stroke-linejoin: miter"/>
   </g>
   <g id="patch_127">
    <path d="M 722.667281 385.478125 
L 727.572118 385.478125 
L 727.572118 385.478125 
L 722.667281 385.478125 
z
" clip-path="url(#pb0c644f0c5)" style="fill: #1f77b4; fill-opacity: 0.5; stroke: #000000; stroke-width: 0.441107; stroke-linejoin: miter"/>
   </g>
   <g id="patch_128">
    <path d="M 727.572118 385.478125 
L 732.476955 385.478125 
L 732.476955 385.478125 
L 727.572118 385.478125 
z
" clip-path="url(#pb0c644f0c5)" style="fill: #1f77b4; fill-opacity: 0.5; stroke: #000000; stroke-width: 0.441107; stroke-linejoin: miter"/>
   </g>
   <g id="patch_129">
    <path d="M 732.476955 385.478125 
L 737.381792 385.478125 
L 737.381792 385.478125 
L 732.476955 385.478125 
z
" clip-path="url(#pb0c644f0c5)" style="fill: #1f77b4; fill-opacity: 0.5; stroke: #000000; stroke-width: 0.441107; stroke-linejoin: miter"/>
   </g>
   <g id="patch_130">
    <path d="M 737.381792 385.478125 
L 742.286629 385.478125 
L 742.286629 385.478125 
L 737.381792 385.478125 
z
" clip-path="url(#pb0c644f0c5)" style="fill: #1f77b4; fill-opacity: 0.5; stroke: #000000; stroke-width: 0.441107; stroke-linejoin: miter"/>
   </g>
   <g id="patch_131">
    <path d="M 742.286629 385.478125 
L 747.191466 385.478125 
L 747.191466 385.478125 
L 742.286629 385.478125 
z
" clip-path="url(#pb0c644f0c5)" style="fill: #1f77b4; fill-opacity: 0.5; stroke: #000000; stroke-width: 0.441107; stroke-linejoin: miter"/>
   </g>
   <g id="patch_132">
    <path d="M 747.191466 385.478125 
L 752.096303 385.478125 
L 752.096303 385.478125 
L 747.191466 385.478125 
z
" clip-path="url(#pb0c644f0c5)" style="fill: #1f77b4; fill-opacity: 0.5; stroke: #000000; stroke-width: 0.441107; stroke-linejoin: miter"/>
   </g>
   <g id="patch_133">
    <path d="M 752.096303 385.478125 
L 757.00114 385.478125 
L 757.00114 385.478125 
L 752.096303 385.478125 
z
" clip-path="url(#pb0c644f0c5)" style="fill: #1f77b4; fill-opacity: 0.5; stroke: #000000; stroke-width: 0.441107; stroke-linejoin: miter"/>
   </g>
   <g id="patch_134">
    <path d="M 757.00114 385.478125 
L 761.905977 385.478125 
L 761.905977 385.478125 
L 757.00114 385.478125 
z
" clip-path="url(#pb0c644f0c5)" style="fill: #1f77b4; fill-opacity: 0.5; stroke: #000000; stroke-width: 0.441107; stroke-linejoin: miter"/>
   </g>
   <g id="patch_135">
    <path d="M 761.905977 385.478125 
L 766.810814 385.478125 
L 766.810814 385.478125 
L 761.905977 385.478125 
z
" clip-path="url(#pb0c644f0c5)" style="fill: #1f77b4; fill-opacity: 0.5; stroke: #000000; stroke-width: 0.441107; stroke-linejoin: miter"/>
   </g>
   <g id="patch_136">
    <path d="M 766.810814 385.478125 
L 771.715651 385.478125 
L 771.715651 385.478125 
L 766.810814 385.478125 
z
" clip-path="url(#pb0c644f0c5)" style="fill: #1f77b4; fill-opacity: 0.5; stroke: #000000; stroke-width: 0.441107; stroke-linejoin: miter"/>
   </g>
   <g id="patch_137">
    <path d="M 771.715651 385.478125 
L 776.620488 385.478125 
L 776.620488 385.478125 
L 771.715651 385.478125 
z
" clip-path="url(#pb0c644f0c5)" style="fill: #1f77b4; fill-opacity: 0.5; stroke: #000000; stroke-width: 0.441107; stroke-linejoin: miter"/>
   </g>
   <g id="patch_138">
    <path d="M 776.620488 385.478125 
L 781.525324 385.478125 
L 781.525324 385.478125 
L 776.620488 385.478125 
z
" clip-path="url(#pb0c644f0c5)" style="fill: #1f77b4; fill-opacity: 0.5; stroke: #000000; stroke-width: 0.441107; stroke-linejoin: miter"/>
   </g>
   <g id="patch_139">
    <path d="M 781.525324 385.478125 
L 786.430161 385.478125 
L 786.430161 385.070263 
L 781.525324 385.070263 
z
" clip-path="url(#pb0c644f0c5)" style="fill: #1f77b4; fill-opacity: 0.5; stroke: #000000; stroke-width: 0.441107; stroke-linejoin: miter"/>
   </g>
   <g id="patch_140">
    <path d="M 786.430161 385.478125 
L 791.334998 385.478125 
L 791.334998 385.070263 
L 786.430161 385.070263 
z
" clip-path="url(#pb0c644f0c5)" style="fill: #1f77b4; fill-opacity: 0.5; stroke: #000000; stroke-width: 0.441107; stroke-linejoin: miter"/>
   </g>
   <g id="matplotlib.axis_1">
    <g id="xtick_1">
     <g id="line2d_1">
      <defs>
       <path id="m9ae6330ec8" d="M 0 0 
L 0 3.5 
" style="stroke: #000000; stroke-width: 0.8"/>
      </defs>
      <g>
       <use xlink:href="#m9ae6330ec8" x="110.798194" y="385.478125" style="stroke: #000000; stroke-width: 0.8"/>
      </g>
     </g>
     <g id="text_1">
      <!-- 0 -->
      <g transform="translate(107.616944 400.076562) scale(0.1 -0.1)">
       <defs>
        <path id="DejaVuSans-30" d="M 2034 4250 
Q 1547 4250 1301 3770 
Q 1056 3291 1056 2328 
Q 1056 1369 1301 889 
Q 1547 409 2034 409 
Q 2525 409 2770 889 
Q 3016 1369 3016 2328 
Q 3016 3291 2770 3770 
Q 2525 4250 2034 4250 
z
M 2034 4750 
Q 2819 4750 3233 4129 
Q 3647 3509 3647 2328 
Q 3647 1150 3233 529 
Q 2819 -91 2034 -91 
Q 1250 -91 836 529 
Q 422 1150 422 2328 
Q 422 3509 836 4129 
Q 1250 4750 2034 4750 
z
" transform="scale(0.015625)"/>
       </defs>
       <use xlink:href="#DejaVuSans-30"/>
      </g>
     </g>
    </g>
    <g id="xtick_2">
     <g id="line2d_2">
      <g>
       <use xlink:href="#m9ae6330ec8" x="274.765371" y="385.478125" style="stroke: #000000; stroke-width: 0.8"/>
      </g>
     </g>
     <g id="text_2">
      <!-- 100 -->
      <g transform="translate(265.221621 400.076562) scale(0.1 -0.1)">
       <defs>
        <path id="DejaVuSans-31" d="M 794 531 
L 1825 531 
L 1825 4091 
L 703 3866 
L 703 4441 
L 1819 4666 
L 2450 4666 
L 2450 531 
L 3481 531 
L 3481 0 
L 794 0 
L 794 531 
z
" transform="scale(0.015625)"/>
       </defs>
       <use xlink:href="#DejaVuSans-31"/>
       <use xlink:href="#DejaVuSans-30" x="63.623047"/>
       <use xlink:href="#DejaVuSans-30" x="127.246094"/>
      </g>
     </g>
    </g>
    <g id="xtick_3">
     <g id="line2d_3">
      <g>
       <use xlink:href="#m9ae6330ec8" x="438.732548" y="385.478125" style="stroke: #000000; stroke-width: 0.8"/>
      </g>
     </g>
     <g id="text_3">
      <!-- 200 -->
      <g transform="translate(429.188798 400.076562) scale(0.1 -0.1)">
       <defs>
        <path id="DejaVuSans-32" d="M 1228 531 
L 3431 531 
L 3431 0 
L 469 0 
L 469 531 
Q 828 903 1448 1529 
Q 2069 2156 2228 2338 
Q 2531 2678 2651 2914 
Q 2772 3150 2772 3378 
Q 2772 3750 2511 3984 
Q 2250 4219 1831 4219 
Q 1534 4219 1204 4116 
Q 875 4013 500 3803 
L 500 4441 
Q 881 4594 1212 4672 
Q 1544 4750 1819 4750 
Q 2544 4750 2975 4387 
Q 3406 4025 3406 3419 
Q 3406 3131 3298 2873 
Q 3191 2616 2906 2266 
Q 2828 2175 2409 1742 
Q 1991 1309 1228 531 
z
" transform="scale(0.015625)"/>
       </defs>
       <use xlink:href="#DejaVuSans-32"/>
       <use xlink:href="#DejaVuSans-30" x="63.623047"/>
       <use xlink:href="#DejaVuSans-30" x="127.246094"/>
      </g>
     </g>
    </g>
    <g id="xtick_4">
     <g id="line2d_4">
      <g>
       <use xlink:href="#m9ae6330ec8" x="602.699725" y="385.478125" style="stroke: #000000; stroke-width: 0.8"/>
      </g>
     </g>
     <g id="text_4">
      <!-- 300 -->
      <g transform="translate(593.155975 400.076562) scale(0.1 -0.1)">
       <defs>
        <path id="DejaVuSans-33" d="M 2597 2516 
Q 3050 2419 3304 2112 
Q 3559 1806 3559 1356 
Q 3559 666 3084 287 
Q 2609 -91 1734 -91 
Q 1441 -91 1130 -33 
Q 819 25 488 141 
L 488 750 
Q 750 597 1062 519 
Q 1375 441 1716 441 
Q 2309 441 2620 675 
Q 2931 909 2931 1356 
Q 2931 1769 2642 2001 
Q 2353 2234 1838 2234 
L 1294 2234 
L 1294 2753 
L 1863 2753 
Q 2328 2753 2575 2939 
Q 2822 3125 2822 3475 
Q 2822 3834 2567 4026 
Q 2313 4219 1838 4219 
Q 1578 4219 1281 4162 
Q 984 4106 628 3988 
L 628 4550 
Q 988 4650 1302 4700 
Q 1616 4750 1894 4750 
Q 2613 4750 3031 4423 
Q 3450 4097 3450 3541 
Q 3450 3153 3228 2886 
Q 3006 2619 2597 2516 
z
" transform="scale(0.015625)"/>
       </defs>
       <use xlink:href="#DejaVuSans-33"/>
       <use xlink:href="#DejaVuSans-30" x="63.623047"/>
       <use xlink:href="#DejaVuSans-30" x="127.246094"/>
      </g>
     </g>
    </g>
    <g id="xtick_5">
     <g id="line2d_5">
      <g>
       <use xlink:href="#m9ae6330ec8" x="766.666902" y="385.478125" style="stroke: #000000; stroke-width: 0.8"/>
      </g>
     </g>
     <g id="text_5">
      <!-- 400 -->
      <g transform="translate(757.123152 400.076562) scale(0.1 -0.1)">
       <defs>
        <path id="DejaVuSans-34" d="M 2419 4116 
L 825 1625 
L 2419 1625 
L 2419 4116 
z
M 2253 4666 
L 3047 4666 
L 3047 1625 
L 3713 1625 
L 3713 1100 
L 3047 1100 
L 3047 0 
L 2419 0 
L 2419 1100 
L 313 1100 
L 313 1709 
L 2253 4666 
z
" transform="scale(0.015625)"/>
       </defs>
       <use xlink:href="#DejaVuSans-34"/>
       <use xlink:href="#DejaVuSans-30" x="63.623047"/>
       <use xlink:href="#DejaVuSans-30" x="127.246094"/>
      </g>
     </g>
    </g>
    <g id="text_6">
     <!-- GFR -->
     <g transform="translate(442.677031 413.754687) scale(0.1 -0.1)">
      <defs>
       <path id="DejaVuSans-47" d="M 3809 666 
L 3809 1919 
L 2778 1919 
L 2778 2438 
L 4434 2438 
L 4434 434 
Q 4069 175 3628 42 
Q 3188 -91 2688 -91 
Q 1594 -91 976 548 
Q 359 1188 359 2328 
Q 359 3472 976 4111 
Q 1594 4750 2688 4750 
Q 3144 4750 3555 4637 
Q 3966 4525 4313 4306 
L 4313 3634 
Q 3963 3931 3569 4081 
Q 3175 4231 2741 4231 
Q 1884 4231 1454 3753 
Q 1025 3275 1025 2328 
Q 1025 1384 1454 906 
Q 1884 428 2741 428 
Q 3075 428 3337 486 
Q 3600 544 3809 666 
z
" transform="scale(0.015625)"/>
       <path id="DejaVuSans-46" d="M 628 4666 
L 3309 4666 
L 3309 4134 
L 1259 4134 
L 1259 2759 
L 3109 2759 
L 3109 2228 
L 1259 2228 
L 1259 0 
L 628 0 
L 628 4666 
z
" transform="scale(0.015625)"/>
       <path id="DejaVuSans-52" d="M 2841 2188 
Q 3044 2119 3236 1894 
Q 3428 1669 3622 1275 
L 4263 0 
L 3584 0 
L 2988 1197 
Q 2756 1666 2539 1819 
Q 2322 1972 1947 1972 
L 1259 1972 
L 1259 0 
L 628 0 
L 628 4666 
L 2053 4666 
Q 2853 4666 3247 4331 
Q 3641 3997 3641 3322 
Q 3641 2881 3436 2590 
Q 3231 2300 2841 2188 
z
M 1259 4147 
L 1259 2491 
L 2053 2491 
Q 2509 2491 2742 2702 
Q 2975 2913 2975 3322 
Q 2975 3731 2742 3939 
Q 2509 4147 2053 4147 
L 1259 4147 
z
" transform="scale(0.015625)"/>
      </defs>
      <use xlink:href="#DejaVuSans-47"/>
      <use xlink:href="#DejaVuSans-46" x="77.490234"/>
      <use xlink:href="#DejaVuSans-52" x="135.009766"/>
     </g>
    </g>
   </g>
   <g id="matplotlib.axis_2">
    <g id="ytick_1">
     <g id="line2d_6">
      <defs>
       <path id="m2af1c856e6" d="M 0 0 
L -3.5 0 
" style="stroke: #000000; stroke-width: 0.8"/>
      </defs>
      <g>
       <use xlink:href="#m2af1c856e6" x="56.50625" y="385.478125" style="stroke: #000000; stroke-width: 0.8"/>
      </g>
     </g>
     <g id="text_7">
      <!-- 0.000 -->
      <g transform="translate(20.878125 389.277344) scale(0.1 -0.1)">
       <defs>
        <path id="DejaVuSans-2e" d="M 684 794 
L 1344 794 
L 1344 0 
L 684 0 
L 684 794 
z
" transform="scale(0.015625)"/>
       </defs>
       <use xlink:href="#DejaVuSans-30"/>
       <use xlink:href="#DejaVuSans-2e" x="63.623047"/>
       <use xlink:href="#DejaVuSans-30" x="95.410156"/>
       <use xlink:href="#DejaVuSans-30" x="159.033203"/>
       <use xlink:href="#DejaVuSans-30" x="222.65625"/>
      </g>
     </g>
    </g>
    <g id="ytick_2">
     <g id="line2d_7">
      <g>
       <use xlink:href="#m2af1c856e6" x="56.50625" y="344.925834" style="stroke: #000000; stroke-width: 0.8"/>
      </g>
     </g>
     <g id="text_8">
      <!-- 0.002 -->
      <g transform="translate(20.878125 348.725053) scale(0.1 -0.1)">
       <use xlink:href="#DejaVuSans-30"/>
       <use xlink:href="#DejaVuSans-2e" x="63.623047"/>
       <use xlink:href="#DejaVuSans-30" x="95.410156"/>
       <use xlink:href="#DejaVuSans-30" x="159.033203"/>
       <use xlink:href="#DejaVuSans-32" x="222.65625"/>
      </g>
     </g>
    </g>
    <g id="ytick_3">
     <g id="line2d_8">
      <g>
       <use xlink:href="#m2af1c856e6" x="56.50625" y="304.373543" style="stroke: #000000; stroke-width: 0.8"/>
      </g>
     </g>
     <g id="text_9">
      <!-- 0.004 -->
      <g transform="translate(20.878125 308.172762) scale(0.1 -0.1)">
       <use xlink:href="#DejaVuSans-30"/>
       <use xlink:href="#DejaVuSans-2e" x="63.623047"/>
       <use xlink:href="#DejaVuSans-30" x="95.410156"/>
       <use xlink:href="#DejaVuSans-30" x="159.033203"/>
       <use xlink:href="#DejaVuSans-34" x="222.65625"/>
      </g>
     </g>
    </g>
    <g id="ytick_4">
     <g id="line2d_9">
      <g>
       <use xlink:href="#m2af1c856e6" x="56.50625" y="263.821252" style="stroke: #000000; stroke-width: 0.8"/>
      </g>
     </g>
     <g id="text_10">
      <!-- 0.006 -->
      <g transform="translate(20.878125 267.620471) scale(0.1 -0.1)">
       <defs>
        <path id="DejaVuSans-36" d="M 2113 2584 
Q 1688 2584 1439 2293 
Q 1191 2003 1191 1497 
Q 1191 994 1439 701 
Q 1688 409 2113 409 
Q 2538 409 2786 701 
Q 3034 994 3034 1497 
Q 3034 2003 2786 2293 
Q 2538 2584 2113 2584 
z
M 3366 4563 
L 3366 3988 
Q 3128 4100 2886 4159 
Q 2644 4219 2406 4219 
Q 1781 4219 1451 3797 
Q 1122 3375 1075 2522 
Q 1259 2794 1537 2939 
Q 1816 3084 2150 3084 
Q 2853 3084 3261 2657 
Q 3669 2231 3669 1497 
Q 3669 778 3244 343 
Q 2819 -91 2113 -91 
Q 1303 -91 875 529 
Q 447 1150 447 2328 
Q 447 3434 972 4092 
Q 1497 4750 2381 4750 
Q 2619 4750 2861 4703 
Q 3103 4656 3366 4563 
z
" transform="scale(0.015625)"/>
       </defs>
       <use xlink:href="#DejaVuSans-30"/>
       <use xlink:href="#DejaVuSans-2e" x="63.623047"/>
       <use xlink:href="#DejaVuSans-30" x="95.410156"/>
       <use xlink:href="#DejaVuSans-30" x="159.033203"/>
       <use xlink:href="#DejaVuSans-36" x="222.65625"/>
      </g>
     </g>
    </g>
    <g id="ytick_5">
     <g id="line2d_10">
      <g>
       <use xlink:href="#m2af1c856e6" x="56.50625" y="223.268962" style="stroke: #000000; stroke-width: 0.8"/>
      </g>
     </g>
     <g id="text_11">
      <!-- 0.008 -->
      <g transform="translate(20.878125 227.06818) scale(0.1 -0.1)">
       <defs>
        <path id="DejaVuSans-38" d="M 2034 2216 
Q 1584 2216 1326 1975 
Q 1069 1734 1069 1313 
Q 1069 891 1326 650 
Q 1584 409 2034 409 
Q 2484 409 2743 651 
Q 3003 894 3003 1313 
Q 3003 1734 2745 1975 
Q 2488 2216 2034 2216 
z
M 1403 2484 
Q 997 2584 770 2862 
Q 544 3141 544 3541 
Q 544 4100 942 4425 
Q 1341 4750 2034 4750 
Q 2731 4750 3128 4425 
Q 3525 4100 3525 3541 
Q 3525 3141 3298 2862 
Q 3072 2584 2669 2484 
Q 3125 2378 3379 2068 
Q 3634 1759 3634 1313 
Q 3634 634 3220 271 
Q 2806 -91 2034 -91 
Q 1263 -91 848 271 
Q 434 634 434 1313 
Q 434 1759 690 2068 
Q 947 2378 1403 2484 
z
M 1172 3481 
Q 1172 3119 1398 2916 
Q 1625 2713 2034 2713 
Q 2441 2713 2670 2916 
Q 2900 3119 2900 3481 
Q 2900 3844 2670 4047 
Q 2441 4250 2034 4250 
Q 1625 4250 1398 4047 
Q 1172 3844 1172 3481 
z
" transform="scale(0.015625)"/>
       </defs>
       <use xlink:href="#DejaVuSans-30"/>
       <use xlink:href="#DejaVuSans-2e" x="63.623047"/>
       <use xlink:href="#DejaVuSans-30" x="95.410156"/>
       <use xlink:href="#DejaVuSans-30" x="159.033203"/>
       <use xlink:href="#DejaVuSans-38" x="222.65625"/>
      </g>
     </g>
    </g>
    <g id="ytick_6">
     <g id="line2d_11">
      <g>
       <use xlink:href="#m2af1c856e6" x="56.50625" y="182.716671" style="stroke: #000000; stroke-width: 0.8"/>
      </g>
     </g>
     <g id="text_12">
      <!-- 0.010 -->
      <g transform="translate(20.878125 186.51589) scale(0.1 -0.1)">
       <use xlink:href="#DejaVuSans-30"/>
       <use xlink:href="#DejaVuSans-2e" x="63.623047"/>
       <use xlink:href="#DejaVuSans-30" x="95.410156"/>
       <use xlink:href="#DejaVuSans-31" x="159.033203"/>
       <use xlink:href="#DejaVuSans-30" x="222.65625"/>
      </g>
     </g>
    </g>
    <g id="ytick_7">
     <g id="line2d_12">
      <g>
       <use xlink:href="#m2af1c856e6" x="56.50625" y="142.16438" style="stroke: #000000; stroke-width: 0.8"/>
      </g>
     </g>
     <g id="text_13">
      <!-- 0.012 -->
      <g transform="translate(20.878125 145.963599) scale(0.1 -0.1)">
       <use xlink:href="#DejaVuSans-30"/>
       <use xlink:href="#DejaVuSans-2e" x="63.623047"/>
       <use xlink:href="#DejaVuSans-30" x="95.410156"/>
       <use xlink:href="#DejaVuSans-31" x="159.033203"/>
       <use xlink:href="#DejaVuSans-32" x="222.65625"/>
      </g>
     </g>
    </g>
    <g id="ytick_8">
     <g id="line2d_13">
      <g>
       <use xlink:href="#m2af1c856e6" x="56.50625" y="101.612089" style="stroke: #000000; stroke-width: 0.8"/>
      </g>
     </g>
     <g id="text_14">
      <!-- 0.014 -->
      <g transform="translate(20.878125 105.411308) scale(0.1 -0.1)">
       <use xlink:href="#DejaVuSans-30"/>
       <use xlink:href="#DejaVuSans-2e" x="63.623047"/>
       <use xlink:href="#DejaVuSans-30" x="95.410156"/>
       <use xlink:href="#DejaVuSans-31" x="159.033203"/>
       <use xlink:href="#DejaVuSans-34" x="222.65625"/>
      </g>
     </g>
    </g>
    <g id="ytick_9">
     <g id="line2d_14">
      <g>
       <use xlink:href="#m2af1c856e6" x="56.50625" y="61.059798" style="stroke: #000000; stroke-width: 0.8"/>
      </g>
     </g>
     <g id="text_15">
      <!-- 0.016 -->
      <g transform="translate(20.878125 64.859017) scale(0.1 -0.1)">
       <use xlink:href="#DejaVuSans-30"/>
       <use xlink:href="#DejaVuSans-2e" x="63.623047"/>
       <use xlink:href="#DejaVuSans-30" x="95.410156"/>
       <use xlink:href="#DejaVuSans-31" x="159.033203"/>
       <use xlink:href="#DejaVuSans-36" x="222.65625"/>
      </g>
     </g>
    </g>
    <g id="text_16">
     <!-- Density -->
     <g transform="translate(14.798438 222.906719) rotate(-90) scale(0.1 -0.1)">
      <defs>
       <path id="DejaVuSans-44" d="M 1259 4147 
L 1259 519 
L 2022 519 
Q 2988 519 3436 956 
Q 3884 1394 3884 2338 
Q 3884 3275 3436 3711 
Q 2988 4147 2022 4147 
L 1259 4147 
z
M 628 4666 
L 1925 4666 
Q 3281 4666 3915 4102 
Q 4550 3538 4550 2338 
Q 4550 1131 3912 565 
Q 3275 0 1925 0 
L 628 0 
L 628 4666 
z
" transform="scale(0.015625)"/>
       <path id="DejaVuSans-65" d="M 3597 1894 
L 3597 1613 
L 953 1613 
Q 991 1019 1311 708 
Q 1631 397 2203 397 
Q 2534 397 2845 478 
Q 3156 559 3463 722 
L 3463 178 
Q 3153 47 2828 -22 
Q 2503 -91 2169 -91 
Q 1331 -91 842 396 
Q 353 884 353 1716 
Q 353 2575 817 3079 
Q 1281 3584 2069 3584 
Q 2775 3584 3186 3129 
Q 3597 2675 3597 1894 
z
M 3022 2063 
Q 3016 2534 2758 2815 
Q 2500 3097 2075 3097 
Q 1594 3097 1305 2825 
Q 1016 2553 972 2059 
L 3022 2063 
z
" transform="scale(0.015625)"/>
       <path id="DejaVuSans-6e" d="M 3513 2113 
L 3513 0 
L 2938 0 
L 2938 2094 
Q 2938 2591 2744 2837 
Q 2550 3084 2163 3084 
Q 1697 3084 1428 2787 
Q 1159 2491 1159 1978 
L 1159 0 
L 581 0 
L 581 3500 
L 1159 3500 
L 1159 2956 
Q 1366 3272 1645 3428 
Q 1925 3584 2291 3584 
Q 2894 3584 3203 3211 
Q 3513 2838 3513 2113 
z
" transform="scale(0.015625)"/>
       <path id="DejaVuSans-73" d="M 2834 3397 
L 2834 2853 
Q 2591 2978 2328 3040 
Q 2066 3103 1784 3103 
Q 1356 3103 1142 2972 
Q 928 2841 928 2578 
Q 928 2378 1081 2264 
Q 1234 2150 1697 2047 
L 1894 2003 
Q 2506 1872 2764 1633 
Q 3022 1394 3022 966 
Q 3022 478 2636 193 
Q 2250 -91 1575 -91 
Q 1294 -91 989 -36 
Q 684 19 347 128 
L 347 722 
Q 666 556 975 473 
Q 1284 391 1588 391 
Q 1994 391 2212 530 
Q 2431 669 2431 922 
Q 2431 1156 2273 1281 
Q 2116 1406 1581 1522 
L 1381 1569 
Q 847 1681 609 1914 
Q 372 2147 372 2553 
Q 372 3047 722 3315 
Q 1072 3584 1716 3584 
Q 2034 3584 2315 3537 
Q 2597 3491 2834 3397 
z
" transform="scale(0.015625)"/>
       <path id="DejaVuSans-69" d="M 603 3500 
L 1178 3500 
L 1178 0 
L 603 0 
L 603 3500 
z
M 603 4863 
L 1178 4863 
L 1178 4134 
L 603 4134 
L 603 4863 
z
" transform="scale(0.015625)"/>
       <path id="DejaVuSans-74" d="M 1172 4494 
L 1172 3500 
L 2356 3500 
L 2356 3053 
L 1172 3053 
L 1172 1153 
Q 1172 725 1289 603 
Q 1406 481 1766 481 
L 2356 481 
L 2356 0 
L 1766 0 
Q 1100 0 847 248 
Q 594 497 594 1153 
L 594 3053 
L 172 3053 
L 172 3500 
L 594 3500 
L 594 4494 
L 1172 4494 
z
" transform="scale(0.015625)"/>
       <path id="DejaVuSans-79" d="M 2059 -325 
Q 1816 -950 1584 -1140 
Q 1353 -1331 966 -1331 
L 506 -1331 
L 506 -850 
L 844 -850 
Q 1081 -850 1212 -737 
Q 1344 -625 1503 -206 
L 1606 56 
L 191 3500 
L 800 3500 
L 1894 763 
L 2988 3500 
L 3597 3500 
L 2059 -325 
z
" transform="scale(0.015625)"/>
      </defs>
      <use xlink:href="#DejaVuSans-44"/>
      <use xlink:href="#DejaVuSans-65" x="77.001953"/>
      <use xlink:href="#DejaVuSans-6e" x="138.525391"/>
      <use xlink:href="#DejaVuSans-73" x="201.904297"/>
      <use xlink:href="#DejaVuSans-69" x="254.003906"/>
      <use xlink:href="#DejaVuSans-74" x="281.787109"/>
      <use xlink:href="#DejaVuSans-79" x="320.996094"/>
     </g>
    </g>
   </g>
   <g id="line2d_15">
    <path d="M 114.467502 352.465324 
L 117.868846 335.052056 
L 121.27019 317.051517 
L 124.671534 301.538793 
L 128.072878 290.746011 
L 131.474223 285.340338 
L 134.875567 284.391468 
L 138.276911 285.900441 
L 141.678255 287.636324 
L 145.0796 287.931134 
L 148.480944 286.087061 
L 151.882288 282.255578 
L 155.283632 276.978055 
L 158.684976 270.79431 
L 168.889009 251.119132 
L 172.290353 244.597783 
L 175.691697 237.203068 
L 179.093042 228.285108 
L 182.494386 217.838757 
L 196.099763 171.938957 
L 202.902451 148.055063 
L 209.705139 124.125789 
L 213.106484 113.08041 
L 216.507828 103.163891 
L 219.909172 94.886329 
L 223.310516 88.809844 
L 226.71186 85.317578 
L 230.113205 84.316979 
L 233.514549 85.56839 
L 236.915893 89.662713 
L 240.317237 98.054823 
L 243.718581 111.333502 
L 250.52127 144.295898 
L 257.323958 174.037216 
L 260.725302 190.345159 
L 267.527991 227.701569 
L 270.929335 244.439666 
L 274.330679 258.058014 
L 277.732023 269.595291 
L 287.936056 303.339578 
L 291.3374 313.157248 
L 294.738745 321.233985 
L 298.140089 327.937318 
L 301.541433 333.895079 
L 304.942777 339.459458 
L 308.344121 344.586844 
L 311.745466 349.050132 
L 315.14681 352.691948 
L 318.548154 355.576106 
L 325.350842 360.543313 
L 328.752187 363.445431 
L 335.554875 369.829905 
L 338.956219 372.506593 
L 342.357563 374.531896 
L 345.758908 375.908348 
L 349.160252 376.639674 
L 352.561596 376.711565 
L 359.364284 375.735005 
L 362.765629 375.720729 
L 366.166973 376.6057 
L 369.568317 378.264803 
L 372.969661 380.152816 
L 376.371005 381.703108 
L 379.77235 382.66773 
L 383.173694 383.146876 
L 389.976382 383.544191 
L 396.779071 383.666062 
L 400.180415 383.493607 
L 410.384447 382.36285 
L 413.785792 382.357376 
L 417.187136 382.762548 
L 423.989824 384.162093 
L 427.391168 384.698122 
L 430.792513 385.01183 
L 437.595201 385.265649 
L 447.799234 385.344291 
L 458.003266 385.100205 
L 464.805955 384.76904 
L 478.411332 383.768809 
L 481.812676 383.707382 
L 485.21402 383.85088 
L 498.819397 385.170099 
L 505.622085 385.337358 
L 539.635527 385.478119 
L 570.247625 385.426731 
L 577.050313 385.23169 
L 587.254346 384.782478 
L 594.057034 384.836685 
L 611.063755 385.433101 
L 628.070477 385.478079 
L 777.729622 385.382416 
L 791.334998 385.30378 
L 791.334998 385.30378 
" clip-path="url(#pb0c644f0c5)" style="fill: none; stroke: #1f77b4; stroke-width: 1.5; stroke-linecap: square"/>
   </g>
   <g id="line2d_16">
    <path d="M 92.542159 385.429326 
L 96.163858 385.238761 
L 99.785558 384.531557 
L 103.407257 382.438646 
L 107.028957 377.478994 
L 110.650656 368.016675 
L 114.272356 353.384812 
L 117.894055 334.916913 
L 121.515754 315.814123 
L 125.137454 299.748554 
L 128.759153 289.230349 
L 132.380853 284.721321 
L 136.002552 284.732656 
L 139.624251 286.673105 
L 143.245951 288.01712 
L 146.86765 287.23393 
L 150.48935 284.03316 
L 154.111049 278.924898 
L 157.732748 272.589477 
L 172.219546 244.73948 
L 175.841245 236.845739 
L 179.462945 227.216217 
L 183.084644 215.90935 
L 197.571442 166.898724 
L 212.058239 116.384811 
L 215.679939 105.447825 
L 219.301638 96.219204 
L 222.923338 89.37485 
L 226.545037 85.428041 
L 230.166737 84.319259 
L 233.788436 85.776266 
L 237.410135 90.58102 
L 241.031835 100.460544 
L 244.653534 115.659284 
L 248.275234 133.489334 
L 251.896933 150.567155 
L 255.518632 166.174864 
L 259.140332 182.447787 
L 262.762031 201.229167 
L 266.383731 221.481877 
L 270.00543 240.201447 
L 273.627129 255.468448 
L 277.248829 268.014422 
L 288.113927 303.893189 
L 291.735626 314.191627 
L 295.357326 322.536391 
L 298.979025 329.455221 
L 302.600725 335.665566 
L 306.222424 341.45096 
L 309.844123 346.650181 
L 313.465823 350.997041 
L 317.087522 354.41497 
L 320.709222 357.156496 
L 324.330921 359.758337 
L 327.95262 362.724125 
L 335.196019 369.514133 
L 338.817719 372.409981 
L 342.439418 374.572516 
L 346.061118 375.999839 
L 349.682817 376.692964 
L 353.304516 376.647859 
L 360.547915 375.643343 
L 364.169615 375.971509 
L 367.791314 377.329009 
L 375.034713 381.159156 
L 378.656412 382.414984 
L 382.278112 383.05429 
L 389.52151 383.524443 
L 393.14321 383.654919 
L 396.764909 383.666375 
L 400.386609 383.476832 
L 411.251707 382.323685 
L 414.873406 382.444223 
L 418.495106 383.00638 
L 425.738504 384.466414 
L 429.360204 384.903745 
L 436.603603 385.242611 
L 443.847001 385.353817 
L 451.0904 385.295611 
L 461.955499 384.92902 
L 469.198897 384.456456 
L 476.442296 383.878744 
L 480.063996 383.715357 
L 483.685695 383.760503 
L 487.307394 384.033962 
L 494.550793 384.85017 
L 498.172493 385.134746 
L 505.415891 385.335539 
L 538.011186 385.478109 
L 570.606481 385.421244 
L 577.84988 385.195715 
L 588.714978 384.760396 
L 595.958377 384.910617 
L 606.823475 385.354607 
L 617.688573 385.472694 
L 715.474457 385.478125 
L 777.043347 385.391723 
L 787.908445 385.286294 
L 813.260341 385.476878 
L 813.260341 385.476878 
" clip-path="url(#pb0c644f0c5)" style="fill: none; stroke: #1f77b4; stroke-width: 1.5; stroke-linecap: square"/>
   </g>
   <g id="patch_141">
    <path d="M 56.50625 385.478125 
L 56.50625 22.318125 
" style="fill: none; stroke: #000000; stroke-width: 0.8; stroke-linejoin: miter; stroke-linecap: square"/>
   </g>
   <g id="patch_142">
    <path d="M 849.29625 385.478125 
L 849.29625 22.318125 
" style="fill: none; stroke: #000000; stroke-width: 0.8; stroke-linejoin: miter; stroke-linecap: square"/>
   </g>
   <g id="patch_143">
    <path d="M 56.50625 385.478125 
L 849.29625 385.478125 
" style="fill: none; stroke: #000000; stroke-width: 0.8; stroke-linejoin: miter; stroke-linecap: square"/>
   </g>
   <g id="patch_144">
    <path d="M 56.50625 22.318125 
L 849.29625 22.318125 
" style="fill: none; stroke: #000000; stroke-width: 0.8; stroke-linejoin: miter; stroke-linecap: square"/>
   </g>
   <g id="text_17">
    <!-- Distribution of GFR -->
    <g transform="translate(396.0325 16.318125) scale(0.12 -0.12)">
     <defs>
      <path id="DejaVuSans-72" d="M 2631 2963 
Q 2534 3019 2420 3045 
Q 2306 3072 2169 3072 
Q 1681 3072 1420 2755 
Q 1159 2438 1159 1844 
L 1159 0 
L 581 0 
L 581 3500 
L 1159 3500 
L 1159 2956 
Q 1341 3275 1631 3429 
Q 1922 3584 2338 3584 
Q 2397 3584 2469 3576 
Q 2541 3569 2628 3553 
L 2631 2963 
z
" transform="scale(0.015625)"/>
      <path id="DejaVuSans-62" d="M 3116 1747 
Q 3116 2381 2855 2742 
Q 2594 3103 2138 3103 
Q 1681 3103 1420 2742 
Q 1159 2381 1159 1747 
Q 1159 1113 1420 752 
Q 1681 391 2138 391 
Q 2594 391 2855 752 
Q 3116 1113 3116 1747 
z
M 1159 2969 
Q 1341 3281 1617 3432 
Q 1894 3584 2278 3584 
Q 2916 3584 3314 3078 
Q 3713 2572 3713 1747 
Q 3713 922 3314 415 
Q 2916 -91 2278 -91 
Q 1894 -91 1617 61 
Q 1341 213 1159 525 
L 1159 0 
L 581 0 
L 581 4863 
L 1159 4863 
L 1159 2969 
z
" transform="scale(0.015625)"/>
      <path id="DejaVuSans-75" d="M 544 1381 
L 544 3500 
L 1119 3500 
L 1119 1403 
Q 1119 906 1312 657 
Q 1506 409 1894 409 
Q 2359 409 2629 706 
Q 2900 1003 2900 1516 
L 2900 3500 
L 3475 3500 
L 3475 0 
L 2900 0 
L 2900 538 
Q 2691 219 2414 64 
Q 2138 -91 1772 -91 
Q 1169 -91 856 284 
Q 544 659 544 1381 
z
M 1991 3584 
L 1991 3584 
z
" transform="scale(0.015625)"/>
      <path id="DejaVuSans-6f" d="M 1959 3097 
Q 1497 3097 1228 2736 
Q 959 2375 959 1747 
Q 959 1119 1226 758 
Q 1494 397 1959 397 
Q 2419 397 2687 759 
Q 2956 1122 2956 1747 
Q 2956 2369 2687 2733 
Q 2419 3097 1959 3097 
z
M 1959 3584 
Q 2709 3584 3137 3096 
Q 3566 2609 3566 1747 
Q 3566 888 3137 398 
Q 2709 -91 1959 -91 
Q 1206 -91 779 398 
Q 353 888 353 1747 
Q 353 2609 779 3096 
Q 1206 3584 1959 3584 
z
" transform="scale(0.015625)"/>
      <path id="DejaVuSans-20" transform="scale(0.015625)"/>
      <path id="DejaVuSans-66" d="M 2375 4863 
L 2375 4384 
L 1825 4384 
Q 1516 4384 1395 4259 
Q 1275 4134 1275 3809 
L 1275 3500 
L 2222 3500 
L 2222 3053 
L 1275 3053 
L 1275 0 
L 697 0 
L 697 3053 
L 147 3053 
L 147 3500 
L 697 3500 
L 697 3744 
Q 697 4328 969 4595 
Q 1241 4863 1831 4863 
L 2375 4863 
z
" transform="scale(0.015625)"/>
     </defs>
     <use xlink:href="#DejaVuSans-44"/>
     <use xlink:href="#DejaVuSans-69" x="77.001953"/>
     <use xlink:href="#DejaVuSans-73" x="104.785156"/>
     <use xlink:href="#DejaVuSans-74" x="156.884766"/>
     <use xlink:href="#DejaVuSans-72" x="196.09375"/>
     <use xlink:href="#DejaVuSans-69" x="237.207031"/>
     <use xlink:href="#DejaVuSans-62" x="264.990234"/>
     <use xlink:href="#DejaVuSans-75" x="328.466797"/>
     <use xlink:href="#DejaVuSans-74" x="391.845703"/>
     <use xlink:href="#DejaVuSans-69" x="431.054688"/>
     <use xlink:href="#DejaVuSans-6f" x="458.837891"/>
     <use xlink:href="#DejaVuSans-6e" x="520.019531"/>
     <use xlink:href="#DejaVuSans-20" x="583.398438"/>
     <use xlink:href="#DejaVuSans-6f" x="615.185547"/>
     <use xlink:href="#DejaVuSans-66" x="676.367188"/>
     <use xlink:href="#DejaVuSans-20" x="711.572266"/>
     <use xlink:href="#DejaVuSans-47" x="743.359375"/>
     <use xlink:href="#DejaVuSans-46" x="820.849609"/>
     <use xlink:href="#DejaVuSans-52" x="878.369141"/>
    </g>
   </g>
  </g>
 </g>
 <defs>
  <clipPath id="pb0c644f0c5">
   <rect x="56.50625" y="22.318125" width="792.79" height="363.16"/>
  </clipPath>
 </defs>
</svg>
