<?xml version="1.0" encoding="utf-8" standalone="no"?>
<!DOCTYPE svg PUBLIC "-//W3C//DTD SVG 1.1//EN"
  "http://www.w3.org/Graphics/SVG/1.1/DTD/svg11.dtd">
<svg xmlns:xlink="http://www.w3.org/1999/xlink" width="424.58625pt" height="279.674688pt" viewBox="0 0 424.58625 279.674688" xmlns="http://www.w3.org/2000/svg" version="1.1">
 <metadata>
  <rdf:RDF xmlns:dc="http://purl.org/dc/elements/1.1/" xmlns:cc="http://creativecommons.org/ns#" xmlns:rdf="http://www.w3.org/1999/02/22-rdf-syntax-ns#">
   <cc:Work>
    <dc:type rdf:resource="http://purl.org/dc/dcmitype/StillImage"/>
    <dc:date>2024-08-05T23:56:01.527403</dc:date>
    <dc:format>image/svg+xml</dc:format>
    <dc:creator>
     <cc:Agent>
      <dc:title>Matplotlib v3.9.0, https://matplotlib.org/</dc:title>
     </cc:Agent>
    </dc:creator>
   </cc:Work>
  </rdf:RDF>
 </metadata>
 <defs>
  <style type="text/css">*{stroke-linejoin: round; stroke-linecap: butt}</style>
 </defs>
 <g id="figure_1">
  <g id="patch_1">
   <path d="M 0 279.674688 
L 424.58625 279.674688 
L 424.58625 0 
L 0 0 
z
" style="fill: #ffffff"/>
  </g>
  <g id="axes_1">
   <g id="patch_2">
    <path d="M 56.50625 242.118437 
L 417.38625 242.118437 
L 417.38625 20.798437 
L 56.50625 20.798437 
z
" style="fill: #ffffff"/>
   </g>
   <g id="patch_3">
    <path d="M 98.811348 242.118437 
L 105.549636 242.118437 
L 105.549636 110.541588 
L 98.811348 110.541588 
z
" clip-path="url(#p729f9ad2a6)" style="fill: #333333; fill-opacity: 0.6; stroke: #000000; stroke-width: 0.74235; stroke-linejoin: miter"/>
   </g>
   <g id="patch_4">
    <path d="M 105.549636 242.118437 
L 112.287924 242.118437 
L 112.287924 158.786433 
L 105.549636 158.786433 
z
" clip-path="url(#p729f9ad2a6)" style="fill: #333333; fill-opacity: 0.6; stroke: #000000; stroke-width: 0.74235; stroke-linejoin: miter"/>
   </g>
   <g id="patch_5">
    <path d="M 112.287924 242.118437 
L 119.026212 242.118437 
L 119.026212 178.909951 
L 112.287924 178.909951 
z
" clip-path="url(#p729f9ad2a6)" style="fill: #333333; fill-opacity: 0.6; stroke: #000000; stroke-width: 0.74235; stroke-linejoin: miter"/>
   </g>
   <g id="patch_6">
    <path d="M 119.026212 242.118437 
L 125.764499 242.118437 
L 125.764499 175.814025 
L 119.026212 175.814025 
z
" clip-path="url(#p729f9ad2a6)" style="fill: #333333; fill-opacity: 0.6; stroke: #000000; stroke-width: 0.74235; stroke-linejoin: miter"/>
   </g>
   <g id="patch_7">
    <path d="M 125.764499 242.118437 
L 132.502787 242.118437 
L 132.502787 171.944118 
L 125.764499 171.944118 
z
" clip-path="url(#p729f9ad2a6)" style="fill: #333333; fill-opacity: 0.6; stroke: #000000; stroke-width: 0.74235; stroke-linejoin: miter"/>
   </g>
   <g id="patch_8">
    <path d="M 132.502787 242.118437 
L 139.241075 242.118437 
L 139.241075 165.494272 
L 132.502787 165.494272 
z
" clip-path="url(#p729f9ad2a6)" style="fill: #333333; fill-opacity: 0.6; stroke: #000000; stroke-width: 0.74235; stroke-linejoin: miter"/>
   </g>
   <g id="patch_9">
    <path d="M 139.241075 242.118437 
L 145.979363 242.118437 
L 145.979363 166.526248 
L 139.241075 166.526248 
z
" clip-path="url(#p729f9ad2a6)" style="fill: #333333; fill-opacity: 0.6; stroke: #000000; stroke-width: 0.74235; stroke-linejoin: miter"/>
   </g>
   <g id="patch_10">
    <path d="M 145.979363 242.118437 
L 152.717651 242.118437 
L 152.717651 156.464489 
L 145.979363 156.464489 
z
" clip-path="url(#p729f9ad2a6)" style="fill: #333333; fill-opacity: 0.6; stroke: #000000; stroke-width: 0.74235; stroke-linejoin: miter"/>
   </g>
   <g id="patch_11">
    <path d="M 152.717651 242.118437 
L 159.455939 242.118437 
L 159.455939 156.980476 
L 152.717651 156.980476 
z
" clip-path="url(#p729f9ad2a6)" style="fill: #333333; fill-opacity: 0.6; stroke: #000000; stroke-width: 0.74235; stroke-linejoin: miter"/>
   </g>
   <g id="patch_12">
    <path d="M 159.455939 242.118437 
L 166.194227 242.118437 
L 166.194227 151.8206 
L 159.455939 151.8206 
z
" clip-path="url(#p729f9ad2a6)" style="fill: #333333; fill-opacity: 0.6; stroke: #000000; stroke-width: 0.74235; stroke-linejoin: miter"/>
   </g>
   <g id="patch_13">
    <path d="M 166.194227 242.118437 
L 172.932515 242.118437 
L 172.932515 154.142544 
L 166.194227 154.142544 
z
" clip-path="url(#p729f9ad2a6)" style="fill: #333333; fill-opacity: 0.6; stroke: #000000; stroke-width: 0.74235; stroke-linejoin: miter"/>
   </g>
   <g id="patch_14">
    <path d="M 172.932515 242.118437 
L 179.670803 242.118437 
L 179.670803 140.210878 
L 172.932515 140.210878 
z
" clip-path="url(#p729f9ad2a6)" style="fill: #333333; fill-opacity: 0.6; stroke: #000000; stroke-width: 0.74235; stroke-linejoin: miter"/>
   </g>
   <g id="patch_15">
    <path d="M 179.670803 242.118437 
L 186.409091 242.118437 
L 186.409091 132.729057 
L 179.670803 132.729057 
z
" clip-path="url(#p729f9ad2a6)" style="fill: #333333; fill-opacity: 0.6; stroke: #000000; stroke-width: 0.74235; stroke-linejoin: miter"/>
   </g>
   <g id="patch_16">
    <path d="M 186.409091 242.118437 
L 193.147379 242.118437 
L 193.147379 177.877976 
L 186.409091 177.877976 
z
" clip-path="url(#p729f9ad2a6)" style="fill: #333333; fill-opacity: 0.6; stroke: #000000; stroke-width: 0.74235; stroke-linejoin: miter"/>
   </g>
   <g id="patch_17">
    <path d="M 193.147379 242.118437 
L 199.885666 242.118437 
L 199.885666 122.15131 
L 193.147379 122.15131 
z
" clip-path="url(#p729f9ad2a6)" style="fill: #333333; fill-opacity: 0.6; stroke: #000000; stroke-width: 0.74235; stroke-linejoin: miter"/>
   </g>
   <g id="patch_18">
    <path d="M 199.885666 242.118437 
L 206.623954 242.118437 
L 206.623954 113.637514 
L 199.885666 113.637514 
z
" clip-path="url(#p729f9ad2a6)" style="fill: #333333; fill-opacity: 0.6; stroke: #000000; stroke-width: 0.74235; stroke-linejoin: miter"/>
   </g>
   <g id="patch_19">
    <path d="M 206.623954 242.118437 
L 213.362242 242.118437 
L 213.362242 98.673873 
L 206.623954 98.673873 
z
" clip-path="url(#p729f9ad2a6)" style="fill: #333333; fill-opacity: 0.6; stroke: #000000; stroke-width: 0.74235; stroke-linejoin: miter"/>
   </g>
   <g id="patch_20">
    <path d="M 213.362242 242.118437 
L 220.10053 242.118437 
L 220.10053 86.032175 
L 213.362242 86.032175 
z
" clip-path="url(#p729f9ad2a6)" style="fill: #333333; fill-opacity: 0.6; stroke: #000000; stroke-width: 0.74235; stroke-linejoin: miter"/>
   </g>
   <g id="patch_21">
    <path d="M 220.10053 242.118437 
L 226.838818 242.118437 
L 226.838818 59.200818 
L 220.10053 59.200818 
z
" clip-path="url(#p729f9ad2a6)" style="fill: #333333; fill-opacity: 0.6; stroke: #000000; stroke-width: 0.74235; stroke-linejoin: miter"/>
   </g>
   <g id="patch_22">
    <path d="M 226.838818 242.118437 
L 233.577106 242.118437 
L 233.577106 62.03875 
L 226.838818 62.03875 
z
" clip-path="url(#p729f9ad2a6)" style="fill: #333333; fill-opacity: 0.6; stroke: #000000; stroke-width: 0.74235; stroke-linejoin: miter"/>
   </g>
   <g id="patch_23">
    <path d="M 233.577106 242.118437 
L 240.315394 242.118437 
L 240.315394 52.492979 
L 233.577106 52.492979 
z
" clip-path="url(#p729f9ad2a6)" style="fill: #333333; fill-opacity: 0.6; stroke: #000000; stroke-width: 0.74235; stroke-linejoin: miter"/>
   </g>
   <g id="patch_24">
    <path d="M 240.315394 242.118437 
L 247.053682 242.118437 
L 247.053682 41.14125 
L 240.315394 41.14125 
z
" clip-path="url(#p729f9ad2a6)" style="fill: #333333; fill-opacity: 0.6; stroke: #000000; stroke-width: 0.74235; stroke-linejoin: miter"/>
   </g>
   <g id="patch_25">
    <path d="M 247.053682 242.118437 
L 253.79197 242.118437 
L 253.79197 55.588904 
L 247.053682 55.588904 
z
" clip-path="url(#p729f9ad2a6)" style="fill: #333333; fill-opacity: 0.6; stroke: #000000; stroke-width: 0.74235; stroke-linejoin: miter"/>
   </g>
   <g id="patch_26">
    <path d="M 253.79197 242.118437 
L 260.530258 242.118437 
L 260.530258 59.716806 
L 253.79197 59.716806 
z
" clip-path="url(#p729f9ad2a6)" style="fill: #333333; fill-opacity: 0.6; stroke: #000000; stroke-width: 0.74235; stroke-linejoin: miter"/>
   </g>
   <g id="patch_27">
    <path d="M 260.530258 242.118437 
L 267.268546 242.118437 
L 267.268546 31.337485 
L 260.530258 31.337485 
z
" clip-path="url(#p729f9ad2a6)" style="fill: #333333; fill-opacity: 0.6; stroke: #000000; stroke-width: 0.74235; stroke-linejoin: miter"/>
   </g>
   <g id="patch_28">
    <path d="M 267.268546 242.118437 
L 274.006834 242.118437 
L 274.006834 42.947207 
L 267.268546 42.947207 
z
" clip-path="url(#p729f9ad2a6)" style="fill: #333333; fill-opacity: 0.6; stroke: #000000; stroke-width: 0.74235; stroke-linejoin: miter"/>
   </g>
   <g id="patch_29">
    <path d="M 274.006834 242.118437 
L 280.745121 242.118437 
L 280.745121 46.043133 
L 274.006834 46.043133 
z
" clip-path="url(#p729f9ad2a6)" style="fill: #333333; fill-opacity: 0.6; stroke: #000000; stroke-width: 0.74235; stroke-linejoin: miter"/>
   </g>
   <g id="patch_30">
    <path d="M 280.745121 242.118437 
L 287.483409 242.118437 
L 287.483409 139.69489 
L 280.745121 139.69489 
z
" clip-path="url(#p729f9ad2a6)" style="fill: #333333; fill-opacity: 0.6; stroke: #000000; stroke-width: 0.74235; stroke-linejoin: miter"/>
   </g>
   <g id="patch_31">
    <path d="M 287.483409 242.118437 
L 294.221697 242.118437 
L 294.221697 70.294552 
L 287.483409 70.294552 
z
" clip-path="url(#p729f9ad2a6)" style="fill: #333333; fill-opacity: 0.6; stroke: #000000; stroke-width: 0.74235; stroke-linejoin: miter"/>
   </g>
   <g id="patch_32">
    <path d="M 294.221697 242.118437 
L 300.959985 242.118437 
L 300.959985 94.803965 
L 294.221697 94.803965 
z
" clip-path="url(#p729f9ad2a6)" style="fill: #333333; fill-opacity: 0.6; stroke: #000000; stroke-width: 0.74235; stroke-linejoin: miter"/>
   </g>
   <g id="patch_33">
    <path d="M 300.959985 242.118437 
L 307.698273 242.118437 
L 307.698273 112.089551 
L 300.959985 112.089551 
z
" clip-path="url(#p729f9ad2a6)" style="fill: #333333; fill-opacity: 0.6; stroke: #000000; stroke-width: 0.74235; stroke-linejoin: miter"/>
   </g>
   <g id="patch_34">
    <path d="M 307.698273 242.118437 
L 314.436561 242.118437 
L 314.436561 155.17452 
L 307.698273 155.17452 
z
" clip-path="url(#p729f9ad2a6)" style="fill: #333333; fill-opacity: 0.6; stroke: #000000; stroke-width: 0.74235; stroke-linejoin: miter"/>
   </g>
   <g id="patch_35">
    <path d="M 314.436561 242.118437 
L 321.174849 242.118437 
L 321.174849 179.683933 
L 314.436561 179.683933 
z
" clip-path="url(#p729f9ad2a6)" style="fill: #333333; fill-opacity: 0.6; stroke: #000000; stroke-width: 0.74235; stroke-linejoin: miter"/>
   </g>
   <g id="patch_36">
    <path d="M 321.174849 242.118437 
L 327.913137 242.118437 
L 327.913137 193.615599 
L 321.174849 193.615599 
z
" clip-path="url(#p729f9ad2a6)" style="fill: #333333; fill-opacity: 0.6; stroke: #000000; stroke-width: 0.74235; stroke-linejoin: miter"/>
   </g>
   <g id="patch_37">
    <path d="M 327.913137 242.118437 
L 334.651425 242.118437 
L 334.651425 215.029086 
L 327.913137 215.029086 
z
" clip-path="url(#p729f9ad2a6)" style="fill: #333333; fill-opacity: 0.6; stroke: #000000; stroke-width: 0.74235; stroke-linejoin: miter"/>
   </g>
   <g id="patch_38">
    <path d="M 334.651425 242.118437 
L 341.389713 242.118437 
L 341.389713 217.867018 
L 334.651425 217.867018 
z
" clip-path="url(#p729f9ad2a6)" style="fill: #333333; fill-opacity: 0.6; stroke: #000000; stroke-width: 0.74235; stroke-linejoin: miter"/>
   </g>
   <g id="patch_39">
    <path d="M 341.389713 242.118437 
L 348.128001 242.118437 
L 348.128001 233.088654 
L 341.389713 233.088654 
z
" clip-path="url(#p729f9ad2a6)" style="fill: #333333; fill-opacity: 0.6; stroke: #000000; stroke-width: 0.74235; stroke-linejoin: miter"/>
   </g>
   <g id="patch_40">
    <path d="M 348.128001 242.118437 
L 354.866288 242.118437 
L 354.866288 236.442573 
L 348.128001 236.442573 
z
" clip-path="url(#p729f9ad2a6)" style="fill: #333333; fill-opacity: 0.6; stroke: #000000; stroke-width: 0.74235; stroke-linejoin: miter"/>
   </g>
   <g id="patch_41">
    <path d="M 354.866288 242.118437 
L 361.604576 242.118437 
L 361.604576 239.538499 
L 354.866288 239.538499 
z
" clip-path="url(#p729f9ad2a6)" style="fill: #333333; fill-opacity: 0.6; stroke: #000000; stroke-width: 0.74235; stroke-linejoin: miter"/>
   </g>
   <g id="patch_42">
    <path d="M 361.604576 242.118437 
L 368.342864 242.118437 
L 368.342864 240.828468 
L 361.604576 240.828468 
z
" clip-path="url(#p729f9ad2a6)" style="fill: #333333; fill-opacity: 0.6; stroke: #000000; stroke-width: 0.74235; stroke-linejoin: miter"/>
   </g>
   <g id="patch_43">
    <path d="M 368.342864 242.118437 
L 375.081152 242.118437 
L 375.081152 241.860444 
L 368.342864 241.860444 
z
" clip-path="url(#p729f9ad2a6)" style="fill: #333333; fill-opacity: 0.6; stroke: #000000; stroke-width: 0.74235; stroke-linejoin: miter"/>
   </g>
   <g id="matplotlib.axis_1">
    <g id="xtick_1">
     <g id="line2d_1">
      <defs>
       <path id="m7f9de21242" d="M 0 0 
L 0 3.5 
" style="stroke: #000000; stroke-width: 0.8"/>
      </defs>
      <g>
       <use xlink:href="#m7f9de21242" x="105.80552" y="242.118437" style="stroke: #000000; stroke-width: 0.8"/>
      </g>
     </g>
     <g id="text_1">
      <!-- 20 -->
      <g transform="translate(99.44302 256.716875) scale(0.1 -0.1)">
       <defs>
        <path id="DejaVuSans-32" d="M 1228 531 
L 3431 531 
L 3431 0 
L 469 0 
L 469 531 
Q 828 903 1448 1529 
Q 2069 2156 2228 2338 
Q 2531 2678 2651 2914 
Q 2772 3150 2772 3378 
Q 2772 3750 2511 3984 
Q 2250 4219 1831 4219 
Q 1534 4219 1204 4116 
Q 875 4013 500 3803 
L 500 4441 
Q 881 4594 1212 4672 
Q 1544 4750 1819 4750 
Q 2544 4750 2975 4387 
Q 3406 4025 3406 3419 
Q 3406 3131 3298 2873 
Q 3191 2616 2906 2266 
Q 2828 2175 2409 1742 
Q 1991 1309 1228 531 
z
" transform="scale(0.015625)"/>
        <path id="DejaVuSans-30" d="M 2034 4250 
Q 1547 4250 1301 3770 
Q 1056 3291 1056 2328 
Q 1056 1369 1301 889 
Q 1547 409 2034 409 
Q 2525 409 2770 889 
Q 3016 1369 3016 2328 
Q 3016 3291 2770 3770 
Q 2525 4250 2034 4250 
z
M 2034 4750 
Q 2819 4750 3233 4129 
Q 3647 3509 3647 2328 
Q 3647 1150 3233 529 
Q 2819 -91 2034 -91 
Q 1250 -91 836 529 
Q 422 1150 422 2328 
Q 422 3509 836 4129 
Q 1250 4750 2034 4750 
z
" transform="scale(0.015625)"/>
       </defs>
       <use xlink:href="#DejaVuSans-32"/>
       <use xlink:href="#DejaVuSans-30" x="63.623047"/>
      </g>
     </g>
    </g>
    <g id="xtick_2">
     <g id="line2d_2">
      <g>
       <use xlink:href="#m7f9de21242" x="175.747243" y="242.118437" style="stroke: #000000; stroke-width: 0.8"/>
      </g>
     </g>
     <g id="text_2">
      <!-- 40 -->
      <g transform="translate(169.384743 256.716875) scale(0.1 -0.1)">
       <defs>
        <path id="DejaVuSans-34" d="M 2419 4116 
L 825 1625 
L 2419 1625 
L 2419 4116 
z
M 2253 4666 
L 3047 4666 
L 3047 1625 
L 3713 1625 
L 3713 1100 
L 3047 1100 
L 3047 0 
L 2419 0 
L 2419 1100 
L 313 1100 
L 313 1709 
L 2253 4666 
z
" transform="scale(0.015625)"/>
       </defs>
       <use xlink:href="#DejaVuSans-34"/>
       <use xlink:href="#DejaVuSans-30" x="63.623047"/>
      </g>
     </g>
    </g>
    <g id="xtick_3">
     <g id="line2d_3">
      <g>
       <use xlink:href="#m7f9de21242" x="245.688965" y="242.118437" style="stroke: #000000; stroke-width: 0.8"/>
      </g>
     </g>
     <g id="text_3">
      <!-- 60 -->
      <g transform="translate(239.326465 256.716875) scale(0.1 -0.1)">
       <defs>
        <path id="DejaVuSans-36" d="M 2113 2584 
Q 1688 2584 1439 2293 
Q 1191 2003 1191 1497 
Q 1191 994 1439 701 
Q 1688 409 2113 409 
Q 2538 409 2786 701 
Q 3034 994 3034 1497 
Q 3034 2003 2786 2293 
Q 2538 2584 2113 2584 
z
M 3366 4563 
L 3366 3988 
Q 3128 4100 2886 4159 
Q 2644 4219 2406 4219 
Q 1781 4219 1451 3797 
Q 1122 3375 1075 2522 
Q 1259 2794 1537 2939 
Q 1816 3084 2150 3084 
Q 2853 3084 3261 2657 
Q 3669 2231 3669 1497 
Q 3669 778 3244 343 
Q 2819 -91 2113 -91 
Q 1303 -91 875 529 
Q 447 1150 447 2328 
Q 447 3434 972 4092 
Q 1497 4750 2381 4750 
Q 2619 4750 2861 4703 
Q 3103 4656 3366 4563 
z
" transform="scale(0.015625)"/>
       </defs>
       <use xlink:href="#DejaVuSans-36"/>
       <use xlink:href="#DejaVuSans-30" x="63.623047"/>
      </g>
     </g>
    </g>
    <g id="xtick_4">
     <g id="line2d_4">
      <g>
       <use xlink:href="#m7f9de21242" x="315.630688" y="242.118437" style="stroke: #000000; stroke-width: 0.8"/>
      </g>
     </g>
     <g id="text_4">
      <!-- 80 -->
      <g transform="translate(309.268188 256.716875) scale(0.1 -0.1)">
       <defs>
        <path id="DejaVuSans-38" d="M 2034 2216 
Q 1584 2216 1326 1975 
Q 1069 1734 1069 1313 
Q 1069 891 1326 650 
Q 1584 409 2034 409 
Q 2484 409 2743 651 
Q 3003 894 3003 1313 
Q 3003 1734 2745 1975 
Q 2488 2216 2034 2216 
z
M 1403 2484 
Q 997 2584 770 2862 
Q 544 3141 544 3541 
Q 544 4100 942 4425 
Q 1341 4750 2034 4750 
Q 2731 4750 3128 4425 
Q 3525 4100 3525 3541 
Q 3525 3141 3298 2862 
Q 3072 2584 2669 2484 
Q 3125 2378 3379 2068 
Q 3634 1759 3634 1313 
Q 3634 634 3220 271 
Q 2806 -91 2034 -91 
Q 1263 -91 848 271 
Q 434 634 434 1313 
Q 434 1759 690 2068 
Q 947 2378 1403 2484 
z
M 1172 3481 
Q 1172 3119 1398 2916 
Q 1625 2713 2034 2713 
Q 2441 2713 2670 2916 
Q 2900 3119 2900 3481 
Q 2900 3844 2670 4047 
Q 2441 4250 2034 4250 
Q 1625 4250 1398 4047 
Q 1172 3844 1172 3481 
z
" transform="scale(0.015625)"/>
       </defs>
       <use xlink:href="#DejaVuSans-38"/>
       <use xlink:href="#DejaVuSans-30" x="63.623047"/>
      </g>
     </g>
    </g>
    <g id="xtick_5">
     <g id="line2d_5">
      <g>
       <use xlink:href="#m7f9de21242" x="385.572411" y="242.118437" style="stroke: #000000; stroke-width: 0.8"/>
      </g>
     </g>
     <g id="text_5">
      <!-- 100 -->
      <g transform="translate(376.028661 256.716875) scale(0.1 -0.1)">
       <defs>
        <path id="DejaVuSans-31" d="M 794 531 
L 1825 531 
L 1825 4091 
L 703 3866 
L 703 4441 
L 1819 4666 
L 2450 4666 
L 2450 531 
L 3481 531 
L 3481 0 
L 794 0 
L 794 531 
z
" transform="scale(0.015625)"/>
       </defs>
       <use xlink:href="#DejaVuSans-31"/>
       <use xlink:href="#DejaVuSans-30" x="63.623047"/>
       <use xlink:href="#DejaVuSans-30" x="127.246094"/>
      </g>
     </g>
    </g>
    <g id="text_6">
     <!-- Age -->
     <g transform="translate(227.275156 270.395) scale(0.1 -0.1)">
      <defs>
       <path id="DejaVuSans-41" d="M 2188 4044 
L 1331 1722 
L 3047 1722 
L 2188 4044 
z
M 1831 4666 
L 2547 4666 
L 4325 0 
L 3669 0 
L 3244 1197 
L 1141 1197 
L 716 0 
L 50 0 
L 1831 4666 
z
" transform="scale(0.015625)"/>
       <path id="DejaVuSans-67" d="M 2906 1791 
Q 2906 2416 2648 2759 
Q 2391 3103 1925 3103 
Q 1463 3103 1205 2759 
Q 947 2416 947 1791 
Q 947 1169 1205 825 
Q 1463 481 1925 481 
Q 2391 481 2648 825 
Q 2906 1169 2906 1791 
z
M 3481 434 
Q 3481 -459 3084 -895 
Q 2688 -1331 1869 -1331 
Q 1566 -1331 1297 -1286 
Q 1028 -1241 775 -1147 
L 775 -588 
Q 1028 -725 1275 -790 
Q 1522 -856 1778 -856 
Q 2344 -856 2625 -561 
Q 2906 -266 2906 331 
L 2906 616 
Q 2728 306 2450 153 
Q 2172 0 1784 0 
Q 1141 0 747 490 
Q 353 981 353 1791 
Q 353 2603 747 3093 
Q 1141 3584 1784 3584 
Q 2172 3584 2450 3431 
Q 2728 3278 2906 2969 
L 2906 3500 
L 3481 3500 
L 3481 434 
z
" transform="scale(0.015625)"/>
       <path id="DejaVuSans-65" d="M 3597 1894 
L 3597 1613 
L 953 1613 
Q 991 1019 1311 708 
Q 1631 397 2203 397 
Q 2534 397 2845 478 
Q 3156 559 3463 722 
L 3463 178 
Q 3153 47 2828 -22 
Q 2503 -91 2169 -91 
Q 1331 -91 842 396 
Q 353 884 353 1716 
Q 353 2575 817 3079 
Q 1281 3584 2069 3584 
Q 2775 3584 3186 3129 
Q 3597 2675 3597 1894 
z
M 3022 2063 
Q 3016 2534 2758 2815 
Q 2500 3097 2075 3097 
Q 1594 3097 1305 2825 
Q 1016 2553 972 2059 
L 3022 2063 
z
" transform="scale(0.015625)"/>
      </defs>
      <use xlink:href="#DejaVuSans-41"/>
      <use xlink:href="#DejaVuSans-67" x="68.408203"/>
      <use xlink:href="#DejaVuSans-65" x="131.884766"/>
     </g>
    </g>
   </g>
   <g id="matplotlib.axis_2">
    <g id="ytick_1">
     <g id="line2d_6">
      <defs>
       <path id="m19354b5c4b" d="M 0 0 
L -3.5 0 
" style="stroke: #000000; stroke-width: 0.8"/>
      </defs>
      <g>
       <use xlink:href="#m19354b5c4b" x="56.50625" y="242.118437" style="stroke: #000000; stroke-width: 0.8"/>
      </g>
     </g>
     <g id="text_7">
      <!-- 0.000 -->
      <g transform="translate(20.878125 245.917656) scale(0.1 -0.1)">
       <defs>
        <path id="DejaVuSans-2e" d="M 684 794 
L 1344 794 
L 1344 0 
L 684 0 
L 684 794 
z
" transform="scale(0.015625)"/>
       </defs>
       <use xlink:href="#DejaVuSans-30"/>
       <use xlink:href="#DejaVuSans-2e" x="63.623047"/>
       <use xlink:href="#DejaVuSans-30" x="95.410156"/>
       <use xlink:href="#DejaVuSans-30" x="159.033203"/>
       <use xlink:href="#DejaVuSans-30" x="222.65625"/>
      </g>
     </g>
    </g>
    <g id="ytick_2">
     <g id="line2d_7">
      <g>
       <use xlink:href="#m19354b5c4b" x="56.50625" y="200.811078" style="stroke: #000000; stroke-width: 0.8"/>
      </g>
     </g>
     <g id="text_8">
      <!-- 0.005 -->
      <g transform="translate(20.878125 204.610297) scale(0.1 -0.1)">
       <defs>
        <path id="DejaVuSans-35" d="M 691 4666 
L 3169 4666 
L 3169 4134 
L 1269 4134 
L 1269 2991 
Q 1406 3038 1543 3061 
Q 1681 3084 1819 3084 
Q 2600 3084 3056 2656 
Q 3513 2228 3513 1497 
Q 3513 744 3044 326 
Q 2575 -91 1722 -91 
Q 1428 -91 1123 -41 
Q 819 9 494 109 
L 494 744 
Q 775 591 1075 516 
Q 1375 441 1709 441 
Q 2250 441 2565 725 
Q 2881 1009 2881 1497 
Q 2881 1984 2565 2268 
Q 2250 2553 1709 2553 
Q 1456 2553 1204 2497 
Q 953 2441 691 2322 
L 691 4666 
z
" transform="scale(0.015625)"/>
       </defs>
       <use xlink:href="#DejaVuSans-30"/>
       <use xlink:href="#DejaVuSans-2e" x="63.623047"/>
       <use xlink:href="#DejaVuSans-30" x="95.410156"/>
       <use xlink:href="#DejaVuSans-30" x="159.033203"/>
       <use xlink:href="#DejaVuSans-35" x="222.65625"/>
      </g>
     </g>
    </g>
    <g id="ytick_3">
     <g id="line2d_8">
      <g>
       <use xlink:href="#m19354b5c4b" x="56.50625" y="159.503719" style="stroke: #000000; stroke-width: 0.8"/>
      </g>
     </g>
     <g id="text_9">
      <!-- 0.010 -->
      <g transform="translate(20.878125 163.302938) scale(0.1 -0.1)">
       <use xlink:href="#DejaVuSans-30"/>
       <use xlink:href="#DejaVuSans-2e" x="63.623047"/>
       <use xlink:href="#DejaVuSans-30" x="95.410156"/>
       <use xlink:href="#DejaVuSans-31" x="159.033203"/>
       <use xlink:href="#DejaVuSans-30" x="222.65625"/>
      </g>
     </g>
    </g>
    <g id="ytick_4">
     <g id="line2d_9">
      <g>
       <use xlink:href="#m19354b5c4b" x="56.50625" y="118.196359" style="stroke: #000000; stroke-width: 0.8"/>
      </g>
     </g>
     <g id="text_10">
      <!-- 0.015 -->
      <g transform="translate(20.878125 121.995578) scale(0.1 -0.1)">
       <use xlink:href="#DejaVuSans-30"/>
       <use xlink:href="#DejaVuSans-2e" x="63.623047"/>
       <use xlink:href="#DejaVuSans-30" x="95.410156"/>
       <use xlink:href="#DejaVuSans-31" x="159.033203"/>
       <use xlink:href="#DejaVuSans-35" x="222.65625"/>
      </g>
     </g>
    </g>
    <g id="ytick_5">
     <g id="line2d_10">
      <g>
       <use xlink:href="#m19354b5c4b" x="56.50625" y="76.889" style="stroke: #000000; stroke-width: 0.8"/>
      </g>
     </g>
     <g id="text_11">
      <!-- 0.020 -->
      <g transform="translate(20.878125 80.688219) scale(0.1 -0.1)">
       <use xlink:href="#DejaVuSans-30"/>
       <use xlink:href="#DejaVuSans-2e" x="63.623047"/>
       <use xlink:href="#DejaVuSans-30" x="95.410156"/>
       <use xlink:href="#DejaVuSans-32" x="159.033203"/>
       <use xlink:href="#DejaVuSans-30" x="222.65625"/>
      </g>
     </g>
    </g>
    <g id="ytick_6">
     <g id="line2d_11">
      <g>
       <use xlink:href="#m19354b5c4b" x="56.50625" y="35.581641" style="stroke: #000000; stroke-width: 0.8"/>
      </g>
     </g>
     <g id="text_12">
      <!-- 0.025 -->
      <g transform="translate(20.878125 39.38086) scale(0.1 -0.1)">
       <use xlink:href="#DejaVuSans-30"/>
       <use xlink:href="#DejaVuSans-2e" x="63.623047"/>
       <use xlink:href="#DejaVuSans-30" x="95.410156"/>
       <use xlink:href="#DejaVuSans-32" x="159.033203"/>
       <use xlink:href="#DejaVuSans-35" x="222.65625"/>
      </g>
     </g>
    </g>
    <g id="text_13">
     <!-- Density -->
     <g transform="translate(14.798438 150.467031) rotate(-90) scale(0.1 -0.1)">
      <defs>
       <path id="DejaVuSans-44" d="M 1259 4147 
L 1259 519 
L 2022 519 
Q 2988 519 3436 956 
Q 3884 1394 3884 2338 
Q 3884 3275 3436 3711 
Q 2988 4147 2022 4147 
L 1259 4147 
z
M 628 4666 
L 1925 4666 
Q 3281 4666 3915 4102 
Q 4550 3538 4550 2338 
Q 4550 1131 3912 565 
Q 3275 0 1925 0 
L 628 0 
L 628 4666 
z
" transform="scale(0.015625)"/>
       <path id="DejaVuSans-6e" d="M 3513 2113 
L 3513 0 
L 2938 0 
L 2938 2094 
Q 2938 2591 2744 2837 
Q 2550 3084 2163 3084 
Q 1697 3084 1428 2787 
Q 1159 2491 1159 1978 
L 1159 0 
L 581 0 
L 581 3500 
L 1159 3500 
L 1159 2956 
Q 1366 3272 1645 3428 
Q 1925 3584 2291 3584 
Q 2894 3584 3203 3211 
Q 3513 2838 3513 2113 
z
" transform="scale(0.015625)"/>
       <path id="DejaVuSans-73" d="M 2834 3397 
L 2834 2853 
Q 2591 2978 2328 3040 
Q 2066 3103 1784 3103 
Q 1356 3103 1142 2972 
Q 928 2841 928 2578 
Q 928 2378 1081 2264 
Q 1234 2150 1697 2047 
L 1894 2003 
Q 2506 1872 2764 1633 
Q 3022 1394 3022 966 
Q 3022 478 2636 193 
Q 2250 -91 1575 -91 
Q 1294 -91 989 -36 
Q 684 19 347 128 
L 347 722 
Q 666 556 975 473 
Q 1284 391 1588 391 
Q 1994 391 2212 530 
Q 2431 669 2431 922 
Q 2431 1156 2273 1281 
Q 2116 1406 1581 1522 
L 1381 1569 
Q 847 1681 609 1914 
Q 372 2147 372 2553 
Q 372 3047 722 3315 
Q 1072 3584 1716 3584 
Q 2034 3584 2315 3537 
Q 2597 3491 2834 3397 
z
" transform="scale(0.015625)"/>
       <path id="DejaVuSans-69" d="M 603 3500 
L 1178 3500 
L 1178 0 
L 603 0 
L 603 3500 
z
M 603 4863 
L 1178 4863 
L 1178 4134 
L 603 4134 
L 603 4863 
z
" transform="scale(0.015625)"/>
       <path id="DejaVuSans-74" d="M 1172 4494 
L 1172 3500 
L 2356 3500 
L 2356 3053 
L 1172 3053 
L 1172 1153 
Q 1172 725 1289 603 
Q 1406 481 1766 481 
L 2356 481 
L 2356 0 
L 1766 0 
Q 1100 0 847 248 
Q 594 497 594 1153 
L 594 3053 
L 172 3053 
L 172 3500 
L 594 3500 
L 594 4494 
L 1172 4494 
z
" transform="scale(0.015625)"/>
       <path id="DejaVuSans-79" d="M 2059 -325 
Q 1816 -950 1584 -1140 
Q 1353 -1331 966 -1331 
L 506 -1331 
L 506 -850 
L 844 -850 
Q 1081 -850 1212 -737 
Q 1344 -625 1503 -206 
L 1606 56 
L 191 3500 
L 800 3500 
L 1894 763 
L 2988 3500 
L 3597 3500 
L 2059 -325 
z
" transform="scale(0.015625)"/>
      </defs>
      <use xlink:href="#DejaVuSans-44"/>
      <use xlink:href="#DejaVuSans-65" x="77.001953"/>
      <use xlink:href="#DejaVuSans-6e" x="138.525391"/>
      <use xlink:href="#DejaVuSans-73" x="201.904297"/>
      <use xlink:href="#DejaVuSans-69" x="254.003906"/>
      <use xlink:href="#DejaVuSans-74" x="281.787109"/>
      <use xlink:href="#DejaVuSans-79" x="320.996094"/>
     </g>
    </g>
   </g>
   <g id="line2d_12">
    <path d="M 72.909886 241.83433 
L 74.558493 241.610474 
L 76.2071 241.240833 
L 77.855706 240.65299 
L 79.504313 239.75281 
L 81.15292 238.425785 
L 82.801526 236.543067 
L 84.450133 233.973338 
L 86.09874 230.600579 
L 87.747346 226.346317 
L 89.395953 221.193142 
L 91.04456 215.204798 
L 94.341773 201.438383 
L 97.638986 187.265325 
L 99.287593 180.911944 
L 100.9362 175.479958 
L 102.584806 171.195829 
L 104.233413 168.173238 
L 105.88202 166.404474 
L 107.530626 165.770406 
L 109.179233 166.065888 
L 110.82784 167.034606 
L 112.476446 168.406233 
L 115.77366 171.395854 
L 117.422266 172.653903 
L 119.070873 173.611268 
L 120.71948 174.229662 
L 122.368086 174.513924 
L 124.016693 174.498756 
L 125.6653 174.235555 
L 127.313906 173.781048 
L 130.61112 172.502678 
L 135.55694 170.149435 
L 140.50276 167.515719 
L 150.3944 161.943544 
L 153.691613 160.415133 
L 158.637433 158.485102 
L 161.934647 157.1826 
L 165.23186 155.603887 
L 166.880467 154.643318 
L 168.529073 153.536852 
L 170.17768 152.265453 
L 171.826287 150.816428 
L 173.474893 149.185984 
L 176.772107 145.422251 
L 180.06932 141.173081 
L 186.663747 132.525524 
L 189.96096 128.597661 
L 198.203993 119.140055 
L 201.501207 114.733531 
L 204.79842 109.679323 
L 208.095633 103.981087 
L 211.392847 97.761035 
L 219.63588 81.676643 
L 222.933093 75.963304 
L 224.5817 73.406745 
L 226.230307 71.066763 
L 227.878913 68.941007 
L 229.52752 67.019597 
L 231.176127 65.290269 
L 232.824733 63.743405 
L 234.47334 62.375596 
L 236.121947 61.190709 
L 237.770553 60.197996 
L 239.41916 59.407497 
L 241.067767 58.823681 
L 242.716373 58.438783 
L 244.36498 58.227539 
L 247.662193 58.127797 
L 250.959407 57.988286 
L 252.608013 57.721307 
L 254.25662 57.253984 
L 255.905227 56.569885 
L 257.553833 55.686727 
L 264.14826 51.496762 
L 265.796867 50.72772 
L 267.445473 50.229732 
L 269.09408 50.052703 
L 270.742687 50.226915 
L 272.391293 50.767065 
L 274.0399 51.678061 
L 275.688507 52.960738 
L 277.337113 54.615976 
L 278.98572 56.646398 
L 280.634327 59.05565 
L 282.282933 61.845979 
L 283.93154 65.015287 
L 285.580147 68.554885 
L 287.228753 72.448903 
L 288.87736 76.675676 
L 292.174573 86.030521 
L 295.471787 96.45029 
L 298.769 107.82769 
L 302.066213 120.045542 
L 311.957853 158.104066 
L 315.255067 169.537543 
L 318.55228 179.797583 
L 321.849493 188.901089 
L 325.146707 196.969182 
L 328.44392 204.112626 
L 331.741134 210.407565 
L 335.038347 215.931636 
L 338.33556 220.781387 
L 341.632774 225.040324 
L 344.929987 228.741107 
L 348.2272 231.873439 
L 351.524414 234.431772 
L 354.821627 236.45364 
L 358.11884 238.017369 
L 361.416054 239.212812 
L 364.713267 240.11642 
L 368.01048 240.785435 
L 371.307694 241.264681 
L 376.253514 241.713957 
L 382.84794 241.991863 
L 392.73958 242.105174 
L 400.982614 242.117438 
L 400.982614 242.117438 
" clip-path="url(#p729f9ad2a6)" style="fill: none; stroke: #ff0000; stroke-width: 1.5; stroke-linecap: square"/>
   </g>
   <g id="patch_44">
    <path d="M 56.50625 242.118437 
L 56.50625 20.798438 
" style="fill: none; stroke: #000000; stroke-width: 0.8; stroke-linejoin: miter; stroke-linecap: square"/>
   </g>
   <g id="patch_45">
    <path d="M 417.38625 242.118437 
L 417.38625 20.798438 
" style="fill: none; stroke: #000000; stroke-width: 0.8; stroke-linejoin: miter; stroke-linecap: square"/>
   </g>
   <g id="patch_46">
    <path d="M 56.50625 242.118437 
L 417.38625 242.118437 
" style="fill: none; stroke: #000000; stroke-width: 0.8; stroke-linejoin: miter; stroke-linecap: square"/>
   </g>
   <g id="patch_47">
    <path d="M 56.50625 20.798437 
L 417.38625 20.798437 
" style="fill: none; stroke: #000000; stroke-width: 0.8; stroke-linejoin: miter; stroke-linecap: square"/>
   </g>
   <g id="text_14">
    <!-- Distribution of Age -->
    <g transform="translate(190.10875 14.798437) scale(0.1 -0.1)">
     <defs>
      <path id="DejaVuSans-72" d="M 2631 2963 
Q 2534 3019 2420 3045 
Q 2306 3072 2169 3072 
Q 1681 3072 1420 2755 
Q 1159 2438 1159 1844 
L 1159 0 
L 581 0 
L 581 3500 
L 1159 3500 
L 1159 2956 
Q 1341 3275 1631 3429 
Q 1922 3584 2338 3584 
Q 2397 3584 2469 3576 
Q 2541 3569 2628 3553 
L 2631 2963 
z
" transform="scale(0.015625)"/>
      <path id="DejaVuSans-62" d="M 3116 1747 
Q 3116 2381 2855 2742 
Q 2594 3103 2138 3103 
Q 1681 3103 1420 2742 
Q 1159 2381 1159 1747 
Q 1159 1113 1420 752 
Q 1681 391 2138 391 
Q 2594 391 2855 752 
Q 3116 1113 3116 1747 
z
M 1159 2969 
Q 1341 3281 1617 3432 
Q 1894 3584 2278 3584 
Q 2916 3584 3314 3078 
Q 3713 2572 3713 1747 
Q 3713 922 3314 415 
Q 2916 -91 2278 -91 
Q 1894 -91 1617 61 
Q 1341 213 1159 525 
L 1159 0 
L 581 0 
L 581 4863 
L 1159 4863 
L 1159 2969 
z
" transform="scale(0.015625)"/>
      <path id="DejaVuSans-75" d="M 544 1381 
L 544 3500 
L 1119 3500 
L 1119 1403 
Q 1119 906 1312 657 
Q 1506 409 1894 409 
Q 2359 409 2629 706 
Q 2900 1003 2900 1516 
L 2900 3500 
L 3475 3500 
L 3475 0 
L 2900 0 
L 2900 538 
Q 2691 219 2414 64 
Q 2138 -91 1772 -91 
Q 1169 -91 856 284 
Q 544 659 544 1381 
z
M 1991 3584 
L 1991 3584 
z
" transform="scale(0.015625)"/>
      <path id="DejaVuSans-6f" d="M 1959 3097 
Q 1497 3097 1228 2736 
Q 959 2375 959 1747 
Q 959 1119 1226 758 
Q 1494 397 1959 397 
Q 2419 397 2687 759 
Q 2956 1122 2956 1747 
Q 2956 2369 2687 2733 
Q 2419 3097 1959 3097 
z
M 1959 3584 
Q 2709 3584 3137 3096 
Q 3566 2609 3566 1747 
Q 3566 888 3137 398 
Q 2709 -91 1959 -91 
Q 1206 -91 779 398 
Q 353 888 353 1747 
Q 353 2609 779 3096 
Q 1206 3584 1959 3584 
z
" transform="scale(0.015625)"/>
      <path id="DejaVuSans-20" transform="scale(0.015625)"/>
      <path id="DejaVuSans-66" d="M 2375 4863 
L 2375 4384 
L 1825 4384 
Q 1516 4384 1395 4259 
Q 1275 4134 1275 3809 
L 1275 3500 
L 2222 3500 
L 2222 3053 
L 1275 3053 
L 1275 0 
L 697 0 
L 697 3053 
L 147 3053 
L 147 3500 
L 697 3500 
L 697 3744 
Q 697 4328 969 4595 
Q 1241 4863 1831 4863 
L 2375 4863 
z
" transform="scale(0.015625)"/>
     </defs>
     <use xlink:href="#DejaVuSans-44"/>
     <use xlink:href="#DejaVuSans-69" x="77.001953"/>
     <use xlink:href="#DejaVuSans-73" x="104.785156"/>
     <use xlink:href="#DejaVuSans-74" x="156.884766"/>
     <use xlink:href="#DejaVuSans-72" x="196.09375"/>
     <use xlink:href="#DejaVuSans-69" x="237.207031"/>
     <use xlink:href="#DejaVuSans-62" x="264.990234"/>
     <use xlink:href="#DejaVuSans-75" x="328.466797"/>
     <use xlink:href="#DejaVuSans-74" x="391.845703"/>
     <use xlink:href="#DejaVuSans-69" x="431.054688"/>
     <use xlink:href="#DejaVuSans-6f" x="458.837891"/>
     <use xlink:href="#DejaVuSans-6e" x="520.019531"/>
     <use xlink:href="#DejaVuSans-20" x="583.398438"/>
     <use xlink:href="#DejaVuSans-6f" x="615.185547"/>
     <use xlink:href="#DejaVuSans-66" x="676.367188"/>
     <use xlink:href="#DejaVuSans-20" x="711.572266"/>
     <use xlink:href="#DejaVuSans-41" x="743.359375"/>
     <use xlink:href="#DejaVuSans-67" x="811.767578"/>
     <use xlink:href="#DejaVuSans-65" x="875.244141"/>
    </g>
   </g>
  </g>
 </g>
 <defs>
  <clipPath id="p729f9ad2a6">
   <rect x="56.50625" y="20.798437" width="360.88" height="221.32"/>
  </clipPath>
 </defs>
</svg>
