<?xml version="1.0" encoding="utf-8" standalone="no"?>
<!DOCTYPE svg PUBLIC "-//W3C//DTD SVG 1.1//EN"
  "http://www.w3.org/Graphics/SVG/1.1/DTD/svg11.dtd">
<svg xmlns:xlink="http://www.w3.org/1999/xlink" width="856.46125pt" height="423.034375pt" viewBox="0 0 856.46125 423.034375" xmlns="http://www.w3.org/2000/svg" version="1.1">
 <metadata>
  <rdf:RDF xmlns:dc="http://purl.org/dc/elements/1.1/" xmlns:cc="http://creativecommons.org/ns#" xmlns:rdf="http://www.w3.org/1999/02/22-rdf-syntax-ns#">
   <cc:Work>
    <dc:type rdf:resource="http://purl.org/dc/dcmitype/StillImage"/>
    <dc:date>2024-07-14T12:39:16.496830</dc:date>
    <dc:format>image/svg+xml</dc:format>
    <dc:creator>
     <cc:Agent>
      <dc:title>Matplotlib v3.9.0, https://matplotlib.org/</dc:title>
     </cc:Agent>
    </dc:creator>
   </cc:Work>
  </rdf:RDF>
 </metadata>
 <defs>
  <style type="text/css">*{stroke-linejoin: round; stroke-linecap: butt}</style>
 </defs>
 <g id="figure_1">
  <g id="patch_1">
   <path d="M 0 423.034375 
L 856.46125 423.034375 
L 856.46125 0 
L 0 0 
z
" style="fill: #ffffff"/>
  </g>
  <g id="axes_1">
   <g id="patch_2">
    <path d="M 43.78125 385.478125 
L 849.26125 385.478125 
L 849.26125 22.318125 
L 43.78125 22.318125 
z
" style="fill: #ffffff"/>
   </g>
   <g id="patch_3">
    <path d="M 105.400387 385.478125 
L 110.238981 385.478125 
L 110.238981 384.385339 
L 105.400387 384.385339 
z
" clip-path="url(#p3814ad658b)" style="fill: #1f77b4; fill-opacity: 0.5; stroke: #000000; stroke-width: 0.431721; stroke-linejoin: miter"/>
   </g>
   <g id="patch_4">
    <path d="M 110.238981 385.478125 
L 115.077575 385.478125 
L 115.077575 384.931732 
L 110.238981 384.931732 
z
" clip-path="url(#p3814ad658b)" style="fill: #1f77b4; fill-opacity: 0.5; stroke: #000000; stroke-width: 0.431721; stroke-linejoin: miter"/>
   </g>
   <g id="patch_5">
    <path d="M 115.077575 385.478125 
L 119.916169 385.478125 
L 119.916169 385.478125 
L 115.077575 385.478125 
z
" clip-path="url(#p3814ad658b)" style="fill: #1f77b4; fill-opacity: 0.5; stroke: #000000; stroke-width: 0.431721; stroke-linejoin: miter"/>
   </g>
   <g id="patch_6">
    <path d="M 119.916169 385.478125 
L 124.754762 385.478125 
L 124.754762 384.385339 
L 119.916169 384.385339 
z
" clip-path="url(#p3814ad658b)" style="fill: #1f77b4; fill-opacity: 0.5; stroke: #000000; stroke-width: 0.431721; stroke-linejoin: miter"/>
   </g>
   <g id="patch_7">
    <path d="M 124.754762 385.478125 
L 129.593356 385.478125 
L 129.593356 384.385339 
L 124.754762 384.385339 
z
" clip-path="url(#p3814ad658b)" style="fill: #1f77b4; fill-opacity: 0.5; stroke: #000000; stroke-width: 0.431721; stroke-linejoin: miter"/>
   </g>
   <g id="patch_8">
    <path d="M 129.593356 385.478125 
L 134.43195 385.478125 
L 134.43195 384.931732 
L 129.593356 384.931732 
z
" clip-path="url(#p3814ad658b)" style="fill: #1f77b4; fill-opacity: 0.5; stroke: #000000; stroke-width: 0.431721; stroke-linejoin: miter"/>
   </g>
   <g id="patch_9">
    <path d="M 134.43195 385.478125 
L 139.270544 385.478125 
L 139.270544 385.478125 
L 134.43195 385.478125 
z
" clip-path="url(#p3814ad658b)" style="fill: #1f77b4; fill-opacity: 0.5; stroke: #000000; stroke-width: 0.431721; stroke-linejoin: miter"/>
   </g>
   <g id="patch_10">
    <path d="M 139.270544 385.478125 
L 144.109138 385.478125 
L 144.109138 383.292554 
L 139.270544 383.292554 
z
" clip-path="url(#p3814ad658b)" style="fill: #1f77b4; fill-opacity: 0.5; stroke: #000000; stroke-width: 0.431721; stroke-linejoin: miter"/>
   </g>
   <g id="patch_11">
    <path d="M 144.109138 385.478125 
L 148.947731 385.478125 
L 148.947731 383.838946 
L 144.109138 383.838946 
z
" clip-path="url(#p3814ad658b)" style="fill: #1f77b4; fill-opacity: 0.5; stroke: #000000; stroke-width: 0.431721; stroke-linejoin: miter"/>
   </g>
   <g id="patch_12">
    <path d="M 148.947731 385.478125 
L 153.786325 385.478125 
L 153.786325 382.746161 
L 148.947731 382.746161 
z
" clip-path="url(#p3814ad658b)" style="fill: #1f77b4; fill-opacity: 0.5; stroke: #000000; stroke-width: 0.431721; stroke-linejoin: miter"/>
   </g>
   <g id="patch_13">
    <path d="M 153.786325 385.478125 
L 158.624919 385.478125 
L 158.624919 382.199768 
L 153.786325 382.199768 
z
" clip-path="url(#p3814ad658b)" style="fill: #1f77b4; fill-opacity: 0.5; stroke: #000000; stroke-width: 0.431721; stroke-linejoin: miter"/>
   </g>
   <g id="patch_14">
    <path d="M 158.624919 385.478125 
L 163.463513 385.478125 
L 163.463513 378.375018 
L 158.624919 378.375018 
z
" clip-path="url(#p3814ad658b)" style="fill: #1f77b4; fill-opacity: 0.5; stroke: #000000; stroke-width: 0.431721; stroke-linejoin: miter"/>
   </g>
   <g id="patch_15">
    <path d="M 163.463513 385.478125 
L 168.302107 385.478125 
L 168.302107 378.375018 
L 163.463513 378.375018 
z
" clip-path="url(#p3814ad658b)" style="fill: #1f77b4; fill-opacity: 0.5; stroke: #000000; stroke-width: 0.431721; stroke-linejoin: miter"/>
   </g>
   <g id="patch_16">
    <path d="M 168.302107 385.478125 
L 173.1407 385.478125 
L 173.1407 377.828625 
L 168.302107 377.828625 
z
" clip-path="url(#p3814ad658b)" style="fill: #1f77b4; fill-opacity: 0.5; stroke: #000000; stroke-width: 0.431721; stroke-linejoin: miter"/>
   </g>
   <g id="patch_17">
    <path d="M 173.1407 385.478125 
L 177.979294 385.478125 
L 177.979294 376.73584 
L 173.1407 376.73584 
z
" clip-path="url(#p3814ad658b)" style="fill: #1f77b4; fill-opacity: 0.5; stroke: #000000; stroke-width: 0.431721; stroke-linejoin: miter"/>
   </g>
   <g id="patch_18">
    <path d="M 177.979294 385.478125 
L 182.817888 385.478125 
L 182.817888 355.426519 
L 177.979294 355.426519 
z
" clip-path="url(#p3814ad658b)" style="fill: #1f77b4; fill-opacity: 0.5; stroke: #000000; stroke-width: 0.431721; stroke-linejoin: miter"/>
   </g>
   <g id="patch_19">
    <path d="M 182.817888 385.478125 
L 187.656482 385.478125 
L 187.656482 361.43684 
L 182.817888 361.43684 
z
" clip-path="url(#p3814ad658b)" style="fill: #1f77b4; fill-opacity: 0.5; stroke: #000000; stroke-width: 0.431721; stroke-linejoin: miter"/>
   </g>
   <g id="patch_20">
    <path d="M 187.656482 385.478125 
L 192.495076 385.478125 
L 192.495076 359.251269 
L 187.656482 359.251269 
z
" clip-path="url(#p3814ad658b)" style="fill: #1f77b4; fill-opacity: 0.5; stroke: #000000; stroke-width: 0.431721; stroke-linejoin: miter"/>
   </g>
   <g id="patch_21">
    <path d="M 192.495076 385.478125 
L 197.333669 385.478125 
L 197.333669 333.570805 
L 192.495076 333.570805 
z
" clip-path="url(#p3814ad658b)" style="fill: #1f77b4; fill-opacity: 0.5; stroke: #000000; stroke-width: 0.431721; stroke-linejoin: miter"/>
   </g>
   <g id="patch_22">
    <path d="M 197.333669 385.478125 
L 202.172263 385.478125 
L 202.172263 332.47802 
L 197.333669 332.47802 
z
" clip-path="url(#p3814ad658b)" style="fill: #1f77b4; fill-opacity: 0.5; stroke: #000000; stroke-width: 0.431721; stroke-linejoin: miter"/>
   </g>
   <g id="patch_23">
    <path d="M 202.172263 385.478125 
L 207.010857 385.478125 
L 207.010857 311.168699 
L 202.172263 311.168699 
z
" clip-path="url(#p3814ad658b)" style="fill: #1f77b4; fill-opacity: 0.5; stroke: #000000; stroke-width: 0.431721; stroke-linejoin: miter"/>
   </g>
   <g id="patch_24">
    <path d="M 207.010857 385.478125 
L 211.849451 385.478125 
L 211.849451 284.941843 
L 207.010857 284.941843 
z
" clip-path="url(#p3814ad658b)" style="fill: #1f77b4; fill-opacity: 0.5; stroke: #000000; stroke-width: 0.431721; stroke-linejoin: miter"/>
   </g>
   <g id="patch_25">
    <path d="M 211.849451 385.478125 
L 216.688045 385.478125 
L 216.688045 261.993344 
L 211.849451 261.993344 
z
" clip-path="url(#p3814ad658b)" style="fill: #1f77b4; fill-opacity: 0.5; stroke: #000000; stroke-width: 0.431721; stroke-linejoin: miter"/>
   </g>
   <g id="patch_26">
    <path d="M 216.688045 385.478125 
L 221.526638 385.478125 
L 221.526638 236.31288 
L 216.688045 236.31288 
z
" clip-path="url(#p3814ad658b)" style="fill: #1f77b4; fill-opacity: 0.5; stroke: #000000; stroke-width: 0.431721; stroke-linejoin: miter"/>
   </g>
   <g id="patch_27">
    <path d="M 221.526638 385.478125 
L 226.365232 385.478125 
L 226.365232 216.096345 
L 221.526638 216.096345 
z
" clip-path="url(#p3814ad658b)" style="fill: #1f77b4; fill-opacity: 0.5; stroke: #000000; stroke-width: 0.431721; stroke-linejoin: miter"/>
   </g>
   <g id="patch_28">
    <path d="M 226.365232 385.478125 
L 231.203826 385.478125 
L 231.203826 187.137525 
L 226.365232 187.137525 
z
" clip-path="url(#p3814ad658b)" style="fill: #1f77b4; fill-opacity: 0.5; stroke: #000000; stroke-width: 0.431721; stroke-linejoin: miter"/>
   </g>
   <g id="patch_29">
    <path d="M 231.203826 385.478125 
L 236.04242 385.478125 
L 236.04242 183.312775 
L 231.203826 183.312775 
z
" clip-path="url(#p3814ad658b)" style="fill: #1f77b4; fill-opacity: 0.5; stroke: #000000; stroke-width: 0.431721; stroke-linejoin: miter"/>
   </g>
   <g id="patch_30">
    <path d="M 236.04242 385.478125 
L 240.881014 385.478125 
L 240.881014 173.477704 
L 236.04242 173.477704 
z
" clip-path="url(#p3814ad658b)" style="fill: #1f77b4; fill-opacity: 0.5; stroke: #000000; stroke-width: 0.431721; stroke-linejoin: miter"/>
   </g>
   <g id="patch_31">
    <path d="M 240.881014 385.478125 
L 245.719607 385.478125 
L 245.719607 189.323096 
L 240.881014 189.323096 
z
" clip-path="url(#p3814ad658b)" style="fill: #1f77b4; fill-opacity: 0.5; stroke: #000000; stroke-width: 0.431721; stroke-linejoin: miter"/>
   </g>
   <g id="patch_32">
    <path d="M 245.719607 385.478125 
L 250.558201 385.478125 
L 250.558201 188.776703 
L 245.719607 188.776703 
z
" clip-path="url(#p3814ad658b)" style="fill: #1f77b4; fill-opacity: 0.5; stroke: #000000; stroke-width: 0.431721; stroke-linejoin: miter"/>
   </g>
   <g id="patch_33">
    <path d="M 250.558201 385.478125 
L 255.396795 385.478125 
L 255.396795 194.240632 
L 250.558201 194.240632 
z
" clip-path="url(#p3814ad658b)" style="fill: #1f77b4; fill-opacity: 0.5; stroke: #000000; stroke-width: 0.431721; stroke-linejoin: miter"/>
   </g>
   <g id="patch_34">
    <path d="M 255.396795 385.478125 
L 260.235389 385.478125 
L 260.235389 39.611458 
L 255.396795 39.611458 
z
" clip-path="url(#p3814ad658b)" style="fill: #1f77b4; fill-opacity: 0.5; stroke: #000000; stroke-width: 0.431721; stroke-linejoin: miter"/>
   </g>
   <g id="patch_35">
    <path d="M 260.235389 385.478125 
L 265.073983 385.478125 
L 265.073983 242.869594 
L 260.235389 242.869594 
z
" clip-path="url(#p3814ad658b)" style="fill: #1f77b4; fill-opacity: 0.5; stroke: #000000; stroke-width: 0.431721; stroke-linejoin: miter"/>
   </g>
   <g id="patch_36">
    <path d="M 265.073983 385.478125 
L 269.912576 385.478125 
L 269.912576 264.178915 
L 265.073983 264.178915 
z
" clip-path="url(#p3814ad658b)" style="fill: #1f77b4; fill-opacity: 0.5; stroke: #000000; stroke-width: 0.431721; stroke-linejoin: miter"/>
   </g>
   <g id="patch_37">
    <path d="M 269.912576 385.478125 
L 274.75117 385.478125 
L 274.75117 278.385129 
L 269.912576 278.385129 
z
" clip-path="url(#p3814ad658b)" style="fill: #1f77b4; fill-opacity: 0.5; stroke: #000000; stroke-width: 0.431721; stroke-linejoin: miter"/>
   </g>
   <g id="patch_38">
    <path d="M 274.75117 385.478125 
L 279.589764 385.478125 
L 279.589764 278.385129 
L 274.75117 278.385129 
z
" clip-path="url(#p3814ad658b)" style="fill: #1f77b4; fill-opacity: 0.5; stroke: #000000; stroke-width: 0.431721; stroke-linejoin: miter"/>
   </g>
   <g id="patch_39">
    <path d="M 279.589764 385.478125 
L 284.428358 385.478125 
L 284.428358 300.787235 
L 279.589764 300.787235 
z
" clip-path="url(#p3814ad658b)" style="fill: #1f77b4; fill-opacity: 0.5; stroke: #000000; stroke-width: 0.431721; stroke-linejoin: miter"/>
   </g>
   <g id="patch_40">
    <path d="M 284.428358 385.478125 
L 289.266952 385.478125 
L 289.266952 306.797556 
L 284.428358 306.797556 
z
" clip-path="url(#p3814ad658b)" style="fill: #1f77b4; fill-opacity: 0.5; stroke: #000000; stroke-width: 0.431721; stroke-linejoin: miter"/>
   </g>
   <g id="patch_41">
    <path d="M 289.266952 385.478125 
L 294.105545 385.478125 
L 294.105545 327.560484 
L 289.266952 327.560484 
z
" clip-path="url(#p3814ad658b)" style="fill: #1f77b4; fill-opacity: 0.5; stroke: #000000; stroke-width: 0.431721; stroke-linejoin: miter"/>
   </g>
   <g id="patch_42">
    <path d="M 294.105545 385.478125 
L 298.944139 385.478125 
L 298.944139 333.570805 
L 294.105545 333.570805 
z
" clip-path="url(#p3814ad658b)" style="fill: #1f77b4; fill-opacity: 0.5; stroke: #000000; stroke-width: 0.431721; stroke-linejoin: miter"/>
   </g>
   <g id="patch_43">
    <path d="M 298.944139 385.478125 
L 303.782733 385.478125 
L 303.782733 340.127519 
L 298.944139 340.127519 
z
" clip-path="url(#p3814ad658b)" style="fill: #1f77b4; fill-opacity: 0.5; stroke: #000000; stroke-width: 0.431721; stroke-linejoin: miter"/>
   </g>
   <g id="patch_44">
    <path d="M 303.782733 385.478125 
L 308.621327 385.478125 
L 308.621327 342.313091 
L 303.782733 342.313091 
z
" clip-path="url(#p3814ad658b)" style="fill: #1f77b4; fill-opacity: 0.5; stroke: #000000; stroke-width: 0.431721; stroke-linejoin: miter"/>
   </g>
   <g id="patch_45">
    <path d="M 308.621327 385.478125 
L 313.459921 385.478125 
L 313.459921 351.601769 
L 308.621327 351.601769 
z
" clip-path="url(#p3814ad658b)" style="fill: #1f77b4; fill-opacity: 0.5; stroke: #000000; stroke-width: 0.431721; stroke-linejoin: miter"/>
   </g>
   <g id="patch_46">
    <path d="M 313.459921 385.478125 
L 318.298514 385.478125 
L 318.298514 359.251269 
L 313.459921 359.251269 
z
" clip-path="url(#p3814ad658b)" style="fill: #1f77b4; fill-opacity: 0.5; stroke: #000000; stroke-width: 0.431721; stroke-linejoin: miter"/>
   </g>
   <g id="patch_47">
    <path d="M 318.298514 385.478125 
L 323.137108 385.478125 
L 323.137108 354.880126 
L 318.298514 354.880126 
z
" clip-path="url(#p3814ad658b)" style="fill: #1f77b4; fill-opacity: 0.5; stroke: #000000; stroke-width: 0.431721; stroke-linejoin: miter"/>
   </g>
   <g id="patch_48">
    <path d="M 323.137108 385.478125 
L 327.975702 385.478125 
L 327.975702 361.983233 
L 323.137108 361.983233 
z
" clip-path="url(#p3814ad658b)" style="fill: #1f77b4; fill-opacity: 0.5; stroke: #000000; stroke-width: 0.431721; stroke-linejoin: miter"/>
   </g>
   <g id="patch_49">
    <path d="M 327.975702 385.478125 
L 332.814296 385.478125 
L 332.814296 363.622411 
L 327.975702 363.622411 
z
" clip-path="url(#p3814ad658b)" style="fill: #1f77b4; fill-opacity: 0.5; stroke: #000000; stroke-width: 0.431721; stroke-linejoin: miter"/>
   </g>
   <g id="patch_50">
    <path d="M 332.814296 385.478125 
L 337.65289 385.478125 
L 337.65289 343.952269 
L 332.814296 343.952269 
z
" clip-path="url(#p3814ad658b)" style="fill: #1f77b4; fill-opacity: 0.5; stroke: #000000; stroke-width: 0.431721; stroke-linejoin: miter"/>
   </g>
   <g id="patch_51">
    <path d="M 337.65289 385.478125 
L 342.491483 385.478125 
L 342.491483 364.168804 
L 337.65289 364.168804 
z
" clip-path="url(#p3814ad658b)" style="fill: #1f77b4; fill-opacity: 0.5; stroke: #000000; stroke-width: 0.431721; stroke-linejoin: miter"/>
   </g>
   <g id="patch_52">
    <path d="M 342.491483 385.478125 
L 347.330077 385.478125 
L 347.330077 372.364697 
L 342.491483 372.364697 
z
" clip-path="url(#p3814ad658b)" style="fill: #1f77b4; fill-opacity: 0.5; stroke: #000000; stroke-width: 0.431721; stroke-linejoin: miter"/>
   </g>
   <g id="patch_53">
    <path d="M 347.330077 385.478125 
L 352.168671 385.478125 
L 352.168671 372.91109 
L 347.330077 372.91109 
z
" clip-path="url(#p3814ad658b)" style="fill: #1f77b4; fill-opacity: 0.5; stroke: #000000; stroke-width: 0.431721; stroke-linejoin: miter"/>
   </g>
   <g id="patch_54">
    <path d="M 352.168671 385.478125 
L 357.007265 385.478125 
L 357.007265 375.643054 
L 352.168671 375.643054 
z
" clip-path="url(#p3814ad658b)" style="fill: #1f77b4; fill-opacity: 0.5; stroke: #000000; stroke-width: 0.431721; stroke-linejoin: miter"/>
   </g>
   <g id="patch_55">
    <path d="M 357.007265 385.478125 
L 361.845859 385.478125 
L 361.845859 372.91109 
L 357.007265 372.91109 
z
" clip-path="url(#p3814ad658b)" style="fill: #1f77b4; fill-opacity: 0.5; stroke: #000000; stroke-width: 0.431721; stroke-linejoin: miter"/>
   </g>
   <g id="patch_56">
    <path d="M 361.845859 385.478125 
L 366.684452 385.478125 
L 366.684452 378.375018 
L 361.845859 378.375018 
z
" clip-path="url(#p3814ad658b)" style="fill: #1f77b4; fill-opacity: 0.5; stroke: #000000; stroke-width: 0.431721; stroke-linejoin: miter"/>
   </g>
   <g id="patch_57">
    <path d="M 366.684452 385.478125 
L 371.523046 385.478125 
L 371.523046 374.550268 
L 366.684452 374.550268 
z
" clip-path="url(#p3814ad658b)" style="fill: #1f77b4; fill-opacity: 0.5; stroke: #000000; stroke-width: 0.431721; stroke-linejoin: miter"/>
   </g>
   <g id="patch_58">
    <path d="M 371.523046 385.478125 
L 376.36164 385.478125 
L 376.36164 378.375018 
L 371.523046 378.375018 
z
" clip-path="url(#p3814ad658b)" style="fill: #1f77b4; fill-opacity: 0.5; stroke: #000000; stroke-width: 0.431721; stroke-linejoin: miter"/>
   </g>
   <g id="patch_59">
    <path d="M 376.36164 385.478125 
L 381.200234 385.478125 
L 381.200234 380.014197 
L 376.36164 380.014197 
z
" clip-path="url(#p3814ad658b)" style="fill: #1f77b4; fill-opacity: 0.5; stroke: #000000; stroke-width: 0.431721; stroke-linejoin: miter"/>
   </g>
   <g id="patch_60">
    <path d="M 381.200234 385.478125 
L 386.038828 385.478125 
L 386.038828 381.106982 
L 381.200234 381.106982 
z
" clip-path="url(#p3814ad658b)" style="fill: #1f77b4; fill-opacity: 0.5; stroke: #000000; stroke-width: 0.431721; stroke-linejoin: miter"/>
   </g>
   <g id="patch_61">
    <path d="M 386.038828 385.478125 
L 390.877421 385.478125 
L 390.877421 380.560589 
L 386.038828 380.560589 
z
" clip-path="url(#p3814ad658b)" style="fill: #1f77b4; fill-opacity: 0.5; stroke: #000000; stroke-width: 0.431721; stroke-linejoin: miter"/>
   </g>
   <g id="patch_62">
    <path d="M 390.877421 385.478125 
L 395.716015 385.478125 
L 395.716015 377.828625 
L 390.877421 377.828625 
z
" clip-path="url(#p3814ad658b)" style="fill: #1f77b4; fill-opacity: 0.5; stroke: #000000; stroke-width: 0.431721; stroke-linejoin: miter"/>
   </g>
   <g id="patch_63">
    <path d="M 395.716015 385.478125 
L 400.554609 385.478125 
L 400.554609 378.921411 
L 395.716015 378.921411 
z
" clip-path="url(#p3814ad658b)" style="fill: #1f77b4; fill-opacity: 0.5; stroke: #000000; stroke-width: 0.431721; stroke-linejoin: miter"/>
   </g>
   <g id="patch_64">
    <path d="M 400.554609 385.478125 
L 405.393203 385.478125 
L 405.393203 379.467804 
L 400.554609 379.467804 
z
" clip-path="url(#p3814ad658b)" style="fill: #1f77b4; fill-opacity: 0.5; stroke: #000000; stroke-width: 0.431721; stroke-linejoin: miter"/>
   </g>
   <g id="patch_65">
    <path d="M 405.393203 385.478125 
L 410.231797 385.478125 
L 410.231797 380.560589 
L 405.393203 380.560589 
z
" clip-path="url(#p3814ad658b)" style="fill: #1f77b4; fill-opacity: 0.5; stroke: #000000; stroke-width: 0.431721; stroke-linejoin: miter"/>
   </g>
   <g id="patch_66">
    <path d="M 410.231797 385.478125 
L 415.07039 385.478125 
L 415.07039 381.653375 
L 410.231797 381.653375 
z
" clip-path="url(#p3814ad658b)" style="fill: #1f77b4; fill-opacity: 0.5; stroke: #000000; stroke-width: 0.431721; stroke-linejoin: miter"/>
   </g>
   <g id="patch_67">
    <path d="M 415.07039 385.478125 
L 419.908984 385.478125 
L 419.908984 382.199768 
L 415.07039 382.199768 
z
" clip-path="url(#p3814ad658b)" style="fill: #1f77b4; fill-opacity: 0.5; stroke: #000000; stroke-width: 0.431721; stroke-linejoin: miter"/>
   </g>
   <g id="patch_68">
    <path d="M 419.908984 385.478125 
L 424.747578 385.478125 
L 424.747578 384.385339 
L 419.908984 384.385339 
z
" clip-path="url(#p3814ad658b)" style="fill: #1f77b4; fill-opacity: 0.5; stroke: #000000; stroke-width: 0.431721; stroke-linejoin: miter"/>
   </g>
   <g id="patch_69">
    <path d="M 424.747578 385.478125 
L 429.586172 385.478125 
L 429.586172 381.653375 
L 424.747578 381.653375 
z
" clip-path="url(#p3814ad658b)" style="fill: #1f77b4; fill-opacity: 0.5; stroke: #000000; stroke-width: 0.431721; stroke-linejoin: miter"/>
   </g>
   <g id="patch_70">
    <path d="M 429.586172 385.478125 
L 434.424766 385.478125 
L 434.424766 381.653375 
L 429.586172 381.653375 
z
" clip-path="url(#p3814ad658b)" style="fill: #1f77b4; fill-opacity: 0.5; stroke: #000000; stroke-width: 0.431721; stroke-linejoin: miter"/>
   </g>
   <g id="patch_71">
    <path d="M 434.424766 385.478125 
L 439.263359 385.478125 
L 439.263359 382.199768 
L 434.424766 382.199768 
z
" clip-path="url(#p3814ad658b)" style="fill: #1f77b4; fill-opacity: 0.5; stroke: #000000; stroke-width: 0.431721; stroke-linejoin: miter"/>
   </g>
   <g id="patch_72">
    <path d="M 439.263359 385.478125 
L 444.101953 385.478125 
L 444.101953 383.292554 
L 439.263359 383.292554 
z
" clip-path="url(#p3814ad658b)" style="fill: #1f77b4; fill-opacity: 0.5; stroke: #000000; stroke-width: 0.431721; stroke-linejoin: miter"/>
   </g>
   <g id="patch_73">
    <path d="M 444.101953 385.478125 
L 448.940547 385.478125 
L 448.940547 383.292554 
L 444.101953 383.292554 
z
" clip-path="url(#p3814ad658b)" style="fill: #1f77b4; fill-opacity: 0.5; stroke: #000000; stroke-width: 0.431721; stroke-linejoin: miter"/>
   </g>
   <g id="patch_74">
    <path d="M 448.940547 385.478125 
L 453.779141 385.478125 
L 453.779141 384.385339 
L 448.940547 384.385339 
z
" clip-path="url(#p3814ad658b)" style="fill: #1f77b4; fill-opacity: 0.5; stroke: #000000; stroke-width: 0.431721; stroke-linejoin: miter"/>
   </g>
   <g id="patch_75">
    <path d="M 453.779141 385.478125 
L 458.617734 385.478125 
L 458.617734 384.385339 
L 453.779141 384.385339 
z
" clip-path="url(#p3814ad658b)" style="fill: #1f77b4; fill-opacity: 0.5; stroke: #000000; stroke-width: 0.431721; stroke-linejoin: miter"/>
   </g>
   <g id="patch_76">
    <path d="M 458.617734 385.478125 
L 463.456328 385.478125 
L 463.456328 382.746161 
L 458.617734 382.746161 
z
" clip-path="url(#p3814ad658b)" style="fill: #1f77b4; fill-opacity: 0.5; stroke: #000000; stroke-width: 0.431721; stroke-linejoin: miter"/>
   </g>
   <g id="patch_77">
    <path d="M 463.456328 385.478125 
L 468.294922 385.478125 
L 468.294922 384.931732 
L 463.456328 384.931732 
z
" clip-path="url(#p3814ad658b)" style="fill: #1f77b4; fill-opacity: 0.5; stroke: #000000; stroke-width: 0.431721; stroke-linejoin: miter"/>
   </g>
   <g id="patch_78">
    <path d="M 468.294922 385.478125 
L 473.133516 385.478125 
L 473.133516 384.931732 
L 468.294922 384.931732 
z
" clip-path="url(#p3814ad658b)" style="fill: #1f77b4; fill-opacity: 0.5; stroke: #000000; stroke-width: 0.431721; stroke-linejoin: miter"/>
   </g>
   <g id="patch_79">
    <path d="M 473.133516 385.478125 
L 477.97211 385.478125 
L 477.97211 384.385339 
L 473.133516 384.385339 
z
" clip-path="url(#p3814ad658b)" style="fill: #1f77b4; fill-opacity: 0.5; stroke: #000000; stroke-width: 0.431721; stroke-linejoin: miter"/>
   </g>
   <g id="patch_80">
    <path d="M 477.97211 385.478125 
L 482.810703 385.478125 
L 482.810703 385.478125 
L 477.97211 385.478125 
z
" clip-path="url(#p3814ad658b)" style="fill: #1f77b4; fill-opacity: 0.5; stroke: #000000; stroke-width: 0.431721; stroke-linejoin: miter"/>
   </g>
   <g id="patch_81">
    <path d="M 482.810703 385.478125 
L 487.649297 385.478125 
L 487.649297 384.931732 
L 482.810703 384.931732 
z
" clip-path="url(#p3814ad658b)" style="fill: #1f77b4; fill-opacity: 0.5; stroke: #000000; stroke-width: 0.431721; stroke-linejoin: miter"/>
   </g>
   <g id="patch_82">
    <path d="M 487.649297 385.478125 
L 492.487891 385.478125 
L 492.487891 383.838946 
L 487.649297 383.838946 
z
" clip-path="url(#p3814ad658b)" style="fill: #1f77b4; fill-opacity: 0.5; stroke: #000000; stroke-width: 0.431721; stroke-linejoin: miter"/>
   </g>
   <g id="patch_83">
    <path d="M 492.487891 385.478125 
L 497.326485 385.478125 
L 497.326485 384.385339 
L 492.487891 384.385339 
z
" clip-path="url(#p3814ad658b)" style="fill: #1f77b4; fill-opacity: 0.5; stroke: #000000; stroke-width: 0.431721; stroke-linejoin: miter"/>
   </g>
   <g id="patch_84">
    <path d="M 497.326485 385.478125 
L 502.165079 385.478125 
L 502.165079 384.385339 
L 497.326485 384.385339 
z
" clip-path="url(#p3814ad658b)" style="fill: #1f77b4; fill-opacity: 0.5; stroke: #000000; stroke-width: 0.431721; stroke-linejoin: miter"/>
   </g>
   <g id="patch_85">
    <path d="M 502.165079 385.478125 
L 507.003672 385.478125 
L 507.003672 385.478125 
L 502.165079 385.478125 
z
" clip-path="url(#p3814ad658b)" style="fill: #1f77b4; fill-opacity: 0.5; stroke: #000000; stroke-width: 0.431721; stroke-linejoin: miter"/>
   </g>
   <g id="patch_86">
    <path d="M 507.003672 385.478125 
L 511.842266 385.478125 
L 511.842266 383.838946 
L 507.003672 383.838946 
z
" clip-path="url(#p3814ad658b)" style="fill: #1f77b4; fill-opacity: 0.5; stroke: #000000; stroke-width: 0.431721; stroke-linejoin: miter"/>
   </g>
   <g id="patch_87">
    <path d="M 511.842266 385.478125 
L 516.68086 385.478125 
L 516.68086 384.931732 
L 511.842266 384.931732 
z
" clip-path="url(#p3814ad658b)" style="fill: #1f77b4; fill-opacity: 0.5; stroke: #000000; stroke-width: 0.431721; stroke-linejoin: miter"/>
   </g>
   <g id="patch_88">
    <path d="M 516.68086 385.478125 
L 521.519454 385.478125 
L 521.519454 384.385339 
L 516.68086 384.385339 
z
" clip-path="url(#p3814ad658b)" style="fill: #1f77b4; fill-opacity: 0.5; stroke: #000000; stroke-width: 0.431721; stroke-linejoin: miter"/>
   </g>
   <g id="patch_89">
    <path d="M 521.519454 385.478125 
L 526.358048 385.478125 
L 526.358048 385.478125 
L 521.519454 385.478125 
z
" clip-path="url(#p3814ad658b)" style="fill: #1f77b4; fill-opacity: 0.5; stroke: #000000; stroke-width: 0.431721; stroke-linejoin: miter"/>
   </g>
   <g id="patch_90">
    <path d="M 526.358048 385.478125 
L 531.196641 385.478125 
L 531.196641 384.931732 
L 526.358048 384.931732 
z
" clip-path="url(#p3814ad658b)" style="fill: #1f77b4; fill-opacity: 0.5; stroke: #000000; stroke-width: 0.431721; stroke-linejoin: miter"/>
   </g>
   <g id="patch_91">
    <path d="M 531.196641 385.478125 
L 536.035235 385.478125 
L 536.035235 384.385339 
L 531.196641 384.385339 
z
" clip-path="url(#p3814ad658b)" style="fill: #1f77b4; fill-opacity: 0.5; stroke: #000000; stroke-width: 0.431721; stroke-linejoin: miter"/>
   </g>
   <g id="patch_92">
    <path d="M 536.035235 385.478125 
L 540.873829 385.478125 
L 540.873829 385.478125 
L 536.035235 385.478125 
z
" clip-path="url(#p3814ad658b)" style="fill: #1f77b4; fill-opacity: 0.5; stroke: #000000; stroke-width: 0.431721; stroke-linejoin: miter"/>
   </g>
   <g id="patch_93">
    <path d="M 540.873829 385.478125 
L 545.712423 385.478125 
L 545.712423 384.385339 
L 540.873829 384.385339 
z
" clip-path="url(#p3814ad658b)" style="fill: #1f77b4; fill-opacity: 0.5; stroke: #000000; stroke-width: 0.431721; stroke-linejoin: miter"/>
   </g>
   <g id="patch_94">
    <path d="M 545.712423 385.478125 
L 550.551017 385.478125 
L 550.551017 385.478125 
L 545.712423 385.478125 
z
" clip-path="url(#p3814ad658b)" style="fill: #1f77b4; fill-opacity: 0.5; stroke: #000000; stroke-width: 0.431721; stroke-linejoin: miter"/>
   </g>
   <g id="patch_95">
    <path d="M 550.551017 385.478125 
L 555.38961 385.478125 
L 555.38961 385.478125 
L 550.551017 385.478125 
z
" clip-path="url(#p3814ad658b)" style="fill: #1f77b4; fill-opacity: 0.5; stroke: #000000; stroke-width: 0.431721; stroke-linejoin: miter"/>
   </g>
   <g id="patch_96">
    <path d="M 555.38961 385.478125 
L 560.228204 385.478125 
L 560.228204 384.931732 
L 555.38961 384.931732 
z
" clip-path="url(#p3814ad658b)" style="fill: #1f77b4; fill-opacity: 0.5; stroke: #000000; stroke-width: 0.431721; stroke-linejoin: miter"/>
   </g>
   <g id="patch_97">
    <path d="M 560.228204 385.478125 
L 565.066798 385.478125 
L 565.066798 385.478125 
L 560.228204 385.478125 
z
" clip-path="url(#p3814ad658b)" style="fill: #1f77b4; fill-opacity: 0.5; stroke: #000000; stroke-width: 0.431721; stroke-linejoin: miter"/>
   </g>
   <g id="patch_98">
    <path d="M 565.066798 385.478125 
L 569.905392 385.478125 
L 569.905392 384.931732 
L 565.066798 384.931732 
z
" clip-path="url(#p3814ad658b)" style="fill: #1f77b4; fill-opacity: 0.5; stroke: #000000; stroke-width: 0.431721; stroke-linejoin: miter"/>
   </g>
   <g id="patch_99">
    <path d="M 569.905392 385.478125 
L 574.743986 385.478125 
L 574.743986 385.478125 
L 569.905392 385.478125 
z
" clip-path="url(#p3814ad658b)" style="fill: #1f77b4; fill-opacity: 0.5; stroke: #000000; stroke-width: 0.431721; stroke-linejoin: miter"/>
   </g>
   <g id="patch_100">
    <path d="M 574.743986 385.478125 
L 579.582579 385.478125 
L 579.582579 385.478125 
L 574.743986 385.478125 
z
" clip-path="url(#p3814ad658b)" style="fill: #1f77b4; fill-opacity: 0.5; stroke: #000000; stroke-width: 0.431721; stroke-linejoin: miter"/>
   </g>
   <g id="patch_101">
    <path d="M 579.582579 385.478125 
L 584.421173 385.478125 
L 584.421173 384.931732 
L 579.582579 384.931732 
z
" clip-path="url(#p3814ad658b)" style="fill: #1f77b4; fill-opacity: 0.5; stroke: #000000; stroke-width: 0.431721; stroke-linejoin: miter"/>
   </g>
   <g id="patch_102">
    <path d="M 584.421173 385.478125 
L 589.259767 385.478125 
L 589.259767 384.931732 
L 584.421173 384.931732 
z
" clip-path="url(#p3814ad658b)" style="fill: #1f77b4; fill-opacity: 0.5; stroke: #000000; stroke-width: 0.431721; stroke-linejoin: miter"/>
   </g>
   <g id="patch_103">
    <path d="M 589.259767 385.478125 
L 594.098361 385.478125 
L 594.098361 385.478125 
L 589.259767 385.478125 
z
" clip-path="url(#p3814ad658b)" style="fill: #1f77b4; fill-opacity: 0.5; stroke: #000000; stroke-width: 0.431721; stroke-linejoin: miter"/>
   </g>
   <g id="patch_104">
    <path d="M 594.098361 385.478125 
L 598.936955 385.478125 
L 598.936955 384.931732 
L 594.098361 384.931732 
z
" clip-path="url(#p3814ad658b)" style="fill: #1f77b4; fill-opacity: 0.5; stroke: #000000; stroke-width: 0.431721; stroke-linejoin: miter"/>
   </g>
   <g id="patch_105">
    <path d="M 598.936955 385.478125 
L 603.775548 385.478125 
L 603.775548 385.478125 
L 598.936955 385.478125 
z
" clip-path="url(#p3814ad658b)" style="fill: #1f77b4; fill-opacity: 0.5; stroke: #000000; stroke-width: 0.431721; stroke-linejoin: miter"/>
   </g>
   <g id="patch_106">
    <path d="M 603.775548 385.478125 
L 608.614142 385.478125 
L 608.614142 385.478125 
L 603.775548 385.478125 
z
" clip-path="url(#p3814ad658b)" style="fill: #1f77b4; fill-opacity: 0.5; stroke: #000000; stroke-width: 0.431721; stroke-linejoin: miter"/>
   </g>
   <g id="patch_107">
    <path d="M 608.614142 385.478125 
L 613.452736 385.478125 
L 613.452736 384.931732 
L 608.614142 384.931732 
z
" clip-path="url(#p3814ad658b)" style="fill: #1f77b4; fill-opacity: 0.5; stroke: #000000; stroke-width: 0.431721; stroke-linejoin: miter"/>
   </g>
   <g id="patch_108">
    <path d="M 613.452736 385.478125 
L 618.29133 385.478125 
L 618.29133 384.931732 
L 613.452736 384.931732 
z
" clip-path="url(#p3814ad658b)" style="fill: #1f77b4; fill-opacity: 0.5; stroke: #000000; stroke-width: 0.431721; stroke-linejoin: miter"/>
   </g>
   <g id="patch_109">
    <path d="M 618.29133 385.478125 
L 623.129924 385.478125 
L 623.129924 385.478125 
L 618.29133 385.478125 
z
" clip-path="url(#p3814ad658b)" style="fill: #1f77b4; fill-opacity: 0.5; stroke: #000000; stroke-width: 0.431721; stroke-linejoin: miter"/>
   </g>
   <g id="patch_110">
    <path d="M 623.129924 385.478125 
L 627.968517 385.478125 
L 627.968517 385.478125 
L 623.129924 385.478125 
z
" clip-path="url(#p3814ad658b)" style="fill: #1f77b4; fill-opacity: 0.5; stroke: #000000; stroke-width: 0.431721; stroke-linejoin: miter"/>
   </g>
   <g id="patch_111">
    <path d="M 627.968517 385.478125 
L 632.807111 385.478125 
L 632.807111 385.478125 
L 627.968517 385.478125 
z
" clip-path="url(#p3814ad658b)" style="fill: #1f77b4; fill-opacity: 0.5; stroke: #000000; stroke-width: 0.431721; stroke-linejoin: miter"/>
   </g>
   <g id="patch_112">
    <path d="M 632.807111 385.478125 
L 637.645705 385.478125 
L 637.645705 385.478125 
L 632.807111 385.478125 
z
" clip-path="url(#p3814ad658b)" style="fill: #1f77b4; fill-opacity: 0.5; stroke: #000000; stroke-width: 0.431721; stroke-linejoin: miter"/>
   </g>
   <g id="patch_113">
    <path d="M 637.645705 385.478125 
L 642.484299 385.478125 
L 642.484299 385.478125 
L 637.645705 385.478125 
z
" clip-path="url(#p3814ad658b)" style="fill: #1f77b4; fill-opacity: 0.5; stroke: #000000; stroke-width: 0.431721; stroke-linejoin: miter"/>
   </g>
   <g id="patch_114">
    <path d="M 642.484299 385.478125 
L 647.322893 385.478125 
L 647.322893 385.478125 
L 642.484299 385.478125 
z
" clip-path="url(#p3814ad658b)" style="fill: #1f77b4; fill-opacity: 0.5; stroke: #000000; stroke-width: 0.431721; stroke-linejoin: miter"/>
   </g>
   <g id="patch_115">
    <path d="M 647.322893 385.478125 
L 652.161486 385.478125 
L 652.161486 384.931732 
L 647.322893 384.931732 
z
" clip-path="url(#p3814ad658b)" style="fill: #1f77b4; fill-opacity: 0.5; stroke: #000000; stroke-width: 0.431721; stroke-linejoin: miter"/>
   </g>
   <g id="patch_116">
    <path d="M 652.161486 385.478125 
L 657.00008 385.478125 
L 657.00008 384.931732 
L 652.161486 384.931732 
z
" clip-path="url(#p3814ad658b)" style="fill: #1f77b4; fill-opacity: 0.5; stroke: #000000; stroke-width: 0.431721; stroke-linejoin: miter"/>
   </g>
   <g id="patch_117">
    <path d="M 657.00008 385.478125 
L 661.838674 385.478125 
L 661.838674 385.478125 
L 657.00008 385.478125 
z
" clip-path="url(#p3814ad658b)" style="fill: #1f77b4; fill-opacity: 0.5; stroke: #000000; stroke-width: 0.431721; stroke-linejoin: miter"/>
   </g>
   <g id="patch_118">
    <path d="M 661.838674 385.478125 
L 666.677268 385.478125 
L 666.677268 385.478125 
L 661.838674 385.478125 
z
" clip-path="url(#p3814ad658b)" style="fill: #1f77b4; fill-opacity: 0.5; stroke: #000000; stroke-width: 0.431721; stroke-linejoin: miter"/>
   </g>
   <g id="patch_119">
    <path d="M 666.677268 385.478125 
L 671.515862 385.478125 
L 671.515862 384.931732 
L 666.677268 384.931732 
z
" clip-path="url(#p3814ad658b)" style="fill: #1f77b4; fill-opacity: 0.5; stroke: #000000; stroke-width: 0.431721; stroke-linejoin: miter"/>
   </g>
   <g id="patch_120">
    <path d="M 671.515862 385.478125 
L 676.354455 385.478125 
L 676.354455 385.478125 
L 671.515862 385.478125 
z
" clip-path="url(#p3814ad658b)" style="fill: #1f77b4; fill-opacity: 0.5; stroke: #000000; stroke-width: 0.431721; stroke-linejoin: miter"/>
   </g>
   <g id="patch_121">
    <path d="M 676.354455 385.478125 
L 681.193049 385.478125 
L 681.193049 385.478125 
L 676.354455 385.478125 
z
" clip-path="url(#p3814ad658b)" style="fill: #1f77b4; fill-opacity: 0.5; stroke: #000000; stroke-width: 0.431721; stroke-linejoin: miter"/>
   </g>
   <g id="patch_122">
    <path d="M 681.193049 385.478125 
L 686.031643 385.478125 
L 686.031643 385.478125 
L 681.193049 385.478125 
z
" clip-path="url(#p3814ad658b)" style="fill: #1f77b4; fill-opacity: 0.5; stroke: #000000; stroke-width: 0.431721; stroke-linejoin: miter"/>
   </g>
   <g id="patch_123">
    <path d="M 686.031643 385.478125 
L 690.870237 385.478125 
L 690.870237 384.931732 
L 686.031643 384.931732 
z
" clip-path="url(#p3814ad658b)" style="fill: #1f77b4; fill-opacity: 0.5; stroke: #000000; stroke-width: 0.431721; stroke-linejoin: miter"/>
   </g>
   <g id="patch_124">
    <path d="M 690.870237 385.478125 
L 695.708831 385.478125 
L 695.708831 384.931732 
L 690.870237 384.931732 
z
" clip-path="url(#p3814ad658b)" style="fill: #1f77b4; fill-opacity: 0.5; stroke: #000000; stroke-width: 0.431721; stroke-linejoin: miter"/>
   </g>
   <g id="patch_125">
    <path d="M 695.708831 385.478125 
L 700.547424 385.478125 
L 700.547424 385.478125 
L 695.708831 385.478125 
z
" clip-path="url(#p3814ad658b)" style="fill: #1f77b4; fill-opacity: 0.5; stroke: #000000; stroke-width: 0.431721; stroke-linejoin: miter"/>
   </g>
   <g id="patch_126">
    <path d="M 700.547424 385.478125 
L 705.386018 385.478125 
L 705.386018 385.478125 
L 700.547424 385.478125 
z
" clip-path="url(#p3814ad658b)" style="fill: #1f77b4; fill-opacity: 0.5; stroke: #000000; stroke-width: 0.431721; stroke-linejoin: miter"/>
   </g>
   <g id="patch_127">
    <path d="M 705.386018 385.478125 
L 710.224612 385.478125 
L 710.224612 385.478125 
L 705.386018 385.478125 
z
" clip-path="url(#p3814ad658b)" style="fill: #1f77b4; fill-opacity: 0.5; stroke: #000000; stroke-width: 0.431721; stroke-linejoin: miter"/>
   </g>
   <g id="patch_128">
    <path d="M 710.224612 385.478125 
L 715.063206 385.478125 
L 715.063206 385.478125 
L 710.224612 385.478125 
z
" clip-path="url(#p3814ad658b)" style="fill: #1f77b4; fill-opacity: 0.5; stroke: #000000; stroke-width: 0.431721; stroke-linejoin: miter"/>
   </g>
   <g id="patch_129">
    <path d="M 715.063206 385.478125 
L 719.9018 385.478125 
L 719.9018 385.478125 
L 715.063206 385.478125 
z
" clip-path="url(#p3814ad658b)" style="fill: #1f77b4; fill-opacity: 0.5; stroke: #000000; stroke-width: 0.431721; stroke-linejoin: miter"/>
   </g>
   <g id="patch_130">
    <path d="M 719.9018 385.478125 
L 724.740393 385.478125 
L 724.740393 385.478125 
L 719.9018 385.478125 
z
" clip-path="url(#p3814ad658b)" style="fill: #1f77b4; fill-opacity: 0.5; stroke: #000000; stroke-width: 0.431721; stroke-linejoin: miter"/>
   </g>
   <g id="patch_131">
    <path d="M 724.740393 385.478125 
L 729.578987 385.478125 
L 729.578987 385.478125 
L 724.740393 385.478125 
z
" clip-path="url(#p3814ad658b)" style="fill: #1f77b4; fill-opacity: 0.5; stroke: #000000; stroke-width: 0.431721; stroke-linejoin: miter"/>
   </g>
   <g id="patch_132">
    <path d="M 729.578987 385.478125 
L 734.417581 385.478125 
L 734.417581 385.478125 
L 729.578987 385.478125 
z
" clip-path="url(#p3814ad658b)" style="fill: #1f77b4; fill-opacity: 0.5; stroke: #000000; stroke-width: 0.431721; stroke-linejoin: miter"/>
   </g>
   <g id="patch_133">
    <path d="M 734.417581 385.478125 
L 739.256175 385.478125 
L 739.256175 385.478125 
L 734.417581 385.478125 
z
" clip-path="url(#p3814ad658b)" style="fill: #1f77b4; fill-opacity: 0.5; stroke: #000000; stroke-width: 0.431721; stroke-linejoin: miter"/>
   </g>
   <g id="patch_134">
    <path d="M 739.256175 385.478125 
L 744.094769 385.478125 
L 744.094769 385.478125 
L 739.256175 385.478125 
z
" clip-path="url(#p3814ad658b)" style="fill: #1f77b4; fill-opacity: 0.5; stroke: #000000; stroke-width: 0.431721; stroke-linejoin: miter"/>
   </g>
   <g id="patch_135">
    <path d="M 744.094769 385.478125 
L 748.933362 385.478125 
L 748.933362 385.478125 
L 744.094769 385.478125 
z
" clip-path="url(#p3814ad658b)" style="fill: #1f77b4; fill-opacity: 0.5; stroke: #000000; stroke-width: 0.431721; stroke-linejoin: miter"/>
   </g>
   <g id="patch_136">
    <path d="M 748.933362 385.478125 
L 753.771956 385.478125 
L 753.771956 385.478125 
L 748.933362 385.478125 
z
" clip-path="url(#p3814ad658b)" style="fill: #1f77b4; fill-opacity: 0.5; stroke: #000000; stroke-width: 0.431721; stroke-linejoin: miter"/>
   </g>
   <g id="patch_137">
    <path d="M 753.771956 385.478125 
L 758.61055 385.478125 
L 758.61055 385.478125 
L 753.771956 385.478125 
z
" clip-path="url(#p3814ad658b)" style="fill: #1f77b4; fill-opacity: 0.5; stroke: #000000; stroke-width: 0.431721; stroke-linejoin: miter"/>
   </g>
   <g id="patch_138">
    <path d="M 758.61055 385.478125 
L 763.449144 385.478125 
L 763.449144 385.478125 
L 758.61055 385.478125 
z
" clip-path="url(#p3814ad658b)" style="fill: #1f77b4; fill-opacity: 0.5; stroke: #000000; stroke-width: 0.431721; stroke-linejoin: miter"/>
   </g>
   <g id="patch_139">
    <path d="M 763.449144 385.478125 
L 768.287738 385.478125 
L 768.287738 385.478125 
L 763.449144 385.478125 
z
" clip-path="url(#p3814ad658b)" style="fill: #1f77b4; fill-opacity: 0.5; stroke: #000000; stroke-width: 0.431721; stroke-linejoin: miter"/>
   </g>
   <g id="patch_140">
    <path d="M 768.287738 385.478125 
L 773.126331 385.478125 
L 773.126331 385.478125 
L 768.287738 385.478125 
z
" clip-path="url(#p3814ad658b)" style="fill: #1f77b4; fill-opacity: 0.5; stroke: #000000; stroke-width: 0.431721; stroke-linejoin: miter"/>
   </g>
   <g id="patch_141">
    <path d="M 773.126331 385.478125 
L 777.964925 385.478125 
L 777.964925 385.478125 
L 773.126331 385.478125 
z
" clip-path="url(#p3814ad658b)" style="fill: #1f77b4; fill-opacity: 0.5; stroke: #000000; stroke-width: 0.431721; stroke-linejoin: miter"/>
   </g>
   <g id="patch_142">
    <path d="M 777.964925 385.478125 
L 782.803519 385.478125 
L 782.803519 385.478125 
L 777.964925 385.478125 
z
" clip-path="url(#p3814ad658b)" style="fill: #1f77b4; fill-opacity: 0.5; stroke: #000000; stroke-width: 0.431721; stroke-linejoin: miter"/>
   </g>
   <g id="patch_143">
    <path d="M 782.803519 385.478125 
L 787.642113 385.478125 
L 787.642113 384.931732 
L 782.803519 384.931732 
z
" clip-path="url(#p3814ad658b)" style="fill: #1f77b4; fill-opacity: 0.5; stroke: #000000; stroke-width: 0.431721; stroke-linejoin: miter"/>
   </g>
   <g id="matplotlib.axis_1">
    <g id="xtick_1">
     <g id="line2d_1">
      <defs>
       <path id="m445f73bb15" d="M 0 0 
L 0 3.5 
" style="stroke: #000000; stroke-width: 0.8"/>
      </defs>
      <g>
       <use xlink:href="#m445f73bb15" x="82.658996" y="385.478125" style="stroke: #000000; stroke-width: 0.8"/>
      </g>
     </g>
     <g id="text_1">
      <!-- 0 -->
      <g transform="translate(79.477746 400.076562) scale(0.1 -0.1)">
       <defs>
        <path id="DejaVuSans-30" d="M 2034 4250 
Q 1547 4250 1301 3770 
Q 1056 3291 1056 2328 
Q 1056 1369 1301 889 
Q 1547 409 2034 409 
Q 2525 409 2770 889 
Q 3016 1369 3016 2328 
Q 3016 3291 2770 3770 
Q 2525 4250 2034 4250 
z
M 2034 4750 
Q 2819 4750 3233 4129 
Q 3647 3509 3647 2328 
Q 3647 1150 3233 529 
Q 2819 -91 2034 -91 
Q 1250 -91 836 529 
Q 422 1150 422 2328 
Q 422 3509 836 4129 
Q 1250 4750 2034 4750 
z
" transform="scale(0.015625)"/>
       </defs>
       <use xlink:href="#DejaVuSans-30"/>
      </g>
     </g>
    </g>
    <g id="xtick_2">
     <g id="line2d_2">
      <g>
       <use xlink:href="#m445f73bb15" x="173.62456" y="385.478125" style="stroke: #000000; stroke-width: 0.8"/>
      </g>
     </g>
     <g id="text_2">
      <!-- 2 -->
      <g transform="translate(170.44331 400.076562) scale(0.1 -0.1)">
       <defs>
        <path id="DejaVuSans-32" d="M 1228 531 
L 3431 531 
L 3431 0 
L 469 0 
L 469 531 
Q 828 903 1448 1529 
Q 2069 2156 2228 2338 
Q 2531 2678 2651 2914 
Q 2772 3150 2772 3378 
Q 2772 3750 2511 3984 
Q 2250 4219 1831 4219 
Q 1534 4219 1204 4116 
Q 875 4013 500 3803 
L 500 4441 
Q 881 4594 1212 4672 
Q 1544 4750 1819 4750 
Q 2544 4750 2975 4387 
Q 3406 4025 3406 3419 
Q 3406 3131 3298 2873 
Q 3191 2616 2906 2266 
Q 2828 2175 2409 1742 
Q 1991 1309 1228 531 
z
" transform="scale(0.015625)"/>
       </defs>
       <use xlink:href="#DejaVuSans-32"/>
      </g>
     </g>
    </g>
    <g id="xtick_3">
     <g id="line2d_3">
      <g>
       <use xlink:href="#m445f73bb15" x="264.590123" y="385.478125" style="stroke: #000000; stroke-width: 0.8"/>
      </g>
     </g>
     <g id="text_3">
      <!-- 4 -->
      <g transform="translate(261.408873 400.076562) scale(0.1 -0.1)">
       <defs>
        <path id="DejaVuSans-34" d="M 2419 4116 
L 825 1625 
L 2419 1625 
L 2419 4116 
z
M 2253 4666 
L 3047 4666 
L 3047 1625 
L 3713 1625 
L 3713 1100 
L 3047 1100 
L 3047 0 
L 2419 0 
L 2419 1100 
L 313 1100 
L 313 1709 
L 2253 4666 
z
" transform="scale(0.015625)"/>
       </defs>
       <use xlink:href="#DejaVuSans-34"/>
      </g>
     </g>
    </g>
    <g id="xtick_4">
     <g id="line2d_4">
      <g>
       <use xlink:href="#m445f73bb15" x="355.555687" y="385.478125" style="stroke: #000000; stroke-width: 0.8"/>
      </g>
     </g>
     <g id="text_4">
      <!-- 6 -->
      <g transform="translate(352.374437 400.076562) scale(0.1 -0.1)">
       <defs>
        <path id="DejaVuSans-36" d="M 2113 2584 
Q 1688 2584 1439 2293 
Q 1191 2003 1191 1497 
Q 1191 994 1439 701 
Q 1688 409 2113 409 
Q 2538 409 2786 701 
Q 3034 994 3034 1497 
Q 3034 2003 2786 2293 
Q 2538 2584 2113 2584 
z
M 3366 4563 
L 3366 3988 
Q 3128 4100 2886 4159 
Q 2644 4219 2406 4219 
Q 1781 4219 1451 3797 
Q 1122 3375 1075 2522 
Q 1259 2794 1537 2939 
Q 1816 3084 2150 3084 
Q 2853 3084 3261 2657 
Q 3669 2231 3669 1497 
Q 3669 778 3244 343 
Q 2819 -91 2113 -91 
Q 1303 -91 875 529 
Q 447 1150 447 2328 
Q 447 3434 972 4092 
Q 1497 4750 2381 4750 
Q 2619 4750 2861 4703 
Q 3103 4656 3366 4563 
z
" transform="scale(0.015625)"/>
       </defs>
       <use xlink:href="#DejaVuSans-36"/>
      </g>
     </g>
    </g>
    <g id="xtick_5">
     <g id="line2d_5">
      <g>
       <use xlink:href="#m445f73bb15" x="446.52125" y="385.478125" style="stroke: #000000; stroke-width: 0.8"/>
      </g>
     </g>
     <g id="text_5">
      <!-- 8 -->
      <g transform="translate(443.34 400.076562) scale(0.1 -0.1)">
       <defs>
        <path id="DejaVuSans-38" d="M 2034 2216 
Q 1584 2216 1326 1975 
Q 1069 1734 1069 1313 
Q 1069 891 1326 650 
Q 1584 409 2034 409 
Q 2484 409 2743 651 
Q 3003 894 3003 1313 
Q 3003 1734 2745 1975 
Q 2488 2216 2034 2216 
z
M 1403 2484 
Q 997 2584 770 2862 
Q 544 3141 544 3541 
Q 544 4100 942 4425 
Q 1341 4750 2034 4750 
Q 2731 4750 3128 4425 
Q 3525 4100 3525 3541 
Q 3525 3141 3298 2862 
Q 3072 2584 2669 2484 
Q 3125 2378 3379 2068 
Q 3634 1759 3634 1313 
Q 3634 634 3220 271 
Q 2806 -91 2034 -91 
Q 1263 -91 848 271 
Q 434 634 434 1313 
Q 434 1759 690 2068 
Q 947 2378 1403 2484 
z
M 1172 3481 
Q 1172 3119 1398 2916 
Q 1625 2713 2034 2713 
Q 2441 2713 2670 2916 
Q 2900 3119 2900 3481 
Q 2900 3844 2670 4047 
Q 2441 4250 2034 4250 
Q 1625 4250 1398 4047 
Q 1172 3844 1172 3481 
z
" transform="scale(0.015625)"/>
       </defs>
       <use xlink:href="#DejaVuSans-38"/>
      </g>
     </g>
    </g>
    <g id="xtick_6">
     <g id="line2d_6">
      <g>
       <use xlink:href="#m445f73bb15" x="537.486813" y="385.478125" style="stroke: #000000; stroke-width: 0.8"/>
      </g>
     </g>
     <g id="text_6">
      <!-- 10 -->
      <g transform="translate(531.124313 400.076562) scale(0.1 -0.1)">
       <defs>
        <path id="DejaVuSans-31" d="M 794 531 
L 1825 531 
L 1825 4091 
L 703 3866 
L 703 4441 
L 1819 4666 
L 2450 4666 
L 2450 531 
L 3481 531 
L 3481 0 
L 794 0 
L 794 531 
z
" transform="scale(0.015625)"/>
       </defs>
       <use xlink:href="#DejaVuSans-31"/>
       <use xlink:href="#DejaVuSans-30" x="63.623047"/>
      </g>
     </g>
    </g>
    <g id="xtick_7">
     <g id="line2d_7">
      <g>
       <use xlink:href="#m445f73bb15" x="628.452377" y="385.478125" style="stroke: #000000; stroke-width: 0.8"/>
      </g>
     </g>
     <g id="text_7">
      <!-- 12 -->
      <g transform="translate(622.089877 400.076562) scale(0.1 -0.1)">
       <use xlink:href="#DejaVuSans-31"/>
       <use xlink:href="#DejaVuSans-32" x="63.623047"/>
      </g>
     </g>
    </g>
    <g id="xtick_8">
     <g id="line2d_8">
      <g>
       <use xlink:href="#m445f73bb15" x="719.41794" y="385.478125" style="stroke: #000000; stroke-width: 0.8"/>
      </g>
     </g>
     <g id="text_8">
      <!-- 14 -->
      <g transform="translate(713.05544 400.076562) scale(0.1 -0.1)">
       <use xlink:href="#DejaVuSans-31"/>
       <use xlink:href="#DejaVuSans-34" x="63.623047"/>
      </g>
     </g>
    </g>
    <g id="xtick_9">
     <g id="line2d_9">
      <g>
       <use xlink:href="#m445f73bb15" x="810.383504" y="385.478125" style="stroke: #000000; stroke-width: 0.8"/>
      </g>
     </g>
     <g id="text_9">
      <!-- 16 -->
      <g transform="translate(804.021004 400.076562) scale(0.1 -0.1)">
       <use xlink:href="#DejaVuSans-31"/>
       <use xlink:href="#DejaVuSans-36" x="63.623047"/>
      </g>
     </g>
    </g>
    <g id="text_10">
     <!-- P -->
     <g transform="translate(443.506406 413.754687) scale(0.1 -0.1)">
      <defs>
       <path id="DejaVuSans-50" d="M 1259 4147 
L 1259 2394 
L 2053 2394 
Q 2494 2394 2734 2622 
Q 2975 2850 2975 3272 
Q 2975 3691 2734 3919 
Q 2494 4147 2053 4147 
L 1259 4147 
z
M 628 4666 
L 2053 4666 
Q 2838 4666 3239 4311 
Q 3641 3956 3641 3272 
Q 3641 2581 3239 2228 
Q 2838 1875 2053 1875 
L 1259 1875 
L 1259 0 
L 628 0 
L 628 4666 
z
" transform="scale(0.015625)"/>
      </defs>
      <use xlink:href="#DejaVuSans-50"/>
     </g>
    </g>
   </g>
   <g id="matplotlib.axis_2">
    <g id="ytick_1">
     <g id="line2d_10">
      <defs>
       <path id="mcd0717b67e" d="M 0 0 
L -3.5 0 
" style="stroke: #000000; stroke-width: 0.8"/>
      </defs>
      <g>
       <use xlink:href="#mcd0717b67e" x="43.78125" y="385.478125" style="stroke: #000000; stroke-width: 0.8"/>
      </g>
     </g>
     <g id="text_11">
      <!-- 0.0 -->
      <g transform="translate(20.878125 389.277344) scale(0.1 -0.1)">
       <defs>
        <path id="DejaVuSans-2e" d="M 684 794 
L 1344 794 
L 1344 0 
L 684 0 
L 684 794 
z
" transform="scale(0.015625)"/>
       </defs>
       <use xlink:href="#DejaVuSans-30"/>
       <use xlink:href="#DejaVuSans-2e" x="63.623047"/>
       <use xlink:href="#DejaVuSans-30" x="95.410156"/>
      </g>
     </g>
    </g>
    <g id="ytick_2">
     <g id="line2d_11">
      <g>
       <use xlink:href="#mcd0717b67e" x="43.78125" y="309.111007" style="stroke: #000000; stroke-width: 0.8"/>
      </g>
     </g>
     <g id="text_12">
      <!-- 0.2 -->
      <g transform="translate(20.878125 312.910226) scale(0.1 -0.1)">
       <use xlink:href="#DejaVuSans-30"/>
       <use xlink:href="#DejaVuSans-2e" x="63.623047"/>
       <use xlink:href="#DejaVuSans-32" x="95.410156"/>
      </g>
     </g>
    </g>
    <g id="ytick_3">
     <g id="line2d_12">
      <g>
       <use xlink:href="#mcd0717b67e" x="43.78125" y="232.743889" style="stroke: #000000; stroke-width: 0.8"/>
      </g>
     </g>
     <g id="text_13">
      <!-- 0.4 -->
      <g transform="translate(20.878125 236.543107) scale(0.1 -0.1)">
       <use xlink:href="#DejaVuSans-30"/>
       <use xlink:href="#DejaVuSans-2e" x="63.623047"/>
       <use xlink:href="#DejaVuSans-34" x="95.410156"/>
      </g>
     </g>
    </g>
    <g id="ytick_4">
     <g id="line2d_13">
      <g>
       <use xlink:href="#mcd0717b67e" x="43.78125" y="156.37677" style="stroke: #000000; stroke-width: 0.8"/>
      </g>
     </g>
     <g id="text_14">
      <!-- 0.6 -->
      <g transform="translate(20.878125 160.175989) scale(0.1 -0.1)">
       <use xlink:href="#DejaVuSans-30"/>
       <use xlink:href="#DejaVuSans-2e" x="63.623047"/>
       <use xlink:href="#DejaVuSans-36" x="95.410156"/>
      </g>
     </g>
    </g>
    <g id="ytick_5">
     <g id="line2d_14">
      <g>
       <use xlink:href="#mcd0717b67e" x="43.78125" y="80.009652" style="stroke: #000000; stroke-width: 0.8"/>
      </g>
     </g>
     <g id="text_15">
      <!-- 0.8 -->
      <g transform="translate(20.878125 83.808871) scale(0.1 -0.1)">
       <use xlink:href="#DejaVuSans-30"/>
       <use xlink:href="#DejaVuSans-2e" x="63.623047"/>
       <use xlink:href="#DejaVuSans-38" x="95.410156"/>
      </g>
     </g>
    </g>
    <g id="text_16">
     <!-- Density -->
     <g transform="translate(14.798438 222.906719) rotate(-90) scale(0.1 -0.1)">
      <defs>
       <path id="DejaVuSans-44" d="M 1259 4147 
L 1259 519 
L 2022 519 
Q 2988 519 3436 956 
Q 3884 1394 3884 2338 
Q 3884 3275 3436 3711 
Q 2988 4147 2022 4147 
L 1259 4147 
z
M 628 4666 
L 1925 4666 
Q 3281 4666 3915 4102 
Q 4550 3538 4550 2338 
Q 4550 1131 3912 565 
Q 3275 0 1925 0 
L 628 0 
L 628 4666 
z
" transform="scale(0.015625)"/>
       <path id="DejaVuSans-65" d="M 3597 1894 
L 3597 1613 
L 953 1613 
Q 991 1019 1311 708 
Q 1631 397 2203 397 
Q 2534 397 2845 478 
Q 3156 559 3463 722 
L 3463 178 
Q 3153 47 2828 -22 
Q 2503 -91 2169 -91 
Q 1331 -91 842 396 
Q 353 884 353 1716 
Q 353 2575 817 3079 
Q 1281 3584 2069 3584 
Q 2775 3584 3186 3129 
Q 3597 2675 3597 1894 
z
M 3022 2063 
Q 3016 2534 2758 2815 
Q 2500 3097 2075 3097 
Q 1594 3097 1305 2825 
Q 1016 2553 972 2059 
L 3022 2063 
z
" transform="scale(0.015625)"/>
       <path id="DejaVuSans-6e" d="M 3513 2113 
L 3513 0 
L 2938 0 
L 2938 2094 
Q 2938 2591 2744 2837 
Q 2550 3084 2163 3084 
Q 1697 3084 1428 2787 
Q 1159 2491 1159 1978 
L 1159 0 
L 581 0 
L 581 3500 
L 1159 3500 
L 1159 2956 
Q 1366 3272 1645 3428 
Q 1925 3584 2291 3584 
Q 2894 3584 3203 3211 
Q 3513 2838 3513 2113 
z
" transform="scale(0.015625)"/>
       <path id="DejaVuSans-73" d="M 2834 3397 
L 2834 2853 
Q 2591 2978 2328 3040 
Q 2066 3103 1784 3103 
Q 1356 3103 1142 2972 
Q 928 2841 928 2578 
Q 928 2378 1081 2264 
Q 1234 2150 1697 2047 
L 1894 2003 
Q 2506 1872 2764 1633 
Q 3022 1394 3022 966 
Q 3022 478 2636 193 
Q 2250 -91 1575 -91 
Q 1294 -91 989 -36 
Q 684 19 347 128 
L 347 722 
Q 666 556 975 473 
Q 1284 391 1588 391 
Q 1994 391 2212 530 
Q 2431 669 2431 922 
Q 2431 1156 2273 1281 
Q 2116 1406 1581 1522 
L 1381 1569 
Q 847 1681 609 1914 
Q 372 2147 372 2553 
Q 372 3047 722 3315 
Q 1072 3584 1716 3584 
Q 2034 3584 2315 3537 
Q 2597 3491 2834 3397 
z
" transform="scale(0.015625)"/>
       <path id="DejaVuSans-69" d="M 603 3500 
L 1178 3500 
L 1178 0 
L 603 0 
L 603 3500 
z
M 603 4863 
L 1178 4863 
L 1178 4134 
L 603 4134 
L 603 4863 
z
" transform="scale(0.015625)"/>
       <path id="DejaVuSans-74" d="M 1172 4494 
L 1172 3500 
L 2356 3500 
L 2356 3053 
L 1172 3053 
L 1172 1153 
Q 1172 725 1289 603 
Q 1406 481 1766 481 
L 2356 481 
L 2356 0 
L 1766 0 
Q 1100 0 847 248 
Q 594 497 594 1153 
L 594 3053 
L 172 3053 
L 172 3500 
L 594 3500 
L 594 4494 
L 1172 4494 
z
" transform="scale(0.015625)"/>
       <path id="DejaVuSans-79" d="M 2059 -325 
Q 1816 -950 1584 -1140 
Q 1353 -1331 966 -1331 
L 506 -1331 
L 506 -850 
L 844 -850 
Q 1081 -850 1212 -737 
Q 1344 -625 1503 -206 
L 1606 56 
L 191 3500 
L 800 3500 
L 1894 763 
L 2988 3500 
L 3597 3500 
L 2059 -325 
z
" transform="scale(0.015625)"/>
      </defs>
      <use xlink:href="#DejaVuSans-44"/>
      <use xlink:href="#DejaVuSans-65" x="77.001953"/>
      <use xlink:href="#DejaVuSans-6e" x="138.525391"/>
      <use xlink:href="#DejaVuSans-73" x="201.904297"/>
      <use xlink:href="#DejaVuSans-69" x="254.003906"/>
      <use xlink:href="#DejaVuSans-74" x="281.787109"/>
      <use xlink:href="#DejaVuSans-79" x="320.996094"/>
     </g>
    </g>
   </g>
   <g id="line2d_15">
    <path d="M 105.400387 385.142669 
L 132.82719 384.508298 
L 136.255541 384.306969 
L 139.683891 383.992536 
L 143.112241 383.546906 
L 146.540592 382.959244 
L 149.968942 382.221728 
L 156.825643 380.3502 
L 163.682344 378.169516 
L 167.110694 376.903527 
L 170.539044 375.324547 
L 173.967395 373.219005 
L 177.395745 370.384123 
L 180.824095 366.648154 
L 184.252446 361.848957 
L 187.680796 355.81217 
L 191.109147 348.363753 
L 194.537497 339.354359 
L 197.965847 328.656836 
L 201.394198 316.163067 
L 204.822548 301.844181 
L 208.250899 285.861542 
L 211.679249 268.630784 
L 218.53595 233.101384 
L 221.9643 216.446446 
L 225.39265 201.746991 
L 228.821001 189.876373 
L 232.249351 181.457289 
L 235.677702 176.677429 
L 239.106052 175.262087 
L 242.534402 176.660016 
L 245.962753 180.344945 
L 249.391103 186.036319 
L 252.819453 193.692599 
L 256.247804 203.297823 
L 259.676154 214.607253 
L 269.961205 252.087105 
L 273.389556 263.572993 
L 276.817906 274.262358 
L 283.674607 294.308101 
L 287.102957 303.880544 
L 290.531308 312.901097 
L 293.959658 321.060465 
L 297.388008 328.180095 
L 300.816359 334.294867 
L 304.244709 339.581907 
L 307.67306 344.211237 
L 311.10141 348.251212 
L 314.52976 351.695161 
L 317.958111 354.551028 
L 321.386461 356.891349 
L 324.814811 358.83473 
L 328.243162 360.509899 
L 338.528213 365.14285 
L 348.813264 370.248756 
L 352.241615 371.730097 
L 355.669965 372.960943 
L 359.098315 373.966651 
L 372.811717 377.306973 
L 376.240067 378.089631 
L 379.668418 378.709043 
L 383.096768 379.084517 
L 386.525118 379.226658 
L 393.381819 379.325997 
L 396.810169 379.584732 
L 400.23852 380.058183 
L 410.523571 381.775751 
L 413.951921 382.112868 
L 417.380272 382.299945 
L 424.236973 382.354871 
L 431.093673 382.277702 
L 434.522024 382.341366 
L 441.378724 382.794204 
L 451.663776 383.624094 
L 475.662228 384.837124 
L 482.518929 384.874926 
L 499.660681 384.486645 
L 520.230783 384.75106 
L 554.514287 385.233939 
L 571.656039 385.263322 
L 595.654492 385.196946 
L 640.223047 385.400859 
L 657.364798 385.212846 
L 681.363251 385.280978 
L 691.648302 385.235888 
L 722.503456 385.47794 
L 780.785412 385.387912 
L 787.642113 385.351592 
L 787.642113 385.351592 
" clip-path="url(#p3814ad658b)" style="fill: none; stroke: #1f77b4; stroke-width: 1.5; stroke-linecap: square"/>
   </g>
   <g id="line2d_16">
    <path d="M 80.393977 385.476454 
L 95.112662 385.383776 
L 131.909372 384.546922 
L 135.589044 384.354158 
L 139.268715 384.037348 
L 142.948386 383.571357 
L 146.628057 382.942308 
L 150.307728 382.140751 
L 153.987399 381.177124 
L 161.346741 378.942717 
L 165.026412 377.698014 
L 168.706083 376.220333 
L 172.385754 374.269467 
L 176.065425 371.582274 
L 179.745097 367.930803 
L 183.424768 363.114095 
L 187.104439 356.921238 
L 190.78411 349.134789 
L 194.463781 339.565403 
L 198.143452 328.054474 
L 201.823123 314.470467 
L 205.502794 298.795734 
L 209.182465 281.279727 
L 220.221478 224.72747 
L 223.901149 207.842416 
L 227.580821 193.79677 
L 231.260492 183.511132 
L 234.940163 177.406192 
L 238.619834 175.277696 
L 242.299505 176.486336 
L 245.979176 180.367533 
L 249.658847 186.563163 
L 253.338518 195.024053 
L 257.018189 205.706215 
L 260.69786 218.228515 
L 268.057202 245.336747 
L 271.736874 258.14618 
L 275.416545 269.97375 
L 279.096216 281.05972 
L 286.455558 302.105535 
L 290.135229 311.897628 
L 293.8149 320.736445 
L 297.494571 328.384593 
L 301.174242 334.88198 
L 304.853913 340.449113 
L 308.533584 345.280312 
L 312.213255 349.43413 
L 315.892927 352.898571 
L 319.572598 355.710704 
L 323.252269 357.989965 
L 326.93194 359.892786 
L 341.650624 366.680036 
L 349.009966 370.339868 
L 352.689637 371.905445 
L 356.369308 373.182224 
L 360.04898 374.216135 
L 374.767664 377.766973 
L 378.447335 378.513648 
L 382.127006 379.004542 
L 385.806677 379.211792 
L 393.166019 379.316825 
L 396.84569 379.588588 
L 400.525361 380.105662 
L 407.884704 381.405601 
L 411.564375 381.895411 
L 415.244046 382.199376 
L 418.923717 382.34369 
L 426.283059 382.324626 
L 433.642401 382.314182 
L 437.322072 382.479844 
L 455.720428 383.832671 
L 477.798454 384.884805 
L 485.157796 384.80629 
L 496.19681 384.488417 
L 510.915494 384.596127 
L 566.11056 385.277625 
L 617.625955 385.26747 
L 632.34464 385.448212 
L 643.383653 385.353014 
L 654.422666 385.210472 
L 702.25839 385.390766 
L 716.977075 385.476386 
L 779.531483 385.399309 
L 794.250167 385.385712 
L 812.648523 385.476719 
L 812.648523 385.476719 
" clip-path="url(#p3814ad658b)" style="fill: none; stroke: #1f77b4; stroke-width: 1.5; stroke-linecap: square"/>
   </g>
   <g id="patch_144">
    <path d="M 43.78125 385.478125 
L 43.78125 22.318125 
" style="fill: none; stroke: #000000; stroke-width: 0.8; stroke-linejoin: miter; stroke-linecap: square"/>
   </g>
   <g id="patch_145">
    <path d="M 849.26125 385.478125 
L 849.26125 22.318125 
" style="fill: none; stroke: #000000; stroke-width: 0.8; stroke-linejoin: miter; stroke-linecap: square"/>
   </g>
   <g id="patch_146">
    <path d="M 43.78125 385.478125 
L 849.26125 385.478125 
" style="fill: none; stroke: #000000; stroke-width: 0.8; stroke-linejoin: miter; stroke-linecap: square"/>
   </g>
   <g id="patch_147">
    <path d="M 43.78125 22.318125 
L 849.26125 22.318125 
" style="fill: none; stroke: #000000; stroke-width: 0.8; stroke-linejoin: miter; stroke-linecap: square"/>
   </g>
   <g id="text_17">
    <!-- Distribution of P -->
    <g transform="translate(398.30375 16.318125) scale(0.12 -0.12)">
     <defs>
      <path id="DejaVuSans-72" d="M 2631 2963 
Q 2534 3019 2420 3045 
Q 2306 3072 2169 3072 
Q 1681 3072 1420 2755 
Q 1159 2438 1159 1844 
L 1159 0 
L 581 0 
L 581 3500 
L 1159 3500 
L 1159 2956 
Q 1341 3275 1631 3429 
Q 1922 3584 2338 3584 
Q 2397 3584 2469 3576 
Q 2541 3569 2628 3553 
L 2631 2963 
z
" transform="scale(0.015625)"/>
      <path id="DejaVuSans-62" d="M 3116 1747 
Q 3116 2381 2855 2742 
Q 2594 3103 2138 3103 
Q 1681 3103 1420 2742 
Q 1159 2381 1159 1747 
Q 1159 1113 1420 752 
Q 1681 391 2138 391 
Q 2594 391 2855 752 
Q 3116 1113 3116 1747 
z
M 1159 2969 
Q 1341 3281 1617 3432 
Q 1894 3584 2278 3584 
Q 2916 3584 3314 3078 
Q 3713 2572 3713 1747 
Q 3713 922 3314 415 
Q 2916 -91 2278 -91 
Q 1894 -91 1617 61 
Q 1341 213 1159 525 
L 1159 0 
L 581 0 
L 581 4863 
L 1159 4863 
L 1159 2969 
z
" transform="scale(0.015625)"/>
      <path id="DejaVuSans-75" d="M 544 1381 
L 544 3500 
L 1119 3500 
L 1119 1403 
Q 1119 906 1312 657 
Q 1506 409 1894 409 
Q 2359 409 2629 706 
Q 2900 1003 2900 1516 
L 2900 3500 
L 3475 3500 
L 3475 0 
L 2900 0 
L 2900 538 
Q 2691 219 2414 64 
Q 2138 -91 1772 -91 
Q 1169 -91 856 284 
Q 544 659 544 1381 
z
M 1991 3584 
L 1991 3584 
z
" transform="scale(0.015625)"/>
      <path id="DejaVuSans-6f" d="M 1959 3097 
Q 1497 3097 1228 2736 
Q 959 2375 959 1747 
Q 959 1119 1226 758 
Q 1494 397 1959 397 
Q 2419 397 2687 759 
Q 2956 1122 2956 1747 
Q 2956 2369 2687 2733 
Q 2419 3097 1959 3097 
z
M 1959 3584 
Q 2709 3584 3137 3096 
Q 3566 2609 3566 1747 
Q 3566 888 3137 398 
Q 2709 -91 1959 -91 
Q 1206 -91 779 398 
Q 353 888 353 1747 
Q 353 2609 779 3096 
Q 1206 3584 1959 3584 
z
" transform="scale(0.015625)"/>
      <path id="DejaVuSans-20" transform="scale(0.015625)"/>
      <path id="DejaVuSans-66" d="M 2375 4863 
L 2375 4384 
L 1825 4384 
Q 1516 4384 1395 4259 
Q 1275 4134 1275 3809 
L 1275 3500 
L 2222 3500 
L 2222 3053 
L 1275 3053 
L 1275 0 
L 697 0 
L 697 3053 
L 147 3053 
L 147 3500 
L 697 3500 
L 697 3744 
Q 697 4328 969 4595 
Q 1241 4863 1831 4863 
L 2375 4863 
z
" transform="scale(0.015625)"/>
     </defs>
     <use xlink:href="#DejaVuSans-44"/>
     <use xlink:href="#DejaVuSans-69" x="77.001953"/>
     <use xlink:href="#DejaVuSans-73" x="104.785156"/>
     <use xlink:href="#DejaVuSans-74" x="156.884766"/>
     <use xlink:href="#DejaVuSans-72" x="196.09375"/>
     <use xlink:href="#DejaVuSans-69" x="237.207031"/>
     <use xlink:href="#DejaVuSans-62" x="264.990234"/>
     <use xlink:href="#DejaVuSans-75" x="328.466797"/>
     <use xlink:href="#DejaVuSans-74" x="391.845703"/>
     <use xlink:href="#DejaVuSans-69" x="431.054688"/>
     <use xlink:href="#DejaVuSans-6f" x="458.837891"/>
     <use xlink:href="#DejaVuSans-6e" x="520.019531"/>
     <use xlink:href="#DejaVuSans-20" x="583.398438"/>
     <use xlink:href="#DejaVuSans-6f" x="615.185547"/>
     <use xlink:href="#DejaVuSans-66" x="676.367188"/>
     <use xlink:href="#DejaVuSans-20" x="711.572266"/>
     <use xlink:href="#DejaVuSans-50" x="743.359375"/>
    </g>
   </g>
  </g>
 </g>
 <defs>
  <clipPath id="p3814ad658b">
   <rect x="43.78125" y="22.318125" width="805.48" height="363.16"/>
  </clipPath>
 </defs>
</svg>
