<?xml version="1.0" encoding="utf-8" standalone="no"?>
<!DOCTYPE svg PUBLIC "-//W3C//DTD SVG 1.1//EN"
  "http://www.w3.org/Graphics/SVG/1.1/DTD/svg11.dtd">
<svg xmlns:xlink="http://www.w3.org/1999/xlink" width="856.52375pt" height="423.034375pt" viewBox="0 0 856.52375 423.034375" xmlns="http://www.w3.org/2000/svg" version="1.1">
 <metadata>
  <rdf:RDF xmlns:dc="http://purl.org/dc/elements/1.1/" xmlns:cc="http://creativecommons.org/ns#" xmlns:rdf="http://www.w3.org/1999/02/22-rdf-syntax-ns#">
   <cc:Work>
    <dc:type rdf:resource="http://purl.org/dc/dcmitype/StillImage"/>
    <dc:date>2024-07-19T11:55:15.147433</dc:date>
    <dc:format>image/svg+xml</dc:format>
    <dc:creator>
     <cc:Agent>
      <dc:title>Matplotlib v3.9.0, https://matplotlib.org/</dc:title>
     </cc:Agent>
    </dc:creator>
   </cc:Work>
  </rdf:RDF>
 </metadata>
 <defs>
  <style type="text/css">*{stroke-linejoin: round; stroke-linecap: butt}</style>
 </defs>
 <g id="figure_1">
  <g id="patch_1">
   <path d="M 0 423.034375 
L 856.52375 423.034375 
L 856.52375 0 
L 0 0 
z
" style="fill: #ffffff"/>
  </g>
  <g id="axes_1">
   <g id="patch_2">
    <path d="M 50.14375 385.478125 
L 849.32375 385.478125 
L 849.32375 22.318125 
L 50.14375 22.318125 
z
" style="fill: #ffffff"/>
   </g>
   <g id="patch_3">
    <path d="M 107.43898 385.478125 
L 112.22632 385.478125 
L 112.22632 385.298361 
L 107.43898 385.298361 
z
" clip-path="url(#pd13d49a4f2)" style="fill: #1f77b4; fill-opacity: 0.5; stroke: #000000; stroke-width: 0.425683; stroke-linejoin: miter"/>
   </g>
   <g id="patch_4">
    <path d="M 112.22632 385.478125 
L 117.013659 385.478125 
L 117.013659 385.478125 
L 112.22632 385.478125 
z
" clip-path="url(#pd13d49a4f2)" style="fill: #1f77b4; fill-opacity: 0.5; stroke: #000000; stroke-width: 0.425683; stroke-linejoin: miter"/>
   </g>
   <g id="patch_5">
    <path d="M 117.013659 385.478125 
L 121.800999 385.478125 
L 121.800999 385.298361 
L 117.013659 385.298361 
z
" clip-path="url(#pd13d49a4f2)" style="fill: #1f77b4; fill-opacity: 0.5; stroke: #000000; stroke-width: 0.425683; stroke-linejoin: miter"/>
   </g>
   <g id="patch_6">
    <path d="M 121.800999 385.478125 
L 126.588338 385.478125 
L 126.588338 385.478125 
L 121.800999 385.478125 
z
" clip-path="url(#pd13d49a4f2)" style="fill: #1f77b4; fill-opacity: 0.5; stroke: #000000; stroke-width: 0.425683; stroke-linejoin: miter"/>
   </g>
   <g id="patch_7">
    <path d="M 126.588338 385.478125 
L 131.375677 385.478125 
L 131.375677 385.478125 
L 126.588338 385.478125 
z
" clip-path="url(#pd13d49a4f2)" style="fill: #1f77b4; fill-opacity: 0.5; stroke: #000000; stroke-width: 0.425683; stroke-linejoin: miter"/>
   </g>
   <g id="patch_8">
    <path d="M 131.375677 385.478125 
L 136.163017 385.478125 
L 136.163017 384.938832 
L 131.375677 384.938832 
z
" clip-path="url(#pd13d49a4f2)" style="fill: #1f77b4; fill-opacity: 0.5; stroke: #000000; stroke-width: 0.425683; stroke-linejoin: miter"/>
   </g>
   <g id="patch_9">
    <path d="M 136.163017 385.478125 
L 140.950356 385.478125 
L 140.950356 385.478125 
L 136.163017 385.478125 
z
" clip-path="url(#pd13d49a4f2)" style="fill: #1f77b4; fill-opacity: 0.5; stroke: #000000; stroke-width: 0.425683; stroke-linejoin: miter"/>
   </g>
   <g id="patch_10">
    <path d="M 140.950356 385.478125 
L 145.737696 385.478125 
L 145.737696 384.759067 
L 140.950356 384.759067 
z
" clip-path="url(#pd13d49a4f2)" style="fill: #1f77b4; fill-opacity: 0.5; stroke: #000000; stroke-width: 0.425683; stroke-linejoin: miter"/>
   </g>
   <g id="patch_11">
    <path d="M 145.737696 385.478125 
L 150.525035 385.478125 
L 150.525035 385.478125 
L 145.737696 385.478125 
z
" clip-path="url(#pd13d49a4f2)" style="fill: #1f77b4; fill-opacity: 0.5; stroke: #000000; stroke-width: 0.425683; stroke-linejoin: miter"/>
   </g>
   <g id="patch_12">
    <path d="M 150.525035 385.478125 
L 155.312375 385.478125 
L 155.312375 385.478125 
L 150.525035 385.478125 
z
" clip-path="url(#pd13d49a4f2)" style="fill: #1f77b4; fill-opacity: 0.5; stroke: #000000; stroke-width: 0.425683; stroke-linejoin: miter"/>
   </g>
   <g id="patch_13">
    <path d="M 155.312375 385.478125 
L 160.099714 385.478125 
L 160.099714 384.759067 
L 155.312375 384.759067 
z
" clip-path="url(#pd13d49a4f2)" style="fill: #1f77b4; fill-opacity: 0.5; stroke: #000000; stroke-width: 0.425683; stroke-linejoin: miter"/>
   </g>
   <g id="patch_14">
    <path d="M 160.099714 385.478125 
L 164.887054 385.478125 
L 164.887054 385.478125 
L 160.099714 385.478125 
z
" clip-path="url(#pd13d49a4f2)" style="fill: #1f77b4; fill-opacity: 0.5; stroke: #000000; stroke-width: 0.425683; stroke-linejoin: miter"/>
   </g>
   <g id="patch_15">
    <path d="M 164.887054 385.478125 
L 169.674393 385.478125 
L 169.674393 384.04001 
L 164.887054 384.04001 
z
" clip-path="url(#pd13d49a4f2)" style="fill: #1f77b4; fill-opacity: 0.5; stroke: #000000; stroke-width: 0.425683; stroke-linejoin: miter"/>
   </g>
   <g id="patch_16">
    <path d="M 169.674393 385.478125 
L 174.461732 385.478125 
L 174.461732 385.478125 
L 169.674393 385.478125 
z
" clip-path="url(#pd13d49a4f2)" style="fill: #1f77b4; fill-opacity: 0.5; stroke: #000000; stroke-width: 0.425683; stroke-linejoin: miter"/>
   </g>
   <g id="patch_17">
    <path d="M 174.461732 385.478125 
L 179.249072 385.478125 
L 179.249072 385.478125 
L 174.461732 385.478125 
z
" clip-path="url(#pd13d49a4f2)" style="fill: #1f77b4; fill-opacity: 0.5; stroke: #000000; stroke-width: 0.425683; stroke-linejoin: miter"/>
   </g>
   <g id="patch_18">
    <path d="M 179.249072 385.478125 
L 184.036411 385.478125 
L 184.036411 384.399539 
L 179.249072 384.399539 
z
" clip-path="url(#pd13d49a4f2)" style="fill: #1f77b4; fill-opacity: 0.5; stroke: #000000; stroke-width: 0.425683; stroke-linejoin: miter"/>
   </g>
   <g id="patch_19">
    <path d="M 184.036411 385.478125 
L 188.823751 385.478125 
L 188.823751 385.478125 
L 184.036411 385.478125 
z
" clip-path="url(#pd13d49a4f2)" style="fill: #1f77b4; fill-opacity: 0.5; stroke: #000000; stroke-width: 0.425683; stroke-linejoin: miter"/>
   </g>
   <g id="patch_20">
    <path d="M 188.823751 385.478125 
L 193.61109 385.478125 
L 193.61109 382.781659 
L 188.823751 382.781659 
z
" clip-path="url(#pd13d49a4f2)" style="fill: #1f77b4; fill-opacity: 0.5; stroke: #000000; stroke-width: 0.425683; stroke-linejoin: miter"/>
   </g>
   <g id="patch_21">
    <path d="M 193.61109 385.478125 
L 198.39843 385.478125 
L 198.39843 385.478125 
L 193.61109 385.478125 
z
" clip-path="url(#pd13d49a4f2)" style="fill: #1f77b4; fill-opacity: 0.5; stroke: #000000; stroke-width: 0.425683; stroke-linejoin: miter"/>
   </g>
   <g id="patch_22">
    <path d="M 198.39843 385.478125 
L 203.185769 385.478125 
L 203.185769 385.478125 
L 198.39843 385.478125 
z
" clip-path="url(#pd13d49a4f2)" style="fill: #1f77b4; fill-opacity: 0.5; stroke: #000000; stroke-width: 0.425683; stroke-linejoin: miter"/>
   </g>
   <g id="patch_23">
    <path d="M 203.185769 385.478125 
L 207.973108 385.478125 
L 207.973108 382.601895 
L 203.185769 382.601895 
z
" clip-path="url(#pd13d49a4f2)" style="fill: #1f77b4; fill-opacity: 0.5; stroke: #000000; stroke-width: 0.425683; stroke-linejoin: miter"/>
   </g>
   <g id="patch_24">
    <path d="M 207.973108 385.478125 
L 212.760448 385.478125 
L 212.760448 385.478125 
L 207.973108 385.478125 
z
" clip-path="url(#pd13d49a4f2)" style="fill: #1f77b4; fill-opacity: 0.5; stroke: #000000; stroke-width: 0.425683; stroke-linejoin: miter"/>
   </g>
   <g id="patch_25">
    <path d="M 212.760448 385.478125 
L 217.547787 385.478125 
L 217.547787 379.905429 
L 212.760448 379.905429 
z
" clip-path="url(#pd13d49a4f2)" style="fill: #1f77b4; fill-opacity: 0.5; stroke: #000000; stroke-width: 0.425683; stroke-linejoin: miter"/>
   </g>
   <g id="patch_26">
    <path d="M 217.547787 385.478125 
L 222.335127 385.478125 
L 222.335127 385.478125 
L 217.547787 385.478125 
z
" clip-path="url(#pd13d49a4f2)" style="fill: #1f77b4; fill-opacity: 0.5; stroke: #000000; stroke-width: 0.425683; stroke-linejoin: miter"/>
   </g>
   <g id="patch_27">
    <path d="M 222.335127 385.478125 
L 227.122466 385.478125 
L 227.122466 385.298361 
L 222.335127 385.298361 
z
" clip-path="url(#pd13d49a4f2)" style="fill: #1f77b4; fill-opacity: 0.5; stroke: #000000; stroke-width: 0.425683; stroke-linejoin: miter"/>
   </g>
   <g id="patch_28">
    <path d="M 227.122466 385.478125 
L 231.909806 385.478125 
L 231.909806 377.568492 
L 227.122466 377.568492 
z
" clip-path="url(#pd13d49a4f2)" style="fill: #1f77b4; fill-opacity: 0.5; stroke: #000000; stroke-width: 0.425683; stroke-linejoin: miter"/>
   </g>
   <g id="patch_29">
    <path d="M 231.909806 385.478125 
L 236.697145 385.478125 
L 236.697145 385.478125 
L 231.909806 385.478125 
z
" clip-path="url(#pd13d49a4f2)" style="fill: #1f77b4; fill-opacity: 0.5; stroke: #000000; stroke-width: 0.425683; stroke-linejoin: miter"/>
   </g>
   <g id="patch_30">
    <path d="M 236.697145 385.478125 
L 241.484484 385.478125 
L 241.484484 385.478125 
L 236.697145 385.478125 
z
" clip-path="url(#pd13d49a4f2)" style="fill: #1f77b4; fill-opacity: 0.5; stroke: #000000; stroke-width: 0.425683; stroke-linejoin: miter"/>
   </g>
   <g id="patch_31">
    <path d="M 241.484484 385.478125 
L 246.271824 385.478125 
L 246.271824 373.613676 
L 241.484484 373.613676 
z
" clip-path="url(#pd13d49a4f2)" style="fill: #1f77b4; fill-opacity: 0.5; stroke: #000000; stroke-width: 0.425683; stroke-linejoin: miter"/>
   </g>
   <g id="patch_32">
    <path d="M 246.271824 385.478125 
L 251.059163 385.478125 
L 251.059163 385.478125 
L 246.271824 385.478125 
z
" clip-path="url(#pd13d49a4f2)" style="fill: #1f77b4; fill-opacity: 0.5; stroke: #000000; stroke-width: 0.425683; stroke-linejoin: miter"/>
   </g>
   <g id="patch_33">
    <path d="M 251.059163 385.478125 
L 255.846503 385.478125 
L 255.846503 374.872027 
L 251.059163 374.872027 
z
" clip-path="url(#pd13d49a4f2)" style="fill: #1f77b4; fill-opacity: 0.5; stroke: #000000; stroke-width: 0.425683; stroke-linejoin: miter"/>
   </g>
   <g id="patch_34">
    <path d="M 255.846503 385.478125 
L 260.633842 385.478125 
L 260.633842 385.478125 
L 255.846503 385.478125 
z
" clip-path="url(#pd13d49a4f2)" style="fill: #1f77b4; fill-opacity: 0.5; stroke: #000000; stroke-width: 0.425683; stroke-linejoin: miter"/>
   </g>
   <g id="patch_35">
    <path d="M 260.633842 385.478125 
L 265.421182 385.478125 
L 265.421182 385.298361 
L 260.633842 385.298361 
z
" clip-path="url(#pd13d49a4f2)" style="fill: #1f77b4; fill-opacity: 0.5; stroke: #000000; stroke-width: 0.425683; stroke-linejoin: miter"/>
   </g>
   <g id="patch_36">
    <path d="M 265.421182 385.478125 
L 270.208521 385.478125 
L 270.208521 365.704043 
L 265.421182 365.704043 
z
" clip-path="url(#pd13d49a4f2)" style="fill: #1f77b4; fill-opacity: 0.5; stroke: #000000; stroke-width: 0.425683; stroke-linejoin: miter"/>
   </g>
   <g id="patch_37">
    <path d="M 270.208521 385.478125 
L 274.995861 385.478125 
L 274.995861 385.478125 
L 270.208521 385.478125 
z
" clip-path="url(#pd13d49a4f2)" style="fill: #1f77b4; fill-opacity: 0.5; stroke: #000000; stroke-width: 0.425683; stroke-linejoin: miter"/>
   </g>
   <g id="patch_38">
    <path d="M 274.995861 385.478125 
L 279.7832 385.478125 
L 279.7832 363.367106 
L 274.995861 363.367106 
z
" clip-path="url(#pd13d49a4f2)" style="fill: #1f77b4; fill-opacity: 0.5; stroke: #000000; stroke-width: 0.425683; stroke-linejoin: miter"/>
   </g>
   <g id="patch_39">
    <path d="M 279.7832 385.478125 
L 284.570539 385.478125 
L 284.570539 385.478125 
L 279.7832 385.478125 
z
" clip-path="url(#pd13d49a4f2)" style="fill: #1f77b4; fill-opacity: 0.5; stroke: #000000; stroke-width: 0.425683; stroke-linejoin: miter"/>
   </g>
   <g id="patch_40">
    <path d="M 284.570539 385.478125 
L 289.357879 385.478125 
L 289.357879 385.118596 
L 284.570539 385.118596 
z
" clip-path="url(#pd13d49a4f2)" style="fill: #1f77b4; fill-opacity: 0.5; stroke: #000000; stroke-width: 0.425683; stroke-linejoin: miter"/>
   </g>
   <g id="patch_41">
    <path d="M 289.357879 385.478125 
L 294.145218 385.478125 
L 294.145218 354.378887 
L 289.357879 354.378887 
z
" clip-path="url(#pd13d49a4f2)" style="fill: #1f77b4; fill-opacity: 0.5; stroke: #000000; stroke-width: 0.425683; stroke-linejoin: miter"/>
   </g>
   <g id="patch_42">
    <path d="M 294.145218 385.478125 
L 298.932558 385.478125 
L 298.932558 385.478125 
L 294.145218 385.478125 
z
" clip-path="url(#pd13d49a4f2)" style="fill: #1f77b4; fill-opacity: 0.5; stroke: #000000; stroke-width: 0.425683; stroke-linejoin: miter"/>
   </g>
   <g id="patch_43">
    <path d="M 298.932558 385.478125 
L 303.719897 385.478125 
L 303.719897 333.705984 
L 298.932558 333.705984 
z
" clip-path="url(#pd13d49a4f2)" style="fill: #1f77b4; fill-opacity: 0.5; stroke: #000000; stroke-width: 0.425683; stroke-linejoin: miter"/>
   </g>
   <g id="patch_44">
    <path d="M 303.719897 385.478125 
L 308.507237 385.478125 
L 308.507237 385.478125 
L 303.719897 385.478125 
z
" clip-path="url(#pd13d49a4f2)" style="fill: #1f77b4; fill-opacity: 0.5; stroke: #000000; stroke-width: 0.425683; stroke-linejoin: miter"/>
   </g>
   <g id="patch_45">
    <path d="M 308.507237 385.478125 
L 313.294576 385.478125 
L 313.294576 384.759067 
L 308.507237 384.759067 
z
" clip-path="url(#pd13d49a4f2)" style="fill: #1f77b4; fill-opacity: 0.5; stroke: #000000; stroke-width: 0.425683; stroke-linejoin: miter"/>
   </g>
   <g id="patch_46">
    <path d="M 313.294576 385.478125 
L 318.081915 385.478125 
L 318.081915 313.752137 
L 313.294576 313.752137 
z
" clip-path="url(#pd13d49a4f2)" style="fill: #1f77b4; fill-opacity: 0.5; stroke: #000000; stroke-width: 0.425683; stroke-linejoin: miter"/>
   </g>
   <g id="patch_47">
    <path d="M 318.081915 385.478125 
L 322.869255 385.478125 
L 322.869255 384.759067 
L 318.081915 384.759067 
z
" clip-path="url(#pd13d49a4f2)" style="fill: #1f77b4; fill-opacity: 0.5; stroke: #000000; stroke-width: 0.425683; stroke-linejoin: miter"/>
   </g>
   <g id="patch_48">
    <path d="M 322.869255 385.478125 
L 327.656594 385.478125 
L 327.656594 289.663711 
L 322.869255 289.663711 
z
" clip-path="url(#pd13d49a4f2)" style="fill: #1f77b4; fill-opacity: 0.5; stroke: #000000; stroke-width: 0.425683; stroke-linejoin: miter"/>
   </g>
   <g id="patch_49">
    <path d="M 327.656594 385.478125 
L 332.443934 385.478125 
L 332.443934 384.938832 
L 327.656594 384.938832 
z
" clip-path="url(#pd13d49a4f2)" style="fill: #1f77b4; fill-opacity: 0.5; stroke: #000000; stroke-width: 0.425683; stroke-linejoin: miter"/>
   </g>
   <g id="patch_50">
    <path d="M 332.443934 385.478125 
L 337.231273 385.478125 
L 337.231273 385.298361 
L 332.443934 385.298361 
z
" clip-path="url(#pd13d49a4f2)" style="fill: #1f77b4; fill-opacity: 0.5; stroke: #000000; stroke-width: 0.425683; stroke-linejoin: miter"/>
   </g>
   <g id="patch_51">
    <path d="M 337.231273 385.478125 
L 342.018613 385.478125 
L 342.018613 258.02518 
L 337.231273 258.02518 
z
" clip-path="url(#pd13d49a4f2)" style="fill: #1f77b4; fill-opacity: 0.5; stroke: #000000; stroke-width: 0.425683; stroke-linejoin: miter"/>
   </g>
   <g id="patch_52">
    <path d="M 342.018613 385.478125 
L 346.805952 385.478125 
L 346.805952 384.399539 
L 342.018613 384.399539 
z
" clip-path="url(#pd13d49a4f2)" style="fill: #1f77b4; fill-opacity: 0.5; stroke: #000000; stroke-width: 0.425683; stroke-linejoin: miter"/>
   </g>
   <g id="patch_53">
    <path d="M 346.805952 385.478125 
L 351.593292 385.478125 
L 351.593292 385.118596 
L 346.805952 385.118596 
z
" clip-path="url(#pd13d49a4f2)" style="fill: #1f77b4; fill-opacity: 0.5; stroke: #000000; stroke-width: 0.425683; stroke-linejoin: miter"/>
   </g>
   <g id="patch_54">
    <path d="M 351.593292 385.478125 
L 356.380631 385.478125 
L 356.380631 207.511389 
L 351.593292 207.511389 
z
" clip-path="url(#pd13d49a4f2)" style="fill: #1f77b4; fill-opacity: 0.5; stroke: #000000; stroke-width: 0.425683; stroke-linejoin: miter"/>
   </g>
   <g id="patch_55">
    <path d="M 356.380631 385.478125 
L 361.16797 385.478125 
L 361.16797 385.118596 
L 356.380631 385.118596 
z
" clip-path="url(#pd13d49a4f2)" style="fill: #1f77b4; fill-opacity: 0.5; stroke: #000000; stroke-width: 0.425683; stroke-linejoin: miter"/>
   </g>
   <g id="patch_56">
    <path d="M 361.16797 385.478125 
L 365.95531 385.478125 
L 365.95531 167.064404 
L 361.16797 167.064404 
z
" clip-path="url(#pd13d49a4f2)" style="fill: #1f77b4; fill-opacity: 0.5; stroke: #000000; stroke-width: 0.425683; stroke-linejoin: miter"/>
   </g>
   <g id="patch_57">
    <path d="M 365.95531 385.478125 
L 370.742649 385.478125 
L 370.742649 384.579303 
L 365.95531 384.579303 
z
" clip-path="url(#pd13d49a4f2)" style="fill: #1f77b4; fill-opacity: 0.5; stroke: #000000; stroke-width: 0.425683; stroke-linejoin: miter"/>
   </g>
   <g id="patch_58">
    <path d="M 370.742649 385.478125 
L 375.529989 385.478125 
L 375.529989 384.219774 
L 370.742649 384.219774 
z
" clip-path="url(#pd13d49a4f2)" style="fill: #1f77b4; fill-opacity: 0.5; stroke: #000000; stroke-width: 0.425683; stroke-linejoin: miter"/>
   </g>
   <g id="patch_59">
    <path d="M 375.529989 385.478125 
L 380.317328 385.478125 
L 380.317328 102.708756 
L 375.529989 102.708756 
z
" clip-path="url(#pd13d49a4f2)" style="fill: #1f77b4; fill-opacity: 0.5; stroke: #000000; stroke-width: 0.425683; stroke-linejoin: miter"/>
   </g>
   <g id="patch_60">
    <path d="M 380.317328 385.478125 
L 385.104668 385.478125 
L 385.104668 384.579303 
L 380.317328 384.579303 
z
" clip-path="url(#pd13d49a4f2)" style="fill: #1f77b4; fill-opacity: 0.5; stroke: #000000; stroke-width: 0.425683; stroke-linejoin: miter"/>
   </g>
   <g id="patch_61">
    <path d="M 385.104668 385.478125 
L 389.892007 385.478125 
L 389.892007 57.947425 
L 385.104668 57.947425 
z
" clip-path="url(#pd13d49a4f2)" style="fill: #1f77b4; fill-opacity: 0.5; stroke: #000000; stroke-width: 0.425683; stroke-linejoin: miter"/>
   </g>
   <g id="patch_62">
    <path d="M 389.892007 385.478125 
L 394.679346 385.478125 
L 394.679346 384.938832 
L 389.892007 384.938832 
z
" clip-path="url(#pd13d49a4f2)" style="fill: #1f77b4; fill-opacity: 0.5; stroke: #000000; stroke-width: 0.425683; stroke-linejoin: miter"/>
   </g>
   <g id="patch_63">
    <path d="M 394.679346 385.478125 
L 399.466686 385.478125 
L 399.466686 384.938832 
L 394.679346 384.938832 
z
" clip-path="url(#pd13d49a4f2)" style="fill: #1f77b4; fill-opacity: 0.5; stroke: #000000; stroke-width: 0.425683; stroke-linejoin: miter"/>
   </g>
   <g id="patch_64">
    <path d="M 399.466686 385.478125 
L 404.254025 385.478125 
L 404.254025 39.611458 
L 399.466686 39.611458 
z
" clip-path="url(#pd13d49a4f2)" style="fill: #1f77b4; fill-opacity: 0.5; stroke: #000000; stroke-width: 0.425683; stroke-linejoin: miter"/>
   </g>
   <g id="patch_65">
    <path d="M 404.254025 385.478125 
L 409.041365 385.478125 
L 409.041365 385.118596 
L 404.254025 385.118596 
z
" clip-path="url(#pd13d49a4f2)" style="fill: #1f77b4; fill-opacity: 0.5; stroke: #000000; stroke-width: 0.425683; stroke-linejoin: miter"/>
   </g>
   <g id="patch_66">
    <path d="M 409.041365 385.478125 
L 413.828704 385.478125 
L 413.828704 51.475907 
L 409.041365 51.475907 
z
" clip-path="url(#pd13d49a4f2)" style="fill: #1f77b4; fill-opacity: 0.5; stroke: #000000; stroke-width: 0.425683; stroke-linejoin: miter"/>
   </g>
   <g id="patch_67">
    <path d="M 413.828704 385.478125 
L 418.616044 385.478125 
L 418.616044 384.938832 
L 413.828704 384.938832 
z
" clip-path="url(#pd13d49a4f2)" style="fill: #1f77b4; fill-opacity: 0.5; stroke: #000000; stroke-width: 0.425683; stroke-linejoin: miter"/>
   </g>
   <g id="patch_68">
    <path d="M 418.616044 385.478125 
L 423.403383 385.478125 
L 423.403383 384.938832 
L 418.616044 384.938832 
z
" clip-path="url(#pd13d49a4f2)" style="fill: #1f77b4; fill-opacity: 0.5; stroke: #000000; stroke-width: 0.425683; stroke-linejoin: miter"/>
   </g>
   <g id="patch_69">
    <path d="M 423.403383 385.478125 
L 428.190723 385.478125 
L 428.190723 101.989698 
L 423.403383 101.989698 
z
" clip-path="url(#pd13d49a4f2)" style="fill: #1f77b4; fill-opacity: 0.5; stroke: #000000; stroke-width: 0.425683; stroke-linejoin: miter"/>
   </g>
   <g id="patch_70">
    <path d="M 428.190723 385.478125 
L 432.978062 385.478125 
L 432.978062 385.478125 
L 428.190723 385.478125 
z
" clip-path="url(#pd13d49a4f2)" style="fill: #1f77b4; fill-opacity: 0.5; stroke: #000000; stroke-width: 0.425683; stroke-linejoin: miter"/>
   </g>
   <g id="patch_71">
    <path d="M 432.978062 385.478125 
L 437.765401 385.478125 
L 437.765401 172.816864 
L 432.978062 172.816864 
z
" clip-path="url(#pd13d49a4f2)" style="fill: #1f77b4; fill-opacity: 0.5; stroke: #000000; stroke-width: 0.425683; stroke-linejoin: miter"/>
   </g>
   <g id="patch_72">
    <path d="M 437.765401 385.478125 
L 442.552741 385.478125 
L 442.552741 385.478125 
L 437.765401 385.478125 
z
" clip-path="url(#pd13d49a4f2)" style="fill: #1f77b4; fill-opacity: 0.5; stroke: #000000; stroke-width: 0.425683; stroke-linejoin: miter"/>
   </g>
   <g id="patch_73">
    <path d="M 442.552741 385.478125 
L 447.34008 385.478125 
L 447.34008 385.478125 
L 442.552741 385.478125 
z
" clip-path="url(#pd13d49a4f2)" style="fill: #1f77b4; fill-opacity: 0.5; stroke: #000000; stroke-width: 0.425683; stroke-linejoin: miter"/>
   </g>
   <g id="patch_74">
    <path d="M 447.34008 385.478125 
L 452.12742 385.478125 
L 452.12742 233.39746 
L 447.34008 233.39746 
z
" clip-path="url(#pd13d49a4f2)" style="fill: #1f77b4; fill-opacity: 0.5; stroke: #000000; stroke-width: 0.425683; stroke-linejoin: miter"/>
   </g>
   <g id="patch_75">
    <path d="M 452.12742 385.478125 
L 456.914759 385.478125 
L 456.914759 385.298361 
L 452.12742 385.298361 
z
" clip-path="url(#pd13d49a4f2)" style="fill: #1f77b4; fill-opacity: 0.5; stroke: #000000; stroke-width: 0.425683; stroke-linejoin: miter"/>
   </g>
   <g id="patch_76">
    <path d="M 456.914759 385.478125 
L 461.702099 385.478125 
L 461.702099 385.478125 
L 456.914759 385.478125 
z
" clip-path="url(#pd13d49a4f2)" style="fill: #1f77b4; fill-opacity: 0.5; stroke: #000000; stroke-width: 0.425683; stroke-linejoin: miter"/>
   </g>
   <g id="patch_77">
    <path d="M 461.702099 385.478125 
L 466.489438 385.478125 
L 466.489438 296.854286 
L 461.702099 296.854286 
z
" clip-path="url(#pd13d49a4f2)" style="fill: #1f77b4; fill-opacity: 0.5; stroke: #000000; stroke-width: 0.425683; stroke-linejoin: miter"/>
   </g>
   <g id="patch_78">
    <path d="M 466.489438 385.478125 
L 471.276777 385.478125 
L 471.276777 385.478125 
L 466.489438 385.478125 
z
" clip-path="url(#pd13d49a4f2)" style="fill: #1f77b4; fill-opacity: 0.5; stroke: #000000; stroke-width: 0.425683; stroke-linejoin: miter"/>
   </g>
   <g id="patch_79">
    <path d="M 471.276777 385.478125 
L 476.064117 385.478125 
L 476.064117 339.638208 
L 471.276777 339.638208 
z
" clip-path="url(#pd13d49a4f2)" style="fill: #1f77b4; fill-opacity: 0.5; stroke: #000000; stroke-width: 0.425683; stroke-linejoin: miter"/>
   </g>
   <g id="patch_80">
    <path d="M 476.064117 385.478125 
L 480.851456 385.478125 
L 480.851456 385.478125 
L 476.064117 385.478125 
z
" clip-path="url(#pd13d49a4f2)" style="fill: #1f77b4; fill-opacity: 0.5; stroke: #000000; stroke-width: 0.425683; stroke-linejoin: miter"/>
   </g>
   <g id="patch_81">
    <path d="M 480.851456 385.478125 
L 485.638796 385.478125 
L 485.638796 385.118596 
L 480.851456 385.118596 
z
" clip-path="url(#pd13d49a4f2)" style="fill: #1f77b4; fill-opacity: 0.5; stroke: #000000; stroke-width: 0.425683; stroke-linejoin: miter"/>
   </g>
   <g id="patch_82">
    <path d="M 485.638796 385.478125 
L 490.426135 385.478125 
L 490.426135 364.805221 
L 485.638796 364.805221 
z
" clip-path="url(#pd13d49a4f2)" style="fill: #1f77b4; fill-opacity: 0.5; stroke: #000000; stroke-width: 0.425683; stroke-linejoin: miter"/>
   </g>
   <g id="patch_83">
    <path d="M 490.426135 385.478125 
L 495.213475 385.478125 
L 495.213475 385.478125 
L 490.426135 385.478125 
z
" clip-path="url(#pd13d49a4f2)" style="fill: #1f77b4; fill-opacity: 0.5; stroke: #000000; stroke-width: 0.425683; stroke-linejoin: miter"/>
   </g>
   <g id="patch_84">
    <path d="M 495.213475 385.478125 
L 500.000814 385.478125 
L 500.000814 374.872027 
L 495.213475 374.872027 
z
" clip-path="url(#pd13d49a4f2)" style="fill: #1f77b4; fill-opacity: 0.5; stroke: #000000; stroke-width: 0.425683; stroke-linejoin: miter"/>
   </g>
   <g id="patch_85">
    <path d="M 500.000814 385.478125 
L 504.788154 385.478125 
L 504.788154 385.478125 
L 500.000814 385.478125 
z
" clip-path="url(#pd13d49a4f2)" style="fill: #1f77b4; fill-opacity: 0.5; stroke: #000000; stroke-width: 0.425683; stroke-linejoin: miter"/>
   </g>
   <g id="patch_86">
    <path d="M 504.788154 385.478125 
L 509.575493 385.478125 
L 509.575493 385.478125 
L 504.788154 385.478125 
z
" clip-path="url(#pd13d49a4f2)" style="fill: #1f77b4; fill-opacity: 0.5; stroke: #000000; stroke-width: 0.425683; stroke-linejoin: miter"/>
   </g>
   <g id="patch_87">
    <path d="M 509.575493 385.478125 
L 514.362832 385.478125 
L 514.362832 381.882837 
L 509.575493 381.882837 
z
" clip-path="url(#pd13d49a4f2)" style="fill: #1f77b4; fill-opacity: 0.5; stroke: #000000; stroke-width: 0.425683; stroke-linejoin: miter"/>
   </g>
   <g id="patch_88">
    <path d="M 514.362832 385.478125 
L 519.150172 385.478125 
L 519.150172 385.478125 
L 514.362832 385.478125 
z
" clip-path="url(#pd13d49a4f2)" style="fill: #1f77b4; fill-opacity: 0.5; stroke: #000000; stroke-width: 0.425683; stroke-linejoin: miter"/>
   </g>
   <g id="patch_89">
    <path d="M 519.150172 385.478125 
L 523.937511 385.478125 
L 523.937511 384.219774 
L 519.150172 384.219774 
z
" clip-path="url(#pd13d49a4f2)" style="fill: #1f77b4; fill-opacity: 0.5; stroke: #000000; stroke-width: 0.425683; stroke-linejoin: miter"/>
   </g>
   <g id="patch_90">
    <path d="M 523.937511 385.478125 
L 528.724851 385.478125 
L 528.724851 385.478125 
L 523.937511 385.478125 
z
" clip-path="url(#pd13d49a4f2)" style="fill: #1f77b4; fill-opacity: 0.5; stroke: #000000; stroke-width: 0.425683; stroke-linejoin: miter"/>
   </g>
   <g id="patch_91">
    <path d="M 528.724851 385.478125 
L 533.51219 385.478125 
L 533.51219 385.478125 
L 528.724851 385.478125 
z
" clip-path="url(#pd13d49a4f2)" style="fill: #1f77b4; fill-opacity: 0.5; stroke: #000000; stroke-width: 0.425683; stroke-linejoin: miter"/>
   </g>
   <g id="patch_92">
    <path d="M 533.51219 385.478125 
L 538.29953 385.478125 
L 538.29953 383.500717 
L 533.51219 383.500717 
z
" clip-path="url(#pd13d49a4f2)" style="fill: #1f77b4; fill-opacity: 0.5; stroke: #000000; stroke-width: 0.425683; stroke-linejoin: miter"/>
   </g>
   <g id="patch_93">
    <path d="M 538.29953 385.478125 
L 543.086869 385.478125 
L 543.086869 385.478125 
L 538.29953 385.478125 
z
" clip-path="url(#pd13d49a4f2)" style="fill: #1f77b4; fill-opacity: 0.5; stroke: #000000; stroke-width: 0.425683; stroke-linejoin: miter"/>
   </g>
   <g id="patch_94">
    <path d="M 543.086869 385.478125 
L 547.874208 385.478125 
L 547.874208 384.938832 
L 543.086869 384.938832 
z
" clip-path="url(#pd13d49a4f2)" style="fill: #1f77b4; fill-opacity: 0.5; stroke: #000000; stroke-width: 0.425683; stroke-linejoin: miter"/>
   </g>
   <g id="patch_95">
    <path d="M 547.874208 385.478125 
L 552.661548 385.478125 
L 552.661548 385.478125 
L 547.874208 385.478125 
z
" clip-path="url(#pd13d49a4f2)" style="fill: #1f77b4; fill-opacity: 0.5; stroke: #000000; stroke-width: 0.425683; stroke-linejoin: miter"/>
   </g>
   <g id="patch_96">
    <path d="M 552.661548 385.478125 
L 557.448887 385.478125 
L 557.448887 385.478125 
L 552.661548 385.478125 
z
" clip-path="url(#pd13d49a4f2)" style="fill: #1f77b4; fill-opacity: 0.5; stroke: #000000; stroke-width: 0.425683; stroke-linejoin: miter"/>
   </g>
   <g id="patch_97">
    <path d="M 557.448887 385.478125 
L 562.236227 385.478125 
L 562.236227 385.118596 
L 557.448887 385.118596 
z
" clip-path="url(#pd13d49a4f2)" style="fill: #1f77b4; fill-opacity: 0.5; stroke: #000000; stroke-width: 0.425683; stroke-linejoin: miter"/>
   </g>
   <g id="patch_98">
    <path d="M 562.236227 385.478125 
L 567.023566 385.478125 
L 567.023566 385.478125 
L 562.236227 385.478125 
z
" clip-path="url(#pd13d49a4f2)" style="fill: #1f77b4; fill-opacity: 0.5; stroke: #000000; stroke-width: 0.425683; stroke-linejoin: miter"/>
   </g>
   <g id="patch_99">
    <path d="M 567.023566 385.478125 
L 571.810906 385.478125 
L 571.810906 385.478125 
L 567.023566 385.478125 
z
" clip-path="url(#pd13d49a4f2)" style="fill: #1f77b4; fill-opacity: 0.5; stroke: #000000; stroke-width: 0.425683; stroke-linejoin: miter"/>
   </g>
   <g id="patch_100">
    <path d="M 571.810906 385.478125 
L 576.598245 385.478125 
L 576.598245 384.759067 
L 571.810906 384.759067 
z
" clip-path="url(#pd13d49a4f2)" style="fill: #1f77b4; fill-opacity: 0.5; stroke: #000000; stroke-width: 0.425683; stroke-linejoin: miter"/>
   </g>
   <g id="patch_101">
    <path d="M 576.598245 385.478125 
L 581.385585 385.478125 
L 581.385585 385.478125 
L 576.598245 385.478125 
z
" clip-path="url(#pd13d49a4f2)" style="fill: #1f77b4; fill-opacity: 0.5; stroke: #000000; stroke-width: 0.425683; stroke-linejoin: miter"/>
   </g>
   <g id="patch_102">
    <path d="M 581.385585 385.478125 
L 586.172924 385.478125 
L 586.172924 385.118596 
L 581.385585 385.118596 
z
" clip-path="url(#pd13d49a4f2)" style="fill: #1f77b4; fill-opacity: 0.5; stroke: #000000; stroke-width: 0.425683; stroke-linejoin: miter"/>
   </g>
   <g id="patch_103">
    <path d="M 586.172924 385.478125 
L 590.960263 385.478125 
L 590.960263 385.478125 
L 586.172924 385.478125 
z
" clip-path="url(#pd13d49a4f2)" style="fill: #1f77b4; fill-opacity: 0.5; stroke: #000000; stroke-width: 0.425683; stroke-linejoin: miter"/>
   </g>
   <g id="patch_104">
    <path d="M 590.960263 385.478125 
L 595.747603 385.478125 
L 595.747603 385.478125 
L 590.960263 385.478125 
z
" clip-path="url(#pd13d49a4f2)" style="fill: #1f77b4; fill-opacity: 0.5; stroke: #000000; stroke-width: 0.425683; stroke-linejoin: miter"/>
   </g>
   <g id="patch_105">
    <path d="M 595.747603 385.478125 
L 600.534942 385.478125 
L 600.534942 385.118596 
L 595.747603 385.118596 
z
" clip-path="url(#pd13d49a4f2)" style="fill: #1f77b4; fill-opacity: 0.5; stroke: #000000; stroke-width: 0.425683; stroke-linejoin: miter"/>
   </g>
   <g id="patch_106">
    <path d="M 600.534942 385.478125 
L 605.322282 385.478125 
L 605.322282 385.478125 
L 600.534942 385.478125 
z
" clip-path="url(#pd13d49a4f2)" style="fill: #1f77b4; fill-opacity: 0.5; stroke: #000000; stroke-width: 0.425683; stroke-linejoin: miter"/>
   </g>
   <g id="patch_107">
    <path d="M 605.322282 385.478125 
L 610.109621 385.478125 
L 610.109621 385.478125 
L 605.322282 385.478125 
z
" clip-path="url(#pd13d49a4f2)" style="fill: #1f77b4; fill-opacity: 0.5; stroke: #000000; stroke-width: 0.425683; stroke-linejoin: miter"/>
   </g>
   <g id="patch_108">
    <path d="M 610.109621 385.478125 
L 614.896961 385.478125 
L 614.896961 385.478125 
L 610.109621 385.478125 
z
" clip-path="url(#pd13d49a4f2)" style="fill: #1f77b4; fill-opacity: 0.5; stroke: #000000; stroke-width: 0.425683; stroke-linejoin: miter"/>
   </g>
   <g id="patch_109">
    <path d="M 614.896961 385.478125 
L 619.6843 385.478125 
L 619.6843 385.478125 
L 614.896961 385.478125 
z
" clip-path="url(#pd13d49a4f2)" style="fill: #1f77b4; fill-opacity: 0.5; stroke: #000000; stroke-width: 0.425683; stroke-linejoin: miter"/>
   </g>
   <g id="patch_110">
    <path d="M 619.6843 385.478125 
L 624.471639 385.478125 
L 624.471639 385.478125 
L 619.6843 385.478125 
z
" clip-path="url(#pd13d49a4f2)" style="fill: #1f77b4; fill-opacity: 0.5; stroke: #000000; stroke-width: 0.425683; stroke-linejoin: miter"/>
   </g>
   <g id="patch_111">
    <path d="M 624.471639 385.478125 
L 629.258979 385.478125 
L 629.258979 385.478125 
L 624.471639 385.478125 
z
" clip-path="url(#pd13d49a4f2)" style="fill: #1f77b4; fill-opacity: 0.5; stroke: #000000; stroke-width: 0.425683; stroke-linejoin: miter"/>
   </g>
   <g id="patch_112">
    <path d="M 629.258979 385.478125 
L 634.046318 385.478125 
L 634.046318 385.478125 
L 629.258979 385.478125 
z
" clip-path="url(#pd13d49a4f2)" style="fill: #1f77b4; fill-opacity: 0.5; stroke: #000000; stroke-width: 0.425683; stroke-linejoin: miter"/>
   </g>
   <g id="patch_113">
    <path d="M 634.046318 385.478125 
L 638.833658 385.478125 
L 638.833658 385.478125 
L 634.046318 385.478125 
z
" clip-path="url(#pd13d49a4f2)" style="fill: #1f77b4; fill-opacity: 0.5; stroke: #000000; stroke-width: 0.425683; stroke-linejoin: miter"/>
   </g>
   <g id="patch_114">
    <path d="M 638.833658 385.478125 
L 643.620997 385.478125 
L 643.620997 385.478125 
L 638.833658 385.478125 
z
" clip-path="url(#pd13d49a4f2)" style="fill: #1f77b4; fill-opacity: 0.5; stroke: #000000; stroke-width: 0.425683; stroke-linejoin: miter"/>
   </g>
   <g id="patch_115">
    <path d="M 643.620997 385.478125 
L 648.408337 385.478125 
L 648.408337 385.298361 
L 643.620997 385.298361 
z
" clip-path="url(#pd13d49a4f2)" style="fill: #1f77b4; fill-opacity: 0.5; stroke: #000000; stroke-width: 0.425683; stroke-linejoin: miter"/>
   </g>
   <g id="patch_116">
    <path d="M 648.408337 385.478125 
L 653.195676 385.478125 
L 653.195676 385.478125 
L 648.408337 385.478125 
z
" clip-path="url(#pd13d49a4f2)" style="fill: #1f77b4; fill-opacity: 0.5; stroke: #000000; stroke-width: 0.425683; stroke-linejoin: miter"/>
   </g>
   <g id="patch_117">
    <path d="M 653.195676 385.478125 
L 657.983016 385.478125 
L 657.983016 385.118596 
L 653.195676 385.118596 
z
" clip-path="url(#pd13d49a4f2)" style="fill: #1f77b4; fill-opacity: 0.5; stroke: #000000; stroke-width: 0.425683; stroke-linejoin: miter"/>
   </g>
   <g id="patch_118">
    <path d="M 657.983016 385.478125 
L 662.770355 385.478125 
L 662.770355 385.478125 
L 657.983016 385.478125 
z
" clip-path="url(#pd13d49a4f2)" style="fill: #1f77b4; fill-opacity: 0.5; stroke: #000000; stroke-width: 0.425683; stroke-linejoin: miter"/>
   </g>
   <g id="patch_119">
    <path d="M 662.770355 385.478125 
L 667.557694 385.478125 
L 667.557694 385.478125 
L 662.770355 385.478125 
z
" clip-path="url(#pd13d49a4f2)" style="fill: #1f77b4; fill-opacity: 0.5; stroke: #000000; stroke-width: 0.425683; stroke-linejoin: miter"/>
   </g>
   <g id="patch_120">
    <path d="M 667.557694 385.478125 
L 672.345034 385.478125 
L 672.345034 385.298361 
L 667.557694 385.298361 
z
" clip-path="url(#pd13d49a4f2)" style="fill: #1f77b4; fill-opacity: 0.5; stroke: #000000; stroke-width: 0.425683; stroke-linejoin: miter"/>
   </g>
   <g id="patch_121">
    <path d="M 672.345034 385.478125 
L 677.132373 385.478125 
L 677.132373 385.478125 
L 672.345034 385.478125 
z
" clip-path="url(#pd13d49a4f2)" style="fill: #1f77b4; fill-opacity: 0.5; stroke: #000000; stroke-width: 0.425683; stroke-linejoin: miter"/>
   </g>
   <g id="patch_122">
    <path d="M 677.132373 385.478125 
L 681.919713 385.478125 
L 681.919713 385.478125 
L 677.132373 385.478125 
z
" clip-path="url(#pd13d49a4f2)" style="fill: #1f77b4; fill-opacity: 0.5; stroke: #000000; stroke-width: 0.425683; stroke-linejoin: miter"/>
   </g>
   <g id="patch_123">
    <path d="M 681.919713 385.478125 
L 686.707052 385.478125 
L 686.707052 385.478125 
L 681.919713 385.478125 
z
" clip-path="url(#pd13d49a4f2)" style="fill: #1f77b4; fill-opacity: 0.5; stroke: #000000; stroke-width: 0.425683; stroke-linejoin: miter"/>
   </g>
   <g id="patch_124">
    <path d="M 686.707052 385.478125 
L 691.494392 385.478125 
L 691.494392 385.478125 
L 686.707052 385.478125 
z
" clip-path="url(#pd13d49a4f2)" style="fill: #1f77b4; fill-opacity: 0.5; stroke: #000000; stroke-width: 0.425683; stroke-linejoin: miter"/>
   </g>
   <g id="patch_125">
    <path d="M 691.494392 385.478125 
L 696.281731 385.478125 
L 696.281731 385.478125 
L 691.494392 385.478125 
z
" clip-path="url(#pd13d49a4f2)" style="fill: #1f77b4; fill-opacity: 0.5; stroke: #000000; stroke-width: 0.425683; stroke-linejoin: miter"/>
   </g>
   <g id="patch_126">
    <path d="M 696.281731 385.478125 
L 701.06907 385.478125 
L 701.06907 385.478125 
L 696.281731 385.478125 
z
" clip-path="url(#pd13d49a4f2)" style="fill: #1f77b4; fill-opacity: 0.5; stroke: #000000; stroke-width: 0.425683; stroke-linejoin: miter"/>
   </g>
   <g id="patch_127">
    <path d="M 701.06907 385.478125 
L 705.85641 385.478125 
L 705.85641 385.478125 
L 701.06907 385.478125 
z
" clip-path="url(#pd13d49a4f2)" style="fill: #1f77b4; fill-opacity: 0.5; stroke: #000000; stroke-width: 0.425683; stroke-linejoin: miter"/>
   </g>
   <g id="patch_128">
    <path d="M 705.85641 385.478125 
L 710.643749 385.478125 
L 710.643749 385.478125 
L 705.85641 385.478125 
z
" clip-path="url(#pd13d49a4f2)" style="fill: #1f77b4; fill-opacity: 0.5; stroke: #000000; stroke-width: 0.425683; stroke-linejoin: miter"/>
   </g>
   <g id="patch_129">
    <path d="M 710.643749 385.478125 
L 715.431089 385.478125 
L 715.431089 385.478125 
L 710.643749 385.478125 
z
" clip-path="url(#pd13d49a4f2)" style="fill: #1f77b4; fill-opacity: 0.5; stroke: #000000; stroke-width: 0.425683; stroke-linejoin: miter"/>
   </g>
   <g id="patch_130">
    <path d="M 715.431089 385.478125 
L 720.218428 385.478125 
L 720.218428 385.478125 
L 715.431089 385.478125 
z
" clip-path="url(#pd13d49a4f2)" style="fill: #1f77b4; fill-opacity: 0.5; stroke: #000000; stroke-width: 0.425683; stroke-linejoin: miter"/>
   </g>
   <g id="patch_131">
    <path d="M 720.218428 385.478125 
L 725.005768 385.478125 
L 725.005768 385.478125 
L 720.218428 385.478125 
z
" clip-path="url(#pd13d49a4f2)" style="fill: #1f77b4; fill-opacity: 0.5; stroke: #000000; stroke-width: 0.425683; stroke-linejoin: miter"/>
   </g>
   <g id="patch_132">
    <path d="M 725.005768 385.478125 
L 729.793107 385.478125 
L 729.793107 385.478125 
L 725.005768 385.478125 
z
" clip-path="url(#pd13d49a4f2)" style="fill: #1f77b4; fill-opacity: 0.5; stroke: #000000; stroke-width: 0.425683; stroke-linejoin: miter"/>
   </g>
   <g id="patch_133">
    <path d="M 729.793107 385.478125 
L 734.580446 385.478125 
L 734.580446 385.478125 
L 729.793107 385.478125 
z
" clip-path="url(#pd13d49a4f2)" style="fill: #1f77b4; fill-opacity: 0.5; stroke: #000000; stroke-width: 0.425683; stroke-linejoin: miter"/>
   </g>
   <g id="patch_134">
    <path d="M 734.580446 385.478125 
L 739.367786 385.478125 
L 739.367786 385.478125 
L 734.580446 385.478125 
z
" clip-path="url(#pd13d49a4f2)" style="fill: #1f77b4; fill-opacity: 0.5; stroke: #000000; stroke-width: 0.425683; stroke-linejoin: miter"/>
   </g>
   <g id="patch_135">
    <path d="M 739.367786 385.478125 
L 744.155125 385.478125 
L 744.155125 385.478125 
L 739.367786 385.478125 
z
" clip-path="url(#pd13d49a4f2)" style="fill: #1f77b4; fill-opacity: 0.5; stroke: #000000; stroke-width: 0.425683; stroke-linejoin: miter"/>
   </g>
   <g id="patch_136">
    <path d="M 744.155125 385.478125 
L 748.942465 385.478125 
L 748.942465 385.478125 
L 744.155125 385.478125 
z
" clip-path="url(#pd13d49a4f2)" style="fill: #1f77b4; fill-opacity: 0.5; stroke: #000000; stroke-width: 0.425683; stroke-linejoin: miter"/>
   </g>
   <g id="patch_137">
    <path d="M 748.942465 385.478125 
L 753.729804 385.478125 
L 753.729804 385.478125 
L 748.942465 385.478125 
z
" clip-path="url(#pd13d49a4f2)" style="fill: #1f77b4; fill-opacity: 0.5; stroke: #000000; stroke-width: 0.425683; stroke-linejoin: miter"/>
   </g>
   <g id="patch_138">
    <path d="M 753.729804 385.478125 
L 758.517144 385.478125 
L 758.517144 385.478125 
L 753.729804 385.478125 
z
" clip-path="url(#pd13d49a4f2)" style="fill: #1f77b4; fill-opacity: 0.5; stroke: #000000; stroke-width: 0.425683; stroke-linejoin: miter"/>
   </g>
   <g id="patch_139">
    <path d="M 758.517144 385.478125 
L 763.304483 385.478125 
L 763.304483 385.478125 
L 758.517144 385.478125 
z
" clip-path="url(#pd13d49a4f2)" style="fill: #1f77b4; fill-opacity: 0.5; stroke: #000000; stroke-width: 0.425683; stroke-linejoin: miter"/>
   </g>
   <g id="patch_140">
    <path d="M 763.304483 385.478125 
L 768.091823 385.478125 
L 768.091823 385.478125 
L 763.304483 385.478125 
z
" clip-path="url(#pd13d49a4f2)" style="fill: #1f77b4; fill-opacity: 0.5; stroke: #000000; stroke-width: 0.425683; stroke-linejoin: miter"/>
   </g>
   <g id="patch_141">
    <path d="M 768.091823 385.478125 
L 772.879162 385.478125 
L 772.879162 385.478125 
L 768.091823 385.478125 
z
" clip-path="url(#pd13d49a4f2)" style="fill: #1f77b4; fill-opacity: 0.5; stroke: #000000; stroke-width: 0.425683; stroke-linejoin: miter"/>
   </g>
   <g id="patch_142">
    <path d="M 772.879162 385.478125 
L 777.666501 385.478125 
L 777.666501 385.478125 
L 772.879162 385.478125 
z
" clip-path="url(#pd13d49a4f2)" style="fill: #1f77b4; fill-opacity: 0.5; stroke: #000000; stroke-width: 0.425683; stroke-linejoin: miter"/>
   </g>
   <g id="patch_143">
    <path d="M 777.666501 385.478125 
L 782.453841 385.478125 
L 782.453841 385.478125 
L 777.666501 385.478125 
z
" clip-path="url(#pd13d49a4f2)" style="fill: #1f77b4; fill-opacity: 0.5; stroke: #000000; stroke-width: 0.425683; stroke-linejoin: miter"/>
   </g>
   <g id="patch_144">
    <path d="M 782.453841 385.478125 
L 787.24118 385.478125 
L 787.24118 385.478125 
L 782.453841 385.478125 
z
" clip-path="url(#pd13d49a4f2)" style="fill: #1f77b4; fill-opacity: 0.5; stroke: #000000; stroke-width: 0.425683; stroke-linejoin: miter"/>
   </g>
   <g id="patch_145">
    <path d="M 787.24118 385.478125 
L 792.02852 385.478125 
L 792.02852 385.298361 
L 787.24118 385.298361 
z
" clip-path="url(#pd13d49a4f2)" style="fill: #1f77b4; fill-opacity: 0.5; stroke: #000000; stroke-width: 0.425683; stroke-linejoin: miter"/>
   </g>
   <g id="matplotlib.axis_1">
    <g id="xtick_1">
     <g id="line2d_1">
      <defs>
       <path id="ma3b83ac4fa" d="M 0 0 
L 0 3.5 
" style="stroke: #000000; stroke-width: 0.8"/>
      </defs>
      <g>
       <use xlink:href="#ma3b83ac4fa" x="70.764541" y="385.478125" style="stroke: #000000; stroke-width: 0.8"/>
      </g>
     </g>
     <g id="text_1">
      <!-- 0 -->
      <g transform="translate(67.583291 400.076562) scale(0.1 -0.1)">
       <defs>
        <path id="DejaVuSans-30" d="M 2034 4250 
Q 1547 4250 1301 3770 
Q 1056 3291 1056 2328 
Q 1056 1369 1301 889 
Q 1547 409 2034 409 
Q 2525 409 2770 889 
Q 3016 1369 3016 2328 
Q 3016 3291 2770 3770 
Q 2525 4250 2034 4250 
z
M 2034 4750 
Q 2819 4750 3233 4129 
Q 3647 3509 3647 2328 
Q 3647 1150 3233 529 
Q 2819 -91 2034 -91 
Q 1250 -91 836 529 
Q 422 1150 422 2328 
Q 422 3509 836 4129 
Q 1250 4750 2034 4750 
z
" transform="scale(0.015625)"/>
       </defs>
       <use xlink:href="#DejaVuSans-30"/>
      </g>
     </g>
    </g>
    <g id="xtick_2">
     <g id="line2d_2">
      <g>
       <use xlink:href="#ma3b83ac4fa" x="193.012673" y="385.478125" style="stroke: #000000; stroke-width: 0.8"/>
      </g>
     </g>
     <g id="text_2">
      <!-- 10 -->
      <g transform="translate(186.650173 400.076562) scale(0.1 -0.1)">
       <defs>
        <path id="DejaVuSans-31" d="M 794 531 
L 1825 531 
L 1825 4091 
L 703 3866 
L 703 4441 
L 1819 4666 
L 2450 4666 
L 2450 531 
L 3481 531 
L 3481 0 
L 794 0 
L 794 531 
z
" transform="scale(0.015625)"/>
       </defs>
       <use xlink:href="#DejaVuSans-31"/>
       <use xlink:href="#DejaVuSans-30" x="63.623047"/>
      </g>
     </g>
    </g>
    <g id="xtick_3">
     <g id="line2d_3">
      <g>
       <use xlink:href="#ma3b83ac4fa" x="315.260805" y="385.478125" style="stroke: #000000; stroke-width: 0.8"/>
      </g>
     </g>
     <g id="text_3">
      <!-- 20 -->
      <g transform="translate(308.898305 400.076562) scale(0.1 -0.1)">
       <defs>
        <path id="DejaVuSans-32" d="M 1228 531 
L 3431 531 
L 3431 0 
L 469 0 
L 469 531 
Q 828 903 1448 1529 
Q 2069 2156 2228 2338 
Q 2531 2678 2651 2914 
Q 2772 3150 2772 3378 
Q 2772 3750 2511 3984 
Q 2250 4219 1831 4219 
Q 1534 4219 1204 4116 
Q 875 4013 500 3803 
L 500 4441 
Q 881 4594 1212 4672 
Q 1544 4750 1819 4750 
Q 2544 4750 2975 4387 
Q 3406 4025 3406 3419 
Q 3406 3131 3298 2873 
Q 3191 2616 2906 2266 
Q 2828 2175 2409 1742 
Q 1991 1309 1228 531 
z
" transform="scale(0.015625)"/>
       </defs>
       <use xlink:href="#DejaVuSans-32"/>
       <use xlink:href="#DejaVuSans-30" x="63.623047"/>
      </g>
     </g>
    </g>
    <g id="xtick_4">
     <g id="line2d_4">
      <g>
       <use xlink:href="#ma3b83ac4fa" x="437.508937" y="385.478125" style="stroke: #000000; stroke-width: 0.8"/>
      </g>
     </g>
     <g id="text_4">
      <!-- 30 -->
      <g transform="translate(431.146437 400.076562) scale(0.1 -0.1)">
       <defs>
        <path id="DejaVuSans-33" d="M 2597 2516 
Q 3050 2419 3304 2112 
Q 3559 1806 3559 1356 
Q 3559 666 3084 287 
Q 2609 -91 1734 -91 
Q 1441 -91 1130 -33 
Q 819 25 488 141 
L 488 750 
Q 750 597 1062 519 
Q 1375 441 1716 441 
Q 2309 441 2620 675 
Q 2931 909 2931 1356 
Q 2931 1769 2642 2001 
Q 2353 2234 1838 2234 
L 1294 2234 
L 1294 2753 
L 1863 2753 
Q 2328 2753 2575 2939 
Q 2822 3125 2822 3475 
Q 2822 3834 2567 4026 
Q 2313 4219 1838 4219 
Q 1578 4219 1281 4162 
Q 984 4106 628 3988 
L 628 4550 
Q 988 4650 1302 4700 
Q 1616 4750 1894 4750 
Q 2613 4750 3031 4423 
Q 3450 4097 3450 3541 
Q 3450 3153 3228 2886 
Q 3006 2619 2597 2516 
z
" transform="scale(0.015625)"/>
       </defs>
       <use xlink:href="#DejaVuSans-33"/>
       <use xlink:href="#DejaVuSans-30" x="63.623047"/>
      </g>
     </g>
    </g>
    <g id="xtick_5">
     <g id="line2d_5">
      <g>
       <use xlink:href="#ma3b83ac4fa" x="559.757069" y="385.478125" style="stroke: #000000; stroke-width: 0.8"/>
      </g>
     </g>
     <g id="text_5">
      <!-- 40 -->
      <g transform="translate(553.394569 400.076562) scale(0.1 -0.1)">
       <defs>
        <path id="DejaVuSans-34" d="M 2419 4116 
L 825 1625 
L 2419 1625 
L 2419 4116 
z
M 2253 4666 
L 3047 4666 
L 3047 1625 
L 3713 1625 
L 3713 1100 
L 3047 1100 
L 3047 0 
L 2419 0 
L 2419 1100 
L 313 1100 
L 313 1709 
L 2253 4666 
z
" transform="scale(0.015625)"/>
       </defs>
       <use xlink:href="#DejaVuSans-34"/>
       <use xlink:href="#DejaVuSans-30" x="63.623047"/>
      </g>
     </g>
    </g>
    <g id="xtick_6">
     <g id="line2d_6">
      <g>
       <use xlink:href="#ma3b83ac4fa" x="682.005201" y="385.478125" style="stroke: #000000; stroke-width: 0.8"/>
      </g>
     </g>
     <g id="text_6">
      <!-- 50 -->
      <g transform="translate(675.642701 400.076562) scale(0.1 -0.1)">
       <defs>
        <path id="DejaVuSans-35" d="M 691 4666 
L 3169 4666 
L 3169 4134 
L 1269 4134 
L 1269 2991 
Q 1406 3038 1543 3061 
Q 1681 3084 1819 3084 
Q 2600 3084 3056 2656 
Q 3513 2228 3513 1497 
Q 3513 744 3044 326 
Q 2575 -91 1722 -91 
Q 1428 -91 1123 -41 
Q 819 9 494 109 
L 494 744 
Q 775 591 1075 516 
Q 1375 441 1709 441 
Q 2250 441 2565 725 
Q 2881 1009 2881 1497 
Q 2881 1984 2565 2268 
Q 2250 2553 1709 2553 
Q 1456 2553 1204 2497 
Q 953 2441 691 2322 
L 691 4666 
z
" transform="scale(0.015625)"/>
       </defs>
       <use xlink:href="#DejaVuSans-35"/>
       <use xlink:href="#DejaVuSans-30" x="63.623047"/>
      </g>
     </g>
    </g>
    <g id="xtick_7">
     <g id="line2d_7">
      <g>
       <use xlink:href="#ma3b83ac4fa" x="804.253333" y="385.478125" style="stroke: #000000; stroke-width: 0.8"/>
      </g>
     </g>
     <g id="text_7">
      <!-- 60 -->
      <g transform="translate(797.890833 400.076562) scale(0.1 -0.1)">
       <defs>
        <path id="DejaVuSans-36" d="M 2113 2584 
Q 1688 2584 1439 2293 
Q 1191 2003 1191 1497 
Q 1191 994 1439 701 
Q 1688 409 2113 409 
Q 2538 409 2786 701 
Q 3034 994 3034 1497 
Q 3034 2003 2786 2293 
Q 2538 2584 2113 2584 
z
M 3366 4563 
L 3366 3988 
Q 3128 4100 2886 4159 
Q 2644 4219 2406 4219 
Q 1781 4219 1451 3797 
Q 1122 3375 1075 2522 
Q 1259 2794 1537 2939 
Q 1816 3084 2150 3084 
Q 2853 3084 3261 2657 
Q 3669 2231 3669 1497 
Q 3669 778 3244 343 
Q 2819 -91 2113 -91 
Q 1303 -91 875 529 
Q 447 1150 447 2328 
Q 447 3434 972 4092 
Q 1497 4750 2381 4750 
Q 2619 4750 2861 4703 
Q 3103 4656 3366 4563 
z
" transform="scale(0.015625)"/>
       </defs>
       <use xlink:href="#DejaVuSans-36"/>
       <use xlink:href="#DejaVuSans-30" x="63.623047"/>
      </g>
     </g>
    </g>
    <g id="text_8">
     <!-- TCO2 -->
     <g transform="translate(436.365 413.754687) scale(0.1 -0.1)">
      <defs>
       <path id="DejaVuSans-54" d="M -19 4666 
L 3928 4666 
L 3928 4134 
L 2272 4134 
L 2272 0 
L 1638 0 
L 1638 4134 
L -19 4134 
L -19 4666 
z
" transform="scale(0.015625)"/>
       <path id="DejaVuSans-43" d="M 4122 4306 
L 4122 3641 
Q 3803 3938 3442 4084 
Q 3081 4231 2675 4231 
Q 1875 4231 1450 3742 
Q 1025 3253 1025 2328 
Q 1025 1406 1450 917 
Q 1875 428 2675 428 
Q 3081 428 3442 575 
Q 3803 722 4122 1019 
L 4122 359 
Q 3791 134 3420 21 
Q 3050 -91 2638 -91 
Q 1578 -91 968 557 
Q 359 1206 359 2328 
Q 359 3453 968 4101 
Q 1578 4750 2638 4750 
Q 3056 4750 3426 4639 
Q 3797 4528 4122 4306 
z
" transform="scale(0.015625)"/>
       <path id="DejaVuSans-4f" d="M 2522 4238 
Q 1834 4238 1429 3725 
Q 1025 3213 1025 2328 
Q 1025 1447 1429 934 
Q 1834 422 2522 422 
Q 3209 422 3611 934 
Q 4013 1447 4013 2328 
Q 4013 3213 3611 3725 
Q 3209 4238 2522 4238 
z
M 2522 4750 
Q 3503 4750 4090 4092 
Q 4678 3434 4678 2328 
Q 4678 1225 4090 567 
Q 3503 -91 2522 -91 
Q 1538 -91 948 565 
Q 359 1222 359 2328 
Q 359 3434 948 4092 
Q 1538 4750 2522 4750 
z
" transform="scale(0.015625)"/>
      </defs>
      <use xlink:href="#DejaVuSans-54"/>
      <use xlink:href="#DejaVuSans-43" x="55.208984"/>
      <use xlink:href="#DejaVuSans-4f" x="125.033203"/>
      <use xlink:href="#DejaVuSans-32" x="203.744141"/>
     </g>
    </g>
   </g>
   <g id="matplotlib.axis_2">
    <g id="ytick_1">
     <g id="line2d_8">
      <defs>
       <path id="m02e6230883" d="M 0 0 
L -3.5 0 
" style="stroke: #000000; stroke-width: 0.8"/>
      </defs>
      <g>
       <use xlink:href="#m02e6230883" x="50.14375" y="385.478125" style="stroke: #000000; stroke-width: 0.8"/>
      </g>
     </g>
     <g id="text_9">
      <!-- 0.00 -->
      <g transform="translate(20.878125 389.277344) scale(0.1 -0.1)">
       <defs>
        <path id="DejaVuSans-2e" d="M 684 794 
L 1344 794 
L 1344 0 
L 684 0 
L 684 794 
z
" transform="scale(0.015625)"/>
       </defs>
       <use xlink:href="#DejaVuSans-30"/>
       <use xlink:href="#DejaVuSans-2e" x="63.623047"/>
       <use xlink:href="#DejaVuSans-30" x="95.410156"/>
       <use xlink:href="#DejaVuSans-30" x="159.033203"/>
      </g>
     </g>
    </g>
    <g id="ytick_2">
     <g id="line2d_9">
      <g>
       <use xlink:href="#m02e6230883" x="50.14375" y="326.981539" style="stroke: #000000; stroke-width: 0.8"/>
      </g>
     </g>
     <g id="text_10">
      <!-- 0.05 -->
      <g transform="translate(20.878125 330.780757) scale(0.1 -0.1)">
       <use xlink:href="#DejaVuSans-30"/>
       <use xlink:href="#DejaVuSans-2e" x="63.623047"/>
       <use xlink:href="#DejaVuSans-30" x="95.410156"/>
       <use xlink:href="#DejaVuSans-35" x="159.033203"/>
      </g>
     </g>
    </g>
    <g id="ytick_3">
     <g id="line2d_10">
      <g>
       <use xlink:href="#m02e6230883" x="50.14375" y="268.484952" style="stroke: #000000; stroke-width: 0.8"/>
      </g>
     </g>
     <g id="text_11">
      <!-- 0.10 -->
      <g transform="translate(20.878125 272.284171) scale(0.1 -0.1)">
       <use xlink:href="#DejaVuSans-30"/>
       <use xlink:href="#DejaVuSans-2e" x="63.623047"/>
       <use xlink:href="#DejaVuSans-31" x="95.410156"/>
       <use xlink:href="#DejaVuSans-30" x="159.033203"/>
      </g>
     </g>
    </g>
    <g id="ytick_4">
     <g id="line2d_11">
      <g>
       <use xlink:href="#m02e6230883" x="50.14375" y="209.988366" style="stroke: #000000; stroke-width: 0.8"/>
      </g>
     </g>
     <g id="text_12">
      <!-- 0.15 -->
      <g transform="translate(20.878125 213.787585) scale(0.1 -0.1)">
       <use xlink:href="#DejaVuSans-30"/>
       <use xlink:href="#DejaVuSans-2e" x="63.623047"/>
       <use xlink:href="#DejaVuSans-31" x="95.410156"/>
       <use xlink:href="#DejaVuSans-35" x="159.033203"/>
      </g>
     </g>
    </g>
    <g id="ytick_5">
     <g id="line2d_12">
      <g>
       <use xlink:href="#m02e6230883" x="50.14375" y="151.49178" style="stroke: #000000; stroke-width: 0.8"/>
      </g>
     </g>
     <g id="text_13">
      <!-- 0.20 -->
      <g transform="translate(20.878125 155.290999) scale(0.1 -0.1)">
       <use xlink:href="#DejaVuSans-30"/>
       <use xlink:href="#DejaVuSans-2e" x="63.623047"/>
       <use xlink:href="#DejaVuSans-32" x="95.410156"/>
       <use xlink:href="#DejaVuSans-30" x="159.033203"/>
      </g>
     </g>
    </g>
    <g id="ytick_6">
     <g id="line2d_13">
      <g>
       <use xlink:href="#m02e6230883" x="50.14375" y="92.995194" style="stroke: #000000; stroke-width: 0.8"/>
      </g>
     </g>
     <g id="text_14">
      <!-- 0.25 -->
      <g transform="translate(20.878125 96.794412) scale(0.1 -0.1)">
       <use xlink:href="#DejaVuSans-30"/>
       <use xlink:href="#DejaVuSans-2e" x="63.623047"/>
       <use xlink:href="#DejaVuSans-32" x="95.410156"/>
       <use xlink:href="#DejaVuSans-35" x="159.033203"/>
      </g>
     </g>
    </g>
    <g id="ytick_7">
     <g id="line2d_14">
      <g>
       <use xlink:href="#m02e6230883" x="50.14375" y="34.498607" style="stroke: #000000; stroke-width: 0.8"/>
      </g>
     </g>
     <g id="text_15">
      <!-- 0.30 -->
      <g transform="translate(20.878125 38.297826) scale(0.1 -0.1)">
       <use xlink:href="#DejaVuSans-30"/>
       <use xlink:href="#DejaVuSans-2e" x="63.623047"/>
       <use xlink:href="#DejaVuSans-33" x="95.410156"/>
       <use xlink:href="#DejaVuSans-30" x="159.033203"/>
      </g>
     </g>
    </g>
    <g id="text_16">
     <!-- Density -->
     <g transform="translate(14.798438 222.906719) rotate(-90) scale(0.1 -0.1)">
      <defs>
       <path id="DejaVuSans-44" d="M 1259 4147 
L 1259 519 
L 2022 519 
Q 2988 519 3436 956 
Q 3884 1394 3884 2338 
Q 3884 3275 3436 3711 
Q 2988 4147 2022 4147 
L 1259 4147 
z
M 628 4666 
L 1925 4666 
Q 3281 4666 3915 4102 
Q 4550 3538 4550 2338 
Q 4550 1131 3912 565 
Q 3275 0 1925 0 
L 628 0 
L 628 4666 
z
" transform="scale(0.015625)"/>
       <path id="DejaVuSans-65" d="M 3597 1894 
L 3597 1613 
L 953 1613 
Q 991 1019 1311 708 
Q 1631 397 2203 397 
Q 2534 397 2845 478 
Q 3156 559 3463 722 
L 3463 178 
Q 3153 47 2828 -22 
Q 2503 -91 2169 -91 
Q 1331 -91 842 396 
Q 353 884 353 1716 
Q 353 2575 817 3079 
Q 1281 3584 2069 3584 
Q 2775 3584 3186 3129 
Q 3597 2675 3597 1894 
z
M 3022 2063 
Q 3016 2534 2758 2815 
Q 2500 3097 2075 3097 
Q 1594 3097 1305 2825 
Q 1016 2553 972 2059 
L 3022 2063 
z
" transform="scale(0.015625)"/>
       <path id="DejaVuSans-6e" d="M 3513 2113 
L 3513 0 
L 2938 0 
L 2938 2094 
Q 2938 2591 2744 2837 
Q 2550 3084 2163 3084 
Q 1697 3084 1428 2787 
Q 1159 2491 1159 1978 
L 1159 0 
L 581 0 
L 581 3500 
L 1159 3500 
L 1159 2956 
Q 1366 3272 1645 3428 
Q 1925 3584 2291 3584 
Q 2894 3584 3203 3211 
Q 3513 2838 3513 2113 
z
" transform="scale(0.015625)"/>
       <path id="DejaVuSans-73" d="M 2834 3397 
L 2834 2853 
Q 2591 2978 2328 3040 
Q 2066 3103 1784 3103 
Q 1356 3103 1142 2972 
Q 928 2841 928 2578 
Q 928 2378 1081 2264 
Q 1234 2150 1697 2047 
L 1894 2003 
Q 2506 1872 2764 1633 
Q 3022 1394 3022 966 
Q 3022 478 2636 193 
Q 2250 -91 1575 -91 
Q 1294 -91 989 -36 
Q 684 19 347 128 
L 347 722 
Q 666 556 975 473 
Q 1284 391 1588 391 
Q 1994 391 2212 530 
Q 2431 669 2431 922 
Q 2431 1156 2273 1281 
Q 2116 1406 1581 1522 
L 1381 1569 
Q 847 1681 609 1914 
Q 372 2147 372 2553 
Q 372 3047 722 3315 
Q 1072 3584 1716 3584 
Q 2034 3584 2315 3537 
Q 2597 3491 2834 3397 
z
" transform="scale(0.015625)"/>
       <path id="DejaVuSans-69" d="M 603 3500 
L 1178 3500 
L 1178 0 
L 603 0 
L 603 3500 
z
M 603 4863 
L 1178 4863 
L 1178 4134 
L 603 4134 
L 603 4863 
z
" transform="scale(0.015625)"/>
       <path id="DejaVuSans-74" d="M 1172 4494 
L 1172 3500 
L 2356 3500 
L 2356 3053 
L 1172 3053 
L 1172 1153 
Q 1172 725 1289 603 
Q 1406 481 1766 481 
L 2356 481 
L 2356 0 
L 1766 0 
Q 1100 0 847 248 
Q 594 497 594 1153 
L 594 3053 
L 172 3053 
L 172 3500 
L 594 3500 
L 594 4494 
L 1172 4494 
z
" transform="scale(0.015625)"/>
       <path id="DejaVuSans-79" d="M 2059 -325 
Q 1816 -950 1584 -1140 
Q 1353 -1331 966 -1331 
L 506 -1331 
L 506 -850 
L 844 -850 
Q 1081 -850 1212 -737 
Q 1344 -625 1503 -206 
L 1606 56 
L 191 3500 
L 800 3500 
L 1894 763 
L 2988 3500 
L 3597 3500 
L 2059 -325 
z
" transform="scale(0.015625)"/>
      </defs>
      <use xlink:href="#DejaVuSans-44"/>
      <use xlink:href="#DejaVuSans-65" x="77.001953"/>
      <use xlink:href="#DejaVuSans-6e" x="138.525391"/>
      <use xlink:href="#DejaVuSans-73" x="201.904297"/>
      <use xlink:href="#DejaVuSans-69" x="254.003906"/>
      <use xlink:href="#DejaVuSans-74" x="281.787109"/>
      <use xlink:href="#DejaVuSans-79" x="320.996094"/>
     </g>
    </g>
   </g>
   <g id="line2d_15">
    <path d="M 107.43898 385.418039 
L 134.960168 385.254643 
L 183.122246 384.878354 
L 196.88284 384.420429 
L 203.763137 384.256782 
L 210.643433 383.861289 
L 234.724473 381.744604 
L 241.604769 381.137766 
L 251.925215 380.896535 
L 255.365363 380.502428 
L 258.805512 379.82505 
L 265.685808 378.18184 
L 269.125957 377.651747 
L 276.006254 376.761832 
L 279.446402 376.152169 
L 282.886551 375.360914 
L 286.326699 374.280447 
L 289.766848 372.926464 
L 293.206996 371.317516 
L 296.647144 369.326585 
L 303.527441 364.758483 
L 306.96759 362.586431 
L 310.407738 360.214258 
L 317.288035 355.313396 
L 320.728184 352.814514 
L 327.60848 346.938432 
L 331.048629 343.939445 
L 334.488777 340.382833 
L 337.928926 336.19485 
L 341.369074 331.815372 
L 344.809223 327.009738 
L 351.689519 316.163594 
L 355.129668 311.591976 
L 358.569816 306.830119 
L 365.450113 295.681908 
L 368.890262 289.737652 
L 375.770559 276.029506 
L 379.210707 270.754415 
L 382.650855 265.970617 
L 386.091004 260.941935 
L 389.531152 257.197731 
L 396.411449 253.159271 
L 399.851598 251.36725 
L 403.291746 251.521677 
L 410.172043 254.390059 
L 413.612191 256.899494 
L 417.05234 261.713805 
L 423.932637 272.769736 
L 427.372785 279.427771 
L 430.812934 287.326159 
L 434.253082 294.79912 
L 437.69323 301.689711 
L 444.573527 316.124164 
L 451.453824 329.212994 
L 454.893973 336.337205 
L 458.334121 343.13582 
L 461.77427 349.083918 
L 465.214418 354.584835 
L 468.654566 359.705323 
L 472.094715 364.063675 
L 475.534863 367.717307 
L 478.975012 370.974902 
L 482.41516 373.79362 
L 485.855309 376.034271 
L 489.295457 377.806412 
L 492.735605 379.25189 
L 496.175754 380.409108 
L 503.056051 382.237356 
L 506.496199 383.017963 
L 509.936348 383.641327 
L 513.376496 384.105834 
L 520.256793 384.685995 
L 527.13709 384.846656 
L 537.457535 384.867834 
L 551.218129 385.260326 
L 561.538574 385.297902 
L 578.739316 385.276195 
L 616.580949 385.476572 
L 650.982434 385.378251 
L 668.183176 385.399115 
L 702.58466 385.478124 
L 792.02852 385.429005 
L 792.02852 385.429005 
" clip-path="url(#pd13d49a4f2)" style="fill: none; stroke: #1f77b4; stroke-width: 1.5; stroke-linecap: square"/>
   </g>
   <g id="line2d_16">
    <path d="M 86.470114 385.477579 
L 122.979022 385.362653 
L 152.186148 385.18509 
L 181.393275 384.923927 
L 206.949511 384.11081 
L 214.251292 383.556599 
L 232.505746 381.968276 
L 239.807528 381.249478 
L 243.458419 381.076631 
L 250.7602 380.969902 
L 254.411091 380.640131 
L 258.061982 379.993517 
L 265.363764 378.244797 
L 269.014655 377.665658 
L 276.316436 376.712112 
L 279.967327 376.046947 
L 283.618218 375.157301 
L 287.269109 373.933258 
L 290.919999 372.420292 
L 294.57089 370.579449 
L 298.221781 368.290754 
L 301.872672 365.825358 
L 309.174454 361.096347 
L 316.476235 355.869308 
L 320.127126 353.278981 
L 323.778017 350.264863 
L 331.079798 343.910565 
L 334.730689 340.10387 
L 338.38158 335.624697 
L 342.032471 330.941854 
L 345.683362 325.660448 
L 349.334253 319.738823 
L 352.985143 314.379112 
L 356.636034 309.601953 
L 360.286925 304.138165 
L 367.588707 292.09123 
L 371.239597 285.077394 
L 374.890488 277.635521 
L 378.541379 271.685737 
L 382.19227 266.634166 
L 385.843161 261.284096 
L 389.494052 257.226872 
L 396.795833 252.914411 
L 400.446724 251.229591 
L 404.097615 251.82763 
L 411.399396 255.040309 
L 415.050287 258.674132 
L 422.352069 270.20837 
L 426.00296 276.564736 
L 433.304741 292.835546 
L 440.606523 307.803526 
L 444.257414 315.493137 
L 451.559195 329.425122 
L 455.210086 336.992101 
L 458.860977 344.097542 
L 462.511868 350.285874 
L 466.162759 356.05081 
L 469.813649 361.269696 
L 473.46454 365.581945 
L 477.115431 369.256405 
L 480.766322 372.511052 
L 484.417213 375.165685 
L 488.068104 377.21608 
L 491.718994 378.855983 
L 495.369885 380.160927 
L 502.671667 382.143256 
L 506.322558 382.981934 
L 509.973448 383.647117 
L 513.624339 384.13429 
L 517.27523 384.487728 
L 520.926121 384.719045 
L 528.227903 384.843974 
L 535.529684 384.831744 
L 557.435029 385.30495 
L 593.943937 385.347276 
L 634.103736 385.464251 
L 670.612644 385.412122 
L 699.819771 385.47812 
L 812.997386 385.477579 
L 812.997386 385.477579 
" clip-path="url(#pd13d49a4f2)" style="fill: none; stroke: #1f77b4; stroke-width: 1.5; stroke-linecap: square"/>
   </g>
   <g id="patch_146">
    <path d="M 50.14375 385.478125 
L 50.14375 22.318125 
" style="fill: none; stroke: #000000; stroke-width: 0.8; stroke-linejoin: miter; stroke-linecap: square"/>
   </g>
   <g id="patch_147">
    <path d="M 849.32375 385.478125 
L 849.32375 22.318125 
" style="fill: none; stroke: #000000; stroke-width: 0.8; stroke-linejoin: miter; stroke-linecap: square"/>
   </g>
   <g id="patch_148">
    <path d="M 50.14375 385.478125 
L 849.32375 385.478125 
" style="fill: none; stroke: #000000; stroke-width: 0.8; stroke-linejoin: miter; stroke-linecap: square"/>
   </g>
   <g id="patch_149">
    <path d="M 50.14375 22.318125 
L 849.32375 22.318125 
" style="fill: none; stroke: #000000; stroke-width: 0.8; stroke-linejoin: miter; stroke-linecap: square"/>
   </g>
   <g id="text_17">
    <!-- Distribution of TCO2 -->
    <g transform="translate(389.091563 16.318125) scale(0.12 -0.12)">
     <defs>
      <path id="DejaVuSans-72" d="M 2631 2963 
Q 2534 3019 2420 3045 
Q 2306 3072 2169 3072 
Q 1681 3072 1420 2755 
Q 1159 2438 1159 1844 
L 1159 0 
L 581 0 
L 581 3500 
L 1159 3500 
L 1159 2956 
Q 1341 3275 1631 3429 
Q 1922 3584 2338 3584 
Q 2397 3584 2469 3576 
Q 2541 3569 2628 3553 
L 2631 2963 
z
" transform="scale(0.015625)"/>
      <path id="DejaVuSans-62" d="M 3116 1747 
Q 3116 2381 2855 2742 
Q 2594 3103 2138 3103 
Q 1681 3103 1420 2742 
Q 1159 2381 1159 1747 
Q 1159 1113 1420 752 
Q 1681 391 2138 391 
Q 2594 391 2855 752 
Q 3116 1113 3116 1747 
z
M 1159 2969 
Q 1341 3281 1617 3432 
Q 1894 3584 2278 3584 
Q 2916 3584 3314 3078 
Q 3713 2572 3713 1747 
Q 3713 922 3314 415 
Q 2916 -91 2278 -91 
Q 1894 -91 1617 61 
Q 1341 213 1159 525 
L 1159 0 
L 581 0 
L 581 4863 
L 1159 4863 
L 1159 2969 
z
" transform="scale(0.015625)"/>
      <path id="DejaVuSans-75" d="M 544 1381 
L 544 3500 
L 1119 3500 
L 1119 1403 
Q 1119 906 1312 657 
Q 1506 409 1894 409 
Q 2359 409 2629 706 
Q 2900 1003 2900 1516 
L 2900 3500 
L 3475 3500 
L 3475 0 
L 2900 0 
L 2900 538 
Q 2691 219 2414 64 
Q 2138 -91 1772 -91 
Q 1169 -91 856 284 
Q 544 659 544 1381 
z
M 1991 3584 
L 1991 3584 
z
" transform="scale(0.015625)"/>
      <path id="DejaVuSans-6f" d="M 1959 3097 
Q 1497 3097 1228 2736 
Q 959 2375 959 1747 
Q 959 1119 1226 758 
Q 1494 397 1959 397 
Q 2419 397 2687 759 
Q 2956 1122 2956 1747 
Q 2956 2369 2687 2733 
Q 2419 3097 1959 3097 
z
M 1959 3584 
Q 2709 3584 3137 3096 
Q 3566 2609 3566 1747 
Q 3566 888 3137 398 
Q 2709 -91 1959 -91 
Q 1206 -91 779 398 
Q 353 888 353 1747 
Q 353 2609 779 3096 
Q 1206 3584 1959 3584 
z
" transform="scale(0.015625)"/>
      <path id="DejaVuSans-20" transform="scale(0.015625)"/>
      <path id="DejaVuSans-66" d="M 2375 4863 
L 2375 4384 
L 1825 4384 
Q 1516 4384 1395 4259 
Q 1275 4134 1275 3809 
L 1275 3500 
L 2222 3500 
L 2222 3053 
L 1275 3053 
L 1275 0 
L 697 0 
L 697 3053 
L 147 3053 
L 147 3500 
L 697 3500 
L 697 3744 
Q 697 4328 969 4595 
Q 1241 4863 1831 4863 
L 2375 4863 
z
" transform="scale(0.015625)"/>
     </defs>
     <use xlink:href="#DejaVuSans-44"/>
     <use xlink:href="#DejaVuSans-69" x="77.001953"/>
     <use xlink:href="#DejaVuSans-73" x="104.785156"/>
     <use xlink:href="#DejaVuSans-74" x="156.884766"/>
     <use xlink:href="#DejaVuSans-72" x="196.09375"/>
     <use xlink:href="#DejaVuSans-69" x="237.207031"/>
     <use xlink:href="#DejaVuSans-62" x="264.990234"/>
     <use xlink:href="#DejaVuSans-75" x="328.466797"/>
     <use xlink:href="#DejaVuSans-74" x="391.845703"/>
     <use xlink:href="#DejaVuSans-69" x="431.054688"/>
     <use xlink:href="#DejaVuSans-6f" x="458.837891"/>
     <use xlink:href="#DejaVuSans-6e" x="520.019531"/>
     <use xlink:href="#DejaVuSans-20" x="583.398438"/>
     <use xlink:href="#DejaVuSans-6f" x="615.185547"/>
     <use xlink:href="#DejaVuSans-66" x="676.367188"/>
     <use xlink:href="#DejaVuSans-20" x="711.572266"/>
     <use xlink:href="#DejaVuSans-54" x="743.359375"/>
     <use xlink:href="#DejaVuSans-43" x="798.568359"/>
     <use xlink:href="#DejaVuSans-4f" x="868.392578"/>
     <use xlink:href="#DejaVuSans-32" x="947.103516"/>
    </g>
   </g>
  </g>
 </g>
 <defs>
  <clipPath id="pd13d49a4f2">
   <rect x="50.14375" y="22.318125" width="799.18" height="363.16"/>
  </clipPath>
 </defs>
</svg>
