<?xml version="1.0" encoding="utf-8" standalone="no"?>
<!DOCTYPE svg PUBLIC "-//W3C//DTD SVG 1.1//EN"
  "http://www.w3.org/Graphics/SVG/1.1/DTD/svg11.dtd">
<svg xmlns:xlink="http://www.w3.org/1999/xlink" width="424.52375pt" height="279.674688pt" viewBox="0 0 424.52375 279.674688" xmlns="http://www.w3.org/2000/svg" version="1.1">
 <metadata>
  <rdf:RDF xmlns:dc="http://purl.org/dc/elements/1.1/" xmlns:cc="http://creativecommons.org/ns#" xmlns:rdf="http://www.w3.org/1999/02/22-rdf-syntax-ns#">
   <cc:Work>
    <dc:type rdf:resource="http://purl.org/dc/dcmitype/StillImage"/>
    <dc:date>2024-08-08T20:37:55.796197</dc:date>
    <dc:format>image/svg+xml</dc:format>
    <dc:creator>
     <cc:Agent>
      <dc:title>Matplotlib v3.9.0, https://matplotlib.org/</dc:title>
     </cc:Agent>
    </dc:creator>
   </cc:Work>
  </rdf:RDF>
 </metadata>
 <defs>
  <style type="text/css">*{stroke-linejoin: round; stroke-linecap: butt}</style>
 </defs>
 <g id="figure_1">
  <g id="patch_1">
   <path d="M 0 279.674688 
L 424.52375 279.674688 
L 424.52375 0 
L 0 0 
z
" style="fill: #ffffff"/>
  </g>
  <g id="axes_1">
   <g id="patch_2">
    <path d="M 50.14375 242.118437 
L 417.32375 242.118437 
L 417.32375 20.798437 
L 50.14375 20.798437 
z
" style="fill: #ffffff"/>
   </g>
   <g id="patch_3">
    <path d="M 76.46781 242.118437 
L 78.667334 242.118437 
L 78.667334 242.008884 
L 76.46781 242.008884 
z
" clip-path="url(#p6e6c020eac)" style="fill: #333333; fill-opacity: 0.6; stroke: #000000; stroke-width: 0.212842; stroke-linejoin: miter"/>
   </g>
   <g id="patch_4">
    <path d="M 78.667334 242.118437 
L 80.866858 242.118437 
L 80.866858 242.118437 
L 78.667334 242.118437 
z
" clip-path="url(#p6e6c020eac)" style="fill: #333333; fill-opacity: 0.6; stroke: #000000; stroke-width: 0.212842; stroke-linejoin: miter"/>
   </g>
   <g id="patch_5">
    <path d="M 80.866858 242.118437 
L 83.066381 242.118437 
L 83.066381 242.008884 
L 80.866858 242.008884 
z
" clip-path="url(#p6e6c020eac)" style="fill: #333333; fill-opacity: 0.6; stroke: #000000; stroke-width: 0.212842; stroke-linejoin: miter"/>
   </g>
   <g id="patch_6">
    <path d="M 83.066381 242.118437 
L 85.265905 242.118437 
L 85.265905 242.118437 
L 83.066381 242.118437 
z
" clip-path="url(#p6e6c020eac)" style="fill: #333333; fill-opacity: 0.6; stroke: #000000; stroke-width: 0.212842; stroke-linejoin: miter"/>
   </g>
   <g id="patch_7">
    <path d="M 85.265905 242.118437 
L 87.465429 242.118437 
L 87.465429 242.118437 
L 85.265905 242.118437 
z
" clip-path="url(#p6e6c020eac)" style="fill: #333333; fill-opacity: 0.6; stroke: #000000; stroke-width: 0.212842; stroke-linejoin: miter"/>
   </g>
   <g id="patch_8">
    <path d="M 87.465429 242.118437 
L 89.664952 242.118437 
L 89.664952 241.789777 
L 87.465429 241.789777 
z
" clip-path="url(#p6e6c020eac)" style="fill: #333333; fill-opacity: 0.6; stroke: #000000; stroke-width: 0.212842; stroke-linejoin: miter"/>
   </g>
   <g id="patch_9">
    <path d="M 89.664952 242.118437 
L 91.864476 242.118437 
L 91.864476 242.118437 
L 89.664952 242.118437 
z
" clip-path="url(#p6e6c020eac)" style="fill: #333333; fill-opacity: 0.6; stroke: #000000; stroke-width: 0.212842; stroke-linejoin: miter"/>
   </g>
   <g id="patch_10">
    <path d="M 91.864476 242.118437 
L 94.064 242.118437 
L 94.064 241.680223 
L 91.864476 241.680223 
z
" clip-path="url(#p6e6c020eac)" style="fill: #333333; fill-opacity: 0.6; stroke: #000000; stroke-width: 0.212842; stroke-linejoin: miter"/>
   </g>
   <g id="patch_11">
    <path d="M 94.064 242.118437 
L 96.263523 242.118437 
L 96.263523 242.118437 
L 94.064 242.118437 
z
" clip-path="url(#p6e6c020eac)" style="fill: #333333; fill-opacity: 0.6; stroke: #000000; stroke-width: 0.212842; stroke-linejoin: miter"/>
   </g>
   <g id="patch_12">
    <path d="M 96.263523 242.118437 
L 98.463047 242.118437 
L 98.463047 242.118437 
L 96.263523 242.118437 
z
" clip-path="url(#p6e6c020eac)" style="fill: #333333; fill-opacity: 0.6; stroke: #000000; stroke-width: 0.212842; stroke-linejoin: miter"/>
   </g>
   <g id="patch_13">
    <path d="M 98.463047 242.118437 
L 100.66257 242.118437 
L 100.66257 241.680223 
L 98.463047 241.680223 
z
" clip-path="url(#p6e6c020eac)" style="fill: #333333; fill-opacity: 0.6; stroke: #000000; stroke-width: 0.212842; stroke-linejoin: miter"/>
   </g>
   <g id="patch_14">
    <path d="M 100.66257 242.118437 
L 102.862094 242.118437 
L 102.862094 242.118437 
L 100.66257 242.118437 
z
" clip-path="url(#p6e6c020eac)" style="fill: #333333; fill-opacity: 0.6; stroke: #000000; stroke-width: 0.212842; stroke-linejoin: miter"/>
   </g>
   <g id="patch_15">
    <path d="M 102.862094 242.118437 
L 105.061618 242.118437 
L 105.061618 241.242009 
L 102.862094 241.242009 
z
" clip-path="url(#p6e6c020eac)" style="fill: #333333; fill-opacity: 0.6; stroke: #000000; stroke-width: 0.212842; stroke-linejoin: miter"/>
   </g>
   <g id="patch_16">
    <path d="M 105.061618 242.118437 
L 107.261141 242.118437 
L 107.261141 242.118437 
L 105.061618 242.118437 
z
" clip-path="url(#p6e6c020eac)" style="fill: #333333; fill-opacity: 0.6; stroke: #000000; stroke-width: 0.212842; stroke-linejoin: miter"/>
   </g>
   <g id="patch_17">
    <path d="M 107.261141 242.118437 
L 109.460665 242.118437 
L 109.460665 242.118437 
L 107.261141 242.118437 
z
" clip-path="url(#p6e6c020eac)" style="fill: #333333; fill-opacity: 0.6; stroke: #000000; stroke-width: 0.212842; stroke-linejoin: miter"/>
   </g>
   <g id="patch_18">
    <path d="M 109.460665 242.118437 
L 111.660189 242.118437 
L 111.660189 241.461116 
L 109.460665 241.461116 
z
" clip-path="url(#p6e6c020eac)" style="fill: #333333; fill-opacity: 0.6; stroke: #000000; stroke-width: 0.212842; stroke-linejoin: miter"/>
   </g>
   <g id="patch_19">
    <path d="M 111.660189 242.118437 
L 113.859712 242.118437 
L 113.859712 242.118437 
L 111.660189 242.118437 
z
" clip-path="url(#p6e6c020eac)" style="fill: #333333; fill-opacity: 0.6; stroke: #000000; stroke-width: 0.212842; stroke-linejoin: miter"/>
   </g>
   <g id="patch_20">
    <path d="M 113.859712 242.118437 
L 116.059236 242.118437 
L 116.059236 240.475135 
L 113.859712 240.475135 
z
" clip-path="url(#p6e6c020eac)" style="fill: #333333; fill-opacity: 0.6; stroke: #000000; stroke-width: 0.212842; stroke-linejoin: miter"/>
   </g>
   <g id="patch_21">
    <path d="M 116.059236 242.118437 
L 118.258759 242.118437 
L 118.258759 242.118437 
L 116.059236 242.118437 
z
" clip-path="url(#p6e6c020eac)" style="fill: #333333; fill-opacity: 0.6; stroke: #000000; stroke-width: 0.212842; stroke-linejoin: miter"/>
   </g>
   <g id="patch_22">
    <path d="M 118.258759 242.118437 
L 120.458283 242.118437 
L 120.458283 242.118437 
L 118.258759 242.118437 
z
" clip-path="url(#p6e6c020eac)" style="fill: #333333; fill-opacity: 0.6; stroke: #000000; stroke-width: 0.212842; stroke-linejoin: miter"/>
   </g>
   <g id="patch_23">
    <path d="M 120.458283 242.118437 
L 122.657807 242.118437 
L 122.657807 240.365581 
L 120.458283 240.365581 
z
" clip-path="url(#p6e6c020eac)" style="fill: #333333; fill-opacity: 0.6; stroke: #000000; stroke-width: 0.212842; stroke-linejoin: miter"/>
   </g>
   <g id="patch_24">
    <path d="M 122.657807 242.118437 
L 124.85733 242.118437 
L 124.85733 242.118437 
L 122.657807 242.118437 
z
" clip-path="url(#p6e6c020eac)" style="fill: #333333; fill-opacity: 0.6; stroke: #000000; stroke-width: 0.212842; stroke-linejoin: miter"/>
   </g>
   <g id="patch_25">
    <path d="M 124.85733 242.118437 
L 127.056854 242.118437 
L 127.056854 238.722279 
L 124.85733 238.722279 
z
" clip-path="url(#p6e6c020eac)" style="fill: #333333; fill-opacity: 0.6; stroke: #000000; stroke-width: 0.212842; stroke-linejoin: miter"/>
   </g>
   <g id="patch_26">
    <path d="M 127.056854 242.118437 
L 129.256378 242.118437 
L 129.256378 242.118437 
L 127.056854 242.118437 
z
" clip-path="url(#p6e6c020eac)" style="fill: #333333; fill-opacity: 0.6; stroke: #000000; stroke-width: 0.212842; stroke-linejoin: miter"/>
   </g>
   <g id="patch_27">
    <path d="M 129.256378 242.118437 
L 131.455901 242.118437 
L 131.455901 242.008884 
L 129.256378 242.008884 
z
" clip-path="url(#p6e6c020eac)" style="fill: #333333; fill-opacity: 0.6; stroke: #000000; stroke-width: 0.212842; stroke-linejoin: miter"/>
   </g>
   <g id="patch_28">
    <path d="M 131.455901 242.118437 
L 133.655425 242.118437 
L 133.655425 237.298083 
L 131.455901 237.298083 
z
" clip-path="url(#p6e6c020eac)" style="fill: #333333; fill-opacity: 0.6; stroke: #000000; stroke-width: 0.212842; stroke-linejoin: miter"/>
   </g>
   <g id="patch_29">
    <path d="M 133.655425 242.118437 
L 135.854948 242.118437 
L 135.854948 242.118437 
L 133.655425 242.118437 
z
" clip-path="url(#p6e6c020eac)" style="fill: #333333; fill-opacity: 0.6; stroke: #000000; stroke-width: 0.212842; stroke-linejoin: miter"/>
   </g>
   <g id="patch_30">
    <path d="M 135.854948 242.118437 
L 138.054472 242.118437 
L 138.054472 242.118437 
L 135.854948 242.118437 
z
" clip-path="url(#p6e6c020eac)" style="fill: #333333; fill-opacity: 0.6; stroke: #000000; stroke-width: 0.212842; stroke-linejoin: miter"/>
   </g>
   <g id="patch_31">
    <path d="M 138.054472 242.118437 
L 140.253996 242.118437 
L 140.253996 234.887906 
L 138.054472 234.887906 
z
" clip-path="url(#p6e6c020eac)" style="fill: #333333; fill-opacity: 0.6; stroke: #000000; stroke-width: 0.212842; stroke-linejoin: miter"/>
   </g>
   <g id="patch_32">
    <path d="M 140.253996 242.118437 
L 142.453519 242.118437 
L 142.453519 242.118437 
L 140.253996 242.118437 
z
" clip-path="url(#p6e6c020eac)" style="fill: #333333; fill-opacity: 0.6; stroke: #000000; stroke-width: 0.212842; stroke-linejoin: miter"/>
   </g>
   <g id="patch_33">
    <path d="M 142.453519 242.118437 
L 144.653043 242.118437 
L 144.653043 235.65478 
L 142.453519 235.65478 
z
" clip-path="url(#p6e6c020eac)" style="fill: #333333; fill-opacity: 0.6; stroke: #000000; stroke-width: 0.212842; stroke-linejoin: miter"/>
   </g>
   <g id="patch_34">
    <path d="M 144.653043 242.118437 
L 146.852567 242.118437 
L 146.852567 242.118437 
L 144.653043 242.118437 
z
" clip-path="url(#p6e6c020eac)" style="fill: #333333; fill-opacity: 0.6; stroke: #000000; stroke-width: 0.212842; stroke-linejoin: miter"/>
   </g>
   <g id="patch_35">
    <path d="M 146.852567 242.118437 
L 149.05209 242.118437 
L 149.05209 242.008884 
L 146.852567 242.008884 
z
" clip-path="url(#p6e6c020eac)" style="fill: #333333; fill-opacity: 0.6; stroke: #000000; stroke-width: 0.212842; stroke-linejoin: miter"/>
   </g>
   <g id="patch_36">
    <path d="M 149.05209 242.118437 
L 151.251614 242.118437 
L 151.251614 230.067551 
L 149.05209 230.067551 
z
" clip-path="url(#p6e6c020eac)" style="fill: #333333; fill-opacity: 0.6; stroke: #000000; stroke-width: 0.212842; stroke-linejoin: miter"/>
   </g>
   <g id="patch_37">
    <path d="M 151.251614 242.118437 
L 153.451138 242.118437 
L 153.451138 242.118437 
L 151.251614 242.118437 
z
" clip-path="url(#p6e6c020eac)" style="fill: #333333; fill-opacity: 0.6; stroke: #000000; stroke-width: 0.212842; stroke-linejoin: miter"/>
   </g>
   <g id="patch_38">
    <path d="M 153.451138 242.118437 
L 155.650661 242.118437 
L 155.650661 228.643356 
L 153.451138 228.643356 
z
" clip-path="url(#p6e6c020eac)" style="fill: #333333; fill-opacity: 0.6; stroke: #000000; stroke-width: 0.212842; stroke-linejoin: miter"/>
   </g>
   <g id="patch_39">
    <path d="M 155.650661 242.118437 
L 157.850185 242.118437 
L 157.850185 242.118437 
L 155.650661 242.118437 
z
" clip-path="url(#p6e6c020eac)" style="fill: #333333; fill-opacity: 0.6; stroke: #000000; stroke-width: 0.212842; stroke-linejoin: miter"/>
   </g>
   <g id="patch_40">
    <path d="M 157.850185 242.118437 
L 160.049708 242.118437 
L 160.049708 241.89933 
L 157.850185 241.89933 
z
" clip-path="url(#p6e6c020eac)" style="fill: #333333; fill-opacity: 0.6; stroke: #000000; stroke-width: 0.212842; stroke-linejoin: miter"/>
   </g>
   <g id="patch_41">
    <path d="M 160.049708 242.118437 
L 162.249232 242.118437 
L 162.249232 223.16568 
L 160.049708 223.16568 
z
" clip-path="url(#p6e6c020eac)" style="fill: #333333; fill-opacity: 0.6; stroke: #000000; stroke-width: 0.212842; stroke-linejoin: miter"/>
   </g>
   <g id="patch_42">
    <path d="M 162.249232 242.118437 
L 164.448756 242.118437 
L 164.448756 242.118437 
L 162.249232 242.118437 
z
" clip-path="url(#p6e6c020eac)" style="fill: #333333; fill-opacity: 0.6; stroke: #000000; stroke-width: 0.212842; stroke-linejoin: miter"/>
   </g>
   <g id="patch_43">
    <path d="M 164.448756 242.118437 
L 166.648279 242.118437 
L 166.648279 210.567027 
L 164.448756 210.567027 
z
" clip-path="url(#p6e6c020eac)" style="fill: #333333; fill-opacity: 0.6; stroke: #000000; stroke-width: 0.212842; stroke-linejoin: miter"/>
   </g>
   <g id="patch_44">
    <path d="M 166.648279 242.118437 
L 168.847803 242.118437 
L 168.847803 242.118437 
L 166.648279 242.118437 
z
" clip-path="url(#p6e6c020eac)" style="fill: #333333; fill-opacity: 0.6; stroke: #000000; stroke-width: 0.212842; stroke-linejoin: miter"/>
   </g>
   <g id="patch_45">
    <path d="M 168.847803 242.118437 
L 171.047327 242.118437 
L 171.047327 241.680223 
L 168.847803 241.680223 
z
" clip-path="url(#p6e6c020eac)" style="fill: #333333; fill-opacity: 0.6; stroke: #000000; stroke-width: 0.212842; stroke-linejoin: miter"/>
   </g>
   <g id="patch_46">
    <path d="M 171.047327 242.118437 
L 173.24685 242.118437 
L 173.24685 198.406587 
L 171.047327 198.406587 
z
" clip-path="url(#p6e6c020eac)" style="fill: #333333; fill-opacity: 0.6; stroke: #000000; stroke-width: 0.212842; stroke-linejoin: miter"/>
   </g>
   <g id="patch_47">
    <path d="M 173.24685 242.118437 
L 175.446374 242.118437 
L 175.446374 241.680223 
L 173.24685 241.680223 
z
" clip-path="url(#p6e6c020eac)" style="fill: #333333; fill-opacity: 0.6; stroke: #000000; stroke-width: 0.212842; stroke-linejoin: miter"/>
   </g>
   <g id="patch_48">
    <path d="M 175.446374 242.118437 
L 177.645897 242.118437 
L 177.645897 183.726417 
L 175.446374 183.726417 
z
" clip-path="url(#p6e6c020eac)" style="fill: #333333; fill-opacity: 0.6; stroke: #000000; stroke-width: 0.212842; stroke-linejoin: miter"/>
   </g>
   <g id="patch_49">
    <path d="M 177.645897 242.118437 
L 179.845421 242.118437 
L 179.845421 241.789777 
L 177.645897 241.789777 
z
" clip-path="url(#p6e6c020eac)" style="fill: #333333; fill-opacity: 0.6; stroke: #000000; stroke-width: 0.212842; stroke-linejoin: miter"/>
   </g>
   <g id="patch_50">
    <path d="M 179.845421 242.118437 
L 182.044945 242.118437 
L 182.044945 242.008884 
L 179.845421 242.008884 
z
" clip-path="url(#p6e6c020eac)" style="fill: #333333; fill-opacity: 0.6; stroke: #000000; stroke-width: 0.212842; stroke-linejoin: miter"/>
   </g>
   <g id="patch_51">
    <path d="M 182.044945 242.118437 
L 184.244468 242.118437 
L 184.244468 164.444999 
L 182.044945 164.444999 
z
" clip-path="url(#p6e6c020eac)" style="fill: #333333; fill-opacity: 0.6; stroke: #000000; stroke-width: 0.212842; stroke-linejoin: miter"/>
   </g>
   <g id="patch_52">
    <path d="M 184.244468 242.118437 
L 186.443992 242.118437 
L 186.443992 241.461116 
L 184.244468 241.461116 
z
" clip-path="url(#p6e6c020eac)" style="fill: #333333; fill-opacity: 0.6; stroke: #000000; stroke-width: 0.212842; stroke-linejoin: miter"/>
   </g>
   <g id="patch_53">
    <path d="M 186.443992 242.118437 
L 188.643516 242.118437 
L 188.643516 241.89933 
L 186.443992 241.89933 
z
" clip-path="url(#p6e6c020eac)" style="fill: #333333; fill-opacity: 0.6; stroke: #000000; stroke-width: 0.212842; stroke-linejoin: miter"/>
   </g>
   <g id="patch_54">
    <path d="M 188.643516 242.118437 
L 190.843039 242.118437 
L 190.843039 133.660463 
L 188.643516 133.660463 
z
" clip-path="url(#p6e6c020eac)" style="fill: #333333; fill-opacity: 0.6; stroke: #000000; stroke-width: 0.212842; stroke-linejoin: miter"/>
   </g>
   <g id="patch_55">
    <path d="M 190.843039 242.118437 
L 193.042563 242.118437 
L 193.042563 241.89933 
L 190.843039 241.89933 
z
" clip-path="url(#p6e6c020eac)" style="fill: #333333; fill-opacity: 0.6; stroke: #000000; stroke-width: 0.212842; stroke-linejoin: miter"/>
   </g>
   <g id="patch_56">
    <path d="M 193.042563 242.118437 
L 195.242086 242.118437 
L 195.242086 109.010923 
L 193.042563 109.010923 
z
" clip-path="url(#p6e6c020eac)" style="fill: #333333; fill-opacity: 0.6; stroke: #000000; stroke-width: 0.212842; stroke-linejoin: miter"/>
   </g>
   <g id="patch_57">
    <path d="M 195.242086 242.118437 
L 197.44161 242.118437 
L 197.44161 241.57067 
L 195.242086 241.57067 
z
" clip-path="url(#p6e6c020eac)" style="fill: #333333; fill-opacity: 0.6; stroke: #000000; stroke-width: 0.212842; stroke-linejoin: miter"/>
   </g>
   <g id="patch_58">
    <path d="M 197.44161 242.118437 
L 199.641134 242.118437 
L 199.641134 241.351563 
L 197.44161 241.351563 
z
" clip-path="url(#p6e6c020eac)" style="fill: #333333; fill-opacity: 0.6; stroke: #000000; stroke-width: 0.212842; stroke-linejoin: miter"/>
   </g>
   <g id="patch_59">
    <path d="M 199.641134 242.118437 
L 201.840657 242.118437 
L 201.840657 69.790767 
L 199.641134 69.790767 
z
" clip-path="url(#p6e6c020eac)" style="fill: #333333; fill-opacity: 0.6; stroke: #000000; stroke-width: 0.212842; stroke-linejoin: miter"/>
   </g>
   <g id="patch_60">
    <path d="M 201.840657 242.118437 
L 204.040181 242.118437 
L 204.040181 241.57067 
L 201.840657 241.57067 
z
" clip-path="url(#p6e6c020eac)" style="fill: #333333; fill-opacity: 0.6; stroke: #000000; stroke-width: 0.212842; stroke-linejoin: miter"/>
   </g>
   <g id="patch_61">
    <path d="M 204.040181 242.118437 
L 206.239705 242.118437 
L 206.239705 42.511943 
L 204.040181 42.511943 
z
" clip-path="url(#p6e6c020eac)" style="fill: #333333; fill-opacity: 0.6; stroke: #000000; stroke-width: 0.212842; stroke-linejoin: miter"/>
   </g>
   <g id="patch_62">
    <path d="M 206.239705 242.118437 
L 208.439228 242.118437 
L 208.439228 241.789777 
L 206.239705 241.789777 
z
" clip-path="url(#p6e6c020eac)" style="fill: #333333; fill-opacity: 0.6; stroke: #000000; stroke-width: 0.212842; stroke-linejoin: miter"/>
   </g>
   <g id="patch_63">
    <path d="M 208.439228 242.118437 
L 210.638752 242.118437 
L 210.638752 241.789777 
L 208.439228 241.789777 
z
" clip-path="url(#p6e6c020eac)" style="fill: #333333; fill-opacity: 0.6; stroke: #000000; stroke-width: 0.212842; stroke-linejoin: miter"/>
   </g>
   <g id="patch_64">
    <path d="M 210.638752 242.118437 
L 212.838276 242.118437 
L 212.838276 31.337485 
L 210.638752 31.337485 
z
" clip-path="url(#p6e6c020eac)" style="fill: #333333; fill-opacity: 0.6; stroke: #000000; stroke-width: 0.212842; stroke-linejoin: miter"/>
   </g>
   <g id="patch_65">
    <path d="M 212.838276 242.118437 
L 215.037799 242.118437 
L 215.037799 241.89933 
L 212.838276 241.89933 
z
" clip-path="url(#p6e6c020eac)" style="fill: #333333; fill-opacity: 0.6; stroke: #000000; stroke-width: 0.212842; stroke-linejoin: miter"/>
   </g>
   <g id="patch_66">
    <path d="M 215.037799 242.118437 
L 217.237323 242.118437 
L 217.237323 38.568017 
L 215.037799 38.568017 
z
" clip-path="url(#p6e6c020eac)" style="fill: #333333; fill-opacity: 0.6; stroke: #000000; stroke-width: 0.212842; stroke-linejoin: miter"/>
   </g>
   <g id="patch_67">
    <path d="M 217.237323 242.118437 
L 219.436846 242.118437 
L 219.436846 241.789777 
L 217.237323 241.789777 
z
" clip-path="url(#p6e6c020eac)" style="fill: #333333; fill-opacity: 0.6; stroke: #000000; stroke-width: 0.212842; stroke-linejoin: miter"/>
   </g>
   <g id="patch_68">
    <path d="M 219.436846 242.118437 
L 221.63637 242.118437 
L 221.63637 241.789777 
L 219.436846 241.789777 
z
" clip-path="url(#p6e6c020eac)" style="fill: #333333; fill-opacity: 0.6; stroke: #000000; stroke-width: 0.212842; stroke-linejoin: miter"/>
   </g>
   <g id="patch_69">
    <path d="M 221.63637 242.118437 
L 223.835894 242.118437 
L 223.835894 69.352553 
L 221.63637 69.352553 
z
" clip-path="url(#p6e6c020eac)" style="fill: #333333; fill-opacity: 0.6; stroke: #000000; stroke-width: 0.212842; stroke-linejoin: miter"/>
   </g>
   <g id="patch_70">
    <path d="M 223.835894 242.118437 
L 226.035417 242.118437 
L 226.035417 242.118437 
L 223.835894 242.118437 
z
" clip-path="url(#p6e6c020eac)" style="fill: #333333; fill-opacity: 0.6; stroke: #000000; stroke-width: 0.212842; stroke-linejoin: miter"/>
   </g>
   <g id="patch_71">
    <path d="M 226.035417 242.118437 
L 228.234941 242.118437 
L 228.234941 112.516636 
L 226.035417 112.516636 
z
" clip-path="url(#p6e6c020eac)" style="fill: #333333; fill-opacity: 0.6; stroke: #000000; stroke-width: 0.212842; stroke-linejoin: miter"/>
   </g>
   <g id="patch_72">
    <path d="M 228.234941 242.118437 
L 230.434465 242.118437 
L 230.434465 242.118437 
L 228.234941 242.118437 
z
" clip-path="url(#p6e6c020eac)" style="fill: #333333; fill-opacity: 0.6; stroke: #000000; stroke-width: 0.212842; stroke-linejoin: miter"/>
   </g>
   <g id="patch_73">
    <path d="M 230.434465 242.118437 
L 232.633988 242.118437 
L 232.633988 242.118437 
L 230.434465 242.118437 
z
" clip-path="url(#p6e6c020eac)" style="fill: #333333; fill-opacity: 0.6; stroke: #000000; stroke-width: 0.212842; stroke-linejoin: miter"/>
   </g>
   <g id="patch_74">
    <path d="M 232.633988 242.118437 
L 234.833512 242.118437 
L 234.833512 149.436168 
L 232.633988 149.436168 
z
" clip-path="url(#p6e6c020eac)" style="fill: #333333; fill-opacity: 0.6; stroke: #000000; stroke-width: 0.212842; stroke-linejoin: miter"/>
   </g>
   <g id="patch_75">
    <path d="M 234.833512 242.118437 
L 237.033035 242.118437 
L 237.033035 242.008884 
L 234.833512 242.008884 
z
" clip-path="url(#p6e6c020eac)" style="fill: #333333; fill-opacity: 0.6; stroke: #000000; stroke-width: 0.212842; stroke-linejoin: miter"/>
   </g>
   <g id="patch_76">
    <path d="M 237.033035 242.118437 
L 239.232559 242.118437 
L 239.232559 242.118437 
L 237.033035 242.118437 
z
" clip-path="url(#p6e6c020eac)" style="fill: #333333; fill-opacity: 0.6; stroke: #000000; stroke-width: 0.212842; stroke-linejoin: miter"/>
   </g>
   <g id="patch_77">
    <path d="M 239.232559 242.118437 
L 241.432083 242.118437 
L 241.432083 188.108557 
L 239.232559 188.108557 
z
" clip-path="url(#p6e6c020eac)" style="fill: #333333; fill-opacity: 0.6; stroke: #000000; stroke-width: 0.212842; stroke-linejoin: miter"/>
   </g>
   <g id="patch_78">
    <path d="M 241.432083 242.118437 
L 243.631606 242.118437 
L 243.631606 242.118437 
L 241.432083 242.118437 
z
" clip-path="url(#p6e6c020eac)" style="fill: #333333; fill-opacity: 0.6; stroke: #000000; stroke-width: 0.212842; stroke-linejoin: miter"/>
   </g>
   <g id="patch_79">
    <path d="M 243.631606 242.118437 
L 245.83113 242.118437 
L 245.83113 214.182293 
L 243.631606 214.182293 
z
" clip-path="url(#p6e6c020eac)" style="fill: #333333; fill-opacity: 0.6; stroke: #000000; stroke-width: 0.212842; stroke-linejoin: miter"/>
   </g>
   <g id="patch_80">
    <path d="M 245.83113 242.118437 
L 248.030654 242.118437 
L 248.030654 242.118437 
L 245.83113 242.118437 
z
" clip-path="url(#p6e6c020eac)" style="fill: #333333; fill-opacity: 0.6; stroke: #000000; stroke-width: 0.212842; stroke-linejoin: miter"/>
   </g>
   <g id="patch_81">
    <path d="M 248.030654 242.118437 
L 250.230177 242.118437 
L 250.230177 241.89933 
L 248.030654 241.89933 
z
" clip-path="url(#p6e6c020eac)" style="fill: #333333; fill-opacity: 0.6; stroke: #000000; stroke-width: 0.212842; stroke-linejoin: miter"/>
   </g>
   <g id="patch_82">
    <path d="M 250.230177 242.118437 
L 252.429701 242.118437 
L 252.429701 229.519784 
L 250.230177 229.519784 
z
" clip-path="url(#p6e6c020eac)" style="fill: #333333; fill-opacity: 0.6; stroke: #000000; stroke-width: 0.212842; stroke-linejoin: miter"/>
   </g>
   <g id="patch_83">
    <path d="M 252.429701 242.118437 
L 254.629224 242.118437 
L 254.629224 242.118437 
L 252.429701 242.118437 
z
" clip-path="url(#p6e6c020eac)" style="fill: #333333; fill-opacity: 0.6; stroke: #000000; stroke-width: 0.212842; stroke-linejoin: miter"/>
   </g>
   <g id="patch_84">
    <path d="M 254.629224 242.118437 
L 256.828748 242.118437 
L 256.828748 235.65478 
L 254.629224 235.65478 
z
" clip-path="url(#p6e6c020eac)" style="fill: #333333; fill-opacity: 0.6; stroke: #000000; stroke-width: 0.212842; stroke-linejoin: miter"/>
   </g>
   <g id="patch_85">
    <path d="M 256.828748 242.118437 
L 259.028272 242.118437 
L 259.028272 242.118437 
L 256.828748 242.118437 
z
" clip-path="url(#p6e6c020eac)" style="fill: #333333; fill-opacity: 0.6; stroke: #000000; stroke-width: 0.212842; stroke-linejoin: miter"/>
   </g>
   <g id="patch_86">
    <path d="M 259.028272 242.118437 
L 261.227795 242.118437 
L 261.227795 242.118437 
L 259.028272 242.118437 
z
" clip-path="url(#p6e6c020eac)" style="fill: #333333; fill-opacity: 0.6; stroke: #000000; stroke-width: 0.212842; stroke-linejoin: miter"/>
   </g>
   <g id="patch_87">
    <path d="M 261.227795 242.118437 
L 263.427319 242.118437 
L 263.427319 239.927367 
L 261.227795 239.927367 
z
" clip-path="url(#p6e6c020eac)" style="fill: #333333; fill-opacity: 0.6; stroke: #000000; stroke-width: 0.212842; stroke-linejoin: miter"/>
   </g>
   <g id="patch_88">
    <path d="M 263.427319 242.118437 
L 265.626843 242.118437 
L 265.626843 242.118437 
L 263.427319 242.118437 
z
" clip-path="url(#p6e6c020eac)" style="fill: #333333; fill-opacity: 0.6; stroke: #000000; stroke-width: 0.212842; stroke-linejoin: miter"/>
   </g>
   <g id="patch_89">
    <path d="M 265.626843 242.118437 
L 267.826366 242.118437 
L 267.826366 241.351563 
L 265.626843 241.351563 
z
" clip-path="url(#p6e6c020eac)" style="fill: #333333; fill-opacity: 0.6; stroke: #000000; stroke-width: 0.212842; stroke-linejoin: miter"/>
   </g>
   <g id="patch_90">
    <path d="M 267.826366 242.118437 
L 270.02589 242.118437 
L 270.02589 242.118437 
L 267.826366 242.118437 
z
" clip-path="url(#p6e6c020eac)" style="fill: #333333; fill-opacity: 0.6; stroke: #000000; stroke-width: 0.212842; stroke-linejoin: miter"/>
   </g>
   <g id="patch_91">
    <path d="M 270.02589 242.118437 
L 272.225414 242.118437 
L 272.225414 242.118437 
L 270.02589 242.118437 
z
" clip-path="url(#p6e6c020eac)" style="fill: #333333; fill-opacity: 0.6; stroke: #000000; stroke-width: 0.212842; stroke-linejoin: miter"/>
   </g>
   <g id="patch_92">
    <path d="M 272.225414 242.118437 
L 274.424937 242.118437 
L 274.424937 240.913349 
L 272.225414 240.913349 
z
" clip-path="url(#p6e6c020eac)" style="fill: #333333; fill-opacity: 0.6; stroke: #000000; stroke-width: 0.212842; stroke-linejoin: miter"/>
   </g>
   <g id="patch_93">
    <path d="M 274.424937 242.118437 
L 276.624461 242.118437 
L 276.624461 242.118437 
L 274.424937 242.118437 
z
" clip-path="url(#p6e6c020eac)" style="fill: #333333; fill-opacity: 0.6; stroke: #000000; stroke-width: 0.212842; stroke-linejoin: miter"/>
   </g>
   <g id="patch_94">
    <path d="M 276.624461 242.118437 
L 278.823984 242.118437 
L 278.823984 241.789777 
L 276.624461 241.789777 
z
" clip-path="url(#p6e6c020eac)" style="fill: #333333; fill-opacity: 0.6; stroke: #000000; stroke-width: 0.212842; stroke-linejoin: miter"/>
   </g>
   <g id="patch_95">
    <path d="M 278.823984 242.118437 
L 281.023508 242.118437 
L 281.023508 242.118437 
L 278.823984 242.118437 
z
" clip-path="url(#p6e6c020eac)" style="fill: #333333; fill-opacity: 0.6; stroke: #000000; stroke-width: 0.212842; stroke-linejoin: miter"/>
   </g>
   <g id="patch_96">
    <path d="M 281.023508 242.118437 
L 283.223032 242.118437 
L 283.223032 242.118437 
L 281.023508 242.118437 
z
" clip-path="url(#p6e6c020eac)" style="fill: #333333; fill-opacity: 0.6; stroke: #000000; stroke-width: 0.212842; stroke-linejoin: miter"/>
   </g>
   <g id="patch_97">
    <path d="M 283.223032 242.118437 
L 285.422555 242.118437 
L 285.422555 241.89933 
L 283.223032 241.89933 
z
" clip-path="url(#p6e6c020eac)" style="fill: #333333; fill-opacity: 0.6; stroke: #000000; stroke-width: 0.212842; stroke-linejoin: miter"/>
   </g>
   <g id="patch_98">
    <path d="M 285.422555 242.118437 
L 287.622079 242.118437 
L 287.622079 242.118437 
L 285.422555 242.118437 
z
" clip-path="url(#p6e6c020eac)" style="fill: #333333; fill-opacity: 0.6; stroke: #000000; stroke-width: 0.212842; stroke-linejoin: miter"/>
   </g>
   <g id="patch_99">
    <path d="M 287.622079 242.118437 
L 289.821603 242.118437 
L 289.821603 242.118437 
L 287.622079 242.118437 
z
" clip-path="url(#p6e6c020eac)" style="fill: #333333; fill-opacity: 0.6; stroke: #000000; stroke-width: 0.212842; stroke-linejoin: miter"/>
   </g>
   <g id="patch_100">
    <path d="M 289.821603 242.118437 
L 292.021126 242.118437 
L 292.021126 241.680223 
L 289.821603 241.680223 
z
" clip-path="url(#p6e6c020eac)" style="fill: #333333; fill-opacity: 0.6; stroke: #000000; stroke-width: 0.212842; stroke-linejoin: miter"/>
   </g>
   <g id="patch_101">
    <path d="M 292.021126 242.118437 
L 294.22065 242.118437 
L 294.22065 242.118437 
L 292.021126 242.118437 
z
" clip-path="url(#p6e6c020eac)" style="fill: #333333; fill-opacity: 0.6; stroke: #000000; stroke-width: 0.212842; stroke-linejoin: miter"/>
   </g>
   <g id="patch_102">
    <path d="M 294.22065 242.118437 
L 296.420173 242.118437 
L 296.420173 241.89933 
L 294.22065 241.89933 
z
" clip-path="url(#p6e6c020eac)" style="fill: #333333; fill-opacity: 0.6; stroke: #000000; stroke-width: 0.212842; stroke-linejoin: miter"/>
   </g>
   <g id="patch_103">
    <path d="M 296.420173 242.118437 
L 298.619697 242.118437 
L 298.619697 242.118437 
L 296.420173 242.118437 
z
" clip-path="url(#p6e6c020eac)" style="fill: #333333; fill-opacity: 0.6; stroke: #000000; stroke-width: 0.212842; stroke-linejoin: miter"/>
   </g>
   <g id="patch_104">
    <path d="M 298.619697 242.118437 
L 300.819221 242.118437 
L 300.819221 242.118437 
L 298.619697 242.118437 
z
" clip-path="url(#p6e6c020eac)" style="fill: #333333; fill-opacity: 0.6; stroke: #000000; stroke-width: 0.212842; stroke-linejoin: miter"/>
   </g>
   <g id="patch_105">
    <path d="M 300.819221 242.118437 
L 303.018744 242.118437 
L 303.018744 241.89933 
L 300.819221 241.89933 
z
" clip-path="url(#p6e6c020eac)" style="fill: #333333; fill-opacity: 0.6; stroke: #000000; stroke-width: 0.212842; stroke-linejoin: miter"/>
   </g>
   <g id="patch_106">
    <path d="M 303.018744 242.118437 
L 305.218268 242.118437 
L 305.218268 242.118437 
L 303.018744 242.118437 
z
" clip-path="url(#p6e6c020eac)" style="fill: #333333; fill-opacity: 0.6; stroke: #000000; stroke-width: 0.212842; stroke-linejoin: miter"/>
   </g>
   <g id="patch_107">
    <path d="M 305.218268 242.118437 
L 307.417792 242.118437 
L 307.417792 242.118437 
L 305.218268 242.118437 
z
" clip-path="url(#p6e6c020eac)" style="fill: #333333; fill-opacity: 0.6; stroke: #000000; stroke-width: 0.212842; stroke-linejoin: miter"/>
   </g>
   <g id="patch_108">
    <path d="M 307.417792 242.118437 
L 309.617315 242.118437 
L 309.617315 242.118437 
L 307.417792 242.118437 
z
" clip-path="url(#p6e6c020eac)" style="fill: #333333; fill-opacity: 0.6; stroke: #000000; stroke-width: 0.212842; stroke-linejoin: miter"/>
   </g>
   <g id="patch_109">
    <path d="M 309.617315 242.118437 
L 311.816839 242.118437 
L 311.816839 242.118437 
L 309.617315 242.118437 
z
" clip-path="url(#p6e6c020eac)" style="fill: #333333; fill-opacity: 0.6; stroke: #000000; stroke-width: 0.212842; stroke-linejoin: miter"/>
   </g>
   <g id="patch_110">
    <path d="M 311.816839 242.118437 
L 314.016362 242.118437 
L 314.016362 242.118437 
L 311.816839 242.118437 
z
" clip-path="url(#p6e6c020eac)" style="fill: #333333; fill-opacity: 0.6; stroke: #000000; stroke-width: 0.212842; stroke-linejoin: miter"/>
   </g>
   <g id="patch_111">
    <path d="M 314.016362 242.118437 
L 316.215886 242.118437 
L 316.215886 242.118437 
L 314.016362 242.118437 
z
" clip-path="url(#p6e6c020eac)" style="fill: #333333; fill-opacity: 0.6; stroke: #000000; stroke-width: 0.212842; stroke-linejoin: miter"/>
   </g>
   <g id="patch_112">
    <path d="M 316.215886 242.118437 
L 318.41541 242.118437 
L 318.41541 242.118437 
L 316.215886 242.118437 
z
" clip-path="url(#p6e6c020eac)" style="fill: #333333; fill-opacity: 0.6; stroke: #000000; stroke-width: 0.212842; stroke-linejoin: miter"/>
   </g>
   <g id="patch_113">
    <path d="M 318.41541 242.118437 
L 320.614933 242.118437 
L 320.614933 242.118437 
L 318.41541 242.118437 
z
" clip-path="url(#p6e6c020eac)" style="fill: #333333; fill-opacity: 0.6; stroke: #000000; stroke-width: 0.212842; stroke-linejoin: miter"/>
   </g>
   <g id="patch_114">
    <path d="M 320.614933 242.118437 
L 322.814457 242.118437 
L 322.814457 242.118437 
L 320.614933 242.118437 
z
" clip-path="url(#p6e6c020eac)" style="fill: #333333; fill-opacity: 0.6; stroke: #000000; stroke-width: 0.212842; stroke-linejoin: miter"/>
   </g>
   <g id="patch_115">
    <path d="M 322.814457 242.118437 
L 325.013981 242.118437 
L 325.013981 242.008884 
L 322.814457 242.008884 
z
" clip-path="url(#p6e6c020eac)" style="fill: #333333; fill-opacity: 0.6; stroke: #000000; stroke-width: 0.212842; stroke-linejoin: miter"/>
   </g>
   <g id="patch_116">
    <path d="M 325.013981 242.118437 
L 327.213504 242.118437 
L 327.213504 242.118437 
L 325.013981 242.118437 
z
" clip-path="url(#p6e6c020eac)" style="fill: #333333; fill-opacity: 0.6; stroke: #000000; stroke-width: 0.212842; stroke-linejoin: miter"/>
   </g>
   <g id="patch_117">
    <path d="M 327.213504 242.118437 
L 329.413028 242.118437 
L 329.413028 241.89933 
L 327.213504 241.89933 
z
" clip-path="url(#p6e6c020eac)" style="fill: #333333; fill-opacity: 0.6; stroke: #000000; stroke-width: 0.212842; stroke-linejoin: miter"/>
   </g>
   <g id="patch_118">
    <path d="M 329.413028 242.118437 
L 331.612552 242.118437 
L 331.612552 242.118437 
L 329.413028 242.118437 
z
" clip-path="url(#p6e6c020eac)" style="fill: #333333; fill-opacity: 0.6; stroke: #000000; stroke-width: 0.212842; stroke-linejoin: miter"/>
   </g>
   <g id="patch_119">
    <path d="M 331.612552 242.118437 
L 333.812075 242.118437 
L 333.812075 242.118437 
L 331.612552 242.118437 
z
" clip-path="url(#p6e6c020eac)" style="fill: #333333; fill-opacity: 0.6; stroke: #000000; stroke-width: 0.212842; stroke-linejoin: miter"/>
   </g>
   <g id="patch_120">
    <path d="M 333.812075 242.118437 
L 336.011599 242.118437 
L 336.011599 242.008884 
L 333.812075 242.008884 
z
" clip-path="url(#p6e6c020eac)" style="fill: #333333; fill-opacity: 0.6; stroke: #000000; stroke-width: 0.212842; stroke-linejoin: miter"/>
   </g>
   <g id="patch_121">
    <path d="M 336.011599 242.118437 
L 338.211122 242.118437 
L 338.211122 242.118437 
L 336.011599 242.118437 
z
" clip-path="url(#p6e6c020eac)" style="fill: #333333; fill-opacity: 0.6; stroke: #000000; stroke-width: 0.212842; stroke-linejoin: miter"/>
   </g>
   <g id="patch_122">
    <path d="M 338.211122 242.118437 
L 340.410646 242.118437 
L 340.410646 242.118437 
L 338.211122 242.118437 
z
" clip-path="url(#p6e6c020eac)" style="fill: #333333; fill-opacity: 0.6; stroke: #000000; stroke-width: 0.212842; stroke-linejoin: miter"/>
   </g>
   <g id="patch_123">
    <path d="M 340.410646 242.118437 
L 342.61017 242.118437 
L 342.61017 242.118437 
L 340.410646 242.118437 
z
" clip-path="url(#p6e6c020eac)" style="fill: #333333; fill-opacity: 0.6; stroke: #000000; stroke-width: 0.212842; stroke-linejoin: miter"/>
   </g>
   <g id="patch_124">
    <path d="M 342.61017 242.118437 
L 344.809693 242.118437 
L 344.809693 242.118437 
L 342.61017 242.118437 
z
" clip-path="url(#p6e6c020eac)" style="fill: #333333; fill-opacity: 0.6; stroke: #000000; stroke-width: 0.212842; stroke-linejoin: miter"/>
   </g>
   <g id="patch_125">
    <path d="M 344.809693 242.118437 
L 347.009217 242.118437 
L 347.009217 242.118437 
L 344.809693 242.118437 
z
" clip-path="url(#p6e6c020eac)" style="fill: #333333; fill-opacity: 0.6; stroke: #000000; stroke-width: 0.212842; stroke-linejoin: miter"/>
   </g>
   <g id="patch_126">
    <path d="M 347.009217 242.118437 
L 349.208741 242.118437 
L 349.208741 242.118437 
L 347.009217 242.118437 
z
" clip-path="url(#p6e6c020eac)" style="fill: #333333; fill-opacity: 0.6; stroke: #000000; stroke-width: 0.212842; stroke-linejoin: miter"/>
   </g>
   <g id="patch_127">
    <path d="M 349.208741 242.118437 
L 351.408264 242.118437 
L 351.408264 242.118437 
L 349.208741 242.118437 
z
" clip-path="url(#p6e6c020eac)" style="fill: #333333; fill-opacity: 0.6; stroke: #000000; stroke-width: 0.212842; stroke-linejoin: miter"/>
   </g>
   <g id="patch_128">
    <path d="M 351.408264 242.118437 
L 353.607788 242.118437 
L 353.607788 242.118437 
L 351.408264 242.118437 
z
" clip-path="url(#p6e6c020eac)" style="fill: #333333; fill-opacity: 0.6; stroke: #000000; stroke-width: 0.212842; stroke-linejoin: miter"/>
   </g>
   <g id="patch_129">
    <path d="M 353.607788 242.118437 
L 355.807311 242.118437 
L 355.807311 242.118437 
L 353.607788 242.118437 
z
" clip-path="url(#p6e6c020eac)" style="fill: #333333; fill-opacity: 0.6; stroke: #000000; stroke-width: 0.212842; stroke-linejoin: miter"/>
   </g>
   <g id="patch_130">
    <path d="M 355.807311 242.118437 
L 358.006835 242.118437 
L 358.006835 242.118437 
L 355.807311 242.118437 
z
" clip-path="url(#p6e6c020eac)" style="fill: #333333; fill-opacity: 0.6; stroke: #000000; stroke-width: 0.212842; stroke-linejoin: miter"/>
   </g>
   <g id="patch_131">
    <path d="M 358.006835 242.118437 
L 360.206359 242.118437 
L 360.206359 242.118437 
L 358.006835 242.118437 
z
" clip-path="url(#p6e6c020eac)" style="fill: #333333; fill-opacity: 0.6; stroke: #000000; stroke-width: 0.212842; stroke-linejoin: miter"/>
   </g>
   <g id="patch_132">
    <path d="M 360.206359 242.118437 
L 362.405882 242.118437 
L 362.405882 242.118437 
L 360.206359 242.118437 
z
" clip-path="url(#p6e6c020eac)" style="fill: #333333; fill-opacity: 0.6; stroke: #000000; stroke-width: 0.212842; stroke-linejoin: miter"/>
   </g>
   <g id="patch_133">
    <path d="M 362.405882 242.118437 
L 364.605406 242.118437 
L 364.605406 242.118437 
L 362.405882 242.118437 
z
" clip-path="url(#p6e6c020eac)" style="fill: #333333; fill-opacity: 0.6; stroke: #000000; stroke-width: 0.212842; stroke-linejoin: miter"/>
   </g>
   <g id="patch_134">
    <path d="M 364.605406 242.118437 
L 366.80493 242.118437 
L 366.80493 242.118437 
L 364.605406 242.118437 
z
" clip-path="url(#p6e6c020eac)" style="fill: #333333; fill-opacity: 0.6; stroke: #000000; stroke-width: 0.212842; stroke-linejoin: miter"/>
   </g>
   <g id="patch_135">
    <path d="M 366.80493 242.118437 
L 369.004453 242.118437 
L 369.004453 242.118437 
L 366.80493 242.118437 
z
" clip-path="url(#p6e6c020eac)" style="fill: #333333; fill-opacity: 0.6; stroke: #000000; stroke-width: 0.212842; stroke-linejoin: miter"/>
   </g>
   <g id="patch_136">
    <path d="M 369.004453 242.118437 
L 371.203977 242.118437 
L 371.203977 242.118437 
L 369.004453 242.118437 
z
" clip-path="url(#p6e6c020eac)" style="fill: #333333; fill-opacity: 0.6; stroke: #000000; stroke-width: 0.212842; stroke-linejoin: miter"/>
   </g>
   <g id="patch_137">
    <path d="M 371.203977 242.118437 
L 373.4035 242.118437 
L 373.4035 242.118437 
L 371.203977 242.118437 
z
" clip-path="url(#p6e6c020eac)" style="fill: #333333; fill-opacity: 0.6; stroke: #000000; stroke-width: 0.212842; stroke-linejoin: miter"/>
   </g>
   <g id="patch_138">
    <path d="M 373.4035 242.118437 
L 375.603024 242.118437 
L 375.603024 242.118437 
L 373.4035 242.118437 
z
" clip-path="url(#p6e6c020eac)" style="fill: #333333; fill-opacity: 0.6; stroke: #000000; stroke-width: 0.212842; stroke-linejoin: miter"/>
   </g>
   <g id="patch_139">
    <path d="M 375.603024 242.118437 
L 377.802548 242.118437 
L 377.802548 242.118437 
L 375.603024 242.118437 
z
" clip-path="url(#p6e6c020eac)" style="fill: #333333; fill-opacity: 0.6; stroke: #000000; stroke-width: 0.212842; stroke-linejoin: miter"/>
   </g>
   <g id="patch_140">
    <path d="M 377.802548 242.118437 
L 380.002071 242.118437 
L 380.002071 242.118437 
L 377.802548 242.118437 
z
" clip-path="url(#p6e6c020eac)" style="fill: #333333; fill-opacity: 0.6; stroke: #000000; stroke-width: 0.212842; stroke-linejoin: miter"/>
   </g>
   <g id="patch_141">
    <path d="M 380.002071 242.118437 
L 382.201595 242.118437 
L 382.201595 242.118437 
L 380.002071 242.118437 
z
" clip-path="url(#p6e6c020eac)" style="fill: #333333; fill-opacity: 0.6; stroke: #000000; stroke-width: 0.212842; stroke-linejoin: miter"/>
   </g>
   <g id="patch_142">
    <path d="M 382.201595 242.118437 
L 384.401119 242.118437 
L 384.401119 242.118437 
L 382.201595 242.118437 
z
" clip-path="url(#p6e6c020eac)" style="fill: #333333; fill-opacity: 0.6; stroke: #000000; stroke-width: 0.212842; stroke-linejoin: miter"/>
   </g>
   <g id="patch_143">
    <path d="M 384.401119 242.118437 
L 386.600642 242.118437 
L 386.600642 242.118437 
L 384.401119 242.118437 
z
" clip-path="url(#p6e6c020eac)" style="fill: #333333; fill-opacity: 0.6; stroke: #000000; stroke-width: 0.212842; stroke-linejoin: miter"/>
   </g>
   <g id="patch_144">
    <path d="M 386.600642 242.118437 
L 388.800166 242.118437 
L 388.800166 242.118437 
L 386.600642 242.118437 
z
" clip-path="url(#p6e6c020eac)" style="fill: #333333; fill-opacity: 0.6; stroke: #000000; stroke-width: 0.212842; stroke-linejoin: miter"/>
   </g>
   <g id="patch_145">
    <path d="M 388.800166 242.118437 
L 390.99969 242.118437 
L 390.99969 242.008884 
L 388.800166 242.008884 
z
" clip-path="url(#p6e6c020eac)" style="fill: #333333; fill-opacity: 0.6; stroke: #000000; stroke-width: 0.212842; stroke-linejoin: miter"/>
   </g>
   <g id="matplotlib.axis_1">
    <g id="xtick_1">
     <g id="line2d_1">
      <defs>
       <path id="mfee37a8b20" d="M 0 0 
L 0 3.5 
" style="stroke: #000000; stroke-width: 0.8"/>
      </defs>
      <g>
       <use xlink:href="#mfee37a8b20" x="59.617888" y="242.118437" style="stroke: #000000; stroke-width: 0.8"/>
      </g>
     </g>
     <g id="text_1">
      <!-- 0 -->
      <g transform="translate(56.436638 256.716875) scale(0.1 -0.1)">
       <defs>
        <path id="DejaVuSans-30" d="M 2034 4250 
Q 1547 4250 1301 3770 
Q 1056 3291 1056 2328 
Q 1056 1369 1301 889 
Q 1547 409 2034 409 
Q 2525 409 2770 889 
Q 3016 1369 3016 2328 
Q 3016 3291 2770 3770 
Q 2525 4250 2034 4250 
z
M 2034 4750 
Q 2819 4750 3233 4129 
Q 3647 3509 3647 2328 
Q 3647 1150 3233 529 
Q 2819 -91 2034 -91 
Q 1250 -91 836 529 
Q 422 1150 422 2328 
Q 422 3509 836 4129 
Q 1250 4750 2034 4750 
z
" transform="scale(0.015625)"/>
       </defs>
       <use xlink:href="#DejaVuSans-30"/>
      </g>
     </g>
    </g>
    <g id="xtick_2">
     <g id="line2d_2">
      <g>
       <use xlink:href="#mfee37a8b20" x="115.784295" y="242.118437" style="stroke: #000000; stroke-width: 0.8"/>
      </g>
     </g>
     <g id="text_2">
      <!-- 10 -->
      <g transform="translate(109.421795 256.716875) scale(0.1 -0.1)">
       <defs>
        <path id="DejaVuSans-31" d="M 794 531 
L 1825 531 
L 1825 4091 
L 703 3866 
L 703 4441 
L 1819 4666 
L 2450 4666 
L 2450 531 
L 3481 531 
L 3481 0 
L 794 0 
L 794 531 
z
" transform="scale(0.015625)"/>
       </defs>
       <use xlink:href="#DejaVuSans-31"/>
       <use xlink:href="#DejaVuSans-30" x="63.623047"/>
      </g>
     </g>
    </g>
    <g id="xtick_3">
     <g id="line2d_3">
      <g>
       <use xlink:href="#mfee37a8b20" x="171.950702" y="242.118437" style="stroke: #000000; stroke-width: 0.8"/>
      </g>
     </g>
     <g id="text_3">
      <!-- 20 -->
      <g transform="translate(165.588202 256.716875) scale(0.1 -0.1)">
       <defs>
        <path id="DejaVuSans-32" d="M 1228 531 
L 3431 531 
L 3431 0 
L 469 0 
L 469 531 
Q 828 903 1448 1529 
Q 2069 2156 2228 2338 
Q 2531 2678 2651 2914 
Q 2772 3150 2772 3378 
Q 2772 3750 2511 3984 
Q 2250 4219 1831 4219 
Q 1534 4219 1204 4116 
Q 875 4013 500 3803 
L 500 4441 
Q 881 4594 1212 4672 
Q 1544 4750 1819 4750 
Q 2544 4750 2975 4387 
Q 3406 4025 3406 3419 
Q 3406 3131 3298 2873 
Q 3191 2616 2906 2266 
Q 2828 2175 2409 1742 
Q 1991 1309 1228 531 
z
" transform="scale(0.015625)"/>
       </defs>
       <use xlink:href="#DejaVuSans-32"/>
       <use xlink:href="#DejaVuSans-30" x="63.623047"/>
      </g>
     </g>
    </g>
    <g id="xtick_4">
     <g id="line2d_4">
      <g>
       <use xlink:href="#mfee37a8b20" x="228.117109" y="242.118437" style="stroke: #000000; stroke-width: 0.8"/>
      </g>
     </g>
     <g id="text_4">
      <!-- 30 -->
      <g transform="translate(221.754609 256.716875) scale(0.1 -0.1)">
       <defs>
        <path id="DejaVuSans-33" d="M 2597 2516 
Q 3050 2419 3304 2112 
Q 3559 1806 3559 1356 
Q 3559 666 3084 287 
Q 2609 -91 1734 -91 
Q 1441 -91 1130 -33 
Q 819 25 488 141 
L 488 750 
Q 750 597 1062 519 
Q 1375 441 1716 441 
Q 2309 441 2620 675 
Q 2931 909 2931 1356 
Q 2931 1769 2642 2001 
Q 2353 2234 1838 2234 
L 1294 2234 
L 1294 2753 
L 1863 2753 
Q 2328 2753 2575 2939 
Q 2822 3125 2822 3475 
Q 2822 3834 2567 4026 
Q 2313 4219 1838 4219 
Q 1578 4219 1281 4162 
Q 984 4106 628 3988 
L 628 4550 
Q 988 4650 1302 4700 
Q 1616 4750 1894 4750 
Q 2613 4750 3031 4423 
Q 3450 4097 3450 3541 
Q 3450 3153 3228 2886 
Q 3006 2619 2597 2516 
z
" transform="scale(0.015625)"/>
       </defs>
       <use xlink:href="#DejaVuSans-33"/>
       <use xlink:href="#DejaVuSans-30" x="63.623047"/>
      </g>
     </g>
    </g>
    <g id="xtick_5">
     <g id="line2d_5">
      <g>
       <use xlink:href="#mfee37a8b20" x="284.283516" y="242.118437" style="stroke: #000000; stroke-width: 0.8"/>
      </g>
     </g>
     <g id="text_5">
      <!-- 40 -->
      <g transform="translate(277.921016 256.716875) scale(0.1 -0.1)">
       <defs>
        <path id="DejaVuSans-34" d="M 2419 4116 
L 825 1625 
L 2419 1625 
L 2419 4116 
z
M 2253 4666 
L 3047 4666 
L 3047 1625 
L 3713 1625 
L 3713 1100 
L 3047 1100 
L 3047 0 
L 2419 0 
L 2419 1100 
L 313 1100 
L 313 1709 
L 2253 4666 
z
" transform="scale(0.015625)"/>
       </defs>
       <use xlink:href="#DejaVuSans-34"/>
       <use xlink:href="#DejaVuSans-30" x="63.623047"/>
      </g>
     </g>
    </g>
    <g id="xtick_6">
     <g id="line2d_6">
      <g>
       <use xlink:href="#mfee37a8b20" x="340.449923" y="242.118437" style="stroke: #000000; stroke-width: 0.8"/>
      </g>
     </g>
     <g id="text_6">
      <!-- 50 -->
      <g transform="translate(334.087423 256.716875) scale(0.1 -0.1)">
       <defs>
        <path id="DejaVuSans-35" d="M 691 4666 
L 3169 4666 
L 3169 4134 
L 1269 4134 
L 1269 2991 
Q 1406 3038 1543 3061 
Q 1681 3084 1819 3084 
Q 2600 3084 3056 2656 
Q 3513 2228 3513 1497 
Q 3513 744 3044 326 
Q 2575 -91 1722 -91 
Q 1428 -91 1123 -41 
Q 819 9 494 109 
L 494 744 
Q 775 591 1075 516 
Q 1375 441 1709 441 
Q 2250 441 2565 725 
Q 2881 1009 2881 1497 
Q 2881 1984 2565 2268 
Q 2250 2553 1709 2553 
Q 1456 2553 1204 2497 
Q 953 2441 691 2322 
L 691 4666 
z
" transform="scale(0.015625)"/>
       </defs>
       <use xlink:href="#DejaVuSans-35"/>
       <use xlink:href="#DejaVuSans-30" x="63.623047"/>
      </g>
     </g>
    </g>
    <g id="xtick_7">
     <g id="line2d_7">
      <g>
       <use xlink:href="#mfee37a8b20" x="396.61633" y="242.118437" style="stroke: #000000; stroke-width: 0.8"/>
      </g>
     </g>
     <g id="text_7">
      <!-- 60 -->
      <g transform="translate(390.25383 256.716875) scale(0.1 -0.1)">
       <defs>
        <path id="DejaVuSans-36" d="M 2113 2584 
Q 1688 2584 1439 2293 
Q 1191 2003 1191 1497 
Q 1191 994 1439 701 
Q 1688 409 2113 409 
Q 2538 409 2786 701 
Q 3034 994 3034 1497 
Q 3034 2003 2786 2293 
Q 2538 2584 2113 2584 
z
M 3366 4563 
L 3366 3988 
Q 3128 4100 2886 4159 
Q 2644 4219 2406 4219 
Q 1781 4219 1451 3797 
Q 1122 3375 1075 2522 
Q 1259 2794 1537 2939 
Q 1816 3084 2150 3084 
Q 2853 3084 3261 2657 
Q 3669 2231 3669 1497 
Q 3669 778 3244 343 
Q 2819 -91 2113 -91 
Q 1303 -91 875 529 
Q 447 1150 447 2328 
Q 447 3434 972 4092 
Q 1497 4750 2381 4750 
Q 2619 4750 2861 4703 
Q 3103 4656 3366 4563 
z
" transform="scale(0.015625)"/>
       </defs>
       <use xlink:href="#DejaVuSans-36"/>
       <use xlink:href="#DejaVuSans-30" x="63.623047"/>
      </g>
     </g>
    </g>
    <g id="text_8">
     <!-- TCO2 -->
     <g transform="translate(220.365 270.395) scale(0.1 -0.1)">
      <defs>
       <path id="DejaVuSans-54" d="M -19 4666 
L 3928 4666 
L 3928 4134 
L 2272 4134 
L 2272 0 
L 1638 0 
L 1638 4134 
L -19 4134 
L -19 4666 
z
" transform="scale(0.015625)"/>
       <path id="DejaVuSans-43" d="M 4122 4306 
L 4122 3641 
Q 3803 3938 3442 4084 
Q 3081 4231 2675 4231 
Q 1875 4231 1450 3742 
Q 1025 3253 1025 2328 
Q 1025 1406 1450 917 
Q 1875 428 2675 428 
Q 3081 428 3442 575 
Q 3803 722 4122 1019 
L 4122 359 
Q 3791 134 3420 21 
Q 3050 -91 2638 -91 
Q 1578 -91 968 557 
Q 359 1206 359 2328 
Q 359 3453 968 4101 
Q 1578 4750 2638 4750 
Q 3056 4750 3426 4639 
Q 3797 4528 4122 4306 
z
" transform="scale(0.015625)"/>
       <path id="DejaVuSans-4f" d="M 2522 4238 
Q 1834 4238 1429 3725 
Q 1025 3213 1025 2328 
Q 1025 1447 1429 934 
Q 1834 422 2522 422 
Q 3209 422 3611 934 
Q 4013 1447 4013 2328 
Q 4013 3213 3611 3725 
Q 3209 4238 2522 4238 
z
M 2522 4750 
Q 3503 4750 4090 4092 
Q 4678 3434 4678 2328 
Q 4678 1225 4090 567 
Q 3503 -91 2522 -91 
Q 1538 -91 948 565 
Q 359 1222 359 2328 
Q 359 3434 948 4092 
Q 1538 4750 2522 4750 
z
" transform="scale(0.015625)"/>
      </defs>
      <use xlink:href="#DejaVuSans-54"/>
      <use xlink:href="#DejaVuSans-43" x="55.208984"/>
      <use xlink:href="#DejaVuSans-4f" x="125.033203"/>
      <use xlink:href="#DejaVuSans-32" x="203.744141"/>
     </g>
    </g>
   </g>
   <g id="matplotlib.axis_2">
    <g id="ytick_1">
     <g id="line2d_8">
      <defs>
       <path id="m11dca82a13" d="M 0 0 
L -3.5 0 
" style="stroke: #000000; stroke-width: 0.8"/>
      </defs>
      <g>
       <use xlink:href="#m11dca82a13" x="50.14375" y="242.118437" style="stroke: #000000; stroke-width: 0.8"/>
      </g>
     </g>
     <g id="text_9">
      <!-- 0.00 -->
      <g transform="translate(20.878125 245.917656) scale(0.1 -0.1)">
       <defs>
        <path id="DejaVuSans-2e" d="M 684 794 
L 1344 794 
L 1344 0 
L 684 0 
L 684 794 
z
" transform="scale(0.015625)"/>
       </defs>
       <use xlink:href="#DejaVuSans-30"/>
       <use xlink:href="#DejaVuSans-2e" x="63.623047"/>
       <use xlink:href="#DejaVuSans-30" x="95.410156"/>
       <use xlink:href="#DejaVuSans-30" x="159.033203"/>
      </g>
     </g>
    </g>
    <g id="ytick_2">
     <g id="line2d_9">
      <g>
       <use xlink:href="#m11dca82a13" x="50.14375" y="206.468959" style="stroke: #000000; stroke-width: 0.8"/>
      </g>
     </g>
     <g id="text_10">
      <!-- 0.05 -->
      <g transform="translate(20.878125 210.268178) scale(0.1 -0.1)">
       <use xlink:href="#DejaVuSans-30"/>
       <use xlink:href="#DejaVuSans-2e" x="63.623047"/>
       <use xlink:href="#DejaVuSans-30" x="95.410156"/>
       <use xlink:href="#DejaVuSans-35" x="159.033203"/>
      </g>
     </g>
    </g>
    <g id="ytick_3">
     <g id="line2d_10">
      <g>
       <use xlink:href="#m11dca82a13" x="50.14375" y="170.819481" style="stroke: #000000; stroke-width: 0.8"/>
      </g>
     </g>
     <g id="text_11">
      <!-- 0.10 -->
      <g transform="translate(20.878125 174.6187) scale(0.1 -0.1)">
       <use xlink:href="#DejaVuSans-30"/>
       <use xlink:href="#DejaVuSans-2e" x="63.623047"/>
       <use xlink:href="#DejaVuSans-31" x="95.410156"/>
       <use xlink:href="#DejaVuSans-30" x="159.033203"/>
      </g>
     </g>
    </g>
    <g id="ytick_4">
     <g id="line2d_11">
      <g>
       <use xlink:href="#m11dca82a13" x="50.14375" y="135.170003" style="stroke: #000000; stroke-width: 0.8"/>
      </g>
     </g>
     <g id="text_12">
      <!-- 0.15 -->
      <g transform="translate(20.878125 138.969222) scale(0.1 -0.1)">
       <use xlink:href="#DejaVuSans-30"/>
       <use xlink:href="#DejaVuSans-2e" x="63.623047"/>
       <use xlink:href="#DejaVuSans-31" x="95.410156"/>
       <use xlink:href="#DejaVuSans-35" x="159.033203"/>
      </g>
     </g>
    </g>
    <g id="ytick_5">
     <g id="line2d_12">
      <g>
       <use xlink:href="#m11dca82a13" x="50.14375" y="99.520525" style="stroke: #000000; stroke-width: 0.8"/>
      </g>
     </g>
     <g id="text_13">
      <!-- 0.20 -->
      <g transform="translate(20.878125 103.319744) scale(0.1 -0.1)">
       <use xlink:href="#DejaVuSans-30"/>
       <use xlink:href="#DejaVuSans-2e" x="63.623047"/>
       <use xlink:href="#DejaVuSans-32" x="95.410156"/>
       <use xlink:href="#DejaVuSans-30" x="159.033203"/>
      </g>
     </g>
    </g>
    <g id="ytick_6">
     <g id="line2d_13">
      <g>
       <use xlink:href="#m11dca82a13" x="50.14375" y="63.871047" style="stroke: #000000; stroke-width: 0.8"/>
      </g>
     </g>
     <g id="text_14">
      <!-- 0.25 -->
      <g transform="translate(20.878125 67.670266) scale(0.1 -0.1)">
       <use xlink:href="#DejaVuSans-30"/>
       <use xlink:href="#DejaVuSans-2e" x="63.623047"/>
       <use xlink:href="#DejaVuSans-32" x="95.410156"/>
       <use xlink:href="#DejaVuSans-35" x="159.033203"/>
      </g>
     </g>
    </g>
    <g id="ytick_7">
     <g id="line2d_14">
      <g>
       <use xlink:href="#m11dca82a13" x="50.14375" y="28.221569" style="stroke: #000000; stroke-width: 0.8"/>
      </g>
     </g>
     <g id="text_15">
      <!-- 0.30 -->
      <g transform="translate(20.878125 32.020788) scale(0.1 -0.1)">
       <use xlink:href="#DejaVuSans-30"/>
       <use xlink:href="#DejaVuSans-2e" x="63.623047"/>
       <use xlink:href="#DejaVuSans-33" x="95.410156"/>
       <use xlink:href="#DejaVuSans-30" x="159.033203"/>
      </g>
     </g>
    </g>
    <g id="text_16">
     <!-- Density -->
     <g transform="translate(14.798438 150.467031) rotate(-90) scale(0.1 -0.1)">
      <defs>
       <path id="DejaVuSans-44" d="M 1259 4147 
L 1259 519 
L 2022 519 
Q 2988 519 3436 956 
Q 3884 1394 3884 2338 
Q 3884 3275 3436 3711 
Q 2988 4147 2022 4147 
L 1259 4147 
z
M 628 4666 
L 1925 4666 
Q 3281 4666 3915 4102 
Q 4550 3538 4550 2338 
Q 4550 1131 3912 565 
Q 3275 0 1925 0 
L 628 0 
L 628 4666 
z
" transform="scale(0.015625)"/>
       <path id="DejaVuSans-65" d="M 3597 1894 
L 3597 1613 
L 953 1613 
Q 991 1019 1311 708 
Q 1631 397 2203 397 
Q 2534 397 2845 478 
Q 3156 559 3463 722 
L 3463 178 
Q 3153 47 2828 -22 
Q 2503 -91 2169 -91 
Q 1331 -91 842 396 
Q 353 884 353 1716 
Q 353 2575 817 3079 
Q 1281 3584 2069 3584 
Q 2775 3584 3186 3129 
Q 3597 2675 3597 1894 
z
M 3022 2063 
Q 3016 2534 2758 2815 
Q 2500 3097 2075 3097 
Q 1594 3097 1305 2825 
Q 1016 2553 972 2059 
L 3022 2063 
z
" transform="scale(0.015625)"/>
       <path id="DejaVuSans-6e" d="M 3513 2113 
L 3513 0 
L 2938 0 
L 2938 2094 
Q 2938 2591 2744 2837 
Q 2550 3084 2163 3084 
Q 1697 3084 1428 2787 
Q 1159 2491 1159 1978 
L 1159 0 
L 581 0 
L 581 3500 
L 1159 3500 
L 1159 2956 
Q 1366 3272 1645 3428 
Q 1925 3584 2291 3584 
Q 2894 3584 3203 3211 
Q 3513 2838 3513 2113 
z
" transform="scale(0.015625)"/>
       <path id="DejaVuSans-73" d="M 2834 3397 
L 2834 2853 
Q 2591 2978 2328 3040 
Q 2066 3103 1784 3103 
Q 1356 3103 1142 2972 
Q 928 2841 928 2578 
Q 928 2378 1081 2264 
Q 1234 2150 1697 2047 
L 1894 2003 
Q 2506 1872 2764 1633 
Q 3022 1394 3022 966 
Q 3022 478 2636 193 
Q 2250 -91 1575 -91 
Q 1294 -91 989 -36 
Q 684 19 347 128 
L 347 722 
Q 666 556 975 473 
Q 1284 391 1588 391 
Q 1994 391 2212 530 
Q 2431 669 2431 922 
Q 2431 1156 2273 1281 
Q 2116 1406 1581 1522 
L 1381 1569 
Q 847 1681 609 1914 
Q 372 2147 372 2553 
Q 372 3047 722 3315 
Q 1072 3584 1716 3584 
Q 2034 3584 2315 3537 
Q 2597 3491 2834 3397 
z
" transform="scale(0.015625)"/>
       <path id="DejaVuSans-69" d="M 603 3500 
L 1178 3500 
L 1178 0 
L 603 0 
L 603 3500 
z
M 603 4863 
L 1178 4863 
L 1178 4134 
L 603 4134 
L 603 4863 
z
" transform="scale(0.015625)"/>
       <path id="DejaVuSans-74" d="M 1172 4494 
L 1172 3500 
L 2356 3500 
L 2356 3053 
L 1172 3053 
L 1172 1153 
Q 1172 725 1289 603 
Q 1406 481 1766 481 
L 2356 481 
L 2356 0 
L 1766 0 
Q 1100 0 847 248 
Q 594 497 594 1153 
L 594 3053 
L 172 3053 
L 172 3500 
L 594 3500 
L 594 4494 
L 1172 4494 
z
" transform="scale(0.015625)"/>
       <path id="DejaVuSans-79" d="M 2059 -325 
Q 1816 -950 1584 -1140 
Q 1353 -1331 966 -1331 
L 506 -1331 
L 506 -850 
L 844 -850 
Q 1081 -850 1212 -737 
Q 1344 -625 1503 -206 
L 1606 56 
L 191 3500 
L 800 3500 
L 1894 763 
L 2988 3500 
L 3597 3500 
L 2059 -325 
z
" transform="scale(0.015625)"/>
      </defs>
      <use xlink:href="#DejaVuSans-44"/>
      <use xlink:href="#DejaVuSans-65" x="77.001953"/>
      <use xlink:href="#DejaVuSans-6e" x="138.525391"/>
      <use xlink:href="#DejaVuSans-73" x="201.904297"/>
      <use xlink:href="#DejaVuSans-69" x="254.003906"/>
      <use xlink:href="#DejaVuSans-74" x="281.787109"/>
      <use xlink:href="#DejaVuSans-79" x="320.996094"/>
     </g>
    </g>
   </g>
   <g id="line2d_15">
    <path d="M 66.83375 242.118105 
L 86.962393 242.004379 
L 113.800584 241.619604 
L 125.542293 240.947405 
L 138.961388 239.436042 
L 142.316162 239.370999 
L 143.993549 239.170027 
L 145.670936 238.775962 
L 149.02571 237.710243 
L 152.380484 237.093412 
L 155.735258 236.370811 
L 157.412644 235.828635 
L 159.090031 235.082669 
L 160.767418 234.160624 
L 162.444805 233.038762 
L 167.476966 228.728146 
L 169.154353 227.259491 
L 175.863901 220.658477 
L 179.218675 216.785988 
L 180.896062 214.46608 
L 184.250835 208.882488 
L 185.928222 205.663849 
L 187.605609 202.055043 
L 189.282996 198.788683 
L 190.960383 195.877347 
L 192.63777 192.54756 
L 195.992544 185.205816 
L 199.347318 176.396097 
L 201.024705 172.77013 
L 204.379479 166.431075 
L 206.056866 163.958488 
L 209.411639 161.330352 
L 211.089026 160.303575 
L 212.766413 160.668037 
L 216.121187 162.625935 
L 217.798574 164.840489 
L 221.153348 171.869781 
L 222.830735 175.743531 
L 226.185509 185.659424 
L 229.540283 194.781334 
L 231.21767 199.467602 
L 234.572443 207.958148 
L 237.927217 216.899937 
L 241.281991 224.184597 
L 242.959378 227.365134 
L 244.636765 229.993142 
L 246.314152 232.232461 
L 247.991539 234.215935 
L 249.668926 235.833744 
L 251.346313 237.083313 
L 253.0237 238.082716 
L 254.701087 238.877987 
L 258.055861 240.086074 
L 261.410634 241.002569 
L 264.765408 241.514861 
L 268.120182 241.722853 
L 276.507117 241.855232 
L 281.539278 242.002623 
L 316.764403 242.115298 
L 350.312142 242.118437 
L 400.63375 242.118105 
L 400.63375 242.118105 
" clip-path="url(#p6e6c020eac)" style="fill: none; stroke: #ff0000; stroke-width: 1.5; stroke-linecap: square"/>
   </g>
   <g id="patch_146">
    <path d="M 50.14375 242.118437 
L 50.14375 20.798437 
" style="fill: none; stroke: #000000; stroke-width: 0.8; stroke-linejoin: miter; stroke-linecap: square"/>
   </g>
   <g id="patch_147">
    <path d="M 417.32375 242.118437 
L 417.32375 20.798437 
" style="fill: none; stroke: #000000; stroke-width: 0.8; stroke-linejoin: miter; stroke-linecap: square"/>
   </g>
   <g id="patch_148">
    <path d="M 50.14375 242.118437 
L 417.32375 242.118437 
" style="fill: none; stroke: #000000; stroke-width: 0.8; stroke-linejoin: miter; stroke-linecap: square"/>
   </g>
   <g id="patch_149">
    <path d="M 50.14375 20.798437 
L 417.32375 20.798437 
" style="fill: none; stroke: #000000; stroke-width: 0.8; stroke-linejoin: miter; stroke-linecap: square"/>
   </g>
   <g id="text_17">
    <!-- Distribution of TCO2 -->
    <g transform="translate(183.198594 14.798437) scale(0.1 -0.1)">
     <defs>
      <path id="DejaVuSans-72" d="M 2631 2963 
Q 2534 3019 2420 3045 
Q 2306 3072 2169 3072 
Q 1681 3072 1420 2755 
Q 1159 2438 1159 1844 
L 1159 0 
L 581 0 
L 581 3500 
L 1159 3500 
L 1159 2956 
Q 1341 3275 1631 3429 
Q 1922 3584 2338 3584 
Q 2397 3584 2469 3576 
Q 2541 3569 2628 3553 
L 2631 2963 
z
" transform="scale(0.015625)"/>
      <path id="DejaVuSans-62" d="M 3116 1747 
Q 3116 2381 2855 2742 
Q 2594 3103 2138 3103 
Q 1681 3103 1420 2742 
Q 1159 2381 1159 1747 
Q 1159 1113 1420 752 
Q 1681 391 2138 391 
Q 2594 391 2855 752 
Q 3116 1113 3116 1747 
z
M 1159 2969 
Q 1341 3281 1617 3432 
Q 1894 3584 2278 3584 
Q 2916 3584 3314 3078 
Q 3713 2572 3713 1747 
Q 3713 922 3314 415 
Q 2916 -91 2278 -91 
Q 1894 -91 1617 61 
Q 1341 213 1159 525 
L 1159 0 
L 581 0 
L 581 4863 
L 1159 4863 
L 1159 2969 
z
" transform="scale(0.015625)"/>
      <path id="DejaVuSans-75" d="M 544 1381 
L 544 3500 
L 1119 3500 
L 1119 1403 
Q 1119 906 1312 657 
Q 1506 409 1894 409 
Q 2359 409 2629 706 
Q 2900 1003 2900 1516 
L 2900 3500 
L 3475 3500 
L 3475 0 
L 2900 0 
L 2900 538 
Q 2691 219 2414 64 
Q 2138 -91 1772 -91 
Q 1169 -91 856 284 
Q 544 659 544 1381 
z
M 1991 3584 
L 1991 3584 
z
" transform="scale(0.015625)"/>
      <path id="DejaVuSans-6f" d="M 1959 3097 
Q 1497 3097 1228 2736 
Q 959 2375 959 1747 
Q 959 1119 1226 758 
Q 1494 397 1959 397 
Q 2419 397 2687 759 
Q 2956 1122 2956 1747 
Q 2956 2369 2687 2733 
Q 2419 3097 1959 3097 
z
M 1959 3584 
Q 2709 3584 3137 3096 
Q 3566 2609 3566 1747 
Q 3566 888 3137 398 
Q 2709 -91 1959 -91 
Q 1206 -91 779 398 
Q 353 888 353 1747 
Q 353 2609 779 3096 
Q 1206 3584 1959 3584 
z
" transform="scale(0.015625)"/>
      <path id="DejaVuSans-20" transform="scale(0.015625)"/>
      <path id="DejaVuSans-66" d="M 2375 4863 
L 2375 4384 
L 1825 4384 
Q 1516 4384 1395 4259 
Q 1275 4134 1275 3809 
L 1275 3500 
L 2222 3500 
L 2222 3053 
L 1275 3053 
L 1275 0 
L 697 0 
L 697 3053 
L 147 3053 
L 147 3500 
L 697 3500 
L 697 3744 
Q 697 4328 969 4595 
Q 1241 4863 1831 4863 
L 2375 4863 
z
" transform="scale(0.015625)"/>
     </defs>
     <use xlink:href="#DejaVuSans-44"/>
     <use xlink:href="#DejaVuSans-69" x="77.001953"/>
     <use xlink:href="#DejaVuSans-73" x="104.785156"/>
     <use xlink:href="#DejaVuSans-74" x="156.884766"/>
     <use xlink:href="#DejaVuSans-72" x="196.09375"/>
     <use xlink:href="#DejaVuSans-69" x="237.207031"/>
     <use xlink:href="#DejaVuSans-62" x="264.990234"/>
     <use xlink:href="#DejaVuSans-75" x="328.466797"/>
     <use xlink:href="#DejaVuSans-74" x="391.845703"/>
     <use xlink:href="#DejaVuSans-69" x="431.054688"/>
     <use xlink:href="#DejaVuSans-6f" x="458.837891"/>
     <use xlink:href="#DejaVuSans-6e" x="520.019531"/>
     <use xlink:href="#DejaVuSans-20" x="583.398438"/>
     <use xlink:href="#DejaVuSans-6f" x="615.185547"/>
     <use xlink:href="#DejaVuSans-66" x="676.367188"/>
     <use xlink:href="#DejaVuSans-20" x="711.572266"/>
     <use xlink:href="#DejaVuSans-54" x="743.359375"/>
     <use xlink:href="#DejaVuSans-43" x="798.568359"/>
     <use xlink:href="#DejaVuSans-4f" x="868.392578"/>
     <use xlink:href="#DejaVuSans-32" x="947.103516"/>
    </g>
   </g>
  </g>
 </g>
 <defs>
  <clipPath id="p6e6c020eac">
   <rect x="50.14375" y="20.798437" width="367.18" height="221.32"/>
  </clipPath>
 </defs>
</svg>
