<?xml version="1.0" encoding="utf-8" standalone="no"?>
<!DOCTYPE svg PUBLIC "-//W3C//DTD SVG 1.1//EN"
  "http://www.w3.org/Graphics/SVG/1.1/DTD/svg11.dtd">
<svg xmlns:xlink="http://www.w3.org/1999/xlink" width="424.49625pt" height="279.674688pt" viewBox="0 0 424.49625 279.674688" xmlns="http://www.w3.org/2000/svg" version="1.1">
 <metadata>
  <rdf:RDF xmlns:dc="http://purl.org/dc/elements/1.1/" xmlns:cc="http://creativecommons.org/ns#" xmlns:rdf="http://www.w3.org/1999/02/22-rdf-syntax-ns#">
   <cc:Work>
    <dc:type rdf:resource="http://purl.org/dc/dcmitype/StillImage"/>
    <dc:date>2024-08-08T20:37:52.657865</dc:date>
    <dc:format>image/svg+xml</dc:format>
    <dc:creator>
     <cc:Agent>
      <dc:title>Matplotlib v3.9.0, https://matplotlib.org/</dc:title>
     </cc:Agent>
    </dc:creator>
   </cc:Work>
  </rdf:RDF>
 </metadata>
 <defs>
  <style type="text/css">*{stroke-linejoin: round; stroke-linecap: butt}</style>
 </defs>
 <g id="figure_1">
  <g id="patch_1">
   <path d="M 0 279.674688 
L 424.49625 279.674688 
L 424.49625 0 
L 0 0 
z
" style="fill: #ffffff"/>
  </g>
  <g id="axes_1">
   <g id="patch_2">
    <path d="M 56.50625 242.118437 
L 417.29625 242.118437 
L 417.29625 20.798437 
L 56.50625 20.798437 
z
" style="fill: #ffffff"/>
   </g>
   <g id="patch_3">
    <path d="M 82.883777 242.118437 
L 85.115915 242.118437 
L 85.115915 217.013631 
L 82.883777 217.013631 
z
" clip-path="url(#pe38e08d53b)" style="fill: #333333; fill-opacity: 0.6; stroke: #000000; stroke-width: 0.220553; stroke-linejoin: miter"/>
   </g>
   <g id="patch_4">
    <path d="M 85.115915 242.118437 
L 87.348052 242.118437 
L 87.348052 191.163137 
L 85.115915 191.163137 
z
" clip-path="url(#pe38e08d53b)" style="fill: #333333; fill-opacity: 0.6; stroke: #000000; stroke-width: 0.220553; stroke-linejoin: miter"/>
   </g>
   <g id="patch_5">
    <path d="M 87.348052 242.118437 
L 89.580189 242.118437 
L 89.580189 175.503703 
L 87.348052 175.503703 
z
" clip-path="url(#pe38e08d53b)" style="fill: #333333; fill-opacity: 0.6; stroke: #000000; stroke-width: 0.220553; stroke-linejoin: miter"/>
   </g>
   <g id="patch_6">
    <path d="M 89.580189 242.118437 
L 91.812327 242.118437 
L 91.812327 173.266641 
L 89.580189 173.266641 
z
" clip-path="url(#pe38e08d53b)" style="fill: #333333; fill-opacity: 0.6; stroke: #000000; stroke-width: 0.220553; stroke-linejoin: miter"/>
   </g>
   <g id="patch_7">
    <path d="M 91.812327 242.118437 
L 94.044464 242.118437 
L 94.044464 177.492202 
L 91.812327 177.492202 
z
" clip-path="url(#pe38e08d53b)" style="fill: #333333; fill-opacity: 0.6; stroke: #000000; stroke-width: 0.220553; stroke-linejoin: miter"/>
   </g>
   <g id="patch_8">
    <path d="M 94.044464 242.118437 
L 96.276601 242.118437 
L 96.276601 189.174637 
L 94.044464 189.174637 
z
" clip-path="url(#pe38e08d53b)" style="fill: #333333; fill-opacity: 0.6; stroke: #000000; stroke-width: 0.220553; stroke-linejoin: miter"/>
   </g>
   <g id="patch_9">
    <path d="M 96.276601 242.118437 
L 98.508738 242.118437 
L 98.508738 187.683262 
L 96.276601 187.683262 
z
" clip-path="url(#pe38e08d53b)" style="fill: #333333; fill-opacity: 0.6; stroke: #000000; stroke-width: 0.220553; stroke-linejoin: miter"/>
   </g>
   <g id="patch_10">
    <path d="M 98.508738 242.118437 
L 100.740876 242.118437 
L 100.740876 178.983577 
L 98.508738 178.983577 
z
" clip-path="url(#pe38e08d53b)" style="fill: #333333; fill-opacity: 0.6; stroke: #000000; stroke-width: 0.220553; stroke-linejoin: miter"/>
   </g>
   <g id="patch_11">
    <path d="M 100.740876 242.118437 
L 102.973013 242.118437 
L 102.973013 176.24939 
L 100.740876 176.24939 
z
" clip-path="url(#pe38e08d53b)" style="fill: #333333; fill-opacity: 0.6; stroke: #000000; stroke-width: 0.220553; stroke-linejoin: miter"/>
   </g>
   <g id="patch_12">
    <path d="M 102.973013 242.118437 
L 105.20515 242.118437 
L 105.20515 174.012328 
L 102.973013 174.012328 
z
" clip-path="url(#pe38e08d53b)" style="fill: #333333; fill-opacity: 0.6; stroke: #000000; stroke-width: 0.220553; stroke-linejoin: miter"/>
   </g>
   <g id="patch_13">
    <path d="M 105.20515 242.118437 
L 107.437288 242.118437 
L 107.437288 159.347144 
L 105.20515 159.347144 
z
" clip-path="url(#pe38e08d53b)" style="fill: #333333; fill-opacity: 0.6; stroke: #000000; stroke-width: 0.220553; stroke-linejoin: miter"/>
   </g>
   <g id="patch_14">
    <path d="M 107.437288 242.118437 
L 109.669425 242.118437 
L 109.669425 152.635958 
L 107.437288 152.635958 
z
" clip-path="url(#pe38e08d53b)" style="fill: #333333; fill-opacity: 0.6; stroke: #000000; stroke-width: 0.220553; stroke-linejoin: miter"/>
   </g>
   <g id="patch_15">
    <path d="M 109.669425 242.118437 
L 111.901562 242.118437 
L 111.901562 163.572705 
L 109.669425 163.572705 
z
" clip-path="url(#pe38e08d53b)" style="fill: #333333; fill-opacity: 0.6; stroke: #000000; stroke-width: 0.220553; stroke-linejoin: miter"/>
   </g>
   <g id="patch_16">
    <path d="M 111.901562 242.118437 
L 114.133699 242.118437 
L 114.133699 143.68771 
L 111.901562 143.68771 
z
" clip-path="url(#pe38e08d53b)" style="fill: #333333; fill-opacity: 0.6; stroke: #000000; stroke-width: 0.220553; stroke-linejoin: miter"/>
   </g>
   <g id="patch_17">
    <path d="M 114.133699 242.118437 
L 116.365837 242.118437 
L 116.365837 132.005275 
L 114.133699 132.005275 
z
" clip-path="url(#pe38e08d53b)" style="fill: #333333; fill-opacity: 0.6; stroke: #000000; stroke-width: 0.220553; stroke-linejoin: miter"/>
   </g>
   <g id="patch_18">
    <path d="M 116.365837 242.118437 
L 118.597974 242.118437 
L 118.597974 117.091528 
L 116.365837 117.091528 
z
" clip-path="url(#pe38e08d53b)" style="fill: #333333; fill-opacity: 0.6; stroke: #000000; stroke-width: 0.220553; stroke-linejoin: miter"/>
   </g>
   <g id="patch_19">
    <path d="M 118.597974 242.118437 
L 120.830111 242.118437 
L 120.830111 116.842966 
L 118.597974 116.842966 
z
" clip-path="url(#pe38e08d53b)" style="fill: #333333; fill-opacity: 0.6; stroke: #000000; stroke-width: 0.220553; stroke-linejoin: miter"/>
   </g>
   <g id="patch_20">
    <path d="M 120.830111 242.118437 
L 123.062249 242.118437 
L 123.062249 117.588653 
L 120.830111 117.588653 
z
" clip-path="url(#pe38e08d53b)" style="fill: #333333; fill-opacity: 0.6; stroke: #000000; stroke-width: 0.220553; stroke-linejoin: miter"/>
   </g>
   <g id="patch_21">
    <path d="M 123.062249 242.118437 
L 125.294386 242.118437 
L 125.294386 64.893415 
L 123.062249 64.893415 
z
" clip-path="url(#pe38e08d53b)" style="fill: #333333; fill-opacity: 0.6; stroke: #000000; stroke-width: 0.220553; stroke-linejoin: miter"/>
   </g>
   <g id="patch_22">
    <path d="M 125.294386 242.118437 
L 127.526523 242.118437 
L 127.526523 110.13178 
L 125.294386 110.13178 
z
" clip-path="url(#pe38e08d53b)" style="fill: #333333; fill-opacity: 0.6; stroke: #000000; stroke-width: 0.220553; stroke-linejoin: miter"/>
   </g>
   <g id="patch_23">
    <path d="M 127.526523 242.118437 
L 129.75866 242.118437 
L 129.75866 46.996919 
L 127.526523 46.996919 
z
" clip-path="url(#pe38e08d53b)" style="fill: #333333; fill-opacity: 0.6; stroke: #000000; stroke-width: 0.220553; stroke-linejoin: miter"/>
   </g>
   <g id="patch_24">
    <path d="M 129.75866 242.118437 
L 131.990798 242.118437 
L 131.990798 85.026973 
L 129.75866 85.026973 
z
" clip-path="url(#pe38e08d53b)" style="fill: #333333; fill-opacity: 0.6; stroke: #000000; stroke-width: 0.220553; stroke-linejoin: miter"/>
   </g>
   <g id="patch_25">
    <path d="M 131.990798 242.118437 
L 134.222935 242.118437 
L 134.222935 31.337485 
L 131.990798 31.337485 
z
" clip-path="url(#pe38e08d53b)" style="fill: #333333; fill-opacity: 0.6; stroke: #000000; stroke-width: 0.220553; stroke-linejoin: miter"/>
   </g>
   <g id="patch_26">
    <path d="M 134.222935 242.118437 
L 136.455072 242.118437 
L 136.455072 70.361789 
L 134.222935 70.361789 
z
" clip-path="url(#pe38e08d53b)" style="fill: #333333; fill-opacity: 0.6; stroke: #000000; stroke-width: 0.220553; stroke-linejoin: miter"/>
   </g>
   <g id="patch_27">
    <path d="M 136.455072 242.118437 
L 138.68721 242.118437 
L 138.68721 62.159228 
L 136.455072 62.159228 
z
" clip-path="url(#pe38e08d53b)" style="fill: #333333; fill-opacity: 0.6; stroke: #000000; stroke-width: 0.220553; stroke-linejoin: miter"/>
   </g>
   <g id="patch_28">
    <path d="M 138.68721 242.118437 
L 140.919347 242.118437 
L 140.919347 42.274233 
L 138.68721 42.274233 
z
" clip-path="url(#pe38e08d53b)" style="fill: #333333; fill-opacity: 0.6; stroke: #000000; stroke-width: 0.220553; stroke-linejoin: miter"/>
   </g>
   <g id="patch_29">
    <path d="M 140.919347 242.118437 
L 143.151484 242.118437 
L 143.151484 70.610351 
L 140.919347 70.610351 
z
" clip-path="url(#pe38e08d53b)" style="fill: #333333; fill-opacity: 0.6; stroke: #000000; stroke-width: 0.220553; stroke-linejoin: miter"/>
   </g>
   <g id="patch_30">
    <path d="M 143.151484 242.118437 
L 145.383621 242.118437 
L 145.383621 110.877467 
L 143.151484 110.877467 
z
" clip-path="url(#pe38e08d53b)" style="fill: #333333; fill-opacity: 0.6; stroke: #000000; stroke-width: 0.220553; stroke-linejoin: miter"/>
   </g>
   <g id="patch_31">
    <path d="M 145.383621 242.118437 
L 147.615759 242.118437 
L 147.615759 101.183532 
L 145.383621 101.183532 
z
" clip-path="url(#pe38e08d53b)" style="fill: #333333; fill-opacity: 0.6; stroke: #000000; stroke-width: 0.220553; stroke-linejoin: miter"/>
   </g>
   <g id="patch_32">
    <path d="M 147.615759 242.118437 
L 149.847896 242.118437 
L 149.847896 105.657656 
L 147.615759 105.657656 
z
" clip-path="url(#pe38e08d53b)" style="fill: #333333; fill-opacity: 0.6; stroke: #000000; stroke-width: 0.220553; stroke-linejoin: miter"/>
   </g>
   <g id="patch_33">
    <path d="M 149.847896 242.118437 
L 152.080033 242.118437 
L 152.080033 132.750962 
L 149.847896 132.750962 
z
" clip-path="url(#pe38e08d53b)" style="fill: #333333; fill-opacity: 0.6; stroke: #000000; stroke-width: 0.220553; stroke-linejoin: miter"/>
   </g>
   <g id="patch_34">
    <path d="M 152.080033 242.118437 
L 154.312171 242.118437 
L 154.312171 163.07558 
L 152.080033 163.07558 
z
" clip-path="url(#pe38e08d53b)" style="fill: #333333; fill-opacity: 0.6; stroke: #000000; stroke-width: 0.220553; stroke-linejoin: miter"/>
   </g>
   <g id="patch_35">
    <path d="M 154.312171 242.118437 
L 156.544308 242.118437 
L 156.544308 174.26089 
L 154.312171 174.26089 
z
" clip-path="url(#pe38e08d53b)" style="fill: #333333; fill-opacity: 0.6; stroke: #000000; stroke-width: 0.220553; stroke-linejoin: miter"/>
   </g>
   <g id="patch_36">
    <path d="M 156.544308 242.118437 
L 158.776445 242.118437 
L 158.776445 161.832768 
L 156.544308 161.832768 
z
" clip-path="url(#pe38e08d53b)" style="fill: #333333; fill-opacity: 0.6; stroke: #000000; stroke-width: 0.220553; stroke-linejoin: miter"/>
   </g>
   <g id="patch_37">
    <path d="M 158.776445 242.118437 
L 161.008582 242.118437 
L 161.008582 183.954826 
L 158.776445 183.954826 
z
" clip-path="url(#pe38e08d53b)" style="fill: #333333; fill-opacity: 0.6; stroke: #000000; stroke-width: 0.220553; stroke-linejoin: miter"/>
   </g>
   <g id="patch_38">
    <path d="M 161.008582 242.118437 
L 163.24072 242.118437 
L 163.24072 198.371447 
L 161.008582 198.371447 
z
" clip-path="url(#pe38e08d53b)" style="fill: #333333; fill-opacity: 0.6; stroke: #000000; stroke-width: 0.220553; stroke-linejoin: miter"/>
   </g>
   <g id="patch_39">
    <path d="M 163.24072 242.118437 
L 165.472857 242.118437 
L 165.472857 207.071133 
L 163.24072 207.071133 
z
" clip-path="url(#pe38e08d53b)" style="fill: #333333; fill-opacity: 0.6; stroke: #000000; stroke-width: 0.220553; stroke-linejoin: miter"/>
   </g>
   <g id="patch_40">
    <path d="M 165.472857 242.118437 
L 167.704994 242.118437 
L 167.704994 204.834071 
L 165.472857 204.834071 
z
" clip-path="url(#pe38e08d53b)" style="fill: #333333; fill-opacity: 0.6; stroke: #000000; stroke-width: 0.220553; stroke-linejoin: miter"/>
   </g>
   <g id="patch_41">
    <path d="M 167.704994 242.118437 
L 169.937132 242.118437 
L 169.937132 212.788069 
L 167.704994 212.788069 
z
" clip-path="url(#pe38e08d53b)" style="fill: #333333; fill-opacity: 0.6; stroke: #000000; stroke-width: 0.220553; stroke-linejoin: miter"/>
   </g>
   <g id="patch_42">
    <path d="M 169.937132 242.118437 
L 172.169269 242.118437 
L 172.169269 218.00788 
L 169.937132 218.00788 
z
" clip-path="url(#pe38e08d53b)" style="fill: #333333; fill-opacity: 0.6; stroke: #000000; stroke-width: 0.220553; stroke-linejoin: miter"/>
   </g>
   <g id="patch_43">
    <path d="M 172.169269 242.118437 
L 174.401406 242.118437 
L 174.401406 221.98488 
L 172.169269 221.98488 
z
" clip-path="url(#pe38e08d53b)" style="fill: #333333; fill-opacity: 0.6; stroke: #000000; stroke-width: 0.220553; stroke-linejoin: miter"/>
   </g>
   <g id="patch_44">
    <path d="M 174.401406 242.118437 
L 176.633543 242.118437 
L 176.633543 225.961879 
L 174.401406 225.961879 
z
" clip-path="url(#pe38e08d53b)" style="fill: #333333; fill-opacity: 0.6; stroke: #000000; stroke-width: 0.220553; stroke-linejoin: miter"/>
   </g>
   <g id="patch_45">
    <path d="M 176.633543 242.118437 
L 178.865681 242.118437 
L 178.865681 226.210441 
L 176.633543 226.210441 
z
" clip-path="url(#pe38e08d53b)" style="fill: #333333; fill-opacity: 0.6; stroke: #000000; stroke-width: 0.220553; stroke-linejoin: miter"/>
   </g>
   <g id="patch_46">
    <path d="M 178.865681 242.118437 
L 181.097818 242.118437 
L 181.097818 221.98488 
L 178.865681 221.98488 
z
" clip-path="url(#pe38e08d53b)" style="fill: #333333; fill-opacity: 0.6; stroke: #000000; stroke-width: 0.220553; stroke-linejoin: miter"/>
   </g>
   <g id="patch_47">
    <path d="M 181.097818 242.118437 
L 183.329955 242.118437 
L 183.329955 235.407252 
L 181.097818 235.407252 
z
" clip-path="url(#pe38e08d53b)" style="fill: #333333; fill-opacity: 0.6; stroke: #000000; stroke-width: 0.220553; stroke-linejoin: miter"/>
   </g>
   <g id="patch_48">
    <path d="M 183.329955 242.118437 
L 185.562092 242.118437 
L 185.562092 234.413002 
L 183.329955 234.413002 
z
" clip-path="url(#pe38e08d53b)" style="fill: #333333; fill-opacity: 0.6; stroke: #000000; stroke-width: 0.220553; stroke-linejoin: miter"/>
   </g>
   <g id="patch_49">
    <path d="M 185.562092 242.118437 
L 187.79423 242.118437 
L 187.79423 235.904376 
L 185.562092 235.904376 
z
" clip-path="url(#pe38e08d53b)" style="fill: #333333; fill-opacity: 0.6; stroke: #000000; stroke-width: 0.220553; stroke-linejoin: miter"/>
   </g>
   <g id="patch_50">
    <path d="M 187.79423 242.118437 
L 190.026367 242.118437 
L 190.026367 237.147189 
L 187.79423 237.147189 
z
" clip-path="url(#pe38e08d53b)" style="fill: #333333; fill-opacity: 0.6; stroke: #000000; stroke-width: 0.220553; stroke-linejoin: miter"/>
   </g>
   <g id="patch_51">
    <path d="M 190.026367 242.118437 
L 192.258504 242.118437 
L 192.258504 238.638563 
L 190.026367 238.638563 
z
" clip-path="url(#pe38e08d53b)" style="fill: #333333; fill-opacity: 0.6; stroke: #000000; stroke-width: 0.220553; stroke-linejoin: miter"/>
   </g>
   <g id="patch_52">
    <path d="M 192.258504 242.118437 
L 194.490642 242.118437 
L 194.490642 236.650064 
L 192.258504 236.650064 
z
" clip-path="url(#pe38e08d53b)" style="fill: #333333; fill-opacity: 0.6; stroke: #000000; stroke-width: 0.220553; stroke-linejoin: miter"/>
   </g>
   <g id="patch_53">
    <path d="M 194.490642 242.118437 
L 196.722779 242.118437 
L 196.722779 232.17594 
L 194.490642 232.17594 
z
" clip-path="url(#pe38e08d53b)" style="fill: #333333; fill-opacity: 0.6; stroke: #000000; stroke-width: 0.220553; stroke-linejoin: miter"/>
   </g>
   <g id="patch_54">
    <path d="M 196.722779 242.118437 
L 198.954916 242.118437 
L 198.954916 236.152939 
L 196.722779 236.152939 
z
" clip-path="url(#pe38e08d53b)" style="fill: #333333; fill-opacity: 0.6; stroke: #000000; stroke-width: 0.220553; stroke-linejoin: miter"/>
   </g>
   <g id="patch_55">
    <path d="M 198.954916 242.118437 
L 201.187053 242.118437 
L 201.187053 240.3785 
L 198.954916 240.3785 
z
" clip-path="url(#pe38e08d53b)" style="fill: #333333; fill-opacity: 0.6; stroke: #000000; stroke-width: 0.220553; stroke-linejoin: miter"/>
   </g>
   <g id="patch_56">
    <path d="M 201.187053 242.118437 
L 203.419191 242.118437 
L 203.419191 241.37275 
L 201.187053 241.37275 
z
" clip-path="url(#pe38e08d53b)" style="fill: #333333; fill-opacity: 0.6; stroke: #000000; stroke-width: 0.220553; stroke-linejoin: miter"/>
   </g>
   <g id="patch_57">
    <path d="M 203.419191 242.118437 
L 205.651328 242.118437 
L 205.651328 240.627063 
L 203.419191 240.627063 
z
" clip-path="url(#pe38e08d53b)" style="fill: #333333; fill-opacity: 0.6; stroke: #000000; stroke-width: 0.220553; stroke-linejoin: miter"/>
   </g>
   <g id="patch_58">
    <path d="M 205.651328 242.118437 
L 207.883465 242.118437 
L 207.883465 240.3785 
L 205.651328 240.3785 
z
" clip-path="url(#pe38e08d53b)" style="fill: #333333; fill-opacity: 0.6; stroke: #000000; stroke-width: 0.220553; stroke-linejoin: miter"/>
   </g>
   <g id="patch_59">
    <path d="M 207.883465 242.118437 
L 210.115603 242.118437 
L 210.115603 241.37275 
L 207.883465 241.37275 
z
" clip-path="url(#pe38e08d53b)" style="fill: #333333; fill-opacity: 0.6; stroke: #000000; stroke-width: 0.220553; stroke-linejoin: miter"/>
   </g>
   <g id="patch_60">
    <path d="M 210.115603 242.118437 
L 212.34774 242.118437 
L 212.34774 241.37275 
L 210.115603 241.37275 
z
" clip-path="url(#pe38e08d53b)" style="fill: #333333; fill-opacity: 0.6; stroke: #000000; stroke-width: 0.220553; stroke-linejoin: miter"/>
   </g>
   <g id="patch_61">
    <path d="M 212.34774 242.118437 
L 214.579877 242.118437 
L 214.579877 241.124188 
L 212.34774 241.124188 
z
" clip-path="url(#pe38e08d53b)" style="fill: #333333; fill-opacity: 0.6; stroke: #000000; stroke-width: 0.220553; stroke-linejoin: miter"/>
   </g>
   <g id="patch_62">
    <path d="M 214.579877 242.118437 
L 216.812014 242.118437 
L 216.812014 240.875625 
L 214.579877 240.875625 
z
" clip-path="url(#pe38e08d53b)" style="fill: #333333; fill-opacity: 0.6; stroke: #000000; stroke-width: 0.220553; stroke-linejoin: miter"/>
   </g>
   <g id="patch_63">
    <path d="M 216.812014 242.118437 
L 219.044152 242.118437 
L 219.044152 238.141438 
L 216.812014 238.141438 
z
" clip-path="url(#pe38e08d53b)" style="fill: #333333; fill-opacity: 0.6; stroke: #000000; stroke-width: 0.220553; stroke-linejoin: miter"/>
   </g>
   <g id="patch_64">
    <path d="M 219.044152 242.118437 
L 221.276289 242.118437 
L 221.276289 239.881376 
L 219.044152 239.881376 
z
" clip-path="url(#pe38e08d53b)" style="fill: #333333; fill-opacity: 0.6; stroke: #000000; stroke-width: 0.220553; stroke-linejoin: miter"/>
   </g>
   <g id="patch_65">
    <path d="M 221.276289 242.118437 
L 223.508426 242.118437 
L 223.508426 241.869875 
L 221.276289 241.869875 
z
" clip-path="url(#pe38e08d53b)" style="fill: #333333; fill-opacity: 0.6; stroke: #000000; stroke-width: 0.220553; stroke-linejoin: miter"/>
   </g>
   <g id="patch_66">
    <path d="M 223.508426 242.118437 
L 225.740564 242.118437 
L 225.740564 242.118437 
L 223.508426 242.118437 
z
" clip-path="url(#pe38e08d53b)" style="fill: #333333; fill-opacity: 0.6; stroke: #000000; stroke-width: 0.220553; stroke-linejoin: miter"/>
   </g>
   <g id="patch_67">
    <path d="M 225.740564 242.118437 
L 227.972701 242.118437 
L 227.972701 241.869875 
L 225.740564 241.869875 
z
" clip-path="url(#pe38e08d53b)" style="fill: #333333; fill-opacity: 0.6; stroke: #000000; stroke-width: 0.220553; stroke-linejoin: miter"/>
   </g>
   <g id="patch_68">
    <path d="M 227.972701 242.118437 
L 230.204838 242.118437 
L 230.204838 241.869875 
L 227.972701 241.869875 
z
" clip-path="url(#pe38e08d53b)" style="fill: #333333; fill-opacity: 0.6; stroke: #000000; stroke-width: 0.220553; stroke-linejoin: miter"/>
   </g>
   <g id="patch_69">
    <path d="M 230.204838 242.118437 
L 232.436975 242.118437 
L 232.436975 242.118437 
L 230.204838 242.118437 
z
" clip-path="url(#pe38e08d53b)" style="fill: #333333; fill-opacity: 0.6; stroke: #000000; stroke-width: 0.220553; stroke-linejoin: miter"/>
   </g>
   <g id="patch_70">
    <path d="M 232.436975 242.118437 
L 234.669113 242.118437 
L 234.669113 242.118437 
L 232.436975 242.118437 
z
" clip-path="url(#pe38e08d53b)" style="fill: #333333; fill-opacity: 0.6; stroke: #000000; stroke-width: 0.220553; stroke-linejoin: miter"/>
   </g>
   <g id="patch_71">
    <path d="M 234.669113 242.118437 
L 236.90125 242.118437 
L 236.90125 242.118437 
L 234.669113 242.118437 
z
" clip-path="url(#pe38e08d53b)" style="fill: #333333; fill-opacity: 0.6; stroke: #000000; stroke-width: 0.220553; stroke-linejoin: miter"/>
   </g>
   <g id="patch_72">
    <path d="M 236.90125 242.118437 
L 239.133387 242.118437 
L 239.133387 241.869875 
L 236.90125 241.869875 
z
" clip-path="url(#pe38e08d53b)" style="fill: #333333; fill-opacity: 0.6; stroke: #000000; stroke-width: 0.220553; stroke-linejoin: miter"/>
   </g>
   <g id="patch_73">
    <path d="M 239.133387 242.118437 
L 241.365525 242.118437 
L 241.365525 241.869875 
L 239.133387 241.869875 
z
" clip-path="url(#pe38e08d53b)" style="fill: #333333; fill-opacity: 0.6; stroke: #000000; stroke-width: 0.220553; stroke-linejoin: miter"/>
   </g>
   <g id="patch_74">
    <path d="M 241.365525 242.118437 
L 243.597662 242.118437 
L 243.597662 241.869875 
L 241.365525 241.869875 
z
" clip-path="url(#pe38e08d53b)" style="fill: #333333; fill-opacity: 0.6; stroke: #000000; stroke-width: 0.220553; stroke-linejoin: miter"/>
   </g>
   <g id="patch_75">
    <path d="M 243.597662 242.118437 
L 245.829799 242.118437 
L 245.829799 241.621313 
L 243.597662 241.621313 
z
" clip-path="url(#pe38e08d53b)" style="fill: #333333; fill-opacity: 0.6; stroke: #000000; stroke-width: 0.220553; stroke-linejoin: miter"/>
   </g>
   <g id="patch_76">
    <path d="M 245.829799 242.118437 
L 248.061936 242.118437 
L 248.061936 241.124188 
L 245.829799 241.124188 
z
" clip-path="url(#pe38e08d53b)" style="fill: #333333; fill-opacity: 0.6; stroke: #000000; stroke-width: 0.220553; stroke-linejoin: miter"/>
   </g>
   <g id="patch_77">
    <path d="M 248.061936 242.118437 
L 250.294074 242.118437 
L 250.294074 240.627063 
L 248.061936 240.627063 
z
" clip-path="url(#pe38e08d53b)" style="fill: #333333; fill-opacity: 0.6; stroke: #000000; stroke-width: 0.220553; stroke-linejoin: miter"/>
   </g>
   <g id="patch_78">
    <path d="M 250.294074 242.118437 
L 252.526211 242.118437 
L 252.526211 240.875625 
L 250.294074 240.875625 
z
" clip-path="url(#pe38e08d53b)" style="fill: #333333; fill-opacity: 0.6; stroke: #000000; stroke-width: 0.220553; stroke-linejoin: miter"/>
   </g>
   <g id="patch_79">
    <path d="M 252.526211 242.118437 
L 254.758348 242.118437 
L 254.758348 241.124188 
L 252.526211 241.124188 
z
" clip-path="url(#pe38e08d53b)" style="fill: #333333; fill-opacity: 0.6; stroke: #000000; stroke-width: 0.220553; stroke-linejoin: miter"/>
   </g>
   <g id="patch_80">
    <path d="M 254.758348 242.118437 
L 256.990486 242.118437 
L 256.990486 242.118437 
L 254.758348 242.118437 
z
" clip-path="url(#pe38e08d53b)" style="fill: #333333; fill-opacity: 0.6; stroke: #000000; stroke-width: 0.220553; stroke-linejoin: miter"/>
   </g>
   <g id="patch_81">
    <path d="M 256.990486 242.118437 
L 259.222623 242.118437 
L 259.222623 242.118437 
L 256.990486 242.118437 
z
" clip-path="url(#pe38e08d53b)" style="fill: #333333; fill-opacity: 0.6; stroke: #000000; stroke-width: 0.220553; stroke-linejoin: miter"/>
   </g>
   <g id="patch_82">
    <path d="M 259.222623 242.118437 
L 261.45476 242.118437 
L 261.45476 242.118437 
L 259.222623 242.118437 
z
" clip-path="url(#pe38e08d53b)" style="fill: #333333; fill-opacity: 0.6; stroke: #000000; stroke-width: 0.220553; stroke-linejoin: miter"/>
   </g>
   <g id="patch_83">
    <path d="M 261.45476 242.118437 
L 263.686897 242.118437 
L 263.686897 241.869875 
L 261.45476 241.869875 
z
" clip-path="url(#pe38e08d53b)" style="fill: #333333; fill-opacity: 0.6; stroke: #000000; stroke-width: 0.220553; stroke-linejoin: miter"/>
   </g>
   <g id="patch_84">
    <path d="M 263.686897 242.118437 
L 265.919035 242.118437 
L 265.919035 242.118437 
L 263.686897 242.118437 
z
" clip-path="url(#pe38e08d53b)" style="fill: #333333; fill-opacity: 0.6; stroke: #000000; stroke-width: 0.220553; stroke-linejoin: miter"/>
   </g>
   <g id="patch_85">
    <path d="M 265.919035 242.118437 
L 268.151172 242.118437 
L 268.151172 242.118437 
L 265.919035 242.118437 
z
" clip-path="url(#pe38e08d53b)" style="fill: #333333; fill-opacity: 0.6; stroke: #000000; stroke-width: 0.220553; stroke-linejoin: miter"/>
   </g>
   <g id="patch_86">
    <path d="M 268.151172 242.118437 
L 270.383309 242.118437 
L 270.383309 242.118437 
L 268.151172 242.118437 
z
" clip-path="url(#pe38e08d53b)" style="fill: #333333; fill-opacity: 0.6; stroke: #000000; stroke-width: 0.220553; stroke-linejoin: miter"/>
   </g>
   <g id="patch_87">
    <path d="M 270.383309 242.118437 
L 272.615447 242.118437 
L 272.615447 242.118437 
L 270.383309 242.118437 
z
" clip-path="url(#pe38e08d53b)" style="fill: #333333; fill-opacity: 0.6; stroke: #000000; stroke-width: 0.220553; stroke-linejoin: miter"/>
   </g>
   <g id="patch_88">
    <path d="M 272.615447 242.118437 
L 274.847584 242.118437 
L 274.847584 242.118437 
L 272.615447 242.118437 
z
" clip-path="url(#pe38e08d53b)" style="fill: #333333; fill-opacity: 0.6; stroke: #000000; stroke-width: 0.220553; stroke-linejoin: miter"/>
   </g>
   <g id="patch_89">
    <path d="M 274.847584 242.118437 
L 277.079721 242.118437 
L 277.079721 242.118437 
L 274.847584 242.118437 
z
" clip-path="url(#pe38e08d53b)" style="fill: #333333; fill-opacity: 0.6; stroke: #000000; stroke-width: 0.220553; stroke-linejoin: miter"/>
   </g>
   <g id="patch_90">
    <path d="M 277.079721 242.118437 
L 279.311858 242.118437 
L 279.311858 242.118437 
L 277.079721 242.118437 
z
" clip-path="url(#pe38e08d53b)" style="fill: #333333; fill-opacity: 0.6; stroke: #000000; stroke-width: 0.220553; stroke-linejoin: miter"/>
   </g>
   <g id="patch_91">
    <path d="M 279.311858 242.118437 
L 281.543996 242.118437 
L 281.543996 242.118437 
L 279.311858 242.118437 
z
" clip-path="url(#pe38e08d53b)" style="fill: #333333; fill-opacity: 0.6; stroke: #000000; stroke-width: 0.220553; stroke-linejoin: miter"/>
   </g>
   <g id="patch_92">
    <path d="M 281.543996 242.118437 
L 283.776133 242.118437 
L 283.776133 242.118437 
L 281.543996 242.118437 
z
" clip-path="url(#pe38e08d53b)" style="fill: #333333; fill-opacity: 0.6; stroke: #000000; stroke-width: 0.220553; stroke-linejoin: miter"/>
   </g>
   <g id="patch_93">
    <path d="M 283.776133 242.118437 
L 286.00827 242.118437 
L 286.00827 242.118437 
L 283.776133 242.118437 
z
" clip-path="url(#pe38e08d53b)" style="fill: #333333; fill-opacity: 0.6; stroke: #000000; stroke-width: 0.220553; stroke-linejoin: miter"/>
   </g>
   <g id="patch_94">
    <path d="M 286.00827 242.118437 
L 288.240408 242.118437 
L 288.240408 242.118437 
L 286.00827 242.118437 
z
" clip-path="url(#pe38e08d53b)" style="fill: #333333; fill-opacity: 0.6; stroke: #000000; stroke-width: 0.220553; stroke-linejoin: miter"/>
   </g>
   <g id="patch_95">
    <path d="M 288.240408 242.118437 
L 290.472545 242.118437 
L 290.472545 242.118437 
L 288.240408 242.118437 
z
" clip-path="url(#pe38e08d53b)" style="fill: #333333; fill-opacity: 0.6; stroke: #000000; stroke-width: 0.220553; stroke-linejoin: miter"/>
   </g>
   <g id="patch_96">
    <path d="M 290.472545 242.118437 
L 292.704682 242.118437 
L 292.704682 242.118437 
L 290.472545 242.118437 
z
" clip-path="url(#pe38e08d53b)" style="fill: #333333; fill-opacity: 0.6; stroke: #000000; stroke-width: 0.220553; stroke-linejoin: miter"/>
   </g>
   <g id="patch_97">
    <path d="M 292.704682 242.118437 
L 294.936819 242.118437 
L 294.936819 242.118437 
L 292.704682 242.118437 
z
" clip-path="url(#pe38e08d53b)" style="fill: #333333; fill-opacity: 0.6; stroke: #000000; stroke-width: 0.220553; stroke-linejoin: miter"/>
   </g>
   <g id="patch_98">
    <path d="M 294.936819 242.118437 
L 297.168957 242.118437 
L 297.168957 241.621313 
L 294.936819 241.621313 
z
" clip-path="url(#pe38e08d53b)" style="fill: #333333; fill-opacity: 0.6; stroke: #000000; stroke-width: 0.220553; stroke-linejoin: miter"/>
   </g>
   <g id="patch_99">
    <path d="M 297.168957 242.118437 
L 299.401094 242.118437 
L 299.401094 241.37275 
L 297.168957 241.37275 
z
" clip-path="url(#pe38e08d53b)" style="fill: #333333; fill-opacity: 0.6; stroke: #000000; stroke-width: 0.220553; stroke-linejoin: miter"/>
   </g>
   <g id="patch_100">
    <path d="M 299.401094 242.118437 
L 301.633231 242.118437 
L 301.633231 241.621313 
L 299.401094 241.621313 
z
" clip-path="url(#pe38e08d53b)" style="fill: #333333; fill-opacity: 0.6; stroke: #000000; stroke-width: 0.220553; stroke-linejoin: miter"/>
   </g>
   <g id="patch_101">
    <path d="M 301.633231 242.118437 
L 303.865368 242.118437 
L 303.865368 241.869875 
L 301.633231 241.869875 
z
" clip-path="url(#pe38e08d53b)" style="fill: #333333; fill-opacity: 0.6; stroke: #000000; stroke-width: 0.220553; stroke-linejoin: miter"/>
   </g>
   <g id="patch_102">
    <path d="M 303.865368 242.118437 
L 306.097506 242.118437 
L 306.097506 242.118437 
L 303.865368 242.118437 
z
" clip-path="url(#pe38e08d53b)" style="fill: #333333; fill-opacity: 0.6; stroke: #000000; stroke-width: 0.220553; stroke-linejoin: miter"/>
   </g>
   <g id="patch_103">
    <path d="M 306.097506 242.118437 
L 308.329643 242.118437 
L 308.329643 242.118437 
L 306.097506 242.118437 
z
" clip-path="url(#pe38e08d53b)" style="fill: #333333; fill-opacity: 0.6; stroke: #000000; stroke-width: 0.220553; stroke-linejoin: miter"/>
   </g>
   <g id="patch_104">
    <path d="M 308.329643 242.118437 
L 310.56178 242.118437 
L 310.56178 242.118437 
L 308.329643 242.118437 
z
" clip-path="url(#pe38e08d53b)" style="fill: #333333; fill-opacity: 0.6; stroke: #000000; stroke-width: 0.220553; stroke-linejoin: miter"/>
   </g>
   <g id="patch_105">
    <path d="M 310.56178 242.118437 
L 312.793918 242.118437 
L 312.793918 242.118437 
L 310.56178 242.118437 
z
" clip-path="url(#pe38e08d53b)" style="fill: #333333; fill-opacity: 0.6; stroke: #000000; stroke-width: 0.220553; stroke-linejoin: miter"/>
   </g>
   <g id="patch_106">
    <path d="M 312.793918 242.118437 
L 315.026055 242.118437 
L 315.026055 242.118437 
L 312.793918 242.118437 
z
" clip-path="url(#pe38e08d53b)" style="fill: #333333; fill-opacity: 0.6; stroke: #000000; stroke-width: 0.220553; stroke-linejoin: miter"/>
   </g>
   <g id="patch_107">
    <path d="M 315.026055 242.118437 
L 317.258192 242.118437 
L 317.258192 242.118437 
L 315.026055 242.118437 
z
" clip-path="url(#pe38e08d53b)" style="fill: #333333; fill-opacity: 0.6; stroke: #000000; stroke-width: 0.220553; stroke-linejoin: miter"/>
   </g>
   <g id="patch_108">
    <path d="M 317.258192 242.118437 
L 319.490329 242.118437 
L 319.490329 242.118437 
L 317.258192 242.118437 
z
" clip-path="url(#pe38e08d53b)" style="fill: #333333; fill-opacity: 0.6; stroke: #000000; stroke-width: 0.220553; stroke-linejoin: miter"/>
   </g>
   <g id="patch_109">
    <path d="M 319.490329 242.118437 
L 321.722467 242.118437 
L 321.722467 242.118437 
L 319.490329 242.118437 
z
" clip-path="url(#pe38e08d53b)" style="fill: #333333; fill-opacity: 0.6; stroke: #000000; stroke-width: 0.220553; stroke-linejoin: miter"/>
   </g>
   <g id="patch_110">
    <path d="M 321.722467 242.118437 
L 323.954604 242.118437 
L 323.954604 242.118437 
L 321.722467 242.118437 
z
" clip-path="url(#pe38e08d53b)" style="fill: #333333; fill-opacity: 0.6; stroke: #000000; stroke-width: 0.220553; stroke-linejoin: miter"/>
   </g>
   <g id="patch_111">
    <path d="M 323.954604 242.118437 
L 326.186741 242.118437 
L 326.186741 242.118437 
L 323.954604 242.118437 
z
" clip-path="url(#pe38e08d53b)" style="fill: #333333; fill-opacity: 0.6; stroke: #000000; stroke-width: 0.220553; stroke-linejoin: miter"/>
   </g>
   <g id="patch_112">
    <path d="M 326.186741 242.118437 
L 328.418879 242.118437 
L 328.418879 242.118437 
L 326.186741 242.118437 
z
" clip-path="url(#pe38e08d53b)" style="fill: #333333; fill-opacity: 0.6; stroke: #000000; stroke-width: 0.220553; stroke-linejoin: miter"/>
   </g>
   <g id="patch_113">
    <path d="M 328.418879 242.118437 
L 330.651016 242.118437 
L 330.651016 242.118437 
L 328.418879 242.118437 
z
" clip-path="url(#pe38e08d53b)" style="fill: #333333; fill-opacity: 0.6; stroke: #000000; stroke-width: 0.220553; stroke-linejoin: miter"/>
   </g>
   <g id="patch_114">
    <path d="M 330.651016 242.118437 
L 332.883153 242.118437 
L 332.883153 242.118437 
L 330.651016 242.118437 
z
" clip-path="url(#pe38e08d53b)" style="fill: #333333; fill-opacity: 0.6; stroke: #000000; stroke-width: 0.220553; stroke-linejoin: miter"/>
   </g>
   <g id="patch_115">
    <path d="M 332.883153 242.118437 
L 335.11529 242.118437 
L 335.11529 242.118437 
L 332.883153 242.118437 
z
" clip-path="url(#pe38e08d53b)" style="fill: #333333; fill-opacity: 0.6; stroke: #000000; stroke-width: 0.220553; stroke-linejoin: miter"/>
   </g>
   <g id="patch_116">
    <path d="M 335.11529 242.118437 
L 337.347428 242.118437 
L 337.347428 242.118437 
L 335.11529 242.118437 
z
" clip-path="url(#pe38e08d53b)" style="fill: #333333; fill-opacity: 0.6; stroke: #000000; stroke-width: 0.220553; stroke-linejoin: miter"/>
   </g>
   <g id="patch_117">
    <path d="M 337.347428 242.118437 
L 339.579565 242.118437 
L 339.579565 242.118437 
L 337.347428 242.118437 
z
" clip-path="url(#pe38e08d53b)" style="fill: #333333; fill-opacity: 0.6; stroke: #000000; stroke-width: 0.220553; stroke-linejoin: miter"/>
   </g>
   <g id="patch_118">
    <path d="M 339.579565 242.118437 
L 341.811702 242.118437 
L 341.811702 242.118437 
L 339.579565 242.118437 
z
" clip-path="url(#pe38e08d53b)" style="fill: #333333; fill-opacity: 0.6; stroke: #000000; stroke-width: 0.220553; stroke-linejoin: miter"/>
   </g>
   <g id="patch_119">
    <path d="M 341.811702 242.118437 
L 344.04384 242.118437 
L 344.04384 242.118437 
L 341.811702 242.118437 
z
" clip-path="url(#pe38e08d53b)" style="fill: #333333; fill-opacity: 0.6; stroke: #000000; stroke-width: 0.220553; stroke-linejoin: miter"/>
   </g>
   <g id="patch_120">
    <path d="M 344.04384 242.118437 
L 346.275977 242.118437 
L 346.275977 242.118437 
L 344.04384 242.118437 
z
" clip-path="url(#pe38e08d53b)" style="fill: #333333; fill-opacity: 0.6; stroke: #000000; stroke-width: 0.220553; stroke-linejoin: miter"/>
   </g>
   <g id="patch_121">
    <path d="M 346.275977 242.118437 
L 348.508114 242.118437 
L 348.508114 242.118437 
L 346.275977 242.118437 
z
" clip-path="url(#pe38e08d53b)" style="fill: #333333; fill-opacity: 0.6; stroke: #000000; stroke-width: 0.220553; stroke-linejoin: miter"/>
   </g>
   <g id="patch_122">
    <path d="M 348.508114 242.118437 
L 350.740251 242.118437 
L 350.740251 242.118437 
L 348.508114 242.118437 
z
" clip-path="url(#pe38e08d53b)" style="fill: #333333; fill-opacity: 0.6; stroke: #000000; stroke-width: 0.220553; stroke-linejoin: miter"/>
   </g>
   <g id="patch_123">
    <path d="M 350.740251 242.118437 
L 352.972389 242.118437 
L 352.972389 242.118437 
L 350.740251 242.118437 
z
" clip-path="url(#pe38e08d53b)" style="fill: #333333; fill-opacity: 0.6; stroke: #000000; stroke-width: 0.220553; stroke-linejoin: miter"/>
   </g>
   <g id="patch_124">
    <path d="M 352.972389 242.118437 
L 355.204526 242.118437 
L 355.204526 242.118437 
L 352.972389 242.118437 
z
" clip-path="url(#pe38e08d53b)" style="fill: #333333; fill-opacity: 0.6; stroke: #000000; stroke-width: 0.220553; stroke-linejoin: miter"/>
   </g>
   <g id="patch_125">
    <path d="M 355.204526 242.118437 
L 357.436663 242.118437 
L 357.436663 242.118437 
L 355.204526 242.118437 
z
" clip-path="url(#pe38e08d53b)" style="fill: #333333; fill-opacity: 0.6; stroke: #000000; stroke-width: 0.220553; stroke-linejoin: miter"/>
   </g>
   <g id="patch_126">
    <path d="M 357.436663 242.118437 
L 359.668801 242.118437 
L 359.668801 242.118437 
L 357.436663 242.118437 
z
" clip-path="url(#pe38e08d53b)" style="fill: #333333; fill-opacity: 0.6; stroke: #000000; stroke-width: 0.220553; stroke-linejoin: miter"/>
   </g>
   <g id="patch_127">
    <path d="M 359.668801 242.118437 
L 361.900938 242.118437 
L 361.900938 242.118437 
L 359.668801 242.118437 
z
" clip-path="url(#pe38e08d53b)" style="fill: #333333; fill-opacity: 0.6; stroke: #000000; stroke-width: 0.220553; stroke-linejoin: miter"/>
   </g>
   <g id="patch_128">
    <path d="M 361.900938 242.118437 
L 364.133075 242.118437 
L 364.133075 242.118437 
L 361.900938 242.118437 
z
" clip-path="url(#pe38e08d53b)" style="fill: #333333; fill-opacity: 0.6; stroke: #000000; stroke-width: 0.220553; stroke-linejoin: miter"/>
   </g>
   <g id="patch_129">
    <path d="M 364.133075 242.118437 
L 366.365212 242.118437 
L 366.365212 242.118437 
L 364.133075 242.118437 
z
" clip-path="url(#pe38e08d53b)" style="fill: #333333; fill-opacity: 0.6; stroke: #000000; stroke-width: 0.220553; stroke-linejoin: miter"/>
   </g>
   <g id="patch_130">
    <path d="M 366.365212 242.118437 
L 368.59735 242.118437 
L 368.59735 242.118437 
L 366.365212 242.118437 
z
" clip-path="url(#pe38e08d53b)" style="fill: #333333; fill-opacity: 0.6; stroke: #000000; stroke-width: 0.220553; stroke-linejoin: miter"/>
   </g>
   <g id="patch_131">
    <path d="M 368.59735 242.118437 
L 370.829487 242.118437 
L 370.829487 242.118437 
L 368.59735 242.118437 
z
" clip-path="url(#pe38e08d53b)" style="fill: #333333; fill-opacity: 0.6; stroke: #000000; stroke-width: 0.220553; stroke-linejoin: miter"/>
   </g>
   <g id="patch_132">
    <path d="M 370.829487 242.118437 
L 373.061624 242.118437 
L 373.061624 242.118437 
L 370.829487 242.118437 
z
" clip-path="url(#pe38e08d53b)" style="fill: #333333; fill-opacity: 0.6; stroke: #000000; stroke-width: 0.220553; stroke-linejoin: miter"/>
   </g>
   <g id="patch_133">
    <path d="M 373.061624 242.118437 
L 375.293762 242.118437 
L 375.293762 242.118437 
L 373.061624 242.118437 
z
" clip-path="url(#pe38e08d53b)" style="fill: #333333; fill-opacity: 0.6; stroke: #000000; stroke-width: 0.220553; stroke-linejoin: miter"/>
   </g>
   <g id="patch_134">
    <path d="M 375.293762 242.118437 
L 377.525899 242.118437 
L 377.525899 242.118437 
L 375.293762 242.118437 
z
" clip-path="url(#pe38e08d53b)" style="fill: #333333; fill-opacity: 0.6; stroke: #000000; stroke-width: 0.220553; stroke-linejoin: miter"/>
   </g>
   <g id="patch_135">
    <path d="M 377.525899 242.118437 
L 379.758036 242.118437 
L 379.758036 242.118437 
L 377.525899 242.118437 
z
" clip-path="url(#pe38e08d53b)" style="fill: #333333; fill-opacity: 0.6; stroke: #000000; stroke-width: 0.220553; stroke-linejoin: miter"/>
   </g>
   <g id="patch_136">
    <path d="M 379.758036 242.118437 
L 381.990173 242.118437 
L 381.990173 242.118437 
L 379.758036 242.118437 
z
" clip-path="url(#pe38e08d53b)" style="fill: #333333; fill-opacity: 0.6; stroke: #000000; stroke-width: 0.220553; stroke-linejoin: miter"/>
   </g>
   <g id="patch_137">
    <path d="M 381.990173 242.118437 
L 384.222311 242.118437 
L 384.222311 242.118437 
L 381.990173 242.118437 
z
" clip-path="url(#pe38e08d53b)" style="fill: #333333; fill-opacity: 0.6; stroke: #000000; stroke-width: 0.220553; stroke-linejoin: miter"/>
   </g>
   <g id="patch_138">
    <path d="M 384.222311 242.118437 
L 386.454448 242.118437 
L 386.454448 242.118437 
L 384.222311 242.118437 
z
" clip-path="url(#pe38e08d53b)" style="fill: #333333; fill-opacity: 0.6; stroke: #000000; stroke-width: 0.220553; stroke-linejoin: miter"/>
   </g>
   <g id="patch_139">
    <path d="M 386.454448 242.118437 
L 388.686585 242.118437 
L 388.686585 241.869875 
L 386.454448 241.869875 
z
" clip-path="url(#pe38e08d53b)" style="fill: #333333; fill-opacity: 0.6; stroke: #000000; stroke-width: 0.220553; stroke-linejoin: miter"/>
   </g>
   <g id="patch_140">
    <path d="M 388.686585 242.118437 
L 390.918723 242.118437 
L 390.918723 241.869875 
L 388.686585 241.869875 
z
" clip-path="url(#pe38e08d53b)" style="fill: #333333; fill-opacity: 0.6; stroke: #000000; stroke-width: 0.220553; stroke-linejoin: miter"/>
   </g>
   <g id="matplotlib.axis_1">
    <g id="xtick_1">
     <g id="line2d_1">
      <defs>
       <path id="mef0a91e450" d="M 0 0 
L 0 3.5 
" style="stroke: #000000; stroke-width: 0.8"/>
      </defs>
      <g>
       <use xlink:href="#mef0a91e450" x="81.213916" y="242.118437" style="stroke: #000000; stroke-width: 0.8"/>
      </g>
     </g>
     <g id="text_1">
      <!-- 0 -->
      <g transform="translate(78.032666 256.716875) scale(0.1 -0.1)">
       <defs>
        <path id="DejaVuSans-30" d="M 2034 4250 
Q 1547 4250 1301 3770 
Q 1056 3291 1056 2328 
Q 1056 1369 1301 889 
Q 1547 409 2034 409 
Q 2525 409 2770 889 
Q 3016 1369 3016 2328 
Q 3016 3291 2770 3770 
Q 2525 4250 2034 4250 
z
M 2034 4750 
Q 2819 4750 3233 4129 
Q 3647 3509 3647 2328 
Q 3647 1150 3233 529 
Q 2819 -91 2034 -91 
Q 1250 -91 836 529 
Q 422 1150 422 2328 
Q 422 3509 836 4129 
Q 1250 4750 2034 4750 
z
" transform="scale(0.015625)"/>
       </defs>
       <use xlink:href="#DejaVuSans-30"/>
      </g>
     </g>
    </g>
    <g id="xtick_2">
     <g id="line2d_2">
      <g>
       <use xlink:href="#mef0a91e450" x="155.833573" y="242.118437" style="stroke: #000000; stroke-width: 0.8"/>
      </g>
     </g>
     <g id="text_2">
      <!-- 100 -->
      <g transform="translate(146.289823 256.716875) scale(0.1 -0.1)">
       <defs>
        <path id="DejaVuSans-31" d="M 794 531 
L 1825 531 
L 1825 4091 
L 703 3866 
L 703 4441 
L 1819 4666 
L 2450 4666 
L 2450 531 
L 3481 531 
L 3481 0 
L 794 0 
L 794 531 
z
" transform="scale(0.015625)"/>
       </defs>
       <use xlink:href="#DejaVuSans-31"/>
       <use xlink:href="#DejaVuSans-30" x="63.623047"/>
       <use xlink:href="#DejaVuSans-30" x="127.246094"/>
      </g>
     </g>
    </g>
    <g id="xtick_3">
     <g id="line2d_3">
      <g>
       <use xlink:href="#mef0a91e450" x="230.45323" y="242.118437" style="stroke: #000000; stroke-width: 0.8"/>
      </g>
     </g>
     <g id="text_3">
      <!-- 200 -->
      <g transform="translate(220.90948 256.716875) scale(0.1 -0.1)">
       <defs>
        <path id="DejaVuSans-32" d="M 1228 531 
L 3431 531 
L 3431 0 
L 469 0 
L 469 531 
Q 828 903 1448 1529 
Q 2069 2156 2228 2338 
Q 2531 2678 2651 2914 
Q 2772 3150 2772 3378 
Q 2772 3750 2511 3984 
Q 2250 4219 1831 4219 
Q 1534 4219 1204 4116 
Q 875 4013 500 3803 
L 500 4441 
Q 881 4594 1212 4672 
Q 1544 4750 1819 4750 
Q 2544 4750 2975 4387 
Q 3406 4025 3406 3419 
Q 3406 3131 3298 2873 
Q 3191 2616 2906 2266 
Q 2828 2175 2409 1742 
Q 1991 1309 1228 531 
z
" transform="scale(0.015625)"/>
       </defs>
       <use xlink:href="#DejaVuSans-32"/>
       <use xlink:href="#DejaVuSans-30" x="63.623047"/>
       <use xlink:href="#DejaVuSans-30" x="127.246094"/>
      </g>
     </g>
    </g>
    <g id="xtick_4">
     <g id="line2d_4">
      <g>
       <use xlink:href="#mef0a91e450" x="305.072887" y="242.118437" style="stroke: #000000; stroke-width: 0.8"/>
      </g>
     </g>
     <g id="text_4">
      <!-- 300 -->
      <g transform="translate(295.529137 256.716875) scale(0.1 -0.1)">
       <defs>
        <path id="DejaVuSans-33" d="M 2597 2516 
Q 3050 2419 3304 2112 
Q 3559 1806 3559 1356 
Q 3559 666 3084 287 
Q 2609 -91 1734 -91 
Q 1441 -91 1130 -33 
Q 819 25 488 141 
L 488 750 
Q 750 597 1062 519 
Q 1375 441 1716 441 
Q 2309 441 2620 675 
Q 2931 909 2931 1356 
Q 2931 1769 2642 2001 
Q 2353 2234 1838 2234 
L 1294 2234 
L 1294 2753 
L 1863 2753 
Q 2328 2753 2575 2939 
Q 2822 3125 2822 3475 
Q 2822 3834 2567 4026 
Q 2313 4219 1838 4219 
Q 1578 4219 1281 4162 
Q 984 4106 628 3988 
L 628 4550 
Q 988 4650 1302 4700 
Q 1616 4750 1894 4750 
Q 2613 4750 3031 4423 
Q 3450 4097 3450 3541 
Q 3450 3153 3228 2886 
Q 3006 2619 2597 2516 
z
" transform="scale(0.015625)"/>
       </defs>
       <use xlink:href="#DejaVuSans-33"/>
       <use xlink:href="#DejaVuSans-30" x="63.623047"/>
       <use xlink:href="#DejaVuSans-30" x="127.246094"/>
      </g>
     </g>
    </g>
    <g id="xtick_5">
     <g id="line2d_5">
      <g>
       <use xlink:href="#mef0a91e450" x="379.692544" y="242.118437" style="stroke: #000000; stroke-width: 0.8"/>
      </g>
     </g>
     <g id="text_5">
      <!-- 400 -->
      <g transform="translate(370.148794 256.716875) scale(0.1 -0.1)">
       <defs>
        <path id="DejaVuSans-34" d="M 2419 4116 
L 825 1625 
L 2419 1625 
L 2419 4116 
z
M 2253 4666 
L 3047 4666 
L 3047 1625 
L 3713 1625 
L 3713 1100 
L 3047 1100 
L 3047 0 
L 2419 0 
L 2419 1100 
L 313 1100 
L 313 1709 
L 2253 4666 
z
" transform="scale(0.015625)"/>
       </defs>
       <use xlink:href="#DejaVuSans-34"/>
       <use xlink:href="#DejaVuSans-30" x="63.623047"/>
       <use xlink:href="#DejaVuSans-30" x="127.246094"/>
      </g>
     </g>
    </g>
    <g id="text_6">
     <!-- GFR -->
     <g transform="translate(226.677031 270.395) scale(0.1 -0.1)">
      <defs>
       <path id="DejaVuSans-47" d="M 3809 666 
L 3809 1919 
L 2778 1919 
L 2778 2438 
L 4434 2438 
L 4434 434 
Q 4069 175 3628 42 
Q 3188 -91 2688 -91 
Q 1594 -91 976 548 
Q 359 1188 359 2328 
Q 359 3472 976 4111 
Q 1594 4750 2688 4750 
Q 3144 4750 3555 4637 
Q 3966 4525 4313 4306 
L 4313 3634 
Q 3963 3931 3569 4081 
Q 3175 4231 2741 4231 
Q 1884 4231 1454 3753 
Q 1025 3275 1025 2328 
Q 1025 1384 1454 906 
Q 1884 428 2741 428 
Q 3075 428 3337 486 
Q 3600 544 3809 666 
z
" transform="scale(0.015625)"/>
       <path id="DejaVuSans-46" d="M 628 4666 
L 3309 4666 
L 3309 4134 
L 1259 4134 
L 1259 2759 
L 3109 2759 
L 3109 2228 
L 1259 2228 
L 1259 0 
L 628 0 
L 628 4666 
z
" transform="scale(0.015625)"/>
       <path id="DejaVuSans-52" d="M 2841 2188 
Q 3044 2119 3236 1894 
Q 3428 1669 3622 1275 
L 4263 0 
L 3584 0 
L 2988 1197 
Q 2756 1666 2539 1819 
Q 2322 1972 1947 1972 
L 1259 1972 
L 1259 0 
L 628 0 
L 628 4666 
L 2053 4666 
Q 2853 4666 3247 4331 
Q 3641 3997 3641 3322 
Q 3641 2881 3436 2590 
Q 3231 2300 2841 2188 
z
M 1259 4147 
L 1259 2491 
L 2053 2491 
Q 2509 2491 2742 2702 
Q 2975 2913 2975 3322 
Q 2975 3731 2742 3939 
Q 2509 4147 2053 4147 
L 1259 4147 
z
" transform="scale(0.015625)"/>
      </defs>
      <use xlink:href="#DejaVuSans-47"/>
      <use xlink:href="#DejaVuSans-46" x="77.490234"/>
      <use xlink:href="#DejaVuSans-52" x="135.009766"/>
     </g>
    </g>
   </g>
   <g id="matplotlib.axis_2">
    <g id="ytick_1">
     <g id="line2d_6">
      <defs>
       <path id="m63dc06a1e7" d="M 0 0 
L -3.5 0 
" style="stroke: #000000; stroke-width: 0.8"/>
      </defs>
      <g>
       <use xlink:href="#m63dc06a1e7" x="56.50625" y="242.118437" style="stroke: #000000; stroke-width: 0.8"/>
      </g>
     </g>
     <g id="text_7">
      <!-- 0.000 -->
      <g transform="translate(20.878125 245.917656) scale(0.1 -0.1)">
       <defs>
        <path id="DejaVuSans-2e" d="M 684 794 
L 1344 794 
L 1344 0 
L 684 0 
L 684 794 
z
" transform="scale(0.015625)"/>
       </defs>
       <use xlink:href="#DejaVuSans-30"/>
       <use xlink:href="#DejaVuSans-2e" x="63.623047"/>
       <use xlink:href="#DejaVuSans-30" x="95.410156"/>
       <use xlink:href="#DejaVuSans-30" x="159.033203"/>
       <use xlink:href="#DejaVuSans-30" x="222.65625"/>
      </g>
     </g>
    </g>
    <g id="ytick_2">
     <g id="line2d_7">
      <g>
       <use xlink:href="#m63dc06a1e7" x="56.50625" y="217.404722" style="stroke: #000000; stroke-width: 0.8"/>
      </g>
     </g>
     <g id="text_8">
      <!-- 0.002 -->
      <g transform="translate(20.878125 221.203941) scale(0.1 -0.1)">
       <use xlink:href="#DejaVuSans-30"/>
       <use xlink:href="#DejaVuSans-2e" x="63.623047"/>
       <use xlink:href="#DejaVuSans-30" x="95.410156"/>
       <use xlink:href="#DejaVuSans-30" x="159.033203"/>
       <use xlink:href="#DejaVuSans-32" x="222.65625"/>
      </g>
     </g>
    </g>
    <g id="ytick_3">
     <g id="line2d_8">
      <g>
       <use xlink:href="#m63dc06a1e7" x="56.50625" y="192.691006" style="stroke: #000000; stroke-width: 0.8"/>
      </g>
     </g>
     <g id="text_9">
      <!-- 0.004 -->
      <g transform="translate(20.878125 196.490225) scale(0.1 -0.1)">
       <use xlink:href="#DejaVuSans-30"/>
       <use xlink:href="#DejaVuSans-2e" x="63.623047"/>
       <use xlink:href="#DejaVuSans-30" x="95.410156"/>
       <use xlink:href="#DejaVuSans-30" x="159.033203"/>
       <use xlink:href="#DejaVuSans-34" x="222.65625"/>
      </g>
     </g>
    </g>
    <g id="ytick_4">
     <g id="line2d_9">
      <g>
       <use xlink:href="#m63dc06a1e7" x="56.50625" y="167.97729" style="stroke: #000000; stroke-width: 0.8"/>
      </g>
     </g>
     <g id="text_10">
      <!-- 0.006 -->
      <g transform="translate(20.878125 171.776509) scale(0.1 -0.1)">
       <defs>
        <path id="DejaVuSans-36" d="M 2113 2584 
Q 1688 2584 1439 2293 
Q 1191 2003 1191 1497 
Q 1191 994 1439 701 
Q 1688 409 2113 409 
Q 2538 409 2786 701 
Q 3034 994 3034 1497 
Q 3034 2003 2786 2293 
Q 2538 2584 2113 2584 
z
M 3366 4563 
L 3366 3988 
Q 3128 4100 2886 4159 
Q 2644 4219 2406 4219 
Q 1781 4219 1451 3797 
Q 1122 3375 1075 2522 
Q 1259 2794 1537 2939 
Q 1816 3084 2150 3084 
Q 2853 3084 3261 2657 
Q 3669 2231 3669 1497 
Q 3669 778 3244 343 
Q 2819 -91 2113 -91 
Q 1303 -91 875 529 
Q 447 1150 447 2328 
Q 447 3434 972 4092 
Q 1497 4750 2381 4750 
Q 2619 4750 2861 4703 
Q 3103 4656 3366 4563 
z
" transform="scale(0.015625)"/>
       </defs>
       <use xlink:href="#DejaVuSans-30"/>
       <use xlink:href="#DejaVuSans-2e" x="63.623047"/>
       <use xlink:href="#DejaVuSans-30" x="95.410156"/>
       <use xlink:href="#DejaVuSans-30" x="159.033203"/>
       <use xlink:href="#DejaVuSans-36" x="222.65625"/>
      </g>
     </g>
    </g>
    <g id="ytick_5">
     <g id="line2d_10">
      <g>
       <use xlink:href="#m63dc06a1e7" x="56.50625" y="143.263575" style="stroke: #000000; stroke-width: 0.8"/>
      </g>
     </g>
     <g id="text_11">
      <!-- 0.008 -->
      <g transform="translate(20.878125 147.062793) scale(0.1 -0.1)">
       <defs>
        <path id="DejaVuSans-38" d="M 2034 2216 
Q 1584 2216 1326 1975 
Q 1069 1734 1069 1313 
Q 1069 891 1326 650 
Q 1584 409 2034 409 
Q 2484 409 2743 651 
Q 3003 894 3003 1313 
Q 3003 1734 2745 1975 
Q 2488 2216 2034 2216 
z
M 1403 2484 
Q 997 2584 770 2862 
Q 544 3141 544 3541 
Q 544 4100 942 4425 
Q 1341 4750 2034 4750 
Q 2731 4750 3128 4425 
Q 3525 4100 3525 3541 
Q 3525 3141 3298 2862 
Q 3072 2584 2669 2484 
Q 3125 2378 3379 2068 
Q 3634 1759 3634 1313 
Q 3634 634 3220 271 
Q 2806 -91 2034 -91 
Q 1263 -91 848 271 
Q 434 634 434 1313 
Q 434 1759 690 2068 
Q 947 2378 1403 2484 
z
M 1172 3481 
Q 1172 3119 1398 2916 
Q 1625 2713 2034 2713 
Q 2441 2713 2670 2916 
Q 2900 3119 2900 3481 
Q 2900 3844 2670 4047 
Q 2441 4250 2034 4250 
Q 1625 4250 1398 4047 
Q 1172 3844 1172 3481 
z
" transform="scale(0.015625)"/>
       </defs>
       <use xlink:href="#DejaVuSans-30"/>
       <use xlink:href="#DejaVuSans-2e" x="63.623047"/>
       <use xlink:href="#DejaVuSans-30" x="95.410156"/>
       <use xlink:href="#DejaVuSans-30" x="159.033203"/>
       <use xlink:href="#DejaVuSans-38" x="222.65625"/>
      </g>
     </g>
    </g>
    <g id="ytick_6">
     <g id="line2d_11">
      <g>
       <use xlink:href="#m63dc06a1e7" x="56.50625" y="118.549859" style="stroke: #000000; stroke-width: 0.8"/>
      </g>
     </g>
     <g id="text_12">
      <!-- 0.010 -->
      <g transform="translate(20.878125 122.349078) scale(0.1 -0.1)">
       <use xlink:href="#DejaVuSans-30"/>
       <use xlink:href="#DejaVuSans-2e" x="63.623047"/>
       <use xlink:href="#DejaVuSans-30" x="95.410156"/>
       <use xlink:href="#DejaVuSans-31" x="159.033203"/>
       <use xlink:href="#DejaVuSans-30" x="222.65625"/>
      </g>
     </g>
    </g>
    <g id="ytick_7">
     <g id="line2d_12">
      <g>
       <use xlink:href="#m63dc06a1e7" x="56.50625" y="93.836143" style="stroke: #000000; stroke-width: 0.8"/>
      </g>
     </g>
     <g id="text_13">
      <!-- 0.012 -->
      <g transform="translate(20.878125 97.635362) scale(0.1 -0.1)">
       <use xlink:href="#DejaVuSans-30"/>
       <use xlink:href="#DejaVuSans-2e" x="63.623047"/>
       <use xlink:href="#DejaVuSans-30" x="95.410156"/>
       <use xlink:href="#DejaVuSans-31" x="159.033203"/>
       <use xlink:href="#DejaVuSans-32" x="222.65625"/>
      </g>
     </g>
    </g>
    <g id="ytick_8">
     <g id="line2d_13">
      <g>
       <use xlink:href="#m63dc06a1e7" x="56.50625" y="69.122427" style="stroke: #000000; stroke-width: 0.8"/>
      </g>
     </g>
     <g id="text_14">
      <!-- 0.014 -->
      <g transform="translate(20.878125 72.921646) scale(0.1 -0.1)">
       <use xlink:href="#DejaVuSans-30"/>
       <use xlink:href="#DejaVuSans-2e" x="63.623047"/>
       <use xlink:href="#DejaVuSans-30" x="95.410156"/>
       <use xlink:href="#DejaVuSans-31" x="159.033203"/>
       <use xlink:href="#DejaVuSans-34" x="222.65625"/>
      </g>
     </g>
    </g>
    <g id="ytick_9">
     <g id="line2d_14">
      <g>
       <use xlink:href="#m63dc06a1e7" x="56.50625" y="44.408712" style="stroke: #000000; stroke-width: 0.8"/>
      </g>
     </g>
     <g id="text_15">
      <!-- 0.016 -->
      <g transform="translate(20.878125 48.20793) scale(0.1 -0.1)">
       <use xlink:href="#DejaVuSans-30"/>
       <use xlink:href="#DejaVuSans-2e" x="63.623047"/>
       <use xlink:href="#DejaVuSans-30" x="95.410156"/>
       <use xlink:href="#DejaVuSans-31" x="159.033203"/>
       <use xlink:href="#DejaVuSans-36" x="222.65625"/>
      </g>
     </g>
    </g>
    <g id="text_16">
     <!-- Density -->
     <g transform="translate(14.798438 150.467031) rotate(-90) scale(0.1 -0.1)">
      <defs>
       <path id="DejaVuSans-44" d="M 1259 4147 
L 1259 519 
L 2022 519 
Q 2988 519 3436 956 
Q 3884 1394 3884 2338 
Q 3884 3275 3436 3711 
Q 2988 4147 2022 4147 
L 1259 4147 
z
M 628 4666 
L 1925 4666 
Q 3281 4666 3915 4102 
Q 4550 3538 4550 2338 
Q 4550 1131 3912 565 
Q 3275 0 1925 0 
L 628 0 
L 628 4666 
z
" transform="scale(0.015625)"/>
       <path id="DejaVuSans-65" d="M 3597 1894 
L 3597 1613 
L 953 1613 
Q 991 1019 1311 708 
Q 1631 397 2203 397 
Q 2534 397 2845 478 
Q 3156 559 3463 722 
L 3463 178 
Q 3153 47 2828 -22 
Q 2503 -91 2169 -91 
Q 1331 -91 842 396 
Q 353 884 353 1716 
Q 353 2575 817 3079 
Q 1281 3584 2069 3584 
Q 2775 3584 3186 3129 
Q 3597 2675 3597 1894 
z
M 3022 2063 
Q 3016 2534 2758 2815 
Q 2500 3097 2075 3097 
Q 1594 3097 1305 2825 
Q 1016 2553 972 2059 
L 3022 2063 
z
" transform="scale(0.015625)"/>
       <path id="DejaVuSans-6e" d="M 3513 2113 
L 3513 0 
L 2938 0 
L 2938 2094 
Q 2938 2591 2744 2837 
Q 2550 3084 2163 3084 
Q 1697 3084 1428 2787 
Q 1159 2491 1159 1978 
L 1159 0 
L 581 0 
L 581 3500 
L 1159 3500 
L 1159 2956 
Q 1366 3272 1645 3428 
Q 1925 3584 2291 3584 
Q 2894 3584 3203 3211 
Q 3513 2838 3513 2113 
z
" transform="scale(0.015625)"/>
       <path id="DejaVuSans-73" d="M 2834 3397 
L 2834 2853 
Q 2591 2978 2328 3040 
Q 2066 3103 1784 3103 
Q 1356 3103 1142 2972 
Q 928 2841 928 2578 
Q 928 2378 1081 2264 
Q 1234 2150 1697 2047 
L 1894 2003 
Q 2506 1872 2764 1633 
Q 3022 1394 3022 966 
Q 3022 478 2636 193 
Q 2250 -91 1575 -91 
Q 1294 -91 989 -36 
Q 684 19 347 128 
L 347 722 
Q 666 556 975 473 
Q 1284 391 1588 391 
Q 1994 391 2212 530 
Q 2431 669 2431 922 
Q 2431 1156 2273 1281 
Q 2116 1406 1581 1522 
L 1381 1569 
Q 847 1681 609 1914 
Q 372 2147 372 2553 
Q 372 3047 722 3315 
Q 1072 3584 1716 3584 
Q 2034 3584 2315 3537 
Q 2597 3491 2834 3397 
z
" transform="scale(0.015625)"/>
       <path id="DejaVuSans-69" d="M 603 3500 
L 1178 3500 
L 1178 0 
L 603 0 
L 603 3500 
z
M 603 4863 
L 1178 4863 
L 1178 4134 
L 603 4134 
L 603 4863 
z
" transform="scale(0.015625)"/>
       <path id="DejaVuSans-74" d="M 1172 4494 
L 1172 3500 
L 2356 3500 
L 2356 3053 
L 1172 3053 
L 1172 1153 
Q 1172 725 1289 603 
Q 1406 481 1766 481 
L 2356 481 
L 2356 0 
L 1766 0 
Q 1100 0 847 248 
Q 594 497 594 1153 
L 594 3053 
L 172 3053 
L 172 3500 
L 594 3500 
L 594 4494 
L 1172 4494 
z
" transform="scale(0.015625)"/>
       <path id="DejaVuSans-79" d="M 2059 -325 
Q 1816 -950 1584 -1140 
Q 1353 -1331 966 -1331 
L 506 -1331 
L 506 -850 
L 844 -850 
Q 1081 -850 1212 -737 
Q 1344 -625 1503 -206 
L 1606 56 
L 191 3500 
L 800 3500 
L 1894 763 
L 2988 3500 
L 3597 3500 
L 2059 -325 
z
" transform="scale(0.015625)"/>
      </defs>
      <use xlink:href="#DejaVuSans-44"/>
      <use xlink:href="#DejaVuSans-65" x="77.001953"/>
      <use xlink:href="#DejaVuSans-6e" x="138.525391"/>
      <use xlink:href="#DejaVuSans-73" x="201.904297"/>
      <use xlink:href="#DejaVuSans-69" x="254.003906"/>
      <use xlink:href="#DejaVuSans-74" x="281.787109"/>
      <use xlink:href="#DejaVuSans-79" x="320.996094"/>
     </g>
    </g>
   </g>
   <g id="line2d_15">
    <path d="M 72.905795 242.088698 
L 74.553991 241.972562 
L 76.202187 241.541572 
L 77.850382 240.266093 
L 79.498578 237.24354 
L 81.146773 231.476935 
L 82.794969 222.559863 
L 86.09136 199.663219 
L 87.739555 189.872406 
L 89.387751 183.462314 
L 91.035946 180.714385 
L 92.684142 180.721293 
L 94.332337 181.903857 
L 95.980533 182.722938 
L 97.628728 182.245639 
L 99.276924 180.295 
L 100.925119 177.18188 
L 102.573315 173.320895 
L 109.166097 156.348317 
L 110.814292 151.537647 
L 112.462488 145.669144 
L 114.110684 138.778419 
L 122.351661 101.156152 
L 125.648052 85.478701 
L 127.296248 78.125343 
L 128.944443 71.460033 
L 130.592639 65.83585 
L 132.240834 61.664707 
L 133.88903 59.259409 
L 135.537225 58.583686 
L 137.185421 59.471628 
L 138.833616 62.399781 
L 140.481812 68.420643 
L 142.130007 77.683186 
L 145.426398 98.957032 
L 148.72279 118.385993 
L 150.370985 129.831899 
L 152.019181 142.174475 
L 153.667376 153.582711 
L 155.315572 162.886855 
L 158.611963 177.755962 
L 161.908354 192.398264 
L 163.556549 198.674424 
L 165.204745 203.75996 
L 166.85294 207.976492 
L 170.149331 215.287035 
L 171.797527 218.455588 
L 173.445722 221.104687 
L 175.093918 223.18767 
L 180.038504 228.251505 
L 183.334896 232.389528 
L 184.983091 234.15434 
L 186.631287 235.47225 
L 188.279482 236.342101 
L 189.927678 236.764511 
L 191.575873 236.737023 
L 194.872264 236.124843 
L 196.52046 236.324836 
L 198.168655 237.152135 
L 201.465046 239.486336 
L 203.113242 240.251673 
L 204.761437 240.641284 
L 208.057828 240.927808 
L 211.354219 241.014306 
L 213.002415 240.898793 
L 217.947001 240.196032 
L 219.595197 240.269492 
L 221.243393 240.612086 
L 224.539784 241.501872 
L 226.187979 241.768394 
L 229.48437 241.974908 
L 234.428957 242.038674 
L 239.373543 241.880572 
L 244.31813 241.495803 
L 249.262716 241.044157 
L 250.910912 241.07167 
L 254.207303 241.489665 
L 257.503694 241.909172 
L 260.800085 242.031542 
L 280.578431 242.118436 
L 292.1158 242.032684 
L 300.356778 241.697487 
L 311.894146 242.115128 
L 379.470163 242.114749 
L 400.896705 242.117677 
L 400.896705 242.117677 
" clip-path="url(#pe38e08d53b)" style="fill: none; stroke: #ff0000; stroke-width: 1.5; stroke-linecap: square"/>
   </g>
   <g id="patch_141">
    <path d="M 56.50625 242.118437 
L 56.50625 20.798437 
" style="fill: none; stroke: #000000; stroke-width: 0.8; stroke-linejoin: miter; stroke-linecap: square"/>
   </g>
   <g id="patch_142">
    <path d="M 417.29625 242.118437 
L 417.29625 20.798437 
" style="fill: none; stroke: #000000; stroke-width: 0.8; stroke-linejoin: miter; stroke-linecap: square"/>
   </g>
   <g id="patch_143">
    <path d="M 56.50625 242.118437 
L 417.29625 242.118437 
" style="fill: none; stroke: #000000; stroke-width: 0.8; stroke-linejoin: miter; stroke-linecap: square"/>
   </g>
   <g id="patch_144">
    <path d="M 56.50625 20.798437 
L 417.29625 20.798437 
" style="fill: none; stroke: #000000; stroke-width: 0.8; stroke-linejoin: miter; stroke-linecap: square"/>
   </g>
   <g id="text_17">
    <!-- Distribution of GFR -->
    <g transform="translate(189.510625 14.798437) scale(0.1 -0.1)">
     <defs>
      <path id="DejaVuSans-72" d="M 2631 2963 
Q 2534 3019 2420 3045 
Q 2306 3072 2169 3072 
Q 1681 3072 1420 2755 
Q 1159 2438 1159 1844 
L 1159 0 
L 581 0 
L 581 3500 
L 1159 3500 
L 1159 2956 
Q 1341 3275 1631 3429 
Q 1922 3584 2338 3584 
Q 2397 3584 2469 3576 
Q 2541 3569 2628 3553 
L 2631 2963 
z
" transform="scale(0.015625)"/>
      <path id="DejaVuSans-62" d="M 3116 1747 
Q 3116 2381 2855 2742 
Q 2594 3103 2138 3103 
Q 1681 3103 1420 2742 
Q 1159 2381 1159 1747 
Q 1159 1113 1420 752 
Q 1681 391 2138 391 
Q 2594 391 2855 752 
Q 3116 1113 3116 1747 
z
M 1159 2969 
Q 1341 3281 1617 3432 
Q 1894 3584 2278 3584 
Q 2916 3584 3314 3078 
Q 3713 2572 3713 1747 
Q 3713 922 3314 415 
Q 2916 -91 2278 -91 
Q 1894 -91 1617 61 
Q 1341 213 1159 525 
L 1159 0 
L 581 0 
L 581 4863 
L 1159 4863 
L 1159 2969 
z
" transform="scale(0.015625)"/>
      <path id="DejaVuSans-75" d="M 544 1381 
L 544 3500 
L 1119 3500 
L 1119 1403 
Q 1119 906 1312 657 
Q 1506 409 1894 409 
Q 2359 409 2629 706 
Q 2900 1003 2900 1516 
L 2900 3500 
L 3475 3500 
L 3475 0 
L 2900 0 
L 2900 538 
Q 2691 219 2414 64 
Q 2138 -91 1772 -91 
Q 1169 -91 856 284 
Q 544 659 544 1381 
z
M 1991 3584 
L 1991 3584 
z
" transform="scale(0.015625)"/>
      <path id="DejaVuSans-6f" d="M 1959 3097 
Q 1497 3097 1228 2736 
Q 959 2375 959 1747 
Q 959 1119 1226 758 
Q 1494 397 1959 397 
Q 2419 397 2687 759 
Q 2956 1122 2956 1747 
Q 2956 2369 2687 2733 
Q 2419 3097 1959 3097 
z
M 1959 3584 
Q 2709 3584 3137 3096 
Q 3566 2609 3566 1747 
Q 3566 888 3137 398 
Q 2709 -91 1959 -91 
Q 1206 -91 779 398 
Q 353 888 353 1747 
Q 353 2609 779 3096 
Q 1206 3584 1959 3584 
z
" transform="scale(0.015625)"/>
      <path id="DejaVuSans-20" transform="scale(0.015625)"/>
      <path id="DejaVuSans-66" d="M 2375 4863 
L 2375 4384 
L 1825 4384 
Q 1516 4384 1395 4259 
Q 1275 4134 1275 3809 
L 1275 3500 
L 2222 3500 
L 2222 3053 
L 1275 3053 
L 1275 0 
L 697 0 
L 697 3053 
L 147 3053 
L 147 3500 
L 697 3500 
L 697 3744 
Q 697 4328 969 4595 
Q 1241 4863 1831 4863 
L 2375 4863 
z
" transform="scale(0.015625)"/>
     </defs>
     <use xlink:href="#DejaVuSans-44"/>
     <use xlink:href="#DejaVuSans-69" x="77.001953"/>
     <use xlink:href="#DejaVuSans-73" x="104.785156"/>
     <use xlink:href="#DejaVuSans-74" x="156.884766"/>
     <use xlink:href="#DejaVuSans-72" x="196.09375"/>
     <use xlink:href="#DejaVuSans-69" x="237.207031"/>
     <use xlink:href="#DejaVuSans-62" x="264.990234"/>
     <use xlink:href="#DejaVuSans-75" x="328.466797"/>
     <use xlink:href="#DejaVuSans-74" x="391.845703"/>
     <use xlink:href="#DejaVuSans-69" x="431.054688"/>
     <use xlink:href="#DejaVuSans-6f" x="458.837891"/>
     <use xlink:href="#DejaVuSans-6e" x="520.019531"/>
     <use xlink:href="#DejaVuSans-20" x="583.398438"/>
     <use xlink:href="#DejaVuSans-6f" x="615.185547"/>
     <use xlink:href="#DejaVuSans-66" x="676.367188"/>
     <use xlink:href="#DejaVuSans-20" x="711.572266"/>
     <use xlink:href="#DejaVuSans-47" x="743.359375"/>
     <use xlink:href="#DejaVuSans-46" x="820.849609"/>
     <use xlink:href="#DejaVuSans-52" x="878.369141"/>
    </g>
   </g>
  </g>
 </g>
 <defs>
  <clipPath id="pe38e08d53b">
   <rect x="56.50625" y="20.798437" width="360.79" height="221.32"/>
  </clipPath>
 </defs>
</svg>
