<?xml version="1.0" encoding="utf-8" standalone="no"?>
<!DOCTYPE svg PUBLIC "-//W3C//DTD SVG 1.1//EN"
  "http://www.w3.org/Graphics/SVG/1.1/DTD/svg11.dtd">
<svg xmlns:xlink="http://www.w3.org/1999/xlink" width="856.46125pt" height="423.034375pt" viewBox="0 0 856.46125 423.034375" xmlns="http://www.w3.org/2000/svg" version="1.1">
 <metadata>
  <rdf:RDF xmlns:dc="http://purl.org/dc/elements/1.1/" xmlns:cc="http://creativecommons.org/ns#" xmlns:rdf="http://www.w3.org/1999/02/22-rdf-syntax-ns#">
   <cc:Work>
    <dc:type rdf:resource="http://purl.org/dc/dcmitype/StillImage"/>
    <dc:date>2024-07-20T21:25:35.233242</dc:date>
    <dc:format>image/svg+xml</dc:format>
    <dc:creator>
     <cc:Agent>
      <dc:title>Matplotlib v3.9.0, https://matplotlib.org/</dc:title>
     </cc:Agent>
    </dc:creator>
   </cc:Work>
  </rdf:RDF>
 </metadata>
 <defs>
  <style type="text/css">*{stroke-linejoin: round; stroke-linecap: butt}</style>
 </defs>
 <g id="figure_1">
  <g id="patch_1">
   <path d="M 0 423.034375 
L 856.46125 423.034375 
L 856.46125 0 
L 0 0 
z
" style="fill: #ffffff"/>
  </g>
  <g id="axes_1">
   <g id="patch_2">
    <path d="M 43.78125 385.478125 
L 849.26125 385.478125 
L 849.26125 22.318125 
L 43.78125 22.318125 
z
" style="fill: #ffffff"/>
   </g>
   <g id="patch_3">
    <path d="M 98.030025 385.478125 
L 101.880757 385.478125 
L 101.880757 384.963825 
L 98.030025 384.963825 
z
" clip-path="url(#p67e6c51cda)" style="fill: #1f77b4; fill-opacity: 0.5; stroke: #000000; stroke-width: 0.336313; stroke-linejoin: miter"/>
   </g>
   <g id="patch_4">
    <path d="M 101.880757 385.478125 
L 105.731489 385.478125 
L 105.731489 385.478125 
L 101.880757 385.478125 
z
" clip-path="url(#p67e6c51cda)" style="fill: #1f77b4; fill-opacity: 0.5; stroke: #000000; stroke-width: 0.336313; stroke-linejoin: miter"/>
   </g>
   <g id="patch_5">
    <path d="M 105.731489 385.478125 
L 109.582221 385.478125 
L 109.582221 385.478125 
L 105.731489 385.478125 
z
" clip-path="url(#p67e6c51cda)" style="fill: #1f77b4; fill-opacity: 0.5; stroke: #000000; stroke-width: 0.336313; stroke-linejoin: miter"/>
   </g>
   <g id="patch_6">
    <path d="M 109.582221 385.478125 
L 113.432953 385.478125 
L 113.432953 385.478125 
L 109.582221 385.478125 
z
" clip-path="url(#p67e6c51cda)" style="fill: #1f77b4; fill-opacity: 0.5; stroke: #000000; stroke-width: 0.336313; stroke-linejoin: miter"/>
   </g>
   <g id="patch_7">
    <path d="M 113.432953 385.478125 
L 117.283684 385.478125 
L 117.283684 385.478125 
L 113.432953 385.478125 
z
" clip-path="url(#p67e6c51cda)" style="fill: #1f77b4; fill-opacity: 0.5; stroke: #000000; stroke-width: 0.336313; stroke-linejoin: miter"/>
   </g>
   <g id="patch_8">
    <path d="M 117.283684 385.478125 
L 121.134416 385.478125 
L 121.134416 385.478125 
L 117.283684 385.478125 
z
" clip-path="url(#p67e6c51cda)" style="fill: #1f77b4; fill-opacity: 0.5; stroke: #000000; stroke-width: 0.336313; stroke-linejoin: miter"/>
   </g>
   <g id="patch_9">
    <path d="M 121.134416 385.478125 
L 124.985148 385.478125 
L 124.985148 385.478125 
L 121.134416 385.478125 
z
" clip-path="url(#p67e6c51cda)" style="fill: #1f77b4; fill-opacity: 0.5; stroke: #000000; stroke-width: 0.336313; stroke-linejoin: miter"/>
   </g>
   <g id="patch_10">
    <path d="M 124.985148 385.478125 
L 128.83588 385.478125 
L 128.83588 385.478125 
L 124.985148 385.478125 
z
" clip-path="url(#p67e6c51cda)" style="fill: #1f77b4; fill-opacity: 0.5; stroke: #000000; stroke-width: 0.336313; stroke-linejoin: miter"/>
   </g>
   <g id="patch_11">
    <path d="M 128.83588 385.478125 
L 132.686611 385.478125 
L 132.686611 385.478125 
L 128.83588 385.478125 
z
" clip-path="url(#p67e6c51cda)" style="fill: #1f77b4; fill-opacity: 0.5; stroke: #000000; stroke-width: 0.336313; stroke-linejoin: miter"/>
   </g>
   <g id="patch_12">
    <path d="M 132.686611 385.478125 
L 136.537343 385.478125 
L 136.537343 385.478125 
L 132.686611 385.478125 
z
" clip-path="url(#p67e6c51cda)" style="fill: #1f77b4; fill-opacity: 0.5; stroke: #000000; stroke-width: 0.336313; stroke-linejoin: miter"/>
   </g>
   <g id="patch_13">
    <path d="M 136.537343 385.478125 
L 140.388075 385.478125 
L 140.388075 385.478125 
L 136.537343 385.478125 
z
" clip-path="url(#p67e6c51cda)" style="fill: #1f77b4; fill-opacity: 0.5; stroke: #000000; stroke-width: 0.336313; stroke-linejoin: miter"/>
   </g>
   <g id="patch_14">
    <path d="M 140.388075 385.478125 
L 144.238807 385.478125 
L 144.238807 385.478125 
L 140.388075 385.478125 
z
" clip-path="url(#p67e6c51cda)" style="fill: #1f77b4; fill-opacity: 0.5; stroke: #000000; stroke-width: 0.336313; stroke-linejoin: miter"/>
   </g>
   <g id="patch_15">
    <path d="M 144.238807 385.478125 
L 148.089538 385.478125 
L 148.089538 385.220975 
L 144.238807 385.220975 
z
" clip-path="url(#p67e6c51cda)" style="fill: #1f77b4; fill-opacity: 0.5; stroke: #000000; stroke-width: 0.336313; stroke-linejoin: miter"/>
   </g>
   <g id="patch_16">
    <path d="M 148.089538 385.478125 
L 151.94027 385.478125 
L 151.94027 385.478125 
L 148.089538 385.478125 
z
" clip-path="url(#p67e6c51cda)" style="fill: #1f77b4; fill-opacity: 0.5; stroke: #000000; stroke-width: 0.336313; stroke-linejoin: miter"/>
   </g>
   <g id="patch_17">
    <path d="M 151.94027 385.478125 
L 155.791002 385.478125 
L 155.791002 385.478125 
L 151.94027 385.478125 
z
" clip-path="url(#p67e6c51cda)" style="fill: #1f77b4; fill-opacity: 0.5; stroke: #000000; stroke-width: 0.336313; stroke-linejoin: miter"/>
   </g>
   <g id="patch_18">
    <path d="M 155.791002 385.478125 
L 159.641734 385.478125 
L 159.641734 385.478125 
L 155.791002 385.478125 
z
" clip-path="url(#p67e6c51cda)" style="fill: #1f77b4; fill-opacity: 0.5; stroke: #000000; stroke-width: 0.336313; stroke-linejoin: miter"/>
   </g>
   <g id="patch_19">
    <path d="M 159.641734 385.478125 
L 163.492465 385.478125 
L 163.492465 385.478125 
L 159.641734 385.478125 
z
" clip-path="url(#p67e6c51cda)" style="fill: #1f77b4; fill-opacity: 0.5; stroke: #000000; stroke-width: 0.336313; stroke-linejoin: miter"/>
   </g>
   <g id="patch_20">
    <path d="M 163.492465 385.478125 
L 167.343197 385.478125 
L 167.343197 385.220975 
L 163.492465 385.220975 
z
" clip-path="url(#p67e6c51cda)" style="fill: #1f77b4; fill-opacity: 0.5; stroke: #000000; stroke-width: 0.336313; stroke-linejoin: miter"/>
   </g>
   <g id="patch_21">
    <path d="M 167.343197 385.478125 
L 171.193929 385.478125 
L 171.193929 385.478125 
L 167.343197 385.478125 
z
" clip-path="url(#p67e6c51cda)" style="fill: #1f77b4; fill-opacity: 0.5; stroke: #000000; stroke-width: 0.336313; stroke-linejoin: miter"/>
   </g>
   <g id="patch_22">
    <path d="M 171.193929 385.478125 
L 175.044661 385.478125 
L 175.044661 385.478125 
L 171.193929 385.478125 
z
" clip-path="url(#p67e6c51cda)" style="fill: #1f77b4; fill-opacity: 0.5; stroke: #000000; stroke-width: 0.336313; stroke-linejoin: miter"/>
   </g>
   <g id="patch_23">
    <path d="M 175.044661 385.478125 
L 178.895392 385.478125 
L 178.895392 385.478125 
L 175.044661 385.478125 
z
" clip-path="url(#p67e6c51cda)" style="fill: #1f77b4; fill-opacity: 0.5; stroke: #000000; stroke-width: 0.336313; stroke-linejoin: miter"/>
   </g>
   <g id="patch_24">
    <path d="M 178.895392 385.478125 
L 182.746124 385.478125 
L 182.746124 385.478125 
L 178.895392 385.478125 
z
" clip-path="url(#p67e6c51cda)" style="fill: #1f77b4; fill-opacity: 0.5; stroke: #000000; stroke-width: 0.336313; stroke-linejoin: miter"/>
   </g>
   <g id="patch_25">
    <path d="M 182.746124 385.478125 
L 186.596856 385.478125 
L 186.596856 384.706675 
L 182.746124 384.706675 
z
" clip-path="url(#p67e6c51cda)" style="fill: #1f77b4; fill-opacity: 0.5; stroke: #000000; stroke-width: 0.336313; stroke-linejoin: miter"/>
   </g>
   <g id="patch_26">
    <path d="M 186.596856 385.478125 
L 190.447588 385.478125 
L 190.447588 385.478125 
L 186.596856 385.478125 
z
" clip-path="url(#p67e6c51cda)" style="fill: #1f77b4; fill-opacity: 0.5; stroke: #000000; stroke-width: 0.336313; stroke-linejoin: miter"/>
   </g>
   <g id="patch_27">
    <path d="M 190.447588 385.478125 
L 194.29832 385.478125 
L 194.29832 385.220975 
L 190.447588 385.220975 
z
" clip-path="url(#p67e6c51cda)" style="fill: #1f77b4; fill-opacity: 0.5; stroke: #000000; stroke-width: 0.336313; stroke-linejoin: miter"/>
   </g>
   <g id="patch_28">
    <path d="M 194.29832 385.478125 
L 198.149051 385.478125 
L 198.149051 384.963825 
L 194.29832 384.963825 
z
" clip-path="url(#p67e6c51cda)" style="fill: #1f77b4; fill-opacity: 0.5; stroke: #000000; stroke-width: 0.336313; stroke-linejoin: miter"/>
   </g>
   <g id="patch_29">
    <path d="M 198.149051 385.478125 
L 201.999783 385.478125 
L 201.999783 385.478125 
L 198.149051 385.478125 
z
" clip-path="url(#p67e6c51cda)" style="fill: #1f77b4; fill-opacity: 0.5; stroke: #000000; stroke-width: 0.336313; stroke-linejoin: miter"/>
   </g>
   <g id="patch_30">
    <path d="M 201.999783 385.478125 
L 205.850515 385.478125 
L 205.850515 385.220975 
L 201.999783 385.220975 
z
" clip-path="url(#p67e6c51cda)" style="fill: #1f77b4; fill-opacity: 0.5; stroke: #000000; stroke-width: 0.336313; stroke-linejoin: miter"/>
   </g>
   <g id="patch_31">
    <path d="M 205.850515 385.478125 
L 209.701247 385.478125 
L 209.701247 384.449525 
L 205.850515 384.449525 
z
" clip-path="url(#p67e6c51cda)" style="fill: #1f77b4; fill-opacity: 0.5; stroke: #000000; stroke-width: 0.336313; stroke-linejoin: miter"/>
   </g>
   <g id="patch_32">
    <path d="M 209.701247 385.478125 
L 213.551978 385.478125 
L 213.551978 385.478125 
L 209.701247 385.478125 
z
" clip-path="url(#p67e6c51cda)" style="fill: #1f77b4; fill-opacity: 0.5; stroke: #000000; stroke-width: 0.336313; stroke-linejoin: miter"/>
   </g>
   <g id="patch_33">
    <path d="M 213.551978 385.478125 
L 217.40271 385.478125 
L 217.40271 384.706675 
L 213.551978 384.706675 
z
" clip-path="url(#p67e6c51cda)" style="fill: #1f77b4; fill-opacity: 0.5; stroke: #000000; stroke-width: 0.336313; stroke-linejoin: miter"/>
   </g>
   <g id="patch_34">
    <path d="M 217.40271 385.478125 
L 221.253442 385.478125 
L 221.253442 385.478125 
L 217.40271 385.478125 
z
" clip-path="url(#p67e6c51cda)" style="fill: #1f77b4; fill-opacity: 0.5; stroke: #000000; stroke-width: 0.336313; stroke-linejoin: miter"/>
   </g>
   <g id="patch_35">
    <path d="M 221.253442 385.478125 
L 225.104174 385.478125 
L 225.104174 384.963825 
L 221.253442 384.963825 
z
" clip-path="url(#p67e6c51cda)" style="fill: #1f77b4; fill-opacity: 0.5; stroke: #000000; stroke-width: 0.336313; stroke-linejoin: miter"/>
   </g>
   <g id="patch_36">
    <path d="M 225.104174 385.478125 
L 228.954905 385.478125 
L 228.954905 384.449525 
L 225.104174 384.449525 
z
" clip-path="url(#p67e6c51cda)" style="fill: #1f77b4; fill-opacity: 0.5; stroke: #000000; stroke-width: 0.336313; stroke-linejoin: miter"/>
   </g>
   <g id="patch_37">
    <path d="M 228.954905 385.478125 
L 232.805637 385.478125 
L 232.805637 385.478125 
L 228.954905 385.478125 
z
" clip-path="url(#p67e6c51cda)" style="fill: #1f77b4; fill-opacity: 0.5; stroke: #000000; stroke-width: 0.336313; stroke-linejoin: miter"/>
   </g>
   <g id="patch_38">
    <path d="M 232.805637 385.478125 
L 236.656369 385.478125 
L 236.656369 384.706675 
L 232.805637 384.706675 
z
" clip-path="url(#p67e6c51cda)" style="fill: #1f77b4; fill-opacity: 0.5; stroke: #000000; stroke-width: 0.336313; stroke-linejoin: miter"/>
   </g>
   <g id="patch_39">
    <path d="M 236.656369 385.478125 
L 240.507101 385.478125 
L 240.507101 384.192375 
L 236.656369 384.192375 
z
" clip-path="url(#p67e6c51cda)" style="fill: #1f77b4; fill-opacity: 0.5; stroke: #000000; stroke-width: 0.336313; stroke-linejoin: miter"/>
   </g>
   <g id="patch_40">
    <path d="M 240.507101 385.478125 
L 244.357832 385.478125 
L 244.357832 385.478125 
L 240.507101 385.478125 
z
" clip-path="url(#p67e6c51cda)" style="fill: #1f77b4; fill-opacity: 0.5; stroke: #000000; stroke-width: 0.336313; stroke-linejoin: miter"/>
   </g>
   <g id="patch_41">
    <path d="M 244.357832 385.478125 
L 248.208564 385.478125 
L 248.208564 384.449525 
L 244.357832 384.449525 
z
" clip-path="url(#p67e6c51cda)" style="fill: #1f77b4; fill-opacity: 0.5; stroke: #000000; stroke-width: 0.336313; stroke-linejoin: miter"/>
   </g>
   <g id="patch_42">
    <path d="M 248.208564 385.478125 
L 252.059296 385.478125 
L 252.059296 385.478125 
L 248.208564 385.478125 
z
" clip-path="url(#p67e6c51cda)" style="fill: #1f77b4; fill-opacity: 0.5; stroke: #000000; stroke-width: 0.336313; stroke-linejoin: miter"/>
   </g>
   <g id="patch_43">
    <path d="M 252.059296 385.478125 
L 255.910028 385.478125 
L 255.910028 383.420925 
L 252.059296 383.420925 
z
" clip-path="url(#p67e6c51cda)" style="fill: #1f77b4; fill-opacity: 0.5; stroke: #000000; stroke-width: 0.336313; stroke-linejoin: miter"/>
   </g>
   <g id="patch_44">
    <path d="M 255.910028 385.478125 
L 259.76076 385.478125 
L 259.76076 385.220975 
L 255.910028 385.220975 
z
" clip-path="url(#p67e6c51cda)" style="fill: #1f77b4; fill-opacity: 0.5; stroke: #000000; stroke-width: 0.336313; stroke-linejoin: miter"/>
   </g>
   <g id="patch_45">
    <path d="M 259.76076 385.478125 
L 263.611491 385.478125 
L 263.611491 385.478125 
L 259.76076 385.478125 
z
" clip-path="url(#p67e6c51cda)" style="fill: #1f77b4; fill-opacity: 0.5; stroke: #000000; stroke-width: 0.336313; stroke-linejoin: miter"/>
   </g>
   <g id="patch_46">
    <path d="M 263.611491 385.478125 
L 267.462223 385.478125 
L 267.462223 384.449525 
L 263.611491 384.449525 
z
" clip-path="url(#p67e6c51cda)" style="fill: #1f77b4; fill-opacity: 0.5; stroke: #000000; stroke-width: 0.336313; stroke-linejoin: miter"/>
   </g>
   <g id="patch_47">
    <path d="M 267.462223 385.478125 
L 271.312955 385.478125 
L 271.312955 383.678075 
L 267.462223 383.678075 
z
" clip-path="url(#p67e6c51cda)" style="fill: #1f77b4; fill-opacity: 0.5; stroke: #000000; stroke-width: 0.336313; stroke-linejoin: miter"/>
   </g>
   <g id="patch_48">
    <path d="M 271.312955 385.478125 
L 275.163687 385.478125 
L 275.163687 385.478125 
L 271.312955 385.478125 
z
" clip-path="url(#p67e6c51cda)" style="fill: #1f77b4; fill-opacity: 0.5; stroke: #000000; stroke-width: 0.336313; stroke-linejoin: miter"/>
   </g>
   <g id="patch_49">
    <path d="M 275.163687 385.478125 
L 279.014418 385.478125 
L 279.014418 383.935225 
L 275.163687 383.935225 
z
" clip-path="url(#p67e6c51cda)" style="fill: #1f77b4; fill-opacity: 0.5; stroke: #000000; stroke-width: 0.336313; stroke-linejoin: miter"/>
   </g>
   <g id="patch_50">
    <path d="M 279.014418 385.478125 
L 282.86515 385.478125 
L 282.86515 385.478125 
L 279.014418 385.478125 
z
" clip-path="url(#p67e6c51cda)" style="fill: #1f77b4; fill-opacity: 0.5; stroke: #000000; stroke-width: 0.336313; stroke-linejoin: miter"/>
   </g>
   <g id="patch_51">
    <path d="M 282.86515 385.478125 
L 286.715882 385.478125 
L 286.715882 383.163776 
L 282.86515 383.163776 
z
" clip-path="url(#p67e6c51cda)" style="fill: #1f77b4; fill-opacity: 0.5; stroke: #000000; stroke-width: 0.336313; stroke-linejoin: miter"/>
   </g>
   <g id="patch_52">
    <path d="M 286.715882 385.478125 
L 290.566614 385.478125 
L 290.566614 382.135176 
L 286.715882 382.135176 
z
" clip-path="url(#p67e6c51cda)" style="fill: #1f77b4; fill-opacity: 0.5; stroke: #000000; stroke-width: 0.336313; stroke-linejoin: miter"/>
   </g>
   <g id="patch_53">
    <path d="M 290.566614 385.478125 
L 294.417345 385.478125 
L 294.417345 385.478125 
L 290.566614 385.478125 
z
" clip-path="url(#p67e6c51cda)" style="fill: #1f77b4; fill-opacity: 0.5; stroke: #000000; stroke-width: 0.336313; stroke-linejoin: miter"/>
   </g>
   <g id="patch_54">
    <path d="M 294.417345 385.478125 
L 298.268077 385.478125 
L 298.268077 382.392326 
L 294.417345 382.392326 
z
" clip-path="url(#p67e6c51cda)" style="fill: #1f77b4; fill-opacity: 0.5; stroke: #000000; stroke-width: 0.336313; stroke-linejoin: miter"/>
   </g>
   <g id="patch_55">
    <path d="M 298.268077 385.478125 
L 302.118809 385.478125 
L 302.118809 380.849426 
L 298.268077 380.849426 
z
" clip-path="url(#p67e6c51cda)" style="fill: #1f77b4; fill-opacity: 0.5; stroke: #000000; stroke-width: 0.336313; stroke-linejoin: miter"/>
   </g>
   <g id="patch_56">
    <path d="M 302.118809 385.478125 
L 305.969541 385.478125 
L 305.969541 385.478125 
L 302.118809 385.478125 
z
" clip-path="url(#p67e6c51cda)" style="fill: #1f77b4; fill-opacity: 0.5; stroke: #000000; stroke-width: 0.336313; stroke-linejoin: miter"/>
   </g>
   <g id="patch_57">
    <path d="M 305.969541 385.478125 
L 309.820272 385.478125 
L 309.820272 378.020777 
L 305.969541 378.020777 
z
" clip-path="url(#p67e6c51cda)" style="fill: #1f77b4; fill-opacity: 0.5; stroke: #000000; stroke-width: 0.336313; stroke-linejoin: miter"/>
   </g>
   <g id="patch_58">
    <path d="M 309.820272 385.478125 
L 313.671004 385.478125 
L 313.671004 385.478125 
L 309.820272 385.478125 
z
" clip-path="url(#p67e6c51cda)" style="fill: #1f77b4; fill-opacity: 0.5; stroke: #000000; stroke-width: 0.336313; stroke-linejoin: miter"/>
   </g>
   <g id="patch_59">
    <path d="M 313.671004 385.478125 
L 317.521736 385.478125 
L 317.521736 379.049377 
L 313.671004 379.049377 
z
" clip-path="url(#p67e6c51cda)" style="fill: #1f77b4; fill-opacity: 0.5; stroke: #000000; stroke-width: 0.336313; stroke-linejoin: miter"/>
   </g>
   <g id="patch_60">
    <path d="M 317.521736 385.478125 
L 321.372468 385.478125 
L 321.372468 376.220727 
L 317.521736 376.220727 
z
" clip-path="url(#p67e6c51cda)" style="fill: #1f77b4; fill-opacity: 0.5; stroke: #000000; stroke-width: 0.336313; stroke-linejoin: miter"/>
   </g>
   <g id="patch_61">
    <path d="M 321.372468 385.478125 
L 325.223199 385.478125 
L 325.223199 385.478125 
L 321.372468 385.478125 
z
" clip-path="url(#p67e6c51cda)" style="fill: #1f77b4; fill-opacity: 0.5; stroke: #000000; stroke-width: 0.336313; stroke-linejoin: miter"/>
   </g>
   <g id="patch_62">
    <path d="M 325.223199 385.478125 
L 329.073931 385.478125 
L 329.073931 376.220727 
L 325.223199 376.220727 
z
" clip-path="url(#p67e6c51cda)" style="fill: #1f77b4; fill-opacity: 0.5; stroke: #000000; stroke-width: 0.336313; stroke-linejoin: miter"/>
   </g>
   <g id="patch_63">
    <path d="M 329.073931 385.478125 
L 332.924663 385.478125 
L 332.924663 372.620628 
L 329.073931 372.620628 
z
" clip-path="url(#p67e6c51cda)" style="fill: #1f77b4; fill-opacity: 0.5; stroke: #000000; stroke-width: 0.336313; stroke-linejoin: miter"/>
   </g>
   <g id="patch_64">
    <path d="M 332.924663 385.478125 
L 336.775395 385.478125 
L 336.775395 385.478125 
L 332.924663 385.478125 
z
" clip-path="url(#p67e6c51cda)" style="fill: #1f77b4; fill-opacity: 0.5; stroke: #000000; stroke-width: 0.336313; stroke-linejoin: miter"/>
   </g>
   <g id="patch_65">
    <path d="M 336.775395 385.478125 
L 340.626127 385.478125 
L 340.626127 370.306279 
L 336.775395 370.306279 
z
" clip-path="url(#p67e6c51cda)" style="fill: #1f77b4; fill-opacity: 0.5; stroke: #000000; stroke-width: 0.336313; stroke-linejoin: miter"/>
   </g>
   <g id="patch_66">
    <path d="M 340.626127 385.478125 
L 344.476858 385.478125 
L 344.476858 385.478125 
L 340.626127 385.478125 
z
" clip-path="url(#p67e6c51cda)" style="fill: #1f77b4; fill-opacity: 0.5; stroke: #000000; stroke-width: 0.336313; stroke-linejoin: miter"/>
   </g>
   <g id="patch_67">
    <path d="M 344.476858 385.478125 
L 348.32759 385.478125 
L 348.32759 368.763379 
L 344.476858 368.763379 
z
" clip-path="url(#p67e6c51cda)" style="fill: #1f77b4; fill-opacity: 0.5; stroke: #000000; stroke-width: 0.336313; stroke-linejoin: miter"/>
   </g>
   <g id="patch_68">
    <path d="M 348.32759 385.478125 
L 352.178322 385.478125 
L 352.178322 361.820331 
L 348.32759 361.820331 
z
" clip-path="url(#p67e6c51cda)" style="fill: #1f77b4; fill-opacity: 0.5; stroke: #000000; stroke-width: 0.336313; stroke-linejoin: miter"/>
   </g>
   <g id="patch_69">
    <path d="M 352.178322 385.478125 
L 356.029054 385.478125 
L 356.029054 385.478125 
L 352.178322 385.478125 
z
" clip-path="url(#p67e6c51cda)" style="fill: #1f77b4; fill-opacity: 0.5; stroke: #000000; stroke-width: 0.336313; stroke-linejoin: miter"/>
   </g>
   <g id="patch_70">
    <path d="M 356.029054 385.478125 
L 359.879785 385.478125 
L 359.879785 357.705932 
L 356.029054 357.705932 
z
" clip-path="url(#p67e6c51cda)" style="fill: #1f77b4; fill-opacity: 0.5; stroke: #000000; stroke-width: 0.336313; stroke-linejoin: miter"/>
   </g>
   <g id="patch_71">
    <path d="M 359.879785 385.478125 
L 363.730517 385.478125 
L 363.730517 358.220232 
L 359.879785 358.220232 
z
" clip-path="url(#p67e6c51cda)" style="fill: #1f77b4; fill-opacity: 0.5; stroke: #000000; stroke-width: 0.336313; stroke-linejoin: miter"/>
   </g>
   <g id="patch_72">
    <path d="M 363.730517 385.478125 
L 367.581249 385.478125 
L 367.581249 385.478125 
L 363.730517 385.478125 
z
" clip-path="url(#p67e6c51cda)" style="fill: #1f77b4; fill-opacity: 0.5; stroke: #000000; stroke-width: 0.336313; stroke-linejoin: miter"/>
   </g>
   <g id="patch_73">
    <path d="M 367.581249 385.478125 
L 371.431981 385.478125 
L 371.431981 348.448534 
L 367.581249 348.448534 
z
" clip-path="url(#p67e6c51cda)" style="fill: #1f77b4; fill-opacity: 0.5; stroke: #000000; stroke-width: 0.336313; stroke-linejoin: miter"/>
   </g>
   <g id="patch_74">
    <path d="M 371.431981 385.478125 
L 375.282712 385.478125 
L 375.282712 385.478125 
L 371.431981 385.478125 
z
" clip-path="url(#p67e6c51cda)" style="fill: #1f77b4; fill-opacity: 0.5; stroke: #000000; stroke-width: 0.336313; stroke-linejoin: miter"/>
   </g>
   <g id="patch_75">
    <path d="M 375.282712 385.478125 
L 379.133444 385.478125 
L 379.133444 337.905386 
L 375.282712 337.905386 
z
" clip-path="url(#p67e6c51cda)" style="fill: #1f77b4; fill-opacity: 0.5; stroke: #000000; stroke-width: 0.336313; stroke-linejoin: miter"/>
   </g>
   <g id="patch_76">
    <path d="M 379.133444 385.478125 
L 382.984176 385.478125 
L 382.984176 341.505486 
L 379.133444 341.505486 
z
" clip-path="url(#p67e6c51cda)" style="fill: #1f77b4; fill-opacity: 0.5; stroke: #000000; stroke-width: 0.336313; stroke-linejoin: miter"/>
   </g>
   <g id="patch_77">
    <path d="M 382.984176 385.478125 
L 386.834908 385.478125 
L 386.834908 385.478125 
L 382.984176 385.478125 
z
" clip-path="url(#p67e6c51cda)" style="fill: #1f77b4; fill-opacity: 0.5; stroke: #000000; stroke-width: 0.336313; stroke-linejoin: miter"/>
   </g>
   <g id="patch_78">
    <path d="M 386.834908 385.478125 
L 390.685639 385.478125 
L 390.685639 324.79074 
L 386.834908 324.79074 
z
" clip-path="url(#p67e6c51cda)" style="fill: #1f77b4; fill-opacity: 0.5; stroke: #000000; stroke-width: 0.336313; stroke-linejoin: miter"/>
   </g>
   <g id="patch_79">
    <path d="M 390.685639 385.478125 
L 394.536371 385.478125 
L 394.536371 316.561942 
L 390.685639 316.561942 
z
" clip-path="url(#p67e6c51cda)" style="fill: #1f77b4; fill-opacity: 0.5; stroke: #000000; stroke-width: 0.336313; stroke-linejoin: miter"/>
   </g>
   <g id="patch_80">
    <path d="M 394.536371 385.478125 
L 398.387103 385.478125 
L 398.387103 385.478125 
L 394.536371 385.478125 
z
" clip-path="url(#p67e6c51cda)" style="fill: #1f77b4; fill-opacity: 0.5; stroke: #000000; stroke-width: 0.336313; stroke-linejoin: miter"/>
   </g>
   <g id="patch_81">
    <path d="M 398.387103 385.478125 
L 402.237835 385.478125 
L 402.237835 302.932995 
L 398.387103 302.932995 
z
" clip-path="url(#p67e6c51cda)" style="fill: #1f77b4; fill-opacity: 0.5; stroke: #000000; stroke-width: 0.336313; stroke-linejoin: miter"/>
   </g>
   <g id="patch_82">
    <path d="M 402.237835 385.478125 
L 406.088566 385.478125 
L 406.088566 385.478125 
L 402.237835 385.478125 
z
" clip-path="url(#p67e6c51cda)" style="fill: #1f77b4; fill-opacity: 0.5; stroke: #000000; stroke-width: 0.336313; stroke-linejoin: miter"/>
   </g>
   <g id="patch_83">
    <path d="M 406.088566 385.478125 
L 409.939298 385.478125 
L 409.939298 281.3324 
L 406.088566 281.3324 
z
" clip-path="url(#p67e6c51cda)" style="fill: #1f77b4; fill-opacity: 0.5; stroke: #000000; stroke-width: 0.336313; stroke-linejoin: miter"/>
   </g>
   <g id="patch_84">
    <path d="M 409.939298 385.478125 
L 413.79003 385.478125 
L 413.79003 264.103354 
L 409.939298 264.103354 
z
" clip-path="url(#p67e6c51cda)" style="fill: #1f77b4; fill-opacity: 0.5; stroke: #000000; stroke-width: 0.336313; stroke-linejoin: miter"/>
   </g>
   <g id="patch_85">
    <path d="M 413.79003 385.478125 
L 417.640762 385.478125 
L 417.640762 385.478125 
L 413.79003 385.478125 
z
" clip-path="url(#p67e6c51cda)" style="fill: #1f77b4; fill-opacity: 0.5; stroke: #000000; stroke-width: 0.336313; stroke-linejoin: miter"/>
   </g>
   <g id="patch_86">
    <path d="M 417.640762 385.478125 
L 421.491494 385.478125 
L 421.491494 233.245362 
L 417.640762 233.245362 
z
" clip-path="url(#p67e6c51cda)" style="fill: #1f77b4; fill-opacity: 0.5; stroke: #000000; stroke-width: 0.336313; stroke-linejoin: miter"/>
   </g>
   <g id="patch_87">
    <path d="M 421.491494 385.478125 
L 425.342225 385.478125 
L 425.342225 202.387369 
L 421.491494 202.387369 
z
" clip-path="url(#p67e6c51cda)" style="fill: #1f77b4; fill-opacity: 0.5; stroke: #000000; stroke-width: 0.336313; stroke-linejoin: miter"/>
   </g>
   <g id="patch_88">
    <path d="M 425.342225 385.478125 
L 429.192957 385.478125 
L 429.192957 385.478125 
L 425.342225 385.478125 
z
" clip-path="url(#p67e6c51cda)" style="fill: #1f77b4; fill-opacity: 0.5; stroke: #000000; stroke-width: 0.336313; stroke-linejoin: miter"/>
   </g>
   <g id="patch_89">
    <path d="M 429.192957 385.478125 
L 433.043689 385.478125 
L 433.043689 153.528881 
L 429.192957 153.528881 
z
" clip-path="url(#p67e6c51cda)" style="fill: #1f77b4; fill-opacity: 0.5; stroke: #000000; stroke-width: 0.336313; stroke-linejoin: miter"/>
   </g>
   <g id="patch_90">
    <path d="M 433.043689 385.478125 
L 436.894421 385.478125 
L 436.894421 385.478125 
L 433.043689 385.478125 
z
" clip-path="url(#p67e6c51cda)" style="fill: #1f77b4; fill-opacity: 0.5; stroke: #000000; stroke-width: 0.336313; stroke-linejoin: miter"/>
   </g>
   <g id="patch_91">
    <path d="M 436.894421 385.478125 
L 440.745152 385.478125 
L 440.745152 116.24214 
L 436.894421 116.24214 
z
" clip-path="url(#p67e6c51cda)" style="fill: #1f77b4; fill-opacity: 0.5; stroke: #000000; stroke-width: 0.336313; stroke-linejoin: miter"/>
   </g>
   <g id="patch_92">
    <path d="M 440.745152 385.478125 
L 444.595884 385.478125 
L 444.595884 84.612697 
L 440.745152 84.612697 
z
" clip-path="url(#p67e6c51cda)" style="fill: #1f77b4; fill-opacity: 0.5; stroke: #000000; stroke-width: 0.336313; stroke-linejoin: miter"/>
   </g>
   <g id="patch_93">
    <path d="M 444.595884 385.478125 
L 448.446616 385.478125 
L 448.446616 385.478125 
L 444.595884 385.478125 
z
" clip-path="url(#p67e6c51cda)" style="fill: #1f77b4; fill-opacity: 0.5; stroke: #000000; stroke-width: 0.336313; stroke-linejoin: miter"/>
   </g>
   <g id="patch_94">
    <path d="M 448.446616 385.478125 
L 452.297348 385.478125 
L 452.297348 49.897456 
L 448.446616 49.897456 
z
" clip-path="url(#p67e6c51cda)" style="fill: #1f77b4; fill-opacity: 0.5; stroke: #000000; stroke-width: 0.336313; stroke-linejoin: miter"/>
   </g>
   <g id="patch_95">
    <path d="M 452.297348 385.478125 
L 456.148079 385.478125 
L 456.148079 39.611458 
L 452.297348 39.611458 
z
" clip-path="url(#p67e6c51cda)" style="fill: #1f77b4; fill-opacity: 0.5; stroke: #000000; stroke-width: 0.336313; stroke-linejoin: miter"/>
   </g>
   <g id="patch_96">
    <path d="M 456.148079 385.478125 
L 459.998811 385.478125 
L 459.998811 385.478125 
L 456.148079 385.478125 
z
" clip-path="url(#p67e6c51cda)" style="fill: #1f77b4; fill-opacity: 0.5; stroke: #000000; stroke-width: 0.336313; stroke-linejoin: miter"/>
   </g>
   <g id="patch_97">
    <path d="M 459.998811 385.478125 
L 463.849543 385.478125 
L 463.849543 61.726353 
L 459.998811 61.726353 
z
" clip-path="url(#p67e6c51cda)" style="fill: #1f77b4; fill-opacity: 0.5; stroke: #000000; stroke-width: 0.336313; stroke-linejoin: miter"/>
   </g>
   <g id="patch_98">
    <path d="M 463.849543 385.478125 
L 467.700275 385.478125 
L 467.700275 385.478125 
L 463.849543 385.478125 
z
" clip-path="url(#p67e6c51cda)" style="fill: #1f77b4; fill-opacity: 0.5; stroke: #000000; stroke-width: 0.336313; stroke-linejoin: miter"/>
   </g>
   <g id="patch_99">
    <path d="M 467.700275 385.478125 
L 471.551006 385.478125 
L 471.551006 88.727096 
L 467.700275 88.727096 
z
" clip-path="url(#p67e6c51cda)" style="fill: #1f77b4; fill-opacity: 0.5; stroke: #000000; stroke-width: 0.336313; stroke-linejoin: miter"/>
   </g>
   <g id="patch_100">
    <path d="M 471.551006 385.478125 
L 475.401738 385.478125 
L 475.401738 107.241892 
L 471.551006 107.241892 
z
" clip-path="url(#p67e6c51cda)" style="fill: #1f77b4; fill-opacity: 0.5; stroke: #000000; stroke-width: 0.336313; stroke-linejoin: miter"/>
   </g>
   <g id="patch_101">
    <path d="M 475.401738 385.478125 
L 479.25247 385.478125 
L 479.25247 385.478125 
L 475.401738 385.478125 
z
" clip-path="url(#p67e6c51cda)" style="fill: #1f77b4; fill-opacity: 0.5; stroke: #000000; stroke-width: 0.336313; stroke-linejoin: miter"/>
   </g>
   <g id="patch_102">
    <path d="M 479.25247 385.478125 
L 483.103202 385.478125 
L 483.103202 168.186427 
L 479.25247 168.186427 
z
" clip-path="url(#p67e6c51cda)" style="fill: #1f77b4; fill-opacity: 0.5; stroke: #000000; stroke-width: 0.336313; stroke-linejoin: miter"/>
   </g>
   <g id="patch_103">
    <path d="M 483.103202 385.478125 
L 486.953934 385.478125 
L 486.953934 207.787518 
L 483.103202 207.787518 
z
" clip-path="url(#p67e6c51cda)" style="fill: #1f77b4; fill-opacity: 0.5; stroke: #000000; stroke-width: 0.336313; stroke-linejoin: miter"/>
   </g>
   <g id="patch_104">
    <path d="M 486.953934 385.478125 
L 490.804665 385.478125 
L 490.804665 385.478125 
L 486.953934 385.478125 
z
" clip-path="url(#p67e6c51cda)" style="fill: #1f77b4; fill-opacity: 0.5; stroke: #000000; stroke-width: 0.336313; stroke-linejoin: miter"/>
   </g>
   <g id="patch_105">
    <path d="M 490.804665 385.478125 
L 494.655397 385.478125 
L 494.655397 254.845956 
L 490.804665 254.845956 
z
" clip-path="url(#p67e6c51cda)" style="fill: #1f77b4; fill-opacity: 0.5; stroke: #000000; stroke-width: 0.336313; stroke-linejoin: miter"/>
   </g>
   <g id="patch_106">
    <path d="M 494.655397 385.478125 
L 498.506129 385.478125 
L 498.506129 385.478125 
L 494.655397 385.478125 
z
" clip-path="url(#p67e6c51cda)" style="fill: #1f77b4; fill-opacity: 0.5; stroke: #000000; stroke-width: 0.336313; stroke-linejoin: miter"/>
   </g>
   <g id="patch_107">
    <path d="M 498.506129 385.478125 
L 502.356861 385.478125 
L 502.356861 294.189897 
L 498.506129 294.189897 
z
" clip-path="url(#p67e6c51cda)" style="fill: #1f77b4; fill-opacity: 0.5; stroke: #000000; stroke-width: 0.336313; stroke-linejoin: miter"/>
   </g>
   <g id="patch_108">
    <path d="M 502.356861 385.478125 
L 506.207592 385.478125 
L 506.207592 319.647741 
L 502.356861 319.647741 
z
" clip-path="url(#p67e6c51cda)" style="fill: #1f77b4; fill-opacity: 0.5; stroke: #000000; stroke-width: 0.336313; stroke-linejoin: miter"/>
   </g>
   <g id="patch_109">
    <path d="M 506.207592 385.478125 
L 510.058324 385.478125 
L 510.058324 385.478125 
L 506.207592 385.478125 
z
" clip-path="url(#p67e6c51cda)" style="fill: #1f77b4; fill-opacity: 0.5; stroke: #000000; stroke-width: 0.336313; stroke-linejoin: miter"/>
   </g>
   <g id="patch_110">
    <path d="M 510.058324 385.478125 
L 513.909056 385.478125 
L 513.909056 341.762636 
L 510.058324 341.762636 
z
" clip-path="url(#p67e6c51cda)" style="fill: #1f77b4; fill-opacity: 0.5; stroke: #000000; stroke-width: 0.336313; stroke-linejoin: miter"/>
   </g>
   <g id="patch_111">
    <path d="M 513.909056 385.478125 
L 517.759788 385.478125 
L 517.759788 362.84893 
L 513.909056 362.84893 
z
" clip-path="url(#p67e6c51cda)" style="fill: #1f77b4; fill-opacity: 0.5; stroke: #000000; stroke-width: 0.336313; stroke-linejoin: miter"/>
   </g>
   <g id="patch_112">
    <path d="M 517.759788 385.478125 
L 521.610519 385.478125 
L 521.610519 385.478125 
L 517.759788 385.478125 
z
" clip-path="url(#p67e6c51cda)" style="fill: #1f77b4; fill-opacity: 0.5; stroke: #000000; stroke-width: 0.336313; stroke-linejoin: miter"/>
   </g>
   <g id="patch_113">
    <path d="M 521.610519 385.478125 
L 525.461251 385.478125 
L 525.461251 369.020529 
L 521.610519 369.020529 
z
" clip-path="url(#p67e6c51cda)" style="fill: #1f77b4; fill-opacity: 0.5; stroke: #000000; stroke-width: 0.336313; stroke-linejoin: miter"/>
   </g>
   <g id="patch_114">
    <path d="M 525.461251 385.478125 
L 529.311983 385.478125 
L 529.311983 385.478125 
L 525.461251 385.478125 
z
" clip-path="url(#p67e6c51cda)" style="fill: #1f77b4; fill-opacity: 0.5; stroke: #000000; stroke-width: 0.336313; stroke-linejoin: miter"/>
   </g>
   <g id="patch_115">
    <path d="M 529.311983 385.478125 
L 533.162715 385.478125 
L 533.162715 372.877778 
L 529.311983 372.877778 
z
" clip-path="url(#p67e6c51cda)" style="fill: #1f77b4; fill-opacity: 0.5; stroke: #000000; stroke-width: 0.336313; stroke-linejoin: miter"/>
   </g>
   <g id="patch_116">
    <path d="M 533.162715 385.478125 
L 537.013446 385.478125 
L 537.013446 376.220727 
L 533.162715 376.220727 
z
" clip-path="url(#p67e6c51cda)" style="fill: #1f77b4; fill-opacity: 0.5; stroke: #000000; stroke-width: 0.336313; stroke-linejoin: miter"/>
   </g>
   <g id="patch_117">
    <path d="M 537.013446 385.478125 
L 540.864178 385.478125 
L 540.864178 385.478125 
L 537.013446 385.478125 
z
" clip-path="url(#p67e6c51cda)" style="fill: #1f77b4; fill-opacity: 0.5; stroke: #000000; stroke-width: 0.336313; stroke-linejoin: miter"/>
   </g>
   <g id="patch_118">
    <path d="M 540.864178 385.478125 
L 544.71491 385.478125 
L 544.71491 380.592276 
L 540.864178 380.592276 
z
" clip-path="url(#p67e6c51cda)" style="fill: #1f77b4; fill-opacity: 0.5; stroke: #000000; stroke-width: 0.336313; stroke-linejoin: miter"/>
   </g>
   <g id="patch_119">
    <path d="M 544.71491 385.478125 
L 548.565642 385.478125 
L 548.565642 382.906626 
L 544.71491 382.906626 
z
" clip-path="url(#p67e6c51cda)" style="fill: #1f77b4; fill-opacity: 0.5; stroke: #000000; stroke-width: 0.336313; stroke-linejoin: miter"/>
   </g>
   <g id="patch_120">
    <path d="M 548.565642 385.478125 
L 552.416373 385.478125 
L 552.416373 385.478125 
L 548.565642 385.478125 
z
" clip-path="url(#p67e6c51cda)" style="fill: #1f77b4; fill-opacity: 0.5; stroke: #000000; stroke-width: 0.336313; stroke-linejoin: miter"/>
   </g>
   <g id="patch_121">
    <path d="M 552.416373 385.478125 
L 556.267105 385.478125 
L 556.267105 383.420925 
L 552.416373 383.420925 
z
" clip-path="url(#p67e6c51cda)" style="fill: #1f77b4; fill-opacity: 0.5; stroke: #000000; stroke-width: 0.336313; stroke-linejoin: miter"/>
   </g>
   <g id="patch_122">
    <path d="M 556.267105 385.478125 
L 560.117837 385.478125 
L 560.117837 385.478125 
L 556.267105 385.478125 
z
" clip-path="url(#p67e6c51cda)" style="fill: #1f77b4; fill-opacity: 0.5; stroke: #000000; stroke-width: 0.336313; stroke-linejoin: miter"/>
   </g>
   <g id="patch_123">
    <path d="M 560.117837 385.478125 
L 563.968569 385.478125 
L 563.968569 384.192375 
L 560.117837 384.192375 
z
" clip-path="url(#p67e6c51cda)" style="fill: #1f77b4; fill-opacity: 0.5; stroke: #000000; stroke-width: 0.336313; stroke-linejoin: miter"/>
   </g>
   <g id="patch_124">
    <path d="M 563.968569 385.478125 
L 567.819301 385.478125 
L 567.819301 385.220975 
L 563.968569 385.220975 
z
" clip-path="url(#p67e6c51cda)" style="fill: #1f77b4; fill-opacity: 0.5; stroke: #000000; stroke-width: 0.336313; stroke-linejoin: miter"/>
   </g>
   <g id="patch_125">
    <path d="M 567.819301 385.478125 
L 571.670032 385.478125 
L 571.670032 385.478125 
L 567.819301 385.478125 
z
" clip-path="url(#p67e6c51cda)" style="fill: #1f77b4; fill-opacity: 0.5; stroke: #000000; stroke-width: 0.336313; stroke-linejoin: miter"/>
   </g>
   <g id="patch_126">
    <path d="M 571.670032 385.478125 
L 575.520764 385.478125 
L 575.520764 384.963825 
L 571.670032 384.963825 
z
" clip-path="url(#p67e6c51cda)" style="fill: #1f77b4; fill-opacity: 0.5; stroke: #000000; stroke-width: 0.336313; stroke-linejoin: miter"/>
   </g>
   <g id="patch_127">
    <path d="M 575.520764 385.478125 
L 579.371496 385.478125 
L 579.371496 385.220975 
L 575.520764 385.220975 
z
" clip-path="url(#p67e6c51cda)" style="fill: #1f77b4; fill-opacity: 0.5; stroke: #000000; stroke-width: 0.336313; stroke-linejoin: miter"/>
   </g>
   <g id="patch_128">
    <path d="M 579.371496 385.478125 
L 583.222228 385.478125 
L 583.222228 385.478125 
L 579.371496 385.478125 
z
" clip-path="url(#p67e6c51cda)" style="fill: #1f77b4; fill-opacity: 0.5; stroke: #000000; stroke-width: 0.336313; stroke-linejoin: miter"/>
   </g>
   <g id="patch_129">
    <path d="M 583.222228 385.478125 
L 587.072959 385.478125 
L 587.072959 385.220975 
L 583.222228 385.220975 
z
" clip-path="url(#p67e6c51cda)" style="fill: #1f77b4; fill-opacity: 0.5; stroke: #000000; stroke-width: 0.336313; stroke-linejoin: miter"/>
   </g>
   <g id="patch_130">
    <path d="M 587.072959 385.478125 
L 590.923691 385.478125 
L 590.923691 385.478125 
L 587.072959 385.478125 
z
" clip-path="url(#p67e6c51cda)" style="fill: #1f77b4; fill-opacity: 0.5; stroke: #000000; stroke-width: 0.336313; stroke-linejoin: miter"/>
   </g>
   <g id="patch_131">
    <path d="M 590.923691 385.478125 
L 594.774423 385.478125 
L 594.774423 384.192375 
L 590.923691 384.192375 
z
" clip-path="url(#p67e6c51cda)" style="fill: #1f77b4; fill-opacity: 0.5; stroke: #000000; stroke-width: 0.336313; stroke-linejoin: miter"/>
   </g>
   <g id="patch_132">
    <path d="M 594.774423 385.478125 
L 598.625155 385.478125 
L 598.625155 384.963825 
L 594.774423 384.963825 
z
" clip-path="url(#p67e6c51cda)" style="fill: #1f77b4; fill-opacity: 0.5; stroke: #000000; stroke-width: 0.336313; stroke-linejoin: miter"/>
   </g>
   <g id="patch_133">
    <path d="M 598.625155 385.478125 
L 602.475886 385.478125 
L 602.475886 385.478125 
L 598.625155 385.478125 
z
" clip-path="url(#p67e6c51cda)" style="fill: #1f77b4; fill-opacity: 0.5; stroke: #000000; stroke-width: 0.336313; stroke-linejoin: miter"/>
   </g>
   <g id="patch_134">
    <path d="M 602.475886 385.478125 
L 606.326618 385.478125 
L 606.326618 385.220975 
L 602.475886 385.220975 
z
" clip-path="url(#p67e6c51cda)" style="fill: #1f77b4; fill-opacity: 0.5; stroke: #000000; stroke-width: 0.336313; stroke-linejoin: miter"/>
   </g>
   <g id="patch_135">
    <path d="M 606.326618 385.478125 
L 610.17735 385.478125 
L 610.17735 385.478125 
L 606.326618 385.478125 
z
" clip-path="url(#p67e6c51cda)" style="fill: #1f77b4; fill-opacity: 0.5; stroke: #000000; stroke-width: 0.336313; stroke-linejoin: miter"/>
   </g>
   <g id="patch_136">
    <path d="M 610.17735 385.478125 
L 614.028082 385.478125 
L 614.028082 385.478125 
L 610.17735 385.478125 
z
" clip-path="url(#p67e6c51cda)" style="fill: #1f77b4; fill-opacity: 0.5; stroke: #000000; stroke-width: 0.336313; stroke-linejoin: miter"/>
   </g>
   <g id="patch_137">
    <path d="M 614.028082 385.478125 
L 617.878813 385.478125 
L 617.878813 384.963825 
L 614.028082 384.963825 
z
" clip-path="url(#p67e6c51cda)" style="fill: #1f77b4; fill-opacity: 0.5; stroke: #000000; stroke-width: 0.336313; stroke-linejoin: miter"/>
   </g>
   <g id="patch_138">
    <path d="M 617.878813 385.478125 
L 621.729545 385.478125 
L 621.729545 385.478125 
L 617.878813 385.478125 
z
" clip-path="url(#p67e6c51cda)" style="fill: #1f77b4; fill-opacity: 0.5; stroke: #000000; stroke-width: 0.336313; stroke-linejoin: miter"/>
   </g>
   <g id="patch_139">
    <path d="M 621.729545 385.478125 
L 625.580277 385.478125 
L 625.580277 385.478125 
L 621.729545 385.478125 
z
" clip-path="url(#p67e6c51cda)" style="fill: #1f77b4; fill-opacity: 0.5; stroke: #000000; stroke-width: 0.336313; stroke-linejoin: miter"/>
   </g>
   <g id="patch_140">
    <path d="M 625.580277 385.478125 
L 629.431009 385.478125 
L 629.431009 384.963825 
L 625.580277 384.963825 
z
" clip-path="url(#p67e6c51cda)" style="fill: #1f77b4; fill-opacity: 0.5; stroke: #000000; stroke-width: 0.336313; stroke-linejoin: miter"/>
   </g>
   <g id="patch_141">
    <path d="M 629.431009 385.478125 
L 633.28174 385.478125 
L 633.28174 385.478125 
L 629.431009 385.478125 
z
" clip-path="url(#p67e6c51cda)" style="fill: #1f77b4; fill-opacity: 0.5; stroke: #000000; stroke-width: 0.336313; stroke-linejoin: miter"/>
   </g>
   <g id="patch_142">
    <path d="M 633.28174 385.478125 
L 637.132472 385.478125 
L 637.132472 385.478125 
L 633.28174 385.478125 
z
" clip-path="url(#p67e6c51cda)" style="fill: #1f77b4; fill-opacity: 0.5; stroke: #000000; stroke-width: 0.336313; stroke-linejoin: miter"/>
   </g>
   <g id="patch_143">
    <path d="M 637.132472 385.478125 
L 640.983204 385.478125 
L 640.983204 385.478125 
L 637.132472 385.478125 
z
" clip-path="url(#p67e6c51cda)" style="fill: #1f77b4; fill-opacity: 0.5; stroke: #000000; stroke-width: 0.336313; stroke-linejoin: miter"/>
   </g>
   <g id="patch_144">
    <path d="M 640.983204 385.478125 
L 644.833936 385.478125 
L 644.833936 385.478125 
L 640.983204 385.478125 
z
" clip-path="url(#p67e6c51cda)" style="fill: #1f77b4; fill-opacity: 0.5; stroke: #000000; stroke-width: 0.336313; stroke-linejoin: miter"/>
   </g>
   <g id="patch_145">
    <path d="M 644.833936 385.478125 
L 648.684668 385.478125 
L 648.684668 385.478125 
L 644.833936 385.478125 
z
" clip-path="url(#p67e6c51cda)" style="fill: #1f77b4; fill-opacity: 0.5; stroke: #000000; stroke-width: 0.336313; stroke-linejoin: miter"/>
   </g>
   <g id="patch_146">
    <path d="M 648.684668 385.478125 
L 652.535399 385.478125 
L 652.535399 385.478125 
L 648.684668 385.478125 
z
" clip-path="url(#p67e6c51cda)" style="fill: #1f77b4; fill-opacity: 0.5; stroke: #000000; stroke-width: 0.336313; stroke-linejoin: miter"/>
   </g>
   <g id="patch_147">
    <path d="M 652.535399 385.478125 
L 656.386131 385.478125 
L 656.386131 385.220975 
L 652.535399 385.220975 
z
" clip-path="url(#p67e6c51cda)" style="fill: #1f77b4; fill-opacity: 0.5; stroke: #000000; stroke-width: 0.336313; stroke-linejoin: miter"/>
   </g>
   <g id="patch_148">
    <path d="M 656.386131 385.478125 
L 660.236863 385.478125 
L 660.236863 384.706675 
L 656.386131 384.706675 
z
" clip-path="url(#p67e6c51cda)" style="fill: #1f77b4; fill-opacity: 0.5; stroke: #000000; stroke-width: 0.336313; stroke-linejoin: miter"/>
   </g>
   <g id="patch_149">
    <path d="M 660.236863 385.478125 
L 664.087595 385.478125 
L 664.087595 385.478125 
L 660.236863 385.478125 
z
" clip-path="url(#p67e6c51cda)" style="fill: #1f77b4; fill-opacity: 0.5; stroke: #000000; stroke-width: 0.336313; stroke-linejoin: miter"/>
   </g>
   <g id="patch_150">
    <path d="M 664.087595 385.478125 
L 667.938326 385.478125 
L 667.938326 385.478125 
L 664.087595 385.478125 
z
" clip-path="url(#p67e6c51cda)" style="fill: #1f77b4; fill-opacity: 0.5; stroke: #000000; stroke-width: 0.336313; stroke-linejoin: miter"/>
   </g>
   <g id="patch_151">
    <path d="M 667.938326 385.478125 
L 671.789058 385.478125 
L 671.789058 385.478125 
L 667.938326 385.478125 
z
" clip-path="url(#p67e6c51cda)" style="fill: #1f77b4; fill-opacity: 0.5; stroke: #000000; stroke-width: 0.336313; stroke-linejoin: miter"/>
   </g>
   <g id="patch_152">
    <path d="M 671.789058 385.478125 
L 675.63979 385.478125 
L 675.63979 385.478125 
L 671.789058 385.478125 
z
" clip-path="url(#p67e6c51cda)" style="fill: #1f77b4; fill-opacity: 0.5; stroke: #000000; stroke-width: 0.336313; stroke-linejoin: miter"/>
   </g>
   <g id="patch_153">
    <path d="M 675.63979 385.478125 
L 679.490522 385.478125 
L 679.490522 385.220975 
L 675.63979 385.220975 
z
" clip-path="url(#p67e6c51cda)" style="fill: #1f77b4; fill-opacity: 0.5; stroke: #000000; stroke-width: 0.336313; stroke-linejoin: miter"/>
   </g>
   <g id="patch_154">
    <path d="M 679.490522 385.478125 
L 683.341253 385.478125 
L 683.341253 385.478125 
L 679.490522 385.478125 
z
" clip-path="url(#p67e6c51cda)" style="fill: #1f77b4; fill-opacity: 0.5; stroke: #000000; stroke-width: 0.336313; stroke-linejoin: miter"/>
   </g>
   <g id="patch_155">
    <path d="M 683.341253 385.478125 
L 687.191985 385.478125 
L 687.191985 385.478125 
L 683.341253 385.478125 
z
" clip-path="url(#p67e6c51cda)" style="fill: #1f77b4; fill-opacity: 0.5; stroke: #000000; stroke-width: 0.336313; stroke-linejoin: miter"/>
   </g>
   <g id="patch_156">
    <path d="M 687.191985 385.478125 
L 691.042717 385.478125 
L 691.042717 385.478125 
L 687.191985 385.478125 
z
" clip-path="url(#p67e6c51cda)" style="fill: #1f77b4; fill-opacity: 0.5; stroke: #000000; stroke-width: 0.336313; stroke-linejoin: miter"/>
   </g>
   <g id="patch_157">
    <path d="M 691.042717 385.478125 
L 694.893449 385.478125 
L 694.893449 385.478125 
L 691.042717 385.478125 
z
" clip-path="url(#p67e6c51cda)" style="fill: #1f77b4; fill-opacity: 0.5; stroke: #000000; stroke-width: 0.336313; stroke-linejoin: miter"/>
   </g>
   <g id="patch_158">
    <path d="M 694.893449 385.478125 
L 698.74418 385.478125 
L 698.74418 385.478125 
L 694.893449 385.478125 
z
" clip-path="url(#p67e6c51cda)" style="fill: #1f77b4; fill-opacity: 0.5; stroke: #000000; stroke-width: 0.336313; stroke-linejoin: miter"/>
   </g>
   <g id="patch_159">
    <path d="M 698.74418 385.478125 
L 702.594912 385.478125 
L 702.594912 385.220975 
L 698.74418 385.220975 
z
" clip-path="url(#p67e6c51cda)" style="fill: #1f77b4; fill-opacity: 0.5; stroke: #000000; stroke-width: 0.336313; stroke-linejoin: miter"/>
   </g>
   <g id="patch_160">
    <path d="M 702.594912 385.478125 
L 706.445644 385.478125 
L 706.445644 385.478125 
L 702.594912 385.478125 
z
" clip-path="url(#p67e6c51cda)" style="fill: #1f77b4; fill-opacity: 0.5; stroke: #000000; stroke-width: 0.336313; stroke-linejoin: miter"/>
   </g>
   <g id="patch_161">
    <path d="M 706.445644 385.478125 
L 710.296376 385.478125 
L 710.296376 385.478125 
L 706.445644 385.478125 
z
" clip-path="url(#p67e6c51cda)" style="fill: #1f77b4; fill-opacity: 0.5; stroke: #000000; stroke-width: 0.336313; stroke-linejoin: miter"/>
   </g>
   <g id="patch_162">
    <path d="M 710.296376 385.478125 
L 714.147108 385.478125 
L 714.147108 385.478125 
L 710.296376 385.478125 
z
" clip-path="url(#p67e6c51cda)" style="fill: #1f77b4; fill-opacity: 0.5; stroke: #000000; stroke-width: 0.336313; stroke-linejoin: miter"/>
   </g>
   <g id="patch_163">
    <path d="M 714.147108 385.478125 
L 717.997839 385.478125 
L 717.997839 385.478125 
L 714.147108 385.478125 
z
" clip-path="url(#p67e6c51cda)" style="fill: #1f77b4; fill-opacity: 0.5; stroke: #000000; stroke-width: 0.336313; stroke-linejoin: miter"/>
   </g>
   <g id="patch_164">
    <path d="M 717.997839 385.478125 
L 721.848571 385.478125 
L 721.848571 385.478125 
L 717.997839 385.478125 
z
" clip-path="url(#p67e6c51cda)" style="fill: #1f77b4; fill-opacity: 0.5; stroke: #000000; stroke-width: 0.336313; stroke-linejoin: miter"/>
   </g>
   <g id="patch_165">
    <path d="M 721.848571 385.478125 
L 725.699303 385.478125 
L 725.699303 385.478125 
L 721.848571 385.478125 
z
" clip-path="url(#p67e6c51cda)" style="fill: #1f77b4; fill-opacity: 0.5; stroke: #000000; stroke-width: 0.336313; stroke-linejoin: miter"/>
   </g>
   <g id="patch_166">
    <path d="M 725.699303 385.478125 
L 729.550035 385.478125 
L 729.550035 385.478125 
L 725.699303 385.478125 
z
" clip-path="url(#p67e6c51cda)" style="fill: #1f77b4; fill-opacity: 0.5; stroke: #000000; stroke-width: 0.336313; stroke-linejoin: miter"/>
   </g>
   <g id="patch_167">
    <path d="M 729.550035 385.478125 
L 733.400766 385.478125 
L 733.400766 385.478125 
L 729.550035 385.478125 
z
" clip-path="url(#p67e6c51cda)" style="fill: #1f77b4; fill-opacity: 0.5; stroke: #000000; stroke-width: 0.336313; stroke-linejoin: miter"/>
   </g>
   <g id="patch_168">
    <path d="M 733.400766 385.478125 
L 737.251498 385.478125 
L 737.251498 385.478125 
L 733.400766 385.478125 
z
" clip-path="url(#p67e6c51cda)" style="fill: #1f77b4; fill-opacity: 0.5; stroke: #000000; stroke-width: 0.336313; stroke-linejoin: miter"/>
   </g>
   <g id="patch_169">
    <path d="M 737.251498 385.478125 
L 741.10223 385.478125 
L 741.10223 385.220975 
L 737.251498 385.220975 
z
" clip-path="url(#p67e6c51cda)" style="fill: #1f77b4; fill-opacity: 0.5; stroke: #000000; stroke-width: 0.336313; stroke-linejoin: miter"/>
   </g>
   <g id="patch_170">
    <path d="M 741.10223 385.478125 
L 744.952962 385.478125 
L 744.952962 385.478125 
L 741.10223 385.478125 
z
" clip-path="url(#p67e6c51cda)" style="fill: #1f77b4; fill-opacity: 0.5; stroke: #000000; stroke-width: 0.336313; stroke-linejoin: miter"/>
   </g>
   <g id="patch_171">
    <path d="M 744.952962 385.478125 
L 748.803693 385.478125 
L 748.803693 385.478125 
L 744.952962 385.478125 
z
" clip-path="url(#p67e6c51cda)" style="fill: #1f77b4; fill-opacity: 0.5; stroke: #000000; stroke-width: 0.336313; stroke-linejoin: miter"/>
   </g>
   <g id="patch_172">
    <path d="M 748.803693 385.478125 
L 752.654425 385.478125 
L 752.654425 385.478125 
L 748.803693 385.478125 
z
" clip-path="url(#p67e6c51cda)" style="fill: #1f77b4; fill-opacity: 0.5; stroke: #000000; stroke-width: 0.336313; stroke-linejoin: miter"/>
   </g>
   <g id="patch_173">
    <path d="M 752.654425 385.478125 
L 756.505157 385.478125 
L 756.505157 385.478125 
L 752.654425 385.478125 
z
" clip-path="url(#p67e6c51cda)" style="fill: #1f77b4; fill-opacity: 0.5; stroke: #000000; stroke-width: 0.336313; stroke-linejoin: miter"/>
   </g>
   <g id="patch_174">
    <path d="M 756.505157 385.478125 
L 760.355889 385.478125 
L 760.355889 385.478125 
L 756.505157 385.478125 
z
" clip-path="url(#p67e6c51cda)" style="fill: #1f77b4; fill-opacity: 0.5; stroke: #000000; stroke-width: 0.336313; stroke-linejoin: miter"/>
   </g>
   <g id="patch_175">
    <path d="M 760.355889 385.478125 
L 764.20662 385.478125 
L 764.20662 385.478125 
L 760.355889 385.478125 
z
" clip-path="url(#p67e6c51cda)" style="fill: #1f77b4; fill-opacity: 0.5; stroke: #000000; stroke-width: 0.336313; stroke-linejoin: miter"/>
   </g>
   <g id="patch_176">
    <path d="M 764.20662 385.478125 
L 768.057352 385.478125 
L 768.057352 385.478125 
L 764.20662 385.478125 
z
" clip-path="url(#p67e6c51cda)" style="fill: #1f77b4; fill-opacity: 0.5; stroke: #000000; stroke-width: 0.336313; stroke-linejoin: miter"/>
   </g>
   <g id="patch_177">
    <path d="M 768.057352 385.478125 
L 771.908084 385.478125 
L 771.908084 385.478125 
L 768.057352 385.478125 
z
" clip-path="url(#p67e6c51cda)" style="fill: #1f77b4; fill-opacity: 0.5; stroke: #000000; stroke-width: 0.336313; stroke-linejoin: miter"/>
   </g>
   <g id="patch_178">
    <path d="M 771.908084 385.478125 
L 775.758816 385.478125 
L 775.758816 385.478125 
L 771.908084 385.478125 
z
" clip-path="url(#p67e6c51cda)" style="fill: #1f77b4; fill-opacity: 0.5; stroke: #000000; stroke-width: 0.336313; stroke-linejoin: miter"/>
   </g>
   <g id="patch_179">
    <path d="M 775.758816 385.478125 
L 779.609547 385.478125 
L 779.609547 385.478125 
L 775.758816 385.478125 
z
" clip-path="url(#p67e6c51cda)" style="fill: #1f77b4; fill-opacity: 0.5; stroke: #000000; stroke-width: 0.336313; stroke-linejoin: miter"/>
   </g>
   <g id="patch_180">
    <path d="M 779.609547 385.478125 
L 783.460279 385.478125 
L 783.460279 385.478125 
L 779.609547 385.478125 
z
" clip-path="url(#p67e6c51cda)" style="fill: #1f77b4; fill-opacity: 0.5; stroke: #000000; stroke-width: 0.336313; stroke-linejoin: miter"/>
   </g>
   <g id="patch_181">
    <path d="M 783.460279 385.478125 
L 787.311011 385.478125 
L 787.311011 385.478125 
L 783.460279 385.478125 
z
" clip-path="url(#p67e6c51cda)" style="fill: #1f77b4; fill-opacity: 0.5; stroke: #000000; stroke-width: 0.336313; stroke-linejoin: miter"/>
   </g>
   <g id="patch_182">
    <path d="M 787.311011 385.478125 
L 791.161743 385.478125 
L 791.161743 385.478125 
L 787.311011 385.478125 
z
" clip-path="url(#p67e6c51cda)" style="fill: #1f77b4; fill-opacity: 0.5; stroke: #000000; stroke-width: 0.336313; stroke-linejoin: miter"/>
   </g>
   <g id="patch_183">
    <path d="M 791.161743 385.478125 
L 795.012475 385.478125 
L 795.012475 385.220975 
L 791.161743 385.220975 
z
" clip-path="url(#p67e6c51cda)" style="fill: #1f77b4; fill-opacity: 0.5; stroke: #000000; stroke-width: 0.336313; stroke-linejoin: miter"/>
   </g>
   <g id="matplotlib.axis_1">
    <g id="xtick_1">
     <g id="line2d_1">
      <defs>
       <path id="m5142e4302a" d="M 0 0 
L 0 3.5 
" style="stroke: #000000; stroke-width: 0.8"/>
      </defs>
      <g>
       <use xlink:href="#m5142e4302a" x="128.869957" y="385.478125" style="stroke: #000000; stroke-width: 0.8"/>
      </g>
     </g>
     <g id="text_1">
      <!-- 4 -->
      <g transform="translate(125.688707 400.076562) scale(0.1 -0.1)">
       <defs>
        <path id="DejaVuSans-34" d="M 2419 4116 
L 825 1625 
L 2419 1625 
L 2419 4116 
z
M 2253 4666 
L 3047 4666 
L 3047 1625 
L 3713 1625 
L 3713 1100 
L 3047 1100 
L 3047 0 
L 2419 0 
L 2419 1100 
L 313 1100 
L 313 1709 
L 2253 4666 
z
" transform="scale(0.015625)"/>
       </defs>
       <use xlink:href="#DejaVuSans-34"/>
      </g>
     </g>
    </g>
    <g id="xtick_2">
     <g id="line2d_2">
      <g>
       <use xlink:href="#m5142e4302a" x="252.229682" y="385.478125" style="stroke: #000000; stroke-width: 0.8"/>
      </g>
     </g>
     <g id="text_2">
      <!-- 6 -->
      <g transform="translate(249.048432 400.076562) scale(0.1 -0.1)">
       <defs>
        <path id="DejaVuSans-36" d="M 2113 2584 
Q 1688 2584 1439 2293 
Q 1191 2003 1191 1497 
Q 1191 994 1439 701 
Q 1688 409 2113 409 
Q 2538 409 2786 701 
Q 3034 994 3034 1497 
Q 3034 2003 2786 2293 
Q 2538 2584 2113 2584 
z
M 3366 4563 
L 3366 3988 
Q 3128 4100 2886 4159 
Q 2644 4219 2406 4219 
Q 1781 4219 1451 3797 
Q 1122 3375 1075 2522 
Q 1259 2794 1537 2939 
Q 1816 3084 2150 3084 
Q 2853 3084 3261 2657 
Q 3669 2231 3669 1497 
Q 3669 778 3244 343 
Q 2819 -91 2113 -91 
Q 1303 -91 875 529 
Q 447 1150 447 2328 
Q 447 3434 972 4092 
Q 1497 4750 2381 4750 
Q 2619 4750 2861 4703 
Q 3103 4656 3366 4563 
z
" transform="scale(0.015625)"/>
       </defs>
       <use xlink:href="#DejaVuSans-36"/>
      </g>
     </g>
    </g>
    <g id="xtick_3">
     <g id="line2d_3">
      <g>
       <use xlink:href="#m5142e4302a" x="375.589408" y="385.478125" style="stroke: #000000; stroke-width: 0.8"/>
      </g>
     </g>
     <g id="text_3">
      <!-- 8 -->
      <g transform="translate(372.408158 400.076562) scale(0.1 -0.1)">
       <defs>
        <path id="DejaVuSans-38" d="M 2034 2216 
Q 1584 2216 1326 1975 
Q 1069 1734 1069 1313 
Q 1069 891 1326 650 
Q 1584 409 2034 409 
Q 2484 409 2743 651 
Q 3003 894 3003 1313 
Q 3003 1734 2745 1975 
Q 2488 2216 2034 2216 
z
M 1403 2484 
Q 997 2584 770 2862 
Q 544 3141 544 3541 
Q 544 4100 942 4425 
Q 1341 4750 2034 4750 
Q 2731 4750 3128 4425 
Q 3525 4100 3525 3541 
Q 3525 3141 3298 2862 
Q 3072 2584 2669 2484 
Q 3125 2378 3379 2068 
Q 3634 1759 3634 1313 
Q 3634 634 3220 271 
Q 2806 -91 2034 -91 
Q 1263 -91 848 271 
Q 434 634 434 1313 
Q 434 1759 690 2068 
Q 947 2378 1403 2484 
z
M 1172 3481 
Q 1172 3119 1398 2916 
Q 1625 2713 2034 2713 
Q 2441 2713 2670 2916 
Q 2900 3119 2900 3481 
Q 2900 3844 2670 4047 
Q 2441 4250 2034 4250 
Q 1625 4250 1398 4047 
Q 1172 3844 1172 3481 
z
" transform="scale(0.015625)"/>
       </defs>
       <use xlink:href="#DejaVuSans-38"/>
      </g>
     </g>
    </g>
    <g id="xtick_4">
     <g id="line2d_4">
      <g>
       <use xlink:href="#m5142e4302a" x="498.949133" y="385.478125" style="stroke: #000000; stroke-width: 0.8"/>
      </g>
     </g>
     <g id="text_4">
      <!-- 10 -->
      <g transform="translate(492.586633 400.076562) scale(0.1 -0.1)">
       <defs>
        <path id="DejaVuSans-31" d="M 794 531 
L 1825 531 
L 1825 4091 
L 703 3866 
L 703 4441 
L 1819 4666 
L 2450 4666 
L 2450 531 
L 3481 531 
L 3481 0 
L 794 0 
L 794 531 
z
" transform="scale(0.015625)"/>
        <path id="DejaVuSans-30" d="M 2034 4250 
Q 1547 4250 1301 3770 
Q 1056 3291 1056 2328 
Q 1056 1369 1301 889 
Q 1547 409 2034 409 
Q 2525 409 2770 889 
Q 3016 1369 3016 2328 
Q 3016 3291 2770 3770 
Q 2525 4250 2034 4250 
z
M 2034 4750 
Q 2819 4750 3233 4129 
Q 3647 3509 3647 2328 
Q 3647 1150 3233 529 
Q 2819 -91 2034 -91 
Q 1250 -91 836 529 
Q 422 1150 422 2328 
Q 422 3509 836 4129 
Q 1250 4750 2034 4750 
z
" transform="scale(0.015625)"/>
       </defs>
       <use xlink:href="#DejaVuSans-31"/>
       <use xlink:href="#DejaVuSans-30" x="63.623047"/>
      </g>
     </g>
    </g>
    <g id="xtick_5">
     <g id="line2d_5">
      <g>
       <use xlink:href="#m5142e4302a" x="622.308859" y="385.478125" style="stroke: #000000; stroke-width: 0.8"/>
      </g>
     </g>
     <g id="text_5">
      <!-- 12 -->
      <g transform="translate(615.946359 400.076562) scale(0.1 -0.1)">
       <defs>
        <path id="DejaVuSans-32" d="M 1228 531 
L 3431 531 
L 3431 0 
L 469 0 
L 469 531 
Q 828 903 1448 1529 
Q 2069 2156 2228 2338 
Q 2531 2678 2651 2914 
Q 2772 3150 2772 3378 
Q 2772 3750 2511 3984 
Q 2250 4219 1831 4219 
Q 1534 4219 1204 4116 
Q 875 4013 500 3803 
L 500 4441 
Q 881 4594 1212 4672 
Q 1544 4750 1819 4750 
Q 2544 4750 2975 4387 
Q 3406 4025 3406 3419 
Q 3406 3131 3298 2873 
Q 3191 2616 2906 2266 
Q 2828 2175 2409 1742 
Q 1991 1309 1228 531 
z
" transform="scale(0.015625)"/>
       </defs>
       <use xlink:href="#DejaVuSans-31"/>
       <use xlink:href="#DejaVuSans-32" x="63.623047"/>
      </g>
     </g>
    </g>
    <g id="xtick_6">
     <g id="line2d_6">
      <g>
       <use xlink:href="#m5142e4302a" x="745.668584" y="385.478125" style="stroke: #000000; stroke-width: 0.8"/>
      </g>
     </g>
     <g id="text_6">
      <!-- 14 -->
      <g transform="translate(739.306084 400.076562) scale(0.1 -0.1)">
       <use xlink:href="#DejaVuSans-31"/>
       <use xlink:href="#DejaVuSans-34" x="63.623047"/>
      </g>
     </g>
    </g>
    <g id="text_7">
     <!-- Ca -->
     <g transform="translate(439.965781 413.754687) scale(0.1 -0.1)">
      <defs>
       <path id="DejaVuSans-43" d="M 4122 4306 
L 4122 3641 
Q 3803 3938 3442 4084 
Q 3081 4231 2675 4231 
Q 1875 4231 1450 3742 
Q 1025 3253 1025 2328 
Q 1025 1406 1450 917 
Q 1875 428 2675 428 
Q 3081 428 3442 575 
Q 3803 722 4122 1019 
L 4122 359 
Q 3791 134 3420 21 
Q 3050 -91 2638 -91 
Q 1578 -91 968 557 
Q 359 1206 359 2328 
Q 359 3453 968 4101 
Q 1578 4750 2638 4750 
Q 3056 4750 3426 4639 
Q 3797 4528 4122 4306 
z
" transform="scale(0.015625)"/>
       <path id="DejaVuSans-61" d="M 2194 1759 
Q 1497 1759 1228 1600 
Q 959 1441 959 1056 
Q 959 750 1161 570 
Q 1363 391 1709 391 
Q 2188 391 2477 730 
Q 2766 1069 2766 1631 
L 2766 1759 
L 2194 1759 
z
M 3341 1997 
L 3341 0 
L 2766 0 
L 2766 531 
Q 2569 213 2275 61 
Q 1981 -91 1556 -91 
Q 1019 -91 701 211 
Q 384 513 384 1019 
Q 384 1609 779 1909 
Q 1175 2209 1959 2209 
L 2766 2209 
L 2766 2266 
Q 2766 2663 2505 2880 
Q 2244 3097 1772 3097 
Q 1472 3097 1187 3025 
Q 903 2953 641 2809 
L 641 3341 
Q 956 3463 1253 3523 
Q 1550 3584 1831 3584 
Q 2591 3584 2966 3190 
Q 3341 2797 3341 1997 
z
" transform="scale(0.015625)"/>
      </defs>
      <use xlink:href="#DejaVuSans-43"/>
      <use xlink:href="#DejaVuSans-61" x="69.824219"/>
     </g>
    </g>
   </g>
   <g id="matplotlib.axis_2">
    <g id="ytick_1">
     <g id="line2d_7">
      <defs>
       <path id="mc72c0b51f1" d="M 0 0 
L -3.5 0 
" style="stroke: #000000; stroke-width: 0.8"/>
      </defs>
      <g>
       <use xlink:href="#mc72c0b51f1" x="43.78125" y="385.478125" style="stroke: #000000; stroke-width: 0.8"/>
      </g>
     </g>
     <g id="text_8">
      <!-- 0.0 -->
      <g transform="translate(20.878125 389.277344) scale(0.1 -0.1)">
       <defs>
        <path id="DejaVuSans-2e" d="M 684 794 
L 1344 794 
L 1344 0 
L 684 0 
L 684 794 
z
" transform="scale(0.015625)"/>
       </defs>
       <use xlink:href="#DejaVuSans-30"/>
       <use xlink:href="#DejaVuSans-2e" x="63.623047"/>
       <use xlink:href="#DejaVuSans-30" x="95.410156"/>
      </g>
     </g>
    </g>
    <g id="ytick_2">
     <g id="line2d_8">
      <g>
       <use xlink:href="#mc72c0b51f1" x="43.78125" y="332.117467" style="stroke: #000000; stroke-width: 0.8"/>
      </g>
     </g>
     <g id="text_9">
      <!-- 0.2 -->
      <g transform="translate(20.878125 335.916686) scale(0.1 -0.1)">
       <use xlink:href="#DejaVuSans-30"/>
       <use xlink:href="#DejaVuSans-2e" x="63.623047"/>
       <use xlink:href="#DejaVuSans-32" x="95.410156"/>
      </g>
     </g>
    </g>
    <g id="ytick_3">
     <g id="line2d_9">
      <g>
       <use xlink:href="#mc72c0b51f1" x="43.78125" y="278.756809" style="stroke: #000000; stroke-width: 0.8"/>
      </g>
     </g>
     <g id="text_10">
      <!-- 0.4 -->
      <g transform="translate(20.878125 282.556028) scale(0.1 -0.1)">
       <use xlink:href="#DejaVuSans-30"/>
       <use xlink:href="#DejaVuSans-2e" x="63.623047"/>
       <use xlink:href="#DejaVuSans-34" x="95.410156"/>
      </g>
     </g>
    </g>
    <g id="ytick_4">
     <g id="line2d_10">
      <g>
       <use xlink:href="#mc72c0b51f1" x="43.78125" y="225.396151" style="stroke: #000000; stroke-width: 0.8"/>
      </g>
     </g>
     <g id="text_11">
      <!-- 0.6 -->
      <g transform="translate(20.878125 229.19537) scale(0.1 -0.1)">
       <use xlink:href="#DejaVuSans-30"/>
       <use xlink:href="#DejaVuSans-2e" x="63.623047"/>
       <use xlink:href="#DejaVuSans-36" x="95.410156"/>
      </g>
     </g>
    </g>
    <g id="ytick_5">
     <g id="line2d_11">
      <g>
       <use xlink:href="#mc72c0b51f1" x="43.78125" y="172.035493" style="stroke: #000000; stroke-width: 0.8"/>
      </g>
     </g>
     <g id="text_12">
      <!-- 0.8 -->
      <g transform="translate(20.878125 175.834712) scale(0.1 -0.1)">
       <use xlink:href="#DejaVuSans-30"/>
       <use xlink:href="#DejaVuSans-2e" x="63.623047"/>
       <use xlink:href="#DejaVuSans-38" x="95.410156"/>
      </g>
     </g>
    </g>
    <g id="ytick_6">
     <g id="line2d_12">
      <g>
       <use xlink:href="#mc72c0b51f1" x="43.78125" y="118.674835" style="stroke: #000000; stroke-width: 0.8"/>
      </g>
     </g>
     <g id="text_13">
      <!-- 1.0 -->
      <g transform="translate(20.878125 122.474054) scale(0.1 -0.1)">
       <use xlink:href="#DejaVuSans-31"/>
       <use xlink:href="#DejaVuSans-2e" x="63.623047"/>
       <use xlink:href="#DejaVuSans-30" x="95.410156"/>
      </g>
     </g>
    </g>
    <g id="ytick_7">
     <g id="line2d_13">
      <g>
       <use xlink:href="#mc72c0b51f1" x="43.78125" y="65.314177" style="stroke: #000000; stroke-width: 0.8"/>
      </g>
     </g>
     <g id="text_14">
      <!-- 1.2 -->
      <g transform="translate(20.878125 69.113396) scale(0.1 -0.1)">
       <use xlink:href="#DejaVuSans-31"/>
       <use xlink:href="#DejaVuSans-2e" x="63.623047"/>
       <use xlink:href="#DejaVuSans-32" x="95.410156"/>
      </g>
     </g>
    </g>
    <g id="text_15">
     <!-- Density -->
     <g transform="translate(14.798438 222.906719) rotate(-90) scale(0.1 -0.1)">
      <defs>
       <path id="DejaVuSans-44" d="M 1259 4147 
L 1259 519 
L 2022 519 
Q 2988 519 3436 956 
Q 3884 1394 3884 2338 
Q 3884 3275 3436 3711 
Q 2988 4147 2022 4147 
L 1259 4147 
z
M 628 4666 
L 1925 4666 
Q 3281 4666 3915 4102 
Q 4550 3538 4550 2338 
Q 4550 1131 3912 565 
Q 3275 0 1925 0 
L 628 0 
L 628 4666 
z
" transform="scale(0.015625)"/>
       <path id="DejaVuSans-65" d="M 3597 1894 
L 3597 1613 
L 953 1613 
Q 991 1019 1311 708 
Q 1631 397 2203 397 
Q 2534 397 2845 478 
Q 3156 559 3463 722 
L 3463 178 
Q 3153 47 2828 -22 
Q 2503 -91 2169 -91 
Q 1331 -91 842 396 
Q 353 884 353 1716 
Q 353 2575 817 3079 
Q 1281 3584 2069 3584 
Q 2775 3584 3186 3129 
Q 3597 2675 3597 1894 
z
M 3022 2063 
Q 3016 2534 2758 2815 
Q 2500 3097 2075 3097 
Q 1594 3097 1305 2825 
Q 1016 2553 972 2059 
L 3022 2063 
z
" transform="scale(0.015625)"/>
       <path id="DejaVuSans-6e" d="M 3513 2113 
L 3513 0 
L 2938 0 
L 2938 2094 
Q 2938 2591 2744 2837 
Q 2550 3084 2163 3084 
Q 1697 3084 1428 2787 
Q 1159 2491 1159 1978 
L 1159 0 
L 581 0 
L 581 3500 
L 1159 3500 
L 1159 2956 
Q 1366 3272 1645 3428 
Q 1925 3584 2291 3584 
Q 2894 3584 3203 3211 
Q 3513 2838 3513 2113 
z
" transform="scale(0.015625)"/>
       <path id="DejaVuSans-73" d="M 2834 3397 
L 2834 2853 
Q 2591 2978 2328 3040 
Q 2066 3103 1784 3103 
Q 1356 3103 1142 2972 
Q 928 2841 928 2578 
Q 928 2378 1081 2264 
Q 1234 2150 1697 2047 
L 1894 2003 
Q 2506 1872 2764 1633 
Q 3022 1394 3022 966 
Q 3022 478 2636 193 
Q 2250 -91 1575 -91 
Q 1294 -91 989 -36 
Q 684 19 347 128 
L 347 722 
Q 666 556 975 473 
Q 1284 391 1588 391 
Q 1994 391 2212 530 
Q 2431 669 2431 922 
Q 2431 1156 2273 1281 
Q 2116 1406 1581 1522 
L 1381 1569 
Q 847 1681 609 1914 
Q 372 2147 372 2553 
Q 372 3047 722 3315 
Q 1072 3584 1716 3584 
Q 2034 3584 2315 3537 
Q 2597 3491 2834 3397 
z
" transform="scale(0.015625)"/>
       <path id="DejaVuSans-69" d="M 603 3500 
L 1178 3500 
L 1178 0 
L 603 0 
L 603 3500 
z
M 603 4863 
L 1178 4863 
L 1178 4134 
L 603 4134 
L 603 4863 
z
" transform="scale(0.015625)"/>
       <path id="DejaVuSans-74" d="M 1172 4494 
L 1172 3500 
L 2356 3500 
L 2356 3053 
L 1172 3053 
L 1172 1153 
Q 1172 725 1289 603 
Q 1406 481 1766 481 
L 2356 481 
L 2356 0 
L 1766 0 
Q 1100 0 847 248 
Q 594 497 594 1153 
L 594 3053 
L 172 3053 
L 172 3500 
L 594 3500 
L 594 4494 
L 1172 4494 
z
" transform="scale(0.015625)"/>
       <path id="DejaVuSans-79" d="M 2059 -325 
Q 1816 -950 1584 -1140 
Q 1353 -1331 966 -1331 
L 506 -1331 
L 506 -850 
L 844 -850 
Q 1081 -850 1212 -737 
Q 1344 -625 1503 -206 
L 1606 56 
L 191 3500 
L 800 3500 
L 1894 763 
L 2988 3500 
L 3597 3500 
L 2059 -325 
z
" transform="scale(0.015625)"/>
      </defs>
      <use xlink:href="#DejaVuSans-44"/>
      <use xlink:href="#DejaVuSans-65" x="77.001953"/>
      <use xlink:href="#DejaVuSans-6e" x="138.525391"/>
      <use xlink:href="#DejaVuSans-73" x="201.904297"/>
      <use xlink:href="#DejaVuSans-69" x="254.003906"/>
      <use xlink:href="#DejaVuSans-74" x="281.787109"/>
      <use xlink:href="#DejaVuSans-79" x="320.996094"/>
     </g>
    </g>
   </g>
   <g id="line2d_14">
    <path d="M 98.030025 385.343728 
L 133.054269 385.474666 
L 182.08821 385.259743 
L 192.595483 385.213828 
L 203.102756 385.142103 
L 213.61003 384.997295 
L 224.117303 384.994163 
L 252.136698 384.672976 
L 259.141546 384.870642 
L 266.146395 384.72472 
L 283.658517 383.946315 
L 297.668214 382.930753 
L 311.677912 381.072629 
L 318.682761 380.265009 
L 325.687609 379.163784 
L 329.190034 378.42078 
L 339.697307 375.725681 
L 343.199731 374.605255 
L 346.702156 373.189674 
L 353.707004 370.094168 
L 360.711853 367.58079 
L 364.214277 365.886015 
L 367.716702 363.561654 
L 371.219126 360.956314 
L 374.72155 358.623393 
L 378.223975 356.64461 
L 381.726399 354.424533 
L 385.228824 351.403084 
L 388.731248 347.682484 
L 392.233672 343.599485 
L 395.736097 339.10142 
L 399.238521 333.879377 
L 402.740945 327.818084 
L 406.24337 321.054664 
L 409.745794 313.617813 
L 413.248219 305.22933 
L 416.750643 295.590728 
L 420.253067 284.591065 
L 423.755492 272.169165 
L 427.257916 258.454505 
L 434.262765 230.158456 
L 437.765189 217.107211 
L 441.267613 205.024409 
L 444.770038 194.02767 
L 448.272462 184.894652 
L 451.774887 178.956839 
L 455.277311 177.298835 
L 458.779735 179.99106 
L 462.28216 186.003816 
L 465.784584 193.964693 
L 469.287008 203.251733 
L 472.789433 214.404325 
L 476.291857 228.109611 
L 479.794281 243.824745 
L 486.79913 276.08086 
L 490.301555 291.526334 
L 493.803979 306.182303 
L 497.306403 319.501368 
L 500.808828 331.095343 
L 504.311252 341.038587 
L 507.813676 349.714688 
L 511.316101 357.400731 
L 514.818525 363.996992 
L 518.32095 369.17618 
L 521.823374 372.828907 
L 525.325798 375.273714 
L 528.828223 377.014838 
L 535.833071 379.780173 
L 539.335496 381.048248 
L 542.83792 382.173325 
L 546.340344 383.056659 
L 549.842769 383.672744 
L 556.847618 384.397586 
L 563.852466 384.915239 
L 570.857315 385.184815 
L 581.364588 385.230004 
L 595.374286 385.042515 
L 609.383983 385.343677 
L 630.398529 385.343582 
L 644.408227 385.444368 
L 661.920349 385.271553 
L 672.427622 385.416933 
L 710.95429 385.454275 
L 731.968836 385.44855 
L 745.978533 385.441508 
L 770.495504 385.478114 
L 795.012475 385.410926 
L 795.012475 385.410926 
" clip-path="url(#p67e6c51cda)" style="fill: none; stroke: #1f77b4; stroke-width: 1.5; stroke-linecap: square"/>
   </g>
   <g id="line2d_15">
    <path d="M 80.393977 385.476632 
L 201.823123 385.164965 
L 212.862136 384.996022 
L 227.580821 384.951929 
L 253.338518 384.703878 
L 260.69786 384.877124 
L 268.057202 384.64215 
L 282.775887 384.004205 
L 297.494571 382.951665 
L 308.533584 381.391734 
L 315.892927 380.623792 
L 323.252269 379.590144 
L 326.93194 378.917907 
L 334.291282 377.150213 
L 341.650624 375.134243 
L 345.330295 373.778 
L 352.689637 370.504931 
L 360.04898 367.838605 
L 363.728651 366.159948 
L 367.408322 363.785921 
L 371.087993 361.051771 
L 374.767664 358.595739 
L 378.447335 356.518524 
L 382.127006 354.123795 
L 385.806677 350.826624 
L 389.486348 346.827049 
L 393.166019 342.454889 
L 396.84569 337.537671 
L 400.525361 331.74542 
L 404.205033 325.067479 
L 407.884704 317.664766 
L 411.564375 309.404199 
L 415.244046 299.900324 
L 418.923717 288.930156 
L 422.603388 276.413311 
L 426.283059 262.373237 
L 433.642401 232.573628 
L 437.322072 218.703402 
L 441.001743 205.908093 
L 444.681414 194.287845 
L 448.361086 184.699102 
L 452.040757 178.672566 
L 455.720428 177.41134 
L 459.400099 180.855221 
L 463.07977 187.686693 
L 466.759441 196.411894 
L 470.439112 206.667395 
L 474.118783 219.30098 
L 477.798454 234.703783 
L 488.837467 285.141354 
L 492.517139 300.921984 
L 496.19681 315.45829 
L 499.876481 328.181704 
L 503.556152 339.016494 
L 507.235823 348.354778 
L 510.915494 356.571497 
L 514.595165 363.615311 
L 518.274836 369.118158 
L 521.954507 372.93916 
L 525.634178 375.448217 
L 529.313849 377.225336 
L 536.673192 380.091764 
L 540.352863 381.394808 
L 544.032534 382.505141 
L 547.712205 383.327902 
L 551.391876 383.874576 
L 558.751218 384.550395 
L 566.11056 385.037032 
L 573.469902 385.220817 
L 580.829245 385.235985 
L 595.547929 385.046334 
L 606.586942 385.327451 
L 647.063324 385.414929 
L 658.102337 385.233426 
L 691.219377 385.462435 
L 713.297403 385.46571 
L 735.37543 385.425592 
L 750.094114 385.464875 
L 786.890825 385.452249 
L 801.609509 385.442324 
L 812.648523 385.477378 
L 812.648523 385.477378 
" clip-path="url(#p67e6c51cda)" style="fill: none; stroke: #1f77b4; stroke-width: 1.5; stroke-linecap: square"/>
   </g>
   <g id="patch_184">
    <path d="M 43.78125 385.478125 
L 43.78125 22.318125 
" style="fill: none; stroke: #000000; stroke-width: 0.8; stroke-linejoin: miter; stroke-linecap: square"/>
   </g>
   <g id="patch_185">
    <path d="M 849.26125 385.478125 
L 849.26125 22.318125 
" style="fill: none; stroke: #000000; stroke-width: 0.8; stroke-linejoin: miter; stroke-linecap: square"/>
   </g>
   <g id="patch_186">
    <path d="M 43.78125 385.478125 
L 849.26125 385.478125 
" style="fill: none; stroke: #000000; stroke-width: 0.8; stroke-linejoin: miter; stroke-linecap: square"/>
   </g>
   <g id="patch_187">
    <path d="M 43.78125 22.318125 
L 849.26125 22.318125 
" style="fill: none; stroke: #000000; stroke-width: 0.8; stroke-linejoin: miter; stroke-linecap: square"/>
   </g>
   <g id="text_16">
    <!-- Distribution of Ca -->
    <g transform="translate(394.055 16.318125) scale(0.12 -0.12)">
     <defs>
      <path id="DejaVuSans-72" d="M 2631 2963 
Q 2534 3019 2420 3045 
Q 2306 3072 2169 3072 
Q 1681 3072 1420 2755 
Q 1159 2438 1159 1844 
L 1159 0 
L 581 0 
L 581 3500 
L 1159 3500 
L 1159 2956 
Q 1341 3275 1631 3429 
Q 1922 3584 2338 3584 
Q 2397 3584 2469 3576 
Q 2541 3569 2628 3553 
L 2631 2963 
z
" transform="scale(0.015625)"/>
      <path id="DejaVuSans-62" d="M 3116 1747 
Q 3116 2381 2855 2742 
Q 2594 3103 2138 3103 
Q 1681 3103 1420 2742 
Q 1159 2381 1159 1747 
Q 1159 1113 1420 752 
Q 1681 391 2138 391 
Q 2594 391 2855 752 
Q 3116 1113 3116 1747 
z
M 1159 2969 
Q 1341 3281 1617 3432 
Q 1894 3584 2278 3584 
Q 2916 3584 3314 3078 
Q 3713 2572 3713 1747 
Q 3713 922 3314 415 
Q 2916 -91 2278 -91 
Q 1894 -91 1617 61 
Q 1341 213 1159 525 
L 1159 0 
L 581 0 
L 581 4863 
L 1159 4863 
L 1159 2969 
z
" transform="scale(0.015625)"/>
      <path id="DejaVuSans-75" d="M 544 1381 
L 544 3500 
L 1119 3500 
L 1119 1403 
Q 1119 906 1312 657 
Q 1506 409 1894 409 
Q 2359 409 2629 706 
Q 2900 1003 2900 1516 
L 2900 3500 
L 3475 3500 
L 3475 0 
L 2900 0 
L 2900 538 
Q 2691 219 2414 64 
Q 2138 -91 1772 -91 
Q 1169 -91 856 284 
Q 544 659 544 1381 
z
M 1991 3584 
L 1991 3584 
z
" transform="scale(0.015625)"/>
      <path id="DejaVuSans-6f" d="M 1959 3097 
Q 1497 3097 1228 2736 
Q 959 2375 959 1747 
Q 959 1119 1226 758 
Q 1494 397 1959 397 
Q 2419 397 2687 759 
Q 2956 1122 2956 1747 
Q 2956 2369 2687 2733 
Q 2419 3097 1959 3097 
z
M 1959 3584 
Q 2709 3584 3137 3096 
Q 3566 2609 3566 1747 
Q 3566 888 3137 398 
Q 2709 -91 1959 -91 
Q 1206 -91 779 398 
Q 353 888 353 1747 
Q 353 2609 779 3096 
Q 1206 3584 1959 3584 
z
" transform="scale(0.015625)"/>
      <path id="DejaVuSans-20" transform="scale(0.015625)"/>
      <path id="DejaVuSans-66" d="M 2375 4863 
L 2375 4384 
L 1825 4384 
Q 1516 4384 1395 4259 
Q 1275 4134 1275 3809 
L 1275 3500 
L 2222 3500 
L 2222 3053 
L 1275 3053 
L 1275 0 
L 697 0 
L 697 3053 
L 147 3053 
L 147 3500 
L 697 3500 
L 697 3744 
Q 697 4328 969 4595 
Q 1241 4863 1831 4863 
L 2375 4863 
z
" transform="scale(0.015625)"/>
     </defs>
     <use xlink:href="#DejaVuSans-44"/>
     <use xlink:href="#DejaVuSans-69" x="77.001953"/>
     <use xlink:href="#DejaVuSans-73" x="104.785156"/>
     <use xlink:href="#DejaVuSans-74" x="156.884766"/>
     <use xlink:href="#DejaVuSans-72" x="196.09375"/>
     <use xlink:href="#DejaVuSans-69" x="237.207031"/>
     <use xlink:href="#DejaVuSans-62" x="264.990234"/>
     <use xlink:href="#DejaVuSans-75" x="328.466797"/>
     <use xlink:href="#DejaVuSans-74" x="391.845703"/>
     <use xlink:href="#DejaVuSans-69" x="431.054688"/>
     <use xlink:href="#DejaVuSans-6f" x="458.837891"/>
     <use xlink:href="#DejaVuSans-6e" x="520.019531"/>
     <use xlink:href="#DejaVuSans-20" x="583.398438"/>
     <use xlink:href="#DejaVuSans-6f" x="615.185547"/>
     <use xlink:href="#DejaVuSans-66" x="676.367188"/>
     <use xlink:href="#DejaVuSans-20" x="711.572266"/>
     <use xlink:href="#DejaVuSans-43" x="743.359375"/>
     <use xlink:href="#DejaVuSans-61" x="813.183594"/>
    </g>
   </g>
  </g>
 </g>
 <defs>
  <clipPath id="p67e6c51cda">
   <rect x="43.78125" y="22.318125" width="805.48" height="363.16"/>
  </clipPath>
 </defs>
</svg>
