<?xml version="1.0" encoding="utf-8" standalone="no"?>
<!DOCTYPE svg PUBLIC "-//W3C//DTD SVG 1.1//EN"
  "http://www.w3.org/Graphics/SVG/1.1/DTD/svg11.dtd">
<svg xmlns:xlink="http://www.w3.org/1999/xlink" width="512.593437pt" height="339.01pt" viewBox="0 0 512.593437 339.01" xmlns="http://www.w3.org/2000/svg" version="1.1">
 <metadata>
  <rdf:RDF xmlns:dc="http://purl.org/dc/elements/1.1/" xmlns:cc="http://creativecommons.org/ns#" xmlns:rdf="http://www.w3.org/1999/02/22-rdf-syntax-ns#">
   <cc:Work>
    <dc:type rdf:resource="http://purl.org/dc/dcmitype/StillImage"/>
    <dc:date>2024-08-05T22:53:21.663236</dc:date>
    <dc:format>image/svg+xml</dc:format>
    <dc:creator>
     <cc:Agent>
      <dc:title>Matplotlib v3.9.0, https://matplotlib.org/</dc:title>
     </cc:Agent>
    </dc:creator>
   </cc:Work>
  </rdf:RDF>
 </metadata>
 <defs>
  <style type="text/css">*{stroke-linejoin: round; stroke-linecap: butt}</style>
 </defs>
 <g id="figure_1">
  <g id="patch_1">
   <path d="M 0 339.01 
L 512.593437 339.01 
L 512.593437 0 
L 0 0 
z
" style="fill: #ffffff"/>
  </g>
  <g id="axes_1">
   <g id="patch_2">
    <path d="M 58.993437 299.518125 
L 505.393438 299.518125 
L 505.393438 22.318125 
L 58.993437 22.318125 
z
" style="fill: #ffffff"/>
   </g>
   <g id="PolyCollection_1">
    <defs>
     <path id="ma1b356a38e" d="M 84.28501 -299.364836 
L 84.28501 -299.368914 
L 86.89863 -299.373513 
L 89.51225 -299.38012 
L 92.12587 -299.38414 
L 94.739489 -299.384552 
L 97.353109 -299.384572 
L 99.966729 -299.382646 
L 102.580349 -299.376733 
L 105.193968 -299.370742 
L 107.807588 -299.36791 
L 110.421208 -299.367935 
L 113.034827 -299.371376 
L 115.648447 -299.380803 
L 118.262067 -299.396127 
L 120.875687 -299.413306 
L 123.489306 -299.435522 
L 126.102926 -299.481968 
L 128.716546 -299.573312 
L 131.330165 -299.709292 
L 133.943785 -299.872258 
L 136.557405 -300.0458 
L 139.171025 -300.236914 
L 141.784644 -300.495705 
L 144.398264 -300.906635 
L 147.011884 -301.544459 
L 149.625504 -302.42241 
L 152.239123 -303.566008 
L 154.852743 -305.030139 
L 157.466363 -306.698003 
L 160.079982 -308.309848 
L 162.693602 -309.773572 
L 165.307222 -311.165954 
L 167.920842 -312.380193 
L 170.534461 -313.112838 
L 173.148081 -313.226875 
L 175.761701 -312.840274 
L 178.375321 -312.086446 
L 180.98894 -310.997125 
L 183.60256 -309.652009 
L 186.21618 -308.277278 
L 188.829799 -307.058259 
L 191.443419 -305.944394 
L 194.057039 -304.850767 
L 196.670659 -303.856068 
L 199.284278 -303.004123 
L 201.897898 -302.259861 
L 204.511518 -301.65464 
L 207.125138 -301.211253 
L 209.738757 -300.860669 
L 212.352377 -300.533278 
L 214.965997 -300.239217 
L 217.579616 -300.030911 
L 220.193236 -299.925973 
L 222.806856 -299.883581 
L 225.420476 -299.851116 
L 228.034095 -299.80842 
L 230.647715 -299.759176 
L 233.261335 -299.710544 
L 235.874954 -299.662385 
L 238.488574 -299.604837 
L 241.102194 -299.54142 
L 243.715814 -299.492451 
L 246.329433 -299.46561 
L 248.943053 -299.451472 
L 251.556673 -299.446674 
L 254.170293 -299.456067 
L 256.783912 -299.477624 
L 259.397532 -299.492841 
L 262.011152 -299.478083 
L 264.624771 -299.44052 
L 267.238391 -299.415393 
L 269.852011 -299.418195 
L 272.465631 -299.43192 
L 275.07925 -299.435834 
L 277.69287 -299.423664 
L 280.30649 -299.402546 
L 282.92011 -299.387052 
L 285.533729 -299.38468 
L 288.147349 -299.388926 
L 290.760969 -299.391116 
L 293.374588 -299.389466 
L 295.988208 -299.388256 
L 298.601828 -299.392097 
L 301.215448 -299.396307 
L 303.829067 -299.392862 
L 306.442687 -299.386472 
L 309.056307 -299.388866 
L 311.669926 -299.399202 
L 314.283546 -299.40501 
L 316.897166 -299.402038 
L 319.510786 -299.396424 
L 322.124405 -299.390984 
L 324.738025 -299.383788 
L 327.351645 -299.376341 
L 329.965265 -299.373951 
L 332.578884 -299.377826 
L 335.192504 -299.381827 
L 337.806124 -299.379658 
L 340.419743 -299.373458 
L 343.033363 -299.36891 
L 343.033363 -299.36484 
L 343.033363 -299.36484 
L 340.419743 -299.360292 
L 337.806124 -299.354092 
L 335.192504 -299.351923 
L 332.578884 -299.355924 
L 329.965265 -299.359799 
L 327.351645 -299.357409 
L 324.738025 -299.349962 
L 322.124405 -299.342766 
L 319.510786 -299.337326 
L 316.897166 -299.331712 
L 314.283546 -299.32874 
L 311.669926 -299.334548 
L 309.056307 -299.344884 
L 306.442687 -299.347278 
L 303.829067 -299.340888 
L 301.215448 -299.337443 
L 298.601828 -299.341653 
L 295.988208 -299.345494 
L 293.374588 -299.344284 
L 290.760969 -299.342634 
L 288.147349 -299.344824 
L 285.533729 -299.34907 
L 282.92011 -299.346698 
L 280.30649 -299.331204 
L 277.69287 -299.310086 
L 275.07925 -299.297916 
L 272.465631 -299.30183 
L 269.852011 -299.315555 
L 267.238391 -299.318357 
L 264.624771 -299.29323 
L 262.011152 -299.255667 
L 259.397532 -299.240909 
L 256.783912 -299.256126 
L 254.170293 -299.277683 
L 251.556673 -299.287076 
L 248.943053 -299.282278 
L 246.329433 -299.26814 
L 243.715814 -299.241299 
L 241.102194 -299.19233 
L 238.488574 -299.128913 
L 235.874954 -299.071365 
L 233.261335 -299.023206 
L 230.647715 -298.974574 
L 228.034095 -298.92533 
L 225.420476 -298.882634 
L 222.806856 -298.850169 
L 220.193236 -298.807777 
L 217.579616 -298.702839 
L 214.965997 -298.494533 
L 212.352377 -298.200472 
L 209.738757 -297.873081 
L 207.125138 -297.522497 
L 204.511518 -297.07911 
L 201.897898 -296.473889 
L 199.284278 -295.729627 
L 196.670659 -294.877682 
L 194.057039 -293.882983 
L 191.443419 -292.789356 
L 188.829799 -291.675491 
L 186.21618 -290.456472 
L 183.60256 -289.081741 
L 180.98894 -287.736625 
L 178.375321 -286.647304 
L 175.761701 -285.893476 
L 173.148081 -285.506875 
L 170.534461 -285.620912 
L 167.920842 -286.353557 
L 165.307222 -287.567796 
L 162.693602 -288.960178 
L 160.079982 -290.423902 
L 157.466363 -292.035747 
L 154.852743 -293.703611 
L 152.239123 -295.167742 
L 149.625504 -296.31134 
L 147.011884 -297.189291 
L 144.398264 -297.827115 
L 141.784644 -298.238045 
L 139.171025 -298.496836 
L 136.557405 -298.68795 
L 133.943785 -298.861492 
L 131.330165 -299.024458 
L 128.716546 -299.160438 
L 126.102926 -299.251782 
L 123.489306 -299.298228 
L 120.875687 -299.320444 
L 118.262067 -299.337623 
L 115.648447 -299.352947 
L 113.034827 -299.362374 
L 110.421208 -299.365815 
L 107.807588 -299.36584 
L 105.193968 -299.363008 
L 102.580349 -299.357017 
L 99.966729 -299.351104 
L 97.353109 -299.349178 
L 94.739489 -299.349198 
L 92.12587 -299.34961 
L 89.51225 -299.35363 
L 86.89863 -299.360237 
L 84.28501 -299.364836 
z
" style="stroke: #3d3d3d; stroke-width: 1.25"/>
    </defs>
    <g clip-path="url(#p99ab205120)">
     <use xlink:href="#ma1b356a38e" x="0" y="339.01" style="fill: #3274a1; stroke: #3d3d3d; stroke-width: 1.25"/>
    </g>
   </g>
   <g id="PolyCollection_2">
    <defs>
     <path id="mc4e9400360" d="M 102.349707 -264.713658 
L 102.349707 -264.720092 
L 105.691482 -264.725943 
L 109.033256 -264.736806 
L 112.375031 -264.752754 
L 115.716805 -264.773294 
L 119.05858 -264.799701 
L 122.400354 -264.837033 
L 125.742129 -264.895316 
L 129.083903 -264.987576 
L 132.425678 -265.126112 
L 135.767452 -265.326481 
L 139.109227 -265.618447 
L 142.451002 -266.048638 
L 145.792776 -266.673563 
L 149.134551 -267.55757 
L 152.476325 -268.772528 
L 155.8181 -270.368347 
L 159.159874 -272.302478 
L 162.501649 -274.389877 
L 165.843423 -276.336935 
L 169.185198 -277.823249 
L 172.526972 -278.576875 
L 175.868747 -278.452063 
L 179.210521 -277.505895 
L 182.552296 -276.00407 
L 185.89407 -274.297572 
L 189.235845 -272.647026 
L 192.57762 -271.153307 
L 195.919394 -269.823233 
L 199.261169 -268.657687 
L 202.602943 -267.682932 
L 205.944718 -266.931075 
L 209.286492 -266.407319 
L 212.628267 -266.073552 
L 215.970041 -265.858182 
L 219.311816 -265.693774 
L 222.65359 -265.551505 
L 225.995365 -265.426802 
L 229.337139 -265.306696 
L 232.678914 -265.179035 
L 236.020689 -265.057279 
L 239.362463 -264.965761 
L 242.704238 -264.907508 
L 246.046012 -264.867085 
L 249.387787 -264.839007 
L 252.729561 -264.833929 
L 256.071336 -264.855414 
L 259.41311 -264.884621 
L 262.754885 -264.895634 
L 266.096659 -264.882302 
L 269.438434 -264.865189 
L 272.780208 -264.869769 
L 276.121983 -264.897797 
L 279.463757 -264.924696 
L 282.805532 -264.926363 
L 286.147307 -264.900346 
L 289.489081 -264.859478 
L 292.830856 -264.81666 
L 296.17263 -264.780034 
L 299.514405 -264.754786 
L 302.856179 -264.743852 
L 306.197954 -264.746186 
L 309.539728 -264.755846 
L 312.881503 -264.765828 
L 316.223277 -264.773963 
L 319.565052 -264.782705 
L 322.906826 -264.79209 
L 326.248601 -264.796735 
L 329.590376 -264.79227 
L 332.93215 -264.780973 
L 336.273925 -264.768311 
L 339.615699 -264.756944 
L 342.957474 -264.746934 
L 346.299248 -264.739933 
L 349.641023 -264.739079 
L 352.982797 -264.744392 
L 356.324572 -264.751724 
L 359.666346 -264.757104 
L 363.008121 -264.759816 
L 366.349895 -264.761392 
L 369.69167 -264.763719 
L 373.033444 -264.767568 
L 376.375219 -264.770746 
L 379.716994 -264.768249 
L 383.058768 -264.757396 
L 386.400543 -264.74257 
L 389.742317 -264.731836 
L 393.084092 -264.729672 
L 396.425866 -264.734058 
L 399.767641 -264.738664 
L 403.109415 -264.738098 
L 406.45119 -264.73277 
L 409.792964 -264.728026 
L 413.134739 -264.728464 
L 416.476513 -264.733665 
L 419.818288 -264.73853 
L 423.160063 -264.737981 
L 426.501837 -264.731962 
L 429.843612 -264.724749 
L 433.185386 -264.719873 
L 433.185386 -264.713877 
L 433.185386 -264.713877 
L 429.843612 -264.709001 
L 426.501837 -264.701788 
L 423.160063 -264.695769 
L 419.818288 -264.69522 
L 416.476513 -264.700085 
L 413.134739 -264.705286 
L 409.792964 -264.705724 
L 406.45119 -264.70098 
L 403.109415 -264.695652 
L 399.767641 -264.695086 
L 396.425866 -264.699692 
L 393.084092 -264.704078 
L 389.742317 -264.701914 
L 386.400543 -264.69118 
L 383.058768 -264.676354 
L 379.716994 -264.665501 
L 376.375219 -264.663004 
L 373.033444 -264.666182 
L 369.69167 -264.670031 
L 366.349895 -264.672358 
L 363.008121 -264.673934 
L 359.666346 -264.676646 
L 356.324572 -264.682026 
L 352.982797 -264.689358 
L 349.641023 -264.694671 
L 346.299248 -264.693817 
L 342.957474 -264.686816 
L 339.615699 -264.676806 
L 336.273925 -264.665439 
L 332.93215 -264.652777 
L 329.590376 -264.64148 
L 326.248601 -264.637015 
L 322.906826 -264.64166 
L 319.565052 -264.651045 
L 316.223277 -264.659787 
L 312.881503 -264.667922 
L 309.539728 -264.677904 
L 306.197954 -264.687564 
L 302.856179 -264.689898 
L 299.514405 -264.678964 
L 296.17263 -264.653716 
L 292.830856 -264.61709 
L 289.489081 -264.574272 
L 286.147307 -264.533404 
L 282.805532 -264.507387 
L 279.463757 -264.509054 
L 276.121983 -264.535953 
L 272.780208 -264.563981 
L 269.438434 -264.568561 
L 266.096659 -264.551448 
L 262.754885 -264.538116 
L 259.41311 -264.549129 
L 256.071336 -264.578336 
L 252.729561 -264.599821 
L 249.387787 -264.594743 
L 246.046012 -264.566665 
L 242.704238 -264.526242 
L 239.362463 -264.467989 
L 236.020689 -264.376471 
L 232.678914 -264.254715 
L 229.337139 -264.127054 
L 225.995365 -264.006948 
L 222.65359 -263.882245 
L 219.311816 -263.739976 
L 215.970041 -263.575568 
L 212.628267 -263.360198 
L 209.286492 -263.026431 
L 205.944718 -262.502675 
L 202.602943 -261.750818 
L 199.261169 -260.776063 
L 195.919394 -259.610517 
L 192.57762 -258.280443 
L 189.235845 -256.786724 
L 185.89407 -255.136178 
L 182.552296 -253.42968 
L 179.210521 -251.927855 
L 175.868747 -250.981687 
L 172.526972 -250.856875 
L 169.185198 -251.610501 
L 165.843423 -253.096815 
L 162.501649 -255.043873 
L 159.159874 -257.131272 
L 155.8181 -259.065403 
L 152.476325 -260.661222 
L 149.134551 -261.87618 
L 145.792776 -262.760187 
L 142.451002 -263.385112 
L 139.109227 -263.815303 
L 135.767452 -264.107269 
L 132.425678 -264.307638 
L 129.083903 -264.446174 
L 125.742129 -264.538434 
L 122.400354 -264.596717 
L 119.05858 -264.634049 
L 115.716805 -264.660456 
L 112.375031 -264.680996 
L 109.033256 -264.696944 
L 105.691482 -264.707807 
L 102.349707 -264.713658 
z
" style="stroke: #3d3d3d; stroke-width: 1.25"/>
    </defs>
    <g clip-path="url(#p99ab205120)">
     <use xlink:href="#mc4e9400360" x="0" y="339.01" style="fill: #e1812c; stroke: #3d3d3d; stroke-width: 1.25"/>
    </g>
   </g>
   <g id="PolyCollection_3">
    <defs>
     <path id="m770b71e541" d="M 100.765923 -230.064217 
L 100.765923 -230.069533 
L 104.648111 -230.07944 
L 108.530299 -230.094125 
L 112.412487 -230.0953 
L 116.294675 -230.092441 
L 120.176862 -230.13846 
L 124.05905 -230.263321 
L 127.941238 -230.412325 
L 131.823426 -230.543423 
L 135.705614 -230.724044 
L 139.587802 -231.042002 
L 143.46999 -231.535733 
L 147.352178 -232.310421 
L 151.234366 -233.614568 
L 155.116554 -235.569314 
L 158.998742 -238.005603 
L 162.88093 -240.482433 
L 166.763118 -242.45324 
L 170.645306 -243.609354 
L 174.527494 -243.926875 
L 178.409681 -243.502728 
L 182.291869 -242.240525 
L 186.174057 -240.322441 
L 190.056245 -238.226548 
L 193.938433 -236.288119 
L 197.820621 -234.735794 
L 201.702809 -233.579297 
L 205.584997 -232.749675 
L 209.467185 -232.147334 
L 213.349373 -231.655594 
L 217.231561 -231.323165 
L 221.113749 -231.096126 
L 224.995937 -230.848063 
L 228.878125 -230.625047 
L 232.760313 -230.508633 
L 236.642501 -230.466564 
L 240.524688 -230.443444 
L 244.406876 -230.429575 
L 248.289064 -230.41284 
L 252.171252 -230.372841 
L 256.05344 -230.32047 
L 259.935628 -230.272986 
L 263.817816 -230.227159 
L 267.700004 -230.176825 
L 271.582192 -230.147843 
L 275.46438 -230.143555 
L 279.346568 -230.147588 
L 283.228756 -230.150788 
L 287.110944 -230.146028 
L 290.993132 -230.137643 
L 294.87532 -230.129241 
L 298.757507 -230.104494 
L 302.639695 -230.078209 
L 306.521883 -230.068412 
L 310.404071 -230.067132 
L 314.286259 -230.068626 
L 318.168447 -230.074725 
L 322.050635 -230.082026 
L 325.932823 -230.079449 
L 329.815011 -230.071363 
L 333.697199 -230.067603 
L 337.579387 -230.067547 
L 341.461575 -230.071102 
L 345.343763 -230.079132 
L 349.225951 -230.082162 
L 353.108139 -230.075073 
L 356.990327 -230.068765 
L 360.872514 -230.067062 
L 364.754702 -230.066883 
L 368.63689 -230.066875 
L 372.519078 -230.066875 
L 376.401266 -230.066875 
L 380.283454 -230.066875 
L 384.165642 -230.066875 
L 388.04783 -230.066875 
L 391.930018 -230.066875 
L 395.812206 -230.066875 
L 399.694394 -230.066875 
L 403.576582 -230.066875 
L 407.45877 -230.066875 
L 411.340958 -230.066875 
L 415.223146 -230.066875 
L 419.105334 -230.066875 
L 422.987521 -230.066875 
L 426.869709 -230.066875 
L 430.751897 -230.066875 
L 434.634085 -230.066875 
L 438.516273 -230.066875 
L 442.398461 -230.066875 
L 446.280649 -230.066875 
L 450.162837 -230.066875 
L 454.045025 -230.066875 
L 457.927213 -230.066876 
L 461.809401 -230.066908 
L 465.691589 -230.067417 
L 469.573777 -230.070727 
L 473.455965 -230.07864 
L 477.338153 -230.082327 
L 481.22034 -230.075601 
L 485.102528 -230.068994 
L 485.102528 -230.064756 
L 485.102528 -230.064756 
L 481.22034 -230.058149 
L 477.338153 -230.051423 
L 473.455965 -230.05511 
L 469.573777 -230.063023 
L 465.691589 -230.066333 
L 461.809401 -230.066842 
L 457.927213 -230.066874 
L 454.045025 -230.066875 
L 450.162837 -230.066875 
L 446.280649 -230.066875 
L 442.398461 -230.066875 
L 438.516273 -230.066875 
L 434.634085 -230.066875 
L 430.751897 -230.066875 
L 426.869709 -230.066875 
L 422.987521 -230.066875 
L 419.105334 -230.066875 
L 415.223146 -230.066875 
L 411.340958 -230.066875 
L 407.45877 -230.066875 
L 403.576582 -230.066875 
L 399.694394 -230.066875 
L 395.812206 -230.066875 
L 391.930018 -230.066875 
L 388.04783 -230.066875 
L 384.165642 -230.066875 
L 380.283454 -230.066875 
L 376.401266 -230.066875 
L 372.519078 -230.066875 
L 368.63689 -230.066875 
L 364.754702 -230.066867 
L 360.872514 -230.066688 
L 356.990327 -230.064985 
L 353.108139 -230.058677 
L 349.225951 -230.051588 
L 345.343763 -230.054618 
L 341.461575 -230.062648 
L 337.579387 -230.066203 
L 333.697199 -230.066147 
L 329.815011 -230.062387 
L 325.932823 -230.054301 
L 322.050635 -230.051724 
L 318.168447 -230.059025 
L 314.286259 -230.065124 
L 310.404071 -230.066618 
L 306.521883 -230.065338 
L 302.639695 -230.055541 
L 298.757507 -230.029256 
L 294.87532 -230.004509 
L 290.993132 -229.996107 
L 287.110944 -229.987722 
L 283.228756 -229.982962 
L 279.346568 -229.986162 
L 275.46438 -229.990195 
L 271.582192 -229.985907 
L 267.700004 -229.956925 
L 263.817816 -229.906591 
L 259.935628 -229.860764 
L 256.05344 -229.81328 
L 252.171252 -229.760909 
L 248.289064 -229.72091 
L 244.406876 -229.704175 
L 240.524688 -229.690306 
L 236.642501 -229.667186 
L 232.760313 -229.625117 
L 228.878125 -229.508703 
L 224.995937 -229.285687 
L 221.113749 -229.037624 
L 217.231561 -228.810585 
L 213.349373 -228.478156 
L 209.467185 -227.986416 
L 205.584997 -227.384075 
L 201.702809 -226.554453 
L 197.820621 -225.397956 
L 193.938433 -223.845631 
L 190.056245 -221.907202 
L 186.174057 -219.811309 
L 182.291869 -217.893225 
L 178.409681 -216.631022 
L 174.527494 -216.206875 
L 170.645306 -216.524396 
L 166.763118 -217.68051 
L 162.88093 -219.651317 
L 158.998742 -222.128147 
L 155.116554 -224.564436 
L 151.234366 -226.519182 
L 147.352178 -227.823329 
L 143.46999 -228.598017 
L 139.587802 -229.091748 
L 135.705614 -229.409706 
L 131.823426 -229.590327 
L 127.941238 -229.721425 
L 124.05905 -229.870429 
L 120.176862 -229.99529 
L 116.294675 -230.041309 
L 112.412487 -230.03845 
L 108.530299 -230.039625 
L 104.648111 -230.05431 
L 100.765923 -230.064217 
z
" style="stroke: #3d3d3d; stroke-width: 1.25"/>
    </defs>
    <g clip-path="url(#p99ab205120)">
     <use xlink:href="#m770b71e541" x="0" y="339.01" style="fill: #3a923a; stroke: #3d3d3d; stroke-width: 1.25"/>
    </g>
   </g>
   <g id="PolyCollection_4">
    <defs>
     <path id="ma870b5c225" d="M 79.284347 -195.414118 
L 79.284347 -195.419632 
L 82.253199 -195.426974 
L 85.222051 -195.435905 
L 88.190903 -195.435344 
L 91.159755 -195.426425 
L 94.128607 -195.422079 
L 97.097459 -195.429603 
L 100.066311 -195.447008 
L 103.035164 -195.460086 
L 106.004016 -195.459022 
L 108.972868 -195.45169 
L 111.94172 -195.451526 
L 114.910572 -195.47447 
L 117.879424 -195.519923 
L 120.848276 -195.584196 
L 123.817128 -195.682607 
L 126.78598 -195.782984 
L 129.754833 -195.854794 
L 132.723685 -195.938969 
L 135.692537 -196.069372 
L 138.661389 -196.315038 
L 141.630241 -196.732882 
L 144.599093 -197.328066 
L 147.567945 -198.220131 
L 150.536797 -199.526671 
L 153.505649 -201.230771 
L 156.474502 -203.248954 
L 159.443354 -205.417808 
L 162.412206 -207.403235 
L 165.381058 -208.759374 
L 168.34991 -209.276875 
L 171.318762 -209.199142 
L 174.287614 -208.846257 
L 177.256466 -208.262436 
L 180.225319 -207.259046 
L 183.194171 -205.674661 
L 186.163023 -203.809355 
L 189.131875 -202.129641 
L 192.100727 -200.738594 
L 195.069579 -199.532956 
L 198.038431 -198.527238 
L 201.007283 -197.767245 
L 203.976135 -197.140314 
L 206.944988 -196.58603 
L 209.91384 -196.182684 
L 212.882692 -195.971761 
L 215.851544 -195.89115 
L 218.820396 -195.859343 
L 221.789248 -195.836593 
L 224.7581 -195.799822 
L 227.726952 -195.754158 
L 230.695804 -195.712192 
L 233.664657 -195.657232 
L 236.633509 -195.591388 
L 239.602361 -195.542305 
L 242.571213 -195.518378 
L 245.540065 -195.518753 
L 248.508917 -195.535106 
L 251.477769 -195.53247 
L 254.446621 -195.499828 
L 257.415474 -195.476028 
L 260.384326 -195.475081 
L 263.353178 -195.479854 
L 266.32203 -195.487806 
L 269.290882 -195.48784 
L 272.259734 -195.466661 
L 275.228586 -195.443691 
L 278.197438 -195.438782 
L 281.16629 -195.440921 
L 284.135143 -195.440714 
L 287.103995 -195.440417 
L 290.072847 -195.434505 
L 293.041699 -195.424443 
L 296.010551 -195.418584 
L 298.979403 -195.417074 
L 301.948255 -195.416887 
L 304.917107 -195.416875 
L 307.885959 -195.416875 
L 310.854812 -195.416875 
L 313.823664 -195.416875 
L 316.792516 -195.416875 
L 319.761368 -195.416875 
L 322.73022 -195.416875 
L 325.699072 -195.416875 
L 328.667924 -195.416875 
L 331.636776 -195.416875 
L 334.605629 -195.416875 
L 337.574481 -195.416875 
L 340.543333 -195.416875 
L 343.512185 -195.416875 
L 346.481037 -195.416875 
L 349.449889 -195.416876 
L 352.418741 -195.416896 
L 355.387593 -195.417186 
L 358.356445 -195.419235 
L 361.325298 -195.426073 
L 364.29415 -195.435321 
L 367.263002 -195.435904 
L 370.231854 -195.426974 
L 373.200706 -195.419632 
L 373.200706 -195.414118 
L 373.200706 -195.414118 
L 370.231854 -195.406776 
L 367.263002 -195.397846 
L 364.29415 -195.398429 
L 361.325298 -195.407677 
L 358.356445 -195.414515 
L 355.387593 -195.416564 
L 352.418741 -195.416854 
L 349.449889 -195.416874 
L 346.481037 -195.416875 
L 343.512185 -195.416875 
L 340.543333 -195.416875 
L 337.574481 -195.416875 
L 334.605629 -195.416875 
L 331.636776 -195.416875 
L 328.667924 -195.416875 
L 325.699072 -195.416875 
L 322.73022 -195.416875 
L 319.761368 -195.416875 
L 316.792516 -195.416875 
L 313.823664 -195.416875 
L 310.854812 -195.416875 
L 307.885959 -195.416875 
L 304.917107 -195.416875 
L 301.948255 -195.416863 
L 298.979403 -195.416676 
L 296.010551 -195.415166 
L 293.041699 -195.409307 
L 290.072847 -195.399245 
L 287.103995 -195.393333 
L 284.135143 -195.393036 
L 281.16629 -195.392829 
L 278.197438 -195.394968 
L 275.228586 -195.390059 
L 272.259734 -195.367089 
L 269.290882 -195.34591 
L 266.32203 -195.345944 
L 263.353178 -195.353896 
L 260.384326 -195.358669 
L 257.415474 -195.357722 
L 254.446621 -195.333922 
L 251.477769 -195.30128 
L 248.508917 -195.298644 
L 245.540065 -195.314997 
L 242.571213 -195.315372 
L 239.602361 -195.291445 
L 236.633509 -195.242362 
L 233.664657 -195.176518 
L 230.695804 -195.121558 
L 227.726952 -195.079592 
L 224.7581 -195.033928 
L 221.789248 -194.997157 
L 218.820396 -194.974407 
L 215.851544 -194.9426 
L 212.882692 -194.861989 
L 209.91384 -194.651066 
L 206.944988 -194.24772 
L 203.976135 -193.693436 
L 201.007283 -193.066505 
L 198.038431 -192.306512 
L 195.069579 -191.300794 
L 192.100727 -190.095156 
L 189.131875 -188.704109 
L 186.163023 -187.024395 
L 183.194171 -185.159089 
L 180.225319 -183.574704 
L 177.256466 -182.571314 
L 174.287614 -181.987493 
L 171.318762 -181.634608 
L 168.34991 -181.556875 
L 165.381058 -182.074376 
L 162.412206 -183.430515 
L 159.443354 -185.415942 
L 156.474502 -187.584796 
L 153.505649 -189.602979 
L 150.536797 -191.307079 
L 147.567945 -192.613619 
L 144.599093 -193.505684 
L 141.630241 -194.100868 
L 138.661389 -194.518712 
L 135.692537 -194.764378 
L 132.723685 -194.894781 
L 129.754833 -194.978956 
L 126.78598 -195.050766 
L 123.817128 -195.151143 
L 120.848276 -195.249554 
L 117.879424 -195.313827 
L 114.910572 -195.35928 
L 111.94172 -195.382224 
L 108.972868 -195.38206 
L 106.004016 -195.374728 
L 103.035164 -195.373664 
L 100.066311 -195.386742 
L 97.097459 -195.404147 
L 94.128607 -195.411671 
L 91.159755 -195.407325 
L 88.190903 -195.398406 
L 85.222051 -195.397845 
L 82.253199 -195.406776 
L 79.284347 -195.414118 
z
" style="stroke: #3d3d3d; stroke-width: 1.25"/>
    </defs>
    <g clip-path="url(#p99ab205120)">
     <use xlink:href="#ma870b5c225" x="0" y="339.01" style="fill: #c03d3e; stroke: #3d3d3d; stroke-width: 1.25"/>
    </g>
   </g>
   <g id="PolyCollection_5">
    <defs>
     <path id="mec67e6a023" d="M 101.85661 -160.76005 
L 101.85661 -160.7737 
L 105.208346 -160.791548 
L 108.560082 -160.828877 
L 111.911818 -160.87961 
L 115.263554 -160.920939 
L 118.615291 -160.933995 
L 121.967027 -160.932407 
L 125.318763 -160.95413 
L 128.670499 -161.025436 
L 132.022235 -161.159583 
L 135.373971 -161.372729 
L 138.725707 -161.685445 
L 142.077443 -162.13973 
L 145.429179 -162.816853 
L 148.780915 -163.820784 
L 152.132651 -165.199028 
L 155.484388 -166.859227 
L 158.836124 -168.664576 
L 162.18786 -170.550451 
L 165.539596 -172.39487 
L 168.891332 -173.876913 
L 172.243068 -174.626875 
L 175.594804 -174.482452 
L 178.94654 -173.51729 
L 182.298276 -171.988507 
L 185.650012 -170.25034 
L 189.001748 -168.567158 
L 192.353485 -167.049813 
L 195.705221 -165.720895 
L 199.056957 -164.602275 
L 202.408693 -163.731219 
L 205.760429 -163.115955 
L 209.112165 -162.733549 
L 212.463901 -162.513061 
L 215.815637 -162.334627 
L 219.167373 -162.125881 
L 222.519109 -161.917162 
L 225.870845 -161.756467 
L 229.222582 -161.627033 
L 232.574318 -161.48936 
L 235.926054 -161.352497 
L 239.27779 -161.250511 
L 242.629526 -161.179291 
L 245.981262 -161.105154 
L 249.332998 -161.021466 
L 252.684734 -160.963848 
L 256.03647 -160.953349 
L 259.388206 -160.95642 
L 262.739942 -160.936194 
L 266.091679 -160.901871 
L 269.443415 -160.879119 
L 272.795151 -160.87253 
L 276.146887 -160.874654 
L 279.498623 -160.875249 
L 282.850359 -160.86063 
L 286.202095 -160.833899 
L 289.553831 -160.8155 
L 292.905567 -160.810042 
L 296.257303 -160.803097 
L 299.609039 -160.790256 
L 302.960776 -160.78237 
L 306.312512 -160.787023 
L 309.664248 -160.800382 
L 313.015984 -160.812515 
L 316.36772 -160.814092 
L 319.719456 -160.802575 
L 323.071192 -160.786304 
L 326.422928 -160.777036 
L 329.774664 -160.779461 
L 333.1264 -160.789952 
L 336.478136 -160.799488 
L 339.829873 -160.799735 
L 343.181609 -160.790309 
L 346.533345 -160.778441 
L 349.885081 -160.770709 
L 353.236817 -160.767707 
L 356.588553 -160.766991 
L 359.940289 -160.766885 
L 363.292025 -160.766876 
L 366.643761 -160.766875 
L 369.995497 -160.766875 
L 373.347234 -160.766875 
L 376.69897 -160.766875 
L 380.050706 -160.766875 
L 383.402442 -160.766875 
L 386.754178 -160.766875 
L 390.105914 -160.766877 
L 393.45765 -160.766905 
L 396.809386 -160.767151 
L 400.161122 -160.768462 
L 403.512858 -160.772638 
L 406.864594 -160.780116 
L 410.216331 -160.786367 
L 413.568067 -160.786511 
L 416.919803 -160.784227 
L 420.271539 -160.785561 
L 423.623275 -160.787137 
L 426.975011 -160.782812 
L 430.326747 -160.775008 
L 433.678483 -160.769507 
L 433.678483 -160.764243 
L 433.678483 -160.764243 
L 430.326747 -160.758742 
L 426.975011 -160.750938 
L 423.623275 -160.746613 
L 420.271539 -160.748189 
L 416.919803 -160.749523 
L 413.568067 -160.747239 
L 410.216331 -160.747383 
L 406.864594 -160.753634 
L 403.512858 -160.761112 
L 400.161122 -160.765288 
L 396.809386 -160.766599 
L 393.45765 -160.766845 
L 390.105914 -160.766873 
L 386.754178 -160.766875 
L 383.402442 -160.766875 
L 380.050706 -160.766875 
L 376.69897 -160.766875 
L 373.347234 -160.766875 
L 369.995497 -160.766875 
L 366.643761 -160.766875 
L 363.292025 -160.766874 
L 359.940289 -160.766865 
L 356.588553 -160.766759 
L 353.236817 -160.766043 
L 349.885081 -160.763041 
L 346.533345 -160.755309 
L 343.181609 -160.743441 
L 339.829873 -160.734015 
L 336.478136 -160.734262 
L 333.1264 -160.743798 
L 329.774664 -160.754289 
L 326.422928 -160.756714 
L 323.071192 -160.747446 
L 319.719456 -160.731175 
L 316.36772 -160.719658 
L 313.015984 -160.721235 
L 309.664248 -160.733368 
L 306.312512 -160.746727 
L 302.960776 -160.75138 
L 299.609039 -160.743494 
L 296.257303 -160.730653 
L 292.905567 -160.723708 
L 289.553831 -160.71825 
L 286.202095 -160.699851 
L 282.850359 -160.67312 
L 279.498623 -160.658501 
L 276.146887 -160.659096 
L 272.795151 -160.66122 
L 269.443415 -160.654631 
L 266.091679 -160.631879 
L 262.739942 -160.597556 
L 259.388206 -160.57733 
L 256.03647 -160.580401 
L 252.684734 -160.569902 
L 249.332998 -160.512284 
L 245.981262 -160.428596 
L 242.629526 -160.354459 
L 239.27779 -160.283239 
L 235.926054 -160.181253 
L 232.574318 -160.04439 
L 229.222582 -159.906717 
L 225.870845 -159.777283 
L 222.519109 -159.616588 
L 219.167373 -159.407869 
L 215.815637 -159.199123 
L 212.463901 -159.020689 
L 209.112165 -158.800201 
L 205.760429 -158.417795 
L 202.408693 -157.802531 
L 199.056957 -156.931475 
L 195.705221 -155.812855 
L 192.353485 -154.483937 
L 189.001748 -152.966592 
L 185.650012 -151.28341 
L 182.298276 -149.545243 
L 178.94654 -148.01646 
L 175.594804 -147.051298 
L 172.243068 -146.906875 
L 168.891332 -147.656837 
L 165.539596 -149.13888 
L 162.18786 -150.983299 
L 158.836124 -152.869174 
L 155.484388 -154.674523 
L 152.132651 -156.334722 
L 148.780915 -157.712966 
L 145.429179 -158.716897 
L 142.077443 -159.39402 
L 138.725707 -159.848305 
L 135.373971 -160.161021 
L 132.022235 -160.374167 
L 128.670499 -160.508314 
L 125.318763 -160.57962 
L 121.967027 -160.601343 
L 118.615291 -160.599755 
L 115.263554 -160.612811 
L 111.911818 -160.65414 
L 108.560082 -160.704873 
L 105.208346 -160.742202 
L 101.85661 -160.76005 
z
" style="stroke: #3d3d3d; stroke-width: 1.25"/>
    </defs>
    <g clip-path="url(#p99ab205120)">
     <use xlink:href="#mec67e6a023" x="0" y="339.01" style="fill: #9372b2; stroke: #3d3d3d; stroke-width: 1.25"/>
    </g>
   </g>
   <g id="PolyCollection_6">
    <defs>
     <path id="me6685f59c8" d="M 105.087651 -126.113179 
L 105.087651 -126.120571 
L 108.196168 -126.128504 
L 111.304684 -126.140872 
L 114.4132 -126.151684 
L 117.521717 -126.158234 
L 120.630233 -126.166654 
L 123.738749 -126.183816 
L 126.847266 -126.206899 
L 129.955782 -126.224677 
L 133.064298 -126.245732 
L 136.172814 -126.304582 
L 139.281331 -126.424898 
L 142.389847 -126.637272 
L 145.498363 -127.029904 
L 148.60688 -127.698338 
L 151.715396 -128.657885 
L 154.823912 -129.855747 
L 157.932429 -131.213331 
L 161.040945 -132.659661 
L 164.149461 -134.180061 
L 167.257978 -135.770795 
L 170.366494 -137.332954 
L 173.47501 -138.663277 
L 176.583527 -139.57659 
L 179.692043 -139.976875 
L 182.800559 -139.796457 
L 185.909076 -139.083299 
L 189.017592 -138.011683 
L 192.126108 -136.674152 
L 195.234624 -135.08867 
L 198.343141 -133.403055 
L 201.451657 -131.929382 
L 204.560173 -130.891908 
L 207.66869 -130.184462 
L 210.777206 -129.54347 
L 213.885722 -128.912802 
L 216.994239 -128.407871 
L 220.102755 -128.054478 
L 223.211271 -127.761991 
L 226.319788 -127.449064 
L 229.428304 -127.126152 
L 232.53682 -126.874248 
L 235.645337 -126.74765 
L 238.753853 -126.70972 
L 241.862369 -126.662109 
L 244.970886 -126.550267 
L 248.079402 -126.423162 
L 251.187918 -126.353988 
L 254.296435 -126.334244 
L 257.404951 -126.30255 
L 260.513467 -126.247015 
L 263.621983 -126.206355 
L 266.7305 -126.195285 
L 269.839016 -126.190442 
L 272.947532 -126.175313 
L 276.056049 -126.164365 
L 279.164565 -126.175217 
L 282.273081 -126.19388 
L 285.381598 -126.191351 
L 288.490114 -126.16724 
L 291.59863 -126.147979 
L 294.707147 -126.148465 
L 297.815663 -126.159119 
L 300.924179 -126.163365 
L 304.032696 -126.154523 
L 307.141212 -126.138505 
L 310.249728 -126.125371 
L 313.358245 -126.119218 
L 316.466761 -126.11828 
L 319.575277 -126.121575 
L 322.683793 -126.130095 
L 325.79231 -126.140527 
L 328.900826 -126.143584 
L 332.009342 -126.13591 
L 335.117859 -126.125436 
L 338.226375 -126.119305 
L 341.334891 -126.11731 
L 344.443408 -126.116924 
L 347.551924 -126.116879 
L 350.66044 -126.116875 
L 353.768957 -126.116875 
L 356.877473 -126.116875 
L 359.985989 -126.116875 
L 363.094506 -126.116875 
L 366.203022 -126.116875 
L 369.311538 -126.116875 
L 372.420055 -126.116875 
L 375.528571 -126.116875 
L 378.637087 -126.116875 
L 381.745603 -126.116875 
L 384.85412 -126.116881 
L 387.962636 -126.116951 
L 391.071152 -126.117493 
L 394.179669 -126.120044 
L 397.288185 -126.127137 
L 400.396701 -126.137843 
L 403.505218 -126.143912 
L 406.613734 -126.138876 
L 409.72225 -126.128173 
L 412.830767 -126.120536 
L 412.830767 -126.113214 
L 412.830767 -126.113214 
L 409.72225 -126.105577 
L 406.613734 -126.094874 
L 403.505218 -126.089838 
L 400.396701 -126.095907 
L 397.288185 -126.106613 
L 394.179669 -126.113706 
L 391.071152 -126.116257 
L 387.962636 -126.116799 
L 384.85412 -126.116869 
L 381.745603 -126.116875 
L 378.637087 -126.116875 
L 375.528571 -126.116875 
L 372.420055 -126.116875 
L 369.311538 -126.116875 
L 366.203022 -126.116875 
L 363.094506 -126.116875 
L 359.985989 -126.116875 
L 356.877473 -126.116875 
L 353.768957 -126.116875 
L 350.66044 -126.116875 
L 347.551924 -126.116871 
L 344.443408 -126.116826 
L 341.334891 -126.11644 
L 338.226375 -126.114445 
L 335.117859 -126.108314 
L 332.009342 -126.09784 
L 328.900826 -126.090166 
L 325.79231 -126.093223 
L 322.683793 -126.103655 
L 319.575277 -126.112175 
L 316.466761 -126.11547 
L 313.358245 -126.114532 
L 310.249728 -126.108379 
L 307.141212 -126.095245 
L 304.032696 -126.079227 
L 300.924179 -126.070385 
L 297.815663 -126.074631 
L 294.707147 -126.085285 
L 291.59863 -126.085771 
L 288.490114 -126.06651 
L 285.381598 -126.042399 
L 282.273081 -126.03987 
L 279.164565 -126.058533 
L 276.056049 -126.069385 
L 272.947532 -126.058437 
L 269.839016 -126.043308 
L 266.7305 -126.038465 
L 263.621983 -126.027395 
L 260.513467 -125.986735 
L 257.404951 -125.9312 
L 254.296435 -125.899506 
L 251.187918 -125.879762 
L 248.079402 -125.810588 
L 244.970886 -125.683483 
L 241.862369 -125.571641 
L 238.753853 -125.52403 
L 235.645337 -125.4861 
L 232.53682 -125.359502 
L 229.428304 -125.107598 
L 226.319788 -124.784686 
L 223.211271 -124.471759 
L 220.102755 -124.179272 
L 216.994239 -123.825879 
L 213.885722 -123.320948 
L 210.777206 -122.69028 
L 207.66869 -122.049288 
L 204.560173 -121.341842 
L 201.451657 -120.304368 
L 198.343141 -118.830695 
L 195.234624 -117.14508 
L 192.126108 -115.559598 
L 189.017592 -114.222067 
L 185.909076 -113.150451 
L 182.800559 -112.437293 
L 179.692043 -112.256875 
L 176.583527 -112.65716 
L 173.47501 -113.570473 
L 170.366494 -114.900796 
L 167.257978 -116.462955 
L 164.149461 -118.053689 
L 161.040945 -119.574089 
L 157.932429 -121.020419 
L 154.823912 -122.378003 
L 151.715396 -123.575865 
L 148.60688 -124.535412 
L 145.498363 -125.203846 
L 142.389847 -125.596478 
L 139.281331 -125.808852 
L 136.172814 -125.929168 
L 133.064298 -125.988018 
L 129.955782 -126.009073 
L 126.847266 -126.026851 
L 123.738749 -126.049934 
L 120.630233 -126.067096 
L 117.521717 -126.075516 
L 114.4132 -126.082066 
L 111.304684 -126.092878 
L 108.196168 -126.105246 
L 105.087651 -126.113179 
z
" style="stroke: #3d3d3d; stroke-width: 1.25"/>
    </defs>
    <g clip-path="url(#p99ab205120)">
     <use xlink:href="#me6685f59c8" x="0" y="339.01" style="fill: #845b53; stroke: #3d3d3d; stroke-width: 1.25"/>
    </g>
   </g>
   <g id="PolyCollection_7">
    <defs>
     <path id="m48873047c1" d="M 109.699279 -91.452697 
L 109.699279 -91.481053 
L 111.850321 -91.501568 
L 114.001363 -91.537433 
L 116.152405 -91.586667 
L 118.303447 -91.638331 
L 120.454489 -91.678401 
L 122.605531 -91.702275 
L 124.756573 -91.720767 
L 126.907615 -91.750125 
L 129.058656 -91.795998 
L 131.209698 -91.850996 
L 133.36074 -91.909964 
L 135.511782 -91.987625 
L 137.662824 -92.125361 
L 139.813866 -92.38617 
L 141.964908 -92.837669 
L 144.11595 -93.52301 
L 146.266992 -94.435376 
L 148.418034 -95.520984 
L 150.569076 -96.710777 
L 152.720118 -97.947838 
L 154.87116 -99.185496 
L 157.022202 -100.373068 
L 159.173244 -101.462502 
L 161.324285 -102.435085 
L 163.475327 -103.308902 
L 165.626369 -104.100327 
L 167.777411 -104.770018 
L 169.928453 -105.215296 
L 172.079495 -105.326875 
L 174.230537 -105.056967 
L 176.381579 -104.439797 
L 178.532621 -103.564731 
L 180.683663 -102.535769 
L 182.834705 -101.432823 
L 184.985747 -100.285663 
L 187.136789 -99.088441 
L 189.287831 -97.85623 
L 191.438872 -96.666973 
L 193.589914 -95.633603 
L 195.740956 -94.826927 
L 197.891998 -94.226892 
L 200.04304 -93.749054 
L 202.194082 -93.315594 
L 204.345124 -92.903714 
L 206.496166 -92.538422 
L 208.647208 -92.252782 
L 210.79825 -92.057353 
L 212.949292 -91.937054 
L 215.100334 -91.865848 
L 217.251376 -91.822559 
L 219.402418 -91.797665 
L 221.55346 -91.788626 
L 223.704501 -91.789479 
L 225.855543 -91.786274 
L 228.006585 -91.764684 
L 230.157627 -91.722068 
L 232.308669 -91.670146 
L 234.459711 -91.624933 
L 236.610753 -91.594931 
L 238.761795 -91.578668 
L 240.912837 -91.569991 
L 243.063879 -91.562785 
L 245.214921 -91.552817 
L 247.365963 -91.539613 
L 249.517005 -91.527574 
L 251.668047 -91.522708 
L 253.819089 -91.526409 
L 255.97013 -91.532818 
L 258.121172 -91.533271 
L 260.272214 -91.523601 
L 262.423256 -91.506972 
L 264.574298 -91.490133 
L 266.72534 -91.477916 
L 268.876382 -91.471162 
L 271.027424 -91.468236 
L 273.178466 -91.46723 
L 275.329508 -91.46696 
L 277.48055 -91.466946 
L 279.631592 -91.467157 
L 281.782634 -91.467988 
L 283.933676 -91.470496 
L 286.084718 -91.476502 
L 288.235759 -91.487803 
L 290.386801 -91.504068 
L 292.537843 -91.520918 
L 294.688885 -91.531101 
L 296.839927 -91.529413 
L 298.990969 -91.517225 
L 301.142011 -91.501929 
L 303.293053 -91.492036 
L 305.444095 -91.492609 
L 307.595137 -91.503363 
L 309.746179 -91.518758 
L 311.897221 -91.530146 
L 314.048263 -91.530564 
L 316.199305 -91.519384 
L 318.350346 -91.502281 
L 320.501388 -91.486393 
L 322.65243 -91.475672 
L 322.65243 -91.458078 
L 322.65243 -91.458078 
L 320.501388 -91.447357 
L 318.350346 -91.431469 
L 316.199305 -91.414366 
L 314.048263 -91.403186 
L 311.897221 -91.403604 
L 309.746179 -91.414992 
L 307.595137 -91.430387 
L 305.444095 -91.441141 
L 303.293053 -91.441714 
L 301.142011 -91.431821 
L 298.990969 -91.416525 
L 296.839927 -91.404337 
L 294.688885 -91.402649 
L 292.537843 -91.412832 
L 290.386801 -91.429682 
L 288.235759 -91.445947 
L 286.084718 -91.457248 
L 283.933676 -91.463254 
L 281.782634 -91.465762 
L 279.631592 -91.466593 
L 277.48055 -91.466804 
L 275.329508 -91.46679 
L 273.178466 -91.46652 
L 271.027424 -91.465514 
L 268.876382 -91.462588 
L 266.72534 -91.455834 
L 264.574298 -91.443617 
L 262.423256 -91.426778 
L 260.272214 -91.410149 
L 258.121172 -91.400479 
L 255.97013 -91.400932 
L 253.819089 -91.407341 
L 251.668047 -91.411042 
L 249.517005 -91.406176 
L 247.365963 -91.394137 
L 245.214921 -91.380933 
L 243.063879 -91.370965 
L 240.912837 -91.363759 
L 238.761795 -91.355082 
L 236.610753 -91.338819 
L 234.459711 -91.308817 
L 232.308669 -91.263604 
L 230.157627 -91.211682 
L 228.006585 -91.169066 
L 225.855543 -91.147476 
L 223.704501 -91.144271 
L 221.55346 -91.145124 
L 219.402418 -91.136085 
L 217.251376 -91.111191 
L 215.100334 -91.067902 
L 212.949292 -90.996696 
L 210.79825 -90.876397 
L 208.647208 -90.680968 
L 206.496166 -90.395328 
L 204.345124 -90.030036 
L 202.194082 -89.618156 
L 200.04304 -89.184696 
L 197.891998 -88.706858 
L 195.740956 -88.106823 
L 193.589914 -87.300147 
L 191.438872 -86.266777 
L 189.287831 -85.07752 
L 187.136789 -83.845309 
L 184.985747 -82.648087 
L 182.834705 -81.500927 
L 180.683663 -80.397981 
L 178.532621 -79.369019 
L 176.381579 -78.493953 
L 174.230537 -77.876783 
L 172.079495 -77.606875 
L 169.928453 -77.718454 
L 167.777411 -78.163732 
L 165.626369 -78.833423 
L 163.475327 -79.624848 
L 161.324285 -80.498665 
L 159.173244 -81.471248 
L 157.022202 -82.560682 
L 154.87116 -83.748254 
L 152.720118 -84.985912 
L 150.569076 -86.222973 
L 148.418034 -87.412766 
L 146.266992 -88.498374 
L 144.11595 -89.41074 
L 141.964908 -90.096081 
L 139.813866 -90.54758 
L 137.662824 -90.808389 
L 135.511782 -90.946125 
L 133.36074 -91.023786 
L 131.209698 -91.082754 
L 129.058656 -91.137752 
L 126.907615 -91.183625 
L 124.756573 -91.212983 
L 122.605531 -91.231475 
L 120.454489 -91.255349 
L 118.303447 -91.295419 
L 116.152405 -91.347083 
L 114.001363 -91.396317 
L 111.850321 -91.432182 
L 109.699279 -91.452697 
z
" style="stroke: #3d3d3d; stroke-width: 1.25"/>
    </defs>
    <g clip-path="url(#p99ab205120)">
     <use xlink:href="#m48873047c1" x="0" y="339.01" style="fill: #d684bd; stroke: #3d3d3d; stroke-width: 1.25"/>
    </g>
   </g>
   <g id="PolyCollection_8">
    <defs>
     <path id="mefb8473f58" d="M 96.438433 -56.727776 
L 96.438433 -56.905974 
L 97.942219 -56.939998 
L 99.446005 -56.982235 
L 100.94979 -57.03272 
L 102.453576 -57.090702 
L 103.957362 -57.154502 
L 105.461148 -57.221481 
L 106.964934 -57.28815 
L 108.46872 -57.350436 
L 109.972506 -57.404101 
L 111.476291 -57.445238 
L 112.980077 -57.470813 
L 114.483863 -57.479138 
L 115.987649 -57.470217 
L 117.491435 -57.445908 
L 118.995221 -57.409895 
L 120.499006 -57.367474 
L 122.002792 -57.325222 
L 123.506578 -57.290601 
L 125.010364 -57.271558 
L 126.51415 -57.276159 
L 128.017936 -57.312281 
L 129.521722 -57.387335 
L 131.025507 -57.50804 
L 132.529293 -57.680203 
L 134.033079 -57.908544 
L 135.536865 -58.196573 
L 137.040651 -58.546565 
L 138.544437 -58.959653 
L 140.048223 -59.436034 
L 141.552008 -59.975235 
L 143.055794 -60.576336 
L 144.55958 -61.238031 
L 146.063366 -61.958395 
L 147.567152 -62.734308 
L 149.070938 -63.560538 
L 150.574724 -64.428634 
L 152.078509 -65.325835 
L 153.582295 -66.234314 
L 155.086081 -67.131003 
L 156.589867 -67.988235 
L 158.093653 -68.775242 
L 159.597439 -69.460427 
L 161.101225 -70.014124 
L 162.60501 -70.411495 
L 164.108796 -70.635112 
L 165.612582 -70.676875 
L 167.116368 -70.538961 
L 168.620154 -70.233702 
L 170.12394 -69.7824 
L 171.627725 -69.213274 
L 173.131511 -68.558787 
L 174.635297 -67.852688 
L 176.139083 -67.127103 
L 177.642869 -66.409974 
L 179.146655 -65.723109 
L 180.650441 -65.081013 
L 182.154226 -64.490591 
L 183.658012 -63.951692 
L 185.161798 -63.458402 
L 186.665584 -63.000852 
L 188.16937 -62.567301 
L 189.673156 -62.146189 
L 191.176942 -61.727908 
L 192.680727 -61.306078 
L 194.184513 -60.878211 
L 195.688299 -60.445761 
L 197.192085 -60.013604 
L 198.695871 -59.589127 
L 200.199657 -59.181094 
L 201.703443 -58.79848 
L 203.207228 -58.449445 
L 204.711014 -58.14056 
L 206.2148 -57.876338 
L 207.718586 -57.659072 
L 209.222372 -57.488908 
L 210.726158 -57.364102 
L 212.229944 -57.281333 
L 213.733729 -57.236035 
L 215.237515 -57.222681 
L 216.741301 -57.235026 
L 218.245087 -57.266319 
L 219.748873 -57.309527 
L 221.252659 -57.357615 
L 222.756444 -57.403877 
L 224.26023 -57.442341 
L 225.764016 -57.468162 
L 227.267802 -57.477989 
L 228.771588 -57.470189 
L 230.275374 -57.444909 
L 231.77916 -57.403932 
L 233.282945 -57.350353 
L 234.786731 -57.288109 
L 236.290517 -57.221462 
L 237.794303 -57.154494 
L 239.298089 -57.090698 
L 240.801875 -57.032718 
L 242.305661 -56.982234 
L 243.809446 -56.939998 
L 245.313232 -56.905973 
L 245.313232 -56.727777 
L 245.313232 -56.727777 
L 243.809446 -56.693752 
L 242.305661 -56.651516 
L 240.801875 -56.601032 
L 239.298089 -56.543052 
L 237.794303 -56.479256 
L 236.290517 -56.412288 
L 234.786731 -56.345641 
L 233.282945 -56.283397 
L 231.77916 -56.229818 
L 230.275374 -56.188841 
L 228.771588 -56.163561 
L 227.267802 -56.155761 
L 225.764016 -56.165588 
L 224.26023 -56.191409 
L 222.756444 -56.229873 
L 221.252659 -56.276135 
L 219.748873 -56.324223 
L 218.245087 -56.367431 
L 216.741301 -56.398724 
L 215.237515 -56.411069 
L 213.733729 -56.397715 
L 212.229944 -56.352417 
L 210.726158 -56.269648 
L 209.222372 -56.144842 
L 207.718586 -55.974678 
L 206.2148 -55.757412 
L 204.711014 -55.49319 
L 203.207228 -55.184305 
L 201.703443 -54.83527 
L 200.199657 -54.452656 
L 198.695871 -54.044623 
L 197.192085 -53.620146 
L 195.688299 -53.187989 
L 194.184513 -52.755539 
L 192.680727 -52.327672 
L 191.176942 -51.905842 
L 189.673156 -51.487561 
L 188.16937 -51.066449 
L 186.665584 -50.632898 
L 185.161798 -50.175348 
L 183.658012 -49.682058 
L 182.154226 -49.143159 
L 180.650441 -48.552737 
L 179.146655 -47.910641 
L 177.642869 -47.223776 
L 176.139083 -46.506647 
L 174.635297 -45.781062 
L 173.131511 -45.074963 
L 171.627725 -44.420476 
L 170.12394 -43.85135 
L 168.620154 -43.400048 
L 167.116368 -43.094789 
L 165.612582 -42.956875 
L 164.108796 -42.998638 
L 162.60501 -43.222255 
L 161.101225 -43.619626 
L 159.597439 -44.173323 
L 158.093653 -44.858508 
L 156.589867 -45.645515 
L 155.086081 -46.502747 
L 153.582295 -47.399436 
L 152.078509 -48.307915 
L 150.574724 -49.205116 
L 149.070938 -50.073212 
L 147.567152 -50.899442 
L 146.063366 -51.675355 
L 144.55958 -52.395719 
L 143.055794 -53.057414 
L 141.552008 -53.658515 
L 140.048223 -54.197716 
L 138.544437 -54.674097 
L 137.040651 -55.087185 
L 135.536865 -55.437177 
L 134.033079 -55.725206 
L 132.529293 -55.953547 
L 131.025507 -56.12571 
L 129.521722 -56.246415 
L 128.017936 -56.321469 
L 126.51415 -56.357591 
L 125.010364 -56.362192 
L 123.506578 -56.343149 
L 122.002792 -56.308528 
L 120.499006 -56.266276 
L 118.995221 -56.223855 
L 117.491435 -56.187842 
L 115.987649 -56.163533 
L 114.483863 -56.154612 
L 112.980077 -56.162937 
L 111.476291 -56.188512 
L 109.972506 -56.229649 
L 108.46872 -56.283314 
L 106.964934 -56.3456 
L 105.461148 -56.412269 
L 103.957362 -56.479248 
L 102.453576 -56.543048 
L 100.94979 -56.60103 
L 99.446005 -56.651515 
L 97.942219 -56.693752 
L 96.438433 -56.727776 
z
" style="stroke: #3d3d3d; stroke-width: 1.25"/>
    </defs>
    <g clip-path="url(#p99ab205120)">
     <use xlink:href="#mefb8473f58" x="0" y="339.01" style="fill: #7f7f7f; stroke: #3d3d3d; stroke-width: 1.25"/>
    </g>
   </g>
   <g id="matplotlib.axis_1">
    <g id="xtick_1">
     <g id="line2d_1">
      <defs>
       <path id="m9ebb92c767" d="M 0 0 
L 0 3.5 
" style="stroke: #000000; stroke-width: 0.8"/>
      </defs>
      <g>
       <use xlink:href="#m9ebb92c767" x="86.567458" y="299.518125" style="stroke: #000000; stroke-width: 0.8"/>
      </g>
     </g>
     <g id="text_1">
      <!-- 0 -->
      <g transform="translate(83.386208 314.116563) scale(0.1 -0.1)">
       <defs>
        <path id="DejaVuSans-30" d="M 2034 4250 
Q 1547 4250 1301 3770 
Q 1056 3291 1056 2328 
Q 1056 1369 1301 889 
Q 1547 409 2034 409 
Q 2525 409 2770 889 
Q 3016 1369 3016 2328 
Q 3016 3291 2770 3770 
Q 2525 4250 2034 4250 
z
M 2034 4750 
Q 2819 4750 3233 4129 
Q 3647 3509 3647 2328 
Q 3647 1150 3233 529 
Q 2819 -91 2034 -91 
Q 1250 -91 836 529 
Q 422 1150 422 2328 
Q 422 3509 836 4129 
Q 1250 4750 2034 4750 
z
" transform="scale(0.015625)"/>
       </defs>
       <use xlink:href="#DejaVuSans-30"/>
      </g>
     </g>
    </g>
    <g id="xtick_2">
     <g id="line2d_2">
      <g>
       <use xlink:href="#m9ebb92c767" x="136.900816" y="299.518125" style="stroke: #000000; stroke-width: 0.8"/>
      </g>
     </g>
     <g id="text_2">
      <!-- 2 -->
      <g transform="translate(133.719566 314.116563) scale(0.1 -0.1)">
       <defs>
        <path id="DejaVuSans-32" d="M 1228 531 
L 3431 531 
L 3431 0 
L 469 0 
L 469 531 
Q 828 903 1448 1529 
Q 2069 2156 2228 2338 
Q 2531 2678 2651 2914 
Q 2772 3150 2772 3378 
Q 2772 3750 2511 3984 
Q 2250 4219 1831 4219 
Q 1534 4219 1204 4116 
Q 875 4013 500 3803 
L 500 4441 
Q 881 4594 1212 4672 
Q 1544 4750 1819 4750 
Q 2544 4750 2975 4387 
Q 3406 4025 3406 3419 
Q 3406 3131 3298 2873 
Q 3191 2616 2906 2266 
Q 2828 2175 2409 1742 
Q 1991 1309 1228 531 
z
" transform="scale(0.015625)"/>
       </defs>
       <use xlink:href="#DejaVuSans-32"/>
      </g>
     </g>
    </g>
    <g id="xtick_3">
     <g id="line2d_3">
      <g>
       <use xlink:href="#m9ebb92c767" x="187.234174" y="299.518125" style="stroke: #000000; stroke-width: 0.8"/>
      </g>
     </g>
     <g id="text_3">
      <!-- 4 -->
      <g transform="translate(184.052924 314.116563) scale(0.1 -0.1)">
       <defs>
        <path id="DejaVuSans-34" d="M 2419 4116 
L 825 1625 
L 2419 1625 
L 2419 4116 
z
M 2253 4666 
L 3047 4666 
L 3047 1625 
L 3713 1625 
L 3713 1100 
L 3047 1100 
L 3047 0 
L 2419 0 
L 2419 1100 
L 313 1100 
L 313 1709 
L 2253 4666 
z
" transform="scale(0.015625)"/>
       </defs>
       <use xlink:href="#DejaVuSans-34"/>
      </g>
     </g>
    </g>
    <g id="xtick_4">
     <g id="line2d_4">
      <g>
       <use xlink:href="#m9ebb92c767" x="237.567532" y="299.518125" style="stroke: #000000; stroke-width: 0.8"/>
      </g>
     </g>
     <g id="text_4">
      <!-- 6 -->
      <g transform="translate(234.386282 314.116563) scale(0.1 -0.1)">
       <defs>
        <path id="DejaVuSans-36" d="M 2113 2584 
Q 1688 2584 1439 2293 
Q 1191 2003 1191 1497 
Q 1191 994 1439 701 
Q 1688 409 2113 409 
Q 2538 409 2786 701 
Q 3034 994 3034 1497 
Q 3034 2003 2786 2293 
Q 2538 2584 2113 2584 
z
M 3366 4563 
L 3366 3988 
Q 3128 4100 2886 4159 
Q 2644 4219 2406 4219 
Q 1781 4219 1451 3797 
Q 1122 3375 1075 2522 
Q 1259 2794 1537 2939 
Q 1816 3084 2150 3084 
Q 2853 3084 3261 2657 
Q 3669 2231 3669 1497 
Q 3669 778 3244 343 
Q 2819 -91 2113 -91 
Q 1303 -91 875 529 
Q 447 1150 447 2328 
Q 447 3434 972 4092 
Q 1497 4750 2381 4750 
Q 2619 4750 2861 4703 
Q 3103 4656 3366 4563 
z
" transform="scale(0.015625)"/>
       </defs>
       <use xlink:href="#DejaVuSans-36"/>
      </g>
     </g>
    </g>
    <g id="xtick_5">
     <g id="line2d_5">
      <g>
       <use xlink:href="#m9ebb92c767" x="287.90089" y="299.518125" style="stroke: #000000; stroke-width: 0.8"/>
      </g>
     </g>
     <g id="text_5">
      <!-- 8 -->
      <g transform="translate(284.71964 314.116563) scale(0.1 -0.1)">
       <defs>
        <path id="DejaVuSans-38" d="M 2034 2216 
Q 1584 2216 1326 1975 
Q 1069 1734 1069 1313 
Q 1069 891 1326 650 
Q 1584 409 2034 409 
Q 2484 409 2743 651 
Q 3003 894 3003 1313 
Q 3003 1734 2745 1975 
Q 2488 2216 2034 2216 
z
M 1403 2484 
Q 997 2584 770 2862 
Q 544 3141 544 3541 
Q 544 4100 942 4425 
Q 1341 4750 2034 4750 
Q 2731 4750 3128 4425 
Q 3525 4100 3525 3541 
Q 3525 3141 3298 2862 
Q 3072 2584 2669 2484 
Q 3125 2378 3379 2068 
Q 3634 1759 3634 1313 
Q 3634 634 3220 271 
Q 2806 -91 2034 -91 
Q 1263 -91 848 271 
Q 434 634 434 1313 
Q 434 1759 690 2068 
Q 947 2378 1403 2484 
z
M 1172 3481 
Q 1172 3119 1398 2916 
Q 1625 2713 2034 2713 
Q 2441 2713 2670 2916 
Q 2900 3119 2900 3481 
Q 2900 3844 2670 4047 
Q 2441 4250 2034 4250 
Q 1625 4250 1398 4047 
Q 1172 3844 1172 3481 
z
" transform="scale(0.015625)"/>
       </defs>
       <use xlink:href="#DejaVuSans-38"/>
      </g>
     </g>
    </g>
    <g id="xtick_6">
     <g id="line2d_6">
      <g>
       <use xlink:href="#m9ebb92c767" x="338.234248" y="299.518125" style="stroke: #000000; stroke-width: 0.8"/>
      </g>
     </g>
     <g id="text_6">
      <!-- 10 -->
      <g transform="translate(331.871748 314.116563) scale(0.1 -0.1)">
       <defs>
        <path id="DejaVuSans-31" d="M 794 531 
L 1825 531 
L 1825 4091 
L 703 3866 
L 703 4441 
L 1819 4666 
L 2450 4666 
L 2450 531 
L 3481 531 
L 3481 0 
L 794 0 
L 794 531 
z
" transform="scale(0.015625)"/>
       </defs>
       <use xlink:href="#DejaVuSans-31"/>
       <use xlink:href="#DejaVuSans-30" x="63.623047"/>
      </g>
     </g>
    </g>
    <g id="xtick_7">
     <g id="line2d_7">
      <g>
       <use xlink:href="#m9ebb92c767" x="388.567606" y="299.518125" style="stroke: #000000; stroke-width: 0.8"/>
      </g>
     </g>
     <g id="text_7">
      <!-- 12 -->
      <g transform="translate(382.205106 314.116563) scale(0.1 -0.1)">
       <use xlink:href="#DejaVuSans-31"/>
       <use xlink:href="#DejaVuSans-32" x="63.623047"/>
      </g>
     </g>
    </g>
    <g id="xtick_8">
     <g id="line2d_8">
      <g>
       <use xlink:href="#m9ebb92c767" x="438.900964" y="299.518125" style="stroke: #000000; stroke-width: 0.8"/>
      </g>
     </g>
     <g id="text_8">
      <!-- 14 -->
      <g transform="translate(432.538464 314.116563) scale(0.1 -0.1)">
       <use xlink:href="#DejaVuSans-31"/>
       <use xlink:href="#DejaVuSans-34" x="63.623047"/>
      </g>
     </g>
    </g>
    <g id="xtick_9">
     <g id="line2d_9">
      <g>
       <use xlink:href="#m9ebb92c767" x="489.234322" y="299.518125" style="stroke: #000000; stroke-width: 0.8"/>
      </g>
     </g>
     <g id="text_9">
      <!-- 16 -->
      <g transform="translate(482.871822 314.116563) scale(0.1 -0.1)">
       <use xlink:href="#DejaVuSans-31"/>
       <use xlink:href="#DejaVuSans-36" x="63.623047"/>
      </g>
     </g>
    </g>
    <g id="text_10">
     <!-- P -->
     <g transform="translate(278.575625 329.314375) scale(0.12 -0.12)">
      <defs>
       <path id="DejaVuSans-50" d="M 1259 4147 
L 1259 2394 
L 2053 2394 
Q 2494 2394 2734 2622 
Q 2975 2850 2975 3272 
Q 2975 3691 2734 3919 
Q 2494 4147 2053 4147 
L 1259 4147 
z
M 628 4666 
L 2053 4666 
Q 2838 4666 3239 4311 
Q 3641 3956 3641 3272 
Q 3641 2581 3239 2228 
Q 2838 1875 2053 1875 
L 1259 1875 
L 1259 0 
L 628 0 
L 628 4666 
z
" transform="scale(0.015625)"/>
      </defs>
      <use xlink:href="#DejaVuSans-50"/>
     </g>
    </g>
   </g>
   <g id="matplotlib.axis_2">
    <g id="ytick_1">
     <g id="line2d_10">
      <defs>
       <path id="m699fd206b7" d="M 0 0 
L -3.5 0 
" style="stroke: #000000; stroke-width: 0.8"/>
      </defs>
      <g>
       <use xlink:href="#m699fd206b7" x="58.993437" y="39.643125" style="stroke: #000000; stroke-width: 0.8"/>
      </g>
     </g>
     <g id="text_11">
      <!-- 60-69 -->
      <g transform="translate(22.935625 43.442344) scale(0.1 -0.1)">
       <defs>
        <path id="DejaVuSans-2d" d="M 313 2009 
L 1997 2009 
L 1997 1497 
L 313 1497 
L 313 2009 
z
" transform="scale(0.015625)"/>
        <path id="DejaVuSans-39" d="M 703 97 
L 703 672 
Q 941 559 1184 500 
Q 1428 441 1663 441 
Q 2288 441 2617 861 
Q 2947 1281 2994 2138 
Q 2813 1869 2534 1725 
Q 2256 1581 1919 1581 
Q 1219 1581 811 2004 
Q 403 2428 403 3163 
Q 403 3881 828 4315 
Q 1253 4750 1959 4750 
Q 2769 4750 3195 4129 
Q 3622 3509 3622 2328 
Q 3622 1225 3098 567 
Q 2575 -91 1691 -91 
Q 1453 -91 1209 -44 
Q 966 3 703 97 
z
M 1959 2075 
Q 2384 2075 2632 2365 
Q 2881 2656 2881 3163 
Q 2881 3666 2632 3958 
Q 2384 4250 1959 4250 
Q 1534 4250 1286 3958 
Q 1038 3666 1038 3163 
Q 1038 2656 1286 2365 
Q 1534 2075 1959 2075 
z
" transform="scale(0.015625)"/>
       </defs>
       <use xlink:href="#DejaVuSans-36"/>
       <use xlink:href="#DejaVuSans-30" x="63.623047"/>
       <use xlink:href="#DejaVuSans-2d" x="127.246094"/>
       <use xlink:href="#DejaVuSans-36" x="163.330078"/>
       <use xlink:href="#DejaVuSans-39" x="226.953125"/>
      </g>
     </g>
    </g>
    <g id="ytick_2">
     <g id="line2d_11">
      <g>
       <use xlink:href="#m699fd206b7" x="58.993437" y="74.293125" style="stroke: #000000; stroke-width: 0.8"/>
      </g>
     </g>
     <g id="text_12">
      <!-- 30-39 -->
      <g transform="translate(22.935625 78.092344) scale(0.1 -0.1)">
       <defs>
        <path id="DejaVuSans-33" d="M 2597 2516 
Q 3050 2419 3304 2112 
Q 3559 1806 3559 1356 
Q 3559 666 3084 287 
Q 2609 -91 1734 -91 
Q 1441 -91 1130 -33 
Q 819 25 488 141 
L 488 750 
Q 750 597 1062 519 
Q 1375 441 1716 441 
Q 2309 441 2620 675 
Q 2931 909 2931 1356 
Q 2931 1769 2642 2001 
Q 2353 2234 1838 2234 
L 1294 2234 
L 1294 2753 
L 1863 2753 
Q 2328 2753 2575 2939 
Q 2822 3125 2822 3475 
Q 2822 3834 2567 4026 
Q 2313 4219 1838 4219 
Q 1578 4219 1281 4162 
Q 984 4106 628 3988 
L 628 4550 
Q 988 4650 1302 4700 
Q 1616 4750 1894 4750 
Q 2613 4750 3031 4423 
Q 3450 4097 3450 3541 
Q 3450 3153 3228 2886 
Q 3006 2619 2597 2516 
z
" transform="scale(0.015625)"/>
       </defs>
       <use xlink:href="#DejaVuSans-33"/>
       <use xlink:href="#DejaVuSans-30" x="63.623047"/>
       <use xlink:href="#DejaVuSans-2d" x="127.246094"/>
       <use xlink:href="#DejaVuSans-33" x="163.330078"/>
       <use xlink:href="#DejaVuSans-39" x="226.953125"/>
      </g>
     </g>
    </g>
    <g id="ytick_3">
     <g id="line2d_12">
      <g>
       <use xlink:href="#m699fd206b7" x="58.993437" y="108.943125" style="stroke: #000000; stroke-width: 0.8"/>
      </g>
     </g>
     <g id="text_13">
      <!-- 50-59 -->
      <g transform="translate(22.935625 112.742344) scale(0.1 -0.1)">
       <defs>
        <path id="DejaVuSans-35" d="M 691 4666 
L 3169 4666 
L 3169 4134 
L 1269 4134 
L 1269 2991 
Q 1406 3038 1543 3061 
Q 1681 3084 1819 3084 
Q 2600 3084 3056 2656 
Q 3513 2228 3513 1497 
Q 3513 744 3044 326 
Q 2575 -91 1722 -91 
Q 1428 -91 1123 -41 
Q 819 9 494 109 
L 494 744 
Q 775 591 1075 516 
Q 1375 441 1709 441 
Q 2250 441 2565 725 
Q 2881 1009 2881 1497 
Q 2881 1984 2565 2268 
Q 2250 2553 1709 2553 
Q 1456 2553 1204 2497 
Q 953 2441 691 2322 
L 691 4666 
z
" transform="scale(0.015625)"/>
       </defs>
       <use xlink:href="#DejaVuSans-35"/>
       <use xlink:href="#DejaVuSans-30" x="63.623047"/>
       <use xlink:href="#DejaVuSans-2d" x="127.246094"/>
       <use xlink:href="#DejaVuSans-35" x="163.330078"/>
       <use xlink:href="#DejaVuSans-39" x="226.953125"/>
      </g>
     </g>
    </g>
    <g id="ytick_4">
     <g id="line2d_13">
      <g>
       <use xlink:href="#m699fd206b7" x="58.993437" y="143.593125" style="stroke: #000000; stroke-width: 0.8"/>
      </g>
     </g>
     <g id="text_14">
      <!-- 70-79 -->
      <g transform="translate(22.935625 147.392344) scale(0.1 -0.1)">
       <defs>
        <path id="DejaVuSans-37" d="M 525 4666 
L 3525 4666 
L 3525 4397 
L 1831 0 
L 1172 0 
L 2766 4134 
L 525 4134 
L 525 4666 
z
" transform="scale(0.015625)"/>
       </defs>
       <use xlink:href="#DejaVuSans-37"/>
       <use xlink:href="#DejaVuSans-30" x="63.623047"/>
       <use xlink:href="#DejaVuSans-2d" x="127.246094"/>
       <use xlink:href="#DejaVuSans-37" x="163.330078"/>
       <use xlink:href="#DejaVuSans-39" x="226.953125"/>
      </g>
     </g>
    </g>
    <g id="ytick_5">
     <g id="line2d_14">
      <g>
       <use xlink:href="#m699fd206b7" x="58.993437" y="178.243125" style="stroke: #000000; stroke-width: 0.8"/>
      </g>
     </g>
     <g id="text_15">
      <!-- 40-49 -->
      <g transform="translate(22.935625 182.042344) scale(0.1 -0.1)">
       <use xlink:href="#DejaVuSans-34"/>
       <use xlink:href="#DejaVuSans-30" x="63.623047"/>
       <use xlink:href="#DejaVuSans-2d" x="127.246094"/>
       <use xlink:href="#DejaVuSans-34" x="163.330078"/>
       <use xlink:href="#DejaVuSans-39" x="226.953125"/>
      </g>
     </g>
    </g>
    <g id="ytick_6">
     <g id="line2d_15">
      <g>
       <use xlink:href="#m699fd206b7" x="58.993437" y="212.893125" style="stroke: #000000; stroke-width: 0.8"/>
      </g>
     </g>
     <g id="text_16">
      <!-- 18-29 -->
      <g transform="translate(22.935625 216.692344) scale(0.1 -0.1)">
       <use xlink:href="#DejaVuSans-31"/>
       <use xlink:href="#DejaVuSans-38" x="63.623047"/>
       <use xlink:href="#DejaVuSans-2d" x="127.246094"/>
       <use xlink:href="#DejaVuSans-32" x="163.330078"/>
       <use xlink:href="#DejaVuSans-39" x="226.953125"/>
      </g>
     </g>
    </g>
    <g id="ytick_7">
     <g id="line2d_16">
      <g>
       <use xlink:href="#m699fd206b7" x="58.993437" y="247.543125" style="stroke: #000000; stroke-width: 0.8"/>
      </g>
     </g>
     <g id="text_17">
      <!-- 80-89 -->
      <g transform="translate(22.935625 251.342344) scale(0.1 -0.1)">
       <use xlink:href="#DejaVuSans-38"/>
       <use xlink:href="#DejaVuSans-30" x="63.623047"/>
       <use xlink:href="#DejaVuSans-2d" x="127.246094"/>
       <use xlink:href="#DejaVuSans-38" x="163.330078"/>
       <use xlink:href="#DejaVuSans-39" x="226.953125"/>
      </g>
     </g>
    </g>
    <g id="ytick_8">
     <g id="line2d_17">
      <g>
       <use xlink:href="#m699fd206b7" x="58.993437" y="282.193125" style="stroke: #000000; stroke-width: 0.8"/>
      </g>
     </g>
     <g id="text_18">
      <!-- 90-99 -->
      <g transform="translate(22.935625 285.992344) scale(0.1 -0.1)">
       <use xlink:href="#DejaVuSans-39"/>
       <use xlink:href="#DejaVuSans-30" x="63.623047"/>
       <use xlink:href="#DejaVuSans-2d" x="127.246094"/>
       <use xlink:href="#DejaVuSans-39" x="163.330078"/>
       <use xlink:href="#DejaVuSans-39" x="226.953125"/>
      </g>
     </g>
    </g>
    <g id="text_19">
     <!-- Age_Group -->
     <g transform="translate(16.10625 193.786875) rotate(-90) scale(0.12 -0.12)">
      <defs>
       <path id="DejaVuSans-41" d="M 2188 4044 
L 1331 1722 
L 3047 1722 
L 2188 4044 
z
M 1831 4666 
L 2547 4666 
L 4325 0 
L 3669 0 
L 3244 1197 
L 1141 1197 
L 716 0 
L 50 0 
L 1831 4666 
z
" transform="scale(0.015625)"/>
       <path id="DejaVuSans-67" d="M 2906 1791 
Q 2906 2416 2648 2759 
Q 2391 3103 1925 3103 
Q 1463 3103 1205 2759 
Q 947 2416 947 1791 
Q 947 1169 1205 825 
Q 1463 481 1925 481 
Q 2391 481 2648 825 
Q 2906 1169 2906 1791 
z
M 3481 434 
Q 3481 -459 3084 -895 
Q 2688 -1331 1869 -1331 
Q 1566 -1331 1297 -1286 
Q 1028 -1241 775 -1147 
L 775 -588 
Q 1028 -725 1275 -790 
Q 1522 -856 1778 -856 
Q 2344 -856 2625 -561 
Q 2906 -266 2906 331 
L 2906 616 
Q 2728 306 2450 153 
Q 2172 0 1784 0 
Q 1141 0 747 490 
Q 353 981 353 1791 
Q 353 2603 747 3093 
Q 1141 3584 1784 3584 
Q 2172 3584 2450 3431 
Q 2728 3278 2906 2969 
L 2906 3500 
L 3481 3500 
L 3481 434 
z
" transform="scale(0.015625)"/>
       <path id="DejaVuSans-65" d="M 3597 1894 
L 3597 1613 
L 953 1613 
Q 991 1019 1311 708 
Q 1631 397 2203 397 
Q 2534 397 2845 478 
Q 3156 559 3463 722 
L 3463 178 
Q 3153 47 2828 -22 
Q 2503 -91 2169 -91 
Q 1331 -91 842 396 
Q 353 884 353 1716 
Q 353 2575 817 3079 
Q 1281 3584 2069 3584 
Q 2775 3584 3186 3129 
Q 3597 2675 3597 1894 
z
M 3022 2063 
Q 3016 2534 2758 2815 
Q 2500 3097 2075 3097 
Q 1594 3097 1305 2825 
Q 1016 2553 972 2059 
L 3022 2063 
z
" transform="scale(0.015625)"/>
       <path id="DejaVuSans-5f" d="M 3263 -1063 
L 3263 -1509 
L -63 -1509 
L -63 -1063 
L 3263 -1063 
z
" transform="scale(0.015625)"/>
       <path id="DejaVuSans-47" d="M 3809 666 
L 3809 1919 
L 2778 1919 
L 2778 2438 
L 4434 2438 
L 4434 434 
Q 4069 175 3628 42 
Q 3188 -91 2688 -91 
Q 1594 -91 976 548 
Q 359 1188 359 2328 
Q 359 3472 976 4111 
Q 1594 4750 2688 4750 
Q 3144 4750 3555 4637 
Q 3966 4525 4313 4306 
L 4313 3634 
Q 3963 3931 3569 4081 
Q 3175 4231 2741 4231 
Q 1884 4231 1454 3753 
Q 1025 3275 1025 2328 
Q 1025 1384 1454 906 
Q 1884 428 2741 428 
Q 3075 428 3337 486 
Q 3600 544 3809 666 
z
" transform="scale(0.015625)"/>
       <path id="DejaVuSans-72" d="M 2631 2963 
Q 2534 3019 2420 3045 
Q 2306 3072 2169 3072 
Q 1681 3072 1420 2755 
Q 1159 2438 1159 1844 
L 1159 0 
L 581 0 
L 581 3500 
L 1159 3500 
L 1159 2956 
Q 1341 3275 1631 3429 
Q 1922 3584 2338 3584 
Q 2397 3584 2469 3576 
Q 2541 3569 2628 3553 
L 2631 2963 
z
" transform="scale(0.015625)"/>
       <path id="DejaVuSans-6f" d="M 1959 3097 
Q 1497 3097 1228 2736 
Q 959 2375 959 1747 
Q 959 1119 1226 758 
Q 1494 397 1959 397 
Q 2419 397 2687 759 
Q 2956 1122 2956 1747 
Q 2956 2369 2687 2733 
Q 2419 3097 1959 3097 
z
M 1959 3584 
Q 2709 3584 3137 3096 
Q 3566 2609 3566 1747 
Q 3566 888 3137 398 
Q 2709 -91 1959 -91 
Q 1206 -91 779 398 
Q 353 888 353 1747 
Q 353 2609 779 3096 
Q 1206 3584 1959 3584 
z
" transform="scale(0.015625)"/>
       <path id="DejaVuSans-75" d="M 544 1381 
L 544 3500 
L 1119 3500 
L 1119 1403 
Q 1119 906 1312 657 
Q 1506 409 1894 409 
Q 2359 409 2629 706 
Q 2900 1003 2900 1516 
L 2900 3500 
L 3475 3500 
L 3475 0 
L 2900 0 
L 2900 538 
Q 2691 219 2414 64 
Q 2138 -91 1772 -91 
Q 1169 -91 856 284 
Q 544 659 544 1381 
z
M 1991 3584 
L 1991 3584 
z
" transform="scale(0.015625)"/>
       <path id="DejaVuSans-70" d="M 1159 525 
L 1159 -1331 
L 581 -1331 
L 581 3500 
L 1159 3500 
L 1159 2969 
Q 1341 3281 1617 3432 
Q 1894 3584 2278 3584 
Q 2916 3584 3314 3078 
Q 3713 2572 3713 1747 
Q 3713 922 3314 415 
Q 2916 -91 2278 -91 
Q 1894 -91 1617 61 
Q 1341 213 1159 525 
z
M 3116 1747 
Q 3116 2381 2855 2742 
Q 2594 3103 2138 3103 
Q 1681 3103 1420 2742 
Q 1159 2381 1159 1747 
Q 1159 1113 1420 752 
Q 1681 391 2138 391 
Q 2594 391 2855 752 
Q 3116 1113 3116 1747 
z
" transform="scale(0.015625)"/>
      </defs>
      <use xlink:href="#DejaVuSans-41"/>
      <use xlink:href="#DejaVuSans-67" x="68.408203"/>
      <use xlink:href="#DejaVuSans-65" x="131.884766"/>
      <use xlink:href="#DejaVuSans-5f" x="193.408203"/>
      <use xlink:href="#DejaVuSans-47" x="243.408203"/>
      <use xlink:href="#DejaVuSans-72" x="320.898438"/>
      <use xlink:href="#DejaVuSans-6f" x="359.761719"/>
      <use xlink:href="#DejaVuSans-75" x="420.943359"/>
      <use xlink:href="#DejaVuSans-70" x="484.322266"/>
     </g>
    </g>
   </g>
   <g id="line2d_18">
    <path d="M 136.900816 39.643125 
L 214.917521 39.643125 
" clip-path="url(#p99ab205120)" style="fill: none; stroke: #3d3d3d; stroke-width: 1.875; stroke-linecap: square"/>
   </g>
   <g id="line2d_19">
    <path d="M 164.584163 39.643125 
L 184.717506 39.643125 
" clip-path="url(#p99ab205120)" style="fill: none; stroke: #3d3d3d; stroke-width: 5.625; stroke-linecap: square"/>
   </g>
   <g id="line2d_20">
    <path d="M 174.650834 39.643125 
" clip-path="url(#p99ab205120)" style="fill: none; stroke: #3d3d3d; stroke-width: 1.5; stroke-linecap: square"/>
    <defs>
     <path id="mff54b465ca" d="M 0 2.34375 
L 0 -2.34375 
" style="stroke: #ffffff; stroke-width: 1.125"/>
    </defs>
    <g clip-path="url(#p99ab205120)">
     <use xlink:href="#mff54b465ca" x="174.650834" y="39.643125" style="fill: #ffffff; stroke: #ffffff; stroke-width: 1.125"/>
    </g>
   </g>
   <g id="line2d_21">
    <path d="M 139.417484 74.293125 
L 214.917521 74.293125 
" clip-path="url(#p99ab205120)" style="fill: none; stroke: #3d3d3d; stroke-width: 1.875; stroke-linecap: square"/>
   </g>
   <g id="line2d_22">
    <path d="M 167.100831 74.293125 
L 187.234174 74.293125 
" clip-path="url(#p99ab205120)" style="fill: none; stroke: #3d3d3d; stroke-width: 5.625; stroke-linecap: square"/>
   </g>
   <g id="line2d_23">
    <path d="M 174.650834 74.293125 
" clip-path="url(#p99ab205120)" style="fill: none; stroke: #3d3d3d; stroke-width: 1.5; stroke-linecap: square"/>
    <g clip-path="url(#p99ab205120)">
     <use xlink:href="#mff54b465ca" x="174.650834" y="74.293125" style="fill: #ffffff; stroke: #ffffff; stroke-width: 1.125"/>
    </g>
   </g>
   <g id="line2d_24">
    <path d="M 139.417484 108.943125 
L 214.917521 108.943125 
" clip-path="url(#p99ab205120)" style="fill: none; stroke: #3d3d3d; stroke-width: 1.875; stroke-linecap: square"/>
   </g>
   <g id="line2d_25">
    <path d="M 167.100831 108.943125 
L 187.234174 108.943125 
" clip-path="url(#p99ab205120)" style="fill: none; stroke: #3d3d3d; stroke-width: 5.625; stroke-linecap: square"/>
   </g>
   <g id="line2d_26">
    <path d="M 177.167502 108.943125 
" clip-path="url(#p99ab205120)" style="fill: none; stroke: #3d3d3d; stroke-width: 1.5; stroke-linecap: square"/>
    <g clip-path="url(#p99ab205120)">
     <use xlink:href="#mff54b465ca" x="177.167502" y="108.943125" style="fill: #ffffff; stroke: #ffffff; stroke-width: 1.125"/>
    </g>
   </g>
   <g id="line2d_27">
    <path d="M 134.384148 143.593125 
L 212.400853 143.593125 
" clip-path="url(#p99ab205120)" style="fill: none; stroke: #3d3d3d; stroke-width: 1.875; stroke-linecap: square"/>
   </g>
   <g id="line2d_28">
    <path d="M 162.067495 143.593125 
L 182.200838 143.593125 
" clip-path="url(#p99ab205120)" style="fill: none; stroke: #3d3d3d; stroke-width: 5.625; stroke-linecap: square"/>
   </g>
   <g id="line2d_29">
    <path d="M 172.134167 143.593125 
" clip-path="url(#p99ab205120)" style="fill: none; stroke: #3d3d3d; stroke-width: 1.5; stroke-linecap: square"/>
    <g clip-path="url(#p99ab205120)">
     <use xlink:href="#mff54b465ca" x="172.134167" y="143.593125" style="fill: #ffffff; stroke: #ffffff; stroke-width: 1.125"/>
    </g>
   </g>
   <g id="line2d_30">
    <path d="M 131.86748 178.243125 
L 219.950857 178.243125 
" clip-path="url(#p99ab205120)" style="fill: none; stroke: #3d3d3d; stroke-width: 1.875; stroke-linecap: square"/>
   </g>
   <g id="line2d_31">
    <path d="M 164.584163 178.243125 
L 187.234174 178.243125 
" clip-path="url(#p99ab205120)" style="fill: none; stroke: #3d3d3d; stroke-width: 5.625; stroke-linecap: square"/>
   </g>
   <g id="line2d_32">
    <path d="M 174.650834 178.243125 
" clip-path="url(#p99ab205120)" style="fill: none; stroke: #3d3d3d; stroke-width: 1.5; stroke-linecap: square"/>
    <g clip-path="url(#p99ab205120)">
     <use xlink:href="#mff54b465ca" x="174.650834" y="178.243125" style="fill: #ffffff; stroke: #ffffff; stroke-width: 1.125"/>
    </g>
   </g>
   <g id="line2d_33">
    <path d="M 139.417484 212.893125 
L 227.50086 212.893125 
" clip-path="url(#p99ab205120)" style="fill: none; stroke: #3d3d3d; stroke-width: 1.875; stroke-linecap: square"/>
   </g>
   <g id="line2d_34">
    <path d="M 172.134167 212.893125 
L 194.784178 212.893125 
" clip-path="url(#p99ab205120)" style="fill: none; stroke: #3d3d3d; stroke-width: 5.625; stroke-linecap: square"/>
   </g>
   <g id="line2d_35">
    <path d="M 182.200838 212.893125 
" clip-path="url(#p99ab205120)" style="fill: none; stroke: #3d3d3d; stroke-width: 1.5; stroke-linecap: square"/>
    <g clip-path="url(#p99ab205120)">
     <use xlink:href="#mff54b465ca" x="182.200838" y="212.893125" style="fill: #ffffff; stroke: #ffffff; stroke-width: 1.125"/>
    </g>
   </g>
   <g id="line2d_36">
    <path d="M 136.900816 247.543125 
L 212.400853 247.543125 
" clip-path="url(#p99ab205120)" style="fill: none; stroke: #3d3d3d; stroke-width: 1.875; stroke-linecap: square"/>
   </g>
   <g id="line2d_37">
    <path d="M 162.067495 247.543125 
L 182.200838 247.543125 
" clip-path="url(#p99ab205120)" style="fill: none; stroke: #3d3d3d; stroke-width: 5.625; stroke-linecap: square"/>
   </g>
   <g id="line2d_38">
    <path d="M 172.134167 247.543125 
" clip-path="url(#p99ab205120)" style="fill: none; stroke: #3d3d3d; stroke-width: 1.5; stroke-linecap: square"/>
    <g clip-path="url(#p99ab205120)">
     <use xlink:href="#mff54b465ca" x="172.134167" y="247.543125" style="fill: #ffffff; stroke: #ffffff; stroke-width: 1.125"/>
    </g>
   </g>
   <g id="line2d_39">
    <path d="M 144.45082 282.193125 
L 197.300845 282.193125 
" clip-path="url(#p99ab205120)" style="fill: none; stroke: #3d3d3d; stroke-width: 1.875; stroke-linecap: square"/>
   </g>
   <g id="line2d_40">
    <path d="M 160.179994 282.193125 
L 176.538335 282.193125 
" clip-path="url(#p99ab205120)" style="fill: none; stroke: #3d3d3d; stroke-width: 5.625; stroke-linecap: square"/>
   </g>
   <g id="line2d_41">
    <path d="M 164.584163 282.193125 
" clip-path="url(#p99ab205120)" style="fill: none; stroke: #3d3d3d; stroke-width: 1.5; stroke-linecap: square"/>
    <g clip-path="url(#p99ab205120)">
     <use xlink:href="#mff54b465ca" x="164.584163" y="282.193125" style="fill: #ffffff; stroke: #ffffff; stroke-width: 1.125"/>
    </g>
   </g>
   <g id="patch_3">
    <path d="M 58.993437 299.518125 
L 58.993437 22.318125 
" style="fill: none; stroke: #000000; stroke-width: 0.8; stroke-linejoin: miter; stroke-linecap: square"/>
   </g>
   <g id="patch_4">
    <path d="M 505.393438 299.518125 
L 505.393438 22.318125 
" style="fill: none; stroke: #000000; stroke-width: 0.8; stroke-linejoin: miter; stroke-linecap: square"/>
   </g>
   <g id="patch_5">
    <path d="M 58.993438 299.518125 
L 505.393437 299.518125 
" style="fill: none; stroke: #000000; stroke-width: 0.8; stroke-linejoin: miter; stroke-linecap: square"/>
   </g>
   <g id="patch_6">
    <path d="M 58.993438 22.318125 
L 505.393437 22.318125 
" style="fill: none; stroke: #000000; stroke-width: 0.8; stroke-linejoin: miter; stroke-linecap: square"/>
   </g>
   <g id="text_20">
    <!-- Distribution of P by Age_Group -->
    <g transform="translate(189.933125 16.318125) scale(0.12 -0.12)">
     <defs>
      <path id="DejaVuSans-44" d="M 1259 4147 
L 1259 519 
L 2022 519 
Q 2988 519 3436 956 
Q 3884 1394 3884 2338 
Q 3884 3275 3436 3711 
Q 2988 4147 2022 4147 
L 1259 4147 
z
M 628 4666 
L 1925 4666 
Q 3281 4666 3915 4102 
Q 4550 3538 4550 2338 
Q 4550 1131 3912 565 
Q 3275 0 1925 0 
L 628 0 
L 628 4666 
z
" transform="scale(0.015625)"/>
      <path id="DejaVuSans-69" d="M 603 3500 
L 1178 3500 
L 1178 0 
L 603 0 
L 603 3500 
z
M 603 4863 
L 1178 4863 
L 1178 4134 
L 603 4134 
L 603 4863 
z
" transform="scale(0.015625)"/>
      <path id="DejaVuSans-73" d="M 2834 3397 
L 2834 2853 
Q 2591 2978 2328 3040 
Q 2066 3103 1784 3103 
Q 1356 3103 1142 2972 
Q 928 2841 928 2578 
Q 928 2378 1081 2264 
Q 1234 2150 1697 2047 
L 1894 2003 
Q 2506 1872 2764 1633 
Q 3022 1394 3022 966 
Q 3022 478 2636 193 
Q 2250 -91 1575 -91 
Q 1294 -91 989 -36 
Q 684 19 347 128 
L 347 722 
Q 666 556 975 473 
Q 1284 391 1588 391 
Q 1994 391 2212 530 
Q 2431 669 2431 922 
Q 2431 1156 2273 1281 
Q 2116 1406 1581 1522 
L 1381 1569 
Q 847 1681 609 1914 
Q 372 2147 372 2553 
Q 372 3047 722 3315 
Q 1072 3584 1716 3584 
Q 2034 3584 2315 3537 
Q 2597 3491 2834 3397 
z
" transform="scale(0.015625)"/>
      <path id="DejaVuSans-74" d="M 1172 4494 
L 1172 3500 
L 2356 3500 
L 2356 3053 
L 1172 3053 
L 1172 1153 
Q 1172 725 1289 603 
Q 1406 481 1766 481 
L 2356 481 
L 2356 0 
L 1766 0 
Q 1100 0 847 248 
Q 594 497 594 1153 
L 594 3053 
L 172 3053 
L 172 3500 
L 594 3500 
L 594 4494 
L 1172 4494 
z
" transform="scale(0.015625)"/>
      <path id="DejaVuSans-62" d="M 3116 1747 
Q 3116 2381 2855 2742 
Q 2594 3103 2138 3103 
Q 1681 3103 1420 2742 
Q 1159 2381 1159 1747 
Q 1159 1113 1420 752 
Q 1681 391 2138 391 
Q 2594 391 2855 752 
Q 3116 1113 3116 1747 
z
M 1159 2969 
Q 1341 3281 1617 3432 
Q 1894 3584 2278 3584 
Q 2916 3584 3314 3078 
Q 3713 2572 3713 1747 
Q 3713 922 3314 415 
Q 2916 -91 2278 -91 
Q 1894 -91 1617 61 
Q 1341 213 1159 525 
L 1159 0 
L 581 0 
L 581 4863 
L 1159 4863 
L 1159 2969 
z
" transform="scale(0.015625)"/>
      <path id="DejaVuSans-6e" d="M 3513 2113 
L 3513 0 
L 2938 0 
L 2938 2094 
Q 2938 2591 2744 2837 
Q 2550 3084 2163 3084 
Q 1697 3084 1428 2787 
Q 1159 2491 1159 1978 
L 1159 0 
L 581 0 
L 581 3500 
L 1159 3500 
L 1159 2956 
Q 1366 3272 1645 3428 
Q 1925 3584 2291 3584 
Q 2894 3584 3203 3211 
Q 3513 2838 3513 2113 
z
" transform="scale(0.015625)"/>
      <path id="DejaVuSans-20" transform="scale(0.015625)"/>
      <path id="DejaVuSans-66" d="M 2375 4863 
L 2375 4384 
L 1825 4384 
Q 1516 4384 1395 4259 
Q 1275 4134 1275 3809 
L 1275 3500 
L 2222 3500 
L 2222 3053 
L 1275 3053 
L 1275 0 
L 697 0 
L 697 3053 
L 147 3053 
L 147 3500 
L 697 3500 
L 697 3744 
Q 697 4328 969 4595 
Q 1241 4863 1831 4863 
L 2375 4863 
z
" transform="scale(0.015625)"/>
      <path id="DejaVuSans-79" d="M 2059 -325 
Q 1816 -950 1584 -1140 
Q 1353 -1331 966 -1331 
L 506 -1331 
L 506 -850 
L 844 -850 
Q 1081 -850 1212 -737 
Q 1344 -625 1503 -206 
L 1606 56 
L 191 3500 
L 800 3500 
L 1894 763 
L 2988 3500 
L 3597 3500 
L 2059 -325 
z
" transform="scale(0.015625)"/>
     </defs>
     <use xlink:href="#DejaVuSans-44"/>
     <use xlink:href="#DejaVuSans-69" x="77.001953"/>
     <use xlink:href="#DejaVuSans-73" x="104.785156"/>
     <use xlink:href="#DejaVuSans-74" x="156.884766"/>
     <use xlink:href="#DejaVuSans-72" x="196.09375"/>
     <use xlink:href="#DejaVuSans-69" x="237.207031"/>
     <use xlink:href="#DejaVuSans-62" x="264.990234"/>
     <use xlink:href="#DejaVuSans-75" x="328.466797"/>
     <use xlink:href="#DejaVuSans-74" x="391.845703"/>
     <use xlink:href="#DejaVuSans-69" x="431.054688"/>
     <use xlink:href="#DejaVuSans-6f" x="458.837891"/>
     <use xlink:href="#DejaVuSans-6e" x="520.019531"/>
     <use xlink:href="#DejaVuSans-20" x="583.398438"/>
     <use xlink:href="#DejaVuSans-6f" x="615.185547"/>
     <use xlink:href="#DejaVuSans-66" x="676.367188"/>
     <use xlink:href="#DejaVuSans-20" x="711.572266"/>
     <use xlink:href="#DejaVuSans-50" x="743.359375"/>
     <use xlink:href="#DejaVuSans-20" x="803.662109"/>
     <use xlink:href="#DejaVuSans-62" x="835.449219"/>
     <use xlink:href="#DejaVuSans-79" x="898.925781"/>
     <use xlink:href="#DejaVuSans-20" x="958.105469"/>
     <use xlink:href="#DejaVuSans-41" x="989.892578"/>
     <use xlink:href="#DejaVuSans-67" x="1058.300781"/>
     <use xlink:href="#DejaVuSans-65" x="1121.777344"/>
     <use xlink:href="#DejaVuSans-5f" x="1183.300781"/>
     <use xlink:href="#DejaVuSans-47" x="1233.300781"/>
     <use xlink:href="#DejaVuSans-72" x="1310.791016"/>
     <use xlink:href="#DejaVuSans-6f" x="1349.654297"/>
     <use xlink:href="#DejaVuSans-75" x="1410.835938"/>
     <use xlink:href="#DejaVuSans-70" x="1474.214844"/>
    </g>
   </g>
  </g>
 </g>
 <defs>
  <clipPath id="p99ab205120">
   <rect x="58.993437" y="22.318125" width="446.4" height="277.2"/>
  </clipPath>
 </defs>
</svg>
