<?xml version="1.0" encoding="utf-8" standalone="no"?>
<!DOCTYPE svg PUBLIC "-//W3C//DTD SVG 1.1//EN"
  "http://www.w3.org/Graphics/SVG/1.1/DTD/svg11.dtd">
<svg xmlns:xlink="http://www.w3.org/1999/xlink" width="512.593437pt" height="339.01pt" viewBox="0 0 512.593437 339.01" xmlns="http://www.w3.org/2000/svg" version="1.1">
 <metadata>
  <rdf:RDF xmlns:dc="http://purl.org/dc/elements/1.1/" xmlns:cc="http://creativecommons.org/ns#" xmlns:rdf="http://www.w3.org/1999/02/22-rdf-syntax-ns#">
   <cc:Work>
    <dc:type rdf:resource="http://purl.org/dc/dcmitype/StillImage"/>
    <dc:date>2024-08-05T22:53:26.192521</dc:date>
    <dc:format>image/svg+xml</dc:format>
    <dc:creator>
     <cc:Agent>
      <dc:title>Matplotlib v3.9.0, https://matplotlib.org/</dc:title>
     </cc:Agent>
    </dc:creator>
   </cc:Work>
  </rdf:RDF>
 </metadata>
 <defs>
  <style type="text/css">*{stroke-linejoin: round; stroke-linecap: butt}</style>
 </defs>
 <g id="figure_1">
  <g id="patch_1">
   <path d="M 0 339.01 
L 512.593437 339.01 
L 512.593437 0 
L 0 0 
z
" style="fill: #ffffff"/>
  </g>
  <g id="axes_1">
   <g id="patch_2">
    <path d="M 58.993437 299.518125 
L 505.393438 299.518125 
L 505.393438 22.318125 
L 58.993437 22.318125 
z
" style="fill: #ffffff"/>
   </g>
   <g id="PolyCollection_1">
    <defs>
     <path id="mb646567b78" d="M 108.576865 -299.364535 
L 108.576865 -299.369215 
L 111.123317 -299.372679 
L 113.669769 -299.378307 
L 116.216221 -299.385162 
L 118.762673 -299.391564 
L 121.309125 -299.396721 
L 123.855577 -299.401554 
L 126.402029 -299.407695 
L 128.948481 -299.415905 
L 131.494934 -299.425416 
L 134.041386 -299.434297 
L 136.587838 -299.440073 
L 139.13429 -299.441147 
L 141.680742 -299.440061 
L 144.227194 -299.445318 
L 146.773646 -299.466919 
L 149.320098 -299.508378 
L 151.86655 -299.564048 
L 154.413002 -299.623575 
L 156.959454 -299.676054 
L 159.505907 -299.711979 
L 162.052359 -299.728324 
L 164.598811 -299.732993 
L 167.145263 -299.742301 
L 169.691715 -299.776265 
L 172.238167 -299.852676 
L 174.784619 -299.972553 
L 177.331071 -300.105124 
L 179.877523 -300.200934 
L 182.423975 -300.23838 
L 184.970427 -300.252905 
L 187.51688 -300.306868 
L 190.063332 -300.435714 
L 192.609784 -300.630339 
L 195.156236 -300.860589 
L 197.702688 -301.100226 
L 200.24914 -301.337362 
L 202.795592 -301.589615 
L 205.342044 -301.911372 
L 207.888496 -302.359757 
L 210.434948 -302.938272 
L 212.9814 -303.578588 
L 215.527853 -304.193481 
L 218.074305 -304.74035 
L 220.620757 -305.220407 
L 223.167209 -305.655299 
L 225.713661 -306.084611 
L 228.260113 -306.560238 
L 230.806565 -307.141398 
L 233.353017 -307.880732 
L 235.899469 -308.786616 
L 238.445921 -309.788699 
L 240.992373 -310.747281 
L 243.538826 -311.545089 
L 246.085278 -312.167534 
L 248.63173 -312.656037 
L 251.178182 -313.024875 
L 253.724634 -313.226875 
L 256.271086 -313.183689 
L 258.817538 -312.874976 
L 261.36399 -312.353983 
L 263.910442 -311.682184 
L 266.456894 -310.904745 
L 269.003346 -310.047284 
L 271.549798 -309.125808 
L 274.096251 -308.1702 
L 276.642703 -307.207497 
L 279.189155 -306.2465 
L 281.735607 -305.287724 
L 284.282059 -304.336127 
L 286.828511 -303.426152 
L 289.374963 -302.615198 
L 291.921415 -301.936406 
L 294.467867 -301.381112 
L 297.014319 -300.921792 
L 299.560771 -300.540705 
L 302.107224 -300.23978 
L 304.653676 -300.022537 
L 307.200128 -299.874448 
L 309.74658 -299.767386 
L 312.293032 -299.677587 
L 314.839484 -299.59577 
L 317.385936 -299.523238 
L 319.932388 -299.464225 
L 322.47884 -299.42255 
L 325.025292 -299.399154 
L 327.571744 -299.389591 
L 330.118197 -299.385951 
L 332.664649 -299.382234 
L 335.211101 -299.377248 
L 337.757553 -299.372905 
L 340.304005 -299.371176 
L 342.850457 -299.372759 
L 345.396909 -299.376955 
L 347.943361 -299.381579 
L 350.489813 -299.383713 
L 353.036265 -299.381843 
L 355.582717 -299.377188 
L 358.12917 -299.372382 
L 360.675622 -299.369154 
L 360.675622 -299.364596 
L 360.675622 -299.364596 
L 358.12917 -299.361368 
L 355.582717 -299.356562 
L 353.036265 -299.351907 
L 350.489813 -299.350037 
L 347.943361 -299.352171 
L 345.396909 -299.356795 
L 342.850457 -299.360991 
L 340.304005 -299.362574 
L 337.757553 -299.360845 
L 335.211101 -299.356502 
L 332.664649 -299.351516 
L 330.118197 -299.347799 
L 327.571744 -299.344159 
L 325.025292 -299.334596 
L 322.47884 -299.3112 
L 319.932388 -299.269525 
L 317.385936 -299.210512 
L 314.839484 -299.13798 
L 312.293032 -299.056163 
L 309.74658 -298.966364 
L 307.200128 -298.859302 
L 304.653676 -298.711213 
L 302.107224 -298.49397 
L 299.560771 -298.193045 
L 297.014319 -297.811958 
L 294.467867 -297.352638 
L 291.921415 -296.797344 
L 289.374963 -296.118552 
L 286.828511 -295.307598 
L 284.282059 -294.397623 
L 281.735607 -293.446026 
L 279.189155 -292.48725 
L 276.642703 -291.526253 
L 274.096251 -290.56355 
L 271.549798 -289.607942 
L 269.003346 -288.686466 
L 266.456894 -287.829005 
L 263.910442 -287.051566 
L 261.36399 -286.379767 
L 258.817538 -285.858774 
L 256.271086 -285.550061 
L 253.724634 -285.506875 
L 251.178182 -285.708875 
L 248.63173 -286.077713 
L 246.085278 -286.566216 
L 243.538826 -287.188661 
L 240.992373 -287.986469 
L 238.445921 -288.945051 
L 235.899469 -289.947134 
L 233.353017 -290.853018 
L 230.806565 -291.592352 
L 228.260113 -292.173512 
L 225.713661 -292.649139 
L 223.167209 -293.078451 
L 220.620757 -293.513343 
L 218.074305 -293.9934 
L 215.527853 -294.540269 
L 212.9814 -295.155162 
L 210.434948 -295.795478 
L 207.888496 -296.373993 
L 205.342044 -296.822378 
L 202.795592 -297.144135 
L 200.24914 -297.396388 
L 197.702688 -297.633524 
L 195.156236 -297.873161 
L 192.609784 -298.103411 
L 190.063332 -298.298036 
L 187.51688 -298.426882 
L 184.970427 -298.480845 
L 182.423975 -298.49537 
L 179.877523 -298.532816 
L 177.331071 -298.628626 
L 174.784619 -298.761197 
L 172.238167 -298.881074 
L 169.691715 -298.957485 
L 167.145263 -298.991449 
L 164.598811 -299.000757 
L 162.052359 -299.005426 
L 159.505907 -299.021771 
L 156.959454 -299.057696 
L 154.413002 -299.110175 
L 151.86655 -299.169702 
L 149.320098 -299.225372 
L 146.773646 -299.266831 
L 144.227194 -299.288432 
L 141.680742 -299.293689 
L 139.13429 -299.292603 
L 136.587838 -299.293677 
L 134.041386 -299.299453 
L 131.494934 -299.308334 
L 128.948481 -299.317845 
L 126.402029 -299.326055 
L 123.855577 -299.332196 
L 121.309125 -299.337029 
L 118.762673 -299.342186 
L 116.216221 -299.348588 
L 113.669769 -299.355443 
L 111.123317 -299.361071 
L 108.576865 -299.364535 
z
" style="stroke: #3d3d3d; stroke-width: 1.25"/>
    </defs>
    <g clip-path="url(#pd9c34723d3)">
     <use xlink:href="#mb646567b78" x="0" y="339.01" style="fill: #3274a1; stroke: #3d3d3d; stroke-width: 1.25"/>
    </g>
   </g>
   <g id="PolyCollection_2">
    <defs>
     <path id="m19c40372a3" d="M 99.096338 -264.712112 
L 99.096338 -264.721638 
L 102.316635 -264.729387 
L 105.536933 -264.743574 
L 108.757231 -264.764019 
L 111.977529 -264.787 
L 115.197827 -264.805927 
L 118.418125 -264.814237 
L 121.638423 -264.809451 
L 124.858721 -264.795894 
L 128.079019 -264.783767 
L 131.299317 -264.784575 
L 134.519615 -264.804811 
L 137.739913 -264.841275 
L 140.96021 -264.881663 
L 144.180508 -264.910898 
L 147.400806 -264.920379 
L 150.621104 -264.914774 
L 153.841402 -264.910459 
L 157.0617 -264.925889 
L 160.281998 -264.971019 
L 163.502296 -265.042477 
L 166.722594 -265.127455 
L 169.942892 -265.213814 
L 173.16319 -265.298266 
L 176.383488 -265.387391 
L 179.603785 -265.49376 
L 182.824083 -265.629987 
L 186.044381 -265.800092 
L 189.264679 -265.9915 
L 192.484977 -266.180762 
L 195.705275 -266.35846 
L 198.925573 -266.546437 
L 202.145871 -266.775724 
L 205.366169 -267.047958 
L 208.586467 -267.337072 
L 211.806765 -267.635492 
L 215.027063 -267.989046 
L 218.24736 -268.481685 
L 221.467658 -269.181447 
L 224.687956 -270.086432 
L 227.908254 -271.114028 
L 231.128552 -272.147217 
L 234.34885 -273.103507 
L 237.569148 -273.977902 
L 240.789446 -274.828143 
L 244.009744 -275.707753 
L 247.230042 -276.605479 
L 250.45034 -277.44469 
L 253.670638 -278.121883 
L 256.890935 -278.531983 
L 260.111233 -278.576875 
L 263.331531 -278.188781 
L 266.551829 -277.373437 
L 269.772127 -276.237909 
L 272.992425 -274.96518 
L 276.212723 -273.726114 
L 279.433021 -272.58121 
L 282.653319 -271.475116 
L 285.873617 -270.341633 
L 289.093915 -269.197208 
L 292.314213 -268.129065 
L 295.53451 -267.225758 
L 298.754808 -266.532095 
L 301.975106 -266.042814 
L 305.195404 -265.71348 
L 308.415702 -265.480882 
L 311.636 -265.29358 
L 314.856298 -265.134226 
L 318.076596 -265.009752 
L 321.296894 -264.922544 
L 324.517192 -264.860085 
L 327.73749 -264.809318 
L 330.957788 -264.768157 
L 334.178085 -264.740154 
L 337.398383 -264.725478 
L 340.618681 -264.720211 
L 343.838979 -264.720612 
L 347.059277 -264.725261 
L 350.279575 -264.73348 
L 353.499873 -264.742585 
L 356.720171 -264.74773 
L 359.940469 -264.745561 
L 363.160767 -264.737534 
L 366.381065 -264.7284 
L 369.601363 -264.721855 
L 372.821661 -264.718542 
L 376.041958 -264.717308 
L 379.262256 -264.71697 
L 382.482554 -264.716944 
L 385.702852 -264.71717 
L 388.92315 -264.718083 
L 392.143448 -264.720728 
L 395.363746 -264.726395 
L 398.584044 -264.735097 
L 401.804342 -264.743892 
L 405.02464 -264.747905 
L 408.244938 -264.744482 
L 411.465236 -264.735901 
L 414.685533 -264.727032 
L 417.905831 -264.721075 
L 417.905831 -264.712675 
L 417.905831 -264.712675 
L 414.685533 -264.706718 
L 411.465236 -264.697849 
L 408.244938 -264.689268 
L 405.02464 -264.685845 
L 401.804342 -264.689858 
L 398.584044 -264.698653 
L 395.363746 -264.707355 
L 392.143448 -264.713022 
L 388.92315 -264.715667 
L 385.702852 -264.71658 
L 382.482554 -264.716806 
L 379.262256 -264.71678 
L 376.041958 -264.716442 
L 372.821661 -264.715208 
L 369.601363 -264.711895 
L 366.381065 -264.70535 
L 363.160767 -264.696216 
L 359.940469 -264.688189 
L 356.720171 -264.68602 
L 353.499873 -264.691165 
L 350.279575 -264.70027 
L 347.059277 -264.708489 
L 343.838979 -264.713138 
L 340.618681 -264.713539 
L 337.398383 -264.708272 
L 334.178085 -264.693596 
L 330.957788 -264.665593 
L 327.73749 -264.624432 
L 324.517192 -264.573665 
L 321.296894 -264.511206 
L 318.076596 -264.423998 
L 314.856298 -264.299524 
L 311.636 -264.14017 
L 308.415702 -263.952868 
L 305.195404 -263.72027 
L 301.975106 -263.390936 
L 298.754808 -262.901655 
L 295.53451 -262.207992 
L 292.314213 -261.304685 
L 289.093915 -260.236542 
L 285.873617 -259.092117 
L 282.653319 -257.958634 
L 279.433021 -256.85254 
L 276.212723 -255.707636 
L 272.992425 -254.46857 
L 269.772127 -253.195841 
L 266.551829 -252.060313 
L 263.331531 -251.244969 
L 260.111233 -250.856875 
L 256.890935 -250.901767 
L 253.670638 -251.311867 
L 250.45034 -251.98906 
L 247.230042 -252.828271 
L 244.009744 -253.725997 
L 240.789446 -254.605607 
L 237.569148 -255.455848 
L 234.34885 -256.330243 
L 231.128552 -257.286533 
L 227.908254 -258.319722 
L 224.687956 -259.347318 
L 221.467658 -260.252303 
L 218.24736 -260.952065 
L 215.027063 -261.444704 
L 211.806765 -261.798258 
L 208.586467 -262.096678 
L 205.366169 -262.385792 
L 202.145871 -262.658026 
L 198.925573 -262.887313 
L 195.705275 -263.07529 
L 192.484977 -263.252988 
L 189.264679 -263.44225 
L 186.044381 -263.633658 
L 182.824083 -263.803763 
L 179.603785 -263.93999 
L 176.383488 -264.046359 
L 173.16319 -264.135484 
L 169.942892 -264.219936 
L 166.722594 -264.306295 
L 163.502296 -264.391273 
L 160.281998 -264.462731 
L 157.0617 -264.507861 
L 153.841402 -264.523291 
L 150.621104 -264.518976 
L 147.400806 -264.513371 
L 144.180508 -264.522852 
L 140.96021 -264.552087 
L 137.739913 -264.592475 
L 134.519615 -264.628939 
L 131.299317 -264.649175 
L 128.079019 -264.649983 
L 124.858721 -264.637856 
L 121.638423 -264.624299 
L 118.418125 -264.619513 
L 115.197827 -264.627823 
L 111.977529 -264.64675 
L 108.757231 -264.669731 
L 105.536933 -264.690176 
L 102.316635 -264.704363 
L 99.096338 -264.712112 
z
" style="stroke: #3d3d3d; stroke-width: 1.25"/>
    </defs>
    <g clip-path="url(#pd9c34723d3)">
     <use xlink:href="#m19c40372a3" x="0" y="339.01" style="fill: #e1812c; stroke: #3d3d3d; stroke-width: 1.25"/>
    </g>
   </g>
   <g id="PolyCollection_3">
    <defs>
     <path id="mf43e77990e" d="M 100.927646 -230.064295 
L 100.927646 -230.069455 
L 103.697531 -230.07335 
L 106.467415 -230.079818 
L 109.2373 -230.088047 
L 112.007185 -230.096581 
L 114.777069 -230.105152 
L 117.546954 -230.115096 
L 120.316839 -230.126826 
L 123.086723 -230.137202 
L 125.856608 -230.141289 
L 128.626492 -230.137809 
L 131.396377 -230.131441 
L 134.166262 -230.128477 
L 136.936146 -230.131882 
L 139.706031 -230.142437 
L 142.475915 -230.163697 
L 145.2458 -230.202399 
L 148.015685 -230.260888 
L 150.785569 -230.329806 
L 153.555454 -230.392535 
L 156.325339 -230.438567 
L 159.095223 -230.470151 
L 161.865108 -230.496458 
L 164.634992 -230.524736 
L 167.404877 -230.557723 
L 170.174762 -230.597066 
L 172.944646 -230.646215 
L 175.714531 -230.709518 
L 178.484416 -230.789617 
L 181.2543 -230.885352 
L 184.024185 -230.992068 
L 186.794069 -231.107848 
L 189.563954 -231.245087 
L 192.333839 -231.431463 
L 195.103723 -231.685797 
L 197.873608 -231.989937 
L 200.643492 -232.299423 
L 203.413377 -232.5927 
L 206.183262 -232.896763 
L 208.953146 -233.253245 
L 211.723031 -233.67229 
L 214.492916 -234.134498 
L 217.2628 -234.633507 
L 220.032685 -235.196109 
L 222.802569 -235.853755 
L 225.572454 -236.607292 
L 228.342339 -237.427765 
L 231.112223 -238.285907 
L 233.882108 -239.16586 
L 236.651992 -240.055052 
L 239.421877 -240.93363 
L 242.191762 -241.768409 
L 244.961646 -242.514098 
L 247.731531 -243.120588 
L 250.501416 -243.554688 
L 253.2713 -243.819073 
L 256.041185 -243.926875 
L 258.811069 -243.863047 
L 261.580954 -243.580307 
L 264.350839 -243.040312 
L 267.120723 -242.262438 
L 269.890608 -241.318743 
L 272.660493 -240.298162 
L 275.430377 -239.274938 
L 278.200262 -238.281011 
L 280.970146 -237.305533 
L 283.740031 -236.327446 
L 286.509916 -235.355425 
L 289.2798 -234.432562 
L 292.049685 -233.60094 
L 294.819569 -232.877807 
L 297.589454 -232.263046 
L 300.359339 -231.755531 
L 303.129223 -231.355764 
L 305.899108 -231.051934 
L 308.668993 -230.814413 
L 311.438877 -230.613904 
L 314.208762 -230.442764 
L 316.978646 -230.311996 
L 319.748531 -230.228345 
L 322.518416 -230.18186 
L 325.2883 -230.155446 
L 328.058185 -230.138403 
L 330.82807 -230.127911 
L 333.597954 -230.122153 
L 336.367839 -230.116769 
L 339.137723 -230.108372 
L 341.907608 -230.098624 
L 344.677493 -230.092332 
L 347.447377 -230.091946 
L 350.217262 -230.0955 
L 352.987146 -230.099451 
L 355.757031 -230.101729 
L 358.526916 -230.101873 
L 361.2968 -230.09969 
L 364.066685 -230.094823 
L 366.83657 -230.087608 
L 369.606454 -230.079734 
L 372.376339 -230.073337 
L 375.146223 -230.069454 
L 375.146223 -230.064296 
L 375.146223 -230.064296 
L 372.376339 -230.060413 
L 369.606454 -230.054016 
L 366.83657 -230.046142 
L 364.066685 -230.038927 
L 361.2968 -230.03406 
L 358.526916 -230.031877 
L 355.757031 -230.032021 
L 352.987146 -230.034299 
L 350.217262 -230.03825 
L 347.447377 -230.041804 
L 344.677493 -230.041418 
L 341.907608 -230.035126 
L 339.137723 -230.025378 
L 336.367839 -230.016981 
L 333.597954 -230.011597 
L 330.82807 -230.005839 
L 328.058185 -229.995347 
L 325.2883 -229.978304 
L 322.518416 -229.95189 
L 319.748531 -229.905405 
L 316.978646 -229.821754 
L 314.208762 -229.690986 
L 311.438877 -229.519846 
L 308.668993 -229.319337 
L 305.899108 -229.081816 
L 303.129223 -228.777986 
L 300.359339 -228.378219 
L 297.589454 -227.870704 
L 294.819569 -227.255943 
L 292.049685 -226.53281 
L 289.2798 -225.701188 
L 286.509916 -224.778325 
L 283.740031 -223.806304 
L 280.970146 -222.828217 
L 278.200262 -221.852739 
L 275.430377 -220.858812 
L 272.660493 -219.835588 
L 269.890608 -218.815007 
L 267.120723 -217.871312 
L 264.350839 -217.093438 
L 261.580954 -216.553443 
L 258.811069 -216.270703 
L 256.041185 -216.206875 
L 253.2713 -216.314677 
L 250.501416 -216.579062 
L 247.731531 -217.013162 
L 244.961646 -217.619652 
L 242.191762 -218.365341 
L 239.421877 -219.20012 
L 236.651992 -220.078698 
L 233.882108 -220.96789 
L 231.112223 -221.847843 
L 228.342339 -222.705985 
L 225.572454 -223.526458 
L 222.802569 -224.279995 
L 220.032685 -224.937641 
L 217.2628 -225.500243 
L 214.492916 -225.999252 
L 211.723031 -226.46146 
L 208.953146 -226.880505 
L 206.183262 -227.236987 
L 203.413377 -227.54105 
L 200.643492 -227.834327 
L 197.873608 -228.143813 
L 195.103723 -228.447953 
L 192.333839 -228.702287 
L 189.563954 -228.888663 
L 186.794069 -229.025902 
L 184.024185 -229.141682 
L 181.2543 -229.248398 
L 178.484416 -229.344133 
L 175.714531 -229.424232 
L 172.944646 -229.487535 
L 170.174762 -229.536684 
L 167.404877 -229.576027 
L 164.634992 -229.609014 
L 161.865108 -229.637292 
L 159.095223 -229.663599 
L 156.325339 -229.695183 
L 153.555454 -229.741215 
L 150.785569 -229.803944 
L 148.015685 -229.872862 
L 145.2458 -229.931351 
L 142.475915 -229.970053 
L 139.706031 -229.991313 
L 136.936146 -230.001868 
L 134.166262 -230.005273 
L 131.396377 -230.002309 
L 128.626492 -229.995941 
L 125.856608 -229.992461 
L 123.086723 -229.996548 
L 120.316839 -230.006924 
L 117.546954 -230.018654 
L 114.777069 -230.028598 
L 112.007185 -230.037169 
L 109.2373 -230.045703 
L 106.467415 -230.053932 
L 103.697531 -230.0604 
L 100.927646 -230.064295 
z
" style="stroke: #3d3d3d; stroke-width: 1.25"/>
    </defs>
    <g clip-path="url(#pd9c34723d3)">
     <use xlink:href="#mf43e77990e" x="0" y="339.01" style="fill: #3a923a; stroke: #3d3d3d; stroke-width: 1.25"/>
    </g>
   </g>
   <g id="PolyCollection_4">
    <defs>
     <path id="madb84e4cb5" d="M 114.718548 -195.413629 
L 114.718548 -195.420121 
L 117.00312 -195.424154 
L 119.287692 -195.430956 
L 121.572264 -195.440835 
L 123.856836 -195.453713 
L 126.141408 -195.469727 
L 128.42598 -195.489791 
L 130.710552 -195.51521 
L 132.995124 -195.546096 
L 135.279696 -195.579614 
L 137.564268 -195.609987 
L 139.848839 -195.631203 
L 142.133411 -195.640459 
L 144.417983 -195.639219 
L 146.702555 -195.631505 
L 148.987127 -195.621804 
L 151.271699 -195.614368 
L 153.556271 -195.613611 
L 155.840843 -195.62443 
L 158.125415 -195.650826 
L 160.409987 -195.692187 
L 162.694559 -195.739832 
L 164.979131 -195.779306 
L 167.263703 -195.800527 
L 169.548275 -195.808656 
L 171.832847 -195.82424 
L 174.117419 -195.870222 
L 176.401991 -195.956943 
L 178.686563 -196.078018 
L 180.971135 -196.218249 
L 183.255707 -196.363697 
L 185.540279 -196.506077 
L 187.824851 -196.642711 
L 190.109423 -196.776163 
L 192.393995 -196.915153 
L 194.678567 -197.076811 
L 196.963139 -197.286931 
L 199.24771 -197.570849 
L 201.532282 -197.933654 
L 203.816854 -198.344321 
L 206.101426 -198.746263 
L 208.385998 -199.098284 
L 210.67057 -199.413866 
L 212.955142 -199.75872 
L 215.239714 -200.206284 
L 217.524286 -200.790718 
L 219.808858 -201.493246 
L 222.09343 -202.262918 
L 224.378002 -203.045107 
L 226.662574 -203.798877 
L 228.947146 -204.508813 
L 231.231718 -205.191794 
L 233.51629 -205.883838 
L 235.800862 -206.608606 
L 238.085434 -207.34999 
L 240.370006 -208.049269 
L 242.654578 -208.63192 
L 244.93915 -209.04163 
L 247.223722 -209.25396 
L 249.508294 -209.276875 
L 251.792866 -209.150667 
L 254.077438 -208.931951 
L 256.362009 -208.66087 
L 258.646581 -208.339706 
L 260.931153 -207.940419 
L 263.215725 -207.436802 
L 265.500297 -206.835999 
L 267.784869 -206.175082 
L 270.069441 -205.485346 
L 272.354013 -204.764342 
L 274.638585 -203.981663 
L 276.923157 -203.1138 
L 279.207729 -202.179564 
L 281.492301 -201.239693 
L 283.776873 -200.360428 
L 286.061445 -199.580575 
L 288.346017 -198.906573 
L 290.630589 -198.325882 
L 292.915161 -197.822 
L 295.199733 -197.382326 
L 297.484305 -196.998667 
L 299.768877 -196.665852 
L 302.053449 -196.380973 
L 304.338021 -196.142226 
L 306.622593 -195.947914 
L 308.907165 -195.7959 
L 311.191737 -195.682385 
L 313.476308 -195.600939 
L 315.76088 -195.543658 
L 318.045452 -195.503834 
L 320.330024 -195.477713 
L 322.614596 -195.463777 
L 324.899168 -195.460083 
L 327.18374 -195.462168 
L 329.468312 -195.463835 
L 331.752884 -195.460427 
L 334.037456 -195.451443 
L 336.322028 -195.439982 
L 338.6066 -195.429812 
L 340.891172 -195.422929 
L 340.891172 -195.410821 
L 340.891172 -195.410821 
L 338.6066 -195.403938 
L 336.322028 -195.393768 
L 334.037456 -195.382307 
L 331.752884 -195.373323 
L 329.468312 -195.369915 
L 327.18374 -195.371582 
L 324.899168 -195.373667 
L 322.614596 -195.369973 
L 320.330024 -195.356037 
L 318.045452 -195.329916 
L 315.76088 -195.290092 
L 313.476308 -195.232811 
L 311.191737 -195.151365 
L 308.907165 -195.03785 
L 306.622593 -194.885836 
L 304.338021 -194.691524 
L 302.053449 -194.452777 
L 299.768877 -194.167898 
L 297.484305 -193.835083 
L 295.199733 -193.451424 
L 292.915161 -193.01175 
L 290.630589 -192.507868 
L 288.346017 -191.927177 
L 286.061445 -191.253175 
L 283.776873 -190.473322 
L 281.492301 -189.594057 
L 279.207729 -188.654186 
L 276.923157 -187.71995 
L 274.638585 -186.852087 
L 272.354013 -186.069408 
L 270.069441 -185.348404 
L 267.784869 -184.658668 
L 265.500297 -183.997751 
L 263.215725 -183.396948 
L 260.931153 -182.893331 
L 258.646581 -182.494044 
L 256.362009 -182.17288 
L 254.077438 -181.901799 
L 251.792866 -181.683083 
L 249.508294 -181.556875 
L 247.223722 -181.57979 
L 244.93915 -181.79212 
L 242.654578 -182.20183 
L 240.370006 -182.784481 
L 238.085434 -183.48376 
L 235.800862 -184.225144 
L 233.51629 -184.949912 
L 231.231718 -185.641956 
L 228.947146 -186.324937 
L 226.662574 -187.034873 
L 224.378002 -187.788643 
L 222.09343 -188.570832 
L 219.808858 -189.340504 
L 217.524286 -190.043032 
L 215.239714 -190.627466 
L 212.955142 -191.07503 
L 210.67057 -191.419884 
L 208.385998 -191.735466 
L 206.101426 -192.087487 
L 203.816854 -192.489429 
L 201.532282 -192.900096 
L 199.24771 -193.262901 
L 196.963139 -193.546819 
L 194.678567 -193.756939 
L 192.393995 -193.918597 
L 190.109423 -194.057587 
L 187.824851 -194.191039 
L 185.540279 -194.327673 
L 183.255707 -194.470053 
L 180.971135 -194.615501 
L 178.686563 -194.755732 
L 176.401991 -194.876807 
L 174.117419 -194.963528 
L 171.832847 -195.00951 
L 169.548275 -195.025094 
L 167.263703 -195.033223 
L 164.979131 -195.054444 
L 162.694559 -195.093918 
L 160.409987 -195.141563 
L 158.125415 -195.182924 
L 155.840843 -195.20932 
L 153.556271 -195.220139 
L 151.271699 -195.219382 
L 148.987127 -195.211946 
L 146.702555 -195.202245 
L 144.417983 -195.194531 
L 142.133411 -195.193291 
L 139.848839 -195.202547 
L 137.564268 -195.223763 
L 135.279696 -195.254136 
L 132.995124 -195.287654 
L 130.710552 -195.31854 
L 128.42598 -195.343959 
L 126.141408 -195.364023 
L 123.856836 -195.380037 
L 121.572264 -195.392915 
L 119.287692 -195.402794 
L 117.00312 -195.409596 
L 114.718548 -195.413629 
z
" style="stroke: #3d3d3d; stroke-width: 1.25"/>
    </defs>
    <g clip-path="url(#pd9c34723d3)">
     <use xlink:href="#madb84e4cb5" x="0" y="339.01" style="fill: #c03d3e; stroke: #3d3d3d; stroke-width: 1.25"/>
    </g>
   </g>
   <g id="PolyCollection_5">
    <defs>
     <path id="m877a88360f" d="M 93.292089 -160.763363 
L 93.292089 -160.770387 
L 97.249771 -160.778821 
L 101.207452 -160.795105 
L 105.165133 -160.815221 
L 109.122814 -160.828242 
L 113.080495 -160.824846 
L 117.038177 -160.810802 
L 120.995858 -160.802694 
L 124.953539 -160.805087 
L 128.91122 -160.807448 
L 132.868901 -160.801431 
L 136.826583 -160.790496 
L 140.784264 -160.788772 
L 144.741945 -160.814395 
L 148.699626 -160.877967 
L 152.657307 -160.972374 
L 156.614989 -161.078588 
L 160.57267 -161.179412 
L 164.530351 -161.265735 
L 168.488032 -161.340757 
L 172.445713 -161.420043 
L 176.403395 -161.509459 
L 180.361076 -161.590262 
L 184.318757 -161.666083 
L 188.276438 -161.808527 
L 192.234119 -162.109156 
L 196.191801 -162.567919 
L 200.149482 -163.039909 
L 204.107163 -163.396972 
L 208.064844 -163.707819 
L 212.022525 -164.10403 
L 215.980207 -164.615985 
L 219.937888 -165.253908 
L 223.895569 -166.060495 
L 227.85325 -167.035817 
L 231.810931 -168.151145 
L 235.768613 -169.415184 
L 239.726294 -170.820319 
L 243.683975 -172.251959 
L 247.641656 -173.495132 
L 251.599337 -174.328646 
L 255.557019 -174.626875 
L 259.5147 -174.378854 
L 263.472381 -173.644219 
L 267.430062 -172.4972 
L 271.387743 -171.041627 
L 275.345425 -169.453062 
L 279.303106 -167.901342 
L 283.260787 -166.450493 
L 287.218468 -165.115016 
L 291.176149 -163.947251 
L 295.133831 -163.017636 
L 299.091512 -162.338359 
L 303.049193 -161.835934 
L 307.006874 -161.440682 
L 310.964556 -161.15363 
L 314.922237 -160.979713 
L 318.879918 -160.882566 
L 322.837599 -160.829414 
L 326.79528 -160.8091 
L 330.752962 -160.807787 
L 334.710643 -160.807391 
L 338.668324 -160.800696 
L 342.626005 -160.793465 
L 346.583686 -160.792143 
L 350.541368 -160.79214 
L 354.499049 -160.786047 
L 358.45673 -160.776501 
L 362.414411 -160.769967 
L 366.372092 -160.767506 
L 370.329774 -160.766957 
L 374.287455 -160.766882 
L 378.245136 -160.766875 
L 382.202817 -160.766875 
L 386.160498 -160.766875 
L 390.11818 -160.766875 
L 394.075861 -160.766875 
L 398.033542 -160.766875 
L 401.991223 -160.766875 
L 405.948904 -160.766875 
L 409.906586 -160.766875 
L 413.864267 -160.766875 
L 417.821948 -160.766875 
L 421.779629 -160.766875 
L 425.73731 -160.766875 
L 429.694992 -160.766875 
L 433.652673 -160.766875 
L 437.610354 -160.766875 
L 441.568035 -160.766875 
L 445.525716 -160.766875 
L 449.483398 -160.766881 
L 453.441079 -160.766948 
L 457.39876 -160.767452 
L 461.356441 -160.769765 
L 465.314122 -160.776052 
L 469.271804 -160.785354 
L 473.229485 -160.790472 
L 477.187166 -160.785982 
L 481.144847 -160.776686 
L 485.102528 -160.770069 
L 485.102528 -160.763681 
L 485.102528 -160.763681 
L 481.144847 -160.757064 
L 477.187166 -160.747768 
L 473.229485 -160.743278 
L 469.271804 -160.748396 
L 465.314122 -160.757698 
L 461.356441 -160.763985 
L 457.39876 -160.766298 
L 453.441079 -160.766802 
L 449.483398 -160.766869 
L 445.525716 -160.766875 
L 441.568035 -160.766875 
L 437.610354 -160.766875 
L 433.652673 -160.766875 
L 429.694992 -160.766875 
L 425.73731 -160.766875 
L 421.779629 -160.766875 
L 417.821948 -160.766875 
L 413.864267 -160.766875 
L 409.906586 -160.766875 
L 405.948904 -160.766875 
L 401.991223 -160.766875 
L 398.033542 -160.766875 
L 394.075861 -160.766875 
L 390.11818 -160.766875 
L 386.160498 -160.766875 
L 382.202817 -160.766875 
L 378.245136 -160.766875 
L 374.287455 -160.766868 
L 370.329774 -160.766793 
L 366.372092 -160.766244 
L 362.414411 -160.763783 
L 358.45673 -160.757249 
L 354.499049 -160.747703 
L 350.541368 -160.74161 
L 346.583686 -160.741607 
L 342.626005 -160.740285 
L 338.668324 -160.733054 
L 334.710643 -160.726359 
L 330.752962 -160.725963 
L 326.79528 -160.72465 
L 322.837599 -160.704336 
L 318.879918 -160.651184 
L 314.922237 -160.554037 
L 310.964556 -160.38012 
L 307.006874 -160.093068 
L 303.049193 -159.697816 
L 299.091512 -159.195391 
L 295.133831 -158.516114 
L 291.176149 -157.586499 
L 287.218468 -156.418734 
L 283.260787 -155.083257 
L 279.303106 -153.632408 
L 275.345425 -152.080688 
L 271.387743 -150.492123 
L 267.430062 -149.03655 
L 263.472381 -147.889531 
L 259.5147 -147.154896 
L 255.557019 -146.906875 
L 251.599337 -147.205104 
L 247.641656 -148.038618 
L 243.683975 -149.281791 
L 239.726294 -150.713431 
L 235.768613 -152.118566 
L 231.810931 -153.382605 
L 227.85325 -154.497933 
L 223.895569 -155.473255 
L 219.937888 -156.279842 
L 215.980207 -156.917765 
L 212.022525 -157.42972 
L 208.064844 -157.825931 
L 204.107163 -158.136778 
L 200.149482 -158.493841 
L 196.191801 -158.965831 
L 192.234119 -159.424594 
L 188.276438 -159.725223 
L 184.318757 -159.867667 
L 180.361076 -159.943488 
L 176.403395 -160.024291 
L 172.445713 -160.113707 
L 168.488032 -160.192993 
L 164.530351 -160.268015 
L 160.57267 -160.354338 
L 156.614989 -160.455162 
L 152.657307 -160.561376 
L 148.699626 -160.655783 
L 144.741945 -160.719355 
L 140.784264 -160.744978 
L 136.826583 -160.743254 
L 132.868901 -160.732319 
L 128.91122 -160.726302 
L 124.953539 -160.728663 
L 120.995858 -160.731056 
L 117.038177 -160.722948 
L 113.080495 -160.708904 
L 109.122814 -160.705508 
L 105.165133 -160.718529 
L 101.207452 -160.738645 
L 97.249771 -160.754929 
L 93.292089 -160.763363 
z
" style="stroke: #3d3d3d; stroke-width: 1.25"/>
    </defs>
    <g clip-path="url(#pd9c34723d3)">
     <use xlink:href="#m877a88360f" x="0" y="339.01" style="fill: #9372b2; stroke: #3d3d3d; stroke-width: 1.25"/>
    </g>
   </g>
   <g id="PolyCollection_6">
    <defs>
     <path id="m9033818dfa" d="M 79.284347 -126.112942 
L 79.284347 -126.120808 
L 82.629275 -126.127585 
L 85.974204 -126.139265 
L 89.319133 -126.154062 
L 92.664061 -126.168652 
L 96.00899 -126.181238 
L 99.353919 -126.190836 
L 102.698848 -126.193583 
L 106.043776 -126.184535 
L 109.388705 -126.16531 
L 112.733634 -126.145805 
L 116.078562 -126.135772 
L 119.423491 -126.136929 
L 122.76842 -126.143203 
L 126.113349 -126.14719 
L 129.458277 -126.147415 
L 132.803206 -126.148948 
L 136.148135 -126.156354 
L 139.493063 -126.169485 
L 142.837992 -126.187443 
L 146.182921 -126.211584 
L 149.52785 -126.241712 
L 152.872778 -126.274106 
L 156.217707 -126.307106 
L 159.562636 -126.343725 
L 162.907564 -126.38411 
L 166.252493 -126.421525 
L 169.597422 -126.452899 
L 172.942351 -126.488241 
L 176.287279 -126.541972 
L 179.632208 -126.617824 
L 182.977137 -126.706046 
L 186.322065 -126.795191 
L 189.666994 -126.892092 
L 193.011923 -127.033185 
L 196.356852 -127.265141 
L 199.70178 -127.603673 
L 203.046709 -128.007571 
L 206.391638 -128.398816 
L 209.736566 -128.732135 
L 213.081495 -129.052313 
L 216.426424 -129.460799 
L 219.771353 -130.024756 
L 223.116281 -130.726571 
L 226.46121 -131.492882 
L 229.806139 -132.283375 
L 233.151068 -133.150138 
L 236.495996 -134.161253 
L 239.840925 -135.274526 
L 243.185854 -136.366388 
L 246.530782 -137.374231 
L 249.875711 -138.310652 
L 253.22064 -139.141267 
L 256.565569 -139.74041 
L 259.910497 -139.976875 
L 263.255426 -139.787777 
L 266.600355 -139.181478 
L 269.945283 -138.223794 
L 273.290212 -137.029766 
L 276.635141 -135.728041 
L 279.98007 -134.40004 
L 283.324998 -133.067328 
L 286.669927 -131.743793 
L 290.014856 -130.478564 
L 293.359784 -129.345124 
L 296.704713 -128.406428 
L 300.049642 -127.688379 
L 303.394571 -127.176571 
L 306.739499 -126.833766 
L 310.084428 -126.616567 
L 313.429357 -126.481478 
L 316.774285 -126.39133 
L 320.119214 -126.327297 
L 323.464143 -126.288441 
L 326.809072 -126.270905 
L 330.154 -126.25698 
L 333.498929 -126.23383 
L 336.843858 -126.209532 
L 340.188786 -126.197435 
L 343.533715 -126.195252 
L 346.878644 -126.190202 
L 350.223573 -126.175858 
L 353.568501 -126.156071 
L 356.91343 -126.137968 
L 360.258359 -126.125865 
L 363.603287 -126.119841 
L 366.948216 -126.117625 
L 370.293145 -126.117074 
L 373.638074 -126.117255 
L 376.983002 -126.118513 
L 380.327931 -126.122486 
L 383.67286 -126.131625 
L 387.017788 -126.147243 
L 390.362717 -126.166903 
L 393.707646 -126.183628 
L 397.052575 -126.188714 
L 400.397503 -126.178119 
L 403.742432 -126.157323 
L 407.087361 -126.137181 
L 410.432289 -126.124523 
L 410.432289 -126.109227 
L 410.432289 -126.109227 
L 407.087361 -126.096569 
L 403.742432 -126.076427 
L 400.397503 -126.055631 
L 397.052575 -126.045036 
L 393.707646 -126.050122 
L 390.362717 -126.066847 
L 387.017788 -126.086507 
L 383.67286 -126.102125 
L 380.327931 -126.111264 
L 376.983002 -126.115237 
L 373.638074 -126.116495 
L 370.293145 -126.116676 
L 366.948216 -126.116125 
L 363.603287 -126.113909 
L 360.258359 -126.107885 
L 356.91343 -126.095782 
L 353.568501 -126.077679 
L 350.223573 -126.057892 
L 346.878644 -126.043548 
L 343.533715 -126.038498 
L 340.188786 -126.036315 
L 336.843858 -126.024218 
L 333.498929 -125.99992 
L 330.154 -125.97677 
L 326.809072 -125.962845 
L 323.464143 -125.945309 
L 320.119214 -125.906453 
L 316.774285 -125.84242 
L 313.429357 -125.752272 
L 310.084428 -125.617183 
L 306.739499 -125.399984 
L 303.394571 -125.057179 
L 300.049642 -124.545371 
L 296.704713 -123.827322 
L 293.359784 -122.888626 
L 290.014856 -121.755186 
L 286.669927 -120.489957 
L 283.324998 -119.166422 
L 279.98007 -117.83371 
L 276.635141 -116.505709 
L 273.290212 -115.203984 
L 269.945283 -114.009956 
L 266.600355 -113.052272 
L 263.255426 -112.445973 
L 259.910497 -112.256875 
L 256.565569 -112.49334 
L 253.22064 -113.092483 
L 249.875711 -113.923098 
L 246.530782 -114.859519 
L 243.185854 -115.867362 
L 239.840925 -116.959224 
L 236.495996 -118.072497 
L 233.151068 -119.083612 
L 229.806139 -119.950375 
L 226.46121 -120.740868 
L 223.116281 -121.507179 
L 219.771353 -122.208994 
L 216.426424 -122.772951 
L 213.081495 -123.181437 
L 209.736566 -123.501615 
L 206.391638 -123.834934 
L 203.046709 -124.226179 
L 199.70178 -124.630077 
L 196.356852 -124.968609 
L 193.011923 -125.200565 
L 189.666994 -125.341658 
L 186.322065 -125.438559 
L 182.977137 -125.527704 
L 179.632208 -125.615926 
L 176.287279 -125.691778 
L 172.942351 -125.745509 
L 169.597422 -125.780851 
L 166.252493 -125.812225 
L 162.907564 -125.84964 
L 159.562636 -125.890025 
L 156.217707 -125.926644 
L 152.872778 -125.959644 
L 149.52785 -125.992038 
L 146.182921 -126.022166 
L 142.837992 -126.046307 
L 139.493063 -126.064265 
L 136.148135 -126.077396 
L 132.803206 -126.084802 
L 129.458277 -126.086335 
L 126.113349 -126.08656 
L 122.76842 -126.090547 
L 119.423491 -126.096821 
L 116.078562 -126.097978 
L 112.733634 -126.087945 
L 109.388705 -126.06844 
L 106.043776 -126.049215 
L 102.698848 -126.040167 
L 99.353919 -126.042914 
L 96.00899 -126.052512 
L 92.664061 -126.065098 
L 89.319133 -126.079688 
L 85.974204 -126.094485 
L 82.629275 -126.106165 
L 79.284347 -126.112942 
z
" style="stroke: #3d3d3d; stroke-width: 1.25"/>
    </defs>
    <g clip-path="url(#pd9c34723d3)">
     <use xlink:href="#m9033818dfa" x="0" y="339.01" style="fill: #845b53; stroke: #3d3d3d; stroke-width: 1.25"/>
    </g>
   </g>
   <g id="PolyCollection_7">
    <defs>
     <path id="mf199f05c89" d="M 124.055333 -91.453628 
L 124.055333 -91.480122 
L 126.633603 -91.493938 
L 129.211874 -91.517181 
L 131.790144 -91.552264 
L 134.368414 -91.599705 
L 136.946684 -91.657013 
L 139.524954 -91.718722 
L 142.103224 -91.778255 
L 144.681494 -91.831328 
L 147.259764 -91.879104 
L 149.838034 -91.928595 
L 152.416304 -91.988929 
L 154.994574 -92.064847 
L 157.572844 -92.151219 
L 160.151114 -92.232455 
L 162.729384 -92.288242 
L 165.307654 -92.303246 
L 167.885924 -92.275694 
L 170.464194 -92.219655 
L 173.042465 -92.159377 
L 175.620735 -92.119055 
L 178.199005 -92.114498 
L 180.777275 -92.151492 
L 183.355545 -92.230765 
L 185.933815 -92.355255 
L 188.512085 -92.534584 
L 191.090355 -92.784008 
L 193.668625 -93.118329 
L 196.246895 -93.54383 
L 198.825165 -94.052359 
L 201.403435 -94.621272 
L 203.981705 -95.22087 
L 206.559975 -95.827509 
L 209.138245 -96.436737 
L 211.716515 -97.069075 
L 214.294785 -97.763337 
L 216.873055 -98.558264 
L 219.451326 -99.469611 
L 222.029596 -100.473291 
L 224.607866 -101.503918 
L 227.186136 -102.472065 
L 229.764406 -103.294683 
L 232.342676 -103.925443 
L 234.920946 -104.36999 
L 237.499216 -104.677066 
L 240.077486 -104.908492 
L 242.655756 -105.103368 
L 245.234026 -105.256956 
L 247.812296 -105.326875 
L 250.390566 -105.261721 
L 252.968836 -105.032543 
L 255.547106 -104.647174 
L 258.125376 -104.140776 
L 260.703646 -103.551939 
L 263.281916 -102.901231 
L 265.860187 -102.185353 
L 268.438457 -101.389188 
L 271.016727 -100.506887 
L 273.594997 -99.558114 
L 276.173267 -98.589181 
L 278.751537 -97.658382 
L 281.329807 -96.814008 
L 283.908077 -96.077255 
L 286.486347 -95.439041 
L 289.064617 -94.87153 
L 291.642887 -94.346468 
L 294.221157 -93.849093 
L 296.799427 -93.380871 
L 299.377697 -92.952865 
L 301.955967 -92.57694 
L 304.534237 -92.260645 
L 307.112507 -92.006542 
L 309.690777 -91.813345 
L 312.269048 -91.676668 
L 314.847318 -91.589247 
L 317.425588 -91.541511 
L 320.003858 -91.522726 
L 322.582128 -91.522183 
L 325.160398 -91.530055 
L 327.738668 -91.538134 
L 330.316938 -91.540771 
L 332.895208 -91.53571 
L 335.473478 -91.524102 
L 338.051748 -91.509338 
L 340.630018 -91.495247 
L 343.208288 -91.484665 
L 345.786558 -91.479033 
L 348.364828 -91.478814 
L 350.943098 -91.48402 
L 353.521368 -91.49424 
L 356.099638 -91.508132 
L 358.677909 -91.522959 
L 361.256179 -91.534889 
L 363.834449 -91.540292 
L 366.412719 -91.537378 
L 368.990989 -91.527103 
L 371.569259 -91.512642 
L 374.147529 -91.497811 
L 376.725799 -91.485477 
L 379.304069 -91.476824 
L 379.304069 -91.456926 
L 379.304069 -91.456926 
L 376.725799 -91.448273 
L 374.147529 -91.435939 
L 371.569259 -91.421108 
L 368.990989 -91.406647 
L 366.412719 -91.396372 
L 363.834449 -91.393458 
L 361.256179 -91.398861 
L 358.677909 -91.410791 
L 356.099638 -91.425618 
L 353.521368 -91.43951 
L 350.943098 -91.44973 
L 348.364828 -91.454936 
L 345.786558 -91.454717 
L 343.208288 -91.449085 
L 340.630018 -91.438503 
L 338.051748 -91.424412 
L 335.473478 -91.409648 
L 332.895208 -91.39804 
L 330.316938 -91.392979 
L 327.738668 -91.395616 
L 325.160398 -91.403695 
L 322.582128 -91.411567 
L 320.003858 -91.411024 
L 317.425588 -91.392239 
L 314.847318 -91.344503 
L 312.269048 -91.257082 
L 309.690777 -91.120405 
L 307.112507 -90.927208 
L 304.534237 -90.673105 
L 301.955967 -90.35681 
L 299.377697 -89.980885 
L 296.799427 -89.552879 
L 294.221157 -89.084657 
L 291.642887 -88.587282 
L 289.064617 -88.06222 
L 286.486347 -87.494709 
L 283.908077 -86.856495 
L 281.329807 -86.119742 
L 278.751537 -85.275368 
L 276.173267 -84.344569 
L 273.594997 -83.375636 
L 271.016727 -82.426863 
L 268.438457 -81.544562 
L 265.860187 -80.748397 
L 263.281916 -80.032519 
L 260.703646 -79.381811 
L 258.125376 -78.792974 
L 255.547106 -78.286576 
L 252.968836 -77.901207 
L 250.390566 -77.672029 
L 247.812296 -77.606875 
L 245.234026 -77.676794 
L 242.655756 -77.830382 
L 240.077486 -78.025258 
L 237.499216 -78.256684 
L 234.920946 -78.56376 
L 232.342676 -79.008307 
L 229.764406 -79.639067 
L 227.186136 -80.461685 
L 224.607866 -81.429832 
L 222.029596 -82.460459 
L 219.451326 -83.464139 
L 216.873055 -84.375486 
L 214.294785 -85.170413 
L 211.716515 -85.864675 
L 209.138245 -86.497013 
L 206.559975 -87.106241 
L 203.981705 -87.71288 
L 201.403435 -88.312478 
L 198.825165 -88.881391 
L 196.246895 -89.38992 
L 193.668625 -89.815421 
L 191.090355 -90.149742 
L 188.512085 -90.399166 
L 185.933815 -90.578495 
L 183.355545 -90.702985 
L 180.777275 -90.782258 
L 178.199005 -90.819252 
L 175.620735 -90.814695 
L 173.042465 -90.774373 
L 170.464194 -90.714095 
L 167.885924 -90.658056 
L 165.307654 -90.630504 
L 162.729384 -90.645508 
L 160.151114 -90.701295 
L 157.572844 -90.782531 
L 154.994574 -90.868903 
L 152.416304 -90.944821 
L 149.838034 -91.005155 
L 147.259764 -91.054646 
L 144.681494 -91.102422 
L 142.103224 -91.155495 
L 139.524954 -91.215028 
L 136.946684 -91.276737 
L 134.368414 -91.334045 
L 131.790144 -91.381486 
L 129.211874 -91.416569 
L 126.633603 -91.439812 
L 124.055333 -91.453628 
z
" style="stroke: #3d3d3d; stroke-width: 1.25"/>
    </defs>
    <g clip-path="url(#pd9c34723d3)">
     <use xlink:href="#mf199f05c89" x="0" y="339.01" style="fill: #d684bd; stroke: #3d3d3d; stroke-width: 1.25"/>
    </g>
   </g>
   <g id="PolyCollection_8">
    <defs>
     <path id="m68fed69ee2" d="M 143.207917 -56.698901 
L 143.207917 -56.934849 
L 145.399266 -56.973639 
L 147.590615 -57.021008 
L 149.781964 -57.07746 
L 151.973314 -57.143142 
L 154.164663 -57.217817 
L 156.356012 -57.300906 
L 158.547361 -57.391616 
L 160.73871 -57.489178 
L 162.930059 -57.593178 
L 165.121409 -57.703961 
L 167.312758 -57.823069 
L 169.504107 -57.953641 
L 171.695456 -58.100721 
L 173.886805 -58.271375 
L 176.078155 -58.474576 
L 178.269504 -58.720796 
L 180.460853 -59.021308 
L 182.652202 -59.387212 
L 184.843551 -59.82828 
L 187.0349 -60.351701 
L 189.22625 -60.960889 
L 191.417599 -61.654481 
L 193.608948 -62.425679 
L 195.800297 -63.26205 
L 197.991646 -64.145842 
L 200.182995 -65.054848 
L 202.374345 -65.963745 
L 204.565694 -66.845808 
L 206.757043 -67.67484 
L 208.948392 -68.427115 
L 211.139741 -69.083135 
L 213.331091 -69.629027 
L 215.52244 -70.057429 
L 217.713789 -70.367788 
L 219.905138 -70.566044 
L 222.096487 -70.663773 
L 224.287836 -70.676875 
L 226.479186 -70.62398 
L 228.670535 -70.524742 
L 230.861884 -70.398191 
L 233.053233 -70.261298 
L 235.244582 -70.127857 
L 237.435932 -70.007754 
L 239.627281 -69.906619 
L 241.81863 -69.825852 
L 244.009979 -69.762932 
L 246.201328 -69.711955 
L 248.392677 -69.664314 
L 250.584027 -69.609465 
L 252.775376 -69.535726 
L 254.966725 -69.431092 
L 257.158074 -69.284052 
L 259.349423 -69.084371 
L 261.540773 -68.823836 
L 263.732122 -68.496904 
L 265.923471 -68.101194 
L 268.11482 -67.637787 
L 270.306169 -67.111253 
L 272.497518 -66.529403 
L 274.688868 -65.902766 
L 276.880217 -65.243842 
L 279.071566 -64.566218 
L 281.262915 -63.88364 
L 283.454264 -63.209167 
L 285.645614 -62.554475 
L 287.836963 -61.929398 
L 290.028312 -61.341698 
L 292.219661 -60.797072 
L 294.41101 -60.299329 
L 296.602359 -59.850675 
L 298.793709 -59.452029 
L 300.985058 -59.1033 
L 303.176407 -58.803597 
L 305.367756 -58.551328 
L 307.559105 -58.344226 
L 309.750454 -58.179301 
L 311.941804 -58.052784 
L 314.133153 -57.960099 
L 316.324502 -57.895904 
L 318.515851 -57.854224 
L 320.7072 -57.828694 
L 322.89855 -57.81288 
L 325.089899 -57.800656 
L 327.281248 -57.786597 
L 329.472597 -57.76631 
L 331.663946 -57.736697 
L 333.855295 -57.696078 
L 336.046645 -57.644187 
L 338.237994 -57.582024 
L 340.429343 -57.511604 
L 342.620692 -57.435626 
L 344.812041 -57.357121 
L 347.003391 -57.279106 
L 349.19474 -57.204302 
L 351.386089 -57.134922 
L 353.577438 -57.072557 
L 355.768787 -57.01814 
L 357.960136 -56.971994 
L 360.151486 -56.933923 
L 360.151486 -56.699827 
L 360.151486 -56.699827 
L 357.960136 -56.661756 
L 355.768787 -56.61561 
L 353.577438 -56.561193 
L 351.386089 -56.498828 
L 349.19474 -56.429448 
L 347.003391 -56.354644 
L 344.812041 -56.276629 
L 342.620692 -56.198124 
L 340.429343 -56.122146 
L 338.237994 -56.051726 
L 336.046645 -55.989563 
L 333.855295 -55.937672 
L 331.663946 -55.897053 
L 329.472597 -55.86744 
L 327.281248 -55.847153 
L 325.089899 -55.833094 
L 322.89855 -55.82087 
L 320.7072 -55.805056 
L 318.515851 -55.779526 
L 316.324502 -55.737846 
L 314.133153 -55.673651 
L 311.941804 -55.580966 
L 309.750454 -55.454449 
L 307.559105 -55.289524 
L 305.367756 -55.082422 
L 303.176407 -54.830153 
L 300.985058 -54.53045 
L 298.793709 -54.181721 
L 296.602359 -53.783075 
L 294.41101 -53.334421 
L 292.219661 -52.836678 
L 290.028312 -52.292052 
L 287.836963 -51.704352 
L 285.645614 -51.079275 
L 283.454264 -50.424583 
L 281.262915 -49.75011 
L 279.071566 -49.067532 
L 276.880217 -48.389908 
L 274.688868 -47.730984 
L 272.497518 -47.104347 
L 270.306169 -46.522497 
L 268.11482 -45.995963 
L 265.923471 -45.532556 
L 263.732122 -45.136846 
L 261.540773 -44.809914 
L 259.349423 -44.549379 
L 257.158074 -44.349698 
L 254.966725 -44.202658 
L 252.775376 -44.098024 
L 250.584027 -44.024285 
L 248.392677 -43.969436 
L 246.201328 -43.921795 
L 244.009979 -43.870818 
L 241.81863 -43.807898 
L 239.627281 -43.727131 
L 237.435932 -43.625996 
L 235.244582 -43.505893 
L 233.053233 -43.372452 
L 230.861884 -43.235559 
L 228.670535 -43.109008 
L 226.479186 -43.00977 
L 224.287836 -42.956875 
L 222.096487 -42.969977 
L 219.905138 -43.067706 
L 217.713789 -43.265962 
L 215.52244 -43.576321 
L 213.331091 -44.004723 
L 211.139741 -44.550615 
L 208.948392 -45.206635 
L 206.757043 -45.95891 
L 204.565694 -46.787942 
L 202.374345 -47.670005 
L 200.182995 -48.578902 
L 197.991646 -49.487908 
L 195.800297 -50.3717 
L 193.608948 -51.208071 
L 191.417599 -51.979269 
L 189.22625 -52.672861 
L 187.0349 -53.282049 
L 184.843551 -53.80547 
L 182.652202 -54.246538 
L 180.460853 -54.612442 
L 178.269504 -54.912954 
L 176.078155 -55.159174 
L 173.886805 -55.362375 
L 171.695456 -55.533029 
L 169.504107 -55.680109 
L 167.312758 -55.810681 
L 165.121409 -55.929789 
L 162.930059 -56.040572 
L 160.73871 -56.144572 
L 158.547361 -56.242134 
L 156.356012 -56.332844 
L 154.164663 -56.415933 
L 151.973314 -56.490608 
L 149.781964 -56.55629 
L 147.590615 -56.612742 
L 145.399266 -56.660111 
L 143.207917 -56.698901 
z
" style="stroke: #3d3d3d; stroke-width: 1.25"/>
    </defs>
    <g clip-path="url(#pd9c34723d3)">
     <use xlink:href="#m68fed69ee2" x="0" y="339.01" style="fill: #7f7f7f; stroke: #3d3d3d; stroke-width: 1.25"/>
    </g>
   </g>
   <g id="matplotlib.axis_1">
    <g id="xtick_1">
     <g id="line2d_1">
      <defs>
       <path id="mbc25ad33f3" d="M 0 0 
L 0 3.5 
" style="stroke: #000000; stroke-width: 0.8"/>
      </defs>
      <g>
       <use xlink:href="#mbc25ad33f3" x="70.913046" y="299.518125" style="stroke: #000000; stroke-width: 0.8"/>
      </g>
     </g>
     <g id="text_1">
      <!-- 0 -->
      <g transform="translate(67.731796 314.116563) scale(0.1 -0.1)">
       <defs>
        <path id="DejaVuSans-30" d="M 2034 4250 
Q 1547 4250 1301 3770 
Q 1056 3291 1056 2328 
Q 1056 1369 1301 889 
Q 1547 409 2034 409 
Q 2525 409 2770 889 
Q 3016 1369 3016 2328 
Q 3016 3291 2770 3770 
Q 2525 4250 2034 4250 
z
M 2034 4750 
Q 2819 4750 3233 4129 
Q 3647 3509 3647 2328 
Q 3647 1150 3233 529 
Q 2819 -91 2034 -91 
Q 1250 -91 836 529 
Q 422 1150 422 2328 
Q 422 3509 836 4129 
Q 1250 4750 2034 4750 
z
" transform="scale(0.015625)"/>
       </defs>
       <use xlink:href="#DejaVuSans-30"/>
      </g>
     </g>
    </g>
    <g id="xtick_2">
     <g id="line2d_2">
      <g>
       <use xlink:href="#mbc25ad33f3" x="139.126878" y="299.518125" style="stroke: #000000; stroke-width: 0.8"/>
      </g>
     </g>
     <g id="text_2">
      <!-- 10 -->
      <g transform="translate(132.764378 314.116563) scale(0.1 -0.1)">
       <defs>
        <path id="DejaVuSans-31" d="M 794 531 
L 1825 531 
L 1825 4091 
L 703 3866 
L 703 4441 
L 1819 4666 
L 2450 4666 
L 2450 531 
L 3481 531 
L 3481 0 
L 794 0 
L 794 531 
z
" transform="scale(0.015625)"/>
       </defs>
       <use xlink:href="#DejaVuSans-31"/>
       <use xlink:href="#DejaVuSans-30" x="63.623047"/>
      </g>
     </g>
    </g>
    <g id="xtick_3">
     <g id="line2d_3">
      <g>
       <use xlink:href="#mbc25ad33f3" x="207.34071" y="299.518125" style="stroke: #000000; stroke-width: 0.8"/>
      </g>
     </g>
     <g id="text_3">
      <!-- 20 -->
      <g transform="translate(200.97821 314.116563) scale(0.1 -0.1)">
       <defs>
        <path id="DejaVuSans-32" d="M 1228 531 
L 3431 531 
L 3431 0 
L 469 0 
L 469 531 
Q 828 903 1448 1529 
Q 2069 2156 2228 2338 
Q 2531 2678 2651 2914 
Q 2772 3150 2772 3378 
Q 2772 3750 2511 3984 
Q 2250 4219 1831 4219 
Q 1534 4219 1204 4116 
Q 875 4013 500 3803 
L 500 4441 
Q 881 4594 1212 4672 
Q 1544 4750 1819 4750 
Q 2544 4750 2975 4387 
Q 3406 4025 3406 3419 
Q 3406 3131 3298 2873 
Q 3191 2616 2906 2266 
Q 2828 2175 2409 1742 
Q 1991 1309 1228 531 
z
" transform="scale(0.015625)"/>
       </defs>
       <use xlink:href="#DejaVuSans-32"/>
       <use xlink:href="#DejaVuSans-30" x="63.623047"/>
      </g>
     </g>
    </g>
    <g id="xtick_4">
     <g id="line2d_4">
      <g>
       <use xlink:href="#mbc25ad33f3" x="275.554542" y="299.518125" style="stroke: #000000; stroke-width: 0.8"/>
      </g>
     </g>
     <g id="text_4">
      <!-- 30 -->
      <g transform="translate(269.192042 314.116563) scale(0.1 -0.1)">
       <defs>
        <path id="DejaVuSans-33" d="M 2597 2516 
Q 3050 2419 3304 2112 
Q 3559 1806 3559 1356 
Q 3559 666 3084 287 
Q 2609 -91 1734 -91 
Q 1441 -91 1130 -33 
Q 819 25 488 141 
L 488 750 
Q 750 597 1062 519 
Q 1375 441 1716 441 
Q 2309 441 2620 675 
Q 2931 909 2931 1356 
Q 2931 1769 2642 2001 
Q 2353 2234 1838 2234 
L 1294 2234 
L 1294 2753 
L 1863 2753 
Q 2328 2753 2575 2939 
Q 2822 3125 2822 3475 
Q 2822 3834 2567 4026 
Q 2313 4219 1838 4219 
Q 1578 4219 1281 4162 
Q 984 4106 628 3988 
L 628 4550 
Q 988 4650 1302 4700 
Q 1616 4750 1894 4750 
Q 2613 4750 3031 4423 
Q 3450 4097 3450 3541 
Q 3450 3153 3228 2886 
Q 3006 2619 2597 2516 
z
" transform="scale(0.015625)"/>
       </defs>
       <use xlink:href="#DejaVuSans-33"/>
       <use xlink:href="#DejaVuSans-30" x="63.623047"/>
      </g>
     </g>
    </g>
    <g id="xtick_5">
     <g id="line2d_5">
      <g>
       <use xlink:href="#mbc25ad33f3" x="343.768375" y="299.518125" style="stroke: #000000; stroke-width: 0.8"/>
      </g>
     </g>
     <g id="text_5">
      <!-- 40 -->
      <g transform="translate(337.405875 314.116563) scale(0.1 -0.1)">
       <defs>
        <path id="DejaVuSans-34" d="M 2419 4116 
L 825 1625 
L 2419 1625 
L 2419 4116 
z
M 2253 4666 
L 3047 4666 
L 3047 1625 
L 3713 1625 
L 3713 1100 
L 3047 1100 
L 3047 0 
L 2419 0 
L 2419 1100 
L 313 1100 
L 313 1709 
L 2253 4666 
z
" transform="scale(0.015625)"/>
       </defs>
       <use xlink:href="#DejaVuSans-34"/>
       <use xlink:href="#DejaVuSans-30" x="63.623047"/>
      </g>
     </g>
    </g>
    <g id="xtick_6">
     <g id="line2d_6">
      <g>
       <use xlink:href="#mbc25ad33f3" x="411.982207" y="299.518125" style="stroke: #000000; stroke-width: 0.8"/>
      </g>
     </g>
     <g id="text_6">
      <!-- 50 -->
      <g transform="translate(405.619707 314.116563) scale(0.1 -0.1)">
       <defs>
        <path id="DejaVuSans-35" d="M 691 4666 
L 3169 4666 
L 3169 4134 
L 1269 4134 
L 1269 2991 
Q 1406 3038 1543 3061 
Q 1681 3084 1819 3084 
Q 2600 3084 3056 2656 
Q 3513 2228 3513 1497 
Q 3513 744 3044 326 
Q 2575 -91 1722 -91 
Q 1428 -91 1123 -41 
Q 819 9 494 109 
L 494 744 
Q 775 591 1075 516 
Q 1375 441 1709 441 
Q 2250 441 2565 725 
Q 2881 1009 2881 1497 
Q 2881 1984 2565 2268 
Q 2250 2553 1709 2553 
Q 1456 2553 1204 2497 
Q 953 2441 691 2322 
L 691 4666 
z
" transform="scale(0.015625)"/>
       </defs>
       <use xlink:href="#DejaVuSans-35"/>
       <use xlink:href="#DejaVuSans-30" x="63.623047"/>
      </g>
     </g>
    </g>
    <g id="xtick_7">
     <g id="line2d_7">
      <g>
       <use xlink:href="#mbc25ad33f3" x="480.196039" y="299.518125" style="stroke: #000000; stroke-width: 0.8"/>
      </g>
     </g>
     <g id="text_7">
      <!-- 60 -->
      <g transform="translate(473.833539 314.116563) scale(0.1 -0.1)">
       <defs>
        <path id="DejaVuSans-36" d="M 2113 2584 
Q 1688 2584 1439 2293 
Q 1191 2003 1191 1497 
Q 1191 994 1439 701 
Q 1688 409 2113 409 
Q 2538 409 2786 701 
Q 3034 994 3034 1497 
Q 3034 2003 2786 2293 
Q 2538 2584 2113 2584 
z
M 3366 4563 
L 3366 3988 
Q 3128 4100 2886 4159 
Q 2644 4219 2406 4219 
Q 1781 4219 1451 3797 
Q 1122 3375 1075 2522 
Q 1259 2794 1537 2939 
Q 1816 3084 2150 3084 
Q 2853 3084 3261 2657 
Q 3669 2231 3669 1497 
Q 3669 778 3244 343 
Q 2819 -91 2113 -91 
Q 1303 -91 875 529 
Q 447 1150 447 2328 
Q 447 3434 972 4092 
Q 1497 4750 2381 4750 
Q 2619 4750 2861 4703 
Q 3103 4656 3366 4563 
z
" transform="scale(0.015625)"/>
       </defs>
       <use xlink:href="#DejaVuSans-36"/>
       <use xlink:href="#DejaVuSans-30" x="63.623047"/>
      </g>
     </g>
    </g>
    <g id="text_8">
     <!-- TCO2 -->
     <g transform="translate(266.150937 329.314375) scale(0.12 -0.12)">
      <defs>
       <path id="DejaVuSans-54" d="M -19 4666 
L 3928 4666 
L 3928 4134 
L 2272 4134 
L 2272 0 
L 1638 0 
L 1638 4134 
L -19 4134 
L -19 4666 
z
" transform="scale(0.015625)"/>
       <path id="DejaVuSans-43" d="M 4122 4306 
L 4122 3641 
Q 3803 3938 3442 4084 
Q 3081 4231 2675 4231 
Q 1875 4231 1450 3742 
Q 1025 3253 1025 2328 
Q 1025 1406 1450 917 
Q 1875 428 2675 428 
Q 3081 428 3442 575 
Q 3803 722 4122 1019 
L 4122 359 
Q 3791 134 3420 21 
Q 3050 -91 2638 -91 
Q 1578 -91 968 557 
Q 359 1206 359 2328 
Q 359 3453 968 4101 
Q 1578 4750 2638 4750 
Q 3056 4750 3426 4639 
Q 3797 4528 4122 4306 
z
" transform="scale(0.015625)"/>
       <path id="DejaVuSans-4f" d="M 2522 4238 
Q 1834 4238 1429 3725 
Q 1025 3213 1025 2328 
Q 1025 1447 1429 934 
Q 1834 422 2522 422 
Q 3209 422 3611 934 
Q 4013 1447 4013 2328 
Q 4013 3213 3611 3725 
Q 3209 4238 2522 4238 
z
M 2522 4750 
Q 3503 4750 4090 4092 
Q 4678 3434 4678 2328 
Q 4678 1225 4090 567 
Q 3503 -91 2522 -91 
Q 1538 -91 948 565 
Q 359 1222 359 2328 
Q 359 3434 948 4092 
Q 1538 4750 2522 4750 
z
" transform="scale(0.015625)"/>
      </defs>
      <use xlink:href="#DejaVuSans-54"/>
      <use xlink:href="#DejaVuSans-43" x="55.208984"/>
      <use xlink:href="#DejaVuSans-4f" x="125.033203"/>
      <use xlink:href="#DejaVuSans-32" x="203.744141"/>
     </g>
    </g>
   </g>
   <g id="matplotlib.axis_2">
    <g id="ytick_1">
     <g id="line2d_8">
      <defs>
       <path id="mf4d6d6799d" d="M 0 0 
L -3.5 0 
" style="stroke: #000000; stroke-width: 0.8"/>
      </defs>
      <g>
       <use xlink:href="#mf4d6d6799d" x="58.993437" y="39.643125" style="stroke: #000000; stroke-width: 0.8"/>
      </g>
     </g>
     <g id="text_9">
      <!-- 60-69 -->
      <g transform="translate(22.935625 43.442344) scale(0.1 -0.1)">
       <defs>
        <path id="DejaVuSans-2d" d="M 313 2009 
L 1997 2009 
L 1997 1497 
L 313 1497 
L 313 2009 
z
" transform="scale(0.015625)"/>
        <path id="DejaVuSans-39" d="M 703 97 
L 703 672 
Q 941 559 1184 500 
Q 1428 441 1663 441 
Q 2288 441 2617 861 
Q 2947 1281 2994 2138 
Q 2813 1869 2534 1725 
Q 2256 1581 1919 1581 
Q 1219 1581 811 2004 
Q 403 2428 403 3163 
Q 403 3881 828 4315 
Q 1253 4750 1959 4750 
Q 2769 4750 3195 4129 
Q 3622 3509 3622 2328 
Q 3622 1225 3098 567 
Q 2575 -91 1691 -91 
Q 1453 -91 1209 -44 
Q 966 3 703 97 
z
M 1959 2075 
Q 2384 2075 2632 2365 
Q 2881 2656 2881 3163 
Q 2881 3666 2632 3958 
Q 2384 4250 1959 4250 
Q 1534 4250 1286 3958 
Q 1038 3666 1038 3163 
Q 1038 2656 1286 2365 
Q 1534 2075 1959 2075 
z
" transform="scale(0.015625)"/>
       </defs>
       <use xlink:href="#DejaVuSans-36"/>
       <use xlink:href="#DejaVuSans-30" x="63.623047"/>
       <use xlink:href="#DejaVuSans-2d" x="127.246094"/>
       <use xlink:href="#DejaVuSans-36" x="163.330078"/>
       <use xlink:href="#DejaVuSans-39" x="226.953125"/>
      </g>
     </g>
    </g>
    <g id="ytick_2">
     <g id="line2d_9">
      <g>
       <use xlink:href="#mf4d6d6799d" x="58.993437" y="74.293125" style="stroke: #000000; stroke-width: 0.8"/>
      </g>
     </g>
     <g id="text_10">
      <!-- 30-39 -->
      <g transform="translate(22.935625 78.092344) scale(0.1 -0.1)">
       <use xlink:href="#DejaVuSans-33"/>
       <use xlink:href="#DejaVuSans-30" x="63.623047"/>
       <use xlink:href="#DejaVuSans-2d" x="127.246094"/>
       <use xlink:href="#DejaVuSans-33" x="163.330078"/>
       <use xlink:href="#DejaVuSans-39" x="226.953125"/>
      </g>
     </g>
    </g>
    <g id="ytick_3">
     <g id="line2d_10">
      <g>
       <use xlink:href="#mf4d6d6799d" x="58.993437" y="108.943125" style="stroke: #000000; stroke-width: 0.8"/>
      </g>
     </g>
     <g id="text_11">
      <!-- 50-59 -->
      <g transform="translate(22.935625 112.742344) scale(0.1 -0.1)">
       <use xlink:href="#DejaVuSans-35"/>
       <use xlink:href="#DejaVuSans-30" x="63.623047"/>
       <use xlink:href="#DejaVuSans-2d" x="127.246094"/>
       <use xlink:href="#DejaVuSans-35" x="163.330078"/>
       <use xlink:href="#DejaVuSans-39" x="226.953125"/>
      </g>
     </g>
    </g>
    <g id="ytick_4">
     <g id="line2d_11">
      <g>
       <use xlink:href="#mf4d6d6799d" x="58.993437" y="143.593125" style="stroke: #000000; stroke-width: 0.8"/>
      </g>
     </g>
     <g id="text_12">
      <!-- 70-79 -->
      <g transform="translate(22.935625 147.392344) scale(0.1 -0.1)">
       <defs>
        <path id="DejaVuSans-37" d="M 525 4666 
L 3525 4666 
L 3525 4397 
L 1831 0 
L 1172 0 
L 2766 4134 
L 525 4134 
L 525 4666 
z
" transform="scale(0.015625)"/>
       </defs>
       <use xlink:href="#DejaVuSans-37"/>
       <use xlink:href="#DejaVuSans-30" x="63.623047"/>
       <use xlink:href="#DejaVuSans-2d" x="127.246094"/>
       <use xlink:href="#DejaVuSans-37" x="163.330078"/>
       <use xlink:href="#DejaVuSans-39" x="226.953125"/>
      </g>
     </g>
    </g>
    <g id="ytick_5">
     <g id="line2d_12">
      <g>
       <use xlink:href="#mf4d6d6799d" x="58.993437" y="178.243125" style="stroke: #000000; stroke-width: 0.8"/>
      </g>
     </g>
     <g id="text_13">
      <!-- 40-49 -->
      <g transform="translate(22.935625 182.042344) scale(0.1 -0.1)">
       <use xlink:href="#DejaVuSans-34"/>
       <use xlink:href="#DejaVuSans-30" x="63.623047"/>
       <use xlink:href="#DejaVuSans-2d" x="127.246094"/>
       <use xlink:href="#DejaVuSans-34" x="163.330078"/>
       <use xlink:href="#DejaVuSans-39" x="226.953125"/>
      </g>
     </g>
    </g>
    <g id="ytick_6">
     <g id="line2d_13">
      <g>
       <use xlink:href="#mf4d6d6799d" x="58.993437" y="212.893125" style="stroke: #000000; stroke-width: 0.8"/>
      </g>
     </g>
     <g id="text_14">
      <!-- 18-29 -->
      <g transform="translate(22.935625 216.692344) scale(0.1 -0.1)">
       <defs>
        <path id="DejaVuSans-38" d="M 2034 2216 
Q 1584 2216 1326 1975 
Q 1069 1734 1069 1313 
Q 1069 891 1326 650 
Q 1584 409 2034 409 
Q 2484 409 2743 651 
Q 3003 894 3003 1313 
Q 3003 1734 2745 1975 
Q 2488 2216 2034 2216 
z
M 1403 2484 
Q 997 2584 770 2862 
Q 544 3141 544 3541 
Q 544 4100 942 4425 
Q 1341 4750 2034 4750 
Q 2731 4750 3128 4425 
Q 3525 4100 3525 3541 
Q 3525 3141 3298 2862 
Q 3072 2584 2669 2484 
Q 3125 2378 3379 2068 
Q 3634 1759 3634 1313 
Q 3634 634 3220 271 
Q 2806 -91 2034 -91 
Q 1263 -91 848 271 
Q 434 634 434 1313 
Q 434 1759 690 2068 
Q 947 2378 1403 2484 
z
M 1172 3481 
Q 1172 3119 1398 2916 
Q 1625 2713 2034 2713 
Q 2441 2713 2670 2916 
Q 2900 3119 2900 3481 
Q 2900 3844 2670 4047 
Q 2441 4250 2034 4250 
Q 1625 4250 1398 4047 
Q 1172 3844 1172 3481 
z
" transform="scale(0.015625)"/>
       </defs>
       <use xlink:href="#DejaVuSans-31"/>
       <use xlink:href="#DejaVuSans-38" x="63.623047"/>
       <use xlink:href="#DejaVuSans-2d" x="127.246094"/>
       <use xlink:href="#DejaVuSans-32" x="163.330078"/>
       <use xlink:href="#DejaVuSans-39" x="226.953125"/>
      </g>
     </g>
    </g>
    <g id="ytick_7">
     <g id="line2d_14">
      <g>
       <use xlink:href="#mf4d6d6799d" x="58.993437" y="247.543125" style="stroke: #000000; stroke-width: 0.8"/>
      </g>
     </g>
     <g id="text_15">
      <!-- 80-89 -->
      <g transform="translate(22.935625 251.342344) scale(0.1 -0.1)">
       <use xlink:href="#DejaVuSans-38"/>
       <use xlink:href="#DejaVuSans-30" x="63.623047"/>
       <use xlink:href="#DejaVuSans-2d" x="127.246094"/>
       <use xlink:href="#DejaVuSans-38" x="163.330078"/>
       <use xlink:href="#DejaVuSans-39" x="226.953125"/>
      </g>
     </g>
    </g>
    <g id="ytick_8">
     <g id="line2d_15">
      <g>
       <use xlink:href="#mf4d6d6799d" x="58.993437" y="282.193125" style="stroke: #000000; stroke-width: 0.8"/>
      </g>
     </g>
     <g id="text_16">
      <!-- 90-99 -->
      <g transform="translate(22.935625 285.992344) scale(0.1 -0.1)">
       <use xlink:href="#DejaVuSans-39"/>
       <use xlink:href="#DejaVuSans-30" x="63.623047"/>
       <use xlink:href="#DejaVuSans-2d" x="127.246094"/>
       <use xlink:href="#DejaVuSans-39" x="163.330078"/>
       <use xlink:href="#DejaVuSans-39" x="226.953125"/>
      </g>
     </g>
    </g>
    <g id="text_17">
     <!-- Age_Group -->
     <g transform="translate(16.10625 193.786875) rotate(-90) scale(0.12 -0.12)">
      <defs>
       <path id="DejaVuSans-41" d="M 2188 4044 
L 1331 1722 
L 3047 1722 
L 2188 4044 
z
M 1831 4666 
L 2547 4666 
L 4325 0 
L 3669 0 
L 3244 1197 
L 1141 1197 
L 716 0 
L 50 0 
L 1831 4666 
z
" transform="scale(0.015625)"/>
       <path id="DejaVuSans-67" d="M 2906 1791 
Q 2906 2416 2648 2759 
Q 2391 3103 1925 3103 
Q 1463 3103 1205 2759 
Q 947 2416 947 1791 
Q 947 1169 1205 825 
Q 1463 481 1925 481 
Q 2391 481 2648 825 
Q 2906 1169 2906 1791 
z
M 3481 434 
Q 3481 -459 3084 -895 
Q 2688 -1331 1869 -1331 
Q 1566 -1331 1297 -1286 
Q 1028 -1241 775 -1147 
L 775 -588 
Q 1028 -725 1275 -790 
Q 1522 -856 1778 -856 
Q 2344 -856 2625 -561 
Q 2906 -266 2906 331 
L 2906 616 
Q 2728 306 2450 153 
Q 2172 0 1784 0 
Q 1141 0 747 490 
Q 353 981 353 1791 
Q 353 2603 747 3093 
Q 1141 3584 1784 3584 
Q 2172 3584 2450 3431 
Q 2728 3278 2906 2969 
L 2906 3500 
L 3481 3500 
L 3481 434 
z
" transform="scale(0.015625)"/>
       <path id="DejaVuSans-65" d="M 3597 1894 
L 3597 1613 
L 953 1613 
Q 991 1019 1311 708 
Q 1631 397 2203 397 
Q 2534 397 2845 478 
Q 3156 559 3463 722 
L 3463 178 
Q 3153 47 2828 -22 
Q 2503 -91 2169 -91 
Q 1331 -91 842 396 
Q 353 884 353 1716 
Q 353 2575 817 3079 
Q 1281 3584 2069 3584 
Q 2775 3584 3186 3129 
Q 3597 2675 3597 1894 
z
M 3022 2063 
Q 3016 2534 2758 2815 
Q 2500 3097 2075 3097 
Q 1594 3097 1305 2825 
Q 1016 2553 972 2059 
L 3022 2063 
z
" transform="scale(0.015625)"/>
       <path id="DejaVuSans-5f" d="M 3263 -1063 
L 3263 -1509 
L -63 -1509 
L -63 -1063 
L 3263 -1063 
z
" transform="scale(0.015625)"/>
       <path id="DejaVuSans-47" d="M 3809 666 
L 3809 1919 
L 2778 1919 
L 2778 2438 
L 4434 2438 
L 4434 434 
Q 4069 175 3628 42 
Q 3188 -91 2688 -91 
Q 1594 -91 976 548 
Q 359 1188 359 2328 
Q 359 3472 976 4111 
Q 1594 4750 2688 4750 
Q 3144 4750 3555 4637 
Q 3966 4525 4313 4306 
L 4313 3634 
Q 3963 3931 3569 4081 
Q 3175 4231 2741 4231 
Q 1884 4231 1454 3753 
Q 1025 3275 1025 2328 
Q 1025 1384 1454 906 
Q 1884 428 2741 428 
Q 3075 428 3337 486 
Q 3600 544 3809 666 
z
" transform="scale(0.015625)"/>
       <path id="DejaVuSans-72" d="M 2631 2963 
Q 2534 3019 2420 3045 
Q 2306 3072 2169 3072 
Q 1681 3072 1420 2755 
Q 1159 2438 1159 1844 
L 1159 0 
L 581 0 
L 581 3500 
L 1159 3500 
L 1159 2956 
Q 1341 3275 1631 3429 
Q 1922 3584 2338 3584 
Q 2397 3584 2469 3576 
Q 2541 3569 2628 3553 
L 2631 2963 
z
" transform="scale(0.015625)"/>
       <path id="DejaVuSans-6f" d="M 1959 3097 
Q 1497 3097 1228 2736 
Q 959 2375 959 1747 
Q 959 1119 1226 758 
Q 1494 397 1959 397 
Q 2419 397 2687 759 
Q 2956 1122 2956 1747 
Q 2956 2369 2687 2733 
Q 2419 3097 1959 3097 
z
M 1959 3584 
Q 2709 3584 3137 3096 
Q 3566 2609 3566 1747 
Q 3566 888 3137 398 
Q 2709 -91 1959 -91 
Q 1206 -91 779 398 
Q 353 888 353 1747 
Q 353 2609 779 3096 
Q 1206 3584 1959 3584 
z
" transform="scale(0.015625)"/>
       <path id="DejaVuSans-75" d="M 544 1381 
L 544 3500 
L 1119 3500 
L 1119 1403 
Q 1119 906 1312 657 
Q 1506 409 1894 409 
Q 2359 409 2629 706 
Q 2900 1003 2900 1516 
L 2900 3500 
L 3475 3500 
L 3475 0 
L 2900 0 
L 2900 538 
Q 2691 219 2414 64 
Q 2138 -91 1772 -91 
Q 1169 -91 856 284 
Q 544 659 544 1381 
z
M 1991 3584 
L 1991 3584 
z
" transform="scale(0.015625)"/>
       <path id="DejaVuSans-70" d="M 1159 525 
L 1159 -1331 
L 581 -1331 
L 581 3500 
L 1159 3500 
L 1159 2969 
Q 1341 3281 1617 3432 
Q 1894 3584 2278 3584 
Q 2916 3584 3314 3078 
Q 3713 2572 3713 1747 
Q 3713 922 3314 415 
Q 2916 -91 2278 -91 
Q 1894 -91 1617 61 
Q 1341 213 1159 525 
z
M 3116 1747 
Q 3116 2381 2855 2742 
Q 2594 3103 2138 3103 
Q 1681 3103 1420 2742 
Q 1159 2381 1159 1747 
Q 1159 1113 1420 752 
Q 1681 391 2138 391 
Q 2594 391 2855 752 
Q 3116 1113 3116 1747 
z
" transform="scale(0.015625)"/>
      </defs>
      <use xlink:href="#DejaVuSans-41"/>
      <use xlink:href="#DejaVuSans-67" x="68.408203"/>
      <use xlink:href="#DejaVuSans-65" x="131.884766"/>
      <use xlink:href="#DejaVuSans-5f" x="193.408203"/>
      <use xlink:href="#DejaVuSans-47" x="243.408203"/>
      <use xlink:href="#DejaVuSans-72" x="320.898438"/>
      <use xlink:href="#DejaVuSans-6f" x="359.761719"/>
      <use xlink:href="#DejaVuSans-75" x="420.943359"/>
      <use xlink:href="#DejaVuSans-70" x="484.322266"/>
     </g>
    </g>
   </g>
   <g id="line2d_16">
    <path d="M 186.876561 39.643125 
L 316.482842 39.643125 
" clip-path="url(#pd9c34723d3)" style="fill: none; stroke: #3d3d3d; stroke-width: 1.875; stroke-linecap: square"/>
   </g>
   <g id="line2d_17">
    <path d="M 234.626243 39.643125 
L 268.733159 39.643125 
" clip-path="url(#pd9c34723d3)" style="fill: none; stroke: #3d3d3d; stroke-width: 5.625; stroke-linecap: square"/>
   </g>
   <g id="line2d_18">
    <path d="M 248.26901 39.643125 
" clip-path="url(#pd9c34723d3)" style="fill: none; stroke: #3d3d3d; stroke-width: 1.5; stroke-linecap: square"/>
    <defs>
     <path id="m8658829aa7" d="M 0 2.34375 
L 0 -2.34375 
" style="stroke: #ffffff; stroke-width: 1.125"/>
    </defs>
    <g clip-path="url(#pd9c34723d3)">
     <use xlink:href="#m8658829aa7" x="248.26901" y="39.643125" style="fill: #ffffff; stroke: #ffffff; stroke-width: 1.125"/>
    </g>
   </g>
   <g id="line2d_19">
    <path d="M 186.876561 74.293125 
L 316.482842 74.293125 
" clip-path="url(#pd9c34723d3)" style="fill: none; stroke: #3d3d3d; stroke-width: 1.875; stroke-linecap: square"/>
   </g>
   <g id="line2d_20">
    <path d="M 234.626243 74.293125 
L 268.733159 74.293125 
" clip-path="url(#pd9c34723d3)" style="fill: none; stroke: #3d3d3d; stroke-width: 5.625; stroke-linecap: square"/>
   </g>
   <g id="line2d_21">
    <path d="M 255.090393 74.293125 
" clip-path="url(#pd9c34723d3)" style="fill: none; stroke: #3d3d3d; stroke-width: 1.5; stroke-linecap: square"/>
    <g clip-path="url(#pd9c34723d3)">
     <use xlink:href="#m8658829aa7" x="255.090393" y="74.293125" style="fill: #ffffff; stroke: #ffffff; stroke-width: 1.125"/>
    </g>
   </g>
   <g id="line2d_22">
    <path d="M 186.876561 108.943125 
L 316.482842 108.943125 
" clip-path="url(#pd9c34723d3)" style="fill: none; stroke: #3d3d3d; stroke-width: 1.875; stroke-linecap: square"/>
   </g>
   <g id="line2d_23">
    <path d="M 234.626243 108.943125 
L 268.733159 108.943125 
" clip-path="url(#pd9c34723d3)" style="fill: none; stroke: #3d3d3d; stroke-width: 5.625; stroke-linecap: square"/>
   </g>
   <g id="line2d_24">
    <path d="M 255.090393 108.943125 
" clip-path="url(#pd9c34723d3)" style="fill: none; stroke: #3d3d3d; stroke-width: 1.5; stroke-linecap: square"/>
    <g clip-path="url(#pd9c34723d3)">
     <use xlink:href="#m8658829aa7" x="255.090393" y="108.943125" style="fill: #ffffff; stroke: #ffffff; stroke-width: 1.125"/>
    </g>
   </g>
   <g id="line2d_25">
    <path d="M 193.697944 143.593125 
L 302.840075 143.593125 
" clip-path="url(#pd9c34723d3)" style="fill: none; stroke: #3d3d3d; stroke-width: 1.875; stroke-linecap: square"/>
   </g>
   <g id="line2d_26">
    <path d="M 234.626243 143.593125 
L 261.911776 143.593125 
" clip-path="url(#pd9c34723d3)" style="fill: none; stroke: #3d3d3d; stroke-width: 5.625; stroke-linecap: square"/>
   </g>
   <g id="line2d_27">
    <path d="M 248.26901 143.593125 
" clip-path="url(#pd9c34723d3)" style="fill: none; stroke: #3d3d3d; stroke-width: 1.5; stroke-linecap: square"/>
    <g clip-path="url(#pd9c34723d3)">
     <use xlink:href="#m8658829aa7" x="248.26901" y="143.593125" style="fill: #ffffff; stroke: #ffffff; stroke-width: 1.125"/>
    </g>
   </g>
   <g id="line2d_28">
    <path d="M 186.876561 178.243125 
L 316.482842 178.243125 
" clip-path="url(#pd9c34723d3)" style="fill: none; stroke: #3d3d3d; stroke-width: 1.875; stroke-linecap: square"/>
   </g>
   <g id="line2d_29">
    <path d="M 234.626243 178.243125 
L 268.733159 178.243125 
" clip-path="url(#pd9c34723d3)" style="fill: none; stroke: #3d3d3d; stroke-width: 5.625; stroke-linecap: square"/>
   </g>
   <g id="line2d_30">
    <path d="M 255.090393 178.243125 
" clip-path="url(#pd9c34723d3)" style="fill: none; stroke: #3d3d3d; stroke-width: 1.5; stroke-linecap: square"/>
    <g clip-path="url(#pd9c34723d3)">
     <use xlink:href="#m8658829aa7" x="255.090393" y="178.243125" style="fill: #ffffff; stroke: #ffffff; stroke-width: 1.125"/>
    </g>
   </g>
   <g id="line2d_31">
    <path d="M 200.519327 212.893125 
L 309.661459 212.893125 
" clip-path="url(#pd9c34723d3)" style="fill: none; stroke: #3d3d3d; stroke-width: 1.875; stroke-linecap: square"/>
   </g>
   <g id="line2d_32">
    <path d="M 241.447626 212.893125 
L 268.733159 212.893125 
" clip-path="url(#pd9c34723d3)" style="fill: none; stroke: #3d3d3d; stroke-width: 5.625; stroke-linecap: square"/>
   </g>
   <g id="line2d_33">
    <path d="M 255.090393 212.893125 
" clip-path="url(#pd9c34723d3)" style="fill: none; stroke: #3d3d3d; stroke-width: 1.5; stroke-linecap: square"/>
    <g clip-path="url(#pd9c34723d3)">
     <use xlink:href="#m8658829aa7" x="255.090393" y="212.893125" style="fill: #ffffff; stroke: #ffffff; stroke-width: 1.125"/>
    </g>
   </g>
   <g id="line2d_34">
    <path d="M 180.055177 247.543125 
L 302.840075 247.543125 
" clip-path="url(#pd9c34723d3)" style="fill: none; stroke: #3d3d3d; stroke-width: 1.875; stroke-linecap: square"/>
   </g>
   <g id="line2d_35">
    <path d="M 227.80486 247.543125 
L 261.911776 247.543125 
" clip-path="url(#pd9c34723d3)" style="fill: none; stroke: #3d3d3d; stroke-width: 5.625; stroke-linecap: square"/>
   </g>
   <g id="line2d_36">
    <path d="M 248.26901 247.543125 
" clip-path="url(#pd9c34723d3)" style="fill: none; stroke: #3d3d3d; stroke-width: 1.5; stroke-linecap: square"/>
    <g clip-path="url(#pd9c34723d3)">
     <use xlink:href="#m8658829aa7" x="248.26901" y="247.543125" style="fill: #ffffff; stroke: #ffffff; stroke-width: 1.125"/>
    </g>
   </g>
   <g id="line2d_37">
    <path d="M 173.233794 282.193125 
L 330.125608 282.193125 
" clip-path="url(#pd9c34723d3)" style="fill: none; stroke: #3d3d3d; stroke-width: 1.875; stroke-linecap: square"/>
   </g>
   <g id="line2d_38">
    <path d="M 215.867439 282.193125 
L 261.911776 282.193125 
" clip-path="url(#pd9c34723d3)" style="fill: none; stroke: #3d3d3d; stroke-width: 5.625; stroke-linecap: square"/>
   </g>
   <g id="line2d_39">
    <path d="M 238.036935 282.193125 
" clip-path="url(#pd9c34723d3)" style="fill: none; stroke: #3d3d3d; stroke-width: 1.5; stroke-linecap: square"/>
    <g clip-path="url(#pd9c34723d3)">
     <use xlink:href="#m8658829aa7" x="238.036935" y="282.193125" style="fill: #ffffff; stroke: #ffffff; stroke-width: 1.125"/>
    </g>
   </g>
   <g id="patch_3">
    <path d="M 58.993437 299.518125 
L 58.993437 22.318125 
" style="fill: none; stroke: #000000; stroke-width: 0.8; stroke-linejoin: miter; stroke-linecap: square"/>
   </g>
   <g id="patch_4">
    <path d="M 505.393438 299.518125 
L 505.393438 22.318125 
" style="fill: none; stroke: #000000; stroke-width: 0.8; stroke-linejoin: miter; stroke-linecap: square"/>
   </g>
   <g id="patch_5">
    <path d="M 58.993437 299.518125 
L 505.393438 299.518125 
" style="fill: none; stroke: #000000; stroke-width: 0.8; stroke-linejoin: miter; stroke-linecap: square"/>
   </g>
   <g id="patch_6">
    <path d="M 58.993437 22.318125 
L 505.393438 22.318125 
" style="fill: none; stroke: #000000; stroke-width: 0.8; stroke-linejoin: miter; stroke-linecap: square"/>
   </g>
   <g id="text_18">
    <!-- Distribution of TCO2 by Age_Group -->
    <g transform="translate(177.508437 16.318125) scale(0.12 -0.12)">
     <defs>
      <path id="DejaVuSans-44" d="M 1259 4147 
L 1259 519 
L 2022 519 
Q 2988 519 3436 956 
Q 3884 1394 3884 2338 
Q 3884 3275 3436 3711 
Q 2988 4147 2022 4147 
L 1259 4147 
z
M 628 4666 
L 1925 4666 
Q 3281 4666 3915 4102 
Q 4550 3538 4550 2338 
Q 4550 1131 3912 565 
Q 3275 0 1925 0 
L 628 0 
L 628 4666 
z
" transform="scale(0.015625)"/>
      <path id="DejaVuSans-69" d="M 603 3500 
L 1178 3500 
L 1178 0 
L 603 0 
L 603 3500 
z
M 603 4863 
L 1178 4863 
L 1178 4134 
L 603 4134 
L 603 4863 
z
" transform="scale(0.015625)"/>
      <path id="DejaVuSans-73" d="M 2834 3397 
L 2834 2853 
Q 2591 2978 2328 3040 
Q 2066 3103 1784 3103 
Q 1356 3103 1142 2972 
Q 928 2841 928 2578 
Q 928 2378 1081 2264 
Q 1234 2150 1697 2047 
L 1894 2003 
Q 2506 1872 2764 1633 
Q 3022 1394 3022 966 
Q 3022 478 2636 193 
Q 2250 -91 1575 -91 
Q 1294 -91 989 -36 
Q 684 19 347 128 
L 347 722 
Q 666 556 975 473 
Q 1284 391 1588 391 
Q 1994 391 2212 530 
Q 2431 669 2431 922 
Q 2431 1156 2273 1281 
Q 2116 1406 1581 1522 
L 1381 1569 
Q 847 1681 609 1914 
Q 372 2147 372 2553 
Q 372 3047 722 3315 
Q 1072 3584 1716 3584 
Q 2034 3584 2315 3537 
Q 2597 3491 2834 3397 
z
" transform="scale(0.015625)"/>
      <path id="DejaVuSans-74" d="M 1172 4494 
L 1172 3500 
L 2356 3500 
L 2356 3053 
L 1172 3053 
L 1172 1153 
Q 1172 725 1289 603 
Q 1406 481 1766 481 
L 2356 481 
L 2356 0 
L 1766 0 
Q 1100 0 847 248 
Q 594 497 594 1153 
L 594 3053 
L 172 3053 
L 172 3500 
L 594 3500 
L 594 4494 
L 1172 4494 
z
" transform="scale(0.015625)"/>
      <path id="DejaVuSans-62" d="M 3116 1747 
Q 3116 2381 2855 2742 
Q 2594 3103 2138 3103 
Q 1681 3103 1420 2742 
Q 1159 2381 1159 1747 
Q 1159 1113 1420 752 
Q 1681 391 2138 391 
Q 2594 391 2855 752 
Q 3116 1113 3116 1747 
z
M 1159 2969 
Q 1341 3281 1617 3432 
Q 1894 3584 2278 3584 
Q 2916 3584 3314 3078 
Q 3713 2572 3713 1747 
Q 3713 922 3314 415 
Q 2916 -91 2278 -91 
Q 1894 -91 1617 61 
Q 1341 213 1159 525 
L 1159 0 
L 581 0 
L 581 4863 
L 1159 4863 
L 1159 2969 
z
" transform="scale(0.015625)"/>
      <path id="DejaVuSans-6e" d="M 3513 2113 
L 3513 0 
L 2938 0 
L 2938 2094 
Q 2938 2591 2744 2837 
Q 2550 3084 2163 3084 
Q 1697 3084 1428 2787 
Q 1159 2491 1159 1978 
L 1159 0 
L 581 0 
L 581 3500 
L 1159 3500 
L 1159 2956 
Q 1366 3272 1645 3428 
Q 1925 3584 2291 3584 
Q 2894 3584 3203 3211 
Q 3513 2838 3513 2113 
z
" transform="scale(0.015625)"/>
      <path id="DejaVuSans-20" transform="scale(0.015625)"/>
      <path id="DejaVuSans-66" d="M 2375 4863 
L 2375 4384 
L 1825 4384 
Q 1516 4384 1395 4259 
Q 1275 4134 1275 3809 
L 1275 3500 
L 2222 3500 
L 2222 3053 
L 1275 3053 
L 1275 0 
L 697 0 
L 697 3053 
L 147 3053 
L 147 3500 
L 697 3500 
L 697 3744 
Q 697 4328 969 4595 
Q 1241 4863 1831 4863 
L 2375 4863 
z
" transform="scale(0.015625)"/>
      <path id="DejaVuSans-79" d="M 2059 -325 
Q 1816 -950 1584 -1140 
Q 1353 -1331 966 -1331 
L 506 -1331 
L 506 -850 
L 844 -850 
Q 1081 -850 1212 -737 
Q 1344 -625 1503 -206 
L 1606 56 
L 191 3500 
L 800 3500 
L 1894 763 
L 2988 3500 
L 3597 3500 
L 2059 -325 
z
" transform="scale(0.015625)"/>
     </defs>
     <use xlink:href="#DejaVuSans-44"/>
     <use xlink:href="#DejaVuSans-69" x="77.001953"/>
     <use xlink:href="#DejaVuSans-73" x="104.785156"/>
     <use xlink:href="#DejaVuSans-74" x="156.884766"/>
     <use xlink:href="#DejaVuSans-72" x="196.09375"/>
     <use xlink:href="#DejaVuSans-69" x="237.207031"/>
     <use xlink:href="#DejaVuSans-62" x="264.990234"/>
     <use xlink:href="#DejaVuSans-75" x="328.466797"/>
     <use xlink:href="#DejaVuSans-74" x="391.845703"/>
     <use xlink:href="#DejaVuSans-69" x="431.054688"/>
     <use xlink:href="#DejaVuSans-6f" x="458.837891"/>
     <use xlink:href="#DejaVuSans-6e" x="520.019531"/>
     <use xlink:href="#DejaVuSans-20" x="583.398438"/>
     <use xlink:href="#DejaVuSans-6f" x="615.185547"/>
     <use xlink:href="#DejaVuSans-66" x="676.367188"/>
     <use xlink:href="#DejaVuSans-20" x="711.572266"/>
     <use xlink:href="#DejaVuSans-54" x="743.359375"/>
     <use xlink:href="#DejaVuSans-43" x="798.568359"/>
     <use xlink:href="#DejaVuSans-4f" x="868.392578"/>
     <use xlink:href="#DejaVuSans-32" x="947.103516"/>
     <use xlink:href="#DejaVuSans-20" x="1010.726562"/>
     <use xlink:href="#DejaVuSans-62" x="1042.513672"/>
     <use xlink:href="#DejaVuSans-79" x="1105.990234"/>
     <use xlink:href="#DejaVuSans-20" x="1165.169922"/>
     <use xlink:href="#DejaVuSans-41" x="1196.957031"/>
     <use xlink:href="#DejaVuSans-67" x="1265.365234"/>
     <use xlink:href="#DejaVuSans-65" x="1328.841797"/>
     <use xlink:href="#DejaVuSans-5f" x="1390.365234"/>
     <use xlink:href="#DejaVuSans-47" x="1440.365234"/>
     <use xlink:href="#DejaVuSans-72" x="1517.855469"/>
     <use xlink:href="#DejaVuSans-6f" x="1556.71875"/>
     <use xlink:href="#DejaVuSans-75" x="1617.900391"/>
     <use xlink:href="#DejaVuSans-70" x="1681.279297"/>
    </g>
   </g>
  </g>
 </g>
 <defs>
  <clipPath id="pd9c34723d3">
   <rect x="58.993437" y="22.318125" width="446.4" height="277.2"/>
  </clipPath>
 </defs>
</svg>
