<?xml version="1.0" encoding="utf-8" standalone="no"?>
<!DOCTYPE svg PUBLIC "-//W3C//DTD SVG 1.1//EN"
  "http://www.w3.org/Graphics/SVG/1.1/DTD/svg11.dtd">
<svg xmlns:xlink="http://www.w3.org/1999/xlink" width="608.98125pt" height="503.394375pt" viewBox="0 0 608.98125 503.394375" xmlns="http://www.w3.org/2000/svg" version="1.1">
 <metadata>
  <rdf:RDF xmlns:dc="http://purl.org/dc/elements/1.1/" xmlns:cc="http://creativecommons.org/ns#" xmlns:rdf="http://www.w3.org/1999/02/22-rdf-syntax-ns#">
   <cc:Work>
    <dc:type rdf:resource="http://purl.org/dc/dcmitype/StillImage"/>
    <dc:date>2024-08-05T23:20:10.610040</dc:date>
    <dc:format>image/svg+xml</dc:format>
    <dc:creator>
     <cc:Agent>
      <dc:title>Matplotlib v3.9.0, https://matplotlib.org/</dc:title>
     </cc:Agent>
    </dc:creator>
   </cc:Work>
  </rdf:RDF>
 </metadata>
 <defs>
  <style type="text/css">*{stroke-linejoin: round; stroke-linecap: butt}</style>
 </defs>
 <g id="figure_1">
  <g id="patch_1">
   <path d="M 0 503.394375 
L 608.98125 503.394375 
L 608.98125 0 
L 0 0 
z
" style="fill: #ffffff"/>
  </g>
  <g id="axes_1">
   <g id="patch_2">
    <path d="M 43.78125 465.838125 
L 601.78125 465.838125 
L 601.78125 22.318125 
L 43.78125 22.318125 
z
" style="fill: #ffffff"/>
   </g>
   <g id="matplotlib.axis_1">
    <g id="xtick_1">
     <g id="line2d_1">
      <defs>
       <path id="m88983ef4f8" d="M 0 0 
L 0 3.5 
" style="stroke: #000000; stroke-width: 0.8"/>
      </defs>
      <g>
       <use xlink:href="#m88983ef4f8" x="69.144886" y="465.838125" style="stroke: #000000; stroke-width: 0.8"/>
      </g>
     </g>
     <g id="text_1">
      <!-- 0.0 -->
      <g transform="translate(61.193324 480.436562) scale(0.1 -0.1)">
       <defs>
        <path id="DejaVuSans-30" d="M 2034 4250 
Q 1547 4250 1301 3770 
Q 1056 3291 1056 2328 
Q 1056 1369 1301 889 
Q 1547 409 2034 409 
Q 2525 409 2770 889 
Q 3016 1369 3016 2328 
Q 3016 3291 2770 3770 
Q 2525 4250 2034 4250 
z
M 2034 4750 
Q 2819 4750 3233 4129 
Q 3647 3509 3647 2328 
Q 3647 1150 3233 529 
Q 2819 -91 2034 -91 
Q 1250 -91 836 529 
Q 422 1150 422 2328 
Q 422 3509 836 4129 
Q 1250 4750 2034 4750 
z
" transform="scale(0.015625)"/>
        <path id="DejaVuSans-2e" d="M 684 794 
L 1344 794 
L 1344 0 
L 684 0 
L 684 794 
z
" transform="scale(0.015625)"/>
       </defs>
       <use xlink:href="#DejaVuSans-30"/>
       <use xlink:href="#DejaVuSans-2e" x="63.623047"/>
       <use xlink:href="#DejaVuSans-30" x="95.410156"/>
      </g>
     </g>
    </g>
    <g id="xtick_2">
     <g id="line2d_2">
      <g>
       <use xlink:href="#m88983ef4f8" x="170.599432" y="465.838125" style="stroke: #000000; stroke-width: 0.8"/>
      </g>
     </g>
     <g id="text_2">
      <!-- 0.2 -->
      <g transform="translate(162.647869 480.436562) scale(0.1 -0.1)">
       <defs>
        <path id="DejaVuSans-32" d="M 1228 531 
L 3431 531 
L 3431 0 
L 469 0 
L 469 531 
Q 828 903 1448 1529 
Q 2069 2156 2228 2338 
Q 2531 2678 2651 2914 
Q 2772 3150 2772 3378 
Q 2772 3750 2511 3984 
Q 2250 4219 1831 4219 
Q 1534 4219 1204 4116 
Q 875 4013 500 3803 
L 500 4441 
Q 881 4594 1212 4672 
Q 1544 4750 1819 4750 
Q 2544 4750 2975 4387 
Q 3406 4025 3406 3419 
Q 3406 3131 3298 2873 
Q 3191 2616 2906 2266 
Q 2828 2175 2409 1742 
Q 1991 1309 1228 531 
z
" transform="scale(0.015625)"/>
       </defs>
       <use xlink:href="#DejaVuSans-30"/>
       <use xlink:href="#DejaVuSans-2e" x="63.623047"/>
       <use xlink:href="#DejaVuSans-32" x="95.410156"/>
      </g>
     </g>
    </g>
    <g id="xtick_3">
     <g id="line2d_3">
      <g>
       <use xlink:href="#m88983ef4f8" x="272.053977" y="465.838125" style="stroke: #000000; stroke-width: 0.8"/>
      </g>
     </g>
     <g id="text_3">
      <!-- 0.4 -->
      <g transform="translate(264.102415 480.436562) scale(0.1 -0.1)">
       <defs>
        <path id="DejaVuSans-34" d="M 2419 4116 
L 825 1625 
L 2419 1625 
L 2419 4116 
z
M 2253 4666 
L 3047 4666 
L 3047 1625 
L 3713 1625 
L 3713 1100 
L 3047 1100 
L 3047 0 
L 2419 0 
L 2419 1100 
L 313 1100 
L 313 1709 
L 2253 4666 
z
" transform="scale(0.015625)"/>
       </defs>
       <use xlink:href="#DejaVuSans-30"/>
       <use xlink:href="#DejaVuSans-2e" x="63.623047"/>
       <use xlink:href="#DejaVuSans-34" x="95.410156"/>
      </g>
     </g>
    </g>
    <g id="xtick_4">
     <g id="line2d_4">
      <g>
       <use xlink:href="#m88983ef4f8" x="373.508523" y="465.838125" style="stroke: #000000; stroke-width: 0.8"/>
      </g>
     </g>
     <g id="text_4">
      <!-- 0.6 -->
      <g transform="translate(365.55696 480.436562) scale(0.1 -0.1)">
       <defs>
        <path id="DejaVuSans-36" d="M 2113 2584 
Q 1688 2584 1439 2293 
Q 1191 2003 1191 1497 
Q 1191 994 1439 701 
Q 1688 409 2113 409 
Q 2538 409 2786 701 
Q 3034 994 3034 1497 
Q 3034 2003 2786 2293 
Q 2538 2584 2113 2584 
z
M 3366 4563 
L 3366 3988 
Q 3128 4100 2886 4159 
Q 2644 4219 2406 4219 
Q 1781 4219 1451 3797 
Q 1122 3375 1075 2522 
Q 1259 2794 1537 2939 
Q 1816 3084 2150 3084 
Q 2853 3084 3261 2657 
Q 3669 2231 3669 1497 
Q 3669 778 3244 343 
Q 2819 -91 2113 -91 
Q 1303 -91 875 529 
Q 447 1150 447 2328 
Q 447 3434 972 4092 
Q 1497 4750 2381 4750 
Q 2619 4750 2861 4703 
Q 3103 4656 3366 4563 
z
" transform="scale(0.015625)"/>
       </defs>
       <use xlink:href="#DejaVuSans-30"/>
       <use xlink:href="#DejaVuSans-2e" x="63.623047"/>
       <use xlink:href="#DejaVuSans-36" x="95.410156"/>
      </g>
     </g>
    </g>
    <g id="xtick_5">
     <g id="line2d_5">
      <g>
       <use xlink:href="#m88983ef4f8" x="474.963068" y="465.838125" style="stroke: #000000; stroke-width: 0.8"/>
      </g>
     </g>
     <g id="text_5">
      <!-- 0.8 -->
      <g transform="translate(467.011506 480.436562) scale(0.1 -0.1)">
       <defs>
        <path id="DejaVuSans-38" d="M 2034 2216 
Q 1584 2216 1326 1975 
Q 1069 1734 1069 1313 
Q 1069 891 1326 650 
Q 1584 409 2034 409 
Q 2484 409 2743 651 
Q 3003 894 3003 1313 
Q 3003 1734 2745 1975 
Q 2488 2216 2034 2216 
z
M 1403 2484 
Q 997 2584 770 2862 
Q 544 3141 544 3541 
Q 544 4100 942 4425 
Q 1341 4750 2034 4750 
Q 2731 4750 3128 4425 
Q 3525 4100 3525 3541 
Q 3525 3141 3298 2862 
Q 3072 2584 2669 2484 
Q 3125 2378 3379 2068 
Q 3634 1759 3634 1313 
Q 3634 634 3220 271 
Q 2806 -91 2034 -91 
Q 1263 -91 848 271 
Q 434 634 434 1313 
Q 434 1759 690 2068 
Q 947 2378 1403 2484 
z
M 1172 3481 
Q 1172 3119 1398 2916 
Q 1625 2713 2034 2713 
Q 2441 2713 2670 2916 
Q 2900 3119 2900 3481 
Q 2900 3844 2670 4047 
Q 2441 4250 2034 4250 
Q 1625 4250 1398 4047 
Q 1172 3844 1172 3481 
z
" transform="scale(0.015625)"/>
       </defs>
       <use xlink:href="#DejaVuSans-30"/>
       <use xlink:href="#DejaVuSans-2e" x="63.623047"/>
       <use xlink:href="#DejaVuSans-38" x="95.410156"/>
      </g>
     </g>
    </g>
    <g id="xtick_6">
     <g id="line2d_6">
      <g>
       <use xlink:href="#m88983ef4f8" x="576.417614" y="465.838125" style="stroke: #000000; stroke-width: 0.8"/>
      </g>
     </g>
     <g id="text_6">
      <!-- 1.0 -->
      <g transform="translate(568.466051 480.436562) scale(0.1 -0.1)">
       <defs>
        <path id="DejaVuSans-31" d="M 794 531 
L 1825 531 
L 1825 4091 
L 703 3866 
L 703 4441 
L 1819 4666 
L 2450 4666 
L 2450 531 
L 3481 531 
L 3481 0 
L 794 0 
L 794 531 
z
" transform="scale(0.015625)"/>
       </defs>
       <use xlink:href="#DejaVuSans-31"/>
       <use xlink:href="#DejaVuSans-2e" x="63.623047"/>
       <use xlink:href="#DejaVuSans-30" x="95.410156"/>
      </g>
     </g>
    </g>
    <g id="text_7">
     <!-- 1 - Specificity -->
     <g transform="translate(288.847656 494.114687) scale(0.1 -0.1)">
      <defs>
       <path id="DejaVuSans-20" transform="scale(0.015625)"/>
       <path id="DejaVuSans-2d" d="M 313 2009 
L 1997 2009 
L 1997 1497 
L 313 1497 
L 313 2009 
z
" transform="scale(0.015625)"/>
       <path id="DejaVuSans-53" d="M 3425 4513 
L 3425 3897 
Q 3066 4069 2747 4153 
Q 2428 4238 2131 4238 
Q 1616 4238 1336 4038 
Q 1056 3838 1056 3469 
Q 1056 3159 1242 3001 
Q 1428 2844 1947 2747 
L 2328 2669 
Q 3034 2534 3370 2195 
Q 3706 1856 3706 1288 
Q 3706 609 3251 259 
Q 2797 -91 1919 -91 
Q 1588 -91 1214 -16 
Q 841 59 441 206 
L 441 856 
Q 825 641 1194 531 
Q 1563 422 1919 422 
Q 2459 422 2753 634 
Q 3047 847 3047 1241 
Q 3047 1584 2836 1778 
Q 2625 1972 2144 2069 
L 1759 2144 
Q 1053 2284 737 2584 
Q 422 2884 422 3419 
Q 422 4038 858 4394 
Q 1294 4750 2059 4750 
Q 2388 4750 2728 4690 
Q 3069 4631 3425 4513 
z
" transform="scale(0.015625)"/>
       <path id="DejaVuSans-70" d="M 1159 525 
L 1159 -1331 
L 581 -1331 
L 581 3500 
L 1159 3500 
L 1159 2969 
Q 1341 3281 1617 3432 
Q 1894 3584 2278 3584 
Q 2916 3584 3314 3078 
Q 3713 2572 3713 1747 
Q 3713 922 3314 415 
Q 2916 -91 2278 -91 
Q 1894 -91 1617 61 
Q 1341 213 1159 525 
z
M 3116 1747 
Q 3116 2381 2855 2742 
Q 2594 3103 2138 3103 
Q 1681 3103 1420 2742 
Q 1159 2381 1159 1747 
Q 1159 1113 1420 752 
Q 1681 391 2138 391 
Q 2594 391 2855 752 
Q 3116 1113 3116 1747 
z
" transform="scale(0.015625)"/>
       <path id="DejaVuSans-65" d="M 3597 1894 
L 3597 1613 
L 953 1613 
Q 991 1019 1311 708 
Q 1631 397 2203 397 
Q 2534 397 2845 478 
Q 3156 559 3463 722 
L 3463 178 
Q 3153 47 2828 -22 
Q 2503 -91 2169 -91 
Q 1331 -91 842 396 
Q 353 884 353 1716 
Q 353 2575 817 3079 
Q 1281 3584 2069 3584 
Q 2775 3584 3186 3129 
Q 3597 2675 3597 1894 
z
M 3022 2063 
Q 3016 2534 2758 2815 
Q 2500 3097 2075 3097 
Q 1594 3097 1305 2825 
Q 1016 2553 972 2059 
L 3022 2063 
z
" transform="scale(0.015625)"/>
       <path id="DejaVuSans-63" d="M 3122 3366 
L 3122 2828 
Q 2878 2963 2633 3030 
Q 2388 3097 2138 3097 
Q 1578 3097 1268 2742 
Q 959 2388 959 1747 
Q 959 1106 1268 751 
Q 1578 397 2138 397 
Q 2388 397 2633 464 
Q 2878 531 3122 666 
L 3122 134 
Q 2881 22 2623 -34 
Q 2366 -91 2075 -91 
Q 1284 -91 818 406 
Q 353 903 353 1747 
Q 353 2603 823 3093 
Q 1294 3584 2113 3584 
Q 2378 3584 2631 3529 
Q 2884 3475 3122 3366 
z
" transform="scale(0.015625)"/>
       <path id="DejaVuSans-69" d="M 603 3500 
L 1178 3500 
L 1178 0 
L 603 0 
L 603 3500 
z
M 603 4863 
L 1178 4863 
L 1178 4134 
L 603 4134 
L 603 4863 
z
" transform="scale(0.015625)"/>
       <path id="DejaVuSans-66" d="M 2375 4863 
L 2375 4384 
L 1825 4384 
Q 1516 4384 1395 4259 
Q 1275 4134 1275 3809 
L 1275 3500 
L 2222 3500 
L 2222 3053 
L 1275 3053 
L 1275 0 
L 697 0 
L 697 3053 
L 147 3053 
L 147 3500 
L 697 3500 
L 697 3744 
Q 697 4328 969 4595 
Q 1241 4863 1831 4863 
L 2375 4863 
z
" transform="scale(0.015625)"/>
       <path id="DejaVuSans-74" d="M 1172 4494 
L 1172 3500 
L 2356 3500 
L 2356 3053 
L 1172 3053 
L 1172 1153 
Q 1172 725 1289 603 
Q 1406 481 1766 481 
L 2356 481 
L 2356 0 
L 1766 0 
Q 1100 0 847 248 
Q 594 497 594 1153 
L 594 3053 
L 172 3053 
L 172 3500 
L 594 3500 
L 594 4494 
L 1172 4494 
z
" transform="scale(0.015625)"/>
       <path id="DejaVuSans-79" d="M 2059 -325 
Q 1816 -950 1584 -1140 
Q 1353 -1331 966 -1331 
L 506 -1331 
L 506 -850 
L 844 -850 
Q 1081 -850 1212 -737 
Q 1344 -625 1503 -206 
L 1606 56 
L 191 3500 
L 800 3500 
L 1894 763 
L 2988 3500 
L 3597 3500 
L 2059 -325 
z
" transform="scale(0.015625)"/>
      </defs>
      <use xlink:href="#DejaVuSans-31"/>
      <use xlink:href="#DejaVuSans-20" x="63.623047"/>
      <use xlink:href="#DejaVuSans-2d" x="95.410156"/>
      <use xlink:href="#DejaVuSans-20" x="131.494141"/>
      <use xlink:href="#DejaVuSans-53" x="163.28125"/>
      <use xlink:href="#DejaVuSans-70" x="226.757812"/>
      <use xlink:href="#DejaVuSans-65" x="290.234375"/>
      <use xlink:href="#DejaVuSans-63" x="351.757812"/>
      <use xlink:href="#DejaVuSans-69" x="406.738281"/>
      <use xlink:href="#DejaVuSans-66" x="434.521484"/>
      <use xlink:href="#DejaVuSans-69" x="469.726562"/>
      <use xlink:href="#DejaVuSans-63" x="497.509766"/>
      <use xlink:href="#DejaVuSans-69" x="552.490234"/>
      <use xlink:href="#DejaVuSans-74" x="580.273438"/>
      <use xlink:href="#DejaVuSans-79" x="619.482422"/>
     </g>
    </g>
   </g>
   <g id="matplotlib.axis_2">
    <g id="ytick_1">
     <g id="line2d_7">
      <defs>
       <path id="ma876034faa" d="M 0 0 
L -3.5 0 
" style="stroke: #000000; stroke-width: 0.8"/>
      </defs>
      <g>
       <use xlink:href="#ma876034faa" x="43.78125" y="445.678125" style="stroke: #000000; stroke-width: 0.8"/>
      </g>
     </g>
     <g id="text_8">
      <!-- 0.0 -->
      <g transform="translate(20.878125 449.477344) scale(0.1 -0.1)">
       <use xlink:href="#DejaVuSans-30"/>
       <use xlink:href="#DejaVuSans-2e" x="63.623047"/>
       <use xlink:href="#DejaVuSans-30" x="95.410156"/>
      </g>
     </g>
    </g>
    <g id="ytick_2">
     <g id="line2d_8">
      <g>
       <use xlink:href="#ma876034faa" x="43.78125" y="365.038125" style="stroke: #000000; stroke-width: 0.8"/>
      </g>
     </g>
     <g id="text_9">
      <!-- 0.2 -->
      <g transform="translate(20.878125 368.837344) scale(0.1 -0.1)">
       <use xlink:href="#DejaVuSans-30"/>
       <use xlink:href="#DejaVuSans-2e" x="63.623047"/>
       <use xlink:href="#DejaVuSans-32" x="95.410156"/>
      </g>
     </g>
    </g>
    <g id="ytick_3">
     <g id="line2d_9">
      <g>
       <use xlink:href="#ma876034faa" x="43.78125" y="284.398125" style="stroke: #000000; stroke-width: 0.8"/>
      </g>
     </g>
     <g id="text_10">
      <!-- 0.4 -->
      <g transform="translate(20.878125 288.197344) scale(0.1 -0.1)">
       <use xlink:href="#DejaVuSans-30"/>
       <use xlink:href="#DejaVuSans-2e" x="63.623047"/>
       <use xlink:href="#DejaVuSans-34" x="95.410156"/>
      </g>
     </g>
    </g>
    <g id="ytick_4">
     <g id="line2d_10">
      <g>
       <use xlink:href="#ma876034faa" x="43.78125" y="203.758125" style="stroke: #000000; stroke-width: 0.8"/>
      </g>
     </g>
     <g id="text_11">
      <!-- 0.6 -->
      <g transform="translate(20.878125 207.557344) scale(0.1 -0.1)">
       <use xlink:href="#DejaVuSans-30"/>
       <use xlink:href="#DejaVuSans-2e" x="63.623047"/>
       <use xlink:href="#DejaVuSans-36" x="95.410156"/>
      </g>
     </g>
    </g>
    <g id="ytick_5">
     <g id="line2d_11">
      <g>
       <use xlink:href="#ma876034faa" x="43.78125" y="123.118125" style="stroke: #000000; stroke-width: 0.8"/>
      </g>
     </g>
     <g id="text_12">
      <!-- 0.8 -->
      <g transform="translate(20.878125 126.917344) scale(0.1 -0.1)">
       <use xlink:href="#DejaVuSans-30"/>
       <use xlink:href="#DejaVuSans-2e" x="63.623047"/>
       <use xlink:href="#DejaVuSans-38" x="95.410156"/>
      </g>
     </g>
    </g>
    <g id="ytick_6">
     <g id="line2d_12">
      <g>
       <use xlink:href="#ma876034faa" x="43.78125" y="42.478125" style="stroke: #000000; stroke-width: 0.8"/>
      </g>
     </g>
     <g id="text_13">
      <!-- 1.0 -->
      <g transform="translate(20.878125 46.277344) scale(0.1 -0.1)">
       <use xlink:href="#DejaVuSans-31"/>
       <use xlink:href="#DejaVuSans-2e" x="63.623047"/>
       <use xlink:href="#DejaVuSans-30" x="95.410156"/>
      </g>
     </g>
    </g>
    <g id="text_14">
     <!-- Sensitivity -->
     <g transform="translate(14.798438 270.108594) rotate(-90) scale(0.1 -0.1)">
      <defs>
       <path id="DejaVuSans-6e" d="M 3513 2113 
L 3513 0 
L 2938 0 
L 2938 2094 
Q 2938 2591 2744 2837 
Q 2550 3084 2163 3084 
Q 1697 3084 1428 2787 
Q 1159 2491 1159 1978 
L 1159 0 
L 581 0 
L 581 3500 
L 1159 3500 
L 1159 2956 
Q 1366 3272 1645 3428 
Q 1925 3584 2291 3584 
Q 2894 3584 3203 3211 
Q 3513 2838 3513 2113 
z
" transform="scale(0.015625)"/>
       <path id="DejaVuSans-73" d="M 2834 3397 
L 2834 2853 
Q 2591 2978 2328 3040 
Q 2066 3103 1784 3103 
Q 1356 3103 1142 2972 
Q 928 2841 928 2578 
Q 928 2378 1081 2264 
Q 1234 2150 1697 2047 
L 1894 2003 
Q 2506 1872 2764 1633 
Q 3022 1394 3022 966 
Q 3022 478 2636 193 
Q 2250 -91 1575 -91 
Q 1294 -91 989 -36 
Q 684 19 347 128 
L 347 722 
Q 666 556 975 473 
Q 1284 391 1588 391 
Q 1994 391 2212 530 
Q 2431 669 2431 922 
Q 2431 1156 2273 1281 
Q 2116 1406 1581 1522 
L 1381 1569 
Q 847 1681 609 1914 
Q 372 2147 372 2553 
Q 372 3047 722 3315 
Q 1072 3584 1716 3584 
Q 2034 3584 2315 3537 
Q 2597 3491 2834 3397 
z
" transform="scale(0.015625)"/>
       <path id="DejaVuSans-76" d="M 191 3500 
L 800 3500 
L 1894 563 
L 2988 3500 
L 3597 3500 
L 2284 0 
L 1503 0 
L 191 3500 
z
" transform="scale(0.015625)"/>
      </defs>
      <use xlink:href="#DejaVuSans-53"/>
      <use xlink:href="#DejaVuSans-65" x="63.476562"/>
      <use xlink:href="#DejaVuSans-6e" x="125"/>
      <use xlink:href="#DejaVuSans-73" x="188.378906"/>
      <use xlink:href="#DejaVuSans-69" x="240.478516"/>
      <use xlink:href="#DejaVuSans-74" x="268.261719"/>
      <use xlink:href="#DejaVuSans-69" x="307.470703"/>
      <use xlink:href="#DejaVuSans-76" x="335.253906"/>
      <use xlink:href="#DejaVuSans-69" x="394.433594"/>
      <use xlink:href="#DejaVuSans-74" x="422.216797"/>
      <use xlink:href="#DejaVuSans-79" x="461.425781"/>
     </g>
    </g>
   </g>
   <g id="line2d_13">
    <path d="M 69.144886 445.678125 
L 69.600166 441.638045 
L 69.873334 441.638045 
L 69.96439 439.618005 
L 70.237558 439.618005 
L 70.328614 437.193957 
L 70.692838 437.193957 
L 70.692838 434.365901 
L 70.87495 434.365901 
L 70.966005 432.34586 
L 71.057061 432.34586 
L 71.148117 429.113796 
L 71.512341 429.113796 
L 71.603397 422.649668 
L 71.694453 422.649668 
L 71.694453 419.417604 
L 71.876565 419.417604 
L 71.967621 417.397564 
L 72.149733 417.397564 
L 72.240789 410.933436 
L 72.422901 410.933436 
L 72.422901 408.10538 
L 72.605013 408.10538 
L 72.696069 407.297363 
L 72.787125 407.297363 
L 72.787125 405.681331 
L 73.060292 405.681331 
L 73.151348 402.045259 
L 73.242404 402.045259 
L 73.33346 400.429227 
L 73.424516 400.429227 
L 73.424516 399.217203 
L 73.697684 399.217203 
L 73.697684 397.197163 
L 73.879796 397.197163 
L 73.970852 393.561091 
L 74.061908 393.561091 
L 74.152964 391.945059 
L 74.335076 391.945059 
L 74.426132 386.692955 
L 74.517188 386.692955 
L 74.608244 385.480931 
L 74.6993 385.480931 
L 74.6993 384.672915 
L 74.972468 384.672915 
L 74.972468 383.864899 
L 75.154579 383.864899 
L 75.245635 382.652874 
L 75.336691 382.652874 
L 75.427747 381.44085 
L 75.609859 381.44085 
L 75.700915 380.228826 
L 75.791971 380.228826 
L 75.791971 379.824818 
L 75.974083 379.824818 
L 76.065139 378.612794 
L 76.156195 378.612794 
L 76.156195 376.996762 
L 76.338307 376.996762 
L 76.338307 375.784738 
L 76.611475 375.784738 
L 76.702531 374.976722 
L 76.793587 374.976722 
L 76.793587 372.148666 
L 76.975699 372.148666 
L 77.066754 370.532634 
L 77.15781 370.532634 
L 77.15781 369.724618 
L 77.430978 369.724618 
L 77.522034 365.684538 
L 77.61309 365.684538 
L 77.704146 364.472514 
L 77.795202 364.472514 
L 77.795202 362.048466 
L 77.977314 362.048466 
L 77.977314 361.644458 
L 78.705762 361.644458 
L 78.796818 358.008386 
L 78.887874 358.008386 
L 78.97893 357.200369 
L 79.252097 357.200369 
L 79.252097 356.796361 
L 79.434209 356.796361 
L 79.525265 355.180329 
L 79.616321 355.180329 
L 79.707377 353.160289 
L 80.253713 353.160289 
L 80.253713 352.756281 
L 80.617937 352.756281 
L 80.617937 352.352273 
L 81.073217 352.352273 
L 81.164272 351.544257 
L 81.255328 351.544257 
L 81.346384 349.928225 
L 81.528496 349.928225 
L 81.619552 347.908185 
L 81.801664 347.908185 
L 81.89272 345.888145 
L 82.165888 345.888145 
L 82.165888 343.464097 
L 82.348 343.464097 
L 82.439056 340.636041 
L 82.530112 340.636041 
L 82.621168 339.828025 
L 82.894336 339.828025 
L 82.985392 338.211993 
L 83.167503 338.211993 
L 83.258559 336.595961 
L 83.349615 336.595961 
L 83.349615 335.383937 
L 83.622783 335.383937 
L 83.713839 332.555881 
L 83.804895 332.555881 
L 83.804895 331.343856 
L 84.078063 331.343856 
L 84.169119 330.53584 
L 84.260175 330.53584 
L 84.351231 329.727824 
L 84.533343 329.727824 
L 84.624399 328.919808 
L 84.897567 328.919808 
L 84.897567 325.687744 
L 85.079679 325.687744 
L 85.079679 321.647664 
L 85.26179 321.647664 
L 85.26179 321.243656 
L 85.534958 321.243656 
L 85.626014 317.203576 
L 85.71707 317.203576 
L 85.71707 315.587544 
L 85.990238 315.587544 
L 86.081294 314.37552 
L 86.17235 314.37552 
L 86.17235 313.567504 
L 86.354462 313.567504 
L 86.354462 313.163496 
L 86.718686 313.163496 
L 86.718686 312.759488 
L 87.173966 312.759488 
L 87.265021 311.951472 
L 87.447133 311.951472 
L 87.447133 311.143456 
L 87.811357 311.143456 
L 87.811357 309.931432 
L 87.993469 309.931432 
L 88.084525 306.699367 
L 88.266637 306.699367 
L 88.357693 305.891351 
L 88.448749 305.891351 
L 88.539805 305.083335 
L 88.630861 305.083335 
L 88.721917 303.063295 
L 88.812973 303.063295 
L 88.904029 300.639247 
L 88.995085 300.639247 
L 89.086141 297.407183 
L 89.359308 297.407183 
L 89.359308 297.003175 
L 89.54142 297.003175 
L 89.632476 295.791151 
L 89.723532 295.791151 
L 89.723532 294.579127 
L 89.905644 294.579127 
L 89.9967 292.559087 
L 90.087756 292.559087 
L 90.087756 291.347063 
L 90.45198 291.347063 
L 90.45198 290.943055 
L 90.634092 290.943055 
L 90.634092 288.923015 
L 90.816204 288.923015 
L 90.90726 288.114999 
L 90.998316 288.114999 
L 90.998316 286.902975 
L 91.362539 286.902975 
L 91.362539 286.498967 
L 91.908875 286.498967 
L 91.999931 285.690951 
L 92.090987 285.690951 
L 92.182043 283.266903 
L 92.273099 283.266903 
L 92.273099 282.862895 
L 92.637323 282.862895 
L 92.637323 282.458887 
L 92.819435 282.458887 
L 92.819435 281.65087 
L 93.092603 281.65087 
L 93.092603 281.246862 
L 93.274715 281.246862 
L 93.274715 280.842854 
L 93.638938 280.842854 
L 93.638938 280.438846 
L 93.82105 280.438846 
L 93.82105 279.63083 
L 94.27633 279.63083 
L 94.27633 279.226822 
L 94.458442 279.226822 
L 94.458442 278.014798 
L 94.913722 278.014798 
L 94.913722 275.59075 
L 95.095834 275.59075 
L 95.095834 275.186742 
L 95.551113 275.186742 
L 95.642169 273.57071 
L 95.824281 273.57071 
L 95.824281 273.166702 
L 96.006393 273.166702 
L 96.097449 272.358686 
L 96.188505 272.358686 
L 96.279561 270.742654 
L 96.370617 270.742654 
L 96.370617 269.934638 
L 96.552729 269.934638 
L 96.552729 269.126622 
L 96.916953 269.126622 
L 96.916953 267.51059 
L 97.099065 267.51059 
L 97.099065 267.106582 
L 97.281177 267.106582 
L 97.372233 265.894558 
L 97.463288 265.894558 
L 97.554344 263.066502 
L 97.6454 263.066502 
L 97.736456 261.45047 
L 98.009624 261.45047 
L 98.10068 260.642454 
L 98.191736 260.642454 
L 98.282792 258.622414 
L 98.373848 258.622414 
L 98.373848 257.41039 
L 98.55596 257.41039 
L 98.647016 256.198365 
L 98.829128 256.198365 
L 98.920184 254.178325 
L 99.01124 254.178325 
L 99.102296 253.370309 
L 99.193352 253.370309 
L 99.193352 252.966301 
L 99.375464 252.966301 
L 99.375464 251.350269 
L 99.557575 251.350269 
L 99.557575 250.542253 
L 99.830743 250.542253 
L 99.921799 249.330229 
L 100.012855 249.330229 
L 100.103911 246.906181 
L 100.194967 246.906181 
L 100.194967 245.694157 
L 100.468135 245.694157 
L 100.468135 245.290149 
L 100.741303 245.290149 
L 100.741303 243.270109 
L 101.014471 243.270109 
L 101.105527 241.654077 
L 101.651862 241.654077 
L 101.742918 240.038045 
L 101.833974 240.038045 
L 101.92503 238.422013 
L 102.38031 238.422013 
L 102.471366 237.613997 
L 102.653478 237.613997 
L 102.653478 236.401973 
L 102.83559 236.401973 
L 102.926646 233.977925 
L 103.017702 233.977925 
L 103.017702 233.573917 
L 103.199814 233.573917 
L 103.199814 232.765901 
L 103.381926 232.765901 
L 103.472982 231.957885 
L 103.655093 231.957885 
L 103.655093 231.149868 
L 103.837205 231.149868 
L 103.837205 230.74586 
L 104.019317 230.74586 
L 104.110373 229.937844 
L 104.201429 229.937844 
L 104.201429 228.72582 
L 104.474597 228.72582 
L 104.474597 227.917804 
L 104.656709 227.917804 
L 104.747765 226.301772 
L 105.111989 226.301772 
L 105.203045 225.493756 
L 105.294101 225.493756 
L 105.294101 224.281732 
L 105.476213 224.281732 
L 105.567269 223.473716 
L 105.840436 223.473716 
L 105.931492 221.049668 
L 106.20466 221.049668 
L 106.295716 219.837644 
L 106.568884 219.837644 
L 106.65994 219.029628 
L 106.933108 219.029628 
L 106.933108 218.221612 
L 107.11522 218.221612 
L 107.206276 217.009588 
L 107.5705 217.009588 
L 107.661555 216.201572 
L 108.116835 216.201572 
L 108.116835 214.989548 
L 108.390003 214.989548 
L 108.390003 214.58554 
L 108.572115 214.58554 
L 108.663171 212.161492 
L 108.754227 212.161492 
L 108.754227 211.353476 
L 109.027395 211.353476 
L 109.027395 210.949468 
L 109.209507 210.949468 
L 109.209507 210.54546 
L 109.664786 210.54546 
L 109.755842 209.333436 
L 110.02901 209.333436 
L 110.120066 208.52542 
L 110.211122 208.52542 
L 110.211122 208.121412 
L 110.575346 208.121412 
L 110.575346 207.313396 
L 110.848514 207.313396 
L 110.848514 206.909388 
L 111.39485 206.909388 
L 111.39485 206.50538 
L 111.668018 206.50538 
L 111.759073 205.697363 
L 111.941185 205.697363 
L 111.941185 204.889347 
L 112.214353 204.889347 
L 112.214353 202.869307 
L 112.578577 202.869307 
L 112.578577 202.061291 
L 112.760689 202.061291 
L 112.760689 201.657283 
L 113.124913 201.657283 
L 113.124913 201.253275 
L 113.580193 201.253275 
L 113.671249 199.233235 
L 113.944416 199.233235 
L 114.035472 198.021211 
L 114.126528 198.021211 
L 114.217584 196.405179 
L 114.76392 196.405179 
L 114.76392 195.597163 
L 114.946032 195.597163 
L 114.946032 194.385139 
L 115.128144 194.385139 
L 115.2192 192.365099 
L 115.401312 192.365099 
L 115.401312 191.557083 
L 115.67448 191.557083 
L 115.765536 190.749067 
L 115.947647 190.749067 
L 115.947647 190.345059 
L 116.311871 190.345059 
L 116.402927 189.133035 
L 116.585039 189.133035 
L 116.585039 188.729027 
L 116.858207 188.729027 
L 116.858207 187.921011 
L 117.040319 187.921011 
L 117.131375 186.304979 
L 117.859822 186.304979 
L 117.950878 184.688947 
L 118.13299 184.688947 
L 118.13299 184.284939 
L 118.315102 184.284939 
L 118.406158 182.668907 
L 118.58827 182.668907 
L 118.58827 182.264899 
L 119.589886 182.264899 
L 119.589886 181.456883 
L 119.954109 181.456883 
L 120.045165 180.648866 
L 120.136221 180.648866 
L 120.227277 179.436842 
L 120.318333 179.436842 
L 120.318333 178.628826 
L 120.682557 178.628826 
L 120.773613 176.608786 
L 121.502061 176.608786 
L 121.593117 175.396762 
L 122.321564 175.396762 
L 122.41262 174.184738 
L 122.594732 174.184738 
L 122.594732 173.376722 
L 124.051627 173.376722 
L 124.051627 172.972714 
L 124.597963 172.972714 
L 124.597963 172.568706 
L 124.780075 172.568706 
L 124.871131 171.356682 
L 125.599579 171.356682 
L 125.599579 170.144658 
L 125.963803 170.144658 
L 126.054858 168.528626 
L 126.328026 168.528626 
L 126.328026 167.316602 
L 126.510138 167.316602 
L 126.510138 166.508586 
L 126.965418 166.508586 
L 127.056474 165.70057 
L 127.420698 165.70057 
L 127.511754 164.084538 
L 127.60281 164.084538 
L 127.60281 162.872514 
L 127.784922 162.872514 
L 127.784922 161.66049 
L 128.877593 161.66049 
L 128.968649 160.448466 
L 129.059705 160.448466 
L 129.059705 160.044458 
L 129.241817 160.044458 
L 129.241817 159.64045 
L 129.606041 159.64045 
L 129.606041 159.236442 
L 130.06132 159.236442 
L 130.06132 158.832434 
L 130.243432 158.832434 
L 130.243432 158.428426 
L 130.5166 158.428426 
L 130.5166 158.024418 
L 130.789768 158.024418 
L 130.880824 157.216402 
L 130.97188 157.216402 
L 130.97188 156.812394 
L 131.245048 156.812394 
L 131.245048 156.408386 
L 131.791384 156.408386 
L 131.88244 155.600369 
L 132.155607 155.600369 
L 132.155607 154.792353 
L 132.428775 154.792353 
L 132.428775 154.388345 
L 133.066167 154.388345 
L 133.066167 153.984337 
L 133.248279 153.984337 
L 133.248279 153.176321 
L 133.521447 153.176321 
L 133.521447 152.772313 
L 133.794615 152.772313 
L 133.794615 151.560289 
L 133.976727 151.560289 
L 133.976727 150.752273 
L 134.432006 150.752273 
L 134.432006 150.348265 
L 134.79623 150.348265 
L 134.79623 149.944257 
L 135.069398 149.944257 
L 135.160454 148.732233 
L 135.342566 148.732233 
L 135.433622 147.924217 
L 135.888902 147.924217 
L 135.888902 147.116201 
L 136.071014 147.116201 
L 136.16207 145.500169 
L 136.435237 145.500169 
L 136.435237 145.096161 
L 137.345797 145.096161 
L 137.345797 144.692153 
L 137.892133 144.692153 
L 137.892133 143.480129 
L 138.165301 143.480129 
L 138.165301 143.076121 
L 138.438468 143.076121 
L 138.529524 142.268105 
L 138.711636 142.268105 
L 138.711636 141.864097 
L 138.984804 141.864097 
L 139.07586 140.652073 
L 139.166916 140.652073 
L 139.166916 139.844057 
L 139.53114 139.844057 
L 139.53114 139.440049 
L 139.895364 139.440049 
L 139.98642 138.632033 
L 141.079091 138.632033 
L 141.170147 137.824017 
L 141.261203 137.824017 
L 141.261203 137.016001 
L 141.989651 137.016001 
L 141.989651 136.611993 
L 142.535986 136.611993 
L 142.627042 135.803977 
L 142.809154 135.803977 
L 142.809154 135.399969 
L 143.173378 135.399969 
L 143.173378 134.187945 
L 143.992882 134.187945 
L 143.992882 133.783937 
L 144.357105 133.783937 
L 144.357105 133.379929 
L 144.994497 133.379929 
L 144.994497 132.975921 
L 145.996113 132.975921 
L 146.087169 132.167905 
L 147.088784 132.167905 
L 147.088784 131.763897 
L 147.453008 131.763897 
L 147.453008 131.359889 
L 147.999344 131.359889 
L 147.999344 130.955881 
L 148.272512 130.955881 
L 148.272512 130.551872 
L 148.818847 130.551872 
L 148.818847 130.147864 
L 149.365183 130.147864 
L 149.365183 128.531832 
L 149.729407 128.531832 
L 149.729407 128.127824 
L 150.093631 128.127824 
L 150.184687 127.319808 
L 150.731022 127.319808 
L 150.731022 126.9158 
L 151.641582 126.9158 
L 151.641582 126.511792 
L 151.823694 126.511792 
L 151.823694 125.703776 
L 152.096862 125.703776 
L 152.096862 125.299768 
L 152.825309 125.299768 
L 152.825309 124.491752 
L 153.462701 124.491752 
L 153.462701 124.087744 
L 154.555372 124.087744 
L 154.555372 123.683736 
L 155.465932 123.683736 
L 155.465932 122.87572 
L 156.467548 122.87572 
L 156.558604 122.067704 
L 156.740715 122.067704 
L 156.740715 120.85568 
L 156.922827 120.85568 
L 156.922827 120.451672 
L 157.742331 120.451672 
L 157.742331 119.239648 
L 158.106555 119.239648 
L 158.106555 118.83564 
L 158.561835 118.83564 
L 158.561835 118.431632 
L 159.654506 118.431632 
L 159.654506 118.027624 
L 161.293513 118.027624 
L 161.293513 117.623616 
L 161.748793 117.623616 
L 161.839849 116.411592 
L 163.205688 116.411592 
L 163.205688 115.603576 
L 165.755255 115.603576 
L 165.755255 115.199568 
L 167.030038 115.199568 
L 167.030038 114.79556 
L 167.940598 114.79556 
L 167.940598 114.391552 
L 169.579605 114.391552 
L 169.579605 113.583536 
L 170.490165 113.583536 
L 170.490165 113.179528 
L 170.763333 113.179528 
L 170.763333 112.77552 
L 174.041347 112.77552 
L 174.132403 111.563496 
L 174.860851 111.563496 
L 174.860851 111.159488 
L 175.589298 111.159488 
L 175.589298 110.351472 
L 175.77141 110.351472 
L 175.77141 109.947464 
L 175.953522 109.947464 
L 175.953522 109.543456 
L 176.68197 109.543456 
L 176.773026 108.331432 
L 176.955138 108.331432 
L 176.955138 107.927424 
L 177.501473 107.927424 
L 177.592529 107.119408 
L 177.865697 107.119408 
L 177.865697 106.7154 
L 178.412033 106.7154 
L 178.503089 105.907384 
L 179.504704 105.907384 
L 179.504704 105.099367 
L 183.511166 105.099367 
L 183.511166 104.695359 
L 183.693278 104.695359 
L 183.693278 104.291351 
L 184.33067 104.291351 
L 184.33067 103.887343 
L 184.603838 103.887343 
L 184.603838 103.483335 
L 184.78595 103.483335 
L 184.78595 103.079327 
L 185.241229 103.079327 
L 185.241229 102.675319 
L 185.605453 102.675319 
L 185.605453 102.271311 
L 186.151789 102.271311 
L 186.151789 101.867303 
L 186.607069 101.867303 
L 186.607069 100.655279 
L 189.702971 100.655279 
L 189.702971 100.251271 
L 190.067195 100.251271 
L 190.067195 99.847263 
L 190.704587 99.847263 
L 190.704587 99.443255 
L 191.159867 99.443255 
L 191.159867 99.039247 
L 191.706202 99.039247 
L 191.706202 98.635239 
L 192.707818 98.635239 
L 192.707818 98.231231 
L 193.527321 98.231231 
L 193.527321 97.827223 
L 193.982601 97.827223 
L 193.982601 97.423215 
L 194.255769 97.423215 
L 194.255769 97.019207 
L 195.621608 97.019207 
L 195.621608 96.615199 
L 196.896392 96.615199 
L 196.896392 96.211191 
L 197.624839 96.211191 
L 197.624839 95.807183 
L 198.080119 95.807183 
L 198.080119 95.403175 
L 200.629686 95.403175 
L 200.629686 94.999167 
L 201.540245 94.999167 
L 201.540245 94.595159 
L 202.541861 94.595159 
L 202.541861 94.191151 
L 203.816644 94.191151 
L 203.816644 93.787143 
L 204.636148 93.787143 
L 204.636148 93.383135 
L 205.091428 93.383135 
L 205.091428 92.575119 
L 206.639379 92.575119 
L 206.639379 92.171111 
L 206.912547 92.171111 
L 206.912547 91.767103 
L 207.549939 91.767103 
L 207.549939 91.363095 
L 208.551554 91.363095 
L 208.551554 90.959087 
L 209.917393 90.959087 
L 209.917393 90.555079 
L 212.740128 90.555079 
L 212.740128 90.151071 
L 212.92224 90.151071 
L 212.92224 89.747063 
L 214.105967 89.747063 
L 214.105967 89.343055 
L 214.288079 89.343055 
L 214.288079 88.939047 
L 214.743359 88.939047 
L 214.743359 88.535039 
L 217.110814 88.535039 
L 217.110814 88.131031 
L 218.112429 88.131031 
L 218.112429 87.727023 
L 218.294541 87.727023 
L 218.294541 87.323015 
L 219.387213 87.323015 
L 219.387213 86.919007 
L 222.483115 86.919007 
L 222.483115 86.514999 
L 223.848955 86.514999 
L 223.848955 86.110991 
L 224.031066 86.110991 
L 224.031066 85.706983 
L 224.486346 85.706983 
L 224.486346 85.302975 
L 225.123738 85.302975 
L 225.123738 84.898967 
L 225.579018 84.898967 
L 225.579018 84.494959 
L 226.580633 84.494959 
L 226.580633 84.090951 
L 231.770823 84.090951 
L 231.770823 83.282935 
L 234.411445 83.282935 
L 234.411445 82.878927 
L 235.777285 82.878927 
L 235.777285 82.474919 
L 236.32362 82.474919 
L 236.32362 82.070911 
L 236.687844 82.070911 
L 236.687844 81.666903 
L 238.053684 81.666903 
L 238.053684 81.262895 
L 238.508963 81.262895 
L 238.508963 80.858887 
L 240.785362 80.858887 
L 240.785362 80.454879 
L 241.695922 80.454879 
L 241.695922 80.05087 
L 246.612943 80.05087 
L 246.612943 79.646862 
L 247.159279 79.646862 
L 247.159279 79.242854 
L 248.069839 79.242854 
L 248.069839 78.838846 
L 248.251951 78.838846 
L 248.251951 78.434838 
L 252.349469 78.434838 
L 252.349469 78.03083 
L 258.085994 78.03083 
L 258.085994 77.626822 
L 262.547736 77.626822 
L 262.547736 77.222814 
L 264.733078 77.222814 
L 264.733078 76.818806 
L 267.009477 76.818806 
L 267.009477 76.414798 
L 268.830596 76.414798 
L 268.830596 76.01079 
L 271.653331 76.01079 
L 271.653331 75.606782 
L 273.838674 75.606782 
L 273.838674 75.202774 
L 277.389856 75.202774 
L 277.389856 74.798766 
L 279.848367 74.798766 
L 279.848367 74.394758 
L 280.303647 74.394758 
L 280.303647 73.99075 
L 280.941039 73.99075 
L 280.941039 73.586742 
L 281.942654 73.586742 
L 281.942654 72.778726 
L 282.397934 72.778726 
L 282.397934 72.374718 
L 286.495452 72.374718 
L 286.495452 71.97071 
L 287.223899 71.97071 
L 287.223899 71.566702 
L 288.134459 71.566702 
L 288.134459 71.162694 
L 290.501914 71.162694 
L 290.501914 70.758686 
L 291.230361 70.758686 
L 291.230361 70.354678 
L 292.778313 70.354678 
L 292.778313 69.95067 
L 293.779928 69.95067 
L 293.779928 69.546662 
L 296.329495 69.546662 
L 296.329495 69.142654 
L 296.784775 69.142654 
L 296.784775 68.738646 
L 298.970118 68.738646 
L 298.970118 68.334638 
L 299.516453 68.334638 
L 299.516453 67.93063 
L 299.789621 67.93063 
L 299.789621 67.526622 
L 303.249748 67.526622 
L 303.249748 67.122614 
L 308.439937 67.122614 
L 308.439937 66.718606 
L 309.987888 66.718606 
L 309.987888 66.314598 
L 310.261056 66.314598 
L 310.261056 65.91059 
L 311.626895 65.91059 
L 311.626895 65.506582 
L 312.628511 65.506582 
L 312.719567 64.698566 
L 314.995966 64.698566 
L 314.995966 64.294558 
L 318.365036 64.294558 
L 318.365036 63.89055 
L 321.005659 63.89055 
L 321.005659 63.486542 
L 322.007274 63.486542 
L 322.007274 63.082534 
L 325.285289 63.082534 
L 325.285289 62.678526 
L 333.207157 62.678526 
L 333.207157 62.274518 
L 334.117716 62.274518 
L 334.117716 61.87051 
L 334.48194 61.87051 
L 334.48194 61.466502 
L 334.846164 61.466502 
L 334.846164 61.062494 
L 341.948529 61.062494 
L 341.948529 60.658486 
L 342.221696 60.658486 
L 342.312752 59.446462 
L 342.859088 59.446462 
L 342.859088 59.042454 
L 344.680207 59.042454 
L 344.680207 58.638446 
L 347.502942 58.638446 
L 347.502942 58.234438 
L 351.782572 58.234438 
L 351.782572 57.83043 
L 357.063817 57.83043 
L 357.063817 57.426422 
L 358.429657 57.426422 
L 358.429657 57.022414 
L 359.067048 57.022414 
L 359.067048 56.618406 
L 359.613384 56.618406 
L 359.613384 56.214398 
L 360.068664 56.214398 
L 360.068664 55.81039 
L 363.893014 55.81039 
L 363.893014 55.406382 
L 369.629539 55.406382 
L 369.629539 55.002373 
L 378.097743 55.002373 
L 378.097743 54.598365 
L 379.463582 54.598365 
L 379.463582 54.194357 
L 395.48943 54.194357 
L 395.48943 53.386341 
L 400.042228 53.386341 
L 400.042228 52.982333 
L 404.95925 52.982333 
L 404.95925 52.578325 
L 412.516894 52.578325 
L 412.516894 52.174317 
L 418.799755 52.174317 
L 418.799755 51.770309 
L 419.255035 51.770309 
L 419.255035 51.366301 
L 420.894042 51.366301 
L 420.894042 50.962293 
L 423.898888 50.962293 
L 423.898888 50.558285 
L 429.999637 50.558285 
L 429.999637 50.154277 
L 434.370323 50.154277 
L 434.370323 49.750269 
L 451.215675 49.750269 
L 451.215675 49.346261 
L 454.03841 49.346261 
L 454.03841 48.942253 
L 454.584745 48.942253 
L 454.584745 48.538245 
L 455.495305 48.538245 
L 455.495305 48.134237 
L 458.31804 48.134237 
L 458.31804 47.730229 
L 458.591207 47.730229 
L 458.591207 47.326221 
L 468.88053 47.326221 
L 468.88053 46.922213 
L 478.623518 46.922213 
L 478.623518 46.518205 
L 485.179546 46.518205 
L 485.179546 46.114197 
L 488.366505 46.114197 
L 488.366505 45.710189 
L 492.737191 45.710189 
L 492.737191 45.306181 
L 505.029745 45.306181 
L 505.029745 44.902173 
L 508.945151 44.902173 
L 508.945151 44.498165 
L 514.317452 44.498165 
L 514.317452 44.094157 
L 514.863788 44.094157 
L 514.863788 43.690149 
L 544.365917 43.690149 
L 544.365917 43.286141 
L 552.834121 43.286141 
L 552.834121 42.882133 
L 573.503823 42.882133 
L 573.503823 42.478125 
L 576.417614 42.478125 
L 576.417614 42.478125 
" clip-path="url(#pa4c19241da)" style="fill: none; stroke: #1f77b4; stroke-width: 1.5; stroke-linecap: square"/>
   </g>
   <g id="line2d_14">
    <path d="M 69.144886 445.678125 
L 71.311877 427.777068 
L 71.410376 425.503918 
L 71.508876 425.503918 
L 71.607375 423.799055 
L 71.705875 423.799055 
L 71.804374 419.252755 
L 72.001374 419.252755 
L 72.001374 417.263749 
L 72.198373 417.263749 
L 72.296872 416.695461 
L 72.395372 416.695461 
L 72.493871 414.706455 
L 72.592371 414.706455 
L 72.69087 411.865017 
L 72.78937 411.865017 
L 72.88787 410.444298 
L 73.183368 410.444298 
L 73.281868 405.897998 
L 73.380367 405.897998 
L 73.478867 404.761423 
L 73.675866 404.761423 
L 73.774366 401.067554 
L 73.872865 401.067554 
L 73.971365 400.215123 
L 74.069864 400.215123 
L 74.069864 399.646835 
L 74.365363 399.646835 
L 74.463863 397.657829 
L 74.562362 397.657829 
L 74.660862 396.805398 
L 74.857861 396.805398 
L 74.95636 395.952966 
L 75.05486 395.952966 
L 75.05486 395.668823 
L 75.251859 395.668823 
L 75.350359 394.816391 
L 75.448858 394.816391 
L 75.448858 393.679816 
L 75.645857 393.679816 
L 75.744357 392.543241 
L 75.842856 392.543241 
L 75.941356 391.974954 
L 76.039855 391.974954 
L 76.039855 389.985947 
L 76.236855 389.985947 
L 76.335354 388.849372 
L 76.433854 388.849372 
L 76.532353 387.996941 
L 76.630853 387.996941 
L 76.729352 385.155503 
L 76.827852 385.155503 
L 76.926352 382.314066 
L 77.123351 382.314066 
L 77.123351 382.029922 
L 77.911347 382.029922 
L 78.009847 379.472628 
L 78.108346 379.472628 
L 78.206846 378.904341 
L 78.403845 378.904341 
L 78.403845 378.336053 
L 78.600844 378.336053 
L 78.699344 377.199478 
L 78.797843 377.199478 
L 78.896343 375.778759 
L 79.290341 375.778759 
L 79.290341 374.642184 
L 79.58584 374.642184 
L 79.58584 374.35804 
L 79.979838 374.35804 
L 80.078337 373.505609 
L 80.176837 373.505609 
L 80.275336 372.369034 
L 80.373836 372.369034 
L 80.472336 370.380028 
L 80.570835 370.380028 
L 80.669335 368.959309 
L 80.964833 368.959309 
L 80.964833 367.254446 
L 81.161833 367.254446 
L 81.260332 365.26544 
L 81.358832 365.26544 
L 81.457331 364.697152 
L 81.75283 364.697152 
L 81.851329 363.560577 
L 82.048329 363.560577 
L 82.146828 362.424002 
L 82.245328 362.424002 
L 82.245328 361.571571 
L 82.540826 361.571571 
L 82.639326 359.582565 
L 82.737825 359.582565 
L 82.737825 358.730133 
L 83.033324 358.730133 
L 83.131824 357.593558 
L 83.230323 357.593558 
L 83.328823 356.17284 
L 83.525822 356.17284 
L 83.525822 353.615546 
L 83.722821 353.615546 
L 83.722821 350.774108 
L 83.91982 350.774108 
L 83.91982 350.205821 
L 84.116819 350.205821 
L 84.215319 347.364383 
L 84.313818 347.364383 
L 84.412318 345.943664 
L 84.510818 345.943664 
L 84.609317 345.091233 
L 84.707817 345.091233 
L 84.707817 344.522945 
L 84.904816 344.522945 
L 84.904816 343.670514 
L 85.101815 343.670514 
L 85.101815 343.38637 
L 85.495813 343.38637 
L 85.594313 342.533939 
L 85.791312 342.533939 
L 85.791312 341.965651 
L 86.18531 341.965651 
L 86.18531 341.11322 
L 86.382309 341.11322 
L 86.480809 338.84007 
L 86.677808 338.84007 
L 86.776307 338.271783 
L 86.874807 338.271783 
L 86.973306 337.703495 
L 87.071806 337.703495 
L 87.170306 336.282776 
L 87.268805 336.282776 
L 87.367305 334.577914 
L 87.465804 334.577914 
L 87.564304 332.304763 
L 87.662803 332.304763 
L 87.761303 331.736476 
L 87.859803 331.736476 
L 87.958302 330.599901 
L 88.056802 330.599901 
L 88.056802 329.74747 
L 88.253801 329.74747 
L 88.3523 327.190176 
L 88.4508 327.190176 
L 88.549299 326.337744 
L 88.746299 326.337744 
L 88.746299 324.917026 
L 88.943298 324.917026 
L 89.041797 323.212163 
L 89.238796 323.212163 
L 89.337296 322.643876 
L 89.731294 322.643876 
L 89.829794 322.075588 
L 89.928293 322.075588 
L 90.026793 321.223157 
L 90.125292 321.223157 
L 90.223792 319.802438 
L 90.519291 319.802438 
L 90.519291 319.23415 
L 90.71629 319.23415 
L 90.814789 318.381719 
L 90.913289 318.381719 
L 91.011788 317.245144 
L 91.110288 317.245144 
L 91.208788 316.676857 
L 91.405787 316.676857 
L 91.504286 315.824425 
L 91.799785 315.824425 
L 91.898284 314.403706 
L 92.390782 314.403706 
L 92.390782 312.698844 
L 92.587781 312.698844 
L 92.686281 312.130556 
L 92.88328 312.130556 
L 92.98178 310.709837 
L 93.178779 310.709837 
L 93.178779 310.425694 
L 93.375778 310.425694 
L 93.474277 309.857406 
L 93.572777 309.857406 
L 93.671276 307.8684 
L 93.868276 307.8684 
L 93.868276 306.731825 
L 94.065275 306.731825 
L 94.065275 305.59525 
L 94.262274 305.59525 
L 94.360773 304.458675 
L 94.459273 304.458675 
L 94.557773 302.469668 
L 94.656272 302.469668 
L 94.754772 300.764806 
L 95.05027 300.764806 
L 95.14877 300.196518 
L 95.247269 300.196518 
L 95.345769 298.775799 
L 95.444269 298.775799 
L 95.542768 297.070937 
L 95.641268 297.070937 
L 95.641268 296.786793 
L 95.838267 296.786793 
L 95.936766 295.366074 
L 96.035266 295.366074 
L 96.133765 294.229499 
L 96.330765 294.229499 
L 96.330765 293.092924 
L 96.527764 293.092924 
L 96.527764 292.524637 
L 96.823262 292.524637 
L 96.921762 291.672205 
L 97.020261 291.672205 
L 97.118761 289.967343 
L 97.217261 289.967343 
L 97.217261 289.114911 
L 97.512759 289.114911 
L 97.512759 288.830768 
L 97.808258 288.830768 
L 97.906758 287.125905 
L 98.005257 287.125905 
L 98.005257 285.705186 
L 98.596254 285.705186 
L 98.694754 284.568611 
L 98.793254 284.568611 
L 98.891753 283.432036 
L 99.088752 283.432036 
L 99.088752 283.147892 
L 99.285751 283.147892 
L 99.384251 282.579605 
L 99.58125 282.579605 
L 99.58125 281.727174 
L 99.778249 281.727174 
L 99.876749 279.454024 
L 100.073748 279.454024 
L 100.172247 278.317448 
L 100.270747 278.317448 
L 100.270747 278.033305 
L 100.467746 278.033305 
L 100.467746 277.465017 
L 100.664745 277.465017 
L 100.664745 277.180873 
L 100.861744 277.180873 
L 100.960244 275.476011 
L 101.255742 275.476011 
L 101.255742 274.907723 
L 101.452742 274.907723 
L 101.452742 273.487004 
L 101.84674 273.487004 
L 101.945239 271.782142 
L 102.142239 271.782142 
L 102.240738 271.213854 
L 102.536237 271.213854 
L 102.634736 269.224848 
L 102.733236 269.224848 
L 102.831735 268.088273 
L 103.127234 268.088273 
L 103.225734 267.235842 
L 103.324233 267.235842 
L 103.324233 266.38341 
L 103.521232 266.38341 
L 103.619732 265.530979 
L 103.915231 265.530979 
L 104.01373 264.678548 
L 104.210729 264.678548 
L 104.210729 264.394404 
L 104.407728 264.394404 
L 104.407728 263.541973 
L 104.703227 263.541973 
L 104.703227 263.257829 
L 104.900226 263.257829 
L 104.998726 261.552966 
L 105.097225 261.552966 
L 105.097225 260.984679 
L 105.392724 260.984679 
L 105.491224 259.848104 
L 105.589723 259.848104 
L 105.688223 258.995673 
L 105.786722 258.995673 
L 105.885222 258.143241 
L 105.983721 258.143241 
L 106.082221 257.574954 
L 106.18072 257.574954 
L 106.27922 256.722522 
L 106.37772 256.722522 
L 106.37772 256.154235 
L 106.673218 256.154235 
L 106.673218 255.585947 
L 107.165716 255.585947 
L 107.264216 254.449372 
L 107.362715 254.449372 
L 107.461215 253.312797 
L 107.756713 253.312797 
L 107.756713 251.892078 
L 108.150712 251.892078 
L 108.150712 251.323791 
L 108.347711 251.323791 
L 108.347711 251.039647 
L 108.741709 251.039647 
L 108.840209 250.47136 
L 108.938708 250.47136 
L 109.037208 248.482353 
L 109.234207 248.482353 
L 109.332706 245.640916 
L 109.923704 245.640916 
L 110.022203 243.936053 
L 110.120703 243.936053 
L 110.219202 242.231191 
L 110.416201 242.231191 
L 110.416201 241.662903 
L 110.613201 241.662903 
L 110.7117 240.810472 
L 110.908699 240.810472 
L 110.908699 240.526328 
L 111.302697 240.526328 
L 111.401197 239.673897 
L 111.598196 239.673897 
L 111.598196 239.105609 
L 111.795195 239.105609 
L 111.795195 238.537322 
L 111.992194 238.537322 
L 112.090694 237.400747 
L 112.189194 237.400747 
L 112.189194 237.116603 
L 112.681691 237.116603 
L 112.780191 235.41174 
L 112.87869 235.41174 
L 112.87869 235.127596 
L 113.07569 235.127596 
L 113.174189 233.991021 
L 113.371188 233.991021 
L 113.371188 233.706878 
L 113.863686 233.706878 
L 113.863686 233.422734 
L 114.356184 233.422734 
L 114.356184 232.854446 
L 114.750182 232.854446 
L 114.848682 230.86544 
L 114.947181 230.86544 
L 115.045681 230.013009 
L 115.24268 230.013009 
L 115.341179 228.59229 
L 115.538179 228.59229 
L 115.538179 228.308146 
L 115.735178 228.308146 
L 115.833677 226.603284 
L 116.227675 226.603284 
L 116.227675 226.31914 
L 116.424675 226.31914 
L 116.523174 225.182565 
L 116.720173 225.182565 
L 116.818673 224.330133 
L 117.902168 224.330133 
L 118.000667 223.477702 
L 118.099167 223.477702 
L 118.099167 223.193558 
L 118.493165 223.193558 
L 118.493165 222.909415 
L 118.690164 222.909415 
L 118.788664 222.056983 
L 119.281162 222.056983 
L 119.281162 221.77284 
L 119.478161 221.77284 
L 119.478161 220.920408 
L 119.872159 220.920408 
L 119.872159 219.499689 
L 120.167658 219.499689 
L 120.167658 218.647258 
L 120.364657 218.647258 
L 120.364657 218.078971 
L 120.561656 218.078971 
L 120.561656 217.794827 
L 120.758655 217.794827 
L 120.857155 217.226539 
L 120.955654 217.226539 
L 121.054154 216.089964 
L 121.152653 216.089964 
L 121.251153 212.964383 
L 122.334648 212.964383 
L 122.433148 212.111952 
L 122.531647 212.111952 
L 122.630147 211.25952 
L 123.024145 211.25952 
L 123.024145 210.691233 
L 123.418143 210.691233 
L 123.418143 210.407089 
L 123.615142 210.407089 
L 123.713642 209.838802 
L 123.812141 209.838802 
L 123.812141 209.554658 
L 124.009141 209.554658 
L 124.10764 208.133939 
L 124.403139 208.133939 
L 124.403139 207.849795 
L 124.994136 207.849795 
L 125.092636 206.997364 
L 125.289635 206.997364 
L 125.289635 206.144933 
L 125.486634 206.144933 
L 125.486634 205.860789 
L 125.782133 205.860789 
L 125.782133 205.576645 
L 126.077631 205.576645 
L 126.176131 204.155926 
L 126.37313 204.155926 
L 126.37313 203.871783 
L 126.668629 203.871783 
L 126.668629 203.019351 
L 126.865628 203.019351 
L 126.865628 202.451064 
L 127.358126 202.451064 
L 127.358126 202.16692 
L 127.752124 202.16692 
L 127.850623 200.177914 
L 128.047622 200.177914 
L 128.146122 199.609626 
L 128.343121 199.609626 
L 128.441621 198.188907 
L 128.54012 198.188907 
L 128.63862 197.052332 
L 128.934118 197.052332 
L 128.934118 196.768188 
L 129.722115 196.768188 
L 129.820615 195.631613 
L 130.214613 195.631613 
L 130.313112 193.926751 
L 130.608611 193.926751 
L 130.707111 193.358463 
L 130.90411 193.358463 
L 131.002609 192.790176 
L 131.101109 192.790176 
L 131.199608 191.937744 
L 131.298108 191.937744 
L 131.298108 191.085313 
L 131.593607 191.085313 
L 131.593607 190.801169 
L 131.987605 190.801169 
L 132.086104 190.232882 
L 132.677102 190.232882 
L 132.677102 189.948738 
L 132.874101 189.948738 
L 132.874101 189.664594 
L 133.0711 189.664594 
L 133.1696 188.243876 
L 133.957596 188.243876 
L 133.957596 187.959732 
L 134.154595 187.959732 
L 134.154595 187.391444 
L 134.351594 187.391444 
L 134.450094 186.823157 
L 134.647093 186.823157 
L 134.647093 186.539013 
L 135.041091 186.539013 
L 135.041091 185.402438 
L 135.33659 185.402438 
L 135.435089 183.981719 
L 135.533589 183.981719 
L 135.533589 183.697575 
L 135.730588 183.697575 
L 135.829088 183.129288 
L 136.321585 183.129288 
L 136.420085 182.561 
L 136.518585 182.561 
L 136.518585 182.276857 
L 137.208081 182.276857 
L 137.306581 181.708569 
L 137.799079 181.708569 
L 137.799079 181.424425 
L 138.291577 181.424425 
L 138.291577 181.140281 
L 138.685575 181.140281 
L 138.685575 180.856138 
L 138.882574 180.856138 
L 138.882574 180.571994 
L 139.079573 180.571994 
L 139.079573 180.003706 
L 139.375072 180.003706 
L 139.375072 179.719563 
L 139.86757 179.719563 
L 139.86757 179.151275 
L 140.458567 179.151275 
L 140.458567 177.446413 
L 140.655566 177.446413 
L 140.655566 177.162269 
L 141.049564 177.162269 
L 141.148064 176.593981 
L 141.443562 176.593981 
L 141.443562 176.309837 
L 141.640562 176.309837 
L 141.640562 176.025694 
L 142.625557 176.025694 
L 142.625557 175.74155 
L 142.822556 175.74155 
L 142.822556 175.173262 
L 143.019555 175.173262 
L 143.019555 174.604975 
L 143.709052 174.604975 
L 143.709052 173.4684 
L 144.30005 173.4684 
L 144.30005 173.184256 
L 144.891047 173.184256 
L 144.891047 172.900112 
L 145.383545 172.900112 
L 145.383545 172.331825 
L 146.270041 172.331825 
L 146.270041 171.763537 
L 146.46704 171.763537 
L 146.46704 171.479393 
L 146.762539 171.479393 
L 146.762539 171.19525 
L 147.156537 171.19525 
L 147.255036 168.9221 
L 147.353536 168.9221 
L 147.353536 168.637956 
L 147.649035 168.637956 
L 147.649035 168.353812 
L 148.141532 168.353812 
L 148.141532 167.501381 
L 148.535531 167.501381 
L 148.535531 167.217237 
L 148.831029 167.217237 
L 148.929529 166.364806 
L 149.520526 166.364806 
L 149.520526 166.080662 
L 149.717525 166.080662 
L 149.717525 164.659943 
L 151.293518 164.659943 
L 151.293518 164.375799 
L 151.786016 164.375799 
L 151.786016 162.955081 
L 151.983015 162.955081 
L 151.983015 162.670937 
L 152.377013 162.670937 
L 152.377013 162.386793 
L 152.968011 162.386793 
L 152.968011 161.818506 
L 153.559008 161.818506 
L 153.559008 161.534362 
L 155.627499 161.534362 
L 155.627499 161.250218 
L 157.006493 161.250218 
L 157.006493 160.966074 
L 157.991488 160.966074 
L 157.991488 160.68193 
L 158.483986 160.68193 
L 158.582486 160.113643 
L 159.567481 160.113643 
L 159.567481 159.545355 
L 159.76448 159.545355 
L 159.76448 159.261212 
L 159.961479 159.261212 
L 159.961479 158.977068 
L 160.355478 158.977068 
L 160.355478 158.692924 
L 160.650976 158.692924 
L 160.650976 158.40878 
L 161.044975 158.40878 
L 161.044975 158.124637 
L 161.438973 158.124637 
L 161.438973 157.840493 
L 161.734472 157.840493 
L 161.734472 157.556349 
L 161.931471 157.556349 
L 161.931471 156.703918 
L 162.325469 156.703918 
L 162.325469 156.13563 
L 163.014966 156.13563 
L 163.014966 155.851487 
L 163.310464 155.851487 
L 163.408964 154.999055 
L 164.196961 154.999055 
L 164.196961 154.714911 
L 164.39396 154.714911 
L 164.492459 154.146624 
L 164.787958 154.146624 
L 164.787958 153.578336 
L 164.984957 153.578336 
L 164.984957 153.294193 
L 165.181956 153.294193 
L 165.181956 153.010049 
L 165.871453 153.010049 
L 165.969953 151.873474 
L 166.068452 151.873474 
L 166.166952 151.021043 
L 166.265451 151.021043 
L 166.363951 150.168611 
L 166.46245 150.168611 
L 166.46245 149.884467 
L 166.757949 149.884467 
L 166.757949 149.600324 
L 166.954948 149.600324 
L 166.954948 149.31618 
L 167.250447 149.31618 
L 167.250447 148.463749 
L 168.333942 148.463749 
L 168.333942 147.895461 
L 168.924939 147.895461 
L 168.924939 147.611317 
L 169.121938 147.611317 
L 169.121938 147.327174 
L 169.417437 147.327174 
L 169.417437 147.04303 
L 169.811435 147.04303 
L 169.811435 146.474742 
L 170.008434 146.474742 
L 170.008434 146.190599 
L 170.205434 146.190599 
L 170.205434 145.906455 
L 171.978426 145.906455 
L 172.076925 145.054024 
L 172.273924 145.054024 
L 172.273924 144.76988 
L 172.667923 144.76988 
L 172.667923 144.485736 
L 172.963421 144.485736 
L 172.963421 144.201592 
L 173.16042 144.201592 
L 173.16042 143.917448 
L 173.652918 143.917448 
L 173.751418 143.349161 
L 173.948417 143.349161 
L 174.046916 142.49673 
L 174.243915 142.49673 
L 174.243915 141.928442 
L 174.440915 141.928442 
L 174.539414 140.507723 
L 174.736413 140.507723 
L 174.736413 140.22358 
L 175.819908 140.22358 
L 175.819908 139.939436 
L 177.494401 139.939436 
L 177.5929 139.371148 
L 177.7899 139.371148 
L 177.7899 138.518717 
L 178.479397 138.518717 
L 178.479397 138.234573 
L 178.971894 138.234573 
L 178.971894 137.950429 
L 179.168893 137.950429 
L 179.168893 137.382142 
L 179.365893 137.382142 
L 179.365893 137.097998 
L 179.661391 137.097998 
L 179.661391 136.813854 
L 179.85839 136.813854 
L 179.85839 136.529711 
L 180.252389 136.529711 
L 180.252389 136.245567 
L 181.138885 136.245567 
L 181.138885 135.961423 
L 181.631382 135.961423 
L 181.631382 135.677279 
L 181.926881 135.677279 
L 181.926881 135.393136 
L 183.404374 135.393136 
L 183.404374 135.108992 
L 183.699873 135.108992 
L 183.699873 134.824848 
L 183.896872 134.824848 
L 183.995372 134.256561 
L 184.48787 134.256561 
L 184.48787 133.972417 
L 184.684869 133.972417 
L 184.684869 133.688273 
L 185.177367 133.688273 
L 185.177367 133.404129 
L 185.669864 133.404129 
L 185.669864 133.119985 
L 185.866863 133.119985 
L 185.866863 132.835842 
L 186.162362 132.835842 
L 186.162362 132.551698 
L 186.359361 132.551698 
L 186.359361 131.98341 
L 186.65486 131.98341 
L 186.65486 131.699267 
L 186.851859 131.699267 
L 186.851859 131.415123 
L 187.836855 131.415123 
L 187.836855 131.130979 
L 188.427852 131.130979 
L 188.427852 130.846835 
L 188.723351 130.846835 
L 188.723351 130.562692 
L 189.806846 130.562692 
L 189.806846 130.278548 
L 191.18584 130.278548 
L 191.284339 129.426117 
L 191.875336 129.426117 
L 191.875336 129.141973 
L 192.367834 129.141973 
L 192.367834 128.573685 
L 192.958832 128.573685 
L 192.958832 128.289541 
L 193.648329 128.289541 
L 193.648329 128.005398 
L 193.845328 128.005398 
L 193.845328 127.721254 
L 194.140826 127.721254 
L 194.140826 127.152966 
L 194.731824 127.152966 
L 194.731824 126.868823 
L 195.224321 126.868823 
L 195.224321 126.584679 
L 195.716819 126.584679 
L 195.716819 126.300535 
L 196.504816 126.300535 
L 196.504816 126.016391 
L 196.800314 126.016391 
L 196.800314 125.732248 
L 196.997314 125.732248 
L 196.997314 125.448104 
L 197.194313 125.448104 
L 197.194313 125.16396 
L 199.065804 125.16396 
L 199.065804 124.879816 
L 199.262803 124.879816 
L 199.262803 124.595673 
L 199.755301 124.595673 
L 199.755301 124.311529 
L 199.9523 124.311529 
L 199.9523 124.027385 
L 200.444798 124.027385 
L 200.543298 123.174954 
L 200.937296 123.174954 
L 200.937296 122.89081 
L 201.134295 122.89081 
L 201.134295 122.606666 
L 201.626793 122.606666 
L 201.626793 122.322522 
L 202.907287 122.322522 
L 202.907287 121.754235 
L 203.793783 121.754235 
L 203.892283 121.185947 
L 204.48328 121.185947 
L 204.48328 120.901804 
L 204.877278 120.901804 
L 204.877278 120.61766 
L 205.074277 120.61766 
L 205.074277 120.333516 
L 206.256272 120.333516 
L 206.256272 120.049372 
L 206.453271 120.049372 
L 206.551771 119.196941 
L 206.945769 119.196941 
L 206.945769 118.628654 
L 207.438267 118.628654 
L 207.438267 118.34451 
L 208.029264 118.34451 
L 208.127764 117.776222 
L 208.817261 117.776222 
L 208.91576 117.207935 
L 209.605257 117.207935 
L 209.605257 116.639647 
L 209.999255 116.639647 
L 209.999255 116.355503 
L 210.196254 116.355503 
L 210.294754 115.787216 
L 210.590253 115.787216 
L 210.590253 115.503072 
L 211.27975 115.503072 
L 211.27975 115.218928 
L 211.772247 115.218928 
L 211.772247 114.650641 
L 212.757243 114.650641 
L 212.757243 114.366497 
L 213.643739 114.366497 
L 213.643739 114.082353 
L 213.939238 114.082353 
L 213.939238 113.514066 
L 216.795725 113.514066 
L 216.795725 113.229922 
L 217.682221 113.229922 
L 217.78072 112.093347 
L 219.553712 112.093347 
L 219.553712 111.809203 
L 220.538708 111.809203 
L 220.538708 111.525059 
L 221.129705 111.525059 
L 221.129705 111.240916 
L 221.425204 111.240916 
L 221.425204 110.956772 
L 221.819202 110.956772 
L 221.819202 110.672628 
L 222.4102 110.672628 
L 222.4102 110.388484 
L 222.705698 110.388484 
L 222.705698 109.820197 
L 224.183192 109.820197 
L 224.281691 109.251909 
L 224.57719 109.251909 
L 224.57719 108.967766 
L 226.153183 108.967766 
L 226.153183 108.683622 
L 226.645681 108.683622 
L 226.645681 108.399478 
L 226.84268 108.399478 
L 226.84268 107.831191 
L 227.729176 107.831191 
L 227.729176 107.547047 
L 229.10817 107.547047 
L 229.10817 107.262903 
L 229.403668 107.262903 
L 229.502168 106.410472 
L 231.37366 106.410472 
L 231.37366 106.126328 
L 232.555654 106.126328 
L 232.555654 105.842184 
L 232.851153 105.842184 
L 232.851153 105.55804 
L 233.048152 105.55804 
L 233.048152 105.273897 
L 233.54065 105.273897 
L 233.54065 104.989753 
L 233.836148 104.989753 
L 233.836148 104.421465 
L 234.033148 104.421465 
L 234.033148 104.137322 
L 235.412141 104.137322 
L 235.412141 103.853178 
L 237.776131 103.853178 
L 237.776131 103.28489 
L 238.170129 103.28489 
L 238.170129 103.000747 
L 238.958126 103.000747 
L 238.958126 102.716603 
L 239.253624 102.716603 
L 239.253624 102.432459 
L 240.632618 102.432459 
L 240.632618 102.148315 
L 241.322115 102.148315 
L 241.322115 101.864172 
L 241.814613 101.864172 
L 241.814613 101.580028 
L 243.193607 101.580028 
L 243.193607 101.295884 
L 243.784604 101.295884 
L 243.784604 101.01174 
L 244.7696 101.01174 
L 244.868099 100.443453 
L 245.754595 100.443453 
L 245.754595 99.875165 
L 248.217084 99.875165 
L 248.217084 99.591021 
L 249.891577 99.591021 
L 249.891577 99.306878 
L 250.482574 99.306878 
L 250.482574 99.022734 
L 250.778073 99.022734 
L 250.778073 98.73859 
L 250.975072 98.73859 
L 250.975072 98.454446 
L 251.861568 98.454446 
L 251.861568 98.170303 
L 252.649564 98.170303 
L 252.649564 97.886159 
L 253.437561 97.886159 
L 253.437561 97.602015 
L 254.521056 97.602015 
L 254.521056 97.317871 
L 255.210553 97.317871 
L 255.210553 96.749584 
L 257.279043 96.749584 
L 257.279043 96.181296 
L 257.673042 96.181296 
L 257.673042 95.897152 
L 259.150535 95.897152 
L 259.150535 95.613009 
L 259.446034 95.613009 
L 259.446034 95.328865 
L 262.204021 95.328865 
L 262.204021 95.044721 
L 263.189017 95.044721 
L 263.189017 94.476434 
L 264.469511 94.476434 
L 264.469511 94.19229 
L 264.76501 94.19229 
L 264.76501 93.624002 
L 265.454507 93.624002 
L 265.454507 93.339859 
L 265.947005 93.339859 
L 265.947005 93.055715 
L 266.144004 93.055715 
L 266.144004 92.771571 
L 266.341003 92.771571 
L 266.439502 92.203284 
L 266.735001 92.203284 
L 266.735001 91.91914 
L 267.424498 91.91914 
L 267.424498 91.350852 
L 267.916996 91.350852 
L 267.916996 91.066709 
L 268.803492 91.066709 
L 268.803492 90.782565 
L 272.152477 90.782565 
L 272.250976 89.64599 
L 272.743474 89.64599 
L 272.743474 89.361846 
L 273.038973 89.361846 
L 273.038973 89.077702 
L 273.531471 89.077702 
L 273.531471 88.509415 
L 275.796961 88.509415 
L 275.796961 88.225271 
L 275.99396 88.225271 
L 275.99396 87.941127 
L 276.781956 87.941127 
L 276.781956 87.37284 
L 277.963951 87.37284 
L 277.963951 87.088696 
L 278.259449 87.088696 
L 278.259449 86.804552 
L 279.342945 86.804552 
L 279.342945 86.520408 
L 280.32794 86.520408 
L 280.32794 86.236265 
L 281.608434 86.236265 
L 281.608434 85.952121 
L 281.903933 85.952121 
L 281.903933 85.667977 
L 282.100932 85.667977 
L 282.199432 84.815546 
L 282.987428 84.815546 
L 282.987428 84.531402 
L 284.169423 84.531402 
L 284.169423 84.247258 
L 284.366422 84.247258 
L 284.366422 83.963114 
L 284.957419 83.963114 
L 284.957419 83.678971 
L 285.252918 83.678971 
L 285.252918 83.394827 
L 286.040915 83.394827 
L 286.139414 82.826539 
L 288.010906 82.826539 
L 288.010906 82.542396 
L 288.700403 82.542396 
L 288.700403 82.258252 
L 290.670394 82.258252 
L 290.670394 81.974108 
L 291.261391 81.974108 
L 291.261391 81.689964 
L 293.625381 81.689964 
L 293.625381 81.405821 
L 294.019379 81.405821 
L 294.019379 80.837533 
L 295.595372 80.837533 
L 295.595372 80.553389 
L 295.792371 80.553389 
L 295.792371 79.985102 
L 297.269864 79.985102 
L 297.269864 79.700958 
L 298.353359 79.700958 
L 298.353359 78.848527 
L 300.815848 78.848527 
L 300.815848 78.564383 
L 303.081338 78.564383 
L 303.081338 78.280239 
L 304.361833 78.280239 
L 304.460332 77.711952 
L 304.558832 77.711952 
L 304.558832 77.427808 
L 306.331824 77.427808 
L 306.331824 77.143664 
L 306.528823 77.143664 
L 306.528823 76.85952 
L 306.725822 76.85952 
L 306.725822 76.291233 
L 307.11982 76.291233 
L 307.11982 76.007089 
L 307.710818 76.007089 
L 307.710818 75.722945 
L 308.104816 75.722945 
L 308.104816 75.438802 
L 308.301815 75.438802 
L 308.400314 74.870514 
L 310.271806 74.870514 
L 310.370306 74.302226 
L 310.567305 74.302226 
L 310.665804 73.733939 
L 310.862803 73.733939 
L 310.862803 73.449795 
L 313.325292 73.449795 
L 313.325292 73.165651 
L 317.462274 73.165651 
L 317.462274 72.881508 
L 317.954772 72.881508 
L 317.954772 72.597364 
L 318.742768 72.597364 
L 318.742768 72.029076 
L 319.727764 72.029076 
L 319.727764 71.744933 
L 320.121762 71.744933 
L 320.121762 71.460789 
L 320.51576 71.460789 
L 320.51576 71.176645 
L 323.372247 71.176645 
L 323.372247 70.892501 
L 324.258743 70.892501 
L 324.258743 70.608358 
L 328.001727 70.608358 
L 328.001727 70.04007 
L 328.198726 70.04007 
L 328.297225 68.903495 
L 328.395725 68.903495 
L 328.395725 68.619351 
L 328.691224 68.619351 
L 328.691224 68.335207 
L 330.661215 68.335207 
L 330.661215 68.051064 
L 331.843209 68.051064 
L 331.843209 67.76692 
L 333.320703 67.76692 
L 333.320703 67.482776 
L 333.517702 67.482776 
L 333.517702 67.198632 
L 338.147181 67.198632 
L 338.147181 66.914489 
L 341.397667 66.914489 
L 341.397667 66.630345 
L 343.761656 66.630345 
L 343.761656 66.346201 
L 345.239149 66.346201 
L 345.239149 66.062057 
L 345.731647 66.062057 
L 345.830147 65.49377 
L 346.421144 65.49377 
L 346.421144 65.209626 
L 346.913642 65.209626 
L 347.012141 64.641339 
L 347.110641 64.641339 
L 347.110641 64.357195 
L 347.603139 64.357195 
L 347.603139 64.073051 
L 350.558126 64.073051 
L 350.656625 63.504763 
L 352.823615 63.504763 
L 352.823615 63.22062 
L 354.301109 63.22062 
L 354.301109 62.936476 
L 355.384604 62.936476 
L 355.384604 62.652332 
L 355.975601 62.652332 
L 355.975601 62.368188 
L 356.468099 62.368188 
L 356.468099 62.084045 
L 363.166069 62.084045 
L 363.166069 61.799901 
L 364.939061 61.799901 
L 364.939061 61.515757 
L 365.23456 61.515757 
L 365.333059 60.94747 
L 366.810553 60.94747 
L 366.810553 60.663326 
L 368.780544 60.663326 
L 368.780544 60.379182 
L 373.607022 60.379182 
L 373.607022 60.095038 
L 379.615495 60.095038 
L 379.615495 59.810895 
L 380.206493 59.810895 
L 380.206493 59.526751 
L 383.752477 59.526751 
L 383.752477 58.958463 
L 384.638973 58.958463 
L 384.638973 58.67432 
L 386.510464 58.67432 
L 386.510464 58.390176 
L 388.480456 58.390176 
L 388.480456 58.106032 
L 390.745945 58.106032 
L 390.745945 57.821888 
L 393.700932 57.821888 
L 393.700932 57.537744 
L 396.852918 57.537744 
L 396.852918 57.253601 
L 397.640915 57.253601 
L 397.640915 56.969457 
L 398.72441 56.969457 
L 398.72441 56.685313 
L 401.580897 56.685313 
L 401.580897 56.401169 
L 404.437384 56.401169 
L 404.437384 56.117026 
L 408.278867 56.117026 
L 408.278867 55.832882 
L 408.672865 55.832882 
L 408.672865 55.264594 
L 409.362362 55.264594 
L 409.362362 54.980451 
L 409.657861 54.980451 
L 409.657861 54.696307 
L 410.248858 54.696307 
L 410.347358 54.128019 
L 411.923351 54.128019 
L 411.923351 53.843876 
L 413.302344 53.843876 
L 413.302344 53.559732 
L 414.681338 53.559732 
L 414.681338 53.275588 
L 415.370835 53.275588 
L 415.370835 52.991444 
L 419.704816 52.991444 
L 419.704816 52.7073 
L 423.447799 52.7073 
L 423.447799 52.423157 
L 424.334295 52.423157 
L 424.334295 52.139013 
L 425.910288 52.139013 
L 425.910288 51.854869 
L 433.396254 51.854869 
L 433.396254 51.570725 
L 442.359714 51.570725 
L 442.359714 51.286582 
L 445.413201 51.286582 
L 445.413201 51.002438 
L 446.004198 51.002438 
L 446.004198 50.718294 
L 446.989194 50.718294 
L 446.989194 50.43415 
L 449.451682 50.43415 
L 449.451682 50.150007 
L 449.94418 50.150007 
L 449.94418 49.865863 
L 450.239679 49.865863 
L 450.239679 49.581719 
L 461.370129 49.581719 
L 461.370129 49.297575 
L 466.196607 49.297575 
L 466.196607 49.013432 
L 471.811082 49.013432 
L 471.811082 48.729288 
L 472.894577 48.729288 
L 472.894577 48.445144 
L 477.918055 48.445144 
L 477.918055 48.161 
L 478.706051 48.161 
L 478.706051 47.876857 
L 482.153536 47.876857 
L 482.153536 47.592713 
L 486.881515 47.592713 
L 486.881515 47.308569 
L 488.950006 47.308569 
L 488.950006 47.024425 
L 490.821497 47.024425 
L 490.821497 46.740281 
L 491.018496 46.740281 
L 491.018496 46.456138 
L 499.883457 46.456138 
L 499.883457 46.171994 
L 504.118938 46.171994 
L 504.118938 45.88785 
L 505.69493 45.88785 
L 505.69493 45.603706 
L 509.831912 45.603706 
L 509.831912 45.319563 
L 510.422909 45.319563 
L 510.422909 45.035419 
L 512.294401 45.035419 
L 512.294401 44.751275 
L 542.238267 44.751275 
L 542.238267 44.467131 
L 546.276749 44.467131 
L 546.276749 44.182988 
L 551.300226 44.182988 
L 551.300226 43.898844 
L 553.565716 43.898844 
L 553.565716 43.6147 
L 554.058214 43.6147 
L 554.058214 43.330556 
L 573.462627 43.330556 
L 573.462627 43.046413 
L 574.743121 43.046413 
L 574.743121 42.478125 
L 576.417614 42.478125 
L 576.417614 42.478125 
" clip-path="url(#pa4c19241da)" style="fill: none; stroke: #ff7f0e; stroke-width: 1.5; stroke-linecap: square"/>
   </g>
   <g id="line2d_15">
    <path d="M 69.144886 445.678125 
L 576.417614 42.478125 
" clip-path="url(#pa4c19241da)" style="fill: none; stroke-dasharray: 5.55,2.4; stroke-dashoffset: 0; stroke: #ff0000; stroke-width: 1.5"/>
   </g>
   <g id="patch_3">
    <path d="M 43.78125 465.838125 
L 43.78125 22.318125 
" style="fill: none; stroke: #000000; stroke-width: 0.8; stroke-linejoin: miter; stroke-linecap: square"/>
   </g>
   <g id="patch_4">
    <path d="M 601.78125 465.838125 
L 601.78125 22.318125 
" style="fill: none; stroke: #000000; stroke-width: 0.8; stroke-linejoin: miter; stroke-linecap: square"/>
   </g>
   <g id="patch_5">
    <path d="M 43.78125 465.838125 
L 601.78125 465.838125 
" style="fill: none; stroke: #000000; stroke-width: 0.8; stroke-linejoin: miter; stroke-linecap: square"/>
   </g>
   <g id="patch_6">
    <path d="M 43.78125 22.318125 
L 601.78125 22.318125 
" style="fill: none; stroke: #000000; stroke-width: 0.8; stroke-linejoin: miter; stroke-linecap: square"/>
   </g>
   <g id="text_15">
    <!-- AUC ROC: 8 Variable KFRE -->
    <g transform="translate(243.9075 16.318125) scale(0.12 -0.12)">
     <defs>
      <path id="DejaVuSans-41" d="M 2188 4044 
L 1331 1722 
L 3047 1722 
L 2188 4044 
z
M 1831 4666 
L 2547 4666 
L 4325 0 
L 3669 0 
L 3244 1197 
L 1141 1197 
L 716 0 
L 50 0 
L 1831 4666 
z
" transform="scale(0.015625)"/>
      <path id="DejaVuSans-55" d="M 556 4666 
L 1191 4666 
L 1191 1831 
Q 1191 1081 1462 751 
Q 1734 422 2344 422 
Q 2950 422 3222 751 
Q 3494 1081 3494 1831 
L 3494 4666 
L 4128 4666 
L 4128 1753 
Q 4128 841 3676 375 
Q 3225 -91 2344 -91 
Q 1459 -91 1007 375 
Q 556 841 556 1753 
L 556 4666 
z
" transform="scale(0.015625)"/>
      <path id="DejaVuSans-43" d="M 4122 4306 
L 4122 3641 
Q 3803 3938 3442 4084 
Q 3081 4231 2675 4231 
Q 1875 4231 1450 3742 
Q 1025 3253 1025 2328 
Q 1025 1406 1450 917 
Q 1875 428 2675 428 
Q 3081 428 3442 575 
Q 3803 722 4122 1019 
L 4122 359 
Q 3791 134 3420 21 
Q 3050 -91 2638 -91 
Q 1578 -91 968 557 
Q 359 1206 359 2328 
Q 359 3453 968 4101 
Q 1578 4750 2638 4750 
Q 3056 4750 3426 4639 
Q 3797 4528 4122 4306 
z
" transform="scale(0.015625)"/>
      <path id="DejaVuSans-52" d="M 2841 2188 
Q 3044 2119 3236 1894 
Q 3428 1669 3622 1275 
L 4263 0 
L 3584 0 
L 2988 1197 
Q 2756 1666 2539 1819 
Q 2322 1972 1947 1972 
L 1259 1972 
L 1259 0 
L 628 0 
L 628 4666 
L 2053 4666 
Q 2853 4666 3247 4331 
Q 3641 3997 3641 3322 
Q 3641 2881 3436 2590 
Q 3231 2300 2841 2188 
z
M 1259 4147 
L 1259 2491 
L 2053 2491 
Q 2509 2491 2742 2702 
Q 2975 2913 2975 3322 
Q 2975 3731 2742 3939 
Q 2509 4147 2053 4147 
L 1259 4147 
z
" transform="scale(0.015625)"/>
      <path id="DejaVuSans-4f" d="M 2522 4238 
Q 1834 4238 1429 3725 
Q 1025 3213 1025 2328 
Q 1025 1447 1429 934 
Q 1834 422 2522 422 
Q 3209 422 3611 934 
Q 4013 1447 4013 2328 
Q 4013 3213 3611 3725 
Q 3209 4238 2522 4238 
z
M 2522 4750 
Q 3503 4750 4090 4092 
Q 4678 3434 4678 2328 
Q 4678 1225 4090 567 
Q 3503 -91 2522 -91 
Q 1538 -91 948 565 
Q 359 1222 359 2328 
Q 359 3434 948 4092 
Q 1538 4750 2522 4750 
z
" transform="scale(0.015625)"/>
      <path id="DejaVuSans-3a" d="M 750 794 
L 1409 794 
L 1409 0 
L 750 0 
L 750 794 
z
M 750 3309 
L 1409 3309 
L 1409 2516 
L 750 2516 
L 750 3309 
z
" transform="scale(0.015625)"/>
      <path id="DejaVuSans-56" d="M 1831 0 
L 50 4666 
L 709 4666 
L 2188 738 
L 3669 4666 
L 4325 4666 
L 2547 0 
L 1831 0 
z
" transform="scale(0.015625)"/>
      <path id="DejaVuSans-61" d="M 2194 1759 
Q 1497 1759 1228 1600 
Q 959 1441 959 1056 
Q 959 750 1161 570 
Q 1363 391 1709 391 
Q 2188 391 2477 730 
Q 2766 1069 2766 1631 
L 2766 1759 
L 2194 1759 
z
M 3341 1997 
L 3341 0 
L 2766 0 
L 2766 531 
Q 2569 213 2275 61 
Q 1981 -91 1556 -91 
Q 1019 -91 701 211 
Q 384 513 384 1019 
Q 384 1609 779 1909 
Q 1175 2209 1959 2209 
L 2766 2209 
L 2766 2266 
Q 2766 2663 2505 2880 
Q 2244 3097 1772 3097 
Q 1472 3097 1187 3025 
Q 903 2953 641 2809 
L 641 3341 
Q 956 3463 1253 3523 
Q 1550 3584 1831 3584 
Q 2591 3584 2966 3190 
Q 3341 2797 3341 1997 
z
" transform="scale(0.015625)"/>
      <path id="DejaVuSans-72" d="M 2631 2963 
Q 2534 3019 2420 3045 
Q 2306 3072 2169 3072 
Q 1681 3072 1420 2755 
Q 1159 2438 1159 1844 
L 1159 0 
L 581 0 
L 581 3500 
L 1159 3500 
L 1159 2956 
Q 1341 3275 1631 3429 
Q 1922 3584 2338 3584 
Q 2397 3584 2469 3576 
Q 2541 3569 2628 3553 
L 2631 2963 
z
" transform="scale(0.015625)"/>
      <path id="DejaVuSans-62" d="M 3116 1747 
Q 3116 2381 2855 2742 
Q 2594 3103 2138 3103 
Q 1681 3103 1420 2742 
Q 1159 2381 1159 1747 
Q 1159 1113 1420 752 
Q 1681 391 2138 391 
Q 2594 391 2855 752 
Q 3116 1113 3116 1747 
z
M 1159 2969 
Q 1341 3281 1617 3432 
Q 1894 3584 2278 3584 
Q 2916 3584 3314 3078 
Q 3713 2572 3713 1747 
Q 3713 922 3314 415 
Q 2916 -91 2278 -91 
Q 1894 -91 1617 61 
Q 1341 213 1159 525 
L 1159 0 
L 581 0 
L 581 4863 
L 1159 4863 
L 1159 2969 
z
" transform="scale(0.015625)"/>
      <path id="DejaVuSans-6c" d="M 603 4863 
L 1178 4863 
L 1178 0 
L 603 0 
L 603 4863 
z
" transform="scale(0.015625)"/>
      <path id="DejaVuSans-4b" d="M 628 4666 
L 1259 4666 
L 1259 2694 
L 3353 4666 
L 4166 4666 
L 1850 2491 
L 4331 0 
L 3500 0 
L 1259 2247 
L 1259 0 
L 628 0 
L 628 4666 
z
" transform="scale(0.015625)"/>
      <path id="DejaVuSans-46" d="M 628 4666 
L 3309 4666 
L 3309 4134 
L 1259 4134 
L 1259 2759 
L 3109 2759 
L 3109 2228 
L 1259 2228 
L 1259 0 
L 628 0 
L 628 4666 
z
" transform="scale(0.015625)"/>
      <path id="DejaVuSans-45" d="M 628 4666 
L 3578 4666 
L 3578 4134 
L 1259 4134 
L 1259 2753 
L 3481 2753 
L 3481 2222 
L 1259 2222 
L 1259 531 
L 3634 531 
L 3634 0 
L 628 0 
L 628 4666 
z
" transform="scale(0.015625)"/>
     </defs>
     <use xlink:href="#DejaVuSans-41"/>
     <use xlink:href="#DejaVuSans-55" x="68.408203"/>
     <use xlink:href="#DejaVuSans-43" x="141.601562"/>
     <use xlink:href="#DejaVuSans-20" x="211.425781"/>
     <use xlink:href="#DejaVuSans-52" x="243.212891"/>
     <use xlink:href="#DejaVuSans-4f" x="312.695312"/>
     <use xlink:href="#DejaVuSans-43" x="391.40625"/>
     <use xlink:href="#DejaVuSans-3a" x="461.230469"/>
     <use xlink:href="#DejaVuSans-20" x="494.921875"/>
     <use xlink:href="#DejaVuSans-38" x="526.708984"/>
     <use xlink:href="#DejaVuSans-20" x="590.332031"/>
     <use xlink:href="#DejaVuSans-56" x="622.119141"/>
     <use xlink:href="#DejaVuSans-61" x="682.777344"/>
     <use xlink:href="#DejaVuSans-72" x="744.056641"/>
     <use xlink:href="#DejaVuSans-69" x="785.169922"/>
     <use xlink:href="#DejaVuSans-61" x="812.953125"/>
     <use xlink:href="#DejaVuSans-62" x="874.232422"/>
     <use xlink:href="#DejaVuSans-6c" x="937.708984"/>
     <use xlink:href="#DejaVuSans-65" x="965.492188"/>
     <use xlink:href="#DejaVuSans-20" x="1027.015625"/>
     <use xlink:href="#DejaVuSans-4b" x="1058.802734"/>
     <use xlink:href="#DejaVuSans-46" x="1124.378906"/>
     <use xlink:href="#DejaVuSans-52" x="1181.898438"/>
     <use xlink:href="#DejaVuSans-45" x="1251.380859"/>
    </g>
   </g>
   <g id="legend_1">
    <g id="patch_7">
     <path d="M 50.78125 59.674375 
L 284.307813 59.674375 
Q 286.307813 59.674375 286.307813 57.674375 
L 286.307813 29.318125 
Q 286.307813 27.318125 284.307813 27.318125 
L 50.78125 27.318125 
Q 48.78125 27.318125 48.78125 29.318125 
L 48.78125 57.674375 
Q 48.78125 59.674375 50.78125 59.674375 
z
" style="fill: #ffffff; opacity: 0.8; stroke: #cccccc; stroke-linejoin: miter"/>
    </g>
    <g id="line2d_16">
     <path d="M 52.78125 35.416562 
L 62.78125 35.416562 
L 72.78125 35.416562 
" style="fill: none; stroke: #1f77b4; stroke-width: 1.5; stroke-linecap: square"/>
    </g>
    <g id="text_16">
     <!-- 8-variable 2-year outcome (AUC = 0.88) -->
     <g transform="translate(80.78125 38.916562) scale(0.1 -0.1)">
      <defs>
       <path id="DejaVuSans-6f" d="M 1959 3097 
Q 1497 3097 1228 2736 
Q 959 2375 959 1747 
Q 959 1119 1226 758 
Q 1494 397 1959 397 
Q 2419 397 2687 759 
Q 2956 1122 2956 1747 
Q 2956 2369 2687 2733 
Q 2419 3097 1959 3097 
z
M 1959 3584 
Q 2709 3584 3137 3096 
Q 3566 2609 3566 1747 
Q 3566 888 3137 398 
Q 2709 -91 1959 -91 
Q 1206 -91 779 398 
Q 353 888 353 1747 
Q 353 2609 779 3096 
Q 1206 3584 1959 3584 
z
" transform="scale(0.015625)"/>
       <path id="DejaVuSans-75" d="M 544 1381 
L 544 3500 
L 1119 3500 
L 1119 1403 
Q 1119 906 1312 657 
Q 1506 409 1894 409 
Q 2359 409 2629 706 
Q 2900 1003 2900 1516 
L 2900 3500 
L 3475 3500 
L 3475 0 
L 2900 0 
L 2900 538 
Q 2691 219 2414 64 
Q 2138 -91 1772 -91 
Q 1169 -91 856 284 
Q 544 659 544 1381 
z
M 1991 3584 
L 1991 3584 
z
" transform="scale(0.015625)"/>
       <path id="DejaVuSans-6d" d="M 3328 2828 
Q 3544 3216 3844 3400 
Q 4144 3584 4550 3584 
Q 5097 3584 5394 3201 
Q 5691 2819 5691 2113 
L 5691 0 
L 5113 0 
L 5113 2094 
Q 5113 2597 4934 2840 
Q 4756 3084 4391 3084 
Q 3944 3084 3684 2787 
Q 3425 2491 3425 1978 
L 3425 0 
L 2847 0 
L 2847 2094 
Q 2847 2600 2669 2842 
Q 2491 3084 2119 3084 
Q 1678 3084 1418 2786 
Q 1159 2488 1159 1978 
L 1159 0 
L 581 0 
L 581 3500 
L 1159 3500 
L 1159 2956 
Q 1356 3278 1631 3431 
Q 1906 3584 2284 3584 
Q 2666 3584 2933 3390 
Q 3200 3197 3328 2828 
z
" transform="scale(0.015625)"/>
       <path id="DejaVuSans-28" d="M 1984 4856 
Q 1566 4138 1362 3434 
Q 1159 2731 1159 2009 
Q 1159 1288 1364 580 
Q 1569 -128 1984 -844 
L 1484 -844 
Q 1016 -109 783 600 
Q 550 1309 550 2009 
Q 550 2706 781 3412 
Q 1013 4119 1484 4856 
L 1984 4856 
z
" transform="scale(0.015625)"/>
       <path id="DejaVuSans-3d" d="M 678 2906 
L 4684 2906 
L 4684 2381 
L 678 2381 
L 678 2906 
z
M 678 1631 
L 4684 1631 
L 4684 1100 
L 678 1100 
L 678 1631 
z
" transform="scale(0.015625)"/>
       <path id="DejaVuSans-29" d="M 513 4856 
L 1013 4856 
Q 1481 4119 1714 3412 
Q 1947 2706 1947 2009 
Q 1947 1309 1714 600 
Q 1481 -109 1013 -844 
L 513 -844 
Q 928 -128 1133 580 
Q 1338 1288 1338 2009 
Q 1338 2731 1133 3434 
Q 928 4138 513 4856 
z
" transform="scale(0.015625)"/>
      </defs>
      <use xlink:href="#DejaVuSans-38"/>
      <use xlink:href="#DejaVuSans-2d" x="63.623047"/>
      <use xlink:href="#DejaVuSans-76" x="97.082031"/>
      <use xlink:href="#DejaVuSans-61" x="156.261719"/>
      <use xlink:href="#DejaVuSans-72" x="217.541016"/>
      <use xlink:href="#DejaVuSans-69" x="258.654297"/>
      <use xlink:href="#DejaVuSans-61" x="286.4375"/>
      <use xlink:href="#DejaVuSans-62" x="347.716797"/>
      <use xlink:href="#DejaVuSans-6c" x="411.193359"/>
      <use xlink:href="#DejaVuSans-65" x="438.976562"/>
      <use xlink:href="#DejaVuSans-20" x="500.5"/>
      <use xlink:href="#DejaVuSans-32" x="532.287109"/>
      <use xlink:href="#DejaVuSans-2d" x="595.910156"/>
      <use xlink:href="#DejaVuSans-79" x="630.244141"/>
      <use xlink:href="#DejaVuSans-65" x="689.423828"/>
      <use xlink:href="#DejaVuSans-61" x="750.947266"/>
      <use xlink:href="#DejaVuSans-72" x="812.226562"/>
      <use xlink:href="#DejaVuSans-20" x="853.339844"/>
      <use xlink:href="#DejaVuSans-6f" x="885.126953"/>
      <use xlink:href="#DejaVuSans-75" x="946.308594"/>
      <use xlink:href="#DejaVuSans-74" x="1009.6875"/>
      <use xlink:href="#DejaVuSans-63" x="1048.896484"/>
      <use xlink:href="#DejaVuSans-6f" x="1103.876953"/>
      <use xlink:href="#DejaVuSans-6d" x="1165.058594"/>
      <use xlink:href="#DejaVuSans-65" x="1262.470703"/>
      <use xlink:href="#DejaVuSans-20" x="1323.994141"/>
      <use xlink:href="#DejaVuSans-28" x="1355.78125"/>
      <use xlink:href="#DejaVuSans-41" x="1394.794922"/>
      <use xlink:href="#DejaVuSans-55" x="1463.203125"/>
      <use xlink:href="#DejaVuSans-43" x="1536.396484"/>
      <use xlink:href="#DejaVuSans-20" x="1606.220703"/>
      <use xlink:href="#DejaVuSans-3d" x="1638.007812"/>
      <use xlink:href="#DejaVuSans-20" x="1721.796875"/>
      <use xlink:href="#DejaVuSans-30" x="1753.583984"/>
      <use xlink:href="#DejaVuSans-2e" x="1817.207031"/>
      <use xlink:href="#DejaVuSans-38" x="1848.994141"/>
      <use xlink:href="#DejaVuSans-38" x="1912.617188"/>
      <use xlink:href="#DejaVuSans-29" x="1976.240234"/>
     </g>
    </g>
    <g id="line2d_17">
     <path d="M 52.78125 50.094687 
L 62.78125 50.094687 
L 72.78125 50.094687 
" style="fill: none; stroke: #ff7f0e; stroke-width: 1.5; stroke-linecap: square"/>
    </g>
    <g id="text_17">
     <!-- 8-variable 5-year outcome (AUC = 0.84) -->
     <g transform="translate(80.78125 53.594687) scale(0.1 -0.1)">
      <defs>
       <path id="DejaVuSans-35" d="M 691 4666 
L 3169 4666 
L 3169 4134 
L 1269 4134 
L 1269 2991 
Q 1406 3038 1543 3061 
Q 1681 3084 1819 3084 
Q 2600 3084 3056 2656 
Q 3513 2228 3513 1497 
Q 3513 744 3044 326 
Q 2575 -91 1722 -91 
Q 1428 -91 1123 -41 
Q 819 9 494 109 
L 494 744 
Q 775 591 1075 516 
Q 1375 441 1709 441 
Q 2250 441 2565 725 
Q 2881 1009 2881 1497 
Q 2881 1984 2565 2268 
Q 2250 2553 1709 2553 
Q 1456 2553 1204 2497 
Q 953 2441 691 2322 
L 691 4666 
z
" transform="scale(0.015625)"/>
      </defs>
      <use xlink:href="#DejaVuSans-38"/>
      <use xlink:href="#DejaVuSans-2d" x="63.623047"/>
      <use xlink:href="#DejaVuSans-76" x="97.082031"/>
      <use xlink:href="#DejaVuSans-61" x="156.261719"/>
      <use xlink:href="#DejaVuSans-72" x="217.541016"/>
      <use xlink:href="#DejaVuSans-69" x="258.654297"/>
      <use xlink:href="#DejaVuSans-61" x="286.4375"/>
      <use xlink:href="#DejaVuSans-62" x="347.716797"/>
      <use xlink:href="#DejaVuSans-6c" x="411.193359"/>
      <use xlink:href="#DejaVuSans-65" x="438.976562"/>
      <use xlink:href="#DejaVuSans-20" x="500.5"/>
      <use xlink:href="#DejaVuSans-35" x="532.287109"/>
      <use xlink:href="#DejaVuSans-2d" x="595.910156"/>
      <use xlink:href="#DejaVuSans-79" x="630.244141"/>
      <use xlink:href="#DejaVuSans-65" x="689.423828"/>
      <use xlink:href="#DejaVuSans-61" x="750.947266"/>
      <use xlink:href="#DejaVuSans-72" x="812.226562"/>
      <use xlink:href="#DejaVuSans-20" x="853.339844"/>
      <use xlink:href="#DejaVuSans-6f" x="885.126953"/>
      <use xlink:href="#DejaVuSans-75" x="946.308594"/>
      <use xlink:href="#DejaVuSans-74" x="1009.6875"/>
      <use xlink:href="#DejaVuSans-63" x="1048.896484"/>
      <use xlink:href="#DejaVuSans-6f" x="1103.876953"/>
      <use xlink:href="#DejaVuSans-6d" x="1165.058594"/>
      <use xlink:href="#DejaVuSans-65" x="1262.470703"/>
      <use xlink:href="#DejaVuSans-20" x="1323.994141"/>
      <use xlink:href="#DejaVuSans-28" x="1355.78125"/>
      <use xlink:href="#DejaVuSans-41" x="1394.794922"/>
      <use xlink:href="#DejaVuSans-55" x="1463.203125"/>
      <use xlink:href="#DejaVuSans-43" x="1536.396484"/>
      <use xlink:href="#DejaVuSans-20" x="1606.220703"/>
      <use xlink:href="#DejaVuSans-3d" x="1638.007812"/>
      <use xlink:href="#DejaVuSans-20" x="1721.796875"/>
      <use xlink:href="#DejaVuSans-30" x="1753.583984"/>
      <use xlink:href="#DejaVuSans-2e" x="1817.207031"/>
      <use xlink:href="#DejaVuSans-38" x="1848.994141"/>
      <use xlink:href="#DejaVuSans-34" x="1912.617188"/>
      <use xlink:href="#DejaVuSans-29" x="1976.240234"/>
     </g>
    </g>
   </g>
  </g>
 </g>
 <defs>
  <clipPath id="pa4c19241da">
   <rect x="43.78125" y="22.318125" width="558" height="443.52"/>
  </clipPath>
 </defs>
</svg>
