<?xml version="1.0" encoding="utf-8" standalone="no"?>
<!DOCTYPE svg PUBLIC "-//W3C//DTD SVG 1.1//EN"
  "http://www.w3.org/Graphics/SVG/1.1/DTD/svg11.dtd">
<svg xmlns:xlink="http://www.w3.org/1999/xlink" width="608.98125pt" height="503.394375pt" viewBox="0 0 608.98125 503.394375" xmlns="http://www.w3.org/2000/svg" version="1.1">
 <metadata>
  <rdf:RDF xmlns:dc="http://purl.org/dc/elements/1.1/" xmlns:cc="http://creativecommons.org/ns#" xmlns:rdf="http://www.w3.org/1999/02/22-rdf-syntax-ns#">
   <cc:Work>
    <dc:type rdf:resource="http://purl.org/dc/dcmitype/StillImage"/>
    <dc:date>2024-07-20T22:17:22.971889</dc:date>
    <dc:format>image/svg+xml</dc:format>
    <dc:creator>
     <cc:Agent>
      <dc:title>Matplotlib v3.9.0, https://matplotlib.org/</dc:title>
     </cc:Agent>
    </dc:creator>
   </cc:Work>
  </rdf:RDF>
 </metadata>
 <defs>
  <style type="text/css">*{stroke-linejoin: round; stroke-linecap: butt}</style>
 </defs>
 <g id="figure_1">
  <g id="patch_1">
   <path d="M 0 503.394375 
L 608.98125 503.394375 
L 608.98125 0 
L 0 0 
z
" style="fill: #ffffff"/>
  </g>
  <g id="axes_1">
   <g id="patch_2">
    <path d="M 43.78125 465.838125 
L 601.78125 465.838125 
L 601.78125 22.318125 
L 43.78125 22.318125 
z
" style="fill: #ffffff"/>
   </g>
   <g id="matplotlib.axis_1">
    <g id="xtick_1">
     <g id="line2d_1">
      <defs>
       <path id="m93d0d040bf" d="M 0 0 
L 0 3.5 
" style="stroke: #000000; stroke-width: 0.8"/>
      </defs>
      <g>
       <use xlink:href="#m93d0d040bf" x="69.144886" y="465.838125" style="stroke: #000000; stroke-width: 0.8"/>
      </g>
     </g>
     <g id="text_1">
      <!-- 0.0 -->
      <g transform="translate(61.193324 480.436562) scale(0.1 -0.1)">
       <defs>
        <path id="DejaVuSans-30" d="M 2034 4250 
Q 1547 4250 1301 3770 
Q 1056 3291 1056 2328 
Q 1056 1369 1301 889 
Q 1547 409 2034 409 
Q 2525 409 2770 889 
Q 3016 1369 3016 2328 
Q 3016 3291 2770 3770 
Q 2525 4250 2034 4250 
z
M 2034 4750 
Q 2819 4750 3233 4129 
Q 3647 3509 3647 2328 
Q 3647 1150 3233 529 
Q 2819 -91 2034 -91 
Q 1250 -91 836 529 
Q 422 1150 422 2328 
Q 422 3509 836 4129 
Q 1250 4750 2034 4750 
z
" transform="scale(0.015625)"/>
        <path id="DejaVuSans-2e" d="M 684 794 
L 1344 794 
L 1344 0 
L 684 0 
L 684 794 
z
" transform="scale(0.015625)"/>
       </defs>
       <use xlink:href="#DejaVuSans-30"/>
       <use xlink:href="#DejaVuSans-2e" x="63.623047"/>
       <use xlink:href="#DejaVuSans-30" x="95.410156"/>
      </g>
     </g>
    </g>
    <g id="xtick_2">
     <g id="line2d_2">
      <g>
       <use xlink:href="#m93d0d040bf" x="170.599432" y="465.838125" style="stroke: #000000; stroke-width: 0.8"/>
      </g>
     </g>
     <g id="text_2">
      <!-- 0.2 -->
      <g transform="translate(162.647869 480.436562) scale(0.1 -0.1)">
       <defs>
        <path id="DejaVuSans-32" d="M 1228 531 
L 3431 531 
L 3431 0 
L 469 0 
L 469 531 
Q 828 903 1448 1529 
Q 2069 2156 2228 2338 
Q 2531 2678 2651 2914 
Q 2772 3150 2772 3378 
Q 2772 3750 2511 3984 
Q 2250 4219 1831 4219 
Q 1534 4219 1204 4116 
Q 875 4013 500 3803 
L 500 4441 
Q 881 4594 1212 4672 
Q 1544 4750 1819 4750 
Q 2544 4750 2975 4387 
Q 3406 4025 3406 3419 
Q 3406 3131 3298 2873 
Q 3191 2616 2906 2266 
Q 2828 2175 2409 1742 
Q 1991 1309 1228 531 
z
" transform="scale(0.015625)"/>
       </defs>
       <use xlink:href="#DejaVuSans-30"/>
       <use xlink:href="#DejaVuSans-2e" x="63.623047"/>
       <use xlink:href="#DejaVuSans-32" x="95.410156"/>
      </g>
     </g>
    </g>
    <g id="xtick_3">
     <g id="line2d_3">
      <g>
       <use xlink:href="#m93d0d040bf" x="272.053977" y="465.838125" style="stroke: #000000; stroke-width: 0.8"/>
      </g>
     </g>
     <g id="text_3">
      <!-- 0.4 -->
      <g transform="translate(264.102415 480.436562) scale(0.1 -0.1)">
       <defs>
        <path id="DejaVuSans-34" d="M 2419 4116 
L 825 1625 
L 2419 1625 
L 2419 4116 
z
M 2253 4666 
L 3047 4666 
L 3047 1625 
L 3713 1625 
L 3713 1100 
L 3047 1100 
L 3047 0 
L 2419 0 
L 2419 1100 
L 313 1100 
L 313 1709 
L 2253 4666 
z
" transform="scale(0.015625)"/>
       </defs>
       <use xlink:href="#DejaVuSans-30"/>
       <use xlink:href="#DejaVuSans-2e" x="63.623047"/>
       <use xlink:href="#DejaVuSans-34" x="95.410156"/>
      </g>
     </g>
    </g>
    <g id="xtick_4">
     <g id="line2d_4">
      <g>
       <use xlink:href="#m93d0d040bf" x="373.508523" y="465.838125" style="stroke: #000000; stroke-width: 0.8"/>
      </g>
     </g>
     <g id="text_4">
      <!-- 0.6 -->
      <g transform="translate(365.55696 480.436562) scale(0.1 -0.1)">
       <defs>
        <path id="DejaVuSans-36" d="M 2113 2584 
Q 1688 2584 1439 2293 
Q 1191 2003 1191 1497 
Q 1191 994 1439 701 
Q 1688 409 2113 409 
Q 2538 409 2786 701 
Q 3034 994 3034 1497 
Q 3034 2003 2786 2293 
Q 2538 2584 2113 2584 
z
M 3366 4563 
L 3366 3988 
Q 3128 4100 2886 4159 
Q 2644 4219 2406 4219 
Q 1781 4219 1451 3797 
Q 1122 3375 1075 2522 
Q 1259 2794 1537 2939 
Q 1816 3084 2150 3084 
Q 2853 3084 3261 2657 
Q 3669 2231 3669 1497 
Q 3669 778 3244 343 
Q 2819 -91 2113 -91 
Q 1303 -91 875 529 
Q 447 1150 447 2328 
Q 447 3434 972 4092 
Q 1497 4750 2381 4750 
Q 2619 4750 2861 4703 
Q 3103 4656 3366 4563 
z
" transform="scale(0.015625)"/>
       </defs>
       <use xlink:href="#DejaVuSans-30"/>
       <use xlink:href="#DejaVuSans-2e" x="63.623047"/>
       <use xlink:href="#DejaVuSans-36" x="95.410156"/>
      </g>
     </g>
    </g>
    <g id="xtick_5">
     <g id="line2d_5">
      <g>
       <use xlink:href="#m93d0d040bf" x="474.963068" y="465.838125" style="stroke: #000000; stroke-width: 0.8"/>
      </g>
     </g>
     <g id="text_5">
      <!-- 0.8 -->
      <g transform="translate(467.011506 480.436562) scale(0.1 -0.1)">
       <defs>
        <path id="DejaVuSans-38" d="M 2034 2216 
Q 1584 2216 1326 1975 
Q 1069 1734 1069 1313 
Q 1069 891 1326 650 
Q 1584 409 2034 409 
Q 2484 409 2743 651 
Q 3003 894 3003 1313 
Q 3003 1734 2745 1975 
Q 2488 2216 2034 2216 
z
M 1403 2484 
Q 997 2584 770 2862 
Q 544 3141 544 3541 
Q 544 4100 942 4425 
Q 1341 4750 2034 4750 
Q 2731 4750 3128 4425 
Q 3525 4100 3525 3541 
Q 3525 3141 3298 2862 
Q 3072 2584 2669 2484 
Q 3125 2378 3379 2068 
Q 3634 1759 3634 1313 
Q 3634 634 3220 271 
Q 2806 -91 2034 -91 
Q 1263 -91 848 271 
Q 434 634 434 1313 
Q 434 1759 690 2068 
Q 947 2378 1403 2484 
z
M 1172 3481 
Q 1172 3119 1398 2916 
Q 1625 2713 2034 2713 
Q 2441 2713 2670 2916 
Q 2900 3119 2900 3481 
Q 2900 3844 2670 4047 
Q 2441 4250 2034 4250 
Q 1625 4250 1398 4047 
Q 1172 3844 1172 3481 
z
" transform="scale(0.015625)"/>
       </defs>
       <use xlink:href="#DejaVuSans-30"/>
       <use xlink:href="#DejaVuSans-2e" x="63.623047"/>
       <use xlink:href="#DejaVuSans-38" x="95.410156"/>
      </g>
     </g>
    </g>
    <g id="xtick_6">
     <g id="line2d_6">
      <g>
       <use xlink:href="#m93d0d040bf" x="576.417614" y="465.838125" style="stroke: #000000; stroke-width: 0.8"/>
      </g>
     </g>
     <g id="text_6">
      <!-- 1.0 -->
      <g transform="translate(568.466051 480.436562) scale(0.1 -0.1)">
       <defs>
        <path id="DejaVuSans-31" d="M 794 531 
L 1825 531 
L 1825 4091 
L 703 3866 
L 703 4441 
L 1819 4666 
L 2450 4666 
L 2450 531 
L 3481 531 
L 3481 0 
L 794 0 
L 794 531 
z
" transform="scale(0.015625)"/>
       </defs>
       <use xlink:href="#DejaVuSans-31"/>
       <use xlink:href="#DejaVuSans-2e" x="63.623047"/>
       <use xlink:href="#DejaVuSans-30" x="95.410156"/>
      </g>
     </g>
    </g>
    <g id="text_7">
     <!-- 1 - Specificity -->
     <g transform="translate(288.847656 494.114687) scale(0.1 -0.1)">
      <defs>
       <path id="DejaVuSans-20" transform="scale(0.015625)"/>
       <path id="DejaVuSans-2d" d="M 313 2009 
L 1997 2009 
L 1997 1497 
L 313 1497 
L 313 2009 
z
" transform="scale(0.015625)"/>
       <path id="DejaVuSans-53" d="M 3425 4513 
L 3425 3897 
Q 3066 4069 2747 4153 
Q 2428 4238 2131 4238 
Q 1616 4238 1336 4038 
Q 1056 3838 1056 3469 
Q 1056 3159 1242 3001 
Q 1428 2844 1947 2747 
L 2328 2669 
Q 3034 2534 3370 2195 
Q 3706 1856 3706 1288 
Q 3706 609 3251 259 
Q 2797 -91 1919 -91 
Q 1588 -91 1214 -16 
Q 841 59 441 206 
L 441 856 
Q 825 641 1194 531 
Q 1563 422 1919 422 
Q 2459 422 2753 634 
Q 3047 847 3047 1241 
Q 3047 1584 2836 1778 
Q 2625 1972 2144 2069 
L 1759 2144 
Q 1053 2284 737 2584 
Q 422 2884 422 3419 
Q 422 4038 858 4394 
Q 1294 4750 2059 4750 
Q 2388 4750 2728 4690 
Q 3069 4631 3425 4513 
z
" transform="scale(0.015625)"/>
       <path id="DejaVuSans-70" d="M 1159 525 
L 1159 -1331 
L 581 -1331 
L 581 3500 
L 1159 3500 
L 1159 2969 
Q 1341 3281 1617 3432 
Q 1894 3584 2278 3584 
Q 2916 3584 3314 3078 
Q 3713 2572 3713 1747 
Q 3713 922 3314 415 
Q 2916 -91 2278 -91 
Q 1894 -91 1617 61 
Q 1341 213 1159 525 
z
M 3116 1747 
Q 3116 2381 2855 2742 
Q 2594 3103 2138 3103 
Q 1681 3103 1420 2742 
Q 1159 2381 1159 1747 
Q 1159 1113 1420 752 
Q 1681 391 2138 391 
Q 2594 391 2855 752 
Q 3116 1113 3116 1747 
z
" transform="scale(0.015625)"/>
       <path id="DejaVuSans-65" d="M 3597 1894 
L 3597 1613 
L 953 1613 
Q 991 1019 1311 708 
Q 1631 397 2203 397 
Q 2534 397 2845 478 
Q 3156 559 3463 722 
L 3463 178 
Q 3153 47 2828 -22 
Q 2503 -91 2169 -91 
Q 1331 -91 842 396 
Q 353 884 353 1716 
Q 353 2575 817 3079 
Q 1281 3584 2069 3584 
Q 2775 3584 3186 3129 
Q 3597 2675 3597 1894 
z
M 3022 2063 
Q 3016 2534 2758 2815 
Q 2500 3097 2075 3097 
Q 1594 3097 1305 2825 
Q 1016 2553 972 2059 
L 3022 2063 
z
" transform="scale(0.015625)"/>
       <path id="DejaVuSans-63" d="M 3122 3366 
L 3122 2828 
Q 2878 2963 2633 3030 
Q 2388 3097 2138 3097 
Q 1578 3097 1268 2742 
Q 959 2388 959 1747 
Q 959 1106 1268 751 
Q 1578 397 2138 397 
Q 2388 397 2633 464 
Q 2878 531 3122 666 
L 3122 134 
Q 2881 22 2623 -34 
Q 2366 -91 2075 -91 
Q 1284 -91 818 406 
Q 353 903 353 1747 
Q 353 2603 823 3093 
Q 1294 3584 2113 3584 
Q 2378 3584 2631 3529 
Q 2884 3475 3122 3366 
z
" transform="scale(0.015625)"/>
       <path id="DejaVuSans-69" d="M 603 3500 
L 1178 3500 
L 1178 0 
L 603 0 
L 603 3500 
z
M 603 4863 
L 1178 4863 
L 1178 4134 
L 603 4134 
L 603 4863 
z
" transform="scale(0.015625)"/>
       <path id="DejaVuSans-66" d="M 2375 4863 
L 2375 4384 
L 1825 4384 
Q 1516 4384 1395 4259 
Q 1275 4134 1275 3809 
L 1275 3500 
L 2222 3500 
L 2222 3053 
L 1275 3053 
L 1275 0 
L 697 0 
L 697 3053 
L 147 3053 
L 147 3500 
L 697 3500 
L 697 3744 
Q 697 4328 969 4595 
Q 1241 4863 1831 4863 
L 2375 4863 
z
" transform="scale(0.015625)"/>
       <path id="DejaVuSans-74" d="M 1172 4494 
L 1172 3500 
L 2356 3500 
L 2356 3053 
L 1172 3053 
L 1172 1153 
Q 1172 725 1289 603 
Q 1406 481 1766 481 
L 2356 481 
L 2356 0 
L 1766 0 
Q 1100 0 847 248 
Q 594 497 594 1153 
L 594 3053 
L 172 3053 
L 172 3500 
L 594 3500 
L 594 4494 
L 1172 4494 
z
" transform="scale(0.015625)"/>
       <path id="DejaVuSans-79" d="M 2059 -325 
Q 1816 -950 1584 -1140 
Q 1353 -1331 966 -1331 
L 506 -1331 
L 506 -850 
L 844 -850 
Q 1081 -850 1212 -737 
Q 1344 -625 1503 -206 
L 1606 56 
L 191 3500 
L 800 3500 
L 1894 763 
L 2988 3500 
L 3597 3500 
L 2059 -325 
z
" transform="scale(0.015625)"/>
      </defs>
      <use xlink:href="#DejaVuSans-31"/>
      <use xlink:href="#DejaVuSans-20" x="63.623047"/>
      <use xlink:href="#DejaVuSans-2d" x="95.410156"/>
      <use xlink:href="#DejaVuSans-20" x="131.494141"/>
      <use xlink:href="#DejaVuSans-53" x="163.28125"/>
      <use xlink:href="#DejaVuSans-70" x="226.757812"/>
      <use xlink:href="#DejaVuSans-65" x="290.234375"/>
      <use xlink:href="#DejaVuSans-63" x="351.757812"/>
      <use xlink:href="#DejaVuSans-69" x="406.738281"/>
      <use xlink:href="#DejaVuSans-66" x="434.521484"/>
      <use xlink:href="#DejaVuSans-69" x="469.726562"/>
      <use xlink:href="#DejaVuSans-63" x="497.509766"/>
      <use xlink:href="#DejaVuSans-69" x="552.490234"/>
      <use xlink:href="#DejaVuSans-74" x="580.273438"/>
      <use xlink:href="#DejaVuSans-79" x="619.482422"/>
     </g>
    </g>
   </g>
   <g id="matplotlib.axis_2">
    <g id="ytick_1">
     <g id="line2d_7">
      <defs>
       <path id="m6efd5a49c2" d="M 0 0 
L -3.5 0 
" style="stroke: #000000; stroke-width: 0.8"/>
      </defs>
      <g>
       <use xlink:href="#m6efd5a49c2" x="43.78125" y="445.678125" style="stroke: #000000; stroke-width: 0.8"/>
      </g>
     </g>
     <g id="text_8">
      <!-- 0.0 -->
      <g transform="translate(20.878125 449.477344) scale(0.1 -0.1)">
       <use xlink:href="#DejaVuSans-30"/>
       <use xlink:href="#DejaVuSans-2e" x="63.623047"/>
       <use xlink:href="#DejaVuSans-30" x="95.410156"/>
      </g>
     </g>
    </g>
    <g id="ytick_2">
     <g id="line2d_8">
      <g>
       <use xlink:href="#m6efd5a49c2" x="43.78125" y="365.038125" style="stroke: #000000; stroke-width: 0.8"/>
      </g>
     </g>
     <g id="text_9">
      <!-- 0.2 -->
      <g transform="translate(20.878125 368.837344) scale(0.1 -0.1)">
       <use xlink:href="#DejaVuSans-30"/>
       <use xlink:href="#DejaVuSans-2e" x="63.623047"/>
       <use xlink:href="#DejaVuSans-32" x="95.410156"/>
      </g>
     </g>
    </g>
    <g id="ytick_3">
     <g id="line2d_9">
      <g>
       <use xlink:href="#m6efd5a49c2" x="43.78125" y="284.398125" style="stroke: #000000; stroke-width: 0.8"/>
      </g>
     </g>
     <g id="text_10">
      <!-- 0.4 -->
      <g transform="translate(20.878125 288.197344) scale(0.1 -0.1)">
       <use xlink:href="#DejaVuSans-30"/>
       <use xlink:href="#DejaVuSans-2e" x="63.623047"/>
       <use xlink:href="#DejaVuSans-34" x="95.410156"/>
      </g>
     </g>
    </g>
    <g id="ytick_4">
     <g id="line2d_10">
      <g>
       <use xlink:href="#m6efd5a49c2" x="43.78125" y="203.758125" style="stroke: #000000; stroke-width: 0.8"/>
      </g>
     </g>
     <g id="text_11">
      <!-- 0.6 -->
      <g transform="translate(20.878125 207.557344) scale(0.1 -0.1)">
       <use xlink:href="#DejaVuSans-30"/>
       <use xlink:href="#DejaVuSans-2e" x="63.623047"/>
       <use xlink:href="#DejaVuSans-36" x="95.410156"/>
      </g>
     </g>
    </g>
    <g id="ytick_5">
     <g id="line2d_11">
      <g>
       <use xlink:href="#m6efd5a49c2" x="43.78125" y="123.118125" style="stroke: #000000; stroke-width: 0.8"/>
      </g>
     </g>
     <g id="text_12">
      <!-- 0.8 -->
      <g transform="translate(20.878125 126.917344) scale(0.1 -0.1)">
       <use xlink:href="#DejaVuSans-30"/>
       <use xlink:href="#DejaVuSans-2e" x="63.623047"/>
       <use xlink:href="#DejaVuSans-38" x="95.410156"/>
      </g>
     </g>
    </g>
    <g id="ytick_6">
     <g id="line2d_12">
      <g>
       <use xlink:href="#m6efd5a49c2" x="43.78125" y="42.478125" style="stroke: #000000; stroke-width: 0.8"/>
      </g>
     </g>
     <g id="text_13">
      <!-- 1.0 -->
      <g transform="translate(20.878125 46.277344) scale(0.1 -0.1)">
       <use xlink:href="#DejaVuSans-31"/>
       <use xlink:href="#DejaVuSans-2e" x="63.623047"/>
       <use xlink:href="#DejaVuSans-30" x="95.410156"/>
      </g>
     </g>
    </g>
    <g id="text_14">
     <!-- Sensitivity -->
     <g transform="translate(14.798438 270.108594) rotate(-90) scale(0.1 -0.1)">
      <defs>
       <path id="DejaVuSans-6e" d="M 3513 2113 
L 3513 0 
L 2938 0 
L 2938 2094 
Q 2938 2591 2744 2837 
Q 2550 3084 2163 3084 
Q 1697 3084 1428 2787 
Q 1159 2491 1159 1978 
L 1159 0 
L 581 0 
L 581 3500 
L 1159 3500 
L 1159 2956 
Q 1366 3272 1645 3428 
Q 1925 3584 2291 3584 
Q 2894 3584 3203 3211 
Q 3513 2838 3513 2113 
z
" transform="scale(0.015625)"/>
       <path id="DejaVuSans-73" d="M 2834 3397 
L 2834 2853 
Q 2591 2978 2328 3040 
Q 2066 3103 1784 3103 
Q 1356 3103 1142 2972 
Q 928 2841 928 2578 
Q 928 2378 1081 2264 
Q 1234 2150 1697 2047 
L 1894 2003 
Q 2506 1872 2764 1633 
Q 3022 1394 3022 966 
Q 3022 478 2636 193 
Q 2250 -91 1575 -91 
Q 1294 -91 989 -36 
Q 684 19 347 128 
L 347 722 
Q 666 556 975 473 
Q 1284 391 1588 391 
Q 1994 391 2212 530 
Q 2431 669 2431 922 
Q 2431 1156 2273 1281 
Q 2116 1406 1581 1522 
L 1381 1569 
Q 847 1681 609 1914 
Q 372 2147 372 2553 
Q 372 3047 722 3315 
Q 1072 3584 1716 3584 
Q 2034 3584 2315 3537 
Q 2597 3491 2834 3397 
z
" transform="scale(0.015625)"/>
       <path id="DejaVuSans-76" d="M 191 3500 
L 800 3500 
L 1894 563 
L 2988 3500 
L 3597 3500 
L 2284 0 
L 1503 0 
L 191 3500 
z
" transform="scale(0.015625)"/>
      </defs>
      <use xlink:href="#DejaVuSans-53"/>
      <use xlink:href="#DejaVuSans-65" x="63.476562"/>
      <use xlink:href="#DejaVuSans-6e" x="125"/>
      <use xlink:href="#DejaVuSans-73" x="188.378906"/>
      <use xlink:href="#DejaVuSans-69" x="240.478516"/>
      <use xlink:href="#DejaVuSans-74" x="268.261719"/>
      <use xlink:href="#DejaVuSans-69" x="307.470703"/>
      <use xlink:href="#DejaVuSans-76" x="335.253906"/>
      <use xlink:href="#DejaVuSans-69" x="394.433594"/>
      <use xlink:href="#DejaVuSans-74" x="422.216797"/>
      <use xlink:href="#DejaVuSans-79" x="461.425781"/>
     </g>
    </g>
   </g>
   <g id="line2d_13">
    <path d="M 69.144886 445.678125 
L 69.237336 445.678125 
L 69.329786 442.696979 
L 69.422236 442.696979 
L 69.514686 439.715833 
L 69.699586 439.715833 
L 69.699586 437.479973 
L 69.884486 437.479973 
L 69.976936 436.362044 
L 70.069386 436.362044 
L 70.069386 434.126184 
L 70.254285 434.126184 
L 70.346735 433.380898 
L 70.531635 433.380898 
L 70.624085 431.145038 
L 70.716535 431.145038 
L 70.808985 427.418606 
L 70.901435 427.418606 
L 70.993885 424.810103 
L 71.086335 424.810103 
L 71.178785 422.574243 
L 71.271235 422.574243 
L 71.271235 418.475168 
L 71.456134 418.475168 
L 71.548584 415.866665 
L 71.733484 415.866665 
L 71.733484 413.258162 
L 71.918384 413.258162 
L 72.010834 411.767589 
L 72.103284 411.767589 
L 72.195734 407.29587 
L 72.288184 407.29587 
L 72.288184 405.432654 
L 72.565534 405.432654 
L 72.657983 404.314724 
L 72.842883 404.314724 
L 72.935333 402.078864 
L 73.027783 402.078864 
L 73.120233 400.588291 
L 73.212683 400.588291 
L 73.212683 399.470362 
L 73.397583 399.470362 
L 73.397583 397.607145 
L 73.582483 397.607145 
L 73.674933 395.743929 
L 73.767383 395.743929 
L 73.767383 395.371286 
L 73.952282 395.371286 
L 74.044732 394.625999 
L 74.229632 394.625999 
L 74.322082 393.135426 
L 74.414532 393.135426 
L 74.506982 390.526924 
L 74.599432 390.526924 
L 74.599432 389.408994 
L 74.876782 389.408994 
L 74.969232 388.663707 
L 75.061681 388.663707 
L 75.154131 386.427848 
L 75.246581 386.427848 
L 75.339031 383.819345 
L 75.523931 383.819345 
L 75.523931 383.446702 
L 75.708831 383.446702 
L 75.801281 382.328772 
L 75.893731 382.328772 
L 75.986181 380.838199 
L 76.078631 380.838199 
L 76.078631 380.092912 
L 76.26353 380.092912 
L 76.35598 378.229696 
L 76.54088 378.229696 
L 76.54088 375.24855 
L 76.91068 375.24855 
L 77.00313 374.503264 
L 77.09558 374.503264 
L 77.09558 370.404188 
L 77.28048 370.404188 
L 77.37293 369.286258 
L 77.557829 369.286258 
L 77.557829 368.540972 
L 77.742729 368.540972 
L 77.835179 366.677755 
L 77.927629 366.677755 
L 78.020079 363.323966 
L 78.112529 363.323966 
L 78.112529 362.57868 
L 78.297429 362.57868 
L 78.389879 359.970177 
L 78.574779 359.970177 
L 78.667228 354.380528 
L 78.759678 354.380528 
L 78.852128 347.300306 
L 79.037028 347.300306 
L 79.129478 345.064447 
L 79.221928 345.064447 
L 79.314378 342.083301 
L 79.406828 342.083301 
L 79.406828 341.710657 
L 79.591728 341.710657 
L 79.591728 341.338014 
L 79.869077 341.338014 
L 79.961527 339.102155 
L 80.146427 339.102155 
L 80.238877 338.356868 
L 80.331327 338.356868 
L 80.331327 337.238938 
L 80.608677 337.238938 
L 80.701127 335.375722 
L 80.978477 335.375722 
L 81.070926 333.885149 
L 81.163376 333.885149 
L 81.255826 332.021933 
L 81.348276 332.021933 
L 81.440726 330.158716 
L 81.533176 330.158716 
L 81.625626 328.668143 
L 81.718076 328.668143 
L 81.718076 328.2955 
L 81.995426 328.2955 
L 82.087876 326.804927 
L 82.180326 326.804927 
L 82.272775 324.941711 
L 82.365225 324.941711 
L 82.457675 323.823781 
L 82.642575 323.823781 
L 82.735025 321.960565 
L 83.012375 321.960565 
L 83.012375 321.215278 
L 83.289725 321.215278 
L 83.289725 320.842635 
L 83.474624 320.842635 
L 83.567074 318.606776 
L 83.751974 318.606776 
L 83.751974 316.370916 
L 83.936874 316.370916 
L 84.029324 315.62563 
L 84.584023 315.62563 
L 84.584023 315.252986 
L 84.768923 315.252986 
L 84.768923 314.5077 
L 85.231173 314.5077 
L 85.323623 312.27184 
L 85.416073 312.27184 
L 85.416073 310.408624 
L 85.785872 310.408624 
L 85.878322 308.545408 
L 86.063222 308.545408 
L 86.063222 307.427478 
L 86.248122 307.427478 
L 86.248122 307.054835 
L 86.617922 307.054835 
L 86.710372 305.191619 
L 86.802822 305.191619 
L 86.895272 302.955759 
L 87.172621 302.955759 
L 87.172621 302.210473 
L 87.634871 302.210473 
L 87.727321 300.719899 
L 88.097121 300.719899 
L 88.097121 299.229326 
L 88.37447 299.229326 
L 88.46692 297.36611 
L 88.55937 297.36611 
L 88.65182 295.130251 
L 88.92917 295.130251 
L 88.92917 294.757607 
L 89.761219 294.757607 
L 89.853669 293.267034 
L 89.946119 293.267034 
L 90.038569 292.521748 
L 90.315919 292.521748 
L 90.408369 291.776461 
L 90.500819 291.776461 
L 90.593268 290.285888 
L 90.685718 290.285888 
L 90.778168 285.814169 
L 90.870618 285.814169 
L 90.963068 285.068883 
L 91.240418 285.068883 
L 91.240418 284.69624 
L 91.425318 284.69624 
L 91.425318 283.950953 
L 91.610218 283.950953 
L 91.702668 283.205667 
L 91.795117 283.205667 
L 91.795117 282.46038 
L 92.349817 282.46038 
L 92.442267 281.34245 
L 92.627167 281.34245 
L 92.627167 280.969807 
L 92.812067 280.969807 
L 92.812067 280.597164 
L 92.996966 280.597164 
L 92.996966 280.224521 
L 93.181866 280.224521 
L 93.181866 276.870731 
L 93.459216 276.870731 
L 93.551666 273.516942 
L 93.644116 273.516942 
L 93.736566 272.399012 
L 93.829016 272.399012 
L 93.829016 272.026369 
L 94.013916 272.026369 
L 94.106366 270.908439 
L 94.383715 270.908439 
L 94.476165 270.163153 
L 94.568615 270.163153 
L 94.661065 269.045223 
L 94.753515 269.045223 
L 94.845965 267.927293 
L 94.938415 267.927293 
L 94.938415 266.809363 
L 95.215765 266.809363 
L 95.308215 263.455574 
L 95.400664 263.455574 
L 95.493114 262.710288 
L 95.585564 262.710288 
L 95.585564 262.337644 
L 95.862914 262.337644 
L 95.862914 261.219715 
L 96.047814 261.219715 
L 96.047814 260.474428 
L 96.232714 260.474428 
L 96.325164 258.611212 
L 96.417614 258.611212 
L 96.417614 257.865925 
L 96.787413 257.865925 
L 96.787413 257.120639 
L 96.972313 257.120639 
L 96.972313 256.002709 
L 97.157213 256.002709 
L 97.249663 254.139493 
L 97.434563 254.139493 
L 97.434563 253.76685 
L 97.619463 253.76685 
L 97.619463 253.021563 
L 97.804362 253.021563 
L 97.804362 252.64892 
L 98.081712 252.64892 
L 98.174162 251.53099 
L 98.266612 251.53099 
L 98.359062 249.667774 
L 98.913762 249.667774 
L 99.006211 248.549844 
L 99.283561 248.549844 
L 99.283561 247.431914 
L 99.468461 247.431914 
L 99.468461 247.059271 
L 99.653361 247.059271 
L 99.653361 245.941341 
L 99.838261 245.941341 
L 99.838261 245.568698 
L 100.115611 245.568698 
L 100.20806 242.960195 
L 100.30051 242.960195 
L 100.30051 242.214909 
L 100.85521 242.214909 
L 100.94766 241.096979 
L 101.13256 241.096979 
L 101.22501 239.979049 
L 101.31746 239.979049 
L 101.409909 238.115833 
L 101.502359 238.115833 
L 101.594809 236.62526 
L 101.964609 236.62526 
L 102.057059 235.50733 
L 102.149509 235.50733 
L 102.241959 233.644114 
L 102.334409 233.644114 
L 102.426859 232.526184 
L 102.519309 232.526184 
L 102.519309 231.780898 
L 102.796658 231.780898 
L 102.796658 229.545038 
L 103.074008 229.545038 
L 103.074008 229.172395 
L 103.258908 229.172395 
L 103.351358 228.427108 
L 103.536258 228.427108 
L 103.536258 227.681822 
L 104.368307 227.681822 
L 104.368307 226.191249 
L 104.645657 226.191249 
L 104.738107 225.445962 
L 104.830557 225.445962 
L 104.830557 225.073319 
L 105.292806 225.073319 
L 105.385256 222.092173 
L 105.847506 222.092173 
L 105.939956 221.346887 
L 106.124856 221.346887 
L 106.124856 220.974243 
L 106.587105 220.974243 
L 106.587105 220.228957 
L 106.772005 220.228957 
L 106.864455 218.738384 
L 106.956905 218.738384 
L 106.956905 217.247811 
L 107.234255 217.247811 
L 107.326705 216.129881 
L 107.604054 216.129881 
L 107.604054 215.757238 
L 108.158754 215.757238 
L 108.158754 215.384595 
L 108.343654 215.384595 
L 108.436104 213.148735 
L 108.528554 213.148735 
L 108.621003 211.658162 
L 108.713453 211.658162 
L 108.805903 210.912875 
L 109.175703 210.912875 
L 109.175703 210.167589 
L 109.637953 210.167589 
L 109.730403 209.422302 
L 109.915302 209.422302 
L 110.007752 208.677016 
L 110.100202 208.677016 
L 110.192652 207.931729 
L 110.470002 207.931729 
L 110.562452 206.8138 
L 110.654902 206.8138 
L 110.747352 205.69587 
L 110.839802 205.69587 
L 110.839802 204.950583 
L 111.209601 204.950583 
L 111.209601 204.205297 
L 112.041651 204.205297 
L 112.041651 203.46001 
L 112.59635 203.46001 
L 112.59635 202.342081 
L 113.428399 202.342081 
L 113.428399 201.224151 
L 113.890649 201.224151 
L 113.983099 199.360935 
L 114.075549 199.360935 
L 114.075549 198.988291 
L 114.352899 198.988291 
L 114.445349 197.125075 
L 114.537799 197.125075 
L 114.537799 196.752432 
L 114.815148 196.752432 
L 114.815148 196.379789 
L 115.000048 196.379789 
L 115.000048 196.007145 
L 115.462298 196.007145 
L 115.554748 194.889216 
L 115.924547 194.889216 
L 116.016997 194.143929 
L 116.109447 194.143929 
L 116.109447 193.771286 
L 116.664147 193.771286 
L 116.756597 193.025999 
L 117.033946 193.025999 
L 117.033946 192.653356 
L 117.681096 192.653356 
L 117.681096 191.90807 
L 117.958446 191.90807 
L 117.958446 190.417497 
L 118.328245 190.417497 
L 118.420695 189.299567 
L 118.698045 189.299567 
L 118.790495 187.808994 
L 119.067845 187.808994 
L 119.067845 186.691064 
L 119.345195 186.691064 
L 119.345195 186.318421 
L 119.530094 186.318421 
L 119.530094 185.945777 
L 120.084794 185.945777 
L 120.084794 185.573134 
L 120.269694 185.573134 
L 120.362144 184.827848 
L 120.454594 184.827848 
L 120.454594 184.455204 
L 120.731943 184.455204 
L 120.824393 183.709918 
L 121.194193 183.709918 
L 121.194193 183.337275 
L 121.471543 183.337275 
L 121.563993 182.591988 
L 121.656443 182.591988 
L 121.656443 181.474058 
L 122.118692 181.474058 
L 122.118692 181.101415 
L 122.303592 181.101415 
L 122.303592 180.728772 
L 122.765842 180.728772 
L 122.858292 179.983485 
L 122.950742 179.983485 
L 122.950742 179.238199 
L 123.135641 179.238199 
L 123.135641 178.865556 
L 123.505441 178.865556 
L 123.505441 178.492912 
L 123.690341 178.492912 
L 123.690341 178.120269 
L 124.24504 178.120269 
L 124.33749 177.002339 
L 124.70729 177.002339 
L 124.79974 176.257053 
L 125.07709 176.257053 
L 125.07709 175.511766 
L 125.35444 175.511766 
L 125.35444 175.139123 
L 125.724239 175.139123 
L 125.724239 174.76648 
L 126.371389 174.76648 
L 126.463839 172.903264 
L 126.648738 172.903264 
L 126.648738 172.157977 
L 127.203438 172.157977 
L 127.203438 171.785334 
L 127.573238 171.785334 
L 127.573238 171.412691 
L 127.758138 171.412691 
L 127.758138 170.667404 
L 128.497737 170.667404 
L 128.497737 169.922118 
L 128.867537 169.922118 
L 128.959987 168.804188 
L 129.052436 168.804188 
L 129.144886 168.058901 
L 129.237336 168.058901 
L 129.237336 167.686258 
L 129.607136 167.686258 
L 129.699586 166.195685 
L 129.884486 166.195685 
L 129.976936 165.450399 
L 130.439185 165.450399 
L 130.439185 165.077755 
L 130.993885 165.077755 
L 130.993885 164.705112 
L 131.271235 164.705112 
L 131.271235 163.959826 
L 131.548584 163.959826 
L 131.548584 163.587182 
L 131.825934 163.587182 
L 131.825934 163.214539 
L 132.288184 163.214539 
L 132.288184 162.841896 
L 132.750433 162.841896 
L 132.750433 162.469253 
L 133.305133 162.469253 
L 133.305133 161.351323 
L 133.490033 161.351323 
L 133.582483 160.233393 
L 133.674933 160.233393 
L 133.767383 159.115463 
L 134.137182 159.115463 
L 134.137182 158.74282 
L 134.599432 158.74282 
L 134.599432 158.370177 
L 135.061681 158.370177 
L 135.061681 157.997534 
L 135.431481 157.997534 
L 135.431481 157.252247 
L 135.708831 157.252247 
L 135.708831 156.879604 
L 135.893731 156.879604 
L 135.893731 155.389031 
L 136.171081 155.389031 
L 136.171081 154.643744 
L 136.44843 154.643744 
L 136.44843 154.271101 
L 136.63333 154.271101 
L 136.63333 153.898458 
L 137.00313 153.898458 
L 137.09558 152.780528 
L 137.650279 152.780528 
L 137.650279 152.407885 
L 138.020079 152.407885 
L 138.112529 151.662598 
L 138.204979 151.662598 
L 138.297429 150.172025 
L 138.482329 150.172025 
L 138.574779 149.426739 
L 138.944578 149.426739 
L 138.944578 149.054095 
L 139.591728 149.054095 
L 139.591728 148.681452 
L 140.146427 148.681452 
L 140.146427 148.308809 
L 141.163376 148.308809 
L 141.255826 147.563522 
L 141.348276 147.563522 
L 141.440726 146.818236 
L 141.810526 146.818236 
L 141.810526 146.445593 
L 142.365225 146.445593 
L 142.365225 145.700306 
L 142.642575 145.700306 
L 142.642575 144.95502 
L 143.844424 144.95502 
L 143.844424 144.582376 
L 144.214224 144.582376 
L 144.214224 144.209733 
L 144.953823 144.209733 
L 144.953823 143.83709 
L 145.138723 143.83709 
L 145.138723 143.464447 
L 145.323623 143.464447 
L 145.323623 143.091803 
L 145.600973 143.091803 
L 145.693423 142.346517 
L 146.063222 142.346517 
L 146.063222 141.973874 
L 146.248122 141.973874 
L 146.248122 141.60123 
L 146.433022 141.60123 
L 146.525472 140.483301 
L 146.895272 140.483301 
L 146.895272 140.110657 
L 147.819771 140.110657 
L 147.819771 139.365371 
L 148.18957 139.365371 
L 148.18957 138.992728 
L 148.46692 138.992728 
L 148.46692 138.620084 
L 148.74427 138.620084 
L 148.74427 138.247441 
L 149.576319 138.247441 
L 149.576319 137.874798 
L 150.038569 137.874798 
L 150.131019 137.129511 
L 150.593268 137.129511 
L 150.593268 136.756868 
L 151.055518 136.756868 
L 151.055518 135.638938 
L 151.517768 135.638938 
L 151.610218 134.893652 
L 151.887567 134.893652 
L 151.887567 134.521009 
L 152.072467 134.521009 
L 152.072467 134.148365 
L 152.534717 134.148365 
L 152.534717 133.775722 
L 153.274316 133.775722 
L 153.274316 133.403079 
L 153.921466 133.403079 
L 153.921466 132.657792 
L 154.476165 132.657792 
L 154.476165 132.285149 
L 154.661065 132.285149 
L 154.661065 131.912506 
L 155.030865 131.912506 
L 155.030865 131.539863 
L 155.493114 131.539863 
L 155.493114 130.421933 
L 156.140264 130.421933 
L 156.140264 130.04929 
L 157.342113 130.04929 
L 157.342113 129.676646 
L 157.804362 129.676646 
L 157.804362 129.304003 
L 158.636412 129.304003 
L 158.636412 128.93136 
L 159.376011 128.93136 
L 159.376011 127.81343 
L 159.745811 127.81343 
L 159.745811 127.440787 
L 159.930711 127.440787 
L 159.930711 127.068143 
L 160.67031 127.068143 
L 160.67031 126.6955 
L 161.502359 126.6955 
L 161.502359 126.322857 
L 162.426859 126.322857 
L 162.426859 125.950214 
L 162.889108 125.950214 
L 162.889108 125.57757 
L 163.443808 125.57757 
L 163.443808 124.832284 
L 164.275857 124.832284 
L 164.368307 124.086997 
L 164.553207 124.086997 
L 164.645657 123.341711 
L 164.738107 123.341711 
L 164.738107 122.969068 
L 165.107906 122.969068 
L 165.107906 122.223781 
L 166.679555 122.223781 
L 166.679555 121.851138 
L 168.158754 121.851138 
L 168.158754 121.478495 
L 168.621003 121.478495 
L 168.621003 121.105851 
L 168.805903 121.105851 
L 168.805903 120.733208 
L 170.100202 120.733208 
L 170.100202 120.360565 
L 170.470002 120.360565 
L 170.470002 119.987922 
L 170.654902 119.987922 
L 170.747352 118.869992 
L 172.134101 118.869992 
L 172.134101 118.497349 
L 173.15105 118.497349 
L 173.15105 118.124705 
L 175.000048 118.124705 
L 175.000048 117.752062 
L 175.739648 117.752062 
L 175.739648 116.634132 
L 178.882945 116.634132 
L 178.882945 116.261489 
L 179.992344 116.261489 
L 180.084794 115.516203 
L 180.916843 115.516203 
L 180.916843 115.143559 
L 181.563993 115.143559 
L 181.563993 114.770916 
L 184.52239 114.770916 
L 184.52239 114.398273 
L 185.07709 114.398273 
L 185.07709 114.02563 
L 186.094039 114.02563 
L 186.094039 113.652986 
L 186.278939 113.652986 
L 186.278939 112.9077 
L 187.758138 112.9077 
L 187.850587 112.162413 
L 188.497737 112.162413 
L 188.497737 111.78977 
L 190.808985 111.78977 
L 190.901435 111.044484 
L 191.825934 111.044484 
L 191.825934 110.67184 
L 192.935333 110.67184 
L 192.935333 110.299197 
L 193.305133 110.299197 
L 193.305133 109.553911 
L 193.859832 109.553911 
L 193.859832 109.181267 
L 195.708831 109.181267 
L 195.708831 108.808624 
L 196.171081 108.808624 
L 196.171081 108.435981 
L 196.72578 108.435981 
L 196.72578 107.690694 
L 196.91068 107.690694 
L 196.91068 107.318051 
L 197.650279 107.318051 
L 197.650279 106.945408 
L 199.406828 106.945408 
L 199.406828 106.572765 
L 201.348276 106.572765 
L 201.348276 106.200121 
L 201.810526 106.200121 
L 201.810526 105.827478 
L 203.104825 105.827478 
L 203.104825 105.454835 
L 203.567074 105.454835 
L 203.567074 105.082192 
L 203.936874 105.082192 
L 203.936874 104.709548 
L 204.676473 104.709548 
L 204.676473 104.336905 
L 205.046273 104.336905 
L 205.138723 103.591619 
L 205.693423 103.591619 
L 205.693423 103.218975 
L 206.525472 103.218975 
L 206.525472 102.846332 
L 208.004671 102.846332 
L 208.004671 102.473689 
L 208.18957 102.473689 
L 208.18957 102.101046 
L 208.46692 102.101046 
L 208.46692 101.728402 
L 209.20652 101.728402 
L 209.20652 101.355759 
L 211.147968 101.355759 
L 211.147968 100.983116 
L 212.349817 100.983116 
L 212.349817 100.610473 
L 213.089416 100.610473 
L 213.089416 100.237829 
L 213.274316 100.237829 
L 213.274316 99.865186 
L 213.644116 99.865186 
L 213.644116 99.492543 
L 214.476165 99.492543 
L 214.476165 99.119899 
L 215.215765 99.119899 
L 215.308215 98.374613 
L 216.047814 98.374613 
L 216.047814 98.00197 
L 217.434563 98.00197 
L 217.527013 97.629326 
L 217.804362 97.629326 
L 217.804362 96.88404 
L 219.006211 96.88404 
L 219.006211 96.511397 
L 219.191111 96.511397 
L 219.191111 96.138753 
L 219.376011 96.138753 
L 219.376011 95.76611 
L 220.20806 95.76611 
L 220.20806 95.393467 
L 220.76276 95.393467 
L 220.76276 95.020824 
L 223.998507 95.020824 
L 223.998507 94.64818 
L 225.015456 94.64818 
L 225.015456 94.275537 
L 225.755056 94.275537 
L 225.755056 93.902894 
L 229.268153 93.902894 
L 229.268153 93.530251 
L 229.822852 93.530251 
L 229.822852 93.157607 
L 230.285102 93.157607 
L 230.285102 92.784964 
L 233.0586 92.784964 
L 233.15105 92.412321 
L 236.571697 92.412321 
L 236.571697 92.039678 
L 238.050896 92.039678 
L 238.050896 91.667034 
L 241.286643 91.667034 
L 241.286643 91.294391 
L 241.471543 91.294391 
L 241.471543 90.921748 
L 241.841342 90.921748 
L 241.841342 90.549105 
L 242.026242 90.549105 
L 242.026242 90.176461 
L 243.875241 90.176461 
L 243.875241 89.803818 
L 244.33749 89.803818 
L 244.42994 89.058532 
L 245.35444 89.058532 
L 245.35444 88.685888 
L 245.539339 88.685888 
L 245.539339 88.313245 
L 249.329786 88.313245 
L 249.329786 87.940602 
L 250.993885 87.940602 
L 250.993885 87.567959 
L 251.825934 87.567959 
L 251.825934 87.195315 
L 253.120233 87.195315 
L 253.120233 86.822672 
L 253.952282 86.822672 
L 253.952282 86.450029 
L 257.37293 86.450029 
L 257.37293 86.077386 
L 258.204979 86.077386 
L 258.204979 85.704742 
L 258.482329 85.704742 
L 258.574779 84.959456 
L 258.667228 84.959456 
L 258.667228 84.214169 
L 258.944578 84.214169 
L 258.944578 83.841526 
L 265.138723 83.841526 
L 265.138723 83.468883 
L 265.323623 83.468883 
L 265.323623 83.09624 
L 265.508523 83.09624 
L 265.508523 82.723596 
L 267.912221 82.723596 
L 267.912221 82.350953 
L 271.887567 82.350953 
L 271.980017 81.605667 
L 272.072467 81.605667 
L 272.072467 81.233023 
L 272.627167 81.233023 
L 272.719617 80.487737 
L 273.089416 80.487737 
L 273.089416 80.115094 
L 274.198815 80.115094 
L 274.291265 79.369807 
L 274.383715 79.369807 
L 274.383715 78.997164 
L 274.753515 78.997164 
L 274.753515 78.624521 
L 275.585564 78.624521 
L 275.585564 78.251877 
L 275.770464 78.251877 
L 275.770464 77.879234 
L 278.266612 77.879234 
L 278.266612 77.506591 
L 278.821312 77.506591 
L 278.821312 77.133948 
L 279.191111 77.133948 
L 279.191111 76.761304 
L 280.67031 76.761304 
L 280.76276 76.016018 
L 281.13256 76.016018 
L 281.13256 75.643375 
L 282.057059 75.643375 
L 282.057059 75.270731 
L 283.258908 75.270731 
L 283.258908 74.898088 
L 284.923007 74.898088 
L 284.923007 74.525445 
L 286.679555 74.525445 
L 286.679555 74.152802 
L 287.973854 74.152802 
L 287.973854 73.780158 
L 288.251204 73.780158 
L 288.251204 73.407515 
L 288.898353 73.407515 
L 288.898353 72.662229 
L 291.486951 72.662229 
L 291.486951 72.289585 
L 293.613299 72.289585 
L 293.613299 71.916942 
L 295.184948 71.916942 
L 295.184948 71.544299 
L 296.941497 71.544299 
L 297.033946 70.799012 
L 297.588646 70.799012 
L 297.588646 70.426369 
L 298.143346 70.426369 
L 298.143346 70.053726 
L 298.698045 70.053726 
L 298.698045 69.681082 
L 299.252745 69.681082 
L 299.252745 69.308439 
L 302.303592 69.308439 
L 302.303592 68.563153 
L 306.278939 68.563153 
L 306.371389 67.817866 
L 308.035487 67.817866 
L 308.035487 67.445223 
L 311.086335 67.445223 
L 311.178785 67.07258 
L 311.825934 67.07258 
L 311.825934 66.699936 
L 314.414532 66.699936 
L 314.414532 66.327293 
L 314.599432 66.327293 
L 314.599432 65.95465 
L 314.784332 65.95465 
L 314.784332 65.582007 
L 316.26353 65.582007 
L 316.26353 65.209363 
L 319.406828 65.209363 
L 319.406828 64.83672 
L 322.457675 64.83672 
L 322.457675 64.464077 
L 325.138723 64.464077 
L 325.231173 64.091434 
L 328.28202 64.091434 
L 328.28202 63.71879 
L 333.274316 63.71879 
L 333.274316 63.346147 
L 334.845965 63.346147 
L 334.845965 62.973504 
L 336.140264 62.973504 
L 336.140264 62.600861 
L 337.804362 62.600861 
L 337.896812 62.228217 
L 343.721158 62.228217 
L 343.721158 61.855574 
L 344.830557 61.855574 
L 344.830557 61.482931 
L 348.713453 61.482931 
L 348.713453 61.110288 
L 350.654902 61.110288 
L 350.654902 60.737644 
L 351.856751 60.737644 
L 351.856751 59.992358 
L 355.554748 59.992358 
L 355.554748 59.619715 
L 359.899894 59.619715 
L 359.899894 59.247071 
L 360.916843 59.247071 
L 360.916843 58.501785 
L 361.101743 58.501785 
L 361.101743 58.129142 
L 363.597891 58.129142 
L 363.597891 57.756498 
L 366.926088 57.756498 
L 367.018538 56.638569 
L 370.531635 56.638569 
L 370.624085 56.265925 
L 371.086335 56.265925 
L 371.086335 55.520639 
L 389.853669 55.520639 
L 389.853669 55.147996 
L 393.551666 55.147996 
L 393.551666 54.775352 
L 400.30051 54.775352 
L 400.48541 54.402709 
L 400.48541 53.657423 
L 406.402205 53.657423 
L 406.402205 53.284779 
L 409.083253 53.284779 
L 409.175703 52.912136 
L 409.360603 52.912136 
L 409.360603 52.539493 
L 413.705749 52.539493 
L 413.798199 52.16685 
L 419.714994 52.16685 
L 419.714994 51.794206 
L 421.379093 51.794206 
L 421.379093 51.421563 
L 431.271235 51.421563 
L 431.363685 51.04892 
L 433.305133 51.04892 
L 433.397583 50.676277 
L 439.314378 50.676277 
L 439.314378 50.303633 
L 440.886027 50.303633 
L 440.886027 49.93099 
L 448.65182 49.93099 
L 448.65182 49.558347 
L 454.106366 49.558347 
L 454.106366 49.185704 
L 454.198815 49.185704 
L 460.94766 49.185704 
L 461.13256 48.81306 
L 469.268153 48.81306 
L 469.268153 48.440417 
L 469.360603 48.440417 
L 471.209601 48.440417 
L 471.209601 48.067774 
L 471.302051 48.067774 
L 472.6888 48.067774 
L 472.6888 47.695131 
L 478.882945 47.695131 
L 478.882945 47.322487 
L 494.506982 47.322487 
L 494.599432 46.949844 
L 496.26353 46.949844 
L 496.26353 46.577201 
L 506.433022 46.577201 
L 506.433022 46.204558 
L 530.839802 46.204558 
L 531.024701 45.831914 
L 531.764301 45.831914 
L 531.764301 45.459271 
L 544.52239 45.459271 
L 544.61484 45.086628 
L 545.16954 45.086628 
L 545.26199 44.713985 
L 557.09558 44.713985 
L 557.28048 44.341341 
L 572.812067 44.341341 
L 572.812067 43.596055 
L 572.996966 43.596055 
L 572.996966 42.850768 
L 573.921466 42.850768 
L 574.383715 42.478125 
L 576.417614 42.478125 
L 576.417614 42.478125 
" clip-path="url(#pe1e91ce6d5)" style="fill: none; stroke: #1f77b4; stroke-width: 1.5; stroke-linecap: square"/>
   </g>
   <g id="line2d_14">
    <path d="M 69.144886 445.678125 
L 70.537946 435.536453 
L 70.63745 432.521361 
L 70.935963 430.054468 
L 71.433484 422.653788 
L 71.532989 422.653788 
L 71.632493 420.186895 
L 71.731997 420.186895 
L 71.831501 417.445902 
L 71.931006 417.445902 
L 72.03051 414.70491 
L 72.329023 414.70491 
L 72.329023 413.608512 
L 72.528031 413.608512 
L 72.627536 411.963917 
L 72.72704 411.963917 
L 72.826544 410.86752 
L 72.926048 410.86752 
L 72.926048 410.045222 
L 73.125057 410.045222 
L 73.125057 408.674726 
L 73.324065 408.674726 
L 73.42357 407.30423 
L 73.523074 407.30423 
L 73.523074 407.03013 
L 73.722082 407.03013 
L 73.722082 406.207833 
L 73.921091 406.207833 
L 74.020595 405.111436 
L 74.120099 405.111436 
L 74.219604 403.192741 
L 74.319108 403.192741 
L 74.319108 402.096344 
L 74.518117 402.096344 
L 74.617621 401.548145 
L 74.717125 401.548145 
L 74.816629 399.90355 
L 74.916134 399.90355 
L 75.015638 397.984855 
L 75.115142 397.984855 
L 75.214646 396.614359 
L 75.314151 396.614359 
L 75.413655 394.969763 
L 75.513159 394.969763 
L 75.513159 394.421565 
L 75.712168 394.421565 
L 75.811672 393.051069 
L 76.01068 393.051069 
L 76.01068 390.584175 
L 76.209689 390.584175 
L 76.309193 386.198587 
L 76.408697 386.198587 
L 76.508202 385.37629 
L 76.70721 385.37629 
L 76.70721 384.828091 
L 76.906219 384.828091 
L 77.005723 383.457595 
L 77.105227 383.457595 
L 77.204732 380.990701 
L 77.304236 380.990701 
L 77.304236 380.442503 
L 77.503244 380.442503 
L 77.602749 378.523808 
L 77.801757 378.523808 
L 77.901261 374.412319 
L 78.000766 374.412319 
L 78.10027 369.204434 
L 78.299278 369.204434 
L 78.398783 367.559838 
L 78.498287 367.559838 
L 78.597791 364.818846 
L 78.7968 364.818846 
L 78.7968 364.544746 
L 79.095313 364.544746 
L 79.194817 362.900151 
L 79.393825 362.900151 
L 79.49333 362.351952 
L 79.592834 362.351952 
L 79.592834 361.255555 
L 79.791842 361.255555 
L 79.891347 359.885059 
L 79.990851 359.885059 
L 80.090355 358.788662 
L 80.189859 358.788662 
L 80.289364 356.869967 
L 80.388868 356.869967 
L 80.488372 353.854876 
L 80.587876 353.854876 
L 80.587876 353.580776 
L 80.886389 353.580776 
L 80.985894 352.484379 
L 81.085398 352.484379 
L 81.184902 351.113883 
L 81.284406 351.113883 
L 81.284406 350.017486 
L 81.483415 350.017486 
L 81.582919 348.64699 
L 81.881432 348.64699 
L 81.980936 347.824692 
L 82.08044 347.824692 
L 82.08044 347.550593 
L 82.279449 347.550593 
L 82.378953 345.905997 
L 82.577962 345.905997 
L 82.577962 344.261402 
L 82.77697 344.261402 
L 82.876475 343.439104 
L 83.373996 343.439104 
L 83.4735 341.794508 
L 83.772013 341.794508 
L 83.871517 340.149913 
L 83.971021 340.149913 
L 84.070526 338.505317 
L 84.17003 338.505317 
L 84.269534 336.860722 
L 84.369038 336.860722 
L 84.468543 335.216126 
L 84.667551 335.216126 
L 84.767055 334.393829 
L 84.86656 334.393829 
L 84.966064 331.652836 
L 85.264577 331.652836 
L 85.264577 331.104638 
L 85.762098 331.104638 
L 85.762098 329.734141 
L 86.160115 329.734141 
L 86.160115 328.637744 
L 86.458628 328.637744 
L 86.558132 327.267248 
L 86.657636 327.267248 
L 86.757141 325.622653 
L 86.856645 325.622653 
L 86.956149 325.074454 
L 87.752183 325.074454 
L 87.851688 323.703958 
L 87.951192 323.703958 
L 87.951192 322.607561 
L 88.1502 322.607561 
L 88.249705 320.414767 
L 88.349209 320.414767 
L 88.448713 316.577377 
L 88.548217 316.577377 
L 88.548217 316.303278 
L 88.84673 316.303278 
L 88.946234 314.384583 
L 89.045739 314.384583 
L 89.145243 313.562285 
L 89.244747 313.562285 
L 89.244747 313.014087 
L 89.54326 313.014087 
L 89.642764 312.191789 
L 89.841773 312.191789 
L 89.841773 311.91769 
L 90.040781 311.91769 
L 90.140286 311.095392 
L 90.339294 311.095392 
L 90.339294 308.628499 
L 90.637807 308.628499 
L 90.737311 306.161606 
L 90.836815 306.161606 
L 90.93632 305.339308 
L 91.035824 305.339308 
L 91.035824 305.065209 
L 91.234833 305.065209 
L 91.334337 303.146514 
L 91.433841 303.146514 
L 91.533345 302.324216 
L 91.63285 302.324216 
L 91.732354 301.776018 
L 91.831858 301.776018 
L 91.931362 300.405521 
L 92.229875 300.405521 
L 92.329379 297.938628 
L 92.428884 297.938628 
L 92.528388 297.39043 
L 92.627892 297.39043 
L 92.627892 297.11633 
L 92.926405 297.11633 
L 92.926405 296.294033 
L 93.125413 296.294033 
L 93.125413 295.745834 
L 93.324422 295.745834 
L 93.423926 294.375338 
L 93.523431 294.375338 
L 93.523431 293.827139 
L 93.921448 293.827139 
L 93.921448 291.908445 
L 94.120456 291.908445 
L 94.21996 290.537948 
L 94.418969 290.537948 
L 94.518473 289.441551 
L 94.717482 289.441551 
L 94.816986 288.893353 
L 94.91649 288.893353 
L 95.015994 288.071055 
L 95.115499 288.071055 
L 95.215003 286.700559 
L 95.513516 286.700559 
L 95.513516 286.426459 
L 95.712524 286.426459 
L 95.812029 285.604162 
L 96.011037 285.604162 
L 96.110541 283.959566 
L 96.30955 283.959566 
L 96.30955 283.137268 
L 96.508558 283.137268 
L 96.608063 280.670375 
L 96.707567 280.670375 
L 96.807071 279.848077 
L 97.304592 279.848077 
L 97.404097 278.477581 
L 97.503601 278.477581 
L 97.603105 277.655283 
L 97.70261 277.655283 
L 97.802114 276.284787 
L 97.901618 276.284787 
L 98.001122 275.18839 
L 98.299635 275.18839 
L 98.399139 274.091993 
L 98.498644 274.091993 
L 98.598148 271.899199 
L 98.697652 271.899199 
L 98.797156 271.076901 
L 99.095669 271.076901 
L 99.095669 269.432306 
L 99.394182 269.432306 
L 99.394182 269.158207 
L 99.593191 269.158207 
L 99.692695 268.610008 
L 99.792199 268.610008 
L 99.792199 267.78771 
L 100.190216 267.78771 
L 100.190216 267.513611 
L 100.588233 267.513611 
L 100.588233 266.417214 
L 100.886746 266.417214 
L 100.98625 265.320817 
L 101.483771 265.320817 
L 101.483771 262.853924 
L 101.981293 262.853924 
L 102.080797 262.305725 
L 102.279806 262.305725 
L 102.279806 262.031626 
L 102.677823 262.031626 
L 102.677823 261.209328 
L 102.876831 261.209328 
L 102.976335 260.112931 
L 103.07584 260.112931 
L 103.07584 259.016534 
L 103.374352 259.016534 
L 103.473857 258.194236 
L 103.77237 258.194236 
L 103.77237 257.920137 
L 104.170387 257.920137 
L 104.269891 257.371939 
L 104.468899 257.371939 
L 104.568404 255.727343 
L 104.667908 255.727343 
L 104.767412 254.630946 
L 104.866916 254.630946 
L 104.866916 253.808648 
L 105.264933 253.808648 
L 105.364438 252.438152 
L 105.463942 252.438152 
L 105.563446 251.889954 
L 105.762455 251.889954 
L 105.861959 251.341755 
L 105.961463 251.341755 
L 106.060968 250.793557 
L 106.259976 250.793557 
L 106.35948 249.69716 
L 106.458985 249.69716 
L 106.558489 248.874862 
L 106.657993 248.874862 
L 106.757497 248.052564 
L 106.956506 248.052564 
L 106.956506 247.504366 
L 107.852044 247.504366 
L 107.852044 246.956167 
L 108.44907 246.956167 
L 108.44907 246.133869 
L 109.344608 246.133869 
L 109.344608 245.311572 
L 109.643121 245.311572 
L 109.742625 243.392877 
L 109.842129 243.392877 
L 109.842129 243.118778 
L 110.140642 243.118778 
L 110.240147 241.200083 
L 110.538659 241.200083 
L 110.638164 240.377785 
L 110.837172 240.377785 
L 110.936676 239.281388 
L 111.036181 239.281388 
L 111.036181 239.007289 
L 111.434198 239.007289 
L 111.533702 238.45909 
L 111.633206 238.45909 
L 111.73271 237.636793 
L 111.931719 237.636793 
L 111.931719 236.540396 
L 112.230232 236.540396 
L 112.230232 235.992197 
L 112.628249 235.992197 
L 112.628249 234.8958 
L 112.926762 234.8958 
L 112.926762 233.799403 
L 113.324779 233.799403 
L 113.424283 232.977105 
L 113.722796 232.977105 
L 113.8223 231.880708 
L 114.120813 231.880708 
L 114.120813 230.784311 
L 114.319821 230.784311 
L 114.419326 229.962014 
L 114.51883 229.962014 
L 114.51883 229.687914 
L 114.817343 229.687914 
L 114.817343 229.139716 
L 115.016351 229.139716 
L 115.115855 228.043319 
L 115.21536 228.043319 
L 115.314864 226.946922 
L 115.513872 226.946922 
L 115.613377 226.398723 
L 115.712881 226.398723 
L 115.812385 225.850525 
L 115.911889 225.850525 
L 115.911889 224.480028 
L 116.110898 224.480028 
L 116.210402 223.657731 
L 116.409411 223.657731 
L 116.409411 223.383631 
L 116.707924 223.383631 
L 116.807428 222.835433 
L 116.906932 222.835433 
L 117.006436 222.013135 
L 117.205445 222.013135 
L 117.205445 221.739036 
L 117.603462 221.739036 
L 117.603462 221.464937 
L 117.80247 221.464937 
L 117.80247 221.190837 
L 118.200487 221.190837 
L 118.299992 219.820341 
L 118.598505 219.820341 
L 118.698009 218.998043 
L 118.797513 218.998043 
L 118.897017 217.901646 
L 119.096026 217.901646 
L 119.096026 217.627547 
L 119.295034 217.627547 
L 119.394539 217.079349 
L 119.693051 217.079349 
L 119.693051 216.805249 
L 119.89206 216.805249 
L 119.991564 215.160654 
L 120.190573 215.160654 
L 120.190573 214.612455 
L 120.489086 214.612455 
L 120.489086 214.338356 
L 120.688094 214.338356 
L 120.688094 214.064257 
L 121.086111 214.064257 
L 121.185615 212.96786 
L 121.981649 212.96786 
L 121.981649 212.419661 
L 122.379666 212.419661 
L 122.479171 211.597364 
L 122.578675 211.597364 
L 122.678179 211.049165 
L 122.777684 211.049165 
L 122.877188 210.500967 
L 122.976692 210.500967 
L 122.976692 208.856371 
L 123.175701 208.856371 
L 123.175701 208.034073 
L 123.573718 208.034073 
L 123.573718 207.485875 
L 124.170743 207.485875 
L 124.170743 207.211776 
L 124.469256 207.211776 
L 124.56876 205.841279 
L 124.867273 205.841279 
L 124.867273 205.56718 
L 125.364794 205.56718 
L 125.364794 205.293081 
L 125.563803 205.293081 
L 125.563803 205.018982 
L 125.762811 205.018982 
L 125.762811 204.744882 
L 126.260333 204.744882 
L 126.359837 203.100287 
L 126.459341 203.100287 
L 126.558845 202.00389 
L 126.65835 201.729791 
L 127.056367 201.729791 
L 127.056367 201.455691 
L 127.553888 201.455691 
L 127.553888 200.907493 
L 127.951905 200.907493 
L 127.951905 200.633394 
L 128.150914 200.633394 
L 128.250418 199.811096 
L 128.349922 199.811096 
L 128.449426 199.262897 
L 128.648435 199.262897 
L 128.648435 198.1665 
L 128.946948 198.1665 
L 128.946948 197.618302 
L 129.245461 197.618302 
L 129.245461 197.344202 
L 129.344965 197.344202 
L 129.444469 196.796004 
L 129.742982 196.796004 
L 129.842486 195.973706 
L 130.439512 195.973706 
L 130.439512 195.699607 
L 130.837529 195.699607 
L 130.937033 195.151408 
L 131.036537 195.151408 
L 131.136042 194.055011 
L 131.33505 194.055011 
L 131.434554 192.958614 
L 131.633563 192.958614 
L 131.633563 192.684515 
L 131.832571 192.684515 
L 131.832571 192.410416 
L 132.03158 192.410416 
L 132.131084 191.862217 
L 132.72811 191.862217 
L 132.72811 191.588118 
L 133.126127 191.588118 
L 133.225631 190.76582 
L 133.524144 190.76582 
L 133.623648 190.217622 
L 133.723152 190.217622 
L 133.723152 189.395324 
L 134.121169 189.395324 
L 134.121169 188.847126 
L 134.618691 188.847126 
L 134.618691 188.298927 
L 134.917203 188.298927 
L 134.917203 187.750729 
L 135.912246 187.750729 
L 135.912246 187.476629 
L 136.111255 187.476629 
L 136.111255 187.20253 
L 136.509272 187.20253 
L 136.509272 186.928431 
L 136.907289 186.928431 
L 136.907289 186.654332 
L 137.205802 186.654332 
L 137.205802 186.380232 
L 137.40481 186.380232 
L 137.40481 186.106133 
L 137.603819 186.106133 
L 137.603819 185.832034 
L 137.902331 185.832034 
L 138.001836 185.283835 
L 138.399853 185.283835 
L 138.499357 184.461538 
L 138.698365 184.461538 
L 138.79787 183.63924 
L 138.996878 183.63924 
L 139.096382 183.091041 
L 139.394895 183.091041 
L 139.394895 182.816942 
L 139.991921 182.816942 
L 139.991921 182.268744 
L 140.290434 182.268744 
L 140.290434 181.720545 
L 140.588946 181.720545 
L 140.688451 180.624148 
L 141.185972 180.624148 
L 141.185972 180.350049 
L 141.484485 180.350049 
L 141.583989 179.527751 
L 141.782998 179.527751 
L 141.882502 178.979553 
L 141.982006 178.979553 
L 141.982006 178.705453 
L 142.280519 178.705453 
L 142.380023 178.157255 
L 142.479527 178.157255 
L 142.579032 177.060858 
L 143.076553 177.060858 
L 143.176057 176.512659 
L 143.47457 176.512659 
L 143.47457 176.23856 
L 143.673579 176.23856 
L 143.673579 175.964461 
L 144.1711 175.964461 
L 144.1711 175.690362 
L 144.469613 175.690362 
L 144.469613 175.416262 
L 144.86763 175.416262 
L 144.86763 175.142163 
L 145.166142 175.142163 
L 145.166142 174.868064 
L 145.365151 174.868064 
L 145.365151 173.497568 
L 145.763168 173.497568 
L 145.862672 172.67527 
L 146.260689 172.67527 
L 146.260689 172.127071 
L 146.658706 172.127071 
L 146.658706 171.304774 
L 146.957219 171.304774 
L 147.056723 170.756575 
L 147.156228 170.756575 
L 147.156228 170.482476 
L 148.449783 170.482476 
L 148.549287 169.934277 
L 148.648792 169.934277 
L 148.748296 169.386079 
L 149.146313 169.386079 
L 149.146313 168.83788 
L 149.345321 168.83788 
L 149.345321 168.289682 
L 149.643834 168.289682 
L 149.643834 168.015583 
L 150.041851 168.015583 
L 150.041851 167.193285 
L 150.439868 167.193285 
L 150.439868 166.919186 
L 150.638877 166.919186 
L 150.638877 166.645086 
L 150.93739 166.645086 
L 150.93739 165.822788 
L 151.136398 165.822788 
L 151.136398 165.548689 
L 152.031937 165.548689 
L 152.031937 165.27459 
L 152.330449 165.27459 
L 152.330449 165.000491 
L 152.827971 165.000491 
L 152.827971 164.178193 
L 153.225988 164.178193 
L 153.225988 163.904094 
L 153.823013 163.904094 
L 153.823013 163.355895 
L 154.22103 163.355895 
L 154.22103 163.081796 
L 154.619047 163.081796 
L 154.718552 162.533597 
L 154.91756 162.533597 
L 155.017064 161.163101 
L 155.315577 161.163101 
L 155.315577 160.614903 
L 155.61409 160.614903 
L 155.61409 160.340803 
L 156.907645 160.340803 
L 156.907645 160.066704 
L 157.106654 160.066704 
L 157.106654 159.792605 
L 157.504671 159.792605 
L 157.504671 159.518506 
L 158.300705 159.518506 
L 158.300705 159.244406 
L 158.798226 159.244406 
L 158.798226 158.970307 
L 158.997235 158.970307 
L 158.997235 158.696208 
L 160.390295 158.696208 
L 160.390295 158.422109 
L 160.788312 158.422109 
L 160.788312 158.148009 
L 160.98732 158.148009 
L 161.086824 157.325712 
L 162.38038 157.325712 
L 162.479884 156.777513 
L 163.474927 156.777513 
L 163.574431 155.681116 
L 164.071952 155.681116 
L 164.071952 155.407017 
L 164.270961 155.407017 
L 164.370465 154.858818 
L 164.569474 154.858818 
L 164.569474 154.584719 
L 164.867986 154.584719 
L 164.867986 154.31062 
L 165.564516 154.31062 
L 165.564516 153.214223 
L 167.05708 153.214223 
L 167.05708 152.940124 
L 167.256089 152.940124 
L 167.256089 152.666024 
L 168.748653 152.666024 
L 168.748653 152.391925 
L 169.644191 152.391925 
L 169.743695 151.569627 
L 169.843199 151.569627 
L 169.843199 151.295528 
L 170.738738 151.295528 
L 170.738738 151.021429 
L 171.435268 151.021429 
L 171.435268 150.74733 
L 171.634276 150.74733 
L 171.73378 149.650933 
L 172.231302 149.650933 
L 172.231302 149.376833 
L 172.629319 149.376833 
L 172.728823 148.554536 
L 173.82337 148.554536 
L 173.82337 148.280436 
L 174.420395 148.280436 
L 174.420395 147.732238 
L 175.415438 147.732238 
L 175.415438 147.458139 
L 175.614447 147.458139 
L 175.614447 146.90994 
L 175.912959 146.90994 
L 175.912959 146.635841 
L 176.708994 146.635841 
L 176.708994 146.361742 
L 177.007506 146.361742 
L 177.107011 145.539444 
L 177.505028 145.539444 
L 177.604532 144.991245 
L 178.898087 144.991245 
L 178.898087 144.717146 
L 179.395609 144.717146 
L 179.395609 144.168948 
L 179.793626 144.168948 
L 179.793626 143.34665 
L 180.788668 143.34665 
L 180.788668 143.072551 
L 181.186685 143.072551 
L 181.186685 142.798451 
L 181.385694 142.798451 
L 181.684207 141.976154 
L 182.082224 141.976154 
L 182.082224 141.153856 
L 182.579745 141.153856 
L 182.579745 140.879757 
L 182.778753 140.879757 
L 182.878258 140.331558 
L 184.370822 140.331558 
L 184.470326 139.50926 
L 184.669334 139.50926 
L 184.669334 139.235161 
L 185.26636 139.235161 
L 185.26636 138.686963 
L 185.465369 138.686963 
L 185.564873 138.138764 
L 185.863386 138.138764 
L 185.863386 137.864665 
L 186.062394 137.864665 
L 186.062394 137.590566 
L 187.455454 137.590566 
L 187.455454 137.316466 
L 187.753967 137.316466 
L 187.753967 136.768268 
L 188.848513 136.768268 
L 188.848513 136.494169 
L 189.744052 136.494169 
L 189.744052 135.671871 
L 190.042565 135.671871 
L 190.042565 135.397771 
L 191.037607 135.397771 
L 191.037607 135.123672 
L 191.33612 135.123672 
L 191.33612 134.849573 
L 191.535129 134.849573 
L 191.535129 134.575474 
L 191.734137 134.575474 
L 191.734137 134.301374 
L 192.132154 134.301374 
L 192.132154 134.027275 
L 192.530171 134.027275 
L 192.530171 133.753176 
L 192.828684 133.753176 
L 192.828684 133.479077 
L 193.226701 133.479077 
L 193.326205 132.656779 
L 193.624718 132.656779 
L 193.724222 132.10858 
L 193.923231 132.10858 
L 193.923231 131.834481 
L 194.520256 131.834481 
L 194.520256 131.560382 
L 195.216786 131.560382 
L 195.216786 131.286283 
L 196.01282 131.286283 
L 196.01282 131.012183 
L 196.211829 131.012183 
L 196.211829 130.738084 
L 196.510342 130.738084 
L 196.510342 130.463985 
L 197.306376 130.463985 
L 197.306376 130.189886 
L 198.599931 130.189886 
L 198.699435 129.367588 
L 198.79894 129.367588 
L 198.79894 129.093489 
L 198.997948 129.093489 
L 198.997948 128.819389 
L 199.495469 128.819389 
L 199.495469 128.54529 
L 199.893487 128.54529 
L 199.893487 128.271191 
L 200.092495 128.271191 
L 200.092495 127.997092 
L 200.888529 127.997092 
L 200.888529 127.722992 
L 201.087538 127.722992 
L 201.087538 127.174794 
L 201.286546 127.174794 
L 201.38605 126.352496 
L 202.08258 126.352496 
L 202.08258 126.078397 
L 202.878614 126.078397 
L 202.978119 125.530198 
L 203.077623 125.530198 
L 203.077623 125.256099 
L 203.376136 125.256099 
L 203.376136 124.982 
L 203.575144 124.982 
L 203.674648 124.433801 
L 204.968204 124.433801 
L 204.968204 124.159702 
L 205.366221 124.159702 
L 205.366221 123.611504 
L 206.162255 123.611504 
L 206.162255 123.337404 
L 206.560272 123.337404 
L 206.560272 123.063305 
L 206.759281 123.063305 
L 206.759281 122.789206 
L 206.958289 122.789206 
L 207.057793 122.241007 
L 207.356306 122.241007 
L 207.356306 121.966908 
L 207.654819 121.966908 
L 207.654819 121.692809 
L 208.052836 121.692809 
L 208.15234 121.14461 
L 208.550357 121.14461 
L 208.550357 120.870511 
L 209.346391 120.870511 
L 209.346391 120.596412 
L 209.943417 120.596412 
L 209.943417 120.322313 
L 211.336477 120.322313 
L 211.336477 120.048213 
L 212.431024 120.048213 
L 212.431024 119.774114 
L 213.227058 119.774114 
L 213.227058 119.500015 
L 213.824083 119.500015 
L 213.824083 119.225916 
L 216.908715 119.225916 
L 216.908715 118.951816 
L 217.505741 118.951816 
L 217.505741 118.677717 
L 217.704749 118.677717 
L 217.704749 118.403618 
L 217.903758 118.403618 
L 217.903758 118.129519 
L 218.500784 118.129519 
L 218.500784 117.58132 
L 218.799296 117.58132 
L 218.799296 117.307221 
L 219.694835 117.307221 
L 219.694835 116.759022 
L 220.391364 116.759022 
L 220.391364 116.484923 
L 220.789382 116.484923 
L 220.789382 116.210824 
L 221.485911 116.210824 
L 221.485911 115.936725 
L 221.983433 115.936725 
L 221.983433 115.662625 
L 222.182441 115.662625 
L 222.182441 115.388526 
L 222.480954 115.388526 
L 222.480954 115.114427 
L 223.177484 115.114427 
L 223.177484 114.566228 
L 223.376492 114.566228 
L 223.376492 114.01803 
L 224.769552 114.01803 
L 224.869056 113.469831 
L 226.958646 113.469831 
L 226.958646 113.195732 
L 228.252201 113.195732 
L 228.351705 112.373434 
L 228.749722 112.373434 
L 228.749722 112.099335 
L 228.948731 112.099335 
L 228.948731 111.825236 
L 230.938816 111.825236 
L 230.938816 111.551137 
L 231.237329 111.551137 
L 231.336833 111.002938 
L 231.436338 111.002938 
L 231.436338 110.728839 
L 231.834355 110.728839 
L 231.834355 110.45474 
L 232.331876 110.45474 
L 232.331876 110.18064 
L 232.530884 110.18064 
L 232.530884 109.906541 
L 235.516012 109.906541 
L 235.516012 109.632442 
L 236.312046 109.632442 
L 236.411551 109.084243 
L 236.809568 109.084243 
L 236.909072 108.536045 
L 238.003619 108.536045 
L 238.003619 108.261946 
L 238.401636 108.261946 
L 238.401636 107.987846 
L 238.799653 107.987846 
L 238.799653 107.713747 
L 240.192713 107.713747 
L 240.292217 107.165549 
L 240.988747 107.165549 
L 240.988747 106.891449 
L 244.670404 106.891449 
L 244.769909 106.343251 
L 245.466438 106.343251 
L 245.466438 106.069152 
L 245.764951 106.069152 
L 245.864456 105.520953 
L 245.96396 105.520953 
L 245.96396 104.972755 
L 246.262473 104.972755 
L 246.262473 104.698655 
L 247.556028 104.698655 
L 247.556028 104.424556 
L 252.133224 104.424556 
L 252.133224 104.150457 
L 252.431737 104.150457 
L 252.431737 103.876357 
L 252.630745 103.876357 
L 252.630745 103.602258 
L 252.829754 103.602258 
L 252.829754 103.328159 
L 253.028762 103.328159 
L 253.028762 103.05406 
L 253.426779 103.05406 
L 253.426779 102.77996 
L 253.625788 102.77996 
L 253.725292 102.231762 
L 254.620831 102.231762 
L 254.620831 101.957663 
L 255.217856 101.957663 
L 255.217856 101.683563 
L 256.01389 101.683563 
L 256.113395 101.135365 
L 259.297531 101.135365 
L 259.397035 100.587166 
L 259.496539 100.587166 
L 259.496539 100.038968 
L 259.695548 100.038968 
L 259.695548 99.764869 
L 259.894556 99.764869 
L 259.994061 99.21667 
L 260.392078 99.21667 
L 260.392078 98.942571 
L 261.586129 98.942571 
L 261.685633 98.394372 
L 261.785137 98.394372 
L 261.785137 98.120273 
L 262.183154 98.120273 
L 262.282659 97.572075 
L 262.979189 97.572075 
L 262.979189 97.297975 
L 263.178197 97.297975 
L 263.178197 96.749777 
L 263.874727 96.749777 
L 263.874727 96.475678 
L 265.566299 96.475678 
L 265.566299 95.927479 
L 266.163325 95.927479 
L 266.163325 95.65338 
L 266.362333 95.65338 
L 266.461838 95.105181 
L 268.053906 95.105181 
L 268.15341 94.556983 
L 268.551427 94.556983 
L 268.551427 94.008784 
L 269.446966 94.008784 
L 269.446966 93.734685 
L 269.745478 93.734685 
L 269.745478 93.460586 
L 270.243 93.460586 
L 270.243 93.186487 
L 270.541512 93.186487 
L 270.541512 92.912387 
L 272.332589 92.912387 
L 272.432093 92.364189 
L 273.427136 92.364189 
L 273.427136 92.09009 
L 273.825153 92.09009 
L 273.924657 91.541891 
L 274.9197 91.541891 
L 274.9197 91.267792 
L 275.218213 91.267792 
L 275.218213 90.719593 
L 275.417221 90.719593 
L 275.417221 90.445494 
L 276.113751 90.445494 
L 276.113751 89.897296 
L 277.307802 89.897296 
L 277.307802 89.623196 
L 278.501853 89.623196 
L 278.501853 88.526799 
L 280.093922 88.526799 
L 280.093922 88.2527 
L 280.690947 88.2527 
L 280.690947 87.978601 
L 281.884998 87.978601 
L 281.884998 87.704502 
L 282.084007 87.704502 
L 282.183511 87.156303 
L 282.581528 87.156303 
L 282.581528 86.882204 
L 283.974588 86.882204 
L 284.074092 85.785807 
L 284.472109 85.785807 
L 284.472109 85.511708 
L 285.069135 85.511708 
L 285.069135 85.237608 
L 285.467152 85.237608 
L 285.566656 84.68941 
L 286.163682 84.68941 
L 286.163682 84.415311 
L 286.760707 84.415311 
L 286.760707 84.141211 
L 289.148809 84.141211 
L 289.248314 83.318914 
L 292.133937 83.318914 
L 292.133937 83.044814 
L 292.233442 83.044814 
L 293.427493 83.044814 
L 293.526997 82.496616 
L 294.024518 82.496616 
L 294.024518 82.222517 
L 295.218569 82.222517 
L 295.318074 81.674318 
L 296.910142 81.674318 
L 296.910142 81.400219 
L 298.303202 81.400219 
L 298.402706 81.12612 
L 299.099236 81.12612 
L 299.099236 80.85202 
L 299.596757 80.85202 
L 299.596757 80.577921 
L 299.795765 80.577921 
L 299.795765 80.303822 
L 300.5918 80.303822 
L 300.5918 80.029723 
L 300.989817 80.029723 
L 300.989817 79.755623 
L 301.487338 79.755623 
L 301.487338 79.481524 
L 301.686346 79.481524 
L 301.686346 79.207425 
L 301.885355 79.207425 
L 301.984859 78.659226 
L 302.482381 78.659226 
L 302.482381 78.385127 
L 303.278415 78.385127 
L 303.278415 78.111028 
L 304.273457 78.111028 
L 304.273457 77.836929 
L 304.57197 77.836929 
L 304.57197 77.562829 
L 305.467508 77.562829 
L 305.467508 77.28873 
L 305.865525 77.28873 
L 305.865525 77.014631 
L 306.263543 77.014631 
L 306.263543 76.740532 
L 308.054619 76.740532 
L 308.054619 76.466432 
L 309.447679 76.466432 
L 309.447679 76.192333 
L 311.636773 76.192333 
L 311.636773 75.918234 
L 312.233798 75.918234 
L 312.233798 75.644135 
L 313.527354 75.644135 
L 313.527354 75.370035 
L 315.517439 75.370035 
L 315.517439 75.095936 
L 318.204054 75.095936 
L 318.204054 74.821837 
L 320.791165 74.821837 
L 320.791165 74.547738 
L 321.786207 74.547738 
L 321.786207 74.273638 
L 321.985216 74.273638 
L 321.985216 73.999539 
L 322.283729 73.999539 
L 322.283729 73.72544 
L 323.676788 73.72544 
L 323.676788 73.45134 
L 325.169352 73.45134 
L 325.268857 72.354943 
L 326.164395 72.354943 
L 326.164395 71.806745 
L 328.054976 71.806745 
L 328.054976 71.532646 
L 328.552497 71.532646 
L 328.552497 71.258546 
L 328.751506 71.258546 
L 328.751506 70.984447 
L 329.448036 70.984447 
L 329.448036 70.710348 
L 330.741591 70.710348 
L 330.841095 70.162149 
L 332.035146 70.162149 
L 332.035146 69.88805 
L 334.622257 69.88805 
L 334.622257 69.339852 
L 336.015317 69.339852 
L 336.015317 69.065752 
L 338.104906 69.065752 
L 338.104906 68.791653 
L 338.403419 68.791653 
L 338.403419 68.517554 
L 339.298957 68.517554 
L 339.298957 67.969355 
L 340.891026 67.969355 
L 340.891026 67.695256 
L 343.179624 67.695256 
L 343.179624 67.421157 
L 347.856324 67.421157 
L 347.856324 67.147058 
L 348.851367 67.147058 
L 348.851367 66.32476 
L 349.050375 66.32476 
L 349.050375 66.050661 
L 351.537982 66.050661 
L 351.637486 65.502462 
L 352.533024 65.502462 
L 352.533024 65.228363 
L 353.13005 65.228363 
L 353.13005 64.954264 
L 355.020631 64.954264 
L 355.120135 64.131966 
L 355.617656 64.131966 
L 355.617656 63.857867 
L 356.513195 63.857867 
L 356.513195 63.583767 
L 358.801793 63.583767 
L 358.801793 63.309668 
L 359.299314 63.309668 
L 359.299314 62.76147 
L 360.59287 62.76147 
L 360.59287 62.48737 
L 363.478493 62.48737 
L 363.577997 61.939172 
L 365.667587 61.939172 
L 365.667587 61.665073 
L 366.961142 61.665073 
L 366.961142 61.390973 
L 368.652715 61.390973 
L 368.652715 61.116874 
L 369.24974 61.116874 
L 369.349245 60.568676 
L 378.702645 60.568676 
L 378.702645 60.294576 
L 381.38926 60.294576 
L 381.38926 60.020477 
L 382.583311 60.020477 
L 382.583311 59.746378 
L 389.946627 59.746378 
L 390.046131 58.92408 
L 392.633242 58.92408 
L 392.633242 58.649981 
L 394.026302 58.649981 
L 394.026302 58.375882 
L 395.916883 58.375882 
L 395.916883 58.101782 
L 396.115891 58.101782 
L 396.115891 57.827683 
L 396.414404 57.827683 
L 396.414404 57.553584 
L 398.90201 57.553584 
L 399.001515 57.279485 
L 399.200523 57.279485 
L 399.200523 56.731286 
L 403.777719 56.731286 
L 403.877223 56.457187 
L 410.245496 56.457187 
L 410.245496 56.183088 
L 412.036573 56.183088 
L 412.036573 55.908988 
L 413.13112 55.908988 
L 413.13112 55.634889 
L 419.996914 55.634889 
L 419.996914 55.36079 
L 420.892452 55.36079 
L 420.892452 55.086691 
L 421.290469 55.086691 
L 421.290469 54.812591 
L 422.285512 54.812591 
L 422.285512 54.538492 
L 424.474606 54.538492 
L 424.57411 54.264393 
L 430.942383 54.264393 
L 430.942383 53.990294 
L 432.633955 53.990294 
L 432.633955 53.716194 
L 437.012143 53.716194 
L 437.012143 53.442095 
L 440.892809 53.442095 
L 440.892809 53.167996 
L 443.081903 53.167996 
L 443.081903 52.893897 
L 446.664056 52.893897 
L 446.664056 52.619797 
L 446.962569 52.619797 
L 446.962569 52.345698 
L 453.927867 52.345698 
L 453.927867 52.071599 
L 454.524893 52.071599 
L 454.524893 51.7975 
L 454.723901 51.7975 
L 454.723901 51.5234 
L 462.684242 51.5234 
L 462.684242 51.249301 
L 462.783747 51.249301 
L 464.773832 51.249301 
L 464.773832 50.975202 
L 465.370857 50.975202 
L 465.470362 50.701103 
L 466.266396 50.701103 
L 466.266396 50.427003 
L 472.933181 50.427003 
L 472.933181 50.152904 
L 486.565265 50.152904 
L 486.565265 49.878805 
L 486.963282 49.878805 
L 486.963282 49.604706 
L 489.649897 49.604706 
L 489.649897 49.330606 
L 491.440974 49.330606 
L 491.440974 49.056507 
L 495.520649 49.056507 
L 495.520649 48.782408 
L 502.286939 48.782408 
L 502.286939 48.508309 
L 504.277024 48.508309 
L 504.277024 48.234209 
L 509.053228 48.234209 
L 509.053228 47.96011 
L 509.451245 47.96011 
L 509.451245 47.686011 
L 523.381842 47.686011 
L 523.381842 47.411912 
L 523.481346 47.411912 
L 528.158047 47.411912 
L 528.257551 47.137812 
L 529.153089 47.137812 
L 529.153089 46.863713 
L 530.446645 46.863713 
L 530.546149 46.589614 
L 537.511447 46.589614 
L 537.511447 46.315515 
L 538.307481 46.315515 
L 538.307481 46.041415 
L 542.586165 46.041415 
L 542.685669 45.767316 
L 543.382199 45.767316 
L 543.382199 45.493217 
L 556.118744 45.493217 
L 556.118744 45.219118 
L 571.939922 45.219118 
L 571.939922 44.945018 
L 572.039426 44.945018 
L 572.934964 44.945018 
L 572.934964 44.39682 
L 573.133973 44.39682 
L 573.233477 43.574522 
L 574.029511 43.574522 
L 574.029511 43.300423 
L 574.129016 43.300423 
L 574.427528 43.300423 
L 574.427528 43.026324 
L 574.527033 43.026324 
L 574.726041 42.752224 
L 575.522075 42.752224 
L 575.62158 42.478125 
L 576.417614 42.478125 
L 576.417614 42.478125 
" clip-path="url(#pe1e91ce6d5)" style="fill: none; stroke: #ff7f0e; stroke-width: 1.5; stroke-linecap: square"/>
   </g>
   <g id="line2d_15">
    <path d="M 69.144886 445.678125 
L 576.417614 42.478125 
" clip-path="url(#pe1e91ce6d5)" style="fill: none; stroke-dasharray: 5.55,2.4; stroke-dashoffset: 0; stroke: #ff0000; stroke-width: 1.5"/>
   </g>
   <g id="patch_3">
    <path d="M 43.78125 465.838125 
L 43.78125 22.318125 
" style="fill: none; stroke: #000000; stroke-width: 0.8; stroke-linejoin: miter; stroke-linecap: square"/>
   </g>
   <g id="patch_4">
    <path d="M 601.78125 465.838125 
L 601.78125 22.318125 
" style="fill: none; stroke: #000000; stroke-width: 0.8; stroke-linejoin: miter; stroke-linecap: square"/>
   </g>
   <g id="patch_5">
    <path d="M 43.78125 465.838125 
L 601.78125 465.838125 
" style="fill: none; stroke: #000000; stroke-width: 0.8; stroke-linejoin: miter; stroke-linecap: square"/>
   </g>
   <g id="patch_6">
    <path d="M 43.78125 22.318125 
L 601.78125 22.318125 
" style="fill: none; stroke: #000000; stroke-width: 0.8; stroke-linejoin: miter; stroke-linecap: square"/>
   </g>
   <g id="text_15">
    <!-- AUC ROC for Outcomes with 6 Variables -->
    <g transform="translate(202.846875 16.318125) scale(0.12 -0.12)">
     <defs>
      <path id="DejaVuSans-41" d="M 2188 4044 
L 1331 1722 
L 3047 1722 
L 2188 4044 
z
M 1831 4666 
L 2547 4666 
L 4325 0 
L 3669 0 
L 3244 1197 
L 1141 1197 
L 716 0 
L 50 0 
L 1831 4666 
z
" transform="scale(0.015625)"/>
      <path id="DejaVuSans-55" d="M 556 4666 
L 1191 4666 
L 1191 1831 
Q 1191 1081 1462 751 
Q 1734 422 2344 422 
Q 2950 422 3222 751 
Q 3494 1081 3494 1831 
L 3494 4666 
L 4128 4666 
L 4128 1753 
Q 4128 841 3676 375 
Q 3225 -91 2344 -91 
Q 1459 -91 1007 375 
Q 556 841 556 1753 
L 556 4666 
z
" transform="scale(0.015625)"/>
      <path id="DejaVuSans-43" d="M 4122 4306 
L 4122 3641 
Q 3803 3938 3442 4084 
Q 3081 4231 2675 4231 
Q 1875 4231 1450 3742 
Q 1025 3253 1025 2328 
Q 1025 1406 1450 917 
Q 1875 428 2675 428 
Q 3081 428 3442 575 
Q 3803 722 4122 1019 
L 4122 359 
Q 3791 134 3420 21 
Q 3050 -91 2638 -91 
Q 1578 -91 968 557 
Q 359 1206 359 2328 
Q 359 3453 968 4101 
Q 1578 4750 2638 4750 
Q 3056 4750 3426 4639 
Q 3797 4528 4122 4306 
z
" transform="scale(0.015625)"/>
      <path id="DejaVuSans-52" d="M 2841 2188 
Q 3044 2119 3236 1894 
Q 3428 1669 3622 1275 
L 4263 0 
L 3584 0 
L 2988 1197 
Q 2756 1666 2539 1819 
Q 2322 1972 1947 1972 
L 1259 1972 
L 1259 0 
L 628 0 
L 628 4666 
L 2053 4666 
Q 2853 4666 3247 4331 
Q 3641 3997 3641 3322 
Q 3641 2881 3436 2590 
Q 3231 2300 2841 2188 
z
M 1259 4147 
L 1259 2491 
L 2053 2491 
Q 2509 2491 2742 2702 
Q 2975 2913 2975 3322 
Q 2975 3731 2742 3939 
Q 2509 4147 2053 4147 
L 1259 4147 
z
" transform="scale(0.015625)"/>
      <path id="DejaVuSans-4f" d="M 2522 4238 
Q 1834 4238 1429 3725 
Q 1025 3213 1025 2328 
Q 1025 1447 1429 934 
Q 1834 422 2522 422 
Q 3209 422 3611 934 
Q 4013 1447 4013 2328 
Q 4013 3213 3611 3725 
Q 3209 4238 2522 4238 
z
M 2522 4750 
Q 3503 4750 4090 4092 
Q 4678 3434 4678 2328 
Q 4678 1225 4090 567 
Q 3503 -91 2522 -91 
Q 1538 -91 948 565 
Q 359 1222 359 2328 
Q 359 3434 948 4092 
Q 1538 4750 2522 4750 
z
" transform="scale(0.015625)"/>
      <path id="DejaVuSans-6f" d="M 1959 3097 
Q 1497 3097 1228 2736 
Q 959 2375 959 1747 
Q 959 1119 1226 758 
Q 1494 397 1959 397 
Q 2419 397 2687 759 
Q 2956 1122 2956 1747 
Q 2956 2369 2687 2733 
Q 2419 3097 1959 3097 
z
M 1959 3584 
Q 2709 3584 3137 3096 
Q 3566 2609 3566 1747 
Q 3566 888 3137 398 
Q 2709 -91 1959 -91 
Q 1206 -91 779 398 
Q 353 888 353 1747 
Q 353 2609 779 3096 
Q 1206 3584 1959 3584 
z
" transform="scale(0.015625)"/>
      <path id="DejaVuSans-72" d="M 2631 2963 
Q 2534 3019 2420 3045 
Q 2306 3072 2169 3072 
Q 1681 3072 1420 2755 
Q 1159 2438 1159 1844 
L 1159 0 
L 581 0 
L 581 3500 
L 1159 3500 
L 1159 2956 
Q 1341 3275 1631 3429 
Q 1922 3584 2338 3584 
Q 2397 3584 2469 3576 
Q 2541 3569 2628 3553 
L 2631 2963 
z
" transform="scale(0.015625)"/>
      <path id="DejaVuSans-75" d="M 544 1381 
L 544 3500 
L 1119 3500 
L 1119 1403 
Q 1119 906 1312 657 
Q 1506 409 1894 409 
Q 2359 409 2629 706 
Q 2900 1003 2900 1516 
L 2900 3500 
L 3475 3500 
L 3475 0 
L 2900 0 
L 2900 538 
Q 2691 219 2414 64 
Q 2138 -91 1772 -91 
Q 1169 -91 856 284 
Q 544 659 544 1381 
z
M 1991 3584 
L 1991 3584 
z
" transform="scale(0.015625)"/>
      <path id="DejaVuSans-6d" d="M 3328 2828 
Q 3544 3216 3844 3400 
Q 4144 3584 4550 3584 
Q 5097 3584 5394 3201 
Q 5691 2819 5691 2113 
L 5691 0 
L 5113 0 
L 5113 2094 
Q 5113 2597 4934 2840 
Q 4756 3084 4391 3084 
Q 3944 3084 3684 2787 
Q 3425 2491 3425 1978 
L 3425 0 
L 2847 0 
L 2847 2094 
Q 2847 2600 2669 2842 
Q 2491 3084 2119 3084 
Q 1678 3084 1418 2786 
Q 1159 2488 1159 1978 
L 1159 0 
L 581 0 
L 581 3500 
L 1159 3500 
L 1159 2956 
Q 1356 3278 1631 3431 
Q 1906 3584 2284 3584 
Q 2666 3584 2933 3390 
Q 3200 3197 3328 2828 
z
" transform="scale(0.015625)"/>
      <path id="DejaVuSans-77" d="M 269 3500 
L 844 3500 
L 1563 769 
L 2278 3500 
L 2956 3500 
L 3675 769 
L 4391 3500 
L 4966 3500 
L 4050 0 
L 3372 0 
L 2619 2869 
L 1863 0 
L 1184 0 
L 269 3500 
z
" transform="scale(0.015625)"/>
      <path id="DejaVuSans-68" d="M 3513 2113 
L 3513 0 
L 2938 0 
L 2938 2094 
Q 2938 2591 2744 2837 
Q 2550 3084 2163 3084 
Q 1697 3084 1428 2787 
Q 1159 2491 1159 1978 
L 1159 0 
L 581 0 
L 581 4863 
L 1159 4863 
L 1159 2956 
Q 1366 3272 1645 3428 
Q 1925 3584 2291 3584 
Q 2894 3584 3203 3211 
Q 3513 2838 3513 2113 
z
" transform="scale(0.015625)"/>
      <path id="DejaVuSans-56" d="M 1831 0 
L 50 4666 
L 709 4666 
L 2188 738 
L 3669 4666 
L 4325 4666 
L 2547 0 
L 1831 0 
z
" transform="scale(0.015625)"/>
      <path id="DejaVuSans-61" d="M 2194 1759 
Q 1497 1759 1228 1600 
Q 959 1441 959 1056 
Q 959 750 1161 570 
Q 1363 391 1709 391 
Q 2188 391 2477 730 
Q 2766 1069 2766 1631 
L 2766 1759 
L 2194 1759 
z
M 3341 1997 
L 3341 0 
L 2766 0 
L 2766 531 
Q 2569 213 2275 61 
Q 1981 -91 1556 -91 
Q 1019 -91 701 211 
Q 384 513 384 1019 
Q 384 1609 779 1909 
Q 1175 2209 1959 2209 
L 2766 2209 
L 2766 2266 
Q 2766 2663 2505 2880 
Q 2244 3097 1772 3097 
Q 1472 3097 1187 3025 
Q 903 2953 641 2809 
L 641 3341 
Q 956 3463 1253 3523 
Q 1550 3584 1831 3584 
Q 2591 3584 2966 3190 
Q 3341 2797 3341 1997 
z
" transform="scale(0.015625)"/>
      <path id="DejaVuSans-62" d="M 3116 1747 
Q 3116 2381 2855 2742 
Q 2594 3103 2138 3103 
Q 1681 3103 1420 2742 
Q 1159 2381 1159 1747 
Q 1159 1113 1420 752 
Q 1681 391 2138 391 
Q 2594 391 2855 752 
Q 3116 1113 3116 1747 
z
M 1159 2969 
Q 1341 3281 1617 3432 
Q 1894 3584 2278 3584 
Q 2916 3584 3314 3078 
Q 3713 2572 3713 1747 
Q 3713 922 3314 415 
Q 2916 -91 2278 -91 
Q 1894 -91 1617 61 
Q 1341 213 1159 525 
L 1159 0 
L 581 0 
L 581 4863 
L 1159 4863 
L 1159 2969 
z
" transform="scale(0.015625)"/>
      <path id="DejaVuSans-6c" d="M 603 4863 
L 1178 4863 
L 1178 0 
L 603 0 
L 603 4863 
z
" transform="scale(0.015625)"/>
     </defs>
     <use xlink:href="#DejaVuSans-41"/>
     <use xlink:href="#DejaVuSans-55" x="68.408203"/>
     <use xlink:href="#DejaVuSans-43" x="141.601562"/>
     <use xlink:href="#DejaVuSans-20" x="211.425781"/>
     <use xlink:href="#DejaVuSans-52" x="243.212891"/>
     <use xlink:href="#DejaVuSans-4f" x="312.695312"/>
     <use xlink:href="#DejaVuSans-43" x="391.40625"/>
     <use xlink:href="#DejaVuSans-20" x="461.230469"/>
     <use xlink:href="#DejaVuSans-66" x="493.017578"/>
     <use xlink:href="#DejaVuSans-6f" x="528.222656"/>
     <use xlink:href="#DejaVuSans-72" x="589.404297"/>
     <use xlink:href="#DejaVuSans-20" x="630.517578"/>
     <use xlink:href="#DejaVuSans-4f" x="662.304688"/>
     <use xlink:href="#DejaVuSans-75" x="741.015625"/>
     <use xlink:href="#DejaVuSans-74" x="804.394531"/>
     <use xlink:href="#DejaVuSans-63" x="843.603516"/>
     <use xlink:href="#DejaVuSans-6f" x="898.583984"/>
     <use xlink:href="#DejaVuSans-6d" x="959.765625"/>
     <use xlink:href="#DejaVuSans-65" x="1057.177734"/>
     <use xlink:href="#DejaVuSans-73" x="1118.701172"/>
     <use xlink:href="#DejaVuSans-20" x="1170.800781"/>
     <use xlink:href="#DejaVuSans-77" x="1202.587891"/>
     <use xlink:href="#DejaVuSans-69" x="1284.375"/>
     <use xlink:href="#DejaVuSans-74" x="1312.158203"/>
     <use xlink:href="#DejaVuSans-68" x="1351.367188"/>
     <use xlink:href="#DejaVuSans-20" x="1414.746094"/>
     <use xlink:href="#DejaVuSans-36" x="1446.533203"/>
     <use xlink:href="#DejaVuSans-20" x="1510.15625"/>
     <use xlink:href="#DejaVuSans-56" x="1541.943359"/>
     <use xlink:href="#DejaVuSans-61" x="1602.601562"/>
     <use xlink:href="#DejaVuSans-72" x="1663.880859"/>
     <use xlink:href="#DejaVuSans-69" x="1704.994141"/>
     <use xlink:href="#DejaVuSans-61" x="1732.777344"/>
     <use xlink:href="#DejaVuSans-62" x="1794.056641"/>
     <use xlink:href="#DejaVuSans-6c" x="1857.533203"/>
     <use xlink:href="#DejaVuSans-65" x="1885.316406"/>
     <use xlink:href="#DejaVuSans-73" x="1946.839844"/>
    </g>
   </g>
   <g id="legend_1">
    <g id="patch_7">
     <path d="M 50.78125 59.674375 
L 284.307813 59.674375 
Q 286.307813 59.674375 286.307813 57.674375 
L 286.307813 29.318125 
Q 286.307813 27.318125 284.307813 27.318125 
L 50.78125 27.318125 
Q 48.78125 27.318125 48.78125 29.318125 
L 48.78125 57.674375 
Q 48.78125 59.674375 50.78125 59.674375 
z
" style="fill: #ffffff; opacity: 0.8; stroke: #cccccc; stroke-linejoin: miter"/>
    </g>
    <g id="line2d_16">
     <path d="M 52.78125 35.416562 
L 62.78125 35.416562 
L 72.78125 35.416562 
" style="fill: none; stroke: #1f77b4; stroke-width: 1.5; stroke-linecap: square"/>
    </g>
    <g id="text_16">
     <!-- 6-variable 2-year outcome (AUC = 0.87) -->
     <g transform="translate(80.78125 38.916562) scale(0.1 -0.1)">
      <defs>
       <path id="DejaVuSans-28" d="M 1984 4856 
Q 1566 4138 1362 3434 
Q 1159 2731 1159 2009 
Q 1159 1288 1364 580 
Q 1569 -128 1984 -844 
L 1484 -844 
Q 1016 -109 783 600 
Q 550 1309 550 2009 
Q 550 2706 781 3412 
Q 1013 4119 1484 4856 
L 1984 4856 
z
" transform="scale(0.015625)"/>
       <path id="DejaVuSans-3d" d="M 678 2906 
L 4684 2906 
L 4684 2381 
L 678 2381 
L 678 2906 
z
M 678 1631 
L 4684 1631 
L 4684 1100 
L 678 1100 
L 678 1631 
z
" transform="scale(0.015625)"/>
       <path id="DejaVuSans-37" d="M 525 4666 
L 3525 4666 
L 3525 4397 
L 1831 0 
L 1172 0 
L 2766 4134 
L 525 4134 
L 525 4666 
z
" transform="scale(0.015625)"/>
       <path id="DejaVuSans-29" d="M 513 4856 
L 1013 4856 
Q 1481 4119 1714 3412 
Q 1947 2706 1947 2009 
Q 1947 1309 1714 600 
Q 1481 -109 1013 -844 
L 513 -844 
Q 928 -128 1133 580 
Q 1338 1288 1338 2009 
Q 1338 2731 1133 3434 
Q 928 4138 513 4856 
z
" transform="scale(0.015625)"/>
      </defs>
      <use xlink:href="#DejaVuSans-36"/>
      <use xlink:href="#DejaVuSans-2d" x="63.623047"/>
      <use xlink:href="#DejaVuSans-76" x="97.082031"/>
      <use xlink:href="#DejaVuSans-61" x="156.261719"/>
      <use xlink:href="#DejaVuSans-72" x="217.541016"/>
      <use xlink:href="#DejaVuSans-69" x="258.654297"/>
      <use xlink:href="#DejaVuSans-61" x="286.4375"/>
      <use xlink:href="#DejaVuSans-62" x="347.716797"/>
      <use xlink:href="#DejaVuSans-6c" x="411.193359"/>
      <use xlink:href="#DejaVuSans-65" x="438.976562"/>
      <use xlink:href="#DejaVuSans-20" x="500.5"/>
      <use xlink:href="#DejaVuSans-32" x="532.287109"/>
      <use xlink:href="#DejaVuSans-2d" x="595.910156"/>
      <use xlink:href="#DejaVuSans-79" x="630.244141"/>
      <use xlink:href="#DejaVuSans-65" x="689.423828"/>
      <use xlink:href="#DejaVuSans-61" x="750.947266"/>
      <use xlink:href="#DejaVuSans-72" x="812.226562"/>
      <use xlink:href="#DejaVuSans-20" x="853.339844"/>
      <use xlink:href="#DejaVuSans-6f" x="885.126953"/>
      <use xlink:href="#DejaVuSans-75" x="946.308594"/>
      <use xlink:href="#DejaVuSans-74" x="1009.6875"/>
      <use xlink:href="#DejaVuSans-63" x="1048.896484"/>
      <use xlink:href="#DejaVuSans-6f" x="1103.876953"/>
      <use xlink:href="#DejaVuSans-6d" x="1165.058594"/>
      <use xlink:href="#DejaVuSans-65" x="1262.470703"/>
      <use xlink:href="#DejaVuSans-20" x="1323.994141"/>
      <use xlink:href="#DejaVuSans-28" x="1355.78125"/>
      <use xlink:href="#DejaVuSans-41" x="1394.794922"/>
      <use xlink:href="#DejaVuSans-55" x="1463.203125"/>
      <use xlink:href="#DejaVuSans-43" x="1536.396484"/>
      <use xlink:href="#DejaVuSans-20" x="1606.220703"/>
      <use xlink:href="#DejaVuSans-3d" x="1638.007812"/>
      <use xlink:href="#DejaVuSans-20" x="1721.796875"/>
      <use xlink:href="#DejaVuSans-30" x="1753.583984"/>
      <use xlink:href="#DejaVuSans-2e" x="1817.207031"/>
      <use xlink:href="#DejaVuSans-38" x="1848.994141"/>
      <use xlink:href="#DejaVuSans-37" x="1912.617188"/>
      <use xlink:href="#DejaVuSans-29" x="1976.240234"/>
     </g>
    </g>
    <g id="line2d_17">
     <path d="M 52.78125 50.094687 
L 62.78125 50.094687 
L 72.78125 50.094687 
" style="fill: none; stroke: #ff7f0e; stroke-width: 1.5; stroke-linecap: square"/>
    </g>
    <g id="text_17">
     <!-- 6-variable 5-year outcome (AUC = 0.84) -->
     <g transform="translate(80.78125 53.594687) scale(0.1 -0.1)">
      <defs>
       <path id="DejaVuSans-35" d="M 691 4666 
L 3169 4666 
L 3169 4134 
L 1269 4134 
L 1269 2991 
Q 1406 3038 1543 3061 
Q 1681 3084 1819 3084 
Q 2600 3084 3056 2656 
Q 3513 2228 3513 1497 
Q 3513 744 3044 326 
Q 2575 -91 1722 -91 
Q 1428 -91 1123 -41 
Q 819 9 494 109 
L 494 744 
Q 775 591 1075 516 
Q 1375 441 1709 441 
Q 2250 441 2565 725 
Q 2881 1009 2881 1497 
Q 2881 1984 2565 2268 
Q 2250 2553 1709 2553 
Q 1456 2553 1204 2497 
Q 953 2441 691 2322 
L 691 4666 
z
" transform="scale(0.015625)"/>
      </defs>
      <use xlink:href="#DejaVuSans-36"/>
      <use xlink:href="#DejaVuSans-2d" x="63.623047"/>
      <use xlink:href="#DejaVuSans-76" x="97.082031"/>
      <use xlink:href="#DejaVuSans-61" x="156.261719"/>
      <use xlink:href="#DejaVuSans-72" x="217.541016"/>
      <use xlink:href="#DejaVuSans-69" x="258.654297"/>
      <use xlink:href="#DejaVuSans-61" x="286.4375"/>
      <use xlink:href="#DejaVuSans-62" x="347.716797"/>
      <use xlink:href="#DejaVuSans-6c" x="411.193359"/>
      <use xlink:href="#DejaVuSans-65" x="438.976562"/>
      <use xlink:href="#DejaVuSans-20" x="500.5"/>
      <use xlink:href="#DejaVuSans-35" x="532.287109"/>
      <use xlink:href="#DejaVuSans-2d" x="595.910156"/>
      <use xlink:href="#DejaVuSans-79" x="630.244141"/>
      <use xlink:href="#DejaVuSans-65" x="689.423828"/>
      <use xlink:href="#DejaVuSans-61" x="750.947266"/>
      <use xlink:href="#DejaVuSans-72" x="812.226562"/>
      <use xlink:href="#DejaVuSans-20" x="853.339844"/>
      <use xlink:href="#DejaVuSans-6f" x="885.126953"/>
      <use xlink:href="#DejaVuSans-75" x="946.308594"/>
      <use xlink:href="#DejaVuSans-74" x="1009.6875"/>
      <use xlink:href="#DejaVuSans-63" x="1048.896484"/>
      <use xlink:href="#DejaVuSans-6f" x="1103.876953"/>
      <use xlink:href="#DejaVuSans-6d" x="1165.058594"/>
      <use xlink:href="#DejaVuSans-65" x="1262.470703"/>
      <use xlink:href="#DejaVuSans-20" x="1323.994141"/>
      <use xlink:href="#DejaVuSans-28" x="1355.78125"/>
      <use xlink:href="#DejaVuSans-41" x="1394.794922"/>
      <use xlink:href="#DejaVuSans-55" x="1463.203125"/>
      <use xlink:href="#DejaVuSans-43" x="1536.396484"/>
      <use xlink:href="#DejaVuSans-20" x="1606.220703"/>
      <use xlink:href="#DejaVuSans-3d" x="1638.007812"/>
      <use xlink:href="#DejaVuSans-20" x="1721.796875"/>
      <use xlink:href="#DejaVuSans-30" x="1753.583984"/>
      <use xlink:href="#DejaVuSans-2e" x="1817.207031"/>
      <use xlink:href="#DejaVuSans-38" x="1848.994141"/>
      <use xlink:href="#DejaVuSans-34" x="1912.617188"/>
      <use xlink:href="#DejaVuSans-29" x="1976.240234"/>
     </g>
    </g>
   </g>
  </g>
 </g>
 <defs>
  <clipPath id="pe1e91ce6d5">
   <rect x="43.78125" y="22.318125" width="558" height="443.52"/>
  </clipPath>
 </defs>
</svg>
