<?xml version="1.0" encoding="utf-8" standalone="no"?>
<!DOCTYPE svg PUBLIC "-//W3C//DTD SVG 1.1//EN"
  "http://www.w3.org/Graphics/SVG/1.1/DTD/svg11.dtd">
<svg xmlns:xlink="http://www.w3.org/1999/xlink" width="608.98125pt" height="503.394375pt" viewBox="0 0 608.98125 503.394375" xmlns="http://www.w3.org/2000/svg" version="1.1">
 <metadata>
  <rdf:RDF xmlns:dc="http://purl.org/dc/elements/1.1/" xmlns:cc="http://creativecommons.org/ns#" xmlns:rdf="http://www.w3.org/1999/02/22-rdf-syntax-ns#">
   <cc:Work>
    <dc:type rdf:resource="http://purl.org/dc/dcmitype/StillImage"/>
    <dc:date>2024-07-20T22:17:23.548831</dc:date>
    <dc:format>image/svg+xml</dc:format>
    <dc:creator>
     <cc:Agent>
      <dc:title>Matplotlib v3.9.0, https://matplotlib.org/</dc:title>
     </cc:Agent>
    </dc:creator>
   </cc:Work>
  </rdf:RDF>
 </metadata>
 <defs>
  <style type="text/css">*{stroke-linejoin: round; stroke-linecap: butt}</style>
 </defs>
 <g id="figure_1">
  <g id="patch_1">
   <path d="M 0 503.394375 
L 608.98125 503.394375 
L 608.98125 0 
L 0 0 
z
" style="fill: #ffffff"/>
  </g>
  <g id="axes_1">
   <g id="patch_2">
    <path d="M 43.78125 465.838125 
L 601.78125 465.838125 
L 601.78125 22.318125 
L 43.78125 22.318125 
z
" style="fill: #ffffff"/>
   </g>
   <g id="matplotlib.axis_1">
    <g id="xtick_1">
     <g id="line2d_1">
      <defs>
       <path id="m35de67e47d" d="M 0 0 
L 0 3.5 
" style="stroke: #000000; stroke-width: 0.8"/>
      </defs>
      <g>
       <use xlink:href="#m35de67e47d" x="69.144886" y="465.838125" style="stroke: #000000; stroke-width: 0.8"/>
      </g>
     </g>
     <g id="text_1">
      <!-- 0.0 -->
      <g transform="translate(61.193324 480.436562) scale(0.1 -0.1)">
       <defs>
        <path id="DejaVuSans-30" d="M 2034 4250 
Q 1547 4250 1301 3770 
Q 1056 3291 1056 2328 
Q 1056 1369 1301 889 
Q 1547 409 2034 409 
Q 2525 409 2770 889 
Q 3016 1369 3016 2328 
Q 3016 3291 2770 3770 
Q 2525 4250 2034 4250 
z
M 2034 4750 
Q 2819 4750 3233 4129 
Q 3647 3509 3647 2328 
Q 3647 1150 3233 529 
Q 2819 -91 2034 -91 
Q 1250 -91 836 529 
Q 422 1150 422 2328 
Q 422 3509 836 4129 
Q 1250 4750 2034 4750 
z
" transform="scale(0.015625)"/>
        <path id="DejaVuSans-2e" d="M 684 794 
L 1344 794 
L 1344 0 
L 684 0 
L 684 794 
z
" transform="scale(0.015625)"/>
       </defs>
       <use xlink:href="#DejaVuSans-30"/>
       <use xlink:href="#DejaVuSans-2e" x="63.623047"/>
       <use xlink:href="#DejaVuSans-30" x="95.410156"/>
      </g>
     </g>
    </g>
    <g id="xtick_2">
     <g id="line2d_2">
      <g>
       <use xlink:href="#m35de67e47d" x="170.599432" y="465.838125" style="stroke: #000000; stroke-width: 0.8"/>
      </g>
     </g>
     <g id="text_2">
      <!-- 0.2 -->
      <g transform="translate(162.647869 480.436562) scale(0.1 -0.1)">
       <defs>
        <path id="DejaVuSans-32" d="M 1228 531 
L 3431 531 
L 3431 0 
L 469 0 
L 469 531 
Q 828 903 1448 1529 
Q 2069 2156 2228 2338 
Q 2531 2678 2651 2914 
Q 2772 3150 2772 3378 
Q 2772 3750 2511 3984 
Q 2250 4219 1831 4219 
Q 1534 4219 1204 4116 
Q 875 4013 500 3803 
L 500 4441 
Q 881 4594 1212 4672 
Q 1544 4750 1819 4750 
Q 2544 4750 2975 4387 
Q 3406 4025 3406 3419 
Q 3406 3131 3298 2873 
Q 3191 2616 2906 2266 
Q 2828 2175 2409 1742 
Q 1991 1309 1228 531 
z
" transform="scale(0.015625)"/>
       </defs>
       <use xlink:href="#DejaVuSans-30"/>
       <use xlink:href="#DejaVuSans-2e" x="63.623047"/>
       <use xlink:href="#DejaVuSans-32" x="95.410156"/>
      </g>
     </g>
    </g>
    <g id="xtick_3">
     <g id="line2d_3">
      <g>
       <use xlink:href="#m35de67e47d" x="272.053977" y="465.838125" style="stroke: #000000; stroke-width: 0.8"/>
      </g>
     </g>
     <g id="text_3">
      <!-- 0.4 -->
      <g transform="translate(264.102415 480.436562) scale(0.1 -0.1)">
       <defs>
        <path id="DejaVuSans-34" d="M 2419 4116 
L 825 1625 
L 2419 1625 
L 2419 4116 
z
M 2253 4666 
L 3047 4666 
L 3047 1625 
L 3713 1625 
L 3713 1100 
L 3047 1100 
L 3047 0 
L 2419 0 
L 2419 1100 
L 313 1100 
L 313 1709 
L 2253 4666 
z
" transform="scale(0.015625)"/>
       </defs>
       <use xlink:href="#DejaVuSans-30"/>
       <use xlink:href="#DejaVuSans-2e" x="63.623047"/>
       <use xlink:href="#DejaVuSans-34" x="95.410156"/>
      </g>
     </g>
    </g>
    <g id="xtick_4">
     <g id="line2d_4">
      <g>
       <use xlink:href="#m35de67e47d" x="373.508523" y="465.838125" style="stroke: #000000; stroke-width: 0.8"/>
      </g>
     </g>
     <g id="text_4">
      <!-- 0.6 -->
      <g transform="translate(365.55696 480.436562) scale(0.1 -0.1)">
       <defs>
        <path id="DejaVuSans-36" d="M 2113 2584 
Q 1688 2584 1439 2293 
Q 1191 2003 1191 1497 
Q 1191 994 1439 701 
Q 1688 409 2113 409 
Q 2538 409 2786 701 
Q 3034 994 3034 1497 
Q 3034 2003 2786 2293 
Q 2538 2584 2113 2584 
z
M 3366 4563 
L 3366 3988 
Q 3128 4100 2886 4159 
Q 2644 4219 2406 4219 
Q 1781 4219 1451 3797 
Q 1122 3375 1075 2522 
Q 1259 2794 1537 2939 
Q 1816 3084 2150 3084 
Q 2853 3084 3261 2657 
Q 3669 2231 3669 1497 
Q 3669 778 3244 343 
Q 2819 -91 2113 -91 
Q 1303 -91 875 529 
Q 447 1150 447 2328 
Q 447 3434 972 4092 
Q 1497 4750 2381 4750 
Q 2619 4750 2861 4703 
Q 3103 4656 3366 4563 
z
" transform="scale(0.015625)"/>
       </defs>
       <use xlink:href="#DejaVuSans-30"/>
       <use xlink:href="#DejaVuSans-2e" x="63.623047"/>
       <use xlink:href="#DejaVuSans-36" x="95.410156"/>
      </g>
     </g>
    </g>
    <g id="xtick_5">
     <g id="line2d_5">
      <g>
       <use xlink:href="#m35de67e47d" x="474.963068" y="465.838125" style="stroke: #000000; stroke-width: 0.8"/>
      </g>
     </g>
     <g id="text_5">
      <!-- 0.8 -->
      <g transform="translate(467.011506 480.436562) scale(0.1 -0.1)">
       <defs>
        <path id="DejaVuSans-38" d="M 2034 2216 
Q 1584 2216 1326 1975 
Q 1069 1734 1069 1313 
Q 1069 891 1326 650 
Q 1584 409 2034 409 
Q 2484 409 2743 651 
Q 3003 894 3003 1313 
Q 3003 1734 2745 1975 
Q 2488 2216 2034 2216 
z
M 1403 2484 
Q 997 2584 770 2862 
Q 544 3141 544 3541 
Q 544 4100 942 4425 
Q 1341 4750 2034 4750 
Q 2731 4750 3128 4425 
Q 3525 4100 3525 3541 
Q 3525 3141 3298 2862 
Q 3072 2584 2669 2484 
Q 3125 2378 3379 2068 
Q 3634 1759 3634 1313 
Q 3634 634 3220 271 
Q 2806 -91 2034 -91 
Q 1263 -91 848 271 
Q 434 634 434 1313 
Q 434 1759 690 2068 
Q 947 2378 1403 2484 
z
M 1172 3481 
Q 1172 3119 1398 2916 
Q 1625 2713 2034 2713 
Q 2441 2713 2670 2916 
Q 2900 3119 2900 3481 
Q 2900 3844 2670 4047 
Q 2441 4250 2034 4250 
Q 1625 4250 1398 4047 
Q 1172 3844 1172 3481 
z
" transform="scale(0.015625)"/>
       </defs>
       <use xlink:href="#DejaVuSans-30"/>
       <use xlink:href="#DejaVuSans-2e" x="63.623047"/>
       <use xlink:href="#DejaVuSans-38" x="95.410156"/>
      </g>
     </g>
    </g>
    <g id="xtick_6">
     <g id="line2d_6">
      <g>
       <use xlink:href="#m35de67e47d" x="576.417614" y="465.838125" style="stroke: #000000; stroke-width: 0.8"/>
      </g>
     </g>
     <g id="text_6">
      <!-- 1.0 -->
      <g transform="translate(568.466051 480.436562) scale(0.1 -0.1)">
       <defs>
        <path id="DejaVuSans-31" d="M 794 531 
L 1825 531 
L 1825 4091 
L 703 3866 
L 703 4441 
L 1819 4666 
L 2450 4666 
L 2450 531 
L 3481 531 
L 3481 0 
L 794 0 
L 794 531 
z
" transform="scale(0.015625)"/>
       </defs>
       <use xlink:href="#DejaVuSans-31"/>
       <use xlink:href="#DejaVuSans-2e" x="63.623047"/>
       <use xlink:href="#DejaVuSans-30" x="95.410156"/>
      </g>
     </g>
    </g>
    <g id="text_7">
     <!-- 1 - Specificity -->
     <g transform="translate(288.847656 494.114687) scale(0.1 -0.1)">
      <defs>
       <path id="DejaVuSans-20" transform="scale(0.015625)"/>
       <path id="DejaVuSans-2d" d="M 313 2009 
L 1997 2009 
L 1997 1497 
L 313 1497 
L 313 2009 
z
" transform="scale(0.015625)"/>
       <path id="DejaVuSans-53" d="M 3425 4513 
L 3425 3897 
Q 3066 4069 2747 4153 
Q 2428 4238 2131 4238 
Q 1616 4238 1336 4038 
Q 1056 3838 1056 3469 
Q 1056 3159 1242 3001 
Q 1428 2844 1947 2747 
L 2328 2669 
Q 3034 2534 3370 2195 
Q 3706 1856 3706 1288 
Q 3706 609 3251 259 
Q 2797 -91 1919 -91 
Q 1588 -91 1214 -16 
Q 841 59 441 206 
L 441 856 
Q 825 641 1194 531 
Q 1563 422 1919 422 
Q 2459 422 2753 634 
Q 3047 847 3047 1241 
Q 3047 1584 2836 1778 
Q 2625 1972 2144 2069 
L 1759 2144 
Q 1053 2284 737 2584 
Q 422 2884 422 3419 
Q 422 4038 858 4394 
Q 1294 4750 2059 4750 
Q 2388 4750 2728 4690 
Q 3069 4631 3425 4513 
z
" transform="scale(0.015625)"/>
       <path id="DejaVuSans-70" d="M 1159 525 
L 1159 -1331 
L 581 -1331 
L 581 3500 
L 1159 3500 
L 1159 2969 
Q 1341 3281 1617 3432 
Q 1894 3584 2278 3584 
Q 2916 3584 3314 3078 
Q 3713 2572 3713 1747 
Q 3713 922 3314 415 
Q 2916 -91 2278 -91 
Q 1894 -91 1617 61 
Q 1341 213 1159 525 
z
M 3116 1747 
Q 3116 2381 2855 2742 
Q 2594 3103 2138 3103 
Q 1681 3103 1420 2742 
Q 1159 2381 1159 1747 
Q 1159 1113 1420 752 
Q 1681 391 2138 391 
Q 2594 391 2855 752 
Q 3116 1113 3116 1747 
z
" transform="scale(0.015625)"/>
       <path id="DejaVuSans-65" d="M 3597 1894 
L 3597 1613 
L 953 1613 
Q 991 1019 1311 708 
Q 1631 397 2203 397 
Q 2534 397 2845 478 
Q 3156 559 3463 722 
L 3463 178 
Q 3153 47 2828 -22 
Q 2503 -91 2169 -91 
Q 1331 -91 842 396 
Q 353 884 353 1716 
Q 353 2575 817 3079 
Q 1281 3584 2069 3584 
Q 2775 3584 3186 3129 
Q 3597 2675 3597 1894 
z
M 3022 2063 
Q 3016 2534 2758 2815 
Q 2500 3097 2075 3097 
Q 1594 3097 1305 2825 
Q 1016 2553 972 2059 
L 3022 2063 
z
" transform="scale(0.015625)"/>
       <path id="DejaVuSans-63" d="M 3122 3366 
L 3122 2828 
Q 2878 2963 2633 3030 
Q 2388 3097 2138 3097 
Q 1578 3097 1268 2742 
Q 959 2388 959 1747 
Q 959 1106 1268 751 
Q 1578 397 2138 397 
Q 2388 397 2633 464 
Q 2878 531 3122 666 
L 3122 134 
Q 2881 22 2623 -34 
Q 2366 -91 2075 -91 
Q 1284 -91 818 406 
Q 353 903 353 1747 
Q 353 2603 823 3093 
Q 1294 3584 2113 3584 
Q 2378 3584 2631 3529 
Q 2884 3475 3122 3366 
z
" transform="scale(0.015625)"/>
       <path id="DejaVuSans-69" d="M 603 3500 
L 1178 3500 
L 1178 0 
L 603 0 
L 603 3500 
z
M 603 4863 
L 1178 4863 
L 1178 4134 
L 603 4134 
L 603 4863 
z
" transform="scale(0.015625)"/>
       <path id="DejaVuSans-66" d="M 2375 4863 
L 2375 4384 
L 1825 4384 
Q 1516 4384 1395 4259 
Q 1275 4134 1275 3809 
L 1275 3500 
L 2222 3500 
L 2222 3053 
L 1275 3053 
L 1275 0 
L 697 0 
L 697 3053 
L 147 3053 
L 147 3500 
L 697 3500 
L 697 3744 
Q 697 4328 969 4595 
Q 1241 4863 1831 4863 
L 2375 4863 
z
" transform="scale(0.015625)"/>
       <path id="DejaVuSans-74" d="M 1172 4494 
L 1172 3500 
L 2356 3500 
L 2356 3053 
L 1172 3053 
L 1172 1153 
Q 1172 725 1289 603 
Q 1406 481 1766 481 
L 2356 481 
L 2356 0 
L 1766 0 
Q 1100 0 847 248 
Q 594 497 594 1153 
L 594 3053 
L 172 3053 
L 172 3500 
L 594 3500 
L 594 4494 
L 1172 4494 
z
" transform="scale(0.015625)"/>
       <path id="DejaVuSans-79" d="M 2059 -325 
Q 1816 -950 1584 -1140 
Q 1353 -1331 966 -1331 
L 506 -1331 
L 506 -850 
L 844 -850 
Q 1081 -850 1212 -737 
Q 1344 -625 1503 -206 
L 1606 56 
L 191 3500 
L 800 3500 
L 1894 763 
L 2988 3500 
L 3597 3500 
L 2059 -325 
z
" transform="scale(0.015625)"/>
      </defs>
      <use xlink:href="#DejaVuSans-31"/>
      <use xlink:href="#DejaVuSans-20" x="63.623047"/>
      <use xlink:href="#DejaVuSans-2d" x="95.410156"/>
      <use xlink:href="#DejaVuSans-20" x="131.494141"/>
      <use xlink:href="#DejaVuSans-53" x="163.28125"/>
      <use xlink:href="#DejaVuSans-70" x="226.757812"/>
      <use xlink:href="#DejaVuSans-65" x="290.234375"/>
      <use xlink:href="#DejaVuSans-63" x="351.757812"/>
      <use xlink:href="#DejaVuSans-69" x="406.738281"/>
      <use xlink:href="#DejaVuSans-66" x="434.521484"/>
      <use xlink:href="#DejaVuSans-69" x="469.726562"/>
      <use xlink:href="#DejaVuSans-63" x="497.509766"/>
      <use xlink:href="#DejaVuSans-69" x="552.490234"/>
      <use xlink:href="#DejaVuSans-74" x="580.273438"/>
      <use xlink:href="#DejaVuSans-79" x="619.482422"/>
     </g>
    </g>
   </g>
   <g id="matplotlib.axis_2">
    <g id="ytick_1">
     <g id="line2d_7">
      <defs>
       <path id="m3df5d13b4a" d="M 0 0 
L -3.5 0 
" style="stroke: #000000; stroke-width: 0.8"/>
      </defs>
      <g>
       <use xlink:href="#m3df5d13b4a" x="43.78125" y="445.678125" style="stroke: #000000; stroke-width: 0.8"/>
      </g>
     </g>
     <g id="text_8">
      <!-- 0.0 -->
      <g transform="translate(20.878125 449.477344) scale(0.1 -0.1)">
       <use xlink:href="#DejaVuSans-30"/>
       <use xlink:href="#DejaVuSans-2e" x="63.623047"/>
       <use xlink:href="#DejaVuSans-30" x="95.410156"/>
      </g>
     </g>
    </g>
    <g id="ytick_2">
     <g id="line2d_8">
      <g>
       <use xlink:href="#m3df5d13b4a" x="43.78125" y="365.038125" style="stroke: #000000; stroke-width: 0.8"/>
      </g>
     </g>
     <g id="text_9">
      <!-- 0.2 -->
      <g transform="translate(20.878125 368.837344) scale(0.1 -0.1)">
       <use xlink:href="#DejaVuSans-30"/>
       <use xlink:href="#DejaVuSans-2e" x="63.623047"/>
       <use xlink:href="#DejaVuSans-32" x="95.410156"/>
      </g>
     </g>
    </g>
    <g id="ytick_3">
     <g id="line2d_9">
      <g>
       <use xlink:href="#m3df5d13b4a" x="43.78125" y="284.398125" style="stroke: #000000; stroke-width: 0.8"/>
      </g>
     </g>
     <g id="text_10">
      <!-- 0.4 -->
      <g transform="translate(20.878125 288.197344) scale(0.1 -0.1)">
       <use xlink:href="#DejaVuSans-30"/>
       <use xlink:href="#DejaVuSans-2e" x="63.623047"/>
       <use xlink:href="#DejaVuSans-34" x="95.410156"/>
      </g>
     </g>
    </g>
    <g id="ytick_4">
     <g id="line2d_10">
      <g>
       <use xlink:href="#m3df5d13b4a" x="43.78125" y="203.758125" style="stroke: #000000; stroke-width: 0.8"/>
      </g>
     </g>
     <g id="text_11">
      <!-- 0.6 -->
      <g transform="translate(20.878125 207.557344) scale(0.1 -0.1)">
       <use xlink:href="#DejaVuSans-30"/>
       <use xlink:href="#DejaVuSans-2e" x="63.623047"/>
       <use xlink:href="#DejaVuSans-36" x="95.410156"/>
      </g>
     </g>
    </g>
    <g id="ytick_5">
     <g id="line2d_11">
      <g>
       <use xlink:href="#m3df5d13b4a" x="43.78125" y="123.118125" style="stroke: #000000; stroke-width: 0.8"/>
      </g>
     </g>
     <g id="text_12">
      <!-- 0.8 -->
      <g transform="translate(20.878125 126.917344) scale(0.1 -0.1)">
       <use xlink:href="#DejaVuSans-30"/>
       <use xlink:href="#DejaVuSans-2e" x="63.623047"/>
       <use xlink:href="#DejaVuSans-38" x="95.410156"/>
      </g>
     </g>
    </g>
    <g id="ytick_6">
     <g id="line2d_12">
      <g>
       <use xlink:href="#m3df5d13b4a" x="43.78125" y="42.478125" style="stroke: #000000; stroke-width: 0.8"/>
      </g>
     </g>
     <g id="text_13">
      <!-- 1.0 -->
      <g transform="translate(20.878125 46.277344) scale(0.1 -0.1)">
       <use xlink:href="#DejaVuSans-31"/>
       <use xlink:href="#DejaVuSans-2e" x="63.623047"/>
       <use xlink:href="#DejaVuSans-30" x="95.410156"/>
      </g>
     </g>
    </g>
    <g id="text_14">
     <!-- Sensitivity -->
     <g transform="translate(14.798438 270.108594) rotate(-90) scale(0.1 -0.1)">
      <defs>
       <path id="DejaVuSans-6e" d="M 3513 2113 
L 3513 0 
L 2938 0 
L 2938 2094 
Q 2938 2591 2744 2837 
Q 2550 3084 2163 3084 
Q 1697 3084 1428 2787 
Q 1159 2491 1159 1978 
L 1159 0 
L 581 0 
L 581 3500 
L 1159 3500 
L 1159 2956 
Q 1366 3272 1645 3428 
Q 1925 3584 2291 3584 
Q 2894 3584 3203 3211 
Q 3513 2838 3513 2113 
z
" transform="scale(0.015625)"/>
       <path id="DejaVuSans-73" d="M 2834 3397 
L 2834 2853 
Q 2591 2978 2328 3040 
Q 2066 3103 1784 3103 
Q 1356 3103 1142 2972 
Q 928 2841 928 2578 
Q 928 2378 1081 2264 
Q 1234 2150 1697 2047 
L 1894 2003 
Q 2506 1872 2764 1633 
Q 3022 1394 3022 966 
Q 3022 478 2636 193 
Q 2250 -91 1575 -91 
Q 1294 -91 989 -36 
Q 684 19 347 128 
L 347 722 
Q 666 556 975 473 
Q 1284 391 1588 391 
Q 1994 391 2212 530 
Q 2431 669 2431 922 
Q 2431 1156 2273 1281 
Q 2116 1406 1581 1522 
L 1381 1569 
Q 847 1681 609 1914 
Q 372 2147 372 2553 
Q 372 3047 722 3315 
Q 1072 3584 1716 3584 
Q 2034 3584 2315 3537 
Q 2597 3491 2834 3397 
z
" transform="scale(0.015625)"/>
       <path id="DejaVuSans-76" d="M 191 3500 
L 800 3500 
L 1894 563 
L 2988 3500 
L 3597 3500 
L 2284 0 
L 1503 0 
L 191 3500 
z
" transform="scale(0.015625)"/>
      </defs>
      <use xlink:href="#DejaVuSans-53"/>
      <use xlink:href="#DejaVuSans-65" x="63.476562"/>
      <use xlink:href="#DejaVuSans-6e" x="125"/>
      <use xlink:href="#DejaVuSans-73" x="188.378906"/>
      <use xlink:href="#DejaVuSans-69" x="240.478516"/>
      <use xlink:href="#DejaVuSans-74" x="268.261719"/>
      <use xlink:href="#DejaVuSans-69" x="307.470703"/>
      <use xlink:href="#DejaVuSans-76" x="335.253906"/>
      <use xlink:href="#DejaVuSans-69" x="394.433594"/>
      <use xlink:href="#DejaVuSans-74" x="422.216797"/>
      <use xlink:href="#DejaVuSans-79" x="461.425781"/>
     </g>
    </g>
   </g>
   <g id="line2d_13">
    <path d="M 69.144886 445.678125 
L 70.901435 432.635611 
L 70.993885 429.654465 
L 71.363685 429.654465 
L 71.456134 423.692173 
L 71.548584 423.692173 
L 71.548584 420.711027 
L 71.733484 420.711027 
L 71.825934 418.847811 
L 72.010834 418.847811 
L 72.103284 412.885519 
L 72.288184 412.885519 
L 72.288184 410.277016 
L 72.473084 410.277016 
L 72.565534 409.531729 
L 72.657983 409.531729 
L 72.750433 407.668513 
L 72.842883 407.668513 
L 72.935333 404.314724 
L 73.027783 404.314724 
L 73.120233 402.824151 
L 73.212683 402.824151 
L 73.212683 401.706221 
L 73.490033 401.706221 
L 73.490033 399.843005 
L 73.674933 399.843005 
L 73.767383 396.489216 
L 73.859832 396.489216 
L 73.952282 394.998643 
L 74.137182 394.998643 
L 74.229632 390.15428 
L 74.322082 390.15428 
L 74.414532 389.036351 
L 74.506982 389.036351 
L 74.506982 388.291064 
L 74.784332 388.291064 
L 74.784332 387.545777 
L 74.969232 387.545777 
L 75.061681 385.309918 
L 75.154131 385.309918 
L 75.154131 384.937275 
L 75.339031 384.937275 
L 75.431481 383.819345 
L 75.523931 383.819345 
L 75.523931 383.446702 
L 75.708831 383.446702 
L 75.801281 382.328772 
L 75.893731 382.328772 
L 75.893731 380.838199 
L 76.078631 380.838199 
L 76.171081 379.347626 
L 76.26353 379.347626 
L 76.35598 378.602339 
L 76.44843 378.602339 
L 76.44843 375.993837 
L 76.63333 375.993837 
L 76.72578 374.503264 
L 76.81823 374.503264 
L 76.81823 373.757977 
L 77.09558 373.757977 
L 77.18803 370.031545 
L 77.28048 370.031545 
L 77.37293 368.913615 
L 77.465379 368.913615 
L 77.465379 366.677755 
L 77.650279 366.677755 
L 77.650279 366.305112 
L 78.389879 366.305112 
L 78.482329 362.951323 
L 78.574779 362.951323 
L 78.667228 362.206036 
L 78.944578 362.206036 
L 78.944578 361.833393 
L 79.129478 361.833393 
L 79.221928 360.34282 
L 79.314378 360.34282 
L 79.406828 358.479604 
L 79.869077 358.479604 
L 79.869077 357.734317 
L 80.238877 357.734317 
L 80.238877 357.361674 
L 80.701127 357.361674 
L 80.793577 356.616387 
L 80.886027 356.616387 
L 80.978477 355.125814 
L 81.163376 355.125814 
L 81.255826 353.262598 
L 81.440726 353.262598 
L 81.533176 351.399382 
L 81.810526 351.399382 
L 81.810526 349.163522 
L 81.995426 349.163522 
L 82.087876 346.55502 
L 82.180326 346.55502 
L 82.272775 345.809733 
L 82.550125 345.809733 
L 82.642575 344.31916 
L 82.827475 344.31916 
L 82.919925 342.828587 
L 83.012375 342.828587 
L 83.012375 341.710657 
L 83.289725 341.710657 
L 83.382174 339.102155 
L 83.474624 339.102155 
L 83.474624 337.984225 
L 83.751974 337.984225 
L 83.844424 337.238938 
L 83.936874 337.238938 
L 84.029324 336.493652 
L 84.214224 336.493652 
L 84.214224 335.375722 
L 84.491574 335.375722 
L 84.491574 332.394576 
L 84.676473 332.394576 
L 84.676473 328.668143 
L 84.861373 328.668143 
L 84.861373 328.2955 
L 85.138723 328.2955 
L 85.231173 324.569068 
L 85.323623 324.569068 
L 85.323623 323.078495 
L 85.600973 323.078495 
L 85.693423 321.960565 
L 85.785872 321.960565 
L 85.785872 321.215278 
L 85.970772 321.215278 
L 85.970772 320.842635 
L 86.340572 320.842635 
L 86.340572 320.469992 
L 86.710372 320.469992 
L 86.802822 319.352062 
L 86.987721 319.352062 
L 86.987721 318.606776 
L 87.357521 318.606776 
L 87.357521 317.488846 
L 87.542421 317.488846 
L 87.634871 314.5077 
L 87.819771 314.5077 
L 87.912221 313.762413 
L 88.004671 313.762413 
L 88.097121 313.017127 
L 88.18957 313.017127 
L 88.28202 311.153911 
L 88.37447 311.153911 
L 88.46692 308.918051 
L 88.55937 308.918051 
L 88.65182 305.936905 
L 88.92917 305.936905 
L 88.92917 305.564262 
L 89.11407 305.564262 
L 89.20652 304.446332 
L 89.29897 304.446332 
L 89.29897 303.328402 
L 89.483869 303.328402 
L 89.576319 301.465186 
L 89.668769 301.465186 
L 89.668769 300.347256 
L 90.038569 300.347256 
L 90.038569 299.974613 
L 90.223469 299.974613 
L 90.223469 298.111397 
L 90.408369 298.111397 
L 90.500819 297.36611 
L 90.593268 297.36611 
L 90.593268 296.24818 
L 90.778168 296.24818 
L 90.870618 295.502894 
L 91.425318 295.502894 
L 91.517768 294.757607 
L 91.610218 294.757607 
L 91.702668 292.521748 
L 91.795117 292.521748 
L 91.795117 292.149105 
L 92.164917 292.149105 
L 92.164917 291.776461 
L 92.349817 291.776461 
L 92.442267 290.658532 
L 92.534717 290.658532 
L 92.534717 290.285888 
L 92.719617 290.285888 
L 92.719617 289.913245 
L 92.904517 289.913245 
L 92.996966 289.167959 
L 93.181866 289.167959 
L 93.274316 288.050029 
L 93.551666 288.050029 
L 93.644116 286.186813 
L 94.106366 286.186813 
L 94.106366 283.950953 
L 94.291265 283.950953 
L 94.383715 283.205667 
L 94.568615 283.205667 
L 94.661065 281.34245 
L 94.845965 281.34245 
L 94.845965 280.969807 
L 95.030865 280.969807 
L 95.123315 280.224521 
L 95.215765 280.224521 
L 95.308215 278.733948 
L 95.400664 278.733948 
L 95.400664 277.988661 
L 95.585564 277.988661 
L 95.585564 277.243375 
L 95.955364 277.243375 
L 95.955364 275.752802 
L 96.140264 275.752802 
L 96.140264 275.380158 
L 96.325164 275.380158 
L 96.417614 274.262229 
L 96.510064 274.262229 
L 96.602513 271.653726 
L 96.694963 271.653726 
L 96.787413 270.163153 
L 97.064763 270.163153 
L 97.157213 269.417866 
L 97.249663 269.417866 
L 97.342113 267.55465 
L 97.434563 267.55465 
L 97.434563 266.43672 
L 97.619463 266.43672 
L 97.711913 265.31879 
L 97.896812 265.31879 
L 97.989262 263.455574 
L 98.081712 263.455574 
L 98.174162 262.710288 
L 98.266612 262.710288 
L 98.266612 262.337644 
L 98.451512 262.337644 
L 98.451512 260.847071 
L 98.636412 260.847071 
L 98.636412 260.101785 
L 98.913762 260.101785 
L 99.006211 258.983855 
L 99.098661 258.983855 
L 99.191111 256.747996 
L 99.283561 256.747996 
L 99.283561 255.630066 
L 99.560911 255.630066 
L 99.560911 255.257423 
L 99.838261 255.257423 
L 99.930711 253.021563 
L 100.023161 253.021563 
L 100.023161 251.158347 
L 100.57786 251.158347 
L 100.67031 249.667774 
L 100.76276 249.667774 
L 100.85521 248.177201 
L 101.31746 248.177201 
L 101.409909 247.431914 
L 101.594809 247.431914 
L 101.594809 246.313985 
L 101.779709 246.313985 
L 101.872159 244.078125 
L 101.964609 244.078125 
L 101.964609 243.705482 
L 102.149509 243.705482 
L 102.149509 242.960195 
L 102.334409 242.960195 
L 102.426859 242.214909 
L 102.611758 242.214909 
L 102.611758 241.469622 
L 102.796658 241.469622 
L 102.796658 241.096979 
L 102.981558 241.096979 
L 103.074008 240.351692 
L 103.166458 240.351692 
L 103.166458 239.233763 
L 103.443808 239.233763 
L 103.443808 238.488476 
L 103.628708 238.488476 
L 103.721158 236.997903 
L 104.090957 236.997903 
L 104.183407 234.762044 
L 104.368307 234.762044 
L 104.460757 234.016757 
L 104.738107 234.016757 
L 104.830557 231.780898 
L 105.107906 231.780898 
L 105.200356 230.662968 
L 105.477706 230.662968 
L 105.570156 229.917681 
L 105.847506 229.917681 
L 105.847506 229.172395 
L 106.032406 229.172395 
L 106.124856 228.054465 
L 106.494655 228.054465 
L 106.587105 227.309179 
L 107.049355 227.309179 
L 107.049355 226.191249 
L 107.326705 226.191249 
L 107.326705 225.818606 
L 107.511604 225.818606 
L 107.604054 223.582746 
L 107.696504 223.582746 
L 107.696504 222.83746 
L 107.973854 222.83746 
L 108.066304 221.71953 
L 108.343654 221.71953 
L 108.436104 220.974243 
L 108.528554 220.974243 
L 108.528554 220.228957 
L 108.805903 220.228957 
L 108.898353 219.48367 
L 108.990803 219.48367 
L 108.990803 219.111027 
L 109.360603 219.111027 
L 109.360603 218.365741 
L 109.637953 218.365741 
L 109.637953 217.620454 
L 110.100202 217.620454 
L 110.100202 217.247811 
L 110.377552 217.247811 
L 110.470002 216.502524 
L 110.654902 216.502524 
L 110.654902 215.757238 
L 110.932252 215.757238 
L 110.932252 213.894021 
L 111.302051 213.894021 
L 111.302051 213.148735 
L 111.486951 213.148735 
L 111.486951 212.776092 
L 111.856751 212.776092 
L 111.856751 212.403448 
L 112.319 212.403448 
L 112.41145 210.540232 
L 112.59635 210.540232 
L 112.6888 209.049659 
L 112.78125 209.049659 
L 112.8737 207.559086 
L 113.428399 207.559086 
L 113.520849 205.323227 
L 113.613299 205.323227 
L 113.705749 203.087367 
L 113.890649 203.087367 
L 113.890649 202.342081 
L 114.167999 202.342081 
L 114.260449 201.596794 
L 114.445349 201.596794 
L 114.445349 201.224151 
L 114.815148 201.224151 
L 114.907598 200.106221 
L 115.092498 200.106221 
L 115.092498 199.733578 
L 115.369848 199.733578 
L 115.369848 198.988291 
L 115.554748 198.988291 
L 115.647198 197.497718 
L 116.294347 197.497718 
L 116.386797 195.261859 
L 116.479247 195.261859 
L 116.479247 194.889216 
L 116.664147 194.889216 
L 116.756597 193.398643 
L 116.941497 193.398643 
L 116.941497 193.025999 
L 117.958446 193.025999 
L 117.958446 192.280713 
L 118.328245 192.280713 
L 118.420695 190.79014 
L 118.513145 190.79014 
L 118.605595 189.299567 
L 118.975395 189.299567 
L 119.067845 187.436351 
L 119.622544 187.436351 
L 119.714994 186.691064 
L 119.807444 186.691064 
L 119.807444 185.945777 
L 120.547044 185.945777 
L 120.639493 184.827848 
L 120.824393 184.827848 
L 120.824393 184.082561 
L 122.303592 184.082561 
L 122.303592 183.709918 
L 122.858292 183.709918 
L 122.858292 183.337275 
L 123.043191 183.337275 
L 123.135641 182.219345 
L 123.875241 182.219345 
L 123.875241 181.101415 
L 124.24504 181.101415 
L 124.33749 179.610842 
L 124.61484 179.610842 
L 124.61484 178.492912 
L 124.79974 178.492912 
L 124.79974 177.747626 
L 124.98464 177.747626 
L 124.98464 177.374983 
L 125.16954 177.374983 
L 125.26199 176.629696 
L 125.35444 176.629696 
L 125.446889 175.139123 
L 125.539339 175.139123 
L 125.631789 173.275907 
L 125.816689 173.275907 
L 125.816689 171.785334 
L 126.833638 171.785334 
L 126.926088 170.667404 
L 127.018538 170.667404 
L 127.018538 170.294761 
L 127.203438 170.294761 
L 127.203438 169.922118 
L 127.573238 169.922118 
L 127.573238 169.549474 
L 128.035487 169.549474 
L 128.035487 169.176831 
L 128.220387 169.176831 
L 128.220387 168.804188 
L 128.497737 168.804188 
L 128.497737 168.431545 
L 128.775087 168.431545 
L 128.867537 167.686258 
L 128.959987 167.686258 
L 128.959987 167.313615 
L 129.237336 167.313615 
L 129.237336 166.940972 
L 129.792036 166.940972 
L 129.884486 166.195685 
L 130.161836 166.195685 
L 130.161836 165.450399 
L 130.439185 165.450399 
L 130.439185 165.077755 
L 131.086335 165.077755 
L 131.086335 164.705112 
L 131.271235 164.705112 
L 131.271235 163.959826 
L 131.548584 163.959826 
L 131.548584 163.587182 
L 131.825934 163.587182 
L 131.825934 162.469253 
L 132.010834 162.469253 
L 132.010834 161.723966 
L 132.473084 161.723966 
L 132.473084 161.351323 
L 132.842883 161.351323 
L 132.842883 160.97868 
L 133.120233 160.97868 
L 133.212683 159.86075 
L 133.397583 159.86075 
L 133.490033 159.115463 
L 133.952282 159.115463 
L 134.044732 157.252247 
L 134.137182 157.252247 
L 134.137182 156.50696 
L 134.414532 156.50696 
L 134.414532 156.134317 
L 135.339031 156.134317 
L 135.339031 155.761674 
L 135.893731 155.761674 
L 135.893731 154.643744 
L 136.171081 154.643744 
L 136.171081 154.271101 
L 136.44843 154.271101 
L 136.54088 153.525814 
L 136.72578 153.525814 
L 136.72578 153.153171 
L 137.00313 153.153171 
L 137.09558 152.035241 
L 137.18803 152.035241 
L 137.18803 151.289955 
L 137.557829 151.289955 
L 137.557829 150.917312 
L 137.927629 150.917312 
L 138.020079 150.172025 
L 139.129478 150.172025 
L 139.221928 148.308809 
L 139.961527 148.308809 
L 139.961527 147.936166 
L 140.516227 147.936166 
L 140.608677 147.190879 
L 140.793577 147.190879 
L 140.793577 146.818236 
L 141.163376 146.818236 
L 141.163376 145.700306 
L 141.810526 145.700306 
L 141.902976 144.95502 
L 142.272775 144.95502 
L 142.272775 144.582376 
L 142.919925 144.582376 
L 142.919925 144.209733 
L 143.936874 144.209733 
L 144.029324 143.464447 
L 144.491574 143.464447 
L 144.491574 143.091803 
L 144.953823 143.091803 
L 144.953823 142.71916 
L 145.323623 142.71916 
L 145.323623 142.346517 
L 145.878322 142.346517 
L 145.878322 141.973874 
L 146.155672 141.973874 
L 146.155672 141.60123 
L 146.710372 141.60123 
L 146.710372 141.228587 
L 147.265071 141.228587 
L 147.265071 139.738014 
L 147.634871 139.738014 
L 147.634871 139.365371 
L 148.004671 139.365371 
L 148.097121 138.620084 
L 148.37447 138.620084 
L 148.37447 138.247441 
L 148.55937 138.247441 
L 148.55937 137.874798 
L 149.483869 137.874798 
L 149.483869 137.502155 
L 149.668769 137.502155 
L 149.668769 136.756868 
L 149.946119 136.756868 
L 149.946119 136.384225 
L 150.685718 136.384225 
L 150.685718 135.638938 
L 151.332868 135.638938 
L 151.332868 135.266295 
L 152.442267 135.266295 
L 152.442267 134.893652 
L 153.366766 134.893652 
L 153.366766 134.148365 
L 154.383715 134.148365 
L 154.476165 133.403079 
L 154.661065 133.403079 
L 154.753515 131.539863 
L 155.030865 131.539863 
L 155.030865 131.167219 
L 155.493114 131.167219 
L 155.493114 130.04929 
L 155.862914 130.04929 
L 155.862914 129.676646 
L 156.325164 129.676646 
L 156.325164 128.93136 
L 157.249663 128.93136 
L 157.249663 128.186073 
L 158.913762 128.186073 
L 158.913762 127.81343 
L 159.376011 127.81343 
L 159.468461 126.6955 
L 160.85521 126.6955 
L 160.85521 125.950214 
L 163.443808 125.950214 
L 163.443808 125.57757 
L 163.536258 125.57757 
L 164.738107 125.57757 
L 164.738107 125.204927 
L 165.662606 125.204927 
L 165.662606 124.832284 
L 166.309755 124.832284 
L 166.309755 124.459641 
L 167.234255 124.459641 
L 167.234255 123.714354 
L 167.696504 123.714354 
L 167.696504 123.341711 
L 168.066304 123.341711 
L 168.066304 122.969068 
L 168.343654 122.969068 
L 168.343654 122.596424 
L 169.175703 122.596424 
L 169.175703 122.223781 
L 171.579401 122.223781 
L 171.671851 121.105851 
L 172.41145 121.105851 
L 172.41145 120.733208 
L 173.15105 120.733208 
L 173.15105 119.987922 
L 173.33595 119.987922 
L 173.33595 119.615278 
L 173.520849 119.615278 
L 173.520849 119.242635 
L 174.260449 119.242635 
L 174.352899 118.124705 
L 174.537799 118.124705 
L 174.537799 117.752062 
L 175.092498 117.752062 
L 175.184948 117.006776 
L 175.462298 117.006776 
L 175.462298 116.634132 
L 176.016997 116.634132 
L 176.109447 115.888846 
L 177.126396 115.888846 
L 177.126396 115.143559 
L 177.681096 115.143559 
L 177.681096 114.770916 
L 177.865996 114.770916 
L 177.865996 114.398273 
L 178.143346 114.398273 
L 178.143346 114.02563 
L 178.513145 114.02563 
L 178.513145 113.652986 
L 178.790495 113.652986 
L 178.790495 113.280343 
L 180.731943 113.280343 
L 180.731943 112.9077 
L 180.916843 112.9077 
L 180.916843 112.535057 
L 181.563993 112.535057 
L 181.563993 112.162413 
L 181.841342 112.162413 
L 181.841342 111.78977 
L 182.026242 111.78977 
L 182.026242 111.417127 
L 182.488492 111.417127 
L 182.488492 111.044484 
L 182.858292 111.044484 
L 182.858292 110.299197 
L 183.320541 110.299197 
L 183.320541 109.926554 
L 183.505441 109.926554 
L 183.505441 109.553911 
L 183.690341 109.553911 
L 183.690341 108.435981 
L 186.833638 108.435981 
L 186.833638 108.063338 
L 187.203438 108.063338 
L 187.203438 107.690694 
L 187.850587 107.690694 
L 187.850587 107.318051 
L 188.312837 107.318051 
L 188.312837 106.945408 
L 188.497737 106.945408 
L 188.497737 106.572765 
L 188.775087 106.572765 
L 188.775087 106.200121 
L 189.329786 106.200121 
L 189.329786 105.827478 
L 189.699586 105.827478 
L 189.699586 105.454835 
L 190.531635 105.454835 
L 190.531635 105.082192 
L 190.993885 105.082192 
L 190.993885 104.709548 
L 191.271235 104.709548 
L 191.271235 104.336905 
L 192.657983 104.336905 
L 192.657983 103.964262 
L 193.952282 103.964262 
L 193.952282 103.591619 
L 194.691882 103.591619 
L 194.691882 103.218975 
L 195.154131 103.218975 
L 195.154131 102.846332 
L 196.44843 102.846332 
L 196.44843 102.473689 
L 197.650279 102.473689 
L 197.650279 102.101046 
L 198.574779 102.101046 
L 198.574779 101.728402 
L 199.591728 101.728402 
L 199.591728 101.355759 
L 200.886027 101.355759 
L 200.886027 100.983116 
L 201.718076 100.983116 
L 201.718076 100.610473 
L 202.180326 100.610473 
L 202.180326 99.865186 
L 203.751974 99.865186 
L 203.751974 99.492543 
L 204.029324 99.492543 
L 204.029324 99.119899 
L 204.676473 99.119899 
L 204.676473 98.747256 
L 205.693423 98.747256 
L 205.693423 98.374613 
L 207.080171 98.374613 
L 207.080171 98.00197 
L 207.265071 98.00197 
L 207.265071 97.629326 
L 209.853669 97.629326 
L 209.853669 97.256683 
L 210.038569 97.256683 
L 210.038569 96.88404 
L 211.240418 96.88404 
L 211.240418 96.511397 
L 211.425318 96.511397 
L 211.425318 96.138753 
L 211.887567 96.138753 
L 211.887567 95.76611 
L 213.089416 95.76611 
L 213.089416 95.393467 
L 214.198815 95.393467 
L 214.198815 95.020824 
L 214.753515 95.020824 
L 214.753515 94.64818 
L 215.123315 94.64818 
L 215.123315 94.275537 
L 215.308215 94.275537 
L 215.308215 93.902894 
L 216.417614 93.902894 
L 216.417614 93.530251 
L 216.879863 93.530251 
L 216.972313 93.157607 
L 217.249663 93.157607 
L 217.249663 92.784964 
L 217.804362 92.784964 
L 217.804362 92.412321 
L 219.283561 92.412321 
L 219.283561 92.039678 
L 220.115611 92.039678 
L 220.115611 91.667034 
L 220.57786 91.667034 
L 220.57786 91.294391 
L 220.76276 91.294391 
L 220.76276 90.921748 
L 221.22501 90.921748 
L 221.22501 90.549105 
L 221.872159 90.549105 
L 221.872159 90.176461 
L 222.334409 90.176461 
L 222.334409 89.803818 
L 223.351358 89.803818 
L 223.351358 89.431175 
L 224.183407 89.431175 
L 224.183407 89.058532 
L 228.528554 89.058532 
L 228.528554 88.313245 
L 231.209601 88.313245 
L 231.209601 87.940602 
L 232.59635 87.940602 
L 232.59635 87.567959 
L 233.15105 87.567959 
L 233.15105 87.195315 
L 233.520849 87.195315 
L 233.520849 86.822672 
L 234.907598 86.822672 
L 234.907598 86.450029 
L 235.369848 86.450029 
L 235.369848 86.077386 
L 237.681096 86.077386 
L 237.681096 85.704742 
L 238.605595 85.704742 
L 238.605595 85.332099 
L 240.362144 85.332099 
L 240.454594 84.586813 
L 243.412991 84.586813 
L 243.412991 84.214169 
L 243.967691 84.214169 
L 243.967691 83.841526 
L 244.89219 83.841526 
L 244.89219 83.468883 
L 245.07709 83.468883 
L 245.07709 83.09624 
L 248.682637 83.09624 
L 248.682637 82.723596 
L 249.144886 82.723596 
L 249.144886 82.350953 
L 254.969232 82.350953 
L 254.969232 81.97831 
L 259.499278 81.97831 
L 259.499278 81.605667 
L 261.718076 81.605667 
L 261.718076 81.233023 
L 264.029324 81.233023 
L 264.029324 80.86038 
L 265.878322 80.86038 
L 265.878322 80.487737 
L 268.74427 80.487737 
L 268.74427 80.115094 
L 270.593268 80.115094 
L 270.593268 79.74245 
L 270.870618 79.74245 
L 270.870618 79.369807 
L 273.459216 79.369807 
L 273.459216 78.997164 
L 274.383715 78.997164 
L 274.383715 78.624521 
L 276.879863 78.624521 
L 276.879863 78.251877 
L 277.342113 78.251877 
L 277.434563 77.879234 
L 277.989262 77.879234 
L 277.989262 77.506591 
L 279.006211 77.506591 
L 279.006211 76.761304 
L 279.468461 76.761304 
L 279.468461 76.388661 
L 283.628708 76.388661 
L 283.628708 76.016018 
L 283.721158 76.016018 
L 283.813607 75.643375 
L 284.275857 75.643375 
L 284.275857 75.270731 
L 285.107906 75.270731 
L 285.107906 74.525445 
L 287.511604 74.525445 
L 287.511604 74.152802 
L 288.251204 74.152802 
L 288.251204 73.780158 
L 289.822852 73.780158 
L 289.822852 73.407515 
L 290.747352 73.407515 
L 290.839802 73.034872 
L 293.428399 73.034872 
L 293.428399 72.662229 
L 293.890649 72.662229 
L 293.890649 72.289585 
L 294.630248 72.289585 
L 294.630248 71.916942 
L 295.739648 71.916942 
L 295.739648 71.544299 
L 295.924547 71.544299 
L 296.016997 71.171655 
L 296.479247 71.171655 
L 296.479247 70.799012 
L 296.571697 70.799012 
L 296.756597 70.799012 
L 296.756597 70.426369 
L 299.530094 70.426369 
L 299.530094 70.053726 
L 300.177244 70.053726 
L 300.177244 69.681082 
L 305.446889 69.681082 
L 305.446889 69.308439 
L 307.018538 69.308439 
L 307.018538 68.935796 
L 307.295888 68.935796 
L 307.295888 68.563153 
L 308.682637 68.563153 
L 308.682637 68.190509 
L 308.775087 68.190509 
L 309.699586 68.190509 
L 309.792036 67.445223 
L 312.103284 67.445223 
L 312.103284 67.07258 
L 314.229632 67.07258 
L 314.229632 66.699936 
L 315.431481 66.699936 
L 315.431481 66.327293 
L 318.020079 66.327293 
L 318.020079 65.582007 
L 319.037028 65.582007 
L 319.037028 65.209363 
L 322.365225 65.209363 
L 322.365225 64.83672 
L 329.391419 64.83672 
L 329.483869 64.464077 
L 330.315919 64.464077 
L 330.408369 64.091434 
L 331.147968 64.091434 
L 331.240418 63.71879 
L 331.610218 63.71879 
L 331.610218 63.346147 
L 331.980017 63.346147 
L 331.980017 62.973504 
L 334.661065 62.973504 
L 334.661065 62.600861 
L 339.098661 62.600861 
L 339.098661 62.228217 
L 339.376011 62.228217 
L 339.468461 61.110288 
L 340.023161 61.110288 
L 340.30051 60.737644 
L 341.872159 60.737644 
L 341.872159 60.365001 
L 341.964609 60.365001 
L 344.738107 60.365001 
L 344.738107 59.992358 
L 349.083253 59.992358 
L 349.083253 59.619715 
L 354.445349 59.619715 
L 354.537799 59.247071 
L 355.832097 59.247071 
L 355.832097 58.874428 
L 356.479247 58.874428 
L 356.479247 58.501785 
L 357.033946 58.501785 
L 357.033946 58.129142 
L 357.496196 58.129142 
L 357.496196 57.756498 
L 357.773546 57.756498 
L 357.773546 57.383855 
L 357.865996 57.383855 
L 361.286643 57.383855 
L 361.286643 57.011212 
L 363.320541 57.011212 
L 363.320541 56.638569 
L 366.463839 56.638569 
L 366.463839 56.265925 
L 366.926088 56.265925 
L 366.926088 55.893282 
L 375.523931 55.893282 
L 375.616381 55.520639 
L 376.91068 55.520639 
L 376.91068 55.147996 
L 393.181866 55.147996 
L 393.181866 54.402709 
L 395.862914 54.402709 
L 395.955364 54.030066 
L 397.619463 54.030066 
L 397.711913 53.657423 
L 402.704208 53.657423 
L 402.704208 53.284779 
L 410.377552 53.284779 
L 410.377552 52.912136 
L 416.756597 52.912136 
L 416.756597 52.539493 
L 417.126396 52.539493 
L 417.126396 51.794206 
L 418.790495 51.794206 
L 418.790495 51.421563 
L 418.882945 51.421563 
L 421.841342 51.421563 
L 421.841342 51.04892 
L 427.943037 51.04892 
L 428.035487 50.676277 
L 432.473084 50.676277 
L 432.473084 50.303633 
L 449.576319 50.303633 
L 449.668769 49.93099 
L 452.442267 49.93099 
L 452.534717 49.558347 
L 452.996966 49.558347 
L 452.996966 49.185704 
L 453.921466 49.185704 
L 453.921466 48.81306 
L 456.232714 48.81306 
L 456.232714 48.440417 
L 456.694963 48.440417 
L 456.694963 48.067774 
L 456.972313 48.067774 
L 456.972313 47.695131 
L 457.064763 47.695131 
L 467.419154 47.695131 
L 467.419154 47.322487 
L 477.311296 47.322487 
L 477.403746 46.949844 
L 483.782791 46.949844 
L 483.967691 46.577201 
L 487.110988 46.577201 
L 487.203438 46.204558 
L 491.456134 46.204558 
L 491.641034 45.831914 
L 495.431481 45.831914 
L 495.431481 45.459271 
L 504.029324 45.459271 
L 504.029324 45.086628 
L 507.912221 45.086628 
L 508.004671 44.713985 
L 513.366766 44.713985 
L 513.459216 44.341341 
L 514.013916 44.341341 
L 514.198815 43.968698 
L 543.967691 43.968698 
L 543.967691 43.596055 
L 552.565534 43.596055 
L 552.565534 43.223412 
L 554.691882 43.223412 
L 554.876782 42.850768 
L 573.459216 42.850768 
L 573.459216 42.478125 
L 576.417614 42.478125 
L 576.417614 42.478125 
" clip-path="url(#p8ec00aabc4)" style="fill: none; stroke: #1f77b4; stroke-width: 1.5; stroke-linecap: square"/>
   </g>
   <g id="line2d_14">
    <path d="M 69.144886 445.678125 
L 75.612663 394.695664 
L 76.110185 391.680572 
L 76.508202 390.035977 
L 76.70721 387.020885 
L 76.806715 386.746786 
L 76.906219 384.553992 
L 77.005723 384.279893 
L 77.503244 384.005793 
L 77.901261 384.005793 
L 78.000766 381.5389 
L 78.199774 380.990701 
L 78.398783 380.990701 
L 78.498287 380.442503 
L 78.597791 380.442503 
L 78.697296 379.346106 
L 78.7968 379.346106 
L 78.896304 377.97561 
L 79.294321 377.97561 
L 79.294321 376.879213 
L 79.592834 376.879213 
L 79.791842 376.605113 
L 79.990851 376.605113 
L 79.990851 376.056915 
L 80.090355 376.056915 
L 80.388868 373.864121 
L 80.488372 373.315922 
L 80.687381 372.493625 
L 80.687381 371.397228 
L 80.786885 371.397228 
L 80.985894 371.397228 
L 80.985894 369.752632 
L 81.184902 369.752632 
L 81.284406 368.382136 
L 81.483415 367.285739 
L 81.781928 367.285739 
L 81.881432 366.189342 
L 82.08044 366.189342 
L 82.179945 365.092945 
L 82.279449 365.092945 
L 82.279449 364.270647 
L 82.577962 364.270647 
L 82.677466 362.351952 
L 82.77697 362.351952 
L 82.876475 361.255555 
L 82.975979 360.981456 
L 83.075483 360.159158 
L 83.174987 360.159158 
L 83.274492 358.788662 
L 83.4735 358.788662 
L 83.4735 356.321769 
L 83.672509 356.321769 
L 83.672509 353.580776 
L 83.871517 353.580776 
L 83.871517 353.032578 
L 84.070526 353.032578 
L 84.17003 350.291585 
L 84.269534 350.291585 
L 84.369038 348.37289 
L 84.468543 348.37289 
L 84.568047 347.276493 
L 84.767055 347.276493 
L 84.767055 346.454196 
L 84.966064 346.454196 
L 84.966064 346.180096 
L 85.364081 346.180096 
L 85.463585 345.357799 
L 85.662594 345.357799 
L 85.662594 344.8096 
L 86.060611 344.8096 
L 86.060611 343.987302 
L 86.259619 343.987302 
L 86.359124 341.794508 
L 86.558132 341.794508 
L 86.657636 341.24631 
L 86.757141 341.24631 
L 86.856645 340.698111 
L 86.956149 340.698111 
L 87.055654 339.327615 
L 87.155158 339.327615 
L 87.254662 337.68302 
L 87.354166 337.68302 
L 87.453671 335.490226 
L 87.553175 335.490226 
L 87.652679 334.942027 
L 87.752183 334.942027 
L 87.851688 333.84563 
L 87.951192 333.84563 
L 87.951192 333.023332 
L 88.1502 333.023332 
L 88.249705 330.556439 
L 88.349209 330.556439 
L 88.448713 329.734141 
L 88.647722 329.734141 
L 88.647722 328.363645 
L 88.84673 328.363645 
L 88.946234 326.71905 
L 89.145243 326.71905 
L 89.244747 326.170851 
L 89.642764 326.170851 
L 89.742269 325.622653 
L 89.841773 325.622653 
L 89.941277 324.800355 
L 90.040781 324.800355 
L 90.140286 323.429859 
L 90.438798 323.429859 
L 90.438798 322.88166 
L 90.637807 322.88166 
L 90.737311 322.059362 
L 90.836815 322.059362 
L 90.93632 320.962965 
L 91.035824 320.962965 
L 91.135328 320.414767 
L 91.334337 320.414767 
L 91.433841 319.592469 
L 91.732354 319.592469 
L 91.831858 318.221973 
L 92.329379 318.221973 
L 92.329379 316.577377 
L 92.528388 316.577377 
L 92.627892 316.029179 
L 92.826901 316.029179 
L 92.926405 314.658682 
L 93.125413 314.658682 
L 93.125413 314.384583 
L 93.324422 314.384583 
L 93.423926 313.836385 
L 93.523431 313.836385 
L 93.622935 311.91769 
L 93.821943 311.91769 
L 93.821943 310.821293 
L 94.020952 310.821293 
L 94.020952 309.724896 
L 94.21996 309.724896 
L 94.319465 308.628499 
L 94.418969 308.628499 
L 94.518473 306.709804 
L 94.617977 306.709804 
L 94.717482 305.065209 
L 95.015994 305.065209 
L 95.115499 304.51701 
L 95.215003 304.51701 
L 95.314507 303.146514 
L 95.414012 303.146514 
L 95.513516 301.501918 
L 95.61302 301.501918 
L 95.61302 301.227819 
L 95.812029 301.227819 
L 95.911533 299.857323 
L 96.011037 299.857323 
L 96.110541 298.760926 
L 96.30955 298.760926 
L 96.30955 297.664529 
L 96.508558 297.664529 
L 96.508558 297.11633 
L 96.807071 297.11633 
L 96.906575 296.294033 
L 97.00608 296.294033 
L 97.105584 294.649437 
L 97.205088 294.649437 
L 97.205088 293.827139 
L 97.503601 293.827139 
L 97.503601 293.55304 
L 97.802114 293.55304 
L 97.901618 291.908445 
L 98.001122 291.908445 
L 98.001122 290.537948 
L 98.598148 290.537948 
L 98.697652 289.441551 
L 98.797156 289.441551 
L 98.896661 288.345154 
L 99.095669 288.345154 
L 99.095669 288.071055 
L 99.294678 288.071055 
L 99.394182 287.522856 
L 99.593191 287.522856 
L 99.593191 286.700559 
L 99.792199 286.700559 
L 99.891703 284.507765 
L 100.090712 284.507765 
L 100.190216 283.411368 
L 100.28972 283.411368 
L 100.28972 283.137268 
L 100.488729 283.137268 
L 100.488729 282.58907 
L 100.687737 282.58907 
L 100.687737 282.314971 
L 100.886746 282.314971 
L 100.98625 280.670375 
L 101.284763 280.670375 
L 101.284763 280.122177 
L 101.483771 280.122177 
L 101.483771 278.75168 
L 101.881789 278.75168 
L 101.981293 277.107085 
L 102.180301 277.107085 
L 102.279806 276.558886 
L 102.578318 276.558886 
L 102.677823 274.640192 
L 102.777327 274.640192 
L 102.876831 273.543795 
L 103.175344 273.543795 
L 103.274848 272.721497 
L 103.374352 272.721497 
L 103.473857 271.351001 
L 103.573361 271.351001 
L 103.573361 270.802802 
L 103.871874 270.802802 
L 103.971378 269.980504 
L 104.170387 269.980504 
L 104.170387 269.706405 
L 104.369395 269.706405 
L 104.369395 268.884107 
L 104.667908 268.884107 
L 104.667908 268.610008 
L 104.866916 268.610008 
L 104.966421 266.965413 
L 105.065925 266.965413 
L 105.065925 266.417214 
L 105.364438 266.417214 
L 105.463942 265.320817 
L 105.563446 265.320817 
L 105.66295 264.498519 
L 105.762455 264.498519 
L 105.861959 263.676222 
L 105.961463 263.676222 
L 106.060968 263.128023 
L 106.160472 263.128023 
L 106.259976 262.305725 
L 106.35948 262.305725 
L 106.35948 261.757527 
L 106.657993 261.757527 
L 106.657993 261.209328 
L 107.155514 261.209328 
L 107.255019 259.564733 
L 107.354523 259.564733 
L 107.354523 258.742435 
L 107.653036 258.742435 
L 107.653036 257.371939 
L 107.951549 257.371939 
L 107.951549 256.549641 
L 108.150557 256.549641 
L 108.150557 256.275542 
L 108.548574 256.275542 
L 108.648078 255.727343 
L 108.747583 255.727343 
L 108.847087 253.808648 
L 109.046095 253.808648 
L 109.1456 251.067656 
L 109.742625 251.067656 
L 109.842129 249.42306 
L 109.941634 249.42306 
L 110.041138 247.778465 
L 110.240147 247.778465 
L 110.240147 247.230266 
L 110.439155 247.230266 
L 110.538659 246.407969 
L 110.737668 246.407969 
L 110.737668 246.133869 
L 111.135685 246.133869 
L 111.235189 245.311572 
L 111.434198 245.311572 
L 111.434198 244.763373 
L 111.633206 244.763373 
L 111.633206 244.215175 
L 111.832215 244.215175 
L 111.931719 243.118778 
L 112.031223 243.118778 
L 112.031223 242.844678 
L 112.528745 242.844678 
L 112.628249 241.200083 
L 112.727753 241.200083 
L 112.727753 240.925984 
L 112.926762 240.925984 
L 113.026266 239.829587 
L 113.225274 239.829587 
L 113.225274 239.555487 
L 113.722796 239.555487 
L 113.722796 239.281388 
L 114.220317 239.281388 
L 114.220317 238.73319 
L 114.618334 238.73319 
L 114.717838 236.814495 
L 114.817343 236.814495 
L 114.916847 235.992197 
L 115.115855 235.992197 
L 115.21536 234.621701 
L 115.414368 234.621701 
L 115.414368 234.347602 
L 115.613377 234.347602 
L 115.712881 232.703006 
L 116.110898 232.703006 
L 116.110898 232.428907 
L 116.309907 232.428907 
L 116.409411 231.33251 
L 116.608419 231.33251 
L 116.707924 230.510212 
L 117.80247 230.510212 
L 117.901975 229.687914 
L 118.001479 229.687914 
L 118.001479 229.413815 
L 118.399496 229.413815 
L 118.399496 229.139716 
L 118.598505 229.139716 
L 118.698009 228.317418 
L 119.19553 228.317418 
L 119.19553 228.043319 
L 119.394539 228.043319 
L 119.394539 227.221021 
L 119.792556 227.221021 
L 119.792556 225.850525 
L 120.091068 225.850525 
L 120.091068 225.028227 
L 120.290077 225.028227 
L 120.290077 224.480028 
L 120.489086 224.480028 
L 120.489086 224.205929 
L 120.688094 224.205929 
L 120.787598 223.657731 
L 120.887103 223.657731 
L 120.986607 222.561334 
L 121.086111 222.561334 
L 121.185615 219.546242 
L 122.280162 219.546242 
L 122.379666 218.723944 
L 122.479171 218.723944 
L 122.578675 217.901646 
L 122.976692 217.901646 
L 122.976692 217.353448 
L 123.374709 217.353448 
L 123.374709 217.079349 
L 123.573718 217.079349 
L 123.673222 216.53115 
L 123.772726 216.53115 
L 123.772726 216.257051 
L 123.971735 216.257051 
L 124.071239 214.886555 
L 124.369752 214.886555 
L 124.369752 214.612455 
L 124.966777 214.612455 
L 125.066282 213.790158 
L 125.26529 213.790158 
L 125.26529 212.96786 
L 125.464299 212.96786 
L 125.464299 212.693761 
L 125.762811 212.693761 
L 125.762811 212.419661 
L 126.061324 212.419661 
L 126.160828 211.049165 
L 126.359837 211.049165 
L 126.359837 210.775066 
L 126.65835 210.775066 
L 126.65835 209.952768 
L 126.857358 209.952768 
L 126.857358 209.40457 
L 127.35488 209.40457 
L 127.35488 209.13047 
L 127.752897 209.13047 
L 127.852401 207.211776 
L 128.051409 207.211776 
L 128.150914 206.389478 
L 128.250418 206.389478 
L 128.349922 205.018982 
L 128.449426 205.018982 
L 128.548931 203.922585 
L 128.847444 203.922585 
L 128.847444 203.648485 
L 129.643478 203.648485 
L 129.742982 202.552088 
L 130.140999 202.552088 
L 130.240503 200.907493 
L 130.539016 200.907493 
L 130.63852 200.359294 
L 130.837529 200.359294 
L 130.937033 199.811096 
L 131.036537 199.811096 
L 131.136042 198.988798 
L 131.235546 198.988798 
L 131.235546 198.1665 
L 131.534059 198.1665 
L 131.534059 197.892401 
L 131.932076 197.892401 
L 132.03158 197.344202 
L 132.628605 197.344202 
L 132.628605 197.070103 
L 132.827614 197.070103 
L 132.827614 196.796004 
L 133.026623 196.796004 
L 133.126127 195.425508 
L 133.922161 195.425508 
L 133.922161 195.151408 
L 134.121169 195.151408 
L 134.121169 194.60321 
L 134.320178 194.60321 
L 134.419682 194.055011 
L 134.618691 194.055011 
L 134.618691 193.780912 
L 135.016708 193.780912 
L 135.016708 192.684515 
L 135.315221 192.684515 
L 135.414725 191.314019 
L 135.514229 191.314019 
L 135.514229 191.03992 
L 135.713238 191.03992 
L 135.812742 190.491721 
L 136.111255 190.491721 
L 136.210759 189.943523 
L 136.310263 189.943523 
L 136.409767 189.395324 
L 137.106297 189.395324 
L 137.205802 188.573026 
L 137.603819 188.573026 
L 137.603819 188.298927 
L 138.10134 188.298927 
L 138.10134 188.024828 
L 138.499357 188.024828 
L 138.499357 187.750729 
L 138.698365 187.750729 
L 138.698365 187.476629 
L 138.897374 187.476629 
L 138.897374 186.928431 
L 139.195887 186.928431 
L 139.195887 186.654332 
L 139.693408 186.654332 
L 139.792912 185.832034 
L 140.190929 185.832034 
L 140.190929 184.187438 
L 140.389938 184.187438 
L 140.389938 183.913339 
L 140.787955 183.913339 
L 140.887459 183.365141 
L 141.185972 183.365141 
L 141.185972 183.091041 
L 141.384981 183.091041 
L 141.384981 182.816942 
L 142.380023 182.816942 
L 142.380023 182.542843 
L 142.579032 182.542843 
L 142.579032 181.994644 
L 142.77804 181.994644 
L 142.77804 181.446446 
L 143.47457 181.446446 
L 143.47457 180.350049 
L 144.071596 180.350049 
L 144.071596 180.07595 
L 144.668621 180.07595 
L 144.668621 179.80185 
L 145.166142 179.80185 
L 145.166142 179.253652 
L 146.061681 179.253652 
L 146.061681 178.705453 
L 146.260689 178.705453 
L 146.260689 178.431354 
L 146.559202 178.431354 
L 146.559202 178.157255 
L 146.957219 178.157255 
L 147.056723 175.964461 
L 147.156228 175.964461 
L 147.156228 175.690362 
L 147.45474 175.690362 
L 147.45474 175.416262 
L 147.952262 175.416262 
L 147.952262 174.593965 
L 148.350279 174.593965 
L 148.350279 174.319865 
L 148.648792 174.319865 
L 148.748296 173.497568 
L 149.345321 173.497568 
L 149.345321 173.223468 
L 149.54433 173.223468 
L 149.54433 171.852972 
L 151.136398 171.852972 
L 151.136398 171.578873 
L 151.633919 171.578873 
L 151.633919 170.208377 
L 151.832928 170.208377 
L 151.832928 169.934277 
L 152.230945 169.934277 
L 152.230945 169.660178 
L 152.827971 169.660178 
L 152.827971 169.11198 
L 153.424996 169.11198 
L 153.424996 168.83788 
L 155.415081 168.83788 
L 155.415081 168.289682 
L 155.61409 168.289682 
L 155.61409 168.015583 
L 156.708637 168.015583 
L 156.708637 167.741483 
L 157.703679 167.741483 
L 157.703679 167.467384 
L 158.201201 167.467384 
L 158.300705 166.919186 
L 159.295748 166.919186 
L 159.295748 166.370987 
L 159.494756 166.370987 
L 159.494756 166.096888 
L 159.693765 166.096888 
L 159.693765 165.822788 
L 160.091782 165.822788 
L 160.091782 165.548689 
L 160.390295 165.548689 
L 160.390295 165.27459 
L 160.788312 165.27459 
L 160.788312 165.000491 
L 161.186329 165.000491 
L 161.186329 164.726391 
L 161.484841 164.726391 
L 161.484841 164.452292 
L 161.68385 164.452292 
L 161.68385 163.629994 
L 162.081867 163.629994 
L 162.081867 163.081796 
L 162.778397 163.081796 
L 162.778397 162.807697 
L 163.07691 162.807697 
L 163.176414 161.985399 
L 163.972448 161.985399 
L 163.972448 161.7113 
L 164.171456 161.7113 
L 164.270961 161.163101 
L 164.569474 161.163101 
L 164.569474 160.614903 
L 164.768482 160.614903 
L 164.768482 160.340803 
L 164.967491 160.340803 
L 164.967491 160.066704 
L 165.66402 160.066704 
L 165.763525 158.970307 
L 165.863029 158.970307 
L 165.962533 158.148009 
L 166.062037 158.148009 
L 166.161542 157.325712 
L 166.261046 157.325712 
L 166.261046 157.051612 
L 166.559559 157.051612 
L 166.559559 156.777513 
L 166.758567 156.777513 
L 166.758567 156.503414 
L 167.05708 156.503414 
L 167.05708 155.681116 
L 167.952618 155.681116 
L 168.052123 154.858818 
L 168.251131 154.858818 
L 168.251131 154.584719 
L 168.549644 154.584719 
L 168.649148 153.762421 
L 168.947661 153.762421 
L 168.947661 153.488322 
L 169.345678 153.488322 
L 169.345678 152.940124 
L 169.544687 152.940124 
L 169.544687 152.666024 
L 169.743695 152.666024 
L 169.743695 152.391925 
L 171.534772 152.391925 
L 171.634276 151.295528 
L 171.73378 151.295528 
L 171.73378 151.021429 
L 172.131797 151.021429 
L 172.131797 150.74733 
L 172.43031 150.74733 
L 172.529814 149.925032 
L 173.027336 149.925032 
L 173.12684 149.376833 
L 173.325849 149.376833 
L 173.425353 148.554536 
L 173.624361 148.554536 
L 173.624361 148.006337 
L 173.82337 148.006337 
L 173.922874 146.635841 
L 174.121883 146.635841 
L 174.121883 146.361742 
L 175.21643 146.361742 
L 175.21643 146.087642 
L 176.509985 146.087642 
L 176.509985 145.813543 
L 176.808498 145.813543 
L 176.908002 145.265345 
L 177.107011 145.265345 
L 177.107011 144.443047 
L 177.80354 144.443047 
L 177.80354 144.168948 
L 178.301062 144.168948 
L 178.301062 143.894848 
L 178.50007 143.894848 
L 178.50007 143.34665 
L 178.699079 143.34665 
L 178.699079 143.072551 
L 178.997592 143.072551 
L 178.997592 142.798451 
L 179.1966 142.798451 
L 179.1966 142.524352 
L 179.594617 142.524352 
L 179.594617 142.250253 
L 179.89313 142.250253 
L 179.89313 141.976154 
L 180.390651 141.976154 
L 180.390651 141.702054 
L 180.888173 141.702054 
L 180.888173 141.427955 
L 181.186685 141.427955 
L 181.186685 141.153856 
L 182.679249 141.153856 
L 182.679249 140.879757 
L 182.977762 140.879757 
L 182.977762 140.605657 
L 183.176771 140.605657 
L 183.276275 140.057459 
L 183.773796 140.057459 
L 183.773796 139.78336 
L 183.972805 139.78336 
L 183.972805 139.50926 
L 184.470326 139.50926 
L 184.470326 139.235161 
L 184.967847 139.235161 
L 184.967847 138.961062 
L 185.166856 138.961062 
L 185.26636 138.412863 
L 185.365864 138.412863 
L 185.365864 138.138764 
L 185.564873 138.138764 
L 185.564873 137.590566 
L 185.863386 137.590566 
L 185.96289 136.768268 
L 186.460411 136.768268 
L 186.460411 136.494169 
L 186.858428 136.494169 
L 186.858428 136.220069 
L 187.455454 136.220069 
L 187.455454 135.94597 
L 187.753967 135.94597 
L 187.753967 135.671871 
L 188.848513 135.671871 
L 188.848513 135.397771 
L 190.241573 135.397771 
L 190.341077 134.575474 
L 190.938103 134.575474 
L 190.938103 134.301374 
L 191.435624 134.301374 
L 191.435624 133.753176 
L 192.03265 133.753176 
L 192.03265 133.479077 
L 192.331163 133.479077 
L 192.331163 133.204977 
L 192.629675 133.204977 
L 192.629675 132.930878 
L 192.828684 132.930878 
L 192.828684 132.656779 
L 193.127197 132.656779 
L 193.127197 132.10858 
L 193.525214 132.10858 
L 193.624718 131.560382 
L 194.122239 131.560382 
L 194.122239 131.286283 
L 194.619761 131.286283 
L 194.619761 131.012183 
L 195.415795 131.012183 
L 195.415795 130.738084 
L 195.714308 130.738084 
L 195.714308 130.463985 
L 195.913316 130.463985 
L 196.01282 129.641687 
L 196.70935 129.641687 
L 196.70935 129.367588 
L 197.306376 129.367588 
L 197.306376 129.093489 
L 197.704393 129.093489 
L 197.704393 128.819389 
L 197.903401 128.819389 
L 197.903401 128.54529 
L 198.400923 128.54529 
L 198.400923 128.271191 
L 198.599931 128.271191 
L 198.599931 127.997092 
L 199.097452 127.997092 
L 199.196957 127.174794 
L 199.594974 127.174794 
L 199.594974 126.900695 
L 199.793982 126.900695 
L 199.793982 126.626595 
L 200.291504 126.626595 
L 200.291504 126.352496 
L 201.585059 126.352496 
L 201.585059 125.804298 
L 202.480597 125.804298 
L 202.580102 125.256099 
L 203.177127 125.256099 
L 203.177127 124.982 
L 203.575144 124.982 
L 203.575144 124.707901 
L 203.774153 124.707901 
L 203.774153 124.433801 
L 204.968204 124.433801 
L 204.968204 124.159702 
L 205.167212 124.159702 
L 205.266717 123.337404 
L 205.664734 123.337404 
L 205.664734 122.789206 
L 206.162255 122.789206 
L 206.162255 122.515107 
L 206.759281 122.515107 
L 206.858785 121.966908 
L 207.555315 121.966908 
L 207.654819 121.41871 
L 208.351349 121.41871 
L 208.351349 120.870511 
L 208.749366 120.870511 
L 208.749366 120.596412 
L 208.948374 120.596412 
L 209.047879 120.048213 
L 209.346391 120.048213 
L 209.346391 119.774114 
L 210.042921 119.774114 
L 210.042921 119.500015 
L 210.540443 119.500015 
L 210.540443 118.951816 
L 211.535485 118.951816 
L 211.535485 118.677717 
L 212.132511 118.677717 
L 212.132511 118.403618 
L 212.331519 118.403618 
L 212.431024 117.855419 
L 212.530528 117.855419 
L 212.530528 117.307221 
L 214.421109 117.307221 
L 214.421109 117.033122 
L 215.316647 117.033122 
L 215.316647 116.759022 
L 216.212185 116.759022 
L 216.31169 115.662625 
L 217.505741 115.662625 
L 217.505741 115.388526 
L 218.003262 115.388526 
L 218.003262 115.114427 
L 218.102766 115.114427 
L 218.998305 115.114427 
L 218.998305 114.840328 
L 219.59533 114.840328 
L 219.59533 114.566228 
L 219.893843 114.566228 
L 219.893843 114.292129 
L 220.29186 114.292129 
L 220.29186 114.01803 
L 220.888886 114.01803 
L 220.888886 113.743931 
L 221.187399 113.743931 
L 221.187399 113.195732 
L 222.679963 113.195732 
L 222.779467 112.647534 
L 223.07798 112.647534 
L 223.07798 112.373434 
L 224.670048 112.373434 
L 224.670048 112.099335 
L 225.167569 112.099335 
L 225.167569 111.825236 
L 225.366578 111.825236 
L 225.366578 111.277037 
L 226.262116 111.277037 
L 226.262116 111.002938 
L 227.05815 111.002938 
L 227.05815 110.728839 
L 227.555671 110.728839 
L 227.555671 110.45474 
L 227.854184 110.45474 
L 227.953688 109.632442 
L 229.844269 109.632442 
L 229.844269 109.358343 
L 231.038321 109.358343 
L 231.038321 109.084243 
L 231.336833 109.084243 
L 231.336833 108.810144 
L 231.535842 108.810144 
L 231.535842 108.536045 
L 232.033363 108.536045 
L 232.033363 108.261946 
L 232.331876 108.261946 
L 232.331876 107.713747 
L 232.530884 107.713747 
L 232.530884 107.439648 
L 233.326919 107.439648 
L 233.326919 107.165549 
L 233.82444 107.165549 
L 233.82444 106.891449 
L 236.212542 106.891449 
L 236.212542 106.343251 
L 236.610559 106.343251 
L 236.610559 106.069152 
L 237.406593 106.069152 
L 237.406593 105.795052 
L 237.705106 105.795052 
L 237.705106 105.520953 
L 238.600644 105.520953 
L 238.600644 105.246854 
L 238.998661 105.246854 
L 238.998661 104.972755 
L 239.695191 104.972755 
L 239.695191 104.698655 
L 240.192713 104.698655 
L 240.192713 104.424556 
L 241.585772 104.424556 
L 241.585772 104.150457 
L 242.182798 104.150457 
L 242.182798 103.876357 
L 243.17784 103.876357 
L 243.277345 103.328159 
L 244.172883 103.328159 
L 244.172883 102.77996 
L 246.66049 102.77996 
L 246.66049 102.505861 
L 248.352062 102.505861 
L 248.352062 102.231762 
L 248.949088 102.231762 
L 248.949088 101.957663 
L 249.2476 101.957663 
L 249.2476 101.683563 
L 249.446609 101.683563 
L 249.446609 101.409464 
L 250.342147 101.409464 
L 250.342147 101.135365 
L 250.939173 101.135365 
L 251.038677 100.587166 
L 251.834711 100.587166 
L 251.934216 100.313067 
L 252.929258 100.313067 
L 252.929258 100.038968 
L 253.625788 100.038968 
L 253.625788 99.490769 
L 255.715377 99.490769 
L 255.715377 98.942571 
L 256.113395 98.942571 
L 256.113395 98.668472 
L 256.610916 98.668472 
L 256.610916 98.394372 
L 257.506454 98.394372 
L 257.506454 98.120273 
L 257.804967 98.120273 
L 257.804967 97.846174 
L 260.591086 97.846174 
L 260.591086 97.572075 
L 261.586129 97.572075 
L 261.586129 97.023876 
L 262.879684 97.023876 
L 262.879684 96.749777 
L 263.178197 96.749777 
L 263.178197 96.201578 
L 263.874727 96.201578 
L 263.874727 95.927479 
L 264.372248 95.927479 
L 264.372248 95.65338 
L 264.571257 95.65338 
L 264.571257 95.379281 
L 264.770265 95.379281 
L 264.86977 94.831082 
L 265.168282 94.831082 
L 265.168282 94.556983 
L 265.864812 94.556983 
L 265.864812 94.008784 
L 266.362333 94.008784 
L 266.362333 93.734685 
L 267.257872 93.734685 
L 267.257872 93.460586 
L 270.641017 93.460586 
L 270.740521 92.09009 
L 271.138538 92.09009 
L 271.138538 91.81599 
L 271.437051 91.81599 
L 271.437051 91.541891 
L 271.934572 91.541891 
L 271.934572 90.993693 
L 274.22317 90.993693 
L 274.22317 90.719593 
L 274.422179 90.719593 
L 274.521683 90.171395 
L 275.019204 90.171395 
L 275.019204 89.349097 
L 275.61623 89.349097 
L 275.61623 89.074998 
L 276.113751 89.074998 
L 276.113751 88.800899 
L 276.412264 88.800899 
L 276.412264 88.526799 
L 277.506811 88.526799 
L 277.506811 88.2527 
L 278.501853 88.2527 
L 278.501853 87.978601 
L 279.795409 87.978601 
L 279.795409 87.704502 
L 280.093922 87.704502 
L 280.093922 87.430402 
L 280.29293 87.430402 
L 280.392434 86.608105 
L 281.188469 86.608105 
L 281.188469 86.334005 
L 282.38252 86.334005 
L 282.38252 86.059906 
L 282.581528 86.059906 
L 282.581528 85.785807 
L 283.178554 85.785807 
L 283.178554 85.511708 
L 283.477067 85.511708 
L 283.477067 85.237608 
L 284.273101 85.237608 
L 284.372605 84.68941 
L 286.263186 84.68941 
L 286.263186 84.415311 
L 286.959716 84.415311 
L 286.959716 84.141211 
L 288.949801 84.141211 
L 288.949801 83.867112 
L 289.546827 83.867112 
L 289.546827 83.593013 
L 291.934929 83.593013 
L 291.934929 83.318914 
L 292.332946 83.318914 
L 292.332946 82.770715 
L 293.925014 82.770715 
L 293.925014 82.496616 
L 294.124023 82.496616 
L 294.124023 81.948417 
L 294.820552 81.948417 
L 294.820552 81.674318 
L 295.517082 81.674318 
L 295.517082 81.400219 
L 295.616586 81.400219 
L 296.611629 81.400219 
L 296.611629 80.577921 
L 299.099236 80.577921 
L 299.099236 80.303822 
L 301.387834 80.303822 
L 301.387834 80.029723 
L 302.681389 80.029723 
L 302.780893 79.481524 
L 302.880398 79.481524 
L 302.880398 79.207425 
L 304.671474 79.207425 
L 304.770979 78.385127 
L 304.969987 78.385127 
L 304.969987 77.836929 
L 305.368004 77.836929 
L 305.368004 77.562829 
L 305.96503 77.562829 
L 305.96503 77.28873 
L 306.363047 77.28873 
L 306.363047 77.014631 
L 306.562055 77.014631 
L 306.66156 76.466432 
L 307.855611 76.466432 
L 307.855611 76.192333 
L 308.452636 76.192333 
L 308.552141 75.644135 
L 308.751149 75.644135 
L 308.850653 75.095936 
L 309.049662 75.095936 
L 309.049662 74.821837 
L 311.537268 74.821837 
L 311.537268 74.547738 
L 315.716447 74.547738 
L 315.716447 74.273638 
L 316.213969 74.273638 
L 316.213969 73.999539 
L 317.010003 73.999539 
L 317.010003 73.45134 
L 318.005045 73.45134 
L 318.005045 73.177241 
L 318.403062 73.177241 
L 318.403062 72.903142 
L 318.80108 72.903142 
L 318.80108 72.629043 
L 321.686703 72.629043 
L 321.686703 72.354943 
L 322.582241 72.354943 
L 322.582241 72.080844 
L 326.363403 72.080844 
L 326.363403 71.532646 
L 326.562412 71.532646 
L 326.661916 70.436249 
L 326.76142 70.436249 
L 326.76142 70.162149 
L 327.059933 70.162149 
L 327.059933 69.88805 
L 329.050019 69.88805 
L 329.050019 69.613951 
L 330.144565 69.613951 
L 330.24407 69.339852 
L 330.741591 69.339852 
L 330.741591 69.065752 
L 331.637129 69.065752 
L 331.637129 68.791653 
L 331.836138 68.791653 
L 331.836138 68.517554 
L 336.512838 68.517554 
L 336.512838 68.243455 
L 339.796479 68.243455 
L 339.796479 67.969355 
L 342.085077 67.969355 
L 342.085077 67.421157 
L 343.577641 67.421157 
L 343.577641 67.147058 
L 344.075162 67.147058 
L 344.174666 66.598859 
L 344.771692 66.598859 
L 344.771692 66.32476 
L 345.269213 66.32476 
L 345.368717 65.776561 
L 345.468222 65.776561 
L 345.468222 65.502462 
L 345.965743 65.502462 
L 346.065247 65.228363 
L 348.950871 65.228363 
L 349.050375 64.680164 
L 349.746905 64.680164 
L 349.746905 64.406065 
L 349.846409 64.406065 
L 351.139965 64.406065 
L 351.139965 64.131966 
L 352.632529 64.131966 
L 352.632529 63.857867 
L 353.727075 63.857867 
L 353.727075 63.583767 
L 354.324101 63.583767 
L 354.324101 63.309668 
L 354.821622 63.309668 
L 354.821622 63.035569 
L 361.587912 63.035569 
L 361.687416 62.76147 
L 363.378989 62.76147 
L 363.478493 62.48737 
L 363.677502 62.48737 
L 363.677502 62.213271 
L 363.777006 62.213271 
L 363.87651 61.939172 
L 365.26957 61.939172 
L 365.26957 61.665073 
L 367.259655 61.665073 
L 367.259655 61.390973 
L 372.135364 61.390973 
L 372.135364 61.116874 
L 378.205124 61.116874 
L 378.205124 60.842775 
L 378.702645 60.842775 
L 378.802149 60.568676 
L 380.195209 60.568676 
L 380.195209 60.294576 
L 382.284799 60.294576 
L 382.284799 59.746378 
L 383.180337 59.746378 
L 383.180337 59.472279 
L 385.070918 59.472279 
L 385.070918 59.198179 
L 387.061003 59.198179 
L 387.061003 58.92408 
L 389.349601 58.92408 
L 389.349601 58.649981 
L 391.936712 58.649981 
L 391.936712 58.375882 
L 392.235225 58.375882 
L 392.235225 58.101782 
L 395.419361 58.101782 
L 395.419361 57.827683 
L 396.215395 57.827683 
L 396.215395 57.553584 
L 397.309942 57.553584 
L 397.309942 57.279485 
L 400.195566 57.279485 
L 400.195566 57.005385 
L 403.081189 57.005385 
L 403.081189 56.731286 
L 406.961856 56.731286 
L 406.961856 56.457187 
L 407.359873 56.457187 
L 407.359873 55.908988 
L 408.056402 55.908988 
L 408.056402 55.634889 
L 408.354915 55.634889 
L 408.354915 55.36079 
L 408.951941 55.36079 
L 408.951941 55.086691 
L 409.051445 55.086691 
L 409.150949 54.812591 
L 409.946983 54.812591 
L 409.946983 54.538492 
L 410.544009 54.538492 
L 410.544009 54.264393 
L 411.937069 54.264393 
L 411.937069 53.990294 
L 413.330128 53.990294 
L 413.330128 53.716194 
L 414.026658 53.716194 
L 414.026658 53.442095 
L 414.126162 53.442095 
L 418.404846 53.442095 
L 418.404846 53.167996 
L 422.186008 53.167996 
L 422.186008 52.893897 
L 423.081546 52.893897 
L 423.081546 52.619797 
L 424.673614 52.619797 
L 424.673614 52.345698 
L 432.235938 52.345698 
L 432.235938 52.071599 
L 441.290826 52.071599 
L 441.290826 51.7975 
L 444.375458 51.7975 
L 444.474962 51.5234 
L 444.972484 51.5234 
L 444.972484 51.249301 
L 445.967526 51.249301 
L 445.967526 50.975202 
L 448.455133 50.975202 
L 448.455133 50.701103 
L 448.952654 50.701103 
L 448.952654 50.427003 
L 449.251167 50.427003 
L 449.251167 50.152904 
L 451.639269 50.152904 
L 451.639269 49.878805 
L 460.395644 49.878805 
L 460.395644 49.604706 
L 465.271353 49.604706 
L 465.271353 49.330606 
L 470.943096 49.330606 
L 470.943096 49.056507 
L 472.037643 49.056507 
L 472.037643 48.782408 
L 477.11236 48.782408 
L 477.11236 48.508309 
L 477.908394 48.508309 
L 477.908394 48.234209 
L 481.391044 48.234209 
L 481.391044 47.96011 
L 482.187078 47.96011 
L 482.187078 47.686011 
L 485.96824 47.686011 
L 486.067744 47.411912 
L 488.157333 47.411912 
L 488.157333 47.137812 
L 490.047914 47.137812 
L 490.047914 46.863713 
L 490.246923 46.863713 
L 490.346427 46.589614 
L 499.202306 46.589614 
L 499.202306 46.315515 
L 503.48099 46.315515 
L 503.48099 46.041415 
L 505.073058 46.041415 
L 505.073058 45.767316 
L 505.172562 45.767316 
L 509.252237 45.767316 
L 509.252237 45.493217 
L 509.849262 45.493217 
L 509.849262 45.219118 
L 511.739843 45.219118 
L 511.839348 44.945018 
L 541.989139 44.945018 
L 541.989139 44.670919 
L 546.068814 44.670919 
L 546.068814 44.39682 
L 551.143531 44.39682 
L 551.143531 44.122721 
L 553.432129 44.122721 
L 553.531633 43.848621 
L 553.92965 43.848621 
L 553.92965 43.574522 
L 573.53199 43.574522 
L 573.53199 43.300423 
L 574.825545 43.300423 
L 574.825545 42.752224 
L 575.223562 42.752224 
L 575.223562 42.478125 
L 576.417614 42.478125 
L 576.417614 42.478125 
" clip-path="url(#p8ec00aabc4)" style="fill: none; stroke: #ff7f0e; stroke-width: 1.5; stroke-linecap: square"/>
   </g>
   <g id="line2d_15">
    <path d="M 69.144886 445.678125 
L 576.417614 42.478125 
" clip-path="url(#p8ec00aabc4)" style="fill: none; stroke-dasharray: 5.55,2.4; stroke-dashoffset: 0; stroke: #ff0000; stroke-width: 1.5"/>
   </g>
   <g id="patch_3">
    <path d="M 43.78125 465.838125 
L 43.78125 22.318125 
" style="fill: none; stroke: #000000; stroke-width: 0.8; stroke-linejoin: miter; stroke-linecap: square"/>
   </g>
   <g id="patch_4">
    <path d="M 601.78125 465.838125 
L 601.78125 22.318125 
" style="fill: none; stroke: #000000; stroke-width: 0.8; stroke-linejoin: miter; stroke-linecap: square"/>
   </g>
   <g id="patch_5">
    <path d="M 43.78125 465.838125 
L 601.78125 465.838125 
" style="fill: none; stroke: #000000; stroke-width: 0.8; stroke-linejoin: miter; stroke-linecap: square"/>
   </g>
   <g id="patch_6">
    <path d="M 43.78125 22.318125 
L 601.78125 22.318125 
" style="fill: none; stroke: #000000; stroke-width: 0.8; stroke-linejoin: miter; stroke-linecap: square"/>
   </g>
   <g id="text_15">
    <!-- AUC ROC for Outcomes with 8 Variables -->
    <g transform="translate(202.846875 16.318125) scale(0.12 -0.12)">
     <defs>
      <path id="DejaVuSans-41" d="M 2188 4044 
L 1331 1722 
L 3047 1722 
L 2188 4044 
z
M 1831 4666 
L 2547 4666 
L 4325 0 
L 3669 0 
L 3244 1197 
L 1141 1197 
L 716 0 
L 50 0 
L 1831 4666 
z
" transform="scale(0.015625)"/>
      <path id="DejaVuSans-55" d="M 556 4666 
L 1191 4666 
L 1191 1831 
Q 1191 1081 1462 751 
Q 1734 422 2344 422 
Q 2950 422 3222 751 
Q 3494 1081 3494 1831 
L 3494 4666 
L 4128 4666 
L 4128 1753 
Q 4128 841 3676 375 
Q 3225 -91 2344 -91 
Q 1459 -91 1007 375 
Q 556 841 556 1753 
L 556 4666 
z
" transform="scale(0.015625)"/>
      <path id="DejaVuSans-43" d="M 4122 4306 
L 4122 3641 
Q 3803 3938 3442 4084 
Q 3081 4231 2675 4231 
Q 1875 4231 1450 3742 
Q 1025 3253 1025 2328 
Q 1025 1406 1450 917 
Q 1875 428 2675 428 
Q 3081 428 3442 575 
Q 3803 722 4122 1019 
L 4122 359 
Q 3791 134 3420 21 
Q 3050 -91 2638 -91 
Q 1578 -91 968 557 
Q 359 1206 359 2328 
Q 359 3453 968 4101 
Q 1578 4750 2638 4750 
Q 3056 4750 3426 4639 
Q 3797 4528 4122 4306 
z
" transform="scale(0.015625)"/>
      <path id="DejaVuSans-52" d="M 2841 2188 
Q 3044 2119 3236 1894 
Q 3428 1669 3622 1275 
L 4263 0 
L 3584 0 
L 2988 1197 
Q 2756 1666 2539 1819 
Q 2322 1972 1947 1972 
L 1259 1972 
L 1259 0 
L 628 0 
L 628 4666 
L 2053 4666 
Q 2853 4666 3247 4331 
Q 3641 3997 3641 3322 
Q 3641 2881 3436 2590 
Q 3231 2300 2841 2188 
z
M 1259 4147 
L 1259 2491 
L 2053 2491 
Q 2509 2491 2742 2702 
Q 2975 2913 2975 3322 
Q 2975 3731 2742 3939 
Q 2509 4147 2053 4147 
L 1259 4147 
z
" transform="scale(0.015625)"/>
      <path id="DejaVuSans-4f" d="M 2522 4238 
Q 1834 4238 1429 3725 
Q 1025 3213 1025 2328 
Q 1025 1447 1429 934 
Q 1834 422 2522 422 
Q 3209 422 3611 934 
Q 4013 1447 4013 2328 
Q 4013 3213 3611 3725 
Q 3209 4238 2522 4238 
z
M 2522 4750 
Q 3503 4750 4090 4092 
Q 4678 3434 4678 2328 
Q 4678 1225 4090 567 
Q 3503 -91 2522 -91 
Q 1538 -91 948 565 
Q 359 1222 359 2328 
Q 359 3434 948 4092 
Q 1538 4750 2522 4750 
z
" transform="scale(0.015625)"/>
      <path id="DejaVuSans-6f" d="M 1959 3097 
Q 1497 3097 1228 2736 
Q 959 2375 959 1747 
Q 959 1119 1226 758 
Q 1494 397 1959 397 
Q 2419 397 2687 759 
Q 2956 1122 2956 1747 
Q 2956 2369 2687 2733 
Q 2419 3097 1959 3097 
z
M 1959 3584 
Q 2709 3584 3137 3096 
Q 3566 2609 3566 1747 
Q 3566 888 3137 398 
Q 2709 -91 1959 -91 
Q 1206 -91 779 398 
Q 353 888 353 1747 
Q 353 2609 779 3096 
Q 1206 3584 1959 3584 
z
" transform="scale(0.015625)"/>
      <path id="DejaVuSans-72" d="M 2631 2963 
Q 2534 3019 2420 3045 
Q 2306 3072 2169 3072 
Q 1681 3072 1420 2755 
Q 1159 2438 1159 1844 
L 1159 0 
L 581 0 
L 581 3500 
L 1159 3500 
L 1159 2956 
Q 1341 3275 1631 3429 
Q 1922 3584 2338 3584 
Q 2397 3584 2469 3576 
Q 2541 3569 2628 3553 
L 2631 2963 
z
" transform="scale(0.015625)"/>
      <path id="DejaVuSans-75" d="M 544 1381 
L 544 3500 
L 1119 3500 
L 1119 1403 
Q 1119 906 1312 657 
Q 1506 409 1894 409 
Q 2359 409 2629 706 
Q 2900 1003 2900 1516 
L 2900 3500 
L 3475 3500 
L 3475 0 
L 2900 0 
L 2900 538 
Q 2691 219 2414 64 
Q 2138 -91 1772 -91 
Q 1169 -91 856 284 
Q 544 659 544 1381 
z
M 1991 3584 
L 1991 3584 
z
" transform="scale(0.015625)"/>
      <path id="DejaVuSans-6d" d="M 3328 2828 
Q 3544 3216 3844 3400 
Q 4144 3584 4550 3584 
Q 5097 3584 5394 3201 
Q 5691 2819 5691 2113 
L 5691 0 
L 5113 0 
L 5113 2094 
Q 5113 2597 4934 2840 
Q 4756 3084 4391 3084 
Q 3944 3084 3684 2787 
Q 3425 2491 3425 1978 
L 3425 0 
L 2847 0 
L 2847 2094 
Q 2847 2600 2669 2842 
Q 2491 3084 2119 3084 
Q 1678 3084 1418 2786 
Q 1159 2488 1159 1978 
L 1159 0 
L 581 0 
L 581 3500 
L 1159 3500 
L 1159 2956 
Q 1356 3278 1631 3431 
Q 1906 3584 2284 3584 
Q 2666 3584 2933 3390 
Q 3200 3197 3328 2828 
z
" transform="scale(0.015625)"/>
      <path id="DejaVuSans-77" d="M 269 3500 
L 844 3500 
L 1563 769 
L 2278 3500 
L 2956 3500 
L 3675 769 
L 4391 3500 
L 4966 3500 
L 4050 0 
L 3372 0 
L 2619 2869 
L 1863 0 
L 1184 0 
L 269 3500 
z
" transform="scale(0.015625)"/>
      <path id="DejaVuSans-68" d="M 3513 2113 
L 3513 0 
L 2938 0 
L 2938 2094 
Q 2938 2591 2744 2837 
Q 2550 3084 2163 3084 
Q 1697 3084 1428 2787 
Q 1159 2491 1159 1978 
L 1159 0 
L 581 0 
L 581 4863 
L 1159 4863 
L 1159 2956 
Q 1366 3272 1645 3428 
Q 1925 3584 2291 3584 
Q 2894 3584 3203 3211 
Q 3513 2838 3513 2113 
z
" transform="scale(0.015625)"/>
      <path id="DejaVuSans-56" d="M 1831 0 
L 50 4666 
L 709 4666 
L 2188 738 
L 3669 4666 
L 4325 4666 
L 2547 0 
L 1831 0 
z
" transform="scale(0.015625)"/>
      <path id="DejaVuSans-61" d="M 2194 1759 
Q 1497 1759 1228 1600 
Q 959 1441 959 1056 
Q 959 750 1161 570 
Q 1363 391 1709 391 
Q 2188 391 2477 730 
Q 2766 1069 2766 1631 
L 2766 1759 
L 2194 1759 
z
M 3341 1997 
L 3341 0 
L 2766 0 
L 2766 531 
Q 2569 213 2275 61 
Q 1981 -91 1556 -91 
Q 1019 -91 701 211 
Q 384 513 384 1019 
Q 384 1609 779 1909 
Q 1175 2209 1959 2209 
L 2766 2209 
L 2766 2266 
Q 2766 2663 2505 2880 
Q 2244 3097 1772 3097 
Q 1472 3097 1187 3025 
Q 903 2953 641 2809 
L 641 3341 
Q 956 3463 1253 3523 
Q 1550 3584 1831 3584 
Q 2591 3584 2966 3190 
Q 3341 2797 3341 1997 
z
" transform="scale(0.015625)"/>
      <path id="DejaVuSans-62" d="M 3116 1747 
Q 3116 2381 2855 2742 
Q 2594 3103 2138 3103 
Q 1681 3103 1420 2742 
Q 1159 2381 1159 1747 
Q 1159 1113 1420 752 
Q 1681 391 2138 391 
Q 2594 391 2855 752 
Q 3116 1113 3116 1747 
z
M 1159 2969 
Q 1341 3281 1617 3432 
Q 1894 3584 2278 3584 
Q 2916 3584 3314 3078 
Q 3713 2572 3713 1747 
Q 3713 922 3314 415 
Q 2916 -91 2278 -91 
Q 1894 -91 1617 61 
Q 1341 213 1159 525 
L 1159 0 
L 581 0 
L 581 4863 
L 1159 4863 
L 1159 2969 
z
" transform="scale(0.015625)"/>
      <path id="DejaVuSans-6c" d="M 603 4863 
L 1178 4863 
L 1178 0 
L 603 0 
L 603 4863 
z
" transform="scale(0.015625)"/>
     </defs>
     <use xlink:href="#DejaVuSans-41"/>
     <use xlink:href="#DejaVuSans-55" x="68.408203"/>
     <use xlink:href="#DejaVuSans-43" x="141.601562"/>
     <use xlink:href="#DejaVuSans-20" x="211.425781"/>
     <use xlink:href="#DejaVuSans-52" x="243.212891"/>
     <use xlink:href="#DejaVuSans-4f" x="312.695312"/>
     <use xlink:href="#DejaVuSans-43" x="391.40625"/>
     <use xlink:href="#DejaVuSans-20" x="461.230469"/>
     <use xlink:href="#DejaVuSans-66" x="493.017578"/>
     <use xlink:href="#DejaVuSans-6f" x="528.222656"/>
     <use xlink:href="#DejaVuSans-72" x="589.404297"/>
     <use xlink:href="#DejaVuSans-20" x="630.517578"/>
     <use xlink:href="#DejaVuSans-4f" x="662.304688"/>
     <use xlink:href="#DejaVuSans-75" x="741.015625"/>
     <use xlink:href="#DejaVuSans-74" x="804.394531"/>
     <use xlink:href="#DejaVuSans-63" x="843.603516"/>
     <use xlink:href="#DejaVuSans-6f" x="898.583984"/>
     <use xlink:href="#DejaVuSans-6d" x="959.765625"/>
     <use xlink:href="#DejaVuSans-65" x="1057.177734"/>
     <use xlink:href="#DejaVuSans-73" x="1118.701172"/>
     <use xlink:href="#DejaVuSans-20" x="1170.800781"/>
     <use xlink:href="#DejaVuSans-77" x="1202.587891"/>
     <use xlink:href="#DejaVuSans-69" x="1284.375"/>
     <use xlink:href="#DejaVuSans-74" x="1312.158203"/>
     <use xlink:href="#DejaVuSans-68" x="1351.367188"/>
     <use xlink:href="#DejaVuSans-20" x="1414.746094"/>
     <use xlink:href="#DejaVuSans-38" x="1446.533203"/>
     <use xlink:href="#DejaVuSans-20" x="1510.15625"/>
     <use xlink:href="#DejaVuSans-56" x="1541.943359"/>
     <use xlink:href="#DejaVuSans-61" x="1602.601562"/>
     <use xlink:href="#DejaVuSans-72" x="1663.880859"/>
     <use xlink:href="#DejaVuSans-69" x="1704.994141"/>
     <use xlink:href="#DejaVuSans-61" x="1732.777344"/>
     <use xlink:href="#DejaVuSans-62" x="1794.056641"/>
     <use xlink:href="#DejaVuSans-6c" x="1857.533203"/>
     <use xlink:href="#DejaVuSans-65" x="1885.316406"/>
     <use xlink:href="#DejaVuSans-73" x="1946.839844"/>
    </g>
   </g>
   <g id="legend_1">
    <g id="patch_7">
     <path d="M 50.78125 59.674375 
L 284.307813 59.674375 
Q 286.307813 59.674375 286.307813 57.674375 
L 286.307813 29.318125 
Q 286.307813 27.318125 284.307813 27.318125 
L 50.78125 27.318125 
Q 48.78125 27.318125 48.78125 29.318125 
L 48.78125 57.674375 
Q 48.78125 59.674375 50.78125 59.674375 
z
" style="fill: #ffffff; opacity: 0.8; stroke: #cccccc; stroke-linejoin: miter"/>
    </g>
    <g id="line2d_16">
     <path d="M 52.78125 35.416562 
L 62.78125 35.416562 
L 72.78125 35.416562 
" style="fill: none; stroke: #1f77b4; stroke-width: 1.5; stroke-linecap: square"/>
    </g>
    <g id="text_16">
     <!-- 8-variable 2-year outcome (AUC = 0.87) -->
     <g transform="translate(80.78125 38.916562) scale(0.1 -0.1)">
      <defs>
       <path id="DejaVuSans-28" d="M 1984 4856 
Q 1566 4138 1362 3434 
Q 1159 2731 1159 2009 
Q 1159 1288 1364 580 
Q 1569 -128 1984 -844 
L 1484 -844 
Q 1016 -109 783 600 
Q 550 1309 550 2009 
Q 550 2706 781 3412 
Q 1013 4119 1484 4856 
L 1984 4856 
z
" transform="scale(0.015625)"/>
       <path id="DejaVuSans-3d" d="M 678 2906 
L 4684 2906 
L 4684 2381 
L 678 2381 
L 678 2906 
z
M 678 1631 
L 4684 1631 
L 4684 1100 
L 678 1100 
L 678 1631 
z
" transform="scale(0.015625)"/>
       <path id="DejaVuSans-37" d="M 525 4666 
L 3525 4666 
L 3525 4397 
L 1831 0 
L 1172 0 
L 2766 4134 
L 525 4134 
L 525 4666 
z
" transform="scale(0.015625)"/>
       <path id="DejaVuSans-29" d="M 513 4856 
L 1013 4856 
Q 1481 4119 1714 3412 
Q 1947 2706 1947 2009 
Q 1947 1309 1714 600 
Q 1481 -109 1013 -844 
L 513 -844 
Q 928 -128 1133 580 
Q 1338 1288 1338 2009 
Q 1338 2731 1133 3434 
Q 928 4138 513 4856 
z
" transform="scale(0.015625)"/>
      </defs>
      <use xlink:href="#DejaVuSans-38"/>
      <use xlink:href="#DejaVuSans-2d" x="63.623047"/>
      <use xlink:href="#DejaVuSans-76" x="97.082031"/>
      <use xlink:href="#DejaVuSans-61" x="156.261719"/>
      <use xlink:href="#DejaVuSans-72" x="217.541016"/>
      <use xlink:href="#DejaVuSans-69" x="258.654297"/>
      <use xlink:href="#DejaVuSans-61" x="286.4375"/>
      <use xlink:href="#DejaVuSans-62" x="347.716797"/>
      <use xlink:href="#DejaVuSans-6c" x="411.193359"/>
      <use xlink:href="#DejaVuSans-65" x="438.976562"/>
      <use xlink:href="#DejaVuSans-20" x="500.5"/>
      <use xlink:href="#DejaVuSans-32" x="532.287109"/>
      <use xlink:href="#DejaVuSans-2d" x="595.910156"/>
      <use xlink:href="#DejaVuSans-79" x="630.244141"/>
      <use xlink:href="#DejaVuSans-65" x="689.423828"/>
      <use xlink:href="#DejaVuSans-61" x="750.947266"/>
      <use xlink:href="#DejaVuSans-72" x="812.226562"/>
      <use xlink:href="#DejaVuSans-20" x="853.339844"/>
      <use xlink:href="#DejaVuSans-6f" x="885.126953"/>
      <use xlink:href="#DejaVuSans-75" x="946.308594"/>
      <use xlink:href="#DejaVuSans-74" x="1009.6875"/>
      <use xlink:href="#DejaVuSans-63" x="1048.896484"/>
      <use xlink:href="#DejaVuSans-6f" x="1103.876953"/>
      <use xlink:href="#DejaVuSans-6d" x="1165.058594"/>
      <use xlink:href="#DejaVuSans-65" x="1262.470703"/>
      <use xlink:href="#DejaVuSans-20" x="1323.994141"/>
      <use xlink:href="#DejaVuSans-28" x="1355.78125"/>
      <use xlink:href="#DejaVuSans-41" x="1394.794922"/>
      <use xlink:href="#DejaVuSans-55" x="1463.203125"/>
      <use xlink:href="#DejaVuSans-43" x="1536.396484"/>
      <use xlink:href="#DejaVuSans-20" x="1606.220703"/>
      <use xlink:href="#DejaVuSans-3d" x="1638.007812"/>
      <use xlink:href="#DejaVuSans-20" x="1721.796875"/>
      <use xlink:href="#DejaVuSans-30" x="1753.583984"/>
      <use xlink:href="#DejaVuSans-2e" x="1817.207031"/>
      <use xlink:href="#DejaVuSans-38" x="1848.994141"/>
      <use xlink:href="#DejaVuSans-37" x="1912.617188"/>
      <use xlink:href="#DejaVuSans-29" x="1976.240234"/>
     </g>
    </g>
    <g id="line2d_17">
     <path d="M 52.78125 50.094687 
L 62.78125 50.094687 
L 72.78125 50.094687 
" style="fill: none; stroke: #ff7f0e; stroke-width: 1.5; stroke-linecap: square"/>
    </g>
    <g id="text_17">
     <!-- 8-variable 5-year outcome (AUC = 0.84) -->
     <g transform="translate(80.78125 53.594687) scale(0.1 -0.1)">
      <defs>
       <path id="DejaVuSans-35" d="M 691 4666 
L 3169 4666 
L 3169 4134 
L 1269 4134 
L 1269 2991 
Q 1406 3038 1543 3061 
Q 1681 3084 1819 3084 
Q 2600 3084 3056 2656 
Q 3513 2228 3513 1497 
Q 3513 744 3044 326 
Q 2575 -91 1722 -91 
Q 1428 -91 1123 -41 
Q 819 9 494 109 
L 494 744 
Q 775 591 1075 516 
Q 1375 441 1709 441 
Q 2250 441 2565 725 
Q 2881 1009 2881 1497 
Q 2881 1984 2565 2268 
Q 2250 2553 1709 2553 
Q 1456 2553 1204 2497 
Q 953 2441 691 2322 
L 691 4666 
z
" transform="scale(0.015625)"/>
      </defs>
      <use xlink:href="#DejaVuSans-38"/>
      <use xlink:href="#DejaVuSans-2d" x="63.623047"/>
      <use xlink:href="#DejaVuSans-76" x="97.082031"/>
      <use xlink:href="#DejaVuSans-61" x="156.261719"/>
      <use xlink:href="#DejaVuSans-72" x="217.541016"/>
      <use xlink:href="#DejaVuSans-69" x="258.654297"/>
      <use xlink:href="#DejaVuSans-61" x="286.4375"/>
      <use xlink:href="#DejaVuSans-62" x="347.716797"/>
      <use xlink:href="#DejaVuSans-6c" x="411.193359"/>
      <use xlink:href="#DejaVuSans-65" x="438.976562"/>
      <use xlink:href="#DejaVuSans-20" x="500.5"/>
      <use xlink:href="#DejaVuSans-35" x="532.287109"/>
      <use xlink:href="#DejaVuSans-2d" x="595.910156"/>
      <use xlink:href="#DejaVuSans-79" x="630.244141"/>
      <use xlink:href="#DejaVuSans-65" x="689.423828"/>
      <use xlink:href="#DejaVuSans-61" x="750.947266"/>
      <use xlink:href="#DejaVuSans-72" x="812.226562"/>
      <use xlink:href="#DejaVuSans-20" x="853.339844"/>
      <use xlink:href="#DejaVuSans-6f" x="885.126953"/>
      <use xlink:href="#DejaVuSans-75" x="946.308594"/>
      <use xlink:href="#DejaVuSans-74" x="1009.6875"/>
      <use xlink:href="#DejaVuSans-63" x="1048.896484"/>
      <use xlink:href="#DejaVuSans-6f" x="1103.876953"/>
      <use xlink:href="#DejaVuSans-6d" x="1165.058594"/>
      <use xlink:href="#DejaVuSans-65" x="1262.470703"/>
      <use xlink:href="#DejaVuSans-20" x="1323.994141"/>
      <use xlink:href="#DejaVuSans-28" x="1355.78125"/>
      <use xlink:href="#DejaVuSans-41" x="1394.794922"/>
      <use xlink:href="#DejaVuSans-55" x="1463.203125"/>
      <use xlink:href="#DejaVuSans-43" x="1536.396484"/>
      <use xlink:href="#DejaVuSans-20" x="1606.220703"/>
      <use xlink:href="#DejaVuSans-3d" x="1638.007812"/>
      <use xlink:href="#DejaVuSans-20" x="1721.796875"/>
      <use xlink:href="#DejaVuSans-30" x="1753.583984"/>
      <use xlink:href="#DejaVuSans-2e" x="1817.207031"/>
      <use xlink:href="#DejaVuSans-38" x="1848.994141"/>
      <use xlink:href="#DejaVuSans-34" x="1912.617188"/>
      <use xlink:href="#DejaVuSans-29" x="1976.240234"/>
     </g>
    </g>
   </g>
  </g>
 </g>
 <defs>
  <clipPath id="p8ec00aabc4">
   <rect x="43.78125" y="22.318125" width="558" height="443.52"/>
  </clipPath>
 </defs>
</svg>
