<?xml version="1.0" encoding="utf-8" standalone="no"?>
<!DOCTYPE svg PUBLIC "-//W3C//DTD SVG 1.1//EN"
  "http://www.w3.org/Graphics/SVG/1.1/DTD/svg11.dtd">
<svg xmlns:xlink="http://www.w3.org/1999/xlink" width="608.98125pt" height="503.394375pt" viewBox="0 0 608.98125 503.394375" xmlns="http://www.w3.org/2000/svg" version="1.1">
 <metadata>
  <rdf:RDF xmlns:dc="http://purl.org/dc/elements/1.1/" xmlns:cc="http://creativecommons.org/ns#" xmlns:rdf="http://www.w3.org/1999/02/22-rdf-syntax-ns#">
   <cc:Work>
    <dc:type rdf:resource="http://purl.org/dc/dcmitype/StillImage"/>
    <dc:date>2024-07-20T22:17:22.387901</dc:date>
    <dc:format>image/svg+xml</dc:format>
    <dc:creator>
     <cc:Agent>
      <dc:title>Matplotlib v3.9.0, https://matplotlib.org/</dc:title>
     </cc:Agent>
    </dc:creator>
   </cc:Work>
  </rdf:RDF>
 </metadata>
 <defs>
  <style type="text/css">*{stroke-linejoin: round; stroke-linecap: butt}</style>
 </defs>
 <g id="figure_1">
  <g id="patch_1">
   <path d="M 0 503.394375 
L 608.98125 503.394375 
L 608.98125 0 
L 0 0 
z
" style="fill: #ffffff"/>
  </g>
  <g id="axes_1">
   <g id="patch_2">
    <path d="M 43.78125 465.838125 
L 601.78125 465.838125 
L 601.78125 22.318125 
L 43.78125 22.318125 
z
" style="fill: #ffffff"/>
   </g>
   <g id="matplotlib.axis_1">
    <g id="xtick_1">
     <g id="line2d_1">
      <defs>
       <path id="mdc46d21eaf" d="M 0 0 
L 0 3.5 
" style="stroke: #000000; stroke-width: 0.8"/>
      </defs>
      <g>
       <use xlink:href="#mdc46d21eaf" x="69.144886" y="465.838125" style="stroke: #000000; stroke-width: 0.8"/>
      </g>
     </g>
     <g id="text_1">
      <!-- 0.0 -->
      <g transform="translate(61.193324 480.436562) scale(0.1 -0.1)">
       <defs>
        <path id="DejaVuSans-30" d="M 2034 4250 
Q 1547 4250 1301 3770 
Q 1056 3291 1056 2328 
Q 1056 1369 1301 889 
Q 1547 409 2034 409 
Q 2525 409 2770 889 
Q 3016 1369 3016 2328 
Q 3016 3291 2770 3770 
Q 2525 4250 2034 4250 
z
M 2034 4750 
Q 2819 4750 3233 4129 
Q 3647 3509 3647 2328 
Q 3647 1150 3233 529 
Q 2819 -91 2034 -91 
Q 1250 -91 836 529 
Q 422 1150 422 2328 
Q 422 3509 836 4129 
Q 1250 4750 2034 4750 
z
" transform="scale(0.015625)"/>
        <path id="DejaVuSans-2e" d="M 684 794 
L 1344 794 
L 1344 0 
L 684 0 
L 684 794 
z
" transform="scale(0.015625)"/>
       </defs>
       <use xlink:href="#DejaVuSans-30"/>
       <use xlink:href="#DejaVuSans-2e" x="63.623047"/>
       <use xlink:href="#DejaVuSans-30" x="95.410156"/>
      </g>
     </g>
    </g>
    <g id="xtick_2">
     <g id="line2d_2">
      <g>
       <use xlink:href="#mdc46d21eaf" x="170.599432" y="465.838125" style="stroke: #000000; stroke-width: 0.8"/>
      </g>
     </g>
     <g id="text_2">
      <!-- 0.2 -->
      <g transform="translate(162.647869 480.436562) scale(0.1 -0.1)">
       <defs>
        <path id="DejaVuSans-32" d="M 1228 531 
L 3431 531 
L 3431 0 
L 469 0 
L 469 531 
Q 828 903 1448 1529 
Q 2069 2156 2228 2338 
Q 2531 2678 2651 2914 
Q 2772 3150 2772 3378 
Q 2772 3750 2511 3984 
Q 2250 4219 1831 4219 
Q 1534 4219 1204 4116 
Q 875 4013 500 3803 
L 500 4441 
Q 881 4594 1212 4672 
Q 1544 4750 1819 4750 
Q 2544 4750 2975 4387 
Q 3406 4025 3406 3419 
Q 3406 3131 3298 2873 
Q 3191 2616 2906 2266 
Q 2828 2175 2409 1742 
Q 1991 1309 1228 531 
z
" transform="scale(0.015625)"/>
       </defs>
       <use xlink:href="#DejaVuSans-30"/>
       <use xlink:href="#DejaVuSans-2e" x="63.623047"/>
       <use xlink:href="#DejaVuSans-32" x="95.410156"/>
      </g>
     </g>
    </g>
    <g id="xtick_3">
     <g id="line2d_3">
      <g>
       <use xlink:href="#mdc46d21eaf" x="272.053977" y="465.838125" style="stroke: #000000; stroke-width: 0.8"/>
      </g>
     </g>
     <g id="text_3">
      <!-- 0.4 -->
      <g transform="translate(264.102415 480.436562) scale(0.1 -0.1)">
       <defs>
        <path id="DejaVuSans-34" d="M 2419 4116 
L 825 1625 
L 2419 1625 
L 2419 4116 
z
M 2253 4666 
L 3047 4666 
L 3047 1625 
L 3713 1625 
L 3713 1100 
L 3047 1100 
L 3047 0 
L 2419 0 
L 2419 1100 
L 313 1100 
L 313 1709 
L 2253 4666 
z
" transform="scale(0.015625)"/>
       </defs>
       <use xlink:href="#DejaVuSans-30"/>
       <use xlink:href="#DejaVuSans-2e" x="63.623047"/>
       <use xlink:href="#DejaVuSans-34" x="95.410156"/>
      </g>
     </g>
    </g>
    <g id="xtick_4">
     <g id="line2d_4">
      <g>
       <use xlink:href="#mdc46d21eaf" x="373.508523" y="465.838125" style="stroke: #000000; stroke-width: 0.8"/>
      </g>
     </g>
     <g id="text_4">
      <!-- 0.6 -->
      <g transform="translate(365.55696 480.436562) scale(0.1 -0.1)">
       <defs>
        <path id="DejaVuSans-36" d="M 2113 2584 
Q 1688 2584 1439 2293 
Q 1191 2003 1191 1497 
Q 1191 994 1439 701 
Q 1688 409 2113 409 
Q 2538 409 2786 701 
Q 3034 994 3034 1497 
Q 3034 2003 2786 2293 
Q 2538 2584 2113 2584 
z
M 3366 4563 
L 3366 3988 
Q 3128 4100 2886 4159 
Q 2644 4219 2406 4219 
Q 1781 4219 1451 3797 
Q 1122 3375 1075 2522 
Q 1259 2794 1537 2939 
Q 1816 3084 2150 3084 
Q 2853 3084 3261 2657 
Q 3669 2231 3669 1497 
Q 3669 778 3244 343 
Q 2819 -91 2113 -91 
Q 1303 -91 875 529 
Q 447 1150 447 2328 
Q 447 3434 972 4092 
Q 1497 4750 2381 4750 
Q 2619 4750 2861 4703 
Q 3103 4656 3366 4563 
z
" transform="scale(0.015625)"/>
       </defs>
       <use xlink:href="#DejaVuSans-30"/>
       <use xlink:href="#DejaVuSans-2e" x="63.623047"/>
       <use xlink:href="#DejaVuSans-36" x="95.410156"/>
      </g>
     </g>
    </g>
    <g id="xtick_5">
     <g id="line2d_5">
      <g>
       <use xlink:href="#mdc46d21eaf" x="474.963068" y="465.838125" style="stroke: #000000; stroke-width: 0.8"/>
      </g>
     </g>
     <g id="text_5">
      <!-- 0.8 -->
      <g transform="translate(467.011506 480.436562) scale(0.1 -0.1)">
       <defs>
        <path id="DejaVuSans-38" d="M 2034 2216 
Q 1584 2216 1326 1975 
Q 1069 1734 1069 1313 
Q 1069 891 1326 650 
Q 1584 409 2034 409 
Q 2484 409 2743 651 
Q 3003 894 3003 1313 
Q 3003 1734 2745 1975 
Q 2488 2216 2034 2216 
z
M 1403 2484 
Q 997 2584 770 2862 
Q 544 3141 544 3541 
Q 544 4100 942 4425 
Q 1341 4750 2034 4750 
Q 2731 4750 3128 4425 
Q 3525 4100 3525 3541 
Q 3525 3141 3298 2862 
Q 3072 2584 2669 2484 
Q 3125 2378 3379 2068 
Q 3634 1759 3634 1313 
Q 3634 634 3220 271 
Q 2806 -91 2034 -91 
Q 1263 -91 848 271 
Q 434 634 434 1313 
Q 434 1759 690 2068 
Q 947 2378 1403 2484 
z
M 1172 3481 
Q 1172 3119 1398 2916 
Q 1625 2713 2034 2713 
Q 2441 2713 2670 2916 
Q 2900 3119 2900 3481 
Q 2900 3844 2670 4047 
Q 2441 4250 2034 4250 
Q 1625 4250 1398 4047 
Q 1172 3844 1172 3481 
z
" transform="scale(0.015625)"/>
       </defs>
       <use xlink:href="#DejaVuSans-30"/>
       <use xlink:href="#DejaVuSans-2e" x="63.623047"/>
       <use xlink:href="#DejaVuSans-38" x="95.410156"/>
      </g>
     </g>
    </g>
    <g id="xtick_6">
     <g id="line2d_6">
      <g>
       <use xlink:href="#mdc46d21eaf" x="576.417614" y="465.838125" style="stroke: #000000; stroke-width: 0.8"/>
      </g>
     </g>
     <g id="text_6">
      <!-- 1.0 -->
      <g transform="translate(568.466051 480.436562) scale(0.1 -0.1)">
       <defs>
        <path id="DejaVuSans-31" d="M 794 531 
L 1825 531 
L 1825 4091 
L 703 3866 
L 703 4441 
L 1819 4666 
L 2450 4666 
L 2450 531 
L 3481 531 
L 3481 0 
L 794 0 
L 794 531 
z
" transform="scale(0.015625)"/>
       </defs>
       <use xlink:href="#DejaVuSans-31"/>
       <use xlink:href="#DejaVuSans-2e" x="63.623047"/>
       <use xlink:href="#DejaVuSans-30" x="95.410156"/>
      </g>
     </g>
    </g>
    <g id="text_7">
     <!-- 1 - Specificity -->
     <g transform="translate(288.847656 494.114687) scale(0.1 -0.1)">
      <defs>
       <path id="DejaVuSans-20" transform="scale(0.015625)"/>
       <path id="DejaVuSans-2d" d="M 313 2009 
L 1997 2009 
L 1997 1497 
L 313 1497 
L 313 2009 
z
" transform="scale(0.015625)"/>
       <path id="DejaVuSans-53" d="M 3425 4513 
L 3425 3897 
Q 3066 4069 2747 4153 
Q 2428 4238 2131 4238 
Q 1616 4238 1336 4038 
Q 1056 3838 1056 3469 
Q 1056 3159 1242 3001 
Q 1428 2844 1947 2747 
L 2328 2669 
Q 3034 2534 3370 2195 
Q 3706 1856 3706 1288 
Q 3706 609 3251 259 
Q 2797 -91 1919 -91 
Q 1588 -91 1214 -16 
Q 841 59 441 206 
L 441 856 
Q 825 641 1194 531 
Q 1563 422 1919 422 
Q 2459 422 2753 634 
Q 3047 847 3047 1241 
Q 3047 1584 2836 1778 
Q 2625 1972 2144 2069 
L 1759 2144 
Q 1053 2284 737 2584 
Q 422 2884 422 3419 
Q 422 4038 858 4394 
Q 1294 4750 2059 4750 
Q 2388 4750 2728 4690 
Q 3069 4631 3425 4513 
z
" transform="scale(0.015625)"/>
       <path id="DejaVuSans-70" d="M 1159 525 
L 1159 -1331 
L 581 -1331 
L 581 3500 
L 1159 3500 
L 1159 2969 
Q 1341 3281 1617 3432 
Q 1894 3584 2278 3584 
Q 2916 3584 3314 3078 
Q 3713 2572 3713 1747 
Q 3713 922 3314 415 
Q 2916 -91 2278 -91 
Q 1894 -91 1617 61 
Q 1341 213 1159 525 
z
M 3116 1747 
Q 3116 2381 2855 2742 
Q 2594 3103 2138 3103 
Q 1681 3103 1420 2742 
Q 1159 2381 1159 1747 
Q 1159 1113 1420 752 
Q 1681 391 2138 391 
Q 2594 391 2855 752 
Q 3116 1113 3116 1747 
z
" transform="scale(0.015625)"/>
       <path id="DejaVuSans-65" d="M 3597 1894 
L 3597 1613 
L 953 1613 
Q 991 1019 1311 708 
Q 1631 397 2203 397 
Q 2534 397 2845 478 
Q 3156 559 3463 722 
L 3463 178 
Q 3153 47 2828 -22 
Q 2503 -91 2169 -91 
Q 1331 -91 842 396 
Q 353 884 353 1716 
Q 353 2575 817 3079 
Q 1281 3584 2069 3584 
Q 2775 3584 3186 3129 
Q 3597 2675 3597 1894 
z
M 3022 2063 
Q 3016 2534 2758 2815 
Q 2500 3097 2075 3097 
Q 1594 3097 1305 2825 
Q 1016 2553 972 2059 
L 3022 2063 
z
" transform="scale(0.015625)"/>
       <path id="DejaVuSans-63" d="M 3122 3366 
L 3122 2828 
Q 2878 2963 2633 3030 
Q 2388 3097 2138 3097 
Q 1578 3097 1268 2742 
Q 959 2388 959 1747 
Q 959 1106 1268 751 
Q 1578 397 2138 397 
Q 2388 397 2633 464 
Q 2878 531 3122 666 
L 3122 134 
Q 2881 22 2623 -34 
Q 2366 -91 2075 -91 
Q 1284 -91 818 406 
Q 353 903 353 1747 
Q 353 2603 823 3093 
Q 1294 3584 2113 3584 
Q 2378 3584 2631 3529 
Q 2884 3475 3122 3366 
z
" transform="scale(0.015625)"/>
       <path id="DejaVuSans-69" d="M 603 3500 
L 1178 3500 
L 1178 0 
L 603 0 
L 603 3500 
z
M 603 4863 
L 1178 4863 
L 1178 4134 
L 603 4134 
L 603 4863 
z
" transform="scale(0.015625)"/>
       <path id="DejaVuSans-66" d="M 2375 4863 
L 2375 4384 
L 1825 4384 
Q 1516 4384 1395 4259 
Q 1275 4134 1275 3809 
L 1275 3500 
L 2222 3500 
L 2222 3053 
L 1275 3053 
L 1275 0 
L 697 0 
L 697 3053 
L 147 3053 
L 147 3500 
L 697 3500 
L 697 3744 
Q 697 4328 969 4595 
Q 1241 4863 1831 4863 
L 2375 4863 
z
" transform="scale(0.015625)"/>
       <path id="DejaVuSans-74" d="M 1172 4494 
L 1172 3500 
L 2356 3500 
L 2356 3053 
L 1172 3053 
L 1172 1153 
Q 1172 725 1289 603 
Q 1406 481 1766 481 
L 2356 481 
L 2356 0 
L 1766 0 
Q 1100 0 847 248 
Q 594 497 594 1153 
L 594 3053 
L 172 3053 
L 172 3500 
L 594 3500 
L 594 4494 
L 1172 4494 
z
" transform="scale(0.015625)"/>
       <path id="DejaVuSans-79" d="M 2059 -325 
Q 1816 -950 1584 -1140 
Q 1353 -1331 966 -1331 
L 506 -1331 
L 506 -850 
L 844 -850 
Q 1081 -850 1212 -737 
Q 1344 -625 1503 -206 
L 1606 56 
L 191 3500 
L 800 3500 
L 1894 763 
L 2988 3500 
L 3597 3500 
L 2059 -325 
z
" transform="scale(0.015625)"/>
      </defs>
      <use xlink:href="#DejaVuSans-31"/>
      <use xlink:href="#DejaVuSans-20" x="63.623047"/>
      <use xlink:href="#DejaVuSans-2d" x="95.410156"/>
      <use xlink:href="#DejaVuSans-20" x="131.494141"/>
      <use xlink:href="#DejaVuSans-53" x="163.28125"/>
      <use xlink:href="#DejaVuSans-70" x="226.757812"/>
      <use xlink:href="#DejaVuSans-65" x="290.234375"/>
      <use xlink:href="#DejaVuSans-63" x="351.757812"/>
      <use xlink:href="#DejaVuSans-69" x="406.738281"/>
      <use xlink:href="#DejaVuSans-66" x="434.521484"/>
      <use xlink:href="#DejaVuSans-69" x="469.726562"/>
      <use xlink:href="#DejaVuSans-63" x="497.509766"/>
      <use xlink:href="#DejaVuSans-69" x="552.490234"/>
      <use xlink:href="#DejaVuSans-74" x="580.273438"/>
      <use xlink:href="#DejaVuSans-79" x="619.482422"/>
     </g>
    </g>
   </g>
   <g id="matplotlib.axis_2">
    <g id="ytick_1">
     <g id="line2d_7">
      <defs>
       <path id="mf1389be685" d="M 0 0 
L -3.5 0 
" style="stroke: #000000; stroke-width: 0.8"/>
      </defs>
      <g>
       <use xlink:href="#mf1389be685" x="43.78125" y="445.678125" style="stroke: #000000; stroke-width: 0.8"/>
      </g>
     </g>
     <g id="text_8">
      <!-- 0.0 -->
      <g transform="translate(20.878125 449.477344) scale(0.1 -0.1)">
       <use xlink:href="#DejaVuSans-30"/>
       <use xlink:href="#DejaVuSans-2e" x="63.623047"/>
       <use xlink:href="#DejaVuSans-30" x="95.410156"/>
      </g>
     </g>
    </g>
    <g id="ytick_2">
     <g id="line2d_8">
      <g>
       <use xlink:href="#mf1389be685" x="43.78125" y="365.038125" style="stroke: #000000; stroke-width: 0.8"/>
      </g>
     </g>
     <g id="text_9">
      <!-- 0.2 -->
      <g transform="translate(20.878125 368.837344) scale(0.1 -0.1)">
       <use xlink:href="#DejaVuSans-30"/>
       <use xlink:href="#DejaVuSans-2e" x="63.623047"/>
       <use xlink:href="#DejaVuSans-32" x="95.410156"/>
      </g>
     </g>
    </g>
    <g id="ytick_3">
     <g id="line2d_9">
      <g>
       <use xlink:href="#mf1389be685" x="43.78125" y="284.398125" style="stroke: #000000; stroke-width: 0.8"/>
      </g>
     </g>
     <g id="text_10">
      <!-- 0.4 -->
      <g transform="translate(20.878125 288.197344) scale(0.1 -0.1)">
       <use xlink:href="#DejaVuSans-30"/>
       <use xlink:href="#DejaVuSans-2e" x="63.623047"/>
       <use xlink:href="#DejaVuSans-34" x="95.410156"/>
      </g>
     </g>
    </g>
    <g id="ytick_4">
     <g id="line2d_10">
      <g>
       <use xlink:href="#mf1389be685" x="43.78125" y="203.758125" style="stroke: #000000; stroke-width: 0.8"/>
      </g>
     </g>
     <g id="text_11">
      <!-- 0.6 -->
      <g transform="translate(20.878125 207.557344) scale(0.1 -0.1)">
       <use xlink:href="#DejaVuSans-30"/>
       <use xlink:href="#DejaVuSans-2e" x="63.623047"/>
       <use xlink:href="#DejaVuSans-36" x="95.410156"/>
      </g>
     </g>
    </g>
    <g id="ytick_5">
     <g id="line2d_11">
      <g>
       <use xlink:href="#mf1389be685" x="43.78125" y="123.118125" style="stroke: #000000; stroke-width: 0.8"/>
      </g>
     </g>
     <g id="text_12">
      <!-- 0.8 -->
      <g transform="translate(20.878125 126.917344) scale(0.1 -0.1)">
       <use xlink:href="#DejaVuSans-30"/>
       <use xlink:href="#DejaVuSans-2e" x="63.623047"/>
       <use xlink:href="#DejaVuSans-38" x="95.410156"/>
      </g>
     </g>
    </g>
    <g id="ytick_6">
     <g id="line2d_12">
      <g>
       <use xlink:href="#mf1389be685" x="43.78125" y="42.478125" style="stroke: #000000; stroke-width: 0.8"/>
      </g>
     </g>
     <g id="text_13">
      <!-- 1.0 -->
      <g transform="translate(20.878125 46.277344) scale(0.1 -0.1)">
       <use xlink:href="#DejaVuSans-31"/>
       <use xlink:href="#DejaVuSans-2e" x="63.623047"/>
       <use xlink:href="#DejaVuSans-30" x="95.410156"/>
      </g>
     </g>
    </g>
    <g id="text_14">
     <!-- Sensitivity -->
     <g transform="translate(14.798438 270.108594) rotate(-90) scale(0.1 -0.1)">
      <defs>
       <path id="DejaVuSans-6e" d="M 3513 2113 
L 3513 0 
L 2938 0 
L 2938 2094 
Q 2938 2591 2744 2837 
Q 2550 3084 2163 3084 
Q 1697 3084 1428 2787 
Q 1159 2491 1159 1978 
L 1159 0 
L 581 0 
L 581 3500 
L 1159 3500 
L 1159 2956 
Q 1366 3272 1645 3428 
Q 1925 3584 2291 3584 
Q 2894 3584 3203 3211 
Q 3513 2838 3513 2113 
z
" transform="scale(0.015625)"/>
       <path id="DejaVuSans-73" d="M 2834 3397 
L 2834 2853 
Q 2591 2978 2328 3040 
Q 2066 3103 1784 3103 
Q 1356 3103 1142 2972 
Q 928 2841 928 2578 
Q 928 2378 1081 2264 
Q 1234 2150 1697 2047 
L 1894 2003 
Q 2506 1872 2764 1633 
Q 3022 1394 3022 966 
Q 3022 478 2636 193 
Q 2250 -91 1575 -91 
Q 1294 -91 989 -36 
Q 684 19 347 128 
L 347 722 
Q 666 556 975 473 
Q 1284 391 1588 391 
Q 1994 391 2212 530 
Q 2431 669 2431 922 
Q 2431 1156 2273 1281 
Q 2116 1406 1581 1522 
L 1381 1569 
Q 847 1681 609 1914 
Q 372 2147 372 2553 
Q 372 3047 722 3315 
Q 1072 3584 1716 3584 
Q 2034 3584 2315 3537 
Q 2597 3491 2834 3397 
z
" transform="scale(0.015625)"/>
       <path id="DejaVuSans-76" d="M 191 3500 
L 800 3500 
L 1894 563 
L 2988 3500 
L 3597 3500 
L 2284 0 
L 1503 0 
L 191 3500 
z
" transform="scale(0.015625)"/>
      </defs>
      <use xlink:href="#DejaVuSans-53"/>
      <use xlink:href="#DejaVuSans-65" x="63.476562"/>
      <use xlink:href="#DejaVuSans-6e" x="125"/>
      <use xlink:href="#DejaVuSans-73" x="188.378906"/>
      <use xlink:href="#DejaVuSans-69" x="240.478516"/>
      <use xlink:href="#DejaVuSans-74" x="268.261719"/>
      <use xlink:href="#DejaVuSans-69" x="307.470703"/>
      <use xlink:href="#DejaVuSans-76" x="335.253906"/>
      <use xlink:href="#DejaVuSans-69" x="394.433594"/>
      <use xlink:href="#DejaVuSans-74" x="422.216797"/>
      <use xlink:href="#DejaVuSans-79" x="461.425781"/>
     </g>
    </g>
   </g>
   <g id="line2d_13">
    <path d="M 69.144886 445.678125 
L 69.237336 445.678125 
L 69.237336 443.814909 
L 69.422236 443.814909 
L 69.514686 438.970546 
L 69.607136 438.970546 
L 69.699586 438.22526 
L 69.884486 438.22526 
L 69.976936 435.9894 
L 70.069386 435.9894 
L 70.069386 435.244114 
L 70.254285 435.244114 
L 70.346735 431.517681 
L 70.531635 431.517681 
L 70.624085 428.909179 
L 70.808985 428.909179 
L 70.901435 426.300676 
L 70.993885 426.300676 
L 71.086335 422.2016 
L 71.178785 422.2016 
L 71.271235 419.965741 
L 71.363685 419.965741 
L 71.456134 419.220454 
L 71.548584 419.220454 
L 71.641034 414.376092 
L 71.733484 414.376092 
L 71.825934 413.258162 
L 71.918384 413.258162 
L 72.010834 409.531729 
L 72.103284 409.531729 
L 72.195734 408.4138 
L 72.657983 408.4138 
L 72.750433 405.06001 
L 72.842883 405.06001 
L 72.935333 402.451508 
L 73.027783 402.451508 
L 73.120233 401.333578 
L 73.212683 401.333578 
L 73.305133 398.725075 
L 73.490033 398.725075 
L 73.490033 397.607145 
L 73.674933 397.607145 
L 73.767383 396.489216 
L 73.952282 396.489216 
L 73.952282 395.371286 
L 74.137182 395.371286 
L 74.229632 394.253356 
L 74.322082 394.253356 
L 74.414532 392.017497 
L 74.506982 392.017497 
L 74.506982 391.644853 
L 74.691882 391.644853 
L 74.784332 389.036351 
L 75.061681 389.036351 
L 75.061681 388.663707 
L 75.246581 388.663707 
L 75.246581 388.291064 
L 75.431481 388.291064 
L 75.523931 386.427848 
L 75.616381 386.427848 
L 75.708831 380.465556 
L 75.893731 380.465556 
L 75.986181 379.347626 
L 76.078631 379.347626 
L 76.171081 376.36648 
L 76.26353 376.36648 
L 76.26353 375.993837 
L 76.44843 375.993837 
L 76.44843 373.012691 
L 76.72578 373.012691 
L 76.81823 371.522118 
L 76.91068 371.522118 
L 76.91068 370.776831 
L 77.09558 370.776831 
L 77.18803 368.913615 
L 77.28048 368.913615 
L 77.37293 367.423042 
L 77.465379 367.423042 
L 77.557829 366.677755 
L 77.650279 366.677755 
L 77.650279 366.305112 
L 77.835179 366.305112 
L 77.835179 363.323966 
L 78.020079 363.323966 
L 78.112529 361.46075 
L 78.204979 361.46075 
L 78.297429 354.007885 
L 78.482329 354.007885 
L 78.482329 353.635241 
L 78.667228 353.635241 
L 78.759678 351.026739 
L 78.852128 351.026739 
L 78.944578 348.045593 
L 79.037028 348.045593 
L 79.129478 346.55502 
L 79.221928 346.55502 
L 79.314378 345.43709 
L 79.406828 345.43709 
L 79.499278 342.083301 
L 79.591728 342.083301 
L 79.684178 340.965371 
L 79.776628 340.965371 
L 79.869077 338.729511 
L 79.961527 338.729511 
L 80.053977 337.238938 
L 80.146427 337.238938 
L 80.146427 336.493652 
L 80.423777 336.493652 
L 80.423777 336.121009 
L 80.608677 336.121009 
L 80.701127 333.139863 
L 80.793577 333.139863 
L 80.886027 332.394576 
L 81.163376 332.394576 
L 81.255826 331.276646 
L 81.348276 331.276646 
L 81.348276 330.53136 
L 81.625626 330.53136 
L 81.718076 329.786073 
L 81.810526 329.786073 
L 81.810526 329.040787 
L 82.180326 329.040787 
L 82.180326 328.2955 
L 82.365225 328.2955 
L 82.457675 326.804927 
L 82.550125 326.804927 
L 82.550125 325.314354 
L 82.735025 325.314354 
L 82.735025 324.569068 
L 82.919925 324.569068 
L 83.012375 322.705851 
L 83.104825 322.705851 
L 83.197275 321.215278 
L 83.474624 321.215278 
L 83.474624 320.469992 
L 83.659524 320.469992 
L 83.659524 320.097349 
L 84.029324 320.097349 
L 84.121774 318.234132 
L 84.306674 318.234132 
L 84.306674 317.861489 
L 84.491574 317.861489 
L 84.584023 316.370916 
L 84.768923 316.370916 
L 84.768923 315.252986 
L 84.953823 315.252986 
L 84.953823 314.880343 
L 85.138723 314.880343 
L 85.231173 313.017127 
L 85.416073 313.017127 
L 85.416073 312.644484 
L 85.878322 312.644484 
L 85.970772 311.526554 
L 86.155672 311.526554 
L 86.248122 310.408624 
L 86.340572 310.408624 
L 86.340572 309.663338 
L 86.525472 309.663338 
L 86.525472 308.918051 
L 86.710372 308.918051 
L 86.802822 307.054835 
L 86.987721 307.054835 
L 87.080171 304.073689 
L 87.172621 304.073689 
L 87.172621 302.955759 
L 87.357521 302.955759 
L 87.449971 302.210473 
L 87.634871 302.210473 
L 87.634871 301.837829 
L 87.819771 301.837829 
L 87.912221 299.974613 
L 88.004671 299.974613 
L 88.004671 299.60197 
L 88.28202 299.60197 
L 88.28202 298.856683 
L 88.46692 298.856683 
L 88.55937 296.620824 
L 88.65182 296.620824 
L 88.65182 296.24818 
L 88.83672 296.24818 
L 88.92917 295.502894 
L 89.02162 295.502894 
L 89.11407 293.267034 
L 89.29897 293.267034 
L 89.391419 292.149105 
L 89.483869 292.149105 
L 89.483869 291.031175 
L 89.853669 291.031175 
L 89.853669 290.285888 
L 90.038569 290.285888 
L 90.131019 289.540602 
L 90.500819 289.540602 
L 90.500819 289.167959 
L 90.963068 289.167959 
L 90.963068 288.050029 
L 91.147968 288.050029 
L 91.147968 287.304742 
L 91.610218 287.304742 
L 91.702668 285.068883 
L 91.980017 285.068883 
L 92.072467 282.833023 
L 92.257367 282.833023 
L 92.349817 281.715094 
L 92.442267 281.715094 
L 92.534717 279.106591 
L 92.812067 279.106591 
L 92.904517 278.361304 
L 92.996966 278.361304 
L 93.089416 276.870731 
L 93.181866 276.870731 
L 93.274316 275.380158 
L 93.366766 275.380158 
L 93.366766 274.634872 
L 93.644116 274.634872 
L 93.736566 270.908439 
L 93.829016 270.908439 
L 93.829016 269.417866 
L 94.013916 269.417866 
L 94.106366 266.43672 
L 94.291265 266.43672 
L 94.291265 266.064077 
L 94.476165 266.064077 
L 94.568615 265.31879 
L 94.661065 265.31879 
L 94.753515 263.082931 
L 94.938415 263.082931 
L 94.938415 262.710288 
L 95.215765 262.710288 
L 95.215765 261.965001 
L 95.400664 261.965001 
L 95.400664 261.592358 
L 95.678014 261.592358 
L 95.770464 260.101785 
L 95.862914 260.101785 
L 95.862914 259.356498 
L 96.047814 259.356498 
L 96.140264 257.865925 
L 96.417614 257.865925 
L 96.417614 257.120639 
L 96.602513 257.120639 
L 96.602513 256.375352 
L 96.787413 256.375352 
L 96.787413 256.002709 
L 96.972313 256.002709 
L 97.064763 254.884779 
L 97.249663 254.884779 
L 97.249663 254.512136 
L 97.434563 254.512136 
L 97.527013 253.76685 
L 97.711913 253.76685 
L 97.711913 253.021563 
L 97.896812 253.021563 
L 97.989262 251.158347 
L 98.081712 251.158347 
L 98.174162 250.040417 
L 98.266612 250.040417 
L 98.266612 249.667774 
L 98.543962 249.667774 
L 98.543962 249.295131 
L 98.728862 249.295131 
L 98.728862 248.922487 
L 99.006211 248.922487 
L 99.098661 248.177201 
L 99.191111 248.177201 
L 99.191111 246.313985 
L 99.560911 246.313985 
L 99.560911 245.941341 
L 99.838261 245.941341 
L 99.930711 244.078125 
L 100.023161 244.078125 
L 100.115611 242.960195 
L 100.20806 242.960195 
L 100.30051 240.724336 
L 100.67031 240.724336 
L 100.67031 240.351692 
L 100.94766 240.351692 
L 100.94766 239.606406 
L 101.13256 239.606406 
L 101.22501 238.861119 
L 101.409909 238.861119 
L 101.502359 238.115833 
L 101.594809 238.115833 
L 101.687259 237.370546 
L 101.779709 237.370546 
L 101.872159 236.252617 
L 101.964609 236.252617 
L 101.964609 234.016757 
L 102.149509 234.016757 
L 102.149509 233.271471 
L 102.796658 233.271471 
L 102.796658 232.526184 
L 102.981558 232.526184 
L 103.074008 229.917681 
L 103.443808 229.917681 
L 103.443808 229.545038 
L 103.628708 229.545038 
L 103.721158 228.799752 
L 103.813607 228.799752 
L 103.906057 227.681822 
L 104.090957 227.681822 
L 104.090957 227.309179 
L 104.368307 227.309179 
L 104.368307 226.936535 
L 104.553207 226.936535 
L 104.553207 226.191249 
L 104.738107 226.191249 
L 104.830557 225.073319 
L 104.923007 225.073319 
L 104.923007 224.328033 
L 105.477706 224.328033 
L 105.477706 222.464816 
L 105.662606 222.464816 
L 105.662606 222.092173 
L 106.217305 222.092173 
L 106.217305 221.346887 
L 106.679555 221.346887 
L 106.679555 220.228957 
L 106.864455 220.228957 
L 106.864455 219.856314 
L 107.049355 219.856314 
L 107.049355 219.48367 
L 107.234255 219.48367 
L 107.326705 218.365741 
L 107.419154 218.365741 
L 107.511604 217.620454 
L 108.066304 217.620454 
L 108.158754 216.129881 
L 108.436104 216.129881 
L 108.436104 215.757238 
L 108.621003 215.757238 
L 108.621003 215.011951 
L 108.805903 215.011951 
L 108.805903 214.639308 
L 109.175703 214.639308 
L 109.268153 213.521378 
L 109.453053 213.521378 
L 109.545503 212.776092 
L 109.637953 212.776092 
L 109.730403 211.658162 
L 109.822852 211.658162 
L 109.915302 210.167589 
L 110.007752 210.167589 
L 110.007752 209.794946 
L 110.192652 209.794946 
L 110.285102 207.931729 
L 110.470002 207.931729 
L 110.470002 207.559086 
L 110.839802 207.559086 
L 110.839802 207.186443 
L 111.302051 207.186443 
L 111.302051 206.8138 
L 111.671851 206.8138 
L 111.671851 206.068513 
L 112.134101 206.068513 
L 112.134101 205.69587 
L 112.41145 205.69587 
L 112.41145 205.323227 
L 112.59635 205.323227 
L 112.59635 204.57794 
L 112.78125 204.57794 
L 112.8737 203.46001 
L 112.96615 203.46001 
L 113.0586 202.714724 
L 113.2435 202.714724 
L 113.33595 201.969437 
L 113.798199 201.969437 
L 113.798199 200.851508 
L 113.983099 200.851508 
L 113.983099 200.106221 
L 114.352899 200.106221 
L 114.352899 199.733578 
L 114.537799 199.733578 
L 114.537799 198.988291 
L 115.184948 198.988291 
L 115.184948 198.243005 
L 115.647198 198.243005 
L 115.647198 197.870362 
L 115.832097 197.870362 
L 115.832097 197.497718 
L 116.109447 197.497718 
L 116.109447 197.125075 
L 116.294347 197.125075 
L 116.386797 196.379789 
L 116.756597 196.379789 
L 116.756597 195.634502 
L 116.941497 195.634502 
L 117.033946 194.889216 
L 117.126396 194.889216 
L 117.218846 194.143929 
L 117.403746 194.143929 
L 117.496196 193.025999 
L 117.773546 193.025999 
L 117.865996 191.90807 
L 118.050896 191.90807 
L 118.050896 191.535426 
L 118.605595 191.535426 
L 118.698045 190.79014 
L 118.882945 190.79014 
L 118.975395 190.044853 
L 119.345195 190.044853 
L 119.345195 188.55428 
L 119.622544 188.55428 
L 119.622544 188.181637 
L 119.899894 188.181637 
L 119.899894 187.063707 
L 120.362144 187.063707 
L 120.454594 185.200491 
L 120.547044 185.200491 
L 120.547044 184.827848 
L 120.824393 184.827848 
L 120.824393 184.455204 
L 121.009293 184.455204 
L 121.009293 184.082561 
L 122.026242 184.082561 
L 122.026242 183.709918 
L 122.396042 183.709918 
L 122.396042 183.337275 
L 122.673392 183.337275 
L 122.765842 182.219345 
L 122.858292 182.219345 
L 122.950742 181.101415 
L 123.043191 181.101415 
L 123.043191 180.728772 
L 123.228091 180.728772 
L 123.228091 180.356129 
L 123.412991 180.356129 
L 123.412991 179.610842 
L 123.782791 179.610842 
L 123.875241 178.120269 
L 124.060141 178.120269 
L 124.060141 177.002339 
L 124.24504 177.002339 
L 124.33749 176.257053 
L 124.70729 176.257053 
L 124.70729 175.88441 
L 125.16954 175.88441 
L 125.26199 174.76648 
L 125.446889 174.76648 
L 125.446889 174.021193 
L 125.816689 174.021193 
L 125.909139 172.903264 
L 126.371389 172.903264 
L 126.371389 172.157977 
L 126.926088 172.157977 
L 126.926088 170.667404 
L 127.573238 170.667404 
L 127.573238 170.294761 
L 127.758138 170.294761 
L 127.758138 169.176831 
L 127.943037 169.176831 
L 127.943037 168.804188 
L 128.127937 168.804188 
L 128.127937 168.431545 
L 128.312837 168.431545 
L 128.312837 168.058901 
L 128.590187 168.058901 
L 128.590187 167.686258 
L 128.775087 167.686258 
L 128.867537 166.940972 
L 129.052436 166.940972 
L 129.052436 166.568328 
L 129.792036 166.568328 
L 129.792036 166.195685 
L 129.976936 166.195685 
L 129.976936 165.823042 
L 130.161836 165.823042 
L 130.161836 165.077755 
L 131.641034 165.077755 
L 131.733484 164.332469 
L 132.195734 164.332469 
L 132.288184 163.587182 
L 132.380634 163.587182 
L 132.473084 162.841896 
L 132.657983 162.841896 
L 132.657983 162.469253 
L 133.212683 162.469253 
L 133.212683 162.096609 
L 133.582483 162.096609 
L 133.674933 160.97868 
L 134.322082 160.97868 
L 134.322082 160.606036 
L 134.599432 160.606036 
L 134.691882 159.115463 
L 134.969232 159.115463 
L 135.061681 157.997534 
L 135.246581 157.997534 
L 135.246581 157.252247 
L 135.431481 157.252247 
L 135.431481 156.879604 
L 135.708831 156.879604 
L 135.708831 155.389031 
L 135.986181 155.389031 
L 136.078631 154.271101 
L 136.35598 154.271101 
L 136.35598 153.898458 
L 136.54088 153.898458 
L 136.54088 153.525814 
L 136.72578 153.525814 
L 136.72578 153.153171 
L 137.37293 153.153171 
L 137.37293 152.780528 
L 137.557829 152.780528 
L 137.557829 152.035241 
L 137.742729 152.035241 
L 137.742729 151.662598 
L 137.927629 151.662598 
L 137.927629 150.917312 
L 139.129478 150.917312 
L 139.129478 150.544668 
L 140.331327 150.544668 
L 140.331327 150.172025 
L 140.608677 150.172025 
L 140.608677 149.426739 
L 141.163376 149.426739 
L 141.255826 148.681452 
L 141.718076 148.681452 
L 141.718076 147.936166 
L 141.995426 147.936166 
L 141.995426 147.563522 
L 143.844424 147.563522 
L 143.936874 146.818236 
L 144.399124 146.818236 
L 144.399124 145.700306 
L 144.861373 145.700306 
L 144.861373 144.209733 
L 145.231173 144.209733 
L 145.231173 143.83709 
L 145.878322 143.83709 
L 145.878322 143.464447 
L 146.340572 143.464447 
L 146.340572 143.091803 
L 146.710372 143.091803 
L 146.710372 142.71916 
L 146.895272 142.71916 
L 146.895272 142.346517 
L 147.912221 142.346517 
L 147.912221 141.60123 
L 148.097121 141.60123 
L 148.097121 140.855944 
L 148.28202 140.855944 
L 148.28202 140.483301 
L 148.37447 140.483301 
L 148.55937 139.738014 
L 150.223469 139.738014 
L 150.315919 137.502155 
L 150.500819 137.502155 
L 150.593268 136.011582 
L 150.870618 136.011582 
L 150.870618 135.266295 
L 151.147968 135.266295 
L 151.147968 134.893652 
L 152.349817 134.893652 
L 152.349817 134.521009 
L 152.627167 134.521009 
L 152.627167 133.775722 
L 153.181866 133.775722 
L 153.181866 133.403079 
L 153.736566 133.403079 
L 153.829016 132.657792 
L 154.106366 132.657792 
L 154.106366 132.285149 
L 154.753515 132.285149 
L 154.753515 131.912506 
L 154.938415 131.912506 
L 154.938415 131.539863 
L 155.215765 131.539863 
L 155.215765 131.167219 
L 155.678014 131.167219 
L 155.678014 130.421933 
L 156.510064 130.421933 
L 156.602513 129.304003 
L 156.972313 129.304003 
L 156.972313 128.93136 
L 158.174162 128.93136 
L 158.174162 128.186073 
L 158.451512 128.186073 
L 158.451512 127.81343 
L 158.728862 127.81343 
L 158.728862 127.068143 
L 159.376011 127.068143 
L 159.376011 126.6955 
L 159.560911 126.6955 
L 159.560911 126.322857 
L 160.48541 126.322857 
L 160.48541 125.950214 
L 160.85521 125.950214 
L 160.85521 125.57757 
L 161.687259 125.57757 
L 161.779709 125.204927 
L 162.704208 125.204927 
L 162.704208 124.832284 
L 162.889108 124.832284 
L 162.981558 123.341711 
L 163.166458 123.341711 
L 163.166458 122.596424 
L 164.368307 122.596424 
L 164.368307 122.223781 
L 166.402205 122.223781 
L 166.402205 121.851138 
L 168.066304 121.851138 
L 168.066304 121.478495 
L 168.528554 121.478495 
L 168.528554 121.105851 
L 169.637953 121.105851 
L 169.637953 120.733208 
L 169.822852 120.733208 
L 169.822852 120.360565 
L 170.007752 120.360565 
L 170.100202 119.615278 
L 170.377552 119.615278 
L 170.377552 119.242635 
L 171.394501 119.242635 
L 171.394501 118.869992 
L 171.671851 118.869992 
L 171.671851 118.497349 
L 172.041651 118.497349 
L 172.041651 118.124705 
L 173.2435 118.124705 
L 173.33595 117.379419 
L 173.798199 117.379419 
L 173.798199 117.006776 
L 175.369848 117.006776 
L 175.369848 116.634132 
L 179.345195 116.634132 
L 179.345195 115.888846 
L 179.807444 115.888846 
L 179.807444 115.516203 
L 179.992344 115.516203 
L 179.992344 115.143559 
L 182.396042 115.143559 
L 182.396042 114.770916 
L 182.673392 114.770916 
L 182.673392 114.398273 
L 183.043191 114.398273 
L 183.043191 114.02563 
L 185.16954 114.02563 
L 185.16954 113.652986 
L 185.446889 113.652986 
L 185.539339 112.9077 
L 185.816689 112.9077 
L 185.816689 112.535057 
L 186.278939 112.535057 
L 186.278939 112.162413 
L 186.463839 112.162413 
L 186.463839 111.78977 
L 186.833638 111.78977 
L 186.833638 111.417127 
L 188.405287 111.417127 
L 188.405287 111.044484 
L 190.808985 111.044484 
L 190.808985 110.67184 
L 192.288184 110.67184 
L 192.288184 110.299197 
L 193.120233 110.299197 
L 193.120233 109.926554 
L 193.674933 109.926554 
L 193.674933 109.553911 
L 195.154131 109.553911 
L 195.154131 109.181267 
L 195.616381 109.181267 
L 195.616381 108.808624 
L 196.54088 108.808624 
L 196.54088 108.435981 
L 198.112529 108.435981 
L 198.112529 108.063338 
L 199.221928 108.063338 
L 199.221928 107.690694 
L 199.776628 107.690694 
L 199.869077 107.318051 
L 202.087876 107.318051 
L 202.087876 106.945408 
L 202.550125 106.945408 
L 202.642575 106.200121 
L 203.104825 106.200121 
L 203.197275 104.709548 
L 203.382174 104.709548 
L 203.382174 104.336905 
L 204.029324 104.336905 
L 204.121774 103.591619 
L 204.306674 103.591619 
L 204.306674 103.218975 
L 204.861373 103.218975 
L 204.861373 102.846332 
L 206.063222 102.846332 
L 206.063222 102.473689 
L 206.248122 102.473689 
L 206.248122 102.101046 
L 207.449971 102.101046 
L 207.449971 101.728402 
L 208.37447 101.728402 
L 208.37447 101.355759 
L 208.92917 101.355759 
L 208.92917 100.983116 
L 211.240418 100.983116 
L 211.240418 100.610473 
L 212.627167 100.610473 
L 212.627167 100.237829 
L 212.812067 100.237829 
L 212.812067 99.865186 
L 213.551666 99.865186 
L 213.551666 98.747256 
L 214.753515 98.747256 
L 214.753515 98.374613 
L 215.030865 98.374613 
L 215.030865 98.00197 
L 215.955364 98.00197 
L 216.047814 97.256683 
L 217.434563 97.256683 
L 217.434563 96.88404 
L 217.989262 96.88404 
L 218.081712 96.138753 
L 219.098661 96.138753 
L 219.098661 95.76611 
L 219.376011 95.76611 
L 219.376011 95.393467 
L 223.166458 95.393467 
L 223.166458 95.020824 
L 223.998507 95.020824 
L 224.090957 94.64818 
L 227.049355 94.64818 
L 227.049355 94.275537 
L 228.713453 94.275537 
L 228.713453 93.902894 
L 230.377552 93.902894 
L 230.377552 93.530251 
L 232.134101 93.530251 
L 232.134101 93.157607 
L 236.109447 93.157607 
L 236.109447 92.784964 
L 237.958446 92.784964 
L 237.958446 92.412321 
L 238.328245 92.412321 
L 238.328245 92.039678 
L 238.420695 92.039678 
L 240.177244 92.039678 
L 240.177244 91.294391 
L 241.656443 91.294391 
L 241.656443 90.549105 
L 242.026242 90.549105 
L 242.026242 90.176461 
L 242.211142 90.176461 
L 242.211142 89.431175 
L 243.505441 89.431175 
L 243.505441 89.058532 
L 243.875241 89.058532 
L 243.875241 88.685888 
L 244.79974 88.685888 
L 244.79974 88.313245 
L 249.699586 88.313245 
L 249.699586 87.567959 
L 252.842883 87.567959 
L 252.842883 87.195315 
L 254.876782 87.195315 
L 254.876782 86.822672 
L 256.35598 86.822672 
L 256.35598 86.450029 
L 256.63333 86.450029 
L 256.63333 86.077386 
L 257.465379 86.077386 
L 257.465379 85.704742 
L 258.482329 85.704742 
L 258.574779 84.586813 
L 259.591728 84.586813 
L 259.591728 84.214169 
L 261.348276 84.214169 
L 261.348276 83.841526 
L 262.919925 83.841526 
L 262.919925 83.468883 
L 263.659524 83.468883 
L 263.659524 83.09624 
L 264.399124 83.09624 
L 264.399124 82.723596 
L 266.710372 82.723596 
L 266.710372 82.350953 
L 267.634871 82.350953 
L 267.634871 81.97831 
L 270.223469 81.97831 
L 270.223469 81.233023 
L 272.072467 81.233023 
L 272.072467 80.86038 
L 272.534717 80.86038 
L 272.627167 80.487737 
L 273.551666 80.487737 
L 273.551666 80.115094 
L 274.013916 80.115094 
L 274.013916 79.74245 
L 274.476165 79.74245 
L 274.476165 79.369807 
L 275.493114 79.369807 
L 275.493114 78.997164 
L 275.770464 78.997164 
L 275.770464 78.624521 
L 276.232714 78.624521 
L 276.232714 78.251877 
L 278.728862 78.251877 
L 278.728862 77.879234 
L 279.376011 77.879234 
L 279.376011 77.133948 
L 280.57786 77.133948 
L 280.57786 76.761304 
L 280.85521 76.761304 
L 280.85521 76.388661 
L 282.796658 76.388661 
L 282.889108 75.643375 
L 283.628708 75.643375 
L 283.628708 74.898088 
L 285.292806 74.898088 
L 285.292806 74.525445 
L 286.587105 74.525445 
L 286.587105 74.152802 
L 286.956905 74.152802 
L 286.956905 73.780158 
L 288.713453 73.780158 
L 288.805903 73.407515 
L 290.654902 73.407515 
L 290.654902 73.034872 
L 291.486951 73.034872 
L 291.486951 72.662229 
L 291.764301 72.662229 
L 291.764301 72.289585 
L 292.96615 72.289585 
L 292.96615 71.916942 
L 294.722698 71.916942 
L 294.722698 71.544299 
L 295.092498 71.544299 
L 295.092498 71.171655 
L 296.849047 71.171655 
L 296.849047 70.799012 
L 298.420695 70.799012 
L 298.420695 70.426369 
L 299.714994 70.426369 
L 299.714994 70.053726 
L 299.992344 70.053726 
L 299.992344 69.681082 
L 300.362144 69.681082 
L 300.454594 68.935796 
L 303.505441 68.935796 
L 303.505441 68.563153 
L 304.89219 68.563153 
L 304.89219 68.190509 
L 307.110988 68.190509 
L 307.110988 67.817866 
L 309.052436 67.817866 
L 309.052436 67.445223 
L 310.993885 67.445223 
L 310.993885 67.07258 
L 312.010834 67.07258 
L 312.010834 66.699936 
L 313.397583 66.699936 
L 313.397583 66.327293 
L 315.061681 66.327293 
L 315.061681 65.95465 
L 316.44843 65.95465 
L 316.44843 65.582007 
L 317.742729 65.582007 
L 317.835179 65.209363 
L 321.070926 65.209363 
L 321.070926 64.83672 
L 321.625626 64.83672 
L 321.625626 64.464077 
L 322.365225 64.464077 
L 322.365225 64.091434 
L 324.491574 64.091434 
L 324.491574 63.71879 
L 327.080171 63.71879 
L 327.080171 63.346147 
L 327.542421 63.346147 
L 327.542421 62.973504 
L 328.55937 62.973504 
L 328.65182 62.600861 
L 337.249663 62.600861 
L 337.434563 62.228217 
L 338.174162 62.228217 
L 338.174162 61.855574 
L 343.813607 61.855574 
L 343.813607 61.482931 
L 344.275857 61.482931 
L 344.275857 61.110288 
L 346.956905 61.110288 
L 346.956905 60.737644 
L 349.637953 60.737644 
L 349.637953 60.365001 
L 351.764301 60.365001 
L 351.764301 59.992358 
L 352.41145 59.992358 
L 352.41145 59.619715 
L 352.6888 59.619715 
L 352.6888 59.247071 
L 356.756597 59.247071 
L 356.756597 58.874428 
L 358.975395 58.874428 
L 358.975395 58.501785 
L 360.084794 58.501785 
L 360.084794 58.129142 
L 361.471543 58.129142 
L 361.471543 57.756498 
L 366.278939 57.756498 
L 366.278939 57.383855 
L 370.346735 57.383855 
L 370.346735 57.011212 
L 370.808985 57.011212 
L 370.808985 56.638569 
L 370.901435 56.638569 
L 374.506982 56.638569 
L 374.506982 56.265925 
L 374.599432 56.265925 
L 378.482329 56.265925 
L 378.482329 55.893282 
L 382.827475 55.893282 
L 382.827475 55.520639 
L 385.693423 55.520639 
L 385.693423 55.147996 
L 389.391419 55.147996 
L 389.391419 54.775352 
L 399.838261 54.775352 
L 399.838261 54.402709 
L 403.998507 54.402709 
L 404.090957 54.030066 
L 405.570156 54.030066 
L 405.570156 53.657423 
L 405.662606 53.657423 
L 406.217305 53.657423 
L 406.217305 53.284779 
L 408.158754 53.284779 
L 408.158754 52.912136 
L 413.798199 52.912136 
L 413.798199 52.539493 
L 416.201897 52.539493 
L 416.201897 52.16685 
L 418.050896 52.16685 
L 418.050896 51.794206 
L 420.731943 51.794206 
L 420.731943 51.421563 
L 427.850587 51.421563 
L 427.943037 51.04892 
L 444.029324 51.04892 
L 444.029324 50.676277 
L 447.357521 50.676277 
L 447.357521 50.303633 
L 449.20652 50.303633 
L 449.20652 49.93099 
L 451.517768 49.93099 
L 451.517768 49.558347 
L 451.795117 49.558347 
L 451.795117 49.185704 
L 458.359062 49.185704 
L 458.359062 48.81306 
L 468.158754 48.81306 
L 468.158754 48.440417 
L 469.637953 48.440417 
L 469.637953 48.067774 
L 470.932252 48.067774 
L 471.024701 47.695131 
L 476.756597 47.695131 
L 476.849047 47.322487 
L 493.582483 47.322487 
L 493.582483 46.949844 
L 493.674933 46.949844 
L 507.172621 46.949844 
L 507.172621 46.577201 
L 515.585564 46.577201 
L 515.585564 46.204558 
L 515.678014 46.204558 
L 530.932252 46.204558 
L 531.209601 45.831914 
L 537.126396 45.831914 
L 537.126396 45.459271 
L 537.218846 45.459271 
L 538.790495 45.459271 
L 538.790495 45.086628 
L 542.396042 45.086628 
L 542.396042 44.713985 
L 557.18803 44.713985 
L 557.18803 44.341341 
L 572.812067 44.341341 
L 572.812067 43.596055 
L 572.996966 43.596055 
L 572.996966 42.850768 
L 573.829016 42.850768 
L 574.013916 42.478125 
L 576.417614 42.478125 
L 576.417614 42.478125 
" clip-path="url(#pda02debff3)" style="fill: none; stroke: #1f77b4; stroke-width: 1.5; stroke-linecap: square"/>
   </g>
   <g id="line2d_14">
    <path d="M 69.144886 445.678125 
L 70.239433 434.714155 
L 70.736955 432.247262 
L 71.035467 428.409872 
L 71.134972 425.66888 
L 71.33398 425.120681 
L 71.433484 421.557391 
L 71.731997 420.735093 
L 71.831501 418.542299 
L 72.229518 416.897704 
L 72.428527 416.897704 
L 72.528031 414.70491 
L 72.72704 413.882612 
L 72.826544 412.238016 
L 72.926048 412.238016 
L 73.025553 410.319321 
L 73.125057 410.319321 
L 73.224561 408.400627 
L 73.324065 408.400627 
L 73.42357 407.578329 
L 73.622578 407.578329 
L 73.622578 406.756031 
L 73.821587 406.756031 
L 73.921091 405.933733 
L 74.020595 405.933733 
L 74.120099 404.289138 
L 74.219604 404.289138 
L 74.219604 404.015039 
L 74.418612 404.015039 
L 74.518117 402.096344 
L 74.816629 402.096344 
L 74.816629 401.822245 
L 75.015638 401.822245 
L 75.115142 400.725848 
L 75.214646 400.725848 
L 75.314151 398.533054 
L 75.413655 398.533054 
L 75.513159 394.695664 
L 75.612663 394.695664 
L 75.712168 391.954672 
L 75.811672 391.954672 
L 75.811672 391.680572 
L 76.01068 391.680572 
L 76.110185 388.117282 
L 76.209689 388.117282 
L 76.309193 387.294984 
L 76.508202 387.294984 
L 76.607706 385.924488 
L 76.70721 385.924488 
L 76.806715 384.828091 
L 76.906219 384.828091 
L 77.005723 384.279893 
L 77.105227 384.279893 
L 77.105227 384.005793 
L 77.304236 384.005793 
L 77.40374 380.716602 
L 77.503244 380.716602 
L 77.602749 374.13822 
L 77.702253 374.13822 
L 77.702253 373.864121 
L 77.901261 373.864121 
L 78.000766 371.945426 
L 78.10027 371.945426 
L 78.199774 369.752632 
L 78.299278 369.752632 
L 78.398783 368.656235 
L 78.498287 368.656235 
L 78.597791 367.833937 
L 78.697296 367.833937 
L 78.7968 365.367044 
L 78.896304 365.367044 
L 78.995808 363.722449 
L 79.095313 363.722449 
L 79.194817 362.077853 
L 79.294321 362.077853 
L 79.294321 360.707357 
L 79.592834 360.707357 
L 79.592834 360.433258 
L 79.791842 360.433258 
L 79.891347 357.692265 
L 79.990851 357.692265 
L 79.990851 357.418166 
L 80.189859 357.418166 
L 80.289364 355.499471 
L 80.587876 355.499471 
L 80.687381 354.951273 
L 80.786885 354.951273 
L 80.786885 354.128975 
L 81.085398 354.128975 
L 81.184902 353.032578 
L 81.284406 353.032578 
L 81.383911 351.113883 
L 81.582919 351.113883 
L 81.582919 350.565684 
L 81.781928 350.565684 
L 81.881432 349.195188 
L 81.980936 349.195188 
L 82.08044 348.098791 
L 82.279449 348.098791 
L 82.378953 346.728295 
L 82.478457 346.728295 
L 82.577962 345.905997 
L 82.677466 345.905997 
L 82.677466 344.8096 
L 82.876475 344.8096 
L 82.975979 343.439104 
L 83.075483 343.439104 
L 83.174987 342.068608 
L 83.373996 342.068608 
L 83.4735 340.424012 
L 83.573004 340.424012 
L 83.672509 339.601714 
L 84.17003 339.601714 
L 84.269534 337.957119 
L 84.369038 337.957119 
L 84.468543 336.860722 
L 84.667551 336.860722 
L 84.667551 336.312523 
L 84.86656 336.312523 
L 84.966064 334.942027 
L 85.165073 334.942027 
L 85.264577 332.749233 
L 85.364081 332.749233 
L 85.364081 331.926935 
L 85.56309 331.926935 
L 85.662594 331.378737 
L 85.861602 331.378737 
L 85.861602 331.104638 
L 86.060611 331.104638 
L 86.160115 329.734141 
L 86.259619 329.734141 
L 86.259619 329.460042 
L 86.558132 329.460042 
L 86.558132 328.911844 
L 86.757141 328.911844 
L 86.856645 327.267248 
L 86.956149 327.267248 
L 87.055654 326.44495 
L 87.155158 326.44495 
L 87.254662 325.622653 
L 87.354166 325.622653 
L 87.453671 323.978057 
L 87.553175 323.978057 
L 87.652679 322.607561 
L 87.851688 322.607561 
L 87.951192 321.785263 
L 88.1502 321.785263 
L 88.249705 320.962965 
L 88.548217 320.962965 
L 88.548217 320.688866 
L 88.747226 320.688866 
L 88.84673 319.04427 
L 88.946234 319.04427 
L 88.946234 318.496072 
L 89.443756 318.496072 
L 89.54326 316.851476 
L 89.742269 316.851476 
L 89.841773 314.932782 
L 90.040781 314.932782 
L 90.140286 311.095392 
L 90.23979 311.095392 
L 90.339294 307.258003 
L 90.438798 307.258003 
L 90.438798 306.709804 
L 90.637807 306.709804 
L 90.737311 303.694712 
L 90.836815 303.694712 
L 90.836815 302.598315 
L 91.035824 302.598315 
L 91.135328 300.405521 
L 91.334337 300.405521 
L 91.334337 300.131422 
L 91.533345 300.131422 
L 91.63285 297.39043 
L 91.831858 297.39043 
L 91.831858 297.11633 
L 92.130371 297.11633 
L 92.130371 296.568132 
L 92.329379 296.568132 
L 92.329379 296.294033 
L 92.627892 296.294033 
L 92.727396 294.375338 
L 92.926405 294.375338 
L 93.025909 293.278941 
L 93.224918 293.278941 
L 93.224918 292.456643 
L 93.423926 292.456643 
L 93.423926 291.908445 
L 93.622935 291.908445 
L 93.622935 291.634345 
L 93.821943 291.634345 
L 93.921448 290.812048 
L 94.120456 290.812048 
L 94.21996 289.98975 
L 94.319465 289.98975 
L 94.319465 289.71565 
L 94.518473 289.71565 
L 94.518473 289.167452 
L 94.717482 289.167452 
L 94.816986 287.796956 
L 94.91649 287.796956 
L 95.015994 286.426459 
L 95.314507 286.426459 
L 95.314507 286.15236 
L 95.513516 286.15236 
L 95.513516 285.878261 
L 95.812029 285.878261 
L 95.911533 285.330062 
L 96.011037 285.330062 
L 96.011037 283.959566 
L 96.409054 283.959566 
L 96.409054 283.411368 
L 96.608063 283.411368 
L 96.707567 282.040871 
L 96.807071 282.040871 
L 96.906575 280.670375 
L 97.00608 280.670375 
L 97.00608 279.299879 
L 97.404097 279.299879 
L 97.404097 279.02578 
L 97.603105 279.02578 
L 97.603105 278.203482 
L 97.802114 278.203482 
L 97.901618 277.655283 
L 98.100627 277.655283 
L 98.200131 277.107085 
L 98.299635 277.107085 
L 98.399139 276.010688 
L 98.498644 276.010688 
L 98.598148 273.543795 
L 98.697652 273.543795 
L 98.697652 272.995596 
L 99.394182 272.995596 
L 99.394182 272.447398 
L 99.593191 272.447398 
L 99.692695 270.528703 
L 100.090712 270.528703 
L 100.090712 270.254604 
L 100.28972 270.254604 
L 100.389225 269.158207 
L 100.488729 269.158207 
L 100.488729 268.610008 
L 100.687737 268.610008 
L 100.687737 268.335909 
L 100.886746 268.335909 
L 100.886746 267.78771 
L 101.085754 267.78771 
L 101.185259 266.417214 
L 101.284763 266.417214 
L 101.384267 265.046718 
L 101.782284 265.046718 
L 101.782284 263.676222 
L 101.981293 263.676222 
L 101.981293 263.402122 
L 102.578318 263.402122 
L 102.578318 262.853924 
L 102.876831 262.853924 
L 102.976335 261.757527 
L 103.175344 261.757527 
L 103.274848 260.935229 
L 103.473857 260.935229 
L 103.573361 260.112931 
L 103.672865 260.112931 
L 103.77237 259.290633 
L 103.971378 259.290633 
L 104.070882 258.468336 
L 104.170387 258.468336 
L 104.170387 257.646038 
L 104.468899 257.646038 
L 104.468899 257.371939 
L 104.667908 257.371939 
L 104.667908 256.82374 
L 104.866916 256.82374 
L 104.966421 256.001442 
L 105.065925 256.001442 
L 105.165429 255.179145 
L 105.364438 255.179145 
L 105.463942 254.630946 
L 105.563446 254.630946 
L 105.66295 253.808648 
L 105.762455 253.808648 
L 105.861959 252.712251 
L 105.961463 252.712251 
L 105.961463 252.438152 
L 106.160472 252.438152 
L 106.259976 251.067656 
L 106.458985 251.067656 
L 106.558489 250.519457 
L 106.757497 250.519457 
L 106.857002 249.971259 
L 107.155514 249.971259 
L 107.155514 249.69716 
L 107.553531 249.69716 
L 107.553531 249.148961 
L 108.051053 249.148961 
L 108.051053 248.874862 
L 108.349566 248.874862 
L 108.349566 248.600763 
L 108.548574 248.600763 
L 108.548574 248.052564 
L 108.747583 248.052564 
L 108.847087 247.230266 
L 108.946591 247.230266 
L 109.046095 246.407969 
L 109.1456 246.407969 
L 109.245104 245.85977 
L 109.543617 245.85977 
L 109.643121 244.763373 
L 109.742625 244.763373 
L 109.742625 243.941075 
L 110.041138 243.941075 
L 110.041138 243.392877 
L 110.240147 243.392877 
L 110.240147 242.844678 
L 110.638164 242.844678 
L 110.638164 242.570579 
L 110.837172 242.570579 
L 110.837172 242.022381 
L 111.334693 242.022381 
L 111.334693 240.925984 
L 111.633206 240.925984 
L 111.633206 240.651884 
L 111.832215 240.651884 
L 111.931719 239.281388 
L 112.031223 239.281388 
L 112.031223 238.73319 
L 112.230232 238.73319 
L 112.329736 238.184991 
L 112.42924 238.184991 
L 112.528745 237.636793 
L 112.727753 237.636793 
L 112.827257 236.814495 
L 113.12577 236.814495 
L 113.225274 235.992197 
L 113.424283 235.992197 
L 113.424283 235.718098 
L 113.623291 235.718098 
L 113.623291 235.443999 
L 113.8223 235.443999 
L 113.921804 234.621701 
L 114.021308 234.621701 
L 114.120813 233.799403 
L 114.419326 233.799403 
L 114.419326 232.428907 
L 114.717838 232.428907 
L 114.817343 230.510212 
L 115.016351 230.510212 
L 115.115855 229.962014 
L 115.21536 229.962014 
L 115.314864 228.591517 
L 115.613377 228.591517 
L 115.712881 227.49512 
L 116.011394 227.49512 
L 116.011394 227.221021 
L 116.608419 227.221021 
L 116.707924 226.672822 
L 116.906932 226.672822 
L 116.906932 226.398723 
L 117.205445 226.398723 
L 117.304949 225.576425 
L 117.404453 225.576425 
L 117.503958 224.754128 
L 117.603462 224.754128 
L 117.603462 224.480028 
L 117.80247 224.480028 
L 117.80247 224.205929 
L 118.001479 224.205929 
L 118.001479 223.657731 
L 118.299992 223.657731 
L 118.299992 222.013135 
L 118.499 222.013135 
L 118.499 221.190837 
L 118.698009 221.190837 
L 118.797513 220.642639 
L 119.19553 220.642639 
L 119.295034 219.820341 
L 119.494043 219.820341 
L 119.593547 218.723944 
L 119.693051 218.723944 
L 119.693051 218.175746 
L 119.89206 218.175746 
L 119.991564 217.353448 
L 120.091068 217.353448 
L 120.091068 216.805249 
L 120.489086 216.805249 
L 120.489086 216.257051 
L 120.887103 216.257051 
L 120.986607 214.886555 
L 121.583632 214.886555 
L 121.583632 214.338356 
L 121.782641 214.338356 
L 121.782641 213.516058 
L 121.981649 213.516058 
L 121.981649 213.241959 
L 122.180658 213.241959 
L 122.180658 212.96786 
L 122.379666 212.96786 
L 122.479171 212.419661 
L 122.578675 212.419661 
L 122.678179 211.049165 
L 122.877188 211.049165 
L 122.877188 210.775066 
L 123.076196 210.775066 
L 123.076196 210.226867 
L 123.474213 210.226867 
L 123.474213 209.952768 
L 123.673222 209.952768 
L 123.772726 208.856371 
L 123.971735 208.856371 
L 123.971735 208.582272 
L 124.767769 208.582272 
L 124.767769 208.308173 
L 125.165786 208.308173 
L 125.26529 207.759974 
L 125.563803 207.759974 
L 125.663307 207.211776 
L 125.762811 207.211776 
L 125.862316 206.663577 
L 125.96182 206.663577 
L 125.96182 206.389478 
L 126.160828 206.389478 
L 126.260333 205.841279 
L 126.359837 205.841279 
L 126.359837 205.56718 
L 126.558845 205.56718 
L 126.558845 205.293081 
L 126.857358 205.293081 
L 126.956863 204.196684 
L 127.553888 204.196684 
L 127.553888 203.648485 
L 127.852401 203.648485 
L 127.951905 201.455691 
L 128.051409 201.455691 
L 128.051409 200.907493 
L 128.250418 200.907493 
L 128.349922 199.811096 
L 128.648435 199.811096 
L 128.648435 198.4406 
L 128.847444 198.4406 
L 128.946948 197.618302 
L 129.145956 197.618302 
L 129.145956 197.070103 
L 129.344965 197.070103 
L 129.444469 196.247805 
L 130.041495 196.247805 
L 130.041495 195.699607 
L 130.240503 195.699607 
L 130.240503 195.151408 
L 130.439512 195.151408 
L 130.439512 194.877309 
L 130.63852 194.877309 
L 130.63852 194.329111 
L 131.036537 194.329111 
L 131.036537 194.055011 
L 131.832571 194.055011 
L 131.832571 193.780912 
L 132.330093 193.780912 
L 132.330093 193.506813 
L 133.026623 193.506813 
L 133.026623 193.232714 
L 133.325135 193.232714 
L 133.42464 192.410416 
L 133.623648 192.410416 
L 133.723152 191.862217 
L 133.822657 191.862217 
L 133.922161 191.314019 
L 134.220674 191.314019 
L 134.220674 190.76582 
L 134.419682 190.76582 
L 134.419682 190.217622 
L 134.917203 190.217622 
L 134.917203 189.669423 
L 136.210759 189.669423 
L 136.310263 189.121225 
L 136.509272 189.121225 
L 136.509272 188.847126 
L 136.70828 188.847126 
L 136.70828 188.024828 
L 137.106297 188.024828 
L 137.106297 186.654332 
L 137.40481 186.654332 
L 137.40481 186.106133 
L 138.10134 186.106133 
L 138.10134 185.009736 
L 138.300348 185.009736 
L 138.300348 184.735637 
L 138.698365 184.735637 
L 138.79787 183.913339 
L 139.096382 183.913339 
L 139.096382 183.63924 
L 139.295391 183.63924 
L 139.295391 183.365141 
L 139.593904 183.365141 
L 139.593904 182.542843 
L 139.792912 182.542843 
L 139.892417 181.446446 
L 140.091425 181.446446 
L 140.190929 180.898247 
L 140.787955 180.898247 
L 140.787955 180.624148 
L 140.986963 180.624148 
L 140.986963 180.350049 
L 141.782998 180.350049 
L 141.882502 178.705453 
L 142.08151 178.705453 
L 142.181015 177.609056 
L 142.479527 177.609056 
L 142.479527 177.060858 
L 142.77804 177.060858 
L 142.77804 176.786759 
L 143.972091 176.786759 
L 143.972091 175.964461 
L 144.1711 175.964461 
L 144.1711 175.142163 
L 144.469613 175.142163 
L 144.569117 174.593965 
L 145.166142 174.593965 
L 145.265647 174.045766 
L 145.464655 174.045766 
L 145.464655 173.497568 
L 145.763168 173.497568 
L 145.763168 173.223468 
L 146.061681 173.223468 
L 146.061681 172.949369 
L 146.260689 172.949369 
L 146.260689 172.67527 
L 146.559202 172.67527 
L 146.559202 172.401171 
L 147.056723 172.401171 
L 147.056723 171.852972 
L 147.554245 171.852972 
L 147.554245 171.304774 
L 147.753253 171.304774 
L 147.852758 170.482476 
L 148.250775 170.482476 
L 148.250775 170.208377 
L 148.748296 170.208377 
L 148.748296 169.934277 
L 149.444826 169.934277 
L 149.444826 169.386079 
L 149.743339 169.386079 
L 149.842843 168.015583 
L 150.041851 168.015583 
L 150.041851 167.741483 
L 150.439868 167.741483 
L 150.439868 167.467384 
L 150.638877 167.467384 
L 150.638877 167.193285 
L 151.633919 167.193285 
L 151.633919 166.919186 
L 152.031937 166.919186 
L 152.031937 166.370987 
L 152.927475 166.370987 
L 152.927475 165.822788 
L 153.624005 165.822788 
L 153.723509 165.27459 
L 153.922518 165.27459 
L 154.022022 164.178193 
L 154.22103 164.178193 
L 154.22103 163.629994 
L 154.420039 163.629994 
L 154.420039 163.355895 
L 154.619047 163.355895 
L 154.619047 163.081796 
L 155.315577 163.081796 
L 155.415081 162.259498 
L 156.012107 162.259498 
L 156.111611 161.7113 
L 156.410124 161.7113 
L 156.410124 161.163101 
L 156.907645 161.163101 
L 156.907645 160.889002 
L 157.703679 160.889002 
L 157.703679 160.614903 
L 158.599218 160.614903 
L 158.599218 160.340803 
L 159.096739 160.340803 
L 159.096739 160.066704 
L 159.992277 160.066704 
L 159.992277 159.792605 
L 160.191286 159.792605 
L 160.191286 159.518506 
L 160.390295 159.518506 
L 160.390295 159.244406 
L 160.589303 159.244406 
L 160.688807 158.696208 
L 160.98732 158.696208 
L 160.98732 158.422109 
L 161.68385 158.422109 
L 161.68385 158.148009 
L 161.982363 158.148009 
L 161.982363 157.87391 
L 162.280876 157.87391 
L 162.280876 157.325712 
L 162.579388 157.325712 
L 162.579388 157.051612 
L 162.877901 157.051612 
L 162.877901 156.503414 
L 163.176414 156.503414 
L 163.176414 156.229315 
L 163.574431 156.229315 
L 163.673935 155.407017 
L 164.071952 155.407017 
L 164.171456 154.858818 
L 164.370465 154.858818 
L 164.370465 154.584719 
L 165.266003 154.584719 
L 165.266003 154.31062 
L 165.465012 154.31062 
L 165.465012 154.036521 
L 167.156584 154.036521 
L 167.156584 153.762421 
L 169.644191 153.762421 
L 169.644191 153.214223 
L 169.843199 153.214223 
L 169.843199 152.940124 
L 170.042208 152.940124 
L 170.042208 151.843727 
L 170.241216 151.843727 
L 170.241216 151.569627 
L 171.136755 151.569627 
L 171.136755 151.295528 
L 171.634276 151.295528 
L 171.73378 150.74733 
L 171.932789 150.74733 
L 171.932789 150.47323 
L 172.131797 150.47323 
L 172.131797 150.199131 
L 172.43031 150.199131 
L 172.43031 149.925032 
L 172.828327 149.925032 
L 172.828327 149.650933 
L 173.027336 149.650933 
L 173.027336 148.280436 
L 174.022378 148.280436 
L 174.022378 148.006337 
L 174.221387 148.006337 
L 174.221387 147.732238 
L 174.420395 147.732238 
L 174.420395 147.184039 
L 174.619404 147.184039 
L 174.718908 146.635841 
L 175.017421 146.635841 
L 175.017421 146.361742 
L 175.514942 146.361742 
L 175.514942 146.087642 
L 175.713951 146.087642 
L 175.713951 145.813543 
L 176.012464 145.813543 
L 176.012464 145.265345 
L 176.211472 145.265345 
L 176.211472 144.991245 
L 177.604532 144.991245 
L 177.604532 144.717146 
L 178.002549 144.717146 
L 178.002549 144.443047 
L 178.201557 144.443047 
L 178.201557 144.168948 
L 178.599574 144.168948 
L 178.599574 143.894848 
L 178.898087 143.894848 
L 178.898087 143.34665 
L 179.296104 143.34665 
L 179.296104 143.072551 
L 179.594617 143.072551 
L 179.594617 142.798451 
L 179.793626 142.798451 
L 179.793626 142.524352 
L 181.087181 142.524352 
L 181.087181 142.250253 
L 181.584702 142.250253 
L 181.584702 141.976154 
L 181.883215 141.976154 
L 181.883215 141.702054 
L 182.480241 141.702054 
L 182.480241 141.427955 
L 182.679249 141.427955 
L 182.679249 141.153856 
L 183.375779 141.153856 
L 183.475283 140.605657 
L 183.773796 140.605657 
L 183.773796 140.057459 
L 184.171813 140.057459 
L 184.171813 139.235161 
L 184.768839 139.235161 
L 184.868343 138.412863 
L 186.460411 138.412863 
L 186.460411 138.138764 
L 187.654462 138.138764 
L 187.654462 137.864665 
L 188.251488 137.864665 
L 188.350992 137.042367 
L 189.147026 137.042367 
L 189.147026 136.768268 
L 189.545043 136.768268 
L 189.545043 136.494169 
L 190.341077 136.494169 
L 190.341077 136.220069 
L 190.838599 136.220069 
L 190.938103 135.671871 
L 191.435624 135.671871 
L 191.535129 134.575474 
L 191.734137 134.575474 
L 191.833641 134.027275 
L 192.231658 134.027275 
L 192.331163 133.204977 
L 192.530171 133.204977 
L 192.530171 132.930878 
L 193.127197 132.930878 
L 193.127197 132.656779 
L 194.321248 132.656779 
L 194.321248 132.10858 
L 194.520256 132.10858 
L 194.520256 131.834481 
L 194.818769 131.834481 
L 194.818769 131.560382 
L 195.714308 131.560382 
L 195.714308 131.286283 
L 196.311333 131.286283 
L 196.311333 131.012183 
L 196.609846 131.012183 
L 196.609846 130.738084 
L 197.206871 130.738084 
L 197.206871 130.463985 
L 197.704393 130.463985 
L 197.803897 129.915786 
L 197.903401 129.915786 
L 198.002906 129.367588 
L 199.296461 129.367588 
L 199.395965 128.819389 
L 199.793982 128.819389 
L 199.793982 128.271191 
L 200.490512 128.271191 
L 200.490512 127.997092 
L 200.689521 127.997092 
L 200.789025 127.448893 
L 200.988033 127.448893 
L 200.988033 127.174794 
L 201.286546 127.174794 
L 201.286546 126.352496 
L 202.08258 126.352496 
L 202.08258 126.078397 
L 202.480597 126.078397 
L 202.480597 125.804298 
L 202.77911 125.804298 
L 202.77911 125.256099 
L 203.674648 125.256099 
L 203.774153 124.433801 
L 204.669691 124.433801 
L 204.669691 124.159702 
L 204.769195 124.159702 
L 204.968204 123.611504 
L 205.565229 123.611504 
L 205.664734 123.063305 
L 205.863742 123.063305 
L 205.863742 122.789206 
L 206.261759 122.789206 
L 206.261759 122.515107 
L 206.560272 122.515107 
L 206.560272 122.241007 
L 206.858785 122.241007 
L 206.858785 121.692809 
L 208.649862 121.692809 
L 208.649862 121.41871 
L 210.739451 121.41871 
L 210.739451 121.14461 
L 211.336477 121.14461 
L 211.435981 120.322313 
L 211.933502 120.322313 
L 211.933502 120.048213 
L 213.824083 120.048213 
L 213.824083 119.774114 
L 214.520613 119.774114 
L 214.520613 119.500015 
L 216.31169 119.500015 
L 216.31169 119.225916 
L 217.605245 119.225916 
L 217.605245 118.951816 
L 218.003262 118.951816 
L 218.102766 118.403618 
L 218.799296 118.403618 
L 218.898801 117.855419 
L 219.197313 117.855419 
L 219.197313 117.58132 
L 219.396322 117.58132 
L 219.396322 117.033122 
L 219.993347 117.033122 
L 219.993347 116.759022 
L 220.590373 116.759022 
L 220.590373 116.484923 
L 221.585416 116.484923 
L 221.585416 116.210824 
L 221.68492 116.210824 
L 221.983433 116.210824 
L 221.983433 115.936725 
L 223.276988 115.936725 
L 223.276988 115.662625 
L 224.371535 115.662625 
L 224.371535 115.388526 
L 225.167569 115.388526 
L 225.167569 115.114427 
L 225.565586 115.114427 
L 225.565586 114.840328 
L 226.262116 114.840328 
L 226.262116 114.566228 
L 227.456167 114.566228 
L 227.456167 114.01803 
L 228.152697 114.01803 
L 228.152697 113.743931 
L 228.948731 113.743931 
L 228.948731 112.921633 
L 229.247244 112.921633 
L 229.247244 112.647534 
L 229.446252 112.647534 
L 229.446252 112.099335 
L 230.441295 112.099335 
L 230.441295 111.825236 
L 230.640303 111.825236 
L 230.640303 111.002938 
L 230.938816 111.002938 
L 230.938816 110.728839 
L 231.933859 110.728839 
L 231.933859 110.18064 
L 232.331876 110.18064 
L 232.331876 109.906541 
L 234.122953 109.906541 
L 234.122953 109.632442 
L 234.321961 109.632442 
L 234.421465 109.084243 
L 234.918987 109.084243 
L 234.918987 108.810144 
L 235.914029 108.810144 
L 235.914029 108.536045 
L 236.511055 108.536045 
L 236.511055 107.987846 
L 238.799653 107.987846 
L 238.799653 107.713747 
L 239.794696 107.713747 
L 239.794696 107.439648 
L 241.983789 107.439648 
L 241.983789 107.165549 
L 242.182798 107.165549 
L 242.182798 106.891449 
L 243.476353 106.891449 
L 243.476353 106.61735 
L 243.675362 106.61735 
L 243.675362 106.069152 
L 244.5709 106.069152 
L 244.5709 105.795052 
L 245.665447 105.795052 
L 245.764951 104.972755 
L 246.859498 104.972755 
L 246.859498 104.698655 
L 248.750079 104.698655 
L 248.750079 104.424556 
L 249.645617 104.424556 
L 249.645617 104.150457 
L 250.342147 104.150457 
L 250.342147 103.876357 
L 250.939173 103.876357 
L 251.038677 103.328159 
L 251.834711 103.328159 
L 251.834711 103.05406 
L 252.829754 103.05406 
L 252.829754 102.77996 
L 253.227771 102.77996 
L 253.227771 102.231762 
L 254.023805 102.231762 
L 254.023805 101.957663 
L 254.620831 101.957663 
L 254.620831 101.683563 
L 254.919343 101.683563 
L 254.919343 101.409464 
L 255.715377 101.409464 
L 255.715377 101.135365 
L 257.40695 101.135365 
L 257.506454 100.313067 
L 258.501497 100.313067 
L 258.501497 100.038968 
L 258.700505 100.038968 
L 258.80001 99.764869 
L 259.297531 99.764869 
L 259.297531 99.490769 
L 259.894556 99.490769 
L 259.894556 99.21667 
L 260.790095 99.21667 
L 260.790095 98.668472 
L 261.287616 98.668472 
L 261.38712 98.120273 
L 261.685633 98.120273 
L 261.685633 97.846174 
L 262.78018 97.846174 
L 262.78018 97.572075 
L 263.078693 97.572075 
L 263.078693 97.297975 
L 263.576214 97.297975 
L 263.576214 97.023876 
L 264.073735 97.023876 
L 264.073735 96.749777 
L 264.571257 96.749777 
L 264.571257 96.475678 
L 264.86977 96.475678 
L 264.86977 96.201578 
L 265.964316 96.201578 
L 265.964316 95.927479 
L 266.660846 95.927479 
L 266.660846 95.379281 
L 267.854897 95.379281 
L 267.854897 94.831082 
L 268.053906 94.831082 
L 268.053906 94.282884 
L 270.143495 94.282884 
L 270.243 93.734685 
L 270.442008 93.734685 
L 270.442008 93.460586 
L 270.93953 93.460586 
L 270.93953 92.912387 
L 272.730606 92.912387 
L 272.830111 92.09009 
L 273.327632 92.09009 
L 273.327632 91.81599 
L 273.725649 91.81599 
L 273.725649 91.267792 
L 274.123666 91.267792 
L 274.123666 90.993693 
L 276.014247 90.993693 
L 276.113751 90.719593 
L 276.31276 90.719593 
L 276.31276 90.445494 
L 278.004332 90.445494 
L 278.004332 90.171395 
L 278.800366 90.171395 
L 278.800366 89.623196 
L 278.999375 89.623196 
L 278.999375 89.074998 
L 279.994417 89.074998 
L 279.994417 88.800899 
L 280.193426 88.800899 
L 280.193426 88.526799 
L 280.690947 88.526799 
L 280.690947 88.2527 
L 281.984503 88.2527 
L 282.084007 87.430402 
L 282.183511 87.430402 
L 282.183511 87.156303 
L 282.979545 87.156303 
L 282.979545 86.882204 
L 283.974588 86.882204 
L 283.974588 86.608105 
L 284.770622 86.608105 
L 284.770622 86.334005 
L 285.367648 86.334005 
L 285.467152 85.785807 
L 286.860211 85.785807 
L 286.860211 85.511708 
L 287.158724 85.511708 
L 287.158724 85.237608 
L 287.457237 85.237608 
L 287.556741 84.415311 
L 287.855254 84.415311 
L 287.855254 84.141211 
L 289.745835 84.141211 
L 289.745835 83.867112 
L 290.641373 83.867112 
L 290.641373 83.593013 
L 290.840382 83.593013 
L 290.840382 83.318914 
L 291.934929 83.318914 
L 291.934929 82.770715 
L 292.43245 82.770715 
L 292.43245 82.496616 
L 293.726006 82.496616 
L 293.726006 82.222517 
L 294.124023 82.222517 
L 294.124023 81.948417 
L 296.213612 81.948417 
L 296.213612 81.674318 
L 297.507167 81.674318 
L 297.507167 81.400219 
L 298.203697 81.400219 
L 298.203697 81.12612 
L 299.298244 81.12612 
L 299.298244 80.85202 
L 300.193783 80.85202 
L 300.193783 80.577921 
L 300.392791 80.577921 
L 300.392791 80.303822 
L 300.5918 80.303822 
L 300.5918 80.029723 
L 302.382876 80.029723 
L 302.382876 79.755623 
L 302.780893 79.755623 
L 302.780893 79.481524 
L 303.775936 79.481524 
L 303.775936 79.207425 
L 304.074449 79.207425 
L 304.173953 78.659226 
L 305.069491 78.659226 
L 305.168996 78.111028 
L 305.567013 78.111028 
L 305.567013 77.836929 
L 307.756106 77.836929 
L 307.756106 77.562829 
L 308.253628 77.562829 
L 308.353132 77.014631 
L 308.751149 77.014631 
L 308.751149 76.740532 
L 308.950158 76.740532 
L 308.950158 76.466432 
L 309.447679 76.466432 
L 309.447679 76.192333 
L 311.736277 76.192333 
L 311.736277 75.918234 
L 312.333302 75.918234 
L 312.333302 75.370035 
L 313.029832 75.370035 
L 313.029832 75.095936 
L 313.527354 75.095936 
L 313.527354 74.821837 
L 314.124379 74.821837 
L 314.124379 74.547738 
L 314.621901 74.547738 
L 314.621901 74.273638 
L 315.815952 74.273638 
L 315.815952 73.999539 
L 317.706533 73.999539 
L 317.706533 73.72544 
L 319.398105 73.72544 
L 319.398105 73.45134 
L 319.796122 73.45134 
L 319.796122 73.177241 
L 320.69166 73.177241 
L 320.69166 72.903142 
L 323.179267 72.903142 
L 323.179267 72.629043 
L 324.074805 72.629043 
L 324.074805 72.354943 
L 324.373318 72.354943 
L 324.373318 72.080844 
L 324.472822 72.080844 
L 324.572327 71.806745 
L 325.169352 71.806745 
L 325.169352 70.984447 
L 331.239112 70.984447 
L 331.239112 70.710348 
L 331.736634 70.710348 
L 331.736634 70.436249 
L 333.129693 70.436249 
L 333.129693 70.162149 
L 333.229198 70.162149 
L 334.522753 70.162149 
L 334.522753 69.88805 
L 336.612342 69.88805 
L 336.612342 69.613951 
L 337.109864 69.613951 
L 337.209368 69.065752 
L 339.497966 69.065752 
L 339.497966 68.791653 
L 340.194496 68.791653 
L 340.194496 68.517554 
L 340.493009 68.517554 
L 340.493009 68.243455 
L 340.692017 68.243455 
L 340.692017 67.969355 
L 341.68706 67.969355 
L 341.68706 67.695256 
L 342.582598 67.695256 
L 342.582598 67.421157 
L 342.980615 67.421157 
L 342.980615 67.147058 
L 343.179624 67.147058 
L 343.179624 66.872958 
L 344.373675 66.872958 
L 344.373675 66.598859 
L 346.761777 66.598859 
L 346.761777 66.32476 
L 347.955828 66.32476 
L 347.955828 66.050661 
L 348.154837 66.050661 
L 348.154837 65.776561 
L 349.348888 65.776561 
L 349.348888 65.502462 
L 350.343931 65.502462 
L 350.343931 65.228363 
L 352.732033 65.228363 
L 352.732033 64.954264 
L 354.324101 64.954264 
L 354.324101 64.680164 
L 357.707246 64.680164 
L 357.707246 64.406065 
L 358.602784 64.406065 
L 358.602784 64.131966 
L 359.100306 64.131966 
L 359.100306 63.857867 
L 359.597827 63.857867 
L 359.597827 63.583767 
L 361.587912 63.583767 
L 361.587912 63.309668 
L 362.881468 63.309668 
L 362.881468 63.035569 
L 362.980972 63.035569 
L 364.175023 63.035569 
L 364.175023 62.76147 
L 365.26957 62.76147 
L 365.26957 62.213271 
L 366.264612 62.213271 
L 366.264612 61.939172 
L 366.762134 61.939172 
L 366.762134 61.665073 
L 371.040817 61.665073 
L 371.040817 61.390973 
L 371.33933 61.390973 
L 371.33933 61.116874 
L 374.423962 61.116874 
L 374.423962 60.842775 
L 378.404132 60.842775 
L 378.404132 60.568676 
L 379.100662 60.568676 
L 379.100662 60.294576 
L 381.886782 60.294576 
L 381.886782 60.020477 
L 383.080833 60.020477 
L 383.080833 59.746378 
L 383.876867 59.746378 
L 383.876867 59.472279 
L 389.250097 59.472279 
L 389.250097 59.198179 
L 391.240182 59.198179 
L 391.240182 58.92408 
L 392.931755 58.92408 
L 392.931755 58.649981 
L 393.628284 58.649981 
L 393.628284 58.375882 
L 394.623327 58.375882 
L 394.623327 58.101782 
L 395.120848 58.101782 
L 395.120848 57.827683 
L 395.220353 57.827683 
L 395.817378 57.827683 
L 395.817378 57.553584 
L 396.016387 57.553584 
L 396.016387 57.279485 
L 397.807463 57.279485 
L 397.807463 57.005385 
L 403.877223 57.005385 
L 403.877223 56.731286 
L 406.464334 56.731286 
L 406.464334 56.457187 
L 408.45442 56.457187 
L 408.45442 56.183088 
L 411.340043 56.183088 
L 411.340043 55.908988 
L 411.539052 55.908988 
L 411.539052 55.634889 
L 418.902367 55.634889 
L 419.001871 55.36079 
L 419.698401 55.36079 
L 419.698401 55.086691 
L 421.091461 55.086691 
L 421.091461 54.812591 
L 434.524536 54.812591 
L 434.524536 54.538492 
L 435.32057 54.538492 
L 435.32057 54.264393 
L 435.917596 54.264393 
L 435.917596 53.990294 
L 438.803219 53.990294 
L 438.803219 53.716194 
L 439.400245 53.716194 
L 439.400245 53.442095 
L 440.196279 53.442095 
L 440.196279 53.167996 
L 441.290826 53.167996 
L 441.290826 52.893897 
L 443.778432 52.893897 
L 443.778432 52.619797 
L 444.076945 52.619797 
L 444.076945 52.345698 
L 444.275954 52.345698 
L 444.275954 52.071599 
L 451.042244 52.071599 
L 451.042244 51.7975 
L 461.589695 51.7975 
L 461.589695 51.5234 
L 463.181764 51.5234 
L 463.181764 50.975202 
L 464.574823 50.975202 
L 464.574823 50.701103 
L 466.266396 50.701103 
L 466.266396 50.427003 
L 470.744087 50.427003 
L 470.744087 50.152904 
L 470.843592 50.152904 
L 480.893522 50.152904 
L 480.893522 49.878805 
L 485.072701 49.878805 
L 485.072701 49.604706 
L 486.167248 49.604706 
L 486.167248 49.330606 
L 488.455846 49.330606 
L 488.455846 49.056507 
L 502.485947 49.056507 
L 502.485947 48.782408 
L 502.983468 48.782408 
L 502.983468 48.508309 
L 506.665126 48.508309 
L 506.665126 48.234209 
L 506.76463 48.234209 
L 508.555707 48.234209 
L 508.555707 47.96011 
L 508.655211 47.96011 
L 511.839348 47.96011 
L 511.839348 47.686011 
L 522.088287 47.686011 
L 522.088287 47.411912 
L 528.357055 47.411912 
L 528.456559 47.137812 
L 530.34714 47.137812 
L 530.446645 46.589614 
L 534.725328 46.589614 
L 534.725328 46.315515 
L 536.516405 46.315515 
L 536.516405 46.041415 
L 540.397071 46.041415 
L 540.397071 45.767316 
L 543.780216 45.767316 
L 543.780216 45.493217 
L 556.218248 45.493217 
L 556.218248 45.219118 
L 572.238435 45.219118 
L 572.238435 44.945018 
L 572.934964 44.945018 
L 572.934964 44.39682 
L 573.133973 44.39682 
L 573.233477 43.574522 
L 574.029511 43.574522 
L 574.029511 43.300423 
L 574.129016 43.300423 
L 574.427528 43.300423 
L 574.427528 43.026324 
L 574.527033 43.026324 
L 574.726041 42.752224 
L 575.522075 42.752224 
L 575.62158 42.478125 
L 576.417614 42.478125 
L 576.417614 42.478125 
" clip-path="url(#pda02debff3)" style="fill: none; stroke: #ff7f0e; stroke-width: 1.5; stroke-linecap: square"/>
   </g>
   <g id="line2d_15">
    <path d="M 69.144886 445.678125 
L 576.417614 42.478125 
" clip-path="url(#pda02debff3)" style="fill: none; stroke-dasharray: 5.55,2.4; stroke-dashoffset: 0; stroke: #ff0000; stroke-width: 1.5"/>
   </g>
   <g id="patch_3">
    <path d="M 43.78125 465.838125 
L 43.78125 22.318125 
" style="fill: none; stroke: #000000; stroke-width: 0.8; stroke-linejoin: miter; stroke-linecap: square"/>
   </g>
   <g id="patch_4">
    <path d="M 601.78125 465.838125 
L 601.78125 22.318125 
" style="fill: none; stroke: #000000; stroke-width: 0.8; stroke-linejoin: miter; stroke-linecap: square"/>
   </g>
   <g id="patch_5">
    <path d="M 43.78125 465.838125 
L 601.78125 465.838125 
" style="fill: none; stroke: #000000; stroke-width: 0.8; stroke-linejoin: miter; stroke-linecap: square"/>
   </g>
   <g id="patch_6">
    <path d="M 43.78125 22.318125 
L 601.78125 22.318125 
" style="fill: none; stroke: #000000; stroke-width: 0.8; stroke-linejoin: miter; stroke-linecap: square"/>
   </g>
   <g id="text_15">
    <!-- AUC ROC for Outcomes with 4 Variables -->
    <g transform="translate(202.846875 16.318125) scale(0.12 -0.12)">
     <defs>
      <path id="DejaVuSans-41" d="M 2188 4044 
L 1331 1722 
L 3047 1722 
L 2188 4044 
z
M 1831 4666 
L 2547 4666 
L 4325 0 
L 3669 0 
L 3244 1197 
L 1141 1197 
L 716 0 
L 50 0 
L 1831 4666 
z
" transform="scale(0.015625)"/>
      <path id="DejaVuSans-55" d="M 556 4666 
L 1191 4666 
L 1191 1831 
Q 1191 1081 1462 751 
Q 1734 422 2344 422 
Q 2950 422 3222 751 
Q 3494 1081 3494 1831 
L 3494 4666 
L 4128 4666 
L 4128 1753 
Q 4128 841 3676 375 
Q 3225 -91 2344 -91 
Q 1459 -91 1007 375 
Q 556 841 556 1753 
L 556 4666 
z
" transform="scale(0.015625)"/>
      <path id="DejaVuSans-43" d="M 4122 4306 
L 4122 3641 
Q 3803 3938 3442 4084 
Q 3081 4231 2675 4231 
Q 1875 4231 1450 3742 
Q 1025 3253 1025 2328 
Q 1025 1406 1450 917 
Q 1875 428 2675 428 
Q 3081 428 3442 575 
Q 3803 722 4122 1019 
L 4122 359 
Q 3791 134 3420 21 
Q 3050 -91 2638 -91 
Q 1578 -91 968 557 
Q 359 1206 359 2328 
Q 359 3453 968 4101 
Q 1578 4750 2638 4750 
Q 3056 4750 3426 4639 
Q 3797 4528 4122 4306 
z
" transform="scale(0.015625)"/>
      <path id="DejaVuSans-52" d="M 2841 2188 
Q 3044 2119 3236 1894 
Q 3428 1669 3622 1275 
L 4263 0 
L 3584 0 
L 2988 1197 
Q 2756 1666 2539 1819 
Q 2322 1972 1947 1972 
L 1259 1972 
L 1259 0 
L 628 0 
L 628 4666 
L 2053 4666 
Q 2853 4666 3247 4331 
Q 3641 3997 3641 3322 
Q 3641 2881 3436 2590 
Q 3231 2300 2841 2188 
z
M 1259 4147 
L 1259 2491 
L 2053 2491 
Q 2509 2491 2742 2702 
Q 2975 2913 2975 3322 
Q 2975 3731 2742 3939 
Q 2509 4147 2053 4147 
L 1259 4147 
z
" transform="scale(0.015625)"/>
      <path id="DejaVuSans-4f" d="M 2522 4238 
Q 1834 4238 1429 3725 
Q 1025 3213 1025 2328 
Q 1025 1447 1429 934 
Q 1834 422 2522 422 
Q 3209 422 3611 934 
Q 4013 1447 4013 2328 
Q 4013 3213 3611 3725 
Q 3209 4238 2522 4238 
z
M 2522 4750 
Q 3503 4750 4090 4092 
Q 4678 3434 4678 2328 
Q 4678 1225 4090 567 
Q 3503 -91 2522 -91 
Q 1538 -91 948 565 
Q 359 1222 359 2328 
Q 359 3434 948 4092 
Q 1538 4750 2522 4750 
z
" transform="scale(0.015625)"/>
      <path id="DejaVuSans-6f" d="M 1959 3097 
Q 1497 3097 1228 2736 
Q 959 2375 959 1747 
Q 959 1119 1226 758 
Q 1494 397 1959 397 
Q 2419 397 2687 759 
Q 2956 1122 2956 1747 
Q 2956 2369 2687 2733 
Q 2419 3097 1959 3097 
z
M 1959 3584 
Q 2709 3584 3137 3096 
Q 3566 2609 3566 1747 
Q 3566 888 3137 398 
Q 2709 -91 1959 -91 
Q 1206 -91 779 398 
Q 353 888 353 1747 
Q 353 2609 779 3096 
Q 1206 3584 1959 3584 
z
" transform="scale(0.015625)"/>
      <path id="DejaVuSans-72" d="M 2631 2963 
Q 2534 3019 2420 3045 
Q 2306 3072 2169 3072 
Q 1681 3072 1420 2755 
Q 1159 2438 1159 1844 
L 1159 0 
L 581 0 
L 581 3500 
L 1159 3500 
L 1159 2956 
Q 1341 3275 1631 3429 
Q 1922 3584 2338 3584 
Q 2397 3584 2469 3576 
Q 2541 3569 2628 3553 
L 2631 2963 
z
" transform="scale(0.015625)"/>
      <path id="DejaVuSans-75" d="M 544 1381 
L 544 3500 
L 1119 3500 
L 1119 1403 
Q 1119 906 1312 657 
Q 1506 409 1894 409 
Q 2359 409 2629 706 
Q 2900 1003 2900 1516 
L 2900 3500 
L 3475 3500 
L 3475 0 
L 2900 0 
L 2900 538 
Q 2691 219 2414 64 
Q 2138 -91 1772 -91 
Q 1169 -91 856 284 
Q 544 659 544 1381 
z
M 1991 3584 
L 1991 3584 
z
" transform="scale(0.015625)"/>
      <path id="DejaVuSans-6d" d="M 3328 2828 
Q 3544 3216 3844 3400 
Q 4144 3584 4550 3584 
Q 5097 3584 5394 3201 
Q 5691 2819 5691 2113 
L 5691 0 
L 5113 0 
L 5113 2094 
Q 5113 2597 4934 2840 
Q 4756 3084 4391 3084 
Q 3944 3084 3684 2787 
Q 3425 2491 3425 1978 
L 3425 0 
L 2847 0 
L 2847 2094 
Q 2847 2600 2669 2842 
Q 2491 3084 2119 3084 
Q 1678 3084 1418 2786 
Q 1159 2488 1159 1978 
L 1159 0 
L 581 0 
L 581 3500 
L 1159 3500 
L 1159 2956 
Q 1356 3278 1631 3431 
Q 1906 3584 2284 3584 
Q 2666 3584 2933 3390 
Q 3200 3197 3328 2828 
z
" transform="scale(0.015625)"/>
      <path id="DejaVuSans-77" d="M 269 3500 
L 844 3500 
L 1563 769 
L 2278 3500 
L 2956 3500 
L 3675 769 
L 4391 3500 
L 4966 3500 
L 4050 0 
L 3372 0 
L 2619 2869 
L 1863 0 
L 1184 0 
L 269 3500 
z
" transform="scale(0.015625)"/>
      <path id="DejaVuSans-68" d="M 3513 2113 
L 3513 0 
L 2938 0 
L 2938 2094 
Q 2938 2591 2744 2837 
Q 2550 3084 2163 3084 
Q 1697 3084 1428 2787 
Q 1159 2491 1159 1978 
L 1159 0 
L 581 0 
L 581 4863 
L 1159 4863 
L 1159 2956 
Q 1366 3272 1645 3428 
Q 1925 3584 2291 3584 
Q 2894 3584 3203 3211 
Q 3513 2838 3513 2113 
z
" transform="scale(0.015625)"/>
      <path id="DejaVuSans-56" d="M 1831 0 
L 50 4666 
L 709 4666 
L 2188 738 
L 3669 4666 
L 4325 4666 
L 2547 0 
L 1831 0 
z
" transform="scale(0.015625)"/>
      <path id="DejaVuSans-61" d="M 2194 1759 
Q 1497 1759 1228 1600 
Q 959 1441 959 1056 
Q 959 750 1161 570 
Q 1363 391 1709 391 
Q 2188 391 2477 730 
Q 2766 1069 2766 1631 
L 2766 1759 
L 2194 1759 
z
M 3341 1997 
L 3341 0 
L 2766 0 
L 2766 531 
Q 2569 213 2275 61 
Q 1981 -91 1556 -91 
Q 1019 -91 701 211 
Q 384 513 384 1019 
Q 384 1609 779 1909 
Q 1175 2209 1959 2209 
L 2766 2209 
L 2766 2266 
Q 2766 2663 2505 2880 
Q 2244 3097 1772 3097 
Q 1472 3097 1187 3025 
Q 903 2953 641 2809 
L 641 3341 
Q 956 3463 1253 3523 
Q 1550 3584 1831 3584 
Q 2591 3584 2966 3190 
Q 3341 2797 3341 1997 
z
" transform="scale(0.015625)"/>
      <path id="DejaVuSans-62" d="M 3116 1747 
Q 3116 2381 2855 2742 
Q 2594 3103 2138 3103 
Q 1681 3103 1420 2742 
Q 1159 2381 1159 1747 
Q 1159 1113 1420 752 
Q 1681 391 2138 391 
Q 2594 391 2855 752 
Q 3116 1113 3116 1747 
z
M 1159 2969 
Q 1341 3281 1617 3432 
Q 1894 3584 2278 3584 
Q 2916 3584 3314 3078 
Q 3713 2572 3713 1747 
Q 3713 922 3314 415 
Q 2916 -91 2278 -91 
Q 1894 -91 1617 61 
Q 1341 213 1159 525 
L 1159 0 
L 581 0 
L 581 4863 
L 1159 4863 
L 1159 2969 
z
" transform="scale(0.015625)"/>
      <path id="DejaVuSans-6c" d="M 603 4863 
L 1178 4863 
L 1178 0 
L 603 0 
L 603 4863 
z
" transform="scale(0.015625)"/>
     </defs>
     <use xlink:href="#DejaVuSans-41"/>
     <use xlink:href="#DejaVuSans-55" x="68.408203"/>
     <use xlink:href="#DejaVuSans-43" x="141.601562"/>
     <use xlink:href="#DejaVuSans-20" x="211.425781"/>
     <use xlink:href="#DejaVuSans-52" x="243.212891"/>
     <use xlink:href="#DejaVuSans-4f" x="312.695312"/>
     <use xlink:href="#DejaVuSans-43" x="391.40625"/>
     <use xlink:href="#DejaVuSans-20" x="461.230469"/>
     <use xlink:href="#DejaVuSans-66" x="493.017578"/>
     <use xlink:href="#DejaVuSans-6f" x="528.222656"/>
     <use xlink:href="#DejaVuSans-72" x="589.404297"/>
     <use xlink:href="#DejaVuSans-20" x="630.517578"/>
     <use xlink:href="#DejaVuSans-4f" x="662.304688"/>
     <use xlink:href="#DejaVuSans-75" x="741.015625"/>
     <use xlink:href="#DejaVuSans-74" x="804.394531"/>
     <use xlink:href="#DejaVuSans-63" x="843.603516"/>
     <use xlink:href="#DejaVuSans-6f" x="898.583984"/>
     <use xlink:href="#DejaVuSans-6d" x="959.765625"/>
     <use xlink:href="#DejaVuSans-65" x="1057.177734"/>
     <use xlink:href="#DejaVuSans-73" x="1118.701172"/>
     <use xlink:href="#DejaVuSans-20" x="1170.800781"/>
     <use xlink:href="#DejaVuSans-77" x="1202.587891"/>
     <use xlink:href="#DejaVuSans-69" x="1284.375"/>
     <use xlink:href="#DejaVuSans-74" x="1312.158203"/>
     <use xlink:href="#DejaVuSans-68" x="1351.367188"/>
     <use xlink:href="#DejaVuSans-20" x="1414.746094"/>
     <use xlink:href="#DejaVuSans-34" x="1446.533203"/>
     <use xlink:href="#DejaVuSans-20" x="1510.15625"/>
     <use xlink:href="#DejaVuSans-56" x="1541.943359"/>
     <use xlink:href="#DejaVuSans-61" x="1602.601562"/>
     <use xlink:href="#DejaVuSans-72" x="1663.880859"/>
     <use xlink:href="#DejaVuSans-69" x="1704.994141"/>
     <use xlink:href="#DejaVuSans-61" x="1732.777344"/>
     <use xlink:href="#DejaVuSans-62" x="1794.056641"/>
     <use xlink:href="#DejaVuSans-6c" x="1857.533203"/>
     <use xlink:href="#DejaVuSans-65" x="1885.316406"/>
     <use xlink:href="#DejaVuSans-73" x="1946.839844"/>
    </g>
   </g>
   <g id="legend_1">
    <g id="patch_7">
     <path d="M 50.78125 59.674375 
L 284.307813 59.674375 
Q 286.307813 59.674375 286.307813 57.674375 
L 286.307813 29.318125 
Q 286.307813 27.318125 284.307813 27.318125 
L 50.78125 27.318125 
Q 48.78125 27.318125 48.78125 29.318125 
L 48.78125 57.674375 
Q 48.78125 59.674375 50.78125 59.674375 
z
" style="fill: #ffffff; opacity: 0.8; stroke: #cccccc; stroke-linejoin: miter"/>
    </g>
    <g id="line2d_16">
     <path d="M 52.78125 35.416562 
L 62.78125 35.416562 
L 72.78125 35.416562 
" style="fill: none; stroke: #1f77b4; stroke-width: 1.5; stroke-linecap: square"/>
    </g>
    <g id="text_16">
     <!-- 4-variable 2-year outcome (AUC = 0.87) -->
     <g transform="translate(80.78125 38.916562) scale(0.1 -0.1)">
      <defs>
       <path id="DejaVuSans-28" d="M 1984 4856 
Q 1566 4138 1362 3434 
Q 1159 2731 1159 2009 
Q 1159 1288 1364 580 
Q 1569 -128 1984 -844 
L 1484 -844 
Q 1016 -109 783 600 
Q 550 1309 550 2009 
Q 550 2706 781 3412 
Q 1013 4119 1484 4856 
L 1984 4856 
z
" transform="scale(0.015625)"/>
       <path id="DejaVuSans-3d" d="M 678 2906 
L 4684 2906 
L 4684 2381 
L 678 2381 
L 678 2906 
z
M 678 1631 
L 4684 1631 
L 4684 1100 
L 678 1100 
L 678 1631 
z
" transform="scale(0.015625)"/>
       <path id="DejaVuSans-37" d="M 525 4666 
L 3525 4666 
L 3525 4397 
L 1831 0 
L 1172 0 
L 2766 4134 
L 525 4134 
L 525 4666 
z
" transform="scale(0.015625)"/>
       <path id="DejaVuSans-29" d="M 513 4856 
L 1013 4856 
Q 1481 4119 1714 3412 
Q 1947 2706 1947 2009 
Q 1947 1309 1714 600 
Q 1481 -109 1013 -844 
L 513 -844 
Q 928 -128 1133 580 
Q 1338 1288 1338 2009 
Q 1338 2731 1133 3434 
Q 928 4138 513 4856 
z
" transform="scale(0.015625)"/>
      </defs>
      <use xlink:href="#DejaVuSans-34"/>
      <use xlink:href="#DejaVuSans-2d" x="63.623047"/>
      <use xlink:href="#DejaVuSans-76" x="97.082031"/>
      <use xlink:href="#DejaVuSans-61" x="156.261719"/>
      <use xlink:href="#DejaVuSans-72" x="217.541016"/>
      <use xlink:href="#DejaVuSans-69" x="258.654297"/>
      <use xlink:href="#DejaVuSans-61" x="286.4375"/>
      <use xlink:href="#DejaVuSans-62" x="347.716797"/>
      <use xlink:href="#DejaVuSans-6c" x="411.193359"/>
      <use xlink:href="#DejaVuSans-65" x="438.976562"/>
      <use xlink:href="#DejaVuSans-20" x="500.5"/>
      <use xlink:href="#DejaVuSans-32" x="532.287109"/>
      <use xlink:href="#DejaVuSans-2d" x="595.910156"/>
      <use xlink:href="#DejaVuSans-79" x="630.244141"/>
      <use xlink:href="#DejaVuSans-65" x="689.423828"/>
      <use xlink:href="#DejaVuSans-61" x="750.947266"/>
      <use xlink:href="#DejaVuSans-72" x="812.226562"/>
      <use xlink:href="#DejaVuSans-20" x="853.339844"/>
      <use xlink:href="#DejaVuSans-6f" x="885.126953"/>
      <use xlink:href="#DejaVuSans-75" x="946.308594"/>
      <use xlink:href="#DejaVuSans-74" x="1009.6875"/>
      <use xlink:href="#DejaVuSans-63" x="1048.896484"/>
      <use xlink:href="#DejaVuSans-6f" x="1103.876953"/>
      <use xlink:href="#DejaVuSans-6d" x="1165.058594"/>
      <use xlink:href="#DejaVuSans-65" x="1262.470703"/>
      <use xlink:href="#DejaVuSans-20" x="1323.994141"/>
      <use xlink:href="#DejaVuSans-28" x="1355.78125"/>
      <use xlink:href="#DejaVuSans-41" x="1394.794922"/>
      <use xlink:href="#DejaVuSans-55" x="1463.203125"/>
      <use xlink:href="#DejaVuSans-43" x="1536.396484"/>
      <use xlink:href="#DejaVuSans-20" x="1606.220703"/>
      <use xlink:href="#DejaVuSans-3d" x="1638.007812"/>
      <use xlink:href="#DejaVuSans-20" x="1721.796875"/>
      <use xlink:href="#DejaVuSans-30" x="1753.583984"/>
      <use xlink:href="#DejaVuSans-2e" x="1817.207031"/>
      <use xlink:href="#DejaVuSans-38" x="1848.994141"/>
      <use xlink:href="#DejaVuSans-37" x="1912.617188"/>
      <use xlink:href="#DejaVuSans-29" x="1976.240234"/>
     </g>
    </g>
    <g id="line2d_17">
     <path d="M 52.78125 50.094687 
L 62.78125 50.094687 
L 72.78125 50.094687 
" style="fill: none; stroke: #ff7f0e; stroke-width: 1.5; stroke-linecap: square"/>
    </g>
    <g id="text_17">
     <!-- 4-variable 5-year outcome (AUC = 0.84) -->
     <g transform="translate(80.78125 53.594687) scale(0.1 -0.1)">
      <defs>
       <path id="DejaVuSans-35" d="M 691 4666 
L 3169 4666 
L 3169 4134 
L 1269 4134 
L 1269 2991 
Q 1406 3038 1543 3061 
Q 1681 3084 1819 3084 
Q 2600 3084 3056 2656 
Q 3513 2228 3513 1497 
Q 3513 744 3044 326 
Q 2575 -91 1722 -91 
Q 1428 -91 1123 -41 
Q 819 9 494 109 
L 494 744 
Q 775 591 1075 516 
Q 1375 441 1709 441 
Q 2250 441 2565 725 
Q 2881 1009 2881 1497 
Q 2881 1984 2565 2268 
Q 2250 2553 1709 2553 
Q 1456 2553 1204 2497 
Q 953 2441 691 2322 
L 691 4666 
z
" transform="scale(0.015625)"/>
      </defs>
      <use xlink:href="#DejaVuSans-34"/>
      <use xlink:href="#DejaVuSans-2d" x="63.623047"/>
      <use xlink:href="#DejaVuSans-76" x="97.082031"/>
      <use xlink:href="#DejaVuSans-61" x="156.261719"/>
      <use xlink:href="#DejaVuSans-72" x="217.541016"/>
      <use xlink:href="#DejaVuSans-69" x="258.654297"/>
      <use xlink:href="#DejaVuSans-61" x="286.4375"/>
      <use xlink:href="#DejaVuSans-62" x="347.716797"/>
      <use xlink:href="#DejaVuSans-6c" x="411.193359"/>
      <use xlink:href="#DejaVuSans-65" x="438.976562"/>
      <use xlink:href="#DejaVuSans-20" x="500.5"/>
      <use xlink:href="#DejaVuSans-35" x="532.287109"/>
      <use xlink:href="#DejaVuSans-2d" x="595.910156"/>
      <use xlink:href="#DejaVuSans-79" x="630.244141"/>
      <use xlink:href="#DejaVuSans-65" x="689.423828"/>
      <use xlink:href="#DejaVuSans-61" x="750.947266"/>
      <use xlink:href="#DejaVuSans-72" x="812.226562"/>
      <use xlink:href="#DejaVuSans-20" x="853.339844"/>
      <use xlink:href="#DejaVuSans-6f" x="885.126953"/>
      <use xlink:href="#DejaVuSans-75" x="946.308594"/>
      <use xlink:href="#DejaVuSans-74" x="1009.6875"/>
      <use xlink:href="#DejaVuSans-63" x="1048.896484"/>
      <use xlink:href="#DejaVuSans-6f" x="1103.876953"/>
      <use xlink:href="#DejaVuSans-6d" x="1165.058594"/>
      <use xlink:href="#DejaVuSans-65" x="1262.470703"/>
      <use xlink:href="#DejaVuSans-20" x="1323.994141"/>
      <use xlink:href="#DejaVuSans-28" x="1355.78125"/>
      <use xlink:href="#DejaVuSans-41" x="1394.794922"/>
      <use xlink:href="#DejaVuSans-55" x="1463.203125"/>
      <use xlink:href="#DejaVuSans-43" x="1536.396484"/>
      <use xlink:href="#DejaVuSans-20" x="1606.220703"/>
      <use xlink:href="#DejaVuSans-3d" x="1638.007812"/>
      <use xlink:href="#DejaVuSans-20" x="1721.796875"/>
      <use xlink:href="#DejaVuSans-30" x="1753.583984"/>
      <use xlink:href="#DejaVuSans-2e" x="1817.207031"/>
      <use xlink:href="#DejaVuSans-38" x="1848.994141"/>
      <use xlink:href="#DejaVuSans-34" x="1912.617188"/>
      <use xlink:href="#DejaVuSans-29" x="1976.240234"/>
     </g>
    </g>
   </g>
  </g>
 </g>
 <defs>
  <clipPath id="pda02debff3">
   <rect x="43.78125" y="22.318125" width="558" height="443.52"/>
  </clipPath>
 </defs>
</svg>
