<?xml version="1.0" encoding="utf-8" standalone="no"?>
<!DOCTYPE svg PUBLIC "-//W3C//DTD SVG 1.1//EN"
  "http://www.w3.org/Graphics/SVG/1.1/DTD/svg11.dtd">
<svg xmlns:xlink="http://www.w3.org/1999/xlink" width="608.98125pt" height="503.394375pt" viewBox="0 0 608.98125 503.394375" xmlns="http://www.w3.org/2000/svg" version="1.1">
 <metadata>
  <rdf:RDF xmlns:dc="http://purl.org/dc/elements/1.1/" xmlns:cc="http://creativecommons.org/ns#" xmlns:rdf="http://www.w3.org/1999/02/22-rdf-syntax-ns#">
   <cc:Work>
    <dc:type rdf:resource="http://purl.org/dc/dcmitype/StillImage"/>
    <dc:date>2024-08-05T23:20:08.435045</dc:date>
    <dc:format>image/svg+xml</dc:format>
    <dc:creator>
     <cc:Agent>
      <dc:title>Matplotlib v3.9.0, https://matplotlib.org/</dc:title>
     </cc:Agent>
    </dc:creator>
   </cc:Work>
  </rdf:RDF>
 </metadata>
 <defs>
  <style type="text/css">*{stroke-linejoin: round; stroke-linecap: butt}</style>
 </defs>
 <g id="figure_1">
  <g id="patch_1">
   <path d="M 0 503.394375 
L 608.98125 503.394375 
L 608.98125 0 
L 0 0 
z
" style="fill: #ffffff"/>
  </g>
  <g id="axes_1">
   <g id="patch_2">
    <path d="M 43.78125 465.838125 
L 601.78125 465.838125 
L 601.78125 22.318125 
L 43.78125 22.318125 
z
" style="fill: #ffffff"/>
   </g>
   <g id="matplotlib.axis_1">
    <g id="xtick_1">
     <g id="line2d_1">
      <defs>
       <path id="m12a20aa456" d="M 0 0 
L 0 3.5 
" style="stroke: #000000; stroke-width: 0.8"/>
      </defs>
      <g>
       <use xlink:href="#m12a20aa456" x="69.144886" y="465.838125" style="stroke: #000000; stroke-width: 0.8"/>
      </g>
     </g>
     <g id="text_1">
      <!-- 0.0 -->
      <g transform="translate(61.193324 480.436562) scale(0.1 -0.1)">
       <defs>
        <path id="DejaVuSans-30" d="M 2034 4250 
Q 1547 4250 1301 3770 
Q 1056 3291 1056 2328 
Q 1056 1369 1301 889 
Q 1547 409 2034 409 
Q 2525 409 2770 889 
Q 3016 1369 3016 2328 
Q 3016 3291 2770 3770 
Q 2525 4250 2034 4250 
z
M 2034 4750 
Q 2819 4750 3233 4129 
Q 3647 3509 3647 2328 
Q 3647 1150 3233 529 
Q 2819 -91 2034 -91 
Q 1250 -91 836 529 
Q 422 1150 422 2328 
Q 422 3509 836 4129 
Q 1250 4750 2034 4750 
z
" transform="scale(0.015625)"/>
        <path id="DejaVuSans-2e" d="M 684 794 
L 1344 794 
L 1344 0 
L 684 0 
L 684 794 
z
" transform="scale(0.015625)"/>
       </defs>
       <use xlink:href="#DejaVuSans-30"/>
       <use xlink:href="#DejaVuSans-2e" x="63.623047"/>
       <use xlink:href="#DejaVuSans-30" x="95.410156"/>
      </g>
     </g>
    </g>
    <g id="xtick_2">
     <g id="line2d_2">
      <g>
       <use xlink:href="#m12a20aa456" x="170.599432" y="465.838125" style="stroke: #000000; stroke-width: 0.8"/>
      </g>
     </g>
     <g id="text_2">
      <!-- 0.2 -->
      <g transform="translate(162.647869 480.436562) scale(0.1 -0.1)">
       <defs>
        <path id="DejaVuSans-32" d="M 1228 531 
L 3431 531 
L 3431 0 
L 469 0 
L 469 531 
Q 828 903 1448 1529 
Q 2069 2156 2228 2338 
Q 2531 2678 2651 2914 
Q 2772 3150 2772 3378 
Q 2772 3750 2511 3984 
Q 2250 4219 1831 4219 
Q 1534 4219 1204 4116 
Q 875 4013 500 3803 
L 500 4441 
Q 881 4594 1212 4672 
Q 1544 4750 1819 4750 
Q 2544 4750 2975 4387 
Q 3406 4025 3406 3419 
Q 3406 3131 3298 2873 
Q 3191 2616 2906 2266 
Q 2828 2175 2409 1742 
Q 1991 1309 1228 531 
z
" transform="scale(0.015625)"/>
       </defs>
       <use xlink:href="#DejaVuSans-30"/>
       <use xlink:href="#DejaVuSans-2e" x="63.623047"/>
       <use xlink:href="#DejaVuSans-32" x="95.410156"/>
      </g>
     </g>
    </g>
    <g id="xtick_3">
     <g id="line2d_3">
      <g>
       <use xlink:href="#m12a20aa456" x="272.053977" y="465.838125" style="stroke: #000000; stroke-width: 0.8"/>
      </g>
     </g>
     <g id="text_3">
      <!-- 0.4 -->
      <g transform="translate(264.102415 480.436562) scale(0.1 -0.1)">
       <defs>
        <path id="DejaVuSans-34" d="M 2419 4116 
L 825 1625 
L 2419 1625 
L 2419 4116 
z
M 2253 4666 
L 3047 4666 
L 3047 1625 
L 3713 1625 
L 3713 1100 
L 3047 1100 
L 3047 0 
L 2419 0 
L 2419 1100 
L 313 1100 
L 313 1709 
L 2253 4666 
z
" transform="scale(0.015625)"/>
       </defs>
       <use xlink:href="#DejaVuSans-30"/>
       <use xlink:href="#DejaVuSans-2e" x="63.623047"/>
       <use xlink:href="#DejaVuSans-34" x="95.410156"/>
      </g>
     </g>
    </g>
    <g id="xtick_4">
     <g id="line2d_4">
      <g>
       <use xlink:href="#m12a20aa456" x="373.508523" y="465.838125" style="stroke: #000000; stroke-width: 0.8"/>
      </g>
     </g>
     <g id="text_4">
      <!-- 0.6 -->
      <g transform="translate(365.55696 480.436562) scale(0.1 -0.1)">
       <defs>
        <path id="DejaVuSans-36" d="M 2113 2584 
Q 1688 2584 1439 2293 
Q 1191 2003 1191 1497 
Q 1191 994 1439 701 
Q 1688 409 2113 409 
Q 2538 409 2786 701 
Q 3034 994 3034 1497 
Q 3034 2003 2786 2293 
Q 2538 2584 2113 2584 
z
M 3366 4563 
L 3366 3988 
Q 3128 4100 2886 4159 
Q 2644 4219 2406 4219 
Q 1781 4219 1451 3797 
Q 1122 3375 1075 2522 
Q 1259 2794 1537 2939 
Q 1816 3084 2150 3084 
Q 2853 3084 3261 2657 
Q 3669 2231 3669 1497 
Q 3669 778 3244 343 
Q 2819 -91 2113 -91 
Q 1303 -91 875 529 
Q 447 1150 447 2328 
Q 447 3434 972 4092 
Q 1497 4750 2381 4750 
Q 2619 4750 2861 4703 
Q 3103 4656 3366 4563 
z
" transform="scale(0.015625)"/>
       </defs>
       <use xlink:href="#DejaVuSans-30"/>
       <use xlink:href="#DejaVuSans-2e" x="63.623047"/>
       <use xlink:href="#DejaVuSans-36" x="95.410156"/>
      </g>
     </g>
    </g>
    <g id="xtick_5">
     <g id="line2d_5">
      <g>
       <use xlink:href="#m12a20aa456" x="474.963068" y="465.838125" style="stroke: #000000; stroke-width: 0.8"/>
      </g>
     </g>
     <g id="text_5">
      <!-- 0.8 -->
      <g transform="translate(467.011506 480.436562) scale(0.1 -0.1)">
       <defs>
        <path id="DejaVuSans-38" d="M 2034 2216 
Q 1584 2216 1326 1975 
Q 1069 1734 1069 1313 
Q 1069 891 1326 650 
Q 1584 409 2034 409 
Q 2484 409 2743 651 
Q 3003 894 3003 1313 
Q 3003 1734 2745 1975 
Q 2488 2216 2034 2216 
z
M 1403 2484 
Q 997 2584 770 2862 
Q 544 3141 544 3541 
Q 544 4100 942 4425 
Q 1341 4750 2034 4750 
Q 2731 4750 3128 4425 
Q 3525 4100 3525 3541 
Q 3525 3141 3298 2862 
Q 3072 2584 2669 2484 
Q 3125 2378 3379 2068 
Q 3634 1759 3634 1313 
Q 3634 634 3220 271 
Q 2806 -91 2034 -91 
Q 1263 -91 848 271 
Q 434 634 434 1313 
Q 434 1759 690 2068 
Q 947 2378 1403 2484 
z
M 1172 3481 
Q 1172 3119 1398 2916 
Q 1625 2713 2034 2713 
Q 2441 2713 2670 2916 
Q 2900 3119 2900 3481 
Q 2900 3844 2670 4047 
Q 2441 4250 2034 4250 
Q 1625 4250 1398 4047 
Q 1172 3844 1172 3481 
z
" transform="scale(0.015625)"/>
       </defs>
       <use xlink:href="#DejaVuSans-30"/>
       <use xlink:href="#DejaVuSans-2e" x="63.623047"/>
       <use xlink:href="#DejaVuSans-38" x="95.410156"/>
      </g>
     </g>
    </g>
    <g id="xtick_6">
     <g id="line2d_6">
      <g>
       <use xlink:href="#m12a20aa456" x="576.417614" y="465.838125" style="stroke: #000000; stroke-width: 0.8"/>
      </g>
     </g>
     <g id="text_6">
      <!-- 1.0 -->
      <g transform="translate(568.466051 480.436562) scale(0.1 -0.1)">
       <defs>
        <path id="DejaVuSans-31" d="M 794 531 
L 1825 531 
L 1825 4091 
L 703 3866 
L 703 4441 
L 1819 4666 
L 2450 4666 
L 2450 531 
L 3481 531 
L 3481 0 
L 794 0 
L 794 531 
z
" transform="scale(0.015625)"/>
       </defs>
       <use xlink:href="#DejaVuSans-31"/>
       <use xlink:href="#DejaVuSans-2e" x="63.623047"/>
       <use xlink:href="#DejaVuSans-30" x="95.410156"/>
      </g>
     </g>
    </g>
    <g id="text_7">
     <!-- 1 - Specificity -->
     <g transform="translate(288.847656 494.114687) scale(0.1 -0.1)">
      <defs>
       <path id="DejaVuSans-20" transform="scale(0.015625)"/>
       <path id="DejaVuSans-2d" d="M 313 2009 
L 1997 2009 
L 1997 1497 
L 313 1497 
L 313 2009 
z
" transform="scale(0.015625)"/>
       <path id="DejaVuSans-53" d="M 3425 4513 
L 3425 3897 
Q 3066 4069 2747 4153 
Q 2428 4238 2131 4238 
Q 1616 4238 1336 4038 
Q 1056 3838 1056 3469 
Q 1056 3159 1242 3001 
Q 1428 2844 1947 2747 
L 2328 2669 
Q 3034 2534 3370 2195 
Q 3706 1856 3706 1288 
Q 3706 609 3251 259 
Q 2797 -91 1919 -91 
Q 1588 -91 1214 -16 
Q 841 59 441 206 
L 441 856 
Q 825 641 1194 531 
Q 1563 422 1919 422 
Q 2459 422 2753 634 
Q 3047 847 3047 1241 
Q 3047 1584 2836 1778 
Q 2625 1972 2144 2069 
L 1759 2144 
Q 1053 2284 737 2584 
Q 422 2884 422 3419 
Q 422 4038 858 4394 
Q 1294 4750 2059 4750 
Q 2388 4750 2728 4690 
Q 3069 4631 3425 4513 
z
" transform="scale(0.015625)"/>
       <path id="DejaVuSans-70" d="M 1159 525 
L 1159 -1331 
L 581 -1331 
L 581 3500 
L 1159 3500 
L 1159 2969 
Q 1341 3281 1617 3432 
Q 1894 3584 2278 3584 
Q 2916 3584 3314 3078 
Q 3713 2572 3713 1747 
Q 3713 922 3314 415 
Q 2916 -91 2278 -91 
Q 1894 -91 1617 61 
Q 1341 213 1159 525 
z
M 3116 1747 
Q 3116 2381 2855 2742 
Q 2594 3103 2138 3103 
Q 1681 3103 1420 2742 
Q 1159 2381 1159 1747 
Q 1159 1113 1420 752 
Q 1681 391 2138 391 
Q 2594 391 2855 752 
Q 3116 1113 3116 1747 
z
" transform="scale(0.015625)"/>
       <path id="DejaVuSans-65" d="M 3597 1894 
L 3597 1613 
L 953 1613 
Q 991 1019 1311 708 
Q 1631 397 2203 397 
Q 2534 397 2845 478 
Q 3156 559 3463 722 
L 3463 178 
Q 3153 47 2828 -22 
Q 2503 -91 2169 -91 
Q 1331 -91 842 396 
Q 353 884 353 1716 
Q 353 2575 817 3079 
Q 1281 3584 2069 3584 
Q 2775 3584 3186 3129 
Q 3597 2675 3597 1894 
z
M 3022 2063 
Q 3016 2534 2758 2815 
Q 2500 3097 2075 3097 
Q 1594 3097 1305 2825 
Q 1016 2553 972 2059 
L 3022 2063 
z
" transform="scale(0.015625)"/>
       <path id="DejaVuSans-63" d="M 3122 3366 
L 3122 2828 
Q 2878 2963 2633 3030 
Q 2388 3097 2138 3097 
Q 1578 3097 1268 2742 
Q 959 2388 959 1747 
Q 959 1106 1268 751 
Q 1578 397 2138 397 
Q 2388 397 2633 464 
Q 2878 531 3122 666 
L 3122 134 
Q 2881 22 2623 -34 
Q 2366 -91 2075 -91 
Q 1284 -91 818 406 
Q 353 903 353 1747 
Q 353 2603 823 3093 
Q 1294 3584 2113 3584 
Q 2378 3584 2631 3529 
Q 2884 3475 3122 3366 
z
" transform="scale(0.015625)"/>
       <path id="DejaVuSans-69" d="M 603 3500 
L 1178 3500 
L 1178 0 
L 603 0 
L 603 3500 
z
M 603 4863 
L 1178 4863 
L 1178 4134 
L 603 4134 
L 603 4863 
z
" transform="scale(0.015625)"/>
       <path id="DejaVuSans-66" d="M 2375 4863 
L 2375 4384 
L 1825 4384 
Q 1516 4384 1395 4259 
Q 1275 4134 1275 3809 
L 1275 3500 
L 2222 3500 
L 2222 3053 
L 1275 3053 
L 1275 0 
L 697 0 
L 697 3053 
L 147 3053 
L 147 3500 
L 697 3500 
L 697 3744 
Q 697 4328 969 4595 
Q 1241 4863 1831 4863 
L 2375 4863 
z
" transform="scale(0.015625)"/>
       <path id="DejaVuSans-74" d="M 1172 4494 
L 1172 3500 
L 2356 3500 
L 2356 3053 
L 1172 3053 
L 1172 1153 
Q 1172 725 1289 603 
Q 1406 481 1766 481 
L 2356 481 
L 2356 0 
L 1766 0 
Q 1100 0 847 248 
Q 594 497 594 1153 
L 594 3053 
L 172 3053 
L 172 3500 
L 594 3500 
L 594 4494 
L 1172 4494 
z
" transform="scale(0.015625)"/>
       <path id="DejaVuSans-79" d="M 2059 -325 
Q 1816 -950 1584 -1140 
Q 1353 -1331 966 -1331 
L 506 -1331 
L 506 -850 
L 844 -850 
Q 1081 -850 1212 -737 
Q 1344 -625 1503 -206 
L 1606 56 
L 191 3500 
L 800 3500 
L 1894 763 
L 2988 3500 
L 3597 3500 
L 2059 -325 
z
" transform="scale(0.015625)"/>
      </defs>
      <use xlink:href="#DejaVuSans-31"/>
      <use xlink:href="#DejaVuSans-20" x="63.623047"/>
      <use xlink:href="#DejaVuSans-2d" x="95.410156"/>
      <use xlink:href="#DejaVuSans-20" x="131.494141"/>
      <use xlink:href="#DejaVuSans-53" x="163.28125"/>
      <use xlink:href="#DejaVuSans-70" x="226.757812"/>
      <use xlink:href="#DejaVuSans-65" x="290.234375"/>
      <use xlink:href="#DejaVuSans-63" x="351.757812"/>
      <use xlink:href="#DejaVuSans-69" x="406.738281"/>
      <use xlink:href="#DejaVuSans-66" x="434.521484"/>
      <use xlink:href="#DejaVuSans-69" x="469.726562"/>
      <use xlink:href="#DejaVuSans-63" x="497.509766"/>
      <use xlink:href="#DejaVuSans-69" x="552.490234"/>
      <use xlink:href="#DejaVuSans-74" x="580.273438"/>
      <use xlink:href="#DejaVuSans-79" x="619.482422"/>
     </g>
    </g>
   </g>
   <g id="matplotlib.axis_2">
    <g id="ytick_1">
     <g id="line2d_7">
      <defs>
       <path id="m89bc9a533b" d="M 0 0 
L -3.5 0 
" style="stroke: #000000; stroke-width: 0.8"/>
      </defs>
      <g>
       <use xlink:href="#m89bc9a533b" x="43.78125" y="445.678125" style="stroke: #000000; stroke-width: 0.8"/>
      </g>
     </g>
     <g id="text_8">
      <!-- 0.0 -->
      <g transform="translate(20.878125 449.477344) scale(0.1 -0.1)">
       <use xlink:href="#DejaVuSans-30"/>
       <use xlink:href="#DejaVuSans-2e" x="63.623047"/>
       <use xlink:href="#DejaVuSans-30" x="95.410156"/>
      </g>
     </g>
    </g>
    <g id="ytick_2">
     <g id="line2d_8">
      <g>
       <use xlink:href="#m89bc9a533b" x="43.78125" y="365.038125" style="stroke: #000000; stroke-width: 0.8"/>
      </g>
     </g>
     <g id="text_9">
      <!-- 0.2 -->
      <g transform="translate(20.878125 368.837344) scale(0.1 -0.1)">
       <use xlink:href="#DejaVuSans-30"/>
       <use xlink:href="#DejaVuSans-2e" x="63.623047"/>
       <use xlink:href="#DejaVuSans-32" x="95.410156"/>
      </g>
     </g>
    </g>
    <g id="ytick_3">
     <g id="line2d_9">
      <g>
       <use xlink:href="#m89bc9a533b" x="43.78125" y="284.398125" style="stroke: #000000; stroke-width: 0.8"/>
      </g>
     </g>
     <g id="text_10">
      <!-- 0.4 -->
      <g transform="translate(20.878125 288.197344) scale(0.1 -0.1)">
       <use xlink:href="#DejaVuSans-30"/>
       <use xlink:href="#DejaVuSans-2e" x="63.623047"/>
       <use xlink:href="#DejaVuSans-34" x="95.410156"/>
      </g>
     </g>
    </g>
    <g id="ytick_4">
     <g id="line2d_10">
      <g>
       <use xlink:href="#m89bc9a533b" x="43.78125" y="203.758125" style="stroke: #000000; stroke-width: 0.8"/>
      </g>
     </g>
     <g id="text_11">
      <!-- 0.6 -->
      <g transform="translate(20.878125 207.557344) scale(0.1 -0.1)">
       <use xlink:href="#DejaVuSans-30"/>
       <use xlink:href="#DejaVuSans-2e" x="63.623047"/>
       <use xlink:href="#DejaVuSans-36" x="95.410156"/>
      </g>
     </g>
    </g>
    <g id="ytick_5">
     <g id="line2d_11">
      <g>
       <use xlink:href="#m89bc9a533b" x="43.78125" y="123.118125" style="stroke: #000000; stroke-width: 0.8"/>
      </g>
     </g>
     <g id="text_12">
      <!-- 0.8 -->
      <g transform="translate(20.878125 126.917344) scale(0.1 -0.1)">
       <use xlink:href="#DejaVuSans-30"/>
       <use xlink:href="#DejaVuSans-2e" x="63.623047"/>
       <use xlink:href="#DejaVuSans-38" x="95.410156"/>
      </g>
     </g>
    </g>
    <g id="ytick_6">
     <g id="line2d_12">
      <g>
       <use xlink:href="#m89bc9a533b" x="43.78125" y="42.478125" style="stroke: #000000; stroke-width: 0.8"/>
      </g>
     </g>
     <g id="text_13">
      <!-- 1.0 -->
      <g transform="translate(20.878125 46.277344) scale(0.1 -0.1)">
       <use xlink:href="#DejaVuSans-31"/>
       <use xlink:href="#DejaVuSans-2e" x="63.623047"/>
       <use xlink:href="#DejaVuSans-30" x="95.410156"/>
      </g>
     </g>
    </g>
    <g id="text_14">
     <!-- Sensitivity -->
     <g transform="translate(14.798438 270.108594) rotate(-90) scale(0.1 -0.1)">
      <defs>
       <path id="DejaVuSans-6e" d="M 3513 2113 
L 3513 0 
L 2938 0 
L 2938 2094 
Q 2938 2591 2744 2837 
Q 2550 3084 2163 3084 
Q 1697 3084 1428 2787 
Q 1159 2491 1159 1978 
L 1159 0 
L 581 0 
L 581 3500 
L 1159 3500 
L 1159 2956 
Q 1366 3272 1645 3428 
Q 1925 3584 2291 3584 
Q 2894 3584 3203 3211 
Q 3513 2838 3513 2113 
z
" transform="scale(0.015625)"/>
       <path id="DejaVuSans-73" d="M 2834 3397 
L 2834 2853 
Q 2591 2978 2328 3040 
Q 2066 3103 1784 3103 
Q 1356 3103 1142 2972 
Q 928 2841 928 2578 
Q 928 2378 1081 2264 
Q 1234 2150 1697 2047 
L 1894 2003 
Q 2506 1872 2764 1633 
Q 3022 1394 3022 966 
Q 3022 478 2636 193 
Q 2250 -91 1575 -91 
Q 1294 -91 989 -36 
Q 684 19 347 128 
L 347 722 
Q 666 556 975 473 
Q 1284 391 1588 391 
Q 1994 391 2212 530 
Q 2431 669 2431 922 
Q 2431 1156 2273 1281 
Q 2116 1406 1581 1522 
L 1381 1569 
Q 847 1681 609 1914 
Q 372 2147 372 2553 
Q 372 3047 722 3315 
Q 1072 3584 1716 3584 
Q 2034 3584 2315 3537 
Q 2597 3491 2834 3397 
z
" transform="scale(0.015625)"/>
       <path id="DejaVuSans-76" d="M 191 3500 
L 800 3500 
L 1894 563 
L 2988 3500 
L 3597 3500 
L 2284 0 
L 1503 0 
L 191 3500 
z
" transform="scale(0.015625)"/>
      </defs>
      <use xlink:href="#DejaVuSans-53"/>
      <use xlink:href="#DejaVuSans-65" x="63.476562"/>
      <use xlink:href="#DejaVuSans-6e" x="125"/>
      <use xlink:href="#DejaVuSans-73" x="188.378906"/>
      <use xlink:href="#DejaVuSans-69" x="240.478516"/>
      <use xlink:href="#DejaVuSans-74" x="268.261719"/>
      <use xlink:href="#DejaVuSans-69" x="307.470703"/>
      <use xlink:href="#DejaVuSans-76" x="335.253906"/>
      <use xlink:href="#DejaVuSans-69" x="394.433594"/>
      <use xlink:href="#DejaVuSans-74" x="422.216797"/>
      <use xlink:href="#DejaVuSans-79" x="461.425781"/>
     </g>
    </g>
   </g>
   <g id="line2d_13">
    <path d="M 69.144886 445.678125 
L 69.235942 445.678125 
L 69.235942 444.062093 
L 69.50911 444.062093 
L 69.600166 438.809989 
L 69.691222 438.809989 
L 69.782278 438.001973 
L 69.96439 438.001973 
L 70.055446 435.577925 
L 70.237558 435.577925 
L 70.237558 435.173917 
L 70.41967 435.173917 
L 70.41967 431.537844 
L 70.783894 431.537844 
L 70.87495 428.709788 
L 71.057061 428.709788 
L 71.148117 425.881732 
L 71.239173 425.881732 
L 71.330229 421.437644 
L 71.421285 421.437644 
L 71.512341 419.013596 
L 71.603397 419.013596 
L 71.694453 418.20558 
L 71.785509 418.20558 
L 71.785509 415.781532 
L 71.967621 415.781532 
L 72.058677 412.953476 
L 72.149733 412.953476 
L 72.240789 409.317404 
L 72.331845 409.317404 
L 72.422901 407.701371 
L 72.513957 407.701371 
L 72.513957 406.893355 
L 72.969236 406.893355 
L 73.060292 405.277323 
L 73.151348 405.277323 
L 73.242404 402.853275 
L 73.33346 402.853275 
L 73.424516 400.429227 
L 73.515572 400.429227 
L 73.606628 397.601171 
L 73.697684 397.601171 
L 73.697684 396.793155 
L 73.879796 396.793155 
L 73.879796 395.581131 
L 74.061908 395.581131 
L 74.152964 394.369107 
L 74.335076 394.369107 
L 74.335076 393.157083 
L 74.517188 393.157083 
L 74.608244 391.945059 
L 74.6993 391.945059 
L 74.790356 389.521011 
L 74.881412 389.521011 
L 74.881412 389.117003 
L 75.063523 389.117003 
L 75.154579 386.288947 
L 75.427747 386.288947 
L 75.427747 385.884939 
L 75.609859 385.884939 
L 75.609859 385.480931 
L 75.791971 385.480931 
L 75.883027 383.460891 
L 75.974083 383.460891 
L 76.065139 379.42081 
L 76.156195 379.42081 
L 76.156195 377.40077 
L 76.338307 377.40077 
L 76.338307 376.996762 
L 76.520419 376.996762 
L 76.611475 374.976722 
L 76.702531 374.976722 
L 76.793587 372.956682 
L 76.975699 372.956682 
L 76.975699 369.724618 
L 77.248866 369.724618 
L 77.339922 368.108586 
L 77.430978 368.108586 
L 77.430978 367.30057 
L 77.61309 367.30057 
L 77.704146 365.28053 
L 77.795202 365.28053 
L 77.886258 363.664498 
L 77.977314 363.664498 
L 78.06837 362.856482 
L 78.159426 362.856482 
L 78.159426 362.452474 
L 78.341538 362.452474 
L 78.341538 359.22041 
L 78.614706 359.22041 
L 78.705762 357.604378 
L 78.796818 357.604378 
L 78.887874 349.524217 
L 79.069985 349.524217 
L 79.069985 349.120209 
L 79.252097 349.120209 
L 79.343153 346.292153 
L 79.434209 346.292153 
L 79.525265 343.464097 
L 79.707377 343.464097 
L 79.798433 341.848065 
L 79.889489 341.848065 
L 79.980545 340.636041 
L 80.071601 340.636041 
L 80.162657 336.999969 
L 80.253713 336.999969 
L 80.253713 336.191953 
L 80.526881 336.191953 
L 80.617937 333.767905 
L 80.708993 333.767905 
L 80.800049 332.151872 
L 80.891105 332.151872 
L 80.891105 331.343856 
L 81.164272 331.343856 
L 81.164272 330.939848 
L 81.346384 330.939848 
L 81.43744 327.707784 
L 81.528496 327.707784 
L 81.619552 326.899768 
L 81.89272 326.899768 
L 81.983776 325.687744 
L 82.074832 325.687744 
L 82.074832 324.879728 
L 82.348 324.879728 
L 82.439056 324.071712 
L 82.530112 324.071712 
L 82.530112 323.263696 
L 82.894336 323.263696 
L 82.894336 322.45568 
L 83.076448 322.45568 
L 83.167503 320.839648 
L 83.258559 320.839648 
L 83.349615 319.627624 
L 83.531727 319.627624 
L 83.531727 318.819608 
L 83.713839 318.819608 
L 83.804895 316.799568 
L 83.895951 316.799568 
L 83.987007 315.183536 
L 84.260175 315.183536 
L 84.260175 314.37552 
L 84.442287 314.37552 
L 84.442287 313.971512 
L 84.806511 313.971512 
L 84.806511 313.567504 
L 84.988623 313.567504 
L 84.988623 312.35548 
L 85.170735 312.35548 
L 85.170735 311.951472 
L 85.352846 311.951472 
L 85.443902 310.33544 
L 85.626014 310.33544 
L 85.626014 309.123416 
L 85.808126 309.123416 
L 85.808126 308.719408 
L 85.990238 308.719408 
L 86.081294 306.699367 
L 86.263406 306.699367 
L 86.263406 306.295359 
L 86.718686 306.295359 
L 86.809742 305.083335 
L 86.991854 305.083335 
L 87.08291 303.871311 
L 87.173966 303.871311 
L 87.173966 303.063295 
L 87.356077 303.063295 
L 87.356077 302.255279 
L 87.538189 302.255279 
L 87.629245 300.235239 
L 87.811357 300.235239 
L 87.902413 297.003175 
L 87.993469 297.003175 
L 87.993469 295.791151 
L 88.175581 295.791151 
L 88.266637 294.983135 
L 88.448749 294.983135 
L 88.448749 294.579127 
L 88.630861 294.579127 
L 88.721917 292.559087 
L 88.812973 292.559087 
L 88.812973 292.155079 
L 89.086141 292.155079 
L 89.086141 291.347063 
L 89.268252 291.347063 
L 89.359308 288.923015 
L 89.450364 288.923015 
L 89.450364 288.519007 
L 89.632476 288.519007 
L 89.723532 287.710991 
L 89.814588 287.710991 
L 89.814588 286.902975 
L 89.9967 286.902975 
L 89.9967 285.690951 
L 90.178812 285.690951 
L 90.269868 284.478927 
L 90.360924 284.478927 
L 90.360924 283.266903 
L 90.725148 283.266903 
L 90.725148 282.458887 
L 90.90726 282.458887 
L 90.998316 281.65087 
L 91.362539 281.65087 
L 91.362539 281.246862 
L 91.817819 281.246862 
L 91.817819 280.034838 
L 91.999931 280.034838 
L 91.999931 279.226822 
L 92.455211 279.226822 
L 92.546267 276.802774 
L 92.819435 276.802774 
L 92.910491 274.378726 
L 93.092603 274.378726 
L 93.183659 273.166702 
L 93.274715 273.166702 
L 93.36577 270.338646 
L 93.638938 270.338646 
L 93.729994 269.53063 
L 93.82105 269.53063 
L 93.912106 267.914598 
L 94.003162 267.914598 
L 94.094218 266.298566 
L 94.27633 266.298566 
L 94.27633 265.894558 
L 94.549498 265.894558 
L 94.640554 261.854478 
L 94.73161 261.854478 
L 94.73161 260.238446 
L 94.913722 260.238446 
L 95.004778 257.006382 
L 95.460057 257.006382 
L 95.551113 256.198365 
L 95.642169 256.198365 
L 95.733225 253.774317 
L 95.915337 253.774317 
L 95.915337 253.370309 
L 96.188505 253.370309 
L 96.188505 252.562293 
L 96.734841 252.562293 
L 96.825897 250.946261 
L 96.916953 250.946261 
L 96.916953 250.138245 
L 97.099065 250.138245 
L 97.190121 248.522213 
L 97.463288 248.522213 
L 97.463288 247.714197 
L 97.6454 247.714197 
L 97.6454 246.906181 
L 97.827512 246.906181 
L 97.827512 246.502173 
L 98.009624 246.502173 
L 98.10068 245.290149 
L 98.282792 245.290149 
L 98.282792 244.886141 
L 98.464904 244.886141 
L 98.464904 244.482133 
L 98.829128 244.482133 
L 98.829128 243.674117 
L 99.01124 243.674117 
L 99.102296 241.654077 
L 99.193352 241.654077 
L 99.284408 240.442053 
L 99.375464 240.442053 
L 99.375464 240.038045 
L 99.648631 240.038045 
L 99.648631 239.634037 
L 99.830743 239.634037 
L 99.830743 239.230029 
L 100.103911 239.230029 
L 100.194967 238.422013 
L 100.286023 238.422013 
L 100.286023 236.401973 
L 100.650247 236.401973 
L 100.650247 235.997965 
L 100.923415 235.997965 
L 101.014471 233.977925 
L 101.105527 233.977925 
L 101.196583 232.765901 
L 101.287639 232.765901 
L 101.378695 230.341852 
L 101.742918 230.341852 
L 101.742918 229.937844 
L 102.016086 229.937844 
L 102.016086 229.129828 
L 102.198198 229.129828 
L 102.289254 228.321812 
L 102.471366 228.321812 
L 102.562422 227.513796 
L 102.653478 227.513796 
L 102.744534 226.70578 
L 102.83559 226.70578 
L 102.926646 225.493756 
L 103.017702 225.493756 
L 103.108758 223.473716 
L 103.29087 223.473716 
L 103.29087 222.6657 
L 103.928261 222.6657 
L 103.928261 221.857684 
L 104.110373 221.857684 
L 104.201429 220.241652 
L 104.292485 220.241652 
L 104.292485 219.433636 
L 104.929877 219.433636 
L 105.020933 218.62562 
L 105.111989 218.62562 
L 105.203045 217.413596 
L 105.385157 217.413596 
L 105.385157 217.009588 
L 105.658324 217.009588 
L 105.658324 216.60558 
L 105.840436 216.60558 
L 105.840436 215.797564 
L 106.022548 215.797564 
L 106.113604 214.58554 
L 106.20466 214.58554 
L 106.20466 213.777524 
L 106.750996 213.777524 
L 106.750996 211.757484 
L 106.933108 211.757484 
L 106.933108 211.353476 
L 107.479444 211.353476 
L 107.479444 210.54546 
L 107.934723 210.54546 
L 107.934723 209.333436 
L 108.116835 209.333436 
L 108.116835 208.929428 
L 108.298947 208.929428 
L 108.298947 208.52542 
L 108.481059 208.52542 
L 108.572115 207.313396 
L 108.663171 207.313396 
L 108.663171 206.909388 
L 109.391619 206.909388 
L 109.482675 205.293355 
L 109.755842 205.293355 
L 109.755842 204.889347 
L 109.937954 204.889347 
L 109.937954 204.081331 
L 110.120066 204.081331 
L 110.120066 203.677323 
L 110.48429 203.677323 
L 110.575346 202.465299 
L 110.757458 202.465299 
L 110.848514 201.657283 
L 110.93957 201.657283 
L 110.93957 200.849267 
L 111.212738 200.849267 
L 111.303794 199.233235 
L 111.39485 199.233235 
L 111.39485 198.829227 
L 111.576962 198.829227 
L 111.668018 196.809187 
L 111.850129 196.809187 
L 111.850129 196.405179 
L 112.214353 196.405179 
L 112.214353 196.001171 
L 112.669633 196.001171 
L 112.669633 195.597163 
L 113.033857 195.597163 
L 113.033857 194.789147 
L 113.489137 194.789147 
L 113.489137 194.385139 
L 113.762304 194.385139 
L 113.762304 193.981131 
L 113.944416 193.981131 
L 113.944416 193.173115 
L 114.126528 193.173115 
L 114.217584 191.961091 
L 114.30864 191.961091 
L 114.399696 191.153075 
L 114.581808 191.153075 
L 114.672864 190.345059 
L 115.128144 190.345059 
L 115.128144 189.537043 
L 115.401312 189.537043 
L 115.401312 188.729027 
L 115.765536 188.729027 
L 115.765536 188.325019 
L 115.947647 188.325019 
L 115.947647 187.517003 
L 116.585039 187.517003 
L 116.585039 186.708987 
L 117.040319 186.708987 
L 117.040319 186.304979 
L 117.222431 186.304979 
L 117.222431 185.900971 
L 117.495599 185.900971 
L 117.495599 185.496963 
L 117.859822 185.496963 
L 117.859822 185.092955 
L 118.224046 185.092955 
L 118.224046 184.284939 
L 118.406158 184.284939 
L 118.497214 183.476923 
L 118.58827 183.476923 
L 118.679326 182.668907 
L 118.861438 182.668907 
L 118.952494 181.456883 
L 119.225662 181.456883 
L 119.316718 180.244858 
L 120.136221 180.244858 
L 120.227277 179.436842 
L 120.409389 179.436842 
L 120.500445 178.628826 
L 120.864669 178.628826 
L 120.864669 177.012794 
L 121.137837 177.012794 
L 121.137837 176.608786 
L 121.411005 176.608786 
L 121.411005 175.396762 
L 121.866285 175.396762 
L 121.95734 174.184738 
L 122.048396 174.184738 
L 122.139452 173.376722 
L 122.685788 173.376722 
L 122.685788 172.972714 
L 123.687404 172.972714 
L 123.687404 172.568706 
L 124.051627 172.568706 
L 124.051627 172.164698 
L 124.324795 172.164698 
L 124.415851 170.952674 
L 124.506907 170.952674 
L 124.597963 169.74065 
L 124.689019 169.74065 
L 124.689019 169.336642 
L 124.871131 169.336642 
L 124.871131 168.932634 
L 125.053243 168.932634 
L 125.053243 168.124618 
L 125.417467 168.124618 
L 125.417467 167.316602 
L 125.599579 167.316602 
L 125.599579 166.912594 
L 125.781691 166.912594 
L 125.781691 165.70057 
L 125.963803 165.70057 
L 126.054858 164.892554 
L 126.419082 164.892554 
L 126.419082 164.488546 
L 126.874362 164.488546 
L 126.874362 163.68053 
L 127.238586 163.68053 
L 127.238586 162.872514 
L 127.60281 162.872514 
L 127.693866 161.66049 
L 128.149145 161.66049 
L 128.149145 160.852474 
L 128.695481 160.852474 
L 128.695481 159.236442 
L 129.332873 159.236442 
L 129.332873 158.832434 
L 129.514985 158.832434 
L 129.514985 157.62041 
L 129.697097 157.62041 
L 129.697097 157.216402 
L 129.879209 157.216402 
L 129.879209 156.812394 
L 130.425544 156.812394 
L 130.425544 156.408386 
L 130.607656 156.408386 
L 130.698712 155.600369 
L 130.880824 155.600369 
L 130.880824 155.196361 
L 131.609272 155.196361 
L 131.609272 154.792353 
L 132.064552 154.792353 
L 132.064552 153.984337 
L 133.521447 153.984337 
L 133.612503 153.176321 
L 134.067783 153.176321 
L 134.158838 152.368305 
L 134.249894 152.368305 
L 134.34095 151.560289 
L 134.523062 151.560289 
L 134.523062 151.156281 
L 135.069398 151.156281 
L 135.069398 150.752273 
L 135.433622 150.752273 
L 135.433622 149.944257 
L 136.253125 149.944257 
L 136.253125 149.540249 
L 136.526293 149.540249 
L 136.526293 148.328225 
L 137.163685 148.328225 
L 137.163685 147.520209 
L 137.345797 147.520209 
L 137.345797 146.712193 
L 137.527909 146.712193 
L 137.527909 146.308185 
L 137.801077 146.308185 
L 137.801077 144.692153 
L 138.074245 144.692153 
L 138.165301 143.480129 
L 138.711636 143.480129 
L 138.711636 143.076121 
L 139.622196 143.076121 
L 139.622196 142.672113 
L 139.895364 142.672113 
L 139.895364 142.268105 
L 140.077476 142.268105 
L 140.077476 141.864097 
L 140.259587 141.864097 
L 140.259587 141.056081 
L 141.443315 141.056081 
L 141.443315 140.652073 
L 142.627042 140.652073 
L 142.627042 140.248065 
L 142.90021 140.248065 
L 142.90021 139.440049 
L 143.446546 139.440049 
L 143.537602 138.632033 
L 143.992882 138.632033 
L 143.992882 137.824017 
L 144.26605 137.824017 
L 144.26605 137.420009 
L 146.087169 137.420009 
L 146.178225 136.611993 
L 146.633504 136.611993 
L 146.72456 135.803977 
L 147.17984 135.803977 
L 147.17984 134.187945 
L 147.544064 134.187945 
L 147.544064 133.783937 
L 148.181456 133.783937 
L 148.181456 133.379929 
L 148.636735 133.379929 
L 148.636735 132.975921 
L 149.274127 132.975921 
L 149.274127 132.571913 
L 150.275743 132.571913 
L 150.275743 132.167905 
L 150.54891 132.167905 
L 150.54891 131.359889 
L 150.731022 131.359889 
L 150.731022 130.955881 
L 150.913134 130.955881 
L 151.00419 130.147864 
L 152.643197 130.147864 
L 152.734253 127.723816 
L 152.916365 127.723816 
L 153.007421 126.107784 
L 153.280589 126.107784 
L 153.280589 125.299768 
L 153.553757 125.299768 
L 153.553757 124.89576 
L 155.101708 124.89576 
L 155.101708 124.087744 
L 155.648044 124.087744 
L 155.648044 123.683736 
L 156.19438 123.683736 
L 156.285436 122.87572 
L 156.558604 122.87572 
L 156.558604 122.471712 
L 157.195995 122.471712 
L 157.195995 122.067704 
L 157.378107 122.067704 
L 157.378107 121.663696 
L 157.651275 121.663696 
L 157.651275 121.259688 
L 158.106555 121.259688 
L 158.106555 120.451672 
L 159.10817 120.451672 
L 159.10817 119.643656 
L 159.472394 119.643656 
L 159.472394 119.239648 
L 160.656121 119.239648 
L 160.656121 118.431632 
L 160.929289 118.431632 
L 160.929289 118.027624 
L 161.202457 118.027624 
L 161.202457 117.219608 
L 161.839849 117.219608 
L 161.839849 116.8156 
L 162.021961 116.8156 
L 162.021961 116.411592 
L 162.93252 116.411592 
L 162.93252 116.007584 
L 164.29836 116.007584 
L 164.29836 115.603576 
L 165.208919 115.603576 
L 165.208919 115.199568 
L 165.391031 115.199568 
L 165.482087 113.583536 
L 167.030038 113.583536 
L 167.030038 113.179528 
L 169.033269 113.179528 
L 169.033269 112.77552 
L 170.672277 112.77552 
L 170.672277 112.371512 
L 171.127556 112.371512 
L 171.127556 111.967504 
L 172.220228 111.967504 
L 172.220228 111.563496 
L 172.40234 111.563496 
L 172.40234 111.159488 
L 172.766564 111.159488 
L 172.766564 110.75548 
L 173.039731 110.75548 
L 173.039731 110.351472 
L 174.041347 110.351472 
L 174.041347 109.947464 
L 174.314515 109.947464 
L 174.314515 109.543456 
L 174.678739 109.543456 
L 174.678739 109.139448 
L 175.862466 109.139448 
L 175.953522 108.331432 
L 178.047809 108.331432 
L 178.047809 107.927424 
L 181.963215 107.927424 
L 181.963215 107.119408 
L 185.514397 107.119408 
L 185.514397 106.7154 
L 185.878621 106.7154 
L 185.878621 106.311392 
L 187.972908 106.311392 
L 187.972908 105.907384 
L 188.428188 105.907384 
L 188.428188 105.503376 
L 188.701356 105.503376 
L 188.701356 105.099367 
L 189.156636 105.099367 
L 189.156636 104.695359 
L 189.338747 104.695359 
L 189.338747 104.291351 
L 189.702971 104.291351 
L 189.702971 103.887343 
L 191.250922 103.887343 
L 191.250922 103.483335 
L 196.71428 103.483335 
L 196.71428 103.079327 
L 198.171175 103.079327 
L 198.171175 102.675319 
L 198.626455 102.675319 
L 198.626455 102.271311 
L 201.176022 102.271311 
L 201.176022 101.867303 
L 202.268693 101.867303 
L 202.268693 101.463295 
L 202.815029 101.463295 
L 202.815029 101.059287 
L 205.091428 101.059287 
L 205.091428 100.655279 
L 205.546707 100.655279 
L 205.637763 99.847263 
L 206.093043 99.847263 
L 206.184099 98.231231 
L 206.366211 98.231231 
L 206.366211 97.827223 
L 207.003603 97.827223 
L 207.094659 97.019207 
L 207.914162 97.019207 
L 207.914162 96.615199 
L 209.09789 96.615199 
L 209.09789 96.211191 
L 209.280002 96.211191 
L 209.280002 95.807183 
L 211.465345 95.807183 
L 211.465345 95.403175 
L 212.01168 95.403175 
L 212.01168 94.999167 
L 214.288079 94.999167 
L 214.288079 94.595159 
L 215.653919 94.595159 
L 215.653919 94.191151 
L 215.83603 94.191151 
L 215.83603 93.787143 
L 216.564478 93.787143 
L 216.564478 92.575119 
L 217.748206 92.575119 
L 217.748206 92.171111 
L 218.021373 92.171111 
L 218.021373 91.767103 
L 218.931933 91.767103 
L 218.931933 91.363095 
L 220.479884 91.363095 
L 220.479884 90.959087 
L 221.02622 90.959087 
L 221.02622 90.555079 
L 222.209947 90.555079 
L 222.209947 90.151071 
L 222.483115 90.151071 
L 222.483115 89.747063 
L 227.126969 89.747063 
L 227.126969 89.343055 
L 230.131815 89.343055 
L 230.131815 88.939047 
L 233.500886 88.939047 
L 233.500886 88.535039 
L 239.237411 88.535039 
L 239.237411 88.131031 
L 241.05853 88.131031 
L 241.05853 87.727023 
L 241.422754 87.727023 
L 241.422754 87.323015 
L 243.243873 87.323015 
L 243.243873 86.514999 
L 244.700768 86.514999 
L 244.700768 85.706983 
L 245.064992 85.706983 
L 245.064992 85.302975 
L 245.247104 85.302975 
L 245.247104 84.494959 
L 246.521887 84.494959 
L 246.521887 84.090951 
L 246.886111 84.090951 
L 246.886111 83.686943 
L 247.796671 83.686943 
L 247.796671 83.282935 
L 252.622636 83.282935 
L 252.622636 82.878927 
L 255.809595 82.878927 
L 255.809595 82.474919 
L 257.812826 82.474919 
L 257.812826 82.070911 
L 259.269721 82.070911 
L 259.269721 81.666903 
L 259.542889 81.666903 
L 259.542889 81.262895 
L 261.54612 81.262895 
L 261.637176 80.454879 
L 262.638791 80.454879 
L 262.638791 80.05087 
L 264.368855 80.05087 
L 264.368855 79.646862 
L 265.916806 79.646862 
L 265.916806 79.242854 
L 267.464757 79.242854 
L 267.464757 78.838846 
L 269.741156 78.838846 
L 269.741156 78.434838 
L 270.651716 78.434838 
L 270.651716 78.03083 
L 273.201282 78.03083 
L 273.201282 77.626822 
L 275.750849 77.626822 
L 275.750849 77.222814 
L 277.207744 77.222814 
L 277.207744 76.818806 
L 278.755696 76.818806 
L 278.755696 76.414798 
L 279.028863 76.414798 
L 279.028863 76.01079 
L 279.484143 76.01079 
L 279.484143 75.606782 
L 281.942654 75.606782 
L 281.942654 75.202774 
L 282.580046 75.202774 
L 282.580046 74.394758 
L 283.763773 74.394758 
L 283.763773 73.99075 
L 284.036941 73.99075 
L 284.036941 73.586742 
L 285.949116 73.586742 
L 286.040172 72.778726 
L 286.76862 72.778726 
L 286.76862 71.97071 
L 289.773466 71.97071 
L 289.773466 71.566702 
L 290.13769 71.566702 
L 290.13769 71.162694 
L 291.958809 71.162694 
L 291.958809 70.758686 
L 293.779928 70.758686 
L 293.779928 70.354678 
L 294.599432 70.354678 
L 294.599432 69.95067 
L 296.147383 69.95067 
L 296.147383 69.546662 
L 297.877446 69.546662 
L 297.877446 69.142654 
L 298.24167 69.142654 
L 298.24167 68.738646 
L 299.971733 68.738646 
L 299.971733 68.334638 
L 301.519684 68.334638 
L 301.519684 67.93063 
L 303.158692 67.93063 
L 303.158692 67.526622 
L 303.522915 67.526622 
L 303.613971 66.718606 
L 308.075713 66.718606 
L 308.075713 66.314598 
L 310.261056 66.314598 
L 310.261056 65.91059 
L 312.173231 65.91059 
L 312.173231 65.506582 
L 314.085406 65.506582 
L 314.085406 65.102574 
L 315.087022 65.102574 
L 315.087022 64.698566 
L 316.452861 64.698566 
L 316.452861 64.294558 
L 318.091868 64.294558 
L 318.091868 63.89055 
L 319.457708 63.89055 
L 319.457708 63.486542 
L 320.823547 63.486542 
L 320.823547 63.082534 
L 324.010505 63.082534 
L 324.010505 62.678526 
L 324.556841 62.678526 
L 324.556841 62.274518 
L 325.285289 62.274518 
L 325.285289 61.87051 
L 327.379576 61.87051 
L 327.379576 61.466502 
L 331.659206 61.466502 
L 331.659206 61.062494 
L 340.218465 61.062494 
L 340.218465 60.658486 
L 346.683438 60.658486 
L 346.683438 60.254478 
L 347.138718 60.254478 
L 347.138718 59.85047 
L 349.779341 59.85047 
L 349.779341 59.446462 
L 352.419963 59.446462 
L 352.419963 59.042454 
L 354.51425 59.042454 
L 354.51425 58.638446 
L 355.151642 58.638446 
L 355.151642 58.234438 
L 355.42481 58.234438 
L 355.42481 57.83043 
L 359.431272 57.83043 
L 359.431272 57.426422 
L 361.616615 57.426422 
L 361.616615 57.022414 
L 362.709286 57.022414 
L 362.709286 56.618406 
L 364.075126 56.618406 
L 364.075126 56.214398 
L 372.907553 56.214398 
L 372.907553 55.81039 
L 377.096127 55.81039 
L 377.096127 55.406382 
L 385.382219 55.406382 
L 385.382219 55.002373 
L 388.204954 55.002373 
L 388.204954 54.598365 
L 391.847192 54.598365 
L 391.847192 54.194357 
L 402.136515 54.194357 
L 402.136515 53.790349 
L 406.325089 53.790349 
L 406.325089 53.386341 
L 407.781984 53.386341 
L 407.781984 52.982333 
L 408.419376 52.982333 
L 408.419376 52.578325 
L 410.331551 52.578325 
L 410.331551 52.174317 
L 415.885964 52.174317 
L 415.885964 51.770309 
L 418.253419 51.770309 
L 418.253419 51.366301 
L 420.074538 51.366301 
L 420.074538 50.962293 
L 422.715161 50.962293 
L 422.715161 50.558285 
L 445.752318 50.558285 
L 445.752318 50.154277 
L 449.030332 50.154277 
L 449.030332 49.750269 
L 450.851451 49.750269 
L 450.851451 49.346261 
L 453.12785 49.346261 
L 453.12785 48.942253 
L 453.401018 48.942253 
L 453.401018 48.538245 
L 469.608978 48.538245 
L 469.608978 48.134237 
L 471.065873 48.134237 
L 471.065873 47.730229 
L 478.259294 47.730229 
L 478.259294 47.326221 
L 494.740422 47.326221 
L 494.740422 46.922213 
L 508.125647 46.922213 
L 508.125647 46.518205 
L 516.411739 46.518205 
L 516.411739 46.114197 
L 531.618084 46.114197 
L 531.618084 45.710189 
L 537.627777 45.710189 
L 537.627777 45.306181 
L 539.266784 45.306181 
L 539.266784 44.902173 
L 542.817966 44.902173 
L 542.817966 44.498165 
L 572.866431 44.498165 
L 572.866431 43.690149 
L 573.048543 43.690149 
L 573.048543 42.882133 
L 573.959103 42.882133 
L 573.959103 42.478125 
L 576.417614 42.478125 
L 576.417614 42.478125 
" clip-path="url(#p9816229ae6)" style="fill: none; stroke: #1f77b4; stroke-width: 1.5; stroke-linecap: square"/>
   </g>
   <g id="line2d_14">
    <path d="M 69.144886 445.678125 
L 69.243386 445.678125 
L 69.341885 441.984256 
L 69.440385 441.984256 
L 69.538885 439.99525 
L 69.637384 439.99525 
L 69.637384 439.711106 
L 69.834383 439.711106 
L 69.932883 437.153812 
L 70.129882 437.153812 
L 70.228382 434.312374 
L 70.425381 434.312374 
L 70.52388 432.323368 
L 70.720879 432.323368 
L 70.819379 430.334362 
L 70.917878 430.334362 
L 71.016378 427.20878 
L 71.114878 427.20878 
L 71.213377 424.93563 
L 71.311877 424.93563 
L 71.410376 422.66248 
L 71.508876 422.66248 
L 71.607375 420.673474 
L 71.705875 420.673474 
L 71.804374 418.11618 
L 71.902874 418.11618 
L 72.001374 416.979605 
L 72.099873 416.979605 
L 72.099873 416.127174 
L 72.493871 416.127174 
L 72.592371 413.56988 
L 72.69087 413.56988 
L 72.78937 411.580873 
L 72.88787 411.580873 
L 72.986369 410.728442 
L 73.084869 410.728442 
L 73.183368 408.455292 
L 73.281868 408.455292 
L 73.380367 407.034573 
L 73.478867 407.034573 
L 73.478867 406.466286 
L 73.675866 406.466286 
L 73.675866 405.613854 
L 73.872865 405.613854 
L 73.971365 404.761423 
L 74.069864 404.761423 
L 74.168364 403.056561 
L 74.266863 403.056561 
L 74.266863 402.772417 
L 74.463863 402.772417 
L 74.562362 400.78341 
L 74.857861 400.78341 
L 74.857861 400.499267 
L 75.05486 400.499267 
L 75.153359 399.362692 
L 75.251859 399.362692 
L 75.350359 397.089541 
L 75.448858 397.089541 
L 75.547358 393.111529 
L 75.645857 393.111529 
L 75.744357 390.270091 
L 75.842856 390.270091 
L 75.842856 389.985947 
L 76.039855 389.985947 
L 76.138355 386.292078 
L 76.236855 386.292078 
L 76.335354 385.439647 
L 76.532353 385.439647 
L 76.630853 384.018928 
L 76.729352 384.018928 
L 76.827852 382.882353 
L 76.926352 382.882353 
L 77.024851 382.314066 
L 77.123351 382.314066 
L 77.123351 382.029922 
L 77.32035 382.029922 
L 77.418849 378.620197 
L 77.517349 378.620197 
L 77.615848 371.800747 
L 77.714348 371.800747 
L 77.714348 371.516603 
L 77.911347 371.516603 
L 78.009847 369.527596 
L 78.108346 369.527596 
L 78.206846 367.254446 
L 78.305345 367.254446 
L 78.403845 366.117871 
L 78.502344 366.117871 
L 78.600844 365.26544 
L 78.699344 365.26544 
L 78.797843 362.708146 
L 78.896343 362.708146 
L 78.994842 361.003284 
L 79.093342 361.003284 
L 79.191841 359.298421 
L 79.290341 359.298421 
L 79.290341 357.877702 
L 79.58584 357.877702 
L 79.58584 357.593558 
L 79.782839 357.593558 
L 79.881338 354.752121 
L 79.979838 354.752121 
L 79.979838 354.467977 
L 80.176837 354.467977 
L 80.275336 352.478971 
L 80.570835 352.478971 
L 80.669335 351.910683 
L 80.767834 351.910683 
L 80.767834 351.058252 
L 81.063333 351.058252 
L 81.161833 349.921677 
L 81.260332 349.921677 
L 81.358832 347.93267 
L 81.555831 347.93267 
L 81.555831 347.364383 
L 81.75283 347.364383 
L 81.851329 345.943664 
L 81.949829 345.943664 
L 82.048329 344.807089 
L 82.343827 344.807089 
L 82.442327 343.670514 
L 82.540826 343.670514 
L 82.639326 342.818083 
L 82.737825 342.818083 
L 82.737825 341.681508 
L 82.934825 341.681508 
L 83.033324 340.260789 
L 83.131824 340.260789 
L 83.230323 338.84007 
L 83.427322 338.84007 
L 83.525822 337.135207 
L 83.624321 337.135207 
L 83.624321 336.851064 
L 83.821321 336.851064 
L 83.821321 336.56692 
L 84.313818 336.56692 
L 84.412318 334.862057 
L 84.510818 334.862057 
L 84.609317 333.725482 
L 84.806316 333.725482 
L 84.806316 333.157195 
L 85.003315 333.157195 
L 85.101815 331.736476 
L 85.298814 331.736476 
L 85.397314 329.463326 
L 85.495813 329.463326 
L 85.495813 328.610895 
L 85.692812 328.610895 
L 85.791312 328.042607 
L 85.988311 328.042607 
L 85.988311 327.758463 
L 86.18531 327.758463 
L 86.28381 326.337744 
L 86.382309 326.337744 
L 86.382309 326.053601 
L 86.677808 326.053601 
L 86.677808 325.485313 
L 86.874807 325.485313 
L 86.973306 323.780451 
L 87.071806 323.780451 
L 87.170306 322.928019 
L 87.268805 322.928019 
L 87.367305 322.075588 
L 87.465804 322.075588 
L 87.564304 320.370725 
L 87.662803 320.370725 
L 87.761303 318.950007 
L 87.958302 318.950007 
L 88.056802 318.097575 
L 88.253801 318.097575 
L 88.3523 317.245144 
L 88.647799 317.245144 
L 88.647799 316.961 
L 88.844798 316.961 
L 88.943298 315.256138 
L 89.041797 315.256138 
L 89.041797 314.68785 
L 89.534295 314.68785 
L 89.632795 312.982988 
L 89.829794 312.982988 
L 89.928293 310.993981 
L 90.125292 310.993981 
L 90.223792 307.584256 
L 90.322291 307.584256 
L 90.420791 306.447681 
L 90.519291 306.447681 
L 90.61779 302.753812 
L 90.814789 302.753812 
L 90.913289 299.628231 
L 91.011788 299.628231 
L 91.011788 298.491656 
L 91.208788 298.491656 
L 91.307287 296.218506 
L 91.504286 296.218506 
L 91.504286 295.934362 
L 91.701285 295.934362 
L 91.799785 293.092924 
L 91.996784 293.092924 
L 91.996784 292.80878 
L 92.292283 292.80878 
L 92.292283 292.240493 
L 92.489282 292.240493 
L 92.489282 291.956349 
L 92.78478 291.956349 
L 92.88328 289.967343 
L 93.080279 289.967343 
L 93.178779 288.830768 
L 93.375778 288.830768 
L 93.375778 287.978336 
L 93.572777 287.978336 
L 93.572777 287.410049 
L 93.769776 287.410049 
L 93.769776 287.125905 
L 93.966775 287.125905 
L 94.065275 286.273474 
L 94.262274 286.273474 
L 94.360773 285.421043 
L 94.459273 285.421043 
L 94.459273 285.136899 
L 94.656272 285.136899 
L 94.656272 284.568611 
L 94.853271 284.568611 
L 94.951771 283.147892 
L 95.05027 283.147892 
L 95.14877 281.727174 
L 95.444269 281.727174 
L 95.444269 281.44303 
L 95.641268 281.44303 
L 95.641268 281.158886 
L 95.936766 281.158886 
L 96.035266 280.590599 
L 96.133765 280.590599 
L 96.133765 279.16988 
L 96.527764 279.16988 
L 96.527764 278.601592 
L 96.724763 278.601592 
L 96.823262 277.180873 
L 96.921762 277.180873 
L 97.020261 275.760155 
L 97.118761 275.760155 
L 97.118761 274.339436 
L 97.512759 274.339436 
L 97.512759 274.055292 
L 97.709758 274.055292 
L 97.709758 273.202861 
L 97.906758 273.202861 
L 98.005257 272.634573 
L 98.202256 272.634573 
L 98.300756 272.066286 
L 98.399255 272.066286 
L 98.497755 270.929711 
L 98.596254 270.929711 
L 98.694754 268.372417 
L 98.793254 268.372417 
L 98.793254 267.804129 
L 99.48275 267.804129 
L 99.48275 267.235842 
L 99.67975 267.235842 
L 99.778249 265.246835 
L 100.172247 265.246835 
L 100.172247 264.962692 
L 100.369246 264.962692 
L 100.467746 264.394404 
L 100.566246 264.394404 
L 100.664745 263.541973 
L 100.861744 263.541973 
L 100.861744 263.257829 
L 101.058743 263.257829 
L 101.058743 262.689541 
L 101.255742 262.689541 
L 101.354242 261.268823 
L 101.452742 261.268823 
L 101.551241 259.848104 
L 101.945239 259.848104 
L 101.945239 258.427385 
L 102.142239 258.427385 
L 102.142239 258.143241 
L 102.733236 258.143241 
L 102.733236 257.574954 
L 103.028735 257.574954 
L 103.127234 256.438379 
L 103.324233 256.438379 
L 103.422733 255.585947 
L 103.619732 255.585947 
L 103.718231 254.733516 
L 103.816731 254.733516 
L 103.915231 253.881085 
L 104.11223 253.881085 
L 104.210729 253.028654 
L 104.309229 253.028654 
L 104.309229 252.176222 
L 104.604727 252.176222 
L 104.604727 251.892078 
L 104.801727 251.892078 
L 104.801727 251.323791 
L 104.998726 251.323791 
L 105.097225 250.47136 
L 105.195725 250.47136 
L 105.294224 249.618928 
L 105.491224 249.618928 
L 105.589723 249.050641 
L 105.688223 249.050641 
L 105.786722 248.19821 
L 105.885222 248.19821 
L 105.983721 247.061635 
L 106.082221 247.061635 
L 106.082221 246.777491 
L 106.27922 246.777491 
L 106.37772 245.356772 
L 106.574719 245.356772 
L 106.673218 244.788484 
L 106.870217 244.788484 
L 106.968717 244.220197 
L 107.264216 244.220197 
L 107.264216 243.936053 
L 107.658214 243.936053 
L 107.658214 243.367766 
L 108.150712 243.367766 
L 108.150712 243.083622 
L 108.44621 243.083622 
L 108.44621 242.799478 
L 108.643209 242.799478 
L 108.643209 242.231191 
L 108.840209 242.231191 
L 108.938708 241.378759 
L 109.037208 241.378759 
L 109.135707 240.526328 
L 109.234207 240.526328 
L 109.332706 239.95804 
L 109.628205 239.95804 
L 109.726705 238.821465 
L 109.825204 238.821465 
L 109.825204 237.969034 
L 110.120703 237.969034 
L 110.120703 237.400747 
L 110.317702 237.400747 
L 110.317702 236.832459 
L 110.7117 236.832459 
L 110.7117 236.548315 
L 110.908699 236.548315 
L 110.908699 235.980028 
L 111.401197 235.980028 
L 111.401197 234.843453 
L 111.696696 234.843453 
L 111.696696 234.559309 
L 111.893695 234.559309 
L 111.992194 233.13859 
L 112.090694 233.13859 
L 112.090694 232.570303 
L 112.287693 232.570303 
L 112.386193 232.002015 
L 112.484692 232.002015 
L 112.583192 231.433728 
L 112.780191 231.433728 
L 112.87869 230.581296 
L 113.174189 230.581296 
L 113.272689 229.728865 
L 113.469688 229.728865 
L 113.469688 229.444721 
L 113.666687 229.444721 
L 113.666687 229.160577 
L 113.863686 229.160577 
L 113.962186 228.308146 
L 114.060685 228.308146 
L 114.159185 227.455715 
L 114.454683 227.455715 
L 114.454683 226.034996 
L 114.750182 226.034996 
L 114.848682 224.04599 
L 115.045681 224.04599 
L 115.14418 223.477702 
L 115.24268 223.477702 
L 115.341179 222.056983 
L 115.636678 222.056983 
L 115.735178 220.920408 
L 116.720173 220.920408 
L 116.818673 220.352121 
L 117.015672 220.352121 
L 117.015672 220.067977 
L 117.311171 220.067977 
L 117.40967 219.215546 
L 117.50817 219.215546 
L 117.606669 218.363114 
L 117.705169 218.363114 
L 117.705169 218.078971 
L 117.902168 218.078971 
L 117.902168 217.794827 
L 118.099167 217.794827 
L 118.099167 217.226539 
L 118.394666 217.226539 
L 118.394666 215.521677 
L 118.591665 215.521677 
L 118.591665 214.669246 
L 118.788664 214.669246 
L 118.887164 214.100958 
L 119.281162 214.100958 
L 119.379661 213.248527 
L 119.57666 213.248527 
L 119.67516 212.111952 
L 119.77366 212.111952 
L 119.77366 211.543664 
L 119.970659 211.543664 
L 120.069158 210.691233 
L 120.167658 210.691233 
L 120.167658 210.407089 
L 120.660156 210.407089 
L 120.660156 209.838802 
L 121.054154 209.838802 
L 121.152653 208.418083 
L 121.743651 208.418083 
L 121.743651 207.849795 
L 121.94065 207.849795 
L 121.94065 206.997364 
L 122.137649 206.997364 
L 122.137649 206.71322 
L 122.334648 206.71322 
L 122.334648 206.429076 
L 122.531647 206.429076 
L 122.630147 205.860789 
L 122.728646 205.860789 
L 122.827146 204.44007 
L 123.024145 204.44007 
L 123.024145 204.155926 
L 123.221144 204.155926 
L 123.221144 203.587639 
L 123.615142 203.587639 
L 123.615142 203.303495 
L 123.812141 203.303495 
L 123.910641 202.16692 
L 124.10764 202.16692 
L 124.10764 201.882776 
L 124.895637 201.882776 
L 124.895637 201.598632 
L 125.289635 201.598632 
L 125.388134 201.030345 
L 125.880632 201.030345 
L 125.979132 200.462057 
L 126.077631 200.462057 
L 126.176131 199.89377 
L 126.37313 199.89377 
L 126.47163 199.325482 
L 126.570129 199.325482 
L 126.570129 199.041339 
L 126.767128 199.041339 
L 126.767128 198.757195 
L 127.062627 198.757195 
L 127.161126 197.62062 
L 127.752124 197.62062 
L 127.752124 197.052332 
L 128.047622 197.052332 
L 128.146122 194.779182 
L 128.244622 194.779182 
L 128.244622 194.210895 
L 128.441621 194.210895 
L 128.54012 193.07432 
L 128.835619 193.07432 
L 128.835619 191.653601 
L 129.032618 191.653601 
L 129.131118 190.801169 
L 129.328117 190.801169 
L 129.328117 190.232882 
L 129.525116 190.232882 
L 129.623615 189.380451 
L 130.214613 189.380451 
L 130.214613 188.812163 
L 130.411612 188.812163 
L 130.411612 188.243876 
L 130.608611 188.243876 
L 130.608611 187.959732 
L 130.80561 187.959732 
L 130.80561 187.391444 
L 131.199608 187.391444 
L 131.199608 187.1073 
L 131.987605 187.1073 
L 131.987605 186.823157 
L 132.480103 186.823157 
L 132.480103 186.539013 
L 133.1696 186.539013 
L 133.1696 186.254869 
L 133.465098 186.254869 
L 133.563598 185.402438 
L 133.760597 185.402438 
L 133.859096 184.83415 
L 133.957596 184.83415 
L 134.056096 184.265863 
L 134.351594 184.265863 
L 134.351594 183.697575 
L 134.548593 183.697575 
L 134.548593 183.129288 
L 135.139591 183.129288 
L 135.139591 182.845144 
L 136.420085 182.845144 
L 136.518585 182.276857 
L 136.715584 182.276857 
L 136.715584 181.992713 
L 136.912583 181.992713 
L 136.912583 181.140281 
L 137.306581 181.140281 
L 137.306581 179.719563 
L 137.60208 179.719563 
L 137.60208 179.151275 
L 138.291577 179.151275 
L 138.291577 178.298844 
L 138.587075 178.298844 
L 138.587075 178.0147 
L 138.981073 178.0147 
L 139.079573 177.162269 
L 139.375072 177.162269 
L 139.375072 176.878125 
L 139.572071 176.878125 
L 139.572071 176.593981 
L 139.86757 176.593981 
L 139.86757 175.74155 
L 140.064569 175.74155 
L 140.163068 174.604975 
L 140.360067 174.604975 
L 140.458567 174.036687 
L 141.049564 174.036687 
L 141.049564 173.752544 
L 141.246563 173.752544 
L 141.246563 173.4684 
L 142.03456 173.4684 
L 142.133059 171.763537 
L 142.330058 171.763537 
L 142.428558 170.626962 
L 142.724057 170.626962 
L 142.724057 170.058675 
L 143.019555 170.058675 
L 143.019555 169.774531 
L 144.20155 169.774531 
L 144.20155 169.206243 
L 144.497049 169.206243 
L 144.497049 168.353812 
L 144.989547 168.353812 
L 144.989547 168.069668 
L 145.580544 168.069668 
L 145.679043 167.501381 
L 145.876043 167.501381 
L 145.876043 166.933093 
L 146.171541 166.933093 
L 146.171541 166.64895 
L 146.46704 166.64895 
L 146.46704 166.364806 
L 146.664039 166.364806 
L 146.664039 166.080662 
L 146.959538 166.080662 
L 146.959538 165.796518 
L 147.452036 165.796518 
L 147.452036 165.228231 
L 147.944533 165.228231 
L 147.944533 164.659943 
L 148.141532 164.659943 
L 148.240032 163.807512 
L 148.63403 163.807512 
L 148.63403 163.523368 
L 149.126528 163.523368 
L 149.126528 163.239224 
L 149.816025 163.239224 
L 149.816025 162.670937 
L 150.111524 162.670937 
L 150.210023 161.250218 
L 150.89952 161.250218 
L 150.89952 160.966074 
L 151.096519 160.966074 
L 151.096519 160.68193 
L 152.081515 160.68193 
L 152.081515 160.397787 
L 152.475513 160.397787 
L 152.475513 159.829499 
L 153.362009 159.829499 
L 153.362009 159.261212 
L 154.051506 159.261212 
L 154.150006 158.692924 
L 154.347005 158.692924 
L 154.445504 157.556349 
L 154.642503 157.556349 
L 154.642503 156.988062 
L 154.839502 156.988062 
L 154.839502 156.703918 
L 155.036502 156.703918 
L 155.036502 156.419774 
L 155.725998 156.419774 
L 155.824498 155.567343 
L 156.415495 155.567343 
L 156.513995 154.999055 
L 156.809494 154.999055 
L 156.809494 154.430768 
L 157.301991 154.430768 
L 157.301991 154.146624 
L 158.089988 154.146624 
L 158.089988 153.86248 
L 158.976484 153.86248 
L 158.976484 153.578336 
L 159.468982 153.578336 
L 159.468982 153.294193 
L 160.355478 153.294193 
L 160.355478 153.010049 
L 160.552477 153.010049 
L 160.552477 152.725905 
L 160.749476 152.725905 
L 160.749476 152.441761 
L 160.946475 152.441761 
L 161.044975 151.873474 
L 161.340473 151.873474 
L 161.340473 151.58933 
L 162.02997 151.58933 
L 162.02997 151.305186 
L 162.325469 151.305186 
L 162.325469 151.021043 
L 162.620968 151.021043 
L 162.620968 150.452755 
L 162.916466 150.452755 
L 162.916466 150.168611 
L 163.211965 150.168611 
L 163.211965 149.600324 
L 163.999961 149.600324 
L 164.098461 148.747892 
L 164.492459 148.747892 
L 164.590959 148.179605 
L 164.787958 148.179605 
L 164.787958 147.895461 
L 165.674454 147.895461 
L 165.674454 147.611317 
L 165.871453 147.611317 
L 165.871453 147.327174 
L 167.545945 147.327174 
L 167.545945 147.04303 
L 170.008434 147.04303 
L 170.008434 146.474742 
L 170.205434 146.474742 
L 170.205434 146.190599 
L 170.402433 146.190599 
L 170.500932 145.338167 
L 170.697931 145.338167 
L 170.697931 145.054024 
L 171.584427 145.054024 
L 171.584427 144.76988 
L 172.569423 144.76988 
L 172.569423 144.485736 
L 172.766422 144.485736 
L 172.766422 144.201592 
L 173.061921 144.201592 
L 173.061921 143.917448 
L 173.455919 143.917448 
L 173.455919 143.633305 
L 173.652918 143.633305 
L 173.652918 142.780873 
L 175.130412 142.780873 
L 175.130412 142.49673 
L 175.327411 142.49673 
L 175.327411 141.928442 
L 175.52441 141.928442 
L 175.622909 141.360155 
L 175.918408 141.360155 
L 175.918408 141.076011 
L 176.410906 141.076011 
L 176.410906 140.791867 
L 176.607905 140.791867 
L 176.607905 140.507723 
L 176.903404 140.507723 
L 176.903404 139.939436 
L 177.100403 139.939436 
L 177.100403 139.655292 
L 178.479397 139.655292 
L 178.479397 139.371148 
L 178.873395 139.371148 
L 178.873395 139.087004 
L 179.070394 139.087004 
L 179.070394 138.802861 
L 179.464392 138.802861 
L 179.464392 138.518717 
L 179.759891 138.518717 
L 179.759891 137.950429 
L 180.153889 137.950429 
L 180.153889 137.666286 
L 180.449388 137.666286 
L 180.449388 137.382142 
L 182.025381 137.382142 
L 182.025381 137.097998 
L 182.911877 137.097998 
L 182.911877 136.813854 
L 183.502874 136.813854 
L 183.502874 136.529711 
L 184.48787 136.529711 
L 184.586369 135.961423 
L 184.881868 135.961423 
L 184.881868 135.393136 
L 185.275866 135.393136 
L 185.275866 134.824848 
L 186.162362 134.824848 
L 186.162362 134.256561 
L 187.738355 134.256561 
L 187.738355 133.972417 
L 188.92035 133.972417 
L 188.92035 133.688273 
L 189.511347 133.688273 
L 189.609847 132.835842 
L 190.397843 132.835842 
L 190.397843 132.551698 
L 190.791841 132.551698 
L 190.791841 132.267554 
L 191.579838 132.267554 
L 191.579838 131.98341 
L 192.072336 131.98341 
L 192.170835 131.415123 
L 192.663333 131.415123 
L 192.761833 130.278548 
L 192.958832 130.278548 
L 193.057331 129.71026 
L 193.549829 129.71026 
L 193.648329 129.141973 
L 193.845328 129.141973 
L 193.845328 128.857829 
L 194.436325 128.857829 
L 194.436325 128.573685 
L 195.61832 128.573685 
L 195.61832 128.005398 
L 195.815319 128.005398 
L 195.815319 127.721254 
L 196.110818 127.721254 
L 196.110818 127.43711 
L 196.997314 127.43711 
L 196.997314 127.152966 
L 197.588311 127.152966 
L 197.588311 126.868823 
L 197.88381 126.868823 
L 197.88381 126.584679 
L 198.474807 126.584679 
L 198.474807 126.300535 
L 198.967305 126.300535 
L 199.065804 125.732248 
L 199.164304 125.732248 
L 199.262803 125.16396 
L 200.543298 125.16396 
L 200.641797 124.595673 
L 201.134295 124.595673 
L 201.134295 124.311529 
L 201.823792 124.311529 
L 201.823792 124.027385 
L 202.020791 124.027385 
L 202.020791 123.743241 
L 202.414789 123.743241 
L 202.414789 123.459098 
L 202.710288 123.459098 
L 202.710288 122.606666 
L 203.498284 122.606666 
L 203.498284 122.322522 
L 203.892283 122.322522 
L 203.892283 122.038379 
L 204.187781 122.038379 
L 204.187781 121.470091 
L 205.074277 121.470091 
L 205.172777 120.61766 
L 206.059273 120.61766 
L 206.157773 120.049372 
L 206.354772 120.049372 
L 206.354772 119.765229 
L 206.945769 119.765229 
L 207.044269 119.196941 
L 207.241268 119.196941 
L 207.241268 118.912797 
L 208.029264 118.912797 
L 208.029264 118.628654 
L 208.324763 118.628654 
L 208.324763 118.060366 
L 210.097755 118.060366 
L 210.097755 117.776222 
L 212.166246 117.776222 
L 212.166246 117.492078 
L 212.757243 117.492078 
L 212.855742 116.639647 
L 213.34824 116.639647 
L 213.34824 116.355503 
L 215.219732 116.355503 
L 215.219732 116.07136 
L 215.909229 116.07136 
L 215.909229 115.787216 
L 217.682221 115.787216 
L 217.682221 115.503072 
L 218.962715 115.503072 
L 218.962715 115.218928 
L 219.356713 115.218928 
L 219.455213 114.650641 
L 220.14471 114.650641 
L 220.14471 114.366497 
L 220.637208 114.366497 
L 220.637208 114.082353 
L 220.834207 114.082353 
L 220.834207 113.514066 
L 221.425204 113.514066 
L 221.425204 113.229922 
L 222.016201 113.229922 
L 222.016201 112.945778 
L 223.001197 112.945778 
L 223.001197 112.661635 
L 223.395195 112.661635 
L 223.395195 112.377491 
L 224.67569 112.377491 
L 224.67569 112.093347 
L 225.759185 112.093347 
L 225.759185 111.809203 
L 226.547181 111.809203 
L 226.547181 111.525059 
L 226.941179 111.525059 
L 226.941179 111.240916 
L 227.630676 111.240916 
L 227.630676 110.956772 
L 228.812671 110.956772 
L 228.812671 110.388484 
L 229.502168 110.388484 
L 229.502168 110.104341 
L 230.290164 110.104341 
L 230.290164 109.251909 
L 230.585663 109.251909 
L 230.585663 108.967766 
L 230.782662 108.967766 
L 230.782662 108.399478 
L 231.767658 108.399478 
L 231.767658 108.115334 
L 232.063156 108.115334 
L 232.063156 107.547047 
L 232.358655 107.547047 
L 232.358655 107.262903 
L 233.343651 107.262903 
L 233.343651 106.694615 
L 235.609141 106.694615 
L 235.609141 106.410472 
L 236.003139 106.410472 
L 236.003139 106.126328 
L 236.495637 106.126328 
L 236.495637 105.842184 
L 237.480632 105.842184 
L 237.480632 105.55804 
L 238.07163 105.55804 
L 238.07163 104.989753 
L 240.337119 104.989753 
L 240.337119 104.705609 
L 241.322115 104.705609 
L 241.322115 104.421465 
L 243.489105 104.421465 
L 243.489105 104.137322 
L 243.686104 104.137322 
L 243.686104 103.853178 
L 244.966599 103.853178 
L 244.966599 103.569034 
L 245.163598 103.569034 
L 245.163598 103.000747 
L 246.050094 103.000747 
L 246.050094 102.716603 
L 247.133589 102.716603 
L 247.232088 101.864172 
L 248.315584 101.864172 
L 248.315584 101.580028 
L 250.187075 101.580028 
L 250.187075 101.295884 
L 251.073571 101.295884 
L 251.073571 101.01174 
L 251.763068 101.01174 
L 251.763068 100.727596 
L 252.354066 100.727596 
L 252.452565 100.159309 
L 253.240562 100.159309 
L 253.240562 99.875165 
L 254.225557 99.875165 
L 254.225557 99.591021 
L 254.619555 99.591021 
L 254.619555 99.022734 
L 255.407552 99.022734 
L 255.407552 98.73859 
L 256.392547 98.73859 
L 256.392547 98.454446 
L 258.953536 98.454446 
L 259.052036 97.602015 
L 260.037031 97.602015 
L 260.037031 97.317871 
L 260.33253 97.317871 
L 260.33253 97.033728 
L 260.825028 97.033728 
L 260.825028 96.749584 
L 261.416025 96.749584 
L 261.416025 96.46544 
L 262.302521 96.46544 
L 262.302521 95.897152 
L 262.795019 95.897152 
L 262.893518 95.328865 
L 263.189017 95.328865 
L 263.189017 95.044721 
L 264.272512 95.044721 
L 264.272512 94.760577 
L 264.568011 94.760577 
L 264.568011 94.476434 
L 265.060509 94.476434 
L 265.060509 94.19229 
L 265.553006 94.19229 
L 265.553006 93.908146 
L 266.439502 93.908146 
L 266.439502 93.624002 
L 267.522998 93.624002 
L 267.522998 93.339859 
L 268.212494 93.339859 
L 268.212494 92.771571 
L 269.394489 92.771571 
L 269.394489 92.203284 
L 269.689988 92.203284 
L 269.689988 91.91914 
L 271.758479 91.91914 
L 271.856978 91.350852 
L 272.053977 91.350852 
L 272.053977 91.066709 
L 272.546475 91.066709 
L 272.546475 90.498421 
L 274.319467 90.498421 
L 274.417967 89.64599 
L 274.910464 89.64599 
L 274.910464 89.361846 
L 275.304463 89.361846 
L 275.304463 88.793558 
L 275.698461 88.793558 
L 275.698461 88.509415 
L 277.668452 88.509415 
L 277.668452 88.225271 
L 277.865451 88.225271 
L 277.865451 87.941127 
L 279.539944 87.941127 
L 279.539944 87.656983 
L 280.32794 87.656983 
L 280.32794 87.088696 
L 280.524939 87.088696 
L 280.524939 86.520408 
L 281.509935 86.520408 
L 281.509935 86.236265 
L 281.706934 86.236265 
L 281.706934 85.952121 
L 282.199432 85.952121 
L 282.199432 85.667977 
L 283.479926 85.667977 
L 283.578426 84.815546 
L 283.676925 84.815546 
L 283.676925 84.531402 
L 284.464922 84.531402 
L 284.464922 84.247258 
L 285.449917 84.247258 
L 285.449917 83.963114 
L 286.237914 83.963114 
L 286.237914 83.678971 
L 286.828911 83.678971 
L 286.927411 83.110683 
L 288.306404 83.110683 
L 288.306404 82.826539 
L 288.601903 82.826539 
L 288.601903 82.542396 
L 288.897402 82.542396 
L 288.995901 81.689964 
L 289.2914 81.689964 
L 289.2914 81.405821 
L 291.162892 81.405821 
L 291.162892 81.121677 
L 292.049388 81.121677 
L 292.049388 80.837533 
L 292.246387 80.837533 
L 292.246387 80.553389 
L 293.329882 80.553389 
L 293.329882 79.985102 
L 293.82238 79.985102 
L 293.82238 79.700958 
L 295.102874 79.700958 
L 295.102874 79.416814 
L 295.496872 79.416814 
L 295.496872 79.13267 
L 297.565363 79.13267 
L 297.565363 78.848527 
L 299.633854 78.848527 
L 299.633854 78.564383 
L 300.717349 78.564383 
L 300.717349 78.280239 
L 301.603845 78.280239 
L 301.603845 77.996095 
L 301.800844 77.996095 
L 301.800844 77.711952 
L 301.997843 77.711952 
L 301.997843 77.427808 
L 303.770835 77.427808 
L 303.770835 77.143664 
L 304.164833 77.143664 
L 304.164833 76.85952 
L 305.149829 76.85952 
L 305.149829 76.575377 
L 305.642327 76.575377 
L 305.642327 76.291233 
L 306.528823 76.291233 
L 306.528823 76.007089 
L 307.11982 76.007089 
L 307.11982 75.722945 
L 309.28681 75.722945 
L 309.28681 75.438802 
L 309.779308 75.438802 
L 309.877808 74.870514 
L 310.271806 74.870514 
L 310.271806 74.58637 
L 311.059803 74.58637 
L 311.059803 74.302226 
L 313.325292 74.302226 
L 313.325292 74.018083 
L 313.91629 74.018083 
L 313.91629 73.449795 
L 314.605787 73.449795 
L 314.605787 73.165651 
L 315.098284 73.165651 
L 315.098284 72.881508 
L 315.689282 72.881508 
L 315.689282 72.597364 
L 316.18178 72.597364 
L 316.18178 72.31322 
L 317.363774 72.31322 
L 317.363774 72.029076 
L 319.235266 72.029076 
L 319.235266 71.744933 
L 320.909758 71.744933 
L 320.909758 71.460789 
L 321.303757 71.460789 
L 321.303757 71.176645 
L 324.751241 71.176645 
L 324.751241 70.892501 
L 325.637737 70.892501 
L 325.637737 70.608358 
L 326.130235 70.608358 
L 326.130235 70.324214 
L 326.819732 70.324214 
L 326.819732 69.471783 
L 332.828205 69.471783 
L 332.828205 69.187639 
L 333.320703 69.187639 
L 333.320703 68.903495 
L 336.17719 68.903495 
L 336.17719 68.619351 
L 338.245681 68.619351 
L 338.245681 68.335207 
L 338.738179 68.335207 
L 338.836678 67.76692 
L 341.102168 67.76692 
L 341.102168 67.482776 
L 341.791665 67.482776 
L 341.791665 67.198632 
L 342.087164 67.198632 
L 342.087164 66.914489 
L 342.284163 66.914489 
L 342.284163 66.630345 
L 344.254154 66.630345 
L 344.254154 66.346201 
L 344.648152 66.346201 
L 344.648152 66.062057 
L 344.845151 66.062057 
L 344.845151 65.777914 
L 346.027146 65.777914 
L 346.027146 65.49377 
L 348.391135 65.49377 
L 348.391135 65.209626 
L 349.57313 65.209626 
L 349.57313 64.925482 
L 349.770129 64.925482 
L 349.770129 64.641339 
L 350.952124 64.641339 
L 350.952124 64.357195 
L 351.937119 64.357195 
L 351.937119 64.073051 
L 354.301109 64.073051 
L 354.301109 63.788907 
L 355.877102 63.788907 
L 355.877102 63.504763 
L 359.226087 63.504763 
L 359.226087 63.22062 
L 360.112583 63.22062 
L 360.112583 62.936476 
L 360.605081 62.936476 
L 360.605081 62.652332 
L 361.097578 62.652332 
L 361.097578 62.368188 
L 363.06757 62.368188 
L 363.06757 62.084045 
L 364.348064 62.084045 
L 364.348064 61.799901 
L 365.628558 61.799901 
L 365.628558 61.515757 
L 367.894048 61.515757 
L 367.894048 61.231613 
L 368.386546 61.231613 
L 368.386546 60.94747 
L 372.622027 60.94747 
L 372.622027 60.663326 
L 372.917525 60.663326 
L 372.917525 60.379182 
L 375.971012 60.379182 
L 375.971012 60.095038 
L 379.910994 60.095038 
L 379.910994 59.810895 
L 380.600491 59.810895 
L 380.600491 59.526751 
L 383.358479 59.526751 
L 383.358479 59.242607 
L 384.540473 59.242607 
L 384.540473 58.958463 
L 385.32847 58.958463 
L 385.32847 58.67432 
L 390.647446 58.67432 
L 390.647446 58.390176 
L 392.617437 58.390176 
L 392.617437 58.106032 
L 394.29193 58.106032 
L 394.29193 57.821888 
L 394.981427 57.821888 
L 394.981427 57.537744 
L 395.966422 57.537744 
L 395.966422 57.253601 
L 396.45892 57.253601 
L 396.45892 56.969457 
L 397.148417 56.969457 
L 397.148417 56.685313 
L 397.345416 56.685313 
L 397.345416 56.401169 
L 399.118408 56.401169 
L 399.118408 56.117026 
L 405.126881 56.117026 
L 405.126881 55.832882 
L 407.68787 55.832882 
L 407.68787 55.548738 
L 409.657861 55.548738 
L 409.657861 55.264594 
L 412.514348 55.264594 
L 412.514348 54.980451 
L 412.711347 54.980451 
L 412.711347 54.696307 
L 420.098814 54.696307 
L 420.098814 54.412163 
L 420.788311 54.412163 
L 420.788311 54.128019 
L 422.167305 54.128019 
L 422.167305 53.843876 
L 435.464745 53.843876 
L 435.464745 53.559732 
L 436.942239 53.559732 
L 436.942239 53.275588 
L 440.488223 53.275588 
L 440.488223 52.991444 
L 441.276219 52.991444 
L 441.276219 52.7073 
L 442.359714 52.7073 
L 442.359714 52.423157 
L 444.822203 52.423157 
L 444.822203 52.139013 
L 445.117702 52.139013 
L 445.117702 51.854869 
L 445.314701 51.854869 
L 445.314701 51.570725 
L 452.012671 51.570725 
L 452.012671 51.286582 
L 462.453624 51.286582 
L 462.453624 51.002438 
L 464.029617 51.002438 
L 464.029617 50.718294 
L 465.507111 50.718294 
L 465.507111 50.43415 
L 467.181603 50.43415 
L 467.181603 50.150007 
L 471.614083 50.150007 
L 471.614083 49.865863 
L 481.661038 49.865863 
L 481.661038 49.581719 
L 485.79802 49.581719 
L 485.79802 49.297575 
L 486.881515 49.297575 
L 486.881515 49.013432 
L 489.147005 49.013432 
L 489.147005 48.729288 
L 503.035442 48.729288 
L 503.035442 48.445144 
L 503.52794 48.445144 
L 503.52794 48.161 
L 507.172424 48.161 
L 507.172424 47.876857 
L 509.043915 47.876857 
L 509.043915 47.592713 
L 512.294401 47.592713 
L 512.294401 47.308569 
L 528.743827 47.308569 
L 528.743827 47.024425 
L 530.713818 47.024425 
L 530.812318 46.456138 
L 535.047799 46.456138 
L 535.047799 46.171994 
L 536.820791 46.171994 
L 536.820791 45.88785 
L 540.662274 45.88785 
L 540.662274 45.603706 
L 544.011259 45.603706 
L 544.011259 45.319563 
L 556.323704 45.319563 
L 556.323704 45.035419 
L 572.182133 45.035419 
L 572.182133 44.751275 
L 572.87163 44.751275 
L 572.87163 44.182988 
L 573.068629 44.182988 
L 573.167128 43.330556 
L 573.955125 43.330556 
L 573.955125 43.046413 
L 574.349123 43.046413 
L 574.447622 42.478125 
L 576.417614 42.478125 
L 576.417614 42.478125 
" clip-path="url(#p9816229ae6)" style="fill: none; stroke: #ff7f0e; stroke-width: 1.5; stroke-linecap: square"/>
   </g>
   <g id="line2d_15">
    <path d="M 69.144886 445.678125 
L 576.417614 42.478125 
" clip-path="url(#p9816229ae6)" style="fill: none; stroke-dasharray: 5.55,2.4; stroke-dashoffset: 0; stroke: #ff0000; stroke-width: 1.5"/>
   </g>
   <g id="patch_3">
    <path d="M 43.78125 465.838125 
L 43.78125 22.318125 
" style="fill: none; stroke: #000000; stroke-width: 0.8; stroke-linejoin: miter; stroke-linecap: square"/>
   </g>
   <g id="patch_4">
    <path d="M 601.78125 465.838125 
L 601.78125 22.318125 
" style="fill: none; stroke: #000000; stroke-width: 0.8; stroke-linejoin: miter; stroke-linecap: square"/>
   </g>
   <g id="patch_5">
    <path d="M 43.78125 465.838125 
L 601.78125 465.838125 
" style="fill: none; stroke: #000000; stroke-width: 0.8; stroke-linejoin: miter; stroke-linecap: square"/>
   </g>
   <g id="patch_6">
    <path d="M 43.78125 22.318125 
L 601.78125 22.318125 
" style="fill: none; stroke: #000000; stroke-width: 0.8; stroke-linejoin: miter; stroke-linecap: square"/>
   </g>
   <g id="text_15">
    <!-- AUC ROC: 4 Variable KFRE -->
    <g transform="translate(243.9075 16.318125) scale(0.12 -0.12)">
     <defs>
      <path id="DejaVuSans-41" d="M 2188 4044 
L 1331 1722 
L 3047 1722 
L 2188 4044 
z
M 1831 4666 
L 2547 4666 
L 4325 0 
L 3669 0 
L 3244 1197 
L 1141 1197 
L 716 0 
L 50 0 
L 1831 4666 
z
" transform="scale(0.015625)"/>
      <path id="DejaVuSans-55" d="M 556 4666 
L 1191 4666 
L 1191 1831 
Q 1191 1081 1462 751 
Q 1734 422 2344 422 
Q 2950 422 3222 751 
Q 3494 1081 3494 1831 
L 3494 4666 
L 4128 4666 
L 4128 1753 
Q 4128 841 3676 375 
Q 3225 -91 2344 -91 
Q 1459 -91 1007 375 
Q 556 841 556 1753 
L 556 4666 
z
" transform="scale(0.015625)"/>
      <path id="DejaVuSans-43" d="M 4122 4306 
L 4122 3641 
Q 3803 3938 3442 4084 
Q 3081 4231 2675 4231 
Q 1875 4231 1450 3742 
Q 1025 3253 1025 2328 
Q 1025 1406 1450 917 
Q 1875 428 2675 428 
Q 3081 428 3442 575 
Q 3803 722 4122 1019 
L 4122 359 
Q 3791 134 3420 21 
Q 3050 -91 2638 -91 
Q 1578 -91 968 557 
Q 359 1206 359 2328 
Q 359 3453 968 4101 
Q 1578 4750 2638 4750 
Q 3056 4750 3426 4639 
Q 3797 4528 4122 4306 
z
" transform="scale(0.015625)"/>
      <path id="DejaVuSans-52" d="M 2841 2188 
Q 3044 2119 3236 1894 
Q 3428 1669 3622 1275 
L 4263 0 
L 3584 0 
L 2988 1197 
Q 2756 1666 2539 1819 
Q 2322 1972 1947 1972 
L 1259 1972 
L 1259 0 
L 628 0 
L 628 4666 
L 2053 4666 
Q 2853 4666 3247 4331 
Q 3641 3997 3641 3322 
Q 3641 2881 3436 2590 
Q 3231 2300 2841 2188 
z
M 1259 4147 
L 1259 2491 
L 2053 2491 
Q 2509 2491 2742 2702 
Q 2975 2913 2975 3322 
Q 2975 3731 2742 3939 
Q 2509 4147 2053 4147 
L 1259 4147 
z
" transform="scale(0.015625)"/>
      <path id="DejaVuSans-4f" d="M 2522 4238 
Q 1834 4238 1429 3725 
Q 1025 3213 1025 2328 
Q 1025 1447 1429 934 
Q 1834 422 2522 422 
Q 3209 422 3611 934 
Q 4013 1447 4013 2328 
Q 4013 3213 3611 3725 
Q 3209 4238 2522 4238 
z
M 2522 4750 
Q 3503 4750 4090 4092 
Q 4678 3434 4678 2328 
Q 4678 1225 4090 567 
Q 3503 -91 2522 -91 
Q 1538 -91 948 565 
Q 359 1222 359 2328 
Q 359 3434 948 4092 
Q 1538 4750 2522 4750 
z
" transform="scale(0.015625)"/>
      <path id="DejaVuSans-3a" d="M 750 794 
L 1409 794 
L 1409 0 
L 750 0 
L 750 794 
z
M 750 3309 
L 1409 3309 
L 1409 2516 
L 750 2516 
L 750 3309 
z
" transform="scale(0.015625)"/>
      <path id="DejaVuSans-56" d="M 1831 0 
L 50 4666 
L 709 4666 
L 2188 738 
L 3669 4666 
L 4325 4666 
L 2547 0 
L 1831 0 
z
" transform="scale(0.015625)"/>
      <path id="DejaVuSans-61" d="M 2194 1759 
Q 1497 1759 1228 1600 
Q 959 1441 959 1056 
Q 959 750 1161 570 
Q 1363 391 1709 391 
Q 2188 391 2477 730 
Q 2766 1069 2766 1631 
L 2766 1759 
L 2194 1759 
z
M 3341 1997 
L 3341 0 
L 2766 0 
L 2766 531 
Q 2569 213 2275 61 
Q 1981 -91 1556 -91 
Q 1019 -91 701 211 
Q 384 513 384 1019 
Q 384 1609 779 1909 
Q 1175 2209 1959 2209 
L 2766 2209 
L 2766 2266 
Q 2766 2663 2505 2880 
Q 2244 3097 1772 3097 
Q 1472 3097 1187 3025 
Q 903 2953 641 2809 
L 641 3341 
Q 956 3463 1253 3523 
Q 1550 3584 1831 3584 
Q 2591 3584 2966 3190 
Q 3341 2797 3341 1997 
z
" transform="scale(0.015625)"/>
      <path id="DejaVuSans-72" d="M 2631 2963 
Q 2534 3019 2420 3045 
Q 2306 3072 2169 3072 
Q 1681 3072 1420 2755 
Q 1159 2438 1159 1844 
L 1159 0 
L 581 0 
L 581 3500 
L 1159 3500 
L 1159 2956 
Q 1341 3275 1631 3429 
Q 1922 3584 2338 3584 
Q 2397 3584 2469 3576 
Q 2541 3569 2628 3553 
L 2631 2963 
z
" transform="scale(0.015625)"/>
      <path id="DejaVuSans-62" d="M 3116 1747 
Q 3116 2381 2855 2742 
Q 2594 3103 2138 3103 
Q 1681 3103 1420 2742 
Q 1159 2381 1159 1747 
Q 1159 1113 1420 752 
Q 1681 391 2138 391 
Q 2594 391 2855 752 
Q 3116 1113 3116 1747 
z
M 1159 2969 
Q 1341 3281 1617 3432 
Q 1894 3584 2278 3584 
Q 2916 3584 3314 3078 
Q 3713 2572 3713 1747 
Q 3713 922 3314 415 
Q 2916 -91 2278 -91 
Q 1894 -91 1617 61 
Q 1341 213 1159 525 
L 1159 0 
L 581 0 
L 581 4863 
L 1159 4863 
L 1159 2969 
z
" transform="scale(0.015625)"/>
      <path id="DejaVuSans-6c" d="M 603 4863 
L 1178 4863 
L 1178 0 
L 603 0 
L 603 4863 
z
" transform="scale(0.015625)"/>
      <path id="DejaVuSans-4b" d="M 628 4666 
L 1259 4666 
L 1259 2694 
L 3353 4666 
L 4166 4666 
L 1850 2491 
L 4331 0 
L 3500 0 
L 1259 2247 
L 1259 0 
L 628 0 
L 628 4666 
z
" transform="scale(0.015625)"/>
      <path id="DejaVuSans-46" d="M 628 4666 
L 3309 4666 
L 3309 4134 
L 1259 4134 
L 1259 2759 
L 3109 2759 
L 3109 2228 
L 1259 2228 
L 1259 0 
L 628 0 
L 628 4666 
z
" transform="scale(0.015625)"/>
      <path id="DejaVuSans-45" d="M 628 4666 
L 3578 4666 
L 3578 4134 
L 1259 4134 
L 1259 2753 
L 3481 2753 
L 3481 2222 
L 1259 2222 
L 1259 531 
L 3634 531 
L 3634 0 
L 628 0 
L 628 4666 
z
" transform="scale(0.015625)"/>
     </defs>
     <use xlink:href="#DejaVuSans-41"/>
     <use xlink:href="#DejaVuSans-55" x="68.408203"/>
     <use xlink:href="#DejaVuSans-43" x="141.601562"/>
     <use xlink:href="#DejaVuSans-20" x="211.425781"/>
     <use xlink:href="#DejaVuSans-52" x="243.212891"/>
     <use xlink:href="#DejaVuSans-4f" x="312.695312"/>
     <use xlink:href="#DejaVuSans-43" x="391.40625"/>
     <use xlink:href="#DejaVuSans-3a" x="461.230469"/>
     <use xlink:href="#DejaVuSans-20" x="494.921875"/>
     <use xlink:href="#DejaVuSans-34" x="526.708984"/>
     <use xlink:href="#DejaVuSans-20" x="590.332031"/>
     <use xlink:href="#DejaVuSans-56" x="622.119141"/>
     <use xlink:href="#DejaVuSans-61" x="682.777344"/>
     <use xlink:href="#DejaVuSans-72" x="744.056641"/>
     <use xlink:href="#DejaVuSans-69" x="785.169922"/>
     <use xlink:href="#DejaVuSans-61" x="812.953125"/>
     <use xlink:href="#DejaVuSans-62" x="874.232422"/>
     <use xlink:href="#DejaVuSans-6c" x="937.708984"/>
     <use xlink:href="#DejaVuSans-65" x="965.492188"/>
     <use xlink:href="#DejaVuSans-20" x="1027.015625"/>
     <use xlink:href="#DejaVuSans-4b" x="1058.802734"/>
     <use xlink:href="#DejaVuSans-46" x="1124.378906"/>
     <use xlink:href="#DejaVuSans-52" x="1181.898438"/>
     <use xlink:href="#DejaVuSans-45" x="1251.380859"/>
    </g>
   </g>
   <g id="legend_1">
    <g id="patch_7">
     <path d="M 50.78125 59.674375 
L 284.307813 59.674375 
Q 286.307813 59.674375 286.307813 57.674375 
L 286.307813 29.318125 
Q 286.307813 27.318125 284.307813 27.318125 
L 50.78125 27.318125 
Q 48.78125 27.318125 48.78125 29.318125 
L 48.78125 57.674375 
Q 48.78125 59.674375 50.78125 59.674375 
z
" style="fill: #ffffff; opacity: 0.8; stroke: #cccccc; stroke-linejoin: miter"/>
    </g>
    <g id="line2d_16">
     <path d="M 52.78125 35.416562 
L 62.78125 35.416562 
L 72.78125 35.416562 
" style="fill: none; stroke: #1f77b4; stroke-width: 1.5; stroke-linecap: square"/>
    </g>
    <g id="text_16">
     <!-- 4-variable 2-year outcome (AUC = 0.88) -->
     <g transform="translate(80.78125 38.916562) scale(0.1 -0.1)">
      <defs>
       <path id="DejaVuSans-6f" d="M 1959 3097 
Q 1497 3097 1228 2736 
Q 959 2375 959 1747 
Q 959 1119 1226 758 
Q 1494 397 1959 397 
Q 2419 397 2687 759 
Q 2956 1122 2956 1747 
Q 2956 2369 2687 2733 
Q 2419 3097 1959 3097 
z
M 1959 3584 
Q 2709 3584 3137 3096 
Q 3566 2609 3566 1747 
Q 3566 888 3137 398 
Q 2709 -91 1959 -91 
Q 1206 -91 779 398 
Q 353 888 353 1747 
Q 353 2609 779 3096 
Q 1206 3584 1959 3584 
z
" transform="scale(0.015625)"/>
       <path id="DejaVuSans-75" d="M 544 1381 
L 544 3500 
L 1119 3500 
L 1119 1403 
Q 1119 906 1312 657 
Q 1506 409 1894 409 
Q 2359 409 2629 706 
Q 2900 1003 2900 1516 
L 2900 3500 
L 3475 3500 
L 3475 0 
L 2900 0 
L 2900 538 
Q 2691 219 2414 64 
Q 2138 -91 1772 -91 
Q 1169 -91 856 284 
Q 544 659 544 1381 
z
M 1991 3584 
L 1991 3584 
z
" transform="scale(0.015625)"/>
       <path id="DejaVuSans-6d" d="M 3328 2828 
Q 3544 3216 3844 3400 
Q 4144 3584 4550 3584 
Q 5097 3584 5394 3201 
Q 5691 2819 5691 2113 
L 5691 0 
L 5113 0 
L 5113 2094 
Q 5113 2597 4934 2840 
Q 4756 3084 4391 3084 
Q 3944 3084 3684 2787 
Q 3425 2491 3425 1978 
L 3425 0 
L 2847 0 
L 2847 2094 
Q 2847 2600 2669 2842 
Q 2491 3084 2119 3084 
Q 1678 3084 1418 2786 
Q 1159 2488 1159 1978 
L 1159 0 
L 581 0 
L 581 3500 
L 1159 3500 
L 1159 2956 
Q 1356 3278 1631 3431 
Q 1906 3584 2284 3584 
Q 2666 3584 2933 3390 
Q 3200 3197 3328 2828 
z
" transform="scale(0.015625)"/>
       <path id="DejaVuSans-28" d="M 1984 4856 
Q 1566 4138 1362 3434 
Q 1159 2731 1159 2009 
Q 1159 1288 1364 580 
Q 1569 -128 1984 -844 
L 1484 -844 
Q 1016 -109 783 600 
Q 550 1309 550 2009 
Q 550 2706 781 3412 
Q 1013 4119 1484 4856 
L 1984 4856 
z
" transform="scale(0.015625)"/>
       <path id="DejaVuSans-3d" d="M 678 2906 
L 4684 2906 
L 4684 2381 
L 678 2381 
L 678 2906 
z
M 678 1631 
L 4684 1631 
L 4684 1100 
L 678 1100 
L 678 1631 
z
" transform="scale(0.015625)"/>
       <path id="DejaVuSans-29" d="M 513 4856 
L 1013 4856 
Q 1481 4119 1714 3412 
Q 1947 2706 1947 2009 
Q 1947 1309 1714 600 
Q 1481 -109 1013 -844 
L 513 -844 
Q 928 -128 1133 580 
Q 1338 1288 1338 2009 
Q 1338 2731 1133 3434 
Q 928 4138 513 4856 
z
" transform="scale(0.015625)"/>
      </defs>
      <use xlink:href="#DejaVuSans-34"/>
      <use xlink:href="#DejaVuSans-2d" x="63.623047"/>
      <use xlink:href="#DejaVuSans-76" x="97.082031"/>
      <use xlink:href="#DejaVuSans-61" x="156.261719"/>
      <use xlink:href="#DejaVuSans-72" x="217.541016"/>
      <use xlink:href="#DejaVuSans-69" x="258.654297"/>
      <use xlink:href="#DejaVuSans-61" x="286.4375"/>
      <use xlink:href="#DejaVuSans-62" x="347.716797"/>
      <use xlink:href="#DejaVuSans-6c" x="411.193359"/>
      <use xlink:href="#DejaVuSans-65" x="438.976562"/>
      <use xlink:href="#DejaVuSans-20" x="500.5"/>
      <use xlink:href="#DejaVuSans-32" x="532.287109"/>
      <use xlink:href="#DejaVuSans-2d" x="595.910156"/>
      <use xlink:href="#DejaVuSans-79" x="630.244141"/>
      <use xlink:href="#DejaVuSans-65" x="689.423828"/>
      <use xlink:href="#DejaVuSans-61" x="750.947266"/>
      <use xlink:href="#DejaVuSans-72" x="812.226562"/>
      <use xlink:href="#DejaVuSans-20" x="853.339844"/>
      <use xlink:href="#DejaVuSans-6f" x="885.126953"/>
      <use xlink:href="#DejaVuSans-75" x="946.308594"/>
      <use xlink:href="#DejaVuSans-74" x="1009.6875"/>
      <use xlink:href="#DejaVuSans-63" x="1048.896484"/>
      <use xlink:href="#DejaVuSans-6f" x="1103.876953"/>
      <use xlink:href="#DejaVuSans-6d" x="1165.058594"/>
      <use xlink:href="#DejaVuSans-65" x="1262.470703"/>
      <use xlink:href="#DejaVuSans-20" x="1323.994141"/>
      <use xlink:href="#DejaVuSans-28" x="1355.78125"/>
      <use xlink:href="#DejaVuSans-41" x="1394.794922"/>
      <use xlink:href="#DejaVuSans-55" x="1463.203125"/>
      <use xlink:href="#DejaVuSans-43" x="1536.396484"/>
      <use xlink:href="#DejaVuSans-20" x="1606.220703"/>
      <use xlink:href="#DejaVuSans-3d" x="1638.007812"/>
      <use xlink:href="#DejaVuSans-20" x="1721.796875"/>
      <use xlink:href="#DejaVuSans-30" x="1753.583984"/>
      <use xlink:href="#DejaVuSans-2e" x="1817.207031"/>
      <use xlink:href="#DejaVuSans-38" x="1848.994141"/>
      <use xlink:href="#DejaVuSans-38" x="1912.617188"/>
      <use xlink:href="#DejaVuSans-29" x="1976.240234"/>
     </g>
    </g>
    <g id="line2d_17">
     <path d="M 52.78125 50.094687 
L 62.78125 50.094687 
L 72.78125 50.094687 
" style="fill: none; stroke: #ff7f0e; stroke-width: 1.5; stroke-linecap: square"/>
    </g>
    <g id="text_17">
     <!-- 4-variable 5-year outcome (AUC = 0.84) -->
     <g transform="translate(80.78125 53.594687) scale(0.1 -0.1)">
      <defs>
       <path id="DejaVuSans-35" d="M 691 4666 
L 3169 4666 
L 3169 4134 
L 1269 4134 
L 1269 2991 
Q 1406 3038 1543 3061 
Q 1681 3084 1819 3084 
Q 2600 3084 3056 2656 
Q 3513 2228 3513 1497 
Q 3513 744 3044 326 
Q 2575 -91 1722 -91 
Q 1428 -91 1123 -41 
Q 819 9 494 109 
L 494 744 
Q 775 591 1075 516 
Q 1375 441 1709 441 
Q 2250 441 2565 725 
Q 2881 1009 2881 1497 
Q 2881 1984 2565 2268 
Q 2250 2553 1709 2553 
Q 1456 2553 1204 2497 
Q 953 2441 691 2322 
L 691 4666 
z
" transform="scale(0.015625)"/>
      </defs>
      <use xlink:href="#DejaVuSans-34"/>
      <use xlink:href="#DejaVuSans-2d" x="63.623047"/>
      <use xlink:href="#DejaVuSans-76" x="97.082031"/>
      <use xlink:href="#DejaVuSans-61" x="156.261719"/>
      <use xlink:href="#DejaVuSans-72" x="217.541016"/>
      <use xlink:href="#DejaVuSans-69" x="258.654297"/>
      <use xlink:href="#DejaVuSans-61" x="286.4375"/>
      <use xlink:href="#DejaVuSans-62" x="347.716797"/>
      <use xlink:href="#DejaVuSans-6c" x="411.193359"/>
      <use xlink:href="#DejaVuSans-65" x="438.976562"/>
      <use xlink:href="#DejaVuSans-20" x="500.5"/>
      <use xlink:href="#DejaVuSans-35" x="532.287109"/>
      <use xlink:href="#DejaVuSans-2d" x="595.910156"/>
      <use xlink:href="#DejaVuSans-79" x="630.244141"/>
      <use xlink:href="#DejaVuSans-65" x="689.423828"/>
      <use xlink:href="#DejaVuSans-61" x="750.947266"/>
      <use xlink:href="#DejaVuSans-72" x="812.226562"/>
      <use xlink:href="#DejaVuSans-20" x="853.339844"/>
      <use xlink:href="#DejaVuSans-6f" x="885.126953"/>
      <use xlink:href="#DejaVuSans-75" x="946.308594"/>
      <use xlink:href="#DejaVuSans-74" x="1009.6875"/>
      <use xlink:href="#DejaVuSans-63" x="1048.896484"/>
      <use xlink:href="#DejaVuSans-6f" x="1103.876953"/>
      <use xlink:href="#DejaVuSans-6d" x="1165.058594"/>
      <use xlink:href="#DejaVuSans-65" x="1262.470703"/>
      <use xlink:href="#DejaVuSans-20" x="1323.994141"/>
      <use xlink:href="#DejaVuSans-28" x="1355.78125"/>
      <use xlink:href="#DejaVuSans-41" x="1394.794922"/>
      <use xlink:href="#DejaVuSans-55" x="1463.203125"/>
      <use xlink:href="#DejaVuSans-43" x="1536.396484"/>
      <use xlink:href="#DejaVuSans-20" x="1606.220703"/>
      <use xlink:href="#DejaVuSans-3d" x="1638.007812"/>
      <use xlink:href="#DejaVuSans-20" x="1721.796875"/>
      <use xlink:href="#DejaVuSans-30" x="1753.583984"/>
      <use xlink:href="#DejaVuSans-2e" x="1817.207031"/>
      <use xlink:href="#DejaVuSans-38" x="1848.994141"/>
      <use xlink:href="#DejaVuSans-34" x="1912.617188"/>
      <use xlink:href="#DejaVuSans-29" x="1976.240234"/>
     </g>
    </g>
   </g>
  </g>
 </g>
 <defs>
  <clipPath id="p9816229ae6">
   <rect x="43.78125" y="22.318125" width="558" height="443.52"/>
  </clipPath>
 </defs>
</svg>
