<?xml version="1.0" encoding="utf-8" standalone="no"?>
<!DOCTYPE svg PUBLIC "-//W3C//DTD SVG 1.1//EN"
  "http://www.w3.org/Graphics/SVG/1.1/DTD/svg11.dtd">
<svg xmlns:xlink="http://www.w3.org/1999/xlink" width="608.98125pt" height="503.394375pt" viewBox="0 0 608.98125 503.394375" xmlns="http://www.w3.org/2000/svg" version="1.1">
 <metadata>
  <rdf:RDF xmlns:dc="http://purl.org/dc/elements/1.1/" xmlns:cc="http://creativecommons.org/ns#" xmlns:rdf="http://www.w3.org/1999/02/22-rdf-syntax-ns#">
   <cc:Work>
    <dc:type rdf:resource="http://purl.org/dc/dcmitype/StillImage"/>
    <dc:date>2024-08-05T23:20:09.523637</dc:date>
    <dc:format>image/svg+xml</dc:format>
    <dc:creator>
     <cc:Agent>
      <dc:title>Matplotlib v3.9.0, https://matplotlib.org/</dc:title>
     </cc:Agent>
    </dc:creator>
   </cc:Work>
  </rdf:RDF>
 </metadata>
 <defs>
  <style type="text/css">*{stroke-linejoin: round; stroke-linecap: butt}</style>
 </defs>
 <g id="figure_1">
  <g id="patch_1">
   <path d="M 0 503.394375 
L 608.98125 503.394375 
L 608.98125 0 
L 0 0 
z
" style="fill: #ffffff"/>
  </g>
  <g id="axes_1">
   <g id="patch_2">
    <path d="M 43.78125 465.838125 
L 601.78125 465.838125 
L 601.78125 22.318125 
L 43.78125 22.318125 
z
" style="fill: #ffffff"/>
   </g>
   <g id="matplotlib.axis_1">
    <g id="xtick_1">
     <g id="line2d_1">
      <defs>
       <path id="mdef4c90250" d="M 0 0 
L 0 3.5 
" style="stroke: #000000; stroke-width: 0.8"/>
      </defs>
      <g>
       <use xlink:href="#mdef4c90250" x="69.144886" y="465.838125" style="stroke: #000000; stroke-width: 0.8"/>
      </g>
     </g>
     <g id="text_1">
      <!-- 0.0 -->
      <g transform="translate(61.193324 480.436562) scale(0.1 -0.1)">
       <defs>
        <path id="DejaVuSans-30" d="M 2034 4250 
Q 1547 4250 1301 3770 
Q 1056 3291 1056 2328 
Q 1056 1369 1301 889 
Q 1547 409 2034 409 
Q 2525 409 2770 889 
Q 3016 1369 3016 2328 
Q 3016 3291 2770 3770 
Q 2525 4250 2034 4250 
z
M 2034 4750 
Q 2819 4750 3233 4129 
Q 3647 3509 3647 2328 
Q 3647 1150 3233 529 
Q 2819 -91 2034 -91 
Q 1250 -91 836 529 
Q 422 1150 422 2328 
Q 422 3509 836 4129 
Q 1250 4750 2034 4750 
z
" transform="scale(0.015625)"/>
        <path id="DejaVuSans-2e" d="M 684 794 
L 1344 794 
L 1344 0 
L 684 0 
L 684 794 
z
" transform="scale(0.015625)"/>
       </defs>
       <use xlink:href="#DejaVuSans-30"/>
       <use xlink:href="#DejaVuSans-2e" x="63.623047"/>
       <use xlink:href="#DejaVuSans-30" x="95.410156"/>
      </g>
     </g>
    </g>
    <g id="xtick_2">
     <g id="line2d_2">
      <g>
       <use xlink:href="#mdef4c90250" x="170.599432" y="465.838125" style="stroke: #000000; stroke-width: 0.8"/>
      </g>
     </g>
     <g id="text_2">
      <!-- 0.2 -->
      <g transform="translate(162.647869 480.436562) scale(0.1 -0.1)">
       <defs>
        <path id="DejaVuSans-32" d="M 1228 531 
L 3431 531 
L 3431 0 
L 469 0 
L 469 531 
Q 828 903 1448 1529 
Q 2069 2156 2228 2338 
Q 2531 2678 2651 2914 
Q 2772 3150 2772 3378 
Q 2772 3750 2511 3984 
Q 2250 4219 1831 4219 
Q 1534 4219 1204 4116 
Q 875 4013 500 3803 
L 500 4441 
Q 881 4594 1212 4672 
Q 1544 4750 1819 4750 
Q 2544 4750 2975 4387 
Q 3406 4025 3406 3419 
Q 3406 3131 3298 2873 
Q 3191 2616 2906 2266 
Q 2828 2175 2409 1742 
Q 1991 1309 1228 531 
z
" transform="scale(0.015625)"/>
       </defs>
       <use xlink:href="#DejaVuSans-30"/>
       <use xlink:href="#DejaVuSans-2e" x="63.623047"/>
       <use xlink:href="#DejaVuSans-32" x="95.410156"/>
      </g>
     </g>
    </g>
    <g id="xtick_3">
     <g id="line2d_3">
      <g>
       <use xlink:href="#mdef4c90250" x="272.053977" y="465.838125" style="stroke: #000000; stroke-width: 0.8"/>
      </g>
     </g>
     <g id="text_3">
      <!-- 0.4 -->
      <g transform="translate(264.102415 480.436562) scale(0.1 -0.1)">
       <defs>
        <path id="DejaVuSans-34" d="M 2419 4116 
L 825 1625 
L 2419 1625 
L 2419 4116 
z
M 2253 4666 
L 3047 4666 
L 3047 1625 
L 3713 1625 
L 3713 1100 
L 3047 1100 
L 3047 0 
L 2419 0 
L 2419 1100 
L 313 1100 
L 313 1709 
L 2253 4666 
z
" transform="scale(0.015625)"/>
       </defs>
       <use xlink:href="#DejaVuSans-30"/>
       <use xlink:href="#DejaVuSans-2e" x="63.623047"/>
       <use xlink:href="#DejaVuSans-34" x="95.410156"/>
      </g>
     </g>
    </g>
    <g id="xtick_4">
     <g id="line2d_4">
      <g>
       <use xlink:href="#mdef4c90250" x="373.508523" y="465.838125" style="stroke: #000000; stroke-width: 0.8"/>
      </g>
     </g>
     <g id="text_4">
      <!-- 0.6 -->
      <g transform="translate(365.55696 480.436562) scale(0.1 -0.1)">
       <defs>
        <path id="DejaVuSans-36" d="M 2113 2584 
Q 1688 2584 1439 2293 
Q 1191 2003 1191 1497 
Q 1191 994 1439 701 
Q 1688 409 2113 409 
Q 2538 409 2786 701 
Q 3034 994 3034 1497 
Q 3034 2003 2786 2293 
Q 2538 2584 2113 2584 
z
M 3366 4563 
L 3366 3988 
Q 3128 4100 2886 4159 
Q 2644 4219 2406 4219 
Q 1781 4219 1451 3797 
Q 1122 3375 1075 2522 
Q 1259 2794 1537 2939 
Q 1816 3084 2150 3084 
Q 2853 3084 3261 2657 
Q 3669 2231 3669 1497 
Q 3669 778 3244 343 
Q 2819 -91 2113 -91 
Q 1303 -91 875 529 
Q 447 1150 447 2328 
Q 447 3434 972 4092 
Q 1497 4750 2381 4750 
Q 2619 4750 2861 4703 
Q 3103 4656 3366 4563 
z
" transform="scale(0.015625)"/>
       </defs>
       <use xlink:href="#DejaVuSans-30"/>
       <use xlink:href="#DejaVuSans-2e" x="63.623047"/>
       <use xlink:href="#DejaVuSans-36" x="95.410156"/>
      </g>
     </g>
    </g>
    <g id="xtick_5">
     <g id="line2d_5">
      <g>
       <use xlink:href="#mdef4c90250" x="474.963068" y="465.838125" style="stroke: #000000; stroke-width: 0.8"/>
      </g>
     </g>
     <g id="text_5">
      <!-- 0.8 -->
      <g transform="translate(467.011506 480.436562) scale(0.1 -0.1)">
       <defs>
        <path id="DejaVuSans-38" d="M 2034 2216 
Q 1584 2216 1326 1975 
Q 1069 1734 1069 1313 
Q 1069 891 1326 650 
Q 1584 409 2034 409 
Q 2484 409 2743 651 
Q 3003 894 3003 1313 
Q 3003 1734 2745 1975 
Q 2488 2216 2034 2216 
z
M 1403 2484 
Q 997 2584 770 2862 
Q 544 3141 544 3541 
Q 544 4100 942 4425 
Q 1341 4750 2034 4750 
Q 2731 4750 3128 4425 
Q 3525 4100 3525 3541 
Q 3525 3141 3298 2862 
Q 3072 2584 2669 2484 
Q 3125 2378 3379 2068 
Q 3634 1759 3634 1313 
Q 3634 634 3220 271 
Q 2806 -91 2034 -91 
Q 1263 -91 848 271 
Q 434 634 434 1313 
Q 434 1759 690 2068 
Q 947 2378 1403 2484 
z
M 1172 3481 
Q 1172 3119 1398 2916 
Q 1625 2713 2034 2713 
Q 2441 2713 2670 2916 
Q 2900 3119 2900 3481 
Q 2900 3844 2670 4047 
Q 2441 4250 2034 4250 
Q 1625 4250 1398 4047 
Q 1172 3844 1172 3481 
z
" transform="scale(0.015625)"/>
       </defs>
       <use xlink:href="#DejaVuSans-30"/>
       <use xlink:href="#DejaVuSans-2e" x="63.623047"/>
       <use xlink:href="#DejaVuSans-38" x="95.410156"/>
      </g>
     </g>
    </g>
    <g id="xtick_6">
     <g id="line2d_6">
      <g>
       <use xlink:href="#mdef4c90250" x="576.417614" y="465.838125" style="stroke: #000000; stroke-width: 0.8"/>
      </g>
     </g>
     <g id="text_6">
      <!-- 1.0 -->
      <g transform="translate(568.466051 480.436562) scale(0.1 -0.1)">
       <defs>
        <path id="DejaVuSans-31" d="M 794 531 
L 1825 531 
L 1825 4091 
L 703 3866 
L 703 4441 
L 1819 4666 
L 2450 4666 
L 2450 531 
L 3481 531 
L 3481 0 
L 794 0 
L 794 531 
z
" transform="scale(0.015625)"/>
       </defs>
       <use xlink:href="#DejaVuSans-31"/>
       <use xlink:href="#DejaVuSans-2e" x="63.623047"/>
       <use xlink:href="#DejaVuSans-30" x="95.410156"/>
      </g>
     </g>
    </g>
    <g id="text_7">
     <!-- 1 - Specificity -->
     <g transform="translate(288.847656 494.114687) scale(0.1 -0.1)">
      <defs>
       <path id="DejaVuSans-20" transform="scale(0.015625)"/>
       <path id="DejaVuSans-2d" d="M 313 2009 
L 1997 2009 
L 1997 1497 
L 313 1497 
L 313 2009 
z
" transform="scale(0.015625)"/>
       <path id="DejaVuSans-53" d="M 3425 4513 
L 3425 3897 
Q 3066 4069 2747 4153 
Q 2428 4238 2131 4238 
Q 1616 4238 1336 4038 
Q 1056 3838 1056 3469 
Q 1056 3159 1242 3001 
Q 1428 2844 1947 2747 
L 2328 2669 
Q 3034 2534 3370 2195 
Q 3706 1856 3706 1288 
Q 3706 609 3251 259 
Q 2797 -91 1919 -91 
Q 1588 -91 1214 -16 
Q 841 59 441 206 
L 441 856 
Q 825 641 1194 531 
Q 1563 422 1919 422 
Q 2459 422 2753 634 
Q 3047 847 3047 1241 
Q 3047 1584 2836 1778 
Q 2625 1972 2144 2069 
L 1759 2144 
Q 1053 2284 737 2584 
Q 422 2884 422 3419 
Q 422 4038 858 4394 
Q 1294 4750 2059 4750 
Q 2388 4750 2728 4690 
Q 3069 4631 3425 4513 
z
" transform="scale(0.015625)"/>
       <path id="DejaVuSans-70" d="M 1159 525 
L 1159 -1331 
L 581 -1331 
L 581 3500 
L 1159 3500 
L 1159 2969 
Q 1341 3281 1617 3432 
Q 1894 3584 2278 3584 
Q 2916 3584 3314 3078 
Q 3713 2572 3713 1747 
Q 3713 922 3314 415 
Q 2916 -91 2278 -91 
Q 1894 -91 1617 61 
Q 1341 213 1159 525 
z
M 3116 1747 
Q 3116 2381 2855 2742 
Q 2594 3103 2138 3103 
Q 1681 3103 1420 2742 
Q 1159 2381 1159 1747 
Q 1159 1113 1420 752 
Q 1681 391 2138 391 
Q 2594 391 2855 752 
Q 3116 1113 3116 1747 
z
" transform="scale(0.015625)"/>
       <path id="DejaVuSans-65" d="M 3597 1894 
L 3597 1613 
L 953 1613 
Q 991 1019 1311 708 
Q 1631 397 2203 397 
Q 2534 397 2845 478 
Q 3156 559 3463 722 
L 3463 178 
Q 3153 47 2828 -22 
Q 2503 -91 2169 -91 
Q 1331 -91 842 396 
Q 353 884 353 1716 
Q 353 2575 817 3079 
Q 1281 3584 2069 3584 
Q 2775 3584 3186 3129 
Q 3597 2675 3597 1894 
z
M 3022 2063 
Q 3016 2534 2758 2815 
Q 2500 3097 2075 3097 
Q 1594 3097 1305 2825 
Q 1016 2553 972 2059 
L 3022 2063 
z
" transform="scale(0.015625)"/>
       <path id="DejaVuSans-63" d="M 3122 3366 
L 3122 2828 
Q 2878 2963 2633 3030 
Q 2388 3097 2138 3097 
Q 1578 3097 1268 2742 
Q 959 2388 959 1747 
Q 959 1106 1268 751 
Q 1578 397 2138 397 
Q 2388 397 2633 464 
Q 2878 531 3122 666 
L 3122 134 
Q 2881 22 2623 -34 
Q 2366 -91 2075 -91 
Q 1284 -91 818 406 
Q 353 903 353 1747 
Q 353 2603 823 3093 
Q 1294 3584 2113 3584 
Q 2378 3584 2631 3529 
Q 2884 3475 3122 3366 
z
" transform="scale(0.015625)"/>
       <path id="DejaVuSans-69" d="M 603 3500 
L 1178 3500 
L 1178 0 
L 603 0 
L 603 3500 
z
M 603 4863 
L 1178 4863 
L 1178 4134 
L 603 4134 
L 603 4863 
z
" transform="scale(0.015625)"/>
       <path id="DejaVuSans-66" d="M 2375 4863 
L 2375 4384 
L 1825 4384 
Q 1516 4384 1395 4259 
Q 1275 4134 1275 3809 
L 1275 3500 
L 2222 3500 
L 2222 3053 
L 1275 3053 
L 1275 0 
L 697 0 
L 697 3053 
L 147 3053 
L 147 3500 
L 697 3500 
L 697 3744 
Q 697 4328 969 4595 
Q 1241 4863 1831 4863 
L 2375 4863 
z
" transform="scale(0.015625)"/>
       <path id="DejaVuSans-74" d="M 1172 4494 
L 1172 3500 
L 2356 3500 
L 2356 3053 
L 1172 3053 
L 1172 1153 
Q 1172 725 1289 603 
Q 1406 481 1766 481 
L 2356 481 
L 2356 0 
L 1766 0 
Q 1100 0 847 248 
Q 594 497 594 1153 
L 594 3053 
L 172 3053 
L 172 3500 
L 594 3500 
L 594 4494 
L 1172 4494 
z
" transform="scale(0.015625)"/>
       <path id="DejaVuSans-79" d="M 2059 -325 
Q 1816 -950 1584 -1140 
Q 1353 -1331 966 -1331 
L 506 -1331 
L 506 -850 
L 844 -850 
Q 1081 -850 1212 -737 
Q 1344 -625 1503 -206 
L 1606 56 
L 191 3500 
L 800 3500 
L 1894 763 
L 2988 3500 
L 3597 3500 
L 2059 -325 
z
" transform="scale(0.015625)"/>
      </defs>
      <use xlink:href="#DejaVuSans-31"/>
      <use xlink:href="#DejaVuSans-20" x="63.623047"/>
      <use xlink:href="#DejaVuSans-2d" x="95.410156"/>
      <use xlink:href="#DejaVuSans-20" x="131.494141"/>
      <use xlink:href="#DejaVuSans-53" x="163.28125"/>
      <use xlink:href="#DejaVuSans-70" x="226.757812"/>
      <use xlink:href="#DejaVuSans-65" x="290.234375"/>
      <use xlink:href="#DejaVuSans-63" x="351.757812"/>
      <use xlink:href="#DejaVuSans-69" x="406.738281"/>
      <use xlink:href="#DejaVuSans-66" x="434.521484"/>
      <use xlink:href="#DejaVuSans-69" x="469.726562"/>
      <use xlink:href="#DejaVuSans-63" x="497.509766"/>
      <use xlink:href="#DejaVuSans-69" x="552.490234"/>
      <use xlink:href="#DejaVuSans-74" x="580.273438"/>
      <use xlink:href="#DejaVuSans-79" x="619.482422"/>
     </g>
    </g>
   </g>
   <g id="matplotlib.axis_2">
    <g id="ytick_1">
     <g id="line2d_7">
      <defs>
       <path id="m1775cab696" d="M 0 0 
L -3.5 0 
" style="stroke: #000000; stroke-width: 0.8"/>
      </defs>
      <g>
       <use xlink:href="#m1775cab696" x="43.78125" y="445.678125" style="stroke: #000000; stroke-width: 0.8"/>
      </g>
     </g>
     <g id="text_8">
      <!-- 0.0 -->
      <g transform="translate(20.878125 449.477344) scale(0.1 -0.1)">
       <use xlink:href="#DejaVuSans-30"/>
       <use xlink:href="#DejaVuSans-2e" x="63.623047"/>
       <use xlink:href="#DejaVuSans-30" x="95.410156"/>
      </g>
     </g>
    </g>
    <g id="ytick_2">
     <g id="line2d_8">
      <g>
       <use xlink:href="#m1775cab696" x="43.78125" y="365.038125" style="stroke: #000000; stroke-width: 0.8"/>
      </g>
     </g>
     <g id="text_9">
      <!-- 0.2 -->
      <g transform="translate(20.878125 368.837344) scale(0.1 -0.1)">
       <use xlink:href="#DejaVuSans-30"/>
       <use xlink:href="#DejaVuSans-2e" x="63.623047"/>
       <use xlink:href="#DejaVuSans-32" x="95.410156"/>
      </g>
     </g>
    </g>
    <g id="ytick_3">
     <g id="line2d_9">
      <g>
       <use xlink:href="#m1775cab696" x="43.78125" y="284.398125" style="stroke: #000000; stroke-width: 0.8"/>
      </g>
     </g>
     <g id="text_10">
      <!-- 0.4 -->
      <g transform="translate(20.878125 288.197344) scale(0.1 -0.1)">
       <use xlink:href="#DejaVuSans-30"/>
       <use xlink:href="#DejaVuSans-2e" x="63.623047"/>
       <use xlink:href="#DejaVuSans-34" x="95.410156"/>
      </g>
     </g>
    </g>
    <g id="ytick_4">
     <g id="line2d_10">
      <g>
       <use xlink:href="#m1775cab696" x="43.78125" y="203.758125" style="stroke: #000000; stroke-width: 0.8"/>
      </g>
     </g>
     <g id="text_11">
      <!-- 0.6 -->
      <g transform="translate(20.878125 207.557344) scale(0.1 -0.1)">
       <use xlink:href="#DejaVuSans-30"/>
       <use xlink:href="#DejaVuSans-2e" x="63.623047"/>
       <use xlink:href="#DejaVuSans-36" x="95.410156"/>
      </g>
     </g>
    </g>
    <g id="ytick_5">
     <g id="line2d_11">
      <g>
       <use xlink:href="#m1775cab696" x="43.78125" y="123.118125" style="stroke: #000000; stroke-width: 0.8"/>
      </g>
     </g>
     <g id="text_12">
      <!-- 0.8 -->
      <g transform="translate(20.878125 126.917344) scale(0.1 -0.1)">
       <use xlink:href="#DejaVuSans-30"/>
       <use xlink:href="#DejaVuSans-2e" x="63.623047"/>
       <use xlink:href="#DejaVuSans-38" x="95.410156"/>
      </g>
     </g>
    </g>
    <g id="ytick_6">
     <g id="line2d_12">
      <g>
       <use xlink:href="#m1775cab696" x="43.78125" y="42.478125" style="stroke: #000000; stroke-width: 0.8"/>
      </g>
     </g>
     <g id="text_13">
      <!-- 1.0 -->
      <g transform="translate(20.878125 46.277344) scale(0.1 -0.1)">
       <use xlink:href="#DejaVuSans-31"/>
       <use xlink:href="#DejaVuSans-2e" x="63.623047"/>
       <use xlink:href="#DejaVuSans-30" x="95.410156"/>
      </g>
     </g>
    </g>
    <g id="text_14">
     <!-- Sensitivity -->
     <g transform="translate(14.798438 270.108594) rotate(-90) scale(0.1 -0.1)">
      <defs>
       <path id="DejaVuSans-6e" d="M 3513 2113 
L 3513 0 
L 2938 0 
L 2938 2094 
Q 2938 2591 2744 2837 
Q 2550 3084 2163 3084 
Q 1697 3084 1428 2787 
Q 1159 2491 1159 1978 
L 1159 0 
L 581 0 
L 581 3500 
L 1159 3500 
L 1159 2956 
Q 1366 3272 1645 3428 
Q 1925 3584 2291 3584 
Q 2894 3584 3203 3211 
Q 3513 2838 3513 2113 
z
" transform="scale(0.015625)"/>
       <path id="DejaVuSans-73" d="M 2834 3397 
L 2834 2853 
Q 2591 2978 2328 3040 
Q 2066 3103 1784 3103 
Q 1356 3103 1142 2972 
Q 928 2841 928 2578 
Q 928 2378 1081 2264 
Q 1234 2150 1697 2047 
L 1894 2003 
Q 2506 1872 2764 1633 
Q 3022 1394 3022 966 
Q 3022 478 2636 193 
Q 2250 -91 1575 -91 
Q 1294 -91 989 -36 
Q 684 19 347 128 
L 347 722 
Q 666 556 975 473 
Q 1284 391 1588 391 
Q 1994 391 2212 530 
Q 2431 669 2431 922 
Q 2431 1156 2273 1281 
Q 2116 1406 1581 1522 
L 1381 1569 
Q 847 1681 609 1914 
Q 372 2147 372 2553 
Q 372 3047 722 3315 
Q 1072 3584 1716 3584 
Q 2034 3584 2315 3537 
Q 2597 3491 2834 3397 
z
" transform="scale(0.015625)"/>
       <path id="DejaVuSans-76" d="M 191 3500 
L 800 3500 
L 1894 563 
L 2988 3500 
L 3597 3500 
L 2284 0 
L 1503 0 
L 191 3500 
z
" transform="scale(0.015625)"/>
      </defs>
      <use xlink:href="#DejaVuSans-53"/>
      <use xlink:href="#DejaVuSans-65" x="63.476562"/>
      <use xlink:href="#DejaVuSans-6e" x="125"/>
      <use xlink:href="#DejaVuSans-73" x="188.378906"/>
      <use xlink:href="#DejaVuSans-69" x="240.478516"/>
      <use xlink:href="#DejaVuSans-74" x="268.261719"/>
      <use xlink:href="#DejaVuSans-69" x="307.470703"/>
      <use xlink:href="#DejaVuSans-76" x="335.253906"/>
      <use xlink:href="#DejaVuSans-69" x="394.433594"/>
      <use xlink:href="#DejaVuSans-74" x="422.216797"/>
      <use xlink:href="#DejaVuSans-79" x="461.425781"/>
     </g>
    </g>
   </g>
   <g id="line2d_13">
    <path d="M 69.144886 445.678125 
L 69.235942 445.678125 
L 69.326998 443.658085 
L 69.418054 443.658085 
L 69.50911 440.830029 
L 69.600166 440.830029 
L 69.600166 439.618005 
L 69.782278 439.618005 
L 69.782278 437.193957 
L 69.96439 437.193957 
L 70.055446 435.981933 
L 70.146502 435.981933 
L 70.146502 433.961893 
L 70.41967 433.961893 
L 70.41967 433.557885 
L 70.783894 433.557885 
L 70.87495 431.133836 
L 70.966005 431.133836 
L 71.057061 427.093756 
L 71.148117 427.093756 
L 71.239173 424.2657 
L 71.330229 424.2657 
L 71.421285 421.841652 
L 71.512341 421.841652 
L 71.603397 417.801572 
L 71.785509 417.801572 
L 71.876565 414.973516 
L 72.058677 414.973516 
L 72.058677 412.14546 
L 72.240789 412.14546 
L 72.240789 411.741452 
L 72.422901 411.741452 
L 72.513957 408.10538 
L 72.605013 408.10538 
L 72.696069 404.065299 
L 72.969236 404.065299 
L 73.060292 402.853275 
L 73.242404 402.853275 
L 73.33346 400.429227 
L 73.424516 400.429227 
L 73.515572 398.813195 
L 73.606628 398.813195 
L 73.606628 397.601171 
L 73.78874 397.601171 
L 73.78874 395.581131 
L 73.970852 395.581131 
L 74.061908 393.561091 
L 74.152964 393.561091 
L 74.152964 393.157083 
L 74.335076 393.157083 
L 74.426132 392.349067 
L 74.608244 392.349067 
L 74.6993 390.733035 
L 74.790356 390.733035 
L 74.790356 389.925019 
L 74.972468 389.925019 
L 75.063523 387.096963 
L 75.336691 387.096963 
L 75.427747 386.288947 
L 75.518803 386.288947 
L 75.609859 383.864899 
L 75.700915 383.864899 
L 75.791971 381.036842 
L 75.974083 381.036842 
L 75.974083 380.632834 
L 76.156195 380.632834 
L 76.247251 379.42081 
L 76.338307 379.42081 
L 76.429363 377.804778 
L 76.520419 377.804778 
L 76.520419 376.996762 
L 76.702531 376.996762 
L 76.793587 374.976722 
L 77.066754 374.976722 
L 77.066754 372.148666 
L 77.430978 372.148666 
L 77.522034 371.34065 
L 77.61309 371.34065 
L 77.61309 366.896562 
L 77.795202 366.896562 
L 77.886258 365.684538 
L 78.06837 365.684538 
L 78.06837 364.876522 
L 78.250482 364.876522 
L 78.341538 362.856482 
L 78.432594 362.856482 
L 78.52365 359.22041 
L 78.614706 359.22041 
L 78.614706 358.412394 
L 78.796818 358.412394 
L 78.887874 355.584337 
L 79.069985 355.584337 
L 79.069985 353.160289 
L 79.252097 353.160289 
L 79.343153 345.888145 
L 79.434209 345.888145 
L 79.525265 342.656081 
L 79.707377 342.656081 
L 79.798433 340.232033 
L 79.889489 340.232033 
L 79.889489 339.020009 
L 80.071601 339.020009 
L 80.162657 336.999969 
L 80.344769 336.999969 
L 80.344769 336.595961 
L 80.617937 336.595961 
L 80.708993 334.171913 
L 80.891105 334.171913 
L 80.982161 333.363897 
L 81.073217 333.363897 
L 81.164272 332.555881 
L 81.43744 332.555881 
L 81.528496 330.53584 
L 81.801664 330.53584 
L 81.89272 328.919808 
L 81.983776 328.919808 
L 82.074832 326.899768 
L 82.165888 326.899768 
L 82.256944 324.879728 
L 82.348 324.879728 
L 82.439056 323.263696 
L 82.530112 323.263696 
L 82.530112 322.859688 
L 82.80328 322.859688 
L 82.894336 321.243656 
L 82.985392 321.243656 
L 83.076448 319.223616 
L 83.167503 319.223616 
L 83.258559 318.011592 
L 83.440671 318.011592 
L 83.531727 315.991552 
L 83.804895 315.991552 
L 83.804895 315.183536 
L 84.078063 315.183536 
L 84.078063 314.779528 
L 84.260175 314.779528 
L 84.351231 312.35548 
L 84.533343 312.35548 
L 84.533343 309.931432 
L 84.715455 309.931432 
L 84.806511 309.123416 
L 85.352846 309.123416 
L 85.352846 308.719408 
L 85.534958 308.719408 
L 85.534958 307.911392 
L 85.990238 307.911392 
L 86.081294 305.487343 
L 86.17235 305.487343 
L 86.17235 303.467303 
L 86.536574 303.467303 
L 86.62763 301.447263 
L 86.809742 301.447263 
L 86.809742 300.235239 
L 86.991854 300.235239 
L 86.991854 299.831231 
L 87.356077 299.831231 
L 87.447133 297.811191 
L 87.538189 297.811191 
L 87.629245 295.387143 
L 87.902413 295.387143 
L 87.902413 294.579127 
L 88.357693 294.579127 
L 88.448749 292.963095 
L 88.812973 292.963095 
L 88.812973 291.347063 
L 89.086141 291.347063 
L 89.177197 289.327023 
L 89.268252 289.327023 
L 89.268252 288.923015 
L 89.450364 288.923015 
L 89.450364 287.306983 
L 89.723532 287.306983 
L 89.723532 286.902975 
L 90.543036 286.902975 
L 90.634092 285.286943 
L 90.725148 285.286943 
L 90.816204 284.478927 
L 91.089372 284.478927 
L 91.180428 283.670911 
L 91.271484 283.670911 
L 91.362539 282.054879 
L 91.453595 282.054879 
L 91.453595 281.65087 
L 91.635707 281.65087 
L 91.726763 277.206782 
L 91.817819 277.206782 
L 91.817819 276.802774 
L 92.090987 276.802774 
L 92.090987 276.398766 
L 92.273099 276.398766 
L 92.273099 275.59075 
L 92.455211 275.59075 
L 92.546267 274.782734 
L 92.637323 274.782734 
L 92.637323 273.974718 
L 93.183659 273.974718 
L 93.274715 272.762694 
L 93.456826 272.762694 
L 93.456826 272.358686 
L 93.638938 272.358686 
L 93.638938 271.954678 
L 93.82105 271.954678 
L 93.82105 271.55067 
L 94.003162 271.55067 
L 94.003162 267.914598 
L 94.27633 267.914598 
L 94.367386 264.278526 
L 94.458442 264.278526 
L 94.549498 263.066502 
L 94.640554 263.066502 
L 94.640554 262.662494 
L 94.822666 262.662494 
L 94.913722 261.45047 
L 95.18689 261.45047 
L 95.277946 260.642454 
L 95.460057 260.642454 
L 95.551113 259.834438 
L 95.642169 259.834438 
L 95.733225 259.026422 
L 95.915337 259.026422 
L 95.915337 257.814398 
L 96.188505 257.814398 
L 96.279561 254.178325 
L 96.370617 254.178325 
L 96.461673 253.370309 
L 96.552729 253.370309 
L 96.552729 252.966301 
L 96.825897 252.966301 
L 96.825897 252.158285 
L 97.099065 252.158285 
L 97.099065 251.350269 
L 97.281177 251.350269 
L 97.372233 249.330229 
L 97.463288 249.330229 
L 97.463288 248.522213 
L 97.827512 248.522213 
L 97.827512 248.118205 
L 98.10068 248.118205 
L 98.10068 246.906181 
L 98.282792 246.906181 
L 98.373848 244.886141 
L 98.55596 244.886141 
L 98.55596 244.482133 
L 98.738072 244.482133 
L 98.738072 243.674117 
L 98.920184 243.674117 
L 98.920184 243.270109 
L 99.193352 243.270109 
L 99.284408 242.058085 
L 99.375464 242.058085 
L 99.466519 240.038045 
L 100.012855 240.038045 
L 100.103911 238.826021 
L 100.377079 238.826021 
L 100.377079 237.613997 
L 100.559191 237.613997 
L 100.559191 237.209989 
L 100.741303 237.209989 
L 100.741303 235.997965 
L 100.923415 235.997965 
L 100.923415 235.593957 
L 101.196583 235.593957 
L 101.287639 232.765901 
L 101.469751 232.765901 
L 101.469751 232.361893 
L 102.016086 232.361893 
L 102.107142 231.149868 
L 102.289254 231.149868 
L 102.289254 230.74586 
L 102.471366 230.74586 
L 102.562422 229.937844 
L 102.653478 229.937844 
L 102.744534 227.109788 
L 102.83559 227.109788 
L 102.83559 226.70578 
L 103.199814 226.70578 
L 103.29087 225.493756 
L 103.381926 225.493756 
L 103.472982 223.473716 
L 103.564037 223.473716 
L 103.655093 222.261692 
L 103.746149 222.261692 
L 103.746149 221.453676 
L 104.019317 221.453676 
L 104.110373 219.433636 
L 104.383541 219.433636 
L 104.383541 219.029628 
L 104.565653 219.029628 
L 104.656709 218.221612 
L 104.838821 218.221612 
L 104.838821 217.413596 
L 105.658324 217.413596 
L 105.658324 215.797564 
L 105.931492 215.797564 
L 106.022548 214.989548 
L 106.113604 214.989548 
L 106.113604 214.58554 
L 106.568884 214.58554 
L 106.65994 211.353476 
L 107.11522 211.353476 
L 107.206276 210.54546 
L 107.388388 210.54546 
L 107.388388 210.141452 
L 107.843667 210.141452 
L 107.843667 209.333436 
L 108.025779 209.333436 
L 108.116835 207.717404 
L 108.207891 207.717404 
L 108.207891 206.101371 
L 108.481059 206.101371 
L 108.572115 204.889347 
L 108.845283 204.889347 
L 108.845283 204.485339 
L 109.391619 204.485339 
L 109.391619 204.081331 
L 109.573731 204.081331 
L 109.664786 202.061291 
L 109.846898 202.061291 
L 109.937954 200.445259 
L 110.02901 200.445259 
L 110.120066 199.637243 
L 110.48429 199.637243 
L 110.48429 199.233235 
L 111.030626 199.233235 
L 111.121682 198.425219 
L 111.303794 198.425219 
L 111.39485 197.617203 
L 111.485906 197.617203 
L 111.576962 196.809187 
L 111.850129 196.809187 
L 111.941185 196.001171 
L 112.123297 196.001171 
L 112.214353 194.789147 
L 112.305409 194.789147 
L 112.305409 193.981131 
L 112.669633 193.981131 
L 112.669633 193.173115 
L 113.489137 193.173115 
L 113.489137 192.365099 
L 114.035472 192.365099 
L 114.035472 191.153075 
L 114.854976 191.153075 
L 114.854976 189.941051 
L 115.310256 189.941051 
L 115.401312 187.921011 
L 115.492368 187.921011 
L 115.492368 187.517003 
L 115.765536 187.517003 
L 115.856591 185.496963 
L 115.947647 185.496963 
L 115.947647 185.092955 
L 116.220815 185.092955 
L 116.220815 184.688947 
L 116.402927 184.688947 
L 116.402927 184.284939 
L 116.949263 184.284939 
L 117.040319 183.476923 
L 117.404543 183.476923 
L 117.495599 182.668907 
L 117.586655 182.668907 
L 117.586655 182.264899 
L 118.13299 182.264899 
L 118.224046 181.456883 
L 118.497214 181.456883 
L 118.497214 181.052874 
L 119.134606 181.052874 
L 119.134606 180.244858 
L 119.407774 180.244858 
L 119.407774 178.628826 
L 119.771998 178.628826 
L 119.771998 177.82081 
L 120.227277 177.82081 
L 120.318333 176.204778 
L 120.591501 176.204778 
L 120.591501 174.992754 
L 120.864669 174.992754 
L 120.864669 174.588746 
L 121.046781 174.588746 
L 121.046781 174.184738 
L 121.593117 174.184738 
L 121.593117 173.78073 
L 121.775229 173.78073 
L 121.866285 172.972714 
L 121.95734 172.972714 
L 121.95734 172.568706 
L 122.230508 172.568706 
L 122.321564 171.76069 
L 122.685788 171.76069 
L 122.685788 171.356682 
L 122.958956 171.356682 
L 123.050012 170.548666 
L 123.141068 170.548666 
L 123.232124 169.74065 
L 123.687404 169.74065 
L 123.687404 169.336642 
L 124.415851 169.336642 
L 124.506907 168.528626 
L 124.597963 168.528626 
L 124.597963 167.72061 
L 124.780075 167.72061 
L 124.780075 167.316602 
L 125.144299 167.316602 
L 125.144299 166.912594 
L 125.326411 166.912594 
L 125.326411 166.508586 
L 125.872747 166.508586 
L 125.872747 166.104578 
L 126.054858 166.104578 
L 126.054858 165.70057 
L 126.419082 165.70057 
L 126.510138 164.892554 
L 126.783306 164.892554 
L 126.783306 164.084538 
L 127.056474 164.084538 
L 127.056474 163.68053 
L 127.420698 163.68053 
L 127.420698 163.276522 
L 128.058089 163.276522 
L 128.058089 162.872514 
L 128.240201 162.872514 
L 128.240201 161.66049 
L 128.422313 161.66049 
L 128.422313 160.852474 
L 128.968649 160.852474 
L 128.968649 160.448466 
L 129.332873 160.448466 
L 129.332873 160.044458 
L 129.514985 160.044458 
L 129.514985 159.236442 
L 130.243432 159.236442 
L 130.243432 158.428426 
L 130.607656 158.428426 
L 130.698712 157.216402 
L 130.789768 157.216402 
L 130.880824 156.408386 
L 130.97188 156.408386 
L 130.97188 156.004378 
L 131.336104 156.004378 
L 131.42716 155.196361 
L 131.518216 155.196361 
L 131.518216 154.792353 
L 131.700328 154.792353 
L 131.700328 154.388345 
L 132.337719 154.388345 
L 132.337719 153.984337 
L 133.248279 153.984337 
L 133.248279 153.176321 
L 133.885671 153.176321 
L 133.885671 152.772313 
L 134.34095 152.772313 
L 134.34095 152.368305 
L 134.79623 152.368305 
L 134.79623 151.964297 
L 135.342566 151.964297 
L 135.342566 150.752273 
L 135.524678 150.752273 
L 135.615734 149.540249 
L 135.70679 149.540249 
L 135.797846 148.732233 
L 136.253125 148.732233 
L 136.253125 148.328225 
L 136.708405 148.328225 
L 136.708405 147.924217 
L 137.163685 147.924217 
L 137.163685 147.520209 
L 137.527909 147.520209 
L 137.527909 146.712193 
L 137.801077 146.712193 
L 137.801077 146.308185 
L 138.074245 146.308185 
L 138.074245 145.096161 
L 138.347412 145.096161 
L 138.347412 144.288145 
L 138.62058 144.288145 
L 138.62058 143.884137 
L 138.802692 143.884137 
L 138.802692 143.480129 
L 139.166916 143.480129 
L 139.257972 142.268105 
L 139.804308 142.268105 
L 139.804308 141.864097 
L 140.168532 141.864097 
L 140.259587 141.056081 
L 140.350643 141.056081 
L 140.441699 139.844057 
L 140.714867 139.844057 
L 140.805923 139.036041 
L 141.170147 139.036041 
L 141.170147 138.632033 
L 141.807539 138.632033 
L 141.807539 138.228025 
L 142.353874 138.228025 
L 142.353874 137.824017 
L 143.35549 137.824017 
L 143.446546 137.016001 
L 143.537602 137.016001 
L 143.628658 136.207985 
L 144.630273 136.207985 
L 144.630273 135.803977 
L 144.994497 135.803977 
L 144.994497 134.995961 
L 146.178225 134.995961 
L 146.178225 134.591953 
L 146.542448 134.591953 
L 146.542448 134.187945 
L 147.270896 134.187945 
L 147.270896 133.783937 
L 147.726176 133.783937 
L 147.726176 133.379929 
L 147.999344 133.379929 
L 148.0904 132.571913 
L 148.454623 132.571913 
L 148.454623 132.167905 
L 148.636735 132.167905 
L 148.636735 131.763897 
L 148.818847 131.763897 
L 148.909903 130.551872 
L 149.274127 130.551872 
L 149.274127 130.147864 
L 150.184687 130.147864 
L 150.184687 129.339848 
L 150.54891 129.339848 
L 150.54891 128.93584 
L 150.822078 128.93584 
L 150.822078 128.531832 
L 152.005806 128.531832 
L 152.005806 128.127824 
L 152.461086 128.127824 
L 152.552141 127.319808 
L 153.007421 127.319808 
L 153.007421 126.9158 
L 153.462701 126.9158 
L 153.462701 125.703776 
L 153.917981 125.703776 
L 154.009037 124.89576 
L 154.282205 124.89576 
L 154.282205 124.491752 
L 154.464317 124.491752 
L 154.464317 124.087744 
L 154.919596 124.087744 
L 154.919596 123.683736 
L 155.648044 123.683736 
L 155.648044 123.279728 
L 156.285436 123.279728 
L 156.285436 122.471712 
L 157.104939 122.471712 
L 157.104939 122.067704 
L 157.469163 122.067704 
L 157.469163 121.663696 
L 157.924443 121.663696 
L 157.924443 120.451672 
L 158.561835 120.451672 
L 158.561835 120.047664 
L 160.291898 120.047664 
L 160.291898 119.643656 
L 161.111401 119.643656 
L 161.111401 119.239648 
L 161.839849 119.239648 
L 161.839849 118.027624 
L 162.204073 118.027624 
L 162.204073 117.623616 
L 162.386185 117.623616 
L 162.386185 117.219608 
L 163.114632 117.219608 
L 163.114632 116.8156 
L 164.935751 116.8156 
L 164.935751 116.411592 
L 165.391031 116.411592 
L 165.391031 116.007584 
L 165.937367 116.007584 
L 165.937367 115.199568 
L 166.756871 115.199568 
L 166.756871 114.79556 
L 167.121094 114.79556 
L 167.21215 113.987544 
L 167.303206 113.987544 
L 167.303206 113.583536 
L 167.758486 113.583536 
L 167.758486 113.179528 
L 169.306437 113.179528 
L 169.306437 112.77552 
L 170.763333 112.77552 
L 170.763333 112.371512 
L 171.218612 112.371512 
L 171.218612 111.967504 
L 171.400724 111.967504 
L 171.400724 111.563496 
L 172.675508 111.563496 
L 172.675508 111.159488 
L 173.039731 111.159488 
L 173.039731 110.75548 
L 173.221843 110.75548 
L 173.312899 109.947464 
L 174.769795 109.947464 
L 174.769795 109.543456 
L 175.77141 109.543456 
L 175.77141 109.139448 
L 178.412033 109.139448 
L 178.412033 107.927424 
L 181.507935 107.927424 
L 181.507935 107.523416 
L 183.693278 107.523416 
L 183.693278 107.119408 
L 184.33067 107.119408 
L 184.33067 106.7154 
L 187.881852 106.7154 
L 187.881852 106.311392 
L 188.883468 106.311392 
L 188.883468 105.907384 
L 189.06558 105.907384 
L 189.06558 105.099367 
L 190.522475 105.099367 
L 190.613531 104.291351 
L 191.250922 104.291351 
L 191.250922 103.887343 
L 193.709433 103.887343 
L 193.709433 103.483335 
L 196.259 103.483335 
L 196.259 103.079327 
L 198.808567 103.079327 
L 198.808567 102.675319 
L 199.263847 102.675319 
L 199.263847 102.271311 
L 199.810182 102.271311 
L 199.810182 101.463295 
L 199.992294 101.463295 
L 199.992294 101.059287 
L 200.720742 101.059287 
L 200.720742 100.655279 
L 202.450805 100.655279 
L 202.450805 100.251271 
L 204.36298 100.251271 
L 204.36298 99.847263 
L 204.81826 99.847263 
L 204.81826 99.443255 
L 206.093043 99.443255 
L 206.093043 99.039247 
L 206.548323 99.039247 
L 206.548323 98.635239 
L 206.912547 98.635239 
L 206.912547 98.231231 
L 207.640994 98.231231 
L 207.640994 97.827223 
L 208.005218 97.827223 
L 208.096274 97.019207 
L 209.55317 97.019207 
L 209.55317 96.615199 
L 211.010065 96.615199 
L 211.010065 96.211191 
L 211.192177 96.211191 
L 211.192177 95.807183 
L 212.284848 95.807183 
L 212.284848 95.403175 
L 214.197023 95.403175 
L 214.197023 94.999167 
L 215.380751 94.999167 
L 215.380751 94.595159 
L 216.109198 94.595159 
L 216.109198 94.191151 
L 216.29131 94.191151 
L 216.29131 93.787143 
L 216.655534 93.787143 
L 216.655534 93.383135 
L 217.475038 93.383135 
L 217.475038 92.979127 
L 218.203485 92.979127 
L 218.294541 92.171111 
L 219.022989 92.171111 
L 219.022989 91.767103 
L 220.844108 91.767103 
L 220.844108 90.959087 
L 222.027835 90.959087 
L 222.027835 90.555079 
L 222.483115 90.555079 
L 222.483115 90.151071 
L 223.302619 90.151071 
L 223.302619 89.747063 
L 228.21964 89.747063 
L 228.21964 89.343055 
L 228.948088 89.343055 
L 228.948088 88.939047 
L 232.408214 88.939047 
L 232.408214 88.535039 
L 232.95455 88.535039 
L 232.95455 88.131031 
L 233.40983 88.131031 
L 233.40983 87.727023 
L 239.692691 87.727023 
L 239.692691 87.323015 
L 241.149586 87.323015 
L 241.149586 86.919007 
L 244.336544 86.919007 
L 244.336544 86.514999 
L 244.518656 86.514999 
L 244.518656 86.110991 
L 244.88288 86.110991 
L 244.88288 85.706983 
L 245.064992 85.706983 
L 245.064992 85.302975 
L 246.886111 85.302975 
L 246.886111 84.898967 
L 247.341391 84.898967 
L 247.432447 84.090951 
L 248.343006 84.090951 
L 248.343006 83.686943 
L 248.525118 83.686943 
L 248.525118 83.282935 
L 252.258413 83.282935 
L 252.258413 82.878927 
L 253.89742 82.878927 
L 253.89742 82.474919 
L 254.716923 82.474919 
L 254.716923 82.070911 
L 256.902266 82.070911 
L 256.902266 81.666903 
L 260.271337 81.666903 
L 260.271337 81.262895 
L 261.637176 81.262895 
L 261.728232 80.05087 
L 262.0014 80.05087 
L 262.0014 79.646862 
L 268.375317 79.646862 
L 268.375317 79.242854 
L 268.557429 79.242854 
L 268.557429 78.838846 
L 270.924883 78.838846 
L 270.924883 78.434838 
L 274.84029 78.434838 
L 274.931345 77.626822 
L 275.022401 77.626822 
L 275.022401 77.222814 
L 275.568737 77.222814 
L 275.659793 76.414798 
L 277.389856 76.414798 
L 277.480912 75.606782 
L 277.845136 75.606782 
L 277.845136 75.202774 
L 278.937807 75.202774 
L 278.937807 74.798766 
L 281.396318 74.798766 
L 281.396318 74.394758 
L 281.942654 74.394758 
L 281.942654 73.99075 
L 282.306878 73.99075 
L 282.306878 73.586742 
L 283.763773 73.586742 
L 283.763773 73.182734 
L 285.311724 73.182734 
L 285.311724 72.778726 
L 286.495452 72.778726 
L 286.495452 72.374718 
L 288.134459 72.374718 
L 288.134459 71.97071 
L 291.230361 71.97071 
L 291.230361 71.566702 
L 291.503529 71.566702 
L 291.503529 71.162694 
L 292.140921 71.162694 
L 292.140921 70.354678 
L 294.690488 70.354678 
L 294.690488 69.95067 
L 296.784775 69.95067 
L 296.784775 69.546662 
L 298.332726 69.546662 
L 298.332726 69.142654 
L 300.062789 69.142654 
L 300.153845 68.334638 
L 300.700181 68.334638 
L 300.700181 67.93063 
L 301.246517 67.93063 
L 301.246517 67.526622 
L 301.792852 67.526622 
L 301.792852 67.122614 
L 305.435091 67.122614 
L 305.435091 66.314598 
L 309.350497 66.314598 
L 309.441553 65.506582 
L 311.08056 65.506582 
L 311.08056 65.102574 
L 314.085406 65.102574 
L 314.085406 64.698566 
L 314.813854 64.698566 
L 314.813854 64.294558 
L 317.636589 64.294558 
L 317.636589 63.89055 
L 322.55361 63.89055 
L 322.55361 63.486542 
L 325.558457 63.486542 
L 325.558457 63.082534 
L 328.199079 63.082534 
L 328.199079 62.678526 
L 331.294982 62.678526 
L 331.294982 62.274518 
L 336.212003 62.274518 
L 336.212003 61.87051 
L 337.759955 61.87051 
L 337.759955 61.466502 
L 339.034738 61.466502 
L 339.034738 61.062494 
L 346.592382 61.062494 
L 346.592382 60.658486 
L 347.685054 60.658486 
L 347.685054 60.254478 
L 351.509404 60.254478 
L 351.509404 59.85047 
L 353.421579 59.85047 
L 353.421579 59.446462 
L 354.605306 59.446462 
L 354.605306 58.638446 
L 358.247545 58.638446 
L 358.247545 58.234438 
L 362.527175 58.234438 
L 362.527175 57.83043 
L 363.52879 57.83043 
L 363.52879 57.022414 
L 363.710902 57.022414 
L 363.710902 56.618406 
L 369.720595 56.618406 
L 369.720595 55.81039 
L 373.271777 55.81039 
L 373.271777 55.406382 
L 373.818113 55.406382 
L 373.818113 55.002373 
L 392.302472 55.002373 
L 392.302472 54.598365 
L 395.94471 54.598365 
L 395.94471 54.194357 
L 402.682851 54.194357 
L 402.773907 52.982333 
L 408.601488 52.982333 
L 408.601488 52.578325 
L 411.333167 52.578325 
L 411.333167 52.174317 
L 411.515278 52.174317 
L 411.515278 51.770309 
L 421.804601 51.770309 
L 421.804601 51.366301 
L 423.443609 51.366301 
L 423.443609 50.962293 
L 433.186596 50.962293 
L 433.186596 50.558285 
L 435.189827 50.558285 
L 435.189827 50.154277 
L 441.108464 50.154277 
L 441.108464 49.750269 
L 442.656415 49.750269 
L 442.656415 49.346261 
L 450.305115 49.346261 
L 450.305115 48.942253 
L 455.677417 48.942253 
L 455.677417 48.538245 
L 470.701649 48.538245 
L 470.701649 48.134237 
L 472.613825 48.134237 
L 472.613825 47.730229 
L 480.262525 47.730229 
L 480.262525 47.326221 
L 495.742037 47.326221 
L 495.742037 46.922213 
L 497.381044 46.922213 
L 497.381044 46.518205 
L 507.397199 46.518205 
L 507.397199 46.114197 
L 531.435972 46.114197 
L 531.435972 45.710189 
L 532.346531 45.710189 
L 532.346531 45.306181 
L 545.003309 45.306181 
L 545.003309 44.902173 
L 545.640701 44.902173 
L 545.640701 44.498165 
L 572.866431 44.498165 
L 572.866431 43.690149 
L 573.048543 43.690149 
L 573.048543 42.882133 
L 573.959103 42.882133 
L 573.959103 42.478125 
L 576.417614 42.478125 
L 576.417614 42.478125 
" clip-path="url(#pdfadd1d8a3)" style="fill: none; stroke: #1f77b4; stroke-width: 1.5; stroke-linecap: square"/>
   </g>
   <g id="line2d_14">
    <path d="M 69.144886 445.678125 
L 69.243386 445.678125 
L 69.341885 441.700112 
L 69.440385 441.700112 
L 69.440385 440.847681 
L 69.637384 440.847681 
L 69.735884 438.574531 
L 69.834383 438.574531 
L 69.932883 436.301381 
L 70.129882 436.301381 
L 70.228382 435.733093 
L 70.425381 435.733093 
L 70.52388 434.028231 
L 70.62238 434.028231 
L 70.720879 431.186793 
L 70.819379 431.186793 
L 70.917878 429.197787 
L 71.016378 429.197787 
L 71.114878 424.083199 
L 71.311877 424.083199 
L 71.410376 422.094193 
L 71.607375 422.094193 
L 71.705875 419.536899 
L 71.804374 419.536899 
L 71.902874 416.695461 
L 72.001374 416.695461 
L 72.099873 413.854024 
L 72.395372 413.854024 
L 72.395372 412.717448 
L 72.592371 412.717448 
L 72.69087 411.012586 
L 72.78937 411.012586 
L 72.88787 409.876011 
L 72.986369 409.876011 
L 72.986369 409.02358 
L 73.183368 409.02358 
L 73.183368 407.602861 
L 73.380367 407.602861 
L 73.478867 406.182142 
L 73.577367 406.182142 
L 73.577367 405.897998 
L 73.774366 405.897998 
L 73.774366 405.045567 
L 73.971365 405.045567 
L 74.069864 403.908992 
L 74.168364 403.908992 
L 74.266863 401.919985 
L 74.365363 401.919985 
L 74.365363 400.78341 
L 74.562362 400.78341 
L 74.660862 400.215123 
L 74.759361 400.215123 
L 74.857861 398.51026 
L 74.95636 398.51026 
L 75.05486 396.521254 
L 75.153359 396.521254 
L 75.251859 395.100535 
L 75.350359 395.100535 
L 75.448858 393.395673 
L 75.547358 393.395673 
L 75.547358 392.827385 
L 75.744357 392.827385 
L 75.842856 391.406666 
L 76.039855 391.406666 
L 76.039855 388.849372 
L 76.236855 388.849372 
L 76.335354 384.303072 
L 76.433854 384.303072 
L 76.532353 383.450641 
L 76.729352 383.450641 
L 76.729352 382.882353 
L 76.926352 382.882353 
L 77.024851 381.461635 
L 77.123351 381.461635 
L 77.22185 378.904341 
L 77.32035 378.904341 
L 77.32035 378.336053 
L 77.517349 378.336053 
L 77.615848 376.347047 
L 77.812848 376.347047 
L 77.911347 372.08489 
L 78.009847 372.08489 
L 78.108346 366.686159 
L 78.305345 366.686159 
L 78.403845 364.981296 
L 78.502344 364.981296 
L 78.600844 362.139859 
L 78.797843 362.139859 
L 78.797843 361.855715 
L 79.093342 361.855715 
L 79.191841 360.150852 
L 79.38884 360.150852 
L 79.48734 359.582565 
L 79.58584 359.582565 
L 79.58584 358.44599 
L 79.782839 358.44599 
L 79.881338 357.025271 
L 79.979838 357.025271 
L 80.078337 355.888696 
L 80.176837 355.888696 
L 80.275336 355.036265 
L 80.373836 355.036265 
L 80.472336 353.331402 
L 80.570835 353.331402 
L 80.669335 350.774108 
L 80.964833 350.774108 
L 81.063333 349.637533 
L 81.161833 349.637533 
L 81.260332 348.216814 
L 81.358832 348.216814 
L 81.358832 347.080239 
L 81.555831 347.080239 
L 81.65433 345.65952 
L 81.949829 345.65952 
L 82.048329 344.807089 
L 82.146828 344.807089 
L 82.146828 344.522945 
L 82.343827 344.522945 
L 82.442327 342.818083 
L 82.639326 342.818083 
L 82.639326 341.11322 
L 82.836325 341.11322 
L 82.934825 340.260789 
L 83.427322 340.260789 
L 83.525822 338.555926 
L 83.821321 338.555926 
L 83.91982 336.851064 
L 84.01832 336.851064 
L 84.116819 335.146201 
L 84.215319 335.146201 
L 84.313818 333.441339 
L 84.412318 333.441339 
L 84.510818 331.736476 
L 84.904816 331.736476 
L 85.003315 330.315757 
L 85.101815 330.315757 
L 85.101815 328.326751 
L 85.397314 328.326751 
L 85.397314 327.758463 
L 85.889811 327.758463 
L 85.889811 326.337744 
L 86.28381 326.337744 
L 86.28381 325.201169 
L 86.579308 325.201169 
L 86.677808 323.780451 
L 86.776307 323.780451 
L 86.874807 322.075588 
L 86.973306 322.075588 
L 87.071806 321.5073 
L 87.859803 321.5073 
L 87.958302 320.086582 
L 88.056802 320.086582 
L 88.155301 319.23415 
L 88.3523 319.23415 
L 88.4508 316.961 
L 88.549299 316.961 
L 88.647799 312.982988 
L 88.746299 312.982988 
L 88.746299 312.698844 
L 89.041797 312.698844 
L 89.140297 310.709837 
L 89.238796 310.709837 
L 89.337296 309.857406 
L 89.435795 309.857406 
L 89.435795 309.289119 
L 89.731294 309.289119 
L 89.829794 308.436687 
L 90.026793 308.436687 
L 90.026793 308.152544 
L 90.223792 308.152544 
L 90.322291 307.300112 
L 90.519291 307.300112 
L 90.519291 304.742818 
L 90.814789 304.742818 
L 90.913289 302.185525 
L 91.011788 302.185525 
L 91.110288 301.333093 
L 91.208788 301.333093 
L 91.208788 301.04895 
L 91.405787 301.04895 
L 91.504286 299.059943 
L 91.602786 299.059943 
L 91.701285 298.207512 
L 91.799785 298.207512 
L 91.898284 297.639224 
L 91.996784 297.639224 
L 92.095284 296.218506 
L 92.390782 296.218506 
L 92.489282 293.661212 
L 92.587781 293.661212 
L 92.686281 293.092924 
L 92.78478 293.092924 
L 92.78478 292.80878 
L 93.080279 292.80878 
L 93.080279 291.956349 
L 93.277278 291.956349 
L 93.277278 291.388062 
L 93.474277 291.388062 
L 93.572777 289.967343 
L 93.671276 289.967343 
L 93.671276 289.399055 
L 94.065275 289.399055 
L 94.065275 287.410049 
L 94.262274 287.410049 
L 94.360773 285.98933 
L 94.557773 285.98933 
L 94.656272 284.852755 
L 94.853271 284.852755 
L 94.951771 284.284467 
L 95.05027 284.284467 
L 95.14877 283.432036 
L 95.247269 283.432036 
L 95.345769 282.011317 
L 95.641268 282.011317 
L 95.641268 281.727174 
L 95.838267 281.727174 
L 95.936766 280.874742 
L 96.133765 280.874742 
L 96.232265 279.16988 
L 96.429264 279.16988 
L 96.429264 278.317448 
L 96.626263 278.317448 
L 96.724763 275.760155 
L 96.823262 275.760155 
L 96.921762 274.907723 
L 97.512759 274.907723 
L 97.611259 273.771148 
L 97.709758 273.771148 
L 97.808258 272.918717 
L 97.906758 272.918717 
L 98.005257 271.497998 
L 98.103757 271.497998 
L 98.202256 270.361423 
L 98.497755 270.361423 
L 98.596254 269.224848 
L 98.694754 269.224848 
L 98.793254 266.951698 
L 98.891753 266.951698 
L 98.990253 266.099267 
L 99.285751 266.099267 
L 99.285751 264.394404 
L 99.58125 264.394404 
L 99.58125 264.11026 
L 99.778249 264.11026 
L 99.876749 263.541973 
L 99.975248 263.541973 
L 99.975248 262.689541 
L 100.369246 262.689541 
L 100.369246 262.405398 
L 100.763245 262.405398 
L 100.763245 261.268823 
L 101.058743 261.268823 
L 101.157243 260.132248 
L 101.649741 260.132248 
L 101.649741 257.574954 
L 102.142239 257.574954 
L 102.240738 257.006666 
L 102.437737 257.006666 
L 102.437737 256.722522 
L 102.831735 256.722522 
L 102.831735 255.870091 
L 103.028735 255.870091 
L 103.127234 254.733516 
L 103.225734 254.733516 
L 103.225734 253.596941 
L 103.521232 253.596941 
L 103.619732 252.74451 
L 103.915231 252.74451 
L 103.915231 252.460366 
L 104.309229 252.460366 
L 104.407728 251.892078 
L 104.604727 251.892078 
L 104.703227 250.187216 
L 104.801727 250.187216 
L 104.900226 249.050641 
L 104.998726 249.050641 
L 104.998726 248.19821 
L 105.392724 248.19821 
L 105.491224 246.777491 
L 105.589723 246.777491 
L 105.688223 246.209203 
L 105.885222 246.209203 
L 105.983721 245.640916 
L 106.082221 245.640916 
L 106.18072 245.072628 
L 106.37772 245.072628 
L 106.476219 243.936053 
L 106.574719 243.936053 
L 106.673218 243.083622 
L 106.771718 243.083622 
L 106.870217 242.231191 
L 107.067216 242.231191 
L 107.067216 241.662903 
L 107.953712 241.662903 
L 107.953712 241.094615 
L 108.54471 241.094615 
L 108.54471 240.242184 
L 109.431206 240.242184 
L 109.431206 239.389753 
L 109.726705 239.389753 
L 109.825204 237.400747 
L 109.923704 237.400747 
L 109.923704 237.116603 
L 110.219202 237.116603 
L 110.317702 235.127596 
L 110.613201 235.127596 
L 110.7117 234.275165 
L 110.908699 234.275165 
L 111.007199 233.13859 
L 111.105698 233.13859 
L 111.105698 232.854446 
L 111.499697 232.854446 
L 111.598196 232.286159 
L 111.696696 232.286159 
L 111.795195 231.433728 
L 111.992194 231.433728 
L 111.992194 230.297152 
L 112.287693 230.297152 
L 112.287693 229.728865 
L 112.681691 229.728865 
L 112.780191 228.876434 
L 113.07569 228.876434 
L 113.07569 227.739859 
L 113.469688 227.739859 
L 113.568187 226.887427 
L 113.863686 226.887427 
L 113.962186 225.750852 
L 114.257684 225.750852 
L 114.257684 224.614277 
L 114.454683 224.614277 
L 114.553183 223.761846 
L 114.651682 223.761846 
L 114.651682 223.477702 
L 114.947181 223.477702 
L 114.947181 222.909415 
L 115.14418 222.909415 
L 115.24268 221.77284 
L 115.341179 221.77284 
L 115.439679 220.636265 
L 115.636678 220.636265 
L 115.735178 220.067977 
L 115.833677 220.067977 
L 115.932177 219.499689 
L 116.030676 219.499689 
L 116.030676 218.078971 
L 116.227675 218.078971 
L 116.227675 217.794827 
L 116.424675 217.794827 
L 116.424675 217.510683 
L 116.621674 217.510683 
L 116.621674 217.226539 
L 116.917172 217.226539 
L 117.015672 216.658252 
L 117.114171 216.658252 
L 117.212671 215.805821 
L 117.40967 215.805821 
L 117.40967 215.521677 
L 117.803668 215.521677 
L 117.803668 215.237533 
L 118.000667 215.237533 
L 118.000667 214.953389 
L 118.394666 214.953389 
L 118.493165 213.53267 
L 118.788664 213.53267 
L 118.887164 212.680239 
L 118.985663 212.680239 
L 119.084163 211.543664 
L 119.281162 211.543664 
L 119.281162 211.25952 
L 119.478161 211.25952 
L 119.57666 210.691233 
L 119.872159 210.691233 
L 119.872159 210.407089 
L 120.069158 210.407089 
L 120.167658 208.702226 
L 120.364657 208.702226 
L 120.364657 208.133939 
L 120.955654 208.133939 
L 120.955654 207.849795 
L 121.349652 207.849795 
L 121.448152 206.71322 
L 122.236148 206.71322 
L 122.236148 206.144933 
L 122.630147 206.144933 
L 122.728646 205.292501 
L 122.827146 205.292501 
L 122.925645 204.724214 
L 123.024145 204.724214 
L 123.122645 204.155926 
L 123.221144 204.155926 
L 123.221144 202.451064 
L 123.418143 202.451064 
L 123.418143 201.598632 
L 123.812141 201.598632 
L 123.812141 201.030345 
L 124.403139 201.030345 
L 124.403139 200.746201 
L 124.698637 200.746201 
L 124.797137 199.325482 
L 125.092636 199.325482 
L 125.092636 199.041339 
L 125.585133 199.041339 
L 125.585133 198.757195 
L 125.782133 198.757195 
L 125.782133 198.473051 
L 125.979132 198.473051 
L 125.979132 198.188907 
L 126.47163 198.188907 
L 126.570129 196.484045 
L 126.668629 196.484045 
L 126.767128 195.063326 
L 127.259626 195.063326 
L 127.259626 194.779182 
L 127.752124 194.779182 
L 127.752124 194.210895 
L 128.146122 194.210895 
L 128.146122 193.926751 
L 128.343121 193.926751 
L 128.441621 193.07432 
L 128.54012 193.07432 
L 128.63862 192.506032 
L 128.835619 192.506032 
L 128.835619 191.369457 
L 129.131118 191.369457 
L 129.131118 190.801169 
L 129.426616 190.801169 
L 129.426616 190.517026 
L 129.623615 190.517026 
L 129.623615 189.948738 
L 129.919114 189.948738 
L 130.017614 189.096307 
L 130.608611 189.096307 
L 130.608611 188.812163 
L 131.002609 188.812163 
L 131.101109 188.243876 
L 131.199608 188.243876 
L 131.298108 187.1073 
L 131.495107 187.1073 
L 131.593607 185.970725 
L 131.790606 185.970725 
L 131.790606 185.686582 
L 131.987605 185.686582 
L 131.987605 185.402438 
L 132.184604 185.402438 
L 132.283103 184.83415 
L 132.874101 184.83415 
L 132.874101 184.550007 
L 133.268099 184.550007 
L 133.366599 183.697575 
L 133.662097 183.697575 
L 133.760597 183.129288 
L 133.859096 183.129288 
L 133.859096 182.276857 
L 134.253095 182.276857 
L 134.253095 181.992713 
L 134.844092 181.992713 
L 134.844092 181.424425 
L 135.139591 181.424425 
L 135.139591 180.856138 
L 136.124586 180.856138 
L 136.124586 180.571994 
L 136.321585 180.571994 
L 136.321585 180.28785 
L 136.715584 180.28785 
L 136.715584 180.003706 
L 137.109582 180.003706 
L 137.109582 179.719563 
L 137.405081 179.719563 
L 137.405081 179.435419 
L 137.60208 179.435419 
L 137.60208 179.151275 
L 137.799079 179.151275 
L 137.799079 178.867131 
L 138.094577 178.867131 
L 138.193077 178.298844 
L 138.587075 178.298844 
L 138.685575 177.446413 
L 138.882574 177.446413 
L 138.981073 176.593981 
L 139.178073 176.593981 
L 139.276572 176.025694 
L 140.261568 176.025694 
L 140.261568 175.457406 
L 140.655566 175.457406 
L 140.655566 175.173262 
L 140.951065 175.173262 
L 141.049564 174.036687 
L 141.542062 174.036687 
L 141.542062 173.752544 
L 141.837561 173.752544 
L 141.93606 172.900112 
L 142.133059 172.900112 
L 142.231559 172.331825 
L 142.330058 172.331825 
L 142.330058 172.047681 
L 142.625557 172.047681 
L 142.724057 171.479393 
L 142.822556 171.479393 
L 142.921056 170.342818 
L 143.413554 170.342818 
L 143.512053 169.774531 
L 143.807552 169.774531 
L 143.807552 169.490387 
L 144.004551 169.490387 
L 144.004551 169.206243 
L 144.497049 169.206243 
L 144.497049 168.9221 
L 145.285045 168.9221 
L 145.285045 168.637956 
L 145.580544 168.637956 
L 145.580544 168.353812 
L 145.777543 168.353812 
L 145.777543 167.217237 
L 146.270041 167.217237 
L 146.36854 166.364806 
L 146.762539 166.364806 
L 146.762539 165.796518 
L 147.156537 165.796518 
L 147.156537 164.944087 
L 147.452036 164.944087 
L 147.550535 164.375799 
L 147.649035 164.375799 
L 147.649035 164.091656 
L 148.929529 164.091656 
L 149.028028 163.523368 
L 149.126528 163.523368 
L 149.225028 162.955081 
L 149.619026 162.955081 
L 149.619026 162.386793 
L 149.816025 162.386793 
L 149.816025 161.818506 
L 150.111524 161.818506 
L 150.111524 161.534362 
L 150.505522 161.534362 
L 150.505522 160.68193 
L 150.89952 160.68193 
L 150.89952 160.397787 
L 151.096519 160.397787 
L 151.096519 160.113643 
L 151.392018 160.113643 
L 151.392018 159.261212 
L 151.589017 159.261212 
L 151.589017 158.977068 
L 152.475513 158.977068 
L 152.475513 158.692924 
L 152.771012 158.692924 
L 152.771012 158.40878 
L 153.263509 158.40878 
L 153.263509 157.556349 
L 153.657508 157.556349 
L 153.657508 157.272205 
L 154.248505 157.272205 
L 154.248505 156.703918 
L 154.642503 156.703918 
L 154.642503 156.419774 
L 155.036502 156.419774 
L 155.135001 155.851487 
L 155.332 155.851487 
L 155.4305 154.430768 
L 155.725998 154.430768 
L 155.725998 153.86248 
L 156.021497 153.86248 
L 156.021497 153.578336 
L 157.301991 153.578336 
L 157.301991 153.294193 
L 157.498991 153.294193 
L 157.498991 153.010049 
L 157.892989 153.010049 
L 157.892989 152.725905 
L 158.680985 152.725905 
L 158.680985 152.441761 
L 159.173483 152.441761 
L 159.173483 152.157618 
L 159.370482 152.157618 
L 159.370482 151.873474 
L 160.749476 151.873474 
L 160.749476 151.58933 
L 161.143474 151.58933 
L 161.143474 151.305186 
L 161.340473 151.305186 
L 161.438973 150.452755 
L 162.719467 150.452755 
L 162.817967 149.884467 
L 163.901462 149.884467 
L 163.999961 149.032036 
L 164.492459 149.032036 
L 164.492459 148.747892 
L 164.689458 148.747892 
L 164.787958 148.179605 
L 164.984957 148.179605 
L 164.984957 147.895461 
L 165.280456 147.895461 
L 165.280456 147.611317 
L 165.969953 147.611317 
L 165.969953 146.474742 
L 167.742945 146.474742 
L 167.742945 146.190599 
L 169.220438 146.190599 
L 169.220438 145.906455 
L 170.106934 145.906455 
L 170.106934 145.622311 
L 170.303933 145.622311 
L 170.402433 145.054024 
L 171.288929 145.054024 
L 171.288929 144.76988 
L 171.978426 144.76988 
L 171.978426 144.485736 
L 172.175425 144.485736 
L 172.175425 143.633305 
L 174.834913 143.633305 
L 174.834913 143.349161 
L 175.42591 143.349161 
L 175.42591 142.780873 
L 176.410906 142.780873 
L 176.410906 142.49673 
L 176.607905 142.49673 
L 176.607905 141.928442 
L 176.903404 141.928442 
L 176.903404 141.644298 
L 177.6914 141.644298 
L 177.6914 141.360155 
L 177.986899 141.360155 
L 178.085398 140.507723 
L 178.479397 140.507723 
L 178.577896 139.939436 
L 179.85839 139.939436 
L 179.85839 139.655292 
L 180.350888 139.655292 
L 180.350888 139.087004 
L 180.744886 139.087004 
L 180.744886 138.234573 
L 181.729882 138.234573 
L 181.729882 137.950429 
L 182.12388 137.950429 
L 182.12388 137.666286 
L 182.320879 137.666286 
L 182.320879 137.382142 
L 182.517878 137.382142 
L 182.616378 136.813854 
L 183.010376 136.813854 
L 183.010376 136.245567 
L 183.601374 136.245567 
L 183.601374 135.961423 
L 183.798373 135.961423 
L 183.896872 135.393136 
L 185.374366 135.393136 
L 185.374366 135.108992 
L 185.571365 135.108992 
L 185.571365 134.824848 
L 185.768364 134.824848 
L 185.768364 134.540704 
L 186.359361 134.540704 
L 186.359361 133.972417 
L 186.55636 133.972417 
L 186.55636 133.688273 
L 187.344357 133.688273 
L 187.344357 133.404129 
L 188.723351 133.404129 
L 188.723351 133.119985 
L 189.018849 133.119985 
L 189.018849 132.551698 
L 190.102344 132.551698 
L 190.102344 132.267554 
L 190.98884 132.267554 
L 190.98884 131.415123 
L 191.284339 131.415123 
L 191.284339 131.130979 
L 192.269335 131.130979 
L 192.269335 130.846835 
L 192.564833 130.846835 
L 192.564833 130.562692 
L 192.761833 130.562692 
L 192.761833 130.278548 
L 192.958832 130.278548 
L 192.958832 129.994404 
L 193.35283 129.994404 
L 193.35283 129.71026 
L 193.746828 129.71026 
L 193.746828 129.426117 
L 194.042327 129.426117 
L 194.042327 129.141973 
L 194.436325 129.141973 
L 194.534825 128.573685 
L 194.928823 128.573685 
L 195.027322 128.005398 
L 195.224321 128.005398 
L 195.224321 127.721254 
L 195.815319 127.721254 
L 195.815319 127.43711 
L 196.504816 127.43711 
L 196.504816 127.152966 
L 197.292812 127.152966 
L 197.292812 126.868823 
L 197.489811 126.868823 
L 197.489811 126.584679 
L 197.78531 126.584679 
L 197.78531 126.300535 
L 198.573306 126.300535 
L 198.573306 126.016391 
L 199.853801 126.016391 
L 199.9523 125.16396 
L 200.0508 125.16396 
L 200.0508 124.879816 
L 200.247799 124.879816 
L 200.247799 124.595673 
L 200.740297 124.595673 
L 200.740297 124.311529 
L 201.134295 124.311529 
L 201.134295 124.027385 
L 201.331294 124.027385 
L 201.331294 123.743241 
L 202.119291 123.743241 
L 202.119291 123.459098 
L 202.31629 123.459098 
L 202.31629 122.89081 
L 202.611788 122.89081 
L 202.611788 122.606666 
L 203.498284 122.606666 
L 203.498284 122.322522 
L 204.286281 122.322522 
L 204.38478 121.754235 
L 204.48328 121.754235 
L 204.48328 121.470091 
L 204.778779 121.470091 
L 204.778779 121.185947 
L 204.975778 121.185947 
L 205.074277 120.61766 
L 206.354772 120.61766 
L 206.354772 120.333516 
L 206.74877 120.333516 
L 206.74877 119.765229 
L 207.536766 119.765229 
L 207.536766 119.481085 
L 207.930765 119.481085 
L 207.930765 119.196941 
L 208.127764 119.196941 
L 208.127764 118.912797 
L 208.324763 118.912797 
L 208.423262 118.34451 
L 208.718761 118.34451 
L 208.718761 118.060366 
L 209.01426 118.060366 
L 209.01426 117.776222 
L 209.408258 117.776222 
L 209.506758 117.207935 
L 209.900756 117.207935 
L 209.900756 116.923791 
L 210.688752 116.923791 
L 210.688752 116.639647 
L 212.757243 116.639647 
L 212.757243 116.355503 
L 213.840738 116.355503 
L 213.840738 116.07136 
L 214.628735 116.07136 
L 214.628735 115.787216 
L 215.219732 115.787216 
L 215.219732 115.503072 
L 218.273218 115.503072 
L 218.273218 115.218928 
L 218.864216 115.218928 
L 218.864216 114.934785 
L 219.356713 114.934785 
L 219.356713 114.650641 
L 219.947711 114.650641 
L 219.947711 114.082353 
L 220.243209 114.082353 
L 220.243209 113.79821 
L 221.129705 113.79821 
L 221.129705 113.229922 
L 221.819202 113.229922 
L 221.819202 112.945778 
L 222.213201 112.945778 
L 222.213201 112.661635 
L 222.902697 112.661635 
L 222.902697 112.377491 
L 223.395195 112.377491 
L 223.395195 112.093347 
L 223.592194 112.093347 
L 223.592194 111.809203 
L 223.887693 111.809203 
L 223.887693 111.525059 
L 224.67569 111.525059 
L 224.67569 111.240916 
L 224.872689 111.240916 
L 224.872689 110.672628 
L 226.251682 110.672628 
L 226.350182 110.104341 
L 228.418673 110.104341 
L 228.418673 109.820197 
L 229.699167 109.820197 
L 229.797667 108.967766 
L 230.191665 108.967766 
L 230.191665 108.683622 
L 230.388664 108.683622 
L 230.388664 108.399478 
L 232.358655 108.399478 
L 232.358655 108.115334 
L 232.851153 108.115334 
L 232.949652 107.547047 
L 233.343651 107.547047 
L 233.343651 107.262903 
L 233.836148 107.262903 
L 233.836148 106.978759 
L 234.033148 106.978759 
L 234.033148 106.694615 
L 236.988134 106.694615 
L 236.988134 106.410472 
L 237.776131 106.410472 
L 237.87463 105.842184 
L 238.465628 105.842184 
L 238.465628 105.55804 
L 239.549123 105.55804 
L 239.549123 105.273897 
L 239.943121 105.273897 
L 239.943121 104.989753 
L 240.337119 104.989753 
L 240.337119 104.705609 
L 241.716113 104.705609 
L 241.814613 104.137322 
L 242.50411 104.137322 
L 242.50411 103.853178 
L 246.148593 103.853178 
L 246.247093 103.28489 
L 246.93659 103.28489 
L 246.93659 103.000747 
L 247.232088 103.000747 
L 247.330588 102.432459 
L 247.429088 102.432459 
L 247.429088 101.864172 
L 247.724586 101.864172 
L 247.724586 101.580028 
L 249.005081 101.580028 
L 249.005081 101.295884 
L 253.53606 101.295884 
L 253.53606 101.01174 
L 253.831559 101.01174 
L 253.831559 100.727596 
L 254.028558 100.727596 
L 254.028558 100.443453 
L 254.225557 100.443453 
L 254.225557 100.159309 
L 254.422556 100.159309 
L 254.422556 99.875165 
L 254.816555 99.875165 
L 254.816555 99.591021 
L 255.013554 99.591021 
L 255.112053 99.022734 
L 256.688046 99.022734 
L 256.688046 98.73859 
L 257.574542 98.73859 
L 257.574542 98.454446 
L 260.825028 98.454446 
L 260.923527 97.886159 
L 261.022027 97.886159 
L 261.022027 97.317871 
L 261.219026 97.317871 
L 261.219026 97.033728 
L 261.416025 97.033728 
L 261.514524 96.46544 
L 261.908523 96.46544 
L 261.908523 96.181296 
L 263.090517 96.181296 
L 263.189017 95.613009 
L 263.287517 95.613009 
L 263.287517 95.328865 
L 263.681515 95.328865 
L 263.780014 94.760577 
L 264.469511 94.760577 
L 264.469511 94.476434 
L 264.66651 94.476434 
L 264.66651 93.908146 
L 265.356007 93.908146 
L 265.356007 93.624002 
L 267.0305 93.624002 
L 267.0305 93.055715 
L 267.621497 93.055715 
L 267.621497 92.771571 
L 268.015495 92.771571 
L 268.015495 92.487427 
L 269.591488 92.487427 
L 269.689988 91.91914 
L 270.083986 91.91914 
L 270.083986 91.350852 
L 270.970482 91.350852 
L 270.970482 91.066709 
L 271.856978 91.066709 
L 271.856978 90.782565 
L 272.152477 90.782565 
L 272.152477 90.498421 
L 273.925469 90.498421 
L 274.023968 89.930133 
L 275.008964 89.930133 
L 275.008964 89.64599 
L 275.402962 89.64599 
L 275.501462 89.077702 
L 276.486457 89.077702 
L 276.486457 88.793558 
L 276.781956 88.793558 
L 276.781956 88.225271 
L 276.978955 88.225271 
L 276.978955 87.941127 
L 277.668452 87.941127 
L 277.668452 87.37284 
L 278.850447 87.37284 
L 278.850447 87.088696 
L 280.032442 87.088696 
L 280.032442 85.952121 
L 281.608434 85.952121 
L 281.608434 85.667977 
L 282.199432 85.667977 
L 282.199432 85.383833 
L 283.381427 85.383833 
L 283.381427 85.099689 
L 283.578426 85.099689 
L 283.676925 84.531402 
L 284.070923 84.531402 
L 284.070923 84.247258 
L 285.449917 84.247258 
L 285.548417 83.110683 
L 285.942415 83.110683 
L 285.942415 82.826539 
L 286.533412 82.826539 
L 286.533412 82.542396 
L 286.927411 82.542396 
L 287.02591 81.974108 
L 287.616908 81.974108 
L 287.616908 81.689964 
L 290.670394 81.689964 
L 290.768893 80.837533 
L 293.625381 80.837533 
L 293.625381 80.553389 
L 294.905875 80.553389 
L 295.004374 79.985102 
L 295.496872 79.985102 
L 295.496872 79.700958 
L 296.678867 79.700958 
L 296.777367 79.13267 
L 298.353359 79.13267 
L 298.353359 78.848527 
L 299.732353 78.848527 
L 299.732353 78.564383 
L 300.52035 78.564383 
L 300.52035 78.280239 
L 301.308346 78.280239 
L 301.308346 77.996095 
L 302.096343 77.996095 
L 302.096343 77.711952 
L 302.490341 77.711952 
L 302.490341 77.427808 
L 302.982839 77.427808 
L 302.982839 77.143664 
L 303.179838 77.143664 
L 303.179838 76.85952 
L 303.376837 76.85952 
L 303.475336 76.291233 
L 303.967834 76.291233 
L 303.967834 76.007089 
L 304.755831 76.007089 
L 304.755831 75.722945 
L 305.740826 75.722945 
L 305.740826 75.438802 
L 307.513818 75.438802 
L 307.513818 75.154658 
L 307.907817 75.154658 
L 307.907817 74.870514 
L 309.680809 74.870514 
L 309.680809 74.58637 
L 311.059803 74.58637 
L 311.059803 74.302226 
L 313.226793 74.302226 
L 313.226793 74.018083 
L 313.81779 74.018083 
L 313.81779 73.733939 
L 315.098284 73.733939 
L 315.098284 73.449795 
L 317.068276 73.449795 
L 317.068276 73.165651 
L 319.727764 73.165651 
L 319.727764 72.881508 
L 322.288752 72.881508 
L 322.288752 72.597364 
L 323.273748 72.597364 
L 323.273748 72.31322 
L 323.864745 72.31322 
L 323.864745 72.029076 
L 325.243739 72.029076 
L 325.243739 71.744933 
L 326.721232 71.744933 
L 326.721232 71.460789 
L 326.918231 71.460789 
L 326.918231 70.892501 
L 327.804727 70.892501 
L 327.804727 70.324214 
L 329.676219 70.324214 
L 329.676219 70.04007 
L 330.168717 70.04007 
L 330.168717 69.755926 
L 330.365716 69.755926 
L 330.365716 69.471783 
L 331.055213 69.471783 
L 331.055213 69.187639 
L 332.335707 69.187639 
L 332.434207 68.619351 
L 333.616201 68.619351 
L 333.616201 68.335207 
L 336.17719 68.335207 
L 336.17719 68.051064 
L 337.654683 68.051064 
L 337.654683 67.76692 
L 339.723174 67.76692 
L 339.723174 67.482776 
L 340.018673 67.482776 
L 340.018673 67.198632 
L 340.905169 67.198632 
L 340.905169 66.630345 
L 342.481162 66.630345 
L 342.481162 66.346201 
L 344.746652 66.346201 
L 344.746652 66.062057 
L 349.376131 66.062057 
L 349.376131 65.777914 
L 350.361126 65.777914 
L 350.361126 64.925482 
L 350.558126 64.925482 
L 350.558126 64.641339 
L 353.020615 64.641339 
L 353.119114 64.073051 
L 354.00561 64.073051 
L 354.00561 63.788907 
L 354.596607 63.788907 
L 354.596607 63.504763 
L 356.468099 63.504763 
L 356.566599 62.652332 
L 357.059096 62.652332 
L 357.059096 62.368188 
L 360.309582 62.368188 
L 360.309582 62.084045 
L 360.80208 62.084045 
L 360.80208 61.515757 
L 362.082574 61.515757 
L 362.082574 61.231613 
L 364.939061 61.231613 
L 365.037561 60.663326 
L 367.106051 60.663326 
L 367.106051 60.379182 
L 368.386546 60.379182 
L 368.386546 60.095038 
L 370.061038 60.095038 
L 370.061038 59.810895 
L 380.206493 59.810895 
L 380.206493 59.526751 
L 382.865981 59.526751 
L 382.865981 59.242607 
L 384.047976 59.242607 
L 384.047976 58.958463 
L 391.336943 58.958463 
L 391.435442 58.106032 
L 393.996431 58.106032 
L 393.996431 57.821888 
L 395.375425 57.821888 
L 395.375425 57.537744 
L 397.246916 57.537744 
L 397.246916 57.253601 
L 397.443915 57.253601 
L 397.443915 56.969457 
L 397.739414 56.969457 
L 397.739414 56.685313 
L 400.300403 56.685313 
L 400.300403 56.401169 
L 400.497402 56.401169 
L 400.497402 55.832882 
L 405.028382 55.832882 
L 405.028382 55.548738 
L 411.430853 55.548738 
L 411.430853 55.264594 
L 413.203845 55.264594 
L 413.203845 54.980451 
L 414.28734 54.980451 
L 414.28734 54.696307 
L 421.08381 54.696307 
L 421.08381 54.412163 
L 421.970306 54.412163 
L 421.970306 54.128019 
L 422.364304 54.128019 
L 422.364304 53.843876 
L 423.349299 53.843876 
L 423.349299 53.559732 
L 425.51629 53.559732 
L 425.51629 53.275588 
L 431.918761 53.275588 
L 431.918761 52.991444 
L 433.593254 52.991444 
L 433.593254 52.7073 
L 441.867216 52.7073 
L 441.867216 52.423157 
L 444.034207 52.423157 
L 444.034207 52.139013 
L 447.580191 52.139013 
L 447.580191 51.854869 
L 447.87569 51.854869 
L 447.87569 51.570725 
L 454.770659 51.570725 
L 454.770659 51.286582 
L 455.657155 51.286582 
L 455.657155 51.002438 
L 463.537119 51.002438 
L 463.537119 50.718294 
L 465.60561 50.718294 
L 465.60561 50.43415 
L 467.181603 50.43415 
L 467.181603 50.150007 
L 473.781073 50.150007 
L 473.781073 49.865863 
L 487.275513 49.865863 
L 487.275513 49.581719 
L 487.669511 49.581719 
L 487.669511 49.297575 
L 490.328999 49.297575 
L 490.328999 49.013432 
L 492.101991 49.013432 
L 492.101991 48.729288 
L 496.140473 48.729288 
L 496.140473 48.445144 
L 502.838443 48.445144 
L 502.838443 48.161 
L 504.808434 48.161 
L 504.808434 47.876857 
L 509.536413 47.876857 
L 509.536413 47.592713 
L 509.930412 47.592713 
L 509.930412 47.308569 
L 528.546828 47.308569 
L 528.546828 47.024425 
L 529.531824 47.024425 
L 529.531824 46.740281 
L 530.812318 46.740281 
L 530.812318 46.456138 
L 537.805787 46.456138 
L 537.805787 46.171994 
L 538.593783 46.171994 
L 538.593783 45.88785 
L 542.927764 45.88785 
L 542.927764 45.603706 
L 543.617261 45.603706 
L 543.617261 45.319563 
L 556.225204 45.319563 
L 556.225204 45.035419 
L 571.886634 45.035419 
L 571.886634 44.751275 
L 572.87163 44.751275 
L 572.87163 44.182988 
L 573.068629 44.182988 
L 573.167128 43.330556 
L 573.955125 43.330556 
L 573.955125 43.046413 
L 574.349123 43.046413 
L 574.349123 42.762269 
L 574.546122 42.762269 
L 574.546122 42.478125 
L 576.417614 42.478125 
L 576.417614 42.478125 
" clip-path="url(#pdfadd1d8a3)" style="fill: none; stroke: #ff7f0e; stroke-width: 1.5; stroke-linecap: square"/>
   </g>
   <g id="line2d_15">
    <path d="M 69.144886 445.678125 
L 576.417614 42.478125 
" clip-path="url(#pdfadd1d8a3)" style="fill: none; stroke-dasharray: 5.55,2.4; stroke-dashoffset: 0; stroke: #ff0000; stroke-width: 1.5"/>
   </g>
   <g id="patch_3">
    <path d="M 43.78125 465.838125 
L 43.78125 22.318125 
" style="fill: none; stroke: #000000; stroke-width: 0.8; stroke-linejoin: miter; stroke-linecap: square"/>
   </g>
   <g id="patch_4">
    <path d="M 601.78125 465.838125 
L 601.78125 22.318125 
" style="fill: none; stroke: #000000; stroke-width: 0.8; stroke-linejoin: miter; stroke-linecap: square"/>
   </g>
   <g id="patch_5">
    <path d="M 43.78125 465.838125 
L 601.78125 465.838125 
" style="fill: none; stroke: #000000; stroke-width: 0.8; stroke-linejoin: miter; stroke-linecap: square"/>
   </g>
   <g id="patch_6">
    <path d="M 43.78125 22.318125 
L 601.78125 22.318125 
" style="fill: none; stroke: #000000; stroke-width: 0.8; stroke-linejoin: miter; stroke-linecap: square"/>
   </g>
   <g id="text_15">
    <!-- AUC ROC: 6 Variable KFRE -->
    <g transform="translate(243.9075 16.318125) scale(0.12 -0.12)">
     <defs>
      <path id="DejaVuSans-41" d="M 2188 4044 
L 1331 1722 
L 3047 1722 
L 2188 4044 
z
M 1831 4666 
L 2547 4666 
L 4325 0 
L 3669 0 
L 3244 1197 
L 1141 1197 
L 716 0 
L 50 0 
L 1831 4666 
z
" transform="scale(0.015625)"/>
      <path id="DejaVuSans-55" d="M 556 4666 
L 1191 4666 
L 1191 1831 
Q 1191 1081 1462 751 
Q 1734 422 2344 422 
Q 2950 422 3222 751 
Q 3494 1081 3494 1831 
L 3494 4666 
L 4128 4666 
L 4128 1753 
Q 4128 841 3676 375 
Q 3225 -91 2344 -91 
Q 1459 -91 1007 375 
Q 556 841 556 1753 
L 556 4666 
z
" transform="scale(0.015625)"/>
      <path id="DejaVuSans-43" d="M 4122 4306 
L 4122 3641 
Q 3803 3938 3442 4084 
Q 3081 4231 2675 4231 
Q 1875 4231 1450 3742 
Q 1025 3253 1025 2328 
Q 1025 1406 1450 917 
Q 1875 428 2675 428 
Q 3081 428 3442 575 
Q 3803 722 4122 1019 
L 4122 359 
Q 3791 134 3420 21 
Q 3050 -91 2638 -91 
Q 1578 -91 968 557 
Q 359 1206 359 2328 
Q 359 3453 968 4101 
Q 1578 4750 2638 4750 
Q 3056 4750 3426 4639 
Q 3797 4528 4122 4306 
z
" transform="scale(0.015625)"/>
      <path id="DejaVuSans-52" d="M 2841 2188 
Q 3044 2119 3236 1894 
Q 3428 1669 3622 1275 
L 4263 0 
L 3584 0 
L 2988 1197 
Q 2756 1666 2539 1819 
Q 2322 1972 1947 1972 
L 1259 1972 
L 1259 0 
L 628 0 
L 628 4666 
L 2053 4666 
Q 2853 4666 3247 4331 
Q 3641 3997 3641 3322 
Q 3641 2881 3436 2590 
Q 3231 2300 2841 2188 
z
M 1259 4147 
L 1259 2491 
L 2053 2491 
Q 2509 2491 2742 2702 
Q 2975 2913 2975 3322 
Q 2975 3731 2742 3939 
Q 2509 4147 2053 4147 
L 1259 4147 
z
" transform="scale(0.015625)"/>
      <path id="DejaVuSans-4f" d="M 2522 4238 
Q 1834 4238 1429 3725 
Q 1025 3213 1025 2328 
Q 1025 1447 1429 934 
Q 1834 422 2522 422 
Q 3209 422 3611 934 
Q 4013 1447 4013 2328 
Q 4013 3213 3611 3725 
Q 3209 4238 2522 4238 
z
M 2522 4750 
Q 3503 4750 4090 4092 
Q 4678 3434 4678 2328 
Q 4678 1225 4090 567 
Q 3503 -91 2522 -91 
Q 1538 -91 948 565 
Q 359 1222 359 2328 
Q 359 3434 948 4092 
Q 1538 4750 2522 4750 
z
" transform="scale(0.015625)"/>
      <path id="DejaVuSans-3a" d="M 750 794 
L 1409 794 
L 1409 0 
L 750 0 
L 750 794 
z
M 750 3309 
L 1409 3309 
L 1409 2516 
L 750 2516 
L 750 3309 
z
" transform="scale(0.015625)"/>
      <path id="DejaVuSans-56" d="M 1831 0 
L 50 4666 
L 709 4666 
L 2188 738 
L 3669 4666 
L 4325 4666 
L 2547 0 
L 1831 0 
z
" transform="scale(0.015625)"/>
      <path id="DejaVuSans-61" d="M 2194 1759 
Q 1497 1759 1228 1600 
Q 959 1441 959 1056 
Q 959 750 1161 570 
Q 1363 391 1709 391 
Q 2188 391 2477 730 
Q 2766 1069 2766 1631 
L 2766 1759 
L 2194 1759 
z
M 3341 1997 
L 3341 0 
L 2766 0 
L 2766 531 
Q 2569 213 2275 61 
Q 1981 -91 1556 -91 
Q 1019 -91 701 211 
Q 384 513 384 1019 
Q 384 1609 779 1909 
Q 1175 2209 1959 2209 
L 2766 2209 
L 2766 2266 
Q 2766 2663 2505 2880 
Q 2244 3097 1772 3097 
Q 1472 3097 1187 3025 
Q 903 2953 641 2809 
L 641 3341 
Q 956 3463 1253 3523 
Q 1550 3584 1831 3584 
Q 2591 3584 2966 3190 
Q 3341 2797 3341 1997 
z
" transform="scale(0.015625)"/>
      <path id="DejaVuSans-72" d="M 2631 2963 
Q 2534 3019 2420 3045 
Q 2306 3072 2169 3072 
Q 1681 3072 1420 2755 
Q 1159 2438 1159 1844 
L 1159 0 
L 581 0 
L 581 3500 
L 1159 3500 
L 1159 2956 
Q 1341 3275 1631 3429 
Q 1922 3584 2338 3584 
Q 2397 3584 2469 3576 
Q 2541 3569 2628 3553 
L 2631 2963 
z
" transform="scale(0.015625)"/>
      <path id="DejaVuSans-62" d="M 3116 1747 
Q 3116 2381 2855 2742 
Q 2594 3103 2138 3103 
Q 1681 3103 1420 2742 
Q 1159 2381 1159 1747 
Q 1159 1113 1420 752 
Q 1681 391 2138 391 
Q 2594 391 2855 752 
Q 3116 1113 3116 1747 
z
M 1159 2969 
Q 1341 3281 1617 3432 
Q 1894 3584 2278 3584 
Q 2916 3584 3314 3078 
Q 3713 2572 3713 1747 
Q 3713 922 3314 415 
Q 2916 -91 2278 -91 
Q 1894 -91 1617 61 
Q 1341 213 1159 525 
L 1159 0 
L 581 0 
L 581 4863 
L 1159 4863 
L 1159 2969 
z
" transform="scale(0.015625)"/>
      <path id="DejaVuSans-6c" d="M 603 4863 
L 1178 4863 
L 1178 0 
L 603 0 
L 603 4863 
z
" transform="scale(0.015625)"/>
      <path id="DejaVuSans-4b" d="M 628 4666 
L 1259 4666 
L 1259 2694 
L 3353 4666 
L 4166 4666 
L 1850 2491 
L 4331 0 
L 3500 0 
L 1259 2247 
L 1259 0 
L 628 0 
L 628 4666 
z
" transform="scale(0.015625)"/>
      <path id="DejaVuSans-46" d="M 628 4666 
L 3309 4666 
L 3309 4134 
L 1259 4134 
L 1259 2759 
L 3109 2759 
L 3109 2228 
L 1259 2228 
L 1259 0 
L 628 0 
L 628 4666 
z
" transform="scale(0.015625)"/>
      <path id="DejaVuSans-45" d="M 628 4666 
L 3578 4666 
L 3578 4134 
L 1259 4134 
L 1259 2753 
L 3481 2753 
L 3481 2222 
L 1259 2222 
L 1259 531 
L 3634 531 
L 3634 0 
L 628 0 
L 628 4666 
z
" transform="scale(0.015625)"/>
     </defs>
     <use xlink:href="#DejaVuSans-41"/>
     <use xlink:href="#DejaVuSans-55" x="68.408203"/>
     <use xlink:href="#DejaVuSans-43" x="141.601562"/>
     <use xlink:href="#DejaVuSans-20" x="211.425781"/>
     <use xlink:href="#DejaVuSans-52" x="243.212891"/>
     <use xlink:href="#DejaVuSans-4f" x="312.695312"/>
     <use xlink:href="#DejaVuSans-43" x="391.40625"/>
     <use xlink:href="#DejaVuSans-3a" x="461.230469"/>
     <use xlink:href="#DejaVuSans-20" x="494.921875"/>
     <use xlink:href="#DejaVuSans-36" x="526.708984"/>
     <use xlink:href="#DejaVuSans-20" x="590.332031"/>
     <use xlink:href="#DejaVuSans-56" x="622.119141"/>
     <use xlink:href="#DejaVuSans-61" x="682.777344"/>
     <use xlink:href="#DejaVuSans-72" x="744.056641"/>
     <use xlink:href="#DejaVuSans-69" x="785.169922"/>
     <use xlink:href="#DejaVuSans-61" x="812.953125"/>
     <use xlink:href="#DejaVuSans-62" x="874.232422"/>
     <use xlink:href="#DejaVuSans-6c" x="937.708984"/>
     <use xlink:href="#DejaVuSans-65" x="965.492188"/>
     <use xlink:href="#DejaVuSans-20" x="1027.015625"/>
     <use xlink:href="#DejaVuSans-4b" x="1058.802734"/>
     <use xlink:href="#DejaVuSans-46" x="1124.378906"/>
     <use xlink:href="#DejaVuSans-52" x="1181.898438"/>
     <use xlink:href="#DejaVuSans-45" x="1251.380859"/>
    </g>
   </g>
   <g id="legend_1">
    <g id="patch_7">
     <path d="M 50.78125 59.674375 
L 284.307813 59.674375 
Q 286.307813 59.674375 286.307813 57.674375 
L 286.307813 29.318125 
Q 286.307813 27.318125 284.307813 27.318125 
L 50.78125 27.318125 
Q 48.78125 27.318125 48.78125 29.318125 
L 48.78125 57.674375 
Q 48.78125 59.674375 50.78125 59.674375 
z
" style="fill: #ffffff; opacity: 0.8; stroke: #cccccc; stroke-linejoin: miter"/>
    </g>
    <g id="line2d_16">
     <path d="M 52.78125 35.416562 
L 62.78125 35.416562 
L 72.78125 35.416562 
" style="fill: none; stroke: #1f77b4; stroke-width: 1.5; stroke-linecap: square"/>
    </g>
    <g id="text_16">
     <!-- 6-variable 2-year outcome (AUC = 0.88) -->
     <g transform="translate(80.78125 38.916562) scale(0.1 -0.1)">
      <defs>
       <path id="DejaVuSans-6f" d="M 1959 3097 
Q 1497 3097 1228 2736 
Q 959 2375 959 1747 
Q 959 1119 1226 758 
Q 1494 397 1959 397 
Q 2419 397 2687 759 
Q 2956 1122 2956 1747 
Q 2956 2369 2687 2733 
Q 2419 3097 1959 3097 
z
M 1959 3584 
Q 2709 3584 3137 3096 
Q 3566 2609 3566 1747 
Q 3566 888 3137 398 
Q 2709 -91 1959 -91 
Q 1206 -91 779 398 
Q 353 888 353 1747 
Q 353 2609 779 3096 
Q 1206 3584 1959 3584 
z
" transform="scale(0.015625)"/>
       <path id="DejaVuSans-75" d="M 544 1381 
L 544 3500 
L 1119 3500 
L 1119 1403 
Q 1119 906 1312 657 
Q 1506 409 1894 409 
Q 2359 409 2629 706 
Q 2900 1003 2900 1516 
L 2900 3500 
L 3475 3500 
L 3475 0 
L 2900 0 
L 2900 538 
Q 2691 219 2414 64 
Q 2138 -91 1772 -91 
Q 1169 -91 856 284 
Q 544 659 544 1381 
z
M 1991 3584 
L 1991 3584 
z
" transform="scale(0.015625)"/>
       <path id="DejaVuSans-6d" d="M 3328 2828 
Q 3544 3216 3844 3400 
Q 4144 3584 4550 3584 
Q 5097 3584 5394 3201 
Q 5691 2819 5691 2113 
L 5691 0 
L 5113 0 
L 5113 2094 
Q 5113 2597 4934 2840 
Q 4756 3084 4391 3084 
Q 3944 3084 3684 2787 
Q 3425 2491 3425 1978 
L 3425 0 
L 2847 0 
L 2847 2094 
Q 2847 2600 2669 2842 
Q 2491 3084 2119 3084 
Q 1678 3084 1418 2786 
Q 1159 2488 1159 1978 
L 1159 0 
L 581 0 
L 581 3500 
L 1159 3500 
L 1159 2956 
Q 1356 3278 1631 3431 
Q 1906 3584 2284 3584 
Q 2666 3584 2933 3390 
Q 3200 3197 3328 2828 
z
" transform="scale(0.015625)"/>
       <path id="DejaVuSans-28" d="M 1984 4856 
Q 1566 4138 1362 3434 
Q 1159 2731 1159 2009 
Q 1159 1288 1364 580 
Q 1569 -128 1984 -844 
L 1484 -844 
Q 1016 -109 783 600 
Q 550 1309 550 2009 
Q 550 2706 781 3412 
Q 1013 4119 1484 4856 
L 1984 4856 
z
" transform="scale(0.015625)"/>
       <path id="DejaVuSans-3d" d="M 678 2906 
L 4684 2906 
L 4684 2381 
L 678 2381 
L 678 2906 
z
M 678 1631 
L 4684 1631 
L 4684 1100 
L 678 1100 
L 678 1631 
z
" transform="scale(0.015625)"/>
       <path id="DejaVuSans-29" d="M 513 4856 
L 1013 4856 
Q 1481 4119 1714 3412 
Q 1947 2706 1947 2009 
Q 1947 1309 1714 600 
Q 1481 -109 1013 -844 
L 513 -844 
Q 928 -128 1133 580 
Q 1338 1288 1338 2009 
Q 1338 2731 1133 3434 
Q 928 4138 513 4856 
z
" transform="scale(0.015625)"/>
      </defs>
      <use xlink:href="#DejaVuSans-36"/>
      <use xlink:href="#DejaVuSans-2d" x="63.623047"/>
      <use xlink:href="#DejaVuSans-76" x="97.082031"/>
      <use xlink:href="#DejaVuSans-61" x="156.261719"/>
      <use xlink:href="#DejaVuSans-72" x="217.541016"/>
      <use xlink:href="#DejaVuSans-69" x="258.654297"/>
      <use xlink:href="#DejaVuSans-61" x="286.4375"/>
      <use xlink:href="#DejaVuSans-62" x="347.716797"/>
      <use xlink:href="#DejaVuSans-6c" x="411.193359"/>
      <use xlink:href="#DejaVuSans-65" x="438.976562"/>
      <use xlink:href="#DejaVuSans-20" x="500.5"/>
      <use xlink:href="#DejaVuSans-32" x="532.287109"/>
      <use xlink:href="#DejaVuSans-2d" x="595.910156"/>
      <use xlink:href="#DejaVuSans-79" x="630.244141"/>
      <use xlink:href="#DejaVuSans-65" x="689.423828"/>
      <use xlink:href="#DejaVuSans-61" x="750.947266"/>
      <use xlink:href="#DejaVuSans-72" x="812.226562"/>
      <use xlink:href="#DejaVuSans-20" x="853.339844"/>
      <use xlink:href="#DejaVuSans-6f" x="885.126953"/>
      <use xlink:href="#DejaVuSans-75" x="946.308594"/>
      <use xlink:href="#DejaVuSans-74" x="1009.6875"/>
      <use xlink:href="#DejaVuSans-63" x="1048.896484"/>
      <use xlink:href="#DejaVuSans-6f" x="1103.876953"/>
      <use xlink:href="#DejaVuSans-6d" x="1165.058594"/>
      <use xlink:href="#DejaVuSans-65" x="1262.470703"/>
      <use xlink:href="#DejaVuSans-20" x="1323.994141"/>
      <use xlink:href="#DejaVuSans-28" x="1355.78125"/>
      <use xlink:href="#DejaVuSans-41" x="1394.794922"/>
      <use xlink:href="#DejaVuSans-55" x="1463.203125"/>
      <use xlink:href="#DejaVuSans-43" x="1536.396484"/>
      <use xlink:href="#DejaVuSans-20" x="1606.220703"/>
      <use xlink:href="#DejaVuSans-3d" x="1638.007812"/>
      <use xlink:href="#DejaVuSans-20" x="1721.796875"/>
      <use xlink:href="#DejaVuSans-30" x="1753.583984"/>
      <use xlink:href="#DejaVuSans-2e" x="1817.207031"/>
      <use xlink:href="#DejaVuSans-38" x="1848.994141"/>
      <use xlink:href="#DejaVuSans-38" x="1912.617188"/>
      <use xlink:href="#DejaVuSans-29" x="1976.240234"/>
     </g>
    </g>
    <g id="line2d_17">
     <path d="M 52.78125 50.094687 
L 62.78125 50.094687 
L 72.78125 50.094687 
" style="fill: none; stroke: #ff7f0e; stroke-width: 1.5; stroke-linecap: square"/>
    </g>
    <g id="text_17">
     <!-- 6-variable 5-year outcome (AUC = 0.85) -->
     <g transform="translate(80.78125 53.594687) scale(0.1 -0.1)">
      <defs>
       <path id="DejaVuSans-35" d="M 691 4666 
L 3169 4666 
L 3169 4134 
L 1269 4134 
L 1269 2991 
Q 1406 3038 1543 3061 
Q 1681 3084 1819 3084 
Q 2600 3084 3056 2656 
Q 3513 2228 3513 1497 
Q 3513 744 3044 326 
Q 2575 -91 1722 -91 
Q 1428 -91 1123 -41 
Q 819 9 494 109 
L 494 744 
Q 775 591 1075 516 
Q 1375 441 1709 441 
Q 2250 441 2565 725 
Q 2881 1009 2881 1497 
Q 2881 1984 2565 2268 
Q 2250 2553 1709 2553 
Q 1456 2553 1204 2497 
Q 953 2441 691 2322 
L 691 4666 
z
" transform="scale(0.015625)"/>
      </defs>
      <use xlink:href="#DejaVuSans-36"/>
      <use xlink:href="#DejaVuSans-2d" x="63.623047"/>
      <use xlink:href="#DejaVuSans-76" x="97.082031"/>
      <use xlink:href="#DejaVuSans-61" x="156.261719"/>
      <use xlink:href="#DejaVuSans-72" x="217.541016"/>
      <use xlink:href="#DejaVuSans-69" x="258.654297"/>
      <use xlink:href="#DejaVuSans-61" x="286.4375"/>
      <use xlink:href="#DejaVuSans-62" x="347.716797"/>
      <use xlink:href="#DejaVuSans-6c" x="411.193359"/>
      <use xlink:href="#DejaVuSans-65" x="438.976562"/>
      <use xlink:href="#DejaVuSans-20" x="500.5"/>
      <use xlink:href="#DejaVuSans-35" x="532.287109"/>
      <use xlink:href="#DejaVuSans-2d" x="595.910156"/>
      <use xlink:href="#DejaVuSans-79" x="630.244141"/>
      <use xlink:href="#DejaVuSans-65" x="689.423828"/>
      <use xlink:href="#DejaVuSans-61" x="750.947266"/>
      <use xlink:href="#DejaVuSans-72" x="812.226562"/>
      <use xlink:href="#DejaVuSans-20" x="853.339844"/>
      <use xlink:href="#DejaVuSans-6f" x="885.126953"/>
      <use xlink:href="#DejaVuSans-75" x="946.308594"/>
      <use xlink:href="#DejaVuSans-74" x="1009.6875"/>
      <use xlink:href="#DejaVuSans-63" x="1048.896484"/>
      <use xlink:href="#DejaVuSans-6f" x="1103.876953"/>
      <use xlink:href="#DejaVuSans-6d" x="1165.058594"/>
      <use xlink:href="#DejaVuSans-65" x="1262.470703"/>
      <use xlink:href="#DejaVuSans-20" x="1323.994141"/>
      <use xlink:href="#DejaVuSans-28" x="1355.78125"/>
      <use xlink:href="#DejaVuSans-41" x="1394.794922"/>
      <use xlink:href="#DejaVuSans-55" x="1463.203125"/>
      <use xlink:href="#DejaVuSans-43" x="1536.396484"/>
      <use xlink:href="#DejaVuSans-20" x="1606.220703"/>
      <use xlink:href="#DejaVuSans-3d" x="1638.007812"/>
      <use xlink:href="#DejaVuSans-20" x="1721.796875"/>
      <use xlink:href="#DejaVuSans-30" x="1753.583984"/>
      <use xlink:href="#DejaVuSans-2e" x="1817.207031"/>
      <use xlink:href="#DejaVuSans-38" x="1848.994141"/>
      <use xlink:href="#DejaVuSans-35" x="1912.617188"/>
      <use xlink:href="#DejaVuSans-29" x="1976.240234"/>
     </g>
    </g>
   </g>
  </g>
 </g>
 <defs>
  <clipPath id="pdfadd1d8a3">
   <rect x="43.78125" y="22.318125" width="558" height="443.52"/>
  </clipPath>
 </defs>
</svg>
